#N canvas 827 239 527 327 12;
#X obj 143 115 canvas.pos;
#X obj 139 179 canvas.mouse;
#X floatatom 169 231 5 0 0 0 empty - - 12;
#X floatatom 225 225 5 0 0 0 empty - - 12;
#X obj 0 0 tgl 25 0 empty empty empty 17 7 0 10 #e4e4e4 #5a5a5a #5a5a5a 0 1;
#X msg 213 41 pos 0 0;
#X connect 1 1 2 0 empty;
#X connect 1 2 3 0 empty;
#X connect 5 0 4 0 empty;
