#N canvas 827 239 527 327 12;
#X obj 57 71 canvas.mouse;
#X floatatom 99 130 5 0 0 0 empty - - 12;
#X floatatom 148 127 5 0 0 0 empty - - 12;
#N canvas 0 50 450 300 sub.canvas.mouse 1;
#X obj 124 69 canvas.mouse 1;
#X obj 163 122 outlet;
#X obj 257 122 outlet;
#X connect 0 1 1 0 empty;
#X connect 0 2 2 0 empty;
#X coords 0 0 1 1 200 140 0;
#X restore 239 79 pd sub.canvas.mouse 1;
#X floatatom 246 115 5 0 0 0 empty - - 12;
#X floatatom 366 113 5 0 0 0 empty - - 12;
#X obj 0 0 tgl 25 0 empty empty empty 17 7 0 10 #e4e4e4 #5a5a5a #5a5a5a 0 1;
#X msg 19 -1 pos 0 0;
#X connect 0 1 1 0 empty;
#X connect 0 2 2 0 empty;
#X connect 3 0 4 0 empty;
#X connect 3 1 5 0 empty;
#X connect 7 0 6 0 empty;
