#N canvas 417 545 1379 492 12;
#X text 94 45 demande;
#X obj 503 114 r \$0-midi_map_status;
#X obj 464 203 route -1;
#X obj 437 164 list append;
#X obj 524 325 list prepend mapping \$6;
#N canvas 121 82 1618 874 midi_mapping 0;
#X obj 579 77 spigot;
#X obj 650 49 r MIDI_LEARN;
#X obj 646 128 v MIDI_CHANNEL;
#X obj 617 154 v MIDI_MAP_NUM;
#X obj 564 183 v MIDI_MAP_TYPE;
#X obj 578 227 pack f f f;
#X text 732 187 -1 error;
#X text 820 185 0 ctl;
#X text 879 185 1 note;
#X text 956 185 2 keyboard (azerty);
#X text 1116 186 3 macro;
#X obj 466 143 s MIDI_LEARN_OK;
#X msg 523 181 0;
#X msg 792 478 clear;
#X obj 703 585 s pd-\$0-midi_listener;
#N canvas 106 616 1375 300 \$0-midi_listener 0;
#X obj 10 10 ctlin 2 1;
#X obj 10 50 s 1653-receive_from_listener;
#X connect 0 0 1 0;
#X restore 1182 62 pd \$0-midi_listener;
#X msg 525 207 1;
#X obj 1183 182 spigot 1;
#X obj 1351 112 r MIDI_LEARN;
#X obj 1353 139 == 0;
#X obj 1183 95 r \$0-receive_from_listener;
#N canvas 0 50 1277 474 create_listener 0;
#X obj 266 12 inlet;
#X obj 341 336 outlet;
#X obj 259 43 route -1 0 1;
#X text 636 36 -1 error;
#X text 638 60 0 ctl;
#X text 636 86 1 note;
#X text 792 36 2 keyboard (azerty);
#X text 791 66 3 macro;
#X msg 372 177 obj 10 10 notein \$2 \, obj 10 50 pack f f \, obj 10
90 route \$1 \, obj 10 130 s \$3-receive_from_listener \, connect 0
0 1 0 \, connect 0 1 1 1 \, connect 1 0 2 0 \, connect 2 0 3 0;
#X msg 248 128 obj 10 10 ctlin \$1 \$2 \, obj 10 50 s \$3-receive_from_listener
\, connect 0 0 1 0;
#X obj 226 329 outlet;
#X obj 283 82 t l l;
#X obj 331 83 t l l;
#X msg 146 195 0;
#X msg 229 230 1 (ctl:\$2.\$1);
#X msg 266 262 1 (note:\$2.\$1);
#X connect 0 0 2 0;
#X connect 2 0 13 0;
#X connect 2 1 11 0;
#X connect 2 2 12 0;
#X connect 2 3 13 0;
#X connect 8 0 1 0;
#X connect 9 0 1 0;
#X connect 11 0 14 0;
#X connect 11 1 9 0;
#X connect 12 0 15 0;
#X connect 12 1 8 0;
#X connect 13 0 10 0;
#X connect 14 0 10 0;
#X connect 15 0 10 0;
#X restore 580 451 pd create_listener;
#X text 633 508 TODO : comment créer plusieurs listeners ?;
#X obj 1016 54 f \$0;
#X floatatom 1016 79 5 0 0 0 - - -;
#X obj 1019 30 bng 15 250 50 0 empty empty empty 17 7 0 10 -262144
-1 -1;
#X obj 400 697 list append;
#X obj 396 558 symbol \$8;
#X obj 406 528 spigot;
#X obj 453 494 list split 1;
#X obj 340 472 r MIDI_LEARN;
#X obj 340 497 select 0 1;
#X msg 311 622 label \$1;
#X obj 311 548 symbol \$8;
#X msg 400 722 label \$1\$2;
#N canvas 0 50 450 300 MIDI_LEARN_mode_colors 0;
#X obj 77 56 select 0 1;
#X obj 78 25 r MIDI_LEARN;
#X obj 28 202 list append color \$9 \$10 \$11;
#X obj 28 227 list trim;
#X msg 86 168 color #FFCCAA -1 -1;
#X obj 302 72 r \$0-is_mapped;
#X obj 102 101 f;
#X obj 94 135 select 0 1;
#X msg 259 166 color #DDAA88 -1 -1;
#X obj 31 255 s \$2-\$7;
#X connect 0 0 2 0;
#X connect 0 1 6 0;
#X connect 1 0 0 0;
#X connect 2 0 3 0;
#X connect 3 0 9 0;
#X connect 4 0 9 0;
#X connect 5 0 6 1;
#X connect 6 0 7 0;
#X connect 7 0 4 0;
#X connect 7 1 8 0;
#X connect 8 0 9 0;
#X restore 232 38 pd MIDI_LEARN_mode_colors;
#X obj 497 534 s \$0-is_mapped;
#X obj 1345 170 r MIDI_MAP_FROM;
#X obj 1341 238 r MIDI_MAP_TO;
#X obj 1185 219 spigot 1;
#X obj 1345 195 == 0;
#X obj 1184 283 spigot 1;
#X obj 1341 263 == 0;
#X obj 175 214 list split 3;
#X obj 399 595 select empty;
#X obj 399 647 symbol ______;
#X obj 175 189 r \$2-mapping_\$6;
#X obj 311 774 s \$2-\$7;
#X obj 527 26 r \$2-\$6;
#X obj 1147 818 s \$2-\$7;
#X obj 1184 325 > 64;
#X obj 1184 350 select 1;
#X obj 556 367 list append \$0;
#X obj 589 315 s \$0-midi_map_status;
#X obj 558 276 t l l;
#X obj 579 102 t b b b b;
#X obj 555 397 t l b;
#X connect 0 0 55 0;
#X connect 1 0 0 1;
#X connect 2 0 5 2;
#X connect 3 0 5 1;
#X connect 4 0 5 0;
#X connect 5 0 54 0;
#X connect 12 0 5 0;
#X connect 13 0 14 0;
#X connect 16 0 5 0;
#X connect 17 0 39 0;
#X connect 18 0 19 0;
#X connect 19 0 17 1;
#X connect 20 0 17 0;
#X connect 21 0 29 0;
#X connect 21 1 14 0;
#X connect 23 0 24 0;
#X connect 25 0 23 0;
#X connect 26 0 34 0;
#X connect 27 0 44 0;
#X connect 28 0 27 0;
#X connect 29 0 28 1;
#X connect 29 0 36 0;
#X connect 29 1 26 1;
#X connect 30 0 31 0;
#X connect 31 0 33 0;
#X connect 31 1 28 0;
#X connect 32 0 47 0;
#X connect 33 0 32 0;
#X connect 34 0 47 0;
#X connect 37 0 40 0;
#X connect 38 0 42 0;
#X connect 39 0 41 0;
#X connect 40 0 39 1;
#X connect 41 0 50 0;
#X connect 42 0 41 1;
#X connect 43 0 54 0;
#X connect 44 0 45 0;
#X connect 44 1 26 0;
#X connect 45 0 26 0;
#X connect 46 0 43 0;
#X connect 48 0 0 0;
#X connect 50 0 51 0;
#X connect 51 0 49 0;
#X connect 52 0 56 0;
#X connect 54 0 52 0;
#X connect 54 1 53 0;
#X connect 55 0 11 0;
#X connect 55 1 4 0;
#X connect 55 2 3 0;
#X connect 55 3 2 0;
#X connect 56 0 21 0;
#X connect 56 1 13 0;
#X restore 442 53 pd midi_mapping;
#X obj 197 54 r \$2-save_state;
#X obj 524 354 s \$2-dump_state;
#X connect 1 0 3 1;
#X connect 2 1 4 0;
#X connect 3 0 2 0;
#X connect 4 0 7 0;
#X connect 6 0 3 0;
