#N canvas 417 545 1379 492 12;
#X obj 199 156 list prepend dispatch \$6;
#X text 94 45 demande;
#X obj 503 114 r \$0-midi_map_status;
#X obj 464 203 route -1;
#X obj 437 164 list append;
#X obj 198 81 t b b;
#X obj 524 300 list append lin;
#X obj 524 325 list prepend mapping \$6;
#N canvas 121 82 1618 874 midi_mapping 0;
#X obj 579 77 spigot;
#X obj 650 49 r MIDI_LEARN;
#X obj 646 128 v MIDI_CHANNEL;
#X obj 617 154 v MIDI_MAP_NUM;
#X obj 564 183 v MIDI_MAP_TYPE;
#X obj 578 227 pack f f f;
#X text 732 187 -1 error;
#X text 820 185 0 ctl;
#X text 879 185 1 note;
#X text 956 185 2 keyboard (azerty);
#X text 1116 186 3 macro;
#X obj 428 146 s MIDI_LEARN_OK;
#X msg 523 181 0;
#X msg 792 468 clear;
#X obj 703 575 s pd-\$0-midi_listener;
#N canvas 106 616 1375 300 \$0-midi_listener 0;
#X obj 10 10 ctlin 2 1;
#X obj 10 50 s 1651-receive_from_listener;
#X connect 0 0 1 0;
#X restore 1182 62 pd \$0-midi_listener;
#X obj 1184 325 / 127;
#X obj 1182 533 -;
#X obj 1185 448 t f f;
#X msg 1147 768 set \$1;
#X obj 1189 559 + \$4;
#X msg 525 207 1;
#X obj 1175 486 * \$5;
#X obj 1216 487 * \$4;
#X obj 1183 182 spigot 1;
#X obj 1351 112 r MIDI_LEARN;
#X obj 1353 139 == 0;
#X obj 1183 95 r \$0-receive_from_listener;
#N canvas 0 50 1277 474 create_listener 0;
#X obj 266 12 inlet;
#X obj 341 336 outlet;
#X obj 259 43 route -1 0 1;
#X text 636 36 -1 error;
#X text 638 60 0 ctl;
#X text 636 86 1 note;
#X text 792 36 2 keyboard (azerty);
#X text 791 66 3 macro;
#X msg 372 177 obj 10 10 notein \$2 \, obj 10 50 pack f f \, obj 10
90 route \$1 \, obj 10 130 s \$3-receive_from_listener \, connect 0
0 1 0 \, connect 0 1 1 1 \, connect 1 0 2 0 \, connect 2 0 3 0;
#X msg 248 128 obj 10 10 ctlin \$1 \$2 \, obj 10 50 s \$3-receive_from_listener
\, connect 0 0 1 0;
#X obj 226 329 outlet;
#X obj 283 82 t l l;
#X obj 331 83 t l l;
#X msg 146 195 0;
#X msg 229 230 1 (ctl:\$2.\$1);
#X msg 266 262 1 (note:\$2.\$1);
#X connect 0 0 2 0;
#X connect 2 0 13 0;
#X connect 2 1 11 0;
#X connect 2 2 12 0;
#X connect 2 3 13 0;
#X connect 8 0 1 0;
#X connect 9 0 1 0;
#X connect 11 0 14 0;
#X connect 11 1 9 0;
#X connect 12 0 15 0;
#X connect 12 1 8 0;
#X connect 13 0 10 0;
#X connect 14 0 10 0;
#X connect 15 0 10 0;
#X restore 580 441 pd create_listener;
#X text 633 498 TODO : comment créer plusieurs listeners ?;
#X obj 1016 54 f \$0;
#X floatatom 1016 79 5 0 0 0 - - -;
#X obj 1019 30 bng 15 250 50 0 empty empty empty 17 7 0 10 -262144
-1 -1;
#X obj 400 687 list append;
#X obj 396 548 symbol \$8;
#X obj 406 518 spigot;
#X obj 453 484 list split 1;
#X obj 340 462 r MIDI_LEARN;
#X obj 340 487 select 0 1;
#X msg 311 612 label \$1;
#X obj 311 538 symbol \$8;
#X msg 400 712 label \$1\$2;
#N canvas 0 50 450 300 MIDI_LEARN_mode_colors 0;
#X obj 77 56 select 0 1;
#X obj 78 25 r MIDI_LEARN;
#X obj 28 202 list append color \$9 \$10 \$11;
#X obj 28 227 list trim;
#X msg 86 168 color #FFCCAA -1 -1;
#X obj 302 72 r \$0-is_mapped;
#X obj 102 101 f;
#X obj 94 135 select 0 1;
#X msg 259 166 color #DDAA88 -1 -1;
#X obj 31 255 s \$2-\$7;
#X connect 0 0 2 0;
#X connect 0 1 6 0;
#X connect 1 0 0 0;
#X connect 2 0 3 0;
#X connect 3 0 9 0;
#X connect 4 0 9 0;
#X connect 5 0 6 1;
#X connect 6 0 7 0;
#X connect 7 0 4 0;
#X connect 7 1 8 0;
#X connect 8 0 9 0;
#X restore 232 38 pd MIDI_LEARN_mode_colors;
#X obj 497 524 s \$0-is_mapped;
#N canvas 0 50 1424 814 MAP_FROM_mode_colors 0;
#X obj 509 102 select 0 1;
#X obj 473 170 list append color \$9 \$10 \$11;
#X obj 473 195 list trim;
#X msg 531 136 color #AAFFAA -1 -1;
#X obj 554 49 r \$0-is_mapped;
#X obj 516 73 spigot;
#X obj 403 89 spigot;
#X obj 519 24 r MIDI_MAP_FROM;
#X obj 401 120 s \$0-map_from;
#X obj 193 136 r \$0-map_from;
#X obj 97 231 symbol \$8;
#X obj 97 211 spigot;
#X obj 31 142 select 0 1;
#X msg 9 394 label \$1;
#X obj 9 369 symbol \$8;
#X obj 31 117 r MIDI_MAP_FROM;
#X msg 91 394 label \$1(from=\$2);
#X obj 140 78 r \$0-is_mapped;
#X obj 91 369 list append \$4;
#X obj 192 166 t b f;
#X obj 107 266 select empty;
#X obj 107 318 symbol ______;
#X obj 8 426 s \$2-\$7;
#X obj 476 223 s \$2-\$7;
#X obj 400 48 r \$2-\$6;
#X connect 0 0 1 0;
#X connect 0 1 3 0;
#X connect 1 0 2 0;
#X connect 2 0 23 0;
#X connect 3 0 23 0;
#X connect 4 0 5 1;
#X connect 5 0 0 0;
#X connect 5 0 6 1;
#X connect 6 0 8 0;
#X connect 7 0 5 0;
#X connect 9 0 19 0;
#X connect 10 0 20 0;
#X connect 11 0 10 0;
#X connect 12 0 14 0;
#X connect 12 1 11 0;
#X connect 13 0 22 0;
#X connect 14 0 13 0;
#X connect 15 0 12 0;
#X connect 16 0 22 0;
#X connect 17 0 11 1;
#X connect 18 0 16 0;
#X connect 19 0 11 0;
#X connect 19 1 18 1;
#X connect 20 0 21 0;
#X connect 20 1 18 0;
#X connect 21 0 18 0;
#X connect 24 0 6 0;
#X restore 231 78 pd MAP_FROM_mode_colors;
#N canvas 0 50 796 514 MAP_TO_mode_colors 0;
#X obj 544 133 select 0 1;
#X obj 511 199 list append color \$9 \$10 \$11;
#X obj 511 224 list trim;
#X msg 569 165 color #AAFFFF -1 -1;
#X obj 702 74 r \$0-is_mapped;
#X obj 552 103 spigot;
#X obj 408 156 spigot;
#X obj 406 187 s \$0-map_to;
#X obj 561 72 r MIDI_MAP_TO;
#X obj 104 163 symbol \$8;
#X obj 104 127 spigot;
#X obj 38 58 select 0 1;
#X msg 21 362 label \$1;
#X obj 21 337 symbol \$8;
#X obj 163 63 r \$0-is_mapped;
#X obj 38 33 r MIDI_MAP_TO;
#X obj 234 132 r \$0-map_to;
#X msg 103 362 label \$1(to=\$2);
#X obj 103 337 list append \$5;
#X obj 191 161 t b f;
#X obj 118 212 select empty;
#X obj 118 264 symbol ______;
#X obj 20 394 s \$2-\$7;
#X obj 405 115 r \$2-\$6;
#X obj 514 252 s \$2-\$7;
#X connect 0 0 1 0;
#X connect 0 1 3 0;
#X connect 1 0 2 0;
#X connect 2 0 24 0;
#X connect 3 0 24 0;
#X connect 4 0 5 1;
#X connect 5 0 0 0;
#X connect 5 0 6 1;
#X connect 6 0 7 0;
#X connect 8 0 5 0;
#X connect 9 0 20 0;
#X connect 10 0 9 0;
#X connect 11 0 13 0;
#X connect 11 1 10 0;
#X connect 12 0 22 0;
#X connect 13 0 12 0;
#X connect 14 0 10 1;
#X connect 15 0 11 0;
#X connect 16 0 19 0;
#X connect 17 0 22 0;
#X connect 18 0 17 0;
#X connect 19 0 10 0;
#X connect 19 1 18 1;
#X connect 20 0 21 0;
#X connect 20 1 18 0;
#X connect 21 0 18 0;
#X connect 23 0 6 0;
#X restore 232 118 pd MAP_TO_mode_colors;
#X obj 1284 454 r \$0-map_from;
#X obj 1201 398 r \$0-map_to;
#X obj 1345 170 r MIDI_MAP_FROM;
#X obj 1341 238 r MIDI_MAP_TO;
#X obj 1185 219 spigot 1;
#X obj 1345 195 == 0;
#X obj 1184 283 spigot 1;
#X obj 1341 263 == 0;
#X obj 175 214 list split 3;
#X obj 198 258 unpack f f s;
#X obj 106 301 s \$0-map_from;
#X obj 215 302 s \$0-map_to;
#X obj 321 304 s \$0-map_scale;
#X msg 328 266 symbol lin;
#X obj 399 585 select empty;
#X obj 399 637 symbol ______;
#X obj 1274 479 t a a;
#X obj 1181 668 t f f;
#X obj 1185 602 + 0.5;
#X obj 1183 630 int;
#X obj 175 189 r \$2-mapping_\$6;
#X obj 311 764 s \$2-\$7;
#X obj 527 26 r \$2-\$6;
#X obj 1147 818 s \$2-\$7;
#X obj 1236 819 s \$2-\$6;
#X obj 572 326 list append \$0;
#X obj 609 303 s \$0-midi_map_status;
#X obj 578 264 t l l;
#X obj 579 102 t b b b b;
#X obj 551 358 t l b;
#X connect 0 0 74 0;
#X connect 1 0 0 1;
#X connect 2 0 5 2;
#X connect 3 0 5 1;
#X connect 4 0 5 0;
#X connect 5 0 73 0;
#X connect 12 0 5 0;
#X connect 13 0 14 0;
#X connect 16 0 18 0;
#X connect 17 0 20 0;
#X connect 18 0 22 0;
#X connect 18 1 23 0;
#X connect 19 0 69 0;
#X connect 20 0 64 0;
#X connect 21 0 5 0;
#X connect 22 0 17 0;
#X connect 23 0 17 1;
#X connect 24 0 50 0;
#X connect 25 0 26 0;
#X connect 26 0 24 1;
#X connect 27 0 24 0;
#X connect 28 0 36 0;
#X connect 28 1 14 0;
#X connect 30 0 31 0;
#X connect 32 0 30 0;
#X connect 33 0 41 0;
#X connect 34 0 60 0;
#X connect 35 0 34 0;
#X connect 36 0 35 1;
#X connect 36 0 43 0;
#X connect 36 1 33 1;
#X connect 37 0 38 0;
#X connect 38 0 40 0;
#X connect 38 1 35 0;
#X connect 39 0 67 0;
#X connect 40 0 39 0;
#X connect 41 0 67 0;
#X connect 46 0 62 0;
#X connect 47 0 22 1;
#X connect 48 0 51 0;
#X connect 49 0 53 0;
#X connect 50 0 52 0;
#X connect 51 0 50 1;
#X connect 52 0 16 0;
#X connect 53 0 52 1;
#X connect 54 0 73 0;
#X connect 54 1 55 0;
#X connect 55 0 56 0;
#X connect 55 1 57 0;
#X connect 55 2 58 0;
#X connect 59 0 58 0;
#X connect 60 0 61 0;
#X connect 60 1 33 0;
#X connect 61 0 33 0;
#X connect 62 0 20 1;
#X connect 62 1 23 1;
#X connect 63 0 19 0;
#X connect 63 1 70 0;
#X connect 64 0 65 0;
#X connect 65 0 63 0;
#X connect 66 0 54 0;
#X connect 68 0 0 0;
#X connect 71 0 75 0;
#X connect 73 0 71 0;
#X connect 73 1 72 0;
#X connect 74 0 11 0;
#X connect 74 1 4 0;
#X connect 74 2 3 0;
#X connect 74 3 2 0;
#X connect 75 0 28 0;
#X connect 75 1 13 0;
#X restore 442 53 pd midi_mapping;
#X msg 47 388 set \$1;
#X obj 600 204 r \$0-map_from;
#X obj 631 244 r \$0-map_to;
#X obj 644 267 r \$0-map_scale;
#X obj 514 243 list append \$4;
#X obj 524 275 list append \$5;
#X obj 197 54 r \$2-save_state;
#X obj 199 107 v \$2-\$6;
#X obj 46 350 r \$2-dispatch_\$6;
#X obj 524 354 s \$2-dump_state;
#X obj 199 209 s \$2-dump_state;
#X obj 47 413 s \$2-\$7;
#X obj 146 414 s \$2-\$6;
#X connect 0 0 19 0;
#X connect 2 0 4 1;
#X connect 3 1 13 0;
#X connect 4 0 3 0;
#X connect 5 0 16 0;
#X connect 5 1 4 0;
#X connect 6 0 7 0;
#X connect 7 0 18 0;
#X connect 9 0 20 0;
#X connect 10 0 13 1;
#X connect 11 0 14 1;
#X connect 12 0 6 1;
#X connect 13 0 14 0;
#X connect 14 0 6 0;
#X connect 15 0 5 0;
#X connect 16 0 0 0;
#X connect 17 0 9 0;
#X connect 17 0 21 0;
