#N canvas 560 124 1293 632 16;
#X declare -path ../;
#X obj 277 79 iemguts/canvasname 1;
#X obj 404 120 list fromsymbol;
#X obj 404 145 t l l;
#X obj 470 168 list length;
#X obj 470 193 - 3;
#X obj 394 232 list split;
#N canvas 0 50 450 300 \$0-sandbox 1;
#X restore 722 32 pd \$0-sandbox;
#X obj 497 719 s pd-\$0-sandbox;
#X obj 384 269 list tosymbol;
#X obj 273 568 delay 10;
#X msg 310 607 vis 1;
#X msg 488 675 selectall \, copy;
#X obj 194 613 delay 10;
#X obj 250 663 delay 10;
#X msg 251 694 paste;
#X obj 251 743 iemguts/sendcanvas 1;
#X obj 167 726 delay 10;
#X obj 280 25 loadbang;
#X obj 73 754 f \$1;
#X obj 54 786 select 0;
#X obj 1123 160 s \$0-widgets;
#X msg 1126 120 click;
#X text 266 462 done;
#N canvas 0 57 1920 1023 create_widgets_dispatchers 0;
#X obj 94 38 inlet;
#X obj 93 178 text sequence \$0-widgets;
#X msg 111 138 line 0 \, bang;
#X obj 94 246 list trim;
#X text 495 257 16 - 18;
#X obj 124 641 list prepend obj 10 10;
#X msg 388 638 list obj 10 \$1;
#X obj 93 205 t l b;
#X obj 363 261 f;
#X msg 385 215 0;
#X obj 365 876 list trim;
#X msg 556 196 clear;
#X obj 91 82 t b b b b;
#X obj 53 840 outlet done;
#X obj 408 903 s pd-\$0-gui_listeners;
#X obj 374 701 list split 4;
#X obj 318 772 list append \\\$0;
#X obj 350 840 list append;
#X obj 92 366 list prepend state_saving_module/hsl_dispatch;
#X obj 104 408 list prepend state_saving_module/vsl_dispatch;
#X obj 118 445 list prepend state_saving_module/hradio_dispatch;
#X obj 137 481 list prepend state_saving_module/vradio_dispatch;
#X obj 342 737 list append <obj_name>;
#X obj 313 801 list append \\\$1;
#X obj 557 709 r \$0-name;
#X obj 431 261 + 60;
#X text 485 61 nbx 179 114 5 14 -1e+37 1e+37 0 0 empty empty empty
0 -8 0 10 -262144 -1 -1 0 256 \;, f 87;
#X text 475 103 bng 236 56 15 250 50 0 empty empty empty 17 7 0 10
-262144 -1 -1 \;, f 74;
#X text 678 252 #X obj 263 120 hsl 128 15 0 127 0 0 empty empty empty
-2 -8 0 10 -262144 -1 -1 0 1 \; #X obj 128 117 vsl 15 128 0 127 0 0
empty empty empty 0 -9 0 10 -262144 -1 -1 0 1 \; #X obj 262 167 tgl
15 0 empty empty empty 17 7 0 10 -262144 -1 -1 0 1 \; #X obj 336 156
bng 15 250 50 0 empty empty empty 17 7 0 10 -262144 -1 -1 \; #X obj
386 122 vradio 15 1 0 8 empty empty empty 0 -8 0 10 -262144 -1 -1 0
\; #X obj 194 271 hradio 15 1 0 8 empty empty empty 0 -8 0 10 -262144
-1 -1 0 \; #X obj 279 214 nbx 5 14 -1e+37 1e+37 0 0 empty empty empty
0 -8 0 10 -262144 -1 -1 0 256 \;, f 86;
#X obj 142 511 list prepend state_saving_module/tgl_dispatch;
#X obj 150 547 list prepend state_saving_module/bng_dispatch;
#X text 666 432 bwl-osc 1 hradio 261 286 15 1 1 4 \\\$0-bwl-osc-wform-s
\\\$0-bwl-osc-wform-r empty 65 7 0 10 -262144 -1 -1 1, f 131;
#X obj 161 590 list prepend state_saving_module/nbx_dispatch;
#X obj 64 288 route hsl vsl hradio vradio tgl bng nbx;
#X obj 134 737 t b b;
#X msg 182 770 vis 0;
#X connect 0 0 12 0;
#X connect 1 0 7 0;
#X connect 2 0 1 0;
#X connect 3 0 33 0;
#X connect 5 0 15 0;
#X connect 6 0 5 1;
#X connect 7 0 3 0;
#X connect 7 1 8 0;
#X connect 8 0 6 0;
#X connect 8 0 25 0;
#X connect 9 0 8 1;
#X connect 10 0 14 0;
#X connect 11 0 14 0;
#X connect 12 0 34 0;
#X connect 12 1 2 0;
#X connect 12 2 9 0;
#X connect 12 3 11 0;
#X connect 15 0 22 0;
#X connect 15 1 17 1;
#X connect 16 0 23 0;
#X connect 17 0 10 0;
#X connect 18 0 5 0;
#X connect 19 0 5 0;
#X connect 20 0 5 0;
#X connect 21 0 5 0;
#X connect 22 0 16 0;
#X connect 23 0 17 0;
#X connect 24 0 22 1;
#X connect 25 0 8 1;
#X connect 29 0 5 0;
#X connect 30 0 5 0;
#X connect 32 0 5 0;
#X connect 33 0 18 0;
#X connect 33 1 19 0;
#X connect 33 2 20 0;
#X connect 33 3 21 0;
#X connect 33 4 29 0;
#X connect 33 5 30 0;
#X connect 33 6 32 0;
#X connect 34 0 13 0;
#X connect 34 1 35 0;
#X connect 35 0 14 0;
#X restore 250 503 pd create_widgets_dispatchers;
#X obj 192 43 bng 15 250 50 0 empty empty empty 17 7 0 10 -262144 -1
-1;
#X obj 589 257 s \$0-name;
#N canvas 0 50 868 778 create_widgets_list 0;
#X obj 385 115 text define \$0-widgets;
#X obj 178 301 delay 10;
#X obj 187 13 inlet;
#X obj 136 602 outlet done;
#X obj 252 420 t b b;
#X obj 27 508 delay 100;
#X obj 27 537 t b b;
#X obj 719 307 r \$0-name;
#X text 519 503 \$0 basic-osc \$1;
#X obj 182 158 t b b;
#X msg 241 209 clear;
#X obj 330 594 abstraction_gui_parser \$0-widgets;
#X connect 1 0 4 0;
#X connect 2 0 9 0;
#X connect 4 0 5 0;
#X connect 4 1 11 0;
#X connect 5 0 6 0;
#X connect 6 0 3 0;
#X connect 7 0 11 1;
#X connect 9 0 1 0;
#X connect 9 1 10 0;
#X connect 10 0 0 0;
#X restore 256 432 pd create_widgets_list;
#X obj 399 294 t b s s;
#X obj 31 821 iemguts/canvasdelete 1;
#X msg 408 333 clear \, obj 10 50 state_saving_module \$1 \\\$0 \\\$1
\, obj 50 10 savestate \, connect 0 0 1 0 \, connect 1 0 0 0 \, connect
1 1 0 1 \, obj 10 80 pd \\\$0-gui_listeners;
#X obj 827 119 declare -path ../;
#X connect 0 1 1 0;
#X connect 1 0 2 0;
#X connect 2 0 5 0;
#X connect 2 1 3 0;
#X connect 3 0 4 0;
#X connect 4 0 5 1;
#X connect 5 0 8 0;
#X connect 8 0 27 0;
#X connect 9 0 10 0;
#X connect 9 0 12 0;
#X connect 10 0 7 0;
#X connect 11 0 7 0;
#X connect 12 0 11 0;
#X connect 12 0 13 0;
#X connect 13 0 14 0;
#X connect 13 0 16 0;
#X connect 14 0 15 0;
#X connect 16 0 18 0;
#X connect 17 0 0 0;
#X connect 18 0 19 0;
#X connect 19 0 28 0;
#X connect 21 0 20 0;
#X connect 23 0 9 0;
#X connect 24 0 0 0;
#X connect 26 0 23 0;
#X connect 27 0 26 0;
#X connect 27 1 29 0;
#X connect 27 2 25 0;
#X connect 29 0 7 0;
