#N canvas 0 0 1920 1023 12;
#X msg 919 191 read snare.pd;
#X text 233 321 si;
#X obj 288 372 select 0;
#X obj 299 405 bng 15 250 50 0 empty empty empty 17 7 0 10 #fcfcfc #000000 #000000;
#X obj 280 328 bng 15 250 50 0 empty empty empty 17 7 0 10 #fcfcfc #000000 #000000;
#X obj 365 408 bng 15 250 50 0 empty empty empty 17 7 0 10 #fcfcfc #000000 #000000;
#X text 378 376 non vide (i.e. c'est une abstraction);
#X floatatom 353 436 5 0 0 0 - - - 0;
#X msg 853 236 clear \, read adc~;
#X obj 403 431 - 1;
#X text 433 466 lire la derniere ligne;
#X obj 403 526 list trim;
#X obj 403 551 route #X;
#X obj 403 576 route coords;
#X obj 404 661 bng 15 250 50 0 empty empty empty 17 7 0 10 #fcfcfc #000000 #000000;
#X obj 429 682 bng 15 250 50 0 empty empty empty 17 7 0 10 #fcfcfc #000000 #000000;
#X obj 454 700 bng 15 250 50 0 empty empty empty 17 7 0 10 #fcfcfc #000000 #000000;
#X obj 731 266 text define \$0-abstraction;
#X obj 288 347 text size \$0-abstraction;
#X obj 403 501 text get \$0-abstraction;
#N canvas 0 57 1920 1023 comments 0;
#X obj 101 40 inlet;
#X obj 773 456 list append 125;
#X obj 791 488 list trim;
#X obj 796 516 s MMP_BINFILE;
#X obj 627 -4 v MMP_FIRST_GUI_ITEM;
#X obj 627 31 select 1;
#X msg 726 163 add 44 123;
#X msg 630 162 add 123;
#X msg 629 70 0;
#X obj 628 108 v MMP_FIRST_GUI_ITEM;
#N canvas 4 54 555 753 concatenate_list_into_symbol 0;
#X obj 79 14 inlet;
#X obj 41 448 outlet;
#X obj 60 108 list length;
#X obj 60 129 until;
#X obj 63 176 list split 1;
#X obj 55 153 list append;
#X obj 58 293 list fromsymbol;
#X obj 58 315 list append 32;
#X obj 60 336 list prepend;
#X obj 60 358 list;
#X obj 32 380 list append;
#X obj 79 36 list;
#X obj 29 427 list tosymbol;
#X obj 32 402 t l l;
#X obj 178 411 list length;
#X obj 178 433 outlet;
#X obj 49 70 t b l l b b;
#X obj 63 226 symbol;
#X obj 117 200 route symbol float;
#X obj 183 231 float;
#X msg 183 251 symbol `\$1;
#X connect 0 0 11 0;
#X connect 2 0 3 0;
#X connect 3 0 5 0;
#X connect 4 0 18 0;
#X connect 4 1 5 1;
#X connect 5 0 4 0;
#X connect 6 0 7 0;
#X connect 7 0 8 0;
#X connect 8 0 9 0;
#X connect 9 0 8 1;
#X connect 9 0 10 1;
#X connect 10 0 13 0;
#X connect 11 0 16 0;
#X connect 12 0 1 0;
#X connect 13 0 12 0;
#X connect 13 1 14 0;
#X connect 14 0 15 0;
#X connect 16 0 10 0;
#X connect 16 1 2 0;
#X connect 16 2 5 1;
#X connect 16 3 10 1;
#X connect 16 4 8 1;
#X connect 17 0 6 0;
#X connect 18 0 17 0;
#X connect 18 1 19 0;
#X connect 19 0 20 0;
#X connect 20 0 6 0;
#X restore 104 404 pd concatenate_list_into_symbol;
#X obj 72 380 list split 2;
#X obj 87 812 pack f f f f s f, f 29;
#X text 169 570 width (pix);
#X text 316 570 height (pix);
#X text 302 186 line was terminated by comma : get next line;
#X obj 264 286 list trim;
#X obj 291 313 route f;
#X obj 203 174 select 1 0;
#X obj 270 486 div;
#X obj 268 512 + 1;
#X obj 268 534 *;
#X msg 225 343 80;
#X text 300 351 default value;
#X text 274 328 nb of caracters per comment line;
#X obj 217 501 *;
#X text 3 236 une page android7inch portrait = 600 x 960 pixels;
#X obj 551 397 list fromsymbol;
#X obj 525 366 symbol;
#X floatatom 364 457 5 0 0 0 - - - 0;
#X msg 525 308 "address":"/myLabel"\\\,"highlightColor":[1\\\,0\\\,0\\\,1]\\\,"color":[0\\\,0\\\,0\\\,1]\\\,"frame":[\$1\\\,\$2\\\,\$3\\\,\$4]\\\,"textFontFamily":"Default"\\\,"textFont":""\\\,"textSize":\$6\\\,"text":"\$5"\\\,"class":"MMPLabel"\\\,"androidFont":"Roboto-Regular";
#X obj 758 425 list prepend add 44 123;
#X obj 136 85 t a b b;
#X floatatom 309 381 5 0 0 0 - - - 0;
#X obj 252 560 * 1.2;
#X obj 217 523 * 0.5;
#X obj 187 143 v \$0-abstraction_status;
#X obj 264 263 text get \$0-abstraction;
#X obj 258 212 v \$0-abstraction_next_line;
#X obj 364 435 r \$0-abstraction_font_size;
#X obj 497 507 r \$0-zoom;
#X obj 205 742 * 1;
#X obj 263 672 * 1;
#X connect 0 0 32 0;
#X connect 1 0 2 0;
#X connect 2 0 3 0;
#X connect 4 0 5 0;
#X connect 5 0 7 0;
#X connect 5 0 8 0;
#X connect 5 1 6 0;
#X connect 6 0 31 1;
#X connect 7 0 31 1;
#X connect 8 0 9 0;
#X connect 10 0 12 4;
#X connect 10 1 19 0;
#X connect 11 0 12 0;
#X connect 11 1 10 0;
#X connect 12 0 30 0;
#X connect 16 0 17 0;
#X connect 17 0 19 1;
#X connect 17 0 33 0;
#X connect 17 0 25 0;
#X connect 18 0 38 0;
#X connect 18 1 22 0;
#X connect 19 0 20 0;
#X connect 20 0 21 0;
#X connect 21 0 34 0;
#X connect 22 0 19 1;
#X connect 22 0 25 0;
#X connect 25 0 35 0;
#X connect 27 0 31 0;
#X connect 28 0 27 0;
#X connect 30 0 28 0;
#X connect 31 0 1 0;
#X connect 32 0 11 0;
#X connect 32 1 36 0;
#X connect 32 2 4 0;
#X connect 34 0 12 3;
#X connect 35 0 12 2;
#X connect 36 0 18 0;
#X connect 37 0 16 0;
#X connect 38 0 37 0;
#X connect 39 0 12 5;
#X connect 39 0 21 1;
#X connect 39 0 25 1;
#X connect 39 0 29 0;
#X connect 40 0 41 1;
#X connect 40 0 42 1;
#X restore 75 676 pd comments;
#X obj 243 617 list split 3;
#X obj 283 831 list append;
#X obj 69 568 route text obj;
#X text 476 65 print: 4 : manual-triggers 199 200 1;
#X msg 728 198 clear \, read \$1.pd;
#X obj 215 703 +;
#X obj 279 707 +;
#X obj 305 662 unpack f f;
#X obj 215 648 unpack f f s;
#X obj 215 754 -;
#X obj 279 758 -;
#X obj 401 629 route 0 1 2;
#X obj 225 470 t b l;
#X obj 342 719 unpack f f;
#X text 842 655 si GOP / GOP+HIDE NAME : lancer le parsing;
#X obj 403 601 list split 6;
#X obj 607 659 cnv 15 15 15 empty empty empty 20 12 0 14 #fcfcc4 #404040 0;
#X obj 596 677 cnv 15 15 15 empty empty empty 20 12 0 14 #fcfcc4 #404040 0;
#X obj 698 699 cnv 15 15 15 empty empty empty 20 12 0 14 #fcfcc4 #404040 0;
#X text 446 677 gop: 0 -1 1 1 224 200 1 100 100;
#X text 478 697 gop+hide name: 0 -1 1 1 224 200 2 100 100 \;;
#X text 420 658 nogop: 0 707 1 706 224 200 0;
#X text 840 682 TODO : dessiner un carré de la taille (\$5 \$6);
#X text 495 626 examen du 7 eme element (\$7) pour determiner GOP status;
#X text 400 742 enlever l'offset de la fenetre gop;
#X obj 215 778 pack f f;
#X obj 215 802 list prepend;
#X text 399 756 ajouter la position de l'abstraction;
#X text 343 17 Trop petit pour utiliser sur telephone sans zoom;
#X obj 1175 15 r \$0-zoom;
#X obj 1100 34 * 1;
#X obj 1145 46 * 1;
#X obj 1092 14 unpack f f;
#X obj 1096 68 pack f f;
#X text 902 16 TO DO : enable zooming ->;
#X obj 52 281 t b s s;
#X text 1018 109 bwl-osc 1 hradio 261 286 15 1 1 4 \\\$0-bwl-osc-wform-s \\\$0-bwl-osc-wform-r empty 65 7 0 10 -262144 -1 -1 1, f 131;
#X text 849 339 hsl / vsl;
#X obj 42 129 t s b;
#X obj 84 190 pdcontrol;
#X obj 50 227 pack s s;
#X msg 50 252 symbol \$2/\$1;
#X text 168 166 get path of current parent abstraction;
#X obj 822 774 list trim;
#X text 1022 339 hradio / vradio;
#X text 1072 140 hsl 330 402 128 15 0 127 0 1 \\\$0-stereo-delay-lowpass-s \\\$0-stereo-delay-lowpass-r LOWPASS 133 7 0 10 -262144 -1 -1 7800 1, f 143;
#X text 848 383 \$1 \$2 position;
#X text 849 403 \$3 \$4 taille;
#X text 848 428 \$5 \$6 valmin valmax;
#X text 849 476 \$9 send_channel;
#X text 855 497 \$10 receive_channel;
#X text 853 519 \$11 NOM;
#X text 1036 385 \$1 \$2 position;
#X text 1037 405 \$3 taille;
#X text 1036 430 \$6 nb de cases;
#X text 1049 487 \$9 NOM;
#X text 1039 446 \$7 send_channel;
#X text 1045 467 \$8 receive_channel;
#X text 1217 348 bang;
#X text 1636 211 number;
#X text 1308 723 bng 1183 138 15 250 50 0 empty empty empty 17 7 0 10 -262144 -1 -1;
#X text 1196 385 \$1 \$2 position;
#X text 1197 405 \$3 taille;
#X text 1209 487 \$9 NOM;
#X text 1199 446 \$7 send_channel;
#X text 1205 467 \$8 receive_channel;
#X text 1332 804 tgl 1190 179 15 0 empty empty empty 17 7 0 10 -262144 -1 -1 0 1;
#X text 1346 384 \$1 \$2 position;
#X text 1347 404 \$3 taille;
#X text 1355 344 tgl;
#X text 1349 445 \$5 send_channel;
#X text 1355 466 \$6 receive_channel;
#X text 1359 486 \$7 NOM;
#X text 1287 666 nbx 1090 197 5 14 -1e+37 1e+37 0 0 empty empty empty 0 -8 0 10 -262144 -1 -1 0 256;
#X text 1536 389 \$1 \$2 position;
#X text 1540 459 \$5 send_channel;
#X text 1546 480 \$6 receive_channel;
#X text 1550 500 \$7 NOM;
#X text 1538 418 \$3 \, \$4 taille;
#X text 577 530 #X floatatom 1185 247 5 0 0 0 - - - \; #X symbolatom 1185 269 10 0 0 0 - - - \;;
#X text 1546 351 nbx (number2);
#N canvas 284 69 1920 1023 route_1stlevel_gop_array 0;
#X obj 80 116 f;
#X obj 121 120 + 1;
#X msg 153 65 0;
#X obj 90 197 list trim;
#X obj 136 217 route #N #X;
#X obj 19 313 route canvas;
#X obj 147 368 +;
#X obj 147 390 f;
#X msg 59 340 1;
#X msg 145 340 -1;
#X obj 146 438 == 1;
#X obj 107 482 spigot;
#X obj 49 20 inlet;
#X text 232 343 seulement niveau 0 (pas les sous-patches);
#X obj 113 36 bng 15 250 50 0 empty empty empty 17 7 0 10 #fcfcfc #000000 #000000;
#X obj 31 108 until;
#X floatatom 287 190 5 0 0 0 - - - 0;
#X obj 155 22 t b b b;
#X obj 269 118 * 1;
#X obj 107 507 outlet;
#X obj 183 263 route restore;
#X obj 495 551 == 2;
#X obj 437 575 spigot;
#X msg 559 597 0;
#X obj 345 685 spigot;
#X msg 402 652 1;
#X msg 426 700 0;
#X obj 359 718 t a b;
#X obj 365 818 list append;
#X obj 442 628 route coords array;
#X obj 514 696 list split 2;
#X obj 482 757 list append;
#X obj 360 776 list split 2;
#X obj 164 301 t b a;
#X text 414 470 array stuff;
#X obj 365 843 outlet inline_array;
#X obj 31 83 text size \$0-abstraction;
#N canvas 0 50 450 300 get_abstraction_font_size 0;
#X obj 54 12 inlet;
#X obj 53 295 outlet;
#X obj 54 146 list trim;
#X obj 49 218 route canvas;
#X msg 54 271 \$5;
#X obj 54 168 route #N;
#X msg 54 34 0;
#X msg 148 254 12;
#X text 164 171 default;
#X obj 68 71 t f f;
#X obj 234 252 + 1;
#X obj 239 148 t b;
#X obj 229 205 f;
#X obj 54 124 text get \$0-abstraction;
#X connect 0 0 6 0;
#X connect 2 0 5 0;
#X connect 3 0 4 0;
#X connect 3 1 11 0;
#X connect 4 0 1 0;
#X connect 5 0 3 0;
#X connect 6 0 9 0;
#X connect 7 0 1 0;
#X connect 9 0 13 0;
#X connect 9 1 12 1;
#X connect 10 0 9 0;
#X connect 11 0 12 0;
#X connect 12 0 10 0;
#X connect 13 0 2 0;
#X restore 245 81 pd get_abstraction_font_size;
#X obj 271 143 s \$0-abstraction_font_size;
#X obj 344 269 v \$0-abstraction_status;
#X obj 83 143 v \$0-abstraction_next_line;
#X obj 84 173 text get \$0-abstraction;
#X connect 0 0 1 0;
#X connect 0 0 41 0;
#X connect 1 0 0 1;
#X connect 1 0 40 0;
#X connect 2 0 6 1;
#X connect 2 0 0 1;
#X connect 3 0 4 0;
#X connect 4 0 5 0;
#X connect 4 1 20 0;
#X connect 5 0 8 0;
#X connect 6 0 7 0;
#X connect 7 0 6 1;
#X connect 7 0 10 0;
#X connect 7 0 21 0;
#X connect 8 0 6 0;
#X connect 9 0 6 0;
#X connect 10 0 11 1;
#X connect 11 0 19 0;
#X connect 12 0 17 0;
#X connect 14 0 17 0;
#X connect 15 0 0 0;
#X connect 17 0 36 0;
#X connect 17 1 2 0;
#X connect 17 2 37 0;
#X connect 18 0 38 0;
#X connect 20 0 33 0;
#X connect 20 1 11 0;
#X connect 20 1 22 0;
#X connect 21 0 22 1;
#X connect 22 0 29 0;
#X connect 23 0 22 1;
#X connect 24 0 27 0;
#X connect 25 0 24 1;
#X connect 26 0 24 1;
#X connect 27 0 32 0;
#X connect 27 1 26 0;
#X connect 28 0 35 0;
#X connect 29 0 25 0;
#X connect 29 0 23 0;
#X connect 29 0 31 0;
#X connect 29 1 30 0;
#X connect 29 2 23 0;
#X connect 30 0 31 1;
#X connect 31 0 28 1;
#X connect 32 0 28 0;
#X connect 33 0 9 0;
#X connect 33 1 24 0;
#X connect 36 0 15 0;
#X connect 37 0 18 0;
#X connect 37 0 16 0;
#X connect 41 0 3 0;
#X connect 41 1 39 0;
#X restore 77 526 pd route_1stlevel_gop_array;
#X msg 84 165 dir 2;
#N canvas 47 129 858 752 vsl 0;
#X obj 142 86 list split 8;
#X obj 203 121 list split 3;
#X obj 202 151 unpack s s s;
#N canvas 0 50 450 300 remove_\\\$0- 0;
#X obj 150 43 inlet;
#X obj 160 308 outlet;
#X obj 148 104 list fromsymbol;
#X obj 155 246 list tosymbol;
#X obj 149 131 route 36;
#X obj 148 155 route 48;
#X obj 147 180 route 45;
#X obj 303 197 t b;
#X obj 303 222 outlet;
#X connect 0 0 2 0;
#X connect 2 0 4 0;
#X connect 3 0 1 0;
#X connect 4 0 5 0;
#X connect 4 1 7 0;
#X connect 5 0 6 0;
#X connect 5 1 7 0;
#X connect 6 0 3 0;
#X connect 6 1 7 0;
#X connect 7 0 8 0;
#X restore 203 180 pd remove_\\\$0-;
#X obj 35 257 list split 4;
#X obj 394 177 list split 4;
#X obj 145 35 inlet;
#X text 563 191 colors;
#X text 18 326 min;
#X text 112 332 max;
#X obj 246 493 list prepend vsl;
#X obj 246 518 outlet;
#X obj 94 230 spigot;
#X obj 147 57 t l b;
#X msg 254 70 1;
#X msg 160 215 0;
#N canvas 0 50 450 300 remove_\\\$0- 0;
#X obj 150 43 inlet;
#X obj 160 308 outlet;
#X obj 148 104 list fromsymbol;
#X obj 155 246 list tosymbol;
#X obj 149 131 route 36;
#X obj 148 155 route 48;
#X obj 147 180 route 45;
#X obj 303 197 t b;
#X obj 303 222 outlet;
#X connect 0 0 2 0;
#X connect 2 0 4 0;
#X connect 3 0 1 0;
#X connect 4 0 5 0;
#X connect 4 1 7 0;
#X connect 5 0 6 0;
#X connect 5 1 7 0;
#X connect 6 0 3 0;
#X connect 6 1 7 0;
#X connect 7 0 8 0;
#X restore 249 231 pd remove_\\\$0-;
#X obj 579 272 unpack f f f;
#N canvas 0 50 719 836 convert_18_bits_into_HEX 0;
#X obj 73 25 inlet;
#X obj 94 89 + 1;
#X obj 94 114 * -1;
#X obj 64 209 t f f;
#X obj 94 139 t f f;
#X obj 64 184 div 64;
#X obj 139 182 mod 64;
#X obj 23 247 div 64;
#X obj 93 249 mod 64;
#X obj 23 272 / 63;
#X obj 93 274 / 63;
#X obj 175 274 / 63;
#X obj 14 381 max 0;
#X obj 10 433 min 255;
#X obj 91 381 max 0;
#X obj 87 433 min 255;
#X obj 157 381 max 0;
#X obj 153 433 min 255;
#X obj 14 352 i;
#X obj 91 352 i;
#X obj 157 352 i;
#X obj 23 301 * 255;
#X obj 93 303 * 255;
#X obj 175 303 * 255;
#X obj 43 713 outlet;
#X obj 35 485 moses 16;
#X obj 41 629 pack s s s;
#X obj 171 492 moses 16;
#X obj 327 490 moses 16;
#X obj 335 568 makefilename %X;
#X obj 310 536 makefilename 0%X;
#X obj 18 531 makefilename 0%X;
#X obj 43 563 makefilename %X;
#X obj 154 538 makefilename 0%X;
#X obj 179 570 makefilename %X;
#X msg 41 654 symbol #\$1\$2\$3;
#X connect 0 0 1 0;
#X connect 1 0 2 0;
#X connect 2 0 4 0;
#X connect 3 0 7 0;
#X connect 3 1 8 0;
#X connect 4 0 5 0;
#X connect 4 1 6 0;
#X connect 5 0 3 0;
#X connect 6 0 11 0;
#X connect 7 0 9 0;
#X connect 8 0 10 0;
#X connect 9 0 21 0;
#X connect 10 0 22 0;
#X connect 11 0 23 0;
#X connect 12 0 13 0;
#X connect 13 0 25 0;
#X connect 14 0 15 0;
#X connect 15 0 27 0;
#X connect 16 0 17 0;
#X connect 17 0 28 0;
#X connect 18 0 12 0;
#X connect 19 0 14 0;
#X connect 20 0 16 0;
#X connect 21 0 18 0;
#X connect 22 0 19 0;
#X connect 23 0 20 0;
#X connect 25 0 31 0;
#X connect 25 1 32 0;
#X connect 26 0 35 0;
#X connect 27 0 33 0;
#X connect 27 1 34 0;
#X connect 28 0 30 0;
#X connect 28 1 29 0;
#X connect 29 0 26 2;
#X connect 30 0 26 2;
#X connect 31 0 26 0;
#X connect 32 0 26 0;
#X connect 33 0 26 1;
#X connect 34 0 26 1;
#X connect 35 0 24 0;
#X restore 557 407 pd convert_18_bits_into_HEX;
#N canvas 0 50 719 836 convert_18_bits_into_HEX 0;
#X obj 73 25 inlet;
#X obj 94 89 + 1;
#X obj 94 114 * -1;
#X obj 64 209 t f f;
#X obj 94 139 t f f;
#X obj 64 184 div 64;
#X obj 139 182 mod 64;
#X obj 23 247 div 64;
#X obj 93 249 mod 64;
#X obj 23 272 / 63;
#X obj 93 274 / 63;
#X obj 175 274 / 63;
#X obj 14 381 max 0;
#X obj 10 433 min 255;
#X obj 91 381 max 0;
#X obj 87 433 min 255;
#X obj 157 381 max 0;
#X obj 153 433 min 255;
#X obj 14 352 i;
#X obj 91 352 i;
#X obj 157 352 i;
#X obj 23 301 * 255;
#X obj 93 303 * 255;
#X obj 175 303 * 255;
#X obj 43 713 outlet;
#X obj 35 485 moses 16;
#X obj 41 629 pack s s s;
#X obj 171 492 moses 16;
#X obj 327 490 moses 16;
#X obj 335 568 makefilename %X;
#X obj 310 536 makefilename 0%X;
#X obj 18 531 makefilename 0%X;
#X obj 43 563 makefilename %X;
#X obj 154 538 makefilename 0%X;
#X obj 179 570 makefilename %X;
#X msg 41 654 symbol #\$1\$2\$3;
#X connect 0 0 1 0;
#X connect 1 0 2 0;
#X connect 2 0 4 0;
#X connect 3 0 7 0;
#X connect 3 1 8 0;
#X connect 4 0 5 0;
#X connect 4 1 6 0;
#X connect 5 0 3 0;
#X connect 6 0 11 0;
#X connect 7 0 9 0;
#X connect 8 0 10 0;
#X connect 9 0 21 0;
#X connect 10 0 22 0;
#X connect 11 0 23 0;
#X connect 12 0 13 0;
#X connect 13 0 25 0;
#X connect 14 0 15 0;
#X connect 15 0 27 0;
#X connect 16 0 17 0;
#X connect 17 0 28 0;
#X connect 18 0 12 0;
#X connect 19 0 14 0;
#X connect 20 0 16 0;
#X connect 21 0 18 0;
#X connect 22 0 19 0;
#X connect 23 0 20 0;
#X connect 25 0 31 0;
#X connect 25 1 32 0;
#X connect 26 0 35 0;
#X connect 27 0 33 0;
#X connect 27 1 34 0;
#X connect 28 0 30 0;
#X connect 28 1 29 0;
#X connect 29 0 26 2;
#X connect 30 0 26 2;
#X connect 31 0 26 0;
#X connect 32 0 26 0;
#X connect 33 0 26 1;
#X connect 34 0 26 1;
#X connect 35 0 24 0;
#X restore 607 356 pd convert_18_bits_into_HEX;
#N canvas 0 0 719 836 convert_18_bits_into_HEX 0;
#X obj 73 25 inlet;
#X obj 94 89 + 1;
#X obj 94 114 * -1;
#X obj 64 209 t f f;
#X obj 94 139 t f f;
#X obj 64 184 div 64;
#X obj 139 182 mod 64;
#X obj 23 247 div 64;
#X obj 93 249 mod 64;
#X obj 23 272 / 63;
#X obj 93 274 / 63;
#X obj 175 274 / 63;
#X obj 14 381 max 0;
#X obj 10 433 min 255;
#X obj 91 381 max 0;
#X obj 87 433 min 255;
#X obj 157 381 max 0;
#X obj 153 433 min 255;
#X obj 14 352 i;
#X obj 91 352 i;
#X obj 157 352 i;
#X obj 23 301 * 255;
#X obj 93 303 * 255;
#X obj 175 303 * 255;
#X obj 43 713 outlet;
#X obj 35 485 moses 16;
#X obj 41 629 pack s s s;
#X obj 171 492 moses 16;
#X obj 327 490 moses 16;
#X obj 335 568 makefilename %X;
#X obj 310 536 makefilename 0%X;
#X obj 18 531 makefilename 0%X;
#X obj 43 563 makefilename %X;
#X obj 154 538 makefilename 0%X;
#X obj 179 570 makefilename %X;
#X msg 41 654 symbol #\$1\$2\$3;
#X connect 0 0 1 0;
#X connect 1 0 2 0;
#X connect 2 0 4 0;
#X connect 3 0 7 0;
#X connect 3 1 8 0;
#X connect 4 0 5 0;
#X connect 4 1 6 0;
#X connect 5 0 3 0;
#X connect 6 0 11 0;
#X connect 7 0 9 0;
#X connect 8 0 10 0;
#X connect 9 0 21 0;
#X connect 10 0 22 0;
#X connect 11 0 23 0;
#X connect 12 0 13 0;
#X connect 13 0 25 0;
#X connect 14 0 15 0;
#X connect 15 0 27 0;
#X connect 16 0 17 0;
#X connect 17 0 28 0;
#X connect 18 0 12 0;
#X connect 19 0 14 0;
#X connect 20 0 16 0;
#X connect 21 0 18 0;
#X connect 22 0 19 0;
#X connect 23 0 20 0;
#X connect 25 0 31 0;
#X connect 25 1 32 0;
#X connect 26 0 35 0;
#X connect 27 0 33 0;
#X connect 27 1 34 0;
#X connect 28 0 30 0;
#X connect 28 1 29 0;
#X connect 29 0 26 2;
#X connect 30 0 26 2;
#X connect 31 0 26 0;
#X connect 32 0 26 0;
#X connect 33 0 26 1;
#X connect 34 0 26 1;
#X connect 35 0 24 0;
#X restore 658 312 pd convert_18_bits_into_HEX;
#X obj 432 229 unpack s s s;
#X obj 75 305 unpack f f f;
#X text 151 334 lin/log;
#X obj 246 468 pack f f s s s s s s s;
#X obj 276 387 select 0 1;
#X msg 370 435 symbol lin;
#X msg 450 435 symbol log;
#X connect 0 0 12 0;
#X connect 0 1 1 0;
#X connect 1 0 2 0;
#X connect 1 1 5 0;
#X connect 2 0 3 0;
#X connect 2 1 16 0;
#X connect 2 2 24 4;
#X connect 3 0 24 2;
#X connect 3 1 15 0;
#X connect 4 1 22 0;
#X connect 5 1 21 0;
#X connect 6 0 13 0;
#X connect 10 0 11 0;
#X connect 12 0 4 0;
#X connect 13 0 0 0;
#X connect 13 1 14 0;
#X connect 14 0 12 1;
#X connect 15 0 12 1;
#X connect 16 0 24 3;
#X connect 16 1 15 0;
#X connect 17 0 18 0;
#X connect 17 1 19 0;
#X connect 17 2 20 0;
#X connect 21 0 24 5;
#X connect 21 1 24 6;
#X connect 21 2 24 7;
#X connect 22 0 24 0;
#X connect 22 1 24 1;
#X connect 22 2 25 0;
#X connect 24 0 10 0;
#X connect 25 0 26 0;
#X connect 25 1 27 0;
#X connect 26 0 24 8;
#X connect 27 0 24 8;
#X restore 781 852 pd vsl;
#N canvas 813 84 858 752 hsl 0;
#X obj 149 78 list split 8;
#X obj 205 108 list split 3;
#X obj 202 151 unpack s s s;
#X obj 31 257 list split 4;
#X obj 394 177 list split 4;
#X obj 581 248 unpack f f f;
#X obj 146 21 inlet;
#X text 563 191 colors;
#X text 14 326 min;
#X text 124 336 max;
#X obj 246 518 outlet;
#N canvas 0 50 719 836 convert_18_bits_into_HEX 0;
#X obj 73 25 inlet;
#X obj 94 89 + 1;
#X obj 94 114 * -1;
#X obj 64 209 t f f;
#X obj 94 139 t f f;
#X obj 64 184 div 64;
#X obj 139 182 mod 64;
#X obj 23 247 div 64;
#X obj 93 249 mod 64;
#X obj 23 272 / 63;
#X obj 93 274 / 63;
#X obj 175 274 / 63;
#X obj 14 381 max 0;
#X obj 10 433 min 255;
#X obj 91 381 max 0;
#X obj 87 433 min 255;
#X obj 157 381 max 0;
#X obj 153 433 min 255;
#X obj 14 352 i;
#X obj 91 352 i;
#X obj 157 352 i;
#X obj 23 301 * 255;
#X obj 93 303 * 255;
#X obj 175 303 * 255;
#X obj 43 713 outlet;
#X obj 35 485 moses 16;
#X obj 41 629 pack s s s;
#X obj 171 492 moses 16;
#X obj 327 490 moses 16;
#X obj 335 568 makefilename %X;
#X obj 310 536 makefilename 0%X;
#X obj 18 531 makefilename 0%X;
#X obj 43 563 makefilename %X;
#X obj 154 538 makefilename 0%X;
#X obj 179 570 makefilename %X;
#X msg 41 654 symbol #\$1\$2\$3;
#X connect 0 0 1 0;
#X connect 1 0 2 0;
#X connect 2 0 4 0;
#X connect 3 0 7 0;
#X connect 3 1 8 0;
#X connect 4 0 5 0;
#X connect 4 1 6 0;
#X connect 5 0 3 0;
#X connect 6 0 11 0;
#X connect 7 0 9 0;
#X connect 8 0 10 0;
#X connect 9 0 21 0;
#X connect 10 0 22 0;
#X connect 11 0 23 0;
#X connect 12 0 13 0;
#X connect 13 0 25 0;
#X connect 14 0 15 0;
#X connect 15 0 27 0;
#X connect 16 0 17 0;
#X connect 17 0 28 0;
#X connect 18 0 12 0;
#X connect 19 0 14 0;
#X connect 20 0 16 0;
#X connect 21 0 18 0;
#X connect 22 0 19 0;
#X connect 23 0 20 0;
#X connect 25 0 31 0;
#X connect 25 1 32 0;
#X connect 26 0 35 0;
#X connect 27 0 33 0;
#X connect 27 1 34 0;
#X connect 28 0 30 0;
#X connect 28 1 29 0;
#X connect 29 0 26 2;
#X connect 30 0 26 2;
#X connect 31 0 26 0;
#X connect 32 0 26 0;
#X connect 33 0 26 1;
#X connect 34 0 26 1;
#X connect 35 0 24 0;
#X restore 559 383 pd convert_18_bits_into_HEX;
#N canvas 0 50 719 836 convert_18_bits_into_HEX 0;
#X obj 73 25 inlet;
#X obj 94 89 + 1;
#X obj 94 114 * -1;
#X obj 64 209 t f f;
#X obj 94 139 t f f;
#X obj 64 184 div 64;
#X obj 139 182 mod 64;
#X obj 23 247 div 64;
#X obj 93 249 mod 64;
#X obj 23 272 / 63;
#X obj 93 274 / 63;
#X obj 175 274 / 63;
#X obj 14 381 max 0;
#X obj 10 433 min 255;
#X obj 91 381 max 0;
#X obj 87 433 min 255;
#X obj 157 381 max 0;
#X obj 153 433 min 255;
#X obj 14 352 i;
#X obj 91 352 i;
#X obj 157 352 i;
#X obj 23 301 * 255;
#X obj 93 303 * 255;
#X obj 175 303 * 255;
#X obj 43 713 outlet;
#X obj 35 485 moses 16;
#X obj 41 629 pack s s s;
#X obj 171 492 moses 16;
#X obj 327 490 moses 16;
#X obj 335 568 makefilename %X;
#X obj 310 536 makefilename 0%X;
#X obj 18 531 makefilename 0%X;
#X obj 43 563 makefilename %X;
#X obj 154 538 makefilename 0%X;
#X obj 179 570 makefilename %X;
#X msg 41 654 symbol #\$1\$2\$3;
#X connect 0 0 1 0;
#X connect 1 0 2 0;
#X connect 2 0 4 0;
#X connect 3 0 7 0;
#X connect 3 1 8 0;
#X connect 4 0 5 0;
#X connect 4 1 6 0;
#X connect 5 0 3 0;
#X connect 6 0 11 0;
#X connect 7 0 9 0;
#X connect 8 0 10 0;
#X connect 9 0 21 0;
#X connect 10 0 22 0;
#X connect 11 0 23 0;
#X connect 12 0 13 0;
#X connect 13 0 25 0;
#X connect 14 0 15 0;
#X connect 15 0 27 0;
#X connect 16 0 17 0;
#X connect 17 0 28 0;
#X connect 18 0 12 0;
#X connect 19 0 14 0;
#X connect 20 0 16 0;
#X connect 21 0 18 0;
#X connect 22 0 19 0;
#X connect 23 0 20 0;
#X connect 25 0 31 0;
#X connect 25 1 32 0;
#X connect 26 0 35 0;
#X connect 27 0 33 0;
#X connect 27 1 34 0;
#X connect 28 0 30 0;
#X connect 28 1 29 0;
#X connect 29 0 26 2;
#X connect 30 0 26 2;
#X connect 31 0 26 0;
#X connect 32 0 26 0;
#X connect 33 0 26 1;
#X connect 34 0 26 1;
#X connect 35 0 24 0;
#X restore 609 332 pd convert_18_bits_into_HEX;
#N canvas 0 50 719 836 convert_18_bits_into_HEX 0;
#X obj 73 25 inlet;
#X obj 94 89 + 1;
#X obj 94 114 * -1;
#X obj 64 209 t f f;
#X obj 94 139 t f f;
#X obj 64 184 div 64;
#X obj 139 182 mod 64;
#X obj 23 247 div 64;
#X obj 93 249 mod 64;
#X obj 23 272 / 63;
#X obj 93 274 / 63;
#X obj 175 274 / 63;
#X obj 14 381 max 0;
#X obj 10 433 min 255;
#X obj 91 381 max 0;
#X obj 87 433 min 255;
#X obj 157 381 max 0;
#X obj 153 433 min 255;
#X obj 14 352 i;
#X obj 91 352 i;
#X obj 157 352 i;
#X obj 23 301 * 255;
#X obj 93 303 * 255;
#X obj 175 303 * 255;
#X obj 43 713 outlet;
#X obj 35 485 moses 16;
#X obj 41 629 pack s s s;
#X obj 171 492 moses 16;
#X obj 327 490 moses 16;
#X obj 335 568 makefilename %X;
#X obj 310 536 makefilename 0%X;
#X obj 18 531 makefilename 0%X;
#X obj 43 563 makefilename %X;
#X obj 154 538 makefilename 0%X;
#X obj 179 570 makefilename %X;
#X msg 41 654 symbol #\$1\$2\$3;
#X connect 0 0 1 0;
#X connect 1 0 2 0;
#X connect 2 0 4 0;
#X connect 3 0 7 0;
#X connect 3 1 8 0;
#X connect 4 0 5 0;
#X connect 4 1 6 0;
#X connect 5 0 3 0;
#X connect 6 0 11 0;
#X connect 7 0 9 0;
#X connect 8 0 10 0;
#X connect 9 0 21 0;
#X connect 10 0 22 0;
#X connect 11 0 23 0;
#X connect 12 0 13 0;
#X connect 13 0 25 0;
#X connect 14 0 15 0;
#X connect 15 0 27 0;
#X connect 16 0 17 0;
#X connect 17 0 28 0;
#X connect 18 0 12 0;
#X connect 19 0 14 0;
#X connect 20 0 16 0;
#X connect 21 0 18 0;
#X connect 22 0 19 0;
#X connect 23 0 20 0;
#X connect 25 0 31 0;
#X connect 25 1 32 0;
#X connect 26 0 35 0;
#X connect 27 0 33 0;
#X connect 27 1 34 0;
#X connect 28 0 30 0;
#X connect 28 1 29 0;
#X connect 29 0 26 2;
#X connect 30 0 26 2;
#X connect 31 0 26 0;
#X connect 32 0 26 0;
#X connect 33 0 26 1;
#X connect 34 0 26 1;
#X connect 35 0 24 0;
#X restore 660 288 pd convert_18_bits_into_HEX;
#X obj 246 493 list prepend hsl;
#X obj 90 218 spigot;
#X obj 147 50 t l b;
#X msg 152 111 1;
#X msg 143 199 0;
#N canvas 0 50 450 300 remove_\\\$0- 0;
#X obj 150 43 inlet;
#X obj 160 308 outlet;
#X obj 148 104 list fromsymbol;
#X obj 155 246 list tosymbol;
#X obj 149 131 route 36;
#X obj 148 155 route 48;
#X obj 147 180 route 45;
#X obj 303 197 t b;
#X obj 303 222 outlet;
#X connect 0 0 2 0;
#X connect 2 0 4 0;
#X connect 3 0 1 0;
#X connect 4 0 5 0;
#X connect 4 1 7 0;
#X connect 5 0 6 0;
#X connect 5 1 7 0;
#X connect 6 0 3 0;
#X connect 6 1 7 0;
#X connect 7 0 8 0;
#X restore 203 180 pd remove_\\\$0-;
#N canvas 0 50 450 300 remove_\\\$0- 0;
#X obj 150 43 inlet;
#X obj 160 308 outlet;
#X obj 148 104 list fromsymbol;
#X obj 155 246 list tosymbol;
#X obj 149 131 route 36;
#X obj 148 155 route 48;
#X obj 147 180 route 45;
#X obj 303 197 t b;
#X obj 303 222 outlet;
#X connect 0 0 2 0;
#X connect 2 0 4 0;
#X connect 3 0 1 0;
#X connect 4 0 5 0;
#X connect 4 1 7 0;
#X connect 5 0 6 0;
#X connect 5 1 7 0;
#X connect 6 0 3 0;
#X connect 6 1 7 0;
#X connect 7 0 8 0;
#X restore 249 231 pd remove_\\\$0-;
#X obj 427 226 unpack s s s;
#X obj 71 305 unpack f f f;
#X text 159 325 lin / log;
#X obj 276 387 select 0 1;
#X msg 362 410 symbol lin;
#X msg 442 410 symbol log;
#X obj 246 468 pack f f s s s s s s s;
#X connect 0 0 15 0;
#X connect 0 1 1 0;
#X connect 1 0 2 0;
#X connect 1 1 4 0;
#X connect 2 0 19 0;
#X connect 2 1 20 0;
#X connect 2 2 27 4;
#X connect 3 1 22 0;
#X connect 4 1 21 0;
#X connect 5 0 11 0;
#X connect 5 1 12 0;
#X connect 5 2 13 0;
#X connect 6 0 16 0;
#X connect 11 0 27 5;
#X connect 12 0 27 6;
#X connect 13 0 27 7;
#X connect 14 0 10 0;
#X connect 15 0 3 0;
#X connect 16 0 0 0;
#X connect 16 1 17 0;
#X connect 17 0 15 1;
#X connect 18 0 15 1;
#X connect 19 0 27 2;
#X connect 19 1 18 0;
#X connect 20 0 27 3;
#X connect 20 1 18 0;
#X connect 21 0 27 5;
#X connect 21 1 27 6;
#X connect 21 2 27 7;
#X connect 22 0 27 0;
#X connect 22 1 27 1;
#X connect 22 2 24 0;
#X connect 24 0 25 0;
#X connect 24 1 26 0;
#X connect 25 0 27 8;
#X connect 26 0 27 8;
#X connect 27 0 14 0;
#X restore 837 849 pd hsl;
#N canvas 968 101 858 752 vradio 0;
#X obj 205 108 list split 3;
#X obj 202 151 unpack s s s;
#X obj 394 177 list split 4;
#X obj 150 12 inlet;
#X text 563 191 colors;
#X obj 246 518 outlet;
#X obj 246 468 pack f f s s s s s s;
#X obj 150 79 list split 6;
#X msg 144 395 0;
#X obj 246 493 list prepend vradio;
#X obj 42 330 unpack f f f f f f;
#X obj 220 427 - 1;
#X text 177 365 max value;
#X obj 150 46 t l b;
#X obj 57 302 spigot;
#X msg 121 203 1;
#X msg 111 266 0;
#N canvas 0 50 450 300 remove_\\\$0- 0;
#X obj 150 43 inlet;
#X obj 160 308 outlet;
#X obj 148 104 list fromsymbol;
#X obj 155 246 list tosymbol;
#X obj 149 131 route 36;
#X obj 148 155 route 48;
#X obj 147 180 route 45;
#X obj 303 197 t b;
#X obj 303 222 outlet;
#X connect 0 0 2 0;
#X connect 2 0 4 0;
#X connect 3 0 1 0;
#X connect 4 0 5 0;
#X connect 4 1 7 0;
#X connect 5 0 6 0;
#X connect 5 1 7 0;
#X connect 6 0 3 0;
#X connect 6 1 7 0;
#X connect 7 0 8 0;
#X restore 203 180 pd remove_\\\$0-;
#N canvas 0 50 450 300 remove_\\\$0- 0;
#X obj 150 43 inlet;
#X obj 160 308 outlet;
#X obj 148 104 list fromsymbol;
#X obj 155 246 list tosymbol;
#X obj 149 131 route 36;
#X obj 148 155 route 48;
#X obj 147 180 route 45;
#X obj 303 197 t b;
#X obj 303 222 outlet;
#X connect 0 0 2 0;
#X connect 2 0 4 0;
#X connect 3 0 1 0;
#X connect 4 0 5 0;
#X connect 4 1 7 0;
#X connect 5 0 6 0;
#X connect 5 1 7 0;
#X connect 6 0 3 0;
#X connect 6 1 7 0;
#X connect 7 0 8 0;
#X restore 249 231 pd remove_\\\$0-;
#X obj 546 256 unpack f f f;
#N canvas 0 50 719 836 convert_18_bits_into_HEX 0;
#X obj 73 25 inlet;
#X obj 94 89 + 1;
#X obj 94 114 * -1;
#X obj 64 209 t f f;
#X obj 94 139 t f f;
#X obj 64 184 div 64;
#X obj 139 182 mod 64;
#X obj 23 247 div 64;
#X obj 93 249 mod 64;
#X obj 23 272 / 63;
#X obj 93 274 / 63;
#X obj 175 274 / 63;
#X obj 14 381 max 0;
#X obj 10 433 min 255;
#X obj 91 381 max 0;
#X obj 87 433 min 255;
#X obj 157 381 max 0;
#X obj 153 433 min 255;
#X obj 14 352 i;
#X obj 91 352 i;
#X obj 157 352 i;
#X obj 23 301 * 255;
#X obj 93 303 * 255;
#X obj 175 303 * 255;
#X obj 43 713 outlet;
#X obj 35 485 moses 16;
#X obj 41 629 pack s s s;
#X obj 171 492 moses 16;
#X obj 327 490 moses 16;
#X obj 335 568 makefilename %X;
#X obj 310 536 makefilename 0%X;
#X obj 18 531 makefilename 0%X;
#X obj 43 563 makefilename %X;
#X obj 154 538 makefilename 0%X;
#X obj 179 570 makefilename %X;
#X msg 41 654 symbol #\$1\$2\$3;
#X connect 0 0 1 0;
#X connect 1 0 2 0;
#X connect 2 0 4 0;
#X connect 3 0 7 0;
#X connect 3 1 8 0;
#X connect 4 0 5 0;
#X connect 4 1 6 0;
#X connect 5 0 3 0;
#X connect 6 0 11 0;
#X connect 7 0 9 0;
#X connect 8 0 10 0;
#X connect 9 0 21 0;
#X connect 10 0 22 0;
#X connect 11 0 23 0;
#X connect 12 0 13 0;
#X connect 13 0 25 0;
#X connect 14 0 15 0;
#X connect 15 0 27 0;
#X connect 16 0 17 0;
#X connect 17 0 28 0;
#X connect 18 0 12 0;
#X connect 19 0 14 0;
#X connect 20 0 16 0;
#X connect 21 0 18 0;
#X connect 22 0 19 0;
#X connect 23 0 20 0;
#X connect 25 0 31 0;
#X connect 25 1 32 0;
#X connect 26 0 35 0;
#X connect 27 0 33 0;
#X connect 27 1 34 0;
#X connect 28 0 30 0;
#X connect 28 1 29 0;
#X connect 29 0 26 2;
#X connect 30 0 26 2;
#X connect 31 0 26 0;
#X connect 32 0 26 0;
#X connect 33 0 26 1;
#X connect 34 0 26 1;
#X connect 35 0 24 0;
#X restore 524 391 pd convert_18_bits_into_HEX;
#N canvas 0 50 719 836 convert_18_bits_into_HEX 0;
#X obj 73 25 inlet;
#X obj 94 89 + 1;
#X obj 94 114 * -1;
#X obj 64 209 t f f;
#X obj 94 139 t f f;
#X obj 64 184 div 64;
#X obj 139 182 mod 64;
#X obj 23 247 div 64;
#X obj 93 249 mod 64;
#X obj 23 272 / 63;
#X obj 93 274 / 63;
#X obj 175 274 / 63;
#X obj 14 381 max 0;
#X obj 10 433 min 255;
#X obj 91 381 max 0;
#X obj 87 433 min 255;
#X obj 157 381 max 0;
#X obj 153 433 min 255;
#X obj 14 352 i;
#X obj 91 352 i;
#X obj 157 352 i;
#X obj 23 301 * 255;
#X obj 93 303 * 255;
#X obj 175 303 * 255;
#X obj 43 713 outlet;
#X obj 35 485 moses 16;
#X obj 41 629 pack s s s;
#X obj 171 492 moses 16;
#X obj 327 490 moses 16;
#X obj 335 568 makefilename %X;
#X obj 310 536 makefilename 0%X;
#X obj 18 531 makefilename 0%X;
#X obj 43 563 makefilename %X;
#X obj 154 538 makefilename 0%X;
#X obj 179 570 makefilename %X;
#X msg 41 654 symbol #\$1\$2\$3;
#X connect 0 0 1 0;
#X connect 1 0 2 0;
#X connect 2 0 4 0;
#X connect 3 0 7 0;
#X connect 3 1 8 0;
#X connect 4 0 5 0;
#X connect 4 1 6 0;
#X connect 5 0 3 0;
#X connect 6 0 11 0;
#X connect 7 0 9 0;
#X connect 8 0 10 0;
#X connect 9 0 21 0;
#X connect 10 0 22 0;
#X connect 11 0 23 0;
#X connect 12 0 13 0;
#X connect 13 0 25 0;
#X connect 14 0 15 0;
#X connect 15 0 27 0;
#X connect 16 0 17 0;
#X connect 17 0 28 0;
#X connect 18 0 12 0;
#X connect 19 0 14 0;
#X connect 20 0 16 0;
#X connect 21 0 18 0;
#X connect 22 0 19 0;
#X connect 23 0 20 0;
#X connect 25 0 31 0;
#X connect 25 1 32 0;
#X connect 26 0 35 0;
#X connect 27 0 33 0;
#X connect 27 1 34 0;
#X connect 28 0 30 0;
#X connect 28 1 29 0;
#X connect 29 0 26 2;
#X connect 30 0 26 2;
#X connect 31 0 26 0;
#X connect 32 0 26 0;
#X connect 33 0 26 1;
#X connect 34 0 26 1;
#X connect 35 0 24 0;
#X restore 574 340 pd convert_18_bits_into_HEX;
#N canvas 0 50 719 836 convert_18_bits_into_HEX 0;
#X obj 73 25 inlet;
#X obj 94 89 + 1;
#X obj 94 114 * -1;
#X obj 64 209 t f f;
#X obj 94 139 t f f;
#X obj 64 184 div 64;
#X obj 139 182 mod 64;
#X obj 23 247 div 64;
#X obj 93 249 mod 64;
#X obj 23 272 / 63;
#X obj 93 274 / 63;
#X obj 175 274 / 63;
#X obj 14 381 max 0;
#X obj 10 433 min 255;
#X obj 91 381 max 0;
#X obj 87 433 min 255;
#X obj 157 381 max 0;
#X obj 153 433 min 255;
#X obj 14 352 i;
#X obj 91 352 i;
#X obj 157 352 i;
#X obj 23 301 * 255;
#X obj 93 303 * 255;
#X obj 175 303 * 255;
#X obj 43 713 outlet;
#X obj 35 485 moses 16;
#X obj 41 629 pack s s s;
#X obj 171 492 moses 16;
#X obj 327 490 moses 16;
#X obj 335 568 makefilename %X;
#X obj 310 536 makefilename 0%X;
#X obj 18 531 makefilename 0%X;
#X obj 43 563 makefilename %X;
#X obj 154 538 makefilename 0%X;
#X obj 179 570 makefilename %X;
#X msg 41 654 symbol #\$1\$2\$3;
#X connect 0 0 1 0;
#X connect 1 0 2 0;
#X connect 2 0 4 0;
#X connect 3 0 7 0;
#X connect 3 1 8 0;
#X connect 4 0 5 0;
#X connect 4 1 6 0;
#X connect 5 0 3 0;
#X connect 6 0 11 0;
#X connect 7 0 9 0;
#X connect 8 0 10 0;
#X connect 9 0 21 0;
#X connect 10 0 22 0;
#X connect 11 0 23 0;
#X connect 12 0 13 0;
#X connect 13 0 25 0;
#X connect 14 0 15 0;
#X connect 15 0 27 0;
#X connect 16 0 17 0;
#X connect 17 0 28 0;
#X connect 18 0 12 0;
#X connect 19 0 14 0;
#X connect 20 0 16 0;
#X connect 21 0 18 0;
#X connect 22 0 19 0;
#X connect 23 0 20 0;
#X connect 25 0 31 0;
#X connect 25 1 32 0;
#X connect 26 0 35 0;
#X connect 27 0 33 0;
#X connect 27 1 34 0;
#X connect 28 0 30 0;
#X connect 28 1 29 0;
#X connect 29 0 26 2;
#X connect 30 0 26 2;
#X connect 31 0 26 0;
#X connect 32 0 26 0;
#X connect 33 0 26 1;
#X connect 34 0 26 1;
#X connect 35 0 24 0;
#X restore 625 296 pd convert_18_bits_into_HEX;
#X obj 435 205 unpack s s s;
#X text 672 257 obsolete pd 0.52;
#X connect 0 0 1 0;
#X connect 0 1 2 0;
#X connect 1 0 17 0;
#X connect 1 1 18 0;
#X connect 1 2 6 4;
#X connect 2 1 23 0;
#X connect 3 0 13 0;
#X connect 6 0 9 0;
#X connect 7 0 14 0;
#X connect 7 1 0 0;
#X connect 8 0 6 0;
#X connect 9 0 5 0;
#X connect 10 4 8 0;
#X connect 10 5 11 0;
#X connect 11 0 6 1;
#X connect 13 0 7 0;
#X connect 13 1 15 0;
#X connect 14 0 10 0;
#X connect 15 0 14 1;
#X connect 16 0 14 1;
#X connect 17 0 6 2;
#X connect 17 1 16 0;
#X connect 18 0 6 3;
#X connect 18 1 16 0;
#X connect 19 0 20 0;
#X connect 19 1 21 0;
#X connect 19 2 22 0;
#X connect 23 0 6 5;
#X connect 23 1 6 6;
#X connect 23 2 6 7;
#X restore 753 902 pd vradio;
#X obj 45 39 inlet;
#X obj 42 104 symbol;
#X obj 151 36 inlet;
#X obj 1069 975 text insert \$1;
#N canvas 958 160 858 752 hradio 0;
#X obj 205 108 list split 3;
#X obj 202 151 unpack s s s;
#X obj 361 125 list split 4;
#X obj 151 12 inlet;
#X obj 246 518 outlet;
#X obj 246 468 pack f f s s s s s s;
#X obj 150 79 list split 6;
#X msg 133 281 0;
#X obj 246 493 list prepend hradio;
#X obj 15 237 unpack f f f f f f;
#X obj 179 287 - 1;
#X text 166 251 max value;
#X obj 150 46 t l b;
#X obj 74 199 spigot;
#X msg 118 169 1;
#X msg 142 198 0;
#N canvas 0 50 450 300 remove_\\\$0- 0;
#X obj 150 43 inlet;
#X obj 160 308 outlet;
#X obj 148 104 list fromsymbol;
#X obj 155 246 list tosymbol;
#X obj 149 131 route 36;
#X obj 148 155 route 48;
#X obj 147 180 route 45;
#X obj 303 197 t b;
#X obj 303 222 outlet;
#X connect 0 0 2 0;
#X connect 2 0 4 0;
#X connect 3 0 1 0;
#X connect 4 0 5 0;
#X connect 4 1 7 0;
#X connect 5 0 6 0;
#X connect 5 1 7 0;
#X connect 6 0 3 0;
#X connect 6 1 7 0;
#X connect 7 0 8 0;
#X restore 203 180 pd remove_\\\$0-;
#N canvas 0 50 450 300 remove_\\\$0- 0;
#X obj 150 43 inlet;
#X obj 160 308 outlet;
#X obj 148 104 list fromsymbol;
#X obj 155 246 list tosymbol;
#X obj 149 131 route 36;
#X obj 148 155 route 48;
#X obj 147 180 route 45;
#X obj 303 197 t b;
#X obj 303 222 outlet;
#X connect 0 0 2 0;
#X connect 2 0 4 0;
#X connect 3 0 1 0;
#X connect 4 0 5 0;
#X connect 4 1 7 0;
#X connect 5 0 6 0;
#X connect 5 1 7 0;
#X connect 6 0 3 0;
#X connect 6 1 7 0;
#X connect 7 0 8 0;
#X restore 249 231 pd remove_\\\$0-;
#X obj 370 171 unpack s s s;
#X obj 527 260 unpack f f f;
#X text 464 169 colors;
#N canvas 0 0 719 836 convert_18_bits_into_HEX 0;
#X obj 73 25 inlet;
#X obj 94 89 + 1;
#X obj 94 114 * -1;
#X obj 64 209 t f f;
#X obj 94 139 t f f;
#X obj 64 184 div 64;
#X obj 139 182 mod 64;
#X obj 23 247 div 64;
#X obj 93 249 mod 64;
#X obj 23 272 / 63;
#X obj 93 274 / 63;
#X obj 175 274 / 63;
#X obj 14 381 max 0;
#X obj 10 433 min 255;
#X obj 91 381 max 0;
#X obj 87 433 min 255;
#X obj 157 381 max 0;
#X obj 153 433 min 255;
#X obj 14 352 i;
#X obj 91 352 i;
#X obj 157 352 i;
#X obj 23 301 * 255;
#X obj 93 303 * 255;
#X obj 175 303 * 255;
#X obj 43 713 outlet;
#X obj 35 485 moses 16;
#X obj 41 629 pack s s s;
#X obj 171 492 moses 16;
#X obj 327 490 moses 16;
#X obj 335 568 makefilename %X;
#X obj 310 536 makefilename 0%X;
#X obj 18 531 makefilename 0%X;
#X obj 43 563 makefilename %X;
#X obj 154 538 makefilename 0%X;
#X obj 179 570 makefilename %X;
#X msg 41 654 symbol #\$1\$2\$3;
#X connect 0 0 1 0;
#X connect 1 0 2 0;
#X connect 2 0 4 0;
#X connect 3 0 7 0;
#X connect 3 1 8 0;
#X connect 4 0 5 0;
#X connect 4 1 6 0;
#X connect 5 0 3 0;
#X connect 6 0 11 0;
#X connect 7 0 9 0;
#X connect 8 0 10 0;
#X connect 9 0 21 0;
#X connect 10 0 22 0;
#X connect 11 0 23 0;
#X connect 12 0 13 0;
#X connect 13 0 25 0;
#X connect 14 0 15 0;
#X connect 15 0 27 0;
#X connect 16 0 17 0;
#X connect 17 0 28 0;
#X connect 18 0 12 0;
#X connect 19 0 14 0;
#X connect 20 0 16 0;
#X connect 21 0 18 0;
#X connect 22 0 19 0;
#X connect 23 0 20 0;
#X connect 25 0 31 0;
#X connect 25 1 32 0;
#X connect 26 0 35 0;
#X connect 27 0 33 0;
#X connect 27 1 34 0;
#X connect 28 0 30 0;
#X connect 28 1 29 0;
#X connect 29 0 26 2;
#X connect 30 0 26 2;
#X connect 31 0 26 0;
#X connect 32 0 26 0;
#X connect 33 0 26 1;
#X connect 34 0 26 1;
#X connect 35 0 24 0;
#X restore 505 395 pd convert_18_bits_into_HEX;
#N canvas 0 50 719 836 convert_18_bits_into_HEX 0;
#X obj 73 25 inlet;
#X obj 94 89 + 1;
#X obj 94 114 * -1;
#X obj 64 209 t f f;
#X obj 94 139 t f f;
#X obj 64 184 div 64;
#X obj 139 182 mod 64;
#X obj 23 247 div 64;
#X obj 93 249 mod 64;
#X obj 23 272 / 63;
#X obj 93 274 / 63;
#X obj 175 274 / 63;
#X obj 14 381 max 0;
#X obj 10 433 min 255;
#X obj 91 381 max 0;
#X obj 87 433 min 255;
#X obj 157 381 max 0;
#X obj 153 433 min 255;
#X obj 14 352 i;
#X obj 91 352 i;
#X obj 157 352 i;
#X obj 23 301 * 255;
#X obj 93 303 * 255;
#X obj 175 303 * 255;
#X obj 43 713 outlet;
#X obj 35 485 moses 16;
#X obj 41 629 pack s s s;
#X obj 171 492 moses 16;
#X obj 327 490 moses 16;
#X obj 335 568 makefilename %X;
#X obj 310 536 makefilename 0%X;
#X obj 18 531 makefilename 0%X;
#X obj 43 563 makefilename %X;
#X obj 154 538 makefilename 0%X;
#X obj 179 570 makefilename %X;
#X msg 41 654 symbol #\$1\$2\$3;
#X connect 0 0 1 0;
#X connect 1 0 2 0;
#X connect 2 0 4 0;
#X connect 3 0 7 0;
#X connect 3 1 8 0;
#X connect 4 0 5 0;
#X connect 4 1 6 0;
#X connect 5 0 3 0;
#X connect 6 0 11 0;
#X connect 7 0 9 0;
#X connect 8 0 10 0;
#X connect 9 0 21 0;
#X connect 10 0 22 0;
#X connect 11 0 23 0;
#X connect 12 0 13 0;
#X connect 13 0 25 0;
#X connect 14 0 15 0;
#X connect 15 0 27 0;
#X connect 16 0 17 0;
#X connect 17 0 28 0;
#X connect 18 0 12 0;
#X connect 19 0 14 0;
#X connect 20 0 16 0;
#X connect 21 0 18 0;
#X connect 22 0 19 0;
#X connect 23 0 20 0;
#X connect 25 0 31 0;
#X connect 25 1 32 0;
#X connect 26 0 35 0;
#X connect 27 0 33 0;
#X connect 27 1 34 0;
#X connect 28 0 30 0;
#X connect 28 1 29 0;
#X connect 29 0 26 2;
#X connect 30 0 26 2;
#X connect 31 0 26 0;
#X connect 32 0 26 0;
#X connect 33 0 26 1;
#X connect 34 0 26 1;
#X connect 35 0 24 0;
#X restore 555 344 pd convert_18_bits_into_HEX;
#N canvas 0 50 719 836 convert_18_bits_into_HEX 0;
#X obj 73 25 inlet;
#X obj 94 89 + 1;
#X obj 94 114 * -1;
#X obj 64 209 t f f;
#X obj 94 139 t f f;
#X obj 64 184 div 64;
#X obj 139 182 mod 64;
#X obj 23 247 div 64;
#X obj 93 249 mod 64;
#X obj 23 272 / 63;
#X obj 93 274 / 63;
#X obj 175 274 / 63;
#X obj 14 381 max 0;
#X obj 10 433 min 255;
#X obj 91 381 max 0;
#X obj 87 433 min 255;
#X obj 157 381 max 0;
#X obj 153 433 min 255;
#X obj 14 352 i;
#X obj 91 352 i;
#X obj 157 352 i;
#X obj 23 301 * 255;
#X obj 93 303 * 255;
#X obj 175 303 * 255;
#X obj 43 713 outlet;
#X obj 35 485 moses 16;
#X obj 41 629 pack s s s;
#X obj 171 492 moses 16;
#X obj 327 490 moses 16;
#X obj 335 568 makefilename %X;
#X obj 310 536 makefilename 0%X;
#X obj 18 531 makefilename 0%X;
#X obj 43 563 makefilename %X;
#X obj 154 538 makefilename 0%X;
#X obj 179 570 makefilename %X;
#X msg 41 654 symbol #\$1\$2\$3;
#X connect 0 0 1 0;
#X connect 1 0 2 0;
#X connect 2 0 4 0;
#X connect 3 0 7 0;
#X connect 3 1 8 0;
#X connect 4 0 5 0;
#X connect 4 1 6 0;
#X connect 5 0 3 0;
#X connect 6 0 11 0;
#X connect 7 0 9 0;
#X connect 8 0 10 0;
#X connect 9 0 21 0;
#X connect 10 0 22 0;
#X connect 11 0 23 0;
#X connect 12 0 13 0;
#X connect 13 0 25 0;
#X connect 14 0 15 0;
#X connect 15 0 27 0;
#X connect 16 0 17 0;
#X connect 17 0 28 0;
#X connect 18 0 12 0;
#X connect 19 0 14 0;
#X connect 20 0 16 0;
#X connect 21 0 18 0;
#X connect 22 0 19 0;
#X connect 23 0 20 0;
#X connect 25 0 31 0;
#X connect 25 1 32 0;
#X connect 26 0 35 0;
#X connect 27 0 33 0;
#X connect 27 1 34 0;
#X connect 28 0 30 0;
#X connect 28 1 29 0;
#X connect 29 0 26 2;
#X connect 30 0 26 2;
#X connect 31 0 26 0;
#X connect 32 0 26 0;
#X connect 33 0 26 1;
#X connect 34 0 26 1;
#X connect 35 0 24 0;
#X restore 606 300 pd convert_18_bits_into_HEX;
#X text 625 230 old;
#X connect 0 0 1 0;
#X connect 0 1 2 0;
#X connect 1 0 16 0;
#X connect 1 1 17 0;
#X connect 1 2 5 4;
#X connect 2 1 18 0;
#X connect 3 0 12 0;
#X connect 5 0 8 0;
#X connect 6 0 13 0;
#X connect 6 1 0 0;
#X connect 7 0 5 0;
#X connect 8 0 4 0;
#X connect 9 4 7 0;
#X connect 9 5 10 0;
#X connect 10 0 5 1;
#X connect 12 0 6 0;
#X connect 12 1 14 0;
#X connect 13 0 9 0;
#X connect 14 0 13 1;
#X connect 15 0 13 1;
#X connect 16 0 5 2;
#X connect 16 1 15 0;
#X connect 17 0 5 3;
#X connect 17 1 15 0;
#X connect 18 0 5 5;
#X connect 18 1 5 6;
#X connect 18 2 5 7;
#X connect 19 0 21 0;
#X connect 19 1 22 0;
#X connect 19 2 23 0;
#X restore 766 938 pd hradio;
#N canvas 788 441 858 752 tgl 0;
#X obj 205 108 list split 3;
#X obj 202 151 unpack s s s;
#X obj 394 177 list split 4;
#X obj 152 11 inlet;
#X text 563 191 colors;
#X obj 246 518 outlet;
#X obj 246 468 pack f f s s s s s s;
#X obj 150 79 list split 4;
#X obj 246 493 list prepend tgl;
#X obj 7 219 t b b;
#X msg 14 264 0;
#X msg 59 264 1;
#X obj 151 46 t l b;
#X obj 61 188 spigot;
#X msg 107 159 1;
#N canvas 0 50 450 300 remove_\\\$0- 0;
#X obj 150 43 inlet;
#X obj 160 308 outlet;
#X obj 148 104 list fromsymbol;
#X obj 155 246 list tosymbol;
#X obj 149 131 route 36;
#X obj 148 155 route 48;
#X obj 147 180 route 45;
#X obj 303 197 t b;
#X obj 303 222 outlet;
#X connect 0 0 2 0;
#X connect 2 0 4 0;
#X connect 3 0 1 0;
#X connect 4 0 5 0;
#X connect 4 1 7 0;
#X connect 5 0 6 0;
#X connect 5 1 7 0;
#X connect 6 0 3 0;
#X connect 6 1 7 0;
#X connect 7 0 8 0;
#X restore 203 180 pd remove_\\\$0-;
#X msg 160 215 0;
#N canvas 0 50 450 300 remove_\\\$0- 0;
#X obj 150 43 inlet;
#X obj 160 308 outlet;
#X obj 148 104 list fromsymbol;
#X obj 155 246 list tosymbol;
#X obj 149 131 route 36;
#X obj 148 155 route 48;
#X obj 147 180 route 45;
#X obj 303 197 t b;
#X obj 303 222 outlet;
#X connect 0 0 2 0;
#X connect 2 0 4 0;
#X connect 3 0 1 0;
#X connect 4 0 5 0;
#X connect 4 1 7 0;
#X connect 5 0 6 0;
#X connect 5 1 7 0;
#X connect 6 0 3 0;
#X connect 6 1 7 0;
#X connect 7 0 8 0;
#X restore 249 231 pd remove_\\\$0-;
#X obj 536 270 unpack f f f;
#N canvas 0 50 719 836 convert_18_bits_into_HEX 0;
#X obj 73 25 inlet;
#X obj 94 89 + 1;
#X obj 94 114 * -1;
#X obj 64 209 t f f;
#X obj 94 139 t f f;
#X obj 64 184 div 64;
#X obj 139 182 mod 64;
#X obj 23 247 div 64;
#X obj 93 249 mod 64;
#X obj 23 272 / 63;
#X obj 93 274 / 63;
#X obj 175 274 / 63;
#X obj 14 381 max 0;
#X obj 10 433 min 255;
#X obj 91 381 max 0;
#X obj 87 433 min 255;
#X obj 157 381 max 0;
#X obj 153 433 min 255;
#X obj 14 352 i;
#X obj 91 352 i;
#X obj 157 352 i;
#X obj 23 301 * 255;
#X obj 93 303 * 255;
#X obj 175 303 * 255;
#X obj 43 713 outlet;
#X obj 35 485 moses 16;
#X obj 41 629 pack s s s;
#X obj 171 492 moses 16;
#X obj 327 490 moses 16;
#X obj 335 568 makefilename %X;
#X obj 310 536 makefilename 0%X;
#X obj 18 531 makefilename 0%X;
#X obj 43 563 makefilename %X;
#X obj 154 538 makefilename 0%X;
#X obj 179 570 makefilename %X;
#X msg 41 654 symbol #\$1\$2\$3;
#X connect 0 0 1 0;
#X connect 1 0 2 0;
#X connect 2 0 4 0;
#X connect 3 0 7 0;
#X connect 3 1 8 0;
#X connect 4 0 5 0;
#X connect 4 1 6 0;
#X connect 5 0 3 0;
#X connect 6 0 11 0;
#X connect 7 0 9 0;
#X connect 8 0 10 0;
#X connect 9 0 21 0;
#X connect 10 0 22 0;
#X connect 11 0 23 0;
#X connect 12 0 13 0;
#X connect 13 0 25 0;
#X connect 14 0 15 0;
#X connect 15 0 27 0;
#X connect 16 0 17 0;
#X connect 17 0 28 0;
#X connect 18 0 12 0;
#X connect 19 0 14 0;
#X connect 20 0 16 0;
#X connect 21 0 18 0;
#X connect 22 0 19 0;
#X connect 23 0 20 0;
#X connect 25 0 31 0;
#X connect 25 1 32 0;
#X connect 26 0 35 0;
#X connect 27 0 33 0;
#X connect 27 1 34 0;
#X connect 28 0 30 0;
#X connect 28 1 29 0;
#X connect 29 0 26 2;
#X connect 30 0 26 2;
#X connect 31 0 26 0;
#X connect 32 0 26 0;
#X connect 33 0 26 1;
#X connect 34 0 26 1;
#X connect 35 0 24 0;
#X restore 514 405 pd convert_18_bits_into_HEX;
#N canvas 0 50 719 836 convert_18_bits_into_HEX 0;
#X obj 73 25 inlet;
#X obj 94 89 + 1;
#X obj 94 114 * -1;
#X obj 64 209 t f f;
#X obj 94 139 t f f;
#X obj 64 184 div 64;
#X obj 139 182 mod 64;
#X obj 23 247 div 64;
#X obj 93 249 mod 64;
#X obj 23 272 / 63;
#X obj 93 274 / 63;
#X obj 175 274 / 63;
#X obj 14 381 max 0;
#X obj 10 433 min 255;
#X obj 91 381 max 0;
#X obj 87 433 min 255;
#X obj 157 381 max 0;
#X obj 153 433 min 255;
#X obj 14 352 i;
#X obj 91 352 i;
#X obj 157 352 i;
#X obj 23 301 * 255;
#X obj 93 303 * 255;
#X obj 175 303 * 255;
#X obj 43 713 outlet;
#X obj 35 485 moses 16;
#X obj 41 629 pack s s s;
#X obj 171 492 moses 16;
#X obj 327 490 moses 16;
#X obj 335 568 makefilename %X;
#X obj 310 536 makefilename 0%X;
#X obj 18 531 makefilename 0%X;
#X obj 43 563 makefilename %X;
#X obj 154 538 makefilename 0%X;
#X obj 179 570 makefilename %X;
#X msg 41 654 symbol #\$1\$2\$3;
#X connect 0 0 1 0;
#X connect 1 0 2 0;
#X connect 2 0 4 0;
#X connect 3 0 7 0;
#X connect 3 1 8 0;
#X connect 4 0 5 0;
#X connect 4 1 6 0;
#X connect 5 0 3 0;
#X connect 6 0 11 0;
#X connect 7 0 9 0;
#X connect 8 0 10 0;
#X connect 9 0 21 0;
#X connect 10 0 22 0;
#X connect 11 0 23 0;
#X connect 12 0 13 0;
#X connect 13 0 25 0;
#X connect 14 0 15 0;
#X connect 15 0 27 0;
#X connect 16 0 17 0;
#X connect 17 0 28 0;
#X connect 18 0 12 0;
#X connect 19 0 14 0;
#X connect 20 0 16 0;
#X connect 21 0 18 0;
#X connect 22 0 19 0;
#X connect 23 0 20 0;
#X connect 25 0 31 0;
#X connect 25 1 32 0;
#X connect 26 0 35 0;
#X connect 27 0 33 0;
#X connect 27 1 34 0;
#X connect 28 0 30 0;
#X connect 28 1 29 0;
#X connect 29 0 26 2;
#X connect 30 0 26 2;
#X connect 31 0 26 0;
#X connect 32 0 26 0;
#X connect 33 0 26 1;
#X connect 34 0 26 1;
#X connect 35 0 24 0;
#X restore 564 354 pd convert_18_bits_into_HEX;
#N canvas 0 50 719 836 convert_18_bits_into_HEX 0;
#X obj 73 25 inlet;
#X obj 94 89 + 1;
#X obj 94 114 * -1;
#X obj 64 209 t f f;
#X obj 94 139 t f f;
#X obj 64 184 div 64;
#X obj 139 182 mod 64;
#X obj 23 247 div 64;
#X obj 93 249 mod 64;
#X obj 23 272 / 63;
#X obj 93 274 / 63;
#X obj 175 274 / 63;
#X obj 14 381 max 0;
#X obj 10 433 min 255;
#X obj 91 381 max 0;
#X obj 87 433 min 255;
#X obj 157 381 max 0;
#X obj 153 433 min 255;
#X obj 14 352 i;
#X obj 91 352 i;
#X obj 157 352 i;
#X obj 23 301 * 255;
#X obj 93 303 * 255;
#X obj 175 303 * 255;
#X obj 43 713 outlet;
#X obj 35 485 moses 16;
#X obj 41 629 pack s s s;
#X obj 171 492 moses 16;
#X obj 327 490 moses 16;
#X obj 335 568 makefilename %X;
#X obj 310 536 makefilename 0%X;
#X obj 18 531 makefilename 0%X;
#X obj 43 563 makefilename %X;
#X obj 154 538 makefilename 0%X;
#X obj 179 570 makefilename %X;
#X msg 41 654 symbol #\$1\$2\$3;
#X connect 0 0 1 0;
#X connect 1 0 2 0;
#X connect 2 0 4 0;
#X connect 3 0 7 0;
#X connect 3 1 8 0;
#X connect 4 0 5 0;
#X connect 4 1 6 0;
#X connect 5 0 3 0;
#X connect 6 0 11 0;
#X connect 7 0 9 0;
#X connect 8 0 10 0;
#X connect 9 0 21 0;
#X connect 10 0 22 0;
#X connect 11 0 23 0;
#X connect 12 0 13 0;
#X connect 13 0 25 0;
#X connect 14 0 15 0;
#X connect 15 0 27 0;
#X connect 16 0 17 0;
#X connect 17 0 28 0;
#X connect 18 0 12 0;
#X connect 19 0 14 0;
#X connect 20 0 16 0;
#X connect 21 0 18 0;
#X connect 22 0 19 0;
#X connect 23 0 20 0;
#X connect 25 0 31 0;
#X connect 25 1 32 0;
#X connect 26 0 35 0;
#X connect 27 0 33 0;
#X connect 27 1 34 0;
#X connect 28 0 30 0;
#X connect 28 1 29 0;
#X connect 29 0 26 2;
#X connect 30 0 26 2;
#X connect 31 0 26 0;
#X connect 32 0 26 0;
#X connect 33 0 26 1;
#X connect 34 0 26 1;
#X connect 35 0 24 0;
#X restore 615 310 pd convert_18_bits_into_HEX;
#X obj 428 220 unpack s s s;
#X text 637 272 obsolete since pd 0.52;
#X connect 0 0 1 0;
#X connect 0 1 2 0;
#X connect 1 0 15 0;
#X connect 1 1 17 0;
#X connect 1 2 6 4;
#X connect 2 1 22 0;
#X connect 3 0 12 0;
#X connect 6 0 8 0;
#X connect 7 0 13 0;
#X connect 7 1 0 0;
#X connect 8 0 5 0;
#X connect 9 0 10 0;
#X connect 9 1 11 0;
#X connect 10 0 6 0;
#X connect 11 0 6 1;
#X connect 12 0 7 0;
#X connect 12 1 14 0;
#X connect 13 0 9 0;
#X connect 14 0 13 1;
#X connect 15 0 6 2;
#X connect 15 1 16 0;
#X connect 16 0 13 1;
#X connect 17 0 6 3;
#X connect 17 1 16 0;
#X connect 18 0 19 0;
#X connect 18 1 20 0;
#X connect 18 2 21 0;
#X connect 22 0 6 5;
#X connect 22 1 6 6;
#X connect 22 2 6 7;
#X restore 957 880 pd tgl;
#X obj 819 805 route vsl hsl vradio hradio tgl bng nbx;
#N canvas 652 225 858 752 bng 0;
#X obj 205 108 list split 3;
#X obj 202 151 unpack s s s;
#X obj 394 177 list split 4;
#X obj 536 216 unpack f f f;
#X obj 157 10 inlet;
#X text 563 191 colors;
#X obj 246 518 outlet;
#X obj 246 468 pack f f s s s s s s;
#N canvas 0 50 719 836 convert_18_bits_into_HEX 0;
#X obj 73 25 inlet;
#X obj 94 89 + 1;
#X obj 94 114 * -1;
#X obj 64 209 t f f;
#X obj 94 139 t f f;
#X obj 64 184 div 64;
#X obj 139 182 mod 64;
#X obj 23 247 div 64;
#X obj 93 249 mod 64;
#X obj 23 272 / 63;
#X obj 93 274 / 63;
#X obj 175 274 / 63;
#X obj 14 381 max 0;
#X obj 10 433 min 255;
#X obj 91 381 max 0;
#X obj 87 433 min 255;
#X obj 157 381 max 0;
#X obj 153 433 min 255;
#X obj 14 352 i;
#X obj 91 352 i;
#X obj 157 352 i;
#X obj 23 301 * 255;
#X obj 93 303 * 255;
#X obj 175 303 * 255;
#X obj 43 713 outlet;
#X obj 35 485 moses 16;
#X obj 41 629 pack s s s;
#X obj 171 492 moses 16;
#X obj 327 490 moses 16;
#X obj 335 568 makefilename %X;
#X obj 310 536 makefilename 0%X;
#X obj 18 531 makefilename 0%X;
#X obj 43 563 makefilename %X;
#X obj 154 538 makefilename 0%X;
#X obj 179 570 makefilename %X;
#X msg 41 654 symbol #\$1\$2\$3;
#X connect 0 0 1 0;
#X connect 1 0 2 0;
#X connect 2 0 4 0;
#X connect 3 0 7 0;
#X connect 3 1 8 0;
#X connect 4 0 5 0;
#X connect 4 1 6 0;
#X connect 5 0 3 0;
#X connect 6 0 11 0;
#X connect 7 0 9 0;
#X connect 8 0 10 0;
#X connect 9 0 21 0;
#X connect 10 0 22 0;
#X connect 11 0 23 0;
#X connect 12 0 13 0;
#X connect 13 0 25 0;
#X connect 14 0 15 0;
#X connect 15 0 27 0;
#X connect 16 0 17 0;
#X connect 17 0 28 0;
#X connect 18 0 12 0;
#X connect 19 0 14 0;
#X connect 20 0 16 0;
#X connect 21 0 18 0;
#X connect 22 0 19 0;
#X connect 23 0 20 0;
#X connect 25 0 31 0;
#X connect 25 1 32 0;
#X connect 26 0 35 0;
#X connect 27 0 33 0;
#X connect 27 1 34 0;
#X connect 28 0 30 0;
#X connect 28 1 29 0;
#X connect 29 0 26 2;
#X connect 30 0 26 2;
#X connect 31 0 26 0;
#X connect 32 0 26 0;
#X connect 33 0 26 1;
#X connect 34 0 26 1;
#X connect 35 0 24 0;
#X restore 514 351 pd convert_18_bits_into_HEX;
#N canvas 0 50 719 836 convert_18_bits_into_HEX 0;
#X obj 73 25 inlet;
#X obj 94 89 + 1;
#X obj 94 114 * -1;
#X obj 64 209 t f f;
#X obj 94 139 t f f;
#X obj 64 184 div 64;
#X obj 139 182 mod 64;
#X obj 23 247 div 64;
#X obj 93 249 mod 64;
#X obj 23 272 / 63;
#X obj 93 274 / 63;
#X obj 175 274 / 63;
#X obj 14 381 max 0;
#X obj 10 433 min 255;
#X obj 91 381 max 0;
#X obj 87 433 min 255;
#X obj 157 381 max 0;
#X obj 153 433 min 255;
#X obj 14 352 i;
#X obj 91 352 i;
#X obj 157 352 i;
#X obj 23 301 * 255;
#X obj 93 303 * 255;
#X obj 175 303 * 255;
#X obj 43 713 outlet;
#X obj 35 485 moses 16;
#X obj 41 629 pack s s s;
#X obj 171 492 moses 16;
#X obj 327 490 moses 16;
#X obj 335 568 makefilename %X;
#X obj 310 536 makefilename 0%X;
#X obj 18 531 makefilename 0%X;
#X obj 43 563 makefilename %X;
#X obj 154 538 makefilename 0%X;
#X obj 179 570 makefilename %X;
#X msg 41 654 symbol #\$1\$2\$3;
#X connect 0 0 1 0;
#X connect 1 0 2 0;
#X connect 2 0 4 0;
#X connect 3 0 7 0;
#X connect 3 1 8 0;
#X connect 4 0 5 0;
#X connect 4 1 6 0;
#X connect 5 0 3 0;
#X connect 6 0 11 0;
#X connect 7 0 9 0;
#X connect 8 0 10 0;
#X connect 9 0 21 0;
#X connect 10 0 22 0;
#X connect 11 0 23 0;
#X connect 12 0 13 0;
#X connect 13 0 25 0;
#X connect 14 0 15 0;
#X connect 15 0 27 0;
#X connect 16 0 17 0;
#X connect 17 0 28 0;
#X connect 18 0 12 0;
#X connect 19 0 14 0;
#X connect 20 0 16 0;
#X connect 21 0 18 0;
#X connect 22 0 19 0;
#X connect 23 0 20 0;
#X connect 25 0 31 0;
#X connect 25 1 32 0;
#X connect 26 0 35 0;
#X connect 27 0 33 0;
#X connect 27 1 34 0;
#X connect 28 0 30 0;
#X connect 28 1 29 0;
#X connect 29 0 26 2;
#X connect 30 0 26 2;
#X connect 31 0 26 0;
#X connect 32 0 26 0;
#X connect 33 0 26 1;
#X connect 34 0 26 1;
#X connect 35 0 24 0;
#X restore 564 300 pd convert_18_bits_into_HEX;
#N canvas 0 50 719 836 convert_18_bits_into_HEX 0;
#X obj 73 25 inlet;
#X obj 94 89 + 1;
#X obj 94 114 * -1;
#X obj 64 209 t f f;
#X obj 94 139 t f f;
#X obj 64 184 div 64;
#X obj 139 182 mod 64;
#X obj 23 247 div 64;
#X obj 93 249 mod 64;
#X obj 23 272 / 63;
#X obj 93 274 / 63;
#X obj 175 274 / 63;
#X obj 14 381 max 0;
#X obj 10 433 min 255;
#X obj 91 381 max 0;
#X obj 87 433 min 255;
#X obj 157 381 max 0;
#X obj 153 433 min 255;
#X obj 14 352 i;
#X obj 91 352 i;
#X obj 157 352 i;
#X obj 23 301 * 255;
#X obj 93 303 * 255;
#X obj 175 303 * 255;
#X obj 43 713 outlet;
#X obj 35 485 moses 16;
#X obj 41 629 pack s s s;
#X obj 171 492 moses 16;
#X obj 327 490 moses 16;
#X obj 335 568 makefilename %X;
#X obj 310 536 makefilename 0%X;
#X obj 18 531 makefilename 0%X;
#X obj 43 563 makefilename %X;
#X obj 154 538 makefilename 0%X;
#X obj 179 570 makefilename %X;
#X msg 41 654 symbol #\$1\$2\$3;
#X connect 0 0 1 0;
#X connect 1 0 2 0;
#X connect 2 0 4 0;
#X connect 3 0 7 0;
#X connect 3 1 8 0;
#X connect 4 0 5 0;
#X connect 4 1 6 0;
#X connect 5 0 3 0;
#X connect 6 0 11 0;
#X connect 7 0 9 0;
#X connect 8 0 10 0;
#X connect 9 0 21 0;
#X connect 10 0 22 0;
#X connect 11 0 23 0;
#X connect 12 0 13 0;
#X connect 13 0 25 0;
#X connect 14 0 15 0;
#X connect 15 0 27 0;
#X connect 16 0 17 0;
#X connect 17 0 28 0;
#X connect 18 0 12 0;
#X connect 19 0 14 0;
#X connect 20 0 16 0;
#X connect 21 0 18 0;
#X connect 22 0 19 0;
#X connect 23 0 20 0;
#X connect 25 0 31 0;
#X connect 25 1 32 0;
#X connect 26 0 35 0;
#X connect 27 0 33 0;
#X connect 27 1 34 0;
#X connect 28 0 30 0;
#X connect 28 1 29 0;
#X connect 29 0 26 2;
#X connect 30 0 26 2;
#X connect 31 0 26 0;
#X connect 32 0 26 0;
#X connect 33 0 26 1;
#X connect 34 0 26 1;
#X connect 35 0 24 0;
#X restore 615 256 pd convert_18_bits_into_HEX;
#X obj 123 70 list split 6;
#X obj 26 245 unpack f f f f f f;
#X obj 246 493 list prepend bng;
#X obj 153 45 t l b;
#X obj 85 207 spigot;
#X msg 127 130 1;
#N canvas 0 50 450 300 remove_\\\$0- 0;
#X obj 150 43 inlet;
#X obj 160 308 outlet;
#X obj 148 104 list fromsymbol;
#X obj 155 246 list tosymbol;
#X obj 149 131 route 36;
#X obj 148 155 route 48;
#X obj 147 180 route 45;
#X obj 303 197 t b;
#X obj 303 222 outlet;
#X connect 0 0 2 0;
#X connect 2 0 4 0;
#X connect 3 0 1 0;
#X connect 4 0 5 0;
#X connect 4 1 7 0;
#X connect 5 0 6 0;
#X connect 5 1 7 0;
#X connect 6 0 3 0;
#X connect 6 1 7 0;
#X connect 7 0 8 0;
#X restore 203 180 pd remove_\\\$0-;
#X msg 160 215 0;
#N canvas 0 50 450 300 remove_\\\$0- 0;
#X obj 150 43 inlet;
#X obj 160 308 outlet;
#X obj 148 104 list fromsymbol;
#X obj 155 246 list tosymbol;
#X obj 149 131 route 36;
#X obj 148 155 route 48;
#X obj 147 180 route 45;
#X obj 303 197 t b;
#X obj 303 222 outlet;
#X connect 0 0 2 0;
#X connect 2 0 4 0;
#X connect 3 0 1 0;
#X connect 4 0 5 0;
#X connect 4 1 7 0;
#X connect 5 0 6 0;
#X connect 5 1 7 0;
#X connect 6 0 3 0;
#X connect 6 1 7 0;
#X connect 7 0 8 0;
#X restore 249 231 pd remove_\\\$0-;
#X obj 432 229 unpack s s s;
#X connect 0 0 1 0;
#X connect 0 1 2 0;
#X connect 1 0 17 0;
#X connect 1 1 19 0;
#X connect 1 2 7 4;
#X connect 2 1 20 0;
#X connect 3 0 8 0;
#X connect 3 1 9 0;
#X connect 3 2 10 0;
#X connect 4 0 14 0;
#X connect 7 0 13 0;
#X connect 8 0 7 5;
#X connect 9 0 7 6;
#X connect 10 0 7 7;
#X connect 11 0 15 0;
#X connect 11 1 0 0;
#X connect 12 3 7 0;
#X connect 12 4 7 1;
#X connect 13 0 6 0;
#X connect 14 0 11 0;
#X connect 14 1 16 0;
#X connect 15 0 12 0;
#X connect 16 0 15 1;
#X connect 17 0 7 2;
#X connect 17 1 18 0;
#X connect 18 0 15 1;
#X connect 19 0 7 3;
#X connect 19 1 18 0;
#X connect 20 0 7 5;
#X connect 20 1 7 6;
#X connect 20 2 7 7;
#X restore 1013 860 pd bng;
#N canvas 0 0 858 752 nbx 0;
#X obj 142 86 list split 8;
#X obj 203 121 list split 3;
#X obj 202 151 unpack s s s;
#N canvas 0 50 450 300 remove_\\\$0- 0;
#X obj 150 43 inlet;
#X obj 160 308 outlet;
#X obj 148 104 list fromsymbol;
#X obj 155 246 list tosymbol;
#X obj 149 131 route 36;
#X obj 148 155 route 48;
#X obj 147 180 route 45;
#X obj 303 197 t b;
#X obj 303 222 outlet;
#X connect 0 0 2 0;
#X connect 2 0 4 0;
#X connect 3 0 1 0;
#X connect 4 0 5 0;
#X connect 4 1 7 0;
#X connect 5 0 6 0;
#X connect 5 1 7 0;
#X connect 6 0 3 0;
#X connect 6 1 7 0;
#X connect 7 0 8 0;
#X restore 203 180 pd remove_\\\$0-;
#X obj 35 257 list split 4;
#X obj 75 305 unpack f f;
#X obj 407 97 list split 4;
#X obj 145 35 inlet;
#X text 18 326 min;
#X text 152 318 max;
#X obj 246 518 outlet;
#X obj 246 468 pack f f s s s s s s;
#X obj 94 230 spigot;
#X obj 147 57 t l b;
#X msg 254 70 1;
#X msg 160 215 0;
#N canvas 0 50 450 300 remove_\\\$0- 0;
#X obj 150 43 inlet;
#X obj 160 308 outlet;
#X obj 148 104 list fromsymbol;
#X obj 155 246 list tosymbol;
#X obj 149 131 route 36;
#X obj 148 155 route 48;
#X obj 147 180 route 45;
#X obj 303 197 t b;
#X obj 303 222 outlet;
#X connect 0 0 2 0;
#X connect 2 0 4 0;
#X connect 3 0 1 0;
#X connect 4 0 5 0;
#X connect 4 1 7 0;
#X connect 5 0 6 0;
#X connect 5 1 7 0;
#X connect 6 0 3 0;
#X connect 6 1 7 0;
#X connect 7 0 8 0;
#X restore 249 231 pd remove_\\\$0-;
#X obj 246 493 list prepend nbx;
#X obj 573 238 unpack f f f;
#X text 576 142 colors;
#N canvas 0 50 719 836 convert_18_bits_into_HEX 0;
#X obj 73 25 inlet;
#X obj 94 89 + 1;
#X obj 94 114 * -1;
#X obj 64 209 t f f;
#X obj 94 139 t f f;
#X obj 64 184 div 64;
#X obj 139 182 mod 64;
#X obj 23 247 div 64;
#X obj 93 249 mod 64;
#X obj 23 272 / 63;
#X obj 93 274 / 63;
#X obj 175 274 / 63;
#X obj 14 381 max 0;
#X obj 10 433 min 255;
#X obj 91 381 max 0;
#X obj 87 433 min 255;
#X obj 157 381 max 0;
#X obj 153 433 min 255;
#X obj 14 352 i;
#X obj 91 352 i;
#X obj 157 352 i;
#X obj 23 301 * 255;
#X obj 93 303 * 255;
#X obj 175 303 * 255;
#X obj 43 713 outlet;
#X obj 35 485 moses 16;
#X obj 41 629 pack s s s;
#X obj 171 492 moses 16;
#X obj 327 490 moses 16;
#X obj 335 568 makefilename %X;
#X obj 310 536 makefilename 0%X;
#X obj 18 531 makefilename 0%X;
#X obj 43 563 makefilename %X;
#X obj 154 538 makefilename 0%X;
#X obj 179 570 makefilename %X;
#X msg 41 654 symbol #\$1\$2\$3;
#X connect 0 0 1 0;
#X connect 1 0 2 0;
#X connect 2 0 4 0;
#X connect 3 0 7 0;
#X connect 3 1 8 0;
#X connect 4 0 5 0;
#X connect 4 1 6 0;
#X connect 5 0 3 0;
#X connect 6 0 11 0;
#X connect 7 0 9 0;
#X connect 8 0 10 0;
#X connect 9 0 21 0;
#X connect 10 0 22 0;
#X connect 11 0 23 0;
#X connect 12 0 13 0;
#X connect 13 0 25 0;
#X connect 14 0 15 0;
#X connect 15 0 27 0;
#X connect 16 0 17 0;
#X connect 17 0 28 0;
#X connect 18 0 12 0;
#X connect 19 0 14 0;
#X connect 20 0 16 0;
#X connect 21 0 18 0;
#X connect 22 0 19 0;
#X connect 23 0 20 0;
#X connect 25 0 31 0;
#X connect 25 1 32 0;
#X connect 26 0 35 0;
#X connect 27 0 33 0;
#X connect 27 1 34 0;
#X connect 28 0 30 0;
#X connect 28 1 29 0;
#X connect 29 0 26 2;
#X connect 30 0 26 2;
#X connect 31 0 26 0;
#X connect 32 0 26 0;
#X connect 33 0 26 1;
#X connect 34 0 26 1;
#X connect 35 0 24 0;
#X restore 551 373 pd convert_18_bits_into_HEX;
#N canvas 0 50 719 836 convert_18_bits_into_HEX 0;
#X obj 73 25 inlet;
#X obj 94 89 + 1;
#X obj 94 114 * -1;
#X obj 64 209 t f f;
#X obj 94 139 t f f;
#X obj 64 184 div 64;
#X obj 139 182 mod 64;
#X obj 23 247 div 64;
#X obj 93 249 mod 64;
#X obj 23 272 / 63;
#X obj 93 274 / 63;
#X obj 175 274 / 63;
#X obj 14 381 max 0;
#X obj 10 433 min 255;
#X obj 91 381 max 0;
#X obj 87 433 min 255;
#X obj 157 381 max 0;
#X obj 153 433 min 255;
#X obj 14 352 i;
#X obj 91 352 i;
#X obj 157 352 i;
#X obj 23 301 * 255;
#X obj 93 303 * 255;
#X obj 175 303 * 255;
#X obj 43 713 outlet;
#X obj 35 485 moses 16;
#X obj 41 629 pack s s s;
#X obj 171 492 moses 16;
#X obj 327 490 moses 16;
#X obj 335 568 makefilename %X;
#X obj 310 536 makefilename 0%X;
#X obj 18 531 makefilename 0%X;
#X obj 43 563 makefilename %X;
#X obj 154 538 makefilename 0%X;
#X obj 179 570 makefilename %X;
#X msg 41 654 symbol #\$1\$2\$3;
#X connect 0 0 1 0;
#X connect 1 0 2 0;
#X connect 2 0 4 0;
#X connect 3 0 7 0;
#X connect 3 1 8 0;
#X connect 4 0 5 0;
#X connect 4 1 6 0;
#X connect 5 0 3 0;
#X connect 6 0 11 0;
#X connect 7 0 9 0;
#X connect 8 0 10 0;
#X connect 9 0 21 0;
#X connect 10 0 22 0;
#X connect 11 0 23 0;
#X connect 12 0 13 0;
#X connect 13 0 25 0;
#X connect 14 0 15 0;
#X connect 15 0 27 0;
#X connect 16 0 17 0;
#X connect 17 0 28 0;
#X connect 18 0 12 0;
#X connect 19 0 14 0;
#X connect 20 0 16 0;
#X connect 21 0 18 0;
#X connect 22 0 19 0;
#X connect 23 0 20 0;
#X connect 25 0 31 0;
#X connect 25 1 32 0;
#X connect 26 0 35 0;
#X connect 27 0 33 0;
#X connect 27 1 34 0;
#X connect 28 0 30 0;
#X connect 28 1 29 0;
#X connect 29 0 26 2;
#X connect 30 0 26 2;
#X connect 31 0 26 0;
#X connect 32 0 26 0;
#X connect 33 0 26 1;
#X connect 34 0 26 1;
#X connect 35 0 24 0;
#X restore 601 322 pd convert_18_bits_into_HEX;
#N canvas 0 50 719 836 convert_18_bits_into_HEX 0;
#X obj 73 25 inlet;
#X obj 94 89 + 1;
#X obj 94 114 * -1;
#X obj 64 209 t f f;
#X obj 94 139 t f f;
#X obj 64 184 div 64;
#X obj 139 182 mod 64;
#X obj 23 247 div 64;
#X obj 93 249 mod 64;
#X obj 23 272 / 63;
#X obj 93 274 / 63;
#X obj 175 274 / 63;
#X obj 14 381 max 0;
#X obj 10 433 min 255;
#X obj 91 381 max 0;
#X obj 87 433 min 255;
#X obj 157 381 max 0;
#X obj 153 433 min 255;
#X obj 14 352 i;
#X obj 91 352 i;
#X obj 157 352 i;
#X obj 23 301 * 255;
#X obj 93 303 * 255;
#X obj 175 303 * 255;
#X obj 43 713 outlet;
#X obj 35 485 moses 16;
#X obj 41 629 pack s s s;
#X obj 171 492 moses 16;
#X obj 327 490 moses 16;
#X obj 335 568 makefilename %X;
#X obj 310 536 makefilename 0%X;
#X obj 18 531 makefilename 0%X;
#X obj 43 563 makefilename %X;
#X obj 154 538 makefilename 0%X;
#X obj 179 570 makefilename %X;
#X msg 41 654 symbol #\$1\$2\$3;
#X connect 0 0 1 0;
#X connect 1 0 2 0;
#X connect 2 0 4 0;
#X connect 3 0 7 0;
#X connect 3 1 8 0;
#X connect 4 0 5 0;
#X connect 4 1 6 0;
#X connect 5 0 3 0;
#X connect 6 0 11 0;
#X connect 7 0 9 0;
#X connect 8 0 10 0;
#X connect 9 0 21 0;
#X connect 10 0 22 0;
#X connect 11 0 23 0;
#X connect 12 0 13 0;
#X connect 13 0 25 0;
#X connect 14 0 15 0;
#X connect 15 0 27 0;
#X connect 16 0 17 0;
#X connect 17 0 28 0;
#X connect 18 0 12 0;
#X connect 19 0 14 0;
#X connect 20 0 16 0;
#X connect 21 0 18 0;
#X connect 22 0 19 0;
#X connect 23 0 20 0;
#X connect 25 0 31 0;
#X connect 25 1 32 0;
#X connect 26 0 35 0;
#X connect 27 0 33 0;
#X connect 27 1 34 0;
#X connect 28 0 30 0;
#X connect 28 1 29 0;
#X connect 29 0 26 2;
#X connect 30 0 26 2;
#X connect 31 0 26 0;
#X connect 32 0 26 0;
#X connect 33 0 26 1;
#X connect 34 0 26 1;
#X connect 35 0 24 0;
#X restore 642 290 pd convert_18_bits_into_HEX;
#X text 663 257 obsolete since pd 0.52;
#X obj 459 132 unpack s s s;
#X connect 0 0 12 0;
#X connect 0 1 1 0;
#X connect 1 0 2 0;
#X connect 1 1 6 0;
#X connect 2 0 3 0;
#X connect 2 1 16 0;
#X connect 2 2 11 4;
#X connect 3 0 11 2;
#X connect 3 1 15 0;
#X connect 4 1 5 0;
#X connect 5 0 11 0;
#X connect 5 1 11 1;
#X connect 6 1 24 0;
#X connect 7 0 13 0;
#X connect 11 0 17 0;
#X connect 12 0 4 0;
#X connect 13 0 0 0;
#X connect 13 1 14 0;
#X connect 14 0 12 1;
#X connect 15 0 12 1;
#X connect 16 0 11 3;
#X connect 16 1 15 0;
#X connect 17 0 10 0;
#X connect 18 0 20 0;
#X connect 18 1 21 0;
#X connect 18 2 22 0;
#X connect 24 0 11 5;
#X connect 24 1 11 6;
#X connect 24 2 11 7;
#X restore 1095 861 pd nbx;
#X text 849 445 \$7 lin / log;
#X text 853 462 \$8 init ?;
#X connect 0 0 17 0;
#X connect 2 0 3 0;
#X connect 2 1 5 0;
#X connect 2 1 7 0;
#X connect 2 1 9 0;
#X connect 4 0 18 0;
#X connect 8 0 17 0;
#X connect 9 0 19 0;
#X connect 11 0 12 0;
#X connect 12 0 13 0;
#X connect 13 0 36 0;
#X connect 18 0 2 0;
#X connect 19 0 11 0;
#X connect 21 0 29 0;
#X connect 21 1 22 1;
#X connect 22 0 64 0;
#X connect 23 1 21 0;
#X connect 25 0 17 0;
#X connect 26 0 30 0;
#X connect 27 0 31 0;
#X connect 28 0 26 1;
#X connect 28 1 27 1;
#X connect 29 0 26 0;
#X connect 29 1 27 0;
#X connect 29 2 47 1;
#X connect 30 0 46 0;
#X connect 31 0 46 1;
#X connect 32 0 14 0;
#X connect 32 1 15 0;
#X connect 32 1 33 0;
#X connect 32 2 16 0;
#X connect 32 2 33 0;
#X connect 33 0 102 0;
#X connect 33 1 34 0;
#X connect 34 0 30 1;
#X connect 34 1 31 1;
#X connect 36 1 32 0;
#X connect 46 0 47 0;
#X connect 47 0 22 0;
#X connect 50 0 51 1;
#X connect 50 0 52 1;
#X connect 51 0 54 0;
#X connect 52 0 54 1;
#X connect 53 0 51 0;
#X connect 53 1 52 0;
#X connect 56 0 18 0;
#X connect 56 1 25 0;
#X connect 59 0 61 0;
#X connect 59 1 103 0;
#X connect 60 0 61 1;
#X connect 61 0 62 0;
#X connect 62 0 56 0;
#X connect 64 0 113 0;
#X connect 102 0 23 0;
#X connect 103 0 60 0;
#X connect 104 0 110 0;
#X connect 105 0 110 0;
#X connect 106 0 110 0;
#X connect 107 0 108 0;
#X connect 108 0 59 0;
#X connect 109 0 108 1;
#X connect 111 0 110 0;
#X connect 112 0 110 0;
#X connect 113 0 104 0;
#X connect 113 1 105 0;
#X connect 113 2 106 0;
#X connect 113 3 111 0;
#X connect 113 4 112 0;
#X connect 113 5 114 0;
#X connect 113 6 115 0;
#X connect 114 0 110 0;
#X connect 115 0 110 0;
