#N canvas 0 32 956 991 12;
#X obj 199 156 list prepend dispatch \$6;
#X text 94 45 demande;
#X obj 503 114 r \$0-midi_map_status;
#X obj 464 203 route -1;
#X obj 429 144 list append;
#X obj 198 81 t b b;
#N canvas 0 32 956 991 midi_mapping 0;
#X obj 579 77 spigot;
#X obj 646 128 v MIDI_CHANNEL;
#X obj 617 154 v MIDI_MAP_NUM;
#X obj 564 183 v MIDI_MAP_TYPE;
#X obj 578 227 pack f f f;
#X text 732 187 -1 error;
#X text 820 185 0 ctl;
#X text 879 185 1 note;
#X text 956 185 2 keyboard (azerty);
#X text 1116 186 3 macro;
#X msg 523 181 0;
#X msg 792 598 clear;
#X obj 703 705 s pd-\$0-midi_listener;
#N canvas 15 715 1375 300 \$0-midi_listener 0;
#X restore 1182 62 pd \$0-midi_listener;
#X obj 1184 325 / 127;
#X obj 1172 714 -;
#X obj 1175 629 t f f;
#X msg 1147 768 set \$1;
#X obj 1179 740 + \$4;
#X msg 525 207 1;
#X obj 1165 667 * \$5;
#X obj 1206 668 * \$4;
#X obj 1183 182 spigot 1;
#X obj 1351 112 r MIDI_LEARN;
#X obj 1353 139 == 0;
#X obj 1183 95 r \$0-receive_from_listener;
#X text 633 628 TODO : comment créer plusieurs listeners ?;
#X obj 1016 54 f \$0;
#X floatatom 1016 79 5 0 0 0 - - - 0;
#X obj 1019 30 bng 15 250 50 0 empty empty empty 17 7 0 10 #fcfcfc #000000 #000000;
#X obj 393 717 list append;
#X obj 396 678 symbol \$8;
#X obj 406 648 spigot;
#X obj 453 614 list split 1;
#X obj 340 617 select 0 1;
#X msg 311 742 label \$1;
#X obj 311 717 symbol \$8;
#X msg 393 742 label \$1\$2;
#N canvas 454 583 450 276 MIDI_LEARN_mode_colors 0;
#X obj 77 56 select 0 1;
#X obj 28 202 list append color \$9 \$10 \$11;
#X obj 28 227 list trim;
#X msg 86 168 color #FFCCAA -1 -1;
#X obj 302 72 r \$0-is_mapped;
#X obj 102 101 f;
#X obj 94 135 select 0 1;
#X msg 259 166 color #DDAA88 -1 -1;
#X obj 31 255 s \$2-\$7;
#X obj 78 25 r MIDI_LEARN;
#X connect 0 0 1 0;
#X connect 0 1 5 0;
#X connect 1 0 2 0;
#X connect 2 0 8 0;
#X connect 3 0 8 0;
#X connect 4 0 5 1;
#X connect 5 0 6 0;
#X connect 6 0 3 0;
#X connect 6 1 7 0;
#X connect 7 0 8 0;
#X connect 9 0 0 0;
#X restore 42 21 pd MIDI_LEARN_mode_colors;
#X obj 497 654 s \$0-is_mapped;
#N canvas 1 12 958 1018 MAP_FROM_mode_colors 0;
#X obj 395 196 select 0 1;
#X obj 359 264 list append color \$9 \$10 \$11;
#X obj 359 289 list trim;
#X msg 417 230 color #AAFFAA -1 -1;
#X obj 451 81 r \$0-is_mapped;
#X obj 413 105 spigot;
#X obj 289 183 spigot;
#X obj 287 214 s \$0-map_from;
#X obj 168 240 r \$0-map_from;
#X obj 97 246 spigot;
#X obj 19 99 select 0 1;
#X obj 178 91 r \$0-is_mapped;
#X obj 9 367 s \$2-\$7;
#X obj 286 142 r \$2-\$6;
#X obj 362 317 s \$2-\$7;
#X obj 97 282 f \$4;
#X msg 96 312 set \$1;
#X msg 21 269 set \$1;
#X obj 21 245 f;
#X obj 46 163 v \$2-\$6;
#X obj 42 123 t b b;
#X obj 229 31 r MIDI_MAP_FROM;
#X connect 0 0 1 0;
#X connect 0 1 3 0;
#X connect 1 0 2 0;
#X connect 2 0 14 0;
#X connect 3 0 14 0;
#X connect 4 0 5 1;
#X connect 5 0 0 0;
#X connect 5 0 6 1;
#X connect 6 0 7 0;
#X connect 6 0 18 1;
#X connect 8 0 15 1;
#X connect 9 0 15 0;
#X connect 10 0 18 0;
#X connect 10 1 20 0;
#X connect 11 0 9 1;
#X connect 13 0 6 0;
#X connect 15 0 16 0;
#X connect 16 0 12 0;
#X connect 17 0 12 0;
#X connect 18 0 17 0;
#X connect 19 0 18 1;
#X connect 20 0 19 0;
#X connect 20 1 9 0;
#X connect 21 0 10 0;
#X connect 21 0 5 0;
#X restore 41 61 pd MAP_FROM_mode_colors;
#N canvas 1 130 1483 900 MAP_TO_mode_colors 0;
#X obj 544 133 select 0 1;
#X obj 511 199 list append color \$9 \$10 \$11;
#X obj 511 224 list trim;
#X msg 569 165 color #AAFFFF -1 -1;
#X obj 702 74 r \$0-is_mapped;
#X obj 552 103 spigot;
#X obj 408 156 spigot;
#X obj 406 187 s \$0-map_to;
#X obj 110 156 spigot;
#X obj 38 58 select 0 1;
#X obj 163 63 r \$0-is_mapped;
#X obj 234 132 r \$0-map_to;
#X obj 23 299 s \$2-\$7;
#X obj 514 252 s \$2-\$7;
#X obj 405 115 r \$2-\$6;
#X obj 87 93 t b b;
#X msg 24 206 set \$1;
#X obj 24 182 f;
#X obj 41 137 v \$2-\$6;
#X obj 105 190 f \$5;
#X msg 101 227 set \$1;
#X obj 325 14 r MIDI_MAP_TO;
#X connect 0 0 1 0;
#X connect 0 1 3 0;
#X connect 1 0 2 0;
#X connect 2 0 13 0;
#X connect 3 0 13 0;
#X connect 4 0 5 1;
#X connect 5 0 0 0;
#X connect 5 0 6 1;
#X connect 6 0 7 0;
#X connect 6 0 17 1;
#X connect 8 0 19 0;
#X connect 9 0 17 0;
#X connect 9 1 15 0;
#X connect 10 0 8 1;
#X connect 11 0 19 1;
#X connect 14 0 6 0;
#X connect 15 0 18 0;
#X connect 15 1 8 0;
#X connect 16 0 12 0;
#X connect 17 0 16 0;
#X connect 18 0 17 1;
#X connect 19 0 20 0;
#X connect 20 0 12 0;
#X connect 21 0 9 0;
#X connect 21 0 5 0;
#X restore 42 101 pd MAP_TO_mode_colors;
#X obj 1274 635 r \$0-map_from;
#X obj 1191 579 r \$0-map_to;
#X obj 1345 170 r MIDI_MAP_FROM;
#X obj 1341 238 r MIDI_MAP_TO;
#X obj 1185 219 spigot 1;
#X obj 1345 195 == 0;
#X obj 1184 283 spigot 1;
#X obj 1341 263 == 0;
#X obj 175 214 list split 3;
#X obj 78 339 s \$0-map_from;
#X obj 187 340 s \$0-map_to;
#X obj 343 344 s \$0-map_scale;
#X msg 1176 374 lin \$1;
#X obj 1014 319 r \$0-map_scale;
#X msg 1013 346 set \$1 \, adddollar 1;
#X msg 284 320 symbol lin;
#X obj 175 189 r \$2-mapping_\$6;
#X obj 310 774 s \$2-\$7;
#X obj 1147 818 s \$2-\$7;
#X obj 1236 819 s \$2-\$6;
#X obj 527 26 r \$2-\$6;
#X obj 544 439 t b l;
#X obj 472 464 delay 10;
#X obj 589 315 s \$0-midi_map_status;
#X obj 558 276 t l l;
#X obj 579 102 t b b b b;
#X obj 555 400 t l b;
#X obj 513 770 tgl 15 0 empty empty empty 17 7 0 10 #fcfcfc #000000 #000000 0 1;
#X obj 547 522 create_event_listener;
#X obj 394 126 s MIDI_LEARN_OK;
#X obj 1440 304 loadbang;
#X obj 1440 401 f \$5;
#X obj 1440 471 / \$4;
#X obj 1414 529 *;
#X obj 1440 500 log;
#X obj 1414 558 exp;
#X obj 1414 587 * \$4;
#X obj 1414 616 t f f;
#X obj 1470 336 r \$0-map_to;
#X obj 1605 337 r \$0-map_from;
#X obj 1501 371 t b f;
#X obj 1177 411 route lin log;
#X obj 910 264 loadbang;
#X obj 910 314 select 0;
#X obj 910 289 list append \$12;
#X msg 902 354 symbol lin;
#X floatatom 1437 661 5 0 0 0 - - - 12;
#X floatatom 1229 604 5 0 0 0 - - - 12;
#X floatatom 1308 658 5 0 0 0 - - - 12;
#X msg 357 209 0 1 1;
#X obj 548 496 list append;
#X floatatom 1605 362 5 0 0 0 - - - 0;
#X floatatom 1470 361 5 0 0 0 - - - 0;
#X obj 555 370 list append \$12;
#X obj 556 340 list append \$0 \$4 \$5;
#X obj 192 255 list split 2;
#X obj 284 291 select 0;
#X obj 170 296 unpack f f;
#X obj 650 49 r MIDI_LEARN;
#X connect 0 0 67 0;
#X connect 1 0 4 2;
#X connect 2 0 4 1;
#X connect 3 0 4 0;
#X connect 4 0 66 0;
#X connect 10 0 4 0;
#X connect 11 0 12 0;
#X connect 14 0 54 0;
#X connect 15 0 18 0;
#X connect 16 0 20 0;
#X connect 16 1 21 0;
#X connect 17 0 60 0;
#X connect 18 0 17 0;
#X connect 18 0 61 0;
#X connect 19 0 4 0;
#X connect 20 0 15 0;
#X connect 21 0 15 1;
#X connect 22 0 46 0;
#X connect 23 0 24 0;
#X connect 24 0 22 1;
#X connect 25 0 22 0;
#X connect 27 0 28 0;
#X connect 29 0 27 0;
#X connect 30 0 37 0;
#X connect 31 0 30 0;
#X connect 32 0 31 0;
#X connect 33 0 32 1;
#X connect 33 0 39 0;
#X connect 33 0 69 0;
#X connect 33 1 30 1;
#X connect 34 0 36 0;
#X connect 34 1 32 0;
#X connect 35 0 59 0;
#X connect 36 0 35 0;
#X connect 37 0 59 0;
#X connect 42 0 21 1;
#X connect 42 0 18 1;
#X connect 42 0 90 0;
#X connect 43 0 20 1;
#X connect 43 0 89 0;
#X connect 44 0 47 0;
#X connect 45 0 49 0;
#X connect 46 0 48 0;
#X connect 47 0 46 1;
#X connect 48 0 14 0;
#X connect 49 0 48 1;
#X connect 50 0 66 0;
#X connect 50 1 97 0;
#X connect 54 0 83 0;
#X connect 55 0 56 0;
#X connect 56 0 54 0;
#X connect 57 0 53 0;
#X connect 58 0 50 0;
#X connect 62 0 0 0;
#X connect 63 0 64 0;
#X connect 63 1 92 1;
#X connect 64 0 92 0;
#X connect 66 0 96 0;
#X connect 66 1 65 0;
#X connect 67 0 71 0;
#X connect 67 1 3 0;
#X connect 67 2 2 0;
#X connect 67 3 1 0;
#X connect 68 0 63 0;
#X connect 68 1 11 0;
#X connect 70 0 33 0;
#X connect 70 1 12 0;
#X connect 72 0 73 0;
#X connect 73 0 74 0;
#X connect 74 0 76 0;
#X connect 75 0 77 0;
#X connect 76 0 75 1;
#X connect 77 0 78 0;
#X connect 78 0 79 0;
#X connect 79 0 17 0;
#X connect 79 1 61 0;
#X connect 79 1 88 0;
#X connect 80 0 73 0;
#X connect 80 0 94 0;
#X connect 81 0 78 1;
#X connect 81 0 82 0;
#X connect 81 0 93 0;
#X connect 82 0 73 0;
#X connect 82 1 74 1;
#X connect 83 0 16 0;
#X connect 83 1 75 0;
#X connect 84 0 86 0;
#X connect 85 0 87 0;
#X connect 85 1 56 0;
#X connect 86 0 85 0;
#X connect 87 0 56 0;
#X connect 87 0 95 1;
#X connect 91 0 66 0;
#X connect 92 0 70 0;
#X connect 95 0 68 0;
#X connect 96 0 95 0;
#X connect 97 0 99 0;
#X connect 97 1 98 0;
#X connect 98 0 57 0;
#X connect 98 1 53 0;
#X connect 99 0 51 0;
#X connect 99 1 52 0;
#X connect 100 0 0 1;
#X connect 100 0 34 0;
#X restore 517 35 pd midi_mapping;
#X msg 47 388 set \$1;
#X obj 600 204 r \$0-map_from;
#X obj 631 244 r \$0-map_to;
#X obj 644 267 r \$0-map_scale;
#X obj 197 54 r \$2-save_state;
#X obj 46 350 r \$2-dispatch_\$6;
#X obj 47 413 s \$2-\$7;
#X obj 146 414 s \$2-\$6;
#X obj 524 354 s \$2-dump_state;
#X obj 199 209 s \$2-dump_state;
#X obj 199 106 v \$2-\$6;
#X obj 329 113 spigot;
#X obj 367 84 r \$0-is_mapped;
#X obj 281 237 r \$2-\$6;
#X obj 210 487 s \$2-save-s?;
#X obj 524 325 list prepend mapping \$6-\$3 \$6;
#X obj 514 243 list append \$4;
#X obj 524 275 list append \$5;
#X obj 524 300 list append lin;
#X obj 818 198 loadbang;
#X obj 818 248 select 0;
#X obj 818 223 list append \$12;
#X obj 245 275 t b f;
#N canvas 0 50 450 300 AUTOMATONISM_UNDO 1;
#X obj 121 77 inlet;
#X text 252 66 undo mechanism;
#X obj 322 338 list append;
#X obj 253 282 select 0;
#X obj 253 231 spigot 0;
#X msg 307 206 1;
#X obj 252 378 list append;
#X obj 253 317 t b b b;
#X msg 343 203 0;
#X obj 187 188 spigot;
#X obj 187 214 t f b;
#X obj 171 164 change;
#X obj 252 405 list prepend \$2-\$7;
#X obj 252 431 s \$2-AUTOMATONISM_UNDO;
#X obj 113 258 spigot 1;
#X obj 113 284 t f b;
#X msg 146 220 0;
#X obj 253 126 r GUI_MOUSE_FOR_UNDO;
#X obj 457 305 r \$2-\$7;
#X obj 457 331 route float;
#X connect 0 0 11 0;
#X connect 0 0 14 0;
#X connect 2 0 6 1;
#X connect 3 0 7 0;
#X connect 4 0 3 0;
#X connect 5 0 4 1;
#X connect 6 0 12 0;
#X connect 7 0 2 0;
#X connect 7 1 6 0;
#X connect 7 2 8 0;
#X connect 8 0 4 1;
#X connect 9 0 10 0;
#X connect 10 0 2 1;
#X connect 10 1 5 0;
#X connect 11 0 9 0;
#X connect 12 0 13 0;
#X connect 14 0 15 0;
#X connect 15 0 6 1;
#X connect 15 1 16 0;
#X connect 16 0 14 1;
#X connect 17 0 9 1;
#X connect 17 0 4 0;
#X connect 18 0 19 0;
#X connect 19 0 6 1;
#X restore 281 354 pd AUTOMATONISM_UNDO;
#X connect 0 0 16 0;
#X connect 2 0 4 1;
#X connect 3 1 23 0;
#X connect 4 0 3 0;
#X connect 5 0 17 0;
#X connect 5 1 18 0;
#X connect 7 0 13 0;
#X connect 8 0 23 1;
#X connect 9 0 24 1;
#X connect 10 0 25 1;
#X connect 11 0 5 0;
#X connect 12 0 7 0;
#X connect 12 0 14 0;
#X connect 17 0 0 0;
#X connect 18 0 4 0;
#X connect 19 0 18 1;
#X connect 20 0 29 0;
#X connect 22 0 15 0;
#X connect 23 0 24 0;
#X connect 24 0 25 0;
#X connect 25 0 22 0;
#X connect 26 0 28 0;
#X connect 27 1 25 1;
#X connect 28 0 27 0;
#X connect 29 0 21 0;
#X connect 29 1 30 0;
