#N canvas 0 32 1920 994 12;
#X obj 56 138 / 127;
#X obj 57 115 spigot;
#X obj 132 80 == 1;
#X obj 132 54 r \$2-plugin_type-s;
#X text 170 136 Receive value from pd and send to DAW;
#X text 363 449 Receive value from DAW and send to pd, f 44;
#X obj 191 420 r gui;
#X obj 191 450 route mouse;
#X obj 389 738 t f f;
#X obj 393 617 change -1e+37;
#X msg 420 768 set \$1;
#X obj 397 651 * 127;
#X obj 496 560 == 1;
#X obj 393 584 spigot;
#N canvas 0 0 450 300 \$0-r_param\$3 0;
#X obj 10 10 r ParametreUno;
#X obj 10 40 s 1185-param1;
#X connect 0 0 1 0;
#X restore 381 514 pd \$0-r_param\$3;
#X obj 386 546 r \$0-param\$3;
#X obj 494 534 r \$2-plugin_type-s;
#X obj 159 390 s pd-\$0-r_param\$3;
#X text 444 22 \$1 : macro instance number;
#X text 454 49 \$2 : parent \$0;
#X text 446 84 \$3 : macro widget number;
#X text 174 84 filter camomille / plugdata;
#X text 554 563 filter camomille / plugdata;
#X text 378 489 dynamic-settable receiver;
#X obj 44 17 receive \$2-macro\$3-value-gui-s;
#X obj 330 204 s \$2-macro\$3-value-s;
#X obj 421 799 s \$2-macro\$3-value-gui-r;
#X obj 394 838 send \$2-macro\$3-value-s;
#X obj 133 254 r \$2-macro\$3-name-s;
#X obj 162 315 pack s \$0 \$3;
#X msg 165 340 clear \, obj 10 10 r \$1 \, obj 10 40 s \$2-param\$3 \, connect 0 0 1 0;
#X obj 59 314 pack f s;
#X obj 133 283 t s s;
#X obj 66 665 s __param;
#X obj 115 572 pack f s;
#X msg 115 598 list \$2 change \$1;
#X msg 121 420 1;
#X obj 75 357 t l b b;
#X obj 114 532 change;
#X msg 6 405 list \$2 float \$1;
#X obj 191 511 spigot;
#X obj 81 478 delay 100;
#X obj 266 496 select 1;
#X msg 266 548 stop;
#X msg 77 509 0;
#X obj 868 72 r \$2-macro\$3-name-s;
#X obj 815 115 list append;
#X obj 815 141 route 0 1;
#X obj 762 181 list append destroy;
#X obj 895 181 list append create;
#X obj 826 221 s __param;
#X obj 713 72 r \$2-macro\$3-enable-s;
#X obj 781 352 spigot;
#X obj 891 297 symbol <empty>;
#X obj 879 264 t s b s;
#X obj 888 359 symbol;
#X obj 888 385 select <empty>;
#X obj 785 400 t s b;
#X obj 863 481 s __param;
#X text 738 22 création / dés/activation / substitution de paramaetre dans DAW;
#X msg 939 444 list \$1 destroy;
#X msg 782 450 list \$1 create;
#X obj 266 522 delay 10;
#X connect 0 0 31 0;
#X connect 1 0 0 0;
#X connect 2 0 1 1;
#X connect 3 0 2 0;
#X connect 6 0 7 0;
#X connect 7 0 40 0;
#X connect 7 0 42 0;
#X connect 8 0 27 0;
#X connect 8 1 10 0;
#X connect 9 0 11 0;
#X connect 10 0 26 0;
#X connect 11 0 8 0;
#X connect 12 0 13 1;
#X connect 13 0 9 0;
#X connect 15 0 13 0;
#X connect 16 0 12 0;
#X connect 24 0 1 0;
#X connect 24 0 25 0;
#X connect 28 0 32 0;
#X connect 29 0 30 0;
#X connect 30 0 17 0;
#X connect 31 0 37 0;
#X connect 32 0 31 1;
#X connect 32 0 34 1;
#X connect 32 1 29 0;
#X connect 34 0 35 0;
#X connect 35 0 33 0;
#X connect 36 0 38 0;
#X connect 37 0 39 0;
#X connect 37 2 36 0;
#X connect 38 0 34 0;
#X connect 38 0 40 1;
#X connect 39 0 33 0;
#X connect 40 0 38 0;
#X connect 41 0 44 0;
#X connect 42 0 62 0;
#X connect 43 0 41 0;
#X connect 44 0 38 0;
#X connect 45 0 46 1;
#X connect 45 0 52 0;
#X connect 45 0 54 0;
#X connect 46 0 47 0;
#X connect 47 0 48 0;
#X connect 47 1 49 0;
#X connect 48 0 50 0;
#X connect 49 0 50 0;
#X connect 51 0 46 0;
#X connect 51 0 52 1;
#X connect 52 0 57 0;
#X connect 53 0 55 1;
#X connect 54 0 53 1;
#X connect 54 1 53 0;
#X connect 55 0 56 0;
#X connect 56 1 60 0;
#X connect 57 0 61 0;
#X connect 57 1 55 0;
#X connect 60 0 58 0;
#X connect 61 0 58 0;
#X connect 62 0 43 0;
