#N canvas 0 32 1920 994 12;
#X obj 56 138 / 127;
#X obj 59 416 s param;
#X obj 57 115 spigot;
#X obj 132 80 == 1;
#X obj 132 54 r \$2-plugin_type-s;
#X obj 813 214 s param_change, f 15;
#X obj 813 176 list prepend \$1;
#X text 170 136 Receive value from pd and send to DAW;
#X text 363 449 Receive value from DAW and send to pd, f 44;
#X text 775 87 Receive param changing state from pd and send to DAW;
#X obj 813 284 r gui;
#X obj 813 314 route mouse;
#X obj 811 385 s \$0-param-change;
#X obj 812 146 r \$0-param-change;
#X obj 389 738 t f f;
#X obj 393 617 change -1e+37;
#X msg 420 768 set \$1;
#X obj 397 651 * 127;
#X obj 496 560 == 1;
#X obj 393 584 spigot;
#N canvas 0 0 450 300 \$0-r_param\$3 0;
#X obj 10 10 r param5;
#X obj 10 40 s 1152-param1;
#X connect 0 0 1 0;
#X restore 381 514 pd \$0-r_param\$3;
#X obj 386 546 r \$0-param\$3;
#X obj 494 534 r \$2-plugin_type-s;
#X obj 159 390 s pd-\$0-r_param\$3;
#X text 444 22 \$1 : macro instance number;
#X text 454 49 \$2 : parent \$0;
#X text 446 84 \$3 : macro widget number;
#X text 174 84 filter camomille / plugdata;
#X text 554 563 filter camomille / plugdata;
#X text 378 489 dynamic-settable receiver;
#X text 872 270 automatically send DAW parameter state changes when GUI objects are interacted with, f 45;
#X obj 44 17 receive \$2-macro\$3-value-gui-s;
#X obj 330 204 s \$2-macro\$3-value-s;
#X obj 421 799 s \$2-macro\$3-value-gui-r;
#X obj 394 838 send \$2-macro\$3-value-s;
#X obj 133 254 r \$2-macro\$3-name-s;
#X obj 162 315 pack s \$0 \$3;
#X msg 165 340 clear \, obj 10 10 r \$1 \, obj 10 40 s \$2-param\$3 \, connect 0 0 1 0;
#X obj 59 314 pack f s;
#X msg 59 345 list \$2 \$1;
#X obj 133 283 t s s;
#X connect 0 0 38 0;
#X connect 2 0 0 0;
#X connect 3 0 2 1;
#X connect 4 0 3 0;
#X connect 10 0 11 0;
#X connect 13 0 6 0;
#X connect 14 0 34 0;
#X connect 14 1 16 0;
#X connect 15 0 17 0;
#X connect 16 0 33 0;
#X connect 17 0 14 0;
#X connect 18 0 19 1;
#X connect 19 0 15 0;
#X connect 21 0 19 0;
#X connect 22 0 18 0;
#X connect 31 0 2 0;
#X connect 31 0 32 0;
#X connect 35 0 40 0;
#X connect 36 0 37 0;
#X connect 37 0 23 0;
#X connect 38 0 39 0;
#X connect 39 0 1 0;
#X connect 40 0 38 1;
#X connect 40 1 36 0;
