#N canvas 0 57 1920 1023 12;
#X obj 77 56 select 0 1;
#X obj 28 227 list trim;
#X msg 86 168 color #FFCCAA -1 -1;
#X obj 102 101 f;
#X obj 94 135 select 0 1;
#X msg 259 166 color #DDAA88 -1 -1;
#X obj 78 -2 inlet;
#X obj 646 43 inlet;
#X obj 577 240 list append;
#X obj 590 171 spigot;
#X obj 524 140 select 0 1;
#X msg 495 265 label \$1;
#X msg 577 265 label \$1\$2;
#X obj 436 230 makefilename %d;
#X obj 438 199 route float symbol;
#X obj 77 28 t f f;
#X obj 107 320 outlet;
#X obj 28 202 list append color \$2 \$3 \$4;
#X obj 438 174 list append \$1;
#X obj 580 201 list append \$1;
#X obj 627 82 list split 1;
#X connect 0 0 17 0;
#X connect 0 1 3 0;
#X connect 1 0 16 0;
#X connect 2 0 16 0;
#X connect 3 0 4 0;
#X connect 4 0 2 0;
#X connect 4 1 5 0;
#X connect 5 0 16 0;
#X connect 6 0 15 0;
#X connect 7 0 20 0;
#X connect 8 0 12 0;
#X connect 9 0 19 0;
#X connect 10 0 18 0;
#X connect 10 1 9 0;
#X connect 11 0 16 0;
#X connect 12 0 16 0;
#X connect 13 0 11 0;
#X connect 14 0 13 0;
#X connect 14 1 11 0;
#X connect 15 0 0 0;
#X connect 15 1 10 0;
#X connect 17 0 1 0;
#X connect 18 0 14 0;
#X connect 19 0 8 0;
#X connect 20 0 3 1;
#X connect 20 0 9 1;
#X connect 20 1 8 1;
