#N canvas 632 90 1920 1023 12;
#X msg 64 84 bang;
#X obj 64 151 t b b b;
#X obj 162 257 + 1;
#X obj 262 102 delay 250;
#X obj 262 124 t b b;
#X msg 373 54 0;
#X obj 64 387 t b b;
#X msg 63 622 loadbang;
#X obj 64 462 delay 100;
#X msg 373 143 editmode 1;
#X obj 373 32 r \$1-reset!;
#X obj 65 658 s pd-\$3.pd;
#X obj 64 17 r \$1-create-\$3!;
#X obj 85 194 symbol \$3;
#X obj 91 411 s SAVE-S;
#X obj 371 86 v \$3-ID;
#X obj 162 230 v \$3-ID;
#X obj 201 258 r \$1-coords;
#X obj 201 283 unpack f f;
#X obj 83 312 pack s f 200 200;
#X msg 83 341 obj \$3 \$4 \$1 \$2;
#X msg 261 197 0;
#X obj 261 222 s \$1-modules_menu_opened;
#X obj 153 483 list prepend \$3;
#X obj 138 568 s;
#X msg 153 508 symbol \$1-\$2-loadbang;
#X obj 279 629 print dynamic_bang_to:;
#X obj 276 562 list append;
#X obj 64 118 delay 10;
#X obj 64 269 delay 10;
#X obj 113 366 s \$1-target_patch;
#X connect 0 0 3 0 empty;
#X connect 0 0 28 0 empty;
#X connect 1 0 29 0 empty;
#X connect 1 1 13 0 empty;
#X connect 1 2 16 0 empty;
#X connect 2 0 19 1 empty;
#X connect 2 0 23 0 empty;
#X connect 3 0 4 0 empty;
#X connect 4 0 21 0 empty;
#X connect 4 1 9 0 empty;
#X connect 5 0 15 0 empty;
#X connect 6 0 8 0 empty;
#X connect 6 1 14 0 empty;
#X connect 7 0 11 0 empty;
#X connect 8 0 24 0 empty;
#X connect 8 0 27 0 empty;
#X connect 10 0 5 0 empty;
#X connect 12 0 0 0 empty;
#X connect 13 0 19 0 empty;
#X connect 16 0 2 0 empty;
#X connect 17 0 18 0 empty;
#X connect 18 0 19 2 empty;
#X connect 18 1 19 3 empty;
#X connect 19 0 20 0 empty;
#X connect 20 0 30 0 empty;
#X connect 21 0 22 0 empty;
#X connect 23 0 25 0 empty;
#X connect 25 0 24 1 empty;
#X connect 25 0 27 1 empty;
#X connect 27 0 26 0 empty;
#X connect 28 0 1 0 empty;
#X connect 29 0 6 0 empty;
