#N canvas 719 621 450 300 12;
#X obj 124 234 random;
#X obj 232 335 f;
#X obj 232 368 +;
#X obj 257 166 random 2;
#X obj 124 275 t f f;
#X obj 124 351 t b f;
#X obj 124 297 *;
#X obj 257 188 sel 0 1;
#X msg 257 280 -1;
#X msg 335 280 1;
#X obj 124 149 t b b b;
#X obj 123 12 r NUDGE!;
#X obj 157 193 r NUDGE-RANGE;
#X obj 247 308 inlet;
#X obj 232 397 outlet;
#X obj 124 96 spigot;
#X obj 185 79 r parameters2-s;
#N canvas 0 0 624 658 check-scope 0;
#X obj 17 9 inlet;
#X obj 16 301 outlet;
#X obj 121 256 ==;
#X obj 15 264 spigot 1;
#X obj 117 141 t f f;
#X obj 66 108 select 0;
#X msg 66 133 1;
#X floatatom 121 281 5 0 0 0 - - - 0;
#X obj 66 74 r ACTIVE_DOLLARZERO;
#X obj 164 178 loadbang;
#X obj 164 203 v ACTIVE_DOLLARZERO;
#X connect 0 0 3 0;
#X connect 2 0 3 1;
#X connect 2 0 7 0;
#X connect 3 0 1 0;
#X connect 4 0 2 0;
#X connect 5 0 6 0;
#X connect 5 1 4 0;
#X connect 6 0 3 1;
#X connect 8 0 5 0;
#X connect 9 0 10 0;
#X connect 10 0 2 1;
#X restore 121 42 pd check-scope;
#X connect 0 0 4 0;
#X connect 1 0 2 0;
#X connect 2 0 14 0;
#X connect 3 0 7 0;
#X connect 4 0 6 0;
#X connect 5 0 2 0;
#X connect 5 1 2 1;
#X connect 6 0 5 0;
#X connect 7 0 8 0;
#X connect 7 1 9 0;
#X connect 8 0 6 1;
#X connect 9 0 6 1;
#X connect 10 0 0 0;
#X connect 10 1 1 0;
#X connect 10 2 3 0;
#X connect 11 0 17 0;
#X connect 12 0 0 1;
#X connect 13 0 1 1;
#X connect 15 0 10 0;
#X connect 16 0 15 1;
#X connect 17 0 15 0;
