#N canvas 1468 682 450 300 12;
#X obj 16 301 outlet;
#X obj 121 256 ==;
#X obj 15 264 spigot 1;
#X obj 117 141 t f f;
#X obj 66 108 select 0;
#X msg 66 133 1;
#X obj 66 74 r ACTIVE_DOLLARZERO;
#X obj 164 178 loadbang;
#X obj 164 203 v ACTIVE_DOLLARZERO;
#X obj 17 9 r \$1;
#X text 72 41 receive on ACTIVE_DOLLARZERO condition;
#X connect 1 0 2 1;
#X connect 2 0 0 0;
#X connect 3 0 1 0;
#X connect 4 0 5 0;
#X connect 4 1 3 0;
#X connect 5 0 2 1;
#X connect 6 0 4 0;
#X connect 7 0 8 0;
#X connect 8 0 1 1;
#X connect 9 0 2 0;
