#N canvas 1028 484 629 386 12;
#X obj 16 301 outlet;
#X obj 131 256 ==;
#X obj 25 264 spigot 1;
#X obj 76 108 select 0;
#X msg 76 133 1;
#X obj 76 74 r ACTIVE_DOLLARZERO;
#X obj 188 112 loadbang;
#X obj 188 137 v ACTIVE_DOLLARZERO;
#X obj 17 9 r \$1;
#X text 82 41 receive on ACTIVE_DOLLARZERO condition;
#X obj 91 178 list prepend;
#X obj 98 201 route 0;
#X msg 98 233 1;
#X obj 414 33 loadbang;
#X obj 424 116 print AUTOMATONISM-WARNING;
#X msg 414 57 r_ obsolete : replace with r;
#X connect 1 0 2 1;
#X connect 2 0 0 0;
#X connect 3 0 4 0;
#X connect 3 1 10 0;
#X connect 4 0 2 1;
#X connect 5 0 3 0;
#X connect 6 0 7 0;
#X connect 7 0 10 1;
#X connect 8 0 0 0;
#X connect 10 0 11 0;
#X connect 11 0 12 0;
#X connect 11 1 1 0;
#X connect 12 0 2 1;
#X connect 13 0 15 0;
#X connect 15 0 14 0;
