#N canvas 378 21 1218 1026 16;
#X declare -path reloaded;
#X obj 90 11 inlet;
#X obj 442 19 inlet;
#X obj 487 976 outlet;
#X text 200 19 saved data;
#X obj 94 418 list trim;
#X obj 92 444 route mapping dispatch preset;
#X obj 98 520 list split 1;
#X obj 92 589 list append;
#X obj 127 692 s;
#X msg 163 648 symbol \$2-mapping_\$1;
#X obj 92 551 t b s;
#X text 497 18 savebang;
#X obj 93 141 loadbang;
#X obj 94 250 delay 10;
#X msg 94 344 line 0 \, bang;
#X obj 456 604 list split 1;
#X obj 450 673 list append;
#X obj 485 776 s;
#X obj 450 635 t b s;
#X msg 521 732 symbol \$2-dispatch_\$1;
#X obj 898 81 declare -path reloaded;
#N canvas 0 0 450 300 check-module-ID 0;
#X obj 105 44 inlet;
#X obj 96 139 f \$3;
#X obj 96 192 moses;
#X obj 168 137 v \$1-ID;
#X obj 154 235 v \$1-ID;
#X obj 107 87 t b b;
#X connect 0 0 5 0;
#X connect 1 0 2 0;
#X connect 2 1 4 0;
#X connect 3 0 2 1;
#X connect 5 0 1 0;
#X connect 5 1 3 0;
#X restore 145 219 pd check-module-ID;
#X obj 146 736 r \$2-dump_state;
#X obj 521 703 pack s \$2;
#X obj 442 146 s \$2-save_state;
#X obj 163 619 pack s \$2;
#X msg 705 305 loadbang;
#X obj 705 177 r \$1-\$3-loadbang;
#X obj 705 272 spigot 1;
#X msg 780 238 0;
#X obj 778 211 loadbang;
#X msg 797 690 line 0 \, bang;
#X obj 796 756 list trim;
#X obj 796 785 route preset;
#X obj 796 816 list prepend preset;
#X text 951 683 backup preset data if they exist;
#X obj 94 182 t b b;
#X text 100 480 load midi_mappings;
#X text 458 560 load parameters;
#X obj 365 216 text define \$2-savestate_data;
#X obj 90 41 text insert \$2-savestate_data;
#X obj 97 382 text sequence \$2-savestate_data;
#X obj 796 727 text sequence \$2-savestate_data;
#X obj 146 784 list trim;
#X obj 145 815 route dispatch;
#X obj 487 944 list;
#X text 94 842 filter out dispatch data, f 11;
#X text 818 35 from camomile plugin;
#X obj 488 913 route 0 1;
#X obj 516 117 s \$0-dump_mode;
#X obj 487 881 list prepend 0;
#X obj 622 788 r \$0-dump_mode;
#X text 113 977 send current_data to savestate inlet;
#X obj 443 85 t b b f;
#X msg 444 54 0;
#X msg 642 58 1;
#X obj 810 892 list prepend save \$1-\$3;
#X obj 810 921 list trim;
#X obj 810 950 s camomile;
#X text 929 928 save in DAW through camomile plugin;
#X text 874 176 forward loadbang to parent, f 9;
#N canvas 0 50 756 723 camomile.load 0;
#X obj 96 101 r camomile.load-\$1-\$3;
#X obj 149 167 spigot 1;
#X obj 149 196 t b b;
#X msg 249 150 0;
#X msg 162 229 clear;
#X obj 103 227 list;
#X obj 96 130 t b a b;
#X obj 104 274 text insert \$2-savestate_data;
#X obj 234 324 outlet;
#X obj 40 320 delay 10;
#X obj 36 389 outlet;
#X text 68 417 done;
#X obj 38 355 t b b;
#X msg 109 354 1;
#X text 44 33 feeding [text \$2-savestate_data] with dumped data from camomile plugin host;
#X connect 0 0 6 0;
#X connect 1 0 2 0;
#X connect 2 0 4 0;
#X connect 2 1 3 0;
#X connect 3 0 1 1;
#X connect 4 0 8 0;
#X connect 5 0 7 0;
#X connect 6 0 9 0;
#X connect 6 1 5 0;
#X connect 6 2 1 0;
#X connect 9 0 12 0;
#X connect 12 0 10 0;
#X connect 12 1 13 0;
#X connect 13 0 1 1;
#X restore 212 176 pd camomile.load;
#X text 633 815 0 = savestate \; 1= camomile plugin, f 16;
#X obj 642 29 r camo_save;
#X obj 95 282 text size \$2-savestate_data;
#X obj 95 311 select 0;
#X obj 716 475 text size \$2-savestate_data;
#X obj 716 504 select 0;
#X obj 705 346 s \$2-this;
#X floatatom 636 515 5 0 0 0 - - - 0;
#X obj 253 855 r ACTIVE_DOLLARZERO;
#X obj 253 888 == 0;
#X obj 157 949 list prepend dispatch;
#X text 13 904 unless module copy/ duplicate, f 12;
#X obj 157 920 spigot 1;
#X text 1021 401 saved data;
#X obj 911 423 text insert \$2-savestate_data;
#X obj 903 317 r PALETTE.savestate;
#X obj 911 381 spigot 1;
#X obj 1055 351 loadbang;
#X msg 1055 380 0;
#X text 939 271 retrieve savestate from palette (pd vanilla), f 23;
#X connect 0 0 40 0;
#X connect 1 0 54 0;
#X connect 4 0 5 0;
#X connect 5 0 6 0;
#X connect 5 1 15 0;
#X connect 6 0 10 0;
#X connect 6 1 7 1;
#X connect 7 0 8 0;
#X connect 9 0 8 1;
#X connect 10 0 7 0;
#X connect 10 1 25 0;
#X connect 12 0 36 0;
#X connect 13 0 64 0;
#X connect 14 0 41 0;
#X connect 15 0 18 0;
#X connect 15 1 16 1;
#X connect 16 0 17 0;
#X connect 18 0 16 0;
#X connect 18 1 23 0;
#X connect 19 0 17 1;
#X connect 22 0 43 0;
#X connect 23 0 19 0;
#X connect 25 0 9 0;
#X connect 26 0 68 0;
#X connect 27 0 28 0;
#X connect 28 0 26 0;
#X connect 29 0 28 1;
#X connect 30 0 29 0;
#X connect 31 0 42 0;
#X connect 32 0 33 0;
#X connect 33 0 34 0;
#X connect 34 0 50 0;
#X connect 36 0 13 0;
#X connect 36 1 21 0;
#X connect 41 0 4 0;
#X connect 42 0 32 0;
#X connect 43 0 44 0;
#X connect 44 0 74 0;
#X connect 44 1 50 0;
#X connect 45 0 2 0;
#X connect 48 0 45 0;
#X connect 48 1 56 0;
#X connect 50 0 48 0;
#X connect 51 0 50 1;
#X connect 53 0 24 0;
#X connect 53 1 66 0;
#X connect 53 2 49 0;
#X connect 54 0 53 0;
#X connect 55 0 53 0;
#X connect 56 0 57 0;
#X connect 57 0 58 0;
#X connect 61 0 13 0;
#X connect 61 1 39 0;
#X connect 63 0 55 0;
#X connect 64 0 65 0;
#X connect 65 1 14 0;
#X connect 66 0 67 0;
#X connect 66 0 69 0;
#X connect 67 1 31 0;
#X connect 70 0 71 0;
#X connect 71 0 74 1;
#X connect 72 0 50 0;
#X connect 74 0 72 0;
#X connect 77 0 78 0;
#X connect 78 0 76 0;
#X connect 79 0 80 0;
#X connect 80 0 78 1;
