#N canvas 0 50 998 476 16;
#X text 91 291 extends Automatonism 3.1 features;
#X text 165 340 parent patch state saving instead of textfile and directory
structure;
#X text 166 396 midi learn feature;
#X obj 87 119 reloaded reloaded-help \$0 \$1
;
#X obj 127 79 savestate;
#N canvas 0 50 450 300 \$0-gui_listeners 0;
#X restore 87 149 pd \$0-gui_listeners;
#X connect 3 0 4 0;
#X connect 4 0 3 0;
#X connect 4 1 3 1;
