#N canvas 562 41 1538 1026 16;
#X declare -path reloaded;
#X obj 260 11 inlet;
#X obj 612 19 inlet;
#X obj 657 976 outlet;
#X text 370 19 saved data;
#X obj 264 418 list trim;
#X obj 262 444 route mapping dispatch preset;
#X obj 262 589 list append;
#X obj 297 692 s;
#X text 667 18 savebang;
#X obj 263 141 loadbang;
#X obj 264 250 delay 10;
#X msg 264 344 line 0 \, bang;
#X obj 626 604 list split 1;
#X obj 620 673 list append;
#X obj 655 776 s;
#X obj 620 635 t b s;
#X msg 691 732 symbol \$2-dispatch_\$1;
#X obj 1068 81 declare -path reloaded;
#N canvas 0 0 450 300 check-module-ID 0;
#X obj 105 44 inlet;
#X obj 96 139 f \$3;
#X obj 96 192 moses;
#X obj 168 137 v \$1-ID;
#X obj 154 235 v \$1-ID;
#X obj 107 87 t b b;
#X connect 0 0 5 0;
#X connect 1 0 2 0;
#X connect 2 1 4 0;
#X connect 3 0 2 1;
#X connect 5 0 1 0;
#X connect 5 1 3 0;
#X restore 315 219 pd check-module-ID;
#X obj 316 736 r \$2-dump_state;
#X obj 691 703 pack s \$2;
#X obj 612 146 s \$2-save_state;
#X msg 875 305 loadbang;
#X obj 875 177 r \$1-\$3-loadbang;
#X obj 875 272 spigot 1;
#X msg 950 238 0;
#X obj 948 211 loadbang;
#X msg 967 690 line 0 \, bang;
#X obj 966 756 list trim;
#X obj 966 785 route preset;
#X obj 966 816 list prepend preset;
#X text 1121 683 backup preset data if they exist;
#X obj 264 182 t b b;
#X text 270 480 load midi_mappings;
#X text 743 643 load parameters;
#X obj 535 216 text define \$2-savestate_data;
#X obj 260 56 text insert \$2-savestate_data;
#X obj 267 382 text sequence \$2-savestate_data;
#X obj 966 727 text sequence \$2-savestate_data;
#X obj 316 784 list trim;
#X obj 315 815 route dispatch;
#X obj 657 944 list;
#X text 264 842 filter out dispatch data, f 11;
#X text 988 35 from camomile plugin;
#X obj 686 117 s \$0-dump_mode;
#X obj 657 881 list prepend 0;
#X obj 792 788 r \$0-dump_mode;
#X text 283 977 send current_data to savestate inlet;
#X obj 613 85 t b b f;
#X msg 614 54 0;
#X msg 812 58 1;
#X obj 980 892 list prepend save \$1-\$3;
#X obj 980 921 list trim;
#X obj 980 950 s camomile;
#X text 1099 928 save in DAW through camomile plugin, f 19;
#X text 1044 176 forward loadbang to parent, f 9;
#X text 803 815 0 = savestate \; 1= camomile plugin, f 16;
#X obj 812 29 r camo_save;
#X obj 265 282 text size \$2-savestate_data;
#X obj 265 311 select 0;
#X obj 886 475 text size \$2-savestate_data;
#X obj 886 504 select 0;
#X obj 875 346 s \$2-this;
#X floatatom 806 515 5 0 0 0 - - - 0;
#X obj 423 855 r ACTIVE_DOLLARZERO;
#X obj 423 888 == 0;
#X obj 327 949 list prepend dispatch;
#X text 183 904 unless module copy/ duplicate, f 12;
#X obj 327 920 spigot 1;
#X text 1191 401 saved data;
#X obj 1081 423 text insert \$2-savestate_data;
#X obj 1073 317 r PALETTE.savestate;
#X obj 1081 381 spigot 1;
#X obj 1225 351 loadbang;
#X msg 1225 380 0;
#X text 1109 271 retrieve savestate from palette (pd vanilla), f 23;
#X text 807 878 2 = plugdata plugin;
#X obj 658 913 route 0 1 2;
#N canvas 679 97 1100 675 databuffer 0;
#X text 119 695 plugdata receiver for saving extra data into daw session;
#X obj 81 65 t b;
#X obj 81 94 delay 100;
#X obj 81 123 s \$2-save-s;
#X obj 81 15 r \$2-save-s?;
#X obj 66 196 r \$2-to_databuffer;
#X text 235 129 sent to [bng] in [pd state-saving-multiple-instances];
#X text 239 27 sent by hsl_dispatch \, tgl_dispatch \, etc.... \, as soon as value changed;
#X obj 67 252 list split 2;
#X obj 71 295 unpack s s;
#X obj 66 534 list append;
#X listbox 313 552 65 0 0 0 - - - 0;
#X obj 171 398 list append \$1-\$3;
#X text 310 514 list statesave/1-bwl-osc-ss.txt bwl-osc-1 preset 61 78 68 0 3, f 64;
#X text 349 292 list statesave/1-bwl-osc-ss.txt preset 61 78 68 0 3, f 65;
#X obj 59 483 list prepend;
#X obj 66 578 s to_plugdatabuffer;
#X msg 331 217 list statesave/1-bwl-osc-ss.txt preset 61 78 68 0 3;
#X text 85 601 to [automatonism] module;
#X text 100 216 from [reloaded/textfile] modules;
#X connect 1 0 2 0;
#X connect 2 0 3 0;
#X connect 4 0 1 0;
#X connect 5 0 8 0;
#X connect 8 0 9 0;
#X connect 8 1 10 1;
#X connect 9 0 15 0;
#X connect 9 1 12 0;
#X connect 10 0 11 0;
#X connect 10 0 16 0;
#X connect 12 0 15 1;
#X connect 15 0 10 0;
#X connect 17 0 8 0;
#X restore 501 311 pd databuffer for plugdata in DAW;
#X obj 268 520 list split 2;
#X obj 262 551 t b l;
#X obj 333 619 list prepend \$2;
#X obj 200 697 print;
#X obj 196 646 list prepend;
#X msg 333 648 symbol \$1-mapping_\$3;
#X obj 17 117 r from_host.load-\$1-\$3;
#X obj 15 492 s \$2-load_from_databuffer;
#N canvas 1162 259 756 723 store_from_host.load 0;
#X obj 87 61 r from_host.load-\$1-\$3;
#X obj 92 171 list split 2;
#X obj 108 226 text search \$2-savestate_data;
#X obj 95 134 t l l;
#X obj 108 255 select -1;
#X obj 104 380 list append;
#X obj 99 466 text insert \$2-savestate_data;
#X obj 212 296 t b f;
#X obj 259 346 text delete \$2-savestate_data;
#X obj 251 397 loadbang;
#X msg 244 430 1e+09;
#X connect 0 0 3 0;
#X connect 1 0 2 0;
#X connect 2 0 4 0;
#X connect 3 0 1 0;
#X connect 3 1 5 1;
#X connect 4 0 5 0;
#X connect 4 1 7 0;
#X connect 5 0 6 0;
#X connect 7 0 5 0;
#X connect 7 1 8 0;
#X connect 9 0 10 0;
#X connect 10 0 6 1;
#X restore 30 76 pd store_from_host.load;
#X obj 15 460 list;
#X obj 17 178 route preset;
#X obj 17 146 list trim;
#X obj 47 406 spigot 1;
#X obj 16 319 t a b;
#X msg 125 361 0;
#X connect 0 0 36 0;
#X connect 1 0 49 0;
#X connect 4 0 5 0;
#X connect 5 0 79 0;
#X connect 5 1 12 0;
#X connect 5 2 91 0;
#X connect 6 0 7 0;
#X connect 6 0 83 0;
#X connect 9 0 32 0;
#X connect 10 0 58 0;
#X connect 11 0 37 0;
#X connect 12 0 15 0;
#X connect 12 1 13 1;
#X connect 13 0 14 0;
#X connect 15 0 13 0;
#X connect 15 1 20 0;
#X connect 16 0 14 1;
#X connect 19 0 39 0;
#X connect 20 0 16 0;
#X connect 22 0 62 0;
#X connect 23 0 24 0;
#X connect 24 0 22 0;
#X connect 25 0 24 1;
#X connect 26 0 25 0;
#X connect 27 0 38 0;
#X connect 28 0 29 0;
#X connect 29 0 30 0;
#X connect 30 0 45 0;
#X connect 32 0 10 0;
#X connect 32 1 18 0;
#X connect 37 0 4 0;
#X connect 38 0 28 0;
#X connect 39 0 40 0;
#X connect 40 0 68 0;
#X connect 40 1 45 0;
#X connect 41 0 2 0;
#X connect 45 0 77 0;
#X connect 46 0 45 1;
#X connect 48 0 21 0;
#X connect 48 1 60 0;
#X connect 48 2 44 0;
#X connect 49 0 48 0;
#X connect 50 0 48 0;
#X connect 51 0 52 0;
#X connect 52 0 53 0;
#X connect 57 0 50 0;
#X connect 58 0 59 0;
#X connect 59 1 11 0;
#X connect 60 0 61 0;
#X connect 60 0 63 0;
#X connect 61 1 27 0;
#X connect 64 0 65 0;
#X connect 65 0 68 1;
#X connect 66 0 45 0;
#X connect 68 0 66 0;
#X connect 71 0 72 0;
#X connect 72 0 70 0;
#X connect 73 0 74 0;
#X connect 74 0 72 1;
#X connect 77 0 41 0;
#X connect 77 1 51 0;
#X connect 79 0 80 0;
#X connect 79 1 6 1;
#X connect 80 0 6 0;
#X connect 80 1 81 0;
#X connect 81 0 84 0;
#X connect 83 0 82 0;
#X connect 84 0 7 1;
#X connect 84 0 83 1;
#X connect 85 0 90 0;
#X connect 88 0 86 0;
#X connect 89 0 92 0;
#X connect 90 0 89 0;
#X connect 91 0 88 0;
#X connect 92 0 88 0;
#X connect 92 1 93 0;
#X connect 93 0 91 1;
