#N canvas 1468 682 450 300 12;
#X obj 140 75 loadbang;
#X obj 140 100 v ACTIVE_DOLLARZERO;
#X obj 56 131 f;
#X text 72 41 send on ACTIVE_DOLLARZERO condition;
#X obj 17 9 inlet;
#X obj 17 34 t a b;
#X obj 26 253 send;
#X msg 52 209 symbol \$1-\$2;
#X obj 53 175 list append \$1;
#X obj 98 244 print;
#X connect 0 0 1 0;
#X connect 1 0 2 1;
#X connect 2 0 8 0;
#X connect 4 0 5 0;
#X connect 5 0 6 0;
#X connect 5 1 2 0;
#X connect 7 0 6 1;
#X connect 7 0 9 0;
#X connect 8 0 7 0;
