#N canvas 0 0 1920 1021 12;
#X obj 361 731 textfile;
#X obj 553 12 inlet;
#X obj 315 960 outlet;
#X obj 598 956 outlet;
#X text 1003 166 TODO :;
#X text 280 302 si echec;
#X text 257 216 essayer de lire dans savestate data;
#X text 556 95 READ;
#X text 872 94 WRITE;
#X text 957 325 ecrire dans savestate data;
#X obj 361 272 text search \$1-savestate_data;
#X obj 361 175 list prepend preset;
#X obj 361 305 select -1;
#X obj 361 441 list append;
#X obj 769 884 text get \$1-savestate_data;
#X obj 768 913 list split 2;
#X obj 769 854 f;
#X text 434 758 si succès :;
#X obj 384 695 spigot;
#X msg 418 596 1;
#X msg 542 574 0;
#X msg 384 630 rewind;
#X msg 660 564 bang;
#X obj 758 811 spigot;
#X obj 796 765 == 0;
#X obj 434 661 t f f;
#X obj 380 849 text insert \$1-savestate_data;
#X obj 381 807 list prepend;
#X obj 873 557 list append, f 13;
#X msg 1071 256 bang;
#X obj 871 424 text search \$1-savestate_data;
#X obj 867 350 list prepend preset;
#X obj 869 388 t l l, f 18;
#X obj 873 592 list prepend, f 18;
#X obj 874 712 text insert \$1-savestate_data;
#X text 1043 350 pas de rétrocompatibilité :;
#X obj 361 407 spigot 1;
#X msg 424 374 0;
#X text 264 322 (no match in #A savestate), f 13;
#N canvas 0 0 624 658 check-scope 1;
#X obj 17 9 inlet;
#X obj 16 301 outlet;
#X obj 15 264 spigot 1;
#X obj 66 108 select 0;
#X msg 66 133 1;
#X obj 66 44 r ACTIVE_DOLLARZERO;
#X obj 66 75 pipe f 1;
#X obj 117 141 list prepend 0;
#X obj 119 199 route 0;
#X msg 111 241 1;
#X obj 155 245 ==;
#X obj 211 100 r \$1-dollarg3;
#X floatatom 266 138 5 0 0 0 - - - 0;
#X connect 0 0 2 0;
#X connect 2 0 1 0;
#X connect 3 0 4 0;
#X connect 3 1 7 0;
#X connect 4 0 2 1;
#X connect 5 0 6 0;
#X connect 6 0 3 0;
#X connect 7 0 8 0;
#X connect 8 0 9 0;
#X connect 8 1 10 0;
#X connect 9 0 2 1;
#X connect 10 0 2 1;
#X connect 11 0 7 1;
#X connect 11 0 12 0;
#X restore 551 42 pd check-scope;
#X obj 361 568 t a b;
#X obj 873 631 t l l;
#X obj 161 448 r \$1-load_from_databuffer;
#X obj 235 496 loadbang;
#X obj 235 521 list append \$2;
#X obj 235 546 select init;
#X msg 231 573 1;
#X obj 161 610 spigot;
#X obj 248 129 t a a a, f 47;
#X obj 161 646 route symbol;
#X obj 235 621 symbol;
#X obj 161 527 list trim;
#X obj 883 485 select -1;
#X obj 917 525 text delete \$1-savestate_data;
#X obj 904 663 loadbang;
#X msg 918 689 1e+33;
#X obj 357 329 bng 20 250 50 0 empty empty empty 0 -10 0 12 #fcfcfc #000000 #000000;
#X msg 387 372 1;
#N canvas 0 0 630 809 check_if_files_exist_in_filesystem 0;
#X obj 140 8 inlet;
#X obj 138 694 outlet;
#X obj 160 266 file stat;
#X obj 160 198 route read;
#X obj 160 228 symbol;
#X obj 138 388 spigot 1;
#X msg 249 357 0;
#X text 282 356 file not found;
#X obj 214 85 pdcontrol;
#X obj 139 111 list append;
#X msg 139 138 read \$2/\$1;
#X msg 214 60 dir 3;
#X obj 366 84 pdcontrol;
#X msg 366 59 dir 1;
#X text 244 194 essayer de lire fichier texte dans dossier statesave local, f 25;
#X obj 292 111 list append;
#X obj 236 552 file stat;
#X obj 237 493 route read;
#X obj 237 522 symbol;
#X msg 218 429 read \$2/\$1;
#X obj 213 638 spigot 1;
#X msg 282 580 0;
#X obj 220 300 t b b;
#X obj 218 324 list append;
#X text 320 436 try factory preset file, f 9;
#X msg 237 612 1;
#X obj 138 33 t a b a b, f 33;
#X msg 176 356 1;
#X obj 137 168 t a a;
#X obj 160 291 t b;
#X obj 236 577 t b;
#X obj 217 463 t a a;
#X connect 0 0 26 0;
#X connect 2 0 29 0;
#X connect 2 1 22 0;
#X connect 3 0 4 0;
#X connect 4 0 2 0;
#X connect 5 0 1 0;
#X connect 6 0 5 1;
#X connect 8 0 9 1;
#X connect 9 0 10 0;
#X connect 10 0 28 0;
#X connect 11 0 8 0;
#X connect 12 0 15 1;
#X connect 13 0 12 0;
#X connect 15 0 23 1;
#X connect 16 0 30 0;
#X connect 16 1 21 0;
#X connect 17 0 18 0;
#X connect 18 0 16 0;
#X connect 19 0 31 0;
#X connect 20 0 1 0;
#X connect 21 0 20 1;
#X connect 22 0 23 0;
#X connect 22 1 6 0;
#X connect 23 0 19 0;
#X connect 25 0 20 1;
#X connect 26 0 9 0;
#X connect 26 1 11 0;
#X connect 26 2 15 0;
#X connect 26 3 13 0;
#X connect 27 0 5 1;
#X connect 28 0 5 0;
#X connect 28 1 3 0;
#X connect 29 0 27 0;
#X connect 30 0 25 0;
#X connect 31 0 20 0;
#X connect 31 1 17 0;
#X restore 361 510 pd check_if_files_exist_in_filesystem;
#X text 365 540 success;
#X text 497 364 si success \, ne pas importer depuis preset files, f 18;
#X text 397 828 recopier dans première ligne de savestate;
#X obj 358 758 t l l b;
#X msg 703 811 0;
#X text 523 791 spécifier l'index de lecture;
#X obj 552 75 route read rewind bang write set clear, f 90;
#X text 1061 371 pas d'écriture dans filesystem statesave;
#X obj 872 453 t b f;
#X text 662 97 REWIND;
#X text 774 93 BANG;
#X text 978 98 SET;
#X text 1080 98 CLEAR;
#X msg 807 696 0;
#X obj 361 239 t l b l b, f 22;
#X obj 424 337 t b b f b, f 34;
#X msg 786 536 1;
#X connect 0 0 62 0;
#X connect 0 1 3 0;
#X connect 1 0 39 0;
#X connect 10 0 12 0;
#X connect 11 0 73 0;
#X connect 12 0 36 0;
#X connect 12 0 56 0;
#X connect 12 1 74 0;
#X connect 13 0 58 0;
#X connect 14 0 15 0;
#X connect 15 1 2 0;
#X connect 16 0 14 0;
#X connect 18 0 0 0;
#X connect 19 0 25 0;
#X connect 20 0 25 0;
#X connect 21 0 18 0;
#X connect 22 0 18 0;
#X connect 22 0 23 0;
#X connect 23 0 16 0;
#X connect 24 0 23 1;
#X connect 25 0 18 1;
#X connect 25 1 24 0;
#X connect 27 0 26 0;
#X connect 28 0 33 0;
#X connect 29 0 28 1;
#X connect 30 0 67 0;
#X connect 31 0 32 0;
#X connect 32 0 30 0;
#X connect 32 1 33 1;
#X connect 33 0 41 0;
#X connect 36 0 13 0;
#X connect 37 0 36 1;
#X connect 39 0 65 0;
#X connect 40 0 0 0;
#X connect 40 1 19 0;
#X connect 41 0 34 0;
#X connect 42 0 51 0;
#X connect 43 0 44 0;
#X connect 44 0 45 0;
#X connect 45 0 46 0;
#X connect 46 0 47 1;
#X connect 47 0 49 0;
#X connect 48 0 50 0;
#X connect 48 1 11 0;
#X connect 48 2 13 1;
#X connect 49 0 2 0;
#X connect 50 0 49 1;
#X connect 51 0 47 0;
#X connect 52 1 53 0;
#X connect 54 0 55 0;
#X connect 55 0 34 1;
#X connect 57 0 36 1;
#X connect 58 0 40 0;
#X connect 62 0 2 0;
#X connect 62 1 27 0;
#X connect 62 2 63 0;
#X connect 63 0 16 1;
#X connect 65 0 48 0;
#X connect 65 1 21 0;
#X connect 65 2 22 0;
#X connect 65 3 31 0;
#X connect 65 4 28 1;
#X connect 65 5 29 0;
#X connect 67 0 28 0;
#X connect 67 1 52 0;
#X connect 72 0 23 1;
#X connect 72 0 18 1;
#X connect 73 0 10 0;
#X connect 73 1 57 0;
#X connect 73 2 27 1;
#X connect 73 3 72 0;
#X connect 74 0 37 0;
#X connect 74 1 20 0;
#X connect 74 2 16 1;
#X connect 74 3 75 0;
#X connect 75 0 23 1;
