#N canvas 0 0 1920 1021 12;
#X obj 89 643 textfile;
#X obj 123 12 inlet;
#X obj 41 805 outlet;
#X obj 221 805 outlet;
#X text 573 166 TODO :;
#X text 4 329 si echec;
#X text 5 267 essayer de lire dans savestate data;
#X text 586 209 READ;
#X text 755 350 WRITE;
#X text 802 380 ecrire dans savestate data;
#X obj 88 287 text search \$1-savestate_data;
#X obj 90 202 list prepend preset;
#X obj 89 328 select -1;
#X obj 92 429 list append;
#X obj 305 706 text get \$1-savestate_data;
#X obj 304 735 list split 2;
#X obj 305 676 f;
#X obj 122 75 route read rewind bang clear set write, f 45;
#X text 140 759 si succès :;
#X text 144 777 recopier dans savestate;
#X obj 159 618 spigot;
#X msg 222 544 1;
#X msg 264 544 0;
#X msg 173 146 rewind;
#X msg 233 174 bang;
#X obj 294 633 spigot;
#X obj 330 603 == 0;
#X obj 213 577 t f f;
#X obj 108 850 text insert \$1-savestate_data;
#X obj 88 238 t l l;
#X obj 74 695 t l l;
#X obj 131 734 list prepend;
#X obj 523 577 list append;
#X msg 370 317 bang;
#X obj 591 447 text search \$1-savestate_data;
#X obj 587 373 list prepend preset;
#X obj 589 411 t l l;
#X obj 523 612 list prepend;
#X obj 522 839 text insert \$1-savestate_data;
#X obj 592 476 t b f f;
#X text 851 455 pas de rétrocompatibilité :;
#X text 869 476 pas d'écriture dans dossier statesave;
#X obj 89 399 spigot 1;
#X obj 179 352 t b b f;
#X msg 162 385 0;
#X text 10 350 (no match in #A savestate), f 13;
#X text 238 383 si success \, ne plus importer depuis preset files par la suite, f 18;
#N canvas 0 0 624 658 check-scope 0;
#X obj 17 9 inlet;
#X obj 16 301 outlet;
#X obj 121 256 ==;
#X obj 15 264 spigot 1;
#X obj 117 141 t f f;
#X obj 66 108 select 0;
#X msg 66 133 1;
#X obj 66 44 r ACTIVE_DOLLARZERO;
#X obj 164 178 loadbang;
#X obj 164 203 v ACTIVE_DOLLARZERO;
#X obj 66 76 pipe f 1;
#X connect 0 0 3 0;
#X connect 2 0 3 1;
#X connect 3 0 1 0;
#X connect 4 0 2 0;
#X connect 5 0 6 0;
#X connect 5 1 4 0;
#X connect 6 0 3 1;
#X connect 7 0 10 0;
#X connect 8 0 9 0;
#X connect 9 0 2 1;
#X connect 10 0 5 0;
#X restore 121 42 pd check-scope;
#N canvas 0 0 1112 630 exists? 0;
#X obj 41 23 inlet;
#X obj 49 562 outlet;
#X obj 225 325 file stat;
#X obj 146 236 t a a;
#X obj 193 274 route read;
#X obj 209 300 symbol;
#X obj 139 434 spigot 1;
#X msg 190 402 0;
#X text 227 397 file not found;
#X obj 307 104 pdcontrol;
#X obj 198 158 list append;
#X msg 164 189 read \$2/\$1;
#X msg 315 69 dir 3;
#X obj 183 91 pdcontrol;
#X msg 191 56 dir 1;
#X text 233 431 essayer de lire fichier texte dans dossier statesave local, f 25;
#X obj 77 139 list append;
#X obj 94 379 file stat;
#X obj 15 290 t a a;
#X obj 62 328 route read;
#X obj 78 354 symbol;
#X msg 33 243 read \$2/\$1;
#X obj 24 450 spigot 1;
#X msg 75 418 0;
#X obj 216 363 t b b;
#X obj 17 171 list append;
#X text 18 472 try factory preset file, f 9;
#X obj 56 101 t a a b b;
#X connect 0 0 27 0;
#X connect 2 1 24 0;
#X connect 3 0 6 0;
#X connect 3 1 4 0;
#X connect 4 0 5 0;
#X connect 5 0 2 0;
#X connect 6 0 1 0;
#X connect 7 0 6 1;
#X connect 9 0 10 1;
#X connect 10 0 11 0;
#X connect 11 0 3 0;
#X connect 12 0 9 0;
#X connect 13 0 16 1;
#X connect 14 0 13 0;
#X connect 16 0 25 1;
#X connect 17 1 23 0;
#X connect 18 0 22 0;
#X connect 18 1 19 0;
#X connect 19 0 20 0;
#X connect 20 0 17 0;
#X connect 21 0 18 0;
#X connect 22 0 1 0;
#X connect 23 0 22 1;
#X connect 24 0 25 0;
#X connect 24 1 7 0;
#X connect 25 0 21 0;
#X connect 27 0 10 0;
#X connect 27 1 16 0;
#X connect 27 2 14 0;
#X connect 27 3 12 0;
#X restore 63 587 pd exists?;
#X obj 95 494 t a b;
#X obj 523 651 t l l;
#X text 817 647 plugdata receiver for saving extra data into daw session;
#X obj 978 698 s \$1-to_databuffer;
#X obj 1222 150 r \$1-load_from_databuffer;
#X obj 1287 197 loadbang;
#X obj 1287 222 list append \$2;
#X obj 1287 247 select init;
#X msg 1261 285 1;
#X obj 1222 312 spigot;
#X obj 123 161 t a a a;
#X obj 1222 348 route symbol;
#X obj 736 255 symbol;
#X obj 1222 229 list trim;
#X obj 688 633 select -1;
#X obj 707 794 text delete \$1-savestate_data;
#X obj 571 727 loadbang;
#X msg 585 753 1e+33;
#X connect 0 0 30 0;
#X connect 0 1 3 0;
#X connect 1 0 47 0;
#X connect 10 0 12 0;
#X connect 11 0 29 0;
#X connect 12 0 42 0;
#X connect 12 1 43 0;
#X connect 13 0 49 0;
#X connect 14 0 15 0;
#X connect 15 1 2 0;
#X connect 16 0 14 0;
#X connect 17 0 59 0;
#X connect 17 1 23 0;
#X connect 17 2 24 0;
#X connect 17 3 33 0;
#X connect 17 4 32 1;
#X connect 17 5 35 0;
#X connect 20 0 0 0;
#X connect 21 0 27 0;
#X connect 22 0 27 0;
#X connect 23 0 20 0;
#X connect 24 0 20 0;
#X connect 24 0 25 0;
#X connect 25 0 16 0;
#X connect 26 0 25 1;
#X connect 27 0 20 1;
#X connect 27 1 26 0;
#X connect 29 0 10 0;
#X connect 29 1 31 1;
#X connect 30 0 2 0;
#X connect 30 1 31 0;
#X connect 31 0 28 0;
#X connect 32 0 37 0;
#X connect 33 0 32 1;
#X connect 34 0 39 0;
#X connect 35 0 36 0;
#X connect 36 0 34 0;
#X connect 36 1 37 1;
#X connect 37 0 50 0;
#X connect 39 0 32 0;
#X connect 39 2 63 0;
#X connect 42 0 13 0;
#X connect 43 0 44 0;
#X connect 43 1 22 0;
#X connect 43 2 16 1;
#X connect 44 0 42 1;
#X connect 47 0 17 0;
#X connect 48 0 0 0;
#X connect 49 0 48 0;
#X connect 49 1 21 0;
#X connect 50 0 38 0;
#X connect 50 1 52 0;
#X connect 53 0 62 0;
#X connect 54 0 55 0;
#X connect 55 0 56 0;
#X connect 56 0 57 0;
#X connect 57 0 58 1;
#X connect 58 0 60 0;
#X connect 59 0 11 0;
#X connect 59 1 13 1;
#X connect 59 2 61 0;
#X connect 60 0 2 0;
#X connect 61 0 60 1;
#X connect 62 0 58 0;
#X connect 63 1 64 0;
#X connect 65 0 66 0;
#X connect 66 0 38 1;
