#N canvas 0 57 1920 1023 16;
#X obj 129 7 loadbang;
#X obj 151 778 iemguts/sendcanvas 1;
#X obj 1418 922 delay 10;
#X obj 1420 850 f \$1;
#X obj 1420 887 select 0;
#X obj 1420 961 iemguts/canvasdelete 1;
#X obj 165 149 state_saving_module/is_automatonism_loaded;
#X obj 130 200 f;
#X obj 130 229 select 0;
#X text 602 169 check if declare-path object is present;
#X obj 105 594 t b b;
#X msg 102 850 created [automatonism_menu] & [declare] objects;
#X obj 100 886 print automatonism;
#X obj 57 464 select 1 0;
#N canvas 224 89 576 260 \$0-copy_into_your_patch 0;
#X text 58 90 Please select your main patch window and choose menu
edit/paste (Ctrl/Cmd + v), f 40;
#X text 58 24 You don't have iemguts lib installed;
#X text 59 159 You can then leave edit_mode (Ctrl/Cmd + e);
#X restore 560 82 pd \$0-copy_into_your_patch;
#X obj 129 48 spigot 1;
#X obj 129 79 t b b;
#X msg 215 28 0;
#X obj 1416 673 r AUTOMATONISM_LOADED;
#X obj 126 111 t b b;
#N canvas 1006 770 262 212 \$0-temp 0;
#X restore 559 43 pd \$0-temp;
#X obj 384 560 s pd-\$0-temp;
#X obj 1547 884 s pd-\$0-copy_into_your_patch;
#X msg 1546 848 vis 0;
#X obj 194 621 s pd-\$0-copy_into_your_patch;
#X msg 191 586 vis 1;
#X text 351 345 if iemguts lib is not present \, add objects manually
;
#X obj 1420 806 t b b;
#X obj 155 382 iemguts/classtest;
#X msg 159 350 symbol classtest;
#X obj 120 316 t b b;
#X obj 117 413 f;
#X obj 132 285 t b b b b;
#X obj 403 379 delay 200;
#X obj 81 530 delay 300;
#X obj 187 529 delay 300;
#X obj 1418 740 spigot;
#X msg 1267 709 1;
#X msg 153 702 paste \, loadbang;
#X msg 900 402 clear \, obj 10 10 pd \\\$0-init \, obj 10 40 declare
-path automatonism/patch_editor_abs \, obj 10 70 namecanvas \\\$0-this
\, obj 10 100 automatonism_menu \\\$0 \, editmode 0, f 27;
#X obj 821 770 s pd-\$0-init;
#X obj 823 616 delay 100;
#X msg 821 665 clear \, obj 10 10 loadbang \, obj 10 40 f \\\$0 \,
obj 10 70 s ACTIVE_DOLLARZERO \, connect 0 0 1 0 \, connect 1 0 2 0
\, vis 0, f 27;
#X msg 1244 404 clear;
#X msg 408 418 vis 1 \, editmode 1 \, selectall \, copy \, clear \,
vis 0, f 22;
#X connect 0 0 15 0;
#X connect 2 0 5 0;
#X connect 3 0 4 0;
#X connect 4 0 2 0;
#X connect 6 0 7 1;
#X connect 7 0 8 0;
#X connect 8 0 32 0;
#X connect 10 0 11 0;
#X connect 10 1 38 0;
#X connect 11 0 12 0;
#X connect 13 0 34 0;
#X connect 13 1 35 0;
#X connect 15 0 16 0;
#X connect 16 0 19 0;
#X connect 16 1 17 0;
#X connect 17 0 15 1;
#X connect 18 0 36 0;
#X connect 19 0 7 0;
#X connect 19 1 6 0;
#X connect 23 0 22 0;
#X connect 25 0 24 0;
#X connect 27 0 3 0;
#X connect 27 1 23 0;
#X connect 28 0 31 1;
#X connect 29 0 28 0;
#X connect 30 0 31 0;
#X connect 30 1 29 0;
#X connect 31 0 13 0;
#X connect 32 0 30 0;
#X connect 32 1 33 0;
#X connect 32 2 41 0;
#X connect 32 3 39 0;
#X connect 33 0 44 0;
#X connect 33 0 37 0;
#X connect 34 0 10 0;
#X connect 35 0 25 0;
#X connect 36 0 27 0;
#X connect 37 0 36 1;
#X connect 38 0 1 0;
#X connect 39 0 21 0;
#X connect 41 0 42 0;
#X connect 42 0 40 0;
#X connect 43 0 21 0;
#X connect 44 0 21 0;
