#N canvas 0 32 1920 994 12;
#X declare -path patch_editor_abs/reloaded;
#X declare -path iemguts;
#X declare -lib iemguts;
#X declare -path automatonism/palette;
#X declare -path automatonism/palette;
#X obj 102 190 bng 15 250 50 0 \$0-open-quick-guide! empty <--QUICK-GUIDE 17 7 0 10 #fcfcfc #000000 #000000;
#X obj 102 205 bng 15 250 50 0 \$0-open-manual! empty <--MANUAL 17 7 0 10 #fcfcfc #000000 #000000;
#X obj 102 240 bng 15 250 50 0 \$0-open-modules! empty <--MENU 17 7 0 10 #fcfcfc #000000 #000000;
#X obj 219 190 bng 15 250 50 0 \$0-save-s \$0-save-r <--SAVE!(ctrl+s) 17 7 0 10 #fcfcfc #00fc04 #000000;
#X obj 219 205 bng 15 250 50 0 \$0-open-reset-warning! empty <--RESET! 17 7 0 10 #fcfcfc #000000 #000000;
#N canvas 0 25 723 566 modes 0;
#X obj 153 18 inlet;
#X obj 216 294 == 0;
#X msg 193 253 1;
#X obj 149 61 + 1;
#X obj 130 322 * 1;
#X obj 179 290 f 1;
#X obj 406 335 s MIDI_MAP_TO;
#X obj 559 339 s MIDI_MAP_FROM;
#X obj 285 332 s MIDI_LEARN;
#X msg 282 196 \$1 0;
#X obj 130 358 select 0;
#X obj 130 383 f;
#X msg 130 408 \$1 0;
#X msg 191 407 \$1 1;
#X obj 305 293 t f f;
#X obj 367 294 t f f;
#X obj 433 297 t f f;
#X obj 264 170 f;
#X obj 207 229 t b b;
#X obj 326 252 route 1 3 2;
#X obj 163 173 select;
#X obj 272 464 select 0 1;
#X msg 263 505 color 4 4;
#X msg 342 503 color 13 13;
#X obj 462 464 select 0 1;
#X obj 642 464 select 0 1;
#X msg 712 503 color 16 16;
#X msg 633 505 color 6 6;
#X msg 453 505 color 7 7;
#X msg 532 503 color 17 17;
#X obj 263 530 s \$0-midi_learn-rcv;
#X obj 453 530 s \$0-midi_map_to-rcv;
#X obj 633 530 s \$0-midi_map_from-rcv;
#X obj 324 54 r \$0-midi_learn;
#X msg 464 80 2;
#X msg 592 81 3;
#X msg 324 79 1;
#X obj 464 55 r \$0-midi_map_from;
#X obj 550 17 r \$0-midi_map_to;
#X obj 131 105 t f f f f f b;
#X obj 395 159 f \$0;
#X obj 393 193 s ACTIVE_DOLLARZERO;
#X connect 0 0 3 0;
#X connect 1 0 5 1;
#X connect 2 0 5 0;
#X connect 3 0 39 0;
#X connect 4 0 10 0;
#X connect 5 0 1 0;
#X connect 5 0 4 1;
#X connect 9 0 19 0;
#X connect 10 0 11 0;
#X connect 10 1 13 0;
#X connect 11 0 12 0;
#X connect 12 0 19 0;
#X connect 13 0 19 0;
#X connect 14 0 8 0;
#X connect 14 1 21 0;
#X connect 15 0 6 0;
#X connect 15 1 24 0;
#X connect 16 0 7 0;
#X connect 16 1 25 0;
#X connect 17 0 9 0;
#X connect 18 0 2 0;
#X connect 18 1 17 0;
#X connect 19 0 14 0;
#X connect 19 1 15 0;
#X connect 19 2 16 0;
#X connect 20 0 5 0;
#X connect 20 1 18 0;
#X connect 21 0 22 0;
#X connect 21 1 23 0;
#X connect 22 0 30 0;
#X connect 23 0 30 0;
#X connect 24 0 28 0;
#X connect 24 1 29 0;
#X connect 25 0 27 0;
#X connect 25 1 26 0;
#X connect 26 0 32 0;
#X connect 27 0 32 0;
#X connect 28 0 31 0;
#X connect 29 0 31 0;
#X connect 33 0 36 0;
#X connect 34 0 39 0;
#X connect 35 0 39 0;
#X connect 36 0 39 0;
#X connect 37 0 34 0;
#X connect 38 0 35 0;
#X connect 39 0 4 0;
#X connect 39 1 11 1;
#X connect 39 2 20 1;
#X connect 39 3 17 1;
#X connect 39 4 20 0;
#X connect 39 5 40 0;
#X connect 40 0 41 0;
#X restore 1123 389 pd modes;
#X obj 1122 325 r MIDI_LEARN_OK;
#N canvas 0 25 1217 770 midi_in 0;
#X obj 87 100 r MIDI_LEARN;
#X msg 88 170 -1;
#X obj 444 34 ctlin;
#X obj 488 160 v MIDI_CHANNEL;
#X obj 303 148 notein;
#X obj 136 220 v MIDI_MAP_NUM;
#X obj 131 251 v MIDI_MAP_TYPE;
#X obj 471 194 v MIDI_MAP_NUM;
#X obj 132 187 v MIDI_MAP_CHANNEL;
#X obj 451 249 v MIDI_MAP_TYPE;
#X msg 455 225 0;
#X obj 342 174 v MIDI_CHANNEL;
#X obj 310 254 v MIDI_MAP_NUM;
#X obj 322 230 v MIDI_MAP_TYPE;
#X msg 326 206 1;
#X floatatom 516 108 5 0 0 0 - - - 0;
#X msg 579 115 1;
#X obj 705 294 r MIDI_LEARN;
#X obj 303 361 spigot;
#X obj 310 321 pack f f;
#X obj 609 288 pack f f;
#X obj 611 331 spigot;
#X obj 606 403 s \$0-midi_in;
#X msg 611 367 label ctl:\$2:\$1;
#X msg 303 394 label note:\$2:\$1;
#X msg 77 310 label ...;
#X obj 88 145 select 1 0;
#X msg 193 298 label;
#X obj 943 215 v MIDI_CHANNEL;
#X obj 906 251 v MIDI_MAP_NUM;
#X obj 861 337 v MIDI_MAP_TYPE;
#X msg 857 289 3;
#X obj 858 118 t b l l;
#X obj 900 160 unpack f f;
#X obj 1094 294 r MIDI_LEARN;
#X obj 1051 326 spigot;
#X msg 1051 351 label MACRO:\$2:\$1;
#X obj 855 77 r MACRO_MAP;
#X text 908 287 3 = macro;
#X connect 0 0 26 0;
#X connect 1 0 5 0;
#X connect 1 0 8 0;
#X connect 1 0 6 0;
#X connect 2 1 7 0;
#X connect 2 1 10 0;
#X connect 2 1 20 0;
#X connect 2 2 3 0;
#X connect 2 2 20 1;
#X connect 4 0 12 0;
#X connect 4 0 14 0;
#X connect 4 0 19 0;
#X connect 4 2 11 0;
#X connect 4 2 19 1;
#X connect 10 0 9 0;
#X connect 14 0 13 0;
#X connect 15 0 7 0;
#X connect 15 0 10 0;
#X connect 16 0 3 0;
#X connect 17 0 18 1;
#X connect 17 0 21 1;
#X connect 18 0 24 0;
#X connect 19 0 18 0;
#X connect 20 0 21 0;
#X connect 21 0 23 0;
#X connect 23 0 22 0;
#X connect 24 0 22 0;
#X connect 25 0 22 0;
#X connect 26 0 1 0;
#X connect 26 0 25 0;
#X connect 26 1 27 0;
#X connect 27 0 22 0;
#X connect 31 0 30 0;
#X connect 32 0 31 0;
#X connect 32 1 33 0;
#X connect 32 2 35 0;
#X connect 33 0 29 0;
#X connect 33 1 28 0;
#X connect 34 0 35 1;
#X connect 35 0 36 0;
#X connect 36 0 22 0;
#X connect 37 0 32 0;
#X restore 1124 419 pd midi_in;
#X obj 1037 134 s AUTOMATONISM_LOADED;
#X obj 1038 105 loadbang;
#X msg 1122 355 -1;
#N canvas 0 22 450 300 CPU-load 0;
#X floatatom 118 256 0 0 0 0 - - - 0;
#X obj 118 168 cputime;
#X obj 118 28 loadbang;
#X obj 118 112 metro 1000;
#X msg 118 56 1;
#X floatatom 118 84 0 0 0 0 - - - 0;
#X obj 118 140 t b b;
#X obj 118 228 * 0.1;
#X obj 118 197 int;
#X text 163 84 <-- on/off;
#X obj 235 255 s \$0-CPU;
#X connect 0 0 10 0;
#X connect 1 0 8 0;
#X connect 2 0 4 0;
#X connect 3 0 6 0;
#X connect 4 0 5 0;
#X connect 5 0 3 0;
#X connect 6 0 1 0;
#X connect 6 1 1 1;
#X connect 7 0 0 0;
#X connect 8 0 7 0;
#X restore 2 148 pd CPU-load;
#X obj 1471 316 text define \$0-midi_mapping;
#X obj 1374 382 symbol \$0-callback;
#X obj 1457 538 r \$0-callback;
#X obj 1457 563 text insert \$0-midi_mapping;
#X obj 297 243 bng 15 250 50 0 empty empty view 17 7 0 10 #fcfcfc #000000 #000000;
#X msg 1473 286 clear \, click;
#X msg 1374 416 getinfo symbol \$1;
#X obj 298 261 bng 8 250 50 0 empty empty clear! 13 3 0 10 #fc0400 #000000 #000000;
#X msg 1247 510 clear;
#X obj 296 220 cnv 15 50 20 empty \$0-midi_in empty 1 12 0 10 #fce0c4 #404040 0;
#X obj 907 318 r playhead;
#X obj 906 371 r midiin;
#X obj 904 419 r notein;
#X obj 1006 431 notein;
#X floatatom 1006 456 5 0 0 0 - - - 0;
#X obj 986 391 s notein;
#X msg 975 355 6 6 6;
#N canvas 0 50 450 250 (subpatch) 0;
#N canvas 0 50 450 250 (subpatch) 0;
#X text 0 0 plugdatainfo;
#X coords 0 1 100 -1 15 15 1 0 0;
#X restore 0 0 graph;
#X coords 0 1 100 -1 50 50 1 0 0;
#X restore 297 221 graph;
#X text 294 204 midimap;
#X obj 1160 678 s STOP-MORPH!;
#X obj 1158 620 r MIDI_LEARN;
#X obj 1158 645 select 1;
#X text 1251 638 stop morphing when midilearn;
#X obj 731 924 s ACTIVE_DOLLARZERO;
#N canvas 422 212 564 770 camomile_plugin_support 0;
#N canvas 0 50 450 300 param.change 0;
#X obj 55 43 r gui;
#X obj 55 65 route mouse;
#X obj 43 289 s camomile;
#X obj 43 242 pack f f, f 18;
#X msg 43 265 param change \$1 \$2;
#X obj 92 159 t b f, f 8;
#X obj 55 131 t b f, f 16;
#X obj 16 183 t b f;
#X msg 92 109 0;
#X obj 16 18 r camo.param.change;
#X msg 55 109 1;
#N canvas 0 83 156 140 once 0;
#X obj 15 84 t f b, f 8;
#X obj 78 84 f 0;
#X obj 15 19 inlet;
#X obj 60 19 inlet;
#X obj 15 106 outlet;
#X obj 60 41 f 1;
#X obj 15 62 spigot 0;
#X connect 0 0 4 0;
#X connect 0 1 1 0;
#X connect 1 0 6 1;
#X connect 2 0 6 0;
#X connect 3 0 5 0;
#X connect 5 0 6 1;
#X connect 6 0 0 0;
#X restore 16 159 pd once;
#N canvas 0 23 156 140 once 0;
#X obj 89 69 f 0;
#X obj 15 19 inlet;
#X obj 60 19 inlet;
#X obj 15 106 outlet;
#X obj 60 41 f 1;
#X obj 15 62 spigot 0;
#X obj 15 84 t b b, f 8;
#X connect 0 0 5 1;
#X connect 1 0 5 0;
#X connect 2 0 4 0;
#X connect 4 0 5 1;
#X connect 5 0 6 0;
#X connect 6 0 3 0;
#X connect 6 1 0 0;
#X restore 92 211 pd once;
#X obj 55 87 sel 1 0, f 13;
#X connect 0 0 1 0;
#X connect 1 0 13 0;
#X connect 3 0 4 0;
#X connect 4 0 2 0;
#X connect 5 0 12 0;
#X connect 5 1 3 1;
#X connect 6 0 11 1;
#X connect 6 1 3 1;
#X connect 7 0 12 1;
#X connect 7 1 3 0;
#X connect 8 0 5 0;
#X connect 9 0 11 0;
#X connect 10 0 6 0;
#X connect 11 0 7 0;
#X connect 12 0 3 0;
#X connect 13 0 10 0;
#X connect 13 1 8 0;
#X restore 97 69 pd param.change;
#X obj 60 225 r MIDI_LEARN;
#X msg 59 294 gui redraw;
#X obj 57 332 s camomile;
#X obj 60 198 r MIDI_MAP_TO;
#X obj 58 168 r MIDI_MAP_FROM;
#X obj 58 264 t b;
#X text 58 130 refresh gui when midi map mode changed;
#X obj 56 463 r save;
#X text 139 527 from camomile plugin;
#X obj 344 253 r load;
#X obj 336 463 list split 1;
#X obj 336 529 list append;
#X obj 339 501 t b s;
#X obj 334 597 s;
#X text 427 494 forward camomile plug messages to [reloaded] instances;
#X obj 89 576 s SAVE-S;
#X obj 56 543 t b b;
#X obj 371 284 t b;
#X obj 371 320 delay 100;
#X obj 52 607 s camo_save;
#X obj 27 526 bng 15 250 50 0 empty empty empty 17 7 0 10 #fcfcfc #000000 #000000;
#X msg 378 561 symbol camomile.load-\$1;
#X obj 222 320 delay 100;
#X msg 391 362 loadbang;
#X obj 391 387 s \$1-this;
#X obj 368 29 r gui;
#X obj 368 51 route mouse;
#X obj 367 152 s camomile;
#X obj 368 76 change;
#X obj 368 101 select 1;
#X msg 368 126 program updated;
#X obj 426 254 r load_data;
#N canvas 0 50 450 250 (subpatch) 0;
#X text 0 0 plugdatainfo <?xml version="1.0" encoding="UTF-8"?> <plugdatainfo/>;
#X coords 0 1 100 -1 1 1 1;
#X restore 0 0 graph;
#X connect 1 0 6 0;
#X connect 2 0 3 0;
#X connect 4 0 6 0;
#X connect 5 0 6 0;
#X connect 6 0 2 0;
#X connect 8 0 17 0;
#X connect 10 0 11 0;
#X connect 10 0 18 0;
#X connect 11 0 13 0;
#X connect 11 1 12 1;
#X connect 12 0 14 0;
#X connect 13 0 12 0;
#X connect 13 1 22 0;
#X connect 17 0 20 0;
#X connect 17 1 16 0;
#X connect 18 0 19 0;
#X connect 19 0 23 0;
#X connect 19 0 24 0;
#X connect 22 0 14 1;
#X connect 23 0 2 0;
#X connect 24 0 25 0;
#X connect 26 0 27 0;
#X connect 27 0 29 0;
#X connect 29 0 30 0;
#X connect 30 0 31 0;
#X connect 31 0 28 0;
#X connect 32 0 11 0;
#X connect 32 0 18 0;
#X restore 1414 715 pd camomile_plugin_support;
#X text 151 14 [RELOADED];
#X obj 98 102 cnv 15 248 85 empty empty empty 20 12 0 14 #f0f0f0 #404040 0;
#X obj 104 110 cnv 5 5 5 empty empty AUTOMATONISM 0 0 0 14 #fcfcfc #404040 0;
#X obj 225 110 cnv 5 5 5 empty empty [RELOADED] 0 0 0 14 #fcfcfc #404040 0;
#X floatatom 111 151 5 0 0 1 - \$0-CPU - 0;
#X text 124 134 CPU;
#X text 112 134 %;
#X obj 197 133 bng 50 250 50 0 \$0-midi_learn \$0-midi_learn-rcv LEARN 5 15 0 14 #fce0c0 #fce0c0 #000000;
#X obj 247 133 bng 50 250 50 0 \$0-midi_map_from \$0-midi_map_from-rcv FROM 10 15 0 14 #d8fcd8 #d8fcd8 #000000;
#X obj 297 133 bng 50 250 50 0 \$0-midi_map_to \$0-midi_map_to-rcv TO 15 15 0 14 #d8fcfc #d8fcfc #000000;
#X text 205 114 MIDI;
#X text 259 114 MAP;
#X text 305 114 MAP;
#X obj 1678 234 cnv 15 180 15 empty empty MODULATION: 10 8 0 12 #9898dc #fcfcfc 0;
#X obj 1678 215 cnv 15 180 15 empty empty OSCILLATORS: 10 8 0 12 #9898dc #fcfcfc 0;
#X obj 1679 254 cnv 15 180 15 empty empty SOUND-PROCESSORS: 10 8 0 12 #9898dc #fcfcfc 0;
#X obj 1678 273 cnv 15 180 15 empty empty UTILITY&LOGIC: 10 8 0 12 #9898dc #fcfcfc 0;
#X obj 1039 51 declare -path patch_editor_abs/reloaded;
#X obj 248 372 r \$0-target_patch;
#X text 153 297 enable dynamic patching in parent canvas;
#X obj 401 625 f \$0;
#X obj 145 589 == \$0;
#X obj 103 627 spigot;
#X obj 536 588 t b;
#N canvas 336 138 759 789 \$0-modules 0;
#X obj 196 91 cnv 15 180 15 empty empty MODULATION: 10 8 0 12 #9898dc #fcfcfc 0;
#X obj 196 112 bng 15 250 50 0 \$0-create-basic-lfo! empty <--BASIC-LFO 17 7 0 10 #fcfcfc #000000 #000000;
#X obj 10 41 cnv 15 740 45 empty empty MODULES 350 12 0 14 #90d4b0 #fcfcfc 0;
#X obj 10 91 cnv 15 180 15 empty empty OSCILLATORS: 10 8 0 12 #9898dc #fcfcfc 0;
#X obj 10 10 cnv 15 740 30 empty empty WELCOME-TO-AUTOMATONISM 300 12 0 14 #90d4b0 #fcfcfc 0;
#X obj 10 191 bng 15 250 50 0 \$0-create-2op-fm! empty <--2OPFM 17 7 0 10 #fcfcfc #000000 #000000;
#X obj 382 91 cnv 15 180 15 empty empty SOUND-PROCESSORS: 10 8 0 12 #9898dc #fcfcfc 0;
#X obj 383 130 bng 15 250 50 0 \$0-create-hp-filter! empty <--HP-FILTER 17 7 0 10 #fcfcfc #000000 #000000;
#X obj 383 150 bng 15 250 50 0 \$0-create-bp-filter! empty <--BP-FILTER 17 7 0 10 #fcfcfc #000000 #000000;
#X obj 383 209 bng 15 250 50 0 \$0-create-bob-filter! empty <--BOB-FILTER 17 7 0 10 #fcfcfc #000000 #000000;
#X obj 383 229 bng 15 250 50 0 \$0-create-formant! empty <--FORMANT 17 7 0 10 #fcfcfc #000000 #000000;
#X obj 383 249 bng 15 250 50 0 \$0-create-bitcrush! empty <--BITCRUSH 17 7 0 10 #fcfcfc #000000 #000000;
#X obj 383 268 bng 15 250 50 0 \$0-create-wavefold! empty <--WAVEFOLD 17 7 0 10 #fcfcfc #000000 #000000;
#X obj 383 288 bng 15 250 50 0 \$0-create-phasor! empty <--PHASOR 17 7 0 10 #fcfcfc #000000 #000000;
#X obj 383 308 bng 15 250 50 0 \$0-create-combfilter! empty <--COMBFILTER 17 7 0 10 #fcfcfc #000000 #000000;
#X obj 383 328 bng 15 250 50 0 \$0-create-granular-delay! empty <--GRANULAR-DELAY 17 7 0 10 #fcfcfc #000000 #000000;
#X obj 383 348 bng 15 250 50 0 \$0-create-millerverb! empty <--MILLERVERB 17 7 0 10 #fcfcfc #000000 #000000;
#X obj 383 368 bng 15 250 50 0 \$0-create-stereo-delay! empty <--STEREO-DELAY 17 7 0 10 #fcfcfc #000000 #000000;
#X obj 196 191 bng 15 250 50 0 \$0-create-slope! empty <--SLOPE(function-generator) 17 7 0 10 #fcfcfc #000000 #000000;
#X obj 196 211 bng 15 250 50 0 \$0-create-adsr! empty <--ADSR 17 7 0 10 #fcfcfc #000000 #000000;
#X obj 196 172 bng 15 250 50 0 \$0-create-decay! empty <--DECAY 17 7 0 10 #fcfcfc #000000 #000000;
#X obj 196 231 bng 15 250 50 0 \$0-create-random-gates! empty <--RANDOM-GATES 17 7 0 10 #fcfcfc #000000 #000000;
#X obj 196 251 bng 15 250 50 0 \$0-create-random-voltages! empty <--RANDOM-VOLTAGES 17 7 0 10 #fcfcfc #000000 #000000;
#X obj 196 310 bng 15 250 50 0 \$0-create-vca! empty <--VCA 17 7 0 10 #fcfcfc #000000 #000000;
#X obj 569 559 cnv 15 180 15 empty empty MACRO-STRUCTURAL-TOOLS: 10 8 0 12 #9898dc #fcfcfc 0;
#X obj 568 91 cnv 15 180 15 empty empty UTILITY&LOGIC: 10 8 0 12 #9898dc #fcfcfc 0;
#X obj 10 496 cnv 15 180 15 empty empty SEQUENCERS: 10 8 0 12 #9898dc #fcfcfc 0;
#X obj 196 271 bng 15 250 50 0 \$0-create-s&h! empty <--S&H(sample&hold) 17 7 0 10 #fcfcfc #000000 #000000;
#X obj 196 330 bng 15 250 50 0 \$0-create-lpg! empty <--LPG(lopass-gate) 17 7 0 10 #fcfcfc #000000 #000000;
#X obj 196 371 bng 15 250 50 0 \$0-create-3way-xfade! empty <--3WAY-XFADE 17 7 0 10 #fcfcfc #000000 #000000;
#X obj 196 391 bng 15 250 50 0 \$0-create-polarizer! empty <--POLARIZER 17 7 0 10 #fcfcfc #000000 #000000;
#X obj 196 410 bng 15 250 50 0 \$0-create-mixer2! empty <--MIXER2(2-channel) 17 7 0 10 #fcfcfc #000000 #000000;
#X obj 196 449 bng 15 250 50 0 \$0-create-toggle-matrix! empty <--TOGGLE-MATRIX 17 7 0 10 #fcfcfc #000000 #000000;
#X obj 569 131 bng 15 250 50 0 \$0-create-clock-multiply! empty <--CLOCK-MULTIPLY 17 7 0 10 #fcfcfc #000000 #000000;
#X obj 569 151 bng 15 250 50 0 \$0-create-clock-divider-even! empty <--CLOCK-DIVIDER-EVEN 17 7 0 10 #fcfcfc #000000 #000000;
#X obj 569 171 bng 15 250 50 0 \$0-create-clock-divider-odd! empty <--CLOCK-DIVIDER-ODD 17 7 0 10 #fcfcfc #000000 #000000;
#X obj 569 191 bng 15 250 50 0 \$0-create-vc-counter! empty <--VC-COUNTER 17 7 0 10 #fcfcfc #000000 #000000;
#X obj 569 211 bng 15 250 50 0 \$0-create-trigger-delay! empty <--TRIGGER-DELAY 17 7 0 10 #fcfcfc #000000 #000000;
#X obj 569 250 bng 15 250 50 0 \$0-create-inverter! empty <--INVERTER 17 7 0 10 #fcfcfc #000000 #000000;
#X obj 569 270 bng 15 250 50 0 \$0-create-scope! empty <--SCOPE 17 7 0 10 #fcfcfc #000000 #000000;
#X obj 569 290 bng 15 250 50 0 \$0-create-slew! empty <--SLEW 17 7 0 10 #fcfcfc #000000 #000000;
#X obj 569 310 bng 15 250 50 0 \$0-create-probability! empty <--PROBABILITY 17 7 0 10 #fcfcfc #000000 #000000;
#X obj 569 330 bng 15 250 50 0 \$0-create-quantizer! empty <--QUANTIZER 17 7 0 10 #fcfcfc #000000 #000000;
#X obj 569 497 bng 15 250 50 0 \$0-create-manual-triggers! empty <--MANUAL-TRIGGERS 17 7 0 10 #90d4b0 #000000 #000000;
#X obj 569 111 bng 15 250 50 0 \$0-create-clock! empty <--CLOCK 17 7 0 10 #fcfcfc #000000 #000000;
#X obj 10 516 bng 15 250 50 0 \$0-create-8steps! empty <--8STEPS 17 7 0 10 #fcfcfc #000000 #000000;
#X obj 10 536 bng 15 250 50 0 \$0-create-mega-sequencer! empty <--MEGA-SEQUENCER! 17 7 0 10 #fcfcfc #000000 #000000;
#X obj 569 370 bng 15 250 50 0 \$0-create-4to1-switch! empty <--4TO1-SWITCH 17 7 0 10 #fcfcfc #000000 #000000;
#X obj 10 314 bng 15 250 50 0 \$0-create-kick! empty <--KICK 17 7 0 10 #9898dc #000000 #000000;
#X obj 10 334 bng 15 250 50 0 \$0-create-snare! empty <--SNARE 17 7 0 10 #9898dc #000000 #000000;
#X obj 383 170 bng 15 250 50 0 \$0-create-ladder-filter! empty <--LADDER-FILTER 17 7 0 10 #fcfcfc #000000 #000000;
#X obj 196 350 bng 15 250 50 0 \$0-create-xfade! empty <--XFADE 17 7 0 10 #fcfcfc #000000 #000000;
#X obj 383 110 bng 15 250 50 0 \$0-create-lp-filter! empty <--LP-FILTER 17 7 0 10 #fcfcfc #000000 #000000;
#X obj 10 111 bng 15 250 50 0 \$0-create-basic-osc! empty <--BASIC-OSC 17 7 0 10 #fcfcfc #000000 #000000;
#X obj 10 131 bng 15 250 50 0 \$0-create-bwl-osc! empty <--BWL-OSC 17 7 0 10 #fcfcfc #000000 #000000;
#X obj 10 151 bng 15 250 50 0 \$0-create-wtable! empty <--WTABLE 17 7 0 10 #fcfcfc #000000 #000000;
#X obj 10 170 bng 15 250 50 0 \$0-create-karplus! empty <--KARPLUS 17 7 0 10 #fcfcfc #000000 #000000;
#X obj 569 412 bng 15 250 50 0 \$0-create-env-follower! empty <--ENV-FOLLOWER 17 7 0 10 #fcfcfc #000000 #000000;
#X obj 10 231 bng 15 250 50 0 \$0-create-triad! empty <--TRIAD 17 7 0 10 #fcfcfc #000000 #000000;
#X obj 570 579 bng 15 250 50 0 \$0-create-preset-manager! empty <--PRESET-MANAGER 17 7 0 10 #9898dc #000000 #000000;
#X obj 196 152 bng 15 250 50 0 \$0-create-ahr! empty <--ATTACK-HOLD-RELEASE(ahr) 17 7 0 10 #fcfcfc #000000 #000000;
#X obj 10 556 bng 15 250 50 0 \$0-create-trigger-seq! empty <--TRIGGER-SEQ 17 7 0 10 #fcfcfc #000000 #000000;
#X obj 569 391 bng 15 250 50 0 \$0-create-1to4-switch! empty <--1TO4-SWITCH 17 7 0 10 #fcfcfc #000000 #000000;
#X obj 196 429 bng 15 250 50 0 \$0-create-mixer4! empty <--MIXER4(4-channel) 17 7 0 10 #fcfcfc #000000 #000000;
#X obj 10 211 bng 15 250 50 0 \$0-create-trigons! empty <--TRIGONS 17 7 0 10 #fcfcfc #000000 #000000;
#X obj 196 132 bng 15 250 50 0 \$0-create-sinebank! empty <--SINEBANK 17 7 0 10 #fcfcfc #000000 #000000;
#X obj 196 534 bng 15 250 50 0 \$0-create-midi-in! empty <--MIDI-IN 17 7 0 10 #fcfcfc #000000 #000000;
#X obj 196 595 cnv 15 180 15 empty empty ORGANELLE: 10 8 0 12 #9898dc #fcfcfc 0;
#X obj 196 514 cnv 15 180 15 empty empty MIDI: 10 8 0 12 #9898dc #fcfcfc 0;
#X obj 196 616 bng 15 250 50 0 \$0-create-organelle-knobs! empty <--ORGANELLE-KNOBS 17 7 0 10 #fcfcfc #000000 #000000;
#X obj 196 636 bng 15 250 50 0 \$0-create-organelle-keyboard! empty <--ORGANELLE-KEYBOARD! 17 7 0 10 #fcfcfc #000000 #000000;
#X obj 196 656 bng 15 250 50 0 \$0-create-organelle-aux! empty <--ORGANELLE-AUX 17 7 0 10 #fcfcfc #000000 #000000;
#X obj 383 466 bng 15 250 50 0 \$0-create-pitchshifter! empty <--PITCHSHIFTER 17 7 0 10 #90d4b0 #000000 #000000;
#X obj 10 292 bng 15 250 50 0 \$0-create-polyfm! empty <--POLYFM 17 7 0 10 #90d4b0 #000000 #000000;
#X obj 569 230 bng 15 250 50 0 \$0-create-trigger-train! empty <--TRIGGER-TRAIN 17 7 0 10 #90d4b0 #000000 #000000;
#X obj 10 251 bng 15 250 50 0 \$0-create-pd-303! empty <--PD-303 17 7 0 10 #90d4b0 #000000 #000000;
#X obj 10 271 bng 15 250 50 0 \$0-create-polysynth! empty <--POLYSYNTH 17 7 0 10 #90d4b0 #000000 #000000;
#X obj 196 469 bng 15 250 50 0 \$0-create-maestro4! empty <--MAESTRO4(dac~) 17 7 0 10 #fcfcfc #000000 #000000;
#X obj 570 638 bng 15 250 50 0 \$0-create-random-time-manager! empty <--RANDOM-TIME-MANAGER 17 7 0 10 #9898dc #000000 #000000;
#X obj 196 574 bng 15 250 50 0 \$0-create-midi-out! empty <--MIDI-OUT 17 7 0 10 #fcfcfc #000000 #000000;
#X obj 196 676 bng 15 250 50 0 \$0-create-organelle-output! empty <--ORGANELLE-OUTPUT 17 7 0 10 #fcfcfc #000000 #000000;
#X obj 569 432 bng 15 250 50 0 \$0-create-audio-recorder! empty <--AUDIO-RECORDER 17 7 0 10 #90d4b0 #000000 #000000;
#X obj 10 396 bng 15 250 50 0 \$0-create-noise! empty <--NOISE 17 7 0 10 #fcfcfc #000000 #000000;
#X obj 10 416 bng 15 250 50 0 \$0-create-looper! empty <--LOOPER 17 7 0 10 #90d4b0 #000000 #000000;
#X obj 569 454 bng 15 250 50 0 \$0-create-multitrack-recorder! empty <--MULTITRACK-RECORDER 17 7 0 10 #90d4b0 #000000 #000000;
#X obj 383 408 bng 15 250 50 0 \$0-create-overdrive! empty <--OVERDRIVE 17 7 0 10 #90d4b0 #000000 #000000;
#X obj 383 427 bng 15 250 50 0 \$0-create-filterbank! empty <--PRESET-FILTERBANK 17 7 0 10 #90d4b0 #000000 #000000;
#X obj 383 446 bng 15 250 50 0 \$0-create-megaverb! empty <--MEGAVERB 17 7 0 10 #90d4b0 #000000 #000000;
#X obj 569 475 bng 15 250 50 0 \$0-create-external-audio! empty <--EXTERNAL-AUDIO 17 7 0 10 #90d4b0 #000000 #000000;
#X obj 383 388 bng 15 250 50 0 \$0-create-chorus! empty <--CHORUS 17 7 0 10 #fcfcfc #000000 #000000;
#X obj 383 190 bng 15 250 50 0 \$0-create-analog-filter! empty <--ANALOG-FILTER 17 7 0 10 #fcfcfc #000000 #000000;
#X obj 383 485 bng 15 250 50 0 \$0-create-compressor! empty <--COMPRESSOR 17 7 0 10 #9898dc #000000 #000000;
#X obj 10 593 bng 15 250 50 0 \$0-create-ratchet-seq! empty <--RATCHET-SEQ 17 7 0 10 #9898dc #000000 #000000;
#X obj 10 436 bng 15 250 50 0 \$0-create-sampler! empty <--SAMPLER 17 7 0 10 #90d4b0 #000000 #000000;
#X obj 10 575 bng 15 250 50 0 \$0-create-gate-seq! empty <--GATE-SEQ 17 7 0 10 #fcfcfc #000000 #000000;
#X obj 10 456 bng 15 250 50 0 \$0-create-chord-synth! empty <--CHORD-SYNTH 17 7 0 10 #9898dc #000000 #000000;
#X obj 383 505 bng 15 250 50 0 \$0-create-channel-eq! empty <--CHANNEL-EQ 17 7 0 10 #9898dc #000000 #000000;
#X obj 383 563 bng 15 250 50 0 \$0-create-audiofreeze! empty <--AUDIOFREEZE 17 7 0 10 #9898dc #000000 #000000;
#X obj 196 290 cnv 15 180 15 empty empty VCA/MIXERS: 10 8 0 12 #9898dc #fcfcfc 0;
#X obj 570 599 bng 15 250 50 0 \$0-create-param-nudge! empty <--PARAM-NUDGE 17 7 0 10 #9898dc #000000 #000000;
#X obj 570 619 bng 15 250 50 0 \$0-create-time-manager! empty <--TIME-MANAGER 17 7 0 10 #9898dc #000000 #000000;
#X obj 10 375 bng 15 250 50 0 \$0-create-percussion! empty <--PERCUSSION 17 7 0 10 #9898dc #000000 #000000;
#X obj 10 355 bng 15 250 50 0 \$0-create-hihat! empty <--HIHAT 17 7 0 10 #9898dc #000000 #000000;
#X obj 196 489 bng 15 250 50 0 \$0-create-random-mixer! empty <--RANDOM-MIXER 17 7 0 10 #9898dc #000000 #000000;
#X obj 10 476 bng 15 250 50 0 \$0-create-algomatrix! empty <--ALGOMATRIX 17 7 0 10 #9898dc #000000 #000000;
#X obj 383 523 bng 15 250 50 0 \$0-create-vintageverb! empty <--VINTAGEVERB 17 7 0 10 #9898dc #000000 #000000;
#X obj 383 543 bng 15 250 50 0 \$0-create-starlight! empty <--STARLIGHT 17 7 0 10 #9898dc #000000 #000000;
#X obj 383 583 bng 15 250 50 0 \$0-create-tremolo! empty <--TREMOLO 17 7 0 10 #9898dc #000000 #000000;
#X text 235 723 (New & updated modules for Automatonism v3.0 have PURPLE buttons), f 72;
#X text 236 702 (New & updated modules for Automatonism v2.0 have GREEN buttons), f 68;
#X obj 569 517 bng 15 250 50 0 \$0-create-manual-toggle! empty <--MANUAL-TOGGLE 17 7 0 10 #90d4b0 #000000 #000000;
#X obj 570 658 bng 15 250 50 0 \$0-create-macro-control! empty <--MACRO-CONTROL(Camomile/Plugdata) 17 7 0 10 #c4a0a0 #000000 #000000;
#X obj 10 616 cnv 15 180 15 empty empty EXTRAS: 10 8 0 12 #9898dc #fcfcfc 0;
#X obj 10 637 bng 15 250 50 0 \$0-create-extra-sampler! empty <--SAMPLER 17 7 0 10 #fcfcfc #000000 #000000;
#X obj 569 537 bng 15 250 50 0 \$0-create-playhead! empty <--PLAYHEAD(Camomile/Plugdata) 17 7 0 10 #c4a0a0 #000000 #000000;
#X obj 196 554 bng 15 250 50 0 \$0-create-midi-polyin! empty <--MIDI-POLY.IN 17 7 0 10 #c4a0a0 #000000 #000000;
#X obj 569 350 bng 15 250 50 0 \$0-create-euklid! empty <--EUKLID 17 7 0 10 #c4a0a0 #000000 #000000;
#X obj 669 111 bng 15 250 50 0 \$0-create-swing! empty <--SWING 17 7 0 10 #c4a0a0 #000000 #000000;
#X text 236 744 (New & updated modules for Automatonism RELOADED have BROWN buttons), f 73;
#X restore 364 775 pd \$0-modules;
#N canvas 526 265 1119 718 open_modules 0;
#X obj 31 8 inlet;
#X obj 340 264 delay 100;
#X obj 313 241 t b b;
#X msg 340 295 editmode 1;
#X obj 340 320 s \$1-this;
#X msg 316 346 vis 1;
#X obj 316 371 s pd-\$0-modules;
#X msg 295 65 1;
#X obj 295 90 s \$0-modules_menu_opened;
#X obj 283 165 r \$0-modules_menu_opened;
#X obj 282 192 select 0 1;
#X msg 256 344 vis 0;
#X obj 82 228 r \$0-esc-active;
#X obj 140 370 savestate;
#X obj 84 268 t f f;
#X obj 136 332 list;
#X msg 139 302 esc-active \$1;
#X obj 140 395 list trim;
#X obj 140 420 route esc-active;
#X obj 138 452 s \$0-esc-active-rcv;
#X obj 481 576 f \$0;
#X obj 478 604 s AUTOMATONISM_MENU_INSTANCE;
#X obj 480 543 r \$0-open-modules!;
#X obj 364 36 r \$0-open-modules!;
#X obj 43 517 s \$0-open-modules!;
#X obj 25 109 v \$0-modules_menu_opened;
#X obj 26 138 select 0 1;
#X msg 67 178 0;
#X obj 656 60 r \$0-open-palette!;
#X obj 611 446 s pd-\$0-palette;
#X obj 656 144 tgl 20 0 empty empty empty 0 -10 0 12 #fcfcfc #000000 #000000 0 1;
#X msg 610 408 vis \$1, f 7;
#X obj 22 45 list prepend 1;
#X obj 119 17 r \$0-esc-active;
#X obj 53 78 select 1 2;
#X obj 477 202 s \$0-open-palette!;
#X obj 674 299 list prepend 0;
#X obj 658 216 t f b;
#X obj 724 249 v IS_PLUGDATA;
#X obj 667 354 route 0 1;
#X msg 765 457 vis \$1;
#X obj 762 500 s pd-CreateAutomatonismPaletteForPlugdata.pd;
#X connect 0 0 32 0;
#X connect 1 0 3 0;
#X connect 2 0 5 0;
#X connect 2 1 1 0;
#X connect 3 0 4 0;
#X connect 5 0 6 0;
#X connect 7 0 8 0;
#X connect 9 0 10 0;
#X connect 10 0 11 0;
#X connect 10 1 2 0;
#X connect 11 0 6 0;
#X connect 12 0 14 0;
#X connect 13 0 17 0;
#X connect 13 1 15 0;
#X connect 14 1 16 0;
#X connect 15 0 13 0;
#X connect 16 0 15 1;
#X connect 17 0 18 0;
#X connect 18 0 19 0;
#X connect 20 0 21 0;
#X connect 22 0 20 0;
#X connect 23 0 7 0;
#X connect 25 0 26 0;
#X connect 26 0 24 0;
#X connect 26 1 11 0;
#X connect 26 1 27 0;
#X connect 27 0 8 0;
#X connect 28 0 30 0;
#X connect 30 0 37 0;
#X connect 31 0 29 0;
#X connect 32 0 34 0;
#X connect 33 0 32 1;
#X connect 34 0 25 0;
#X connect 34 1 35 0;
#X connect 36 0 39 0;
#X connect 37 0 36 0;
#X connect 37 1 38 0;
#X connect 38 0 36 1;
#X connect 39 0 31 0;
#X connect 39 1 40 0;
#X connect 40 0 41 0;
#X restore 94 726 pd open_modules;
#X text 213 607 appui sur la touche ESC pour faire apparaitre le menu MODULES, f 21;
#X obj 100 663 sel 27;
#X obj 399 579 t b b;
#X obj 733 859 change;
#X obj 911 721 r ACTIVE_DOLLARZERO;
#X msg 855 826 set \$1;
#X obj 412 662 s AUTOMATONISM_MENU_INSTANCE;
#X obj 145 551 r AUTOMATONISM_MENU_INSTANCE;
#X obj 745 723 loadbang;
#X text 171 417 iemguts;
#X text 144 342 else/plugdata;
#N canvas 1003 228 313 360 dynamic_patching_stuff 0;
#N canvas 0 57 1920 1023 oscillators 0;
#X obj 24 9 module_create \$0 \$1 basic-osc;
#X obj 24 42 module_create \$0 \$1 bwl-osc;
#X obj 31 89 module_create \$0 \$1 2op-fm;
#X obj 25 112 module_create \$0 \$1 karplus;
#X obj 24 136 module_create \$0 \$1 trigons;
#X obj 33 184 module_create \$0 \$1 kick;
#X obj 28 212 module_create \$0 \$1 snare;
#X obj 30 237 module_create \$0 \$1 noise;
#X obj 29 262 module_create \$0 \$1 polysynth;
#X obj 29 283 module_create \$0 \$1 polyfm;
#X obj 31 307 module_create \$0 \$1 pd-303;
#X obj 31 330 module_create \$0 \$1 looper;
#X obj 30 352 module_create \$0 \$1 sampler;
#X obj 30 404 module_create \$0 \$1 chord-synth;
#X obj 30 429 module_create \$0 \$1 complex-percussion;
#X obj 30 453 module_create \$0 \$1 complex-kick;
#X obj 30 477 module_create \$0 \$1 complex-snare;
#X obj 30 502 module_create \$0 \$1 hihat;
#X obj 286 2 module_create \$0 \$1 algomatrix;
#X obj 27 66 module_create \$0 \$1 wtable;
#X obj 32 159 module_create \$0 \$1 triad;
#X obj 30 378 module_create \$0 \$1 percussion;
#N canvas 0 50 450 250 (subpatch) 0;
#X text 0 0 plugdatainfo <?xml version="1.0" encoding="UTF-8"?> <plugdatainfo/>;
#X coords 0 1 100 -1 15 15 1;
#X restore 0 0 graph;
#X restore 37 31 pd oscillators;
#N canvas 0 23 992 769 sound-processors 0;
#X obj 31 47 module_create \$0 \$1 lp-filter;
#X obj 31 71 module_create \$0 \$1 ladder-filter;
#X obj 31 93 module_create \$0 \$1 hp-filter;
#X obj 31 117 module_create \$0 \$1 bp-filter;
#X obj 31 141 module_create \$0 \$1 analog-filter;
#X obj 30 164 module_create \$0 \$1 bob-filter;
#X obj 30 186 module_create \$0 \$1 formant;
#X obj 30 210 module_create \$0 \$1 bitcrush;
#X obj 30 234 module_create \$0 \$1 wavefold;
#X obj 30 258 module_create \$0 \$1 phasor;
#X obj 30 282 module_create \$0 \$1 combfilter;
#X obj 30 306 module_create \$0 \$1 granular-delay;
#X obj 30 330 module_create \$0 \$1 millerverb;
#X obj 30 354 module_create \$0 \$1 stereo-delay;
#X obj 286 49 module_create \$0 \$1 tremolo;
#X obj 289 77 module_create \$0 \$1 audiofreeze;
#X obj 289 108 module_create \$0 \$1 starlight;
#X obj 30 378 module_create \$0 \$1 chorus;
#X obj 30 402 module_create \$0 \$1 overdrive;
#X obj 30 426 module_create \$0 \$1 filterbank;
#X obj 30 449 module_create \$0 \$1 megaverb;
#X obj 30 471 module_create \$0 \$1 pitchshifter;
#X obj 30 494 module_create \$0 \$1 compressor;
#X obj 30 515 module_create \$0 \$1 channel-eq;
#X obj 30 537 module_create \$0 \$1 vintageverb;
#X restore 37 53 pd sound-processors;
#N canvas 0 112 371 457 modulation 0;
#X obj 14 112 module_create \$0 \$1 ahr;
#X obj 14 135 module_create \$0 \$1 slope;
#X obj 14 158 module_create \$0 \$1 decay;
#X obj 14 183 module_create \$0 \$1 basic-lfo;
#X obj 14 204 module_create \$0 \$1 random-gates;
#X obj 14 234 module_create \$0 \$1 s&h;
#X obj 14 260 module_create \$0 \$1 adsr;
#X obj 14 285 module_create \$0 \$1 random-voltages;
#X obj 14 309 module_create \$0 \$1 sinebank;
#X restore 37 75 pd modulation;
#N canvas 0 112 283 349 vca/mixers 0;
#X obj 14 20 module_create \$0 \$1 vca;
#X obj 13 41 module_create \$0 \$1 lpg;
#X obj 13 63 module_create \$0 \$1 xfade;
#X obj 13 85 module_create \$0 \$1 3way-xfade;
#X obj 13 108 module_create \$0 \$1 polarizer;
#X obj 13 131 module_create \$0 \$1 mixer2;
#X obj 13 154 module_create \$0 \$1 mixer4;
#X obj 13 177 module_create \$0 \$1 toggle-matrix;
#X obj 14 198 module_create \$0 \$1 maestro4;
#X obj 14 225 module_create \$0 \$1 random-mixer;
#X restore 37 97 pd vca/mixers;
#N canvas 0 172 348 548 utility/logic 0;
#X obj 14 20 module_create \$0 \$1 clock;
#X obj 14 43 module_create \$0 \$1 clock-multiply;
#X obj 15 68 module_create \$0 \$1 clock-divider-even;
#X obj 14 93 module_create \$0 \$1 clock-divider-odd;
#X obj 14 118 module_create \$0 \$1 vc-counter;
#X obj 14 140 module_create \$0 \$1 trigger-delay;
#X obj 14 162 module_create \$0 \$1 inverter;
#X obj 14 184 module_create \$0 \$1 scope;
#X obj 14 207 module_create \$0 \$1 slew;
#X obj 14 231 module_create \$0 \$1 probability;
#X obj 14 255 module_create \$0 \$1 quantizer;
#X obj 14 312 module_create \$0 \$1 4to1-switch;
#X obj 13 337 module_create \$0 \$1 1to4-switch;
#X obj 14 368 module_create \$0 \$1 env-follower;
#X obj 14 391 module_create \$0 \$1 trigger-train;
#X obj 14 416 module_create \$0 \$1 audio-recorder;
#X obj 14 442 module_create \$0 \$1 multitrack-recorder;
#X obj 15 467 module_create \$0 \$1 external-audio;
#X obj 15 494 module_create \$0 \$1 manual-triggers;
#X obj 15 514 module_create \$0 \$1 manual-toggle;
#X obj 15 534 module_create \$0 \$1 playhead;
#X obj 14 285 module_create \$0 \$1 euklid;
#X obj 250 17 module_create \$0 \$1 swing;
#X restore 37 119 pd utility/logic;
#N canvas 0 142 248 332 sequencers 0;
#X obj 14 20 module_create \$0 \$1 8steps;
#X obj 14 43 module_create \$0 \$1 mega-sequencer;
#X obj 14 67 module_create \$0 \$1 trigger-seq;
#X obj 14 93 module_create \$0 \$1 gate-seq;
#X obj 14 118 module_create \$0 \$1 ratchet-seq;
#X restore 37 141 pd sequencers;
#N canvas 0 112 287 294 organelle-modules 0;
#X obj 14 32 module_create \$0 \$1 organelle-knobs;
#X obj 14 57 module_create \$0 \$1 organelle-keyboard;
#X obj 15 83 module_create \$0 \$1 organelle-adsr;
#X obj 14 106 module_create \$0 \$1 organelle-aux;
#X obj 13 129 module_create \$0 \$1 audio-in;
#X obj 13 152 module_create \$0 \$1 poly-pulse;
#X obj 13 176 module_create \$0 \$1 poly-saw;
#X obj 13 202 module_create \$0 \$1 organelle-output;
#X restore 37 163 pd organelle-modules;
#N canvas 0 22 465 369 midi-modules 0;
#X obj 15 32 module_create \$0 \$1 midi-in;
#X obj 15 63 module_create \$0 \$1 cc-in;
#X obj 13 87 module_create \$0 \$1 midi-out;
#X obj 10 114 module_create \$0 \$1 cc-out;
#X obj 10 144 module_create \$0 \$1 midi-polyin;
#X restore 37 185 pd midi-modules;
#N canvas 0 82 229 228 user-made-modules 0;
#X restore 37 207 pd user-made-modules;
#N canvas 0 22 450 300 macro-structural-tools 0;
#X obj 20 30 module_create \$0 \$1 preset-manager;
#X obj 20 63 module_create \$0 \$1 param-nudge;
#X obj 20 93 module_create \$0 \$1 morph-seq;
#X obj 20 119 module_create \$0 \$1 time-manager;
#X obj 20 147 module_create \$0 \$1 random-time-manager;
#X obj 20 177 module_create \$0 \$1 macro-control;
#X restore 38 230 pd macro-structural-tools;
#N canvas 1164 203 342 191 extra-modules 0;
#X obj 13 21 module_create \$0 \$1 extra-sampler;
#X restore 38 254 pd extra-modules;
#X restore 361 737 pd dynamic_patching_stuff;
#X obj 480 172 is_patch_editor_path_declared;
#X text 444 36 dynamically add [declare -path] to parent canvas if not declared, f 22;
#X obj 459 79 loadbang;
#X obj 455 141 t b b;
#X obj 455 198 f;
#X obj 455 227 select 0;
#X msg 456 260 obj 10 10 declare -path automatonism/patch_editor_abs;
#X obj 459 291 s \$0-target_patch;
#X msg 557 213 adding [declare] object to main patch;
#X obj 557 242 print Automatonism;
#X obj 801 870 v ACTIVE_DOLLARZERO;
#X obj 855 789 select 0;
#X obj 733 795 f \$0, f 14;
#X obj 699 669 r \$0-open-modules!;
#N canvas 0 57 1920 1023 manual_popups 0;
#N canvas 236 274 442 200 \$0-state-saving 0;
#X obj 17 12 cnv 15 400 60 empty empty STATE_SAVING 20 12 0 14 #dc4c90 #fcfcfc 0;
#N canvas 2 586 450 300 deprecated 0;
#X text 20 22 The state saving system works by writing parameter values to reloaded/textfile \$0s in the folder "statesave" inside the "patch_editor_abs" folder. When you load a module form the module list it is automatically being given a unique creation argument which creates a reloaded/textfile \$0 unique for that instance of the module. To save your patch \, simply save as you normally would from the FILE menu and the press ENTER on your keyboard or click the SAVE button in the upper left corner of the main window.;
#X text 20 196 IMPORTANT!!! To start a new project \, the entire folder structure needs to be copied since the abstractions and reloaded/textfile \$0s are unique to every project. Click the RESET button in the upper left corner to reset the counter that gives unique creation arguments for the modules.;
#X restore 31 143 pd deprecated;
#X restore 35 504 pd \$0-state-saving;
#X obj 34 526 r \$0-open-state-saving!;
#X msg 34 547 vis 1;
#X obj 34 571 s pd-\$0-state-saving;
#X obj 443 261 r \$0-open-quick-guide!;
#N canvas 0 23 1004 774 \$0-quick-guide 0;
#X obj 17 17 cnv 15 750 60 empty empty Welcome_to_AUTOMATONISM:_Making_Music_with_Self-playing_Machines 20 12 0 14 #90d4b0 #fcfcfc 0;
#X text 19 86 FOLLOW THESE SIMPLE STEPS TO GET STARTED:;
#X text 19 127 1 When starting the AUTOMATONISM you'll see a list of all current available modules to the right. Click the button to the left of the module you want to load and it will appear to the left in the parent window. The module list will then disappear. To call back the module list you can click the grey link in the upper left called "MODULES(esc) or simply upress "esc" on your keyboard;
#X text 19 246 2 Create a BASIC-OSC from the module list.;
#X text 20 422 4 Pure Data has an EDIT MODE and a PERFORMANCE MODE. To make patch connections between objects we need to be in EDIT MODE and to interact with the GUI we need to be in PERFORMANCE MODE. Toggle between the two modes with cmd+e.;
#X text 23 289 3 Open the module list and create the module in the lower right corner called MAESTRO4(dac~). This is the digital-to-analog-converter and is one of the modules that passes on sound to your speakers. Now you can soon make a sound.;
#X text 19 519 5 All inputs are at the top of the modules and all outputs are at the bottom. In EDIT MODE \, connect the BASIC-OSC's output CH1 on the MAESTRO4. Now \, you should have sound. Switch to PERFORMANCE MODE and use the mouse to move the PITCH slider on the BASIC-OSC module.;
#X text 20 622 6 Right click on any module and choose HELP to read more about a module's functions.;
#X text 464 245 8 You can call modules without using the module list simply by creating a new object in pd and type the module's name. For the state saving mechanism to work properly you do need to give the module a unique numerical argument. Type "basic-osc 1" for an oscillator and "basic-osc 2" if you need another one. By using the MODULES list this unique numbering is done automatically for you. Use the RESET link in the upper left corner when starting a new patch as this will reset the counter of unique numbers for modules.;
#X text 33 42 RIGHT+CLICK & CHOOSE 'HELP' ON ANY MODULE!;
#X text 464 125 7 To save parameter states on each module \, you have to save the pd file \, like you normally would do from the FILE menu or cmd+s;
#X restore 443 238 pd \$0-quick-guide;
#X msg 443 283 vis 1;
#X obj 443 307 s pd-\$0-quick-guide;
#X msg 439 386 vis 1;
#X obj 439 411 s pd-\$0-signal-flow;
#X obj 439 364 r \$0-open-signal-flow!;
#N canvas 416 23 852 668 \$0-signal-flow 0;
#X obj 22 10 cnv 15 365 30 empty empty SIGNAL-FLOW 20 12 0 14 #dc4c90 #fcfcfc 0;
#X obj 26 161 hsl 128 15 0 127 0 0 empty empty empty -2 -8 0 10 #9898dc #fcfcfc #000000 0 1;
#X obj 24 214 hsl 128 15 0 127 0 0 empty empty empty -2 -8 0 10 #90d4b0 #000000 #000000 0 1;
#X obj 21 281 cnv 5 5 5 empty empty CLOCK-IN 0 0 0 8 #fcfcfc #dc4c90 0;
#X text 17 328 All inputs and outputs in the editor are at signal rate within the range of -1 to 1 In contrast to normal pd-programming there is no distinction between control rate and signal rate messages. Everything is converted to signal rate.;
#X msg 20 439 bang;
#X msg 20 461 1 0 \, 0 1 1;
#X obj 20 483 vline~;
#X msg 23 535 bang;
#X msg 23 557 1 0 \, 0 1 1;
#X obj 23 579 vline~;
#X msg 23 623 bang;
#X text 19 404 How to convert a simple bang to a trigger/gate signal in the patch editor:;
#X obj 23 601 threshold~ 0.99 0 1 0;
#X text 21 518 How to convert back to a control rate bang:;
#X obj 404 569 hsl 128 15 0 127 0 0 empty empty empty -2 -8 0 10 #fcfcfc #000000 #000000 0 1;
#X obj 401 589 / 127;
#X obj 401 611 sig~;
#X text 398 534 How convert control numbers to the patch editor's signal flow:;
#X text 541 568 0-127;
#X text 21 178 Purple sliders and inlets means the slider will function as an attenuator for incoming CV.;
#X text 21 48 There are three types of signals in the patch editor: audio \, cv and trigger/gate/pulse/clock. The latter are marked with PINK inlets and outlets. General rule in the patch editor is that all connections are possible. Or \, at least \, just like in any hardware modular system - all connections might not work but there's no harm in trying. ! ! The patch-editor uses color-coding to clarify the signal flow as much as possible.;
#X text 18 287 And pink inlets means the input is expecting a trigger/gate signal to function properly.;
#X text 19 230 Green sliders and inlets tells you that the parameter is bi-polar \, most oftenly working as an attenueverter for incoming CV.;
#X connect 5 0 6 0;
#X connect 6 0 7 0;
#X connect 8 0 9 0;
#X connect 9 0 10 0;
#X connect 10 0 13 0;
#X connect 13 0 11 0;
#X connect 15 0 16 0;
#X connect 16 0 17 0;
#X restore 440 342 pd \$0-signal-flow;
#X msg 437 496 vis 1;
#X obj 437 520 s pd-\$0-color-code;
#N canvas 138 156 591 276 \$0-color-code 0;
#X obj 140 39 hsl 128 15 0 127 0 0 empty empty empty -2 -8 0 10 #9898dc #fcfcfc #000000 0 1;
#X obj 140 100 hsl 128 15 0 127 0 0 empty empty empty -2 -8 0 10 #90d4b0 #000000 #000000 0 1;
#X obj 137 175 cnv 5 5 5 empty empty CLOCK-IN 0 0 0 8 #fcfcfc #dc4c90 0;
#X text 134 56 Purple sliders and inlets means the slider will function as an attenuator for incoming CV.;
#X text 133 117 Green sliders and inlets tells you that the parameter is bi-polar \, most oftenly working as an attenueverter for incoming CV.;
#X text 135 181 And pink inlets means the input is expecting a trigger/gate signal or short impulse(square-wave) to function properly.;
#X restore 438 452 pd \$0-color-code;
#N canvas 292 594 377 372 \$0-manual 0;
#X obj 17 12 cnv 15 320 60 empty empty WELCOME-TO-THE-AUTOMATONISM-MANUAL! 20 12 0 14 #90d4b0 #fcfcfc 0;
#X obj 22 82 hsl 115 30 0 127 0 0 \$0-open-signal-flow! empty empty -2 -8 0 10 #fcfcfc #000000 #000000 0 1;
#X obj 79 82 cnv 15 60 30 empty empty FLOW 6 12 0 14 #e0e0e0 #404040 0;
#X obj 19 82 cnv 15 60 30 empty empty SIGNAL 4 12 0 14 #e0e0e0 #404040 0;
#X obj 21 119 hsl 115 30 0 127 0 0 \$0-open-color-code! empty empty -2 -8 0 10 #fcfcfc #000000 #000000 0 1;
#X obj 79 119 cnv 15 60 30 empty empty CODE 6 12 0 14 #e0e0e0 #404040 0;
#X obj 18 119 cnv 15 60 30 empty empty COLOR 18 12 0 14 #e0e0e0 #404040 0;
#X obj 21 157 hsl 115 30 0 127 0 0 \$0-open-state-saving! empty empty -2 -8 0 10 #fcfcfc #000000 #000000 0 1;
#X obj 79 157 cnv 15 60 30 empty empty SAVING 6 12 0 14 #e0e0e0 #404040 0;
#X obj 18 157 cnv 15 60 30 empty empty STATE 18 12 0 14 #e0e0e0 #404040 0;
#X obj 21 196 hsl 115 30 0 127 0 0 \$0-open-help-files! empty empty -2 -8 0 10 #fcfcfc #000000 #000000 0 1;
#X obj 79 196 cnv 15 60 30 empty empty FILES 6 12 0 14 #e0e0e0 #404040 0;
#X obj 18 196 cnv 15 60 30 empty empty HELP 18 12 0 14 #e0e0e0 #404040 0;
#X obj 20 232 hsl 155 30 0 127 0 0 \$0-open-folder-hierarchy! empty empty -2 -8 0 10 #fcfcfc #000000 #000000 0 1;
#X obj 78 232 cnv 15 100 30 empty empty HIERARCHY 20 12 0 14 #e0e0e0 #404040 0;
#X obj 17 232 cnv 15 60 30 empty empty FOLDER 18 12 0 14 #e0e0e0 #404040 0;
#X obj 21 268 hsl 170 30 0 127 0 0 \$0-open-feedback-loops! empty empty -2 -8 0 10 #fcfcfc #000000 #000000 0 1;
#X obj 16 268 cnv 15 180 30 empty empty FEEDBACK-&-DSP-LOOPS 18 12 0 14 #e0e0e0 #404040 0;
#X obj 19 304 hsl 115 30 0 127 0 0 \$0-open-license! empty empty -2 -8 0 10 #fcfcfc #000000 #000000 0 1;
#X obj 16 304 cnv 15 120 30 empty empty LICENSE 18 12 0 14 #e0e0e0 #404040 0;
#X obj 160 81 hsl 155 30 0 127 0 0 \$0-open-external-msg! empty empty -2 -8 0 10 #fcfcfc #000000 #000000 0 1;
#X obj 152 81 cnv 15 120 30 empty empty EXTERNAL 18 12 0 14 #e0e0e0 #404040 0;
#X obj 237 81 cnv 15 80 30 empty empty MESSAGES 6 12 0 14 #e0e0e0 #404040 0;
#X obj 155 119 hsl 115 30 0 127 0 0 \$0-open-midi-mapping! empty empty -2 -8 0 10 #fcfcfc #000000 #000000 0 1;
#X obj 152 119 cnv 15 60 30 empty empty MIDI 18 12 0 14 #e0e0e0 #404040 0;
#X obj 213 119 cnv 15 60 30 empty empty MAPPING -5 12 0 14 #e0e0e0 #404040 0;
#X restore 438 566 pd \$0-manual;
#X obj 438 590 r \$0-open-manual!;
#X msg 438 612 vis 1;
#X obj 438 636 s pd-\$0-manual;
#X obj 437 474 r \$0-open-color-code!;
#X obj 628 257 r open-organelle-map!;
#X obj 633 357 r open-tips-&-tricks!;
#X msg 633 410 \; pd-tips-&-tricks vis \$1;
#X obj 627 142 r \$0-open-help-files!;
#X msg 627 168 vis 1;
#N canvas 93 118 438 191 \$0-help-files 0;
#X obj 17 12 cnv 15 400 60 empty empty HELP-FILES 20 12 0 14 #dc4c90 #fcfcfc 0;
#X text 20 84 Right + click on individual modules and choose "HELP" to access detailed help-files on each modules inlets \, outlets and functionalities.;
#X restore 627 121 pd \$0-help-files;
#X obj 627 192 s pd-\$0-help-files;
#X msg 628 279 vis 1;
#X obj 628 303 s pd-\$0-organelle-map;
#N canvas 0 22 434 295 \$0-organelle-map 0;
#X obj 17 12 cnv 15 400 60 empty empty MAPPING-ORGANELLE-KNOBS/KEYS 20 12 0 14 #dc4c90 #fcfcfc 0;
#X text 20 84 There are specific modules for integrating the Organelle knobs and keyboard into your patches. Use "organelle-keyboard and "organelle-knobs" to connect the keyboard or knobs to parameter values in your patch. Remember that the parameter slider on the module acts as an offset when external cv is connected so set the slider to zero to access the entire range of the parameter with the organelle keyboard or knobs. See the"organelle-keyboard" and "organelle-knobs" help-files for more info. There are many ways to use PD with the Organelle. The "organelle-keyboard" and "organelle-knobs" modules use a simplistic approach. Use your own more elaborate pd-code for deeper control.;
#X restore 628 236 pd \$0-organelle-map;
#N canvas 0 22 435 328 \$0-tips-&-tricks 0;
#X obj 17 12 cnv 15 400 60 empty empty TIPS&TRICKS 20 12 0 14 #dc4c90 #fcfcfc 0;
#X text 20 110 Hide portions of a complex patch in a subpatch to gain more space.;
#X text 20 175 Don't forget to use utility modules;
#X text 20 201 Existing modular synthesis tutorials ond patches can be translated to the XOUDLAR playGROUND \; like nord modular patches \, sound on sound synthesis secrets \, allen strange's book \, make noise shared system patches \, buchla patches etc;
#X text 20 84 Useful tips and tricks:;
#X text 20 149 Use [switch~] in subpatches in large projects too free CPU;
#X text 20 266 If you want two same modules to share exact parameters copy&paste the module instead of loading a new from the module list.;
#X restore 635 334 pd \$0-tips-&-tricks;
#N canvas 0 23 432 503 \$0-advanced-pd-users 0;
#X obj 17 12 cnv 15 400 60 empty empty ADVANCED-PD-USERS 20 12 0 14 #e0e0e0 #404040 0;
#X text 20 84 Some useful information for advanced pd users who want to change \, interact or expand on the XODULAR PLAYGROUND code:;
#X text 21 141 LOREM IPSUM;
#X restore 632 464 pd \$0-advanced-pd-users;
#N canvas 0 22 673 716 \$0-make-your-own-module 0;
#X obj 17 12 cnv 15 400 60 empty empty MAKE-YOUR-OWN-MODULE 20 12 0 14 #dc4c90 #fcfcfc 0;
#X msg 24 128 bang;
#X msg 24 150 1 0 \, 0 1 1;
#X obj 24 172 vline~;
#X msg 23 222 bang;
#X msg 23 244 1 0 \, 0 1 1;
#X obj 23 266 vline~;
#X msg 23 310 bang;
#X text 23 93 How to convert a simple bang to a trigger/gate signal in the patch editor:;
#X obj 23 288 threshold~ 0.99 0 1 0;
#X text 21 205 How to convert back to a control rate bang:;
#X obj 28 389 hsl 128 15 0 127 0 0 empty empty empty -2 -8 0 10 #fcfcfc #000000 #000000 0 1;
#X obj 25 409 / 127;
#X obj 25 431 sig~;
#X text 22 354 How convert control numbers to the patch editor's signal flow:;
#X text 165 388 0-127;
#X text 21 509 GRAPH ON PARENT;
#X text 22 539 MODULE TITLE;
#X text 24 575 INLET/OUTLET LABELS;
#X text 33 614 STATE-SAVING;
#X text 20 477 CV INPUTS:;
#X connect 1 0 2 0;
#X connect 2 0 3 0;
#X connect 4 0 5 0;
#X connect 5 0 6 0;
#X connect 6 0 9 0;
#X connect 9 0 7 0;
#X connect 11 0 12 0;
#X connect 12 0 13 0;
#X restore 631 567 pd \$0-make-your-own-module;
#X msg 633 379 vis 1;
#X obj 630 487 r \$0-open-advanced-pd-users!;
#X msg 630 509 vis 1;
#X obj 630 533 s pd-\$0-advanced-pd-users;
#X obj 629 590 r \$0-open-make-your-own-module!;
#X msg 629 612 vis 1;
#X obj 629 636 s pd-\$0-make-your-own-module;
#X obj 828 139 r \$0-reset!;
#X obj 828 161 delay 500;
#N canvas 293 233 501 213 \$0-reset-warning 0;
#X obj 21 143 bng 15 250 50 0 \$0-reset! empty <--RESET! 17 7 0 10 #fcfcfc #000000 #000000;
#X text 18 49 WARNING!;
#X text 19 68 Never press the RESET! button in the middle of working of a patch since it can cause the state saving mechanism to malfunction. Only use it when starting a new patch and you want the module counters to start over at zero. PRESS THE BUTTON BELOW TO RESET:;
#X restore 827 37 pd \$0-reset-warning;
#X obj 828 62 r \$0-open-reset-warning!;
#X msg 828 84 vis 1;
#X msg 831 311 vis 1;
#X obj 828 108 s pd-\$0-reset-warning;
#X msg 828 185 vis 0;
#X obj 828 208 s pd-\$0-reset-warning;
#N canvas 472 160 457 575 \$0-external-msg 0;
#X obj 17 12 cnv 15 400 60 empty empty EXTERNAL_MESSAGES 20 12 0 14 #dc4c90 #fcfcfc 0;
#X text 27 86 You can send external control messages into Automatonism modules since Automatonsim 3.0. This makes it easier to map midi controllers to specific parameters and integrate your patches with other Pure Data patches. External Messages routing in Automatonism works like this:;
#X obj 41 181 hsl 128 15 0 127 0 0 empty empty 0-127 -2 -8 0 10 #fcfcfc #000000 #000000 0 1;
#X floatatom 38 201 5 0 0 0 - - - 0;
#X msg 38 221 PITCH \$1 1;
#X obj 38 242 s basic-osc;
#X text 36 276 Send a value between 0-127;
#X text 38 395 To control the P-WIDTH slider of the BASIC-OSC with instance number 3 \, do this instead:;
#X obj 41 451 hsl 128 15 0 127 0 0 empty empty 0-127 -2 -8 0 10 #fcfcfc #000000 #000000 0 1;
#X floatatom 38 471 5 0 0 0 - - - 0;
#X msg 38 491 P-WIDTH \$1 3;
#X obj 38 512 s basic-osc;
#X text 37 296 Write a message where the first word is the name of the slider you are trying to externally control \, type "\$1" to pass on your value to the module and finally type the instance number of the specific module you want to control. The instance number is always showcased to the right of the module's title. Then create a send object and send to the name of the module \, for example [s basic-osc];
#X connect 2 0 3 0;
#X connect 3 0 4 0;
#X connect 4 0 5 0;
#X connect 8 0 9 0;
#X connect 9 0 10 0;
#X connect 10 0 11 0;
#X restore 833 266 pd \$0-external-msg;
#X obj 831 289 r \$0-open-external-msg!;
#X obj 831 335 s pd-\$0-external-msg;
#X msg 831 421 vis 1;
#N canvas 472 160 579 624 \$0-midi-mapping 0;
#X obj 17 12 cnv 15 400 60 empty empty MIDI_MAPPING 20 12 0 14 #dc4c90 #fcfcfc 0;
#X obj 12 140 vradio 50 1 0 3 \$0-edit_mapping empty empty 0 -8 0 10 #fcfcfc #000000 #000000 0;
#X obj 12 140 tgl 50 0 MIDI_LEARN MIDI_LEARN-rcv MIDI_LEARN 2 7 0 10 #fce0c4 #000000 #000000 0 1;
#X obj 12 190 tgl 50 0 MIDI_MAP_FROM MIDI_MAP_FROM-rcv MAP_FROM 2 7 0 10 #c4fcc4 #000000 #000000 0 1;
#X obj 12 240 tgl 50 0 MIDI_MAP_TO MIDI_MAP_TO-rcv MAP_TO 2 7 0 10 #c4fcfc #000000 #000000 0 1;
#X text 122 143 2) move your midi controler;
#X text 117 259 1) click LEARN \, but don't touch your midi controler;
#X text 116 276 2) then click to the target slider you want to unmap;
#X text 87 231 * to cancel a midi-mapping :;
#X text 84 94 * to create a midi-mapping;
#X text 122 124 1) click MIDI_LEARN;
#X text 122 164 3) then click to the target widget you want to midi-map;
#X text 122 362 1) click on MAP_FROM (resp. MAP_TO);
#X text 124 388 2) editable widgets become green (resp. blue);
#X text 82 335 * to edit bounds values;
#X text 125 414 3) With the mouse \, change the bound value \, then uncheck MAP_FROM (MAP_TO);
#X text 158 185 (mappable widgets are drawn in orange);
#X restore 833 376 pd \$0-midi-mapping;
#X obj 831 399 r \$0-open-midi-mapping!;
#X obj 831 445 s pd-\$0-midi-mapping;
#X obj 861 501 r \$0-open-folder-hierarchy!;
#N canvas 0 233 420 254 \$0-folder-hierarchy 0;
#X obj 17 12 cnv 15 400 60 empty empty FOLDER-HIEARCHY 20 12 0 14 #dc4c90 #fcfcfc 0;
#X text 20 84 Inside your project folder you'll find a file called "main.pd" and a folder called "patch_editor_abs". The "main.pd" must stay named the same for Automatonism to function properly. Also \, each of your projects/patches needs tp be in a separet folder with its own "main.pd" and "patch_editor_abs" folder. Copy & paste the project folder \, which you can give any name \, when you want to start a new project/patch.;
#X restore 862 478 pd \$0-folder-hierarchy;
#X msg 861 523 vis 1;
#X obj 861 547 s pd-\$0-folder-hierarchy;
#N canvas 0 233 420 323 \$0-feedback-loops 0;
#X obj 17 12 cnv 15 400 60 empty empty FEEDBACK-&-DSP-LOOPS 20 12 0 14 #dc4c90 #fcfcfc 0;
#X text 23 83 Feedback patching is very much possible in the AUTOMATONISM \, just a little bit differently from physical modular systems. If you try to patch a module into itself or any kind of feedback routing \, Pure Data will become silent and you'll get a "DSP loop detected" message in the Pd window. To avoid this you need to delay the signal a tiny tiny bit. Normal [send~) and [receive~] objects automatically does this in Pd. Send the signal to be feedbacked into a [send~ MyFeedback] and pick it up using [receive~ MyFeedback] and then patch into the input to close the feedback loop. Obviously "MyFeedback" could be anything and the abbreviationfor send and receive [s~] and [r~] work equally as well.;
#X restore 1069 481 pd \$0-feedback-loops;
#X obj 1067 504 r \$0-open-feedback-loops!;
#X msg 1067 526 vis 1;
#X obj 1067 550 s pd-\$0-feedback-loops;
#N canvas 0 23 439 625 \$0-license 0;
#X obj 17 12 cnv 15 400 60 empty empty LICENSE 20 12 0 14 #e0e0e0 #404040 0;
#X text 23 83 Copyright  2017 \, Johan Eriksson Automatonism is free software: you can redistribute it and/or modify it under the terms of the GNU General Public License as published by the Free Software Foundation \, either version 3 of the License \, or any later version. This program is distributed in the hope that it will be useful \, but WITHOUT ANY WARRANTY \; without even the implied warranty of MERCHANTABILITY or FITNESS FOR A PARTICULAR PURPOSE. See the GNU General Public License for more details.;
#X restore 1068 595 pd \$0-license;
#X obj 1066 618 r \$0-open-license!;
#X msg 1066 640 vis 1;
#X obj 1066 664 s pd-\$0-license;
#N canvas 0 23 432 503 \$0-export-patches 0;
#X obj 17 12 cnv 15 400 60 empty empty EXPORT-PATCH 20 12 0 14 #e0e0e0 #404040 0;
#X text 20 84 So \, how do you export patces made in the editor to the Organelle?;
#X text 26 131 LOREM IPSUM.;
#X restore 858 605 pd \$0-export-patches;
#X obj 857 628 r \$0-open-export-patches!;
#X msg 857 650 vis 1;
#X obj 857 674 s pd-\$0-export-patches;
#X connect 1 0 2 0;
#X connect 2 0 3 0;
#X connect 4 0 6 0;
#X connect 6 0 7 0;
#X connect 8 0 9 0;
#X connect 10 0 8 0;
#X connect 12 0 13 0;
#X connect 16 0 17 0;
#X connect 17 0 18 0;
#X connect 19 0 12 0;
#X connect 20 0 27 0;
#X connect 21 0 33 0;
#X connect 23 0 24 0;
#X connect 24 0 26 0;
#X connect 27 0 28 0;
#X connect 33 0 22 0;
#X connect 34 0 35 0;
#X connect 35 0 36 0;
#X connect 37 0 38 0;
#X connect 38 0 39 0;
#X connect 40 0 41 0;
#X connect 41 0 47 0;
#X connect 43 0 44 0;
#X connect 44 0 46 0;
#X connect 45 0 51 0;
#X connect 47 0 48 0;
#X connect 50 0 45 0;
#X connect 52 0 55 0;
#X connect 54 0 52 0;
#X connect 56 0 58 0;
#X connect 58 0 59 0;
#X connect 61 0 62 0;
#X connect 62 0 63 0;
#X connect 65 0 66 0;
#X connect 66 0 67 0;
#X connect 69 0 70 0;
#X connect 70 0 71 0;
#X coords 0 -1 1 1 85 60 0;
#X restore 360 821 pd manual_popups;
#X text 47 15 AUTOMATONISM;
#X obj 815 67 declare -path iemguts;
#X obj 248 344 canvas.setname \$0-target_patch 1;
#X obj 394 547 canvas.mouse 1 0 1;
#X obj 810 94 declare -lib iemguts;
#N canvas 0 25 450 300 check_installed_externals 0;
#X obj 98 24 inlet;
#X obj 96 241 outlet;
#X text 326 204 vanilla;
#X obj 317 232 spigot \$1;
#X obj 319 258 s \$1-this;
#X obj 96 130 spigot 0;
#X obj 183 21 loadbang;
#X obj 183 46 f \$1;
#X obj 182 71 select 0;
#X msg 180 98 1;
#X obj 96 206 spigot;
#X obj 123 176 r ELSE_NOT_LOADED;
#X text 111 268 iemguts;
#X connect 0 0 5 0;
#X connect 0 0 3 0;
#X connect 3 0 4 0;
#X connect 5 0 10 0;
#X connect 6 0 7 0;
#X connect 7 0 8 0;
#X connect 8 0 9 0;
#X connect 9 0 5 1;
#X connect 10 0 1 0;
#X connect 11 0 10 1;
#X restore 244 399 pd check_installed_externals;
#X msg 1387 146 \; pd dsp 0;
#X obj 1386 44 loadbang;
#X obj 1387 121 delay 1;
#X obj 1387 74 t b b;
#X msg 1483 180 \; pd dsp 1;
#X obj 1483 125 delay 1000;
#N canvas 237 262 676 547 savestate 0;
#X obj 277 426 s pd-preset-manager.pd;
#X msg 90 191 menusave;
#X obj 92 334 savestate;
#X obj 168 366 spigot 1;
#X msg 213 265 0;
#X obj 52 240 delay 100;
#X msg 78 270 1;
#X obj 176 115 s ACTIVE_DOLLARZERO;
#X obj 98 53 t b b b;
#X obj 150 144 s SAVE-S;
#X obj 59 106 delay 100;
#X obj 72 163 t b b b;
#X obj 100 15 r \$0-save-s;
#X obj 168 391 s \$0-save-r;
#X obj 274 218 s \$0-target_patch;
#X obj 176 84 f \$0;
#X connect 1 0 14 0;
#X connect 2 1 3 0;
#X connect 3 0 13 0;
#X connect 4 0 3 1;
#X connect 5 0 6 0;
#X connect 6 0 3 1;
#X connect 8 0 10 0;
#X connect 8 1 9 0;
#X connect 8 2 15 0;
#X connect 10 0 11 0;
#X connect 11 0 5 0;
#X connect 11 1 1 0;
#X connect 11 2 4 0;
#X connect 12 0 8 0;
#X connect 15 0 7 0;
#X restore 1234 758 pd savestate;
#X obj 1119 264 r \$0-midi_learn_ok;
#X obj 1422 257 t b b b;
#X obj 1535 369 f \$0;
#X obj 1536 405 s ACTIVE_DOLLARZERO;
#X obj 1374 451 s MIDI_MAP_SETTINGS;
#X obj 1252 454 t b b;
#X obj 1207 551 s MIDI_MAP_SETTINGS;
#X obj 1320 491 f \$0;
#X obj 1320 516 s ACTIVE_DOLLARZERO;
#X obj 90 457 key;
#X obj 245 427 sendcanvas 1;
#X obj 603 550 receivecanvas 1;
#X obj 619 909 delay 100;
#X obj 733 881 t b f;
#X msg 619 934 0;
#X obj 82 996 unpack f f;
#X obj 80 909 route motion zoom;
#X obj 82 1021 / 1;
#X obj 148 1023 / 1;
#X obj 80 1160 pack f f;
#X obj 80 1185 s \$0-coords;
#X obj 77 875 spigot;
#X obj 80 963 spigot 1;
#X obj 217 937 == 0;
#X obj 217 908 r \$0-modules_menu_opened;
#X obj 232 995 select 0;
#X msg 232 1020 200 200;
#X obj 77 790 receivecanvas 1;
#X obj 214 1103 canvas.mouse 1 0 1;
#X text 46 41 THIS IS THE ABSTRACTION YOU HAVE TO INSERT IN YOUR MAIN PATCH ., f 32;
#X msg 284 1057 reset;
#X text 1643 17 PALETTE - VANILLA;
#N canvas 592 47 341 631 \$0-palette 1;
#X obj 37 273 2op-fm 2;
#X obj 44 198 bwl-osc 1;
#X obj 40 235 hihat 1;
#N canvas 329 265 1151 682 Default_vanilla_palette 0;
#X msg 510 302 0;
#X obj 459 272 delay 100;
#X obj 626 429 unpack f f;
#X obj 643 499 / 1;
#X obj 852 495 / 1;
#X obj 1053 311 pointer;
#X obj 982 523 pointer;
#X msg 970 488 delete;
#X obj 849 533 pack f f;
#X obj 1001 435 list prepend 0 0;
#X msg 1030 378 100 20;
#X obj 1047 473 append \$0-rectangle x y width height;
#X obj 1054 543 set \$0-rectangle x y;
#X obj 610 393 spigot;
#X obj 1068 337 t b b b a;
#X msg 956 298 1;
#X msg 690 313 0;
#X msg 495 548 \$1 \$2;
#X obj 630 467 - 0;
#X obj 698 462 - 0;
#X msg 454 366 empty;
#X obj 842 342 spigot;
#X msg 889 292 0;
#X obj 1027 59 select 1;
#X obj 906 415 t b b b;
#X obj 132 129 route motion;
#X obj 108 229 timer;
#X obj 118 188 t b l;
#X obj 108 254 < 200;
#X obj 109 321 select 1;
#X obj 108 288 change;
#X obj 238 269 timer;
#X obj 238 294 < 200;
#X obj 239 361 select 1;
#X obj 238 328 change;
#X obj 234 398 bng 20 250 50 0 empty empty empty 0 -10 0 12 #fcfcfc #000000 #000000;
#X obj 102 348 list append;
#X obj 134 402 unpack f f;
#X obj 102 375 unpack f f;
#X obj 94 431 -;
#X obj 131 430 -;
#X obj 242 453 unpack f f;
#X obj 101 494 pack f f;
#X obj 82 466 -;
#X obj 142 470 -;
#X obj 241 210 t b l l l l;
#X obj 467 214 t b b b;
#X obj 241 185 route motion mouseup zoom;
#X obj 385 452 t f f;
#N canvas 1468 87 450 300 \$0-struct 0;
#X obj 38 111 drawpolygon 444 4 0 0 0 height width height width 0 0 0;
#X obj 11 49 struct \$0-rectangle float x float y float width float height;
#X restore 572 40 pd \$0-struct;
#X text 28 67 synchro des offsets entre les deux fenetres;
#X obj 1018 27 r \$0-palette.dragging;
#X obj 96 527 s \$0-palette.offset;
#X obj 511 326 s \$0-palette.dragging;
#X obj 463 413 s \$0-palette.target;
#X obj 299 145 t a b;
#X obj 519 156 f \$0;
#X obj 519 181 v PALETTE.dollarzero;
#N canvas 0 32 1920 994 drop-animation-in-target-gran-parent 0;
#X obj 626 429 unpack f f;
#X obj 643 499 / 1;
#X obj 852 495 / 1;
#X obj 1053 311 pointer;
#X obj 982 523 pointer;
#X msg 970 488 delete;
#X obj 889 656 pack f f;
#X obj 1001 435 list prepend 0 0;
#X msg 1030 378 100 20;
#X obj 1047 473 append \$0-rectangle x y width height;
#X obj 1059 678 set \$0-rectangle x y;
#X obj 610 393 spigot;
#X obj 1068 337 t b b b a;
#X msg 953 357 1;
#X obj 630 467 - 0;
#X obj 698 462 - 0;
#X obj 842 342 spigot;
#X obj 906 415 t b b;
#X msg 889 292 0;
#X obj 614 197 route motion zoom;
#X obj 990 57 select 0 1;
#X obj 1036 91 t b b;
#X obj 1035 26 r \$0-palette.dragging;
#X obj 517 252 r \$0-palette.offset;
#X listbox 1462 196 20 0 0 0 - - - 0;
#X obj 1131 218 bng 20 250 50 0 empty empty empty 0 -10 0 12 #fcfcfc #000000 #000000;
#X obj 1283 90 bng 20 250 50 0 empty empty empty 0 -10 0 12 #fcfcfc #000000 #000000;
#X msg 1288 318 traverse pd-\$1 \, bang;
#X text 439 96 iemguts/;
#X obj 501 105 receivecanvas 4;
#X text 1203 152 iemguts/;
#X obj 1259 146 canvasname 4;
#X connect 0 0 14 0;
#X connect 0 1 15 0;
#X connect 1 0 6 0;
#X connect 2 0 6 1;
#X connect 3 0 12 0;
#X connect 5 0 4 0;
#X connect 6 0 10 0;
#X connect 7 0 9 0;
#X connect 8 0 7 0;
#X connect 9 0 4 1;
#X connect 9 0 10 2;
#X connect 11 0 0 0;
#X connect 12 0 13 0;
#X connect 12 1 8 0;
#X connect 12 3 9 4;
#X connect 13 0 11 1;
#X connect 13 0 16 1;
#X connect 14 0 1 0;
#X connect 15 0 2 0;
#X connect 16 0 17 0;
#X connect 17 0 5 0;
#X connect 17 1 18 0;
#X connect 18 0 16 1;
#X connect 18 0 11 1;
#X connect 19 1 1 1;
#X connect 19 1 2 1;
#X connect 20 0 16 0;
#X connect 20 1 21 0;
#X connect 21 1 31 0;
#X connect 22 0 20 0;
#X connect 23 0 11 0;
#X connect 23 0 7 1;
#X connect 26 0 31 0;
#X connect 27 0 3 0;
#X connect 29 0 19 0;
#X connect 31 1 24 0;
#X connect 31 1 27 0;
#X restore 595 121 pd drop-animation-in-target-gran-parent;
#N canvas 939 355 825 644 drop-and-create-object-in-target-gran-parent 0;
#X obj 455 304 select 1;
#X obj 45 271 list append;
#X obj 337 130 t b l;
#X obj 54 346 list split 1;
#X obj 12 446 list append;
#X obj 39 483 list append;
#X obj 56 522 list trim;
#X msg 385 334 0;
#X obj 53 230 t b b;
#X msg 76 102 0;
#X obj 52 201 spigot 1;
#X obj 147 98 t b a;
#X msg 142 127 1;
#X obj 215 78 route mouse mouseup motion zoom;
#X obj 384 164 unpack f f;
#X obj 369 204 / 1;
#X obj 452 210 / 1;
#X obj 438 132 t f f;
#X obj 367 230 pack f f;
#X obj 189 510 send;
#X obj 147 478 delay 200;
#N canvas 80 502 450 300 get_module_index_if_not_specified 0;
#X obj 83 12 inlet;
#X obj 70 229 outlet;
#X obj 199 122 v;
#X obj 173 45 list;
#X obj 173 70 list split 1;
#X obj 173 95 t s b s;
#X msg 243 126 symbol \$1-ID;
#X obj 153 183 list append;
#X obj 153 208 list append;
#X obj 153 233 list split 2;
#X obj 203 156 + 1;
#X connect 0 0 3 0;
#X connect 2 0 10 0;
#X connect 3 0 4 0;
#X connect 4 0 5 0;
#X connect 4 1 7 1;
#X connect 5 0 7 0;
#X connect 5 1 2 0;
#X connect 5 2 6 0;
#X connect 6 0 2 1;
#X connect 7 0 8 0;
#X connect 8 0 9 0;
#X connect 9 0 1 0;
#X connect 10 0 8 1;
#X restore 113 399 pd get_module_index_if_not_specified;
#X obj 113 441 t l b l;
#X msg 244 474 symbol \$1-\$2-loadbang;
#X obj 111 6 r \$0-palette.target;
#X obj 453 269 v \$0-palette.dragging;
#X obj 467 392 s \$0-palette.dragging;
#X obj 91 38 list trim;
#X obj 72 70 route empty saved;
#X obj 588 65 text define \$0-savestate;
#X obj 156 203 text insert \$0-savestate;
#X obj 165 177 list;
#X msg 574 29 clear;
#X obj 516 545 text sequence \$0-savestate;
#X msg 525 513 line 0 \, auto;
#X obj 519 583 s PALETTE.savestate;
#X obj 64 541 t b a;
#X obj 529 440 text size \$0-savestate;
#X obj 529 465 select 0;
#X text 30 589 iemguts/;
#X obj 85 589 sendcanvas 4;
#X text 184 41 iemguts/;
#X obj 215 53 receivecanvas 4;
#X connect 0 0 10 0;
#X connect 1 0 3 0;
#X connect 2 0 25 0;
#X connect 2 1 14 0;
#X connect 3 0 4 0;
#X connect 3 1 21 0;
#X connect 4 0 5 0;
#X connect 5 0 6 0;
#X connect 6 0 36 0;
#X connect 7 0 25 0;
#X connect 7 0 26 0;
#X connect 8 0 1 0;
#X connect 8 1 7 0;
#X connect 9 0 10 1;
#X connect 10 0 8 0;
#X connect 11 0 12 0;
#X connect 11 1 1 1;
#X connect 12 0 10 1;
#X connect 13 2 2 0;
#X connect 13 3 17 0;
#X connect 14 0 15 0;
#X connect 14 1 16 0;
#X connect 15 0 18 0;
#X connect 16 0 18 1;
#X connect 17 0 15 1;
#X connect 17 1 16 1;
#X connect 18 0 4 1;
#X connect 20 0 19 0;
#X connect 21 0 22 0;
#X connect 22 0 5 1;
#X connect 22 1 20 0;
#X connect 22 2 23 0;
#X connect 23 0 19 1;
#X connect 24 0 27 0;
#X connect 25 0 0 0;
#X connect 27 0 28 0;
#X connect 28 0 9 0;
#X connect 28 0 32 0;
#X connect 28 1 31 0;
#X connect 28 2 11 0;
#X connect 31 0 30 0;
#X connect 32 0 29 0;
#X connect 33 0 35 0;
#X connect 34 0 33 0;
#X connect 36 0 37 0;
#X connect 36 1 40 0;
#X connect 37 0 38 0;
#X connect 38 1 34 0;
#X connect 42 0 13 0;
#X restore 597 94 pd drop-and-create-object-in-target-gran-parent;
#X obj 1020 190 symbol;
#X msg 1091 163 symbol pd;
#X obj 1079 122 t b s b;
#X obj 1028 212 pack s s;
#X obj 988 150 delay 1;
#X msg 1039 253 traverse \$1-\$2 \, bang;
#X obj 132 104 receivecanvas 3;
#X obj 357 105 receivecanvas 1;
#X text 73 101 iemguts/;
#X text 293 101 iemguts/;
#X text 976 91 iemguts/;
#X obj 1036 91 canvasname 1;
#X obj 20 13 declare -path automatonism/palette;
#X connect 0 0 53 0;
#X connect 1 0 0 0;
#X connect 1 0 20 0;
#X connect 2 0 18 0;
#X connect 2 1 19 0;
#X connect 3 0 8 0;
#X connect 4 0 8 1;
#X connect 5 0 14 0;
#X connect 7 0 6 0;
#X connect 8 0 12 0;
#X connect 9 0 11 0;
#X connect 10 0 9 0;
#X connect 11 0 6 1;
#X connect 11 0 12 2;
#X connect 13 0 2 0;
#X connect 14 0 15 0;
#X connect 14 1 10 0;
#X connect 14 3 11 4;
#X connect 15 0 13 1;
#X connect 15 0 21 1;
#X connect 16 0 13 1;
#X connect 17 0 9 1;
#X connect 18 0 3 0;
#X connect 19 0 4 0;
#X connect 20 0 54 0;
#X connect 21 0 24 0;
#X connect 22 0 21 1;
#X connect 23 0 71 0;
#X connect 24 1 7 0;
#X connect 24 2 22 0;
#X connect 25 0 27 0;
#X connect 26 0 28 0;
#X connect 27 0 26 0;
#X connect 27 0 31 1;
#X connect 27 1 37 0;
#X connect 28 0 30 0;
#X connect 29 0 36 0;
#X connect 30 0 29 0;
#X connect 31 0 32 0;
#X connect 32 0 34 0;
#X connect 33 0 35 0;
#X connect 33 0 36 0;
#X connect 34 0 33 0;
#X connect 36 0 38 0;
#X connect 37 0 39 1;
#X connect 37 1 40 1;
#X connect 38 0 39 0;
#X connect 38 1 40 0;
#X connect 39 0 43 1;
#X connect 40 0 44 1;
#X connect 41 0 43 0;
#X connect 41 1 44 0;
#X connect 42 0 52 0;
#X connect 43 0 42 0;
#X connect 44 0 42 1;
#X connect 45 0 26 1;
#X connect 45 0 31 0;
#X connect 45 1 36 1;
#X connect 45 2 41 0;
#X connect 45 3 17 0;
#X connect 45 4 13 0;
#X connect 46 0 1 0;
#X connect 46 1 16 0;
#X connect 46 2 21 0;
#X connect 47 0 45 0;
#X connect 47 1 46 0;
#X connect 47 2 48 0;
#X connect 48 0 3 1;
#X connect 48 1 4 1;
#X connect 51 0 23 0;
#X connect 55 0 47 0;
#X connect 55 1 56 0;
#X connect 56 0 57 0;
#X connect 60 0 63 0;
#X connect 61 0 60 1;
#X connect 62 0 64 0;
#X connect 62 1 63 1;
#X connect 62 2 61 0;
#X connect 63 0 65 0;
#X connect 64 0 60 0;
#X connect 65 0 5 0;
#X connect 66 0 25 0;
#X connect 67 0 55 0;
#X connect 71 0 60 1;
#X connect 71 1 62 0;
#X restore 28 23 pd Default_vanilla_palette;
#X obj 24 10 cnv 20 200 40 empty empty DEFAULT_VANILLA_PALETTE 20 12 0 12 #e0e0e0 #404040 0;
#N canvas 128 351 380 403 about 0;
#X text 18 44 This palette is stored inside [automatomism];
#X text 18 63 It will be shared by all your projects.;
#X text 18 91 (works in run mode \, needs iemguts external lib);
#N canvas 2 682 538 318 creating_a_custom_palette 0;
#X obj 20 13 declare -path automatonism/palette;
#X obj 23 42 palette;
#X text 29 70 Copy those two objects in a new patch \, save it as an abstraction (ex. "my_custom_palette") in your project folder.;
#X text 30 128 Add this abstraction [my_custom_palette] to your automatonism patch;
#X restore 159 300 pd creating_a_custom_palette;
#X text 20 14 ABOUT DEFAULT VANILLA PALETTE;
#X text 27 129 You can drag the objects it contains into your automatonism patch, f 42;
#X text 24 176 You can paste more objects in it \, from your patch. Their parameters values will be stored. They will be available for ALL your projects., f 40;
#X text 23 264 If you prefer a custom palette for a per-project basis \, read this->, f 29;
#X restore 24 59 pd about this palette;
#X text 23 69 ________________________________________;
#X text 34 105 you can customize below this line;
#X restore 1663 51 pd \$0-palette;
#X obj 102 255 bng 15 250 50 0 \$0-open-palette! empty <--PALETTE 17 7 0 10 #fcfcfc #000000 #000000;
#X text 178 233 __;
#X text 178 245 __;
#X obj 201 231 cnv 5 1 1 empty empty Esc.Key 10 20 0 9 #feffc6 #404040 0;
#X obj 199 231 vradio 11 1 0 3 \$0-esc-active \$0-esc-active-rcv OFF -18 4 0 7 #fffff7 #000000 #000000 0;
#X obj 116 822 r \$0-esc-active;
#X obj 116 846 == 1;
#X text 1643 137 PALETTE - PLUGDATA;
#X obj 1656 173 palette/tools/CreateAutomatonismPaletteForPlugdata;
#X obj 562 370 v is_patch_editor_path_declared;
#X msg -5520 -5676;
#X msg 521 335 1;
#X text 116 223 MODULES;
#X connect 6 0 10 0;
#X connect 9 0 8 0;
#X connect 10 0 5 0;
#X connect 13 0 18 0;
#X connect 14 0 15 0;
#X connect 16 0 104 0;
#X connect 17 0 12 0;
#X connect 18 0 107 0;
#X connect 19 0 108 0;
#X connect 20 0 109 0;
#X connect 25 0 26 0;
#X connect 28 0 27 0;
#X connect 32 0 33 0;
#X connect 33 0 31 0;
#X connect 55 0 95 0;
#X connect 57 0 69 0;
#X connect 58 0 59 1;
#X connect 59 0 64 0;
#X connect 60 0 65 0;
#X connect 64 0 62 0;
#X connect 65 0 57 0;
#X connect 65 1 87 0;
#X connect 66 0 116 0;
#X connect 67 0 86 0;
#X connect 68 0 66 0;
#X connect 70 0 58 0;
#X connect 71 0 87 0;
#X connect 75 0 79 1;
#X connect 77 0 78 0;
#X connect 78 0 79 0;
#X connect 78 1 75 0;
#X connect 79 0 80 0;
#X connect 80 0 81 0;
#X connect 80 0 83 0;
#X connect 80 0 147 0;
#X connect 81 0 82 0;
#X connect 83 0 84 0;
#X connect 86 1 68 0;
#X connect 87 0 66 0;
#X connect 88 0 87 0;
#X connect 93 0 65 0;
#X connect 93 1 65 0;
#X connect 95 0 113 0;
#X connect 97 0 99 0;
#X connect 98 0 96 0;
#X connect 99 0 98 0;
#X connect 99 1 101 0;
#X connect 101 0 100 0;
#X connect 103 0 10 0;
#X connect 104 0 13 0;
#X connect 104 1 105 0;
#X connect 104 2 17 0;
#X connect 105 0 106 0;
#X connect 108 0 20 0;
#X connect 108 1 110 0;
#X connect 110 0 111 0;
#X connect 112 0 59 0;
#X connect 114 0 60 0;
#X connect 115 0 117 0;
#X connect 116 0 115 0;
#X connect 116 1 35 0;
#X connect 117 0 35 0;
#X connect 118 0 120 0;
#X connect 118 1 121 0;
#X connect 119 0 125 0;
#X connect 119 1 120 1;
#X connect 119 1 121 1;
#X connect 120 0 122 0;
#X connect 121 0 122 1;
#X connect 122 0 123 0;
#X connect 124 0 119 0;
#X connect 125 0 118 0;
#X connect 126 0 125 1;
#X connect 127 0 126 0;
#X connect 128 0 129 0;
#X connect 129 0 123 0;
#X connect 130 0 124 0;
#X connect 131 1 122 0;
#X connect 131 2 122 1;
#X connect 141 0 142 0;
#X connect 142 0 124 1;
#X connect 142 0 128 0;
#X connect 147 0 145 0;
#X coords 0 -1 1 1 250 170 2 97 101;
