#N canvas 853 179 1145 642 12;
#X obj 278 145 inlet;
#X obj 327 641 outlet;
#X obj 278 211 canvas.pos 1;
#X obj 278 302 t b l l;
#X obj 274 410 list append;
#X obj 390 355 unpack f f;
#X obj 389 402 + 10;
#X obj 448 410 + 10;
#X text 165 588 HARAKIRI;
#X obj 512 378 + 500;
#X obj 412 468 pack f f f;
#X msg 253 589 cut;
#X msg 289 510 editmode 1 \, mouse \$1 \$2 1 0 \, mouseup \$1 \$2 0;
#X obj 278 382 delay 200;
#X obj 205 541 delay 200;
#X msg 420 599 obj \$1 \$2 automatonism \\\$0 \, loadbang;
#X obj 278 441 t b l;
#X text 33 92 As plugdata is unable to synamically change args as \\\$0 \, we create a new instance of the parent object with \\\$0 arg and delete the first.;
#X obj 278 178 t b;
#X obj 462 127 t l l;
#X obj 494 159 unpack f f;
#X obj 545 196 == 0;
#X obj 498 200 == 0;
#X obj 498 226 &&;
#X obj 498 252 == 0;
#X obj 278 269 spigot 1;
#X connect 0 0 18 0;
#X connect 2 0 19 0;
#X connect 3 0 13 0;
#X connect 3 1 4 1;
#X connect 3 2 5 0;
#X connect 4 0 16 0;
#X connect 5 0 6 0;
#X connect 5 1 7 0;
#X connect 5 1 9 0;
#X connect 6 0 10 0;
#X connect 7 0 10 1;
#X connect 9 0 10 2;
#X connect 10 0 15 0;
#X connect 11 0 1 0;
#X connect 12 0 1 0;
#X connect 13 0 4 0;
#X connect 14 0 11 0;
#X connect 15 0 1 0;
#X connect 16 0 14 0;
#X connect 16 1 12 0;
#X connect 18 0 2 0;
#X connect 19 0 25 0;
#X connect 19 1 20 0;
#X connect 20 0 22 0;
#X connect 20 1 21 0;
#X connect 21 0 23 1;
#X connect 22 0 23 0;
#X connect 23 0 24 0;
#X connect 24 0 25 1;
#X connect 25 0 3 0;
