#N canvas 853 179 1145 642 12;
#X text 109 49 dummy patch;
#X text 33 92 for plugdata not complaining if iemguts not available;
#X obj 126 130 inlet;
#X obj 403 578 outlet;
#X obj 124 250 print AUTOMATONISM - Warning;
#X obj 343 327 canvas.pos 1;
#X obj 353 358 t b l l;
#X obj 349 417 list append;
#X obj 465 355 unpack f f;
#X obj 464 402 + 10;
#X obj 523 410 + 10;
#X text 478 321 HARAKIRI;
#X obj 587 378 + 500;
#X obj 464 428 pack f f f;
#X obj 707 46 r automatonism_kill;
#X obj 709 244 spigot 1;
#X obj 559 160 t b b;
#X msg 759 215 0;
#X obj 332 460 s automatonism_kill;
#X msg 403 528 obj \$1 \$2 automatonism \\\$0;
#X obj 708 145 t l b;
#X obj 824 173 s AUTOMATONISM_LOADBANG;
#X obj 709 268 t l b;
#X msg 767 341 cut;
#X msg 712 399 editmode 1 \, mouse \$1 \$2 1 0 \, mouseup \$1 \$2 0;
#X obj 353 389 delay 200;
#X obj 761 306 delay 200;
#X msg 123 205 "For vanilla compatibility of your patch" I replaced [automatonism] by [automatonism $'0];
#X connect 2 0 27 0;
#X connect 2 0 16 0;
#X connect 5 0 6 0;
#X connect 6 0 25 0;
#X connect 6 1 7 1;
#X connect 6 2 8 0;
#X connect 7 0 18 0;
#X connect 8 0 9 0;
#X connect 8 1 10 0;
#X connect 8 1 12 0;
#X connect 9 0 13 0;
#X connect 10 0 13 1;
#X connect 12 0 13 2;
#X connect 13 0 19 0;
#X connect 14 0 20 0;
#X connect 15 0 22 0;
#X connect 16 0 5 0;
#X connect 16 1 17 0;
#X connect 17 0 15 1;
#X connect 19 0 3 0;
#X connect 20 0 15 0;
#X connect 20 1 21 0;
#X connect 22 0 24 0;
#X connect 22 1 26 0;
#X connect 23 0 3 0;
#X connect 24 0 3 0;
#X connect 25 0 7 0;
#X connect 26 0 23 0;
#X connect 27 0 4 0;
