#N canvas 303 359 1145 642 12;
#X text 109 49 dummy patch;
#X text 33 92 for plugdata not complaining if iemguts not available;
#X obj 34 30 inlet;
#X obj 138 162 loadbang;
#X obj 128 368 delay 1;
#N canvas 665 494 596 300 \$0-AUTOMATONISM 1;
#X text 25 129 You can rename it and save it anywhere on your filesystem;
#N canvas 150 175 450 300 open_automatonism_template 1;
#X obj 96 15 inlet;
#X obj 91 192 pdcontrol;
#X msg 92 161 dir;
#X msg 89 225 \; pd open template-patch(vanilla).pd \$1;
#X connect 0 0 2 0 empty;
#X connect 1 0 3 0 empty;
#X connect 2 0 1 0 empty;
#X restore 47 226 pd open_automatonism_template;
#X obj 47 189 bng 15 250 50 0 empty empty OPEN_AUTOMATONISM_VANILLA_TEMPLATE 17 7 0 10 #fcfcfc #000000 #000000;
#X text 19 17 WELCOME TO AUTOMATONISM [RELOADED];
#X text 20 55 You are using a PureData vanilla setup (i.e. without externals)., f 64;
#X text 23 93 To use AUTOMATONISM \, Please start using the vanilla template template-patch(vanilla).pd, f 61;
#X connect 2 0 1 0 empty;
#X restore 308 148 pd \$0-AUTOMATONISM;
#X msg 129 449 vis 1;
#X obj 128 486 s pd-\$0-AUTOMATONISM;
#X obj 128 416 select 1;
#X obj 128 392 v ELSE_NOT_LOADED;
#X msg 492 198 1;
#X obj 493 223 v IS_PLUGDATA;
#X obj 138 208 delay 1;
#X obj 128 249 v is_patch_editor_path_declared;
#X obj 138 294 select 1;
#X connect 3 0 10 0 empty;
#X connect 3 0 12 0 empty;
#X connect 4 0 9 0 empty;
#X connect 6 0 7 0 empty;
#X connect 8 0 6 0 empty;
#X connect 9 0 8 0 empty;
#X connect 10 0 11 0 empty;
#X connect 12 0 13 0 empty;
#X connect 13 0 14 0 empty;
#X connect 14 0 4 0 empty;
