#N canvas 250 536 1444 228 12;
#X declare -path iemguts;
#X declare -lib iemguts;
#X declare -path automatonism/palette;
#N canvas 0 32 1916 467 sub 1;
#X obj 105 538 maestro4;
#X obj 107 151 bwl-osc;
#X obj 23 42 namecanvas \$0-this;
#X obj 110 307 cnv 15 180 15 empty empty SEQUENCERS: 10 8 0 12 #9898dc #fcfcfc 0;
#X obj 116 330 8steps;
#X obj 114 359 mega-sequencer;
#X obj 112 390 trigger-seq;
#X obj 113 420 gate-seq;
#X obj 109 449 ratchet-seq;
#X obj 111 477 euklid;
#N canvas 0 32 1920 994 stuff 0;
#X msg 481 338 0;
#X obj 430 308 delay 100;
#X obj 597 465 unpack f f;
#X obj 614 535 / 1;
#X obj 823 531 / 1;
#X obj 1024 347 pointer;
#X obj 928 587 pointer;
#X msg 916 552 delete;
#X obj 820 569 pack f f;
#X obj 1005 447 list prepend 0 0;
#X msg 1001 414 100 20;
#X obj 1018 509 append \$0-rectangle x y width height;
#X obj 830 649 set \$0-rectangle x y;
#X obj 581 429 spigot;
#X obj 1039 373 t b b b a;
#X msg 927 334 1;
#X msg 661 349 0;
#X msg 475 550 \$1 \$2;
#X obj 601 503 - 0;
#X obj 669 498 - 0;
#X msg 425 402 empty;
#X obj 813 378 spigot;
#X msg 860 328 0;
#X obj 998 95 select 1;
#X obj 877 451 t b b b;
#X obj 103 165 route motion;
#X obj 79 365 timer;
#X obj 89 324 t b l;
#X obj 79 390 < 200;
#X obj 80 457 select 1;
#X obj 79 424 change;
#X obj 209 405 timer;
#X obj 209 430 < 200;
#X obj 210 497 select 1;
#X obj 209 464 change;
#X obj 205 534 bng 20 250 50 0 empty empty empty 0 -10 0 12 #fcfcfc #000000 #000000;
#X obj 73 484 list append;
#X obj 105 538 unpack f f;
#X obj 73 511 unpack f f;
#X obj 65 567 -;
#X obj 102 566 -;
#X obj 213 589 unpack f f;
#X obj 72 630 pack f f;
#X obj 53 602 -;
#X obj 113 606 -;
#X obj 212 346 t b l l l l;
#X obj 438 250 t b b b;
#X obj 212 321 route motion mouseup zoom;
#N canvas 1252 228 450 300 \$0-struct 0;
#X obj -12 104 list append drawpolygon 444 4 0 0 0 height width height width 0 0 0;
#X obj -19 221 filledpolygon 368 124 2 -65 -35 400 -35 400 -5 -65 -5 -65 -35;
#X obj 0 152 drawtext bla -60 -35 200;
#X obj 0 182 drawtext bla2 -60 -20 200;
#X obj 6 15 struct \$0-rectangle float x float y float width float height text bla text bla2 float ducon;
#X obj 6 55 print struct;
#X connect 4 0 5 0;
#X restore 543 76 pd \$0-struct;
#X text -1 103 synchro des offsets entre les deux fenetres;
#X obj 989 63 r \$0-palette.dragging;
#X obj 67 663 s \$0-palette.offset;
#X obj 482 362 s \$0-palette.dragging;
#X obj 434 449 s \$0-palette.target;
#X obj 270 181 t a b;
#X obj 490 192 f \$0;
#X obj 490 217 v PALETTE.dollarzero;
#N canvas 0 32 1920 994 drop-animation-in-target-gran-parent 0;
#X obj 626 429 unpack f f;
#X obj 643 499 / 1;
#X obj 852 495 / 1;
#X obj 1053 311 pointer;
#X obj 970 564 pointer;
#X msg 970 488 delete;
#X obj 889 656 pack f f;
#X obj 1001 435 list prepend 0 0;
#X msg 1030 378 100 20;
#X obj 1047 473 append \$0-rectangle x y width height;
#X obj 1059 678 set \$0-rectangle x y;
#X obj 610 393 spigot;
#X obj 1068 337 t b b b a;
#X msg 953 357 1;
#X obj 630 467 - 0;
#X obj 698 462 - 0;
#X obj 842 342 spigot;
#X obj 906 415 t b b;
#X msg 889 292 0;
#X obj 614 197 route motion zoom;
#X obj 990 57 select 0 1;
#X obj 1036 91 t b b;
#X obj 1035 26 r \$0-palette.dragging;
#X obj 517 252 r \$0-palette.offset;
#X listbox 1462 196 20 0 0 0 - - - 0;
#X obj 1131 218 bng 20 250 50 0 empty empty empty 0 -10 0 12 #fcfcfc #000000 #000000;
#X obj 1283 90 bng 20 250 50 0 empty empty empty 0 -10 0 12 #fcfcfc #000000 #000000;
#X msg 1288 318 traverse pd-\$1 \, bang;
#X text 1203 152 iemguts/;
#X obj 568 48 inlet;
#X obj 423 341 unpack f f;
#X obj 429 409 / 1;
#X obj 496 404 / 1;
#X obj 427 379 - 0;
#X obj 495 374 - 0;
#X obj 429 444 pack f f;
#X obj 1323 497 r PALETTE.info;
#X obj 1323 522 route label;
#X obj 1323 547 route empty;
#X obj 1377 600 list;
#X obj 1238 653 list append;
#X obj 1324 585 t b;
#X obj 1194 596 delay 100;
#X obj 1273 715 text insert -s \$0-rectangle bla;
#X msg 1368 678 1e+09;
#X obj 1361 642 loadbang;
#X obj 1037 498 t p p b p;
#X obj 1259 146 canvasname 4;
#X connect 0 0 14 0;
#X connect 0 1 15 0;
#X connect 1 0 6 0;
#X connect 2 0 6 1;
#X connect 3 0 12 0;
#X connect 5 0 4 0;
#X connect 6 0 10 0;
#X connect 7 0 9 0;
#X connect 8 0 7 0;
#X connect 9 0 46 0;
#X connect 11 0 0 0;
#X connect 12 0 13 0;
#X connect 12 1 8 0;
#X connect 12 3 9 4;
#X connect 13 0 11 1;
#X connect 13 0 16 1;
#X connect 14 0 1 0;
#X connect 15 0 2 0;
#X connect 16 0 17 0;
#X connect 17 0 5 0;
#X connect 17 1 18 0;
#X connect 18 0 16 1;
#X connect 18 0 11 1;
#X connect 19 1 1 1;
#X connect 19 1 2 1;
#X connect 20 0 16 0;
#X connect 20 1 21 0;
#X connect 21 1 47 0;
#X connect 22 0 20 0;
#X connect 23 0 11 0;
#X connect 23 0 30 0;
#X connect 26 0 47 0;
#X connect 27 0 3 0;
#X connect 29 0 19 0;
#X connect 30 0 33 0;
#X connect 30 1 34 0;
#X connect 31 0 35 0;
#X connect 32 0 35 1;
#X connect 33 0 31 0;
#X connect 34 0 32 0;
#X connect 35 0 7 1;
#X connect 36 0 37 0;
#X connect 37 0 38 0;
#X connect 38 0 41 0;
#X connect 38 1 39 0;
#X connect 39 0 40 1;
#X connect 40 0 43 0;
#X connect 41 0 40 1;
#X connect 42 0 40 0;
#X connect 44 0 43 1;
#X connect 45 0 44 0;
#X connect 46 0 4 1;
#X connect 46 1 10 2;
#X connect 46 2 42 0;
#X connect 46 3 43 2;
#X connect 47 1 24 0;
#X connect 47 1 27 0;
#X restore 646 761 pd drop-animation-in-target-gran-parent;
#N canvas 939 355 825 644 drop-and-create-object-in-target-gran-parent 0;
#X obj 455 304 select 1;
#X obj 45 271 list append;
#X obj 337 130 t b l;
#X obj 54 346 list split 1;
#X obj 12 446 list append;
#X obj 39 483 list append;
#X obj 56 522 list trim;
#X msg 385 334 0;
#X obj 53 230 t b b;
#X msg 76 102 0;
#X obj 52 201 spigot 1;
#X obj 147 98 t b a;
#X msg 142 127 1;
#X obj 215 78 route mouse mouseup motion zoom;
#X obj 384 164 unpack f f;
#X obj 369 204 / 1;
#X obj 452 210 / 1;
#X obj 438 132 t f f;
#X obj 367 230 pack f f;
#X obj 189 510 send;
#X obj 147 478 delay 200;
#N canvas 80 502 450 300 get_module_index_if_not_specified 0;
#X obj 83 12 inlet;
#X obj 70 229 outlet;
#X obj 199 122 v;
#X obj 173 45 list;
#X obj 173 70 list split 1;
#X obj 173 95 t s b s;
#X msg 243 126 symbol \$1-ID;
#X obj 153 183 list append;
#X obj 153 208 list append;
#X obj 153 233 list split 2;
#X obj 203 156 + 1;
#X connect 0 0 3 0;
#X connect 2 0 10 0;
#X connect 3 0 4 0;
#X connect 4 0 5 0;
#X connect 4 1 7 1;
#X connect 5 0 7 0;
#X connect 5 1 2 0;
#X connect 5 2 6 0;
#X connect 6 0 2 1;
#X connect 7 0 8 0;
#X connect 8 0 9 0;
#X connect 9 0 1 0;
#X connect 10 0 8 1;
#X restore 113 399 pd get_module_index_if_not_specified;
#X obj 113 441 t l b l;
#X msg 244 474 symbol \$1-\$2-loadbang;
#X obj 111 6 r \$0-palette.target;
#X obj 453 269 v \$0-palette.dragging;
#X obj 467 392 s \$0-palette.dragging;
#X obj 91 38 list trim;
#X obj 72 70 route empty saved;
#X obj 588 65 text define \$0-savestate;
#X obj 156 203 text insert \$0-savestate;
#X obj 165 177 list;
#X msg 574 29 clear;
#X obj 516 545 text sequence \$0-savestate;
#X msg 525 513 line 0 \, auto;
#X obj 519 583 s PALETTE.savestate;
#X obj 64 541 t b a;
#X obj 529 440 text size \$0-savestate;
#X obj 529 465 select 0;
#X text 184 41 iemguts/;
#X obj 85 589 outlet;
#X obj 290 13 inlet;
#X connect 0 0 10 0;
#X connect 1 0 3 0;
#X connect 2 0 25 0;
#X connect 2 1 14 0;
#X connect 3 0 4 0;
#X connect 3 1 21 0;
#X connect 4 0 5 0;
#X connect 5 0 6 0;
#X connect 6 0 36 0;
#X connect 7 0 25 0;
#X connect 7 0 26 0;
#X connect 8 0 1 0;
#X connect 8 1 7 0;
#X connect 9 0 10 1;
#X connect 10 0 8 0;
#X connect 11 0 12 0;
#X connect 11 1 1 1;
#X connect 12 0 10 1;
#X connect 13 2 2 0;
#X connect 13 3 17 0;
#X connect 14 0 15 0;
#X connect 14 1 16 0;
#X connect 15 0 18 0;
#X connect 16 0 18 1;
#X connect 17 0 15 1;
#X connect 17 1 16 1;
#X connect 18 0 4 1;
#X connect 20 0 19 0;
#X connect 21 0 22 0;
#X connect 22 0 5 1;
#X connect 22 1 20 0;
#X connect 22 2 23 0;
#X connect 23 0 19 1;
#X connect 24 0 27 0;
#X connect 25 0 0 0;
#X connect 27 0 28 0;
#X connect 28 0 9 0;
#X connect 28 0 32 0;
#X connect 28 1 31 0;
#X connect 28 2 11 0;
#X connect 31 0 30 0;
#X connect 32 0 29 0;
#X connect 33 0 35 0;
#X connect 34 0 33 0;
#X connect 36 0 37 0;
#X connect 36 1 40 0;
#X connect 37 0 38 0;
#X connect 38 1 34 0;
#X connect 41 0 13 0;
#X restore 219 750 pd drop-and-create-object-in-target-gran-parent;
#X text 44 137 iemguts/;
#X text 264 137 iemguts/;
#X text 947 127 iemguts/;
#X msg 1010 289 traverse pd-\$1 \, bang;
#X obj 1357 19 declare -path iemguts;
#X obj 1352 46 declare -lib iemguts;
#N canvas 977 664 450 300 vanilla_get_parent_dollarzero 0;
#X obj 111 198 outlet;
#X obj 109 150 v ACTIVE_DOLLARZERO;
#X obj 116 48 loadbang;
#X connect 1 0 0 0;
#X connect 2 0 1 0;
#X restore 1605 124 pd vanilla_get_parent_dollarzero;
#X obj 1594 163 ==;
#X obj 1544 30 r OPENPALETTE;
#X obj 1594 188 select 1;
#X obj 1625 335 s;
#X msg 1740 284 symbol pd-\$1;
#X obj 1618 211 t b b;
#X obj 1613 268 tgl 20 0 empty empty empty 0 -10 0 12 #fcfcfc #000000 #000000 0 1;
#X msg 1613 293 vis \$1;
#X obj 1361 677 r IS_THERE_A_PALETTE?;
#X obj 1361 702 s YES_THERE_IS!;
#X text 165 776 iemguts/;
#X obj 476 580 unpack f f;
#X obj 608 641 / 1;
#X obj 702 646 / 1;
#X obj 800 471 t f f f f;
#X obj 608 666 pack f f;
#N canvas 2 87 995 761 donecanvasdialog 0;
#X text 232 279 Xunits/pixel Yunits/px gop xfrom yfrom xto yto width heught xmargin ymargin;
#X obj 199 90 t f b;
#X obj 78 209 + 100;
#X obj 227 128 f 100;
#X text 609 142 momentary disable Graph on Parent to force redrawing in parent canvas;
#X text 582 313 re-enable graph on parent with new values;
#X obj 73 245 pipe 10;
#X obj 168 40 r \$0-tab;
#X obj 272 443 outlet;
#X obj 251 46 inlet;
#X obj 76 188 * 200;
#X msg 225 154 donecanvasdialog 1 -1 0 0 0 1 1 1200 200 100 \$1;
#X msg 217 307 donecanvasdialog 1 -1 3 0 0 1 1 1200 200 100 \$1 \, dirty 0;
#X connect 1 0 10 0;
#X connect 1 1 3 0;
#X connect 2 0 3 1;
#X connect 2 0 6 0;
#X connect 3 0 11 0;
#X connect 6 0 12 0;
#X connect 7 0 1 0;
#X connect 9 0 1 0;
#X connect 10 0 2 0;
#X connect 11 0 8 0;
#X connect 12 0 8 0;
#X restore 1054 711 pd donecanvasdialog;
#X obj 1054 736 s \$0-this;
#X obj 1012 668 hradio 20 1 0 8 empty empty empty 0 -10 0 12 #fcfcfc #000000 #000000 0;
#X obj 1203 548 r PALETTE.info;
#X obj 1203 573 route label;
#X obj 1203 598 route empty;
#X obj 1582 611 list;
#X obj 1263 842 list append;
#X obj 1204 636 t b;
#X obj 1030 563 t p b p;
#X obj 20 17 declare -path automatonism/palette;
#X obj 103 140 receivecanvas 3;
#X obj 328 141 receivecanvas 2;
#X obj 241 707 receivecanvas 3;
#X obj 217 776 sendcanvas 3;
#X obj 1007 127 canvasname 2;
#X obj 1688 245 canvasname 2;
#X obj 1543 842 list append;
#X obj 1065 605 delay 10;
#X obj 1307 756 spigot 1;
#X obj 1499 766 t l b;
#X msg 1375 737 0;
#X msg 1309 712 1;
#X obj 1055 630 t b b;
#X obj 1581 690 list split 8;
#X obj 1271 939 text set -s \$0-rectangle bla;
#X obj 1578 904 text set -s \$0-rectangle bla2;
#X obj 1280 873 t b l b;
#X msg 1393 867 0;
#X obj 1560 873 t b l b;
#X msg 1673 867 0;
#X obj 1094 920 print;
#X msg 1016 824 symbol h;
#X msg 1549 505 \\\;;
#X msg 1548 456 add2 \\\;;
#X obj 1203 122 select 1;
#X obj 1187 57 r \$0-palette.dragging;
#X obj 1203 147 t b b;
#X obj 1240 234 list prepend 0 0;
#X msg 1236 201 100 20;
#X obj 1277 282 list append \$0;
#X obj 1691 386 r PALETTE.info;
#X obj 1691 411 route label;
#X obj 1683 444 route empty;
#X obj 1753 473 list;
#X obj 1753 498 list split 8;
#X obj 1318 410 list append;
#X obj 1318 435 list append \\\;;
#X obj 1318 460 list append;
#X obj 1318 485 list trim;
#X obj 1562 544 s \$0-that;
#X msg 1318 385 scalar \$5-rectangle \$1 \$2 \$3 \$4 0 \\\;;
#X obj 1421 503 t b a;
#X obj 1332 619 pointer \$0-rectangle;
#X obj 1317 550 canvasname 2;
#X obj 1319 518 bng 20 250 50 0 empty empty empty 0 -10 0 12 #fcfcfc #000000 #000000;
#X obj 1378 524 delay 100;
#X msg 1327 573 traverse pd-\$1 \, next;
#X msg 1514 580 traverse \$1-that \, next;
#X obj 1494 542 f \$0;
#X obj 908 502 delay 150;
#X connect 0 0 52 0;
#X connect 1 0 0 0;
#X connect 1 0 20 0;
#X connect 2 0 18 0;
#X connect 2 1 19 0;
#X connect 3 0 8 0;
#X connect 4 0 8 1;
#X connect 5 0 14 0;
#X connect 7 0 6 0;
#X connect 8 0 12 0;
#X connect 9 0 11 0;
#X connect 10 0 9 0;
#X connect 11 0 6 1;
#X connect 11 0 91 0;
#X connect 13 0 2 0;
#X connect 14 0 15 0;
#X connect 14 1 10 0;
#X connect 14 3 11 4;
#X connect 15 0 13 1;
#X connect 15 0 21 1;
#X connect 16 0 13 1;
#X connect 17 0 77 0;
#X connect 18 0 3 0;
#X connect 19 0 4 0;
#X connect 20 0 53 0;
#X connect 21 0 24 0;
#X connect 22 0 21 1;
#X connect 23 0 97 0;
#X connect 24 1 142 0;
#X connect 24 2 22 0;
#X connect 25 0 27 0;
#X connect 26 0 28 0;
#X connect 27 0 26 0;
#X connect 27 0 31 1;
#X connect 27 1 37 0;
#X connect 28 0 30 0;
#X connect 29 0 36 0;
#X connect 30 0 29 0;
#X connect 31 0 32 0;
#X connect 32 0 34 0;
#X connect 33 0 35 0;
#X connect 33 0 36 0;
#X connect 34 0 33 0;
#X connect 36 0 38 0;
#X connect 37 0 39 1;
#X connect 37 1 40 1;
#X connect 38 0 39 0;
#X connect 38 1 40 0;
#X connect 39 0 43 1;
#X connect 40 0 44 1;
#X connect 41 0 43 0;
#X connect 41 1 44 0;
#X connect 42 0 51 0;
#X connect 43 0 42 0;
#X connect 44 0 42 1;
#X connect 45 0 26 1;
#X connect 45 0 31 0;
#X connect 45 1 36 1;
#X connect 45 2 41 0;
#X connect 45 3 17 0;
#X connect 45 4 13 0;
#X connect 46 0 1 0;
#X connect 46 1 16 0;
#X connect 46 2 21 0;
#X connect 47 0 45 0;
#X connect 47 1 46 0;
#X connect 47 2 80 0;
#X connect 54 0 47 0;
#X connect 54 1 55 0;
#X connect 55 0 56 0;
#X connect 58 0 96 0;
#X connect 62 0 5 0;
#X connect 65 0 66 1;
#X connect 66 0 68 0;
#X connect 67 0 66 0;
#X connect 68 0 71 0;
#X connect 70 0 69 1;
#X connect 71 0 72 0;
#X connect 71 1 98 0;
#X connect 72 0 73 0;
#X connect 73 0 69 0;
#X connect 74 0 75 0;
#X connect 77 0 78 0;
#X connect 77 1 79 0;
#X connect 78 0 81 0;
#X connect 79 0 81 1;
#X connect 80 0 3 1;
#X connect 80 1 78 1;
#X connect 80 2 79 1;
#X connect 80 3 4 1;
#X connect 81 0 9 1;
#X connect 81 0 120 1;
#X connect 82 0 83 0;
#X connect 84 0 82 0;
#X connect 85 0 86 0;
#X connect 86 0 87 0;
#X connect 87 0 90 0;
#X connect 87 1 88 0;
#X connect 88 0 106 0;
#X connect 89 0 109 0;
#X connect 91 0 12 2;
#X connect 91 1 100 0;
#X connect 91 2 107 3;
#X connect 91 2 108 3;
#X connect 93 0 25 0;
#X connect 94 0 54 0;
#X connect 95 0 57 0;
#X connect 95 0 58 0;
#X connect 97 1 62 0;
#X connect 98 1 70 0;
#X connect 99 0 111 0;
#X connect 100 0 105 0;
#X connect 101 0 99 0;
#X connect 102 0 89 1;
#X connect 102 1 103 0;
#X connect 103 0 101 1;
#X connect 104 0 101 1;
#X connect 105 0 89 0;
#X connect 105 1 101 0;
#X connect 106 0 89 1;
#X connect 106 1 99 1;
#X connect 106 2 102 0;
#X connect 109 0 89 1;
#X connect 109 0 104 0;
#X connect 109 1 107 0;
#X connect 109 1 113 0;
#X connect 109 2 110 0;
#X connect 110 0 107 1;
#X connect 111 0 99 1;
#X connect 111 1 108 0;
#X connect 111 2 112 0;
#X connect 112 0 108 1;
#X connect 114 0 107 0;
#X connect 116 0 115 0;
#X connect 117 0 119 0;
#X connect 118 0 117 0;
#X connect 119 0 15 0;
#X connect 119 1 121 0;
#X connect 120 0 122 0;
#X connect 121 0 120 0;
#X connect 122 0 133 0;
#X connect 123 0 124 0;
#X connect 124 0 125 0;
#X connect 125 1 126 0;
#X connect 126 0 127 0;
#X connect 127 0 128 1;
#X connect 127 1 130 1;
#X connect 128 0 129 0;
#X connect 129 0 130 0;
#X connect 130 0 131 0;
#X connect 131 0 134 0;
#X connect 133 0 128 0;
#X connect 134 0 138 0;
#X connect 134 1 132 0;
#X connect 135 0 6 1;
#X connect 135 0 12 2;
#X connect 136 1 139 0;
#X connect 137 0 136 0;
#X connect 138 0 136 0;
#X connect 138 0 141 0;
#X connect 140 0 135 0;
#X connect 141 0 140 0;
#X connect 142 0 7 0;
#X restore 587 32 pd stuff;
#X obj 832 106 cnv 15 180 15 empty empty MODULATION: 10 8 0 12 #9898dc #fcfcfc 0;
#X obj 110 104 cnv 15 180 15 empty empty OSCILLATORS: 10 8 0 12 #9898dc #fcfcfc 0;
#X obj 482 71 cnv 15 180 15 empty empty SOUND-PROCESSORS: 10 8 0 12 #9898dc #fcfcfc 0;
#X obj 668 71 cnv 15 180 15 empty empty UTILITY&LOGIC: 10 8 0 12 #9898dc #fcfcfc 0;
#X obj 107 509 cnv 15 180 15 empty empty VCA/MIXERS: 10 8 0 12 #9898dc #fcfcfc 0;
#X obj 837 129 basic-lfo;
#X obj 836 153 sinebank;
#X obj 837 177 ahr;
#X obj 836 202 decay;
#X obj 839 228 slope;
#X obj 994 134 adsr;
#X obj 992 160 random-gates;
#X obj 108 127 basic-osc;
#X obj 108 177 wtable;
#X obj 354 130 karplus;
#X obj 356 158 2op-fm;
#X obj 353 206 trigons;
#X obj 544 216 triad;
#X obj 341 325 pd-303;
#X obj 545 242 polysynth;
#X obj 788 331 kick;
#X obj 790 356 snare;
#X obj 791 388 hihat;
#X obj 795 423 percussion;
#X obj 790 307 cnv 15 180 15 empty empty INSTRUMENTS: 10 8 0 12 #9898dc #fcfcfc 0;
#X obj 532 133 noise;
#X obj 567 328 looper;
#X obj 561 363 sampler;
#X obj 342 411 chord-synth;
#X obj 493 420 algomatrix;
#X coords 0 0 1 1 1200 200 2 100 100;
#X restore 225 235 pd sub;
#X obj 22 17 vradio 30 1 1 6 \$0-tab empty empty 0 -10 0 12 #fcfcfc #000000 #000000 0;
#X text 62 53 SEQUENCERS;
#X text 57 21 OSCILLATORS/MODULATION;
#X text 61 80 VCA / MIXERS;
#X obj 101 141 namecanvas \$0-that;
#X obj 75 187 s \$0-that;
#X msg 214 9 scalar 1123-rectangle 513 58 100 20 0 \\\; hh \\\; karplus strong algorithm that models the sound of resonating strings.;
#X connect 7 0 6 0;
