#N canvas 267 55 1138 237 12;
#X declare -path iemguts;
#X declare -lib iemguts;
#X declare -path automatonism/palette;
#N canvas 880 94 1229 399 sub 0;
#X obj 271 619 maestro4;
#X obj 107 151 bwl-osc;
#X obj 23 42 namecanvas \$0-this;
#X obj 110 307 cnv 15 180 15 empty empty SEQUENCERS: 10 8 0 12 #9898dc #fcfcfc 0;
#X obj 116 330 8steps;
#X obj 114 359 mega-sequencer;
#X obj 112 390 trigger-seq;
#X obj 113 420 gate-seq;
#X obj 109 449 ratchet-seq;
#X obj 111 477 euklid;
#N canvas 0 32 1920 994 stuff 0;
#X msg 481 338 0;
#X obj 430 308 delay 100;
#X obj 839 572 unpack f f;
#X obj 852 652 / 1;
#X obj 928 652 / 1;
#X obj 1125 626 pointer;
#X msg 1110 596 delete;
#X obj 907 680 pack f f;
#X obj 912 712 set \$0-rectangle x y;
#X obj 882 545 spigot;
#X msg 1110 450 1;
#X msg 475 550 \$1 \$2;
#X obj 844 605 - 0;
#X obj 909 604 - 0;
#X msg 425 402 empty;
#X obj 970 546 spigot;
#X msg 1043 444 0;
#X obj 1047 569 t b b b;
#X obj 103 165 route motion;
#X obj 79 365 timer;
#X obj 89 324 t b l;
#X obj 79 390 < 200;
#X obj 80 457 select 1;
#X obj 79 424 change;
#X obj 209 405 timer;
#X obj 209 430 < 200;
#X obj 210 497 select 1;
#X obj 209 464 change;
#X obj 205 534 bng 20 250 50 0 empty empty empty 0 -10 0 12 #fcfcfc #000000 #000000;
#X obj 73 484 list append;
#X obj 105 538 unpack f f;
#X obj 73 511 unpack f f;
#X obj 65 567 -;
#X obj 102 566 -;
#X obj 213 589 unpack f f;
#X obj 72 630 pack f f;
#X obj 53 602 -;
#X obj 113 606 -;
#X obj 212 346 t b l l l l;
#X obj 495 268 t b b b;
#X obj 212 321 route motion mouseup zoom;
#N canvas 1252 228 450 300 \$0-struct 0;
#X obj -12 164 list append drawpolygon 444 4 0 0 0 height width height width 0 0 0;
#X obj 6 15 struct \$0-rectangle float x float y float width float height text bla text bla2 float ducon;
#X obj -19 281 filledpolygon 368 124 2 -65 -35 400 -35 400 -5 -65 -5 -65 -35;
#X obj 0 212 drawtext bla -60 -35 200;
#X obj 0 242 drawtext bla2 -60 -20 200;
#X obj 13 64 outlet;
#X connect 1 0 5 0;
#X restore 619 29 pd \$0-struct;
#X text -1 103 synchro des offsets entre les deux fenetres;
#X obj 67 663 s \$0-palette.offset;
#X obj 482 362 s \$0-palette.dragging;
#X obj 434 449 s \$0-palette.target;
#X obj 270 181 t a b;
#X obj 490 192 f \$0;
#X obj 490 217 v PALETTE.dollarzero;
#N canvas 0 32 1920 994 drop-animation-in-target-gran-parent 0;
#X obj 626 429 unpack f f;
#X obj 643 499 / 1;
#X obj 852 495 / 1;
#X obj 970 564 pointer;
#X msg 970 488 delete;
#X obj 889 656 pack f f;
#X obj 1047 337 list prepend 0 0;
#X msg 1049 310 100 20;
#X obj 873 805 set \$0-rectangle x y;
#X obj 610 393 spigot;
#X msg 953 357 1;
#X obj 630 467 - 0;
#X obj 698 462 - 0;
#X obj 842 342 spigot;
#X obj 906 415 t b b;
#X msg 889 292 0;
#X obj 614 197 route motion zoom;
#X obj 990 57 select 0 1;
#X obj 1036 91 t b b;
#X obj 1035 26 r \$0-palette.dragging;
#X obj 517 252 r \$0-palette.offset;
#X obj 1157 591 bng 20 250 50 0 empty empty empty 0 -10 0 12 #fcfcfc #000000 #000000;
#X text 1077 653 iemguts/;
#X obj 568 48 inlet;
#X obj 423 341 unpack f f;
#X obj 429 409 / 1;
#X obj 496 404 / 1;
#X obj 427 379 - 0;
#X obj 495 374 - 0;
#X obj 429 444 pack f f;
#X obj 1153 651 canvasname 4;
#X obj 1051 375 list append \$0;
#X msg 1051 411 scalar \$5-rectangle \$1 \$2 \$3 \$4 0 \\\;;
#X obj 1274 275 r PALETTE.info;
#X obj 1274 300 route label;
#X obj 1266 333 route empty;
#X obj 1343 363 list;
#X obj 1219 470 list append;
#X obj 1219 495 list append \\\;;
#X obj 1219 520 list append;
#X obj 1219 545 list trim;
#X obj 1250 580 t b a b;
#X obj 1194 612 delay 100;
#X msg 1208 698 traverse pd-\$1 \, next;
#X obj 1100 754 pointer \$0-rectangle;
#X obj 1090 779 t p p b;
#X obj 1276 620 outlet;
#X obj 1338 386 list split 9;
#X connect 0 0 11 0;
#X connect 0 1 12 0;
#X connect 1 0 5 0;
#X connect 2 0 5 1;
#X connect 4 0 3 0;
#X connect 5 0 8 0;
#X connect 6 0 31 0;
#X connect 7 0 6 0;
#X connect 9 0 0 0;
#X connect 10 0 9 1;
#X connect 10 0 13 1;
#X connect 11 0 1 0;
#X connect 12 0 2 0;
#X connect 13 0 14 0;
#X connect 14 0 4 0;
#X connect 14 1 15 0;
#X connect 15 0 13 1;
#X connect 15 0 9 1;
#X connect 16 1 1 1;
#X connect 16 1 2 1;
#X connect 17 0 13 0;
#X connect 17 1 18 0;
#X connect 18 1 7 0;
#X connect 19 0 17 0;
#X connect 20 0 9 0;
#X connect 20 0 24 0;
#X connect 21 0 30 0;
#X connect 23 0 16 0;
#X connect 24 0 27 0;
#X connect 24 1 28 0;
#X connect 25 0 29 0;
#X connect 26 0 29 1;
#X connect 27 0 25 0;
#X connect 28 0 26 0;
#X connect 29 0 6 1;
#X connect 30 1 43 0;
#X connect 31 0 32 0;
#X connect 32 0 37 0;
#X connect 33 0 34 0;
#X connect 34 0 35 0;
#X connect 35 1 36 0;
#X connect 36 0 47 0;
#X connect 37 0 38 0;
#X connect 38 0 39 0;
#X connect 39 0 40 0;
#X connect 40 0 41 0;
#X connect 41 0 42 0;
#X connect 41 1 46 0;
#X connect 41 2 37 1;
#X connect 41 2 39 1;
#X connect 42 0 30 0;
#X connect 43 0 44 0;
#X connect 44 0 45 0;
#X connect 45 0 8 2;
#X connect 45 1 3 1;
#X connect 45 2 10 0;
#X connect 47 0 37 1;
#X connect 47 1 39 1;
#X connect 47 2 37 1;
#X restore 578 750 pd drop-animation-in-target-gran-parent;
#N canvas 939 355 825 644 drop-and-create-object-in-target-gran-parent 0;
#X obj 455 304 select 1;
#X obj 45 271 list append;
#X obj 337 130 t b l;
#X obj 54 346 list split 1;
#X obj 12 446 list append;
#X obj 39 483 list append;
#X obj 56 522 list trim;
#X msg 385 334 0;
#X obj 53 230 t b b;
#X msg 76 102 0;
#X obj 52 201 spigot 1;
#X obj 147 98 t b a;
#X msg 142 127 1;
#X obj 215 78 route mouse mouseup motion zoom;
#X obj 384 164 unpack f f;
#X obj 369 204 / 1;
#X obj 452 210 / 1;
#X obj 438 132 t f f;
#X obj 367 230 pack f f;
#X obj 189 510 send;
#X obj 147 478 delay 200;
#N canvas 80 502 450 300 get_module_index_if_not_specified 0;
#X obj 83 12 inlet;
#X obj 70 229 outlet;
#X obj 199 122 v;
#X obj 173 45 list;
#X obj 173 70 list split 1;
#X obj 173 95 t s b s;
#X msg 243 126 symbol \$1-ID;
#X obj 153 183 list append;
#X obj 153 208 list append;
#X obj 153 233 list split 2;
#X obj 203 156 + 1;
#X connect 0 0 3 0;
#X connect 2 0 10 0;
#X connect 3 0 4 0;
#X connect 4 0 5 0;
#X connect 4 1 7 1;
#X connect 5 0 7 0;
#X connect 5 1 2 0;
#X connect 5 2 6 0;
#X connect 6 0 2 1;
#X connect 7 0 8 0;
#X connect 8 0 9 0;
#X connect 9 0 1 0;
#X connect 10 0 8 1;
#X restore 113 399 pd get_module_index_if_not_specified;
#X obj 113 441 t l b l;
#X msg 244 474 symbol \$1-\$2-loadbang;
#X obj 111 6 r \$0-palette.target;
#X obj 453 269 v \$0-palette.dragging;
#X obj 467 392 s \$0-palette.dragging;
#X obj 91 38 list trim;
#X obj 72 70 route empty saved;
#X obj 588 65 text define \$0-savestate;
#X obj 156 203 text insert \$0-savestate;
#X obj 165 177 list;
#X msg 574 29 clear;
#X obj 516 545 text sequence \$0-savestate;
#X msg 525 513 line 0 \, auto;
#X obj 519 583 s PALETTE.savestate;
#X obj 64 541 t b a;
#X obj 529 440 text size \$0-savestate;
#X obj 529 465 select 0;
#X text 184 41 iemguts/;
#X obj 85 589 outlet;
#X obj 290 13 inlet;
#X connect 0 0 10 0;
#X connect 1 0 3 0;
#X connect 2 0 25 0;
#X connect 2 1 14 0;
#X connect 3 0 4 0;
#X connect 3 1 21 0;
#X connect 4 0 5 0;
#X connect 5 0 6 0;
#X connect 6 0 36 0;
#X connect 7 0 25 0;
#X connect 7 0 26 0;
#X connect 8 0 1 0;
#X connect 8 1 7 0;
#X connect 9 0 10 1;
#X connect 10 0 8 0;
#X connect 11 0 12 0;
#X connect 11 1 1 1;
#X connect 12 0 10 1;
#X connect 13 2 2 0;
#X connect 13 3 17 0;
#X connect 14 0 15 0;
#X connect 14 1 16 0;
#X connect 15 0 18 0;
#X connect 16 0 18 1;
#X connect 17 0 15 1;
#X connect 17 1 16 1;
#X connect 18 0 4 1;
#X connect 20 0 19 0;
#X connect 21 0 22 0;
#X connect 22 0 5 1;
#X connect 22 1 20 0;
#X connect 22 2 23 0;
#X connect 23 0 19 1;
#X connect 24 0 27 0;
#X connect 25 0 0 0;
#X connect 27 0 28 0;
#X connect 28 0 9 0;
#X connect 28 0 32 0;
#X connect 28 1 31 0;
#X connect 28 2 11 0;
#X connect 31 0 30 0;
#X connect 32 0 29 0;
#X connect 33 0 35 0;
#X connect 34 0 33 0;
#X connect 36 0 37 0;
#X connect 36 1 40 0;
#X connect 37 0 38 0;
#X connect 38 1 34 0;
#X connect 41 0 13 0;
#X restore 219 750 pd drop-and-create-object-in-target-gran-parent;
#X text 44 137 iemguts/;
#X text 264 137 iemguts/;
#X obj 1357 19 declare -path iemguts;
#X obj 1352 46 declare -lib iemguts;
#N canvas 977 664 450 300 vanilla_get_parent_dollarzero 0;
#X obj 111 198 outlet;
#X obj 109 150 v ACTIVE_DOLLARZERO;
#X obj 116 48 loadbang;
#X connect 1 0 0 0;
#X connect 2 0 1 0;
#X restore 1605 124 pd vanilla_get_parent_dollarzero;
#X obj 1594 163 ==;
#X obj 1544 30 r OPENPALETTE;
#X obj 1594 188 select 1;
#X obj 1625 335 s;
#X msg 1740 284 symbol pd-\$1;
#X obj 1618 211 t b b;
#X obj 1613 268 tgl 20 0 empty empty empty 0 -10 0 12 #fcfcfc #000000 #000000 0 1;
#X msg 1613 293 vis \$1;
#X obj 760 216 r IS_THERE_A_PALETTE?;
#X obj 760 241 s YES_THERE_IS!;
#X text 324 823 iemguts/;
#X obj 476 580 unpack f f;
#X obj 608 641 / 1;
#X obj 702 646 / 1;
#X obj 608 666 pack f f;
#N canvas 2 87 995 761 donecanvasdialog 0;
#X text 232 279 Xunits/pixel Yunits/px gop xfrom yfrom xto yto width heught xmargin ymargin;
#X obj 199 90 t f b;
#X obj 78 209 + 100;
#X obj 227 128 f 100;
#X text 609 142 momentary disable Graph on Parent to force redrawing in parent canvas;
#X text 582 313 re-enable graph on parent with new values;
#X obj 73 245 pipe 10;
#X obj 168 40 r \$0-tab;
#X obj 272 443 outlet;
#X obj 251 46 inlet;
#X obj 76 188 * 200;
#X msg 225 154 donecanvasdialog 1 -1 0 0 0 1 1 900 200 100 \$1;
#X msg 217 307 donecanvasdialog 1 -1 3 0 0 1 1 900 200 100 \$1 \, dirty 0;
#X connect 1 0 10 0;
#X connect 1 1 3 0;
#X connect 2 0 3 1;
#X connect 2 0 6 0;
#X connect 3 0 11 0;
#X connect 6 0 12 0;
#X connect 7 0 1 0;
#X connect 9 0 1 0;
#X connect 10 0 2 0;
#X connect 11 0 8 0;
#X connect 12 0 8 0;
#X restore 852 150 pd donecanvasdialog;
#X obj 852 175 s \$0-this;
#X obj 810 107 hradio 20 1 0 8 empty empty empty 0 -10 0 12 #fcfcfc #000000 #000000 0;
#X obj 20 17 declare -path automatonism/palette;
#X obj 103 140 receivecanvas 3;
#X obj 328 141 receivecanvas 2;
#X obj 241 707 receivecanvas 3;
#X obj 391 826 sendcanvas 3;
#X obj 1688 245 canvasname 2;
#X msg 1549 505 \\\;;
#X msg 1548 456 add2 \\\;;
#X obj 1145 134 select 1;
#X obj 1124 104 r \$0-palette.dragging;
#X obj 1145 159 t b b;
#X obj 1177 282 list prepend 0 0;
#X msg 1173 249 100 20;
#X obj 1173 318 list append \$0;
#X obj 1357 222 r PALETTE.info;
#X obj 1357 247 route label;
#X obj 1349 280 route empty;
#X obj 1426 310 list;
#X obj 1302 417 list append;
#X obj 1302 442 list append \\\;;
#X obj 1302 467 list append;
#X obj 1302 492 list trim;
#X obj 1562 544 s \$0-that;
#X msg 1149 373 scalar \$5-rectangle \$1 \$2 \$3 \$4 0 \\\;;
#X obj 1438 629 pointer \$0-rectangle;
#X obj 1317 550 canvasname 2;
#X obj 1319 518 bng 20 250 50 0 empty empty empty 0 -10 0 12 #fcfcfc #000000 #000000;
#X obj 1378 524 delay 100;
#X msg 1305 577 traverse pd-\$1 \, next;
#X msg 1485 594 traverse \$1-that \, next;
#X obj 1465 556 f \$0;
#X obj 1421 503 t b a b;
#X obj 331 357 s \$0-zoom;
#X obj 629 598 r \$0-zoom;
#X obj 885 627 r \$0-zoom;
#X obj 1428 654 t p p b;
#X obj 1421 333 list split 9;
#X obj 768 381 delay 150;
#X obj 615 72 route click;
#X obj 624 98 t b p;
#X obj 580 187 pointer;
#X msg 541 177 delete;
#X obj 582 138 delay 1;
#X obj 317 17 r \$0-edit;
#X msg 317 42 vis 1 \, editmode 1;
#X obj 317 67 s \$0-this;
#X connect 0 0 44 0;
#X connect 1 0 0 0;
#X connect 1 0 14 0;
#X connect 2 0 12 0;
#X connect 2 1 13 0;
#X connect 3 0 7 0;
#X connect 4 0 7 1;
#X connect 6 0 5 0;
#X connect 7 0 8 0;
#X connect 9 0 2 0;
#X connect 10 0 9 1;
#X connect 10 0 15 1;
#X connect 11 0 67 0;
#X connect 12 0 3 0;
#X connect 13 0 4 0;
#X connect 14 0 45 0;
#X connect 15 0 17 0;
#X connect 16 0 15 1;
#X connect 16 0 9 1;
#X connect 17 1 6 0;
#X connect 17 2 16 0;
#X connect 18 0 20 0;
#X connect 19 0 21 0;
#X connect 20 0 19 0;
#X connect 20 0 24 1;
#X connect 20 1 30 0;
#X connect 21 0 23 0;
#X connect 22 0 29 0;
#X connect 23 0 22 0;
#X connect 24 0 25 0;
#X connect 25 0 27 0;
#X connect 26 0 28 0;
#X connect 26 0 29 0;
#X connect 27 0 26 0;
#X connect 29 0 31 0;
#X connect 30 0 32 1;
#X connect 30 1 33 1;
#X connect 31 0 32 0;
#X connect 31 1 33 0;
#X connect 32 0 36 1;
#X connect 33 0 37 1;
#X connect 34 0 36 0;
#X connect 34 1 37 0;
#X connect 35 0 43 0;
#X connect 36 0 35 0;
#X connect 37 0 35 1;
#X connect 38 0 19 1;
#X connect 38 0 24 0;
#X connect 38 1 29 1;
#X connect 38 2 34 0;
#X connect 38 3 11 0;
#X connect 38 4 9 0;
#X connect 39 0 1 0;
#X connect 39 2 111 0;
#X connect 40 0 38 0;
#X connect 40 1 39 0;
#X connect 40 2 106 0;
#X connect 41 0 112 0;
#X connect 46 0 40 0;
#X connect 46 1 47 0;
#X connect 47 0 48 0;
#X connect 49 0 78 0;
#X connect 50 0 78 0;
#X connect 55 0 56 1;
#X connect 56 0 58 0;
#X connect 57 0 56 0;
#X connect 58 0 61 0;
#X connect 60 0 59 1;
#X connect 61 0 62 0;
#X connect 61 1 79 0;
#X connect 62 0 63 0;
#X connect 63 0 59 0;
#X connect 64 0 65 0;
#X connect 67 0 68 0;
#X connect 67 1 69 0;
#X connect 68 0 70 0;
#X connect 69 0 70 1;
#X connect 70 0 85 1;
#X connect 71 0 72 0;
#X connect 73 0 71 0;
#X connect 75 0 18 0;
#X connect 76 0 46 0;
#X connect 77 0 49 0;
#X connect 77 0 50 0;
#X connect 79 1 60 0;
#X connect 81 0 80 0;
#X connect 82 0 84 0;
#X connect 83 0 82 0;
#X connect 84 1 86 0;
#X connect 85 0 87 0;
#X connect 86 0 85 0;
#X connect 87 0 97 0;
#X connect 88 0 89 0;
#X connect 89 0 90 0;
#X connect 90 1 91 0;
#X connect 91 0 110 0;
#X connect 92 0 93 0;
#X connect 93 0 94 0;
#X connect 94 0 95 0;
#X connect 95 0 105 0;
#X connect 97 0 92 0;
#X connect 98 0 109 0;
#X connect 99 1 102 0;
#X connect 100 0 99 0;
#X connect 101 0 99 0;
#X connect 101 0 104 0;
#X connect 103 0 98 0;
#X connect 104 0 103 0;
#X connect 105 0 101 0;
#X connect 105 1 96 0;
#X connect 105 2 92 1;
#X connect 105 2 94 1;
#X connect 107 0 68 1;
#X connect 107 0 69 1;
#X connect 108 0 3 1;
#X connect 108 0 4 1;
#X connect 109 0 8 2;
#X connect 109 1 5 1;
#X connect 109 2 10 0;
#X connect 110 0 92 1;
#X connect 110 1 94 1;
#X connect 110 2 92 1;
#X connect 111 0 15 0;
#X connect 112 0 113 0;
#X connect 113 0 116 0;
#X connect 113 1 114 1;
#X connect 115 0 114 0;
#X connect 116 0 115 0;
#X connect 117 0 118 0;
#X connect 118 0 119 0;
#X restore 23 19 pd stuff;
#X obj 509 106 cnv 15 180 15 empty empty MODULATION: 10 8 0 12 #9898dc #fcfcfc 0;
#X obj 110 104 cnv 15 180 15 empty empty OSCILLATORS: 10 8 0 12 #9898dc #fcfcfc 0;
#X obj 116 903 cnv 15 180 15 empty empty UTILITY&LOGIC: 10 8 0 12 #9898dc #fcfcfc 0;
#X obj 107 509 cnv 15 180 15 empty empty VCA/MIXERS: 10 8 0 12 #9898dc #fcfcfc 0;
#X obj 514 129 basic-lfo;
#X obj 513 153 sinebank;
#X obj 514 177 ahr;
#X obj 513 202 decay;
#X obj 516 228 slope;
#X obj 515 252 adsr;
#X obj 695 134 random-gates;
#X obj 108 127 basic-osc;
#X obj 108 177 wtable;
#X obj 244 130 karplus;
#X obj 246 158 2op-fm;
#X obj 245 181 trigons;
#X obj 364 216 triad;
#X obj 341 325 pd-303;
#X obj 365 242 polysynth;
#X obj 788 331 kick;
#X obj 790 356 snare;
#X obj 791 388 hihat;
#X obj 795 423 percussion;
#X obj 790 307 cnv 15 180 15 empty empty INSTRUMENTS: 10 8 0 12 #9898dc #fcfcfc 0;
#X obj 372 133 noise;
#X obj 567 328 looper;
#X obj 561 363 sampler;
#X obj 342 411 chord-synth;
#X obj 493 420 algomatrix;
#X obj 122 535 vca;
#X obj 124 564 lpg;
#X obj 119 591 xfade;
#X obj 118 621 3way-xfade;
#X obj 118 646 polarizer;
#X obj 274 534 mixer2;
#X obj 271 563 mixer4;
#X obj 267 594 toggle-matrix;
#X obj 271 639 random-mixer;
#X obj 562 388 extra-sampler;
#X obj 695 160 random-voltages;
#X obj 697 187 s&h;
#X obj 738 1127 cnv 15 180 15 empty empty ORGANELLE: 10 8 0 12 #9898dc #fcfcfc 0;
#X obj 426 511 cnv 15 180 15 empty empty MIDI: 10 8 0 12 #9898dc #fcfcfc 0;
#X obj 429 535 midi-in;
#X obj 431 561 midi-polyin;
#X obj 428 587 midi-out;
#X obj 737 1152 organelle-knobs;
#X obj 738 1183 organelle-keyboard;
#X obj 738 1217 organelle-aux;
#X obj 740 1256 organelle-output;
#X obj 112 711 cnv 15 180 15 empty empty SOUND-PROCESSORS: 10 8 0 12 #9898dc #fcfcfc 0;
#X obj 129 758 lp-filter;
#X obj 131 785 hp-filter;
#X obj 134 813 bp-filter;
#X obj 133 841 ladder-filter;
#X obj 270 761 analog-filter;
#X obj 268 861 formant;
#X obj 267 785 bob-filter;
#X obj 403 784 bitcrush;
#X obj 404 811 wavefold;
#X obj 548 859 phasor;
#X obj 821 758 combfilter;
#X obj 545 781 granular-delay;
#X obj 678 757 millerverb;
#X obj 547 755 stereo-delay;
#X obj 548 832 chorus;
#X obj 403 835 overdrive;
#X obj 403 860 tremolo;
#X obj 268 835 filterbank;
#X obj 676 780 megaverb;
#X obj 546 806 pitchshifter;
#X obj 401 759 compressor;
#X text 200 733 FILTERING;
#X text 410 727 DISTORSION;
#X text 553 728 DELAY - REVERB - PHASING;
#X obj 268 809 channel-eq;
#X obj 677 805 vintageverb;
#X obj 824 786 starlight;
#X obj 678 835 audiofreeze;
#X obj 119 1119 cnv 15 180 15 empty empty MACRO-STRUCTURAL-TOOLS: 10 8 0 12 #9898dc #fcfcfc 0;
#X obj 117 931 clock;
#X obj 117 956 clock-multiply;
#X obj 118 982 clock-divider-even;
#X obj 118 1009 clock-divider-odd;
#X obj 119 1034 vc-counter;
#X obj 305 933 trigger-delay;
#X obj 305 961 trigger-train;
#X obj 605 928 inverter;
#X obj 744 926 scope;
#X obj 604 980 slew;
#X obj 304 991 probability;
#X obj 602 955 quantizer;
#X obj 455 929 4to1-switch;
#X obj 454 956 1to4-switch;
#X obj 601 1014 env-follower;
#X obj 742 1025 external-audio;
#X obj 750 970 audio-recorder;
#X obj 745 1000 multitrack-recorder;
#X obj 116 1061 playhead;
#X obj 450 993 manual-triggers;
#X obj 455 1030 manual-toggle;
#X obj 122 1158 preset-manager;
#X obj 125 1192 param-nudge;
#X obj 126 1220 time-manager;
#X obj 126 1250 random-time-manager;
#X obj 317 1156 macro-control;
#X coords 0 0 1 1 900 200 2 100 900;
#X restore 228 15 pd sub;
#X obj 174 14 vradio 33 1 1 6 \$0-tab empty empty 0 -10 0 12 #fcfcfc #000000 #000000 4;
#X text 16 22 OSCILLATORS/MODULATION;
#X obj 24 207 namecanvas \$0-that;
#X obj 175 216 bng 20 250 50 0 \$0-edit empty edit_palette 30 10 0 12 #fcfcfc #000000 #000000;
#X text 37 87 VCA / MIXERS / MIDI;
#X text 58 122 SOUND PROCESSORS;
#X text 65 151 UTILITY & LOGIC;
#X text 11 183 MACRO TOOLS / ORGANELLE;
#X text 1 53 SEQUENCERS / INSTRUMENTS;
