#N canvas 343 468 845 543 12;
#X text 189 1 AUTOMATONISM - RELOADED!;
#X text 54 72 if you have installed external lib iemguts;
#X text 29 122 OR;
#X obj 388 97;
#X text 48 152 if you are using plugdata \,;
#X text 96 96 simply type "automatonism" in this box ->;
#X text 23 32 To create a new automatonism patch :;
#X obj 366 185;
#X text 102 184 type "automatonism \$0" in this box ->;
