#N canvas 528 85 1336 1018 12;
#X declare -path automatonism/patch_editor_abs;
#X declare -path patch_editor_abs;
#X text 28 202 presets en local;
#X text 27 227 auto-id assign;
#X text 29 254 savestate & pre 0.49 compatibility (cf mob);
#X text 197 445 -> midilearn et megaseq;
#X obj 270 10 declare -path automatonism/patch_editor_abs;
#X obj 270 40 namecanvas \$0-this;
#X obj 12 11 automatonism_menu \$0;
#X text 28 278 OK state_saving_module/upgrade génère un sous-patch où sont créés les listeners (hsl_dispatch), f 97;
#X text 30 322 OK dossier STATE_SAVING_MODULE pour stocker tous les listeners, f 69;
#X text 29 301 OK empecher automatonism de se creer une deuxieme fois;
#X text 29 342 OK touche esc seulement pour patch courant (needs iemguts);
#X text 174 202 -> transformer tous les textfaile en state_saving_module/textfile \$0, f 71;
#X obj 863 175 mega-sequencer 1;
#X text 874 113 Mega sequencer a son propre systeme de presets inde[endant de preset manager;
#X obj 877 557 ratchet-seq 1;
#X text 891 526 Idem pour Ratchet sequencer;
#X obj 1033 746 trigger-seq 1;
#X text 873 714 Idem pour trigger sequencer;
#X obj 370 716 bwl-osc 2;
#X obj 111 509 polysynth 1;
#X obj 478 485 preset-manager 2;
#N canvas 0 50 450 250 (subpatch) 0;
#X text 0 0 plugdatainfo <?xml version="1.0" encoding="UTF-8"?> <plugdatainfo/>;
#X coords 0 1 100 -1 1 1 1;
#X restore 0 0 graph;
#X obj 430 89 declare -path patch_editor_abs;
