#N canvas 577 286 1336 1018 12;
#X declare -path automatonism/patch_editor_abs;
#X text 131 180 todo;
#X text 28 202 presets en local;
#X text 27 227 auto-id assign;
#X text 29 254 savestate & pre 0.49 compatibility (cf mob);
#X text 197 445 -> midilearn et megaseq;
#X obj 270 10 declare -path automatonism/patch_editor_abs;
#X obj 270 40 namecanvas \$0-this;
#X obj 12 11 automatonism_menu \$0;
#A saved esc-active 1;
#X obj 245 521 bwl-osc;
#A saved dispatch bwl-osc-fm-att-s 118;
#A saved mapping bwl-osc-pitch-s 0 1 1 120 63 lin;
#A saved dispatch bwl-osc-pitch-s 127;
#A saved mapping bwl-osc-pwidth-s 0 1 1 15 83 lin;
#A saved dispatch bwl-osc-pwidth-s 112;
#A saved mapping bwl-osc-cv-att-s 0 1 1 73 108 lin;
#A saved dispatch bwl-osc-cv-att-s 113;
#A saved mapping bwl-osc-wform-s 0 1 1 0 3 lin;
#A saved dispatch bwl-osc-wform-s 3;
#X text 28 278 OK state_saving_module/upgrade génère un sous-patch
où sont créés les listeners (hsl_dispatch), f 97;
#X text 30 322 OK dossier STATE_SAVING_MODULE pour stocker tous les
listeners, f 69;
#X text 29 301 OK empecher automatonism de se creer une deuxieme fois
;
#X text 29 342 OK touche esc seulement pour patch courant (needs iemguts)
;
#X obj 558 446 preset-manager 1;
#A saved storage_mode 0;
#A saved storage_mode 1;
#A saved statesave/5-0-bwl-osc-ss.txt 105 49 32 11 0;
#A saved statesave/5-1-bwl-osc-ss.txt 19 20 9 13 1;
#A saved statesave/4-0-bwl-osc-ss.txt 89 89 94 97 3;
#A saved statesave/4-1-bwl-osc-ss.txt 13 23 27 41 0;
#A saved statesave/3-1-bwl-osc-ss.txt 60 53 46 61 1;
#A saved statesave/2-1-bwl-osc-ss.txt 95 71 58 87 2;
#A saved statesave/1-1-bwl-osc-ss.txt 127 90 69 107 3;
#A saved statesave/3-0-bwl-osc-ss.txt 61 50 57 51 2;
#A saved statesave/2-0-bwl-osc-ss.txt 27 26 34 23 1;
#A saved statesave/1-0-bwl-osc-ss.txt 0 2 2 0 0;
#A saved storage_mode 0;
#A saved storage_mode 0;
#X obj 280 742 bwl-osc 1;
#A saved dispatch bwl-osc-fm-att-s 87;
#A saved dispatch bwl-osc-pitch-s 95;
#A saved dispatch bwl-osc-pwidth-s 71;
#A saved dispatch bwl-osc-cv-att-s 58;
#A saved dispatch bwl-osc-wform-s 2;
#X text 174 202 -> transformer tous les textfaile en state_saving_module/textfile
, f 71;
#N canvas 315 35 593 735 state-saving-multiple-instances 0;
#X obj 137 29 loadbang;
#X obj 184 452 textfile;
#X msg 466 435 rewind;
#X msg 423 435 bang;
#X obj 42 691 textfile;
#X obj 423 396 t b b;
#X obj 43 357 f;
#X obj 56 580 f;
#X obj -16 401 t b b b;
#X msg 119 580 clear;
#X obj 204 217 outlet;
#X text 246 221 INSTANCE NUMBER;
#X obj 165 153 f \$1;
#X obj 165 189 t f f f;
#X obj 138 62 t b b;
#X obj -16 378 bng 15 250 50 0 empty empty empty 17 7 0 10 -262144
-1 -1;
#X obj -16 234 r SAVE-S;
#X obj 43 400 pack f f f f f;
#X obj 184 474 unpack f f f f f;
#X msg 43 438 set \$1 \$2 \$3 \$4 \$5;
#X obj 58 254 r \$0-bwl-osc-pitch-s;
#X obj 184 627 s \$0-bwl-osc-pitch-r;
#X msg 184 427 read statesave/\$1-bwl-osc-ss.txt;
#X msg 55 651 write statesave/\$1-bwl-osc-ss.txt;
#X obj 66 277 r \$0-bwl-osc-pwidth-s;
#X obj 205 603 s \$0-bwl-osc-pwidth-r;
#X obj 80 298 r \$0-bwl-osc-cv-att-s;
#X obj 226 579 s \$0-bwl-osc-cv-att-r;
#X obj 98 323 r \$0-bwl-osc-fm-att-s;
#X obj 247 555 s \$0-bwl-osc-fm-att-r;
#X obj 118 348 r \$0-bwl-osc-wform-s;
#X obj 274 529 s \$0-bwl-osc-wform-r;
#X obj 222 45 r \$0-reload!;
#X connect 0 0 14 0;
#X connect 1 0 18 0;
#X connect 2 0 1 0;
#X connect 3 0 1 0;
#X connect 5 0 3 0;
#X connect 5 1 2 0;
#X connect 6 0 17 0;
#X connect 7 0 23 0;
#X connect 8 0 7 0;
#X connect 8 1 6 0;
#X connect 8 2 9 0;
#X connect 9 0 4 0;
#X connect 12 0 13 0;
#X connect 13 0 7 1;
#X connect 13 1 22 0;
#X connect 13 2 10 0;
#X connect 14 0 5 0;
#X connect 14 1 12 0;
#X connect 15 0 8 0;
#X connect 16 0 15 0;
#X connect 17 0 19 0;
#X connect 18 0 21 0;
#X connect 18 1 25 0;
#X connect 18 2 27 0;
#X connect 18 3 29 0;
#X connect 18 4 31 0;
#X connect 19 0 4 0;
#X connect 20 0 6 1;
#X connect 22 0 1 0;
#X connect 23 0 4 0;
#X connect 24 0 17 1;
#X connect 26 0 17 2;
#X connect 28 0 17 3;
#X connect 30 0 17 4;
#X connect 32 0 14 0;
#X restore 953 240 pd state-saving-multiple-instances;
#N canvas 131 304 1117 745 state-saving-via-preset-manager-module 0
;
#X msg 719 210 rewind;
#X msg 676 210 bang;
#X obj 676 171 t b b;
#X obj 107 234 f;
#X obj 120 457 f;
#X obj 53 352 t b b b;
#X msg 236 499 clear;
#X obj 107 56 delay 5;
#X obj 53 407 delay 10;
#X msg 53 192 bang;
#X obj 53 26 r STORE-S!;
#X obj 340 128 f;
#X obj 313 85 t b b;
#X obj 328 49 t b f;
#X obj 385 146 f \$1;
#X obj 340 173 pack f f;
#X obj 385 96 loadbang;
#X obj 120 487 pack f f;
#X obj 165 440 loadbang;
#X obj 165 462 f \$1;
#X obj 328 26 r preset-manager-scan;
#X obj 135 418 r preset-manager-store-slot;
#X msg 106 368 set \$1 \$2 \$3 \$4 \$5;
#X obj 107 301 pack f f f f f;
#X obj 340 249 unpack f f f f f;
#X obj 123 78 r \$0-bwl-osc-pitch-s;
#X obj 345 714 s \$0-bwl-osc-pitch-r;
#X obj 136 107 r \$0-bwl-osc-pwidth-s;
#X obj 146 146 r \$0-bwl-osc-cv-att-s;
#X obj 491 545 s \$0-bwl-osc-cv-att-r;
#X obj 169 173 r \$0-bwl-osc-fm-att-s;
#X obj 549 453 s \$0-bwl-osc-fm-att-r;
#X obj 182 197 r \$0-bwl-osc-wform-s;
#X obj 596 365 s \$0-bwl-osc-wform-r;
#X msg 119 528 write statesave/\$1-\$2-bwl-osc-ss.txt;
#X msg 340 202 read statesave/\$1-\$2-bwl-osc-ss.txt;
#N canvas 0 22 1069 747 morph 0;
#X obj 176 94 inlet;
#X obj 176 236 pack f f;
#X obj 176 261 line;
#X obj 209 117 r preset-manager-morph-s;
#X msg 72 244 stop;
#X obj 72 214 r STOP-MORPH!;
#X obj 209 206 spigot;
#X obj 398 137 t f f;
#X obj 455 154 == 0;
#X obj 221 176 f;
#X floatatom 455 222 5 0 0 0 - - -;
#X obj 398 159 t b f;
#X floatatom 425 192 5 0 0 0 - - -;
#X obj 209 139 t f f;
#X obj 176 283 outlet;
#X obj 398 102 inlet;
#X connect 0 0 1 0;
#X connect 1 0 2 0;
#X connect 2 0 14 0;
#X connect 3 0 13 0;
#X connect 4 0 2 0;
#X connect 5 0 4 0;
#X connect 6 0 1 1;
#X connect 7 0 11 0;
#X connect 7 1 8 0;
#X connect 8 0 10 0;
#X connect 9 0 6 0;
#X connect 10 0 1 1;
#X connect 11 0 9 0;
#X connect 11 1 12 0;
#X connect 12 0 6 1;
#X connect 13 0 6 0;
#X connect 13 1 9 1;
#X connect 15 0 7 0;
#X restore 345 688 pd morph;
#X obj 390 665 r frequencies-s;
#N canvas 0 22 1069 747 morph 0;
#X obj 176 94 inlet;
#X obj 176 236 pack f f;
#X obj 176 261 line;
#X obj 209 117 r preset-manager-morph-s;
#X msg 72 244 stop;
#X obj 72 214 r STOP-MORPH!;
#X obj 209 206 spigot;
#X obj 398 137 t f f;
#X obj 455 154 == 0;
#X obj 221 176 f;
#X floatatom 455 222 5 0 0 0 - - -;
#X obj 398 159 t b f;
#X floatatom 425 192 5 0 0 0 - - -;
#X obj 209 139 t f f;
#X obj 176 283 outlet;
#X obj 398 102 inlet;
#X connect 0 0 1 0;
#X connect 1 0 2 0;
#X connect 2 0 14 0;
#X connect 3 0 13 0;
#X connect 4 0 2 0;
#X connect 5 0 4 0;
#X connect 6 0 1 1;
#X connect 7 0 11 0;
#X connect 7 1 8 0;
#X connect 8 0 10 0;
#X connect 9 0 6 0;
#X connect 10 0 1 1;
#X connect 11 0 9 0;
#X connect 11 1 12 0;
#X connect 12 0 6 1;
#X connect 13 0 6 0;
#X connect 13 1 9 1;
#X connect 15 0 7 0;
#X restore 421 605 pd morph;
#X obj 421 631 s \$0-bwl-osc-pwidth-r;
#X obj 466 582 r parameters-s;
#N canvas 0 22 1069 747 morph 0;
#X obj 176 94 inlet;
#X obj 176 236 pack f f;
#X obj 176 261 line;
#X obj 209 117 r preset-manager-morph-s;
#X msg 72 244 stop;
#X obj 72 214 r STOP-MORPH!;
#X obj 209 206 spigot;
#X obj 398 137 t f f;
#X obj 455 154 == 0;
#X obj 221 176 f;
#X floatatom 455 222 5 0 0 0 - - -;
#X obj 398 159 t b f;
#X floatatom 425 192 5 0 0 0 - - -;
#X obj 209 139 t f f;
#X obj 176 283 outlet;
#X obj 398 102 inlet;
#X connect 0 0 1 0;
#X connect 1 0 2 0;
#X connect 2 0 14 0;
#X connect 3 0 13 0;
#X connect 4 0 2 0;
#X connect 5 0 4 0;
#X connect 6 0 1 1;
#X connect 7 0 11 0;
#X connect 7 1 8 0;
#X connect 8 0 10 0;
#X connect 9 0 6 0;
#X connect 10 0 1 1;
#X connect 11 0 9 0;
#X connect 11 1 12 0;
#X connect 12 0 6 1;
#X connect 13 0 6 0;
#X connect 13 1 9 1;
#X connect 15 0 7 0;
#X restore 491 520 pd morph;
#X obj 536 498 r attenuators-s;
#N canvas 0 22 1069 747 morph 0;
#X obj 176 94 inlet;
#X obj 176 236 pack f f;
#X obj 176 261 line;
#X obj 209 117 r preset-manager-morph-s;
#X msg 72 244 stop;
#X obj 72 214 r STOP-MORPH!;
#X obj 209 206 spigot;
#X obj 398 137 t f f;
#X obj 455 154 == 0;
#X obj 221 176 f;
#X floatatom 455 222 5 0 0 0 - - -;
#X obj 398 159 t b f;
#X floatatom 425 192 5 0 0 0 - - -;
#X obj 209 139 t f f;
#X obj 176 283 outlet;
#X obj 398 102 inlet;
#X connect 0 0 1 0;
#X connect 1 0 2 0;
#X connect 2 0 14 0;
#X connect 3 0 13 0;
#X connect 4 0 2 0;
#X connect 5 0 4 0;
#X connect 6 0 1 1;
#X connect 7 0 11 0;
#X connect 7 1 8 0;
#X connect 8 0 10 0;
#X connect 9 0 6 0;
#X connect 10 0 1 1;
#X connect 11 0 9 0;
#X connect 11 1 12 0;
#X connect 12 0 6 1;
#X connect 13 0 6 0;
#X connect 13 1 9 1;
#X connect 15 0 7 0;
#X restore 549 424 pd morph;
#X obj 594 402 r attenuators-s;
#X obj 340 227 state_saving_module/textfile;
#X obj 106 568 state_saving_module/textfile;
#X connect 0 0 45 0;
#X connect 1 0 45 0;
#X connect 2 0 1 0;
#X connect 2 1 0 0;
#X connect 3 0 23 0;
#X connect 4 0 17 0;
#X connect 5 0 8 0;
#X connect 5 1 7 0;
#X connect 5 2 6 0;
#X connect 6 0 46 0;
#X connect 7 0 3 0;
#X connect 8 0 4 0;
#X connect 9 0 5 0;
#X connect 10 0 9 0;
#X connect 11 0 15 0;
#X connect 12 0 2 0;
#X connect 12 1 11 0;
#X connect 13 0 12 0;
#X connect 13 1 11 1;
#X connect 14 0 15 1;
#X connect 15 0 35 0;
#X connect 16 0 14 0;
#X connect 17 0 34 0;
#X connect 18 0 19 0;
#X connect 19 0 17 1;
#X connect 20 0 13 0;
#X connect 21 0 4 1;
#X connect 22 0 46 0;
#X connect 23 0 22 0;
#X connect 24 0 36 0;
#X connect 24 1 38 0;
#X connect 24 2 41 0;
#X connect 24 3 43 0;
#X connect 24 4 33 0;
#X connect 25 0 3 1;
#X connect 27 0 23 1;
#X connect 28 0 23 2;
#X connect 30 0 23 3;
#X connect 32 0 23 4;
#X connect 34 0 46 0;
#X connect 35 0 45 0;
#X connect 36 0 26 0;
#X connect 37 0 36 1;
#X connect 38 0 39 0;
#X connect 40 0 38 1;
#X connect 41 0 29 0;
#X connect 42 0 41 1;
#X connect 43 0 31 0;
#X connect 44 0 43 1;
#X connect 45 0 24 0;
#X restore 953 215 pd state-saving-via-preset-manager-module;
#X text 914 146 AUtre strategie : communiquer directement avec les
listeners. Comme ca on pourra se passer des, f 25;
#X text 907 308 sans besoin de profondément modifier tous les modules
;
#X text 39 391 ratchet seq : pb de chargement des presets;
