#N canvas 0 57 1920 1023 16;
#X obj 129 7 loadbang;
#X obj 146 729 iemguts/sendcanvas 1;
#X obj 1130 677 delay 10;
#X obj 1132 605 f \$1;
#X obj 1132 642 select 0;
#X obj 1132 716 iemguts/canvasdelete 1;
#X obj 158 171 state_saving_module/is_automatonism_loaded;
#X obj 130 200 f;
#X obj 130 229 select 0;
#X text 602 169 check if declare-path object is present;
#X obj 105 594 t b b;
#X msg 102 850 created [automatonism_menu] & [declare] objects;
#X obj 100 886 print automatonism;
#X obj 127 403 select 1 0;
#N canvas 224 89 576 260 \$0-copy_into_your_patch 0;
#X text 58 90 Please select your main patch window and choose menu
edit/paste (Ctrl/Cmd + v), f 40;
#X text 58 24 You don't have iemguts lib installed;
#X text 59 159 You can then leave edit_mode (Ctrl/Cmd + e);
#X restore 560 82 pd \$0-copy_into_your_patch;
#X msg 253 486 vis 1 \, editmode 1 \, selectall \, copy \, vis 0;
#X obj 129 29 spigot 1;
#X obj 130 63 t b b;
#X msg 215 28 0;
#X obj 1132 511 r AUTOMATONISM_LOADED;
#X obj 126 111 t b b;
#N canvas 1006 170 690 223 \$0-temp 0;
#X restore 559 43 pd \$0-temp;
#X obj 253 512 s pd-\$0-temp;
#X obj 1259 639 s pd-\$0-copy_into_your_patch;
#X msg 1258 603 vis 0;
#X obj 159 544 s pd-\$0-copy_into_your_patch;
#X obj 154 481 delay 10;
#X msg 156 509 vis 1;
#X obj 165 339 iemguts/classtest;
#X msg 169 307 symbol classtest;
#X obj 130 273 t b b;
#X obj 127 370 f;
#X text 251 380 if iemguts lib is not present \, add objects manually
;
#X obj 1132 561 t b b;
#X msg 148 653 obj 270 10 declare -path automatonism/patch_editor_abs
\, obj 270 40 namecanvas \\\$0-this \, obj 10 10 automatonism_menu
\\\$0 \, loadbang \, editmode 0;
#X obj 179 447 t b b b;
#X msg 795 389 clear \, obj 270 10 declare -path automatonism/patch_editor_abs
\, obj 270 40 namecanvas \\\$0-this \, obj 10 10 automatonism_menu
\\\$0 \, loadbang \, editmode 0;
#X connect 0 0 16 0;
#X connect 2 0 5 0;
#X connect 3 0 4 0;
#X connect 4 0 2 0;
#X connect 6 0 7 1;
#X connect 7 0 8 0;
#X connect 8 0 30 0;
#X connect 10 0 11 0;
#X connect 10 1 34 0;
#X connect 11 0 12 0;
#X connect 13 0 10 0;
#X connect 13 1 35 0;
#X connect 15 0 22 0;
#X connect 16 0 17 0;
#X connect 17 0 20 0;
#X connect 17 1 18 0;
#X connect 18 0 16 1;
#X connect 19 0 33 0;
#X connect 20 0 7 0;
#X connect 20 1 6 0;
#X connect 24 0 23 0;
#X connect 26 0 27 0;
#X connect 27 0 25 0;
#X connect 28 0 31 1;
#X connect 29 0 28 0;
#X connect 30 0 31 0;
#X connect 30 1 29 0;
#X connect 31 0 13 0;
#X connect 33 0 3 0;
#X connect 33 1 24 0;
#X connect 34 0 1 0;
#X connect 35 0 26 0;
#X connect 35 1 15 0;
#X connect 35 2 36 0;
#X connect 36 0 22 0;
