#N canvas 1070 192 743 559 12;
#X obj 0 0 hradio 20 1 0 7 \$0-click empty empty 0 -10 0 12 #fcfcfc #000000 #000000 0;
#X obj 174 398 savestate;
#X obj 91 428 onMouseOver organelle-keyboard \$0;
#X msg 79 479 allows you to use the Critter & Guitari Organelle keyboard to cv inputs in the system.;
#X obj 1 1 cnv 18 138 18 \$0-get_pos \$0-pos-rcv organelle-keyboard 5 12 0 12 #e0e0e0 #404040 0;
#X connect 1 0 2 1;
#X connect 1 1 2 2;
#X connect 2 0 3 0;
#X connect 2 1 1 0;
#X connect 3 0 2 0;
#X coords 0 -1 1 1 140 20 2 0 0;
