#N canvas 1070 192 743 559 12;
#X obj 0 0 hradio 20 1 0 6 \$0-click empty empty 0 -10 0 12 #fcfcfc #000000 #000000 0;
#X obj 174 398 savestate;
#X obj 1 1 cnv 18 118 18 \$0-get_pos \$0-pos-rcv organelle-output 5 12 0 12 #e0e0e0 #404040 0;
#X obj 91 428 onMouseOver organelle-output \$0;
#X msg 79 479 used instead of the MAESTRO4 if you are exporting your patch to the Critter % Guitari Organelle.;
#X connect 1 0 3 1;
#X connect 1 1 3 2;
#X connect 3 0 4 0;
#X connect 3 1 1 0;
#X connect 4 0 3 0;
#X coords 0 -1 1 1 120 20 2 0 0;
