#N canvas 1070 192 743 559 12;
#X obj 0 0 hradio 20 1 0 5 \$0-click empty empty 0 -10 0 12 #fcfcfc #000000 #000000 0;
#X obj 1 1 cnv 18 98 18 \$0-get_pos \$0-pos-rcv organelle-aux 5 12 0 12 #e0e0e0 #404040 0;
#X obj 174 398 savestate;
#X obj 91 428 onMouseOver organelle-aux \$0;
#X msg 79 479 Two modes: momentary and toggle whenever the AUX key is pressed;
#X connect 2 0 3 1;
#X connect 2 1 3 2;
#X connect 3 0 4 0;
#X connect 3 1 2 0;
#X connect 4 0 3 0;
#X coords 0 -1 1 1 100 20 1 0 0;
