#N canvas 1070 192 743 559 12;
#N canvas 962 778 450 300 savestate 1;
#X obj 131 218 savestate;
#X obj 46 274 list prepend add2;
#X obj 46 299 list trim;
#X msg 45 326;
#X obj 45 351 list;
#X obj 195 262 t b b;
#X msg 197 303 set;
#X connect 0 0 1 0;
#X connect 0 1 5 0;
#X connect 1 0 2 0;
#X connect 2 0 3 0;
#X connect 3 0 4 0;
#X connect 4 0 0 0;
#X connect 5 0 6 0;
#X connect 5 1 3 0;
#X connect 6 0 3 0;
#X restore 96 311 pd savestate;
#X msg 79 479 The\ "1to4-SWITCH"\ is\ a\ sequential\ switch\ that\ takes\ 1\ input\ and\ sequentially\ distributes\ it\ to\ 4\ outputs\ whenever\ a\ trigger/gate\ signal\ is\ received\ at\ te\ TRIG\ input.;
#X obj 103 382 onMouseOver 1to4-switch;
#X obj 99 231 inlet The\ "1to4-SWITCH"\ is\ a\ sequential\ switch\ that\ takes\ 1\ input\ and\ sequentially\ distributes\ it\ to\ 4\ outputs\ whenever\ a\ trigger/gate\ signal\ is\ received\ at\ te\ TRIG\ input.;
#X text 644 36 momentary disable Graph on Parent to force redrawing in parent canvas;
#X obj 360 91 s \$0-this;
#X obj 349 132 namecanvas \$0-this;
#X msg 280 43 donecanvasdialog 1 -1 1 0 0 1 1 90 30 100 100 \, dirty 0;
#X msg 285 187 donecanvasdialog 1 -1 1 0 0 1 1 190 70 100 140 \, dirty 0;
#X obj 100 100 cnv 20 90 30 empty empty empty 20 12 0 12 #ffc7c6 #404040 0;
#X text 116 105 reduced;
#X obj 101 140 cnv 20 190 70 empty empty empty 20 12 0 12 #c6ffc7 #404040 0;
#X text 121 157 expanded;
#X connect 1 0 2 0;
#X connect 2 0 1 0;
#X connect 2 0 8 0;
#X connect 2 1 7 0;
#X connect 7 0 5 0;
#X connect 8 0 5 0;
#X coords 0 0 1 1 190 70 1 100 140;
