#N canvas 1070 192 743 559 12;
#N canvas 962 778 450 300 savestate 0;
#X obj 131 218 savestate;
#X obj 46 274 list prepend add2;
#X obj 46 299 list trim;
#X msg 45 326;
#X obj 45 351 list;
#X obj 195 262 t b b;
#X msg 197 303 set;
#X connect 0 0 1 0;
#X connect 0 1 5 0;
#X connect 1 0 2 0;
#X connect 2 0 3 0;
#X connect 3 0 4 0;
#X connect 4 0 0 0;
#X connect 5 0 6 0;
#X connect 5 1 3 0;
#X connect 6 0 3 0;
#X restore 96 311 pd savestate;
#X msg 79 479 The\ "4to1-SWITCH"\ is\ a\ sequential\ switch\ that\ takes\ 4\ inputs\ and\ sequentially\ steps\ through\ the\ inputs\ at\ the\ output\ whenever\ a\ trigger/gate\ signal\ is\ received\ at\ te\ TRIG\ input.;
#X obj 91 428 onMouseOver 4to1-switch;
#X obj 99 231 inlet The\ "4to1-SWITCH"\ is\ a\ sequential\ switch\ that\ takes\ 4\ inputs\ and\ sequentially\ steps\ through\ the\ inputs\ at\ the\ output\ whenever\ a\ trigger/gate\ signal\ is\ received\ at\ te\ TRIG\ input.;
#X connect 1 0 2 0;
#X connect 2 0 1 0;
#X coords 0 0 1 1 82 22 0;
