#N canvas 0 32 1920 994 12;
#X text 9 8 AUTOMATONISM;
#X obj 87 345 s PALETTE.canvas.mouse;
#X obj 87 305 pack f f;
#X obj 79 259 canvas.mouse 1;
#X obj 494 111 pdcontrol;
#X msg 515 76 dir;
#X obj 404 162 list append;
#X obj 526 44 loadbang;
#X obj 399 39 r PALETTE.pict;
#X obj 271 55 inlet;
#X msg 399 259 open \$2/thumbnails/\$1;
#X msg 341 99 ducon;
#X obj 359 339 r PALETTE.info;
#X obj 359 369 route label;
#X obj 469 369 symbol;
#X obj 862 708 s;
#X obj 129 -1 pic 0 blank.png empty empty 0 0;
#X obj -1 69 tools/display2;
#X connect 2 0 1 0;
#X connect 3 1 2 0;
#X connect 3 2 2 1;
#X connect 4 0 6 1;
#X connect 5 0 4 0;
#X connect 6 0 10 0;
#X connect 7 0 5 0;
#X connect 8 0 6 0;
#X connect 10 0 16 0;
#X connect 11 0 6 0;
#X connect 12 0 13 0;
#X connect 13 0 14 0;
#X connect 14 0 17 0;
#X coords 0 -1 1 1 246 96 2 0 0;
