#N canvas 1070 192 743 559 12;
#X msg 79 479 The MULTITRACK-RECORDER module takes maximum of 8 inputs and records 24bit .wav files to the folder ..;
#X obj 99 231 inlet The MULTITRACK-RECORDER module takes maximum of 8 inputs and records 24bit .wav files to the folder ..;
#X obj 0 0 hradio 20 1 0 7 \$0-click empty empty 0 -10 0 12 #fcfcfc #000000 #000000 0;
#X obj 91 428 onMouseOver multitrack-recorder \$0;
#X obj 174 398 savestate;
#X obj 1 1 cnv 18 138 18 \$0-get_pos \$0-pos-rcv multitrack-recorder 5 12 0 12 #e0e0e0 #404040 0;
#X connect 0 0 3 0;
#X connect 3 0 0 0;
#X connect 3 1 4 0;
#X connect 4 0 3 1;
#X connect 4 1 3 2;
#X coords 0 -1 1 1 140 20 2 0 0;
