#N canvas 827 239 817 563 12;
#X obj 371 167 t b f;
#X obj 259 159 unpack f f;
#X obj 259 279 -;
#X obj 405 258 -;
#X obj 339 288 abs;
#X obj 409 282 abs;
#X obj 339 346 &&;
#X obj 339 375 change;
#X obj 339 404 select 0 1;
#X obj 139 29 inlet;
#X obj 139 58 list prepend label;
#X obj 139 87 list trim;
#X obj 139 139 s PALETTE.info;
#X obj 405 466 outlet;
#X msg 79 359 label empty;
#X obj 339 39 r PALETTE.canvas.mouse 2;
#X obj 339 68 unpack f f;
#X obj 239 239 f;
#X obj 299 239 f;
#X obj 259 130 canvas.pos 1;
#X obj 539 139 list append \$1;
#X msg 241 476 symbol blank;
#X obj 249 197 + 30;
#X obj 339 317 < 30;
#X obj 579 339 s PALETTE.pict;
#X msg 609 216 \$1.png;
#X obj 414 313 < 9;
#X obj 302 197 + 10;
#X obj 479 465 outlet;
#X connect 0 0 19 0;
#X connect 0 1 2 1;
#X connect 1 0 22 0;
#X connect 1 1 27 0;
#X connect 2 0 4 0;
#X connect 3 0 5 0;
#X connect 4 0 23 0;
#X connect 5 0 26 0;
#X connect 6 0 7 0;
#X connect 7 0 8 0;
#X connect 8 0 14 0;
#X connect 8 0 21 0;
#X connect 8 0 28 0;
#X connect 8 1 13 0;
#X connect 8 1 20 0;
#X connect 9 0 10 0;
#X connect 10 0 11 0;
#X connect 11 0 12 0;
#X connect 14 0 12 0;
#X connect 15 0 16 0;
#X connect 16 0 0 0;
#X connect 16 1 3 1;
#X connect 17 0 2 0;
#X connect 18 0 3 0;
#X connect 19 0 1 0;
#X connect 20 0 25 0;
#X connect 21 0 25 0;
#X connect 22 0 17 0;
#X connect 23 0 6 0;
#X connect 25 0 24 0;
#X connect 26 0 6 1;
#X connect 27 0 18 0;
