#N canvas 373 142 1354 700 12;
#X obj 33 2 inlet;
#X obj 33 31 list prepend label;
#X obj 33 60 list trim;
#X obj 31 162 s PALETTE.info;
#X obj 405 466 outlet;
#X msg 61 121 label empty;
#X obj 601 82 s \$2-pos-rcv;
#X obj 597 -5 loadbang;
#X obj 602 27 list append \$1;
#X msg 602 52 label \$1;
#X obj 604 137 r \$2-click;
#X msg 745 287 1;
#X obj 775 131 pdcontrol;
#X obj 622 275 list append;
#X obj 752 72 loadbang;
#X msg 640 350 symbol \$1-palette.target;
#X obj 866 283 v PALETTE.dollarzero;
#X msg 905 327 symbol \$1-palette.dragging;
#X obj 875 372 s;
#X obj 618 396 s;
#X listbox 789 166 20 0 0 0 - - - 0;
#X msg 765 97 args 1;
#X obj 774 209 list prepend obj \$1;
#X obj 1097 3 inlet;
#X obj 1212 20 inlet;
#X obj 1204 184 outlet;
#X obj 1026 88 list trim;
#X msg 1072 125;
#X obj 1072 150 list;
#X obj 1222 61 t b b;
#X msg 1159 93 set;
#X msg 566 222;
#X obj 475 271 list prepend saved;
#X obj 603 176 t b b b b;
#X obj 1049 29 list prepend add2;
#X obj 1037 59 t a b;
#X msg 1103 61 addcomma;
#X connect 0 0 1 0;
#X connect 1 0 2 0;
#X connect 2 0 3 0;
#X connect 5 0 3 0;
#X connect 7 0 8 0;
#X connect 8 0 9 0;
#X connect 9 0 6 0;
#X connect 10 0 33 0;
#X connect 11 0 18 0;
#X connect 12 0 20 0;
#X connect 12 0 22 0;
#X connect 13 0 19 0;
#X connect 14 0 21 0;
#X connect 15 0 19 1;
#X connect 16 0 17 0;
#X connect 16 0 15 0;
#X connect 17 0 18 1;
#X connect 21 0 12 0;
#X connect 22 0 13 1;
#X connect 23 0 34 0;
#X connect 24 0 29 0;
#X connect 26 0 27 0;
#X connect 26 0 31 0;
#X connect 27 0 28 0;
#X connect 28 0 25 0;
#X connect 29 0 30 0;
#X connect 29 1 27 0;
#X connect 30 0 27 0;
#X connect 30 0 31 0;
#X connect 31 0 32 0;
#X connect 32 0 19 0;
#X connect 33 0 31 0;
#X connect 33 1 13 0;
#X connect 33 2 11 0;
#X connect 33 3 16 0;
#X connect 33 3 4 0;
#X connect 34 0 35 0;
#X connect 35 0 26 0;
#X connect 35 1 36 0;
#X connect 36 0 26 0;
