#N canvas 373 142 1354 700 12;
#X obj 232 72 t b f;
#X obj 216 150 unpack f f;
#X obj 232 267 -;
#X obj 327 267 -;
#X obj 261 297 abs;
#X obj 331 291 abs;
#X obj 261 355 &&;
#X obj 261 384 change;
#X obj 261 413 select 0 1;
#X obj 33 2 inlet;
#X obj 33 31 list prepend label;
#X obj 33 60 list trim;
#X obj 31 162 s PALETTE.info;
#X obj 405 466 outlet;
#X msg 61 121 label empty;
#X obj 237 1 r PALETTE.canvas.mouse 2;
#X obj 237 30 unpack f f;
#X obj 212 227 f;
#X obj 272 227 f;
#X obj 385 499 list append \$1;
#X msg 269 465 symbol blank;
#X obj 222 185 + 30;
#X obj 261 326 < 30;
#X obj 266 586 s PALETTE.pict;
#X msg 279 550 \$1.png;
#X obj 336 322 < 9;
#X obj 275 185 + 10;
#X obj 601 82 s \$2-pos-rcv;
#X obj 597 -5 loadbang;
#X obj 602 27 list append \$1;
#X msg 602 52 label \$1;
#X obj 226 110 canvas.pos 1;
#X obj 604 137 r \$2-click;
#X msg 745 287 1;
#X obj 775 131 pdcontrol;
#X obj 622 275 list append;
#X obj 752 72 loadbang;
#X msg 640 350 symbol \$1-palette.target;
#X obj 866 283 v PALETTE.dollarzero;
#X msg 905 327 symbol \$1-palette.dragging;
#X obj 875 372 s;
#X obj 618 396 s;
#X listbox 789 166 20 0 0 0 - - - 0;
#X msg 765 97 args 1;
#X obj 774 209 list prepend obj \$1;
#X obj 1097 3 inlet;
#X obj 1212 20 inlet;
#X obj 1204 184 outlet;
#X obj 1026 88 list trim;
#X msg 1072 125;
#X obj 1072 150 list;
#X obj 1222 61 t b b;
#X msg 1159 93 set;
#X msg 566 222;
#X obj 475 271 list prepend saved;
#X obj 603 176 t b b b b;
#X obj 1049 29 list prepend add2;
#X obj 1037 59 t a b;
#X msg 1103 61 addcomma;
#X connect 0 0 31 0;
#X connect 0 1 2 1;
#X connect 1 0 21 0;
#X connect 1 1 26 0;
#X connect 2 0 4 0;
#X connect 3 0 5 0;
#X connect 4 0 22 0;
#X connect 5 0 25 0;
#X connect 6 0 7 0;
#X connect 7 0 8 0;
#X connect 8 0 14 0;
#X connect 8 0 20 0;
#X connect 8 1 13 0;
#X connect 8 1 19 0;
#X connect 9 0 10 0;
#X connect 10 0 11 0;
#X connect 11 0 12 0;
#X connect 14 0 12 0;
#X connect 15 0 16 0;
#X connect 16 0 0 0;
#X connect 16 1 3 1;
#X connect 17 0 2 0;
#X connect 18 0 3 0;
#X connect 19 0 24 0;
#X connect 20 0 24 0;
#X connect 21 0 17 0;
#X connect 22 0 6 0;
#X connect 24 0 23 0;
#X connect 25 0 6 1;
#X connect 26 0 18 0;
#X connect 28 0 29 0;
#X connect 29 0 30 0;
#X connect 30 0 27 0;
#X connect 31 0 1 0;
#X connect 32 0 55 0;
#X connect 33 0 40 0;
#X connect 34 0 42 0;
#X connect 34 0 44 0;
#X connect 35 0 41 0;
#X connect 36 0 43 0;
#X connect 37 0 41 1;
#X connect 38 0 39 0;
#X connect 38 0 37 0;
#X connect 39 0 40 1;
#X connect 43 0 34 0;
#X connect 44 0 35 1;
#X connect 45 0 56 0;
#X connect 46 0 51 0;
#X connect 48 0 49 0;
#X connect 48 0 53 0;
#X connect 49 0 50 0;
#X connect 50 0 47 0;
#X connect 51 0 52 0;
#X connect 51 1 49 0;
#X connect 52 0 49 0;
#X connect 52 0 53 0;
#X connect 53 0 54 0;
#X connect 54 0 41 0;
#X connect 55 0 53 0;
#X connect 55 1 35 0;
#X connect 55 2 33 0;
#X connect 55 3 38 0;
#X connect 56 0 57 0;
#X connect 57 0 48 0;
#X connect 57 1 58 0;
#X connect 58 0 48 0;
