#N canvas 0 32 1920 994 12;
#X declare -path iemguts;
#X declare -lib iemguts;
#X msg 510 302 0;
#X obj 459 272 delay 100;
#X obj 626 429 unpack f f;
#X obj 643 499 / 1;
#X obj 852 495 / 1;
#X obj 1053 311 pointer;
#X obj 982 523 pointer;
#X msg 970 488 delete;
#X obj 849 533 pack f f;
#X obj 1001 435 list prepend 0 0;
#X msg 1030 378 100 20;
#X obj 1047 473 append \$0-rectangle x y width height;
#X obj 1054 543 set \$0-rectangle x y;
#X obj 610 393 spigot;
#X obj 1068 337 t b b b a;
#X msg 956 298 1;
#X msg 690 313 0;
#X msg 504 514 \$1 \$2;
#X obj 630 467 - 0;
#X obj 698 462 - 0;
#X msg 454 366 empty;
#X obj 842 342 spigot;
#X msg 889 292 0;
#X obj 1027 59 select 1;
#X obj 906 415 t b b b;
#X obj 132 129 route motion;
#X obj 108 329 timer;
#X obj 118 288 t b l;
#X obj 108 354 < 200;
#X obj 109 421 select 1;
#X obj 108 388 change;
#X obj 238 369 timer;
#X obj 238 394 < 200;
#X obj 239 461 select 1;
#X obj 238 428 change;
#X obj 234 498 bng 20 250 50 0 empty empty empty 0 -10 0 12 #fcfcfc #000000 #000000;
#X obj 102 448 list append;
#X obj 134 502 unpack f f;
#X obj 102 475 unpack f f;
#X obj 94 531 -;
#X obj 131 530 -;
#X obj 242 553 unpack f f;
#X obj 101 594 pack f f;
#X obj 82 566 -;
#X obj 142 570 -;
#X obj 241 310 t b l l l l;
#X obj 467 214 t b b b;
#X obj 241 285 route motion mouseup zoom;
#N canvas 1468 87 450 300 \$0-struct 0;
#X obj 38 111 drawpolygon 444 4 0 0 0 height width height width 0 0 0;
#X obj 11 49 struct \$0-rectangle float x float y float width float height;
#X restore 572 40 pd \$0-struct;
#X text 28 67 synchro des offsets entre les deux fenetres;
#X obj 1018 27 r \$0-palette.dragging;
#X obj 96 627 s \$0-palette.offset;
#X obj 511 326 s \$0-palette.dragging;
#X obj 463 413 s \$0-palette.target;
#X obj 299 145 t a b;
#X obj 519 156 f \$0;
#X obj 519 181 v PALETTE.dollarzero;
#N canvas 0 32 1920 994 drop-animation-in-target-gran-parent 0;
#X obj 626 429 unpack f f;
#X obj 643 499 / 1;
#X obj 852 495 / 1;
#X obj 1053 311 pointer;
#X obj 982 523 pointer;
#X msg 970 488 delete;
#X obj 889 656 pack f f;
#X obj 1001 435 list prepend 0 0;
#X msg 1030 378 100 20;
#X obj 1047 473 append \$0-rectangle x y width height;
#X obj 1059 678 set \$0-rectangle x y;
#X obj 610 393 spigot;
#X obj 1068 337 t b b b a;
#X msg 953 357 1;
#X obj 630 467 - 0;
#X obj 698 462 - 0;
#X obj 842 342 spigot;
#X obj 906 415 t b b;
#X msg 889 292 0;
#X obj 614 197 route motion zoom;
#X obj 990 57 select 0 1;
#X obj 1036 91 t b b;
#X obj 1035 26 r \$0-palette.dragging;
#X obj 517 252 r \$0-palette.offset;
#X listbox 1462 196 20 0 0 0 - - - 0;
#X obj 1131 218 bng 20 250 50 0 empty empty empty 0 -10 0 12 #fcfcfc #000000 #000000;
#X obj 1283 90 bng 20 250 50 0 empty empty empty 0 -10 0 12 #fcfcfc #000000 #000000;
#X msg 1288 318 traverse pd-\$1 \, bang;
#X text 1203 152 iemguts/;
#X obj 1259 146 canvasname 3;
#X obj 568 48 inlet;
#X obj 423 341 unpack f f;
#X obj 429 409 / 1;
#X obj 496 404 / 1;
#X obj 427 379 - 0;
#X obj 495 374 - 0;
#X obj 429 444 pack f f;
#X connect 0 0 14 0;
#X connect 0 1 15 0;
#X connect 1 0 6 0;
#X connect 2 0 6 1;
#X connect 3 0 12 0;
#X connect 5 0 4 0;
#X connect 6 0 10 0;
#X connect 7 0 9 0;
#X connect 8 0 7 0;
#X connect 9 0 4 1;
#X connect 9 0 10 2;
#X connect 11 0 0 0;
#X connect 12 0 13 0;
#X connect 12 1 8 0;
#X connect 12 3 9 4;
#X connect 13 0 11 1;
#X connect 13 0 16 1;
#X connect 14 0 1 0;
#X connect 15 0 2 0;
#X connect 16 0 17 0;
#X connect 17 0 5 0;
#X connect 17 1 18 0;
#X connect 18 0 16 1;
#X connect 18 0 11 1;
#X connect 19 1 1 1;
#X connect 19 1 2 1;
#X connect 20 0 16 0;
#X connect 20 1 21 0;
#X connect 21 1 29 0;
#X connect 22 0 20 0;
#X connect 23 0 11 0;
#X connect 23 0 31 0;
#X connect 26 0 29 0;
#X connect 27 0 3 0;
#X connect 29 1 24 0;
#X connect 29 1 27 0;
#X connect 30 0 19 0;
#X connect 31 0 34 0;
#X connect 31 1 35 0;
#X connect 32 0 36 0;
#X connect 33 0 36 1;
#X connect 34 0 32 0;
#X connect 35 0 33 0;
#X connect 36 0 7 1;
#X restore 675 725 pd drop-animation-in-target-gran-parent;
#N canvas 939 355 825 644 drop-and-create-object-in-target-gran-parent 0;
#X obj 455 304 select 1;
#X obj 45 271 list append;
#X obj 337 130 t b l;
#X obj 54 346 list split 1;
#X obj 12 446 list append;
#X obj 39 483 list append;
#X obj 56 522 list trim;
#X msg 385 334 0;
#X obj 53 230 t b b;
#X msg 76 102 0;
#X obj 52 201 spigot 1;
#X obj 147 98 t b a;
#X msg 142 127 1;
#X obj 215 78 route mouse mouseup motion zoom;
#X obj 384 164 unpack f f;
#X obj 369 204 / 1;
#X obj 452 210 / 1;
#X obj 438 132 t f f;
#X obj 367 230 pack f f;
#X obj 189 510 send;
#X obj 147 478 delay 200;
#N canvas 80 502 450 300 get_module_index_if_not_specified 0;
#X obj 83 12 inlet;
#X obj 70 229 outlet;
#X obj 199 122 v;
#X obj 173 45 list;
#X obj 173 70 list split 1;
#X obj 173 95 t s b s;
#X msg 243 126 symbol \$1-ID;
#X obj 153 183 list append;
#X obj 153 208 list append;
#X obj 153 233 list split 2;
#X obj 203 156 + 1;
#X connect 0 0 3 0;
#X connect 2 0 10 0;
#X connect 3 0 4 0;
#X connect 4 0 5 0;
#X connect 4 1 7 1;
#X connect 5 0 7 0;
#X connect 5 1 2 0;
#X connect 5 2 6 0;
#X connect 6 0 2 1;
#X connect 7 0 8 0;
#X connect 8 0 9 0;
#X connect 9 0 1 0;
#X connect 10 0 8 1;
#X restore 113 399 pd get_module_index_if_not_specified;
#X obj 113 441 t l b l;
#X msg 244 474 symbol \$1-\$2-loadbang;
#X obj 111 6 r \$0-palette.target;
#X obj 453 269 v \$0-palette.dragging;
#X obj 467 392 s \$0-palette.dragging;
#X obj 91 38 list trim;
#X obj 72 70 route empty saved;
#X obj 588 65 text define \$0-savestate;
#X obj 156 203 text insert \$0-savestate;
#X obj 165 177 list;
#X msg 574 29 clear;
#X obj 516 545 text sequence \$0-savestate;
#X msg 525 513 line 0 \, auto;
#X obj 519 583 s PALETTE.savestate;
#X obj 64 541 t b a;
#X obj 529 440 text size \$0-savestate;
#X obj 529 465 select 0;
#X text 184 41 iemguts/;
#X obj 85 589 outlet;
#X obj 290 13 inlet;
#X connect 0 0 10 0;
#X connect 1 0 3 0;
#X connect 2 0 25 0;
#X connect 2 1 14 0;
#X connect 3 0 4 0;
#X connect 3 1 21 0;
#X connect 4 0 5 0;
#X connect 5 0 6 0;
#X connect 6 0 36 0;
#X connect 7 0 25 0;
#X connect 7 0 26 0;
#X connect 8 0 1 0;
#X connect 8 1 7 0;
#X connect 9 0 10 1;
#X connect 10 0 8 0;
#X connect 11 0 12 0;
#X connect 11 1 1 1;
#X connect 12 0 10 1;
#X connect 13 2 2 0;
#X connect 13 3 17 0;
#X connect 14 0 15 0;
#X connect 14 1 16 0;
#X connect 15 0 18 0;
#X connect 16 0 18 1;
#X connect 17 0 15 1;
#X connect 17 1 16 1;
#X connect 18 0 4 1;
#X connect 20 0 19 0;
#X connect 21 0 22 0;
#X connect 22 0 5 1;
#X connect 22 1 20 0;
#X connect 22 2 23 0;
#X connect 23 0 19 1;
#X connect 24 0 27 0;
#X connect 25 0 0 0;
#X connect 27 0 28 0;
#X connect 28 0 9 0;
#X connect 28 0 32 0;
#X connect 28 1 31 0;
#X connect 28 2 11 0;
#X connect 31 0 30 0;
#X connect 32 0 29 0;
#X connect 33 0 35 0;
#X connect 34 0 33 0;
#X connect 36 0 37 0;
#X connect 36 1 40 0;
#X connect 37 0 38 0;
#X connect 38 1 34 0;
#X connect 41 0 13 0;
#X restore 248 714 pd drop-and-create-object-in-target-gran-parent;
#X text 73 101 iemguts/;
#X text 293 101 iemguts/;
#X text 976 91 iemguts/;
#X msg 1039 253 traverse pd-\$1 \, bang;
#X obj 357 105 receivecanvas 1;
#X obj 132 104 receivecanvas 2;
#X obj 1036 91 canvasname 1;
#X obj 1241 45 declare -path iemguts;
#X obj 1236 72 declare -lib iemguts;
#N canvas 977 664 450 300 vanilla_get_parent_dollarzero 0;
#X obj 111 198 outlet;
#X obj 109 150 v ACTIVE_DOLLARZERO;
#X obj 116 48 loadbang;
#X connect 1 0 0 0;
#X connect 2 0 1 0;
#X restore 1374 257 pd vanilla_get_parent_dollarzero;
#X obj 1363 296 ==;
#X obj 1313 163 r OPENPALETTE;
#X obj 1363 321 select 1;
#X obj 1457 378 canvasname 1;
#X obj 1394 468 s;
#X msg 1509 417 symbol pd-\$1;
#X obj 1387 344 t b b;
#X obj 1382 401 tgl 20 0 empty empty empty 0 -10 0 12 #fcfcfc #000000 #000000 0 1;
#X msg 1382 426 vis \$1;
#X obj 1390 641 r IS_THERE_A_PALETTE?;
#X obj 1390 666 s YES_THERE_IS!;
#X text 194 740 iemguts/;
#X obj 246 740 sendcanvas 2;
#X obj 270 671 receivecanvas 2;
#X obj 505 544 unpack f f;
#X obj 637 605 / 1;
#X obj 731 610 / 1;
#X obj 829 435 t f f f f;
#X obj 637 630 pack f f;
#X connect 0 0 52 0;
#X connect 1 0 0 0;
#X connect 1 0 20 0;
#X connect 2 0 18 0;
#X connect 2 1 19 0;
#X connect 3 0 8 0;
#X connect 4 0 8 1;
#X connect 5 0 14 0;
#X connect 7 0 6 0;
#X connect 8 0 12 0;
#X connect 9 0 11 0;
#X connect 10 0 9 0;
#X connect 11 0 6 1;
#X connect 11 0 12 2;
#X connect 13 0 2 0;
#X connect 14 0 15 0;
#X connect 14 1 10 0;
#X connect 14 3 11 4;
#X connect 15 0 13 1;
#X connect 15 0 21 1;
#X connect 16 0 13 1;
#X connect 17 0 83 0;
#X connect 18 0 3 0;
#X connect 19 0 4 0;
#X connect 20 0 53 0;
#X connect 21 0 24 0;
#X connect 22 0 21 1;
#X connect 23 0 65 0;
#X connect 24 1 7 0;
#X connect 24 2 22 0;
#X connect 25 0 27 0;
#X connect 26 0 28 0;
#X connect 27 0 26 0;
#X connect 27 0 31 1;
#X connect 27 1 37 0;
#X connect 28 0 30 0;
#X connect 29 0 36 0;
#X connect 30 0 29 0;
#X connect 31 0 32 0;
#X connect 32 0 34 0;
#X connect 33 0 35 0;
#X connect 33 0 36 0;
#X connect 34 0 33 0;
#X connect 36 0 38 0;
#X connect 37 0 39 1;
#X connect 37 1 40 1;
#X connect 38 0 39 0;
#X connect 38 1 40 0;
#X connect 39 0 43 1;
#X connect 40 0 44 1;
#X connect 41 0 43 0;
#X connect 41 1 44 0;
#X connect 42 0 51 0;
#X connect 43 0 42 0;
#X connect 44 0 42 1;
#X connect 45 0 26 1;
#X connect 45 0 31 0;
#X connect 45 1 36 1;
#X connect 45 2 41 0;
#X connect 45 3 17 0;
#X connect 45 4 13 0;
#X connect 46 0 1 0;
#X connect 46 1 16 0;
#X connect 46 2 21 0;
#X connect 47 0 45 0;
#X connect 47 1 46 0;
#X connect 47 2 86 0;
#X connect 50 0 23 0;
#X connect 54 0 47 0;
#X connect 54 1 55 0;
#X connect 55 0 56 0;
#X connect 58 0 81 0;
#X connect 62 0 5 0;
#X connect 63 0 54 0;
#X connect 64 0 25 0;
#X connect 65 1 62 0;
#X connect 68 0 69 1;
#X connect 69 0 71 0;
#X connect 70 0 69 0;
#X connect 71 0 75 0;
#X connect 72 1 74 0;
#X connect 74 0 73 1;
#X connect 75 0 76 0;
#X connect 75 1 72 0;
#X connect 76 0 77 0;
#X connect 77 0 73 0;
#X connect 78 0 79 0;
#X connect 82 0 57 0;
#X connect 82 0 58 0;
#X connect 83 0 84 0;
#X connect 83 1 85 0;
#X connect 84 0 87 0;
#X connect 85 0 87 1;
#X connect 86 0 3 1;
#X connect 86 1 84 1;
#X connect 86 2 85 1;
#X connect 86 3 4 1;
#X connect 87 0 9 1;
