#N canvas 455 87 450 300 12;
#X declare -path automatonism/palette;
#X declare -path automatonism/palette;
#X obj 35 486 cnv 15 180 15 empty empty MODULATION: 10 8 0 12 #9898dc #fcfcfc 0;
#X obj 35 166 cnv 15 180 15 empty empty OSCILLATORS: 10 8 0 12 #9898dc #fcfcfc 0;
#X obj 195 266 wtable;
#X obj 215 286 2op-fm;
#X obj 215 306 trigons;
#X obj 215 326 triad;
#X obj 155 186 pd-303;
#X obj 155 206 polysynth;
#X obj 155 226 polyfm;
#X obj 155 286 kick;
#X obj 155 306 snare;
#X obj 155 326 hihat;
#X obj 155 346 percussion;
#X obj 55 252 karplus;
#X obj 55 206 basic-osc;
#X obj 55 298 bwl-osc;
#N canvas 1214 87 450 300 automatonism 0;
#X obj 27 365 declare -path automatonism/palette;
#X text 59 1 AUTOMATONISM;
#X obj 87 345 s PALETTE.canvas.mouse;
#X obj 87 305 pack f f;
#X obj 79 259 canvas.mouse 1;
#X obj -1 19 cnv 15 242 122 empty PALETTE.info empty 20 12 0 14 #c8c8c8 #5a5a5a 0;
#X obj 19 39 pic 0 blank.png empty empty 0 0;
#X obj 494 111 pdcontrol;
#X listbox 499 159 45 0 0 0 empty - - 8;
#X msg 515 76 dir;
#X obj 404 162 list append;
#X obj 526 44 loadbang;
#X msg 399 259 open \$2/\$1;
#X obj 399 39 r PALETTE.pict;
#X connect 3 0 2 0;
#X connect 4 1 3 0;
#X connect 4 2 3 1;
#X connect 7 0 8 0;
#X connect 7 0 10 1;
#X connect 9 0 7 0;
#X connect 10 0 12 0;
#X connect 11 0 9 0;
#X connect 12 0 6 0;
#X connect 13 0 10 0;
#X coords 0 0 1 1 244 145 2 0 -1;
#X restore 19 -1 pd automatonism;
#X obj 30 144 declare -path automatonism/palette;
