#N canvas 827 239 527 327 12;
#X obj -1 -1 cnv 21 242 12 empty \$0-line1 empty 0 10 0 12 #e0e0e0 #404040 0;
#X obj -1 9 cnv 21 242 12 empty \$0-line2 empty 0 10 0 12 #e0e0e0 #404040 0;
#X obj -1 19 cnv 21 242 12 empty \$0-line3 empty 0 10 0 12 #e0e0e0 #404040 0;
#X obj -1 29 cnv 21 242 12 empty \$0-line4 empty 0 10 0 12 #e0e0e0 #404040 0;
#X obj -1 39 cnv 21 242 12 empty \$0-line5 empty 0 10 0 12 #e0e0e0 #404040 0;
#X obj -1 49 cnv 21 242 12 empty \$0-line6 empty 0 10 0 12 #e0e0e0 #404040 0;
#X obj -1 59 cnv 21 242 12 empty \$0-line7 empty 0 10 0 12 #e0e0e0 #404040 0;
#X obj -1 69 cnv 21 242 12 empty \$0-line8 empty 0 10 0 12 #e0e0e0 #404040 0;
#X obj 407 39 inlet;
#X obj 416 98 list fromsymbol;
#X obj 453 158 list split 46;
#X obj 483 188 list split 46;
#X obj 513 218 list split 46;
#X obj 550 249 list split 46;
#X obj 580 279 list split 46;
#X obj 613 360 list tosymbol;
#X obj 593 390 list tosymbol;
#X obj 563 420 list tosymbol;
#X obj 543 450 list tosymbol;
#X obj 513 480 list tosymbol;
#X obj 483 510 list tosymbol;
#X obj 463 540 list tosymbol;
#X obj 460 632 s \$0-line1;
#X obj 458 662 s \$0-line2;
#X obj 537 632 s \$0-line3;
#X obj 535 662 s \$0-line4;
#X obj 614 632 s \$0-line5;
#X obj 612 662 s \$0-line6;
#X obj 691 632 s \$0-line7;
#X obj 839 449 s \$0-line8;
#X msg 463 569 label \$1;
#X msg 532 569 label \$1;
#X msg 601 569 label \$1;
#X msg 670 569 label \$1;
#X msg 499 599 label \$1;
#X msg 568 599 label \$1;
#X msg 637 599 label \$1;
#X msg 869 409 label \$1;
#X obj 617 309 list split 46;
#X obj 647 340 list tosymbol;
#X msg 779 179 label empty;
#X obj 416 127 list split 46;
#X connect 8 0 9 0 empty;
#X connect 9 0 41 0 empty;
#X connect 10 0 20 0 empty;
#X connect 10 1 11 0 empty;
#X connect 11 0 19 0 empty;
#X connect 11 1 12 0 empty;
#X connect 12 0 18 0 empty;
#X connect 12 1 13 0 empty;
#X connect 13 0 17 0 empty;
#X connect 13 1 14 0 empty;
#X connect 14 0 16 0 empty;
#X connect 14 1 38 0 empty;
#X connect 15 0 33 0 empty;
#X connect 16 0 36 0 empty;
#X connect 17 0 32 0 empty;
#X connect 18 0 35 0 empty;
#X connect 19 0 31 0 empty;
#X connect 20 0 34 0 empty;
#X connect 21 0 30 0 empty;
#X connect 30 0 22 0 empty;
#X connect 31 0 24 0 empty;
#X connect 32 0 26 0 empty;
#X connect 33 0 28 0 empty;
#X connect 34 0 23 0 empty;
#X connect 35 0 25 0 empty;
#X connect 36 0 27 0 empty;
#X connect 37 0 29 0 empty;
#X connect 38 0 15 0 empty;
#X connect 38 1 39 0 empty;
#X connect 39 0 37 0 empty;
#X connect 40 0 23 0 empty;
#X connect 40 0 22 0 empty;
#X connect 40 0 24 0 empty;
#X connect 40 0 25 0 empty;
#X connect 40 0 26 0 empty;
#X connect 40 0 27 0 empty;
#X connect 40 0 28 0 empty;
#X connect 40 0 29 0 empty;
#X connect 41 0 21 0 empty;
#X connect 41 1 10 0 empty;
#X connect 41 2 40 0 empty;
#X coords 0 0 1 1 247 85 1 0 0;
