#N canvas 1070 192 743 559 12;
#X msg 79 479 The\\\ "BASIC-OSC"\\\ module\\\ is\\\ a\\\ simple\\\ oscillator\\\ providing\\\ sine\\\ \\\,\\\ triangle\\\ \\\,\\\ saw\\\ and\\\ pulsewave\\\ with\\\ adjustable\\\ pulsewidth.;
#X obj 91 428 onMouseOver basic-osc \$0;
#X obj 174 398 savestate;
#X obj 99 231 inlet The "BASIC-OSC" module is a simple oscillator providing sine \, triangle \, saw and pulsewave with adjustable pulsewidth.;
#X msg 199 45 outline 0;
#X obj 191 13 loadbang;
#X obj 88 142 pic 0 basic-osc.png empty empty 0 0;
#X connect 0 0 1 0 empty;
#X connect 1 0 0 0 empty;
#X connect 1 1 2 0 empty;
#X connect 2 0 1 1 empty;
#X connect 2 1 1 2 empty;
#X connect 5 0 4 0 empty;
#X coords 0 -1 1 1 161 48 2 85 141;
