#N canvas 365 502 450 300 12;
#X text 102 19 dummy patch;
#X text 93 49 for puredata not complaining if else not available;
#X obj 51 261 outlet;
#X obj 43 20 inlet;
#X obj 292 127 loadbang;
#X msg 260 205 args 1;
#X obj 260 230 pdcontrol;
#X msg 94 135 symbol \$2-pos-rcv;
#X obj 37 188 s;
#X msg 25 118 get_pos;
#X obj 217 172 f \$0;
#X obj 275 150 t b b;
#X obj 36 228 r \$0-get_pos;
#X listbox 274 254 20 0 0 0 - - - 0;
#X msg 126 207 send \$1-get_pos;
#X connect 3 0 9 0;
#X connect 4 0 11 0;
#X connect 5 0 6 0;
#X connect 6 0 7 0;
#X connect 6 0 13 0;
#X connect 7 0 8 1;
#X connect 9 0 8 0;
#X connect 10 0 14 0;
#X connect 11 0 10 0;
#X connect 11 1 5 0;
#X connect 12 0 2 0;
#X connect 14 0 8 0;
