#N canvas 1070 192 743 559 12;
#X msg 79 479 The\ "ORGANELLE-OUTPUT"\ is\ used\ instead\ of\ the\ MAESTRO4\ if\ you\ are\ exporting\ your\ patch\ to\ the\ Critter\ %\ Guitari\ Organelle.;
#X obj 99 231 inlet The\ "ORGANELLE-OUTPUT"\ is\ used\ instead\ of\ the\ MAESTRO4\ if\ you\ are\ exporting\ your\ patch\ to\ the\ Critter\ %\ Guitari\ Organelle.;
#X obj 0 0 hradio 20 1 0 5 \$0-click empty empty 0 -10 0 12 #fcfcfc #000000 #000000 0;
#X obj 1 1 cnv 18 98 18 \$0-get_pos \$0-pos-rcv 2op-fm 5 12 0 12 #e0e0e0 #404040 0;
#X obj 91 428 onMouseOver organelle-output \$0;
#X obj 174 398 savestate;
#X connect 0 0 4 0;
#X connect 4 0 0 0;
#X connect 4 1 5 0;
#X connect 5 0 4 1;
#X connect 5 1 4 2;
#X coords 0 -1 1 1 100 20 1 0 0;
