#N canvas 575 616 450 300 12;
#X obj 100 100 hradio 20 1 0 5 empty empty empty 0 -10 0 12 #fcfcfc #000000 #000000 0;
#X obj 162 133 t b b;
#X obj 101 101 cnv 18 98 18 empty empty \$2 5 12 0 12 #e0e0e0 #404040 0;
#X msg 254 93 1;
#X obj 310 65 pdcontrol;
#X msg 300 31 args 0;
#X obj 309 143 list prepend obj;
#X obj 149 169 list append;
#X obj 287 6 loadbang;
#X obj 309 104 list split 1;
#X obj 290 198 s \$1-palette.dragging;
#X obj 32 213 s \$1-palette.target;
#X connect 0 0 1 0;
#X connect 1 0 7 0;
#X connect 1 1 3 0;
#X connect 3 0 10 0;
#X connect 4 0 9 0;
#X connect 5 0 4 0;
#X connect 6 0 7 1;
#X connect 7 0 11 0;
#X connect 8 0 5 0;
#X connect 9 1 6 0;
#X coords 0 -1 1 1 100 20 2 100 100;
