#N canvas 1468 87 450 300 12;
#X obj 188 106 savestate;
#X obj 103 162 list prepend add2;
#X obj 103 187 list trim;
#X msg 102 214;
#X obj 102 239 list;
#X obj 252 150 t b b;
#X msg 254 191 set;
#X obj 451 147 t b f;
#X obj 319 188 unpack f f;
#X obj 399 259 -;
#X obj 470 258 -;
#X obj 404 301 abs;
#X obj 474 295 abs;
#X obj 479 326 < 20;
#X obj 404 359 &&;
#X obj 404 388 change;
#X obj 404 417 select 0 1;
#X obj 99 419 s info;
#X msg 319 453 label basic_oscillator_with_cv_control;
#X msg 219 359 label empty;
#X obj 418 221 + 10;
#X obj 404 330 < 50;
#X obj 362 222 + 25;
#X obj 258 262 print canvaspos;
#X obj 537 262 print canvasmouse;
#X obj 565 195 pack f f;
#X obj 319 159 canvas.pos;
#X obj 427 114 canvas.mouse 1;
#X connect 0 0 1 0 empty;
#X connect 0 1 5 0 empty;
#X connect 1 0 2 0 empty;
#X connect 2 0 3 0 empty;
#X connect 3 0 4 0 empty;
#X connect 4 0 0 0 empty;
#X connect 5 0 6 0 empty;
#X connect 5 1 3 0 empty;
#X connect 6 0 3 0 empty;
#X connect 7 0 26 0 empty;
#X connect 7 1 9 1 empty;
#X connect 8 0 22 0 empty;
#X connect 8 1 20 0 empty;
#X connect 9 0 11 0 empty;
#X connect 10 0 12 0 empty;
#X connect 11 0 21 0 empty;
#X connect 12 0 13 0 empty;
#X connect 13 0 14 1 empty;
#X connect 14 0 15 0 empty;
#X connect 15 0 16 0 empty;
#X connect 16 0 19 0 empty;
#X connect 16 1 18 0 empty;
#X connect 18 0 17 0 empty;
#X connect 19 0 17 0 empty;
#X connect 20 0 10 0 empty;
#X connect 21 0 14 0 empty;
#X connect 22 0 9 0 empty;
#X connect 25 0 24 0 empty;
#X connect 26 0 8 0 empty;
#X connect 26 0 23 0 empty;
#X connect 27 1 7 0 empty;
#X connect 27 1 25 0 empty;
#X connect 27 2 10 1 empty;
#X connect 27 2 25 1 empty;
#X coords 0 0 1 1 82 22 0;
