#N canvas 809 167 933 963 10;
#X obj 127 267 t f f;
#X obj 127 372 pack f f;
#X obj 127 309 sin;
#X obj 210 309 cos;
#X obj 127 288 * -6.28319;
#X obj 210 287 * -6.28319;
#X obj 100 183 r \$0-s-slider;
#X obj 407 114 savestate;
#X obj 458 140 f;
#X obj 473 119 r \$0-s-slider;
#X obj 407 244 s \$0-r-slider;
#X msg 127 393 label_pos \$1 \$2;
#X obj 597 116 loadbang;
#X obj 100 204 t f f;
#X obj 100 612 outlet;
#X text 100 632 (O1) Output;
#X obj 452 197 inlet;
#X text 452 177 (I1) Inlet;
#X obj 127 246 + 0.125;
#X obj 209 351 + 27;
#X obj 127 225 * 0.75;
#X obj 127 351 + 22;
#X obj 452 218 route float;
#X obj 127 414 s \$0-r-front;
#X obj 331 460 pack s s;
#X msg 331 481 color \$1 \$1 \$2;
#X obj 331 502 s \$0-r-slider;
#X obj 431 460 pack s s;
#X msg 431 481 color \$1 \$1 \$2;
#X obj 431 502 s \$0-r-dot;
#X obj 531 460 pack s s;
#X msg 531 481 color \$1 \$1 \$2;
#X obj 531 502 s \$0-r-fill;
#X obj 631 460 pack s s;
#X msg 631 481 color \$1 \$1 \$2;
#X obj 631 502 s \$0-r-front;
#X obj 515 310 t b b b b;
#X obj 332 367 sel 0;
#X obj 439 368 sel 0;
#X obj 549 367 sel 0;
#X obj 649 366 sel 0;
#X obj 332 414 t s s s s;
#X obj 449 413 t s s;
#X msg 439 389 symbol #000000;
#X msg 332 388 symbol #FFFFFF;
#X msg 649 387 symbol #000000;
#X obj 100 470 t f f;
#X obj 549 346 list store \$3;
#X obj 649 345 list store \$4;
#X text 157 591 1) Send;
#X obj 332 346 list store \$5;
#X obj 439 347 list store \$6;
#X text 332 306 5) background;
#X text 439 307 6) outline;
#X text 531 522 3) fill;
#X text 631 522 4) front;
#X msg 549 388 symbol #BBBBBB;
#X obj 127 591 s;
#X obj 142 528 sel 0;
#X obj 142 507 list store \$1;
#X msg 142 549 symbol nada;
#X obj 200 99 r \$2;
#X obj 286 130 f;
#X msg 320 192 set \$1;
#X obj 142 570 t s;
#X obj 286 172 t f f f f;
#X obj 597 137 t b b;
#X obj 624 158 s \$0-load-1;
#X obj 597 179 s \$0-load-2;
#X obj 142 486 r \$0-load-1;
#X obj 289 85 r \$0-load-2;
#X obj 200 120 spigot 0;
#X msg 253 109 1;
#X obj 289 106 t b b;
#X msg 577 532 height 56 \, width 56;
#X obj 642 909 +;
#X obj 642 932 clip 0 1;
#X obj 642 955 t f f;
#X obj 642 978 s \$0-s-slider;
#X obj 100 100 bng 56 250 50 0 \$0-s-front \$0-r-front ● 16 9 0 20 #ffffff #ffffff #000000;
#X obj 710 792 spigot;
#X obj 759 891 -;
#X obj 642 886 * -0.002;
#X obj 783 634 r \$0-s-front;
#X obj 660 672 select 0;
#X msg 728 753 0;
#X obj 759 674 t b b;
#X msg 749 724 1;
#X obj 719 822 t f f f;
#X obj 771 850 spigot;
#X obj 772 871 t f b;
#X msg 825 851 0;
#X msg 798 816 1;
#X obj 103 149 cnv 2 2 2 empty \$0-r-dot ● 0 0 0 10 #ffffff #000000 0;
#X obj 149 149 cnv 2 2 2 empty \$0-r-dot ● 0 0 0 10 #ffffff #000000 0;
#X obj 127 330 * 18;
#X obj 210 330 * 18;
#X obj 719 595 else/mouse;
#X connect 0 0 4 0;
#X connect 0 1 5 0;
#X connect 1 0 11 0;
#X connect 2 0 95 0;
#X connect 3 0 96 0;
#X connect 4 0 2 0;
#X connect 5 0 3 0;
#X connect 6 0 13 0;
#X connect 7 0 62 1;
#X connect 7 1 8 0;
#X connect 8 0 7 0;
#X connect 9 0 8 1;
#X connect 11 0 23 0;
#X connect 12 0 66 0;
#X connect 13 0 46 0;
#X connect 13 1 20 0;
#X connect 16 0 22 0;
#X connect 18 0 0 0;
#X connect 19 0 1 1;
#X connect 20 0 18 0;
#X connect 21 0 1 0;
#X connect 22 0 10 0;
#X connect 24 0 25 0;
#X connect 25 0 26 0;
#X connect 27 0 28 0;
#X connect 28 0 29 0;
#X connect 30 0 31 0;
#X connect 31 0 32 0;
#X connect 33 0 34 0;
#X connect 34 0 35 0;
#X connect 36 0 50 0;
#X connect 36 1 51 0;
#X connect 36 2 47 0;
#X connect 36 3 48 0;
#X connect 37 0 44 0;
#X connect 37 1 41 0;
#X connect 38 0 43 0;
#X connect 38 1 42 0;
#X connect 39 0 56 0;
#X connect 39 1 30 1;
#X connect 40 0 45 0;
#X connect 40 1 33 1;
#X connect 41 0 24 0;
#X connect 41 1 27 0;
#X connect 41 2 30 0;
#X connect 41 3 33 0;
#X connect 42 0 24 1;
#X connect 42 1 27 1;
#X connect 43 0 42 0;
#X connect 44 0 41 0;
#X connect 45 0 33 1;
#X connect 46 0 14 0;
#X connect 46 1 57 0;
#X connect 47 0 39 0;
#X connect 48 0 40 0;
#X connect 50 0 37 0;
#X connect 51 0 38 0;
#X connect 56 0 30 1;
#X connect 58 0 60 0;
#X connect 58 1 64 0;
#X connect 59 0 58 0;
#X connect 60 0 64 0;
#X connect 61 0 71 0;
#X connect 62 0 65 0;
#X connect 63 0 10 0;
#X connect 64 0 57 1;
#X connect 65 0 20 0;
#X connect 65 1 46 0;
#X connect 65 2 63 0;
#X connect 65 3 8 1;
#X connect 66 0 68 0;
#X connect 66 1 67 0;
#X connect 69 0 59 0;
#X connect 70 0 73 0;
#X connect 71 0 65 0;
#X connect 72 0 71 1;
#X connect 73 0 72 0;
#X connect 73 1 62 0;
#X connect 75 0 76 0;
#X connect 76 0 77 0;
#X connect 77 0 78 0;
#X connect 77 1 75 1;
#X connect 80 0 88 0;
#X connect 81 0 82 0;
#X connect 82 0 75 0;
#X connect 83 0 86 0;
#X connect 84 0 85 0;
#X connect 85 0 80 1;
#X connect 86 0 87 0;
#X connect 86 1 92 0;
#X connect 87 0 80 1;
#X connect 88 0 81 1;
#X connect 88 1 81 0;
#X connect 88 2 89 0;
#X connect 89 0 90 0;
#X connect 90 0 81 1;
#X connect 90 1 91 0;
#X connect 91 0 89 1;
#X connect 92 0 89 1;
#X connect 95 0 21 0;
#X connect 96 0 19 0;
#X connect 97 0 84 0;
#X connect 97 2 80 0;
#X coords 0 -1 1 1 56 56 2 100 100;
