#N canvas 1148 311 704 715 12;
#X obj 245 241 outlet;
#X obj 195 272 inlet;
#X text 267 624 Xunits/pixel Yunits/px gop xfrom yfrom xto yto width heught xmargin ymargin;
#X obj 374 26 namecanvas \$0-this;
#X obj 115 606 s \$0-this;
#X obj 115 376 list append \$1 \$2;
#X obj 115 401 unpack f f;
#X obj 115 426 moses 0;
#X obj 189 427 moses 0;
#X msg 115 464 100;
#X msg 191 463 100;
#X obj 115 511 pack f f;
#X obj 96 333 loadbang;
#X msg 115 581 donecanvasdialog 1 -1 2 0 0 1 1 \$1 \$2 100 100 \, dirty 0;
#X obj 265 370 t b f;
#X obj 306 64 r \$0-this;
#X obj 306 89 print this;
#X obj 264 322 route height width dim color;
#X obj 252 481 unpack f f;
#X obj 252 506 s \$0-w;
#X obj 313 510 s \$0-h;
#N canvas 2 544 450 300 \$0-sub 0;
#X obj 10 10 iemguts/receivecanvas 2;
#X obj 10 40 s 1033-rcv;
#X connect 0 0 1 0;
#X restore 453 92 pd \$0-sub;
#X obj 348 272 s pd-\$0-sub;
#X obj 343 199 pack f \$0;
#X msg 346 228 clear \, obj 10 10 iemguts/receivecanvas \$1 \, obj 10 40 s \$2-rcv \, connect 0 0 1 0;
#X obj 341 174 + 2;
#X obj 414 398 else/mouse;
#X obj 445 135 r \$0-rcv;
#X obj 445 160 print rcv;
#X obj 331 112 loadbang;
#X obj 337 138 f \$6;
#X connect 1 0 17 0;
#X connect 5 0 6 0;
#X connect 6 0 7 0;
#X connect 6 1 8 0;
#X connect 7 0 9 0;
#X connect 7 1 11 0;
#X connect 8 0 10 0;
#X connect 8 1 11 1;
#X connect 9 0 11 0;
#X connect 10 0 11 1;
#X connect 11 0 13 0;
#X connect 11 0 18 0;
#X connect 12 0 5 0;
#X connect 13 0 4 0;
#X connect 14 0 11 0;
#X connect 14 1 8 0;
#X connect 15 0 16 0;
#X connect 17 0 14 0;
#X connect 17 1 7 0;
#X connect 17 2 6 0;
#X connect 18 0 19 0;
#X connect 18 1 20 0;
#X connect 23 0 24 0;
#X connect 24 0 22 0;
#X connect 25 0 23 0;
#X connect 27 0 28 0;
#X connect 29 0 30 0;
#X connect 30 0 25 0;
#X coords 0 0 1 1 127 127 2 100 100;
