#N canvas 504 277 704 715 12;
#X obj 33 208 outlet;
#X obj 218 227 outlet;
#X obj 314 229 outlet;
#X obj 85 59 iemguts/receivecanvas 3;
#X obj 83 98 route motion mouse mouseup;
#X obj 218 185 unpack f f;
#X msg 35 174 0;
#X obj 220 136 t l b;
#X msg 103 177 1;
#X text 387 98 emulates else/mouse;
#X connect 3 0 4 0;
#X connect 4 0 5 0;
#X connect 4 1 7 0;
#X connect 4 2 6 0;
#X connect 5 0 1 0;
#X connect 5 1 2 0;
#X connect 6 0 0 0;
#X connect 7 0 5 0;
#X connect 7 1 8 0;
#X connect 8 0 0 0;
#X coords 0 715 1 714 200 140 0;
