#N canvas 685 83 1151 884 10;
#X obj 2 2 cnv 25 800 25 empty \$0-header empty 20 12 0 14 -228856
-66577 0;
#X obj 125 8 bng 15 250 50 0 \$0-load empty empty 17 7 0 10 -262144
-1 -1;
#X obj 171 8 bng 15 250 50 0 \$0-reload empty empty 17 7 0 10 -262144
-1 -1;
#X text 188 7 Reload;
#X text 141 8 Load;
#X symbolatom 34 8 14 0 0 0 - #0-name #0-name-s;
#N canvas 1 58 958 1018 dynamic.patch 0;
#N canvas 0 57 1920 1023 update.gui 0;
#X obj 112 225 text define \$0-patch;
#X obj 85 246 text size \$0-patch;
#X obj 85 183 t b a;
#X msg 112 204 read \$1;
#X obj 85 267 - 1;
#X obj 118 340 text get \$0-patch 1 1;
#X obj 118 361 symbol;
#X obj 118 382 sel coords;
#X obj 175 403 bang;
#X obj 175 424 symbol;
#X obj 85 162 t s s, f 21;
#X obj 85 490 text get \$0-patch 6 2;
#X obj 85 288 t f f, f 6;
#X obj 118 403 f 1;
#X obj 85 435 spigot;
#X obj 85 142 t s b, f 10;
#X obj 142 403 f 0;
#X obj 208 184 t s s, f 8;
#X obj 253 290 list split;
#X obj 310 248 list length;
#X obj 310 269 - 3;
#X obj 253 205 list fromsymbol;
#X obj 253 226 t l l, f 10;
#X obj 280 378 list tosymbol;
#X obj 280 420 send pd-\$0-internal;
#X obj 77 101 send pd-\$0-internal;
#X obj 106 761 send pd-\$0-internal;
#X obj 82 791 unpack f f;
#X obj 82 833 pack f f, f 10;
#X obj 139 812 + 26;
#X msg 106 739 donecanvasdialog 1 -1 2 0 -1 1 1 \$1 \$2 0 0;
#X obj 82 812 + 0;
#X obj 10 5 inlet;
#X msg 82 854 donecanvasdialog 1 -1 2 0 -1 1 1 \$1 \$2 2 2;
#X obj 463 547 list store;
#X obj 436 355 t l l, f 15;
#X obj 436 376 list length;
#X obj 436 397 - 1;
#X obj 463 463 until;
#X obj 463 440 t f f, f 7;
#X obj 463 484 f, f 7;
#X obj 513 484 - 1;
#X msg 463 525 get \$1 1;
#X obj 434 677 list tosymbol;
#X obj 463 505 t f f, f 14;
#X obj 406 654 list split;
#X obj 463 568 select 47;
#X obj 463 612 f, f 14;
#X obj 463 633 + 1;
#X obj 434 768 s \$0-name;
#X obj 436 418 t b f;
#X obj 463 589 bang;
#X obj 406 333 t l l, f 6;
#X obj 520 656 r \$0-name-s;
#X obj 520 677 bang;
#X msg 434 749 set \$1;
#X obj 85 511 unpack f f;
#X obj 85 623 pack f f, f 10;
#X obj 163 917 send \$0-header;
#X msg 163 896 vis_size \$1 25;
#X msg 280 399 obj 0 0 \$1;
#X obj 253 311 t l l, f 26;
#X msg 252 360 loadbang;
#X obj 10 121 sel undefined;
#N canvas 0 57 1920 1023 undefined 0;
#X obj 38 170 send pd-\$0-internal;
#X obj 21 214 send camomile;
#X msg 21 193 gui redraw;
#X obj 21 15 inlet;
#X obj 72 80 s \$0-name-internal;
#X msg 72 59 symbol undefined;
#X obj 53 128 send pd-pd-automatonism.pd;
#X obj 164 216 send \$0-header;
#X msg 356 205 clear;
#X obj 346 242 s \$0-loaded_data;
#X obj 21 36 t b b b b b b;
#X msg 55 106 donecanvasdialog 1 -1 2 0 -1 1 1 800 800 2 2;
#X msg 164 195 vis_size 800 25;
#X msg 38 149 donecanvasdialog 1 -1 2 0 -1 1 1 800 775 2 2;
#X connect 2 0 1 0;
#X connect 3 0 10 0;
#X connect 5 0 4 0;
#X connect 8 0 9 0;
#X connect 10 0 2 0;
#X connect 10 1 13 0;
#X connect 10 2 11 0;
#X connect 10 3 5 0;
#X connect 10 4 12 0;
#X connect 10 5 8 0;
#X connect 11 0 6 0;
#X connect 12 0 7 0;
#X connect 13 0 0 0;
#X restore 10 211 pd undefined;
#X msg 77 80 clear;
#X obj 442 696 r \$0-name-internal;
#X obj 434 727 symbol undefined;
#X obj 175 465 print Camomatonism - no graph-on-parent;
#X obj 280 443 print Camomatonism - loaded;
#X obj 748 308 r \$0-redraw_gui;
#X obj 699 383 send camomile;
#X msg 699 360 gui resize;
#X obj 723 334 t b b;
#X obj 788 353 delay 10;
#X msg 788 375 gui redraw;
#X obj 82 875 send pd-pd-automatonism.pd;
#X obj 10 28 t b s b;
#X obj 10 75 delay 100;
#X obj 10 99 symbol;
#X obj 142 532 max 200;
#X obj 85 532 max 284;
#X obj 86 676 t l l l;
#X obj 85 578 min 800;
#X obj 142 578 min 800;
#X obj 253 332 t b l;
#X connect 1 0 4 0;
#X connect 2 0 1 0;
#X connect 2 1 3 0;
#X connect 3 0 0 0;
#X connect 4 0 12 0;
#X connect 5 0 6 0;
#X connect 6 0 7 0;
#X connect 7 0 13 0;
#X connect 7 1 8 0;
#X connect 8 0 9 0;
#X connect 9 0 68 0;
#X connect 10 0 2 0;
#X connect 10 1 17 0;
#X connect 11 0 56 0;
#X connect 12 0 14 0;
#X connect 12 1 5 0;
#X connect 13 0 14 1;
#X connect 14 0 11 0;
#X connect 15 0 10 0;
#X connect 15 1 16 0;
#X connect 16 0 14 1;
#X connect 17 0 9 1;
#X connect 17 1 21 0;
#X connect 18 0 61 0;
#X connect 19 0 20 0;
#X connect 20 0 18 1;
#X connect 21 0 22 0;
#X connect 22 0 18 0;
#X connect 22 1 19 0;
#X connect 23 0 60 0;
#X connect 27 0 31 0;
#X connect 27 1 29 0;
#X connect 28 0 33 0;
#X connect 29 0 28 1;
#X connect 30 0 26 0;
#X connect 31 0 28 0;
#X connect 32 0 77 0;
#X connect 33 0 76 0;
#X connect 34 0 46 0;
#X connect 35 0 36 0;
#X connect 35 1 34 1;
#X connect 36 0 37 0;
#X connect 37 0 50 0;
#X connect 38 0 40 0;
#X connect 39 0 38 0;
#X connect 39 1 40 1;
#X connect 40 0 44 0;
#X connect 40 0 41 0;
#X connect 41 0 40 1;
#X connect 42 0 34 0;
#X connect 43 0 67 0;
#X connect 44 0 42 0;
#X connect 44 1 47 1;
#X connect 45 1 43 0;
#X connect 46 0 51 0;
#X connect 47 0 48 0;
#X connect 48 0 45 1;
#X connect 50 1 39 0;
#X connect 51 0 47 0;
#X connect 51 0 38 1;
#X connect 52 0 45 0;
#X connect 52 1 35 0;
#X connect 53 0 54 0;
#X connect 54 0 67 0;
#X connect 55 0 49 0;
#X connect 56 0 81 0;
#X connect 56 1 80 0;
#X connect 57 0 82 0;
#X connect 59 0 58 0;
#X connect 60 0 24 0;
#X connect 61 0 85 0;
#X connect 61 1 52 0;
#X connect 62 0 24 0;
#X connect 63 0 64 0;
#X connect 63 1 15 0;
#X connect 65 0 25 0;
#X connect 66 0 67 0;
#X connect 67 0 55 0;
#X connect 70 0 73 0;
#X connect 72 0 71 0;
#X connect 73 0 72 0;
#X connect 73 1 74 0;
#X connect 74 0 75 0;
#X connect 75 0 71 0;
#X connect 77 0 78 0;
#X connect 77 1 79 1;
#X connect 77 2 65 0;
#X connect 78 0 79 0;
#X connect 79 0 63 0;
#X connect 80 0 84 0;
#X connect 81 0 83 0;
#X connect 82 0 27 0;
#X connect 82 1 30 0;
#X connect 82 2 59 0;
#X connect 83 0 57 0;
#X connect 84 0 57 1;
#X connect 85 0 62 0;
#X connect 85 1 23 0;
#X restore 353 458 pd update.gui;
#N canvas 563 632 336 322 save.program 0;
#X obj 34 24 r save;
#X obj 34 66 symbol;
#X obj 109 156 select symbol;
#X msg 184 135 symbol;
#X obj 109 114 t s b, f 13;
#X obj 184 176 bang;
#X obj 34 218 spigot, f 13;
#X msg 34 239 save patch \$1;
#X obj 34 260 send camomile;
#X obj 67 44 inlet;
#X obj 109 177 bang;
#X obj 34 93 t s s, f 13;
#X obj 109 197 f 0;
#X obj 184 197 f 1;
#X connect 0 0 1 0;
#X connect 1 0 11 0;
#X connect 2 0 10 0;
#X connect 2 1 5 0;
#X connect 3 0 2 1;
#X connect 4 0 2 0;
#X connect 4 1 3 0;
#X connect 5 0 13 0;
#X connect 6 0 7 0;
#X connect 7 0 8 0;
#X connect 9 0 1 1;
#X connect 10 0 12 0;
#X connect 11 0 6 0;
#X connect 11 1 4 0;
#X connect 12 0 6 1;
#X connect 13 0 6 1;
#X restore 380 438 pd save.program;
#X msg 76 542 program updated;
#X obj 76 563 send camomile;
#N canvas 404 197 1220 785 load.program 0;
#X obj 32 22 r load;
#X obj 34 578 outlet;
#X obj 32 43 list trim;
#X obj 32 64 route patch;
#X obj 181 74 text define \$0-loaded_data;
#X obj 183 21 r \$0-reload;
#X obj 256 116 text insert \$0-loaded_data;
#X obj 95 92 list;
#X obj 546 93 r load_data;
#X msg 174 50 clear;
#X obj 33 315 list prepend 0;
#X obj 34 464 symbol;
#X obj 34 487 t s b;
#X msg 132 290 1;
#X obj 34 361 route 0 1;
#X obj 183 428 symbol;
#X text 21 623 first load;
#X text 194 618 following loads;
#X obj 38 157 t s s;
#X obj 27 235 select symbol;
#X text 137 235 escape if same patch;
#X obj 32 110 symbol;
#X obj 116 483 delay 100;
#X obj 74 539 symbol;
#X obj 183 451 t b s b;
#X msg 205 503 symbol undefined;
#X connect 0 0 2 0;
#X connect 2 0 3 0;
#X connect 3 0 21 0;
#X connect 3 1 7 0;
#X connect 5 0 9 0;
#X connect 7 0 6 0;
#X connect 9 0 4 0;
#X connect 10 0 14 0;
#X connect 11 0 12 0;
#X connect 12 0 1 0;
#X connect 12 1 13 0;
#X connect 13 0 10 1;
#X connect 14 0 11 0;
#X connect 14 1 15 0;
#X connect 15 0 24 0;
#X connect 18 0 19 1;
#X connect 18 1 19 0;
#X connect 19 1 10 0;
#X connect 21 0 18 0;
#X connect 22 0 23 0;
#X connect 23 0 1 0;
#X connect 24 0 22 0;
#X connect 24 1 23 1;
#X connect 24 2 25 0;
#X connect 25 0 1 0;
#X restore 247 25 pd load.program;
#N canvas 0 57 1920 1023 load.patch 0;
#X obj 19 7 r \$0-load;
#X obj 18 148 s camomile;
#X obj 18 173 r openpanel;
#X obj 99 148 openpanel;
#X obj 18 388 outlet;
#X obj 20 72 pdcontrol;
#X msg 20 52 dir;
#X obj 17 28 t b;
#X obj 27 97 t s s;
#X obj 29 222 t b s b;
#X obj 180 356 s \$0-close;
#X obj 33 311 symbol;
#X obj 27 265 delay 100;
#X msg 18 127 openpanel \$1/patches;
#X connect 0 0 7 0;
#X connect 2 0 9 0;
#X connect 3 0 4 0;
#X connect 5 0 8 0;
#X connect 6 0 5 0;
#X connect 7 0 6 0;
#X connect 8 0 3 0;
#X connect 8 1 13 0;
#X connect 9 0 12 0;
#X connect 9 1 11 1;
#X connect 9 2 10 0;
#X connect 11 0 4 0;
#X connect 12 0 11 0;
#X connect 13 0 1 0;
#X restore 23 14 pd load.patch;
#X obj 360 356 t s s;
#X obj 40 606 send pd;
#X msg 40 585 dsp 0 \, dsp 1;
#X obj 163 210 symbol undefined;
#X obj 40 168 t b a;
#X obj 139 20 r \$0-reload;
#X obj 108 69 t b b;
#X obj 108 92 delay 100;
#X msg 229 97 symbol undefined;
#X obj 386 266 t s s;
#X obj 289 328 select symbol;
#X text 399 328 escape if same patch;
#X obj 378 57 r \$0-close;
#X msg 374 93 symbol undefined;
#X obj 416 25 loadbang;
#X obj 93 495 s \$0-redraw_gui;
#X obj 96 471 delay 200;
#X msg 148 401 line 0 \, bang;
#X obj 148 426 text sequence \$0-loaded_data;
#X obj 148 449 s load_data;
#X obj 42 363 t b b b b;
#X connect 2 0 3 0;
#X connect 4 0 10 0;
#X connect 5 0 10 0;
#X connect 6 0 0 0;
#X connect 6 1 1 0;
#X connect 8 0 7 0;
#X connect 9 0 15 0;
#X connect 10 0 26 0;
#X connect 10 1 9 0;
#X connect 11 0 12 0;
#X connect 12 0 13 0;
#X connect 12 1 14 0;
#X connect 13 0 10 0;
#X connect 14 0 15 0;
#X connect 15 0 16 1;
#X connect 15 1 16 0;
#X connect 16 1 6 0;
#X connect 18 0 19 0;
#X connect 19 0 10 0;
#X connect 20 0 19 0;
#X connect 22 0 21 0;
#X connect 23 0 24 0;
#X connect 24 0 25 0;
#X connect 26 0 8 0;
#X connect 26 1 2 0;
#X connect 26 2 22 0;
#X connect 26 3 23 0;
#X restore 549 12 pd dynamic.patch;
#X obj 230 8 bng 15 250 50 0 \$0-close empty empty 17 7 0 10 -262144
-1 -1;
#X text 247 7 Close;
#X obj 383 11 bng 15 250 50 0 \$0-redraw_gui empty redraw_gui 17 7
0 10 -262144 -1 -1;
#X text 292 8 AUTOMATONISM;
#N canvas 0 50 1001 694 \$0-internal 0;
#X coords 0 -1 1 1 800 775 2 2 2;
#X restore 2 27 pd \$0-internal;
#X coords 0 -1 1 1 800 800 2 2 2;
