#N canvas 1000 524 717 448 12;
#N canvas 440 166 440 359 template5b 0;
#X obj 66 69 struct template5b float x float y text bla;
#X obj 41 192 drawtext bla 10 10;
#X text 78 18 Besides the usual x/y fields we now have a text field named "bla"., f 35;
#X text 45 112 The [drawtext] is again just another alias for [drawnumber]/[drawsymbol] and has a drawing instruction for it., f 46;
#X text 180 184 draw the "bla" text variable in the 10/10 coordinates., f 28;
#X obj 72 280 drawpolygon 600 5 0 0 160 0 160 60 0 60 0 0;
#X text 102 235 We also have a [drawpolygon] to draw a frame around the text., f 32;
#X restore 227 37 pd template5b;
#X msg 100 139 next;
#X obj 324 115 vradio 15 1 0 3 empty empty empty 0 -8 0 10 #dcdcdc #000000 #000000 0;
#X floatatom 324 167 3 0 0 0 - - - 0;
#X msg 14 218 1 2 3 4 a b c d e;
#X msg 385 165 list a b c d e f g h i j;
#X msg 351 112 symbol text;
#X floatatom 402 193 5 0 0 0 - - - 0;
#X obj 550 208 r text-pointer;
#X obj 15 368 text set -s template5b bla;
#X text 347 88 set text:;
#X text 280 122 set line, f 4;
#X obj 376 32 namecanvas this;
#X msg 91 102 traverse this \, bang;
#X obj 118 191 pointer;
#X obj 121 319 append template5b x y;
#X msg 126 255 2 6;
#X obj 341 350 pointer;
#X msg 388 302 delete;
#X connect 1 0 14 0;
#X connect 2 0 3 0;
#X connect 3 0 9 1;
#X connect 4 0 9 0;
#X connect 5 0 9 0;
#X connect 6 0 9 0;
#X connect 7 0 9 0;
#X connect 13 0 14 0;
#X connect 14 0 15 2;
#X connect 15 0 9 3;
#X connect 15 0 17 1;
#X connect 16 0 15 0;
#X connect 18 0 17 0;
