#N canvas 76 127 1127 650 10;
#X obj 261 98 inlet~;
#X obj 881 94 inlet~;
#X obj 107 143 hradio 15 1 1 4 \$0-1to4-select-s \$0-1to4-select-r empty 0 -8 0 10 #fcfcfc #dc4c90 #000000 0;
#X obj 105 111 cnv 5 5 5 empty empty IN 0 0 0 8 #fcfcfc #404040 0;
#X obj 229 109 cnv 5 5 5 empty empty TRIG 0 0 0 8 #fcfcfc #dc4c90 0;
#X obj 196 168 cnv 5 5 5 empty empty 3 0 0 0 8 #fcfcfc #404040 0;
#X obj 111 136 cnv 5 5 5 empty empty 1 0 0 0 8 #fcfcfc #404040 0;
#X obj 127 136 cnv 5 5 5 empty empty 2 0 0 0 8 #fcfcfc #404040 0;
#X obj 141 136 cnv 5 5 5 empty empty 3 0 0 0 8 #fcfcfc #404040 0;
#X obj 156 136 cnv 5 5 5 empty empty 4 0 0 0 8 #fcfcfc #404040 0;
#X obj 125 120 cnv 5 5 5 empty empty 1to4-SWITCH 0 0 0 12 #fcfcfc #404040 0;
#X obj 210 120 cnv 5 5 5 empty \$0-instance-num 0 0 0 0 12 #fcfcfc #404040 0;
#X obj 261 362 *~;
#X obj 291 345 line~;
#X obj 261 390 outlet~;
#X obj 881 138 t b b;
#X obj 881 160 f;
#X obj 908 160 + 1;
#X obj 881 226 mod 4;
#X obj 231 116 bng 15 100 50 0 empty empty empty 17 7 0 10 #fcfcfc #dc4c90 #000000;
#N canvas 0 0 958 1016 state-saving-multiple-instances 0;
#X obj 215 28 loadbang;
#X obj 261 480 reloaded/textfile \$0;
#X msg 556 463 rewind;
#X msg 513 463 bang;
#X obj 119 690 reloaded/textfile \$0;
#X obj 513 424 t b b;
#X obj 120 356 f;
#X obj 133 579 f;
#X obj 66 422 t b b b;
#X msg 196 579 clear;
#X obj 281 216 outlet;
#X text 277 236 INSTANCE NUMBER;
#X obj 242 92 f \$1;
#X obj 242 128 t f f f;
#X obj 215 61 t b b;
#X obj 66 331 bng 15 250 50 0 empty \$0-save-s empty 17 7 0 10 #fcfcfc #000000 #000000;
#X obj 66 235 r SAVE-S;
#X obj 135 307 r \$0-1to4-select-s;
#X msg 262 455 read statesave/\$1-1to4-switch-ss.txt;
#X msg 132 648 write statesave/\$1-1to4-switch-ss.txt;
#X obj 261 604 s \$0-1to4-select-r;
#X obj 120 399 pack f f;
#X msg 120 438 set \$1 \$2;
#X obj 174 346 r \$0-1to4-steps-s;
#X obj 261 502 unpack f f;
#X obj 318 557 s \$0-1to4-steps-r;
#X connect 0 0 14 0;
#X connect 1 0 24 0;
#X connect 2 0 1 0;
#X connect 3 0 1 0;
#X connect 5 0 3 0;
#X connect 5 1 2 0;
#X connect 6 0 21 0;
#X connect 7 0 19 0;
#X connect 8 0 7 0;
#X connect 8 1 6 0;
#X connect 8 2 9 0;
#X connect 9 0 4 0;
#X connect 12 0 13 0;
#X connect 13 0 7 1;
#X connect 13 1 18 0;
#X connect 13 2 10 0;
#X connect 14 0 5 0;
#X connect 14 1 12 0;
#X connect 15 0 8 0;
#X connect 16 0 15 0;
#X connect 17 0 6 1;
#X connect 18 0 1 0;
#X connect 19 0 4 0;
#X connect 21 0 22 0;
#X connect 22 0 4 0;
#X connect 23 0 21 1;
#X connect 24 0 20 0;
#X connect 24 1 25 0;
#X restore 37 220 pd state-saving-multiple-instances;
#X obj 37 295 s \$0-instance-num;
#X obj 37 247 makefilename %d;
#X msg 37 272 label \$1;
#X obj 291 323 pack 0 1;
#X obj 881 248 s \$0-1to4-select-r;
#X obj 291 128 r \$0-1to4-select-s;
#X obj 291 150 sel 0;
#X msg 291 172 1;
#X msg 318 202 0;
#X obj 401 360 *~;
#X obj 431 343 line~;
#X obj 401 388 outlet~;
#X obj 431 321 pack 0 1;
#X obj 431 126 r \$0-1to4-select-s;
#X msg 431 170 1;
#X msg 458 200 0;
#X obj 542 356 *~;
#X obj 572 339 line~;
#X obj 542 384 outlet~;
#X obj 572 317 pack 0 1;
#X obj 572 122 r \$0-1to4-select-s;
#X msg 572 166 1;
#X msg 599 196 0;
#X obj 669 355 *~;
#X obj 699 338 line~;
#X obj 669 383 outlet~;
#X obj 699 316 pack 0 1;
#X obj 699 121 r \$0-1to4-select-s;
#X msg 699 165 1;
#X msg 726 195 0;
#X obj 431 148 sel 1;
#X obj 572 144 sel 2;
#X obj 699 143 sel 3;
#X obj 880 116 threshold~ 0.9 0 0.9 0;
#X obj 191 143 hradio 15 1 1 3 \$0-1to4-steps-s \$0-1to4-steps-r STEPS 0 -8 0 10 #fcfcfc #dc4c90 #000000 0;
#X obj 195 165 cnv 5 5 5 empty empty 2 0 0 0 8 #fcfcfc #404040 0;
#X obj 212 165 cnv 5 5 5 empty empty 3 0 0 0 8 #fcfcfc #404040 0;
#X obj 227 165 cnv 5 5 5 empty empty 4 0 0 0 8 #fcfcfc #404040 0;
#X obj 938 165 + 2;
#X obj 938 143 r \$0-1to4-steps-s;
#X obj 881 181 + 1;
#X obj 10 50 reloaded 1to4-switch \$0 \$1;
#X obj 50 10 savestate;
#N canvas 2 682 450 300 \$0-gui_listeners 0;
#X obj 10 0 reloaded/hradio_dispatch 1to4-switch \$0 \$1 0 2 1to4-steps-s 1to4-steps-r STEPS #FFFFFF #DE4C91 #000000;
#X obj 10 60 reloaded/hradio_dispatch 1to4-switch \$0 \$1 0 3 1to4-select-s 1to4-select-r empty #FFFFFF #DE4C91 #000000;
#X restore 10 80 pd \$0-gui_listeners;
#N canvas 0 0 1920 1021 state-saving-via-preset-manager-module 0;
#X msg 719 210 rewind;
#X msg 676 210 bang;
#X obj 676 171 t b b;
#X obj 107 234 f;
#X obj 120 457 f;
#X obj 53 352 t b b b;
#X msg 236 499 clear;
#X obj 107 56 delay 5;
#X obj 53 407 delay 10;
#X msg 53 192 bang;
#X obj 53 26 r STORE-S!;
#X obj 340 128 f;
#X obj 313 85 t b b;
#X obj 328 49 t b f;
#X obj 385 146 f \$1;
#X obj 340 173 pack f f;
#X obj 385 96 loadbang;
#X obj 120 487 pack f f;
#X obj 165 440 loadbang;
#X obj 165 462 f \$1;
#X obj 328 26 r preset-manager-scan;
#X obj 135 418 r preset-manager-store-slot;
#X obj 340 227 reloaded/textfile \$0;
#X obj 106 568 reloaded/textfile \$0;
#X obj 326 347 s \$0-1to4-select-r;
#X obj 383 300 s \$0-1to4-steps-r;
#X obj 123 78 r \$0-1to4-select-s;
#X obj 136 107 r \$0-1to4-steps-s;
#X obj 107 301 pack f f;
#X msg 106 368 set \$1 \$2;
#X msg 119 528 write statesave/\$1-\$2-1to4-switch-ss.txt;
#X msg 340 202 read statesave/\$1-\$2-1to4-switch-ss.txt;
#X obj 340 249 unpack f f;
#X connect 0 0 22 0;
#X connect 1 0 22 0;
#X connect 2 0 1 0;
#X connect 2 1 0 0;
#X connect 3 0 28 0;
#X connect 4 0 17 0;
#X connect 5 0 8 0;
#X connect 5 1 7 0;
#X connect 5 2 6 0;
#X connect 6 0 23 0;
#X connect 7 0 3 0;
#X connect 8 0 4 0;
#X connect 9 0 5 0;
#X connect 10 0 9 0;
#X connect 11 0 15 0;
#X connect 12 0 2 0;
#X connect 12 1 11 0;
#X connect 13 0 12 0;
#X connect 13 1 11 1;
#X connect 14 0 15 1;
#X connect 15 0 31 0;
#X connect 16 0 14 0;
#X connect 17 0 30 0;
#X connect 18 0 19 0;
#X connect 19 0 17 1;
#X connect 20 0 13 0;
#X connect 21 0 4 1;
#X connect 22 0 32 0;
#X connect 26 0 3 1;
#X connect 27 0 28 1;
#X connect 28 0 29 0;
#X connect 29 0 23 0;
#X connect 30 0 23 0;
#X connect 31 0 22 0;
#X connect 32 0 24 0;
#X connect 32 1 25 0;
#X restore 37 479 pd state-saving-via-preset-manager-module;
#X text 319 479 <- new in automatonism reloaded;
#X obj 135 77 namecanvas \$0-this;
#X connect 0 0 12 0;
#X connect 0 0 30 0;
#X connect 0 0 37 0;
#X connect 0 0 44 0;
#X connect 1 0 54 0;
#X connect 12 0 14 0;
#X connect 13 0 12 1;
#X connect 15 0 16 0;
#X connect 15 1 19 0;
#X connect 16 0 17 0;
#X connect 16 0 61 0;
#X connect 17 0 16 1;
#X connect 18 0 25 0;
#X connect 20 0 22 0;
#X connect 22 0 23 0;
#X connect 23 0 21 0;
#X connect 24 0 13 0;
#X connect 26 0 27 0;
#X connect 27 0 28 0;
#X connect 27 1 29 0;
#X connect 28 0 24 0;
#X connect 29 0 24 0;
#X connect 30 0 32 0;
#X connect 31 0 30 1;
#X connect 33 0 31 0;
#X connect 34 0 51 0;
#X connect 35 0 33 0;
#X connect 36 0 33 0;
#X connect 37 0 39 0;
#X connect 38 0 37 1;
#X connect 40 0 38 0;
#X connect 41 0 52 0;
#X connect 42 0 40 0;
#X connect 43 0 40 0;
#X connect 44 0 46 0;
#X connect 45 0 44 1;
#X connect 47 0 45 0;
#X connect 48 0 53 0;
#X connect 49 0 47 0;
#X connect 50 0 47 0;
#X connect 51 0 35 0;
#X connect 51 1 36 0;
#X connect 52 0 42 0;
#X connect 52 1 43 0;
#X connect 53 0 49 0;
#X connect 53 1 50 0;
#X connect 54 0 15 0;
#X connect 59 0 18 1;
#X connect 60 0 59 0;
#X connect 61 0 18 0;
#X connect 62 0 63 0;
#X connect 63 0 62 0;
#X connect 63 1 62 1;
#X coords 0 -1 1 1 150 75 2 100 100;
