#N canvas 0 23 1127 650 10;
#X obj 261 98 inlet~;
#X obj 881 94 inlet~;
#X obj 107 143 hradio 15 1 1 4 \$0-1to4-select-s \$0-1to4-select-r
empty 0 -8 0 10 -262144 -226533 -1 1;
#X obj 105 111 cnv 5 5 5 empty empty IN 0 0 0 8 -262144 -66577 0;
#X obj 229 109 cnv 5 5 5 empty empty TRIG 0 0 0 8 -262144 -226533 0
;
#X obj 196 168 cnv 5 5 5 empty empty 3 0 0 0 8 -262144 -66577 0;
#X obj 111 136 cnv 5 5 5 empty empty 1 0 0 0 8 -262144 -66577 0;
#X obj 127 136 cnv 5 5 5 empty empty 2 0 0 0 8 -262144 -66577 0;
#X obj 141 136 cnv 5 5 5 empty empty 3 0 0 0 8 -262144 -66577 0;
#X obj 156 136 cnv 5 5 5 empty empty 4 0 0 0 8 -262144 -66577 0;
#X obj 125 120 cnv 5 5 5 empty empty 1to4-SWITCH 0 0 0 12 -262144 -66577
0;
#X obj 210 120 cnv 5 5 5 empty \$0-instance-num 1 0 0 0 12 -262144
-66577 0;
#X obj 261 362 *~;
#X obj 291 345 line~;
#X obj 261 390 outlet~;
#X obj 881 138 t b b;
#X obj 881 160 f;
#X obj 908 160 + 1;
#X obj 881 226 mod 4;
#X obj 231 116 bng 15 100 50 0 empty empty empty 17 7 0 10 -262144
-226533 -1;
#N canvas 21 22 593 735 state-saving-multiple-instances 0;
#X obj 215 28 loadbang;
#X obj 261 480 textfile;
#X msg 556 463 rewind;
#X msg 513 463 bang;
#X obj 119 690 textfile;
#X obj 513 424 t b b;
#X obj 120 356 f;
#X obj 133 579 f;
#X obj 66 422 t b b b;
#X msg 196 579 clear;
#X obj 281 216 outlet;
#X text 277 236 INSTANCE NUMBER;
#X obj 242 92 f \$1;
#X obj 242 128 t f f f;
#X obj 215 61 t b b;
#X obj 66 331 bng 15 250 50 0 empty empty empty 17 7 0 10 -262144 -1
-1;
#X obj 66 235 r SAVE-S;
#X obj 135 307 r \$0-1to4-select-s;
#X msg 262 455 read statesave/\$1-1to4-switch-ss.txt;
#X msg 132 648 write statesave/\$1-1to4-switch-ss.txt;
#X obj 261 604 s \$0-1to4-select-r;
#X obj 120 399 pack f f;
#X msg 120 438 set \$1 \$2;
#X obj 174 346 r \$0-1to4-steps-s;
#X obj 261 502 unpack f f;
#X obj 318 557 s \$0-1to4-steps-r;
#X connect 0 0 14 0;
#X connect 1 0 24 0;
#X connect 2 0 1 0;
#X connect 3 0 1 0;
#X connect 5 0 3 0;
#X connect 5 1 2 0;
#X connect 6 0 21 0;
#X connect 7 0 19 0;
#X connect 8 0 7 0;
#X connect 8 1 6 0;
#X connect 8 2 9 0;
#X connect 9 0 4 0;
#X connect 12 0 13 0;
#X connect 13 0 7 1;
#X connect 13 1 18 0;
#X connect 13 2 10 0;
#X connect 14 0 5 0;
#X connect 14 1 12 0;
#X connect 15 0 8 0;
#X connect 16 0 15 0;
#X connect 17 0 6 1;
#X connect 18 0 1 0;
#X connect 19 0 4 0;
#X connect 21 0 22 0;
#X connect 22 0 4 0;
#X connect 23 0 21 1;
#X connect 24 0 20 0;
#X connect 24 1 25 0;
#X restore 37 220 pd state-saving-multiple-instances;
#X obj 37 295 s \$0-instance-num;
#X obj 37 247 makefilename %d;
#X msg 37 272 label \$1;
#X obj 291 323 pack 0 1;
#X obj 881 248 s \$0-1to4-select-r;
#X obj 291 128 r \$0-1to4-select-s;
#X obj 291 150 sel 0;
#X msg 291 172 1;
#X msg 318 202 0;
#X obj 401 360 *~;
#X obj 431 343 line~;
#X obj 401 388 outlet~;
#X obj 431 321 pack 0 1;
#X obj 431 126 r \$0-1to4-select-s;
#X msg 431 170 1;
#X msg 458 200 0;
#X obj 542 356 *~;
#X obj 572 339 line~;
#X obj 542 384 outlet~;
#X obj 572 317 pack 0 1;
#X obj 572 122 r \$0-1to4-select-s;
#X msg 572 166 1;
#X msg 599 196 0;
#X obj 669 355 *~;
#X obj 699 338 line~;
#X obj 669 383 outlet~;
#X obj 699 316 pack 0 1;
#X obj 699 121 r \$0-1to4-select-s;
#X msg 699 165 1;
#X msg 726 195 0;
#X obj 431 148 sel 1;
#X obj 572 144 sel 2;
#X obj 699 143 sel 3;
#X obj 880 116 threshold~ 0.9 0 0.9 0;
#X obj 191 143 hradio 15 1 1 3 \$0-1to4-steps-s \$0-1to4-steps-r STEPS
0 -8 0 10 -262144 -226533 -1 0;
#X obj 195 165 cnv 5 5 5 empty empty 2 0 0 0 8 -262144 -66577 0;
#X obj 212 165 cnv 5 5 5 empty empty 3 0 0 0 8 -262144 -66577 0;
#X obj 227 165 cnv 5 5 5 empty empty 4 0 0 0 8 -262144 -66577 0;
#X obj 938 165 + 2;
#X obj 938 143 r \$0-1to4-steps-s;
#X obj 881 181 + 1;
#X connect 0 0 12 0;
#X connect 0 0 30 0;
#X connect 0 0 37 0;
#X connect 0 0 44 0;
#X connect 1 0 54 0;
#X connect 12 0 14 0;
#X connect 13 0 12 1;
#X connect 15 0 16 0;
#X connect 15 1 19 0;
#X connect 16 0 17 0;
#X connect 16 0 61 0;
#X connect 17 0 16 1;
#X connect 18 0 25 0;
#X connect 20 0 22 0;
#X connect 22 0 23 0;
#X connect 23 0 21 0;
#X connect 24 0 13 0;
#X connect 26 0 27 0;
#X connect 27 0 28 0;
#X connect 27 1 29 0;
#X connect 28 0 24 0;
#X connect 29 0 24 0;
#X connect 30 0 32 0;
#X connect 31 0 30 1;
#X connect 33 0 31 0;
#X connect 34 0 51 0;
#X connect 35 0 33 0;
#X connect 36 0 33 0;
#X connect 37 0 39 0;
#X connect 38 0 37 1;
#X connect 40 0 38 0;
#X connect 41 0 52 0;
#X connect 42 0 40 0;
#X connect 43 0 40 0;
#X connect 44 0 46 0;
#X connect 45 0 44 1;
#X connect 47 0 45 0;
#X connect 48 0 53 0;
#X connect 49 0 47 0;
#X connect 50 0 47 0;
#X connect 51 0 35 0;
#X connect 51 1 36 0;
#X connect 52 0 42 0;
#X connect 52 1 43 0;
#X connect 53 0 49 0;
#X connect 53 1 50 0;
#X connect 54 0 15 0;
#X connect 59 0 18 1;
#X connect 60 0 59 0;
#X connect 61 0 18 0;
#X coords 0 -1 1 1 150 75 2 100 100;
