#N canvas 0 23 1176 638 10;
#X obj 355 306 phasor~;
#X obj 355 532 +~;
#X obj 355 554 cos~;
#X obj 355 595 outlet~;
#X obj 582 303 phasor~;
#X obj 582 329 cos~;
#X obj 582 516 *~;
#X obj 597 432 pack 0 50;
#X obj 597 458 line~;
#X text 594 368 INDEX;
#X obj 582 272 *~;
#X obj 597 120 * 7;
#X obj 597 192 pack 0 50;
#X obj 597 214 line~;
#X text 596 58 RATIO;
#X obj 597 142 + 1;
#X obj 597 236 +~;
#X obj 801 219 *~ 8;
#X obj 597 480 +~;
#X obj 908 460 lop~ 100;
#X obj 108 165 hsl 128 15 0 127 0 1 \$0-2op-index-s \$0-2op-index-r
INDEX 135 7 0 10 -262144 -1 -1 6100 1;
#X obj 108 135 hsl 128 15 0 127 0 1 \$0-2op-carrier-s \$0-2op-carrier-r
CARRIER 135 7 0 10 -262144 -1 -1 1600 1;
#X obj 108 150 hsl 128 15 0 127 0 1 \$0-2op-ratio-s \$0-2op-ratio-r
RATIO 135 7 0 10 -262144 -1 -1 1800 1;
#X obj 597 386 r \$0-2op-index-s;
#X obj 597 410 * 0.00787402;
#X obj 907 315 inlet~ INDEX CV;
#X obj 801 104 inlet~ RATIO CV;
#X obj 597 76 r \$0-2op-ratio-s;
#X obj 597 98 * 0.00787402;
#X obj 355 99 r \$0-2op-carrier-s;
#X obj 355 121 clip 0 90;
#X obj 355 143 pack 0 50;
#X obj 355 165 line~;
#X obj 355 187 +~;
#X obj 355 209 mtof~;
#X obj 469 113 inlet~ CARRIER;
#X floatatom 206 121 5 0 0 0 - #0-2op-carrier-s s, f 5;
#X obj 108 196 hsl 128 15 0 127 0 1 \$0-2op-cv2-index-s \$0-2op-cv2-index-r
CV2(INDEX) 135 7 0 10 -150893 -1 -1 8300 1;
#X floatatom 105 211 5 0 0 0 - - s, f 5;
#X obj 1032 209 * 0.00787402;
#X obj 1032 231 * 2;
#X obj 1032 253 - 1;
#X obj 1032 275 t f f;
#X obj 1032 297 pack 0 50;
#X obj 1032 319 line~;
#X obj 907 337 *~;
#X obj 911 64 * 0.00787402;
#X obj 911 87 pack 0 50;
#X obj 911 109 line~;
#X obj 108 180 hsl 128 15 0 127 0 1 \$0-2op-cv1-ratio-s \$0-2op-cv1-ratio-r
CV1(RATIO) 135 7 0 10 -158136 -1 -1 0 1;
#X obj 911 42 r \$0-2op-cv1-ratio-s;
#X obj 801 126 *~;
#X obj 1032 187 r \$0-2op-cv2-index-s;
#X obj 198 109 cnv 5 5 5 empty empty CV1 0 0 0 8 -262144 -158136 0
;
#X obj 106 127 cnv 5 5 5 empty empty 2OP-FM 0 0 0 12 -262144 -66577
0;
#X obj 159 127 cnv 5 5 5 empty \$0-instance-num 3 0 0 0 12 -262144
-66577 0;
#X obj 102 109 cnv 5 5 5 empty empty CARRIER 0 0 0 8 -262144 -66577
0;
#X obj 291 109 cnv 5 5 5 empty empty CV2 0 0 0 8 -262144 -96927 0;
#N canvas 315 35 593 735 state-saving-multiple-instances 0;
#X obj 137 29 loadbang;
#X obj 184 452 textfile;
#X msg 466 435 rewind;
#X msg 423 435 bang;
#X obj 42 691 textfile;
#X obj 423 396 t b b;
#X obj 43 357 f;
#X obj 56 580 f;
#X obj -16 401 t b b b;
#X msg 119 580 clear;
#X obj 204 217 outlet;
#X text 246 218 INSTANCE NUMBER;
#X obj 165 153 f \$1;
#X obj 165 189 t f f f;
#X obj 138 62 t b b;
#X obj -16 378 bng 15 250 50 0 empty empty empty 17 7 0 10 -262144
-1 -1;
#X obj -16 234 r SAVE-S;
#X obj 43 400 pack f f f f f;
#X obj 184 474 unpack f f f f f;
#X msg 43 438 set \$1 \$2 \$3 \$4 \$5;
#X obj 58 244 r \$0-2op-carrier-s;
#X obj 184 627 s \$0-2op-carrier-r;
#X msg 184 427 read statesave/\$1-2op-fm-ss.txt;
#X msg 55 651 write statesave/\$1-2op-fm-ss.txt;
#X obj 63 278 r \$0-2op-ratio-s;
#X obj 205 603 s \$0-2op-ratio-r;
#X obj 83 297 r \$0-2op-index-s;
#X obj 230 579 s \$0-2op-index-r;
#X obj 103 324 r \$0-2op-cv1-ratio-s;
#X obj 253 553 s \$0-2op-cv1-ratio-r;
#X obj 125 348 r \$0-2op-cv2-index-s;
#X obj 277 529 s \$0-2op-cv2-index-r;
#X obj 222 45 r \$0-reload!;
#X connect 0 0 14 0;
#X connect 1 0 18 0;
#X connect 2 0 1 0;
#X connect 3 0 1 0;
#X connect 5 0 3 0;
#X connect 5 1 2 0;
#X connect 6 0 17 0;
#X connect 7 0 23 0;
#X connect 8 0 7 0;
#X connect 8 1 6 0;
#X connect 8 2 9 0;
#X connect 9 0 4 0;
#X connect 12 0 13 0;
#X connect 13 0 7 1;
#X connect 13 1 22 0;
#X connect 13 2 10 0;
#X connect 14 0 5 0;
#X connect 14 1 12 0;
#X connect 15 0 8 0;
#X connect 16 0 15 0;
#X connect 17 0 19 0;
#X connect 18 0 21 0;
#X connect 18 1 25 0;
#X connect 18 2 27 0;
#X connect 18 3 29 0;
#X connect 18 4 31 0;
#X connect 19 0 4 0;
#X connect 20 0 6 1;
#X connect 22 0 1 0;
#X connect 23 0 4 0;
#X connect 24 0 17 1;
#X connect 26 0 17 2;
#X connect 28 0 17 3;
#X connect 30 0 17 4;
#X connect 32 0 14 0;
#X restore 98 351 pd state-saving-multiple-instances;
#X obj 98 421 s \$0-instance-num;
#X obj 98 373 makefilename %d;
#X msg 98 398 label \$1;
#N canvas 81 22 1117 745 state-saving-via-preset-manager-module 0;
#X obj 340 227 textfile;
#X msg 719 210 rewind;
#X msg 676 210 bang;
#X obj 106 568 textfile;
#X obj 676 171 t b b;
#X obj 107 234 f;
#X obj 120 457 f;
#X obj 53 352 t b b b;
#X msg 236 499 clear;
#X obj 107 56 delay 5;
#X obj 53 407 delay 10;
#X msg 53 192 bang;
#X obj 53 26 r STORE-S!;
#X obj 340 128 f;
#X obj 313 85 t b b;
#X obj 328 49 t b f;
#X obj 385 146 f \$1;
#X obj 340 173 pack f f;
#X obj 385 96 loadbang;
#X obj 120 487 pack f f;
#X obj 165 440 loadbang;
#X obj 165 462 f \$1;
#X obj 328 26 r preset-manager-scan;
#X obj 135 418 r preset-manager-store-slot;
#X msg 106 368 set \$1 \$2 \$3 \$4 \$5;
#X obj 107 301 pack f f f f f;
#X obj 340 249 unpack f f f f f;
#X msg 119 528 write statesave/\$1-\$2-2op-fm-ss.txt;
#X msg 340 202 read statesave/\$1-\$2-2op-fm-ss.txt;
#X obj 118 78 r \$0-2op-carrier-s;
#X obj 342 714 s \$0-2op-carrier-r;
#X obj 127 107 r \$0-2op-ratio-s;
#X obj 363 616 s \$0-2op-ratio-r;
#X obj 147 146 r \$0-2op-index-s;
#X obj 386 518 s \$0-2op-index-r;
#X obj 168 173 r \$0-2op-cv1-ratio-s;
#X obj 409 416 s \$0-2op-cv1-ratio-r;
#X obj 187 196 r \$0-2op-cv2-index-s;
#X obj 616 596 s \$0-2op-cv2-index-r;
#N canvas 0 22 1069 747 morph 0;
#X obj 176 94 inlet;
#X obj 176 236 pack f f;
#X obj 176 261 line;
#X obj 209 117 r preset-manager-morph-s;
#X msg 72 244 stop;
#X obj 72 214 r STOP-MORPH!;
#X obj 209 206 spigot;
#X obj 398 137 t f f;
#X obj 455 154 == 0;
#X obj 221 176 f;
#X floatatom 455 222 5 0 0 0 - - -, f 5;
#X obj 398 159 t b f;
#X floatatom 425 192 5 0 0 0 - - -, f 5;
#X obj 209 139 t f f;
#X obj 176 283 outlet;
#X obj 398 102 inlet;
#X connect 0 0 1 0;
#X connect 1 0 2 0;
#X connect 2 0 14 0;
#X connect 3 0 13 0;
#X connect 4 0 2 0;
#X connect 5 0 4 0;
#X connect 6 0 1 1;
#X connect 7 0 11 0;
#X connect 7 1 8 0;
#X connect 8 0 10 0;
#X connect 9 0 6 0;
#X connect 10 0 1 1;
#X connect 11 0 9 0;
#X connect 11 1 12 0;
#X connect 12 0 6 1;
#X connect 13 0 6 0;
#X connect 13 1 9 1;
#X connect 15 0 7 0;
#X restore 345 681 pd morph;
#X obj 390 658 r frequencies-s;
#N canvas 0 22 1069 747 morph 0;
#X obj 176 94 inlet;
#X obj 176 236 pack f f;
#X obj 176 261 line;
#X obj 209 117 r preset-manager-morph-s;
#X msg 72 244 stop;
#X obj 72 214 r STOP-MORPH!;
#X obj 209 206 spigot;
#X obj 398 137 t f f;
#X obj 455 154 == 0;
#X obj 221 176 f;
#X floatatom 455 222 5 0 0 0 - - -, f 5;
#X obj 398 159 t b f;
#X floatatom 425 192 5 0 0 0 - - -, f 5;
#X obj 209 139 t f f;
#X obj 176 283 outlet;
#X obj 398 102 inlet;
#X connect 0 0 1 0;
#X connect 1 0 2 0;
#X connect 2 0 14 0;
#X connect 3 0 13 0;
#X connect 4 0 2 0;
#X connect 5 0 4 0;
#X connect 6 0 1 1;
#X connect 7 0 11 0;
#X connect 7 1 8 0;
#X connect 8 0 10 0;
#X connect 9 0 6 0;
#X connect 10 0 1 1;
#X connect 11 0 9 0;
#X connect 11 1 12 0;
#X connect 12 0 6 1;
#X connect 13 0 6 0;
#X connect 13 1 9 1;
#X connect 15 0 7 0;
#X restore 361 589 pd morph;
#X obj 406 566 r parameters-s;
#N canvas 0 22 1069 747 morph 0;
#X obj 176 94 inlet;
#X obj 176 236 pack f f;
#X obj 176 261 line;
#X obj 209 117 r preset-manager-morph-s;
#X msg 72 244 stop;
#X obj 72 214 r STOP-MORPH!;
#X obj 209 206 spigot;
#X obj 398 137 t f f;
#X obj 455 154 == 0;
#X obj 221 176 f;
#X floatatom 455 222 5 0 0 0 - - -, f 5;
#X obj 398 159 t b f;
#X floatatom 425 192 5 0 0 0 - - -, f 5;
#X obj 209 139 t f f;
#X obj 176 283 outlet;
#X obj 398 102 inlet;
#X connect 0 0 1 0;
#X connect 1 0 2 0;
#X connect 2 0 14 0;
#X connect 3 0 13 0;
#X connect 4 0 2 0;
#X connect 5 0 4 0;
#X connect 6 0 1 1;
#X connect 7 0 11 0;
#X connect 7 1 8 0;
#X connect 8 0 10 0;
#X connect 9 0 6 0;
#X connect 10 0 1 1;
#X connect 11 0 9 0;
#X connect 11 1 12 0;
#X connect 12 0 6 1;
#X connect 13 0 6 0;
#X connect 13 1 9 1;
#X connect 15 0 7 0;
#X restore 384 491 pd morph;
#X obj 429 468 r parameters-s;
#N canvas 0 22 1069 747 morph 0;
#X obj 176 94 inlet;
#X obj 176 236 pack f f;
#X obj 176 261 line;
#X obj 209 117 r preset-manager-morph-s;
#X msg 72 244 stop;
#X obj 72 214 r STOP-MORPH!;
#X obj 209 206 spigot;
#X obj 398 137 t f f;
#X obj 455 154 == 0;
#X obj 221 176 f;
#X floatatom 455 222 5 0 0 0 - - -, f 5;
#X obj 398 159 t b f;
#X floatatom 425 192 5 0 0 0 - - -, f 5;
#X obj 209 139 t f f;
#X obj 176 283 outlet;
#X obj 398 102 inlet;
#X connect 0 0 1 0;
#X connect 1 0 2 0;
#X connect 2 0 14 0;
#X connect 3 0 13 0;
#X connect 4 0 2 0;
#X connect 5 0 4 0;
#X connect 6 0 1 1;
#X connect 7 0 11 0;
#X connect 7 1 8 0;
#X connect 8 0 10 0;
#X connect 9 0 6 0;
#X connect 10 0 1 1;
#X connect 11 0 9 0;
#X connect 11 1 12 0;
#X connect 12 0 6 1;
#X connect 13 0 6 0;
#X connect 13 1 9 1;
#X connect 15 0 7 0;
#X restore 407 387 pd morph;
#X obj 452 364 r attenuators-s;
#N canvas 0 22 1069 747 morph 0;
#X obj 176 94 inlet;
#X obj 176 236 pack f f;
#X obj 176 261 line;
#X obj 209 117 r preset-manager-morph-s;
#X msg 72 244 stop;
#X obj 72 214 r STOP-MORPH!;
#X obj 209 206 spigot;
#X obj 398 137 t f f;
#X obj 455 154 == 0;
#X obj 221 176 f;
#X floatatom 455 222 5 0 0 0 - - -, f 5;
#X obj 398 159 t b f;
#X floatatom 425 192 5 0 0 0 - - -, f 5;
#X obj 209 139 t f f;
#X obj 176 283 outlet;
#X obj 398 102 inlet;
#X connect 0 0 1 0;
#X connect 1 0 2 0;
#X connect 2 0 14 0;
#X connect 3 0 13 0;
#X connect 4 0 2 0;
#X connect 5 0 4 0;
#X connect 6 0 1 1;
#X connect 7 0 11 0;
#X connect 7 1 8 0;
#X connect 8 0 10 0;
#X connect 9 0 6 0;
#X connect 10 0 1 1;
#X connect 11 0 9 0;
#X connect 11 1 12 0;
#X connect 12 0 6 1;
#X connect 13 0 6 0;
#X connect 13 1 9 1;
#X connect 15 0 7 0;
#X restore 620 558 pd morph;
#X obj 665 535 r attenuators-s;
#X connect 0 0 26 0;
#X connect 1 0 0 0;
#X connect 2 0 0 0;
#X connect 4 0 2 0;
#X connect 4 1 1 0;
#X connect 5 0 25 0;
#X connect 6 0 19 0;
#X connect 7 0 10 0;
#X connect 7 1 9 0;
#X connect 7 2 8 0;
#X connect 8 0 3 0;
#X connect 9 0 5 0;
#X connect 10 0 6 0;
#X connect 11 0 7 0;
#X connect 12 0 11 0;
#X connect 13 0 17 0;
#X connect 14 0 4 0;
#X connect 14 1 13 0;
#X connect 15 0 14 0;
#X connect 15 1 13 1;
#X connect 16 0 17 1;
#X connect 17 0 28 0;
#X connect 18 0 16 0;
#X connect 19 0 27 0;
#X connect 20 0 21 0;
#X connect 21 0 19 1;
#X connect 22 0 15 0;
#X connect 23 0 6 1;
#X connect 24 0 3 0;
#X connect 25 0 24 0;
#X connect 26 0 39 0;
#X connect 26 1 41 0;
#X connect 26 2 43 0;
#X connect 26 3 45 0;
#X connect 26 4 47 0;
#X connect 27 0 3 0;
#X connect 28 0 0 0;
#X connect 29 0 5 1;
#X connect 31 0 25 1;
#X connect 33 0 25 2;
#X connect 35 0 25 3;
#X connect 37 0 25 4;
#X connect 39 0 30 0;
#X connect 40 0 39 1;
#X connect 41 0 32 0;
#X connect 42 0 41 1;
#X connect 43 0 34 0;
#X connect 44 0 43 1;
#X connect 45 0 36 0;
#X connect 46 0 45 1;
#X connect 47 0 38 0;
#X connect 48 0 47 1;
#X restore 98 329 pd state-saving-via-preset-manager-module;
#N canvas 297 27 783 232 parameter-nudging-system 0;
#N canvas 0 22 484 497 param-nudge 0;
#X obj 124 234 random;
#X obj 232 335 f;
#X obj 232 368 +;
#X obj 257 166 random 2;
#X obj 124 275 t f f;
#X obj 124 351 t b f;
#X obj 124 297 *;
#X obj 257 188 sel 0 1;
#X msg 257 280 -1;
#X msg 335 280 1;
#X obj 124 149 t b b b;
#X obj 123 63 r NUDGE!;
#X obj 157 193 r NUDGE-RANGE;
#X obj 247 308 inlet;
#X obj 232 397 outlet;
#X floatatom 316 396 5 0 0 0 - - -, f 5;
#X obj 123 107 spigot;
#X obj 172 90 r frequencies2-s;
#X connect 0 0 4 0;
#X connect 1 0 2 0;
#X connect 2 0 14 0;
#X connect 2 0 15 0;
#X connect 3 0 7 0;
#X connect 4 0 6 0;
#X connect 5 0 2 0;
#X connect 5 1 2 1;
#X connect 6 0 5 0;
#X connect 7 0 8 0;
#X connect 7 1 9 0;
#X connect 8 0 6 1;
#X connect 9 0 6 1;
#X connect 10 0 0 0;
#X connect 10 1 1 0;
#X connect 10 2 3 0;
#X connect 11 0 16 0;
#X connect 12 0 0 1;
#X connect 13 0 1 1;
#X connect 16 0 10 0;
#X connect 17 0 16 1;
#X restore 36 84 pd param-nudge;
#X obj 36 106 clip 0 127;
#X obj 36 61 r \$0-2op-carrier-s;
#X obj 36 134 s \$0-2op-carrier-r;
#N canvas 0 22 484 497 param-nudge 0;
#X obj 124 234 random;
#X obj 232 335 f;
#X obj 232 368 +;
#X obj 257 166 random 2;
#X obj 124 275 t f f;
#X obj 124 351 t b f;
#X obj 124 297 *;
#X obj 257 188 sel 0 1;
#X msg 257 280 -1;
#X msg 335 280 1;
#X obj 124 149 t b b b;
#X obj 123 63 r NUDGE!;
#X obj 157 193 r NUDGE-RANGE;
#X obj 247 308 inlet;
#X obj 232 397 outlet;
#X floatatom 316 396 5 0 0 0 - - -, f 5;
#X obj 123 107 spigot;
#X obj 172 90 r parameters2-s;
#X connect 0 0 4 0;
#X connect 1 0 2 0;
#X connect 2 0 14 0;
#X connect 2 0 15 0;
#X connect 3 0 7 0;
#X connect 4 0 6 0;
#X connect 5 0 2 0;
#X connect 5 1 2 1;
#X connect 6 0 5 0;
#X connect 7 0 8 0;
#X connect 7 1 9 0;
#X connect 8 0 6 1;
#X connect 9 0 6 1;
#X connect 10 0 0 0;
#X connect 10 1 1 0;
#X connect 10 2 3 0;
#X connect 11 0 16 0;
#X connect 12 0 0 1;
#X connect 13 0 1 1;
#X connect 16 0 10 0;
#X connect 17 0 16 1;
#X restore 170 84 pd param-nudge;
#X obj 170 106 clip 0 127;
#X obj 170 61 r \$0-2op-ratio-s;
#X obj 170 134 s \$0-2op-ratio-r;
#N canvas 0 22 484 497 param-nudge 0;
#X obj 124 234 random;
#X obj 232 335 f;
#X obj 232 368 +;
#X obj 257 166 random 2;
#X obj 124 275 t f f;
#X obj 124 351 t b f;
#X obj 124 297 *;
#X obj 257 188 sel 0 1;
#X msg 257 280 -1;
#X msg 335 280 1;
#X obj 124 149 t b b b;
#X obj 123 63 r NUDGE!;
#X obj 157 193 r NUDGE-RANGE;
#X obj 247 308 inlet;
#X obj 232 397 outlet;
#X floatatom 316 396 5 0 0 0 - - -, f 5;
#X obj 123 107 spigot;
#X obj 172 90 r parameters2-s;
#X connect 0 0 4 0;
#X connect 1 0 2 0;
#X connect 2 0 14 0;
#X connect 2 0 15 0;
#X connect 3 0 7 0;
#X connect 4 0 6 0;
#X connect 5 0 2 0;
#X connect 5 1 2 1;
#X connect 6 0 5 0;
#X connect 7 0 8 0;
#X connect 7 1 9 0;
#X connect 8 0 6 1;
#X connect 9 0 6 1;
#X connect 10 0 0 0;
#X connect 10 1 1 0;
#X connect 10 2 3 0;
#X connect 11 0 16 0;
#X connect 12 0 0 1;
#X connect 13 0 1 1;
#X connect 16 0 10 0;
#X connect 17 0 16 1;
#X restore 303 84 pd param-nudge;
#X obj 303 106 clip 0 127;
#X obj 303 61 r \$0-2op-index-s;
#X obj 303 134 s \$0-2op-index-r;
#N canvas 0 22 484 497 param-nudge 0;
#X obj 124 234 random;
#X obj 232 335 f;
#X obj 232 368 +;
#X obj 257 166 random 2;
#X obj 124 275 t f f;
#X obj 124 351 t b f;
#X obj 124 297 *;
#X obj 257 188 sel 0 1;
#X msg 257 280 -1;
#X msg 335 280 1;
#X obj 124 149 t b b b;
#X obj 123 63 r NUDGE!;
#X obj 157 193 r NUDGE-RANGE;
#X obj 247 308 inlet;
#X obj 232 397 outlet;
#X floatatom 316 396 5 0 0 0 - - -, f 5;
#X obj 123 107 spigot;
#X obj 172 90 r attenuators2-s;
#X connect 0 0 4 0;
#X connect 1 0 2 0;
#X connect 2 0 14 0;
#X connect 2 0 15 0;
#X connect 3 0 7 0;
#X connect 4 0 6 0;
#X connect 5 0 2 0;
#X connect 5 1 2 1;
#X connect 6 0 5 0;
#X connect 7 0 8 0;
#X connect 7 1 9 0;
#X connect 8 0 6 1;
#X connect 9 0 6 1;
#X connect 10 0 0 0;
#X connect 10 1 1 0;
#X connect 10 2 3 0;
#X connect 11 0 16 0;
#X connect 12 0 0 1;
#X connect 13 0 1 1;
#X connect 16 0 10 0;
#X connect 17 0 16 1;
#X restore 428 84 pd param-nudge;
#X obj 428 106 clip 0 127;
#X obj 428 61 r \$0-2op-cv1-ratio-s;
#X obj 428 134 s \$0-2op-cv1-ratio-r;
#N canvas 0 22 484 497 param-nudge 0;
#X obj 124 234 random;
#X obj 232 335 f;
#X obj 232 368 +;
#X obj 257 166 random 2;
#X obj 124 275 t f f;
#X obj 124 351 t b f;
#X obj 124 297 *;
#X obj 257 188 sel 0 1;
#X msg 257 280 -1;
#X msg 335 280 1;
#X obj 124 149 t b b b;
#X obj 123 63 r NUDGE!;
#X obj 157 193 r NUDGE-RANGE;
#X obj 247 308 inlet;
#X obj 232 397 outlet;
#X floatatom 316 396 5 0 0 0 - - -, f 5;
#X obj 123 107 spigot;
#X obj 172 90 r attenuators2-s;
#X connect 0 0 4 0;
#X connect 1 0 2 0;
#X connect 2 0 14 0;
#X connect 2 0 15 0;
#X connect 3 0 7 0;
#X connect 4 0 6 0;
#X connect 5 0 2 0;
#X connect 5 1 2 1;
#X connect 6 0 5 0;
#X connect 7 0 8 0;
#X connect 7 1 9 0;
#X connect 8 0 6 1;
#X connect 9 0 6 1;
#X connect 10 0 0 0;
#X connect 10 1 1 0;
#X connect 10 2 3 0;
#X connect 11 0 16 0;
#X connect 12 0 0 1;
#X connect 13 0 1 1;
#X connect 16 0 10 0;
#X connect 17 0 16 1;
#X restore 597 83 pd param-nudge;
#X obj 597 105 clip 0 127;
#X obj 597 60 r \$0-2op-cv2-index-s;
#X obj 597 133 s \$0-2op-cv2-index-r;
#X connect 0 0 1 0;
#X connect 1 0 3 0;
#X connect 2 0 0 0;
#X connect 4 0 5 0;
#X connect 5 0 7 0;
#X connect 6 0 4 0;
#X connect 8 0 9 0;
#X connect 9 0 11 0;
#X connect 10 0 8 0;
#X connect 12 0 13 0;
#X connect 13 0 15 0;
#X connect 14 0 12 0;
#X connect 16 0 17 0;
#X connect 17 0 19 0;
#X connect 18 0 16 0;
#X restore 99 304 pd parameter-nudging-system;
#X floatatom 275 149 5 0 0 0 - #0-ratio-gui-r #0-ratio-gui-s, f 5
;
#X obj 597 164 t f f;
#X obj 662 150 s \$0-ratio-gui-r;
#X obj 469 135 *~ 127;
#N canvas 384 23 749 752 external-messages 0;
#X floatatom 186 706 5 0 0 0 - - -, f 5;
#X obj 185 328 spigot;
#X obj 218 288 tgl 15 0 empty empty empty 17 7 0 10 -262144 -1 -1 0
1;
#X obj 254 272 ==;
#X obj 269 248 f \$1;
#X obj 269 224 loadbang;
#X msg 185 202 \$1 \$2;
#X msg 185 156 symbol \$1;
#X obj 185 180 pack s f;
#X obj 186 685 f;
#X obj 186 633 t b f;
#X obj 186 656 spigot;
#X obj 185 62 unpack s f f;
#X symbolatom 185 94 10 0 0 0 - - -, f 10;
#X obj 218 308 t f f;
#X obj 245 332 s \$0-msg-spigot;
#X obj 234 640 r \$0-msg-spigot;
#X floatatom 223 594 5 0 0 0 - - -, f 5;
#X obj 223 573 f;
#X obj 223 521 t b f;
#X obj 223 544 spigot;
#X obj 271 528 r \$0-msg-spigot;
#X floatatom 387 639 5 0 0 0 - - -, f 5;
#X obj 387 618 f;
#X obj 387 566 t b f;
#X obj 387 589 spigot;
#X obj 435 573 r \$0-msg-spigot;
#X floatatom 424 527 5 0 0 0 - - -, f 5;
#X obj 424 506 f;
#X obj 424 454 t b f;
#X obj 424 477 spigot;
#X obj 472 461 r \$0-msg-spigot;
#X floatatom 608 537 5 0 0 0 - - -, f 5;
#X obj 608 516 f;
#X obj 608 464 t b f;
#X obj 608 487 spigot;
#X obj 656 471 r \$0-msg-spigot;
#X obj 185 13 r 2op-fm;
#X obj 185 380 route CARRIER RATIO INDEX CV1(RATIO) CV2(INDEX);
#X obj 186 726 s \$0-2op-carrier-r;
#X obj 223 614 s \$0-2op-ratio-r;
#X obj 387 659 s \$0-2op-index-r;
#X obj 424 547 s \$0-2op-cv1-ratio-r;
#X obj 608 557 s \$0-2op-cv2-index-r;
#X connect 0 0 39 0;
#X connect 1 0 38 0;
#X connect 2 0 14 0;
#X connect 3 0 2 0;
#X connect 4 0 3 1;
#X connect 5 0 4 0;
#X connect 6 0 1 0;
#X connect 7 0 8 0;
#X connect 8 0 6 0;
#X connect 9 0 0 0;
#X connect 10 0 11 0;
#X connect 10 1 9 1;
#X connect 11 0 9 0;
#X connect 12 0 13 0;
#X connect 12 1 8 1;
#X connect 12 2 3 0;
#X connect 13 0 7 0;
#X connect 14 0 1 1;
#X connect 14 1 15 0;
#X connect 16 0 11 1;
#X connect 17 0 40 0;
#X connect 18 0 17 0;
#X connect 19 0 20 0;
#X connect 19 1 18 1;
#X connect 20 0 18 0;
#X connect 21 0 20 1;
#X connect 22 0 41 0;
#X connect 23 0 22 0;
#X connect 24 0 25 0;
#X connect 24 1 23 1;
#X connect 25 0 23 0;
#X connect 26 0 25 1;
#X connect 27 0 42 0;
#X connect 28 0 27 0;
#X connect 29 0 30 0;
#X connect 29 1 28 1;
#X connect 30 0 28 0;
#X connect 31 0 30 1;
#X connect 32 0 43 0;
#X connect 33 0 32 0;
#X connect 34 0 35 0;
#X connect 34 1 33 1;
#X connect 35 0 33 0;
#X connect 36 0 35 1;
#X connect 37 0 12 0;
#X connect 38 0 10 0;
#X connect 38 1 19 0;
#X connect 38 2 24 0;
#X connect 38 3 29 0;
#X connect 38 4 34 0;
#X restore 99 277 pd external-messages;
#X connect 0 0 1 0;
#X connect 1 0 2 0;
#X connect 2 0 3 0;
#X connect 4 0 5 0;
#X connect 5 0 6 0;
#X connect 6 0 1 1;
#X connect 7 0 8 0;
#X connect 8 0 18 0;
#X connect 10 0 4 0;
#X connect 11 0 15 0;
#X connect 12 0 13 0;
#X connect 13 0 16 0;
#X connect 15 0 65 0;
#X connect 16 0 10 1;
#X connect 17 0 16 1;
#X connect 18 0 6 1;
#X connect 19 0 18 1;
#X connect 23 0 24 0;
#X connect 24 0 7 0;
#X connect 25 0 45 0;
#X connect 26 0 51 0;
#X connect 27 0 28 0;
#X connect 28 0 11 0;
#X connect 29 0 30 0;
#X connect 30 0 31 0;
#X connect 31 0 32 0;
#X connect 32 0 33 0;
#X connect 33 0 34 0;
#X connect 34 0 0 0;
#X connect 34 0 10 0;
#X connect 35 0 67 0;
#X connect 39 0 40 0;
#X connect 40 0 41 0;
#X connect 41 0 42 0;
#X connect 42 0 43 0;
#X connect 42 1 38 0;
#X connect 43 0 44 0;
#X connect 44 0 45 1;
#X connect 45 0 19 0;
#X connect 46 0 47 0;
#X connect 47 0 48 0;
#X connect 48 0 51 1;
#X connect 50 0 46 0;
#X connect 51 0 17 0;
#X connect 52 0 39 0;
#X connect 58 0 60 0;
#X connect 60 0 61 0;
#X connect 61 0 59 0;
#X connect 65 0 12 0;
#X connect 65 1 66 0;
#X connect 67 0 33 1;
#X coords 0 -1 1 1 210 130 2 100 100;
