#N canvas 522 218 916 666 10;
#X obj 108 133 hsl 128 15 0 127 0 1 \$0-3xfade-slider-s \$0-3xfade-slider-r
XFADE 135 7 0 10 -262144 -1 -1 0 1;
#X obj 109 530 *~;
#X obj 109 584 outlet~;
#X obj 109 465 inlet~ A;
#X obj 227 530 *~;
#X obj 227 465 inlet~ B;
#X obj 346 530 *~;
#X obj 346 465 inlet~ C;
#X obj 105 123 cnv 5 5 5 empty empty 3WAY-XFADE 0 0 0 12 -262144 -66577
0;
#X obj 185 123 cnv 5 5 5 empty \$0-instance-num 1 0 0 0 12 -262144
-66577 0;
#X obj 151 155 hradio 15 1 0 3 \$0-3xfade-gui-s \$0-3xfade-gui-r empty
0 -8 0 10 -262144 -258113 -1 0;
#X obj 375 49 / 127;
#X obj 375 71 * 4;
#X obj 509 14 inlet~ CV;
#X obj 105 109 cnv 5 5 5 empty empty 1 0 0 0 8 -262144 -66577 0;
#X obj 158 109 cnv 5 5 5 empty empty 2 0 0 0 8 -262144 -66577 0;
#X obj 248 109 cnv 5 5 5 empty empty XFADE 0 0 0 8 -262144 -1 0;
#X obj 214 109 cnv 5 5 5 empty empty 3 0 0 0 8 -262144 -66577 0;
#X obj 509 36 snapshot~;
#X obj 592 -25 loadbang;
#X obj 592 -3 tgl 15 0 empty empty empty 17 7 0 10 -262144 -1 -1 1
1;
#X obj 375 97 +;
#X obj 509 80 t b f;
#X obj 592 19 metro 50;
#N canvas 21 22 593 735 state-saving-multiple-instances 0;
#X obj 215 28 loadbang;
#X obj 261 480 textfile;
#X msg 556 463 rewind;
#X msg 513 463 bang;
#X obj 119 690 textfile;
#X obj 513 424 t b b;
#X obj 120 356 f;
#X obj 133 579 f;
#X obj 66 422 t b b b;
#X msg 196 579 clear;
#X obj 281 216 outlet;
#X text 277 236 INSTANCE NUMBER;
#X obj 242 92 f \$1;
#X obj 242 128 t f f f;
#X obj 215 61 t b b;
#X obj 66 331 bng 15 250 50 0 empty empty empty 17 7 0 10 -262144 -1
-1;
#X obj 66 235 r SAVE-S;
#X msg 120 438 set \$1;
#X obj 120 399 pack f;
#X obj 261 502 unpack f;
#X obj 261 604 s \$0-3xfade-slider-r;
#X msg 132 648 write statesave/\$1-3way-xfade-ss.txt;
#X msg 262 455 read statesave/\$1-3way-xfade-ss.txt;
#X obj 135 307 r \$0-3xfade-slider-s;
#X connect 0 0 14 0;
#X connect 1 0 19 0;
#X connect 2 0 1 0;
#X connect 3 0 1 0;
#X connect 5 0 3 0;
#X connect 5 1 2 0;
#X connect 6 0 18 0;
#X connect 7 0 21 0;
#X connect 8 0 7 0;
#X connect 8 1 6 0;
#X connect 8 2 9 0;
#X connect 9 0 4 0;
#X connect 12 0 13 0;
#X connect 13 0 7 1;
#X connect 13 1 22 0;
#X connect 13 2 10 0;
#X connect 14 0 5 0;
#X connect 14 1 12 0;
#X connect 15 0 8 0;
#X connect 16 0 15 0;
#X connect 17 0 4 0;
#X connect 18 0 17 0;
#X connect 19 0 20 0;
#X connect 21 0 4 0;
#X connect 22 0 1 0;
#X connect 23 0 6 1;
#X restore 377 252 pd state-saving-multiple-instances;
#X obj 377 323 s \$0-instance-num;
#X obj 377 275 makefilename %d;
#X msg 377 300 label \$1;
#N canvas 81 22 1117 745 state-saving-via-preset-manager-module 0;
#X obj 477 349 textfile;
#X msg 755 332 rewind;
#X msg 712 332 bang;
#X obj 243 690 textfile;
#X obj 712 293 t b b;
#X obj 244 356 f;
#X obj 257 579 f;
#X obj 190 422 t b b b;
#X msg 320 579 clear;
#X obj 244 264 delay 5;
#X obj 190 484 delay 10;
#X msg 190 314 bang;
#X obj 190 147 r STORE-S!;
#X obj 477 250 f;
#X obj 450 207 t b b;
#X obj 465 171 t b f;
#X obj 522 268 f \$1;
#X obj 477 295 pack f f;
#X obj 522 218 loadbang;
#X obj 257 609 pack f f;
#X obj 302 467 loadbang;
#X obj 302 489 f \$1;
#X obj 465 148 r preset-manager-scan;
#X obj 279 148 r preset-manager-store-slot;
#X msg 244 438 set \$1;
#X msg 256 650 write statesave/\$1-\$2-3way-xfade-ss.txt;
#X obj 477 615 s \$0-3xfade-slider-r;
#X msg 477 324 read statesave/\$1-\$2-3way-xfade-ss.txt;
#X obj 259 308 r \$0-3xfade-slider-s;
#N canvas 0 22 1069 747 morph-parameters 0;
#X obj 176 94 inlet;
#X obj 176 236 pack f f;
#X obj 176 261 line;
#X obj 209 117 r preset-manager-morph-s;
#X msg 72 244 stop;
#X obj 72 214 r STOP-MORPH!;
#X obj 209 206 spigot;
#X obj 398 137 t f f;
#X obj 455 154 == 0;
#X obj 221 176 f;
#X floatatom 455 222 5 0 0 0 - - -, f 5;
#X obj 398 159 t b f;
#X floatatom 425 192 5 0 0 0 - - -, f 5;
#X obj 209 139 t f f;
#X obj 398 102 r parameters-s;
#X obj 176 288 outlet;
#X connect 0 0 1 0;
#X connect 1 0 2 0;
#X connect 2 0 15 0;
#X connect 3 0 13 0;
#X connect 4 0 2 0;
#X connect 5 0 4 0;
#X connect 6 0 1 1;
#X connect 7 0 11 0;
#X connect 7 1 8 0;
#X connect 8 0 10 0;
#X connect 9 0 6 0;
#X connect 10 0 1 1;
#X connect 11 0 9 0;
#X connect 11 1 12 0;
#X connect 12 0 6 1;
#X connect 13 0 6 0;
#X connect 13 1 9 1;
#X connect 14 0 7 0;
#X restore 477 585 pd morph-parameters;
#X connect 0 0 29 0;
#X connect 1 0 0 0;
#X connect 2 0 0 0;
#X connect 4 0 2 0;
#X connect 4 1 1 0;
#X connect 5 0 24 0;
#X connect 6 0 19 0;
#X connect 7 0 10 0;
#X connect 7 1 9 0;
#X connect 7 2 8 0;
#X connect 8 0 3 0;
#X connect 9 0 5 0;
#X connect 10 0 6 0;
#X connect 11 0 7 0;
#X connect 12 0 11 0;
#X connect 13 0 17 0;
#X connect 14 0 4 0;
#X connect 14 1 13 0;
#X connect 15 0 14 0;
#X connect 15 1 13 1;
#X connect 16 0 17 1;
#X connect 17 0 27 0;
#X connect 18 0 16 0;
#X connect 19 0 25 0;
#X connect 20 0 21 0;
#X connect 21 0 19 1;
#X connect 22 0 15 0;
#X connect 23 0 6 1;
#X connect 24 0 3 0;
#X connect 25 0 3 0;
#X connect 27 0 0 0;
#X connect 28 0 5 1;
#X connect 29 0 26 0;
#X restore 377 229 pd state-saving-via-preset-manager-module;
#X obj 375 27 r \$0-3xfade-slider-s;
#X obj 509 58 * 3;
#X obj 375 140 clip 0 3;
#X obj 124 275 sig~;
#X obj 124 312 +~;
#X obj 124 356 clip~ 0 1;
#X obj 124 498 lop~ 10;
#X obj 242 498 lop~ 10;
#X obj 361 498 lop~ 10;
#X obj 124 240 * 0.00787402;
#X obj 124 383 expr~ if ($v1 < 0.5 \, (1-$v1*2) \, 0 ) \; if ($v1 <
0.5 \, $v1*2 \, (1-$v1+0.5)*2-1 ) \; if ($v1 > 0.5 \, ($v1*2-1) \,
0 );
#X obj 124 439 clip~ 0 1;
#X obj 242 439 clip~ 0 1;
#X obj 361 439 clip~ 0 1;
#X obj 124 206 r \$0-3xfade-slider-s;
#N canvas 297 27 379 145 parameter-nudging-system 0;
#X obj 23 67 clip 0 127;
#X obj 23 22 r \$0-3xfade-slider-s;
#X obj 23 93 s \$0-3xfade-slider-r;
#N canvas 0 22 484 497 nudge-parameters 0;
#X obj 124 234 random;
#X obj 232 335 f;
#X obj 232 368 +;
#X obj 257 166 random 2;
#X obj 124 275 t f f;
#X obj 124 351 t b f;
#X obj 124 297 *;
#X obj 257 188 sel 0 1;
#X msg 257 280 -1;
#X msg 335 280 1;
#X obj 124 149 t b b b;
#X obj 124 74 r NUDGE!;
#X obj 157 193 r NUDGE-RANGE;
#X obj 247 308 inlet;
#X obj 232 397 outlet;
#X obj 124 96 spigot;
#X obj 185 79 r parameters2-s;
#X connect 0 0 4 0;
#X connect 1 0 2 0;
#X connect 2 0 14 0;
#X connect 3 0 7 0;
#X connect 4 0 6 0;
#X connect 5 0 2 0;
#X connect 5 1 2 1;
#X connect 6 0 5 0;
#X connect 7 0 8 0;
#X connect 7 1 9 0;
#X connect 8 0 6 1;
#X connect 9 0 6 1;
#X connect 10 0 0 0;
#X connect 10 1 1 0;
#X connect 10 2 3 0;
#X connect 11 0 15 0;
#X connect 12 0 0 1;
#X connect 13 0 1 1;
#X connect 15 0 10 0;
#X connect 16 0 15 1;
#X restore 23 43 pd nudge-parameters;
#X connect 0 0 2 0;
#X connect 1 0 3 0;
#X connect 3 0 0 0;
#X restore 378 205 pd parameter-nudging-system;
#N canvas 799 23 749 752 external-messages 0;
#X floatatom 186 706 5 0 0 0 - - -, f 5;
#X obj 185 328 spigot;
#X obj 218 288 tgl 15 0 empty empty empty 17 7 0 10 -262144 -1 -1 0
1;
#X obj 254 272 ==;
#X obj 269 248 f \$1;
#X obj 269 224 loadbang;
#X msg 185 202 \$1 \$2;
#X msg 185 156 symbol \$1;
#X obj 185 180 pack s f;
#X obj 186 685 f;
#X obj 186 633 t b f;
#X obj 186 656 spigot;
#X obj 185 62 unpack s f f;
#X symbolatom 185 94 10 0 0 0 - - -, f 10;
#X obj 218 308 t f f;
#X obj 245 332 s \$0-msg-spigot;
#X obj 234 640 r \$0-msg-spigot;
#X obj 656 471 r \$0-msg-spigot;
#X obj 185 14 r 3way-xfade;
#X obj 185 380 route XFADE;
#X obj 186 726 s \$0-3xfade-slider-r;
#X connect 0 0 20 0;
#X connect 1 0 19 0;
#X connect 2 0 14 0;
#X connect 3 0 2 0;
#X connect 4 0 3 1;
#X connect 5 0 4 0;
#X connect 6 0 1 0;
#X connect 7 0 8 0;
#X connect 8 0 6 0;
#X connect 9 0 0 0;
#X connect 10 0 11 0;
#X connect 10 1 9 1;
#X connect 11 0 9 0;
#X connect 12 0 13 0;
#X connect 12 1 8 1;
#X connect 12 2 3 0;
#X connect 13 0 7 0;
#X connect 14 0 1 1;
#X connect 14 1 15 0;
#X connect 16 0 11 1;
#X connect 18 0 12 0;
#X connect 19 0 10 0;
#X restore 377 351 pd external-messages;
#X connect 1 0 2 0;
#X connect 3 0 1 0;
#X connect 4 0 2 0;
#X connect 5 0 4 0;
#X connect 6 0 2 0;
#X connect 7 0 6 0;
#X connect 11 0 12 0;
#X connect 12 0 21 0;
#X connect 13 0 18 0;
#X connect 13 0 33 1;
#X connect 18 0 30 0;
#X connect 19 0 20 0;
#X connect 20 0 23 0;
#X connect 21 0 31 0;
#X connect 22 0 21 0;
#X connect 22 1 21 1;
#X connect 23 0 18 0;
#X connect 24 0 26 0;
#X connect 26 0 27 0;
#X connect 27 0 25 0;
#X connect 29 0 11 0;
#X connect 30 0 22 0;
#X connect 31 0 10 0;
#X connect 32 0 33 0;
#X connect 33 0 34 0;
#X connect 34 0 39 0;
#X connect 35 0 1 1;
#X connect 36 0 4 1;
#X connect 37 0 6 1;
#X connect 38 0 32 0;
#X connect 39 0 40 0;
#X connect 39 1 41 0;
#X connect 39 2 42 0;
#X connect 40 0 35 0;
#X connect 41 0 36 0;
#X connect 42 0 37 0;
#X connect 43 0 38 0;
#X coords 0 -1 1 1 175 75 2 100 100;
