#N canvas 8 78 1163 524 10;
#X obj 261 98 inlet~;
#X obj 881 94 inlet~;
#X obj 109 144 hradio 15 1 1 4 \$0-4to1-select-s \$0-4to1-select-r
empty 0 -8 0 10 -262144 -226533 -1 2;
#X obj 105 109 cnv 5 5 5 empty empty 1 0 0 0 8 -262144 -66577 0;
#X obj 137 109 cnv 5 5 5 empty empty 2 0 0 0 8 -262144 -66577 0;
#X obj 207 109 cnv 5 5 5 empty empty 4 0 0 0 8 -262144 -66577 0;
#X obj 229 109 cnv 5 5 5 empty empty TRIG 0 0 0 8 -262144 -226533 0
;
#X obj 172 109 cnv 5 5 5 empty empty 3 0 0 0 8 -262144 -66577 0;
#X obj 113 137 cnv 5 5 5 empty empty 1 0 0 0 8 -262144 -66577 0;
#X obj 129 137 cnv 5 5 5 empty empty 2 0 0 0 8 -262144 -66577 0;
#X obj 143 137 cnv 5 5 5 empty empty 3 0 0 0 8 -262144 -66577 0;
#X obj 158 137 cnv 5 5 5 empty empty 4 0 0 0 8 -262144 -66577 0;
#X obj 125 122 cnv 5 5 5 empty empty 4to1-SWITCH 0 0 0 12 -262144 -66577
0;
#X obj 210 122 cnv 5 5 5 empty \$0-instance-num 1 0 0 0 12 -262144
-66577 0;
#X obj 261 211 *~;
#X obj 291 128 r \$0-4to1-select-s;
#X obj 291 150 == 0;
#X obj 291 194 line~;
#X obj 261 390 outlet~;
#X obj 415 93 inlet~;
#X obj 415 206 *~;
#X obj 445 123 r \$0-4to1-select-s;
#X obj 445 189 line~;
#X obj 445 145 == 1;
#X obj 567 90 inlet~;
#X obj 567 203 *~;
#X obj 597 120 r \$0-4to1-select-s;
#X obj 597 186 line~;
#X obj 597 142 == 2;
#X obj 721 84 inlet~;
#X obj 721 197 *~;
#X obj 751 114 r \$0-4to1-select-s;
#X obj 751 180 line~;
#X obj 751 136 == 3;
#X obj 881 138 t b b;
#X obj 881 160 f;
#X obj 908 160 + 1;
#X obj 881 224 mod 4;
#X obj 881 246 s \$0-4to1-select-r;
#X obj 231 116 bng 15 100 50 0 empty empty empty 17 7 0 10 -262144
-226533 -1;
#N canvas 21 22 593 735 state-saving-multiple-instances 0;
#X obj 215 28 loadbang;
#X obj 261 480 textfile;
#X msg 556 463 rewind;
#X msg 513 463 bang;
#X obj 119 690 textfile;
#X obj 513 424 t b b;
#X obj 120 356 f;
#X obj 133 579 f;
#X obj 66 422 t b b b;
#X msg 196 579 clear;
#X obj 281 216 outlet;
#X text 277 236 INSTANCE NUMBER;
#X obj 242 92 f \$1;
#X obj 242 128 t f f f;
#X obj 215 61 t b b;
#X obj 66 331 bng 15 250 50 0 empty empty empty 17 7 0 10 -262144 -1
-1;
#X obj 66 235 r SAVE-S;
#X obj 135 307 r \$0-4to1-select-s;
#X obj 261 604 s \$0-4to1-select-r;
#X msg 132 648 write statesave/\$1-4to1-switch-ss.txt;
#X msg 262 455 read statesave/\$1-4to1-switch-ss.txt;
#X msg 120 438 set \$1 \$2;
#X obj 120 399 pack f f;
#X obj 222 356 r \$0-4to1-steps-s;
#X obj 261 502 unpack f f;
#X obj 340 539 s \$0-4to1-steps-r;
#X connect 0 0 14 0;
#X connect 1 0 24 0;
#X connect 2 0 1 0;
#X connect 3 0 1 0;
#X connect 5 0 3 0;
#X connect 5 1 2 0;
#X connect 6 0 22 0;
#X connect 7 0 19 0;
#X connect 8 0 7 0;
#X connect 8 1 6 0;
#X connect 8 2 9 0;
#X connect 9 0 4 0;
#X connect 12 0 13 0;
#X connect 13 0 7 1;
#X connect 13 1 20 0;
#X connect 13 2 10 0;
#X connect 14 0 5 0;
#X connect 14 1 12 0;
#X connect 15 0 8 0;
#X connect 16 0 15 0;
#X connect 17 0 6 1;
#X connect 19 0 4 0;
#X connect 20 0 1 0;
#X connect 21 0 4 0;
#X connect 22 0 21 0;
#X connect 23 0 22 1;
#X connect 24 0 18 0;
#X connect 24 1 25 0;
#X restore 37 223 pd state-saving-multiple-instances;
#X obj 37 295 s \$0-instance-num;
#X obj 37 247 makefilename %d;
#X msg 37 272 label \$1;
#X obj 291 172 pack 0 1;
#X obj 445 167 pack 0 1;
#X obj 597 164 pack 0 1;
#X obj 751 158 pack 0 1;
#X obj 881 116 threshold~ 0.9 0 0.9 0;
#X obj 191 144 hradio 15 1 1 3 \$0-4to1-steps-s \$0-4to1-steps-r STEPS
0 -8 0 10 -262144 -226533 -1 2;
#X obj 195 165 cnv 5 5 5 empty empty 2 0 0 0 8 -262144 -66577 0;
#X obj 212 165 cnv 5 5 5 empty empty 3 0 0 0 8 -262144 -66577 0;
#X obj 227 165 cnv 5 5 5 empty empty 4 0 0 0 8 -262144 -66577 0;
#X obj 1025 124 r \$0-4to1-steps-s;
#X obj 1025 146 + 2;
#X floatatom 1025 168 5 0 0 0 - - -, f 5;
#X obj 881 181 + 1;
#X connect 0 0 14 0;
#X connect 1 0 48 0;
#X connect 14 0 18 0;
#X connect 15 0 16 0;
#X connect 16 0 44 0;
#X connect 17 0 14 1;
#X connect 19 0 20 0;
#X connect 20 0 18 0;
#X connect 21 0 23 0;
#X connect 22 0 20 1;
#X connect 23 0 45 0;
#X connect 24 0 25 0;
#X connect 25 0 18 0;
#X connect 26 0 28 0;
#X connect 27 0 25 1;
#X connect 28 0 46 0;
#X connect 29 0 30 0;
#X connect 30 0 18 0;
#X connect 31 0 33 0;
#X connect 32 0 30 1;
#X connect 33 0 47 0;
#X connect 34 0 35 0;
#X connect 34 1 39 0;
#X connect 35 0 36 0;
#X connect 35 0 56 0;
#X connect 36 0 35 1;
#X connect 37 0 38 0;
#X connect 40 0 42 0;
#X connect 42 0 43 0;
#X connect 43 0 41 0;
#X connect 44 0 17 0;
#X connect 45 0 22 0;
#X connect 46 0 27 0;
#X connect 47 0 32 0;
#X connect 48 0 34 0;
#X connect 53 0 54 0;
#X connect 54 0 55 0;
#X connect 55 0 37 1;
#X connect 56 0 37 0;
#X coords 0 -1 1 1 150 75 2 100 100;
