#N canvas 105 95 1103 635 10;
#X obj 443 43 inlet~;
#X text 441 24 CLOCK IN;
#X obj 443 109 f;
#X obj 473 109 + 1;
#X obj 147 152 vsl 15 96 0 127 0 1 \$0-8steps-s2-s \$0-8steps-s2-r
2 3 -9 0 10 -262144 -1 -1 2500 1;
#X obj 132 152 vsl 15 96 0 127 0 1 \$0-8steps-s1-s \$0-8steps-s1-r
1 3 -9 0 10 -262144 -1 -1 3000 1;
#X obj 177 152 vsl 15 96 0 127 0 1 \$0-8steps-s4-s \$0-8steps-s4-r
4 3 -9 0 10 -262144 -1 -1 1100 1;
#X obj 162 152 vsl 15 96 0 127 0 1 \$0-8steps-s3-s \$0-8steps-s3-r
3 3 -9 0 10 -262144 -1 -1 3300 1;
#X obj 443 153 t f f;
#X obj 135 128 cnv 5 5 5 empty empty 8STEPS 0 0 0 12 -262144 -66577
0;
#X obj 762 26 inlet~;
#X msg 762 93 0;
#X text 759 5 RESET IN;
#X obj 103 111 cnv 5 5 5 empty empty CLOCK-IN 0 0 0 8 -262144 -226533
0;
#X obj 273 111 cnv 5 5 5 empty empty RESET 0 0 0 8 -262144 -226533
0;
#X symbolatom 132 255 15 0 0 0 - - -, f 15;
#X obj 288 293 cnv 5 5 5 empty empty S1 0 0 0 8 -262144 -226533 0;
#X obj 411 301 f;
#X obj 462 301 f;
#X obj 515 301 f;
#X obj 567 301 f;
#X obj 426 251 / 127;
#X obj 426 273 * 28;
#X obj 477 251 / 127;
#X obj 477 273 * 28;
#X obj 530 251 / 127;
#X obj 530 273 * 28;
#X obj 582 251 / 127;
#X obj 582 273 * 28;
#X obj 411 505 sig~;
#X obj 411 599 outlet~;
#N canvas 120 22 1142 609 choose-scale 0;
#X obj 396 470 outlet;
#X obj 439 53 / 127;
#X obj 439 119 i;
#X obj 439 31 inlet;
#X msg -1 273 set ionian;
#X msg 92 274 set dorian;
#X msg 177 276 set phrygian;
#X msg 277 277 set lydian;
#X msg 364 278 set aeolian;
#X msg 442 307 set whole;
#X msg 537 311 set chromatic;
#X msg 650 316 set harm-major;
#X msg 677 365 set lyd-minor;
#X msg 764 409 set ancient;
#X msg 902 423 set pelog;
#X msg 940 380 set tetra;
#X msg 968 309 set indian;
#X msg 1035 260 set slendro;
#X obj 439 74 * 14;
#X obj 439 178 sel 0 1 2 3 4 5 6 7 8 9 10 11 12 13 14;
#X msg 895 213 set free;
#X obj 938 548 outlet;
#X floatatom 864 530 5 0 0 0 - - -, f 5;
#X obj 864 508 == 14;
#X connect 1 0 18 0;
#X connect 2 0 19 0;
#X connect 2 0 23 0;
#X connect 3 0 1 0;
#X connect 4 0 0 0;
#X connect 5 0 0 0;
#X connect 6 0 0 0;
#X connect 7 0 0 0;
#X connect 8 0 0 0;
#X connect 9 0 0 0;
#X connect 10 0 0 0;
#X connect 11 0 0 0;
#X connect 12 0 0 0;
#X connect 13 0 0 0;
#X connect 14 0 0 0;
#X connect 15 0 0 0;
#X connect 16 0 0 0;
#X connect 17 0 0 0;
#X connect 18 0 2 0;
#X connect 19 0 4 0;
#X connect 19 1 5 0;
#X connect 19 2 6 0;
#X connect 19 3 7 0;
#X connect 19 4 8 0;
#X connect 19 5 9 0;
#X connect 19 6 10 0;
#X connect 19 7 11 0;
#X connect 19 8 12 0;
#X connect 19 9 13 0;
#X connect 19 10 15 0;
#X connect 19 11 16 0;
#X connect 19 12 14 0;
#X connect 19 13 17 0;
#X connect 19 14 20 0;
#X connect 20 0 0 0;
#X connect 23 0 21 0;
#X connect 23 0 22 0;
#X restore 239 374 pd choose-scale;
#X obj 411 481 / 127;
#X obj 278 120 bng 15 50 50 0 empty empty empty 17 7 0 10 -262144 -258113
-1;
#X obj 762 70 t b b;
#X obj 207 152 vsl 15 96 0 127 0 1 \$0-8steps-s6-s \$0-8steps-s6-r
6 3 -9 0 10 -262144 -1 -1 1300 1;
#X obj 192 152 vsl 15 96 0 127 0 1 \$0-8steps-s5-s \$0-8steps-s5-r
5 3 -9 0 10 -262144 -1 -1 1900 1;
#X obj 237 152 vsl 15 96 0 127 0 1 \$0-8steps-s8-s \$0-8steps-s8-r
8 3 -9 0 10 -262144 -1 -1 3100 1;
#X obj 222 152 vsl 15 96 0 127 0 1 \$0-8steps-s7-s \$0-8steps-s7-r
7 3 -9 0 10 -262144 -1 -1 900 1;
#X obj 443 131 % 8;
#X obj 443 182 sel 0 1 2 3 4 5 6 7;
#X obj 615 300 f;
#X obj 666 300 f;
#X obj 719 300 f;
#X obj 771 300 f;
#X obj 630 251 / 127;
#X obj 630 272 * 28;
#X obj 681 251 / 127;
#X obj 681 272 * 28;
#X obj 734 251 / 127;
#X obj 734 272 * 28;
#X obj 786 251 / 127;
#X obj 786 272 * 28;
#X floatatom 374 328 5 0 0 0 - - -, f 5;
#X obj 802 76 loadbang;
#X obj 135 270 hsl 128 15 0 127 0 1 \$0-8steps-scale-s \$0-8steps-scale-r
SCALE 133 7 0 10 -262144 -1 -1 2800 1;
#X obj 411 530 +~;
#X obj 569 45 inlet~;
#X obj 411 375 +;
#X obj 569 154 snapshot~;
#X obj 569 176 t b f;
#X obj 443 87 t b b;
#X obj 611 121 bang~;
#X obj 411 552 min~ 1;
#X obj 411 574 max~ 0;
#X obj 645 493 *~ 0.125;
#X obj 569 121 *~ 14;
#X text 568 26 CV(PRE-Q);
#X obj 641 45 inlet~;
#X text 640 26 CV(POST-Q);
#X obj 209 111 cnv 5 5 5 empty empty CV(POST-Q) 0 0 0 8 -262144 -1
0;
#X obj 149 111 cnv 5 5 5 empty empty CV(PRE-Q) 0 0 0 8 -262144 -1 0
;
#X obj 106 120 bng 15 50 50 0 empty empty empty 17 7 0 10 -262144 -226533
-1;
#X obj 630 588 outlet~;
#X obj 411 397 t f f;
#X obj 709 414 / 28;
#X obj 709 503 sig~;
#X obj 630 520 +~;
#X obj 630 542 min~ 1;
#X obj 630 564 max~ 0;
#X text 412 617 QUANTIZED CV OUT;
#X text 683 589 UN-QUANTIZED CV OUT;
#N canvas 0 22 1204 721 scales-tables 0;
#X obj 11 17 loadbang;
#X obj 10 156 loadbang;
#X obj 15 269 loadbang;
#X obj 17 383 loadbang;
#X obj 18 503 loadbang;
#X obj 427 3 loadbang;
#X obj 429 98 loadbang;
#X obj 430 197 loadbang;
#X obj 431 294 loadbang;
#X obj 430 421 loadbang;
#X obj 20 598 loadbang;
#X obj 433 534 loadbang;
#X obj 822 12 loadbang;
#X obj 823 149 loadbang;
#X obj 818 293 loadbang;
#X obj 11 131 table \$0-ionian;
#X obj 8 248 table \$0-aeolian;
#X obj 16 361 table \$0-dorian;
#X obj 17 479 table \$0-phrygian;
#X obj 18 692 table \$0-lyd-minor;
#X obj 459 24 table \$0-chromatic;
#X obj 462 119 table \$0-ancient;
#X obj 464 218 table \$0-tetra;
#X obj 466 315 table \$0-indian;
#X obj 468 441 table \$0-siga;
#X obj 433 653 table \$0-harm-major;
#X obj 864 35 table \$0-pelog;
#X obj 823 267 table \$0-slendro;
#X obj 817 395 table \$0-whole;
#X msg 11 81 \; \$1-ionian 0 0 2 4 5 7 9 11 12 14 16 17 19 21 23 24
26 28 29 31 33 35 36 38 40 41 43 45 47 48;
#X msg 10 201 \; \$1-aeolian 0 0 2 3 5 7 8 10 12 14 15 17 19 20 22
24 26 27 29 31 32 34 36 38 39 41 43 44 46 48;
#X msg 16 312 \; \$1-dorian 0 0 2 3 5 7 9 10 12 14 15 17 19 21 22 24
26 27 29 31 33 34 36 38 39 41 43 45 46 48;
#X msg 17 432 \; \$1-phrygian 0 0 1 3 5 7 8 10 12 13 15 17 19 20 22
24 25 27 29 31 32 34 36 37 39 41 43 44 46 48;
#X msg 18 549 \; \$1-lydian 0 0 2 4 6 7 9 11 12 14 16 18 19 21 23 24
26 28 30 31 33 35 36 38 40 42 43 45 47 48;
#X msg 19 643 \; \$1-lyd-minor 0 0 2 3 6 7 9 11 12 14 15 18 19 21 23
24 26 27 30 31 33 35 36 38 39 42 43 45 47 48;
#X msg 427 50 \; \$1-chromatic 0 0 1 2 3 4 5 6 7 8 9 10 11 12 13 14
15 16 17 18 19 20 21 22 23 24 25 26 27 28;
#X msg 428 151 \; \$1-ancient 0 0 0.5 1 5 7 7.5 8 12 12.5 13 17 19
19.5 20 24 24.5 25 29 31 31.5 32 36 36.5 37 41 43 43.5 44 48;
#X msg 430 248 \; \$1-tetra 0 0 1 1.75 2 3 3.75 4 5 12 13 13.75 14
15 15.75 16 17 24 25 25.75 26 27 27.75 28 29 36 37 37.75 38 39;
#X msg 431 350 \; \$1-indian 0 0 0.9 1.14 1.8 2.04 2.94 3.18 3.84 4.08
4.9 5.22 5.88 6.12 7.02 7.92 8.16 8.82 9.06 9.96 10.2 10.86 11.1 12
12.9 13.14 13.8 14.04 14.94 15.18;
#X msg 430 468 \; \$1-siga 0 0 1.5 3.5 5.5 7 8.5 10.5 12 13.5 15.5
17.5 19 20.5 22.5 24 25.5 27.5 29.5 31 32.5 34.5 36 37.5 39.5 41.5
43 44.5 46.5 48.5;
#X msg 433 601 \; \$1-harm-major 0 0 2 4 5 7 8 11 12 14 16 17 19 20
23 24 26 28 29 31 32 35 36 38 40 41 43 44 47 48;
#X msg 822 73 \; \$1-pelog 0 0 1.5 2.5 3.5 7 8 10.5 12 13.5 14.5 15.5
19 20 22.5 24 25.5 26.5 27.5 31 32 34.5 36 37.5 38.5 39.5 42.5 43.5
45 46.5;
#X msg 823 218 \; \$1-slendro 0 0 2.5 5 7 9.5 12 14.5 17 19 21.5 24
26.5 29 31 33.5 36 38.5 41 43 45.5 47 49.5 52 54 56.5 59 61.5 64 66.5
;
#X msg 818 346 \; \$1-whole 0 0 2 4 6 8 10 12 14 16 18 20 22 24 26
28 30 32 34 36 38 40 42 44 46 48 50 52 54 56;
#X obj 11 39 f \$0;
#X obj 10 178 f \$0;
#X obj 15 291 f \$0;
#X obj 17 405 f \$0;
#X obj 18 525 f \$0;
#X obj 20 620 f \$0;
#X obj 427 25 f \$0;
#X obj 429 120 f \$0;
#X obj 430 219 f \$0;
#X obj 431 316 f \$0;
#X obj 430 443 f \$0;
#X obj 433 556 f \$0;
#X obj 822 34 f \$0;
#X obj 823 171 f \$0;
#X obj 818 315 f \$0;
#X obj 49 524 table \$0-lydian;
#X connect 0 0 44 0;
#X connect 1 0 45 0;
#X connect 2 0 46 0;
#X connect 3 0 47 0;
#X connect 4 0 48 0;
#X connect 5 0 50 0;
#X connect 6 0 51 0;
#X connect 7 0 52 0;
#X connect 8 0 53 0;
#X connect 9 0 54 0;
#X connect 10 0 49 0;
#X connect 11 0 55 0;
#X connect 12 0 56 0;
#X connect 13 0 57 0;
#X connect 14 0 58 0;
#X connect 44 0 29 0;
#X connect 45 0 30 0;
#X connect 46 0 31 0;
#X connect 47 0 32 0;
#X connect 48 0 33 0;
#X connect 49 0 34 0;
#X connect 50 0 35 0;
#X connect 51 0 36 0;
#X connect 52 0 37 0;
#X connect 53 0 38 0;
#X connect 54 0 39 0;
#X connect 55 0 40 0;
#X connect 56 0 41 0;
#X connect 57 0 42 0;
#X connect 58 0 43 0;
#X restore 129 433 pd scales-tables;
#X obj 194 293 cnv 5 5 5 empty empty MAX 0 0 0 8 -262144 -1 0;
#X obj 411 436 tabread;
#X obj 239 348 t f f;
#N canvas 120 22 1142 609 choose-scale 0;
#X obj 438 475 outlet;
#X obj 81 37 / 127;
#X obj 81 103 i;
#X obj 81 15 inlet;
#X msg 80 566 set \$1-ionian;
#X obj 24 150 loadbang;
#X msg 90 464 set \$1-dorian;
#X msg 110 340 set \$1-phrygian;
#X msg 125 238 set \$1-lydian;
#X msg 220 239 set \$1-aeolian;
#X msg 317 239 set \$1-whole;
#X msg 404 236 set \$1-chromatic;
#X msg 512 234 set \$1-harm-major;
#X msg 559 311 set \$1-lyd-minor;
#X msg 588 363 set \$1-ancient;
#X msg 827 283 set \$1-pelog;
#X msg 642 445 set \$1-tetra;
#X msg 817 455 set \$1-indian;
#X msg 989 300 set \$1-slendro;
#X obj 24 171 f \$0;
#X obj 80 536 f;
#X obj 90 435 f;
#X obj 110 318 f;
#X obj 125 210 f;
#X obj 24 193 t f f f f;
#X obj 216 45 loadbang;
#X obj 216 66 f \$0;
#X obj 216 88 t f f f f;
#X obj 220 215 f;
#X obj 317 213 f;
#X obj 404 214 f;
#X obj 512 210 f;
#X obj 559 285 f;
#X obj 589 339 f;
#X obj 661 404 f;
#X obj 807 412 f;
#X obj 552 51 loadbang;
#X obj 552 72 f \$0;
#X obj 830 246 f;
#X obj 1000 257 f;
#X obj 552 94 t f f f f f f;
#X obj 81 125 sel 0 1 2 3 4 5 6 7 8 9 10 11 12 13 14;
#X obj 81 58 * 14;
#X connect 1 0 42 0;
#X connect 2 0 41 0;
#X connect 3 0 1 0;
#X connect 4 0 0 0;
#X connect 5 0 19 0;
#X connect 6 0 0 0;
#X connect 7 0 0 0;
#X connect 8 0 0 0;
#X connect 9 0 0 0;
#X connect 10 0 0 0;
#X connect 11 0 0 0;
#X connect 12 0 0 0;
#X connect 13 0 0 0;
#X connect 14 0 0 0;
#X connect 15 0 0 0;
#X connect 16 0 0 0;
#X connect 17 0 0 0;
#X connect 18 0 0 0;
#X connect 19 0 24 0;
#X connect 20 0 4 0;
#X connect 21 0 6 0;
#X connect 22 0 7 0;
#X connect 23 0 8 0;
#X connect 24 0 20 1;
#X connect 24 1 21 1;
#X connect 24 2 22 1;
#X connect 24 3 23 1;
#X connect 25 0 26 0;
#X connect 26 0 27 0;
#X connect 27 0 28 1;
#X connect 27 1 29 1;
#X connect 27 2 30 1;
#X connect 27 3 31 1;
#X connect 28 0 9 0;
#X connect 29 0 10 0;
#X connect 30 0 11 0;
#X connect 31 0 12 0;
#X connect 32 0 13 0;
#X connect 33 0 14 0;
#X connect 34 0 16 0;
#X connect 35 0 17 0;
#X connect 36 0 37 0;
#X connect 37 0 40 0;
#X connect 38 0 15 0;
#X connect 39 0 18 0;
#X connect 40 0 32 1;
#X connect 40 1 33 1;
#X connect 40 2 34 1;
#X connect 40 3 35 1;
#X connect 40 4 38 1;
#X connect 40 5 39 1;
#X connect 41 0 20 0;
#X connect 41 1 21 0;
#X connect 41 2 22 0;
#X connect 41 3 23 0;
#X connect 41 4 28 0;
#X connect 41 5 29 0;
#X connect 41 6 30 0;
#X connect 41 7 31 0;
#X connect 41 8 32 0;
#X connect 41 9 33 0;
#X connect 41 10 34 0;
#X connect 41 11 35 0;
#X connect 41 12 38 0;
#X connect 41 13 39 0;
#X connect 42 0 2 0;
#X restore 266 398 pd choose-scale;
#N canvas 315 35 895 724 state-saving-multiple-instances 0;
#X obj 205 1 loadbang;
#X obj 317 424 textfile;
#X msg 587 407 rewind;
#X msg 544 407 bang;
#X obj 110 663 textfile;
#X obj 544 368 t b b;
#X obj 111 329 f;
#X obj 124 552 f;
#X obj 52 373 t b b b;
#X msg 187 552 clear;
#X obj 272 189 outlet;
#X text 314 193 INSTANCE NUMBER;
#X obj 233 125 f \$1;
#X obj 233 161 t f f f;
#X obj 206 34 t b b;
#X obj 52 350 bng 15 250 50 0 empty empty empty 17 7 0 10 -262144 -1
-1;
#X obj 52 206 r SAVE-S;
#X msg 123 623 write statesave/\$1-8steps-ss.txt;
#X msg 317 399 read statesave/\$1-8steps-ss.txt;
#X obj 98 140 r \$0-8steps-scale-s;
#X obj 317 696 s \$0-8steps-scale-r;
#X msg 111 410 set \$1 \$2 \$3 \$4 \$5 \$6 \$7 \$8 \$9;
#X obj 111 372 pack f f f f f f f f f;
#X obj 318 447 unpack f f f f f f f f f;
#X obj 106 163 r \$0-8steps-s1-s;
#X obj 338 672 s \$0-8steps-s1-r;
#X obj 120 184 r \$0-8steps-s2-s;
#X obj 359 648 s \$0-8steps-s2-r;
#X obj 138 209 r \$0-8steps-s3-s;
#X obj 380 624 s \$0-8steps-s3-r;
#X obj 158 234 r \$0-8steps-s4-s;
#X obj 401 598 s \$0-8steps-s4-r;
#X obj 176 255 r \$0-8steps-s5-s;
#X obj 422 574 s \$0-8steps-s5-r;
#X obj 206 280 r \$0-8steps-s6-s;
#X obj 226 305 r \$0-8steps-s7-s;
#X obj 244 326 r \$0-8steps-s8-s;
#X obj 432 539 s \$0-8steps-s6-r;
#X obj 453 513 s \$0-8steps-s7-r;
#X obj 474 489 s \$0-8steps-s8-r, f 35;
#X connect 0 0 14 0;
#X connect 1 0 23 0;
#X connect 2 0 1 0;
#X connect 3 0 1 0;
#X connect 5 0 3 0;
#X connect 5 1 2 0;
#X connect 6 0 22 0;
#X connect 7 0 17 0;
#X connect 8 0 7 0;
#X connect 8 1 6 0;
#X connect 8 2 9 0;
#X connect 9 0 4 0;
#X connect 12 0 13 0;
#X connect 13 0 7 1;
#X connect 13 1 18 0;
#X connect 13 2 10 0;
#X connect 14 0 5 0;
#X connect 14 1 12 0;
#X connect 15 0 8 0;
#X connect 16 0 15 0;
#X connect 17 0 4 0;
#X connect 18 0 1 0;
#X connect 19 0 6 1;
#X connect 21 0 4 0;
#X connect 22 0 21 0;
#X connect 23 0 20 0;
#X connect 23 1 25 0;
#X connect 23 2 27 0;
#X connect 23 3 29 0;
#X connect 23 4 31 0;
#X connect 23 5 33 0;
#X connect 23 6 37 0;
#X connect 23 7 38 0;
#X connect 23 8 39 0;
#X connect 24 0 22 1;
#X connect 26 0 22 2;
#X connect 28 0 22 3;
#X connect 30 0 22 4;
#X connect 32 0 22 5;
#X connect 34 0 22 6;
#X connect 35 0 22 7;
#X connect 36 0 22 8;
#X restore 129 479 pd state-saving-multiple-instances;
#X obj 129 556 s \$0-instance-num;
#X obj 129 508 makefilename %d;
#X obj 187 128 cnv 5 5 5 empty \$0-instance-num 1 0 0 0 12 -262144
-66577 0;
#X msg 129 533 label \$1;
#X obj 757 537 outlet~;
#X msg 757 490 1 0 \, 0 1 1;
#X obj 757 512 vline~;
#X obj 105 293 cnv 5 5 5 empty empty Q-OUT 0 0 0 8 -262144 -1 0;
#X obj 762 48 threshold~ 0.99 0 1 0;
#N canvas 81 22 1117 745 state-saving-via-preset-manager-module 0;
#X obj 340 227 textfile;
#X msg 618 210 rewind;
#X msg 575 210 bang;
#X obj 106 568 textfile;
#X obj 575 171 t b b;
#X obj 107 234 f;
#X obj 120 457 f;
#X obj 53 352 t b b b;
#X msg 236 499 clear;
#X obj 107 56 delay 5;
#X obj 53 407 delay 10;
#X msg 53 192 bang;
#X obj 53 26 r STORE-S!;
#X obj 340 128 f;
#X obj 313 85 t b b;
#X obj 328 49 t b f;
#X obj 385 146 f \$1;
#X obj 340 173 pack f f;
#X obj 385 96 loadbang;
#X obj 120 487 pack f f;
#X obj 165 440 loadbang;
#X obj 165 462 f \$1;
#X obj 328 26 r preset-manager-scan;
#X obj 135 418 r preset-manager-store-slot;
#X msg 119 528 write statesave/\$1-\$2-8steps-ss.txt;
#X msg 340 202 read statesave/\$1-\$2-8steps-ss.txt;
#X obj 107 341 pack f f f f f f f f f;
#X msg 106 368 set \$1 \$2 \$3 \$4 \$5 \$6 \$7 \$8 \$9;
#X obj 340 249 unpack f f f f f f f f f;
#X obj 123 78 r \$0-8steps-s1-s;
#X obj 344 690 s \$0-8steps-s1-r;
#X obj 136 107 r \$0-8steps-s2-s;
#X obj 372 629 s \$0-8steps-s2-r;
#X obj 146 146 r \$0-8steps-s3-s;
#X obj 386 578 s \$0-8steps-s3-r;
#X obj 169 173 r \$0-8steps-s4-s;
#X obj 402 520 s \$0-8steps-s4-r;
#X obj 183 196 r \$0-8steps-s5-s;
#X obj 561 697 s \$0-8steps-s5-r;
#X obj 193 218 r \$0-8steps-s6-s;
#X obj 616 596 s \$0-8steps-s6-r;
#X obj 201 245 r \$0-8steps-s7-s;
#X obj 619 461 s \$0-8steps-s7-r;
#X obj 216 268 r \$0-8steps-s8-s;
#X obj 803 476 s \$0-8steps-s8-r;
#X obj 224 295 r \$0-8steps-scale-s;
#X obj 869 599 s \$0-8steps-scale-r;
#N canvas 0 22 1069 747 morph-parameters 0;
#X obj 176 94 inlet;
#X obj 176 236 pack f f;
#X obj 176 261 line;
#X obj 209 117 r preset-manager-morph-s;
#X msg 72 244 stop;
#X obj 72 214 r STOP-MORPH!;
#X obj 209 206 spigot;
#X obj 398 137 t f f;
#X obj 455 154 == 0;
#X obj 221 176 f;
#X floatatom 455 222 5 0 0 0 - - -, f 5;
#X obj 398 159 t b f;
#X floatatom 425 192 5 0 0 0 - - -, f 5;
#X obj 209 139 t f f;
#X obj 398 102 r parameters-s;
#X obj 176 288 outlet;
#X connect 0 0 1 0;
#X connect 1 0 2 0;
#X connect 2 0 15 0;
#X connect 3 0 13 0;
#X connect 4 0 2 0;
#X connect 5 0 4 0;
#X connect 6 0 1 1;
#X connect 7 0 11 0;
#X connect 7 1 8 0;
#X connect 8 0 10 0;
#X connect 9 0 6 0;
#X connect 10 0 1 1;
#X connect 11 0 9 0;
#X connect 11 1 12 0;
#X connect 12 0 6 1;
#X connect 13 0 6 0;
#X connect 13 1 9 1;
#X connect 14 0 7 0;
#X restore 343 664 pd morph-parameters;
#N canvas 0 22 1069 747 morph-parameters 0;
#X obj 176 94 inlet;
#X obj 176 236 pack f f;
#X obj 176 261 line;
#X obj 209 117 r preset-manager-morph-s;
#X msg 72 244 stop;
#X obj 72 214 r STOP-MORPH!;
#X obj 209 206 spigot;
#X obj 398 137 t f f;
#X obj 455 154 == 0;
#X obj 221 176 f;
#X floatatom 455 222 5 0 0 0 - - -, f 5;
#X obj 398 159 t b f;
#X floatatom 425 192 5 0 0 0 - - -, f 5;
#X obj 209 139 t f f;
#X obj 398 102 r parameters-s;
#X obj 176 288 outlet;
#X connect 0 0 1 0;
#X connect 1 0 2 0;
#X connect 2 0 15 0;
#X connect 3 0 13 0;
#X connect 4 0 2 0;
#X connect 5 0 4 0;
#X connect 6 0 1 1;
#X connect 7 0 11 0;
#X connect 7 1 8 0;
#X connect 8 0 10 0;
#X connect 9 0 6 0;
#X connect 10 0 1 1;
#X connect 11 0 9 0;
#X connect 11 1 12 0;
#X connect 12 0 6 1;
#X connect 13 0 6 0;
#X connect 13 1 9 1;
#X connect 14 0 7 0;
#X restore 386 553 pd morph-parameters;
#N canvas 0 22 1069 747 morph-parameters 0;
#X obj 176 94 inlet;
#X obj 176 236 pack f f;
#X obj 176 261 line;
#X obj 209 117 r preset-manager-morph-s;
#X msg 72 244 stop;
#X obj 72 214 r STOP-MORPH!;
#X obj 209 206 spigot;
#X obj 398 137 t f f;
#X obj 455 154 == 0;
#X obj 221 176 f;
#X floatatom 455 222 5 0 0 0 - - -, f 5;
#X obj 398 159 t b f;
#X floatatom 425 192 5 0 0 0 - - -, f 5;
#X obj 209 139 t f f;
#X obj 398 102 r parameters-s;
#X obj 176 288 outlet;
#X connect 0 0 1 0;
#X connect 1 0 2 0;
#X connect 2 0 15 0;
#X connect 3 0 13 0;
#X connect 4 0 2 0;
#X connect 5 0 4 0;
#X connect 6 0 1 1;
#X connect 7 0 11 0;
#X connect 7 1 8 0;
#X connect 8 0 10 0;
#X connect 9 0 6 0;
#X connect 10 0 1 1;
#X connect 11 0 9 0;
#X connect 11 1 12 0;
#X connect 12 0 6 1;
#X connect 13 0 6 0;
#X connect 13 1 9 1;
#X connect 14 0 7 0;
#X restore 372 606 pd morph-parameters;
#N canvas 0 22 1069 747 morph-parameters 0;
#X obj 176 94 inlet;
#X obj 176 236 pack f f;
#X obj 176 261 line;
#X obj 209 117 r preset-manager-morph-s;
#X msg 72 244 stop;
#X obj 72 214 r STOP-MORPH!;
#X obj 209 206 spigot;
#X obj 398 137 t f f;
#X obj 455 154 == 0;
#X obj 221 176 f;
#X floatatom 455 222 5 0 0 0 - - -, f 5;
#X obj 398 159 t b f;
#X floatatom 425 192 5 0 0 0 - - -, f 5;
#X obj 209 139 t f f;
#X obj 398 102 r parameters-s;
#X obj 176 288 outlet;
#X connect 0 0 1 0;
#X connect 1 0 2 0;
#X connect 2 0 15 0;
#X connect 3 0 13 0;
#X connect 4 0 2 0;
#X connect 5 0 4 0;
#X connect 6 0 1 1;
#X connect 7 0 11 0;
#X connect 7 1 8 0;
#X connect 8 0 10 0;
#X connect 9 0 6 0;
#X connect 10 0 1 1;
#X connect 11 0 9 0;
#X connect 11 1 12 0;
#X connect 12 0 6 1;
#X connect 13 0 6 0;
#X connect 13 1 9 1;
#X connect 14 0 7 0;
#X restore 401 493 pd morph-parameters;
#N canvas 0 22 1069 747 morph-parameters 0;
#X obj 176 94 inlet;
#X obj 176 236 pack f f;
#X obj 176 261 line;
#X obj 209 117 r preset-manager-morph-s;
#X msg 72 244 stop;
#X obj 72 214 r STOP-MORPH!;
#X obj 209 206 spigot;
#X obj 398 137 t f f;
#X obj 455 154 == 0;
#X obj 221 176 f;
#X floatatom 455 222 5 0 0 0 - - -, f 5;
#X obj 398 159 t b f;
#X floatatom 425 192 5 0 0 0 - - -, f 5;
#X obj 209 139 t f f;
#X obj 398 102 r parameters-s;
#X obj 176 288 outlet;
#X connect 0 0 1 0;
#X connect 1 0 2 0;
#X connect 2 0 15 0;
#X connect 3 0 13 0;
#X connect 4 0 2 0;
#X connect 5 0 4 0;
#X connect 6 0 1 1;
#X connect 7 0 11 0;
#X connect 7 1 8 0;
#X connect 8 0 10 0;
#X connect 9 0 6 0;
#X connect 10 0 1 1;
#X connect 11 0 9 0;
#X connect 11 1 12 0;
#X connect 12 0 6 1;
#X connect 13 0 6 0;
#X connect 13 1 9 1;
#X connect 14 0 7 0;
#X restore 562 672 pd morph-parameters;
#N canvas 0 22 1069 747 morph-parameters 0;
#X obj 176 94 inlet;
#X obj 176 236 pack f f;
#X obj 176 261 line;
#X obj 209 117 r preset-manager-morph-s;
#X msg 72 244 stop;
#X obj 72 214 r STOP-MORPH!;
#X obj 209 206 spigot;
#X obj 398 137 t f f;
#X obj 455 154 == 0;
#X obj 221 176 f;
#X floatatom 455 222 5 0 0 0 - - -, f 5;
#X obj 398 159 t b f;
#X floatatom 425 192 5 0 0 0 - - -, f 5;
#X obj 209 139 t f f;
#X obj 398 102 r parameters-s;
#X obj 176 288 outlet;
#X connect 0 0 1 0;
#X connect 1 0 2 0;
#X connect 2 0 15 0;
#X connect 3 0 13 0;
#X connect 4 0 2 0;
#X connect 5 0 4 0;
#X connect 6 0 1 1;
#X connect 7 0 11 0;
#X connect 7 1 8 0;
#X connect 8 0 10 0;
#X connect 9 0 6 0;
#X connect 10 0 1 1;
#X connect 11 0 9 0;
#X connect 11 1 12 0;
#X connect 12 0 6 1;
#X connect 13 0 6 0;
#X connect 13 1 9 1;
#X connect 14 0 7 0;
#X restore 614 569 pd morph-parameters;
#N canvas 0 22 1069 747 morph-parameters 0;
#X obj 176 94 inlet;
#X obj 176 236 pack f f;
#X obj 176 261 line;
#X obj 209 117 r preset-manager-morph-s;
#X msg 72 244 stop;
#X obj 72 214 r STOP-MORPH!;
#X obj 209 206 spigot;
#X obj 398 137 t f f;
#X obj 455 154 == 0;
#X obj 221 176 f;
#X floatatom 455 222 5 0 0 0 - - -, f 5;
#X obj 398 159 t b f;
#X floatatom 425 192 5 0 0 0 - - -, f 5;
#X obj 209 139 t f f;
#X obj 398 102 r parameters-s;
#X obj 176 288 outlet;
#X connect 0 0 1 0;
#X connect 1 0 2 0;
#X connect 2 0 15 0;
#X connect 3 0 13 0;
#X connect 4 0 2 0;
#X connect 5 0 4 0;
#X connect 6 0 1 1;
#X connect 7 0 11 0;
#X connect 7 1 8 0;
#X connect 8 0 10 0;
#X connect 9 0 6 0;
#X connect 10 0 1 1;
#X connect 11 0 9 0;
#X connect 11 1 12 0;
#X connect 12 0 6 1;
#X connect 13 0 6 0;
#X connect 13 1 9 1;
#X connect 14 0 7 0;
#X restore 619 434 pd morph-parameters;
#N canvas 0 22 1069 747 morph-parameters 0;
#X obj 176 94 inlet;
#X obj 176 236 pack f f;
#X obj 176 261 line;
#X obj 209 117 r preset-manager-morph-s;
#X msg 72 244 stop;
#X obj 72 214 r STOP-MORPH!;
#X obj 209 206 spigot;
#X obj 398 137 t f f;
#X obj 455 154 == 0;
#X obj 221 176 f;
#X floatatom 455 222 5 0 0 0 - - -, f 5;
#X obj 398 159 t b f;
#X floatatom 425 192 5 0 0 0 - - -, f 5;
#X obj 209 139 t f f;
#X obj 398 102 r parameters-s;
#X obj 176 288 outlet;
#X connect 0 0 1 0;
#X connect 1 0 2 0;
#X connect 2 0 15 0;
#X connect 3 0 13 0;
#X connect 4 0 2 0;
#X connect 5 0 4 0;
#X connect 6 0 1 1;
#X connect 7 0 11 0;
#X connect 7 1 8 0;
#X connect 8 0 10 0;
#X connect 9 0 6 0;
#X connect 10 0 1 1;
#X connect 11 0 9 0;
#X connect 11 1 12 0;
#X connect 12 0 6 1;
#X connect 13 0 6 0;
#X connect 13 1 9 1;
#X connect 14 0 7 0;
#X restore 801 445 pd morph-parameters;
#X connect 0 0 28 0;
#X connect 1 0 0 0;
#X connect 2 0 0 0;
#X connect 4 0 2 0;
#X connect 4 1 1 0;
#X connect 5 0 26 0;
#X connect 6 0 19 0;
#X connect 7 0 10 0;
#X connect 7 1 9 0;
#X connect 7 2 8 0;
#X connect 8 0 3 0;
#X connect 9 0 5 0;
#X connect 10 0 6 0;
#X connect 11 0 7 0;
#X connect 12 0 11 0;
#X connect 13 0 17 0;
#X connect 14 0 4 0;
#X connect 14 1 13 0;
#X connect 15 0 14 0;
#X connect 15 1 13 1;
#X connect 16 0 17 1;
#X connect 17 0 25 0;
#X connect 18 0 16 0;
#X connect 19 0 24 0;
#X connect 20 0 21 0;
#X connect 21 0 19 1;
#X connect 22 0 15 0;
#X connect 23 0 6 1;
#X connect 24 0 3 0;
#X connect 25 0 0 0;
#X connect 26 0 27 0;
#X connect 27 0 3 0;
#X connect 28 0 47 0;
#X connect 28 1 49 0;
#X connect 28 2 48 0;
#X connect 28 3 50 0;
#X connect 28 4 51 0;
#X connect 28 5 52 0;
#X connect 28 6 53 0;
#X connect 28 7 54 0;
#X connect 28 8 46 0;
#X connect 29 0 5 1;
#X connect 31 0 26 1;
#X connect 33 0 26 2;
#X connect 35 0 26 3;
#X connect 37 0 26 4;
#X connect 39 0 26 5;
#X connect 41 0 26 6;
#X connect 43 0 26 7;
#X connect 45 0 26 8;
#X connect 47 0 30 0;
#X connect 48 0 34 0;
#X connect 49 0 32 0;
#X connect 50 0 36 0;
#X connect 51 0 38 0;
#X connect 52 0 40 0;
#X connect 53 0 42 0;
#X connect 54 0 44 0;
#X restore 129 580 pd state-saving-via-preset-manager-module;
#X text 753 559 STEP1;
#N canvas 297 27 863 513 parameter-nudging-system 0;
#X obj 23 67 clip 0 127;
#X obj 141 65 clip 0 127;
#X obj 256 68 clip 0 127;
#X obj 23 22 r \$0-8steps-s1-s;
#X obj 23 95 s \$0-8steps-s1-r;
#X obj 141 20 r \$0-8steps-s2-s;
#X obj 141 93 s \$0-8steps-s2-r;
#X obj 256 21 r \$0-8steps-s3-s;
#X obj 256 94 s \$0-8steps-s3-r;
#X obj 381 67 clip 0 127;
#X obj 22 186 clip 0 127;
#X obj 144 187 clip 0 127;
#X obj 272 187 clip 0 127;
#X obj 394 184 clip 0 127;
#X obj 144 138 r \$0-8steps-s6-s;
#X obj 144 215 s \$0-8steps-s6-r;
#X obj 22 139 r \$0-8steps-s5-s;
#X obj 22 214 s \$0-8steps-s5-r;
#X obj 381 20 r \$0-8steps-s4-s;
#X obj 381 93 s \$0-8steps-s4-r;
#X obj 272 138 r \$0-8steps-s7-s;
#X obj 272 213 s \$0-8steps-s7-r;
#X obj 394 137 r \$0-8steps-s8-s;
#X obj 394 210 s \$0-8steps-s8-r;
#X obj 518 184 clip 0 127;
#X obj 518 136 r \$0-8steps-scale-s;
#X obj 518 210 s \$0-8steps-scale-r;
#N canvas 0 22 484 497 nudge-parameters 0;
#X obj 124 234 random;
#X obj 232 335 f;
#X obj 232 368 +;
#X obj 257 166 random 2;
#X obj 124 275 t f f;
#X obj 124 351 t b f;
#X obj 124 297 *;
#X obj 257 188 sel 0 1;
#X msg 257 280 -1;
#X msg 335 280 1;
#X obj 124 149 t b b b;
#X obj 124 74 r NUDGE!;
#X obj 157 193 r NUDGE-RANGE;
#X obj 247 308 inlet;
#X obj 232 397 outlet;
#X obj 124 96 spigot;
#X obj 185 79 r parameters2-s;
#X connect 0 0 4 0;
#X connect 1 0 2 0;
#X connect 2 0 14 0;
#X connect 3 0 7 0;
#X connect 4 0 6 0;
#X connect 5 0 2 0;
#X connect 5 1 2 1;
#X connect 6 0 5 0;
#X connect 7 0 8 0;
#X connect 7 1 9 0;
#X connect 8 0 6 1;
#X connect 9 0 6 1;
#X connect 10 0 0 0;
#X connect 10 1 1 0;
#X connect 10 2 3 0;
#X connect 11 0 15 0;
#X connect 12 0 0 1;
#X connect 13 0 1 1;
#X connect 15 0 10 0;
#X connect 16 0 15 1;
#X restore 23 45 pd nudge-parameters;
#N canvas 0 22 484 497 nudge-parameters 0;
#X obj 124 234 random;
#X obj 232 335 f;
#X obj 232 368 +;
#X obj 257 166 random 2;
#X obj 124 275 t f f;
#X obj 124 351 t b f;
#X obj 124 297 *;
#X obj 257 188 sel 0 1;
#X msg 257 280 -1;
#X msg 335 280 1;
#X obj 124 149 t b b b;
#X obj 124 74 r NUDGE!;
#X obj 157 193 r NUDGE-RANGE;
#X obj 247 308 inlet;
#X obj 232 397 outlet;
#X obj 124 96 spigot;
#X obj 185 79 r parameters2-s;
#X connect 0 0 4 0;
#X connect 1 0 2 0;
#X connect 2 0 14 0;
#X connect 3 0 7 0;
#X connect 4 0 6 0;
#X connect 5 0 2 0;
#X connect 5 1 2 1;
#X connect 6 0 5 0;
#X connect 7 0 8 0;
#X connect 7 1 9 0;
#X connect 8 0 6 1;
#X connect 9 0 6 1;
#X connect 10 0 0 0;
#X connect 10 1 1 0;
#X connect 10 2 3 0;
#X connect 11 0 15 0;
#X connect 12 0 0 1;
#X connect 13 0 1 1;
#X connect 15 0 10 0;
#X connect 16 0 15 1;
#X restore 145 44 pd nudge-parameters;
#N canvas 0 22 484 497 nudge-parameters 0;
#X obj 124 234 random;
#X obj 232 335 f;
#X obj 232 368 +;
#X obj 257 166 random 2;
#X obj 124 275 t f f;
#X obj 124 351 t b f;
#X obj 124 297 *;
#X obj 257 188 sel 0 1;
#X msg 257 280 -1;
#X msg 335 280 1;
#X obj 124 149 t b b b;
#X obj 124 74 r NUDGE!;
#X obj 157 193 r NUDGE-RANGE;
#X obj 247 308 inlet;
#X obj 232 397 outlet;
#X obj 124 96 spigot;
#X obj 185 79 r parameters2-s;
#X connect 0 0 4 0;
#X connect 1 0 2 0;
#X connect 2 0 14 0;
#X connect 3 0 7 0;
#X connect 4 0 6 0;
#X connect 5 0 2 0;
#X connect 5 1 2 1;
#X connect 6 0 5 0;
#X connect 7 0 8 0;
#X connect 7 1 9 0;
#X connect 8 0 6 1;
#X connect 9 0 6 1;
#X connect 10 0 0 0;
#X connect 10 1 1 0;
#X connect 10 2 3 0;
#X connect 11 0 15 0;
#X connect 12 0 0 1;
#X connect 13 0 1 1;
#X connect 15 0 10 0;
#X connect 16 0 15 1;
#X restore 518 159 pd nudge-parameters;
#N canvas 0 22 484 497 nudge-parameters 0;
#X obj 124 234 random;
#X obj 232 335 f;
#X obj 232 368 +;
#X obj 257 166 random 2;
#X obj 124 275 t f f;
#X obj 124 351 t b f;
#X obj 124 297 *;
#X obj 257 188 sel 0 1;
#X msg 257 280 -1;
#X msg 335 280 1;
#X obj 124 149 t b b b;
#X obj 124 74 r NUDGE!;
#X obj 157 193 r NUDGE-RANGE;
#X obj 247 308 inlet;
#X obj 232 397 outlet;
#X obj 124 96 spigot;
#X obj 185 79 r parameters2-s;
#X connect 0 0 4 0;
#X connect 1 0 2 0;
#X connect 2 0 14 0;
#X connect 3 0 7 0;
#X connect 4 0 6 0;
#X connect 5 0 2 0;
#X connect 5 1 2 1;
#X connect 6 0 5 0;
#X connect 7 0 8 0;
#X connect 7 1 9 0;
#X connect 8 0 6 1;
#X connect 9 0 6 1;
#X connect 10 0 0 0;
#X connect 10 1 1 0;
#X connect 10 2 3 0;
#X connect 11 0 15 0;
#X connect 12 0 0 1;
#X connect 13 0 1 1;
#X connect 15 0 10 0;
#X connect 16 0 15 1;
#X restore 273 44 pd nudge-parameters;
#N canvas 0 22 484 497 nudge-parameters 0;
#X obj 124 234 random;
#X obj 232 335 f;
#X obj 232 368 +;
#X obj 257 166 random 2;
#X obj 124 275 t f f;
#X obj 124 351 t b f;
#X obj 124 297 *;
#X obj 257 188 sel 0 1;
#X msg 257 280 -1;
#X msg 335 280 1;
#X obj 124 149 t b b b;
#X obj 124 74 r NUDGE!;
#X obj 157 193 r NUDGE-RANGE;
#X obj 247 308 inlet;
#X obj 232 397 outlet;
#X obj 124 96 spigot;
#X obj 185 79 r parameters2-s;
#X connect 0 0 4 0;
#X connect 1 0 2 0;
#X connect 2 0 14 0;
#X connect 3 0 7 0;
#X connect 4 0 6 0;
#X connect 5 0 2 0;
#X connect 5 1 2 1;
#X connect 6 0 5 0;
#X connect 7 0 8 0;
#X connect 7 1 9 0;
#X connect 8 0 6 1;
#X connect 9 0 6 1;
#X connect 10 0 0 0;
#X connect 10 1 1 0;
#X connect 10 2 3 0;
#X connect 11 0 15 0;
#X connect 12 0 0 1;
#X connect 13 0 1 1;
#X connect 15 0 10 0;
#X connect 16 0 15 1;
#X restore 395 43 pd nudge-parameters;
#N canvas 0 22 484 497 nudge-parameters 0;
#X obj 124 234 random;
#X obj 232 335 f;
#X obj 232 368 +;
#X obj 257 166 random 2;
#X obj 124 275 t f f;
#X obj 124 351 t b f;
#X obj 124 297 *;
#X obj 257 188 sel 0 1;
#X msg 257 280 -1;
#X msg 335 280 1;
#X obj 124 149 t b b b;
#X obj 124 74 r NUDGE!;
#X obj 157 193 r NUDGE-RANGE;
#X obj 247 308 inlet;
#X obj 232 397 outlet;
#X obj 124 96 spigot;
#X obj 185 79 r parameters2-s;
#X connect 0 0 4 0;
#X connect 1 0 2 0;
#X connect 2 0 14 0;
#X connect 3 0 7 0;
#X connect 4 0 6 0;
#X connect 5 0 2 0;
#X connect 5 1 2 1;
#X connect 6 0 5 0;
#X connect 7 0 8 0;
#X connect 7 1 9 0;
#X connect 8 0 6 1;
#X connect 9 0 6 1;
#X connect 10 0 0 0;
#X connect 10 1 1 0;
#X connect 10 2 3 0;
#X connect 11 0 15 0;
#X connect 12 0 0 1;
#X connect 13 0 1 1;
#X connect 15 0 10 0;
#X connect 16 0 15 1;
#X restore 22 162 pd nudge-parameters;
#N canvas 0 22 484 497 nudge-parameters 0;
#X obj 124 234 random;
#X obj 232 335 f;
#X obj 232 368 +;
#X obj 257 166 random 2;
#X obj 124 275 t f f;
#X obj 124 351 t b f;
#X obj 124 297 *;
#X obj 257 188 sel 0 1;
#X msg 257 280 -1;
#X msg 335 280 1;
#X obj 124 149 t b b b;
#X obj 124 74 r NUDGE!;
#X obj 157 193 r NUDGE-RANGE;
#X obj 247 308 inlet;
#X obj 232 397 outlet;
#X obj 124 96 spigot;
#X obj 185 79 r parameters2-s;
#X connect 0 0 4 0;
#X connect 1 0 2 0;
#X connect 2 0 14 0;
#X connect 3 0 7 0;
#X connect 4 0 6 0;
#X connect 5 0 2 0;
#X connect 5 1 2 1;
#X connect 6 0 5 0;
#X connect 7 0 8 0;
#X connect 7 1 9 0;
#X connect 8 0 6 1;
#X connect 9 0 6 1;
#X connect 10 0 0 0;
#X connect 10 1 1 0;
#X connect 10 2 3 0;
#X connect 11 0 15 0;
#X connect 12 0 0 1;
#X connect 13 0 1 1;
#X connect 15 0 10 0;
#X connect 16 0 15 1;
#X restore 144 161 pd nudge-parameters;
#N canvas 0 22 484 497 nudge-parameters 0;
#X obj 124 234 random;
#X obj 232 335 f;
#X obj 232 368 +;
#X obj 257 166 random 2;
#X obj 124 275 t f f;
#X obj 124 351 t b f;
#X obj 124 297 *;
#X obj 257 188 sel 0 1;
#X msg 257 280 -1;
#X msg 335 280 1;
#X obj 124 149 t b b b;
#X obj 124 74 r NUDGE!;
#X obj 157 193 r NUDGE-RANGE;
#X obj 247 308 inlet;
#X obj 232 397 outlet;
#X obj 124 96 spigot;
#X obj 185 79 r parameters2-s;
#X connect 0 0 4 0;
#X connect 1 0 2 0;
#X connect 2 0 14 0;
#X connect 3 0 7 0;
#X connect 4 0 6 0;
#X connect 5 0 2 0;
#X connect 5 1 2 1;
#X connect 6 0 5 0;
#X connect 7 0 8 0;
#X connect 7 1 9 0;
#X connect 8 0 6 1;
#X connect 9 0 6 1;
#X connect 10 0 0 0;
#X connect 10 1 1 0;
#X connect 10 2 3 0;
#X connect 11 0 15 0;
#X connect 12 0 0 1;
#X connect 13 0 1 1;
#X connect 15 0 10 0;
#X connect 16 0 15 1;
#X restore 272 161 pd nudge-parameters;
#N canvas 0 22 484 497 nudge-parameters 0;
#X obj 124 234 random;
#X obj 232 335 f;
#X obj 232 368 +;
#X obj 257 166 random 2;
#X obj 124 275 t f f;
#X obj 124 351 t b f;
#X obj 124 297 *;
#X obj 257 188 sel 0 1;
#X msg 257 280 -1;
#X msg 335 280 1;
#X obj 124 149 t b b b;
#X obj 124 74 r NUDGE!;
#X obj 157 193 r NUDGE-RANGE;
#X obj 247 308 inlet;
#X obj 232 397 outlet;
#X obj 124 96 spigot;
#X obj 185 79 r parameters2-s;
#X connect 0 0 4 0;
#X connect 1 0 2 0;
#X connect 2 0 14 0;
#X connect 3 0 7 0;
#X connect 4 0 6 0;
#X connect 5 0 2 0;
#X connect 5 1 2 1;
#X connect 6 0 5 0;
#X connect 7 0 8 0;
#X connect 7 1 9 0;
#X connect 8 0 6 1;
#X connect 9 0 6 1;
#X connect 10 0 0 0;
#X connect 10 1 1 0;
#X connect 10 2 3 0;
#X connect 11 0 15 0;
#X connect 12 0 0 1;
#X connect 13 0 1 1;
#X connect 15 0 10 0;
#X connect 16 0 15 1;
#X restore 394 160 pd nudge-parameters;
#X connect 0 0 4 0;
#X connect 1 0 6 0;
#X connect 2 0 8 0;
#X connect 3 0 27 0;
#X connect 5 0 28 0;
#X connect 7 0 30 0;
#X connect 9 0 19 0;
#X connect 10 0 17 0;
#X connect 11 0 15 0;
#X connect 12 0 21 0;
#X connect 13 0 23 0;
#X connect 14 0 33 0;
#X connect 16 0 32 0;
#X connect 18 0 31 0;
#X connect 20 0 34 0;
#X connect 22 0 35 0;
#X connect 24 0 26 0;
#X connect 25 0 29 0;
#X connect 27 0 0 0;
#X connect 28 0 1 0;
#X connect 29 0 24 0;
#X connect 30 0 2 0;
#X connect 31 0 9 0;
#X connect 32 0 10 0;
#X connect 33 0 11 0;
#X connect 34 0 12 0;
#X connect 35 0 13 0;
#X restore 129 455 pd parameter-nudging-system;
#X obj 443 65 threshold~ 0.9 0 0.9 0;
#X obj 533 475 spigot;
#X floatatom 469 390 5 0 0 0 - - -, f 5;
#X obj 411 458 spigot;
#X obj 542 425 == 0;
#X obj 548 391 t f f;
#X floatatom 533 497 5 0 0 0 - - -, f 5;
#X floatatom 589 459 5 0 0 0 - - -, f 5;
#X obj 911 538 s \$0-8steps-s1-r;
#X msg 911 488 label \$1;
#X obj 911 45 r \$0-8steps-s1-s;
#X obj 911 67 / 127;
#X obj 911 89 * 28;
#X obj 911 111 tabread;
#X floatatom 911 133 5 0 0 0 - - -, f 5;
#X obj 911 152 sel 0 1 2 3 4 5 6 7 8 9 10 11;
#X obj 265 420 s \$0-active-scale;
#X obj 971 94 r \$0-active-scale;
#X msg 911 464 symbol C;
#X msg 925 438 symbol Db;
#X msg 939 414 symbol D;
#X msg 952 387 symbol Eb;
#X msg 966 361 symbol E;
#X msg 980 337 symbol F;
#N canvas 423 56 1017 798 external-messages 1;
#X floatatom 11 518 5 0 0 0 - - -, f 5;
#X obj 190 328 spigot;
#X obj 218 288 tgl 15 0 empty empty empty 17 7 0 10 -262144 -1 -1 1
1;
#X obj 254 272 ==;
#X obj 269 248 f \$1;
#X obj 269 224 loadbang;
#X msg 185 202 \$1 \$2;
#X msg 185 156 symbol \$1;
#X obj 185 180 pack s f;
#X obj 11 497 f;
#X obj 11 445 t b f;
#X obj 11 468 spigot;
#X obj 185 62 unpack s f f;
#X symbolatom 185 94 10 0 0 0 - - -, f 10;
#X obj 218 308 t f f;
#X obj 245 332 s \$0-msg-spigot;
#X obj 59 452 r \$0-msg-spigot;
#X floatatom 56 692 5 0 0 0 - - -, f 5;
#X obj 56 671 f;
#X obj 56 619 t b f;
#X obj 56 642 spigot;
#X obj 104 626 r \$0-msg-spigot;
#X floatatom 201 523 5 0 0 0 - - -, f 5;
#X obj 201 502 f;
#X obj 201 450 t b f;
#X obj 201 473 spigot;
#X obj 249 457 r \$0-msg-spigot;
#X floatatom 296 700 5 0 0 0 - - -, f 5;
#X obj 296 679 f;
#X obj 296 627 t b f;
#X obj 296 650 spigot;
#X obj 344 634 r \$0-msg-spigot;
#X floatatom 363 559 5 0 0 0 - - -, f 5;
#X obj 363 538 f;
#X obj 363 486 t b f;
#X obj 363 509 spigot;
#X obj 411 493 r \$0-msg-spigot;
#X floatatom 486 688 5 0 0 0 - - -, f 5;
#X obj 486 667 f;
#X obj 486 615 t b f;
#X obj 486 638 spigot;
#X obj 534 622 r \$0-msg-spigot;
#X floatatom 531 560 5 0 0 0 - - -, f 5;
#X obj 531 539 f;
#X obj 531 487 t b f;
#X obj 531 510 spigot;
#X obj 579 494 r \$0-msg-spigot;
#X floatatom 667 693 5 0 0 0 - - -, f 5;
#X obj 667 672 f;
#X obj 667 620 t b f;
#X obj 667 643 spigot;
#X obj 715 627 r \$0-msg-spigot;
#X floatatom 737 522 5 0 0 0 - - -, f 5;
#X obj 737 501 f;
#X obj 737 449 t b f;
#X obj 737 472 spigot;
#X obj 779 408 r \$0-msg-spigot;
#X obj 56 712 s \$0-8steps-s2-r;
#X obj 201 543 s \$0-8steps-s3-r;
#X obj 296 720 s \$0-8steps-s4-r;
#X obj 363 579 s \$0-8steps-s5-r;
#X obj 486 708 s \$0-8steps-s6-r;
#X obj 531 580 s \$0-8steps-s7-r;
#X obj 667 713 s \$0-8steps-s8-r;
#X obj 737 542 s \$0-8steps-scale-r;
#X obj 185 14 r 8steps;
#X obj 185 362 route ONE TWO THREE FOUR FIVE SIX SEVEN EIGHT SCALE
;
#X obj 11 538 s \$0-8steps-s1-r;
#X connect 0 0 67 0;
#X connect 1 0 66 0;
#X connect 2 0 14 0;
#X connect 3 0 2 0;
#X connect 4 0 3 1;
#X connect 5 0 4 0;
#X connect 6 0 1 0;
#X connect 7 0 8 0;
#X connect 8 0 6 0;
#X connect 9 0 0 0;
#X connect 10 0 11 0;
#X connect 10 1 9 1;
#X connect 11 0 9 0;
#X connect 12 0 13 0;
#X connect 12 1 8 1;
#X connect 12 2 3 0;
#X connect 13 0 7 0;
#X connect 14 0 1 1;
#X connect 14 1 15 0;
#X connect 16 0 11 1;
#X connect 17 0 57 0;
#X connect 18 0 17 0;
#X connect 19 0 20 0;
#X connect 19 1 18 1;
#X connect 20 0 18 0;
#X connect 21 0 20 1;
#X connect 22 0 58 0;
#X connect 23 0 22 0;
#X connect 24 0 25 0;
#X connect 24 1 23 1;
#X connect 25 0 23 0;
#X connect 26 0 25 1;
#X connect 27 0 59 0;
#X connect 28 0 27 0;
#X connect 29 0 30 0;
#X connect 29 1 28 1;
#X connect 30 0 28 0;
#X connect 31 0 30 1;
#X connect 32 0 60 0;
#X connect 33 0 32 0;
#X connect 34 0 35 0;
#X connect 34 1 33 1;
#X connect 35 0 33 0;
#X connect 36 0 35 1;
#X connect 37 0 61 0;
#X connect 38 0 37 0;
#X connect 39 0 40 0;
#X connect 39 1 38 1;
#X connect 40 0 38 0;
#X connect 41 0 40 1;
#X connect 42 0 62 0;
#X connect 43 0 42 0;
#X connect 44 0 45 0;
#X connect 44 1 43 1;
#X connect 45 0 43 0;
#X connect 46 0 45 1;
#X connect 47 0 63 0;
#X connect 48 0 47 0;
#X connect 49 0 50 0;
#X connect 49 1 48 1;
#X connect 50 0 48 0;
#X connect 51 0 50 1;
#X connect 52 0 64 0;
#X connect 53 0 52 0;
#X connect 54 0 55 0;
#X connect 54 1 53 1;
#X connect 55 0 53 0;
#X connect 56 0 55 1;
#X connect 65 0 12 0;
#X connect 66 0 10 0;
#X connect 66 1 19 0;
#X connect 66 2 24 0;
#X connect 66 3 29 0;
#X connect 66 4 34 0;
#X connect 66 5 39 0;
#X connect 66 6 44 0;
#X connect 66 7 49 0;
#X connect 66 8 54 0;
#X restore 128 604 pd external-messages;
#X connect 0 0 100 0;
#X connect 2 0 3 0;
#X connect 2 0 39 0;
#X connect 3 0 2 1;
#X connect 4 0 23 0;
#X connect 5 0 21 0;
#X connect 6 0 27 0;
#X connect 7 0 25 0;
#X connect 8 0 40 0;
#X connect 10 0 96 0;
#X connect 11 0 2 1;
#X connect 17 0 53 0;
#X connect 17 0 58 0;
#X connect 18 0 58 0;
#X connect 19 0 58 0;
#X connect 20 0 58 0;
#X connect 21 0 22 0;
#X connect 22 0 17 1;
#X connect 23 0 24 0;
#X connect 24 0 18 1;
#X connect 25 0 26 0;
#X connect 26 0 19 1;
#X connect 27 0 28 0;
#X connect 28 0 20 1;
#X connect 29 0 56 0;
#X connect 31 0 15 0;
#X connect 31 1 105 0;
#X connect 32 0 29 0;
#X connect 34 0 11 0;
#X connect 34 1 33 0;
#X connect 35 0 47 0;
#X connect 36 0 45 0;
#X connect 37 0 51 0;
#X connect 38 0 49 0;
#X connect 39 0 8 0;
#X connect 40 0 17 0;
#X connect 40 0 93 0;
#X connect 40 1 18 0;
#X connect 40 2 19 0;
#X connect 40 3 20 0;
#X connect 40 4 41 0;
#X connect 40 5 42 0;
#X connect 40 6 43 0;
#X connect 40 7 44 0;
#X connect 41 0 58 0;
#X connect 42 0 58 0;
#X connect 43 0 58 0;
#X connect 44 0 58 0;
#X connect 45 0 46 0;
#X connect 46 0 41 1;
#X connect 47 0 48 0;
#X connect 48 0 42 1;
#X connect 49 0 50 0;
#X connect 50 0 43 1;
#X connect 51 0 52 0;
#X connect 52 0 44 1;
#X connect 54 0 11 0;
#X connect 55 0 85 0;
#X connect 56 0 63 0;
#X connect 57 0 66 0;
#X connect 58 0 74 0;
#X connect 58 0 102 0;
#X connect 59 0 60 0;
#X connect 60 0 58 0;
#X connect 60 1 58 1;
#X connect 61 0 2 0;
#X connect 61 1 72 0;
#X connect 62 0 59 0;
#X connect 63 0 64 0;
#X connect 64 0 30 0;
#X connect 65 0 56 1;
#X connect 65 0 77 1;
#X connect 66 0 59 0;
#X connect 68 0 65 0;
#X connect 74 0 84 0;
#X connect 74 1 75 0;
#X connect 75 0 76 0;
#X connect 76 0 77 0;
#X connect 77 0 78 0;
#X connect 78 0 79 0;
#X connect 79 0 73 0;
#X connect 84 0 103 0;
#X connect 85 0 31 0;
#X connect 85 1 86 0;
#X connect 86 0 84 0;
#X connect 86 0 116 0;
#X connect 87 0 89 0;
#X connect 89 0 91 0;
#X connect 91 0 88 0;
#X connect 93 0 94 0;
#X connect 94 0 92 0;
#X connect 96 0 34 0;
#X connect 100 0 61 0;
#X connect 101 0 32 0;
#X connect 101 0 106 0;
#X connect 102 0 101 0;
#X connect 103 0 32 0;
#X connect 104 0 103 1;
#X connect 105 0 104 0;
#X connect 105 1 101 1;
#X connect 105 1 107 0;
#X connect 110 0 111 0;
#X connect 111 0 112 0;
#X connect 112 0 113 0;
#X connect 113 0 114 0;
#X connect 114 0 115 0;
#X connect 115 0 118 0;
#X connect 115 1 119 0;
#X connect 115 2 120 0;
#X connect 115 3 121 0;
#X connect 115 4 122 0;
#X connect 115 5 123 0;
#X connect 117 0 113 0;
#X connect 118 0 109 0;
#X connect 119 0 109 0;
#X connect 120 0 109 0;
#X connect 121 0 109 0;
#X connect 122 0 109 0;
#X connect 123 0 109 0;
#X coords 0 -1 1 1 200 200 2 100 100;
