#N canvas 139 285 694 499 10;
#X obj 23 366 cnv 15 400 30 empty empty OUTPUTS: 20 12 0 14 #9898dc #fcfcfc 0;
#X obj 23 127 cnv 15 400 30 empty empty CONTROLS: 20 12 0 14 #9898dc #fcfcfc 0;
#X obj 23 310 cnv 15 400 30 empty empty INPUTS: 20 12 0 14 #9898dc #fcfcfc 0;
#X obj 20 17 cnv 15 400 30 empty empty ABL-LINK: 20 12 0 14 #90d4b0 #fcfcfc 0;
#X obj 50 90 abl_link~;
#X text 23 52 The "ABL-LINK" module is a clock synchronized using local network abl_link protocol. It uses abl_link~ external.;
#X text 113 89 <- right-click for "help" menu to get more infos.;
#X text 23 207 MUTE - temporarly mutes the CLK-OUT and SYNC outputs \, while remaining synchronized with network abl_link protpocol, f 67;
#X text 25 343 none, f 13;
#X text 23 411 CLK-OUT - output1 : clock output, f 41;
#X obj 462 27 abl-link;
#A saved preset statesave/0-abl-link-ss.txt 0 63 1 0 112;
#A saved dispatch resolution-s 0;
#A saved dispatch connect-s 1;
#A saved dispatch mute-s 0;
#A saved dispatch sync-s 112;
#A saved dispatch tempo-s 63;
#X text 22 245 RESOLUTION - output rate (quarter \, eighth \, etc...), f 57;
#X text 21 286 SYNC - period (number of quarters) between two triggers on SYNC output, f 77;
#X text 18 265 TEMPO - local or shared tempo, f 39;
#X text 21 166 CONNECT - Enables / Disables synchronization with abl_link protocol, f 67;
#X text 22 441 SYNC - output2 : periodic synchronization output, f 56;
#X text 23 462 BPM-RATE - outputs a voltage related to BPM. For example \, 120 BPM = 0 V \, 240 BPM = + 0.0944882 V \, 60 BPM = - 0.0944882 V. (0.0944882 V / 'octave' ), f 72;
