#N canvas 507 232 1199 775 10;
#X obj 136 110 cnv 5 5 5 empty empty ABL-LINK 0 0 0 12 #fcfcfc #404040 0;
#X obj 172 191 bng 15 100 50 0 empty empty empty 17 7 0 10 #fcfcfc #dc4c90 #000000;
#X obj 106 191 bng 15 100 50 0 empty \$0-clock_out_display empty 17 7 0 10 #fcfcfc #f430f0 #000000;
#X obj 106 212 cnv 5 5 5 empty empty CLK-OUT 0 0 0 8 #fcfcfc #dc4c90 0;
#X obj 172 212 cnv 5 5 5 empty empty SYNC 0 0 0 8 #fcfcfc #dc4c90 0;
#X obj 939 441 outlet~;
#X obj 508 454 outlet~;
#X obj 325 77 namecanvas \$0-this;
#X obj 103 132 hradio 15 1 0 6 \$0-resolution-s \$0-resolution-r resolution=1/4 0 7 0 10 #fce0c0 #fcac44 #000000 0;
#X obj 466 40 abl_link~;
#X obj 722 -2 r \$0-tempo-s;
#X msg 722 20 tempo \$1;
#X obj 722 42 s \$0-abl_link;
#X obj 585 18 r \$0-abl_link;
#X obj 510 -99 t b;
#X msg 510 -73 1 0 \, 0 1 1;
#X obj 510 -47 vline~;
#X floatatom 128 191 5 0 0 2 COUNT - - 0;
#X obj 1139 164 s \$0-abl_link;
#X msg 1160 135 reset 0 \$1;
#X obj 465 66 select 0;
#X msg 884 354 1 0 \, 0 1 1;
#X obj 884 380 vline~;
#X obj 409 -54 / 1;
#X obj 929 163 r \$0-abl_link;
#X obj 929 186 route resolution;
#X obj 374 -9 int;
#X obj 367 9 change;
#X obj 1167 104 r \$0-sync-s;
#X obj 956 -12 r \$0-sync-s;
#X msg 956 11 set \$1;
#X obj 965 31 s \$0-sync-r;
#N canvas 2 87 450 300 resolution 0;
#X obj 236 94 r \$0-resolution-s;
#X obj 236 116 select 0 1 2 3 4 5;
#X obj 220 263 s \$0-resolution-r;
#X msg 144 223 label resolution=1/4;
#X msg 472 270 label resolution=1/16;
#X msg 497 205 label resolution=1/32;
#X msg 193 189 label resolution=1/8;
#X msg 249 166 label resolution=1/12;
#X msg 282 217 label resolution=1/24;
#X msg 299 328 1;
#X msg 329 323 2;
#X msg 367 320 3;
#X msg 404 314 4;
#X msg 441 314 6;
#X msg 473 310 8;
#X msg 306 352 resolution \$1;
#X obj 306 374 s \$0-abl_link;
#X connect 0 0 1 0;
#X connect 1 0 3 0;
#X connect 1 0 9 0;
#X connect 1 1 6 0;
#X connect 1 1 10 0;
#X connect 1 2 7 0;
#X connect 1 2 11 0;
#X connect 1 3 4 0;
#X connect 1 3 12 0;
#X connect 1 4 8 0;
#X connect 1 4 13 0;
#X connect 1 5 5 0;
#X connect 1 5 14 0;
#X connect 3 0 2 0;
#X connect 4 0 2 0;
#X connect 5 0 2 0;
#X connect 6 0 2 0;
#X connect 7 0 2 0;
#X connect 8 0 2 0;
#X connect 9 0 15 0;
#X connect 10 0 15 0;
#X connect 11 0 15 0;
#X connect 12 0 15 0;
#X connect 13 0 15 0;
#X connect 14 0 15 0;
#X connect 15 0 16 0;
#X restore 889 234 pd resolution;
#X floatatom 232 122 5 0 0 0 PEERS - - 0;
#X obj 165 16 r #abl_link_num_peers;
#X obj 245 102 tgl 18 0 \$0-connect-s \$0-connect-r CONNECT -45 9 0 10 #fcfcfc #000000 #000000 0 1;
#X obj 171 161 tgl 25 0 \$0-mute-s \$0-mute-r MUTE 0 -5 0 10 #fcfcfc #000000 #000000 0 1;
#X obj 684 138 r \$0-mute-s;
#X obj 509 204 *~ 1;
#X obj 684 161 == 0;
#X obj 674 210 spigot 1;
#X msg 463 12 connect \$1;
#X obj 453 -15 r \$0-connect-s;
#X obj 105 161 nbx 5 16 1 999 0 0 \$0-sync-s \$0-sync-r SYNC 0 -6 0 10 #fcfcfc #000000 #000000 0 256;
#X obj 208 161 nbx 5 16 20 400 0 0 \$0-tempo-s \$0-tempo-r TEMPO 0 -6 0 10 #fcfcfc #000000 #000000 0 256;
#X obj 10 50 reloaded abl-link \$0 \$1;
#X obj 50 10 savestate;
#N canvas 2 682 450 300 \$0-gui_listeners 0;
#X obj 10 0 reloaded/nbx_dispatch abl-link \$0 \$1 -1e+37 1e+37 tempo-s tempo-r TEMPO #fcfcfc #000000 #000000;
#X obj 10 60 reloaded/nbx_dispatch abl-link \$0 \$1 -1e+37 1e+37 sync-s sync-r SYNC #fcfcfc #000000 #000000;
#X obj 10 120 reloaded/tgl_dispatch abl-link \$0 \$1 0 1 mute-s mute-r MUTE #fcfcfc #000000 #000000;
#X obj 10 180 reloaded/tgl_dispatch abl-link \$0 \$1 0 1 connect-s connect-r CONNECT #fcfcfc #000000 #000000;
#X obj 10 240 reloaded/hradio_dispatch abl-link \$0 \$1 0 5 resolution-s resolution-r resolution=1/4 #fce0c0 #fcac44 #000000;
#X restore 10 80 pd \$0-gui_listeners;
#N canvas 21 22 753 826 state-saving-multiple-instances 0;
#X obj 215 28 loadbang;
#X msg 556 463 rewind;
#X msg 513 463 bang;
#X obj 119 690 reloaded/textfile \$0;
#X obj 513 424 t b b;
#X obj 120 356 f;
#X obj 133 579 f;
#X obj 66 422 t b b b;
#X msg 196 579 clear;
#X obj 281 216 outlet;
#X text 277 236 INSTANCE NUMBER;
#X obj 242 92 f \$1;
#X obj 242 128 t f f f;
#X obj 215 61 t b b;
#X obj 66 331 bng 15 250 50 0 empty \$0-save-s empty 17 7 0 10 #fcfcfc #000000 #000000;
#X obj 66 235 r SAVE-S;
#X obj 261 480 reloaded/textfile \$0 init;
#X obj 120 399 pack f f f f f;
#X obj 135 307 r \$0-mute-s;
#X obj 144 327 r \$0-tempo-s;
#X obj 175 352 r \$0-connect-s;
#X obj 197 372 r \$0-resolution-s;
#X obj 241 392 r \$0-sync-s;
#X obj 263 510 unpack f f f f f;
#X obj 261 604 s \$0-mute-r;
#X obj 283 573 s \$0-tempo-r;
#X obj 336 618 s \$0-resolution-r;
#X obj 307 552 s \$0-connect-r;
#X obj 360 531 s \$0-sync-r;
#X msg 262 455 read statesave/\$1-abl-link-ss.txt;
#X msg 132 648 write statesave/\$1-abl-link-ss.txt;
#X msg 120 438 set \$1 \$2 \$3 \$4 \$5;
#X connect 0 0 13 0;
#X connect 1 0 16 0;
#X connect 2 0 16 0;
#X connect 4 0 2 0;
#X connect 4 1 1 0;
#X connect 5 0 17 0;
#X connect 6 0 30 0;
#X connect 7 0 6 0;
#X connect 7 1 5 0;
#X connect 7 2 8 0;
#X connect 8 0 3 0;
#X connect 11 0 12 0;
#X connect 12 0 6 1;
#X connect 12 1 29 0;
#X connect 12 2 9 0;
#X connect 13 0 4 0;
#X connect 13 1 11 0;
#X connect 14 0 7 0;
#X connect 15 0 14 0;
#X connect 16 0 23 0;
#X connect 17 0 31 0;
#X connect 18 0 5 1;
#X connect 19 0 17 1;
#X connect 20 0 17 2;
#X connect 21 0 17 3;
#X connect 22 0 17 4;
#X connect 23 0 24 0;
#X connect 23 1 25 0;
#X connect 23 2 27 0;
#X connect 23 3 26 0;
#X connect 23 4 28 0;
#X connect 29 0 16 0;
#X connect 30 0 3 0;
#X connect 31 0 3 0;
#X restore 76 456 pd state-saving-multiple-instances;
#X text 104 116 4 8 12 16 24 32;
#X obj 1076 437 outlet~;
#X obj 1075 290 ftom;
#X obj 1075 235 * 440;
#X obj 1075 263 / 120;
#X obj 1072 353 / 127;
#X obj 1073 322 - 69;
#X obj 1072 386 clip -1 1;
#X obj 1084 410 lop~ 0.5;
#X obj 222 212 cnv 5 5 5 empty empty BPM-RATE 0 0 0 8 #fcfcfc #dc4c90 0;
#X obj 1068 197 r \$0-tempo-s;
#X obj 553 291 change;
#X obj 552 319 s \$0-tempo-r;
#X obj 46 534 s \$0-sync-r;
#X obj 133 536 s \$0-tempo-r;
#X msg 76 502 4;
#X obj 76 479 t b b b;
#X obj 248 536 s \$0-resolution-r;
#X msg 242 509 0;
#X msg 132 504 set 120;
#X obj 606 -67 s \$0-clock_out_display;
#X obj 660 591 s \$0-clock_out_display;
#X msg 700 535 color 0 19 -1;
#X msg 716 561 color 1 19 -1;
#X obj 709 438 r \$0-mute-s;
#X obj 704 487 select 0 1;
#X connect 9 0 14 0;
#X connect 9 0 20 0;
#X connect 9 0 23 0;
#X connect 9 3 60 0;
#X connect 10 0 11 0;
#X connect 11 0 12 0;
#X connect 13 0 9 0;
#X connect 14 0 15 0;
#X connect 14 0 69 0;
#X connect 15 0 16 0;
#X connect 16 0 38 0;
#X connect 19 0 18 0;
#X connect 20 0 1 0;
#X connect 20 0 40 0;
#X connect 21 0 22 0;
#X connect 22 0 5 0;
#X connect 23 0 26 0;
#X connect 24 0 25 0;
#X connect 25 0 23 1;
#X connect 26 0 27 0;
#X connect 27 0 17 0;
#X connect 28 0 19 0;
#X connect 29 0 30 0;
#X connect 30 0 31 0;
#X connect 34 0 33 0;
#X connect 37 0 39 0;
#X connect 38 0 6 0;
#X connect 39 0 38 1;
#X connect 39 0 40 1;
#X connect 40 0 21 0;
#X connect 41 0 9 0;
#X connect 42 0 41 0;
#X connect 45 0 46 0;
#X connect 46 0 45 0;
#X connect 46 1 45 1;
#X connect 48 0 65 0;
#X connect 51 0 55 0;
#X connect 52 0 53 0;
#X connect 53 0 51 0;
#X connect 54 0 56 0;
#X connect 55 0 54 0;
#X connect 56 0 57 0;
#X connect 57 0 50 0;
#X connect 59 0 52 0;
#X connect 60 0 61 0;
#X connect 64 0 62 0;
#X connect 65 0 64 0;
#X connect 65 1 68 0;
#X connect 65 2 67 0;
#X connect 67 0 66 0;
#X connect 68 0 63 0;
#X connect 71 0 70 0;
#X connect 72 0 70 0;
#X connect 73 0 74 0;
#X connect 74 0 71 0;
#X connect 74 1 72 0;
#X coords 0 -1 1 1 165 120 2 100 100;
