#N canvas 0 23 1115 730 10;
#X obj 609 152 snapshot~;
#X obj 678 117 tgl 15 0 empty empty empty 17 7 0 10 -262144 -1 -1 0
1;
#X obj 609 402 f;
#X obj 108 129 hsl 128 15 1.27 127 1 1 \$0-adsr-attack-s \$0-adsr-attack-r
ATTACK 135 7 0 10 -262144 -1 -1 10100 1;
#X obj 652 297 * 0.00787402;
#X obj 652 319 * 1990;
#X obj 652 341 + 10;
#X obj 652 363 +;
#X obj 652 385 clip 10 2000;
#X obj 609 530 vline~;
#X obj 108 174 hsl 128 15 1.27 127 1 1 \$0-adsr-release-s \$0-adsr-release-r
RELEASE 135 7 0 10 -262144 -1 -1 9300 1;
#X obj 1013 352 * 0.00787402;
#X obj 1013 396 + 10;
#X obj 1013 418 +;
#X msg 609 446 1 \$1 \, \$3 \$2 \$1;
#X obj 609 424 pack f f f;
#X obj 108 144 hsl 128 15 1.27 127 1 1 \$0-adsr-decay-s \$0-adsr-decay-r
DECAY 135 7 0 10 -262144 -1 -1 5800 1;
#X obj 751 319 * 0.00787402;
#X obj 751 341 * 1990;
#X obj 751 363 + 10;
#X obj 751 385 +;
#X obj 751 407 clip 10 2000;
#X obj 108 159 hsl 128 15 0 127 0 1 \$0-adsr-sustain-s \$0-adsr-sustain-r
SUSTAIN 135 7 0 10 -262144 -1 -1 9300 1;
#X obj 921 319 * 0.00787402;
#X obj 921 385 +;
#X obj 921 407 clip 0.2 0.8;
#X obj 998 468 f;
#X obj 609 208 t f f;
#X obj 998 247 sel 1;
#X obj 998 269 t b;
#X obj 1013 374 * 3990;
#X obj 1013 440 clip 10 4000;
#X obj 609 174 change;
#X obj 609 230 > 0;
#X obj 609 271 sel 1;
#X obj 609 566 *~;
#X obj 610 628 *~;
#X obj 336 501 * 0.00787402;
#X obj 108 189 hsl 128 15 0 127 0 1 \$0-adsr-curve-s \$0-adsr-curve-r
CURVE 135 7 0 10 -262144 -1 -1 12700 1;
#X obj 921 363 + 0.1;
#X obj 921 341 * 0.8;
#X obj 678 135 metro 10;
#X obj 998 225 < 0.1;
#X obj 611 26 inlet~;
#X obj 678 43 env~;
#X obj 678 65 > 0;
#X obj 678 87 change;
#X obj 652 270 r \$0-adsr-attack-s;
#X obj 751 297 r \$0-adsr-decay-s;
#X obj 921 296 r \$0-adsr-sustain-s;
#X obj 1013 326 r \$0-adsr-release-s;
#X obj 336 475 r \$0-adsr-curve-s;
#X obj 119 120 cnv 5 5 5 empty empty ADSR 0 0 0 12 -262144 -66577 0
;
#X obj 153 120 cnv 5 5 5 empty \$0-instance-num 1 0 0 0 12 -262144
-66577 0;
#X obj 105 115 cnv 10 10 10 empty \$0-adsr-gui-r empty 20 12 0 14 -33289
-262144 0;
#X floatatom 501 247 5 0 0 0 - - -, f 5;
#X obj 501 266 + 12;
#X obj 501 310 s \$0-adsr-gui-r;
#X obj 105 109 cnv 5 5 5 empty empty GATE 0 0 0 8 -262144 -226533 0
;
#X msg 501 288 color \$1;
#X floatatom 749 88 5 0 0 0 - - -, f 5;
#X obj 610 677 outlet~;
#X obj 552 628 *~;
#X obj 336 523 t f f;
#X msg 336 545 1 \$1;
#X obj 336 567 -;
#X obj 336 589 pack 0 50;
#X obj 336 611 line~;
#X obj 443 591 pack 0 50;
#X obj 443 611 line~;
#X obj 609 588 *~;
#N canvas 315 35 593 735 state-saving-multiple-instances 0;
#X obj 137 29 loadbang;
#X obj 184 452 textfile;
#X msg 466 435 rewind;
#X msg 423 435 bang;
#X obj 42 691 textfile;
#X obj 423 396 t b b;
#X obj 43 357 f;
#X obj 56 580 f;
#X obj -16 401 t b b b;
#X msg 119 580 clear;
#X obj 204 217 outlet;
#X text 246 221 INSTANCE NUMBER;
#X obj 165 153 f \$1;
#X obj 165 189 t f f f;
#X obj 138 62 t b b;
#X obj -16 378 bng 15 250 50 0 empty empty empty 17 7 0 10 -262144
-1 -1;
#X obj -16 234 r SAVE-S;
#X obj 43 400 pack f f f f f;
#X obj 184 474 unpack f f f f f;
#X msg 43 438 set \$1 \$2 \$3 \$4 \$5;
#X msg 184 427 read statesave/\$1-adsr-ss.txt;
#X msg 55 651 write statesave/\$1-adsr-ss.txt;
#X obj 58 254 r \$0-adsr-attack-s;
#X obj 184 627 s \$0-adsr-attack-r;
#X obj 66 277 r \$0-adsr-decay-s;
#X obj 205 603 s \$0-adsr-decay-r;
#X obj 80 298 r \$0-adsr-sustain-s;
#X obj 226 579 s \$0-adsr-sustain-r;
#X obj 98 323 r \$0-adsr-release-s;
#X obj 247 555 s \$0-adsr-release-r;
#X obj 118 348 r \$0-adsr-curve-s;
#X obj 275 529 s \$0-adsr-curve-r;
#X connect 0 0 14 0;
#X connect 1 0 18 0;
#X connect 2 0 1 0;
#X connect 3 0 1 0;
#X connect 5 0 3 0;
#X connect 5 1 2 0;
#X connect 6 0 17 0;
#X connect 7 0 21 0;
#X connect 8 0 7 0;
#X connect 8 1 6 0;
#X connect 8 2 9 0;
#X connect 9 0 4 0;
#X connect 12 0 13 0;
#X connect 13 0 7 1;
#X connect 13 1 20 0;
#X connect 13 2 10 0;
#X connect 14 0 5 0;
#X connect 14 1 12 0;
#X connect 15 0 8 0;
#X connect 16 0 15 0;
#X connect 17 0 19 0;
#X connect 18 0 23 0;
#X connect 18 1 25 0;
#X connect 18 2 27 0;
#X connect 18 3 29 0;
#X connect 18 4 31 0;
#X connect 19 0 4 0;
#X connect 20 0 1 0;
#X connect 21 0 4 0;
#X connect 22 0 6 1;
#X connect 24 0 17 1;
#X connect 26 0 17 2;
#X connect 28 0 17 3;
#X connect 30 0 17 4;
#X restore 96 297 pd state-saving-multiple-instances;
#X obj 96 371 s \$0-instance-num;
#X obj 96 323 makefilename %d;
#X msg 96 348 label \$1;
#N canvas 81 22 1117 745 state-saving-via-preset-manager-module 0;
#X obj 340 227 textfile;
#X msg 719 210 rewind;
#X msg 676 210 bang;
#X obj 106 568 textfile;
#X obj 676 171 t b b;
#X obj 107 234 f;
#X obj 120 457 f;
#X obj 53 352 t b b b;
#X msg 236 499 clear;
#X obj 107 56 delay 5;
#X obj 53 407 delay 10;
#X msg 53 192 bang;
#X obj 53 26 r STORE-S!;
#X obj 340 128 f;
#X obj 313 85 t b b;
#X obj 328 49 t b f;
#X obj 385 146 f \$1;
#X obj 340 173 pack f f;
#X obj 385 96 loadbang;
#X obj 120 487 pack f f;
#X obj 165 440 loadbang;
#X obj 165 462 f \$1;
#X obj 345 665 pack f f;
#X obj 345 689 line;
#X obj 390 640 r preset-manager-morph-s;
#X obj 328 26 r preset-manager-scan;
#X obj 366 570 pack f f;
#X obj 366 594 line;
#X obj 411 545 r preset-manager-morph-s;
#X obj 135 418 r preset-manager-store-slot;
#X obj 384 494 line;
#X obj 429 443 r preset-manager-morph-s;
#X msg 43 669 stop;
#X obj 43 602 r STOP-MORPH!;
#X obj 384 470 pack f f;
#X obj 561 650 pack f f;
#X obj 561 674 line;
#X obj 606 625 r preset-manager-morph-s;
#X obj 616 573 line;
#X obj 661 522 r preset-manager-morph-s;
#X obj 616 549 pack f f;
#X msg 106 368 set \$1 \$2 \$3 \$4 \$5;
#X obj 107 301 pack f f f f f;
#X obj 340 249 unpack f f f f f;
#X msg 119 528 write statesave/\$1-\$2-adsr-ss.txt;
#X msg 340 202 read statesave/\$1-\$2-adsr-ss.txt;
#X obj 123 78 r \$0-adsr-attack-s;
#X obj 345 714 s \$0-adsr-attack-r;
#X obj 136 107 r \$0-adsr-decay-s;
#X obj 366 616 s \$0-adsr-decay-r;
#X obj 146 146 r \$0-adsr-sustain-s;
#X obj 384 517 s \$0-adsr-sustain-r;
#X obj 169 173 r \$0-adsr-release-s;
#X obj 561 697 s \$0-adsr-release-r;
#X obj 183 196 r \$0-adsr-curve-s;
#X obj 616 596 s \$0-adsr-curve-r;
#X connect 0 0 43 0;
#X connect 1 0 0 0;
#X connect 2 0 0 0;
#X connect 4 0 2 0;
#X connect 4 1 1 0;
#X connect 5 0 42 0;
#X connect 6 0 19 0;
#X connect 7 0 10 0;
#X connect 7 1 9 0;
#X connect 7 2 8 0;
#X connect 8 0 3 0;
#X connect 9 0 5 0;
#X connect 10 0 6 0;
#X connect 11 0 7 0;
#X connect 12 0 11 0;
#X connect 13 0 17 0;
#X connect 14 0 4 0;
#X connect 14 1 13 0;
#X connect 15 0 14 0;
#X connect 15 1 13 1;
#X connect 16 0 17 1;
#X connect 17 0 45 0;
#X connect 18 0 16 0;
#X connect 19 0 44 0;
#X connect 20 0 21 0;
#X connect 21 0 19 1;
#X connect 22 0 23 0;
#X connect 23 0 47 0;
#X connect 24 0 22 1;
#X connect 25 0 15 0;
#X connect 26 0 27 0;
#X connect 27 0 49 0;
#X connect 28 0 26 1;
#X connect 29 0 6 1;
#X connect 30 0 51 0;
#X connect 31 0 34 1;
#X connect 32 0 23 0;
#X connect 32 0 27 0;
#X connect 32 0 30 0;
#X connect 32 0 36 0;
#X connect 32 0 38 0;
#X connect 33 0 32 0;
#X connect 34 0 30 0;
#X connect 35 0 36 0;
#X connect 36 0 53 0;
#X connect 37 0 35 1;
#X connect 38 0 55 0;
#X connect 39 0 40 1;
#X connect 40 0 38 0;
#X connect 41 0 3 0;
#X connect 42 0 41 0;
#X connect 43 0 22 0;
#X connect 43 1 26 0;
#X connect 43 2 34 0;
#X connect 43 3 35 0;
#X connect 43 4 40 0;
#X connect 44 0 3 0;
#X connect 45 0 0 0;
#X connect 46 0 5 1;
#X connect 48 0 42 1;
#X connect 50 0 42 2;
#X connect 52 0 42 3;
#X connect 54 0 42 4;
#X restore 96 275 pd state-saving-via-preset-manager-module;
#N canvas 297 27 648 297 parameter-nudging-system 0;
#X obj 21 171 clip 0 127;
#X obj 213 173 clip 0 127;
#X obj 23 67 clip 0 127;
#X obj 214 69 clip 0 127;
#X obj 407 71 clip 0 127;
#X obj 23 22 r \$0-adsr-attack-s;
#X obj 23 95 s \$0-adsr-attack-r;
#X obj 214 24 r \$0-adsr-decay-s;
#X obj 214 97 s \$0-adsr-decay-r;
#X obj 407 24 r \$0-adsr-sustain-s;
#X obj 407 97 s \$0-adsr-sustain-r;
#X obj 21 126 r \$0-adsr-release-s;
#X obj 21 198 s \$0-adsr-release-r;
#X obj 213 128 r \$0-adsr-curve-s;
#X obj 213 199 s \$0-adsr-curve-r;
#N canvas 0 22 484 497 nudge-parameters 0;
#X obj 124 234 random;
#X obj 232 335 f;
#X obj 232 368 +;
#X obj 257 166 random 2;
#X obj 124 275 t f f;
#X obj 124 351 t b f;
#X obj 124 297 *;
#X obj 257 188 sel 0 1;
#X msg 257 280 -1;
#X msg 335 280 1;
#X obj 124 149 t b b b;
#X obj 124 74 r NUDGE!;
#X obj 157 193 r NUDGE-RANGE;
#X obj 247 308 inlet;
#X obj 232 397 outlet;
#X obj 124 96 spigot;
#X obj 185 79 r parameters2-s;
#X connect 0 0 4 0;
#X connect 1 0 2 0;
#X connect 2 0 14 0;
#X connect 3 0 7 0;
#X connect 4 0 6 0;
#X connect 5 0 2 0;
#X connect 5 1 2 1;
#X connect 6 0 5 0;
#X connect 7 0 8 0;
#X connect 7 1 9 0;
#X connect 8 0 6 1;
#X connect 9 0 6 1;
#X connect 10 0 0 0;
#X connect 10 1 1 0;
#X connect 10 2 3 0;
#X connect 11 0 15 0;
#X connect 12 0 0 1;
#X connect 13 0 1 1;
#X connect 15 0 10 0;
#X connect 16 0 15 1;
#X restore 407 47 pd nudge-parameters;
#N canvas 0 22 484 497 nudge-parameters 0;
#X obj 124 234 random;
#X obj 232 335 f;
#X obj 232 368 +;
#X obj 257 166 random 2;
#X obj 124 275 t f f;
#X obj 124 351 t b f;
#X obj 124 297 *;
#X obj 257 188 sel 0 1;
#X msg 257 280 -1;
#X msg 335 280 1;
#X obj 124 149 t b b b;
#X obj 124 74 r NUDGE!;
#X obj 157 193 r NUDGE-RANGE;
#X obj 247 308 inlet;
#X obj 232 397 outlet;
#X obj 124 96 spigot;
#X obj 185 79 r parameters2-s;
#X connect 0 0 4 0;
#X connect 1 0 2 0;
#X connect 2 0 14 0;
#X connect 3 0 7 0;
#X connect 4 0 6 0;
#X connect 5 0 2 0;
#X connect 5 1 2 1;
#X connect 6 0 5 0;
#X connect 7 0 8 0;
#X connect 7 1 9 0;
#X connect 8 0 6 1;
#X connect 9 0 6 1;
#X connect 10 0 0 0;
#X connect 10 1 1 0;
#X connect 10 2 3 0;
#X connect 11 0 15 0;
#X connect 12 0 0 1;
#X connect 13 0 1 1;
#X connect 15 0 10 0;
#X connect 16 0 15 1;
#X restore 23 45 pd nudge-parameters;
#N canvas 0 22 484 497 nudge-parameters 0;
#X obj 124 234 random;
#X obj 232 335 f;
#X obj 232 368 +;
#X obj 257 166 random 2;
#X obj 124 275 t f f;
#X obj 124 351 t b f;
#X obj 124 297 *;
#X obj 257 188 sel 0 1;
#X msg 257 280 -1;
#X msg 335 280 1;
#X obj 124 149 t b b b;
#X obj 124 74 r NUDGE!;
#X obj 157 193 r NUDGE-RANGE;
#X obj 247 308 inlet;
#X obj 232 397 outlet;
#X obj 124 96 spigot;
#X obj 185 79 r parameters2-s;
#X connect 0 0 4 0;
#X connect 1 0 2 0;
#X connect 2 0 14 0;
#X connect 3 0 7 0;
#X connect 4 0 6 0;
#X connect 5 0 2 0;
#X connect 5 1 2 1;
#X connect 6 0 5 0;
#X connect 7 0 8 0;
#X connect 7 1 9 0;
#X connect 8 0 6 1;
#X connect 9 0 6 1;
#X connect 10 0 0 0;
#X connect 10 1 1 0;
#X connect 10 2 3 0;
#X connect 11 0 15 0;
#X connect 12 0 0 1;
#X connect 13 0 1 1;
#X connect 15 0 10 0;
#X connect 16 0 15 1;
#X restore 214 46 pd nudge-parameters;
#N canvas 0 22 484 497 nudge-parameters 0;
#X obj 124 234 random;
#X obj 232 335 f;
#X obj 232 368 +;
#X obj 257 166 random 2;
#X obj 124 275 t f f;
#X obj 124 351 t b f;
#X obj 124 297 *;
#X obj 257 188 sel 0 1;
#X msg 257 280 -1;
#X msg 335 280 1;
#X obj 124 149 t b b b;
#X obj 124 74 r NUDGE!;
#X obj 157 193 r NUDGE-RANGE;
#X obj 247 308 inlet;
#X obj 232 397 outlet;
#X obj 124 96 spigot;
#X obj 185 79 r parameters2-s;
#X connect 0 0 4 0;
#X connect 1 0 2 0;
#X connect 2 0 14 0;
#X connect 3 0 7 0;
#X connect 4 0 6 0;
#X connect 5 0 2 0;
#X connect 5 1 2 1;
#X connect 6 0 5 0;
#X connect 7 0 8 0;
#X connect 7 1 9 0;
#X connect 8 0 6 1;
#X connect 9 0 6 1;
#X connect 10 0 0 0;
#X connect 10 1 1 0;
#X connect 10 2 3 0;
#X connect 11 0 15 0;
#X connect 12 0 0 1;
#X connect 13 0 1 1;
#X connect 15 0 10 0;
#X connect 16 0 15 1;
#X restore 21 148 pd nudge-parameters;
#N canvas 0 22 484 497 nudge-parameters 0;
#X obj 124 234 random;
#X obj 232 335 f;
#X obj 232 368 +;
#X obj 257 166 random 2;
#X obj 124 275 t f f;
#X obj 124 351 t b f;
#X obj 124 297 *;
#X obj 257 188 sel 0 1;
#X msg 257 280 -1;
#X msg 335 280 1;
#X obj 124 149 t b b b;
#X obj 124 74 r NUDGE!;
#X obj 157 193 r NUDGE-RANGE;
#X obj 247 308 inlet;
#X obj 232 397 outlet;
#X obj 124 96 spigot;
#X obj 185 79 r parameters2-s;
#X connect 0 0 4 0;
#X connect 1 0 2 0;
#X connect 2 0 14 0;
#X connect 3 0 7 0;
#X connect 4 0 6 0;
#X connect 5 0 2 0;
#X connect 5 1 2 1;
#X connect 6 0 5 0;
#X connect 7 0 8 0;
#X connect 7 1 9 0;
#X connect 8 0 6 1;
#X connect 9 0 6 1;
#X connect 10 0 0 0;
#X connect 10 1 1 0;
#X connect 10 2 3 0;
#X connect 11 0 15 0;
#X connect 12 0 0 1;
#X connect 13 0 1 1;
#X connect 15 0 10 0;
#X connect 16 0 15 1;
#X restore 213 150 pd nudge-parameters;
#X connect 0 0 12 0;
#X connect 1 0 14 0;
#X connect 2 0 6 0;
#X connect 3 0 8 0;
#X connect 4 0 10 0;
#X connect 5 0 16 0;
#X connect 7 0 17 0;
#X connect 9 0 15 0;
#X connect 11 0 18 0;
#X connect 13 0 19 0;
#X connect 15 0 4 0;
#X connect 16 0 2 0;
#X connect 17 0 3 0;
#X connect 18 0 0 0;
#X connect 19 0 1 0;
#X restore 96 253 pd parameter-nudging-system;
#X obj 609 300 t b b;
#X msg 624 339 0 1;
#X obj 998 490 pack f f;
#X msg 929 519 \$2 1 \, 0 \$1 1;
#N canvas 632 73 757 756 external-messages 0;
#X floatatom 186 706 5 0 0 0 - - -, f 5;
#X obj 185 328 spigot;
#X obj 218 288 tgl 15 0 empty empty empty 17 7 0 10 -262144 -1 -1 0
1;
#X obj 254 272 ==;
#X obj 269 248 f \$1;
#X obj 269 224 loadbang;
#X msg 185 202 \$1 \$2;
#X msg 185 156 symbol \$1;
#X obj 185 180 pack s f;
#X obj 186 685 f;
#X obj 186 633 t b f;
#X obj 186 656 spigot;
#X obj 185 62 unpack s f f;
#X symbolatom 185 94 10 0 0 0 - - -, f 10;
#X obj 218 308 t f f;
#X obj 245 332 s \$0-msg-spigot;
#X obj 234 640 r \$0-msg-spigot;
#X floatatom 223 594 5 0 0 0 - - -, f 5;
#X obj 223 573 f;
#X obj 223 521 t b f;
#X obj 223 544 spigot;
#X obj 271 528 r \$0-msg-spigot;
#X floatatom 387 639 5 0 0 0 - - -, f 5;
#X obj 387 618 f;
#X obj 387 566 t b f;
#X obj 387 589 spigot;
#X obj 435 573 r \$0-msg-spigot;
#X floatatom 424 527 5 0 0 0 - - -, f 5;
#X obj 424 506 f;
#X obj 424 454 t b f;
#X obj 424 477 spigot;
#X obj 472 461 r \$0-msg-spigot;
#X floatatom 608 537 5 0 0 0 - - -, f 5;
#X obj 608 516 f;
#X obj 608 464 t b f;
#X obj 608 487 spigot;
#X obj 656 471 r \$0-msg-spigot;
#X obj 185 14 r adsr;
#X obj 185 380 route ATTACK DECAY SUSTAIN RELEASE CURVE;
#X obj 186 726 s \$0-adsr-attack-r;
#X obj 223 614 s \$0-adsr-decay-r;
#X obj 387 659 s \$0-adsr-sustain-r;
#X obj 424 547 s \$0-adsr-release-r;
#X obj 608 557 s \$0-adsr-curve-r;
#X connect 0 0 39 0;
#X connect 1 0 38 0;
#X connect 2 0 14 0;
#X connect 3 0 2 0;
#X connect 4 0 3 1;
#X connect 5 0 4 0;
#X connect 6 0 1 0;
#X connect 7 0 8 0;
#X connect 8 0 6 0;
#X connect 9 0 0 0;
#X connect 10 0 11 0;
#X connect 10 1 9 1;
#X connect 11 0 9 0;
#X connect 12 0 13 0;
#X connect 12 1 8 1;
#X connect 12 2 3 0;
#X connect 13 0 7 0;
#X connect 14 0 1 1;
#X connect 14 1 15 0;
#X connect 16 0 11 1;
#X connect 17 0 40 0;
#X connect 18 0 17 0;
#X connect 19 0 20 0;
#X connect 19 1 18 1;
#X connect 20 0 18 0;
#X connect 21 0 20 1;
#X connect 22 0 41 0;
#X connect 23 0 22 0;
#X connect 24 0 25 0;
#X connect 24 1 23 1;
#X connect 25 0 23 0;
#X connect 26 0 25 1;
#X connect 27 0 42 0;
#X connect 28 0 27 0;
#X connect 29 0 30 0;
#X connect 29 1 28 1;
#X connect 30 0 28 0;
#X connect 31 0 30 1;
#X connect 32 0 43 0;
#X connect 33 0 32 0;
#X connect 34 0 35 0;
#X connect 34 1 33 1;
#X connect 35 0 33 0;
#X connect 36 0 35 1;
#X connect 37 0 12 0;
#X connect 38 0 10 0;
#X connect 38 1 19 0;
#X connect 38 2 24 0;
#X connect 38 3 29 0;
#X connect 38 4 34 0;
#X restore 96 228 pd external-messages;
#X connect 0 0 32 0;
#X connect 1 0 41 0;
#X connect 2 0 15 0;
#X connect 4 0 5 0;
#X connect 5 0 6 0;
#X connect 6 0 7 0;
#X connect 7 0 8 0;
#X connect 8 0 2 1;
#X connect 9 0 35 0;
#X connect 9 0 35 1;
#X connect 9 0 62 0;
#X connect 11 0 30 0;
#X connect 12 0 13 0;
#X connect 13 0 31 0;
#X connect 14 0 9 0;
#X connect 15 0 14 0;
#X connect 17 0 18 0;
#X connect 18 0 19 0;
#X connect 19 0 20 0;
#X connect 20 0 21 0;
#X connect 21 0 15 1;
#X connect 23 0 40 0;
#X connect 24 0 25 0;
#X connect 25 0 15 2;
#X connect 25 0 79 1;
#X connect 26 0 79 0;
#X connect 27 0 33 0;
#X connect 27 1 42 0;
#X connect 28 0 29 0;
#X connect 29 0 26 0;
#X connect 30 0 12 0;
#X connect 31 0 26 1;
#X connect 32 0 27 0;
#X connect 33 0 34 0;
#X connect 33 0 55 0;
#X connect 34 0 77 0;
#X connect 35 0 70 0;
#X connect 35 0 70 1;
#X connect 36 0 61 0;
#X connect 37 0 63 0;
#X connect 39 0 24 0;
#X connect 40 0 39 0;
#X connect 41 0 0 0;
#X connect 42 0 28 0;
#X connect 43 0 0 0;
#X connect 43 0 44 0;
#X connect 44 0 45 0;
#X connect 45 0 46 0;
#X connect 45 0 60 0;
#X connect 46 0 1 0;
#X connect 47 0 4 0;
#X connect 48 0 17 0;
#X connect 49 0 23 0;
#X connect 50 0 11 0;
#X connect 51 0 37 0;
#X connect 55 0 56 0;
#X connect 56 0 59 0;
#X connect 59 0 57 0;
#X connect 62 0 61 0;
#X connect 63 0 64 0;
#X connect 63 1 68 0;
#X connect 64 0 65 0;
#X connect 65 0 66 0;
#X connect 66 0 67 0;
#X connect 67 0 62 1;
#X connect 68 0 69 0;
#X connect 69 0 36 1;
#X connect 70 0 36 0;
#X connect 71 0 73 0;
#X connect 73 0 74 0;
#X connect 74 0 72 0;
#X connect 77 0 2 0;
#X connect 77 1 78 0;
#X connect 78 0 9 0;
#X connect 79 0 80 0;
#X connect 80 0 9 0;
#X coords 0 -1 1 1 200 110 2 100 100;
