#N canvas 150 23 1051 749 10;
#X obj 117 576 vline~;
#X obj 153 147 vsl 15 96 1.27 127 1 1 \$0-ahr-release-s \$0-ahr-release-r
R 4 -9 0 10 -262144 -1 -1 8800 1;
#X obj 123 147 vsl 15 96 1.27 127 1 1 \$0-ahr-attack-s \$0-ahr-attack-r
A 4 -9 0 10 -262144 -1 -1 0 1;
#X obj 117 480 f;
#X obj 53 263 / 127;
#X obj 177 299 / 127;
#X obj 177 381 + 1;
#X obj 59 364 * 1999;
#X obj 177 362 * 1999;
#X obj 179 406 t f f;
#X obj 248 537 delay;
#X obj 275 451 +;
#X obj 275 426 t b f;
#X obj 20 419 bng 15 250 50 0 empty empty empty 17 7 0 10 -262144 -1
-1;
#X obj 248 616 spigot;
#X text 290 629 CYCLE ON/OFF;
#X obj 123 249 tgl 15 1 \$0-ahr-cycle-s \$0-ahr-cycle-r CYCLE 17 7
0 10 -262144 -1 -1 0 1;
#X obj 12 18 inlet~;
#X obj 105 117 bng 15 100 50 0 empty empty empty 17 7 0 10 -262144
-226533 -1;
#X obj 117 738 outlet~;
#X obj 281 560 t f f;
#X obj 308 583 sel 1;
#X obj 308 605 t b;
#X obj 117 434 t b b b;
#X obj 126 126 cnv 5 5 5 empty empty AHR/LFO 0 0 0 12 -262144 -66577
0;
#X obj 104 109 cnv 5 5 5 empty empty TRIG 0 0 0 8 -262144 -226533 0
;
#X obj 173 145 vradio 15 1 0 3 \$0-ahr-fast/med/slow-s \$0-ahr-fast/med/slow-r
empty 0 -8 0 10 -262144 -1 -1 0;
#X obj 190 184 cnv 5 5 5 empty empty SLOW 0 0 0 8 -262144 -1 0;
#X obj 207 265 cnv 5 5 5 empty empty EOC 0 0 0 8 -262144 -226533 0
;
#X obj 191 153 cnv 5 5 5 empty empty FAST 0 0 0 8 -262144 -1 0;
#X obj 191 168 cnv 5 5 5 empty empty MEDIUM 0 0 0 8 -262144 -1 0;
#X obj 323 117 sel 0 1 2;
#X msg 323 203 1999;
#X msg 340 179 4999;
#X msg 357 152 9999;
#X msg 117 554 1 \$1 \, 0 \$2 \$3;
#X obj 117 531 pack f f f;
#X obj 138 147 vsl 15 96 1.27 127 1 1 \$0-ahr-hold-s \$0-ahr-hold-r
H 4 -9 0 10 -262144 -1 -1 1400 1;
#X obj 411 378 / 127;
#X obj 410 440 * 1999;
#X obj 195 475 +;
#X obj 132 403 t f f f;
#X obj 275 484 +;
#X obj 410 464 t b b f f;
#X obj 21 691 t b b;
#X msg 510 697 1 0 \, 0 1 1;
#X obj 510 719 vline~;
#X obj 510 741 outlet~;
#X obj 104 267 cnv 5 5 5 empty empty OUT 0 0 0 8 -262144 -1 0;
#X obj 173 194 tgl 15 1 \$0-ahr-curve-s \$0-ahr-curve-r CURVE 17 7
0 10 -262144 -1 -1 1 1;
#X obj 177 274 - 1.27;
#X obj 323 235 t b b b f f f;
#X obj 53 246 - 1.27;
#X obj 59 386 + 1;
#X obj 173 577 t f f;
#X obj 214 622 == 0;
#X obj 117 682 *~;
#X obj 199 692 *~;
#X obj 173 621 line~;
#X obj 173 599 pack 0 10;
#X obj 214 669 line~;
#X obj 214 647 pack 0 10;
#X obj 275 506 moses 1;
#X obj 195 497 moses 1;
#X obj 139 503 moses 1;
#X obj 65 502 moses 1;
#N canvas 315 35 593 735 state-saving-multiple-instances 0;
#X obj 137 29 loadbang;
#X obj 184 452 textfile;
#X msg 454 435 rewind;
#X msg 411 435 bang;
#X obj 42 691 textfile;
#X obj 411 396 t b b;
#X obj 43 357 f;
#X obj 56 580 f;
#X obj -16 401 t b b b;
#X msg 119 580 clear;
#X obj 204 217 outlet;
#X text 246 221 INSTANCE NUMBER;
#X obj 165 153 f \$1;
#X obj 165 189 t f f f;
#X obj 138 62 t b b;
#X obj 43 400 pack f f f f f f;
#X msg 43 438 set \$1 \$2 \$3 \$4 \$5 \$6;
#X obj 184 474 unpack f f f f f f;
#X obj -16 378 bng 15 250 50 0 empty empty empty 17 7 0 10 -262144
-1 -1;
#X obj -16 234 r SAVE-S;
#X msg 184 427 read statesave/\$1-ahr-ss.txt;
#X msg 55 651 write statesave/\$1-ahr-ss.txt;
#X obj 58 254 r \$0-ahr-attack-s;
#X obj 184 627 s \$0-ahr-attack-r;
#X obj 66 277 r \$0-ahr-hold-s;
#X obj 205 603 s \$0-ahr-hold-r;
#X obj 80 298 r \$0-ahr-release-s;
#X obj 226 579 s \$0-ahr-release-r;
#X obj 98 323 r \$0-ahr-fast/med/slow-s;
#X obj 247 555 s \$0-ahr-fast/med/slow-r;
#X obj 118 348 r \$0-ahr-curve-s;
#X obj 268 529 s \$0-ahr-curve-r;
#X obj 136 369 r \$0-ahr-cycle-s;
#X obj 289 505 s \$0-ahr-cycle-r;
#X connect 0 0 14 0;
#X connect 1 0 17 0;
#X connect 2 0 1 0;
#X connect 3 0 1 0;
#X connect 5 0 3 0;
#X connect 5 1 2 0;
#X connect 6 0 15 0;
#X connect 7 0 21 0;
#X connect 8 0 7 0;
#X connect 8 1 6 0;
#X connect 8 2 9 0;
#X connect 9 0 4 0;
#X connect 12 0 13 0;
#X connect 13 0 7 1;
#X connect 13 1 20 0;
#X connect 13 2 10 0;
#X connect 14 0 5 0;
#X connect 14 1 12 0;
#X connect 15 0 16 0;
#X connect 16 0 4 0;
#X connect 17 0 23 0;
#X connect 17 1 25 0;
#X connect 17 2 27 0;
#X connect 17 3 29 0;
#X connect 17 4 31 0;
#X connect 17 5 33 0;
#X connect 18 0 8 0;
#X connect 19 0 18 0;
#X connect 20 0 1 0;
#X connect 21 0 4 0;
#X connect 22 0 6 1;
#X connect 24 0 15 1;
#X connect 26 0 15 2;
#X connect 28 0 15 3;
#X connect 30 0 15 4;
#X connect 32 0 15 5;
#X restore 560 458 pd state-saving-multiple-instances;
#X obj 469 62 inlet~;
#X text 459 44 ATTACK CV IN;
#X obj 577 62 inlet~;
#X text 567 44 HOLD CV IN;
#X obj 670 62 inlet~;
#X text 660 44 RELEASE CV IN;
#X obj 469 196 snapshot~;
#X obj 472 267 t b f;
#X obj 526 72 bang~;
#X obj 57 292 +;
#X obj 177 321 +;
#X obj 577 187 snapshot~;
#X obj 581 290 t b f;
#X obj 671 189 snapshot~;
#X obj 672 391 t b f;
#X obj 410 411 +;
#X obj 526 94 t b b b;
#X obj 141 109 cnv 5 5 5 empty empty A 0 0 0 8 -262144 -1 0;
#X obj 179 109 cnv 5 5 5 empty empty H 0 0 0 8 -262144 -1 0;
#X obj 216 109 cnv 5 5 5 empty empty R 0 0 0 8 -262144 -1 0;
#X floatatom 699 220 5 0 0 0 - - -, f 5;
#X obj 71 593 *~;
#X obj 71 616 *~;
#X obj 560 541 s \$0-instance-num;
#X obj 560 493 makefilename %d;
#X obj 184 126 cnv 5 5 5 empty \$0-instance-num 1 0 0 0 12 -262144
-66577 0;
#X msg 560 518 label \$1;
#X obj 12 40 threshold~ 0.99 0 1 0;
#N canvas 81 22 1126 739 state-saving-via-preset-manager-module 0;
#X obj 340 227 textfile;
#X msg 719 210 rewind;
#X msg 676 210 bang;
#X obj 106 568 textfile;
#X obj 676 171 t b b;
#X obj 107 234 f;
#X obj 120 457 f;
#X obj 53 352 t b b b;
#X msg 236 499 clear;
#X obj 107 56 delay 5;
#X obj 53 407 delay 10;
#X msg 53 192 bang;
#X obj 53 26 r STORE-S!;
#X obj 340 128 f;
#X obj 313 85 t b b;
#X obj 327 59 t b f;
#X obj 385 146 f \$1;
#X obj 340 173 pack f f;
#X obj 385 96 loadbang;
#X obj 120 487 pack f f;
#X obj 165 440 loadbang;
#X obj 165 462 f \$1;
#X obj 328 8 r preset-manager-scan;
#X obj 135 418 r preset-manager-store-slot;
#X msg 106 368 set \$1 \$2 \$3 \$4 \$5 \$6;
#X obj 107 301 pack f f f f f f;
#X obj 340 249 unpack f f f f f f;
#X obj 328 30 i;
#X msg 119 528 write statesave/\$1-\$2-ahr-ss.txt;
#X msg 340 202 read statesave/\$1-\$2-ahr-ss.txt;
#X obj 123 78 r \$0-ahr-attack-s;
#X obj 345 714 s \$0-ahr-attack-r;
#X obj 136 107 r \$0-ahr-hold-s;
#X obj 366 617 s \$0-ahr-hold-r;
#X obj 146 146 r \$0-ahr-release-s;
#X obj 384 517 s \$0-ahr-release-r;
#X obj 169 173 r \$0-ahr-cycle-s;
#X obj 455 414 s \$0-ahr-cycle-r;
#X obj 190 209 r \$0-ahr-fast/med/slow-s;
#X obj 538 374 s \$0-ahr-fast/med/slow-r;
#X obj 228 269 r \$0-ahr-curve-s;
#X obj 712 344 s \$0-ahr-curve-r;
#N canvas 0 22 1069 747 morph-parameters 0;
#X obj 176 94 inlet;
#X obj 176 236 pack f f;
#X obj 176 261 line;
#X obj 209 117 r preset-manager-morph-s;
#X msg 72 244 stop;
#X obj 72 214 r STOP-MORPH!;
#X obj 209 206 spigot;
#X obj 398 137 t f f;
#X obj 455 154 == 0;
#X obj 221 176 f;
#X floatatom 455 222 5 0 0 0 - - -, f 5;
#X obj 398 159 t b f;
#X floatatom 425 192 5 0 0 0 - - -, f 5;
#X obj 209 139 t f f;
#X obj 398 102 r parameters-s;
#X obj 176 288 outlet;
#X connect 0 0 1 0;
#X connect 1 0 2 0;
#X connect 2 0 15 0;
#X connect 3 0 13 0;
#X connect 4 0 2 0;
#X connect 5 0 4 0;
#X connect 6 0 1 1;
#X connect 7 0 11 0;
#X connect 7 1 8 0;
#X connect 8 0 10 0;
#X connect 9 0 6 0;
#X connect 10 0 1 1;
#X connect 11 0 9 0;
#X connect 11 1 12 0;
#X connect 12 0 6 1;
#X connect 13 0 6 0;
#X connect 13 1 9 1;
#X connect 14 0 7 0;
#X restore 366 590 pd morph-parameters;
#N canvas 0 22 1069 747 morph-parameters 0;
#X obj 176 94 inlet;
#X obj 176 236 pack f f;
#X obj 176 261 line;
#X obj 209 117 r preset-manager-morph-s;
#X msg 72 244 stop;
#X obj 72 214 r STOP-MORPH!;
#X obj 209 206 spigot;
#X obj 398 137 t f f;
#X obj 455 154 == 0;
#X obj 221 176 f;
#X floatatom 455 222 5 0 0 0 - - -, f 5;
#X obj 398 159 t b f;
#X floatatom 425 192 5 0 0 0 - - -, f 5;
#X obj 209 139 t f f;
#X obj 398 102 r parameters-s;
#X obj 176 288 outlet;
#X connect 0 0 1 0;
#X connect 1 0 2 0;
#X connect 2 0 15 0;
#X connect 3 0 13 0;
#X connect 4 0 2 0;
#X connect 5 0 4 0;
#X connect 6 0 1 1;
#X connect 7 0 11 0;
#X connect 7 1 8 0;
#X connect 8 0 10 0;
#X connect 9 0 6 0;
#X connect 10 0 1 1;
#X connect 11 0 9 0;
#X connect 11 1 12 0;
#X connect 12 0 6 1;
#X connect 13 0 6 0;
#X connect 13 1 9 1;
#X connect 14 0 7 0;
#X restore 345 686 pd morph-parameters;
#N canvas 0 22 1069 747 morph-parameters 0;
#X obj 176 94 inlet;
#X obj 176 236 pack f f;
#X obj 176 261 line;
#X obj 209 117 r preset-manager-morph-s;
#X msg 72 244 stop;
#X obj 72 214 r STOP-MORPH!;
#X obj 209 206 spigot;
#X obj 398 137 t f f;
#X obj 455 154 == 0;
#X obj 221 176 f;
#X floatatom 455 222 5 0 0 0 - - -, f 5;
#X obj 398 159 t b f;
#X floatatom 425 192 5 0 0 0 - - -, f 5;
#X obj 209 139 t f f;
#X obj 398 102 r parameters-s;
#X obj 176 288 outlet;
#X connect 0 0 1 0;
#X connect 1 0 2 0;
#X connect 2 0 15 0;
#X connect 3 0 13 0;
#X connect 4 0 2 0;
#X connect 5 0 4 0;
#X connect 6 0 1 1;
#X connect 7 0 11 0;
#X connect 7 1 8 0;
#X connect 8 0 10 0;
#X connect 9 0 6 0;
#X connect 10 0 1 1;
#X connect 11 0 9 0;
#X connect 11 1 12 0;
#X connect 12 0 6 1;
#X connect 13 0 6 0;
#X connect 13 1 9 1;
#X connect 14 0 7 0;
#X restore 384 489 pd morph-parameters;
#X connect 0 0 26 0;
#X connect 1 0 0 0;
#X connect 2 0 0 0;
#X connect 4 0 2 0;
#X connect 4 1 1 0;
#X connect 5 0 25 0;
#X connect 6 0 19 0;
#X connect 7 0 10 0;
#X connect 7 1 9 0;
#X connect 7 2 8 0;
#X connect 8 0 3 0;
#X connect 9 0 5 0;
#X connect 10 0 6 0;
#X connect 11 0 7 0;
#X connect 12 0 11 0;
#X connect 13 0 17 0;
#X connect 14 0 4 0;
#X connect 14 1 13 0;
#X connect 15 0 14 0;
#X connect 15 1 13 1;
#X connect 16 0 17 1;
#X connect 17 0 29 0;
#X connect 18 0 16 0;
#X connect 19 0 28 0;
#X connect 20 0 21 0;
#X connect 21 0 19 1;
#X connect 22 0 27 0;
#X connect 23 0 6 1;
#X connect 24 0 3 0;
#X connect 25 0 24 0;
#X connect 26 0 43 0;
#X connect 26 1 42 0;
#X connect 26 2 44 0;
#X connect 26 3 37 0;
#X connect 26 4 39 0;
#X connect 26 5 41 0;
#X connect 27 0 15 0;
#X connect 28 0 3 0;
#X connect 29 0 0 0;
#X connect 30 0 5 1;
#X connect 32 0 25 1;
#X connect 34 0 25 2;
#X connect 36 0 25 3;
#X connect 38 0 25 4;
#X connect 40 0 25 5;
#X connect 42 0 33 0;
#X connect 43 0 31 0;
#X connect 44 0 35 0;
#X restore 557 568 pd state-saving-via-preset-manager-module;
#N canvas 297 27 748 331 parameter-nudging-system 0;
#X obj 23 67 clip 0 127;
#X obj 171 67 clip 0 127;
#X obj 281 69 clip 0 127;
#X obj 23 22 r \$0-ahr-attack-s;
#X obj 23 95 s \$0-ahr-attack-r;
#X obj 171 22 r \$0-ahr-hold-s;
#X obj 171 95 s \$0-ahr-hold-r;
#X obj 281 22 r \$0-ahr-release-s;
#X obj 281 95 s \$0-ahr-release-r;
#X obj 425 30 r NUDGE!;
#X obj 425 52 random 2;
#X obj 535 30 r NUDGE!;
#X obj 535 52 random 2;
#X obj 425 74 s \$0-ahr-cycle-r;
#X obj 535 74 s \$0-ahr-curve-r;
#N canvas 0 22 484 497 nudge-parameters 0;
#X obj 124 234 random;
#X obj 232 335 f;
#X obj 232 368 +;
#X obj 257 166 random 2;
#X obj 124 275 t f f;
#X obj 124 351 t b f;
#X obj 124 297 *;
#X obj 257 188 sel 0 1;
#X msg 257 280 -1;
#X msg 335 280 1;
#X obj 124 149 t b b b;
#X obj 124 74 r NUDGE!;
#X obj 157 193 r NUDGE-RANGE;
#X obj 247 308 inlet;
#X obj 232 397 outlet;
#X obj 124 96 spigot;
#X obj 185 79 r parameters2-s;
#X connect 0 0 4 0;
#X connect 1 0 2 0;
#X connect 2 0 14 0;
#X connect 3 0 7 0;
#X connect 4 0 6 0;
#X connect 5 0 2 0;
#X connect 5 1 2 1;
#X connect 6 0 5 0;
#X connect 7 0 8 0;
#X connect 7 1 9 0;
#X connect 8 0 6 1;
#X connect 9 0 6 1;
#X connect 10 0 0 0;
#X connect 10 1 1 0;
#X connect 10 2 3 0;
#X connect 11 0 15 0;
#X connect 12 0 0 1;
#X connect 13 0 1 1;
#X connect 15 0 10 0;
#X connect 16 0 15 1;
#X restore 170 43 pd nudge-parameters;
#N canvas 0 22 484 497 nudge-parameters 0;
#X obj 124 234 random;
#X obj 232 335 f;
#X obj 232 368 +;
#X obj 257 166 random 2;
#X obj 124 275 t f f;
#X obj 124 351 t b f;
#X obj 124 297 *;
#X obj 257 188 sel 0 1;
#X msg 257 280 -1;
#X msg 335 280 1;
#X obj 124 149 t b b b;
#X obj 124 74 r NUDGE!;
#X obj 157 193 r NUDGE-RANGE;
#X obj 247 308 inlet;
#X obj 232 397 outlet;
#X obj 124 96 spigot;
#X obj 185 79 r parameters2-s;
#X connect 0 0 4 0;
#X connect 1 0 2 0;
#X connect 2 0 14 0;
#X connect 3 0 7 0;
#X connect 4 0 6 0;
#X connect 5 0 2 0;
#X connect 5 1 2 1;
#X connect 6 0 5 0;
#X connect 7 0 8 0;
#X connect 7 1 9 0;
#X connect 8 0 6 1;
#X connect 9 0 6 1;
#X connect 10 0 0 0;
#X connect 10 1 1 0;
#X connect 10 2 3 0;
#X connect 11 0 15 0;
#X connect 12 0 0 1;
#X connect 13 0 1 1;
#X connect 15 0 10 0;
#X connect 16 0 15 1;
#X restore 298 47 pd nudge-parameters;
#N canvas 0 22 484 497 nudge-parameters 0;
#X obj 124 234 random;
#X obj 232 335 f;
#X obj 232 368 +;
#X obj 257 166 random 2;
#X obj 124 275 t f f;
#X obj 124 351 t b f;
#X obj 124 297 *;
#X obj 257 188 sel 0 1;
#X msg 257 280 -1;
#X msg 335 280 1;
#X obj 124 149 t b b b;
#X obj 124 74 r NUDGE!;
#X obj 157 193 r NUDGE-RANGE;
#X obj 247 308 inlet;
#X obj 232 397 outlet;
#X obj 124 96 spigot;
#X obj 185 79 r parameters2-s;
#X connect 0 0 4 0;
#X connect 1 0 2 0;
#X connect 2 0 14 0;
#X connect 3 0 7 0;
#X connect 4 0 6 0;
#X connect 5 0 2 0;
#X connect 5 1 2 1;
#X connect 6 0 5 0;
#X connect 7 0 8 0;
#X connect 7 1 9 0;
#X connect 8 0 6 1;
#X connect 9 0 6 1;
#X connect 10 0 0 0;
#X connect 10 1 1 0;
#X connect 10 2 3 0;
#X connect 11 0 15 0;
#X connect 12 0 0 1;
#X connect 13 0 1 1;
#X connect 15 0 10 0;
#X connect 16 0 15 1;
#X restore 23 46 pd nudge-parameters;
#X connect 0 0 4 0;
#X connect 1 0 6 0;
#X connect 2 0 8 0;
#X connect 3 0 17 0;
#X connect 5 0 15 0;
#X connect 7 0 16 0;
#X connect 9 0 10 0;
#X connect 10 0 13 0;
#X connect 11 0 12 0;
#X connect 12 0 14 0;
#X connect 15 0 1 0;
#X connect 16 0 2 0;
#X connect 17 0 0 0;
#X restore 560 434 pd parameter-nudging-system;
#N canvas 424 23 917 786 external-messages 0;
#X floatatom 65 706 5 0 0 0 - - -, f 5;
#X obj 64 328 spigot;
#X obj 97 288 tgl 15 0 empty empty empty 17 7 0 10 -262144 -1 -1 0
1;
#X obj 133 272 ==;
#X obj 148 248 f \$1;
#X obj 148 224 loadbang;
#X msg 64 202 \$1 \$2;
#X msg 64 156 symbol \$1;
#X obj 64 180 pack s f;
#X obj 65 685 f;
#X obj 65 633 t b f;
#X obj 65 656 spigot;
#X obj 64 62 unpack s f f;
#X symbolatom 64 94 10 0 0 0 - - -, f 10;
#X obj 97 308 t f f;
#X obj 124 332 s \$0-msg-spigot;
#X obj 113 640 r \$0-msg-spigot;
#X floatatom 102 594 5 0 0 0 - - -, f 5;
#X obj 102 573 f;
#X obj 102 521 t b f;
#X obj 102 544 spigot;
#X obj 150 528 r \$0-msg-spigot;
#X floatatom 258 702 5 0 0 0 - - -, f 5;
#X obj 258 681 f;
#X obj 258 629 t b f;
#X obj 258 652 spigot;
#X obj 306 636 r \$0-msg-spigot;
#X floatatom 269 573 5 0 0 0 - - -, f 5;
#X obj 269 552 f;
#X obj 269 500 t b f;
#X obj 269 523 spigot;
#X obj 317 507 r \$0-msg-spigot;
#X floatatom 437 589 5 0 0 0 - - -, f 5;
#X obj 437 568 f;
#X obj 437 516 t b f;
#X obj 437 539 spigot;
#X obj 485 523 r \$0-msg-spigot;
#X obj 64 14 r ahr/lfo;
#X obj 64 361 route A H R CURVE CYCLE TRIG RADIO;
#X floatatom 496 715 5 0 0 0 - - -, f 5;
#X obj 496 694 f;
#X obj 496 642 t b f;
#X obj 496 665 spigot;
#X obj 544 649 r \$0-msg-spigot;
#X floatatom 519 472 5 0 0 0 - - -, f 5;
#X obj 519 451 f;
#X obj 519 399 t b f;
#X obj 519 422 spigot;
#X obj 567 406 r \$0-msg-spigot;
#X obj 65 726 s \$0-ahr-attack-r;
#X obj 102 614 s \$0-ahr-hold-r;
#X obj 258 722 s \$0-ahr-release-r;
#X obj 269 593 s \$0-ahr-curve-r;
#X obj 437 609 s \$0-ahr-cycle-r;
#X obj 496 735 s \$0-ahr-trig-gui!-r;
#X obj 519 492 s \$0-ahr-fast/med/slow-r;
#X connect 0 0 49 0;
#X connect 1 0 38 0;
#X connect 2 0 14 0;
#X connect 3 0 2 0;
#X connect 4 0 3 1;
#X connect 5 0 4 0;
#X connect 6 0 1 0;
#X connect 7 0 8 0;
#X connect 8 0 6 0;
#X connect 9 0 0 0;
#X connect 10 0 11 0;
#X connect 10 1 9 1;
#X connect 11 0 9 0;
#X connect 12 0 13 0;
#X connect 12 1 8 1;
#X connect 12 2 3 0;
#X connect 13 0 7 0;
#X connect 14 0 1 1;
#X connect 14 1 15 0;
#X connect 16 0 11 1;
#X connect 17 0 50 0;
#X connect 18 0 17 0;
#X connect 19 0 20 0;
#X connect 19 1 18 1;
#X connect 20 0 18 0;
#X connect 21 0 20 1;
#X connect 22 0 51 0;
#X connect 23 0 22 0;
#X connect 24 0 25 0;
#X connect 24 1 23 1;
#X connect 25 0 23 0;
#X connect 26 0 25 1;
#X connect 27 0 52 0;
#X connect 28 0 27 0;
#X connect 29 0 30 0;
#X connect 29 1 28 1;
#X connect 30 0 28 0;
#X connect 31 0 30 1;
#X connect 32 0 53 0;
#X connect 33 0 32 0;
#X connect 34 0 35 0;
#X connect 34 1 33 1;
#X connect 35 0 33 0;
#X connect 36 0 35 1;
#X connect 37 0 12 0;
#X connect 38 0 10 0;
#X connect 38 1 19 0;
#X connect 38 2 24 0;
#X connect 38 3 29 0;
#X connect 38 4 34 0;
#X connect 38 5 41 0;
#X connect 38 6 46 0;
#X connect 39 0 54 0;
#X connect 40 0 39 0;
#X connect 41 0 42 0;
#X connect 41 1 40 1;
#X connect 42 0 40 0;
#X connect 43 0 42 1;
#X connect 44 0 55 0;
#X connect 45 0 44 0;
#X connect 46 0 47 0;
#X connect 46 1 45 1;
#X connect 47 0 45 0;
#X connect 48 0 47 1;
#X restore 557 593 pd external-messages;
#X obj 44 90 bng 15 250 50 0 \$0-ahr-trig-gui!-s \$0-ahr-trig-gui!-r
empty 17 7 0 10 -262144 -1 -1;
#X connect 0 0 57 0;
#X connect 0 0 88 0;
#X connect 0 0 88 1;
#X connect 1 0 50 0;
#X connect 2 0 52 0;
#X connect 3 0 65 0;
#X connect 4 0 76 0;
#X connect 5 0 77 0;
#X connect 6 0 9 0;
#X connect 7 0 53 0;
#X connect 8 0 6 0;
#X connect 9 0 64 0;
#X connect 9 1 12 0;
#X connect 10 0 14 0;
#X connect 11 0 42 0;
#X connect 12 0 11 0;
#X connect 12 1 11 1;
#X connect 13 0 23 0;
#X connect 14 0 44 0;
#X connect 16 0 20 0;
#X connect 17 0 94 0;
#X connect 20 0 14 1;
#X connect 20 1 21 0;
#X connect 21 0 22 0;
#X connect 22 0 13 0;
#X connect 23 0 3 0;
#X connect 23 1 10 0;
#X connect 23 2 18 0;
#X connect 26 0 31 0;
#X connect 31 0 32 0;
#X connect 31 1 33 0;
#X connect 31 2 34 0;
#X connect 32 0 51 0;
#X connect 33 0 51 0;
#X connect 34 0 51 0;
#X connect 35 0 0 0;
#X connect 36 0 35 0;
#X connect 37 0 38 0;
#X connect 38 0 82 0;
#X connect 39 0 43 0;
#X connect 40 0 63 0;
#X connect 41 0 3 1;
#X connect 41 1 11 0;
#X connect 41 2 40 0;
#X connect 42 0 62 0;
#X connect 43 0 40 0;
#X connect 43 1 42 0;
#X connect 43 2 40 1;
#X connect 43 3 42 1;
#X connect 44 0 13 0;
#X connect 44 1 45 0;
#X connect 45 0 46 0;
#X connect 46 0 47 0;
#X connect 49 0 54 0;
#X connect 50 0 5 0;
#X connect 51 0 7 0;
#X connect 51 1 8 0;
#X connect 51 2 39 0;
#X connect 51 3 7 1;
#X connect 51 4 8 1;
#X connect 51 5 39 1;
#X connect 52 0 4 0;
#X connect 53 0 41 0;
#X connect 54 0 59 0;
#X connect 54 1 55 0;
#X connect 55 0 61 0;
#X connect 56 0 19 0;
#X connect 57 0 19 0;
#X connect 58 0 56 1;
#X connect 59 0 58 0;
#X connect 60 0 57 1;
#X connect 61 0 60 0;
#X connect 62 1 10 1;
#X connect 63 1 36 2;
#X connect 64 1 36 1;
#X connect 65 1 36 0;
#X connect 66 0 91 0;
#X connect 67 0 73 0;
#X connect 69 0 78 0;
#X connect 71 0 80 0;
#X connect 73 0 74 0;
#X connect 74 0 76 0;
#X connect 74 1 76 1;
#X connect 75 0 83 0;
#X connect 76 0 7 0;
#X connect 77 0 8 0;
#X connect 78 0 79 0;
#X connect 79 0 77 0;
#X connect 79 1 77 1;
#X connect 80 0 81 0;
#X connect 80 0 87 0;
#X connect 81 0 82 0;
#X connect 81 1 82 1;
#X connect 82 0 39 0;
#X connect 83 0 73 0;
#X connect 83 1 78 0;
#X connect 83 2 80 0;
#X connect 88 0 89 0;
#X connect 88 0 89 1;
#X connect 89 0 56 0;
#X connect 91 0 93 0;
#X connect 93 0 90 0;
#X connect 94 0 23 0;
#X connect 98 0 23 0;
#X coords 0 -1 1 1 125 175 2 100 100;
