#N canvas 0 23 1185 710 10;
#X obj 379 638 outlet~;
#X obj 802 626 *~;
#X obj 788 236 / 127;
#X obj 817 491 pack 0 50;
#X obj 817 513 line~;
#X text 786 198 RESONANCE;
#X obj 106 164 hsl 128 15 0 127 0 1 \$0-analog-filter-fm-/+-s \$0-analog-filter-fm-/+-r
FM-/+ 133 7 0 10 -150893 -1 -1 8800 1;
#X obj 517 102 / 127;
#X text 515 57 CUTOFF;
#X obj 802 649 delwrite~ \$0-q-feedback 1;
#X obj 353 123 delread~ \$0-q-feedback 1;
#X obj 346 457 clip~ -1 1;
#X obj 379 609 clip~ -1 1;
#X obj 517 177 sig~;
#X obj 788 283 t f f;
#X obj 488 322 + 1;
#X obj 313 96 inlet~;
#X obj 517 77 r \$0-analog-filter-cutoff-s;
#X text 620 169 "ANALOG" FLUX;
#X obj 106 134 hsl 128 15 0 127 0 1 \$0-analog-filter-cutoff-s \$0-analog-filter-cutoff-r
CUTOFF 133 7 0 10 -262144 -1 -1 800 1;
#X obj 788 213 r \$0-analog-filter-q-s;
#X text 297 78 SIGNAL IN;
#X text 725 86 FM CV IN;
#X obj 106 149 hsl 128 15 0 127 0 1 \$0-analog-filter-q-s \$0-analog-filter-q-r
Q 133 7 0 10 -262144 -1 -1 7200 1;
#X obj 735 107 inlet~;
#X obj 735 129 *~ 5000;
#X obj 735 190 *~;
#X obj 786 63 r \$0-analog-filter-fm-/+-s;
#X obj 786 85 / 127;
#X obj 786 107 * 2;
#X obj 786 129 - 1;
#X obj 786 151 pack 0 50;
#X obj 786 173 line~;
#X obj 788 258 +;
#X obj 488 344 min 3;
#X obj 936 197 inlet~;
#X obj 936 219 snapshot~;
#X obj 936 241 t b f;
#X obj 1000 202 metro 20;
#X obj 1000 146 loadbang;
#X obj 1000 174 tgl 15 0 empty empty empty 17 7 0 10 -262144 -1 -1
1 1;
#X obj 817 535 min~ 5;
#X floatatom 103 179 5 0 0 0 - - -, f 5;
#X obj 52 65 r \$0-analog-filter-fm-/+-s;
#X obj 52 104 / 127;
#X obj 52 126 * 2;
#X obj 52 162 - 1;
#X obj 313 383 vcf~ 1;
#X obj 346 486 vcf~ 1;
#X obj 488 366 t f f;
#X obj 468 473 r \$0-analog-filter-q-s;
#X obj 379 520 *~;
#X obj 468 495 / 127;
#X obj 468 517 * 3;
#X obj 468 539 + 2;
#X obj 468 561 pack 0 50;
#X obj 468 583 line~;
#X text 467 455 GAIN COMPENSATION;
#X obj 564 129 osc~ 1;
#X obj 564 151 *~;
#X obj 564 173 *~ 25;
#X obj 105 123 cnv 5 5 5 empty empty ANALOG-FILTER 0 0 0 12 -262144
-66577 0;
#X obj 205 123 cnv 5 5 5 empty \$0-instance-num 1 0 0 0 12 -262144
-66577 0;
#X obj 346 431 *~ 1.5;
#X obj 517 126 * 5000;
#X obj 517 207 +~;
#X obj 817 466 * 4;
#X obj 488 300 * 1.5;
#X obj 105 109 cnv 5 5 5 empty empty IN 0 0 0 8 -262144 -66577 0;
#X obj 172 109 cnv 5 5 5 empty empty CUTOFF 0 0 0 8 -262144 -96927
0;
#X obj 267 109 cnv 5 5 5 empty empty Q 0 0 0 8 -262144 -66577 0;
#N canvas 100 22 593 735 state-saving-multiple-instances 0;
#X obj 164 26 loadbang;
#X obj 210 479 textfile;
#X msg 495 462 rewind;
#X msg 452 462 bang;
#X obj 88 657 textfile;
#X obj 452 421 t b b;
#X obj 88 355 f;
#X obj 101 578 f;
#X obj 27 402 t b b b;
#X msg 163 573 clear;
#X obj 230 235 outlet;
#X text 272 237 INSTANCE NUMBER;
#X obj 88 398 pack f f f;
#X msg 88 436 set \$1 \$2 \$3;
#X obj 210 501 unpack f f f;
#X obj 191 200 t f f f;
#X obj 191 164 f \$1;
#X obj 164 59 t b b;
#X obj 27 378 bng 15 250 50 0 empty empty empty 17 7 0 10 -262144 -1
-1;
#X obj 27 234 r SAVE-S;
#X obj 103 307 r \$0-analog-filter-cutoff-s;
#X obj 210 573 s \$0-analog-filter-cutoff-r;
#X obj 116 345 r \$0-analog-filter-q-s;
#X obj 244 547 s \$0-analog-filter-q-r;
#X obj 145 373 r \$0-analog-filter-fm-/+-s;
#X obj 279 525 s \$0-analog-filter-fm-/+-r;
#X msg 101 605 write statesave/\$1-analog-filter-ss.txt;
#X msg 210 454 read statesave/\$1-analog-filter-ss.txt;
#X connect 0 0 17 0;
#X connect 1 0 14 0;
#X connect 2 0 1 0;
#X connect 3 0 1 0;
#X connect 5 0 3 0;
#X connect 5 1 2 0;
#X connect 6 0 12 0;
#X connect 7 0 26 0;
#X connect 8 0 7 0;
#X connect 8 1 6 0;
#X connect 8 2 9 0;
#X connect 9 0 4 0;
#X connect 12 0 13 0;
#X connect 13 0 4 0;
#X connect 14 0 21 0;
#X connect 14 1 23 0;
#X connect 14 2 25 0;
#X connect 15 0 7 1;
#X connect 15 1 27 0;
#X connect 15 2 10 0;
#X connect 16 0 15 0;
#X connect 17 0 5 0;
#X connect 17 1 16 0;
#X connect 18 0 8 0;
#X connect 19 0 18 0;
#X connect 20 0 6 1;
#X connect 22 0 12 1;
#X connect 24 0 12 2;
#X connect 26 0 4 0;
#X connect 27 0 1 0;
#X restore 101 277 pd state-saving-multiple-instances;
#X obj 101 348 s \$0-instance-num;
#X obj 101 300 makefilename %d;
#X msg 101 325 label \$1;
#N canvas 81 22 1117 745 state-saving-via-preset-manager-module 0;
#X obj 477 349 textfile;
#X msg 755 332 rewind;
#X msg 712 332 bang;
#X obj 243 690 textfile;
#X obj 712 293 t b b;
#X obj 244 356 f;
#X obj 257 579 f;
#X obj 190 474 t b b b;
#X msg 373 621 clear;
#X obj 244 180 delay 5;
#X obj 190 529 delay 10;
#X msg 190 314 bang;
#X obj 190 155 r STORE-S!;
#X obj 477 250 f;
#X obj 450 207 t b b;
#X obj 465 171 t b f;
#X obj 522 268 f \$1;
#X obj 477 295 pack f f;
#X obj 522 218 loadbang;
#X obj 257 609 pack f f;
#X obj 302 562 loadbang;
#X obj 302 584 f \$1;
#X obj 465 120 r preset-manager-scan;
#X obj 272 540 r preset-manager-store-slot;
#X msg 243 490 set \$1 \$2 \$3;
#X obj 244 423 pack f f f;
#X obj 477 371 unpack f f f;
#X msg 256 650 write statesave/\$1-\$2-analog-filter-ss.txt;
#X msg 477 324 read statesave/\$1-\$2-analog-filter-ss.txt;
#X obj 259 308 r \$0-analog-filter-cutoff-s;
#X obj 477 713 s \$0-analog-filter-cutoff-r;
#X obj 267 330 r \$0-analog-filter-q-s;
#X obj 511 613 s \$0-analog-filter-q-r;
#X obj 290 352 r \$0-analog-filter-fm-/+-s;
#X obj 546 513 s \$0-analog-filter-fm-/+-r;
#X obj 465 142 i;
#N canvas 0 22 1069 747 morph-parameters 0;
#X obj 176 94 inlet;
#X obj 176 236 pack f f;
#X obj 176 261 line;
#X obj 209 117 r preset-manager-morph-s;
#X msg 72 244 stop;
#X obj 72 214 r STOP-MORPH!;
#X obj 209 206 spigot;
#X obj 398 137 t f f;
#X obj 455 154 == 0;
#X obj 221 176 f;
#X floatatom 455 222 5 0 0 0 - - -, f 5;
#X obj 398 159 t b f;
#X floatatom 425 192 5 0 0 0 - - -, f 5;
#X obj 209 139 t f f;
#X obj 398 102 r parameters-s;
#X obj 176 288 outlet;
#X connect 0 0 1 0;
#X connect 1 0 2 0;
#X connect 2 0 15 0;
#X connect 3 0 13 0;
#X connect 4 0 2 0;
#X connect 5 0 4 0;
#X connect 6 0 1 1;
#X connect 7 0 11 0;
#X connect 7 1 8 0;
#X connect 8 0 10 0;
#X connect 9 0 6 0;
#X connect 10 0 1 1;
#X connect 11 0 9 0;
#X connect 11 1 12 0;
#X connect 12 0 6 1;
#X connect 13 0 6 0;
#X connect 13 1 9 1;
#X connect 14 0 7 0;
#X restore 477 686 pd morph-parameters;
#N canvas 0 22 1069 747 morph-attenuators 0;
#X obj 176 94 inlet;
#X obj 176 236 pack f f;
#X obj 176 261 line;
#X obj 209 117 r preset-manager-morph-s;
#X msg 72 244 stop;
#X obj 72 214 r STOP-MORPH!;
#X obj 209 206 spigot;
#X obj 398 137 t f f;
#X obj 455 154 == 0;
#X obj 221 176 f;
#X floatatom 455 222 5 0 0 0 - - -, f 5;
#X obj 398 159 t b f;
#X floatatom 425 192 5 0 0 0 - - -, f 5;
#X obj 209 139 t f f;
#X obj 398 102 r attenuators-s;
#X obj 176 288 outlet;
#X connect 0 0 1 0;
#X connect 1 0 2 0;
#X connect 2 0 15 0;
#X connect 3 0 13 0;
#X connect 4 0 2 0;
#X connect 5 0 4 0;
#X connect 6 0 1 1;
#X connect 7 0 11 0;
#X connect 7 1 8 0;
#X connect 8 0 10 0;
#X connect 9 0 6 0;
#X connect 10 0 1 1;
#X connect 11 0 9 0;
#X connect 11 1 12 0;
#X connect 12 0 6 1;
#X connect 13 0 6 0;
#X connect 13 1 9 1;
#X connect 14 0 7 0;
#X restore 546 487 pd morph-attenuators;
#N canvas 0 22 1069 747 morph-parameters 0;
#X obj 176 94 inlet;
#X obj 176 236 pack f f;
#X obj 176 261 line;
#X obj 209 117 r preset-manager-morph-s;
#X msg 72 244 stop;
#X obj 72 214 r STOP-MORPH!;
#X obj 209 206 spigot;
#X obj 398 137 t f f;
#X obj 455 154 == 0;
#X obj 221 176 f;
#X floatatom 455 222 5 0 0 0 - - -, f 5;
#X obj 398 159 t b f;
#X floatatom 425 192 5 0 0 0 - - -, f 5;
#X obj 209 139 t f f;
#X obj 398 102 r parameters-s;
#X obj 176 288 outlet;
#X connect 0 0 1 0;
#X connect 1 0 2 0;
#X connect 2 0 15 0;
#X connect 3 0 13 0;
#X connect 4 0 2 0;
#X connect 5 0 4 0;
#X connect 6 0 1 1;
#X connect 7 0 11 0;
#X connect 7 1 8 0;
#X connect 8 0 10 0;
#X connect 9 0 6 0;
#X connect 10 0 1 1;
#X connect 11 0 9 0;
#X connect 11 1 12 0;
#X connect 12 0 6 1;
#X connect 13 0 6 0;
#X connect 13 1 9 1;
#X connect 14 0 7 0;
#X restore 511 590 pd morph-parameters;
#X connect 0 0 26 0;
#X connect 1 0 0 0;
#X connect 2 0 0 0;
#X connect 4 0 2 0;
#X connect 4 1 1 0;
#X connect 5 0 25 0;
#X connect 6 0 19 0;
#X connect 7 0 10 0;
#X connect 7 1 9 0;
#X connect 7 2 8 0;
#X connect 8 0 3 0;
#X connect 9 0 5 0;
#X connect 10 0 6 0;
#X connect 11 0 7 0;
#X connect 12 0 11 0;
#X connect 13 0 17 0;
#X connect 14 0 4 0;
#X connect 14 1 13 0;
#X connect 15 0 14 0;
#X connect 15 1 13 1;
#X connect 16 0 17 1;
#X connect 17 0 28 0;
#X connect 18 0 16 0;
#X connect 19 0 27 0;
#X connect 20 0 21 0;
#X connect 21 0 19 1;
#X connect 22 0 35 0;
#X connect 23 0 6 1;
#X connect 24 0 3 0;
#X connect 25 0 24 0;
#X connect 26 0 36 0;
#X connect 26 1 38 0;
#X connect 26 2 37 0;
#X connect 27 0 3 0;
#X connect 28 0 0 0;
#X connect 29 0 5 1;
#X connect 31 0 25 1;
#X connect 33 0 25 2;
#X connect 35 0 15 0;
#X connect 36 0 30 0;
#X connect 37 0 34 0;
#X connect 38 0 32 0;
#X restore 99 255 pd state-saving-via-preset-manager-module;
#X obj 391 40 noise~;
#X obj 391 62 *~ 0.1;
#X obj 353 146 *~ 0.2;
#X obj 391 84 lop~ 100;
#X obj 313 188 *~ 0.5;
#N canvas 297 27 518 295 parameter-nudging-system 0;
#X obj 23 67 clip 0 127;
#X obj 193 67 clip 0 127;
#X obj 346 69 clip 0 127;
#X obj 23 22 r \$0-analog-filter-cutoff-s;
#X obj 23 95 s \$0-analog-filter-cutoff-r;
#X obj 193 22 r \$0-analog-filter-q-s;
#X obj 193 95 s \$0-analog-filter-q-r;
#X obj 346 22 r \$0-analog-filter-fm-/+-s;
#X obj 346 95 s \$0-analog-filter-fm-/+-r;
#N canvas 0 22 484 497 nudge-parameters 0;
#X obj 124 234 random;
#X obj 232 335 f;
#X obj 232 368 +;
#X obj 257 166 random 2;
#X obj 124 275 t f f;
#X obj 124 351 t b f;
#X obj 124 297 *;
#X obj 257 188 sel 0 1;
#X msg 257 280 -1;
#X msg 335 280 1;
#X obj 124 149 t b b b;
#X obj 124 74 r NUDGE!;
#X obj 157 193 r NUDGE-RANGE;
#X obj 247 308 inlet;
#X obj 232 397 outlet;
#X obj 124 96 spigot;
#X obj 185 79 r parameters2-s;
#X connect 0 0 4 0;
#X connect 1 0 2 0;
#X connect 2 0 14 0;
#X connect 3 0 7 0;
#X connect 4 0 6 0;
#X connect 5 0 2 0;
#X connect 5 1 2 1;
#X connect 6 0 5 0;
#X connect 7 0 8 0;
#X connect 7 1 9 0;
#X connect 8 0 6 1;
#X connect 9 0 6 1;
#X connect 10 0 0 0;
#X connect 10 1 1 0;
#X connect 10 2 3 0;
#X connect 11 0 15 0;
#X connect 12 0 0 1;
#X connect 13 0 1 1;
#X connect 15 0 10 0;
#X connect 16 0 15 1;
#X restore 23 45 pd nudge-parameters;
#N canvas 0 22 484 497 nudge-attenuators 0;
#X obj 124 234 random;
#X obj 232 335 f;
#X obj 232 368 +;
#X obj 257 166 random 2;
#X obj 124 275 t f f;
#X obj 124 351 t b f;
#X obj 124 297 *;
#X obj 257 188 sel 0 1;
#X msg 257 280 -1;
#X msg 335 280 1;
#X obj 124 149 t b b b;
#X obj 124 71 r NUDGE!;
#X obj 157 193 r NUDGE-RANGE;
#X obj 247 308 inlet;
#X obj 232 397 outlet;
#X obj 124 93 spigot;
#X obj 201 76 r attenuators2-s;
#X connect 0 0 4 0;
#X connect 1 0 2 0;
#X connect 2 0 14 0;
#X connect 3 0 7 0;
#X connect 4 0 6 0;
#X connect 5 0 2 0;
#X connect 5 1 2 1;
#X connect 6 0 5 0;
#X connect 7 0 8 0;
#X connect 7 1 9 0;
#X connect 8 0 6 1;
#X connect 9 0 6 1;
#X connect 10 0 0 0;
#X connect 10 1 1 0;
#X connect 10 2 3 0;
#X connect 11 0 15 0;
#X connect 12 0 0 1;
#X connect 13 0 1 1;
#X connect 15 0 10 0;
#X connect 16 0 15 1;
#X restore 346 46 pd nudge-attenuators;
#N canvas 0 22 484 497 nudge-parameters 0;
#X obj 124 234 random;
#X obj 232 335 f;
#X obj 232 368 +;
#X obj 257 166 random 2;
#X obj 124 275 t f f;
#X obj 124 351 t b f;
#X obj 124 297 *;
#X obj 257 188 sel 0 1;
#X msg 257 280 -1;
#X msg 335 280 1;
#X obj 124 149 t b b b;
#X obj 124 74 r NUDGE!;
#X obj 157 193 r NUDGE-RANGE;
#X obj 247 308 inlet;
#X obj 232 397 outlet;
#X obj 124 96 spigot;
#X obj 185 79 r parameters2-s;
#X connect 0 0 4 0;
#X connect 1 0 2 0;
#X connect 2 0 14 0;
#X connect 3 0 7 0;
#X connect 4 0 6 0;
#X connect 5 0 2 0;
#X connect 5 1 2 1;
#X connect 6 0 5 0;
#X connect 7 0 8 0;
#X connect 7 1 9 0;
#X connect 8 0 6 1;
#X connect 9 0 6 1;
#X connect 10 0 0 0;
#X connect 10 1 1 0;
#X connect 10 2 3 0;
#X connect 11 0 15 0;
#X connect 12 0 0 1;
#X connect 13 0 1 1;
#X connect 15 0 10 0;
#X connect 16 0 15 1;
#X restore 193 45 pd nudge-parameters;
#X connect 0 0 4 0;
#X connect 1 0 6 0;
#X connect 2 0 8 0;
#X connect 3 0 9 0;
#X connect 5 0 11 0;
#X connect 7 0 10 0;
#X connect 9 0 0 0;
#X connect 10 0 2 0;
#X connect 11 0 1 0;
#X restore 101 232 pd parameter-nudging-system;
#N canvas 632 73 749 752 external-messages 0;
#X floatatom 186 706 5 0 0 0 - - -, f 5;
#X obj 185 328 spigot;
#X obj 218 288 tgl 15 0 empty empty empty 17 7 0 10 -262144 -1 -1 0
1;
#X obj 254 272 ==;
#X obj 269 248 f \$1;
#X obj 269 224 loadbang;
#X msg 185 202 \$1 \$2;
#X msg 185 156 symbol \$1;
#X obj 185 180 pack s f;
#X obj 186 685 f;
#X obj 186 633 t b f;
#X obj 186 656 spigot;
#X obj 185 62 unpack s f f;
#X symbolatom 185 94 10 0 0 0 - - -, f 10;
#X obj 218 308 t f f;
#X obj 245 332 s \$0-msg-spigot;
#X obj 234 640 r \$0-msg-spigot;
#X floatatom 223 594 5 0 0 0 - - -, f 5;
#X obj 223 573 f;
#X obj 223 521 t b f;
#X obj 223 544 spigot;
#X obj 271 528 r \$0-msg-spigot;
#X floatatom 387 639 5 0 0 0 - - -, f 5;
#X obj 387 618 f;
#X obj 387 566 t b f;
#X obj 387 589 spigot;
#X obj 435 573 r \$0-msg-spigot;
#X obj 185 14 r analog-filter;
#X obj 185 380 route CUTOFF Q FM-/+;
#X obj 186 726 s \$0-analog-filter-cutoff-r;
#X obj 223 614 s \$0-analog-filter-q-r;
#X obj 387 659 s \$0-analog-filter-fm-/+-r;
#X connect 0 0 29 0;
#X connect 1 0 28 0;
#X connect 2 0 14 0;
#X connect 3 0 2 0;
#X connect 4 0 3 1;
#X connect 5 0 4 0;
#X connect 6 0 1 0;
#X connect 7 0 8 0;
#X connect 8 0 6 0;
#X connect 9 0 0 0;
#X connect 10 0 11 0;
#X connect 10 1 9 1;
#X connect 11 0 9 0;
#X connect 12 0 13 0;
#X connect 12 1 8 1;
#X connect 12 2 3 0;
#X connect 13 0 7 0;
#X connect 14 0 1 1;
#X connect 14 1 15 0;
#X connect 16 0 11 1;
#X connect 17 0 30 0;
#X connect 18 0 17 0;
#X connect 19 0 20 0;
#X connect 19 1 18 1;
#X connect 20 0 18 0;
#X connect 21 0 20 1;
#X connect 22 0 31 0;
#X connect 23 0 22 0;
#X connect 24 0 25 0;
#X connect 24 1 23 1;
#X connect 25 0 23 0;
#X connect 26 0 25 1;
#X connect 27 0 12 0;
#X connect 28 0 10 0;
#X connect 28 1 19 0;
#X connect 28 2 24 0;
#X restore 102 210 pd external-messages;
#X connect 1 0 9 0;
#X connect 2 0 33 0;
#X connect 3 0 4 0;
#X connect 4 0 41 0;
#X connect 7 0 64 0;
#X connect 10 0 78 0;
#X connect 11 0 48 0;
#X connect 12 0 0 0;
#X connect 12 0 1 0;
#X connect 13 0 65 0;
#X connect 14 0 67 0;
#X connect 14 1 66 0;
#X connect 15 0 34 0;
#X connect 16 0 80 0;
#X connect 17 0 7 0;
#X connect 20 0 2 0;
#X connect 24 0 25 0;
#X connect 25 0 26 0;
#X connect 26 0 65 1;
#X connect 27 0 28 0;
#X connect 28 0 29 0;
#X connect 29 0 30 0;
#X connect 30 0 31 0;
#X connect 31 0 32 0;
#X connect 32 0 26 1;
#X connect 33 0 14 0;
#X connect 34 0 49 0;
#X connect 35 0 36 0;
#X connect 36 0 37 0;
#X connect 37 0 33 0;
#X connect 37 1 33 1;
#X connect 38 0 36 0;
#X connect 39 0 40 0;
#X connect 40 0 38 0;
#X connect 41 0 1 1;
#X connect 43 0 44 0;
#X connect 44 0 45 0;
#X connect 45 0 46 0;
#X connect 46 0 42 0;
#X connect 47 1 63 0;
#X connect 48 1 51 0;
#X connect 49 0 47 2;
#X connect 49 1 48 2;
#X connect 50 0 52 0;
#X connect 51 0 12 0;
#X connect 52 0 53 0;
#X connect 53 0 54 0;
#X connect 54 0 55 0;
#X connect 55 0 56 0;
#X connect 56 0 51 1;
#X connect 58 0 59 0;
#X connect 58 0 59 1;
#X connect 59 0 60 0;
#X connect 60 0 65 1;
#X connect 63 0 11 0;
#X connect 64 0 13 0;
#X connect 65 0 47 1;
#X connect 65 0 48 1;
#X connect 66 0 3 0;
#X connect 67 0 15 0;
#X connect 71 0 73 0;
#X connect 73 0 74 0;
#X connect 74 0 72 0;
#X connect 76 0 77 0;
#X connect 77 0 79 0;
#X connect 78 0 80 0;
#X connect 80 0 47 0;
#X coords 0 -1 1 1 175 100 2 100 100;
