#N canvas 407 34 748 574 10;
#X obj 23 451 cnv 15 400 30 empty empty OUTPUTS: 20 12 0 14 #9898dc #fcfcfc 0;
#X obj 21 115 cnv 15 400 30 empty empty CONTROLS: 20 12 0 14 #9898dc #fcfcfc 0;
#X obj 22 367 cnv 15 400 30 empty empty INPUTS: 20 12 0 14 #9898dc #fcfcfc 0;
#X obj 20 17 cnv 15 400 30 empty empty AUDIOFREEZE: 20 12 0 14 #90d4b0 #fcfcfc 0;
#X text 25 481 OUT - output;
#X obj 438 16 audiofreeze;
#A saved preset statesave/0-audiofreeze-ss.txt 0 0 0 0 0 0 0;
#A saved dispatch mode-s 0;
#A saved dispatch freeze-freeze!-s 0;
#A saved dispatch freeze-attack-s 0;
#A saved dispatch freeze-dry/wet-s 0;
#A saved dispatch freeze-decay-s 0;
#A saved dispatch freeze-modindex-s 0;
#A saved dispatch freeze-modrate-s 0;
#X text 24 58 The AUDIOFREEZE module takes an audio input and re-creates a snaphost of the spectral field with re-syntheiss when you trigger the FREEZE button.;
#X text 25 169 ATTACK - controls the attack time for the re-synthesised snapshot;
#X text 25 205 DECAY- controls the decay time for the re-synthesised snapshot;
#X text 25 241 MODRATE - controls modulation rate to the re-synthesised snapshot;
#X text 26 277 MODINDEX - controls modulation index of the re-synthesised snapshot;
#X text 26 313 DRY/WET - controls the ratioe between dry and wet signal;
#X text 26 148 FREEZE - toggle to freeze the audio;
#X text 26 402 IN - signal input;
#X text 26 425 FREEZE - trigger input to freeze the audio;
#X text 26 333 MODE - choose resynthesis method : 8 partials or FFT with 512 \, 1024 or 2048 resolution;
