#N canvas 0 22 650 472 10;
#X obj 22 480 cnv 15 400 30 empty empty OUTPUTS: 20 12 0 14 #9898dc #fcfcfc 0;
#X obj 22 275 cnv 15 400 30 empty empty CONTROLS: 20 12 0 14 #9898dc #fcfcfc 0;
#X obj 22 384 cnv 15 400 30 empty empty INPUTS: 20 12 0 14 #9898dc #fcfcfc 0;
#X obj 20 17 cnv 15 400 30 empty empty AUDIO-RECORDER: 20 12 0 14 #90d4b0 #fcfcfc 0;
#X obj 436 20 audio-recorder;
#A saved dispatch rec-level-s 127;
#A saved -take;
#X text 23 310 REC/STOP - Start and stop recording;
#X text 23 335 RST - reset the recording number;
#X text 23 361 LEVEL - set the overall gain of the incoming signals;
#X text 21 418 LEFT - left signal in;
#X text 22 448 RIGHT - right signal in;
#X text 22 520 /none/;
#X text 24 47 The AUDIO-RECORDER module takes a stereo input and records a 24bit .wav file to the folder called "recorded_wavs" in the project's main folder. It starts recording when you press the REC toggle and automatically labels your files as recording_1 \, recording_2 \, etc. Press the RST button to reset the counter \, but previous recordings will be overdubbed. You can use the LEFT and RIGHT master outputs from the MAESTRO4 and patch them into the AUDIO-RECORDER.;
#X text 23 188 NEW [reloaded]: you can use more than one AUDIO-RECORDER as long as they have different instance numbers. But there isn't a mechanism to start recording synchronously. Instead \, use the MULTI-TRACK RECORDER MODULE to record several stems.;
