#N canvas 328 23 1101 806 10;
#X obj 100 31 inlet~;
#X obj 100 54 sigmund~ -npeak 8 peaks;
#N canvas 0 23 1013 573 resynthesis 0;
#X obj 71 177 *~;
#X obj 123 140 pack 0 10;
#X obj 123 161 line~;
#X obj 71 198 throw~ \$0-SUM;
#X obj 776 195 osc~;
#X text 719 108 LFO;
#X obj 776 62 r \$0-freeze-modrate-s;
#X obj 776 83 / 127;
#X floatatom 776 125 5 0 0 0 - - -, f 5;
#X obj 776 145 pack 0 10;
#X obj 776 166 line~;
#X obj 776 232 *~;
#X obj 844 153 r \$0-freeze-modindex-s;
#X obj 844 174 / 127;
#X obj 844 195 pack 0 10;
#X obj 844 216 line~;
#X obj 776 253 s~ \$0-freeze-LFO;
#X obj 72 66 line~;
#X obj 72 45 pack 0 1;
#X obj 131 43 r~ \$0-freeze-LFO;
#X obj 72 108 phasor~;
#X obj 72 129 +~;
#X obj 72 150 cos~;
#X obj 254 169 *~;
#X obj 306 132 pack 0 10;
#X obj 306 153 line~;
#X obj 254 190 throw~ \$0-SUM;
#X obj 255 58 line~;
#X obj 255 37 pack 0 1;
#X obj 314 35 r~ \$0-freeze-LFO;
#X obj 255 100 phasor~;
#X obj 255 121 +~;
#X obj 255 142 cos~;
#X obj 432 170 *~;
#X obj 484 133 pack 0 10;
#X obj 484 154 line~;
#X obj 432 191 throw~ \$0-SUM;
#X obj 433 59 line~;
#X obj 433 38 pack 0 1;
#X obj 492 36 r~ \$0-freeze-LFO;
#X obj 433 101 phasor~;
#X obj 433 122 +~;
#X obj 433 143 cos~;
#X obj 606 166 *~;
#X obj 658 129 pack 0 10;
#X obj 658 150 line~;
#X obj 606 187 throw~ \$0-SUM;
#X obj 607 55 line~;
#X obj 607 34 pack 0 1;
#X obj 666 32 r~ \$0-freeze-LFO;
#X obj 607 97 phasor~;
#X obj 607 118 +~;
#X obj 607 139 cos~;
#X obj 63 391 *~;
#X obj 115 354 pack 0 10;
#X obj 115 375 line~;
#X obj 63 412 throw~ \$0-SUM;
#X obj 64 280 line~;
#X obj 64 259 pack 0 1;
#X obj 123 257 r~ \$0-freeze-LFO;
#X obj 64 322 phasor~;
#X obj 64 343 +~;
#X obj 64 364 cos~;
#X obj 246 383 *~;
#X obj 298 346 pack 0 10;
#X obj 298 367 line~;
#X obj 246 404 throw~ \$0-SUM;
#X obj 247 272 line~;
#X obj 247 251 pack 0 1;
#X obj 306 249 r~ \$0-freeze-LFO;
#X obj 247 314 phasor~;
#X obj 247 335 +~;
#X obj 247 356 cos~;
#X obj 424 384 *~;
#X obj 476 347 pack 0 10;
#X obj 476 368 line~;
#X obj 424 405 throw~ \$0-SUM;
#X obj 425 273 line~;
#X obj 425 252 pack 0 1;
#X obj 484 250 r~ \$0-freeze-LFO;
#X obj 425 315 phasor~;
#X obj 425 336 +~;
#X obj 425 357 cos~;
#X obj 598 380 *~;
#X obj 650 343 pack 0 10;
#X obj 650 364 line~;
#X obj 598 401 throw~ \$0-SUM;
#X obj 599 269 line~;
#X obj 599 248 pack 0 1;
#X obj 658 246 r~ \$0-freeze-LFO;
#X obj 599 311 phasor~;
#X obj 599 332 +~;
#X obj 599 353 cos~;
#X obj 776 104 * 50;
#X obj 72 24 r \$0-freq1;
#X obj 123 119 r \$0-amp1;
#X obj 255 16 r \$0-freq2;
#X obj 306 111 r \$0-amp2;
#X obj 432 17 r \$0-freq3;
#X obj 484 112 r \$0-amp3;
#X obj 606 13 r \$0-freq4;
#X obj 658 108 r \$0-amp4;
#X obj 64 238 r \$0-freq5;
#X obj 115 333 r \$0-amp5;
#X obj 247 229 r \$0-freq6;
#X obj 298 325 r \$0-amp6;
#X obj 424 230 r \$0-freq7;
#X obj 476 326 r \$0-amp7;
#X obj 598 227 r \$0-freq8;
#X obj 650 322 r \$0-amp8;
#X connect 0 0 3 0;
#X connect 1 0 2 0;
#X connect 2 0 0 1;
#X connect 4 0 11 0;
#X connect 6 0 7 0;
#X connect 7 0 93 0;
#X connect 8 0 9 0;
#X connect 9 0 10 0;
#X connect 10 0 4 0;
#X connect 11 0 16 0;
#X connect 12 0 13 0;
#X connect 13 0 14 0;
#X connect 14 0 15 0;
#X connect 15 0 11 1;
#X connect 17 0 20 0;
#X connect 18 0 17 0;
#X connect 19 0 21 1;
#X connect 20 0 21 0;
#X connect 21 0 22 0;
#X connect 22 0 0 0;
#X connect 23 0 26 0;
#X connect 24 0 25 0;
#X connect 25 0 23 1;
#X connect 27 0 30 0;
#X connect 28 0 27 0;
#X connect 29 0 31 1;
#X connect 30 0 31 0;
#X connect 31 0 32 0;
#X connect 32 0 23 0;
#X connect 33 0 36 0;
#X connect 34 0 35 0;
#X connect 35 0 33 1;
#X connect 37 0 40 0;
#X connect 38 0 37 0;
#X connect 39 0 41 1;
#X connect 40 0 41 0;
#X connect 41 0 42 0;
#X connect 42 0 33 0;
#X connect 43 0 46 0;
#X connect 44 0 45 0;
#X connect 45 0 43 1;
#X connect 47 0 50 0;
#X connect 48 0 47 0;
#X connect 49 0 51 1;
#X connect 50 0 51 0;
#X connect 51 0 52 0;
#X connect 52 0 43 0;
#X connect 53 0 56 0;
#X connect 54 0 55 0;
#X connect 55 0 53 1;
#X connect 57 0 60 0;
#X connect 58 0 57 0;
#X connect 59 0 61 1;
#X connect 60 0 61 0;
#X connect 61 0 62 0;
#X connect 62 0 53 0;
#X connect 63 0 66 0;
#X connect 64 0 65 0;
#X connect 65 0 63 1;
#X connect 67 0 70 0;
#X connect 68 0 67 0;
#X connect 69 0 71 1;
#X connect 70 0 71 0;
#X connect 71 0 72 0;
#X connect 72 0 63 0;
#X connect 73 0 76 0;
#X connect 74 0 75 0;
#X connect 75 0 73 1;
#X connect 77 0 80 0;
#X connect 78 0 77 0;
#X connect 79 0 81 1;
#X connect 80 0 81 0;
#X connect 81 0 82 0;
#X connect 82 0 73 0;
#X connect 83 0 86 0;
#X connect 84 0 85 0;
#X connect 85 0 83 1;
#X connect 87 0 90 0;
#X connect 88 0 87 0;
#X connect 89 0 91 1;
#X connect 90 0 91 0;
#X connect 91 0 92 0;
#X connect 92 0 83 0;
#X connect 93 0 8 0;
#X connect 94 0 18 0;
#X connect 95 0 1 0;
#X connect 96 0 28 0;
#X connect 97 0 24 0;
#X connect 98 0 38 0;
#X connect 99 0 34 0;
#X connect 100 0 48 0;
#X connect 101 0 44 0;
#X connect 102 0 58 0;
#X connect 103 0 54 0;
#X connect 104 0 68 0;
#X connect 105 0 64 0;
#X connect 106 0 78 0;
#X connect 107 0 74 0;
#X connect 108 0 88 0;
#X connect 109 0 84 0;
#X restore 380 362 pd resynthesis;
#N canvas 0 23 918 570 partials 0;
#X obj 64 45 route 0 1 2 3 4 5 6 7;
#X obj 63 118 unpack f f;
#X floatatom 63 139 5 0 0 0 - - -, f 5;
#X floatatom 120 142 5 0 0 0 - - -, f 5;
#X obj 32 221 f, f 6;
#X obj 106 220 f;
#X obj 32 182 t b b;
#X obj 64 18 inlet;
#X obj 191 216 unpack f f;
#X floatatom 191 237 5 0 0 0 - - -, f 5;
#X floatatom 248 240 5 0 0 0 - - -, f 5;
#X obj 160 319 f, f 6;
#X obj 234 318 f;
#X obj 160 280 t b b;
#X obj 314 134 unpack f f;
#X floatatom 314 155 5 0 0 0 - - -, f 5;
#X floatatom 371 158 5 0 0 0 - - -, f 5;
#X obj 283 237 f, f 6;
#X obj 357 236 f;
#X obj 283 198 t b b;
#X obj 452 139 unpack f f;
#X floatatom 452 160 5 0 0 0 - - -, f 5;
#X floatatom 509 163 5 0 0 0 - - -, f 5;
#X obj 421 242 f, f 6;
#X obj 495 241 f;
#X obj 421 203 t b b;
#X obj 424 301 unpack f f;
#X floatatom 424 322 5 0 0 0 - - -, f 5;
#X floatatom 481 325 5 0 0 0 - - -, f 5;
#X obj 393 404 f, f 6;
#X obj 467 403 f;
#X obj 393 365 t b b;
#X obj 578 301 unpack f f;
#X floatatom 578 322 5 0 0 0 - - -, f 5;
#X floatatom 635 325 5 0 0 0 - - -, f 5;
#X obj 547 404 f, f 6;
#X obj 621 403 f;
#X obj 547 365 t b b;
#X obj 610 134 unpack f f;
#X floatatom 610 155 5 0 0 0 - - -, f 5;
#X floatatom 667 158 5 0 0 0 - - -, f 5;
#X obj 579 237 f, f 6;
#X obj 653 236 f;
#X obj 579 198 t b b;
#X obj 749 335 unpack f f;
#X floatatom 749 356 5 0 0 0 - - -, f 5;
#X floatatom 806 359 5 0 0 0 - - -, f 5;
#X obj 718 438 f, f 6;
#X obj 792 437 f;
#X obj 718 399 t b b;
#X obj 32 161 r \$0-freeze!;
#X obj 160 259 r \$0-freeze!;
#X obj 283 177 r \$0-freeze!;
#X obj 421 182 r \$0-freeze!;
#X obj 393 344 r \$0-freeze!;
#X obj 547 344 r \$0-freeze!;
#X obj 579 177 r \$0-freeze!;
#X obj 718 378 r \$0-freeze!;
#X obj 32 242 s \$0-freq1;
#X obj 106 241 s \$0-amp1;
#X obj 160 340 s \$0-freq2;
#X obj 234 339 s \$0-amp2;
#X obj 283 258 s \$0-freq3;
#X obj 357 257 s \$0-amp3;
#X obj 421 263 s \$0-freq4;
#X obj 393 425 s \$0-freq5;
#X obj 467 424 s \$0-amp5;
#X obj 495 262 s \$0-amp4;
#X obj 546 425 s \$0-freq6;
#X obj 621 424 s \$0-amp6;
#X obj 578 258 s \$0-freq7;
#X obj 653 257 s \$0-amp7;
#X obj 717 460 s \$0-freq8;
#X obj 792 458 s \$0-amp9;
#X connect 0 0 1 0;
#X connect 0 1 8 0;
#X connect 0 2 14 0;
#X connect 0 3 20 0;
#X connect 0 4 26 0;
#X connect 0 5 32 0;
#X connect 0 6 38 0;
#X connect 0 7 44 0;
#X connect 1 0 2 0;
#X connect 1 1 3 0;
#X connect 2 0 4 1;
#X connect 3 0 5 1;
#X connect 4 0 58 0;
#X connect 5 0 59 0;
#X connect 6 0 4 0;
#X connect 6 1 5 0;
#X connect 7 0 0 0;
#X connect 8 0 9 0;
#X connect 8 1 10 0;
#X connect 9 0 11 1;
#X connect 10 0 12 1;
#X connect 11 0 60 0;
#X connect 12 0 61 0;
#X connect 13 0 11 0;
#X connect 13 1 12 0;
#X connect 14 0 15 0;
#X connect 14 1 16 0;
#X connect 15 0 17 1;
#X connect 16 0 18 1;
#X connect 17 0 62 0;
#X connect 18 0 63 0;
#X connect 19 0 17 0;
#X connect 19 1 18 0;
#X connect 20 0 21 0;
#X connect 20 1 22 0;
#X connect 21 0 23 1;
#X connect 22 0 24 1;
#X connect 23 0 64 0;
#X connect 24 0 67 0;
#X connect 25 0 23 0;
#X connect 25 1 24 0;
#X connect 26 0 27 0;
#X connect 26 1 28 0;
#X connect 27 0 29 1;
#X connect 28 0 30 1;
#X connect 29 0 65 0;
#X connect 30 0 66 0;
#X connect 31 0 29 0;
#X connect 31 1 30 0;
#X connect 32 0 33 0;
#X connect 32 1 34 0;
#X connect 33 0 35 1;
#X connect 34 0 36 1;
#X connect 35 0 68 0;
#X connect 36 0 69 0;
#X connect 37 0 35 0;
#X connect 37 1 36 0;
#X connect 38 0 39 0;
#X connect 38 1 40 0;
#X connect 39 0 41 1;
#X connect 40 0 42 1;
#X connect 41 0 70 0;
#X connect 42 0 71 0;
#X connect 43 0 41 0;
#X connect 43 1 42 0;
#X connect 44 0 45 0;
#X connect 44 1 46 0;
#X connect 45 0 47 1;
#X connect 46 0 48 1;
#X connect 47 0 72 0;
#X connect 48 0 73 0;
#X connect 49 0 47 0;
#X connect 49 1 48 0;
#X connect 50 0 6 0;
#X connect 51 0 13 0;
#X connect 52 0 19 0;
#X connect 53 0 25 0;
#X connect 54 0 31 0;
#X connect 55 0 37 0;
#X connect 56 0 43 0;
#X connect 57 0 49 0;
#X restore 100 76 pd partials;
#X obj 228 129 tgl 15 0 \$0-freeze-freeze!-s \$0-freeze-freeze!-r FREEZE
17 7 0 10 -262144 -1 -1 0 1;
#X obj 379 414 *~;
#X obj 113 144 hsl 128 15 0 127 0 0 \$0-freeze-attack-s \$0-freeze-attack-r
ATTACK 133 7 0 10 -262144 -1 -1 0 1;
#X obj 497 118 / 127;
#X obj 482 251 f;
#X obj 377 234 sel 1 0;
#X obj 482 399 line~;
#X msg 482 279 0 \$1;
#X msg 546 332 1 \$1;
#X obj 561 234 / 127;
#X obj 546 306 f;
#X obj 378 290 t b b;
#X obj 497 160 + 10;
#X obj 497 139 * 1990;
#X obj 561 276 + 10;
#X obj 561 255 * 1990;
#X obj 113 209 hsl 128 15 0 127 0 0 \$0-freeze-dry/wet-s \$0-freeze-dry/wet-r
DRY/WET 133 7 0 10 -137270 -1 -1 0 1;
#X obj 375 69 r \$0-freeze-freeze!-s;
#X obj 497 92 r \$0-freeze-decay-s;
#X obj 113 159 hsl 128 15 0 127 0 0 \$0-freeze-decay-s \$0-freeze-decay-r
DECAY 133 7 0 10 -262144 -1 -1 0 1;
#X obj 561 210 r \$0-freeze-attack-s;
#X obj 379 385 catch~ \$0-SUM;
#X obj 380 478 *~;
#X obj 524 422 / 127;
#X obj 524 442 pack 0 10;
#X obj 524 463 line~;
#X obj 671 25 inlet~ FREEZE;
#X obj 671 46 threshold~ 0.9 0 0.9 0;
#X msg 671 67 bang;
#X obj 671 88 t b b;
#X obj 274 114 bng 15 250 50 0 empty \$0-freeze-gui-r empty 17 7 0
10 -262144 -213792 -1;
#X obj 698 116 s \$0-freeze-gui-r;
#X obj 378 324 s \$0-freeze!;
#X obj 671 141 s \$0-freeze-freeze!-r;
#X obj 380 511 outlet~;
#X obj 110 135 cnv 5 5 5 empty empty AUDIOFREEZE 0 0 0 12 -262144 -66577
0;
#X obj 105 233 cnv 5 5 5 empty empty OUT 0 0 0 8 -262144 -66577 0;
#X obj 199 135 cnv 5 5 5 empty \$0-instance-num 0 0 0 0 12 -262144
-66577 0;
#X obj 266 109 cnv 5 5 5 empty empty FREEZE 0 0 0 8 -262144 -213792
0;
#X obj 105 109 cnv 5 5 5 empty empty IN 0 0 0 8 -262144 -66577 0;
#X obj 113 194 hsl 128 15 0 127 0 0 \$0-freeze-modindex-s \$0-freeze-modindex-r
MODINDEX 133 7 0 10 -137270 -1 -1 0 1;
#X obj 113 179 hsl 128 15 0 127 0 0 \$0-freeze-modrate-s \$0-freeze-modrate-r
MODRATE 133 7 0 10 -262144 -1 -1 0 1;
#X obj 284 28 r pedal;
#X obj 35 77 s~ \$0-DRY;
#X obj 524 401 r \$0-freeze-dry/wet-s;
#X obj 167 373 r~ \$0-DRY;
#X obj 167 445 *~;
#X obj 321 445 pack 0 10;
#X obj 321 466 line~;
#X obj 233 389 / 127;
#X obj 233 409 pack 0 10;
#X obj 233 430 line~;
#X obj 233 325 r \$0-freeze-dry/wet-s;
#X msg 233 346 127 \$1;
#X obj 233 367 -;
#N canvas 315 35 593 735 state-saving-multiple-instances 0;
#X obj 137 29 loadbang;
#X obj 184 452 textfile;
#X msg 454 435 rewind;
#X msg 411 435 bang;
#X obj 42 691 textfile;
#X obj 411 396 t b b;
#X obj 43 357 f;
#X obj 56 580 f;
#X obj -16 401 t b b b;
#X msg 119 580 clear;
#X obj 204 217 outlet;
#X text 246 221 INSTANCE NUMBER;
#X obj 165 153 f \$1;
#X obj 165 189 t f f f;
#X obj 138 62 t b b;
#X obj -16 378 bng 15 250 50 0 empty empty empty 17 7 0 10 -262144
-1 -1;
#X obj -16 234 r SAVE-S;
#X msg 43 438 set \$1 \$2 \$3 \$4 \$5 \$6;
#X obj 43 400 pack f f f f f f;
#X obj 184 474 unpack f f f f f f;
#X obj 58 254 r \$0-freeze-freeze!-s;
#X obj 184 627 s \$0-freeze-freeze!-r;
#X obj 66 277 r \$0-freeze-attack-s;
#X obj 205 603 s \$0-freeze-attack-r;
#X obj 80 298 r \$0-freeze-decay-s;
#X obj 226 579 s \$0-freeze-decay-r;
#X obj 98 323 r \$0-freeze-modrate-s;
#X obj 247 555 s \$0-freeze-modrate-r;
#X obj 118 348 r \$0-freeze-modindex-s;
#X obj 268 529 s \$0-freeze-modindex-r;
#X obj 136 369 r \$0-freeze-dry/wet-s;
#X obj 289 505 s \$0-freeze-dry/wet-r;
#X msg 184 427 read statesave/\$1-audiofreeze-ss.txt;
#X msg 55 651 write statesave/\$1-audiofreeze-ss.txt;
#X connect 0 0 14 0;
#X connect 1 0 19 0;
#X connect 2 0 1 0;
#X connect 3 0 1 0;
#X connect 5 0 3 0;
#X connect 5 1 2 0;
#X connect 6 0 18 0;
#X connect 7 0 33 0;
#X connect 8 0 7 0;
#X connect 8 1 6 0;
#X connect 8 2 9 0;
#X connect 9 0 4 0;
#X connect 12 0 13 0;
#X connect 13 0 7 1;
#X connect 13 1 32 0;
#X connect 13 2 10 0;
#X connect 14 0 5 0;
#X connect 14 1 12 0;
#X connect 15 0 8 0;
#X connect 16 0 15 0;
#X connect 17 0 4 0;
#X connect 18 0 17 0;
#X connect 19 0 21 0;
#X connect 19 1 23 0;
#X connect 19 2 25 0;
#X connect 19 3 27 0;
#X connect 19 4 29 0;
#X connect 19 5 31 0;
#X connect 20 0 6 1;
#X connect 22 0 18 1;
#X connect 24 0 18 2;
#X connect 26 0 18 3;
#X connect 28 0 18 4;
#X connect 30 0 18 5;
#X connect 32 0 1 0;
#X connect 33 0 4 0;
#X restore 721 251 pd state-saving-multiple-instances;
#X obj 721 322 s \$0-instance-num;
#X obj 721 274 makefilename %d;
#X msg 721 299 label \$1;
#N canvas 314 23 1126 739 state-saving-via-preset-manager-module 0
;
#X obj 340 227 textfile;
#X msg 719 211 rewind;
#X msg 676 211 bang;
#X obj 106 568 textfile;
#X obj 676 172 t b b;
#X obj 107 234 f;
#X obj 120 457 f;
#X obj 53 352 t b b b;
#X msg 236 499 clear;
#X obj 107 56 delay 5;
#X obj 53 407 delay 10;
#X msg 53 192 bang;
#X obj 53 26 r STORE-S!;
#X obj 340 128 f;
#X obj 313 96 t b b;
#X obj 327 59 t b f;
#X obj 385 146 f \$1;
#X obj 340 173 pack f f;
#X obj 385 96 loadbang;
#X obj 120 487 pack f f;
#X obj 165 440 loadbang;
#X obj 165 462 f \$1;
#X obj 328 8 r preset-manager-scan;
#X obj 135 418 r preset-manager-store-slot;
#X obj 328 30 i;
#N canvas 0 22 1069 747 morph-parameters 0;
#X obj 176 94 inlet;
#X obj 176 236 pack f f;
#X obj 176 261 line;
#X obj 209 117 r preset-manager-morph-s;
#X msg 72 244 stop;
#X obj 72 214 r STOP-MORPH!;
#X obj 209 206 spigot;
#X obj 398 137 t f f;
#X obj 455 154 == 0;
#X obj 221 176 f;
#X floatatom 455 222 5 0 0 0 - - -, f 5;
#X obj 398 159 t b f;
#X floatatom 425 192 5 0 0 0 - - -, f 5;
#X obj 209 139 t f f;
#X obj 398 102 r parameters-s;
#X obj 176 288 outlet;
#X connect 0 0 1 0;
#X connect 1 0 2 0;
#X connect 2 0 15 0;
#X connect 3 0 13 0;
#X connect 4 0 2 0;
#X connect 5 0 4 0;
#X connect 6 0 1 1;
#X connect 7 0 11 0;
#X connect 7 1 8 0;
#X connect 8 0 10 0;
#X connect 9 0 6 0;
#X connect 10 0 1 1;
#X connect 11 0 9 0;
#X connect 11 1 12 0;
#X connect 12 0 6 1;
#X connect 13 0 6 0;
#X connect 13 1 9 1;
#X connect 14 0 7 0;
#X restore 345 689 pd morph-parameters;
#N canvas 0 22 1069 747 morph-parameters 0;
#X obj 176 94 inlet;
#X obj 176 236 pack f f;
#X obj 176 261 line;
#X obj 209 117 r preset-manager-morph-s;
#X msg 72 244 stop;
#X obj 72 214 r STOP-MORPH!;
#X obj 209 206 spigot;
#X obj 398 137 t f f;
#X obj 455 154 == 0;
#X obj 221 176 f;
#X floatatom 455 222 5 0 0 0 - - -, f 5;
#X obj 398 159 t b f;
#X floatatom 425 192 5 0 0 0 - - -, f 5;
#X obj 209 139 t f f;
#X obj 398 102 r parameters-s;
#X obj 176 288 outlet;
#X connect 0 0 1 0;
#X connect 1 0 2 0;
#X connect 2 0 15 0;
#X connect 3 0 13 0;
#X connect 4 0 2 0;
#X connect 5 0 4 0;
#X connect 6 0 1 1;
#X connect 7 0 11 0;
#X connect 7 1 8 0;
#X connect 8 0 10 0;
#X connect 9 0 6 0;
#X connect 10 0 1 1;
#X connect 11 0 9 0;
#X connect 11 1 12 0;
#X connect 12 0 6 1;
#X connect 13 0 6 0;
#X connect 13 1 9 1;
#X connect 14 0 7 0;
#X restore 365 591 pd morph-parameters;
#N canvas 0 22 1069 747 morph-parameters 0;
#X obj 176 94 inlet;
#X obj 176 236 pack f f;
#X obj 176 261 line;
#X obj 209 117 r preset-manager-morph-s;
#X msg 72 244 stop;
#X obj 72 214 r STOP-MORPH!;
#X obj 209 206 spigot;
#X obj 398 137 t f f;
#X obj 455 154 == 0;
#X obj 221 176 f;
#X floatatom 455 222 5 0 0 0 - - -, f 5;
#X obj 398 159 t b f;
#X floatatom 425 192 5 0 0 0 - - -, f 5;
#X obj 209 139 t f f;
#X obj 398 102 r parameters-s;
#X obj 176 288 outlet;
#X connect 0 0 1 0;
#X connect 1 0 2 0;
#X connect 2 0 15 0;
#X connect 3 0 13 0;
#X connect 4 0 2 0;
#X connect 5 0 4 0;
#X connect 6 0 1 1;
#X connect 7 0 11 0;
#X connect 7 1 8 0;
#X connect 8 0 10 0;
#X connect 9 0 6 0;
#X connect 10 0 1 1;
#X connect 11 0 9 0;
#X connect 11 1 12 0;
#X connect 12 0 6 1;
#X connect 13 0 6 0;
#X connect 13 1 9 1;
#X connect 14 0 7 0;
#X restore 383 489 pd morph-parameters;
#N canvas 0 22 1069 747 morph-parameters 0;
#X obj 176 94 inlet;
#X obj 176 236 pack f f;
#X obj 176 261 line;
#X obj 209 117 r preset-manager-morph-s;
#X msg 72 244 stop;
#X obj 72 214 r STOP-MORPH!;
#X obj 209 206 spigot;
#X obj 398 137 t f f;
#X obj 455 154 == 0;
#X obj 221 176 f;
#X floatatom 455 222 5 0 0 0 - - -, f 5;
#X obj 398 159 t b f;
#X floatatom 425 192 5 0 0 0 - - -, f 5;
#X obj 209 139 t f f;
#X obj 398 102 r parameters-s;
#X obj 176 288 outlet;
#X connect 0 0 1 0;
#X connect 1 0 2 0;
#X connect 2 0 15 0;
#X connect 3 0 13 0;
#X connect 4 0 2 0;
#X connect 5 0 4 0;
#X connect 6 0 1 1;
#X connect 7 0 11 0;
#X connect 7 1 8 0;
#X connect 8 0 10 0;
#X connect 9 0 6 0;
#X connect 10 0 1 1;
#X connect 11 0 9 0;
#X connect 11 1 12 0;
#X connect 12 0 6 1;
#X connect 13 0 6 0;
#X connect 13 1 9 1;
#X connect 14 0 7 0;
#X restore 399 389 pd morph-parameters;
#X msg 106 368 set \$1 \$2 \$3 \$4 \$5 \$6;
#X obj 340 249 unpack f f f f f f;
#X obj 107 301 pack f f f f f f;
#X msg 119 528 write statesave/\$1-\$2-audiofreeze-ss.txt;
#X msg 340 202 read statesave/\$1-\$2-audiofreeze-ss.txt;
#X obj 123 78 r \$0-freeze-freeze!-s;
#X obj 345 714 s \$0-freeze-freeze!-r;
#X obj 136 107 r \$0-freeze-attack-s;
#X obj 366 617 s \$0-freeze-attack-r;
#X obj 146 146 r \$0-freeze-decay-s;
#X obj 384 517 s \$0-freeze-decay-r;
#X obj 169 173 r \$0-freeze-modrate-s;
#X obj 400 414 s \$0-freeze-modrate-r;
#X obj 190 209 r \$0-freeze-modindex-s;
#X obj 561 697 s \$0-freeze-modindex-r;
#N canvas 0 23 1069 747 morph-attenuators 0;
#X obj 176 94 inlet;
#X obj 176 236 pack f f;
#X obj 176 261 line;
#X obj 209 117 r preset-manager-morph-s;
#X msg 72 244 stop;
#X obj 72 214 r STOP-MORPH!;
#X obj 209 206 spigot;
#X obj 398 137 t f f;
#X obj 455 154 == 0;
#X obj 221 176 f;
#X floatatom 455 222 5 0 0 0 - - -, f 5;
#X obj 398 159 t b f;
#X floatatom 425 192 5 0 0 0 - - -, f 5;
#X obj 209 139 t f f;
#X obj 176 288 outlet;
#X obj 398 102 r attenuators-s;
#X connect 0 0 1 0;
#X connect 1 0 2 0;
#X connect 2 0 14 0;
#X connect 3 0 13 0;
#X connect 4 0 2 0;
#X connect 5 0 4 0;
#X connect 6 0 1 1;
#X connect 7 0 11 0;
#X connect 7 1 8 0;
#X connect 8 0 10 0;
#X connect 9 0 6 0;
#X connect 10 0 1 1;
#X connect 11 0 9 0;
#X connect 11 1 12 0;
#X connect 12 0 6 1;
#X connect 13 0 6 0;
#X connect 13 1 9 1;
#X connect 15 0 7 0;
#X restore 560 670 pd morph-attenuators;
#X obj 616 474 s \$0-freeze-dry/wet-r;
#X obj 207 237 r \$0-freeze-dry/wet-s;
#N canvas 0 23 1069 747 morph-attenuators 0;
#X obj 176 94 inlet;
#X obj 176 236 pack f f;
#X obj 176 261 line;
#X obj 209 117 r preset-manager-morph-s;
#X msg 72 244 stop;
#X obj 72 214 r STOP-MORPH!;
#X obj 209 206 spigot;
#X obj 398 137 t f f;
#X obj 455 154 == 0;
#X obj 221 176 f;
#X floatatom 455 222 5 0 0 0 - - -, f 5;
#X obj 398 159 t b f;
#X floatatom 425 192 5 0 0 0 - - -, f 5;
#X obj 209 139 t f f;
#X obj 176 288 outlet;
#X obj 398 102 r attenuators-s;
#X connect 0 0 1 0;
#X connect 1 0 2 0;
#X connect 2 0 14 0;
#X connect 3 0 13 0;
#X connect 4 0 2 0;
#X connect 5 0 4 0;
#X connect 6 0 1 1;
#X connect 7 0 11 0;
#X connect 7 1 8 0;
#X connect 8 0 10 0;
#X connect 9 0 6 0;
#X connect 10 0 1 1;
#X connect 11 0 9 0;
#X connect 11 1 12 0;
#X connect 12 0 6 1;
#X connect 13 0 6 0;
#X connect 13 1 9 1;
#X connect 15 0 7 0;
#X restore 615 447 pd morph-attenuators;
#X connect 0 0 30 0;
#X connect 1 0 0 0;
#X connect 2 0 0 0;
#X connect 4 0 2 0;
#X connect 4 1 1 0;
#X connect 5 0 31 0;
#X connect 6 0 19 0;
#X connect 7 0 10 0;
#X connect 7 1 9 0;
#X connect 7 2 8 0;
#X connect 8 0 3 0;
#X connect 9 0 5 0;
#X connect 10 0 6 0;
#X connect 11 0 7 0;
#X connect 12 0 11 0;
#X connect 13 0 17 0;
#X connect 14 0 4 0;
#X connect 14 1 13 0;
#X connect 15 0 14 0;
#X connect 15 1 13 1;
#X connect 16 0 17 1;
#X connect 17 0 33 0;
#X connect 18 0 16 0;
#X connect 19 0 32 0;
#X connect 20 0 21 0;
#X connect 21 0 19 1;
#X connect 22 0 24 0;
#X connect 23 0 6 1;
#X connect 24 0 15 0;
#X connect 25 0 35 0;
#X connect 26 0 37 0;
#X connect 27 0 39 0;
#X connect 28 0 41 0;
#X connect 29 0 3 0;
#X connect 30 0 25 0;
#X connect 30 1 26 0;
#X connect 30 2 27 0;
#X connect 30 3 28 0;
#X connect 30 4 44 0;
#X connect 30 5 47 0;
#X connect 31 0 29 0;
#X connect 32 0 3 0;
#X connect 33 0 0 0;
#X connect 34 0 5 1;
#X connect 36 0 31 1;
#X connect 38 0 31 2;
#X connect 40 0 31 3;
#X connect 42 0 31 4;
#X connect 44 0 43 0;
#X connect 46 0 31 5;
#X connect 47 0 45 0;
#X restore 721 229 pd state-saving-via-preset-manager-module;
#N canvas 644 300 683 471 parameter-nudging-system 0;
#X obj 23 67 clip 0 127;
#X obj 171 68 clip 0 127;
#X obj 342 70 clip 0 127;
#N canvas 0 22 484 497 nudge-parameters 0;
#X obj 124 234 random;
#X obj 232 335 f;
#X obj 232 368 +;
#X obj 257 166 random 2;
#X obj 124 275 t f f;
#X obj 124 351 t b f;
#X obj 124 297 *;
#X obj 257 188 sel 0 1;
#X msg 257 280 -1;
#X msg 335 280 1;
#X obj 124 149 t b b b;
#X obj 124 74 r NUDGE!;
#X obj 157 193 r NUDGE-RANGE;
#X obj 247 308 inlet;
#X obj 232 397 outlet;
#X obj 124 96 spigot;
#X obj 185 79 r parameters2-s;
#X connect 0 0 4 0;
#X connect 1 0 2 0;
#X connect 2 0 14 0;
#X connect 3 0 7 0;
#X connect 4 0 6 0;
#X connect 5 0 2 0;
#X connect 5 1 2 1;
#X connect 6 0 5 0;
#X connect 7 0 8 0;
#X connect 7 1 9 0;
#X connect 8 0 6 1;
#X connect 9 0 6 1;
#X connect 10 0 0 0;
#X connect 10 1 1 0;
#X connect 10 2 3 0;
#X connect 11 0 15 0;
#X connect 12 0 0 1;
#X connect 13 0 1 1;
#X connect 15 0 10 0;
#X connect 16 0 15 1;
#X restore 342 46 pd nudge-parameters;
#N canvas 0 23 484 497 nudge-parameters 0;
#X obj 124 234 random;
#X obj 232 335 f;
#X obj 232 368 +;
#X obj 257 166 random 2;
#X obj 124 275 t f f;
#X obj 124 351 t b f;
#X obj 124 297 *;
#X obj 257 188 sel 0 1;
#X msg 257 280 -1;
#X msg 335 280 1;
#X obj 124 149 t b b b;
#X obj 124 74 r NUDGE!;
#X obj 157 193 r NUDGE-RANGE;
#X obj 247 308 inlet;
#X obj 232 397 outlet;
#X obj 124 96 spigot;
#X obj 185 79 r parameters2-s;
#X connect 0 0 4 0;
#X connect 1 0 2 0;
#X connect 2 0 14 0;
#X connect 3 0 7 0;
#X connect 4 0 6 0;
#X connect 5 0 2 0;
#X connect 5 1 2 1;
#X connect 6 0 5 0;
#X connect 7 0 8 0;
#X connect 7 1 9 0;
#X connect 8 0 6 1;
#X connect 9 0 6 1;
#X connect 10 0 0 0;
#X connect 10 1 1 0;
#X connect 10 2 3 0;
#X connect 11 0 15 0;
#X connect 12 0 0 1;
#X connect 13 0 1 1;
#X connect 15 0 10 0;
#X connect 16 0 15 1;
#X restore 22 44 pd nudge-parameters;
#N canvas 0 22 484 497 nudge-parameters 0;
#X obj 124 234 random;
#X obj 232 335 f;
#X obj 232 368 +;
#X obj 257 166 random 2;
#X obj 124 275 t f f;
#X obj 124 351 t b f;
#X obj 124 297 *;
#X obj 257 188 sel 0 1;
#X msg 257 280 -1;
#X msg 335 280 1;
#X obj 124 149 t b b b;
#X obj 124 74 r NUDGE!;
#X obj 157 193 r NUDGE-RANGE;
#X obj 247 308 inlet;
#X obj 232 397 outlet;
#X obj 124 96 spigot;
#X obj 185 79 r parameters2-s;
#X connect 0 0 4 0;
#X connect 1 0 2 0;
#X connect 2 0 14 0;
#X connect 3 0 7 0;
#X connect 4 0 6 0;
#X connect 5 0 2 0;
#X connect 5 1 2 1;
#X connect 6 0 5 0;
#X connect 7 0 8 0;
#X connect 7 1 9 0;
#X connect 8 0 6 1;
#X connect 9 0 6 1;
#X connect 10 0 0 0;
#X connect 10 1 1 0;
#X connect 10 2 3 0;
#X connect 11 0 15 0;
#X connect 12 0 0 1;
#X connect 13 0 1 1;
#X connect 15 0 10 0;
#X connect 16 0 15 1;
#X restore 171 45 pd nudge-parameters;
#X obj 23 22 r \$0-freeze-attack-s;
#X obj 23 95 s \$0-freeze-attack-r;
#X obj 171 22 r \$0-freeze-decay-s;
#X obj 171 95 s \$0-freeze-decay-r;
#X obj 342 23 r \$0-freeze-modrate-s;
#X obj 342 96 s \$0-freeze-modrate-r;
#X obj 22 177 clip 0 127;
#X obj 22 132 r \$0-freeze-modindex-s;
#X obj 22 205 s \$0-freeze-modindex-r;
#N canvas 0 23 484 497 nudge-attenuators 0;
#X obj 124 234 random;
#X obj 232 335 f;
#X obj 232 368 +;
#X obj 257 166 random 2;
#X obj 124 275 t f f;
#X obj 124 351 t b f;
#X obj 124 297 *;
#X obj 257 188 sel 0 1;
#X msg 257 280 -1;
#X msg 335 280 1;
#X obj 124 149 t b b b;
#X obj 124 74 r NUDGE!;
#X obj 157 193 r NUDGE-RANGE;
#X obj 247 308 inlet;
#X obj 232 397 outlet;
#X obj 124 96 spigot;
#X obj 185 79 r attenuators2-s;
#X connect 0 0 4 0;
#X connect 1 0 2 0;
#X connect 2 0 14 0;
#X connect 3 0 7 0;
#X connect 4 0 6 0;
#X connect 5 0 2 0;
#X connect 5 1 2 1;
#X connect 6 0 5 0;
#X connect 7 0 8 0;
#X connect 7 1 9 0;
#X connect 8 0 6 1;
#X connect 9 0 6 1;
#X connect 10 0 0 0;
#X connect 10 1 1 0;
#X connect 10 2 3 0;
#X connect 11 0 15 0;
#X connect 12 0 0 1;
#X connect 13 0 1 1;
#X connect 15 0 10 0;
#X connect 16 0 15 1;
#X restore 22 154 pd nudge-attenuators;
#X obj 188 176 clip 0 127;
#N canvas 0 23 484 497 nudge-attenuators 0;
#X obj 124 234 random;
#X obj 232 335 f;
#X obj 232 368 +;
#X obj 257 166 random 2;
#X obj 124 275 t f f;
#X obj 124 351 t b f;
#X obj 124 297 *;
#X obj 257 188 sel 0 1;
#X msg 257 280 -1;
#X msg 335 280 1;
#X obj 124 149 t b b b;
#X obj 124 74 r NUDGE!;
#X obj 157 193 r NUDGE-RANGE;
#X obj 247 308 inlet;
#X obj 232 397 outlet;
#X obj 124 96 spigot;
#X obj 185 79 r attenuators2-s;
#X connect 0 0 4 0;
#X connect 1 0 2 0;
#X connect 2 0 14 0;
#X connect 3 0 7 0;
#X connect 4 0 6 0;
#X connect 5 0 2 0;
#X connect 5 1 2 1;
#X connect 6 0 5 0;
#X connect 7 0 8 0;
#X connect 7 1 9 0;
#X connect 8 0 6 1;
#X connect 9 0 6 1;
#X connect 10 0 0 0;
#X connect 10 1 1 0;
#X connect 10 2 3 0;
#X connect 11 0 15 0;
#X connect 12 0 0 1;
#X connect 13 0 1 1;
#X connect 15 0 10 0;
#X connect 16 0 15 1;
#X restore 188 153 pd nudge-attenuators;
#X obj 188 131 r \$0-freeze-dry/wet-s;
#X obj 188 204 s \$0-freeze-dry/wet-r;
#X connect 0 0 7 0;
#X connect 1 0 9 0;
#X connect 2 0 11 0;
#X connect 3 0 2 0;
#X connect 4 0 0 0;
#X connect 5 0 1 0;
#X connect 6 0 4 0;
#X connect 8 0 5 0;
#X connect 10 0 3 0;
#X connect 12 0 14 0;
#X connect 13 0 15 0;
#X connect 15 0 12 0;
#X connect 16 0 19 0;
#X connect 17 0 16 0;
#X connect 18 0 17 0;
#X restore 721 208 pd parameter-nudging-system;
#N canvas 691 23 749 752 external-messages 0;
#X floatatom 186 706 5 0 0 0 - - -, f 5;
#X obj 185 328 spigot;
#X obj 218 288 tgl 15 0 empty empty empty 17 7 0 10 -262144 -1 -1 0
1;
#X obj 254 272 ==;
#X obj 269 248 f \$1;
#X obj 269 224 loadbang;
#X msg 185 202 \$1 \$2;
#X msg 185 156 symbol \$1;
#X obj 185 180 pack s f;
#X obj 186 685 f;
#X obj 186 633 t b f;
#X obj 186 656 spigot;
#X obj 185 62 unpack s f f;
#X symbolatom 185 94 10 0 0 0 - - -, f 10;
#X obj 218 308 t f f;
#X obj 245 332 s \$0-msg-spigot;
#X obj 234 640 r \$0-msg-spigot;
#X floatatom 234 580 5 0 0 0 - - -, f 5;
#X obj 234 559 f;
#X obj 234 507 t b f;
#X obj 234 530 spigot;
#X obj 282 514 r \$0-msg-spigot;
#X floatatom 387 639 5 0 0 0 - - -, f 5;
#X obj 387 618 f;
#X obj 387 566 t b f;
#X obj 387 589 spigot;
#X obj 435 573 r \$0-msg-spigot;
#X obj 185 380 route FREEZE ATTACK DECAY MODRATE MODINDEX DRY/WET;
#X obj 185 14 r audiofreeze;
#X obj 186 726 s \$0-freeze-freeze!-r;
#X obj 234 600 s \$0-freeze-attack-r;
#X obj 387 659 s \$0-freeze-decay-r;
#X floatatom 530 681 5 0 0 0 - - -, f 5;
#X obj 530 660 f;
#X obj 530 608 t b f;
#X obj 530 631 spigot;
#X obj 578 615 r \$0-msg-spigot;
#X floatatom 578 555 5 0 0 0 - - -, f 5;
#X obj 578 534 f;
#X obj 578 482 t b f;
#X obj 578 505 spigot;
#X obj 626 489 r \$0-msg-spigot;
#X floatatom 731 614 5 0 0 0 - - -, f 5;
#X obj 731 593 f;
#X obj 731 541 t b f;
#X obj 731 564 spigot;
#X obj 779 548 r \$0-msg-spigot;
#X obj 530 701 s \$0-freeze-modrate-r;
#X obj 578 575 s \$0-freeze-modindex-r;
#X obj 731 634 s \$0-freeze-dry/wet-r;
#X connect 0 0 29 0;
#X connect 1 0 27 0;
#X connect 2 0 14 0;
#X connect 3 0 2 0;
#X connect 4 0 3 1;
#X connect 5 0 4 0;
#X connect 6 0 1 0;
#X connect 7 0 8 0;
#X connect 8 0 6 0;
#X connect 9 0 0 0;
#X connect 10 0 11 0;
#X connect 10 1 9 1;
#X connect 11 0 9 0;
#X connect 12 0 13 0;
#X connect 12 1 8 1;
#X connect 12 2 3 0;
#X connect 13 0 7 0;
#X connect 14 0 1 1;
#X connect 14 1 15 0;
#X connect 16 0 11 1;
#X connect 17 0 30 0;
#X connect 18 0 17 0;
#X connect 19 0 20 0;
#X connect 19 1 18 1;
#X connect 20 0 18 0;
#X connect 21 0 20 1;
#X connect 22 0 31 0;
#X connect 23 0 22 0;
#X connect 24 0 25 0;
#X connect 24 1 23 1;
#X connect 25 0 23 0;
#X connect 26 0 25 1;
#X connect 27 0 10 0;
#X connect 27 1 19 0;
#X connect 27 2 24 0;
#X connect 27 3 34 0;
#X connect 27 4 39 0;
#X connect 27 5 44 0;
#X connect 28 0 12 0;
#X connect 32 0 47 0;
#X connect 33 0 32 0;
#X connect 34 0 35 0;
#X connect 34 1 33 1;
#X connect 35 0 33 0;
#X connect 36 0 35 1;
#X connect 37 0 48 0;
#X connect 38 0 37 0;
#X connect 39 0 40 0;
#X connect 39 1 38 1;
#X connect 40 0 38 0;
#X connect 41 0 40 1;
#X connect 42 0 49 0;
#X connect 43 0 42 0;
#X connect 44 0 45 0;
#X connect 44 1 43 1;
#X connect 45 0 43 0;
#X connect 46 0 45 1;
#X restore 722 186 pd external-messages;
#X connect 0 0 1 0;
#X connect 0 0 47 0;
#X connect 1 0 3 0;
#X connect 5 0 26 0;
#X connect 7 0 17 0;
#X connect 8 0 11 0;
#X connect 9 0 15 0;
#X connect 9 1 8 0;
#X connect 10 0 5 1;
#X connect 11 0 10 0;
#X connect 12 0 10 0;
#X connect 13 0 19 0;
#X connect 14 0 12 0;
#X connect 15 0 36 0;
#X connect 15 1 14 0;
#X connect 16 0 8 1;
#X connect 17 0 16 0;
#X connect 18 0 14 1;
#X connect 19 0 18 0;
#X connect 21 0 9 0;
#X connect 22 0 7 0;
#X connect 24 0 13 0;
#X connect 25 0 5 0;
#X connect 26 0 38 0;
#X connect 27 0 28 0;
#X connect 28 0 29 0;
#X connect 29 0 26 1;
#X connect 30 0 31 0;
#X connect 31 0 32 0;
#X connect 32 0 33 0;
#X connect 33 0 37 0;
#X connect 33 1 35 0;
#X connect 46 0 4 0;
#X connect 48 0 27 0;
#X connect 49 0 50 0;
#X connect 50 0 38 0;
#X connect 51 0 52 0;
#X connect 53 0 54 0;
#X connect 54 0 55 0;
#X connect 55 0 50 1;
#X connect 56 0 57 0;
#X connect 57 0 58 0;
#X connect 58 0 53 0;
#X connect 59 0 61 0;
#X connect 61 0 62 0;
#X connect 62 0 60 0;
#X coords 0 -1 1 1 200 140 2 100 100;
