#N canvas 0 22 1213 658 10;
#X obj 486 68 t b b;
#X obj 105 135 tgl 15 0 \$0-rec/stop-s \$0-rec/stop-r REC/STOP 17 7 0 10 #90d4b0 #000000 #000000 0 1;
#X obj 513 91 f;
#X obj 541 92 + 1;
#X obj 513 113 + 1;
#X floatatom 173 135 5 0 0 1 TAKE - - 0;
#X msg 467 214 stop;
#X obj 467 45 sel 0 1;
#X obj 486 160 delay 100;
#X msg 486 182 start;
#X obj 104 123 cnv 5 5 5 empty empty AUDIO-RECORDER 0 0 0 12 #fcfcfc #404040 0;
#X obj 103 109 cnv 5 5 5 empty empty LEFT 0 0 0 8 #fcfcfc #404040 0;
#X obj 248 108 cnv 5 5 5 empty empty RIGHT 0 0 0 8 #fcfcfc #404040 0;
#X obj 513 135 t f f;
#X obj 108 242 hsl 128 15 0 127 0 1 \$0-rec-level-s \$0-rec-level-r LEVEL 133 7 0 10 #9999de #000000 #000000 12700 1;
#N canvas 0 22 450 278 (subpatch) 0;
#X array \$0-right 512 float 0;
#X coords 0 1 511 -1 80 60 1 0 0;
#X restore 189 178 graph;
#X obj 100 342 loadbang;
#X obj 100 402 metro 200;
#X msg 100 367 1;
#X obj 238 135 bng 15 250 50 0 \$0-rec-reset-s \$0-rec-reset-r RST 17 7 0 10 #ffffff #000000 #000000;
#X obj 594 23 r \$0-rec-takenumber-s;
#X obj 579 58 f;
#X obj 579 -21 loadbang;
#X obj 647 221 *~;
#X obj 647 111 inlet~ LEFT;
#X obj 467 612 writesf~ 2;
#X obj 734 111 inlet~ RIGHT;
#X obj 734 236 *~;
#X obj 749 138 r \$0-rec-level-s;
#X obj 749 160 * 0.00787402;
#X obj 749 182 pack 0 50;
#X obj 749 204 line~;
#X obj 100 457 tabwrite~ \$0-left;
#N canvas 0 22 450 278 (subpatch) 0;
#X array \$0-left 512 float 0;
#X coords 0 1 511 -1 80 60 1 0 0;
#X restore 105 178 graph;
#X obj 214 441 tabwrite~ \$0-right;
#X obj 100 424 t b b;
#X msg 100 531 menusave;
#X obj 100 553 s pd-audio-recorder.pd;
#X obj 100 500 r SAVE-S;
#X obj 618 52 r \$0-rec-reset-s;
#X msg 618 74 0;
#X obj 250 115 bng 15 250 50 0 empty empty empty 17 7 0 10 #000000 #dc4c90 #000000;
#X obj 208 10 tgl 15 0 empty empty empty 17 7 0 10 #fcfcfc #000000 #000000 0 1;
#X obj 208 30 metro 500;
#X obj 208 73 spigot;
#X obj 208 -15 loadbang;
#X obj 570 284 f \$1;
#X obj 544 227 t f b;
#X obj 579 1 delay 250;
#X obj 857 370 reloaded audio-recorder \$0 \$1;
#X obj 897 330 savestate;
#N canvas 0 50 450 300 \$0-gui_listeners 0;
#X obj 10 0 reloaded/bng_dispatch audio-recorder \$0 \$1 250 50 rec-reset-s rec-reset-r RST #FFFFFF #000000 #000000;
#X obj 10 60 reloaded/hsl_dispatch audio-recorder \$0 \$1 0 127 rec-level-s rec-level-r LEVEL #9999DE #000000 #000000;
#X restore 857 400 pd \$0-gui_listeners;
#X obj 994 402 namecanvas \$0-this;
#X obj 306 92 r \$0-rec-takenumber-s;
#X obj 467 16 r \$0-rec/stop-s;
#X obj 656 85 s \$0-rec-takenumber-s;
#X obj 946 71 savestate;
#X obj 987 122 list append;
#X obj 992 156 list prepend -take;
#X obj 951 187 list trim;
#X obj 951 208 route -take;
#X obj 960 239 s \$0-rec-takenumber-s;
#X obj 1015 86 r \$0-rec-takenumber-s;
#X obj 240 50 r \$0-rec/stop-s;
#X msg 305 114 set \$1;
#X obj 307 143 s \$0-rec-takenumber-s;
#X obj 667 433 pdcontrol;
#X msg 666 408 dir 1;
#X obj 666 387 loadbang;
#X obj 667 454 s \$0-local_dir;
#N canvas 0 50 450 300 check_samples_dir 0;
#X obj 64 153 file isdirectory;
#X obj 144 32 r \$0-local_dir;
#X obj 172 208 symbol;
#X obj 184 271 file mkdir;
#X obj 134 88 t a a;
#X obj 144 189 t b;
#X msg 144 65 symbol \$1/recorded_wavs;
#X obj 317 175 print audio-recorder;
#X msg 319 146 creating recorded_wavs directory : \$1;
#X connect 0 1 5 0;
#X connect 1 0 6 0;
#X connect 2 0 3 0;
#X connect 2 0 8 0;
#X connect 4 0 0 0;
#X connect 4 1 2 1;
#X connect 5 0 2 0;
#X connect 6 0 4 0;
#X connect 8 0 7 0;
#X restore 667 495 pd check_samples_dir;
#X obj 540 450 pack f f s;
#X obj 608 342 r \$0-local_dir;
#X msg 539 545 open -bytes 3 \$3/recorded_wavs/audio-recorder-\$2_take\$1.wav;
#N canvas 0 50 450 300 time-display 0;
#X obj 500 128 change;
#X obj 381 116 timer, f 15;
#X obj 496 160 metro 1000;
#X obj 375 141 / 1000;
#X obj 382 189 t f f;
#X msg 342 309 label \$1:\$2;
#X obj 386 251 makefilename %02d;
#X obj 344 335 s \$0-time;
#X obj 346 261 makefilename %02d;
#X obj 332 285 pack s s;
#X obj 340 221 div 60;
#X obj 398 215 mod 60;
#X obj 444 23 r \$0-rec/stop-s;
#X obj 322 75 select 1 0;
#X connect 0 0 2 0;
#X connect 1 0 3 0;
#X connect 2 0 1 1;
#X connect 3 0 4 0;
#X connect 4 0 10 0;
#X connect 4 1 11 0;
#X connect 5 0 7 0;
#X connect 6 0 9 1;
#X connect 8 0 9 0;
#X connect 9 0 5 0;
#X connect 10 0 8 0;
#X connect 11 0 6 0;
#X connect 12 0 13 0;
#X connect 12 0 0 0;
#X connect 13 0 1 0;
#X restore 527 -63 pd time-display;
#X obj 105 156 cnv 15 163 19 empty \$0-time 00:00 20 12 0 14 #fce0c4 #404040 0;
#X obj 222 121 cnv 5 5 5 empty \$0-instance-num 7 0 0 0 12 #fcfcfc #404040 0;
#X obj 326 294 s \$0-instance-num;
#X obj 326 246 makefilename %d;
#X msg 326 271 label \$1;
#X obj 326 199 loadbang;
#X obj 326 221 f \$1;
#X connect 0 0 8 0;
#X connect 0 1 2 0;
#X connect 2 0 3 0;
#X connect 2 0 4 0;
#X connect 3 0 2 1;
#X connect 4 0 13 0;
#X connect 5 0 65 0;
#X connect 6 0 25 0;
#X connect 7 0 6 0;
#X connect 7 1 0 0;
#X connect 8 0 9 0;
#X connect 9 0 25 0;
#X connect 13 0 55 0;
#X connect 13 1 47 0;
#X connect 16 0 18 0;
#X connect 17 0 35 0;
#X connect 18 0 17 0;
#X connect 20 0 21 1;
#X connect 21 0 2 1;
#X connect 22 0 48 0;
#X connect 23 0 32 0;
#X connect 23 0 25 0;
#X connect 24 0 23 0;
#X connect 26 0 27 0;
#X connect 27 0 34 0;
#X connect 27 0 25 1;
#X connect 28 0 29 0;
#X connect 29 0 30 0;
#X connect 30 0 31 0;
#X connect 31 0 27 1;
#X connect 31 0 23 1;
#X connect 35 0 32 0;
#X connect 35 1 34 0;
#X connect 36 0 37 0;
#X connect 39 0 40 0;
#X connect 40 0 2 1;
#X connect 40 0 55 0;
#X connect 42 0 43 0;
#X connect 43 0 44 0;
#X connect 44 0 41 0;
#X connect 45 0 42 0;
#X connect 46 0 71 1;
#X connect 47 0 71 0;
#X connect 47 1 46 0;
#X connect 48 0 21 0;
#X connect 49 0 50 0;
#X connect 50 0 49 0;
#X connect 50 1 49 1;
#X connect 53 0 64 0;
#X connect 54 0 7 0;
#X connect 56 0 59 0;
#X connect 56 1 57 0;
#X connect 57 0 58 0;
#X connect 58 0 56 0;
#X connect 59 0 60 0;
#X connect 60 0 61 0;
#X connect 62 0 57 1;
#X connect 63 0 44 1;
#X connect 64 0 5 0;
#X connect 66 0 69 0;
#X connect 67 0 66 0;
#X connect 68 0 67 0;
#X connect 71 0 73 0;
#X connect 72 0 71 2;
#X connect 73 0 25 0;
#X connect 78 0 79 0;
#X connect 79 0 77 0;
#X connect 80 0 81 0;
#X connect 81 0 78 0;
#X coords 0 -1 1 1 174 164 2 100 100;
