#N canvas 328 23 1101 806 10;
#X obj 100 31 inlet~;
#X obj 100 54 sigmund~ -npeak 8 peaks;
#N canvas 0 23 1013 573 resynthesis 0;
#X obj 71 177 *~;
#X obj 123 140 pack 0 10;
#X obj 123 161 line~;
#X obj 71 198 throw~ \$0-SUM;
#X text 784 30 LFO;
#X obj 72 66 line~;
#X obj 72 45 pack 0 1;
#X obj 131 43 r~ \$0-freeze-LFO;
#X obj 72 108 phasor~;
#X obj 72 129 +~;
#X obj 72 150 cos~;
#X obj 254 169 *~;
#X obj 306 132 pack 0 10;
#X obj 306 153 line~;
#X obj 254 190 throw~ \$0-SUM;
#X obj 255 58 line~;
#X obj 255 37 pack 0 1;
#X obj 314 35 r~ \$0-freeze-LFO;
#X obj 255 100 phasor~;
#X obj 255 121 +~;
#X obj 255 142 cos~;
#X obj 432 170 *~;
#X obj 484 133 pack 0 10;
#X obj 484 154 line~;
#X obj 432 191 throw~ \$0-SUM;
#X obj 433 59 line~;
#X obj 433 38 pack 0 1;
#X obj 492 36 r~ \$0-freeze-LFO;
#X obj 433 101 phasor~;
#X obj 433 122 +~;
#X obj 433 143 cos~;
#X obj 606 166 *~;
#X obj 658 129 pack 0 10;
#X obj 658 150 line~;
#X obj 606 187 throw~ \$0-SUM;
#X obj 607 55 line~;
#X obj 607 34 pack 0 1;
#X obj 666 32 r~ \$0-freeze-LFO;
#X obj 607 92 phasor~;
#X obj 607 118 +~;
#X obj 607 139 cos~;
#X obj 63 391 *~;
#X obj 115 354 pack 0 10;
#X obj 115 375 line~;
#X obj 63 412 throw~ \$0-SUM;
#X obj 64 280 line~;
#X obj 64 259 pack 0 1;
#X obj 123 257 r~ \$0-freeze-LFO;
#X obj 64 322 phasor~;
#X obj 64 343 +~;
#X obj 64 364 cos~;
#X obj 246 383 *~;
#X obj 298 346 pack 0 10;
#X obj 298 367 line~;
#X obj 246 404 throw~ \$0-SUM;
#X obj 247 272 line~;
#X obj 247 251 pack 0 1;
#X obj 306 249 r~ \$0-freeze-LFO;
#X obj 247 314 phasor~;
#X obj 247 335 +~;
#X obj 247 356 cos~;
#X obj 424 384 *~;
#X obj 476 347 pack 0 10;
#X obj 476 368 line~;
#X obj 424 405 throw~ \$0-SUM;
#X obj 425 273 line~;
#X obj 425 252 pack 0 1;
#X obj 484 250 r~ \$0-freeze-LFO;
#X obj 425 315 phasor~;
#X obj 425 336 +~;
#X obj 425 357 cos~;
#X obj 598 380 *~;
#X obj 650 343 pack 0 10;
#X obj 650 364 line~;
#X obj 598 401 throw~ \$0-SUM;
#X obj 599 269 line~;
#X obj 599 248 pack 0 1;
#X obj 658 246 r~ \$0-freeze-LFO;
#X obj 599 311 phasor~;
#X obj 599 332 +~;
#X obj 599 353 cos~;
#X obj 72 24 r \$0-freq1;
#X obj 123 119 r \$0-amp1;
#X obj 255 16 r \$0-freq2;
#X obj 306 111 r \$0-amp2;
#X obj 432 17 r \$0-freq3;
#X obj 484 112 r \$0-amp3;
#X obj 606 13 r \$0-freq4;
#X obj 658 108 r \$0-amp4;
#X obj 64 238 r \$0-freq5;
#X obj 115 333 r \$0-amp5;
#X obj 247 229 r \$0-freq6;
#X obj 298 325 r \$0-amp6;
#X obj 424 230 r \$0-freq7;
#X obj 476 326 r \$0-amp7;
#X obj 598 227 r \$0-freq8;
#X obj 650 322 r \$0-amp8;
#X obj 829 255 == 0;
#X obj 829 283 switch~;
#X obj 829 232 r \$0-mode-s;
#X connect 0 0 3 0;
#X connect 1 0 2 0;
#X connect 2 0 0 1;
#X connect 5 0 8 0;
#X connect 6 0 5 0;
#X connect 7 0 9 1;
#X connect 8 0 9 0;
#X connect 9 0 10 0;
#X connect 10 0 0 0;
#X connect 11 0 14 0;
#X connect 12 0 13 0;
#X connect 13 0 11 1;
#X connect 15 0 18 0;
#X connect 16 0 15 0;
#X connect 17 0 19 1;
#X connect 18 0 19 0;
#X connect 19 0 20 0;
#X connect 20 0 11 0;
#X connect 21 0 24 0;
#X connect 22 0 23 0;
#X connect 23 0 21 1;
#X connect 25 0 28 0;
#X connect 26 0 25 0;
#X connect 27 0 29 1;
#X connect 28 0 29 0;
#X connect 29 0 30 0;
#X connect 30 0 21 0;
#X connect 31 0 34 0;
#X connect 32 0 33 0;
#X connect 33 0 31 1;
#X connect 35 0 38 0;
#X connect 36 0 35 0;
#X connect 37 0 39 1;
#X connect 38 0 39 0;
#X connect 39 0 40 0;
#X connect 40 0 31 0;
#X connect 41 0 44 0;
#X connect 42 0 43 0;
#X connect 43 0 41 1;
#X connect 45 0 48 0;
#X connect 46 0 45 0;
#X connect 47 0 49 1;
#X connect 48 0 49 0;
#X connect 49 0 50 0;
#X connect 50 0 41 0;
#X connect 51 0 54 0;
#X connect 52 0 53 0;
#X connect 53 0 51 1;
#X connect 55 0 58 0;
#X connect 56 0 55 0;
#X connect 57 0 59 1;
#X connect 58 0 59 0;
#X connect 59 0 60 0;
#X connect 60 0 51 0;
#X connect 61 0 64 0;
#X connect 62 0 63 0;
#X connect 63 0 61 1;
#X connect 65 0 68 0;
#X connect 66 0 65 0;
#X connect 67 0 69 1;
#X connect 68 0 69 0;
#X connect 69 0 70 0;
#X connect 70 0 61 0;
#X connect 71 0 74 0;
#X connect 72 0 73 0;
#X connect 73 0 71 1;
#X connect 75 0 78 0;
#X connect 76 0 75 0;
#X connect 77 0 79 1;
#X connect 78 0 79 0;
#X connect 79 0 80 0;
#X connect 80 0 71 0;
#X connect 81 0 6 0;
#X connect 82 0 1 0;
#X connect 83 0 16 0;
#X connect 84 0 12 0;
#X connect 85 0 26 0;
#X connect 86 0 22 0;
#X connect 87 0 36 0;
#X connect 88 0 32 0;
#X connect 89 0 46 0;
#X connect 90 0 42 0;
#X connect 91 0 56 0;
#X connect 92 0 52 0;
#X connect 93 0 66 0;
#X connect 94 0 62 0;
#X connect 95 0 76 0;
#X connect 96 0 72 0;
#X connect 97 0 98 0;
#X connect 99 0 97 0;
#X restore 380 362 pd resynthesis;
#N canvas 0 23 918 570 partials 0;
#X obj 64 45 route 0 1 2 3 4 5 6 7;
#X obj 63 118 unpack f f;
#X floatatom 63 139 5 0 0 0 - - - 0;
#X floatatom 120 142 5 0 0 0 - - - 0;
#X obj 32 221 f, f 6;
#X obj 106 220 f;
#X obj 32 182 t b b;
#X obj 64 18 inlet;
#X obj 191 216 unpack f f;
#X floatatom 191 237 5 0 0 0 - - - 0;
#X floatatom 248 240 5 0 0 0 - - - 0;
#X obj 160 319 f, f 6;
#X obj 234 318 f;
#X obj 160 280 t b b;
#X obj 314 134 unpack f f;
#X floatatom 314 155 5 0 0 0 - - - 0;
#X floatatom 371 158 5 0 0 0 - - - 0;
#X obj 283 237 f, f 6;
#X obj 357 236 f;
#X obj 283 198 t b b;
#X obj 452 139 unpack f f;
#X floatatom 452 160 5 0 0 0 - - - 0;
#X floatatom 509 163 5 0 0 0 - - - 0;
#X obj 421 242 f, f 6;
#X obj 495 241 f;
#X obj 421 203 t b b;
#X obj 424 301 unpack f f;
#X floatatom 424 322 5 0 0 0 - - - 0;
#X floatatom 481 325 5 0 0 0 - - - 0;
#X obj 393 404 f, f 6;
#X obj 467 403 f;
#X obj 393 365 t b b;
#X obj 578 301 unpack f f;
#X floatatom 578 322 5 0 0 0 - - - 0;
#X floatatom 635 325 5 0 0 0 - - - 0;
#X obj 547 404 f, f 6;
#X obj 621 403 f;
#X obj 547 365 t b b;
#X obj 610 134 unpack f f;
#X floatatom 610 155 5 0 0 0 - - - 0;
#X floatatom 667 158 5 0 0 0 - - - 0;
#X obj 579 237 f, f 6;
#X obj 653 236 f;
#X obj 579 198 t b b;
#X obj 749 335 unpack f f;
#X floatatom 749 356 5 0 0 0 - - - 0;
#X floatatom 806 359 5 0 0 0 - - - 0;
#X obj 718 438 f, f 6;
#X obj 792 437 f;
#X obj 718 399 t b b;
#X obj 32 161 r \$0-freeze!;
#X obj 160 259 r \$0-freeze!;
#X obj 283 177 r \$0-freeze!;
#X obj 421 182 r \$0-freeze!;
#X obj 393 344 r \$0-freeze!;
#X obj 547 344 r \$0-freeze!;
#X obj 579 177 r \$0-freeze!;
#X obj 718 378 r \$0-freeze!;
#X obj 32 242 s \$0-freq1;
#X obj 106 241 s \$0-amp1;
#X obj 160 340 s \$0-freq2;
#X obj 234 339 s \$0-amp2;
#X obj 283 258 s \$0-freq3;
#X obj 357 257 s \$0-amp3;
#X obj 421 263 s \$0-freq4;
#X obj 393 425 s \$0-freq5;
#X obj 467 424 s \$0-amp5;
#X obj 495 262 s \$0-amp4;
#X obj 546 425 s \$0-freq6;
#X obj 621 424 s \$0-amp6;
#X obj 578 258 s \$0-freq7;
#X obj 653 257 s \$0-amp7;
#X obj 717 460 s \$0-freq8;
#X obj 792 458 s \$0-amp9;
#X connect 0 0 1 0;
#X connect 0 1 8 0;
#X connect 0 2 14 0;
#X connect 0 3 20 0;
#X connect 0 4 26 0;
#X connect 0 5 32 0;
#X connect 0 6 38 0;
#X connect 0 7 44 0;
#X connect 1 0 2 0;
#X connect 1 1 3 0;
#X connect 2 0 4 1;
#X connect 3 0 5 1;
#X connect 4 0 58 0;
#X connect 5 0 59 0;
#X connect 6 0 4 0;
#X connect 6 1 5 0;
#X connect 7 0 0 0;
#X connect 8 0 9 0;
#X connect 8 1 10 0;
#X connect 9 0 11 1;
#X connect 10 0 12 1;
#X connect 11 0 60 0;
#X connect 12 0 61 0;
#X connect 13 0 11 0;
#X connect 13 1 12 0;
#X connect 14 0 15 0;
#X connect 14 1 16 0;
#X connect 15 0 17 1;
#X connect 16 0 18 1;
#X connect 17 0 62 0;
#X connect 18 0 63 0;
#X connect 19 0 17 0;
#X connect 19 1 18 0;
#X connect 20 0 21 0;
#X connect 20 1 22 0;
#X connect 21 0 23 1;
#X connect 22 0 24 1;
#X connect 23 0 64 0;
#X connect 24 0 67 0;
#X connect 25 0 23 0;
#X connect 25 1 24 0;
#X connect 26 0 27 0;
#X connect 26 1 28 0;
#X connect 27 0 29 1;
#X connect 28 0 30 1;
#X connect 29 0 65 0;
#X connect 30 0 66 0;
#X connect 31 0 29 0;
#X connect 31 1 30 0;
#X connect 32 0 33 0;
#X connect 32 1 34 0;
#X connect 33 0 35 1;
#X connect 34 0 36 1;
#X connect 35 0 68 0;
#X connect 36 0 69 0;
#X connect 37 0 35 0;
#X connect 37 1 36 0;
#X connect 38 0 39 0;
#X connect 38 1 40 0;
#X connect 39 0 41 1;
#X connect 40 0 42 1;
#X connect 41 0 70 0;
#X connect 42 0 71 0;
#X connect 43 0 41 0;
#X connect 43 1 42 0;
#X connect 44 0 45 0;
#X connect 44 1 46 0;
#X connect 45 0 47 1;
#X connect 46 0 48 1;
#X connect 47 0 72 0;
#X connect 48 0 73 0;
#X connect 49 0 47 0;
#X connect 49 1 48 0;
#X connect 50 0 6 0;
#X connect 51 0 13 0;
#X connect 52 0 19 0;
#X connect 53 0 25 0;
#X connect 54 0 31 0;
#X connect 55 0 37 0;
#X connect 56 0 43 0;
#X connect 57 0 49 0;
#X restore 100 76 pd partials;
#X obj 228 129 tgl 15 0 \$0-freeze-freeze!-s \$0-freeze-freeze!-r FREEZE 17 7 0 10 #ffffff #000000 #000000 0 1;
#X obj 379 414 *~;
#X obj 113 144 hsl 128 15 0 127 0 0 \$0-freeze-attack-s \$0-freeze-attack-r ATTACK 133 7 0 10 #ffffff #000000 #000000 0 1;
#X obj 497 118 / 127;
#X obj 482 251 f;
#X obj 377 234 sel 1 0;
#X obj 482 399 line~;
#X msg 482 279 0 \$1;
#X msg 546 332 1 \$1;
#X obj 561 234 / 127;
#X obj 546 306 f;
#X obj 378 290 t b b;
#X obj 497 160 + 10;
#X obj 497 139 * 1990;
#X obj 561 276 + 10;
#X obj 561 255 * 1990;
#X obj 113 209 hsl 128 15 0 127 0 0 \$0-freeze-dry/wet-s \$0-freeze-dry/wet-r DRY/WET 133 7 0 10 #8581d6 #000000 #000000 0 1;
#X obj 375 69 r \$0-freeze-freeze!-s;
#X obj 497 92 r \$0-freeze-decay-s;
#X obj 113 159 hsl 128 15 0 127 0 0 \$0-freeze-decay-s \$0-freeze-decay-r DECAY 133 7 0 10 #ffffff #000000 #000000 0 1;
#X obj 561 210 r \$0-freeze-attack-s;
#X obj 379 385 catch~ \$0-SUM;
#X obj 380 478 *~;
#X obj 524 422 / 127;
#X obj 524 442 pack 0 10;
#X obj 524 463 line~;
#X obj 671 25 inlet~ FREEZE;
#X obj 671 46 threshold~ 0.9 0 0.9 0;
#X msg 671 67 bang;
#X obj 671 88 t b b;
#X obj 274 114 bng 15 250 50 0 empty \$0-freeze-gui-r empty 17 7 0 10 #fcfcfc #d0307c #000000;
#X obj 698 116 s \$0-freeze-gui-r;
#X obj 378 324 s \$0-freeze!;
#X obj 671 141 s \$0-freeze-freeze!-r;
#X obj 380 511 outlet~;
#X obj 110 135 cnv 5 5 5 empty empty AUDIOFREEZE 0 0 0 12 #fcfcfc #404040 0;
#X obj 105 253 cnv 5 5 5 empty empty OUT 0 0 0 8 #fcfcfc #404040 0;
#X obj 199 135 cnv 5 5 5 empty \$0-instance-num 1 0 0 0 12 #fcfcfc #404040 0;
#X obj 266 109 cnv 5 5 5 empty empty FREEZE 0 0 0 8 #fcfcfc #d0307c 0;
#X obj 105 109 cnv 5 5 5 empty empty IN 0 0 0 8 #fcfcfc #404040 0;
#X obj 113 194 hsl 128 15 0 127 0 0 \$0-freeze-modindex-s \$0-freeze-modindex-r MODINDEX 133 7 0 10 #8581d6 #000000 #000000 0 1;
#X obj 113 179 hsl 128 15 0 127 0 0 \$0-freeze-modrate-s \$0-freeze-modrate-r MODRATE 133 7 0 10 #ffffff #000000 #000000 0 1;
#X obj 35 77 s~ \$0-DRY;
#X obj 524 401 r \$0-freeze-dry/wet-s;
#X obj 167 373 r~ \$0-DRY;
#X obj 167 445 *~;
#X obj 321 445 pack 0 10;
#X obj 321 466 line~;
#X obj 233 389 / 127;
#X obj 233 409 pack 0 10;
#X obj 233 430 line~;
#X obj 233 325 r \$0-freeze-dry/wet-s;
#X msg 233 346 127 \$1;
#X obj 233 367 -;
#N canvas 315 35 593 735 state-saving-multiple-instances 0;
#X obj 137 29 loadbang;
#X msg 454 435 rewind;
#X msg 411 435 bang;
#X obj 42 691 reloaded/textfile \$0;
#X obj 411 396 t b b;
#X obj 43 357 f;
#X obj 56 580 f;
#X obj -16 401 t b b b;
#X msg 119 580 clear;
#X obj 204 217 outlet;
#X text 246 221 INSTANCE NUMBER;
#X obj 165 153 f \$1;
#X obj 165 189 t f f f;
#X obj 138 62 t b b;
#X obj -16 378 bng 15 250 50 0 empty \$0-save-s empty 17 7 0 10 #fcfcfc #000000 #000000;
#X obj -16 234 r SAVE-S;
#X obj 58 254 r \$0-freeze-freeze!-s;
#X obj 184 627 s \$0-freeze-freeze!-r;
#X obj 66 277 r \$0-freeze-attack-s;
#X obj 205 603 s \$0-freeze-attack-r;
#X obj 80 298 r \$0-freeze-decay-s;
#X obj 226 579 s \$0-freeze-decay-r;
#X obj 98 323 r \$0-freeze-modrate-s;
#X obj 247 555 s \$0-freeze-modrate-r;
#X obj 118 348 r \$0-freeze-modindex-s;
#X obj 268 529 s \$0-freeze-modindex-r;
#X obj 136 369 r \$0-freeze-dry/wet-s;
#X obj 289 505 s \$0-freeze-dry/wet-r;
#X msg 184 427 read statesave/\$1-audiofreeze-ss.txt;
#X msg 55 651 write statesave/\$1-audiofreeze-ss.txt;
#X obj 184 452 reloaded/textfile \$0 init;
#X obj 43 400 pack f f f f f f f;
#X obj 276 369 r \$0-mode-s;
#X msg 43 438 set \$1 \$2 \$3 \$4 \$5 \$6 \$7;
#X obj 184 474 unpack f f f f f f f;
#X obj 446 499 s \$0-mode-r;
#X connect 0 0 13 0;
#X connect 1 0 30 0;
#X connect 2 0 30 0;
#X connect 4 0 2 0;
#X connect 4 1 1 0;
#X connect 5 0 31 0;
#X connect 6 0 29 0;
#X connect 7 0 6 0;
#X connect 7 1 5 0;
#X connect 7 2 8 0;
#X connect 8 0 3 0;
#X connect 11 0 12 0;
#X connect 12 0 6 1;
#X connect 12 1 28 0;
#X connect 12 2 9 0;
#X connect 13 0 4 0;
#X connect 13 1 11 0;
#X connect 14 0 7 0;
#X connect 15 0 14 0;
#X connect 16 0 5 1;
#X connect 18 0 31 1;
#X connect 20 0 31 2;
#X connect 22 0 31 3;
#X connect 24 0 31 4;
#X connect 26 0 31 5;
#X connect 28 0 30 0;
#X connect 29 0 3 0;
#X connect 30 0 34 0;
#X connect 31 0 33 0;
#X connect 32 0 31 6;
#X connect 33 0 3 0;
#X connect 34 0 17 0;
#X connect 34 1 19 0;
#X connect 34 2 21 0;
#X connect 34 3 23 0;
#X connect 34 4 25 0;
#X connect 34 5 27 0;
#X connect 34 6 35 0;
#X restore 721 251 pd state-saving-multiple-instances;
#X obj 721 322 s \$0-instance-num;
#X obj 721 274 makefilename %d;
#X msg 721 299 label \$1;
#N canvas 314 23 1126 739 state-saving-via-preset-manager-module 0;
#X obj 340 227 reloaded/textfile \$0;
#X msg 719 211 rewind;
#X msg 676 211 bang;
#X obj 106 568 reloaded/textfile \$0;
#X obj 676 172 t b b;
#X obj 107 234 f;
#X obj 120 457 f;
#X obj 53 352 t b b b;
#X msg 236 499 clear;
#X obj 107 56 delay 5;
#X obj 53 407 delay 10;
#X msg 53 192 bang;
#X obj 53 26 r STORE-S!;
#X obj 340 128 f;
#X obj 313 96 t b b;
#X obj 327 59 t b f;
#X obj 385 146 f \$1;
#X obj 340 173 pack f f;
#X obj 385 96 loadbang;
#X obj 120 487 pack f f;
#X obj 165 440 loadbang;
#X obj 165 462 f \$1;
#X obj 328 8 r preset-manager-scan;
#X obj 135 418 r preset-manager-store-slot;
#X obj 328 30 i;
#N canvas 0 22 1069 747 morph-parameters 0;
#X obj 176 94 inlet;
#X obj 176 236 pack f f;
#X obj 176 261 line;
#X obj 209 117 r preset-manager-morph-s;
#X msg 72 244 stop;
#X obj 72 214 r STOP-MORPH!;
#X obj 209 206 spigot;
#X obj 398 137 t f f;
#X obj 455 154 == 0;
#X obj 221 176 f;
#X floatatom 455 222 5 0 0 0 - - - 0;
#X obj 398 159 t b f;
#X floatatom 425 192 5 0 0 0 - - - 0;
#X obj 209 139 t f f;
#X obj 398 102 r parameters-s;
#X obj 176 288 outlet;
#X connect 0 0 1 0;
#X connect 1 0 2 0;
#X connect 2 0 15 0;
#X connect 3 0 13 0;
#X connect 4 0 2 0;
#X connect 5 0 4 0;
#X connect 6 0 1 1;
#X connect 7 0 11 0;
#X connect 7 1 8 0;
#X connect 8 0 10 0;
#X connect 9 0 6 0;
#X connect 10 0 1 1;
#X connect 11 0 9 0;
#X connect 11 1 12 0;
#X connect 12 0 6 1;
#X connect 13 0 6 0;
#X connect 13 1 9 1;
#X connect 14 0 7 0;
#X restore 345 689 pd morph-parameters;
#N canvas 0 22 1069 747 morph-parameters 0;
#X obj 176 94 inlet;
#X obj 176 236 pack f f;
#X obj 176 261 line;
#X obj 209 117 r preset-manager-morph-s;
#X msg 72 244 stop;
#X obj 72 214 r STOP-MORPH!;
#X obj 209 206 spigot;
#X obj 398 137 t f f;
#X obj 455 154 == 0;
#X obj 221 176 f;
#X floatatom 455 222 5 0 0 0 - - - 0;
#X obj 398 159 t b f;
#X floatatom 425 192 5 0 0 0 - - - 0;
#X obj 209 139 t f f;
#X obj 398 102 r parameters-s;
#X obj 176 288 outlet;
#X connect 0 0 1 0;
#X connect 1 0 2 0;
#X connect 2 0 15 0;
#X connect 3 0 13 0;
#X connect 4 0 2 0;
#X connect 5 0 4 0;
#X connect 6 0 1 1;
#X connect 7 0 11 0;
#X connect 7 1 8 0;
#X connect 8 0 10 0;
#X connect 9 0 6 0;
#X connect 10 0 1 1;
#X connect 11 0 9 0;
#X connect 11 1 12 0;
#X connect 12 0 6 1;
#X connect 13 0 6 0;
#X connect 13 1 9 1;
#X connect 14 0 7 0;
#X restore 365 591 pd morph-parameters;
#N canvas 0 22 1069 747 morph-parameters 0;
#X obj 176 94 inlet;
#X obj 176 236 pack f f;
#X obj 176 261 line;
#X obj 209 117 r preset-manager-morph-s;
#X msg 72 244 stop;
#X obj 72 214 r STOP-MORPH!;
#X obj 209 206 spigot;
#X obj 398 137 t f f;
#X obj 455 154 == 0;
#X obj 221 176 f;
#X floatatom 455 222 5 0 0 0 - - - 0;
#X obj 398 159 t b f;
#X floatatom 425 192 5 0 0 0 - - - 0;
#X obj 209 139 t f f;
#X obj 398 102 r parameters-s;
#X obj 176 288 outlet;
#X connect 0 0 1 0;
#X connect 1 0 2 0;
#X connect 2 0 15 0;
#X connect 3 0 13 0;
#X connect 4 0 2 0;
#X connect 5 0 4 0;
#X connect 6 0 1 1;
#X connect 7 0 11 0;
#X connect 7 1 8 0;
#X connect 8 0 10 0;
#X connect 9 0 6 0;
#X connect 10 0 1 1;
#X connect 11 0 9 0;
#X connect 11 1 12 0;
#X connect 12 0 6 1;
#X connect 13 0 6 0;
#X connect 13 1 9 1;
#X connect 14 0 7 0;
#X restore 383 489 pd morph-parameters;
#N canvas 0 22 1069 747 morph-parameters 0;
#X obj 176 94 inlet;
#X obj 176 236 pack f f;
#X obj 176 261 line;
#X obj 209 117 r preset-manager-morph-s;
#X msg 72 244 stop;
#X obj 72 214 r STOP-MORPH!;
#X obj 209 206 spigot;
#X obj 398 137 t f f;
#X obj 455 154 == 0;
#X obj 221 176 f;
#X floatatom 455 222 5 0 0 0 - - - 0;
#X obj 398 159 t b f;
#X floatatom 425 192 5 0 0 0 - - - 0;
#X obj 209 139 t f f;
#X obj 398 102 r parameters-s;
#X obj 176 288 outlet;
#X connect 0 0 1 0;
#X connect 1 0 2 0;
#X connect 2 0 15 0;
#X connect 3 0 13 0;
#X connect 4 0 2 0;
#X connect 5 0 4 0;
#X connect 6 0 1 1;
#X connect 7 0 11 0;
#X connect 7 1 8 0;
#X connect 8 0 10 0;
#X connect 9 0 6 0;
#X connect 10 0 1 1;
#X connect 11 0 9 0;
#X connect 11 1 12 0;
#X connect 12 0 6 1;
#X connect 13 0 6 0;
#X connect 13 1 9 1;
#X connect 14 0 7 0;
#X restore 399 389 pd morph-parameters;
#X msg 119 528 write statesave/\$1-\$2-audiofreeze-ss.txt;
#X msg 340 202 read statesave/\$1-\$2-audiofreeze-ss.txt;
#X obj 123 78 r \$0-freeze-freeze!-s;
#X obj 345 714 s \$0-freeze-freeze!-r;
#X obj 136 107 r \$0-freeze-attack-s;
#X obj 366 617 s \$0-freeze-attack-r;
#X obj 146 146 r \$0-freeze-decay-s;
#X obj 384 517 s \$0-freeze-decay-r;
#X obj 169 173 r \$0-freeze-modrate-s;
#X obj 400 414 s \$0-freeze-modrate-r;
#X obj 190 209 r \$0-freeze-modindex-s;
#X obj 561 697 s \$0-freeze-modindex-r;
#N canvas 0 23 1069 747 morph-attenuators 0;
#X obj 176 94 inlet;
#X obj 176 236 pack f f;
#X obj 176 261 line;
#X obj 209 117 r preset-manager-morph-s;
#X msg 72 244 stop;
#X obj 72 214 r STOP-MORPH!;
#X obj 209 206 spigot;
#X obj 398 137 t f f;
#X obj 455 154 == 0;
#X obj 221 176 f;
#X floatatom 455 222 5 0 0 0 - - - 0;
#X obj 398 159 t b f;
#X floatatom 425 192 5 0 0 0 - - - 0;
#X obj 209 139 t f f;
#X obj 176 288 outlet;
#X obj 398 102 r attenuators-s;
#X connect 0 0 1 0;
#X connect 1 0 2 0;
#X connect 2 0 14 0;
#X connect 3 0 13 0;
#X connect 4 0 2 0;
#X connect 5 0 4 0;
#X connect 6 0 1 1;
#X connect 7 0 11 0;
#X connect 7 1 8 0;
#X connect 8 0 10 0;
#X connect 9 0 6 0;
#X connect 10 0 1 1;
#X connect 11 0 9 0;
#X connect 11 1 12 0;
#X connect 12 0 6 1;
#X connect 13 0 6 0;
#X connect 13 1 9 1;
#X connect 15 0 7 0;
#X restore 560 670 pd morph-attenuators;
#X obj 616 474 s \$0-freeze-dry/wet-r;
#X obj 207 237 r \$0-freeze-dry/wet-s;
#N canvas 0 23 1069 747 morph-attenuators 0;
#X obj 176 94 inlet;
#X obj 176 236 pack f f;
#X obj 176 261 line;
#X obj 209 117 r preset-manager-morph-s;
#X msg 72 244 stop;
#X obj 72 214 r STOP-MORPH!;
#X obj 209 206 spigot;
#X obj 398 137 t f f;
#X obj 455 154 == 0;
#X obj 221 176 f;
#X floatatom 455 222 5 0 0 0 - - - 0;
#X obj 398 159 t b f;
#X floatatom 425 192 5 0 0 0 - - - 0;
#X obj 209 139 t f f;
#X obj 176 288 outlet;
#X obj 398 102 r attenuators-s;
#X connect 0 0 1 0;
#X connect 1 0 2 0;
#X connect 2 0 14 0;
#X connect 3 0 13 0;
#X connect 4 0 2 0;
#X connect 5 0 4 0;
#X connect 6 0 1 1;
#X connect 7 0 11 0;
#X connect 7 1 8 0;
#X connect 8 0 10 0;
#X connect 9 0 6 0;
#X connect 10 0 1 1;
#X connect 11 0 9 0;
#X connect 11 1 12 0;
#X connect 12 0 6 1;
#X connect 13 0 6 0;
#X connect 13 1 9 1;
#X connect 15 0 7 0;
#X restore 615 447 pd morph-attenuators;
#X obj 107 301 pack f f f f f f f;
#X msg 106 368 set \$1 \$2 \$3 \$4 \$5 \$6 \$7;
#X obj 229 274 r \$0-mode-s;
#X obj 340 249 unpack f f f f f f f;
#X obj 533 303 s \$0-mode-r;
#X connect 0 0 48 0;
#X connect 1 0 0 0;
#X connect 2 0 0 0;
#X connect 4 0 2 0;
#X connect 4 1 1 0;
#X connect 5 0 45 0;
#X connect 6 0 19 0;
#X connect 7 0 10 0;
#X connect 7 1 9 0;
#X connect 7 2 8 0;
#X connect 8 0 3 0;
#X connect 9 0 5 0;
#X connect 10 0 6 0;
#X connect 11 0 7 0;
#X connect 12 0 11 0;
#X connect 13 0 17 0;
#X connect 14 0 4 0;
#X connect 14 1 13 0;
#X connect 15 0 14 0;
#X connect 15 1 13 1;
#X connect 16 0 17 1;
#X connect 17 0 30 0;
#X connect 18 0 16 0;
#X connect 19 0 29 0;
#X connect 20 0 21 0;
#X connect 21 0 19 1;
#X connect 22 0 24 0;
#X connect 23 0 6 1;
#X connect 24 0 15 0;
#X connect 25 0 32 0;
#X connect 26 0 34 0;
#X connect 27 0 36 0;
#X connect 28 0 38 0;
#X connect 29 0 3 0;
#X connect 30 0 0 0;
#X connect 31 0 5 1;
#X connect 33 0 45 1;
#X connect 35 0 45 2;
#X connect 37 0 45 3;
#X connect 39 0 45 4;
#X connect 41 0 40 0;
#X connect 43 0 45 5;
#X connect 44 0 42 0;
#X connect 45 0 46 0;
#X connect 46 0 3 0;
#X connect 47 0 45 6;
#X connect 48 0 25 0;
#X connect 48 1 26 0;
#X connect 48 2 27 0;
#X connect 48 3 28 0;
#X connect 48 4 41 0;
#X connect 48 5 44 0;
#X connect 48 6 49 0;
#X restore 721 229 pd state-saving-via-preset-manager-module;
#N canvas 644 300 683 471 parameter-nudging-system 0;
#X obj 8 73 clip 0 127;
#X obj 256 68 clip 0 127;
#X obj 552 50 clip 0 127;
#X obj 8 28 r \$0-freeze-attack-s;
#X obj 8 101 s \$0-freeze-attack-r;
#X obj 261 21 r \$0-freeze-decay-s;
#X obj 261 94 s \$0-freeze-decay-r;
#X obj 552 3 r \$0-freeze-modrate-s;
#X obj 552 76 s \$0-freeze-modrate-r;
#X obj 22 177 clip 0 127;
#X obj 22 132 r \$0-freeze-modindex-s;
#X obj 22 205 s \$0-freeze-modindex-r;
#X obj 278 175 clip 0 127;
#X obj 278 130 r \$0-freeze-dry/wet-s;
#X obj 278 203 s \$0-freeze-dry/wet-r;
#X obj 7 50 reloaded/nudge-parameters;
#X obj 261 44 reloaded/nudge-parameters;
#X obj 552 26 reloaded/nudge-parameters;
#X obj 278 152 reloaded/nudge-attenuators;
#X obj 22 154 reloaded/nudge-attenuators;
#X connect 0 0 4 0;
#X connect 1 0 6 0;
#X connect 2 0 8 0;
#X connect 3 0 15 0;
#X connect 5 0 16 0;
#X connect 7 0 17 0;
#X connect 9 0 11 0;
#X connect 10 0 19 0;
#X connect 12 0 14 0;
#X connect 13 0 18 0;
#X connect 15 0 0 0;
#X connect 16 0 1 0;
#X connect 17 0 2 0;
#X connect 18 0 12 0;
#X connect 19 0 9 0;
#X restore 721 208 pd parameter-nudging-system;
#N canvas 691 23 749 752 external-messages 0;
#X floatatom 186 706 5 0 0 0 - - - 0;
#X obj 185 328 spigot;
#X obj 218 288 tgl 15 0 empty empty empty 17 7 0 10 #fcfcfc #000000 #000000 0 1;
#X obj 254 272 ==;
#X obj 269 248 f \$1;
#X obj 269 224 loadbang;
#X msg 185 202 \$1 \$2;
#X msg 185 156 symbol \$1;
#X obj 185 180 pack s f;
#X obj 186 685 f;
#X obj 186 633 t b f;
#X obj 186 656 spigot;
#X obj 185 62 unpack s f f;
#X symbolatom 185 94 10 0 0 0 - - - 0;
#X obj 218 308 t f f;
#X obj 245 332 s \$0-msg-spigot;
#X obj 234 640 r \$0-msg-spigot;
#X floatatom 234 580 5 0 0 0 - - - 0;
#X obj 234 559 f;
#X obj 234 507 t b f;
#X obj 234 530 spigot;
#X obj 282 514 r \$0-msg-spigot;
#X floatatom 387 639 5 0 0 0 - - - 0;
#X obj 387 618 f;
#X obj 387 566 t b f;
#X obj 387 589 spigot;
#X obj 435 573 r \$0-msg-spigot;
#X obj 185 380 route FREEZE ATTACK DECAY MODRATE MODINDEX DRY/WET;
#X obj 185 14 r audiofreeze;
#X obj 186 726 s \$0-freeze-freeze!-r;
#X obj 234 600 s \$0-freeze-attack-r;
#X obj 387 659 s \$0-freeze-decay-r;
#X floatatom 530 681 5 0 0 0 - - - 0;
#X obj 530 660 f;
#X obj 530 608 t b f;
#X obj 530 631 spigot;
#X obj 578 615 r \$0-msg-spigot;
#X floatatom 578 555 5 0 0 0 - - - 0;
#X obj 578 534 f;
#X obj 578 482 t b f;
#X obj 578 505 spigot;
#X obj 626 489 r \$0-msg-spigot;
#X floatatom 731 614 5 0 0 0 - - - 0;
#X obj 731 593 f;
#X obj 731 541 t b f;
#X obj 731 564 spigot;
#X obj 779 548 r \$0-msg-spigot;
#X obj 530 701 s \$0-freeze-modrate-r;
#X obj 578 575 s \$0-freeze-modindex-r;
#X obj 731 634 s \$0-freeze-dry/wet-r;
#X connect 0 0 29 0;
#X connect 1 0 27 0;
#X connect 2 0 14 0;
#X connect 3 0 2 0;
#X connect 4 0 3 1;
#X connect 5 0 4 0;
#X connect 6 0 1 0;
#X connect 7 0 8 0;
#X connect 8 0 6 0;
#X connect 9 0 0 0;
#X connect 10 0 11 0;
#X connect 10 1 9 1;
#X connect 11 0 9 0;
#X connect 12 0 13 0;
#X connect 12 1 8 1;
#X connect 12 2 3 0;
#X connect 13 0 7 0;
#X connect 14 0 1 1;
#X connect 14 1 15 0;
#X connect 16 0 11 1;
#X connect 17 0 30 0;
#X connect 18 0 17 0;
#X connect 19 0 20 0;
#X connect 19 1 18 1;
#X connect 20 0 18 0;
#X connect 21 0 20 1;
#X connect 22 0 31 0;
#X connect 23 0 22 0;
#X connect 24 0 25 0;
#X connect 24 1 23 1;
#X connect 25 0 23 0;
#X connect 26 0 25 1;
#X connect 27 0 10 0;
#X connect 27 1 19 0;
#X connect 27 2 24 0;
#X connect 27 3 34 0;
#X connect 27 4 39 0;
#X connect 27 5 44 0;
#X connect 28 0 12 0;
#X connect 32 0 47 0;
#X connect 33 0 32 0;
#X connect 34 0 35 0;
#X connect 34 1 33 1;
#X connect 35 0 33 0;
#X connect 36 0 35 1;
#X connect 37 0 48 0;
#X connect 38 0 37 0;
#X connect 39 0 40 0;
#X connect 39 1 38 1;
#X connect 40 0 38 0;
#X connect 41 0 40 1;
#X connect 42 0 49 0;
#X connect 43 0 42 0;
#X connect 44 0 45 0;
#X connect 44 1 43 1;
#X connect 45 0 43 0;
#X connect 46 0 45 1;
#X restore 722 186 pd external-messages;
#X obj 54 662 reloaded audiofreeze \$0 \$1;
#X obj 94 622 savestate;
#N canvas 1371 87 547 544 \$0-gui_listeners 0;
#X obj 10 0 reloaded/hsl_dispatch audiofreeze \$0 \$1 0 127 freeze-modrate-s freeze-modrate-r MODRATE #FFFFFF #000000 #000000;
#X obj 10 60 reloaded/hsl_dispatch audiofreeze \$0 \$1 0 127 freeze-modindex-s freeze-modindex-r MODINDEX #8581D6 #000000 #000000;
#X obj 10 120 reloaded/hsl_dispatch audiofreeze \$0 \$1 0 127 freeze-decay-s freeze-decay-r DECAY #FFFFFF #000000 #000000;
#X obj 10 180 reloaded/hsl_dispatch audiofreeze \$0 \$1 0 127 freeze-dry/wet-s freeze-dry/wet-r DRY/WET #8581D6 #000000 #000000;
#X obj 10 240 reloaded/hsl_dispatch audiofreeze \$0 \$1 0 127 freeze-attack-s freeze-attack-r ATTACK #FFFFFF #000000 #000000;
#X obj 10 300 reloaded/tgl_dispatch audiofreeze \$0 \$1 0 1 freeze-freeze!-s freeze-freeze!-r FREEZE #FFFFFF #000000 #000000;
#X obj 10 360 reloaded/hradio_dispatch audiofreeze \$0 \$1 0 3 mode-s mode-r MODE #FFFFFF #000000 #000000;
#X restore 54 692 pd \$0-gui_listeners;
#X obj 185 691 namecanvas \$0-this;
#N canvas 281 67 1083 699 fft 0;
#X obj 50 587 *~;
#X obj 49 533 rifft~;
#X obj 51 611 outlet~;
#X obj 49 563 *~;
#X obj 82 563 tabreceive~ \$0-hann;
#X obj 926 87 r \$0-window-size;
#N canvas 0 50 511 389 normalize 0;
#X obj 173 313 outlet;
#X obj 159 208 / 4;
#X msg 157 148 1;
#X obj 173 230 *;
#X obj 159 175 t f f;
#X obj 157 123 t b f;
#X obj 280 117 t b f;
#X obj 173 282 / 1;
#X obj 191 207 / 0.375;
#X obj 280 96 r \$0-window-size;
#X obj 157 100 r \$0-overlap;
#X text 258 208 Hanning mean of squares;
#X connect 1 0 3 0;
#X connect 2 0 4 0;
#X connect 3 0 7 0;
#X connect 4 0 1 0;
#X connect 4 1 8 0;
#X connect 5 0 2 0;
#X connect 5 1 1 1;
#X connect 6 0 2 0;
#X connect 6 1 7 1;
#X connect 7 0 0 0;
#X connect 8 0 3 1;
#X connect 9 0 6 0;
#X connect 10 0 5 0;
#X restore 83 587 pd normalize;
#X obj 949 111 r \$0-overlap;
#X obj 949 132 t b f;
#X msg 926 185 set \$1 \$2;
#X obj 926 159 pack 2048 4;
#X obj 926 241 r \$0-window-size;
#N canvas 876 371 450 300 cplx-mult 0;
#X obj 205 79 inlet~;
#X obj 263 79 inlet~;
#X obj 101 78 inlet~;
#X obj 153 79 inlet~;
#X obj 87 173 *~;
#X obj 123 174 *~;
#X obj 87 197 -~;
#X obj 87 221 outlet~;
#X obj 204 174 *~;
#X obj 240 175 *~;
#X obj 204 222 outlet~;
#X obj 204 198 +~;
#X connect 0 0 4 0;
#X connect 0 0 8 0;
#X connect 1 0 5 0;
#X connect 1 0 9 0;
#X connect 2 0 4 1;
#X connect 2 0 9 1;
#X connect 3 0 5 1;
#X connect 3 0 8 1;
#X connect 4 0 6 0;
#X connect 5 0 6 1;
#X connect 6 0 7 0;
#X connect 8 0 11 0;
#X connect 9 0 11 1;
#X connect 11 0 10 0;
#X restore 202 460 pd cplx-mult;
#X f 22;
#X obj 201 625 *~;
#X obj 331 625 *~;
#X obj 345 535 / 100;
#X obj 345 559 clip~ 0 1;
#X obj 345 511 r \$0-feedback;
#X obj 478 257 tabreceive~ \$0-inc-imag;
#X obj 442 232 tabreceive~ \$0-inc-real;
#X obj 721 138 r \$0-freeze;
#X msg 721 163 1;
#X msg 653 191 0;
#X obj 924 467 array define \$0-inc-real 1024;
#X obj 924 489 array define \$0-inc-imag 1024;
#X obj 48 45 *~;
#X obj 81 45 tabreceive~ \$0-hann;
#X obj 48 18 inlet~;
#X obj 926 284 pack 1024 \$0;
#X obj 48 68 rfft~, f 8;
#X obj 371 485 tabsend~ \$0-inc-real;
#X obj 512 484 tabsend~ \$0-inc-imag;
#N canvas 276 403 755 363 divide-by-prev 0;
#X obj 283 99 inlet~;
#X obj 385 101 inlet~;
#X obj 284 249 outlet~;
#X obj 386 249 outlet~;
#X obj 107 251 outlet~;
#X obj 208 253 outlet~;
#X obj 242 202 *~;
#X obj 209 202 *~;
#X obj 141 203 *~;
#X obj 108 203 *~;
#X obj 108 225 +~;
#X obj 209 224 -~;
#X obj 124 35 tabreceive~ \$0-last-real;
#X obj 257 63 tabreceive~ \$0-last-imag;
#X connect 0 0 2 0;
#X connect 0 0 9 0;
#X connect 0 0 6 0;
#X connect 1 0 3 0;
#X connect 1 0 8 0;
#X connect 1 0 7 0;
#X connect 6 0 11 1;
#X connect 7 0 11 0;
#X connect 8 0 10 1;
#X connect 9 0 10 0;
#X connect 10 0 4 0;
#X connect 11 0 5 0;
#X connect 12 0 9 1;
#X connect 12 0 7 1;
#X connect 13 0 8 1;
#X connect 13 0 6 1;
#X restore 372 149 pd divide-by-prev;
#X obj 470 175 tabsend~ \$0-last-imag;
#X obj 438 197 tabsend~ \$0-last-real;
#N canvas 801 502 200 264 normalize 0;
#X obj 20 20 inlet~;
#X obj 78 21 inlet~;
#X obj 95 76 *~;
#X obj 138 73 *~;
#X obj 95 100 +~;
#X obj 95 124 +~ 1e-15;
#X obj 94 149 rsqrt~;
#X obj 20 174 *~;
#X obj 79 177 *~;
#X obj 19 215 outlet~;
#X obj 80 216 outlet~;
#X connect 0 0 2 0;
#X connect 0 0 2 1;
#X connect 0 0 7 0;
#X connect 1 0 3 0;
#X connect 1 0 3 1;
#X connect 1 0 8 0;
#X connect 2 0 4 0;
#X connect 3 0 4 1;
#X connect 4 0 5 0;
#X connect 5 0 6 0;
#X connect 6 0 7 1;
#X connect 6 0 8 1;
#X connect 7 0 9 0;
#X connect 8 0 10 0;
#X restore 371 368 pd normalize;
#X f 24;
#X obj 153 235 tabreceive~ \$0-amp-imag;
#X obj 331 658 tabsend~ \$0-amp-imag;
#X obj 202 657 tabsend~ \$0-amp-real;
#X obj 119 204 tabreceive~ \$0-amp-real;
#X obj 925 422 array define \$0-amp-real 1024;
#X obj 925 444 array define \$0-amp-imag 1024;
#X obj 924 510 array define \$0-last-real 1024;
#X obj 924 532 array define \$0-last-imag 1024;
#X msg 926 308 \; \$2-amp-real resize \$1 \; \$2-amp-imag resize \$1 \; \$2-inc-real resize \$1 \; \$2-inc-imag resize \$1 \; \$2-last-real resize \$1 \; \$2-last-imag resize \$1 \;;
#X obj 680 259 sig~;
#N canvas 650 183 602 327 switch 0;
#X obj 417 96 inlet~;
#X obj 107 99 inlet~;
#X obj 169 100 inlet~;
#X obj 273 97 inlet~;
#X obj 333 97 inlet~;
#X obj 367 185 -~;
#X obj 338 231 +~;
#X obj 372 229 *~;
#X obj 250 182 -~;
#X obj 220 228 +~;
#X obj 254 228 *~;
#X obj 219 278 outlet~;
#X obj 338 274 outlet~;
#X text 413 73 switch;
#X text 92 76 pass this if one;
#X text 269 77 pass this if zero;
#X text 46 28 switch between two pairs of inputs. If last inlet is one \, take the left-hand pair \, otherwise the right-hand one.;
#X connect 0 0 10 1;
#X connect 0 0 7 1;
#X connect 1 0 8 0;
#X connect 2 0 5 0;
#X connect 3 0 9 0;
#X connect 3 0 8 1;
#X connect 4 0 6 0;
#X connect 4 0 5 1;
#X connect 5 0 7 0;
#X connect 6 0 12 0;
#X connect 7 0 6 1;
#X connect 8 0 10 0;
#X connect 9 0 11 0;
#X connect 10 0 9 1;
#X restore 372 339 pd switch;
#X f 24;
#N canvas 650 183 602 327 switch 0;
#X obj 417 96 inlet~;
#X obj 107 99 inlet~;
#X obj 169 100 inlet~;
#X obj 273 97 inlet~;
#X obj 333 97 inlet~;
#X obj 367 185 -~;
#X obj 338 231 +~;
#X obj 372 229 *~;
#X obj 250 182 -~;
#X obj 220 228 +~;
#X obj 254 228 *~;
#X obj 219 278 outlet~;
#X obj 338 274 outlet~;
#X text 413 73 switch;
#X text 92 76 pass this if one;
#X text 269 77 pass this if zero;
#X text 46 28 switch between two pairs of inputs. If last inlet is one \, take the left-hand pair \, otherwise the right-hand one.;
#X connect 0 0 10 1;
#X connect 0 0 7 1;
#X connect 1 0 8 0;
#X connect 2 0 5 0;
#X connect 3 0 9 0;
#X connect 3 0 8 1;
#X connect 4 0 6 0;
#X connect 4 0 5 1;
#X connect 5 0 7 0;
#X connect 6 0 12 0;
#X connect 7 0 6 1;
#X connect 8 0 10 0;
#X connect 9 0 11 0;
#X connect 10 0 9 1;
#X restore 48 331 pd switch;
#X f 24;
#X obj 653 139 bang~;
#X obj 653 166 t b b;
#X obj 680 235 f;
#X obj 510 57 > 0;
#X obj 926 210 switch~ 2048 4;
#X obj 510 34 r \$0-mode-s;
#X connect 0 0 2 0;
#X connect 1 0 3 0;
#X connect 3 0 0 0;
#X connect 4 0 3 1;
#X connect 5 0 10 0;
#X connect 6 0 0 1;
#X connect 7 0 8 0;
#X connect 8 0 10 0;
#X connect 8 1 10 1;
#X connect 9 0 52 0;
#X connect 10 0 9 0;
#X connect 11 0 28 0;
#X connect 12 0 13 0;
#X connect 12 1 14 0;
#X connect 13 0 38 0;
#X connect 14 0 37 0;
#X connect 15 0 16 0;
#X connect 16 0 13 1;
#X connect 16 0 14 1;
#X connect 17 0 15 0;
#X connect 18 0 46 3;
#X connect 19 0 46 2;
#X connect 20 0 21 0;
#X connect 21 0 50 1;
#X connect 22 0 50 1;
#X connect 25 0 29 0;
#X connect 26 0 25 1;
#X connect 27 0 25 0;
#X connect 28 0 44 0;
#X connect 29 0 32 0;
#X connect 29 0 47 0;
#X connect 29 1 32 1;
#X connect 29 1 47 1;
#X connect 32 0 46 0;
#X connect 32 1 46 1;
#X connect 32 2 34 0;
#X connect 32 3 33 0;
#X connect 35 0 30 0;
#X connect 35 0 12 2;
#X connect 35 1 31 0;
#X connect 35 1 12 3;
#X connect 36 0 47 3;
#X connect 39 0 47 2;
#X connect 45 0 46 4;
#X connect 45 0 47 4;
#X connect 46 0 35 0;
#X connect 46 1 35 1;
#X connect 47 0 12 0;
#X connect 47 0 1 0;
#X connect 47 1 12 1;
#X connect 47 1 1 1;
#X connect 48 0 49 0;
#X connect 49 0 22 0;
#X connect 49 1 50 0;
#X connect 50 0 45 0;
#X connect 51 0 52 0;
#X connect 53 0 51 0;
#X restore 325 362 pd fft;
#X obj 110 227 hradio 18 1 0 4 \$0-mode-s \$0-mode-r MODE 76 9 0 10 #ffffff #000000 #000000 0;
#N canvas 1466 87 450 300 freeze-LFO 0;
#X obj 46 185 osc~;
#X obj 46 52 r \$0-freeze-modrate-s;
#X obj 46 73 / 127;
#X floatatom 46 115 5 0 0 0 - - - 0;
#X obj 46 135 pack 0 10;
#X obj 46 156 line~;
#X obj 46 222 *~;
#X obj 114 143 r \$0-freeze-modindex-s;
#X obj 114 164 / 127;
#X obj 114 185 pack 0 10;
#X obj 114 206 line~;
#X obj 46 243 s~ \$0-freeze-LFO;
#X obj 46 94 * 50;
#X connect 0 0 6 0;
#X connect 1 0 2 0;
#X connect 2 0 12 0;
#X connect 3 0 4 0;
#X connect 4 0 5 0;
#X connect 5 0 0 0;
#X connect 6 0 11 0;
#X connect 7 0 8 0;
#X connect 8 0 9 0;
#X connect 9 0 10 0;
#X connect 10 0 6 1;
#X connect 12 0 3 0;
#X restore 476 361 pd freeze-LFO;
#N canvas 1435 544 450 300 fft-freeze-params 1;
#N canvas 3 57 472 553 in 0;
#X obj 153 57 inlet;
#X obj 153 234 s \$0-window-size;
#X obj 226 258 s \$0-overlap;
#X obj 153 194 change;
#X obj 226 201 change;
#N canvas 3 57 617 375 blocksize 0;
#X obj 184 76 t f f;
#X obj 184 212 spigot;
#X text 249 141 prevent setting blocksizes that are not a power of 2;
#X msg 244 244 blocksize is not a power of 2;
#X obj 184 294 outlet;
#X obj 244 222 sel 0;
#X obj 184 54 inlet;
#X obj 244 265 print pp.fft-freeze~;
#X obj 217 122 expr (($f1-1) & $f1) == 0;
#X connect 0 0 1 0;
#X connect 0 1 8 0;
#X connect 1 0 4 0;
#X connect 3 0 7 0;
#X connect 5 0 3 0;
#X connect 6 0 0 0;
#X connect 8 0 1 1;
#X connect 8 0 5 0;
#X restore 154 215 pd blocksize;
#X obj 326 223 s \$0-freeze;
#X obj 326 200 t b;
#X obj 153 151 route blocksize overlap feedback bang;
#X obj 266 176 s \$0-feedback;
#X connect 0 0 8 0;
#X connect 3 0 5 0;
#X connect 4 0 2 0;
#X connect 5 0 1 0;
#X connect 7 0 6 0;
#X connect 8 0 3 0;
#X connect 8 1 4 0;
#X connect 8 2 9 0;
#X connect 8 3 7 0;
#X restore 88 158 pd in;
#X obj 96 34 r \$0-mode-s;
#X obj 96 57 select 1 2 3;
#X msg 92 117 blocksize \$1;
#X msg 92 93 512;
#X msg 121 93 1024;
#X msg 157 94 2048;
#X msg 240 188 overlap \$1;
#X msg 240 163 2;
#X msg 269 164 4;
#X msg 300 164 8;
#X text 178 117 fft-blocksize;
#X obj 265 32 r \$0-overlap-s;
#X obj 265 55 select 2 4 8;
#X msg 14 45 feedback 100;
#X obj 19 13 loadbang;
#N canvas 275 52 823 699 hanning 0;
#X obj 36 24 r \$0-window-size;
#N canvas 0 50 450 300 (subpatch) 0;
#X array \$0-hann 512 float 1;
#A 0 0 3.76701e-05 0.000150621 0.000338852 0.000602335 0.000941008 0.00135487 0.00184381 0.00240776 0.00304663 0.00376037 0.00454885 0.00541192 0.0063495 0.00736138 0.00844747 0.00960758 0.0108416 0.0121492 0.0135303 0.0149846 0.0165121 0.0181123 0.0197851 0.0215302 0.0233473 0.0252362 0.0271967 0.0292284 0.0313309 0.033504 0.0357474 0.0380607 0.0404435 0.0428956 0.0454164 0.0480058 0.0506632 0.0533883 0.0561807 0.0590398 0.0619654 0.064957 0.0680141 0.0711362 0.074323 0.0775737 0.0808882 0.0842658 0.0877059 0.0912082 0.094772 0.0983968 0.102082 0.105827 0.109632 0.113495 0.117417 0.121396 0.125432 0.129525 0.133674 0.137877 0.142135 0.146447 0.150813 0.15523 0.1597 0.164221 0.168793 0.173414 0.178085 0.182804 0.187571 0.192385 0.197245 0.202151 0.207102 0.212097 0.217135 0.222216 0.227338 0.232502 0.237706 0.242949 0.248232 0.253552 0.258909 0.264302 0.269731 0.275195 0.280693 0.286223 0.291786 0.29738 0.303005 0.308659 0.314342 0.320053 0.325791 0.331556 0.337346 0.34316 0.348998 0.354858 0.360741 0.366644 0.372568 0.378511 0.384472 0.39045 0.396445 0.402456 0.408481 0.41452 0.420572 0.426635 0.43271 0.438795 0.44489 0.450992 0.457102 0.463218 0.46934 0.475467 0.481597 0.48773 0.493865 0.500001 0.506136 0.512271 0.518404 0.524534 0.530661 0.536783 0.542899 0.549009 0.555112 0.561206 0.567291 0.573366 0.57943 0.585482 0.59152 0.597546 0.603556 0.609551 0.61553 0.621491 0.627433 0.633357 0.63926 0.645143 0.651003 0.656841 0.662656 0.668445 0.67421 0.679948 0.685659 0.691342 0.696996 0.702621 0.708215 0.713778 0.719308 0.724806 0.73027 0.735699 0.741092 0.746449 0.75177 0.757052 0.762295 0.767499 0.772663 0.777785 0.782866 0.787904 0.792899 0.79785 0.802756 0.807616 0.81243 0.817197 0.821916 0.826587 0.831208 0.83578 0.840301 0.844771 0.849188 0.853554 0.857866 0.862124 0.866327 0.870476 0.874568 0.878605 0.882584 0.886505 0.890369 0.894173 0.897919 0.901604 0.905229 0.908793 0.912295 0.915735 0.919112 0.922427 0.925678 0.928864 0.931987 0.935044 0.938035 0.940961 0.94382 0.946612 0.949337 0.951995 0.954584 0.957105 0.959557 0.96194 0.964253 0.966496 0.96867 0.970772 0.972804 0.974764 0.976653 0.97847 0.980215 0.981888 0.983488 0.985016 0.98647 0.987851 0.989159 0.990393 0.991553 0.992639 0.993651 0.994588 0.995451 0.99624 0.996953 0.997592 0.998156 0.998645 0.999059 0.999398 0.999661 0.999849 0.999962 1 0.999962 0.999849 0.999661 0.999398 0.999059 0.998645 0.998156 0.997592 0.996953 0.99624 0.995451 0.994588 0.993651 0.992639 0.991553 0.990393 0.989159 0.987851 0.98647 0.985016 0.983488 0.981888 0.980215 0.97847 0.976653 0.974764 0.972804 0.970772 0.96867 0.966496 0.964253 0.96194 0.959557 0.957105 0.954584 0.951995 0.949337 0.946612 0.94382 0.940961 0.938035 0.935044 0.931987 0.928864 0.925678 0.922427 0.919112 0.915735 0.912295 0.908793 0.905229 0.901604 0.897919 0.894173 0.890369 0.886505 0.882584 0.878605 0.874568 0.870476 0.866327 0.862124 0.857866 0.853554 0.849188 0.844771 0.840301 0.83578 0.831208 0.826587 0.821916 0.817197 0.81243 0.807616 0.802756 0.79785 0.792899 0.787904 0.782866 0.777785 0.772663 0.767499 0.762295 0.757052 0.75177 0.746449 0.741092 0.735699 0.73027 0.724806 0.719308 0.713778 0.708215 0.702621 0.696996 0.691342 0.685659 0.679948 0.67421 0.668445 0.662656 0.656841 0.651003 0.645143 0.63926 0.633357 0.627433 0.621491 0.61553 0.609551 0.603556 0.597546 0.59152 0.585482 0.57943 0.573366 0.567291 0.561206 0.555112 0.549009 0.542899 0.536783 0.530661 0.524534 0.518404 0.512271 0.506136 0.500001 0.493865 0.48773 0.481597 0.475467 0.46934 0.463218 0.457102 0.450992 0.44489 0.438795 0.43271 0.426635 0.420572 0.41452 0.408481 0.402456 0.396445 0.39045 0.384472 0.378511 0.372568 0.366644 0.360741 0.354858 0.348998 0.34316 0.337346 0.331556 0.325791 0.320053 0.314342 0.308659 0.303005 0.29738 0.291786 0.286223 0.280693 0.275195 0.269731 0.264302 0.258909 0.253552 0.248232 0.242949 0.237706 0.232502 0.227338 0.222216 0.217135 0.212097 0.207102 0.202151 0.197245 0.192385 0.187571 0.182804 0.178085 0.173414 0.168793 0.164221 0.1597 0.15523 0.150813 0.146447 0.142135 0.137877 0.133674 0.129525 0.125432 0.121396 0.117417 0.113495 0.109632 0.105827 0.102082 0.0983968 0.094772 0.0912082 0.0877059 0.0842658 0.0808882 0.0775737 0.074323 0.0711362 0.0680141 0.064957 0.0619654 0.0590398 0.0561807 0.0533883 0.0506632 0.0480058 0.0454164 0.0428956 0.0404435 0.0380607 0.0357474 0.033504 0.0313309 0.0292284 0.0271967 0.0252362 0.0233473 0.0215302 0.0197851 0.0181123 0.0165121 0.0149846 0.0135303 0.0121492 0.0108416 0.00960758 0.00844747 0.00736138 0.0063495 0.00541192 0.00454885 0.00376037 0.00304663 0.00240776 0.00184381 0.00135487 0.000941008 0.000602335 0.000338852 0.000150621 3.76701e-05;
#X coords 0 1 511 0 300 100 1 0 0;
#X restore 39 219 graph;
#X obj 35 110 tabwrite \$0-hann;
#N canvas 774 181 450 300 make-hann 0;
#X obj 59 330 outlet;
#X obj 112 329 outlet;
#X obj 65 31 inlet;
#X obj 64 195 t f f;
#X obj 59 301 expr 0.5+0.5*cos($f1);
#X obj 64 251 - 1;
#X obj 64 120 until;
#X obj 64 173 f;
#X obj 93 174 + 1;
#X msg 82 148 0;
#X obj 138 214 / 2;
#X obj 64 231 /;
#X obj 64 64 t f b f;
#X obj 59 281 * 3.14159;
#X connect 2 0 12 0;
#X connect 3 0 11 0;
#X connect 3 1 1 0;
#X connect 4 0 0 0;
#X connect 5 0 13 0;
#X connect 6 0 7 0;
#X connect 7 0 8 0;
#X connect 7 0 3 0;
#X connect 8 0 7 1;
#X connect 9 0 7 1;
#X connect 10 0 11 1;
#X connect 11 0 5 0;
#X connect 12 0 6 0;
#X connect 12 1 9 0;
#X connect 12 2 10 0;
#X connect 13 0 4 0;
#X restore 35 82 pd make-hann;
#X obj 158 93 s \$0-hann;
#X msg 158 70 resize \$1;
#X obj 35 53 t f f;
#X connect 0 0 6 0;
#X connect 3 0 2 0;
#X connect 3 1 2 1;
#X connect 5 0 4 0;
#X connect 6 0 3 0;
#X connect 6 1 5 0;
#X restore 40 222 pd hanning;
#N canvas 3 57 450 300 stuff 0;
#X obj 135 55 loadbang;
#X obj 136 195 pack \$0 1024 4;
#X obj 135 77 t b b b;
#X obj 178 107 f \$1;
#X obj 221 107 f \$2;
#X obj 178 129 sel 0;
#X obj 229 131 sel 0;
#X msg 136 218 \; \$1-overlap \$3 \; \$1-window-size \$2 \;;
#N canvas 3 57 617 375 blocksize 0;
#X obj 184 76 t f f;
#X obj 184 212 spigot;
#X text 249 141 prevent setting blocksizes that are not a power of 2;
#X msg 244 244 blocksize is not a power of 2;
#X obj 184 294 outlet;
#X obj 244 222 sel 0;
#X obj 184 54 inlet;
#X obj 244 265 print pp.fft-freeze~;
#X obj 217 122 expr (($f1-1) & $f1) == 0;
#X connect 0 0 1 0;
#X connect 0 1 8 0;
#X connect 1 0 4 0;
#X connect 3 0 7 0;
#X connect 5 0 3 0;
#X connect 6 0 0 0;
#X connect 8 0 1 1;
#X connect 8 0 5 0;
#X restore 175 156 pd blocksize;
#X connect 0 0 2 0;
#X connect 1 0 7 0;
#X connect 2 0 1 0;
#X connect 2 1 3 0;
#X connect 2 2 4 0;
#X connect 3 0 5 0;
#X connect 4 0 6 0;
#X connect 5 1 8 0;
#X connect 6 1 1 2;
#X connect 8 0 1 1;
#X restore 39 201 pd stuff;
#X connect 1 0 2 0;
#X connect 2 0 4 0;
#X connect 2 1 5 0;
#X connect 2 2 6 0;
#X connect 3 0 0 0;
#X connect 4 0 3 0;
#X connect 5 0 3 0;
#X connect 6 0 3 0;
#X connect 7 0 0 0;
#X connect 8 0 7 0;
#X connect 9 0 7 0;
#X connect 10 0 7 0;
#X connect 12 0 13 0;
#X connect 13 0 8 0;
#X connect 13 1 9 0;
#X connect 13 2 10 0;
#X connect 14 0 0 0;
#X connect 15 0 14 0;
#X connect 15 0 9 0;
#X restore 710 507 pd fft-freeze-params;
#X obj 474 612 s \$0-freeze;
#X obj 474 589 t b;
#X obj 215 236 cnv 5 5 5 empty \$0-mode-display-r FFT-512 0 0 0 10 #fcfcfc #000000 0;
#X obj 683 712 s \$0-mode-display-r;
#X obj 697 620 select 0 1 2 3;
#X msg 834 689 label FFT-1024;
#X msg 794 659 label FFT-512;
#X msg 844 709 label FFT-2048;
#X obj 697 597 r \$0-mode-s;
#X msg 685 664 label 8\ partials;
#X connect 0 0 1 0;
#X connect 0 0 46 0;
#X connect 0 0 69 0;
#X connect 1 0 3 0;
#X connect 5 0 26 0;
#X connect 7 0 17 0;
#X connect 8 0 11 0;
#X connect 9 0 15 0;
#X connect 9 1 8 0;
#X connect 10 0 5 1;
#X connect 11 0 10 0;
#X connect 12 0 10 0;
#X connect 13 0 19 0;
#X connect 14 0 12 0;
#X connect 15 0 36 0;
#X connect 15 0 74 0;
#X connect 15 1 14 0;
#X connect 16 0 8 1;
#X connect 17 0 16 0;
#X connect 18 0 14 1;
#X connect 19 0 18 0;
#X connect 21 0 9 0;
#X connect 22 0 7 0;
#X connect 24 0 13 0;
#X connect 25 0 5 0;
#X connect 26 0 38 0;
#X connect 27 0 28 0;
#X connect 28 0 29 0;
#X connect 29 0 26 1;
#X connect 30 0 31 0;
#X connect 31 0 32 0;
#X connect 32 0 33 0;
#X connect 33 0 37 0;
#X connect 33 1 35 0;
#X connect 47 0 27 0;
#X connect 48 0 49 0;
#X connect 49 0 38 0;
#X connect 50 0 51 0;
#X connect 52 0 53 0;
#X connect 53 0 54 0;
#X connect 54 0 49 1;
#X connect 55 0 56 0;
#X connect 56 0 57 0;
#X connect 57 0 52 0;
#X connect 58 0 60 0;
#X connect 60 0 61 0;
#X connect 61 0 59 0;
#X connect 65 0 66 0;
#X connect 66 0 65 0;
#X connect 66 1 65 1;
#X connect 69 0 5 0;
#X connect 74 0 73 0;
#X connect 77 0 82 0;
#X connect 77 1 79 0;
#X connect 77 2 78 0;
#X connect 77 3 80 0;
#X connect 78 0 76 0;
#X connect 79 0 76 0;
#X connect 80 0 76 0;
#X connect 81 0 77 0;
#X connect 82 0 76 0;
#X coords 0 -1 1 1 200 160 2 100 100;
