#N canvas 0 22 1213 658 10;
#X obj 486 68 t b b;
#X obj 105 135 tgl 15 0 rec/stop-s rec/stop-r REC/STOP 17 7 0 10 -150893
-1 -1 0 1;
#X obj 513 91 f;
#X obj 541 92 + 1;
#X obj 513 113 + 1;
#X floatatom 173 135 5 0 0 1 TAKE - -, f 5;
#X msg 467 214 stop;
#X obj 467 45 sel 0 1;
#X obj 486 160 delay 100;
#X msg 486 182 start;
#X obj 104 123 cnv 5 5 5 empty empty AUDIO-RECORDER 0 0 0 12 -262144
-66577 0;
#X obj 103 109 cnv 5 5 5 empty empty LEFT 0 0 0 8 -262144 -66577 0
;
#X obj 248 108 cnv 5 5 5 empty empty RIGHT 0 0 0 8 -262144 -66577 0
;
#X obj 513 135 t f f;
#X obj 108 230 hsl 128 15 0 127 0 1 \$0-rec-level-s \$0-rec-level-r
LEVEL 133 7 0 10 -158136 -1 -1 7900 1;
#N canvas 0 22 450 278 (subpatch) 0;
#X array \$0-right 512 float 0;
#X coords 0 1 511 -1 80 60 1 0 0;
#X restore 189 166 graph;
#X obj 100 342 loadbang;
#X obj 100 402 metro 200;
#X msg 100 367 1;
#X obj 238 135 bng 15 250 50 0 \$0-rec-reset-s \$0-rec-reset-r RST
17 7 0 10 -262144 -1 -1;
#X obj 594 23 r \$0-rec-takenumber-s;
#X obj 579 58 f;
#X obj 579 -21 loadbang;
#X obj 647 221 *~;
#X obj 647 111 inlet~ LEFT;
#X obj 485 575 writesf~ 2;
#X obj 734 111 inlet~ RIGHT;
#X obj 734 236 *~;
#X obj 749 138 r \$0-rec-level-s;
#X obj 749 160 * 0.00787402;
#X obj 749 182 pack 0 50;
#X obj 749 204 line~;
#X obj 100 457 tabwrite~ \$0-left;
#N canvas 0 22 450 278 (subpatch) 0;
#X array \$0-left 512 float 0;
#X coords 0 1 511 -1 80 60 1 0 0;
#X restore 105 166 graph;
#X obj 214 441 tabwrite~ \$0-right;
#X obj 100 424 t b b;
#X obj 280 151 hsl 128 15 0 127 0 1 empty empty empty -2 -8 0 10 -262144
-1 -1 0 1;
#X obj 277 199 t f f;
#X obj 304 225 s \$0-rec-takenumber-s;
#X msg 100 531 menusave;
#X obj 100 553 s pd-audio-recorder.pd;
#X obj 100 508 r SAVE-S;
#X obj 618 52 r \$0-rec-reset-s;
#X msg 618 74 0;
#X obj 208 115 bng 15 250 50 0 empty empty empty 17 7 0 10 -1 -226533
-1;
#X obj 208 10 tgl 15 0 empty empty empty 17 7 0 10 -262144 -1 -1 0
1;
#X obj 208 30 metro 500;
#X obj 208 73 spigot;
#X obj 208 -15 loadbang;
#X obj 570 284 f \$1;
#X obj 544 227 t f b;
#X floatatom 231 115 5 0 0 0 - - -, f 5;
#X obj 467 16 r rec/stop-s;
#X obj 240 50 r rec/stop-s;
#X obj 540 450 pack f f;
#X msg 539 545 open -bytes 3 ../recorded_wavs/mix_take\$1.wav;
#X obj 579 1 delay 250;
#X connect 0 0 8 0;
#X connect 0 1 2 0;
#X connect 2 0 3 0;
#X connect 2 0 4 0;
#X connect 3 0 2 1;
#X connect 4 0 13 0;
#X connect 6 0 25 0;
#X connect 7 0 6 0;
#X connect 7 1 0 0;
#X connect 8 0 9 0;
#X connect 9 0 25 0;
#X connect 13 0 36 0;
#X connect 13 1 50 0;
#X connect 16 0 18 0;
#X connect 17 0 35 0;
#X connect 18 0 17 0;
#X connect 20 0 21 1;
#X connect 21 0 2 1;
#X connect 22 0 56 0;
#X connect 23 0 25 0;
#X connect 23 0 32 0;
#X connect 24 0 23 0;
#X connect 26 0 27 0;
#X connect 27 0 25 1;
#X connect 27 0 34 0;
#X connect 28 0 29 0;
#X connect 29 0 30 0;
#X connect 30 0 31 0;
#X connect 31 0 27 1;
#X connect 31 0 23 1;
#X connect 35 0 32 0;
#X connect 35 1 34 0;
#X connect 36 0 37 0;
#X connect 37 0 5 0;
#X connect 37 1 38 0;
#X connect 39 0 40 0;
#X connect 41 0 39 0;
#X connect 42 0 43 0;
#X connect 43 0 2 1;
#X connect 43 0 36 0;
#X connect 45 0 46 0;
#X connect 46 0 47 0;
#X connect 47 0 44 0;
#X connect 48 0 45 0;
#X connect 49 0 54 1;
#X connect 50 0 54 0;
#X connect 50 1 49 0;
#X connect 52 0 7 0;
#X connect 53 0 47 1;
#X connect 54 0 55 0;
#X connect 55 0 25 0;
#X connect 56 0 21 0;
#X coords 0 -1 1 1 175 150 2 100 100;
