#N canvas 875 113 1132 732 12;
#X declare -path state_saving_module;
#N canvas 0 50 450 300 DSP 0;
#X obj 41 62 inlet;
#X msg 41 85 dsp \$1;
#X obj 41 108 s pd;
#X text 133 65 envoie le message DSP 1 ou DSP 0 à Puredata, f 17
;
#X connect 0 0 1 0;
#X connect 1 0 2 0;
#X restore 126 344 pd DSP;
#X obj 126 313 tgl 15 1 empty empty empty 17 7 0 10 -262144 -1 -1 1
1;
#X obj 103 121 bng 15 250 50 0 \$0-open-quick-guide! empty <--QUICK-GUIDE
17 7 0 10 -262144 -1 -1;
#X obj 103 141 bng 15 250 50 0 \$0-open-manual! empty <--MANUAL 17
7 0 10 -262144 -1 -1;
#X obj 103 159 bng 15 250 50 0 \$0-open-modules! empty <--MODULES 17
7 0 10 -262144 -1 -1;
#X obj 103 218 bng 15 250 50 0 \$0-open-external-msg! empty <--EXTERNAL-MESSAGES!
17 7 0 10 -262144 -1 -1;
#X obj 103 179 bng 15 250 50 0 SAVE-S SAVE-R <--SAVE!(enter) 17 7 0
10 -262144 -4034 -1;
#X floatatom 103 239 5 0 0 1 CPU% CPU -;
#X obj 103 198 bng 15 250 50 0 \$0-open-reset-warning! empty <--RESET!
17 7 0 10 -262144 -1 -1;
#X text 108 102 AUTOMATONISM;
#X obj 264 107 vradio 50 1 0 3 empty empty empty 0 -8 0 10 -262144
-1 -1 0;
#X obj 264 107 tgl 50 0 MIDI_LEARN MIDI_LEARN-rcv midi_learn 17 7 0
10 -261682 -1 -1 0 1;
#X obj 264 157 tgl 50 0 MIDI_MAP_FROM MIDI_MAP_FROM-rcv MAP_FROM 17
7 0 10 -204786 -1 -1 0 1;
#X obj 264 207 tgl 50 0 MIDI_MAP_TO MIDI_MAP_TO-rcv MAP_TO 17 7 0 10
-204800 -1 -1 0 1;
#N canvas 0 50 723 566 modes 0;
#X obj 153 18 inlet;
#X obj 158 208 select;
#X obj 216 294 == 0;
#X msg 193 253 1;
#X obj 149 61 + 1;
#X obj 130 322 * 1;
#X obj 179 290 f 1;
#X obj 406 335 s MIDI_MAP_TO;
#X obj 559 339 s MIDI_MAP_FROM;
#X obj 285 332 s MIDI_LEARN;
#X msg 282 196 \$1 0;
#X obj 130 358 select 0;
#X obj 130 383 f;
#X msg 130 408 \$1 0;
#X msg 191 407 \$1 1;
#X obj 305 293 t f f;
#X obj 367 294 t f f;
#X obj 433 297 t f f;
#X obj 285 409 s MIDI_LEARN-rcv;
#X obj 406 412 s MIDI_MAP_TO-rcv;
#X obj 559 416 s MIDI_MAP_FROM-rcv;
#X msg 282 378 set \$1;
#X msg 412 378 set \$1;
#X msg 562 378 set \$1;
#X obj 264 170 f;
#X obj 207 229 t b b;
#X obj 131 105 t f f f f f;
#X obj 365 18 inlet;
#X msg 254 36 0;
#X obj 326 252 route 1 3 2;
#X connect 0 0 4 0;
#X connect 1 0 6 0;
#X connect 1 1 25 0;
#X connect 2 0 6 1;
#X connect 3 0 6 0;
#X connect 4 0 26 0;
#X connect 5 0 11 0;
#X connect 6 0 2 0;
#X connect 6 0 5 1;
#X connect 10 0 29 0;
#X connect 11 0 12 0;
#X connect 11 1 14 0;
#X connect 12 0 13 0;
#X connect 13 0 29 0;
#X connect 14 0 29 0;
#X connect 15 0 9 0;
#X connect 15 1 21 0;
#X connect 16 0 7 0;
#X connect 16 1 22 0;
#X connect 17 0 8 0;
#X connect 17 1 23 0;
#X connect 21 0 18 0;
#X connect 22 0 19 0;
#X connect 23 0 20 0;
#X connect 24 0 10 0;
#X connect 25 0 3 0;
#X connect 25 1 24 0;
#X connect 26 0 5 0;
#X connect 26 1 12 1;
#X connect 26 2 1 1;
#X connect 26 3 24 1;
#X connect 26 4 1 0;
#X connect 27 0 28 0;
#X connect 28 0 4 0;
#X connect 29 0 15 0;
#X connect 29 1 16 0;
#X connect 29 2 17 0;
#X restore 263 389 pd modes;
#X obj 316 354 r MIDI_LEARN_OK;
#N canvas 0 50 867 426 midi_in 0;
#X obj 88 145 select 1;
#X obj 87 100 r MIDI_LEARN;
#X msg 88 170 -1;
#X obj 455 122 ctlin;
#X obj 488 160 v MIDI_CHANNEL;
#X obj 303 148 notein;
#X obj 136 220 v MIDI_MAP_NUM;
#X obj 131 251 v MIDI_MAP_TYPE;
#X obj 471 194 v MIDI_MAP_NUM;
#X obj 132 187 v MIDI_MAP_CHANNEL;
#X obj 451 249 v MIDI_MAP_TYPE;
#X msg 455 225 0;
#X obj 342 174 v MIDI_CHANNEL;
#X obj 310 254 v MIDI_MAP_NUM;
#X obj 322 230 v MIDI_MAP_TYPE;
#X msg 326 206 1;
#X floatatom 516 108 5 0 0 0 - - -;
#X msg 579 115 1;
#X floatatom 391 126 5 0 0 0 - - -;
#X connect 0 0 2 0;
#X connect 1 0 0 0;
#X connect 2 0 6 0;
#X connect 2 0 9 0;
#X connect 2 0 7 0;
#X connect 3 0 18 0;
#X connect 3 1 8 0;
#X connect 3 1 11 0;
#X connect 3 2 4 0;
#X connect 5 0 13 0;
#X connect 5 0 15 0;
#X connect 5 2 12 0;
#X connect 11 0 10 0;
#X connect 15 0 14 0;
#X connect 16 0 8 0;
#X connect 16 0 11 0;
#X connect 17 0 4 0;
#X restore 264 419 pd midi_in;
#X obj 188 158 tgl 15 1 \$0-esc-active \$0-esc-active-rcv ESC 17 7
0 10 -262144 -1 -1 1 1;
#X obj 522 86 namecanvas \$0-this;
#X obj 521 116 declare -path state_saving_module;
#X obj 521 173 s AUTOMATONISM_LOADED;
#X obj 522 144 loadbang;
#N canvas 197 436 707 551 stuff 1;
#X msg 26 128 \; pd dsp 0;
#X obj 26 34 loadbang;
#X obj 26 103 delay 1;
#X obj 26 56 t b b;
#X msg 88 128 \; pd dsp 1;
#X obj 89 6 key;
#X obj 89 50 s SAVE-R;
#X obj 89 28 sel 10;
#N canvas 0 57 1920 1023 oscillators 0;
#X obj 24 9 module_create \$0 \$1 basic-osc;
#X obj 24 42 module_create \$0 \$1 bwl-osc;
#X obj 31 89 module_create \$0 \$1 2op-fm;
#X obj 25 112 module_create \$0 \$1 karplus;
#X obj 24 136 module_create \$0 \$1 trigons;
#X obj 33 184 module_create \$0 \$1 kick;
#X obj 28 212 module_create \$0 \$1 snare;
#X obj 30 237 module_create \$0 \$1 noise;
#X obj 29 262 module_create \$0 \$1 polysynth;
#X obj 29 283 module_create \$0 \$1 polyfm;
#X obj 31 307 module_create \$0 \$1 pd-303;
#X obj 31 330 module_create \$0 \$1 looper;
#X obj 30 352 module_create \$0 \$1 sampler;
#X obj 30 404 module_create \$0 \$1 chord-synth;
#X obj 30 429 module_create \$0 \$1 complex-percussion;
#X obj 30 453 module_create \$0 \$1 complex-kick;
#X obj 30 477 module_create \$0 \$1 complex-snare;
#X obj 30 502 module_create \$0 \$1 hihat;
#X obj 286 2 module_create \$0 \$1 algomatrix;
#X obj 27 66 module_create \$0 \$1 wtable;
#X obj 32 159 module_create \$0 \$1 triad;
#X obj 30 378 module_create \$0 \$1 percussion;
#X restore 21 206 pd oscillators;
#N canvas 0 23 992 769 sound-processors 0;
#N canvas 0 22 473 595 open-chorus 0;
#X msg 64 84 bang;
#X obj 64 151 t b b b;
#X obj 162 168 f;
#X obj 191 168 + 1;
#X obj 162 257 + 1;
#X obj 223 101 delay 250;
#X msg 223 211 \; pd-modules vis 0;
#X obj 223 123 t b b;
#X msg 250 171 \; pd-main.pd editmode 1;
#X obj 83 316 pack s f;
#X obj 177 59 r \$0-reset!;
#X msg 177 81 0;
#X msg 83 341 \; pd-main.pd obj 200 200 \$1 \$2;
#X obj 162 280 nbx 5 14 -1e+37 1e+37 0 1 empty empty empty 0 -8 0 10
-262144 -1 -1 0 256;
#X obj 64 387 t b b;
#X msg 64 509 loadbang;
#X obj 91 411 s SAVE-S;
#X obj 64 462 delay 100;
#X obj 308 316 f;
#X obj 308 278 loadbang;
#X obj 162 299 t f f;
#X obj 64 35 r \$0-create-chorus!;
#X msg 83 235 chorus;
#X obj 64 562 s pd-chorus.pd;
#X connect 0 0 1 0;
#X connect 0 0 5 0;
#X connect 1 0 14 0;
#X connect 1 1 22 0;
#X connect 1 2 2 0;
#X connect 2 0 3 0;
#X connect 2 0 4 0;
#X connect 3 0 2 1;
#X connect 4 0 13 0;
#X connect 5 0 7 0;
#X connect 7 0 6 0;
#X connect 7 1 8 0;
#X connect 9 0 12 0;
#X connect 10 0 11 0;
#X connect 11 0 2 1;
#X connect 11 0 13 0;
#X connect 13 0 20 0;
#X connect 14 0 17 0;
#X connect 14 1 16 0;
#X connect 15 0 23 0;
#X connect 17 0 15 0;
#X connect 18 0 2 1;
#X connect 19 0 18 0;
#X connect 20 0 9 1;
#X connect 20 1 18 1;
#X connect 21 0 0 0;
#X connect 22 0 9 0;
#X restore 30 378 pd open-chorus;
#N canvas 0 22 473 595 open-overdrive 0;
#X msg 64 84 bang;
#X obj 64 151 t b b b;
#X obj 162 168 f;
#X obj 191 168 + 1;
#X obj 162 257 + 1;
#X obj 223 101 delay 250;
#X msg 223 211 \; pd-modules vis 0;
#X obj 223 123 t b b;
#X msg 250 171 \; pd-main.pd editmode 1;
#X obj 83 316 pack s f;
#X obj 177 59 r \$0-reset!;
#X msg 177 81 0;
#X msg 83 341 \; pd-main.pd obj 200 200 \$1 \$2;
#X obj 162 280 nbx 5 14 -1e+37 1e+37 0 1 empty empty empty 0 -8 0 10
-262144 -1 -1 0 256;
#X obj 64 387 t b b;
#X msg 64 509 loadbang;
#X obj 91 411 s SAVE-S;
#X obj 64 462 delay 100;
#X obj 308 316 f;
#X obj 308 278 loadbang;
#X obj 162 299 t f f;
#X obj 64 35 r \$0-create-overdrive!;
#X msg 83 235 overdrive;
#X obj 64 562 s pd-overdrive.pd;
#X connect 0 0 1 0;
#X connect 0 0 5 0;
#X connect 1 0 14 0;
#X connect 1 1 22 0;
#X connect 1 2 2 0;
#X connect 2 0 3 0;
#X connect 2 0 4 0;
#X connect 3 0 2 1;
#X connect 4 0 13 0;
#X connect 5 0 7 0;
#X connect 7 0 6 0;
#X connect 7 1 8 0;
#X connect 9 0 12 0;
#X connect 10 0 11 0;
#X connect 11 0 2 1;
#X connect 11 0 13 0;
#X connect 13 0 20 0;
#X connect 14 0 17 0;
#X connect 14 1 16 0;
#X connect 15 0 23 0;
#X connect 17 0 15 0;
#X connect 18 0 2 1;
#X connect 19 0 18 0;
#X connect 20 0 9 1;
#X connect 20 1 18 1;
#X connect 21 0 0 0;
#X connect 22 0 9 0;
#X restore 30 402 pd open-overdrive;
#N canvas 0 22 473 595 open-megaverb 0;
#X msg 64 84 bang;
#X obj 64 151 t b b b;
#X obj 162 168 f;
#X obj 191 168 + 1;
#X obj 162 257 + 1;
#X obj 223 101 delay 250;
#X msg 223 211 \; pd-modules vis 0;
#X obj 223 123 t b b;
#X msg 250 171 \; pd-main.pd editmode 1;
#X obj 83 316 pack s f;
#X obj 177 59 r \$0-reset!;
#X msg 177 81 0;
#X msg 83 341 \; pd-main.pd obj 200 200 \$1 \$2;
#X obj 162 280 nbx 5 14 -1e+37 1e+37 0 1 empty empty empty 0 -8 0 10
-262144 -1 -1 0 256;
#X obj 64 387 t b b;
#X msg 64 509 loadbang;
#X obj 91 411 s SAVE-S;
#X obj 64 462 delay 100;
#X obj 308 316 f;
#X obj 308 278 loadbang;
#X obj 162 299 t f f;
#X msg 83 235 megaverb;
#X obj 64 35 r \$0-create-megaverb!;
#X obj 64 562 s pd-megaverb.pd;
#X connect 0 0 1 0;
#X connect 0 0 5 0;
#X connect 1 0 14 0;
#X connect 1 1 21 0;
#X connect 1 2 2 0;
#X connect 2 0 3 0;
#X connect 2 0 4 0;
#X connect 3 0 2 1;
#X connect 4 0 13 0;
#X connect 5 0 7 0;
#X connect 7 0 6 0;
#X connect 7 1 8 0;
#X connect 9 0 12 0;
#X connect 10 0 11 0;
#X connect 11 0 2 1;
#X connect 11 0 13 0;
#X connect 13 0 20 0;
#X connect 14 0 17 0;
#X connect 14 1 16 0;
#X connect 15 0 23 0;
#X connect 17 0 15 0;
#X connect 18 0 2 1;
#X connect 19 0 18 0;
#X connect 20 0 9 1;
#X connect 20 1 18 1;
#X connect 21 0 9 0;
#X connect 22 0 0 0;
#X restore 30 449 pd open-megaverb;
#N canvas 0 22 473 595 open-pitchshifter 0;
#X msg 64 84 bang;
#X obj 64 151 t b b b;
#X obj 162 168 f;
#X obj 191 168 + 1;
#X obj 162 257 + 1;
#X obj 223 101 delay 250;
#X msg 223 211 \; pd-modules vis 0;
#X obj 223 123 t b b;
#X msg 250 171 \; pd-main.pd editmode 1;
#X obj 83 316 pack s f;
#X obj 177 59 r \$0-reset!;
#X msg 177 81 0;
#X msg 83 341 \; pd-main.pd obj 200 200 \$1 \$2;
#X obj 162 280 nbx 5 14 -1e+37 1e+37 0 1 empty empty empty 0 -8 0 10
-262144 -1 -1 0 256;
#X obj 64 387 t b b;
#X msg 64 509 loadbang;
#X obj 91 411 s SAVE-S;
#X obj 64 462 delay 100;
#X obj 308 316 f;
#X obj 308 278 loadbang;
#X obj 162 299 t f f;
#X obj 64 35 r \$0-create-pitchshifter!;
#X msg 83 235 pitchshifter;
#X obj 64 562 s pd-pitchshifter.pd;
#X connect 0 0 1 0;
#X connect 0 0 5 0;
#X connect 1 0 14 0;
#X connect 1 1 22 0;
#X connect 1 2 2 0;
#X connect 2 0 3 0;
#X connect 2 0 4 0;
#X connect 3 0 2 1;
#X connect 4 0 13 0;
#X connect 5 0 7 0;
#X connect 7 0 6 0;
#X connect 7 1 8 0;
#X connect 9 0 12 0;
#X connect 10 0 11 0;
#X connect 11 0 2 1;
#X connect 11 0 13 0;
#X connect 13 0 20 0;
#X connect 14 0 17 0;
#X connect 14 1 16 0;
#X connect 15 0 23 0;
#X connect 17 0 15 0;
#X connect 18 0 2 1;
#X connect 19 0 18 0;
#X connect 20 0 9 1;
#X connect 20 1 18 1;
#X connect 21 0 0 0;
#X connect 22 0 9 0;
#X restore 30 471 pd open-pitchshifter;
#N canvas 0 22 473 595 open-compressor 0;
#X msg 64 84 bang;
#X obj 64 151 t b b b;
#X obj 162 168 f;
#X obj 191 168 + 1;
#X obj 162 257 + 1;
#X obj 223 101 delay 250;
#X msg 223 211 \; pd-modules vis 0;
#X obj 223 123 t b b;
#X msg 250 171 \; pd-main.pd editmode 1;
#X obj 83 316 pack s f;
#X obj 177 59 r \$0-reset!;
#X msg 177 81 0;
#X msg 83 341 \; pd-main.pd obj 200 200 \$1 \$2;
#X obj 162 280 nbx 5 14 -1e+37 1e+37 0 1 empty empty empty 0 -8 0 10
-262144 -1 -1 0 256;
#X obj 64 387 t b b;
#X msg 64 509 loadbang;
#X obj 91 411 s SAVE-S;
#X obj 64 462 delay 100;
#X obj 308 316 f;
#X obj 308 278 loadbang;
#X obj 162 299 t f f;
#X obj 64 35 r \$0-create-compressor!;
#X msg 83 235 compressor;
#X obj 64 562 s pd-compressor.pd;
#X connect 0 0 1 0;
#X connect 0 0 5 0;
#X connect 1 0 14 0;
#X connect 1 1 22 0;
#X connect 1 2 2 0;
#X connect 2 0 3 0;
#X connect 2 0 4 0;
#X connect 3 0 2 1;
#X connect 4 0 13 0;
#X connect 5 0 7 0;
#X connect 7 0 6 0;
#X connect 7 1 8 0;
#X connect 9 0 12 0;
#X connect 10 0 11 0;
#X connect 11 0 2 1;
#X connect 11 0 13 0;
#X connect 13 0 20 0;
#X connect 14 0 17 0;
#X connect 14 1 16 0;
#X connect 15 0 23 0;
#X connect 17 0 15 0;
#X connect 18 0 2 1;
#X connect 19 0 18 0;
#X connect 20 0 9 1;
#X connect 20 1 18 1;
#X connect 21 0 0 0;
#X connect 22 0 9 0;
#X restore 30 494 pd open-compressor;
#N canvas 0 22 473 595 open-filterbank 0;
#X msg 64 84 bang;
#X obj 64 151 t b b b;
#X obj 162 168 f;
#X obj 191 168 + 1;
#X obj 162 257 + 1;
#X obj 223 101 delay 250;
#X msg 223 211 \; pd-modules vis 0;
#X obj 223 123 t b b;
#X msg 250 171 \; pd-main.pd editmode 1;
#X obj 83 316 pack s f;
#X obj 177 59 r \$0-reset!;
#X msg 177 81 0;
#X msg 83 341 \; pd-main.pd obj 200 200 \$1 \$2;
#X obj 162 280 nbx 5 14 -1e+37 1e+37 0 1 empty empty empty 0 -8 0 10
-262144 -1 -1 0 256;
#X obj 64 387 t b b;
#X msg 64 509 loadbang;
#X obj 91 411 s SAVE-S;
#X obj 64 462 delay 100;
#X obj 308 316 f;
#X obj 308 278 loadbang;
#X obj 162 299 t f f;
#X obj 64 35 r \$0-create-filterbank!;
#X msg 82 235 filterbank;
#X obj 64 562 s pd-filterbank.pd;
#X connect 0 0 1 0;
#X connect 0 0 5 0;
#X connect 1 0 14 0;
#X connect 1 1 22 0;
#X connect 1 2 2 0;
#X connect 2 0 3 0;
#X connect 2 0 4 0;
#X connect 3 0 2 1;
#X connect 4 0 13 0;
#X connect 5 0 7 0;
#X connect 7 0 6 0;
#X connect 7 1 8 0;
#X connect 9 0 12 0;
#X connect 10 0 11 0;
#X connect 11 0 2 1;
#X connect 11 0 13 0;
#X connect 13 0 20 0;
#X connect 14 0 17 0;
#X connect 14 1 16 0;
#X connect 15 0 23 0;
#X connect 17 0 15 0;
#X connect 18 0 2 1;
#X connect 19 0 18 0;
#X connect 20 0 9 1;
#X connect 20 1 18 1;
#X connect 21 0 0 0;
#X connect 22 0 9 0;
#X restore 30 426 pd open-filterbank;
#N canvas 0 22 473 595 open-channel-eq 0;
#X msg 64 84 bang;
#X obj 64 151 t b b b;
#X obj 162 168 f;
#X obj 191 168 + 1;
#X obj 162 257 + 1;
#X obj 223 101 delay 250;
#X msg 223 211 \; pd-modules vis 0;
#X obj 223 123 t b b;
#X msg 250 171 \; pd-main.pd editmode 1;
#X obj 83 316 pack s f;
#X obj 177 59 r \$0-reset!;
#X msg 177 81 0;
#X msg 83 341 \; pd-main.pd obj 200 200 \$1 \$2;
#X obj 162 280 nbx 5 14 -1e+37 1e+37 0 1 empty empty empty 0 -8 0 10
-262144 -1 -1 0 256;
#X obj 64 387 t b b;
#X msg 64 509 loadbang;
#X obj 91 411 s SAVE-S;
#X obj 64 462 delay 100;
#X obj 308 316 f;
#X obj 308 278 loadbang;
#X obj 162 299 t f f;
#X obj 64 35 r \$0-create-channel-eq!;
#X msg 83 235 channel-eq;
#X obj 64 562 s pd-channel-eq.pd;
#X connect 0 0 1 0;
#X connect 0 0 5 0;
#X connect 1 0 14 0;
#X connect 1 1 22 0;
#X connect 1 2 2 0;
#X connect 2 0 3 0;
#X connect 2 0 4 0;
#X connect 3 0 2 1;
#X connect 4 0 13 0;
#X connect 5 0 7 0;
#X connect 7 0 6 0;
#X connect 7 1 8 0;
#X connect 9 0 12 0;
#X connect 10 0 11 0;
#X connect 11 0 2 1;
#X connect 11 0 13 0;
#X connect 13 0 20 0;
#X connect 14 0 17 0;
#X connect 14 1 16 0;
#X connect 15 0 23 0;
#X connect 17 0 15 0;
#X connect 18 0 2 1;
#X connect 19 0 18 0;
#X connect 20 0 9 1;
#X connect 20 1 18 1;
#X connect 21 0 0 0;
#X connect 22 0 9 0;
#X restore 30 515 pd open-channel-eq;
#N canvas 0 23 473 595 open-vintageverb 0;
#X msg 64 84 bang;
#X obj 64 151 t b b b;
#X obj 162 168 f;
#X obj 191 168 + 1;
#X obj 162 257 + 1;
#X obj 223 101 delay 250;
#X msg 223 211 \; pd-modules vis 0;
#X obj 223 123 t b b;
#X msg 250 171 \; pd-main.pd editmode 1;
#X obj 83 316 pack s f;
#X obj 177 59 r \$0-reset!;
#X msg 177 81 0;
#X msg 83 341 \; pd-main.pd obj 200 200 \$1 \$2;
#X obj 162 280 nbx 5 14 -1e+37 1e+37 0 1 empty empty empty 0 -8 0 10
-262144 -1 -1 0 256;
#X obj 64 387 t b b;
#X msg 64 509 loadbang;
#X obj 91 411 s SAVE-S;
#X obj 64 462 delay 100;
#X obj 308 316 f;
#X obj 308 278 loadbang;
#X obj 162 299 t f f;
#X obj 64 35 r \$0-create-vintageverb!;
#X obj 64 562 s pd-vintageverb.pd;
#X msg 83 235 vintageverb;
#X connect 0 0 1 0;
#X connect 0 0 5 0;
#X connect 1 0 14 0;
#X connect 1 1 23 0;
#X connect 1 2 2 0;
#X connect 2 0 3 0;
#X connect 2 0 4 0;
#X connect 3 0 2 1;
#X connect 4 0 13 0;
#X connect 5 0 7 0;
#X connect 7 0 6 0;
#X connect 7 1 8 0;
#X connect 9 0 12 0;
#X connect 10 0 11 0;
#X connect 11 0 2 1;
#X connect 11 0 13 0;
#X connect 13 0 20 0;
#X connect 14 0 17 0;
#X connect 14 1 16 0;
#X connect 15 0 22 0;
#X connect 17 0 15 0;
#X connect 18 0 2 1;
#X connect 19 0 18 0;
#X connect 20 0 9 1;
#X connect 20 1 18 1;
#X connect 21 0 0 0;
#X connect 23 0 9 0;
#X restore 30 537 pd open-vintageverb;
#X obj 31 47 module_create \$0 \$1 lp-filter;
#X obj 31 71 module_create \$0 \$1 ladder-filter;
#X obj 31 93 module_create \$0 \$1 hp-filter;
#X obj 31 117 module_create \$0 \$1 bp-filter;
#X obj 31 141 module_create \$0 \$1 analog-filter;
#X obj 30 164 module_create \$0 \$1 bob-filter;
#X obj 30 186 module_create \$0 \$1 formant;
#X obj 30 210 module_create \$0 \$1 bitcrush;
#X obj 30 234 module_create \$0 \$1 wavefold;
#X obj 30 258 module_create \$0 \$1 phasor;
#X obj 30 282 module_create \$0 \$1 combfilter;
#X obj 30 306 module_create \$0 \$1 granular-delay;
#X obj 30 330 module_create \$0 \$1 millerverb;
#X obj 30 354 module_create \$0 \$1 stereo-delay;
#X obj 286 49 module_create \$0 \$1 tremolo;
#X obj 289 77 module_create \$0 \$1 audiofreeze;
#X obj 289 108 module_create \$0 \$1 starlight;
#X restore 21 228 pd sound-processors;
#N canvas 0 112 371 457 modulation 0;
#X obj 14 112 module_create \$0 \$1 ahr;
#X obj 14 135 module_create \$0 \$1 slope;
#X obj 14 158 module_create \$0 \$1 decay;
#X obj 14 183 module_create \$0 \$1 basic-lfo;
#X obj 14 204 module_create \$0 \$1 random-gates;
#X obj 14 234 module_create \$0 \$1 s&h;
#X obj 14 260 module_create \$0 \$1 adsr;
#X obj 14 285 module_create \$0 \$1 random-voltages;
#X obj 14 309 module_create \$0 \$1 sinebank;
#X restore 21 250 pd modulation;
#N canvas 0 82 283 349 vca/mixers 0;
#X obj 14 20 module_create \$0 \$1 vca;
#X obj 13 41 module_create \$0 \$1 lpg;
#X obj 13 63 module_create \$0 \$1 xfade;
#X obj 13 85 module_create \$0 \$1 3way-xfade;
#X obj 13 108 module_create \$0 \$1 polarizer;
#X obj 13 131 module_create \$0 \$1 mixer2;
#X obj 13 154 module_create \$0 \$1 mixer4;
#X obj 13 177 module_create \$0 \$1 toggle-matrix;
#X obj 14 198 module_create \$0 \$1 maestro4;
#X obj 14 225 module_create \$0 \$1 random-mixer;
#X restore 21 272 pd vca/mixers;
#N canvas 0 112 348 548 utility/logic 1;
#X obj 14 20 module_create \$0 \$1 clock;
#X obj 14 43 module_create \$0 \$1 clock-multiply;
#X obj 15 68 module_create \$0 \$1 clock-divider-even;
#X obj 14 93 module_create \$0 \$1 clock-divider-odd;
#X obj 14 118 module_create \$0 \$1 vc-counter;
#X obj 14 140 module_create \$0 \$1 trigger-delay;
#X obj 14 162 module_create \$0 \$1 inverter;
#X obj 14 184 module_create \$0 \$1 scope;
#X obj 14 207 module_create \$0 \$1 slew;
#X obj 14 231 module_create \$0 \$1 probability;
#X obj 14 255 module_create \$0 \$1 quantizer;
#X obj 14 282 module_create \$0 \$1 4to1-switch;
#X obj 13 307 module_create \$0 \$1 1to4-switch;
#X obj 14 368 module_create \$0 \$1 env-follower;
#X obj 14 391 module_create \$0 \$1 trigger-train;
#X obj 14 416 module_create \$0 \$1 audio-recorder;
#X obj 14 442 module_create \$0 \$1 multitrack-recorder;
#X obj 15 467 module_create \$0 \$1 external-audio;
#X obj 15 494 module_create \$0 \$1 manual-triggers;
#X obj 15 514 module_create \$0 \$1 manual-toggle;
#X restore 21 294 pd utility/logic;
#N canvas 0 112 248 332 sequencers 0;
#X obj 14 20 module_create \$0 \$1 8steps;
#X obj 14 43 module_create \$0 \$1 mega-sequencer;
#X obj 14 67 module_create \$0 \$1 trigger-seq;
#X obj 14 93 module_create \$0 \$1 gate-seq;
#X obj 14 118 module_create \$0 \$1 ratchet-seq;
#X restore 21 316 pd sequencers;
#N canvas 0 57 1920 1023 upper-left-menu+manual 0;
#X obj 204 151 r open-organelle-map!;
#X obj 387 35 r open-tips-&-tricks!;
#X msg 387 88 \; pd-tips-&-tricks vis \$1;
#X obj 601 117 r \$0-reset!;
#X obj 601 139 delay 500;
#X obj 203 272 r \$0-open-modules!;
#X obj 36 41 r \$0-open-quick-guide!;
#X obj 203 36 r \$0-open-help-files!;
#N canvas 551 193 807 759 \$0-modules 1;
#X obj 196 91 cnv 15 180 15 empty empty MODULATION: 10 8 0 12 -158136
-262144 0;
#X obj 196 112 bng 15 250 50 0 \$0-create-basic-lfo! empty <--BASIC-LFO
17 7 0 10 -262144 -1 -1;
#X obj 10 41 cnv 15 740 45 empty empty MODULES 350 12 0 14 -150893
-262144 0;
#X obj 10 91 cnv 15 180 15 empty empty OSCILLATORS: 10 8 0 12 -158136
-262144 0;
#X obj 10 10 cnv 15 740 30 empty empty WELCOME-TO-AUTOMATONISM 300
12 0 14 -150893 -262144 0;
#X obj 10 191 bng 15 250 50 0 \$0-create-2op-fm! empty <--2OPFM 17
7 0 10 -262144 -1 -1;
#X obj 382 91 cnv 15 180 15 empty empty SOUND-PROCESSORS: 10 8 0 12
-158136 -262144 0;
#X obj 383 130 bng 15 250 50 0 \$0-create-hp-filter! empty <--HP-FILTER
17 7 0 10 -262144 -1 -1;
#X obj 383 150 bng 15 250 50 0 \$0-create-bp-filter! empty <--BP-FILTER
17 7 0 10 -262144 -1 -1;
#X obj 383 209 bng 15 250 50 0 \$0-create-bob-filter! empty <--BOB-FILTER
17 7 0 10 -262144 -1 -1;
#X obj 383 229 bng 15 250 50 0 \$0-create-formant! empty <--FORMANT
17 7 0 10 -262144 -1 -1;
#X obj 383 249 bng 15 250 50 0 \$0-create-bitcrush! empty <--BITCRUSH
17 7 0 10 -262144 -1 -1;
#X obj 383 268 bng 15 250 50 0 \$0-create-wavefold! empty <--WAVEFOLD
17 7 0 10 -262144 -1 -1;
#X obj 383 288 bng 15 250 50 0 \$0-create-phasor! empty <--PHASOR 17
7 0 10 -262144 -1 -1;
#X obj 383 308 bng 15 250 50 0 \$0-create-combfilter! empty <--COMBFILTER
17 7 0 10 -262144 -1 -1;
#X obj 383 328 bng 15 250 50 0 \$0-create-granular-delay! empty <--GRANULAR-DELAY
17 7 0 10 -262144 -1 -1;
#X obj 383 348 bng 15 250 50 0 \$0-create-millerverb! empty <--MILLERVERB
17 7 0 10 -262144 -1 -1;
#X obj 383 368 bng 15 250 50 0 \$0-create-stereo-delay! empty <--STEREO-DELAY
17 7 0 10 -262144 -1 -1;
#X obj 196 191 bng 15 250 50 0 \$0-create-slope! empty <--SLOPE(function-generator)
17 7 0 10 -262144 -1 -1;
#X obj 196 211 bng 15 250 50 0 \$0-create-adsr! empty <--ADSR 17 7
0 10 -262144 -1 -1;
#X obj 196 172 bng 15 250 50 0 \$0-create-decay! empty <--DECAY 17
7 0 10 -262144 -1 -1;
#X obj 196 231 bng 15 250 50 0 \$0-create-random-gates! empty <--RANDOM-GATES
17 7 0 10 -262144 -1 -1;
#X obj 196 251 bng 15 250 50 0 \$0-create-random-voltages! empty <--RANDOM-VOLTAGES
17 7 0 10 -262144 -1 -1;
#X obj 196 310 bng 15 250 50 0 \$0-create-vca! empty <--VCA 17 7 0
10 -262144 -1 -1;
#X obj 569 499 cnv 15 180 15 empty empty MACRO-STRUCTURAL-TOOLS: 10
8 0 12 -158136 -262144 0;
#X obj 568 91 cnv 15 180 15 empty empty UTILITY&LOGIC: 10 8 0 12 -158136
-262144 0;
#X obj 10 496 cnv 15 180 15 empty empty SEQUENCERS: 10 8 0 12 -158136
-262144 0;
#X obj 196 271 bng 15 250 50 0 \$0-create-s&h! empty <--S&H(sample&hold)
17 7 0 10 -262144 -1 -1;
#X obj 196 330 bng 15 250 50 0 \$0-create-lpg! empty <--LPG(lopass-gate)
17 7 0 10 -262144 -1 -1;
#X obj 196 371 bng 15 250 50 0 \$0-create-3way-xfade! empty <--3WAY-XFADE
17 7 0 10 -262144 -1 -1;
#X obj 196 391 bng 15 250 50 0 \$0-create-polarizer! empty <--POLARIZER
17 7 0 10 -262144 -1 -1;
#X obj 196 410 bng 15 250 50 0 \$0-create-mixer2! empty <--MIXER2(2-channel)
17 7 0 10 -262144 -1 -1;
#X obj 196 449 bng 15 250 50 0 \$0-create-toggle-matrix! empty <--TOGGLE-MATRIX
17 7 0 10 -262144 -1 -1;
#X obj 569 131 bng 15 250 50 0 \$0-create-clock-multiply! empty <--CLOCK-MULTIPLY
17 7 0 10 -262144 -1 -1;
#X obj 569 151 bng 15 250 50 0 \$0-create-clock-divider-even! empty
<--CLOCK-DIVIDER-EVEN 17 7 0 10 -262144 -1 -1;
#X obj 569 171 bng 15 250 50 0 \$0-create-clock-divider-odd! empty
<--CLOCK-DIVIDER-ODD 17 7 0 10 -262144 -1 -1;
#X obj 569 191 bng 15 250 50 0 \$0-create-vc-counter! empty <--VC-COUNTER
17 7 0 10 -262144 -1 -1;
#X obj 569 211 bng 15 250 50 0 \$0-create-trigger-delay! empty <--TRIGGER-DELAY
17 7 0 10 -262144 -1 -1;
#X obj 569 250 bng 15 250 50 0 \$0-create-inverter! empty <--INVERTER
17 7 0 10 -262144 -1 -1;
#X obj 569 270 bng 15 250 50 0 \$0-create-scope! empty <--SCOPE 17
7 0 10 -262144 -1 -1;
#X obj 569 290 bng 15 250 50 0 \$0-create-slew! empty <--SLEW 17 7
0 10 -262144 -1 -1;
#X obj 569 310 bng 15 250 50 0 \$0-create-probability! empty <--PROBABILITY
17 7 0 10 -262144 -1 -1;
#X obj 569 330 bng 15 250 50 0 \$0-create-quantizer! empty <--QUANTIZER
17 7 0 10 -262144 -1 -1;
#X obj 569 477 bng 15 250 50 0 \$0-create-manual-triggers! empty <--MANUAL-TRIGGERS
17 7 0 10 -150893 -1 -1;
#X obj 569 111 bng 15 250 50 0 \$0-create-clock! empty <--CLOCK 17
7 0 10 -262144 -1 -1;
#X obj 10 516 bng 15 250 50 0 \$0-create-8steps! empty <--8STEPS 17
7 0 10 -262144 -1 -1;
#X obj 10 536 bng 15 250 50 0 \$0-create-mega-sequencer! empty <--MEGA-SEQUENCER!
17 7 0 10 -262144 -1 -1;
#X obj 569 350 bng 15 250 50 0 \$0-create-4to1-switch! empty <--4TO1-SWITCH
17 7 0 10 -262144 -1 -1;
#X obj 10 314 bng 15 250 50 0 \$0-create-kick! empty <--KICK 17 7 0
10 -158136 -1 -1;
#X obj 10 334 bng 15 250 50 0 \$0-create-snare! empty <--SNARE 17 7
0 10 -158136 -1 -1;
#X obj 383 170 bng 15 250 50 0 \$0-create-ladder-filter! empty <--LADDER-FILTER
17 7 0 10 -262144 -1 -1;
#X obj 196 350 bng 15 250 50 0 \$0-create-xfade! empty <--XFADE 17
7 0 10 -262144 -1 -1;
#X obj 383 110 bng 15 250 50 0 \$0-create-lp-filter! empty <--LP-FILTER
17 7 0 10 -262144 -1 -1;
#X obj 10 111 bng 15 250 50 0 \$0-create-basic-osc! empty <--BASIC-OSC
17 7 0 10 -262144 -1 -1;
#X obj 10 131 bng 15 250 50 0 \$0-create-bwl-osc! empty <--BWL-OSC
17 7 0 10 -262144 -1 -1;
#X obj 10 151 bng 15 250 50 0 \$0-create-wtable! empty <--WTABLE 17
7 0 10 -262144 -1 -1;
#X obj 10 170 bng 15 250 50 0 \$0-create-karplus! empty <--KARPLUS
17 7 0 10 -262144 -1 -1;
#X obj 569 392 bng 15 250 50 0 \$0-create-env-follower! empty <--ENV-FOLLOWER
17 7 0 10 -262144 -1 -1;
#X obj 10 231 bng 15 250 50 0 \$0-create-triad! empty <--TRIAD 17 7
0 10 -262144 -1 -1;
#X obj 570 519 bng 15 250 50 0 \$0-create-preset-manager! empty <--PRESET-MANAGER
17 7 0 10 -158136 -1 -1;
#X obj 196 152 bng 15 250 50 0 \$0-create-ahr! empty <--ATTACK-HOLD-RELEASE(ahr)
17 7 0 10 -262144 -1 -1;
#X obj 10 556 bng 15 250 50 0 \$0-create-trigger-seq! empty <--TRIGGER-SEQ
17 7 0 10 -262144 -1 -1;
#X obj 569 371 bng 15 250 50 0 \$0-create-1to4-switch! empty <--1TO4-SWITCH
17 7 0 10 -262144 -1 -1;
#X obj 196 429 bng 15 250 50 0 \$0-create-mixer4! empty <--MIXER4(4-channel)
17 7 0 10 -262144 -1 -1;
#X obj 10 211 bng 15 250 50 0 \$0-create-trigons! empty <--TRIGONS
17 7 0 10 -262144 -1 -1;
#X obj 196 132 bng 15 250 50 0 \$0-create-sinebank! empty <--SINEBANK
17 7 0 10 -262144 -1 -1;
#X obj 196 534 bng 15 250 50 0 \$0-create-midi-in! empty <--MIDI-IN
17 7 0 10 -262144 -1 -1;
#X obj 196 575 cnv 15 180 15 empty empty ORGANELLE: 10 8 0 12 -158136
-262144 0;
#X obj 196 514 cnv 15 180 15 empty empty MIDI: 10 8 0 12 -158136 -262144
0;
#X obj 196 596 bng 15 250 50 0 \$0-create-organelle-knobs! empty <--ORGANELLE-KNOBS
17 7 0 10 -262144 -1 -1;
#X obj 196 616 bng 15 250 50 0 \$0-create-organelle-keyboard! empty
<--ORGANELLE-KEYBOARD! 17 7 0 10 -262144 -1 -1;
#X obj 196 636 bng 15 250 50 0 \$0-create-organelle-aux! empty <--ORGANELLE-AUX
17 7 0 10 -262144 -1 -1;
#X obj 383 466 bng 15 250 50 0 \$0-create-pitchshifter! empty <--PITCHSHIFTER
17 7 0 10 -150893 -1 -1;
#X obj 10 292 bng 15 250 50 0 \$0-create-polyfm! empty <--POLYFM 17
7 0 10 -150893 -1 -1;
#X obj 569 230 bng 15 250 50 0 \$0-create-trigger-train! empty <--TRIGGER-TRAIN
17 7 0 10 -150893 -1 -1;
#X obj 10 251 bng 15 250 50 0 \$0-create-pd-303! empty <--PD-303 17
7 0 10 -150893 -1 -1;
#X obj 10 271 bng 15 250 50 0 \$0-create-polysynth! empty <--POLYSYNTH
17 7 0 10 -150893 -1 -1;
#X obj 196 469 bng 15 250 50 0 \$0-create-maestro4! empty <--MAESTRO4(dac~)
17 7 0 10 -262144 -1 -1;
#X obj 570 578 bng 15 250 50 0 \$0-create-random-time-manager! empty
<--RANDOM-TIME-MANAGER 17 7 0 10 -158136 -1 -1;
#X obj 196 555 bng 15 250 50 0 \$0-create-midi-out! empty <--MIDI-OUT
17 7 0 10 -262144 -1 -1;
#X obj 196 656 bng 15 250 50 0 \$0-create-organelle-output! empty <--ORGANELLE-OUTPUT
17 7 0 10 -262144 -1 -1;
#X obj 569 412 bng 15 250 50 0 \$0-create-audio-recorder! empty <--AUDIO-RECORDER
17 7 0 10 -150893 -1 -1;
#X obj 10 396 bng 15 250 50 0 \$0-create-noise! empty <--NOISE 17 7
0 10 -262144 -1 -1;
#X obj 10 416 bng 15 250 50 0 \$0-create-looper! empty <--LOOPER 17
7 0 10 -150893 -1 -1;
#X obj 569 434 bng 15 250 50 0 \$0-create-multitrack-recorder! empty
<--MULTITRACK-RECORDER 17 7 0 10 -150893 -1 -1;
#X obj 383 408 bng 15 250 50 0 \$0-create-overdrive! empty <--OVERDRIVE
17 7 0 10 -150893 -1 -1;
#X obj 383 427 bng 15 250 50 0 \$0-create-filterbank! empty <--PRESET-FILTERBANK
17 7 0 10 -150893 -1 -1;
#X obj 383 446 bng 15 250 50 0 \$0-create-megaverb! empty <--MEGAVERB
17 7 0 10 -150893 -1 -1;
#X obj 569 455 bng 15 250 50 0 \$0-create-external-audio! empty <--EXTERNAL-AUDIO
17 7 0 10 -150893 -1 -1;
#X obj 383 388 bng 15 250 50 0 \$0-create-chorus! empty <--CHORUS 17
7 0 10 -262144 -1 -1;
#X obj 383 190 bng 15 250 50 0 \$0-create-analog-filter! empty <--ANALOG-FILTER
17 7 0 10 -262144 -1 -1;
#X obj 383 485 bng 15 250 50 0 \$0-create-compressor! empty <--COMPRESSOR
17 7 0 10 -158136 -1 -1;
#X obj 10 593 bng 15 250 50 0 \$0-create-ratchet-seq! empty <--RATCHET-SEQ
17 7 0 10 -158136 -1 -1;
#X obj 10 436 bng 15 250 50 0 \$0-create-sampler! empty <--SAMPLER
17 7 0 10 -150893 -1 -1;
#X obj 10 575 bng 15 250 50 0 \$0-create-gate-seq! empty <--GATE-SEQ
17 7 0 10 -262144 -1 -1;
#X obj 10 456 bng 15 250 50 0 \$0-create-chord-synth! empty <--CHORD-SYNTH
17 7 0 10 -158136 -1 -1;
#X obj 383 505 bng 15 250 50 0 \$0-create-channel-eq! empty <--CHANNEL-EQ
17 7 0 10 -158136 -1 -1;
#X obj 383 563 bng 15 250 50 0 \$0-create-audiofreeze! empty <--AUDIOFREEZE
17 7 0 10 -158136 -1 -1;
#X obj 196 290 cnv 15 180 15 empty empty VCA/MIXERS: 10 8 0 12 -158136
-262144 0;
#X obj 570 539 bng 15 250 50 0 \$0-create-param-nudge! empty <--PARAM-NUDGE
17 7 0 10 -158136 -1 -1;
#X obj 570 559 bng 15 250 50 0 \$0-create-time-manager! empty <--TIME-MANAGER
17 7 0 10 -158136 -1 -1;
#X obj 10 375 bng 15 250 50 0 \$0-create-percussion! empty <--PERCUSSION
17 7 0 10 -158136 -1 -1;
#X obj 10 355 bng 15 250 50 0 \$0-create-hihat! empty <--HIHAT 17 7
0 10 -158136 -1 -1;
#X obj 196 489 bng 15 250 50 0 \$0-create-random-mixer! empty <--RANDOM-MIXER
17 7 0 10 -158136 -1 -1;
#X obj 10 476 bng 15 250 50 0 \$0-create-algomatrix! empty <--ALGOMATRIX
17 7 0 10 -158136 -1 -1;
#X obj 383 523 bng 15 250 50 0 \$0-create-vintageverb! empty <--VINTAGEVERB
17 7 0 10 -158136 -1 -1;
#X obj 383 543 bng 15 250 50 0 \$0-create-starlight! empty <--STARLIGHT
17 7 0 10 -158136 -1 -1;
#X obj 383 583 bng 15 250 50 0 \$0-create-tremolo! empty <--TREMOLO
17 7 0 10 -158136 -1 -1;
#X text 435 703 (New & updated modules for Automatonism v3.0 have PURPLE
buttons);
#X text 436 672 (New & updated modules for Automatonism v2.0 have GREEN
buttons);
#X obj 579 617 bng 15 250 50 0 \$0-create-manual-toggle! empty <--MANUAL-TOGGLE
17 7 0 10 -150893 -1 -1;
#X restore 204 249 pd \$0-modules;
#X msg 38 178 vis 1;
#X obj 38 203 s pd-\$0-signal-flow;
#X obj 38 156 r \$0-open-signal-flow!;
#N canvas 416 23 852 668 \$0-signal-flow 0;
#X obj 22 10 cnv 15 365 30 empty empty SIGNAL-FLOW 20 12 0 14 -226533
-262144 0;
#X obj 26 161 hsl 128 15 0 127 0 0 empty empty empty -2 -8 0 10 -158136
-262144 -1 0 1;
#X obj 24 214 hsl 128 15 0 127 0 0 empty empty empty -2 -8 0 10 -150893
-1 -1 0 1;
#X obj 21 281 cnv 5 5 5 empty empty CLOCK-IN 0 0 0 8 -262144 -226533
0;
#X text 17 328 All inputs and outputs in the editor are at signal rate
within the range of -1 to 1 In contrast to normal pd-programming there
is no distinction between control rate and signal rate messages. Everything
is converted to signal rate.;
#X msg 20 439 bang;
#X msg 20 461 1 0 \, 0 1 1;
#X obj 20 483 vline~;
#X msg 23 535 bang;
#X msg 23 557 1 0 \, 0 1 1;
#X obj 23 579 vline~;
#X msg 23 623 bang;
#X text 19 404 How to convert a simple bang to a trigger/gate signal
in the patch editor:;
#X obj 23 601 threshold~ 0.99 0 1 0;
#X text 21 518 How to convert back to a control rate bang:;
#X obj 404 569 hsl 128 15 0 127 0 0 empty empty empty -2 -8 0 10 -262144
-1 -1 0 1;
#X obj 401 589 / 127;
#X obj 401 611 sig~;
#X text 398 534 How convert control numbers to the patch editor's signal
flow:;
#X text 541 568 0-127;
#X text 21 178 Purple sliders and inlets means the slider will function
as an attenuator for incoming CV.;
#X text 21 48 There are three types of signals in the patch editor:
audio \, cv and trigger/gate/pulse/clock. The latter are marked with
PINK inlets and outlets. General rule in the patch editor is that all
connections are possible. Or \, at least \, just like in any hardware
modular system - all connections might not work but there's no harm
in trying. ! ! The patch-editor uses color-coding to clarify the signal
flow as much as possible.;
#X text 18 287 And pink inlets means the input is expecting a trigger/gate
signal to function properly.;
#X text 19 230 Green sliders and inlets tells you that the parameter
is bi-polar \, most oftenly working as an attenueverter for incoming
CV.;
#X connect 5 0 6 0;
#X connect 6 0 7 0;
#X connect 8 0 9 0;
#X connect 9 0 10 0;
#X connect 10 0 13 0;
#X connect 13 0 11 0;
#X connect 15 0 16 0;
#X connect 16 0 17 0;
#X restore 39 134 pd \$0-signal-flow;
#N canvas 0 23 1004 774 \$0-quick-guide 0;
#X obj 451 535 cnv 15 375 125 empty empty empty 20 12 0 14 -226533
-66577 0;
#X obj 454 400 cnv 15 375 125 empty empty empty 20 12 0 14 -150893
-66577 0;
#X obj 17 17 cnv 15 750 60 empty empty Welcome_to_AUTOMATONISM:_Making_Music_with_Self-playing_Machines
20 12 0 14 -150893 -262144 0;
#X text 19 86 FOLLOW THESE SIMPLE STEPS TO GET STARTED:;
#X text 19 127 1 When starting the AUTOMATONISM you'll see a list of
all current available modules to the right. Click the button to the
left of the module you want to load and it will appear to the left
in the parent window. The module list will then disappear. To call
back the module list you can click the grey link in the upper left
called "MODULES(esc) or simply upress "esc" on your keyboard;
#X text 19 246 2 Create a BASIC-OSC from the module list.;
#X text 20 422 4 Pure Data has an EDIT MODE and a PERFORMANCE MODE.
To make patch connections between objects we need to be in EDIT MODE
and to interact with the GUI we need to be in PERFORMANCE MODE. Toggle
between the two modes with cmd+e.;
#X text 23 289 3 Open the module list and create the module in the
lower right corner called MAESTRO4(dac~). This is the digital-to-analog-converter
and is one of the modules that passes on sound to your speakers. Now
you can soon make a sound.;
#X text 19 519 5 All inputs are at the top of the modules and all outputs
are at the bottom. In EDIT MODE \, connect the BASIC-OSC's output CH1
on the MAESTRO4. Now \, you should have sound. Switch to PERFORMANCE
MODE and use the mouse to move the PITCH slider on the BASIC-OSC module.
;
#X text 20 622 6 Right click on any module and choose HELP to read
more about a module's functions.;
#X text 464 125 7 To save parameter states on each module \, you have
to save the pd file \, like you normally would do from the FILE menu
or cmd+s \, and then click the grey SAVE! canvas in the left bottom
corner(or simply press ENTER on your keyboard) and you'll see the canvas
change color from grey to green for a brief moment. All parameter values
are now written to textfiles and can be loaded to the equivalent module
and instance number next time the patch is loaded.;
#X text 464 245 8 You can call modules without using the module list
simply by creating a new object in pd and type the module's name. For
the state saving mechanism to work properly you do need to give the
module a unique numerical argument. Type "basic-osc 1" for an oscillator
and "basic-osc 2" if you need another one. By using the MODULES list
this unique numbering is done automatically for you. Use the RESET
link in the upper left corner when starting a new patch as this will
reset the counter of unique numbers for modules.;
#X text 457 403 9 IMPORTANT!!! In order for Automatonism to work properly
\, each patch needs to contain the correct folder structure. A folder--that
you can name freely--must contain the folder "patch_editor_abs" and
the pd-file "main.pd". Copy the entire main parent folder to start
a new project. Please do not add the abstractions to your PD Search
path \, because the state svaing system will be writing textfiles in
your external folders.;
#X text 451 534 ABOUT RESET BUTTON: Only use the RESET button when
your canvas is empty. If you click it in the middle of a patch \, modules
will start getting identical state saving numbers to already existing
modules. In other words \, if you click it in the middle of a patch
\, state saving WILL NOT WORK! The RESET button is there for when you
start over \, and perhaps do not want to create "BASIC-OSC 99" \, but
start from zero for a clearer view of the patch.;
#X text 33 42 RIGHT+CLICK & CHOOSE 'HELP' ON ANY MODULE!;
#X restore 36 18 pd \$0-quick-guide;
#X msg 36 63 vis 1;
#X obj 36 87 s pd-\$0-quick-guide;
#X msg 203 62 vis 1;
#N canvas 93 118 438 191 \$0-help-files 0;
#X obj 17 12 cnv 15 400 60 empty empty HELP-FILES 20 12 0 14 -226533
-262144 0;
#X text 20 84 Right + click on individual modules and choose "HELP"
to access detailed help-files on each modules inlets \, outlets and
functionalities.;
#X restore 203 15 pd \$0-help-files;
#X obj 203 86 s pd-\$0-help-files;
#X msg 204 173 vis 1;
#X obj 204 197 s pd-\$0-organelle-map;
#N canvas 0 22 434 295 \$0-organelle-map 0;
#X obj 17 12 cnv 15 400 60 empty empty MAPPING-ORGANELLE-KNOBS/KEYS
20 12 0 14 -226533 -262144 0;
#X text 20 84 There are specific modules for integrating the Organelle
knobs and keyboard into your patches. Use "organelle-keyboard and "organelle-knobs"
to connect the keyboard or knobs to parameter values in your patch.
Remember that the parameter slider on the module acts as an offset
when external cv is connected so set the slider to zero to access the
entire range of the parameter with the organelle keyboard or knobs.
See the"organelle-keyboard" and "organelle-knobs" help-files for more
info. There are many ways to use PD with the Organelle. The "organelle-keyboard"
and "organelle-knobs" modules use a simplistic approach. Use your own
more elaborate pd-code for deeper control.;
#X restore 204 130 pd \$0-organelle-map;
#X msg 36 288 vis 1;
#X obj 36 312 s pd-\$0-color-code;
#N canvas 138 156 591 276 \$0-color-code 0;
#X obj 140 39 hsl 128 15 0 127 0 0 empty empty empty -2 -8 0 10 -158136
-262144 -1 0 1;
#X obj 140 100 hsl 128 15 0 127 0 0 empty empty empty -2 -8 0 10 -150893
-1 -1 0 1;
#X obj 137 175 cnv 5 5 5 empty empty CLOCK-IN 0 0 0 8 -262144 -226533
0;
#X text 134 56 Purple sliders and inlets means the slider will function
as an attenuator for incoming CV.;
#X text 133 117 Green sliders and inlets tells you that the parameter
is bi-polar \, most oftenly working as an attenueverter for incoming
CV.;
#X text 135 181 And pink inlets means the input is expecting a trigger/gate
signal or short impulse(square-wave) to function properly.;
#X restore 37 244 pd \$0-color-code;
#N canvas 292 444 377 372 \$0-manual 0;
#X obj 17 12 cnv 15 320 60 empty empty WELCOME-TO-THE-AUTOMATONISM-MANUAL!
20 12 0 14 -150893 -262144 0;
#X obj 22 82 hsl 115 30 0 127 0 0 \$0-open-signal-flow! empty empty
-2 -8 0 10 -262144 -1 -1 0 1;
#X obj 79 82 cnv 15 60 30 empty empty FLOW 6 12 0 14 -233017 -66577
0;
#X obj 19 82 cnv 15 60 30 empty empty SIGNAL 4 12 0 14 -233017 -66577
0;
#X obj 21 119 hsl 115 30 0 127 0 0 \$0-open-color-code! empty empty
-2 -8 0 10 -262144 -1 -1 0 1;
#X obj 79 119 cnv 15 60 30 empty empty CODE 6 12 0 14 -233017 -66577
0;
#X obj 18 119 cnv 15 60 30 empty empty COLOR 18 12 0 14 -233017 -66577
0;
#X obj 21 157 hsl 115 30 0 127 0 0 \$0-open-state-saving! empty empty
-2 -8 0 10 -262144 -1 -1 0 1;
#X obj 79 157 cnv 15 60 30 empty empty SAVING 6 12 0 14 -233017 -66577
0;
#X obj 18 157 cnv 15 60 30 empty empty STATE 18 12 0 14 -233017 -66577
0;
#X obj 21 196 hsl 115 30 0 127 0 0 \$0-open-help-files! empty empty
-2 -8 0 10 -262144 -1 -1 0 1;
#X obj 79 196 cnv 15 60 30 empty empty FILES 6 12 0 14 -233017 -66577
0;
#X obj 18 196 cnv 15 60 30 empty empty HELP 18 12 0 14 -233017 -66577
0;
#X obj 20 232 hsl 155 30 0 127 0 0 \$0-open-folder-hierarchy! empty
empty -2 -8 0 10 -262144 -1 -1 0 1;
#X obj 78 232 cnv 15 100 30 empty empty HIERARCHY 20 12 0 14 -233017
-66577 0;
#X obj 17 232 cnv 15 60 30 empty empty FOLDER 18 12 0 14 -233017 -66577
0;
#X obj 21 268 hsl 170 30 0 127 0 0 \$0-open-feedback-loops! empty empty
-2 -8 0 10 -262144 -1 -1 0 1;
#X obj 16 268 cnv 15 180 30 empty empty FEEDBACK-&-DSP-LOOPS 18 12
0 14 -233017 -66577 0;
#X obj 19 304 hsl 115 30 0 127 0 0 \$0-open-license! empty empty -2
-8 0 10 -262144 -1 -1 0 1;
#X obj 16 304 cnv 15 120 30 empty empty LICENSE 18 12 0 14 -233017
-66577 0;
#X obj 160 81 hsl 155 30 0 127 0 0 \$0-open-external-msg! empty empty
-2 -8 0 10 -262144 -1 -1 0 1;
#X obj 152 81 cnv 15 120 30 empty empty EXTERNAL 18 12 0 14 -233017
-66577 0;
#X obj 237 81 cnv 15 80 30 empty empty MESSAGES 6 12 0 14 -233017 -66577
0;
#X restore 37 358 pd \$0-manual;
#X obj 37 382 r \$0-open-manual!;
#X msg 37 404 vis 1;
#X obj 37 428 s pd-\$0-manual;
#N canvas 236 244 420 357 \$0-state-saving 0;
#X obj 17 12 cnv 15 400 60 empty empty STATE_SAVING 20 12 0 14 -226533
-262144 0;
#X text 20 82 The state saving system works by writing parameter values
to textfiles in the folder "statesave" inside the "patch_editor_abs"
folder. When you load a module form the module list it is automatically
being given a unique creation argument which creates a textfile unique
for that instance of the module. To save your patch \, simply save
as you normally would from the FILE menu and the press ENTER on your
keyboard or click the SAVE button in the upper left corner of the main
window.;
#X text 20 216 IMPORTANT!!! To start a new project \, the entire folder
structure needs to be copied since the abstractions and textfiles are
unique to every project. Click the RESET button in the upper left corner
to reset the counter that gives unique creation arguments for the modules.
;
#X restore 35 504 pd \$0-state-saving;
#X obj 34 526 r \$0-open-state-saving!;
#X msg 34 547 vis 1;
#X obj 34 571 s pd-\$0-state-saving;
#X obj 36 266 r \$0-open-color-code!;
#X obj 202 594 r \$0-open-folder-hierarchy!;
#N canvas 0 233 420 254 \$0-folder-hierarchy 0;
#X obj 17 12 cnv 15 400 60 empty empty FOLDER-HIEARCHY 20 12 0 14 -226533
-262144 0;
#X text 20 84 Inside your project folder you'll find a file called
"main.pd" and a folder called "patch_editor_abs". The "main.pd" must
stay named the same for Automatonism to function properly. Also \,
each of your projects/patches needs tp be in a separet folder with
its own "main.pd" and "patch_editor_abs" folder. Copy & paste the project
folder \, which you can give any name \, when you want to start a new
project/patch.;
#X restore 203 571 pd \$0-folder-hierarchy;
#X msg 202 616 vis 1;
#X obj 202 640 s pd-\$0-folder-hierarchy;
#N canvas 0 233 420 323 \$0-feedback-loops 0;
#X obj 17 12 cnv 15 400 60 empty empty FEEDBACK-&-DSP-LOOPS 20 12 0
14 -226533 -262144 0;
#X text 23 83 Feedback patching is very much possible in the AUTOMATONISM
\, just a little bit differently from physical modular systems. If
you try to patch a module into itself or any kind of feedback routing
\, Pure Data will become silent and you'll get a "DSP loop detected"
message in the Pd window. To avoid this you need to delay the signal
a tiny tiny bit. Normal [send~) and [receive~] objects automatically
does this in Pd. Send the signal to be feedbacked into a [send~ MyFeedback]
and pick it up using [receive~ MyFeedback] and then patch into the
input to close the feedback loop. Obviously "MyFeedback" could be anything
and the abbreviation for send and receive [s~] and [r~] work equally
as well.;
#X restore 383 584 pd \$0-feedback-loops;
#X obj 381 607 r \$0-open-feedback-loops!;
#X msg 381 629 vis 1;
#X obj 381 653 s pd-\$0-feedback-loops;
#N canvas 0 23 439 625 \$0-license 0;
#X obj 17 12 cnv 15 400 60 empty empty LICENSE 20 12 0 14 -233017 -66577
0;
#X text 23 83 Copyright ©  2017 \, Johan Eriksson Automatonism is
free software: you can redistribute it and/or modify it under the terms
of the GNU General Public License as published by the Free Software
Foundation \, either version 3 of the License \, or any later version.
This program is distributed in the hope that it will be useful \, but
WITHOUT ANY WARRANTY \; without even the implied warranty of MERCHANTABILITY
or FITNESS FOR A PARTICULAR PURPOSE. See the GNU General Public License
for more details.;
#X restore 382 698 pd \$0-license;
#X obj 380 721 r \$0-open-license!;
#X msg 380 743 vis 1;
#X obj 380 767 s pd-\$0-license;
#N canvas 0 23 432 503 \$0-export-patches 0;
#X obj 17 12 cnv 15 400 60 empty empty EXPORT-PATCH 20 12 0 14 -233017
-66577 0;
#X text 20 84 So \, how do you export patces made in the editor to
the Organelle?;
#X text 26 131 LOREM IPSUM.;
#X restore 199 698 pd \$0-export-patches;
#X obj 198 721 r \$0-open-export-patches!;
#X msg 198 743 vis 1;
#X obj 198 767 s pd-\$0-export-patches;
#N canvas 0 22 435 328 \$0-tips-&-tricks 0;
#X obj 17 12 cnv 15 400 60 empty empty TIPS&TRICKS 20 12 0 14 -226533
-262144 0;
#X text 20 110 Hide portions of a complex patch in a subpatch to gain
more space.;
#X text 20 175 Don't forget to use utility modules;
#X text 20 201 Existing modular synthesis tutorials ond patches can
be translated to the XOUDLAR playGROUND \; like nord modular patches
\, sound on sound synthesis secrets \, allen strange's book \, make
noise shared system patches \, buchla patches etc;
#X text 20 84 Useful tips and tricks:;
#X text 20 149 Use [switch~] in subpatches in large projects too free
CPU;
#X text 20 266 If you want two same modules to share exact parameters
copy&paste the module instead of loading a new from the module list.
;
#X restore 389 12 pd \$0-tips-&-tricks;
#N canvas 293 203 419 217 \$0-reset-warning 0;
#X obj 21 143 bng 15 250 50 0 \$0-reset! empty <--RESET! 17 7 0 10
-262144 -1 -1;
#X text 18 49 WARNING!;
#X text 19 68 Never press the RESET! button in the middle of working
of a patch since it can cause the state saving mechanism to malfunction.
Only use it when starting a new patch and you want the module counters
to start over at zero. PRESS THE BUTTON BELOW TO RESET:;
#X restore 600 15 pd \$0-reset-warning;
#N canvas 0 23 432 503 \$0-advanced-pd-users 0;
#X obj 17 12 cnv 15 400 60 empty empty ADVANCED-PD-USERS 20 12 0 14
-233017 -66577 0;
#X text 20 84 Some useful information for advanced pd users who want
to change \, interact or expand on the XODULAR PLAYGROUND code:;
#X text 21 141 LOREM IPSUM;
#X restore 386 142 pd \$0-advanced-pd-users;
#N canvas 0 22 673 716 \$0-make-your-own-module 0;
#X obj 17 12 cnv 15 400 60 empty empty MAKE-YOUR-OWN-MODULE 20 12 0
14 -226533 -262144 0;
#X msg 24 128 bang;
#X msg 24 150 1 0 \, 0 1 1;
#X obj 24 172 vline~;
#X msg 23 222 bang;
#X msg 23 244 1 0 \, 0 1 1;
#X obj 23 266 vline~;
#X msg 23 310 bang;
#X text 23 93 How to convert a simple bang to a trigger/gate signal
in the patch editor:;
#X obj 23 288 threshold~ 0.99 0 1 0;
#X text 21 205 How to convert back to a control rate bang:;
#X obj 28 389 hsl 128 15 0 127 0 0 empty empty empty -2 -8 0 10 -262144
-1 -1 0 1;
#X obj 25 409 / 127;
#X obj 25 431 sig~;
#X text 22 354 How convert control numbers to the patch editor's signal
flow:;
#X text 165 388 0-127;
#X text 21 509 GRAPH ON PARENT;
#X text 22 539 MODULE TITLE;
#X text 24 575 INLET/OUTLET LABELS;
#X text 33 614 STATE-SAVING;
#X text 20 477 CV INPUTS:;
#X connect 1 0 2 0;
#X connect 2 0 3 0;
#X connect 4 0 5 0;
#X connect 5 0 6 0;
#X connect 6 0 9 0;
#X connect 9 0 7 0;
#X connect 11 0 12 0;
#X connect 12 0 13 0;
#X restore 384 264 pd \$0-make-your-own-module;
#X obj 601 40 r \$0-open-reset-warning!;
#X msg 387 57 vis 1;
#X msg 601 62 vis 1;
#X msg 604 289 vis 1;
#X obj 601 86 s pd-\$0-reset-warning;
#X msg 601 163 vis 0;
#X obj 601 186 s pd-\$0-reset-warning;
#N canvas 472 160 457 575 \$0-external-msg 0;
#X obj 17 12 cnv 15 400 60 empty empty EXTERNAL_MESSAGES 20 12 0 14
-226533 -262144 0;
#X text 27 86 You can send external control messages into Automatonism
modules since Automatonsim 3.0. This makes it easier to map midi controllers
to specific parameters and integrate your patches with other Pure Data
patches. External Messages routing in Automatonism works like this:
;
#X obj 41 181 hsl 128 15 0 127 0 0 empty empty 0-127 -2 -8 0 10 -262144
-1 -1 0 1;
#X floatatom 38 201 5 0 0 0 - - -;
#X msg 38 221 PITCH \$1 1;
#X obj 38 242 s basic-osc;
#X text 36 276 Send a value between 0-127;
#X text 38 395 To control the P-WIDTH slider of the BASIC-OSC with
instance number 3 \, do this instead:;
#X obj 41 451 hsl 128 15 0 127 0 0 empty empty 0-127 -2 -8 0 10 -262144
-1 -1 0 1;
#X floatatom 38 471 5 0 0 0 - - -;
#X msg 38 491 P-WIDTH \$1 3;
#X obj 38 512 s basic-osc;
#X text 37 296 Write a message where the first word is the name of
the slider you are trying to externally control \, type "\$1" to pass
on your value to the module and finally type the instance number of
the specific module you want to control. The instance number is always
showcased to the right of the module's title. Then create a send object
and send to the name of the module \, for example [s basic-osc];
#X connect 2 0 3 0;
#X connect 3 0 4 0;
#X connect 4 0 5 0;
#X connect 8 0 9 0;
#X connect 9 0 10 0;
#X connect 10 0 11 0;
#X restore 606 244 pd \$0-external-msg;
#X obj 604 267 r \$0-open-external-msg!;
#X obj 604 313 s pd-\$0-external-msg;
#X obj 384 165 r \$0-open-advanced-pd-users!;
#X msg 384 187 vis 1;
#X obj 384 211 s pd-\$0-advanced-pd-users;
#X obj 382 287 r \$0-open-make-your-own-module!;
#X msg 382 309 vis 1;
#X obj 382 333 s pd-\$0-make-your-own-module;
#N canvas 526 265 747 659 open_modules 0;
#X obj 293 26 inlet;
#X obj 340 264 delay 100;
#X obj 313 241 t b b;
#X msg 340 295 editmode 1;
#X obj 340 320 s \$1-this;
#X msg 316 346 vis 1;
#X obj 316 371 s pd-\$0-modules;
#X msg 295 65 1;
#X obj 295 90 s \$0-modules_menu_opened;
#X obj 283 165 r \$0-modules_menu_opened;
#X obj 282 192 select 0 1;
#X msg 256 344 vis 0;
#N canvas 291 700 631 593 modules-esc 0;
#X obj 39 36 key;
#X floatatom 39 122 5 0 0 0 - - -;
#X obj 39 141 sel 27;
#X obj 39 166 spigot;
#X obj 126 108 inlet;
#X obj 39 296 s \$0-open-modules!;
#X obj 309 114 iemguts/receivecanvas 5;
#X obj 309 139 route key;
#X obj 309 164 route 1;
#X obj 309 189 route 27;
#X obj 81 254 bng 15 250 50 0 empty empty empty 17 7 0 10 -262144 -1
-1;
#X obj 133 61 iemguts/classtest;
#X obj 39 80 spigot 1;
#X obj 134 10 loadbang;
#X msg 134 35 symbol classtest;
#X obj 133 86 == 0;
#X obj 309 214 t b;
#X connect 0 0 12 0;
#X connect 1 0 2 0;
#X connect 2 0 3 0;
#X connect 3 0 5 0;
#X connect 4 0 3 1;
#X connect 6 0 7 0;
#X connect 7 0 8 0;
#X connect 8 0 9 0;
#X connect 9 0 16 0;
#X connect 10 0 5 0;
#X connect 11 0 15 0;
#X connect 12 0 1 0;
#X connect 13 0 14 0;
#X connect 14 0 11 0;
#X connect 15 0 12 1;
#X connect 16 0 5 0;
#X restore 91 586 pd modules-esc;
#X text 34 538 appui sur la touche ESC pour faire apparaitre le menu
MODULES, f 32;
#X obj 507 262 unpack f f;
#X obj 505 175 route motion zoom;
#X obj 507 287 / 1;
#X obj 573 289 / 1;
#X obj 508 318 pack f f;
#X obj 508 343 s \$0-coords;
#X obj 541 112 r \$0-esc-active;
#X obj 502 141 spigot;
#X obj 505 229 spigot 1;
#X obj 642 203 == 0;
#X obj 642 174 r \$0-modules_menu_opened;
#X obj 657 261 select 0;
#X msg 657 286 200 200;
#X obj 502 86 iemguts/receivecanvas 4;
#X obj 82 228 r \$0-esc-active;
#X obj 140 370 savestate;
#X obj 84 268 t f f;
#X obj 136 332 list;
#X msg 139 302 esc-active \$1;
#X obj 140 395 list trim;
#X obj 140 420 route esc-active;
#X obj 138 452 s \$0-esc-active-rcv;
#X connect 0 0 7 0;
#X connect 1 0 3 0;
#X connect 2 0 5 0;
#X connect 2 1 1 0;
#X connect 3 0 4 0;
#X connect 5 0 6 0;
#X connect 7 0 8 0;
#X connect 9 0 10 0;
#X connect 10 0 11 0;
#X connect 10 1 2 0;
#X connect 11 0 6 0;
#X connect 14 0 16 0;
#X connect 14 1 17 0;
#X connect 15 0 22 0;
#X connect 15 1 16 1;
#X connect 15 1 17 1;
#X connect 16 0 18 0;
#X connect 17 0 18 1;
#X connect 18 0 19 0;
#X connect 20 0 21 1;
#X connect 20 0 25 0;
#X connect 21 0 15 0;
#X connect 22 0 14 0;
#X connect 23 0 22 1;
#X connect 24 0 23 0;
#X connect 25 0 26 0;
#X connect 26 0 19 0;
#X connect 27 0 21 0;
#X connect 28 0 30 0;
#X connect 29 0 33 0;
#X connect 29 1 31 0;
#X connect 30 0 12 0;
#X connect 30 1 32 0;
#X connect 31 0 29 0;
#X connect 32 0 31 1;
#X connect 33 0 34 0;
#X connect 34 0 35 0;
#X restore 204 299 pd open_modules;
#X connect 0 0 19 0;
#X connect 1 0 55 0;
#X connect 3 0 4 0;
#X connect 4 0 59 0;
#X connect 5 0 70 0;
#X connect 6 0 14 0;
#X connect 7 0 16 0;
#X connect 9 0 10 0;
#X connect 11 0 9 0;
#X connect 14 0 15 0;
#X connect 16 0 18 0;
#X connect 19 0 20 0;
#X connect 22 0 23 0;
#X connect 26 0 27 0;
#X connect 27 0 28 0;
#X connect 30 0 31 0;
#X connect 31 0 32 0;
#X connect 33 0 22 0;
#X connect 34 0 36 0;
#X connect 36 0 37 0;
#X connect 39 0 40 0;
#X connect 40 0 41 0;
#X connect 43 0 44 0;
#X connect 44 0 45 0;
#X connect 47 0 48 0;
#X connect 48 0 49 0;
#X connect 54 0 56 0;
#X connect 55 0 2 0;
#X connect 56 0 58 0;
#X connect 57 0 63 0;
#X connect 59 0 60 0;
#X connect 62 0 57 0;
#X connect 64 0 65 0;
#X connect 65 0 66 0;
#X connect 67 0 68 0;
#X connect 68 0 69 0;
#X restore 25 164 pd upper-left-menu+manual;
#X obj 188 76 s pd-preset-manager.pd;
#X msg 188 50 menusave;
#X obj 188 24 r SAVE-S;
#N canvas 0 52 287 294 organelle-modules 0;
#X obj 14 32 module_create \$0 \$1 organelle-knobs;
#X obj 14 57 module_create \$0 \$1 organelle-keyboard;
#X obj 15 83 module_create \$0 \$1 organelle-adsr;
#X obj 14 106 module_create \$0 \$1 organelle-aux;
#X obj 13 129 module_create \$0 \$1 audio-in;
#X obj 13 152 module_create \$0 \$1 poly-pulse;
#X obj 13 176 module_create \$0 \$1 poly-saw;
#X obj 13 202 module_create \$0 \$1 organelle-output;
#X restore 21 338 pd organelle-modules;
#X obj 88 73 delay 1000;
#N canvas 0 22 465 369 midi-modules 0;
#X obj 15 32 module_create \$0 \$1 midi-in;
#X obj 15 63 module_create \$0 \$1 cc-in;
#X obj 13 87 module_create \$0 \$1 midi-out;
#X obj 10 114 module_create \$0 \$1 cc-out;
#X restore 21 360 pd midi-modules;
#N canvas 0 52 229 228 user-made-modules 0;
#X restore 21 382 pd user-made-modules;
#N canvas 0 22 450 300 macro-structural-tools 0;
#X obj 20 30 module_create \$0 \$1 preset-manager;
#X obj 20 63 module_create \$0 \$1 param-nudge;
#X obj 20 93 module_create \$0 \$1 morph-seq;
#X obj 20 119 module_create \$0 \$1 time-manager;
#X obj 20 147 module_create \$0 \$1 random-time-manager;
#X restore 22 405 pd macro-structural-tools;
#X connect 1 0 3 0;
#X connect 2 0 0 0;
#X connect 3 0 2 0;
#X connect 3 1 19 0;
#X connect 5 0 7 0;
#X connect 7 0 6 0;
#X connect 16 0 15 0;
#X connect 17 0 16 0;
#X connect 19 0 4 0;
#X restore 105 262 pd stuff;
#X connect 1 0 0 0;
#X connect 10 0 14 0;
#X connect 15 0 14 1;
#X connect 21 0 20 0;
#X coords 0 -1 1 1 250 160 2 100 100;
