#N canvas 0 23 1280 747 10;
#X obj 77 423 line~;
#X obj 77 478 mtof~;
#X floatatom 204 114 5 0 0 1 Hz - -, f 5;
#X obj 77 450 +~;
#X obj 217 433 *~ 127;
#X obj 106 128 hsl 128 15 0 127 0 1 \$0-basic-lfo-freq-s \$0-basic-lfo-freq-r
FREQ 135 7 0 10 -262144 -1 -1 5500 1;
#X obj 269 109 cnv 5 5 5 empty empty SYNC 0 0 0 8 -262144 -226533 0
;
#X obj 77 502 +~;
#X obj 103 121 cnv 5 5 5 empty empty BASIC-LFO 0 0 0 12 -262144 -66577
0;
#X obj 77 400 pack 0 50;
#X obj 106 143 hsl 128 15 0 127 0 1 \$0-basic-lfo-pwidth-s \$0-basic-lfo-pwidth-r
P-WIDTH 135 7 0 10 -262144 -1 -1 4800 1;
#X obj 268 198 cnv 5 5 5 empty empty TRIG 0 0 0 8 -262144 -226533 0
;
#N canvas 0 22 602 346 sinewave 0;
#X obj 231 28 r \$0-basic-lfo-sync!;
#X obj 209 58 inlet~;
#X obj 209 136 osc~;
#X obj 450 235 switch~;
#X obj 209 241 *~;
#X obj 450 62 t f f;
#X obj 477 136 line~;
#X obj 477 114 pack 0 100;
#X obj 450 158 sel 0;
#X obj 450 180 del 100;
#X msg 450 202 0;
#X obj 450 40 r \$0-basic-lfo-sine-on/off;
#X obj 377 220 *~ 0.5;
#X obj 379 245 +~ 0.5;
#X obj 209 286 outlet~ BI;
#X obj 376 278 outlet~ UNI;
#X connect 0 0 2 1;
#X connect 1 0 2 0;
#X connect 2 0 4 0;
#X connect 2 0 12 0;
#X connect 4 0 14 0;
#X connect 5 0 8 0;
#X connect 5 1 7 0;
#X connect 6 0 4 1;
#X connect 7 0 6 0;
#X connect 8 0 9 0;
#X connect 8 1 3 0;
#X connect 9 0 10 0;
#X connect 10 0 3 0;
#X connect 11 0 5 0;
#X connect 12 0 13 0;
#X connect 13 0 15 0;
#X restore 77 531 pd sinewave;
#X obj 174 121 cnv 5 5 5 empty \$0-instance-num 2 0 0 0 12 -262144
-66577 0;
#N canvas 0 22 732 465 triangle 0;
#X obj 428 75 r \$0-basic-lfo-sync!;
#X obj 340 53 inlet~;
#X obj 388 335 switch~;
#X obj 340 326 *~;
#X obj 388 74 t f f;
#X obj 415 309 line~;
#X obj 340 125 phasor~;
#X obj 340 213 min~;
#X obj 361 167 *~ -1;
#X obj 361 189 +~ 1;
#X obj 340 235 *~ 4;
#X obj 340 257 -~ 1;
#X obj 415 287 pack 0 100;
#X obj 388 225 sel 0;
#X obj 388 247 del 100;
#X msg 388 269 0;
#X obj 388 52 r \$0-basic-lfo-triangle-on/off;
#X obj 547 231 *~ 2;
#X obj 547 360 outlet~ UNI;
#X obj 340 371 outlet~ BI;
#X connect 0 0 6 1;
#X connect 1 0 6 0;
#X connect 3 0 19 0;
#X connect 4 0 13 0;
#X connect 4 1 12 0;
#X connect 5 0 3 1;
#X connect 6 0 7 0;
#X connect 6 0 8 0;
#X connect 7 0 10 0;
#X connect 7 0 17 0;
#X connect 8 0 9 0;
#X connect 9 0 7 1;
#X connect 10 0 11 0;
#X connect 11 0 3 0;
#X connect 12 0 5 0;
#X connect 13 0 14 0;
#X connect 13 1 2 0;
#X connect 14 0 15 0;
#X connect 15 0 2 0;
#X connect 16 0 4 0;
#X connect 17 0 18 0;
#X restore 179 520 pd triangle;
#N canvas 0 22 652 481 saw 0;
#X obj 404 116 r \$0-basic-lfo-sync!;
#X obj 365 68 inlet~;
#X obj 413 350 switch~;
#X obj 365 341 *~;
#X obj 413 89 t f f;
#X obj 440 324 line~;
#X obj 365 140 phasor~;
#X obj 365 272 -~ 1;
#X obj 365 215 *~ 2;
#X obj 440 302 pack 0 100;
#X obj 413 177 sel 0;
#X obj 413 199 del 100;
#X msg 413 221 0;
#X obj 413 67 r \$0-basic-lfo-saw-on/off;
#X obj 535 385 outlet~ UNI;
#X obj 365 386 outlet~ BI;
#X connect 0 0 6 1;
#X connect 1 0 6 0;
#X connect 3 0 15 0;
#X connect 4 0 10 0;
#X connect 4 1 9 0;
#X connect 5 0 3 1;
#X connect 6 0 8 0;
#X connect 6 0 14 0;
#X connect 7 0 3 0;
#X connect 8 0 7 0;
#X connect 9 0 5 0;
#X connect 10 0 11 0;
#X connect 10 1 2 0;
#X connect 11 0 12 0;
#X connect 12 0 2 0;
#X connect 13 0 4 0;
#X restore 278 519 pd saw;
#N canvas 0 22 813 603 pulse 0;
#X obj 129 108 r \$0-basic-lfo-sync!;
#X obj 324 53 inlet~;
#X obj 324 501 outlet~;
#X obj 324 125 phasor~;
#X obj 324 425 -~ 1;
#X obj 324 323 cos~;
#X obj 324 350 expr~ $v1 < $v2;
#X obj 411 275 pack 0 50;
#X obj 411 297 line~;
#X obj 411 321 +~;
#X obj 411 200 * 0.00787402;
#X obj 324 404 *~ 2;
#X obj 411 178 r \$0-basic-lfo-pwidth-s;
#X obj 411 244 + 0.01;
#X obj 411 222 * 0.98;
#X connect 0 0 3 1;
#X connect 1 0 3 0;
#X connect 3 0 5 0;
#X connect 4 0 2 0;
#X connect 5 0 6 0;
#X connect 6 0 11 0;
#X connect 7 0 8 0;
#X connect 8 0 9 0;
#X connect 9 0 6 1;
#X connect 10 0 14 0;
#X connect 11 0 4 0;
#X connect 12 0 10 0;
#X connect 13 0 7 0;
#X connect 14 0 13 0;
#X restore 350 519 pd pulse;
#N canvas 315 35 593 735 state-saving-multiple-instances 0;
#X obj 137 29 loadbang;
#X obj 184 452 textfile;
#X msg 466 435 rewind;
#X msg 423 435 bang;
#X obj 42 691 textfile;
#X obj 423 396 t b b;
#X obj 43 357 f;
#X obj 56 580 f;
#X obj -16 401 t b b b;
#X msg 119 580 clear;
#X obj 204 217 outlet;
#X text 246 221 INSTANCE NUMBER;
#X obj 165 153 f \$1;
#X obj 165 189 t f f f;
#X obj 138 62 t b b;
#X obj -16 378 bng 15 250 50 0 empty empty empty 17 7 0 10 -262144
-1 -1;
#X obj -16 234 r SAVE-S;
#X msg 43 438 set \$1 \$2 \$3 \$4;
#X obj 43 400 pack f f f f;
#X obj 184 474 unpack f f f f;
#X msg 184 427 read statesave/\$1-basic-lfo-ss.txt;
#X msg 55 651 write statesave/\$1-basic-lfo-ss.txt;
#X obj 58 254 r \$0-basic-lfo-freq-s;
#X obj 184 627 s \$0-basic-lfo-freq-r;
#X obj 66 277 r \$0-basic-lfo-pwidth-s;
#X obj 205 603 s \$0-basic-lfo-pwidth-r;
#X obj 80 298 r \$0-basic-lfo-depth-s;
#X obj 226 579 s \$0-basic-lfo-depth-r;
#X obj 247 554 s \$0-basic-lfo-wform-r;
#X obj 98 323 r \$0-basic-lfo-wform-s;
#X connect 0 0 14 0;
#X connect 1 0 19 0;
#X connect 2 0 1 0;
#X connect 3 0 1 0;
#X connect 5 0 3 0;
#X connect 5 1 2 0;
#X connect 6 0 18 0;
#X connect 7 0 21 0;
#X connect 8 0 7 0;
#X connect 8 1 6 0;
#X connect 8 2 9 0;
#X connect 9 0 4 0;
#X connect 12 0 13 0;
#X connect 13 0 7 1;
#X connect 13 1 20 0;
#X connect 13 2 10 0;
#X connect 14 0 5 0;
#X connect 14 1 12 0;
#X connect 15 0 8 0;
#X connect 16 0 15 0;
#X connect 17 0 4 0;
#X connect 18 0 17 0;
#X connect 19 0 23 0;
#X connect 19 1 25 0;
#X connect 19 2 27 0;
#X connect 19 3 28 0;
#X connect 20 0 1 0;
#X connect 21 0 4 0;
#X connect 22 0 6 1;
#X connect 24 0 18 1;
#X connect 26 0 18 2;
#X connect 29 0 18 3;
#X restore 316 122 pd state-saving-multiple-instances;
#X obj 316 197 s \$0-instance-num;
#X obj 316 149 makefilename %d;
#X msg 316 174 label \$1;
#N canvas 81 22 1117 745 state-saving-via-preset-manager-module 0;
#X obj 340 227 textfile;
#X msg 719 210 rewind;
#X msg 676 210 bang;
#X obj 106 568 textfile;
#X obj 676 171 t b b;
#X obj 107 234 f;
#X obj 120 457 f;
#X obj 53 352 t b b b;
#X msg 236 499 clear;
#X obj 107 56 delay 5;
#X obj 53 407 delay 10;
#X msg 53 192 bang;
#X obj 53 26 r STORE-S!;
#X obj 340 128 f;
#X obj 313 85 t b b;
#X obj 328 49 t b f;
#X obj 385 146 f \$1;
#X obj 340 173 pack f f;
#X obj 385 96 loadbang;
#X obj 120 487 pack f f;
#X obj 165 440 loadbang;
#X obj 165 462 f \$1;
#X obj 328 26 r preset-manager-scan;
#X obj 135 418 r preset-manager-store-slot;
#X msg 106 368 set \$1 \$2 \$3 \$4;
#X obj 107 301 pack f f f f;
#X obj 340 249 unpack f f f f;
#X msg 119 528 write statesave/\$1-\$2-basic-lfo-ss.txt;
#X msg 340 202 read statesave/\$1-\$2-basic-lfo-ss.txt;
#X obj 123 78 r \$0-basic-lfo-freq-s;
#X obj 345 714 s \$0-basic-lfo-freq-r;
#X obj 136 107 r \$0-basic-lfo-pwidth-s;
#X obj 366 616 s \$0-basic-lfo-pwidth-r;
#X obj 146 146 r \$0-basic-lfo-depth-s;
#X obj 384 517 s \$0-basic-lfo-depth-r;
#X obj 169 173 r \$0-basic-lfo-wform-s;
#X obj 417 394 s \$0-basic-lfo-wform-r;
#N canvas 0 22 1069 747 morph-frequencies 0;
#X obj 176 94 inlet;
#X obj 176 236 pack f f;
#X obj 176 261 line;
#X obj 209 117 r preset-manager-morph-s;
#X msg 72 244 stop;
#X obj 72 214 r STOP-MORPH!;
#X obj 398 102 r frequencies-s;
#X obj 209 206 spigot;
#X obj 398 137 t f f;
#X obj 455 154 == 0;
#X obj 221 176 f;
#X floatatom 455 222 5 0 0 0 - - -, f 5;
#X obj 398 159 t b f;
#X floatatom 425 192 5 0 0 0 - - -, f 5;
#X obj 209 139 t f f;
#X obj 176 283 outlet;
#X connect 0 0 1 0;
#X connect 1 0 2 0;
#X connect 2 0 15 0;
#X connect 3 0 14 0;
#X connect 4 0 2 0;
#X connect 5 0 4 0;
#X connect 6 0 8 0;
#X connect 7 0 1 1;
#X connect 8 0 12 0;
#X connect 8 1 9 0;
#X connect 9 0 11 0;
#X connect 10 0 7 0;
#X connect 11 0 1 1;
#X connect 12 0 10 0;
#X connect 12 1 13 0;
#X connect 13 0 7 1;
#X connect 14 0 7 0;
#X connect 14 1 10 1;
#X restore 344 685 pd morph-frequencies;
#N canvas 0 22 1069 747 morph-parameters 0;
#X obj 176 94 inlet;
#X obj 176 236 pack f f;
#X obj 176 261 line;
#X obj 209 117 r preset-manager-morph-s;
#X msg 72 244 stop;
#X obj 72 214 r STOP-MORPH!;
#X obj 209 206 spigot;
#X obj 398 137 t f f;
#X obj 455 154 == 0;
#X obj 221 176 f;
#X floatatom 455 222 5 0 0 0 - - -, f 5;
#X obj 398 159 t b f;
#X floatatom 425 192 5 0 0 0 - - -, f 5;
#X obj 209 139 t f f;
#X obj 398 102 r parameters-s;
#X obj 176 288 outlet;
#X connect 0 0 1 0;
#X connect 1 0 2 0;
#X connect 2 0 15 0;
#X connect 3 0 13 0;
#X connect 4 0 2 0;
#X connect 5 0 4 0;
#X connect 6 0 1 1;
#X connect 7 0 11 0;
#X connect 7 1 8 0;
#X connect 8 0 10 0;
#X connect 9 0 6 0;
#X connect 10 0 1 1;
#X connect 11 0 9 0;
#X connect 11 1 12 0;
#X connect 12 0 6 1;
#X connect 13 0 6 0;
#X connect 13 1 9 1;
#X connect 14 0 7 0;
#X restore 367 587 pd morph-parameters;
#N canvas 0 22 1069 747 morph-attenuators 0;
#X obj 176 94 inlet;
#X obj 176 236 pack f f;
#X obj 176 261 line;
#X obj 209 117 r preset-manager-morph-s;
#X msg 72 244 stop;
#X obj 72 214 r STOP-MORPH!;
#X obj 209 206 spigot;
#X obj 398 137 t f f;
#X obj 455 154 == 0;
#X obj 221 176 f;
#X floatatom 455 222 5 0 0 0 - - -, f 5;
#X obj 398 159 t b f;
#X floatatom 425 192 5 0 0 0 - - -, f 5;
#X obj 209 139 t f f;
#X obj 398 102 r attenuators-s;
#X obj 176 288 outlet;
#X connect 0 0 1 0;
#X connect 1 0 2 0;
#X connect 2 0 15 0;
#X connect 3 0 13 0;
#X connect 4 0 2 0;
#X connect 5 0 4 0;
#X connect 6 0 1 1;
#X connect 7 0 11 0;
#X connect 7 1 8 0;
#X connect 8 0 10 0;
#X connect 9 0 6 0;
#X connect 10 0 1 1;
#X connect 11 0 9 0;
#X connect 11 1 12 0;
#X connect 12 0 6 1;
#X connect 13 0 6 0;
#X connect 13 1 9 1;
#X connect 14 0 7 0;
#X restore 384 490 pd morph-attenuators;
#X connect 0 0 26 0;
#X connect 1 0 0 0;
#X connect 2 0 0 0;
#X connect 4 0 2 0;
#X connect 4 1 1 0;
#X connect 5 0 25 0;
#X connect 6 0 19 0;
#X connect 7 0 10 0;
#X connect 7 1 9 0;
#X connect 7 2 8 0;
#X connect 8 0 3 0;
#X connect 9 0 5 0;
#X connect 10 0 6 0;
#X connect 11 0 7 0;
#X connect 12 0 11 0;
#X connect 13 0 17 0;
#X connect 14 0 4 0;
#X connect 14 1 13 0;
#X connect 15 0 14 0;
#X connect 15 1 13 1;
#X connect 16 0 17 1;
#X connect 17 0 28 0;
#X connect 18 0 16 0;
#X connect 19 0 27 0;
#X connect 20 0 21 0;
#X connect 21 0 19 1;
#X connect 22 0 15 0;
#X connect 23 0 6 1;
#X connect 24 0 3 0;
#X connect 25 0 24 0;
#X connect 26 0 37 0;
#X connect 26 1 38 0;
#X connect 26 2 39 0;
#X connect 26 3 36 0;
#X connect 27 0 3 0;
#X connect 28 0 0 0;
#X connect 29 0 5 1;
#X connect 31 0 25 1;
#X connect 33 0 25 2;
#X connect 35 0 25 3;
#X connect 37 0 30 0;
#X connect 38 0 32 0;
#X connect 39 0 34 0;
#X restore 316 100 pd state-saving-via-preset-manager-module;
#X obj 106 158 hsl 128 15 0 127 0 1 \$0-basic-lfo-depth-s \$0-basic-lfo-depth-r
DEPTH 135 7 0 10 -137270 -1 -1 2900 1;
#X obj 104 109 cnv 5 5 5 empty empty FREQ 0 0 0 8 -262144 -66577 0
;
#X obj 77 374 t f f;
#X obj 77 270 r \$0-basic-lfo-freq-s;
#X obj 76 682 *~;
#X obj 350 603 *~;
#X obj 478 448 r \$0-basic-lfo-depth-s;
#X obj 478 477 * 0.00787402;
#X obj 478 510 pack 0 50;
#X obj 478 546 line~;
#X obj 103 198 cnv 5 5 5 empty empty BI-P 0 0 0 8 -262144 -66577 0
;
#X obj 140 198 cnv 5 5 5 empty empty UNI-P 0 0 0 8 -262144 -66577 0
;
#X obj 183 198 cnv 5 5 5 empty empty PULSE 0 0 0 8 -262144 -1 0;
#X obj 463 591 *~;
#X obj 641 485 noise~;
#X obj 641 575 samphold~;
#X obj 217 246 inlet~ FREQ;
#X obj 328 243 inlet~;
#X obj 328 265 threshold~ 0.9 0 0.9 0;
#X obj 328 312 s \$0-basic-lfo-sync!;
#X msg 328 288 0;
#X obj 77 292 * 1.5;
#X obj 77 314 - 127;
#X obj 718 536 threshold~ 0.9 0 0.9 0;
#X msg 718 558 reset;
#X obj 601 271 loadbang;
#X obj 77 712 outlet~ BI-POLAR;
#X obj 208 713 outlet~ UNI-POLAR;
#X obj 350 715 outlet~ PULSE;
#X obj 463 716 outlet~ S&H;
#X obj 803 672 vline~;
#X obj 803 697 outlet~ TRIG;
#X obj 233 198 cnv 5 5 5 empty empty S&H 0 0 0 8 -262144 -66577 0;
#X msg 803 650 1 0 \, 0 10 1;
#N canvas 297 27 539 173 parameter-nudging-system 0;
#X obj 324 66 clip 0 127;
#X obj 23 67 clip 0 127;
#X obj 168 69 clip 0 127;
#X obj 23 22 r \$0-basic-lfo-freq-s;
#X obj 23 95 s \$0-basic-lfo-freq-r;
#X obj 168 22 r \$0-basic-lfo-pwidth-s;
#X obj 168 95 s \$0-basic-lfo-pwidth-r;
#X obj 324 21 r \$0-basic-lfo-depth-s;
#X obj 324 93 s \$0-basic-lfo-depth-r;
#N canvas 0 22 484 497 nudge-freq 0;
#X obj 124 234 random;
#X obj 232 335 f;
#X obj 232 368 +;
#X obj 257 166 random 2;
#X obj 124 275 t f f;
#X obj 124 351 t b f;
#X obj 124 297 *;
#X obj 257 188 sel 0 1;
#X msg 257 280 -1;
#X msg 335 280 1;
#X obj 124 149 t b b b;
#X obj 124 51 r NUDGE!;
#X obj 157 193 r NUDGE-RANGE;
#X obj 247 308 inlet;
#X obj 232 397 outlet;
#X obj 124 73 spigot;
#X obj 185 56 r frequencies2-s;
#X connect 0 0 4 0;
#X connect 1 0 2 0;
#X connect 2 0 14 0;
#X connect 3 0 7 0;
#X connect 4 0 6 0;
#X connect 5 0 2 0;
#X connect 5 1 2 1;
#X connect 6 0 5 0;
#X connect 7 0 8 0;
#X connect 7 1 9 0;
#X connect 8 0 6 1;
#X connect 9 0 6 1;
#X connect 10 0 0 0;
#X connect 10 1 1 0;
#X connect 10 2 3 0;
#X connect 11 0 15 0;
#X connect 12 0 0 1;
#X connect 13 0 1 1;
#X connect 15 0 10 0;
#X connect 16 0 15 1;
#X restore 23 44 pd nudge-freq;
#N canvas 0 22 484 497 nudge-parameters 0;
#X obj 124 234 random;
#X obj 232 335 f;
#X obj 232 368 +;
#X obj 257 166 random 2;
#X obj 124 275 t f f;
#X obj 124 351 t b f;
#X obj 124 297 *;
#X obj 257 188 sel 0 1;
#X msg 257 280 -1;
#X msg 335 280 1;
#X obj 124 149 t b b b;
#X obj 124 74 r NUDGE!;
#X obj 157 193 r NUDGE-RANGE;
#X obj 247 308 inlet;
#X obj 232 397 outlet;
#X obj 124 96 spigot;
#X obj 185 79 r parameters2-s;
#X connect 0 0 4 0;
#X connect 1 0 2 0;
#X connect 2 0 14 0;
#X connect 3 0 7 0;
#X connect 4 0 6 0;
#X connect 5 0 2 0;
#X connect 5 1 2 1;
#X connect 6 0 5 0;
#X connect 7 0 8 0;
#X connect 7 1 9 0;
#X connect 8 0 6 1;
#X connect 9 0 6 1;
#X connect 10 0 0 0;
#X connect 10 1 1 0;
#X connect 10 2 3 0;
#X connect 11 0 15 0;
#X connect 12 0 0 1;
#X connect 13 0 1 1;
#X connect 15 0 10 0;
#X connect 16 0 15 1;
#X restore 171 44 pd nudge-parameters;
#N canvas 0 22 484 497 nudge-attenuators 0;
#X obj 124 234 random;
#X obj 232 335 f;
#X obj 232 368 +;
#X obj 257 166 random 2;
#X obj 124 275 t f f;
#X obj 124 351 t b f;
#X obj 124 297 *;
#X obj 257 188 sel 0 1;
#X msg 257 280 -1;
#X msg 335 280 1;
#X obj 124 149 t b b b;
#X obj 124 71 r NUDGE!;
#X obj 157 193 r NUDGE-RANGE;
#X obj 247 308 inlet;
#X obj 232 397 outlet;
#X obj 124 93 spigot;
#X obj 201 76 r attenuators2-s;
#X connect 0 0 4 0;
#X connect 1 0 2 0;
#X connect 2 0 14 0;
#X connect 3 0 7 0;
#X connect 4 0 6 0;
#X connect 5 0 2 0;
#X connect 5 1 2 1;
#X connect 6 0 5 0;
#X connect 7 0 8 0;
#X connect 7 1 9 0;
#X connect 8 0 6 1;
#X connect 9 0 6 1;
#X connect 10 0 0 0;
#X connect 10 1 1 0;
#X connect 10 2 3 0;
#X connect 11 0 15 0;
#X connect 12 0 0 1;
#X connect 13 0 1 1;
#X connect 15 0 10 0;
#X connect 16 0 15 1;
#X restore 324 43 pd nudge-attenuators;
#X connect 0 0 8 0;
#X connect 1 0 4 0;
#X connect 2 0 6 0;
#X connect 3 0 9 0;
#X connect 5 0 10 0;
#X connect 7 0 11 0;
#X connect 9 0 1 0;
#X connect 10 0 2 0;
#X connect 11 0 0 0;
#X restore 316 78 pd parameter-nudging-system;
#X obj 164 391 mtof;
#X obj 103 173 hradio 15 1 1 3 \$0-basic-lfo-wform-s \$0-basic-lfo-wform-r
empty 65 7 0 10 -262144 -1 -1 4;
#X obj 154 181 cnv 5 5 5 empty \$0-lfo-waveform-gui-r TRIANGLE 0 0
0 10 -262144 -66577 0;
#N canvas 0 22 1132 690 choose-wform 0;
#X obj 80 498 t b b;
#X obj 339 541 makefilename %s;
#X msg 339 565 label \$1;
#X msg 339 515 symbol SINE;
#X obj 95 329 t b b;
#X msg 339 493 symbol TRIANGLE;
#X obj 111 161 t b b;
#X msg 340 471 symbol SAW;
#X obj 80 14 r \$0-basic-lfo-wform-s;
#X obj 80 35 sel 0 1 2;
#X msg 111 183 0 0 1;
#X msg 95 351 0 1 0;
#X msg 80 522 1 0 0;
#X obj 80 544 unpack f f f;
#X obj 95 374 unpack f f f;
#X obj 111 206 unpack f f f;
#X obj 339 588 s \$0-lfo-waveform-gui-r;
#X obj 80 643 s \$0-basic-lfo-sine-on/off;
#X obj 107 618 s \$0-basic-lfo-triangle-on/off;
#X obj 134 592 s \$0-basic-lfo-saw-on/off;
#X obj 95 473 s \$0-basic-lfo-sine-on/off;
#X obj 122 448 s \$0-basic-lfo-triangle-on/off;
#X obj 149 422 s \$0-basic-lfo-saw-on/off;
#X obj 111 305 s \$0-basic-lfo-sine-on/off;
#X obj 138 280 s \$0-basic-lfo-triangle-on/off;
#X obj 165 254 s \$0-basic-lfo-saw-on/off;
#X connect 0 0 12 0;
#X connect 0 1 3 0;
#X connect 1 0 2 0;
#X connect 2 0 16 0;
#X connect 3 0 1 0;
#X connect 4 0 11 0;
#X connect 4 1 5 0;
#X connect 5 0 1 0;
#X connect 6 0 10 0;
#X connect 6 1 7 0;
#X connect 7 0 1 0;
#X connect 8 0 9 0;
#X connect 9 0 0 0;
#X connect 9 1 4 0;
#X connect 9 2 6 0;
#X connect 10 0 15 0;
#X connect 11 0 14 0;
#X connect 12 0 13 0;
#X connect 13 0 17 0;
#X connect 13 1 18 0;
#X connect 13 2 19 0;
#X connect 14 0 20 0;
#X connect 14 1 21 0;
#X connect 14 2 22 0;
#X connect 15 0 23 0;
#X connect 15 1 24 0;
#X connect 15 2 25 0;
#X restore 709 132 pd choose-wform;
#X obj 207 662 *~;
#N canvas 632 73 751 781 external-messages 0;
#X floatatom 186 706 5 0 0 0 - - -, f 5;
#X obj 185 328 spigot;
#X obj 218 288 tgl 15 0 empty empty empty 17 7 0 10 -262144 -1 -1 1
1;
#X obj 254 272 ==;
#X obj 269 248 f \$1;
#X obj 269 224 loadbang;
#X msg 185 202 \$1 \$2;
#X msg 185 156 symbol \$1;
#X obj 185 180 pack s f;
#X obj 186 685 f;
#X obj 186 633 t b f;
#X obj 186 656 spigot;
#X obj 185 62 unpack s f f;
#X symbolatom 185 94 10 0 0 0 - - -, f 10;
#X obj 218 308 t f f;
#X obj 245 332 s \$0-msg-spigot;
#X obj 234 640 r \$0-msg-spigot;
#X floatatom 223 594 5 0 0 0 - - -, f 5;
#X obj 223 573 f;
#X obj 223 521 t b f;
#X obj 223 544 spigot;
#X obj 271 528 r \$0-msg-spigot;
#X floatatom 387 639 5 0 0 0 - - -, f 5;
#X obj 387 618 f;
#X obj 387 566 t b f;
#X obj 387 589 spigot;
#X obj 435 573 r \$0-msg-spigot;
#X floatatom 424 527 5 0 0 0 - - -, f 5;
#X obj 424 506 f;
#X obj 424 454 t b f;
#X obj 424 477 spigot;
#X obj 472 461 r \$0-msg-spigot;
#X obj 185 14 r basic-lfo;
#X obj 186 726 s \$0-basic-lfo-freq-r;
#X obj 223 614 s \$0-basic-lfo-pwidth-r;
#X obj 387 659 s \$0-basic-lfo-depth-r;
#X obj 424 547 s \$0-basic-lfo-wform-r;
#X obj 185 380 route FREQ P-WIDTH DEPTH RADIO;
#X connect 0 0 33 0;
#X connect 1 0 37 0;
#X connect 2 0 14 0;
#X connect 3 0 2 0;
#X connect 4 0 3 1;
#X connect 5 0 4 0;
#X connect 6 0 1 0;
#X connect 7 0 8 0;
#X connect 8 0 6 0;
#X connect 9 0 0 0;
#X connect 10 0 11 0;
#X connect 10 1 9 1;
#X connect 11 0 9 0;
#X connect 12 0 13 0;
#X connect 12 1 8 1;
#X connect 12 2 3 0;
#X connect 13 0 7 0;
#X connect 14 0 1 1;
#X connect 14 1 15 0;
#X connect 16 0 11 1;
#X connect 17 0 34 0;
#X connect 18 0 17 0;
#X connect 19 0 20 0;
#X connect 19 1 18 1;
#X connect 20 0 18 0;
#X connect 21 0 20 1;
#X connect 22 0 35 0;
#X connect 23 0 22 0;
#X connect 24 0 25 0;
#X connect 24 1 23 1;
#X connect 25 0 23 0;
#X connect 26 0 25 1;
#X connect 27 0 36 0;
#X connect 28 0 27 0;
#X connect 29 0 30 0;
#X connect 29 1 28 1;
#X connect 30 0 28 0;
#X connect 31 0 30 1;
#X connect 32 0 12 0;
#X connect 37 0 10 0;
#X connect 37 1 19 0;
#X connect 37 2 24 0;
#X connect 37 3 29 0;
#X restore 316 54 pd external-messages;
#X connect 0 0 3 0;
#X connect 1 0 7 0;
#X connect 3 0 1 0;
#X connect 4 0 3 1;
#X connect 7 0 16 0;
#X connect 7 0 12 0;
#X connect 7 0 14 0;
#X connect 7 0 15 0;
#X connect 9 0 0 0;
#X connect 12 0 26 0;
#X connect 12 1 61 0;
#X connect 14 0 26 0;
#X connect 14 1 61 0;
#X connect 15 0 26 0;
#X connect 15 1 61 0;
#X connect 16 0 27 0;
#X connect 16 0 45 0;
#X connect 17 0 19 0;
#X connect 19 0 20 0;
#X connect 20 0 18 0;
#X connect 24 0 9 0;
#X connect 24 1 57 0;
#X connect 25 0 43 0;
#X connect 26 0 48 0;
#X connect 27 0 50 0;
#X connect 28 0 29 0;
#X connect 29 0 30 0;
#X connect 30 0 31 0;
#X connect 31 0 27 1;
#X connect 31 0 26 1;
#X connect 31 0 35 1;
#X connect 31 0 61 1;
#X connect 35 0 51 0;
#X connect 36 0 37 0;
#X connect 37 0 35 0;
#X connect 38 0 4 0;
#X connect 39 0 40 0;
#X connect 40 0 42 0;
#X connect 42 0 41 0;
#X connect 43 0 44 0;
#X connect 44 0 24 0;
#X connect 45 0 46 0;
#X connect 45 0 55 0;
#X connect 46 0 37 0;
#X connect 47 0 42 0;
#X connect 52 0 53 0;
#X connect 55 0 52 0;
#X connect 57 0 2 0;
#X connect 61 0 49 0;
#X coords 0 -1 1 1 190 105 2 100 100;
