#N canvas 0 22 653 412 10;
#X obj 23 298 cnv 15 400 30 empty empty OUTPUTS: 20 12 0 14 -158136
-262144 0;
#X obj 20 90 cnv 15 400 30 empty empty CONTROLS: 20 12 0 14 -158136
-262144 0;
#X obj 20 191 cnv 15 400 30 empty empty INPUTS: 20 12 0 14 -158136
-262144 0;
#X obj 20 17 cnv 15 400 30 empty empty BITCRUSH 20 12 0 14 -150893
-262144 0;
#X text 26 332 OUT - output;
#X obj 430 17 bitcrush;
#X text 24 128 DRY - controls amount of unaffected dry signal at the
output;
#X text 24 159 CRUSH - controls the amount of bitcrush to the signal
;
#X text 24 227 IN - signal input;
#X text 24 250 CRUSH - input for cv-control over the CRUSH parameter.
;
#X text 24 273 DRY - input for cv-control over the DRY parameter.;
#X text 20 59 The "BITCRUSH" module is a crude digital distortion unit.
;
