#N canvas 15 24 1146 752 10;
#X obj 587 383 bob~;
#X obj 591 143 / 127;
#X obj 591 165 * 5000;
#X obj 592 231 pack 0 10;
#X obj 657 400 bob~;
#X obj 765 417 bob~;
#X floatatom 591 189 5 0 0 0 - - -, f 5;
#X obj 591 208 - 40;
#X obj 608 357 * 4;
#X obj 765 455 *~ 0.33;
#X obj 592 253 line~;
#X obj 704 258 *~ 5000;
#X obj 678 374 * 2;
#X obj 786 389 * 1;
#X obj 592 305 clip~ 10 5000;
#X obj 592 275 +~;
#X obj 451 129 inlet~;
#X obj 765 496 outlet~;
#X obj 106 167 hsl 128 15 0 127 0 0 \$0-bob-fm--/+-s \$0-bob-fm--/+-r
FM-/+ 133 7 0 10 -150893 -1 -1 0 1;
#X obj 106 137 hsl 128 15 1.27 127 1 0 \$0-bob-cutoff-s \$0-bob-cutoff-r
CUTOFF 133 7 0 10 -262144 -1 -1 0 1;
#X obj 105 109 cnv 5 5 5 empty empty IN 0 0 0 8 -262144 -66577 0;
#X obj 173 109 cnv 5 5 5 empty empty CUTOFF 0 0 0 8 -262144 -96927
0;
#X obj 104 128 cnv 5 5 5 empty empty BOB-FILTER 0 0 0 12 -262144 -66577
0;
#X obj 263 109 cnv 5 5 5 empty empty Q 0 0 0 8 -262144 -66577 0;
#X obj 182 128 cnv 5 5 5 empty \$0-instance-num 1 0 0 0 12 -262144
-66577 0;
#X floatatom 103 182 5 0 0 0 - - -, f 5;
#N canvas 100 22 593 735 state-saving-multiple-instances 0;
#X obj 164 26 loadbang;
#X obj 210 479 textfile;
#X msg 491 462 rewind;
#X msg 448 462 bang;
#X obj 88 657 textfile;
#X obj 448 421 t b b;
#X obj 88 355 f;
#X obj 101 578 f;
#X obj 27 402 t b b b;
#X msg 163 573 clear;
#X obj 230 235 outlet;
#X text 272 237 INSTANCE NUMBER;
#X obj 88 398 pack f f f;
#X msg 88 436 set \$1 \$2 \$3;
#X obj 210 501 unpack f f f;
#X obj 191 200 t f f f;
#X obj 191 164 f \$1;
#X obj 164 59 t b b;
#X obj 27 378 bng 15 250 50 0 empty empty empty 17 7 0 10 -262144 -1
-1;
#X obj 27 234 r SAVE-S;
#X obj 103 307 r \$0-bob-cutoff-s;
#X obj 210 573 s \$0-bob-cutoff-r;
#X obj 145 373 r \$0-bob-fm--/+-s;
#X obj 279 525 s \$0-bob-fm--/+-r;
#X obj 116 345 r \$0-bob-res-s;
#X obj 244 547 s \$0-bob-res-r;
#X msg 210 454 read statesave/\$1-bob-filter-ss.txt;
#X msg 101 605 write statesave/\$1-bob-filter-ss.txt;
#X connect 0 0 17 0;
#X connect 1 0 14 0;
#X connect 2 0 1 0;
#X connect 3 0 1 0;
#X connect 5 0 3 0;
#X connect 5 1 2 0;
#X connect 6 0 12 0;
#X connect 7 0 27 0;
#X connect 8 0 7 0;
#X connect 8 1 6 0;
#X connect 8 2 9 0;
#X connect 9 0 4 0;
#X connect 12 0 13 0;
#X connect 13 0 4 0;
#X connect 14 0 21 0;
#X connect 14 1 25 0;
#X connect 14 2 23 0;
#X connect 15 0 7 1;
#X connect 15 1 26 0;
#X connect 15 2 10 0;
#X connect 16 0 15 0;
#X connect 17 0 5 0;
#X connect 17 1 16 0;
#X connect 18 0 8 0;
#X connect 19 0 18 0;
#X connect 20 0 6 1;
#X connect 22 0 12 2;
#X connect 24 0 12 1;
#X connect 26 0 1 0;
#X connect 27 0 4 0;
#X restore 42 298 pd state-saving-multiple-instances;
#X obj 42 371 s \$0-instance-num;
#X obj 42 323 makefilename %d;
#X msg 42 348 label \$1;
#N canvas 81 22 1117 745 state-saving-via-preset-manager-module 0;
#X obj 477 349 textfile;
#X msg 755 332 rewind;
#X msg 712 332 bang;
#X obj 243 690 textfile;
#X obj 712 293 t b b;
#X obj 244 356 f;
#X obj 257 579 f;
#X obj 190 474 t b b b;
#X msg 373 621 clear;
#X obj 244 180 delay 5;
#X obj 190 529 delay 10;
#X msg 190 314 bang;
#X obj 190 155 r STORE-S!;
#X obj 477 250 f;
#X obj 450 207 t b b;
#X obj 465 171 t b f;
#X obj 522 268 f \$1;
#X obj 477 295 pack f f;
#X obj 522 218 loadbang;
#X obj 257 609 pack f f;
#X obj 302 562 loadbang;
#X obj 302 584 f \$1;
#X obj 465 122 r preset-manager-scan;
#X obj 272 540 r preset-manager-store-slot;
#X msg 243 490 set \$1 \$2 \$3;
#X obj 244 423 pack f f f;
#X obj 477 371 unpack f f f;
#X obj 465 144 i;
#X msg 477 324 read statesave/\$1-\$2-bob-filter-ss.txt;
#X msg 256 650 write statesave/\$1-\$2-bob-filter-ss.txt;
#X obj 259 308 r \$0-bob-cutoff-s;
#X obj 477 713 s \$0-bob-cutoff-r;
#X obj 267 330 r \$0-bob-res-s;
#X obj 511 615 s \$0-bob-res-r;
#X obj 290 352 r \$0-bob-fm--/+-s;
#X obj 546 516 s \$0-bob-fm--/+-r;
#N canvas 0 22 1069 747 morph-parameters 0;
#X obj 176 94 inlet;
#X obj 176 236 pack f f;
#X obj 176 261 line;
#X obj 209 117 r preset-manager-morph-s;
#X msg 72 244 stop;
#X obj 72 214 r STOP-MORPH!;
#X obj 209 206 spigot;
#X obj 398 137 t f f;
#X obj 455 154 == 0;
#X obj 221 176 f;
#X floatatom 455 222 5 0 0 0 - - -, f 5;
#X obj 398 159 t b f;
#X floatatom 425 192 5 0 0 0 - - -, f 5;
#X obj 209 139 t f f;
#X obj 398 102 r parameters-s;
#X obj 176 288 outlet;
#X connect 0 0 1 0;
#X connect 1 0 2 0;
#X connect 2 0 15 0;
#X connect 3 0 13 0;
#X connect 4 0 2 0;
#X connect 5 0 4 0;
#X connect 6 0 1 1;
#X connect 7 0 11 0;
#X connect 7 1 8 0;
#X connect 8 0 10 0;
#X connect 9 0 6 0;
#X connect 10 0 1 1;
#X connect 11 0 9 0;
#X connect 11 1 12 0;
#X connect 12 0 6 1;
#X connect 13 0 6 0;
#X connect 13 1 9 1;
#X connect 14 0 7 0;
#X restore 477 689 pd morph-parameters;
#N canvas 0 22 1069 747 morph-attenuators 0;
#X obj 176 94 inlet;
#X obj 176 236 pack f f;
#X obj 176 261 line;
#X obj 209 117 r preset-manager-morph-s;
#X msg 72 244 stop;
#X obj 72 214 r STOP-MORPH!;
#X obj 209 206 spigot;
#X obj 398 137 t f f;
#X obj 455 154 == 0;
#X obj 221 176 f;
#X floatatom 455 222 5 0 0 0 - - -, f 5;
#X obj 398 159 t b f;
#X floatatom 425 192 5 0 0 0 - - -, f 5;
#X obj 209 139 t f f;
#X obj 398 102 r attenuators-s;
#X obj 176 288 outlet;
#X connect 0 0 1 0;
#X connect 1 0 2 0;
#X connect 2 0 15 0;
#X connect 3 0 13 0;
#X connect 4 0 2 0;
#X connect 5 0 4 0;
#X connect 6 0 1 1;
#X connect 7 0 11 0;
#X connect 7 1 8 0;
#X connect 8 0 10 0;
#X connect 9 0 6 0;
#X connect 10 0 1 1;
#X connect 11 0 9 0;
#X connect 11 1 12 0;
#X connect 12 0 6 1;
#X connect 13 0 6 0;
#X connect 13 1 9 1;
#X connect 14 0 7 0;
#X restore 546 490 pd morph-attenuators;
#N canvas 0 22 1069 747 morph-parameters 0;
#X obj 176 94 inlet;
#X obj 176 236 pack f f;
#X obj 176 261 line;
#X obj 209 117 r preset-manager-morph-s;
#X msg 72 244 stop;
#X obj 72 214 r STOP-MORPH!;
#X obj 209 206 spigot;
#X obj 398 137 t f f;
#X obj 455 154 == 0;
#X obj 221 176 f;
#X floatatom 455 222 5 0 0 0 - - -, f 5;
#X obj 398 159 t b f;
#X floatatom 425 192 5 0 0 0 - - -, f 5;
#X obj 209 139 t f f;
#X obj 398 102 r parameters-s;
#X obj 176 288 outlet;
#X connect 0 0 1 0;
#X connect 1 0 2 0;
#X connect 2 0 15 0;
#X connect 3 0 13 0;
#X connect 4 0 2 0;
#X connect 5 0 4 0;
#X connect 6 0 1 1;
#X connect 7 0 11 0;
#X connect 7 1 8 0;
#X connect 8 0 10 0;
#X connect 9 0 6 0;
#X connect 10 0 1 1;
#X connect 11 0 9 0;
#X connect 11 1 12 0;
#X connect 12 0 6 1;
#X connect 13 0 6 0;
#X connect 13 1 9 1;
#X connect 14 0 7 0;
#X restore 511 592 pd morph-parameters;
#X connect 0 0 26 0;
#X connect 1 0 0 0;
#X connect 2 0 0 0;
#X connect 4 0 2 0;
#X connect 4 1 1 0;
#X connect 5 0 25 0;
#X connect 6 0 19 0;
#X connect 7 0 10 0;
#X connect 7 1 9 0;
#X connect 7 2 8 0;
#X connect 8 0 3 0;
#X connect 9 0 5 0;
#X connect 10 0 6 0;
#X connect 11 0 7 0;
#X connect 12 0 11 0;
#X connect 13 0 17 0;
#X connect 14 0 4 0;
#X connect 14 1 13 0;
#X connect 15 0 14 0;
#X connect 15 1 13 1;
#X connect 16 0 17 1;
#X connect 17 0 28 0;
#X connect 18 0 16 0;
#X connect 19 0 29 0;
#X connect 20 0 21 0;
#X connect 21 0 19 1;
#X connect 22 0 27 0;
#X connect 23 0 6 1;
#X connect 24 0 3 0;
#X connect 25 0 24 0;
#X connect 26 0 36 0;
#X connect 26 1 38 0;
#X connect 26 2 37 0;
#X connect 27 0 15 0;
#X connect 28 0 0 0;
#X connect 29 0 3 0;
#X connect 30 0 5 1;
#X connect 32 0 25 1;
#X connect 34 0 25 2;
#X connect 36 0 31 0;
#X connect 37 0 35 0;
#X connect 38 0 33 0;
#X restore 43 274 pd state-saving-via-preset-manager-module;
#N canvas 297 27 518 295 parameter-nudging-system 0;
#X obj 23 67 clip 0 127;
#X obj 182 67 clip 0 127;
#X obj 320 69 clip 0 127;
#X obj 23 22 r \$0-bob-cutoff-s;
#X obj 23 95 s \$0-bob-cutoff-r;
#X obj 182 22 r \$0-bob-res-s;
#X obj 182 95 s \$0-bob-res-r;
#X obj 320 22 r \$0-bob-fm--/+-s;
#X obj 320 95 s \$0-bob-fm--/+-r;
#N canvas 0 22 484 497 nudge-parameters 0;
#X obj 124 234 random;
#X obj 232 335 f;
#X obj 232 368 +;
#X obj 257 166 random 2;
#X obj 124 275 t f f;
#X obj 124 351 t b f;
#X obj 124 297 *;
#X obj 257 188 sel 0 1;
#X msg 257 280 -1;
#X msg 335 280 1;
#X obj 124 149 t b b b;
#X obj 124 74 r NUDGE!;
#X obj 157 193 r NUDGE-RANGE;
#X obj 247 308 inlet;
#X obj 232 397 outlet;
#X obj 124 96 spigot;
#X obj 185 79 r parameters2-s;
#X connect 0 0 4 0;
#X connect 1 0 2 0;
#X connect 2 0 14 0;
#X connect 3 0 7 0;
#X connect 4 0 6 0;
#X connect 5 0 2 0;
#X connect 5 1 2 1;
#X connect 6 0 5 0;
#X connect 7 0 8 0;
#X connect 7 1 9 0;
#X connect 8 0 6 1;
#X connect 9 0 6 1;
#X connect 10 0 0 0;
#X connect 10 1 1 0;
#X connect 10 2 3 0;
#X connect 11 0 15 0;
#X connect 12 0 0 1;
#X connect 13 0 1 1;
#X connect 15 0 10 0;
#X connect 16 0 15 1;
#X restore 23 45 pd nudge-parameters;
#N canvas 0 22 484 497 nudge-attenuators 0;
#X obj 124 234 random;
#X obj 232 335 f;
#X obj 232 368 +;
#X obj 257 166 random 2;
#X obj 124 275 t f f;
#X obj 124 351 t b f;
#X obj 124 297 *;
#X obj 257 188 sel 0 1;
#X msg 257 280 -1;
#X msg 335 280 1;
#X obj 124 149 t b b b;
#X obj 124 71 r NUDGE!;
#X obj 157 193 r NUDGE-RANGE;
#X obj 247 308 inlet;
#X obj 232 397 outlet;
#X obj 124 93 spigot;
#X obj 201 76 r attenuators2-s;
#X connect 0 0 4 0;
#X connect 1 0 2 0;
#X connect 2 0 14 0;
#X connect 3 0 7 0;
#X connect 4 0 6 0;
#X connect 5 0 2 0;
#X connect 5 1 2 1;
#X connect 6 0 5 0;
#X connect 7 0 8 0;
#X connect 7 1 9 0;
#X connect 8 0 6 1;
#X connect 9 0 6 1;
#X connect 10 0 0 0;
#X connect 10 1 1 0;
#X connect 10 2 3 0;
#X connect 11 0 15 0;
#X connect 12 0 0 1;
#X connect 13 0 1 1;
#X connect 15 0 10 0;
#X connect 16 0 15 1;
#X restore 320 45 pd nudge-attenuators;
#N canvas 0 22 484 497 nudge-parameters 0;
#X obj 124 234 random;
#X obj 232 335 f;
#X obj 232 368 +;
#X obj 257 166 random 2;
#X obj 124 275 t f f;
#X obj 124 351 t b f;
#X obj 124 297 *;
#X obj 257 188 sel 0 1;
#X msg 257 280 -1;
#X msg 335 280 1;
#X obj 124 149 t b b b;
#X obj 124 74 r NUDGE!;
#X obj 157 193 r NUDGE-RANGE;
#X obj 247 308 inlet;
#X obj 232 397 outlet;
#X obj 124 96 spigot;
#X obj 185 79 r parameters2-s;
#X connect 0 0 4 0;
#X connect 1 0 2 0;
#X connect 2 0 14 0;
#X connect 3 0 7 0;
#X connect 4 0 6 0;
#X connect 5 0 2 0;
#X connect 5 1 2 1;
#X connect 6 0 5 0;
#X connect 7 0 8 0;
#X connect 7 1 9 0;
#X connect 8 0 6 1;
#X connect 9 0 6 1;
#X connect 10 0 0 0;
#X connect 10 1 1 0;
#X connect 10 2 3 0;
#X connect 11 0 15 0;
#X connect 12 0 0 1;
#X connect 13 0 1 1;
#X connect 15 0 10 0;
#X connect 16 0 15 1;
#X restore 182 44 pd nudge-parameters;
#X connect 0 0 4 0;
#X connect 1 0 6 0;
#X connect 2 0 8 0;
#X connect 3 0 9 0;
#X connect 5 0 11 0;
#X connect 7 0 10 0;
#X connect 9 0 0 0;
#X connect 10 0 2 0;
#X connect 11 0 1 0;
#X restore 44 249 pd parameter-nudging-system;
#X obj 106 152 hsl 128 15 0 127 0 0 \$0-bob-res-s \$0-bob-res-r RES
133 7 0 10 -262144 -1 -1 0 1;
#X obj 592 116 r \$0-bob-cutoff-s;
#X obj 705 12 inlet~ CUTOFF;
#X obj 816 81 r \$0-bob-res-s;
#X obj 816 194 t f f f;
#X obj 816 115 / 127;
#X obj 1019 93 inlet~ RES;
#X obj 719 35 r \$0-bob-fm--/+-s;
#X obj 719 57 / 127;
#X obj 719 79 * 2;
#X obj 719 101 - 1;
#X floatatom 719 123 5 0 0 0 - - -, f 5;
#X obj 719 142 pack 0 10;
#X obj 719 164 line~;
#X obj 704 189 *~;
#X obj 1020 215 snapshot~;
#X obj 1020 274 t b f;
#X obj 1084 198 metro 20;
#X obj 1084 142 loadbang;
#X obj 1084 170 tgl 15 0 empty empty empty 17 7 0 10 -262144 -1 -1
1 1;
#X obj 1020 237 change;
#X obj 816 142 +;
#X obj 816 164 clip 0 8;
#X obj 936 158 env~;
#X floatatom 936 202 5 0 0 0 - - -, f 5;
#X obj 936 221 change;
#X obj 936 180 > 0;
#X obj 936 243 sel 0;
#X msg 936 265 0;
#X obj 936 287 t b f;
#N canvas 632 73 749 752 external-messages 0;
#X floatatom 186 706 5 0 0 0 - - -, f 5;
#X obj 185 328 spigot;
#X obj 218 288 tgl 15 0 empty empty empty 17 7 0 10 -262144 -1 -1 0
1;
#X obj 254 272 ==;
#X obj 269 248 f \$1;
#X obj 269 224 loadbang;
#X msg 185 202 \$1 \$2;
#X msg 185 156 symbol \$1;
#X obj 185 180 pack s f;
#X obj 186 685 f;
#X obj 186 633 t b f;
#X obj 186 656 spigot;
#X obj 185 62 unpack s f f;
#X symbolatom 185 94 10 0 0 0 - - -, f 10;
#X obj 218 308 t f f;
#X obj 245 332 s \$0-msg-spigot;
#X obj 234 640 r \$0-msg-spigot;
#X floatatom 223 594 5 0 0 0 - - -, f 5;
#X obj 223 573 f;
#X obj 223 521 t b f;
#X obj 223 544 spigot;
#X obj 271 528 r \$0-msg-spigot;
#X floatatom 387 639 5 0 0 0 - - -, f 5;
#X obj 387 618 f;
#X obj 387 566 t b f;
#X obj 387 589 spigot;
#X obj 435 573 r \$0-msg-spigot;
#X obj 185 14 r bob-filter;
#X obj 184 380 route CUTOFF RES FM-/+;
#X obj 186 726 s \$0-bob-cutoff-r;
#X obj 223 614 s \$0-bob-res-r;
#X obj 387 659 s \$0-bob-fm--/+-r;
#X connect 0 0 29 0;
#X connect 1 0 28 0;
#X connect 2 0 14 0;
#X connect 3 0 2 0;
#X connect 4 0 3 1;
#X connect 5 0 4 0;
#X connect 6 0 1 0;
#X connect 7 0 8 0;
#X connect 8 0 6 0;
#X connect 9 0 0 0;
#X connect 10 0 11 0;
#X connect 10 1 9 1;
#X connect 11 0 9 0;
#X connect 12 0 13 0;
#X connect 12 1 8 1;
#X connect 12 2 3 0;
#X connect 13 0 7 0;
#X connect 14 0 1 1;
#X connect 14 1 15 0;
#X connect 16 0 11 1;
#X connect 17 0 30 0;
#X connect 18 0 17 0;
#X connect 19 0 20 0;
#X connect 19 1 18 1;
#X connect 20 0 18 0;
#X connect 21 0 20 1;
#X connect 22 0 31 0;
#X connect 23 0 22 0;
#X connect 24 0 25 0;
#X connect 24 1 23 1;
#X connect 25 0 23 0;
#X connect 26 0 25 1;
#X connect 27 0 12 0;
#X connect 28 0 10 0;
#X connect 28 1 19 0;
#X connect 28 2 24 0;
#X restore 44 223 pd external-messages;
#X connect 0 0 4 0;
#X connect 1 0 2 0;
#X connect 2 0 6 0;
#X connect 3 0 10 0;
#X connect 4 0 5 0;
#X connect 4 0 17 0;
#X connect 5 0 9 0;
#X connect 6 0 7 0;
#X connect 7 0 3 0;
#X connect 8 0 0 2;
#X connect 10 0 15 0;
#X connect 11 0 15 1;
#X connect 12 0 4 2;
#X connect 13 0 5 2;
#X connect 14 0 0 1;
#X connect 14 0 4 1;
#X connect 14 0 5 1;
#X connect 15 0 14 0;
#X connect 16 0 0 0;
#X connect 26 0 28 0;
#X connect 28 0 29 0;
#X connect 29 0 27 0;
#X connect 33 0 1 0;
#X connect 34 0 46 0;
#X connect 35 0 37 0;
#X connect 36 0 8 0;
#X connect 36 1 12 0;
#X connect 36 2 13 0;
#X connect 37 0 53 0;
#X connect 38 0 47 0;
#X connect 38 0 55 0;
#X connect 39 0 40 0;
#X connect 40 0 41 0;
#X connect 41 0 42 0;
#X connect 42 0 43 0;
#X connect 43 0 44 0;
#X connect 43 0 25 0;
#X connect 44 0 45 0;
#X connect 45 0 46 1;
#X connect 46 0 11 0;
#X connect 47 0 52 0;
#X connect 48 0 53 0;
#X connect 48 1 53 1;
#X connect 49 0 47 0;
#X connect 50 0 51 0;
#X connect 51 0 49 0;
#X connect 52 0 48 0;
#X connect 53 0 54 0;
#X connect 54 0 36 0;
#X connect 55 0 58 0;
#X connect 56 0 57 0;
#X connect 57 0 59 0;
#X connect 58 0 56 0;
#X connect 59 0 60 0;
#X connect 60 0 61 0;
#X connect 61 0 53 0;
#X connect 61 1 53 1;
#X coords 0 -1 1 1 175 100 2 100 100;
