#N canvas 36 165 619 485 10;
#X obj 23 375 cnv 15 400 30 empty empty OUTPUTS: 20 12 0 14 #9898dc #fcfcfc 0;
#X obj 20 103 cnv 15 400 30 empty empty CONTROLS: 20 12 0 14 #9898dc #fcfcfc 0;
#X obj 20 272 cnv 15 400 30 empty empty INPUTS: 20 12 0 14 #9898dc #fcfcfc 0;
#X obj 20 17 cnv 15 400 30 empty empty BOB-FILTER 20 12 0 14 #90d4b0 #fcfcfc 0;
#X text 26 424 OUT - output;
#X text 24 141 CUTOFF - controls the cutoff frequency of the filter.;
#X text 24 213 FM-/+ - bi-polar attenuator for incoming CV at the FREQ input;
#X text 24 308 IN - signal input;
#X text 24 331 FREQ - input for cv-control over the CUTOFF with onboard bi-polar attenuator;
#X text 24 176 RES - controls the resonance;
#X text 28 59 Two stage numerical simulation of the Moog analog resonant filter (based on bob~ object);
#X obj 431 20 bob-filter;
#A saved preset statesave/0-bob-filter-ss.txt 0 0 0;
#A saved dispatch bob-fm--/+-s 0;
#A saved dispatch bob-cutoff-s 0;
#A saved dispatch bob-res-s 0;
