#N canvas 0 23 1068 703 10;
#X obj 93 297 t f f;
#X obj 93 384 line~;
#X obj 93 478 mtof~;
#X floatatom 205 118 5 0 0 0 - - -, f 5;
#X obj 350 621 outlet~;
#X obj 93 450 +~;
#X obj 217 433 *~ 127;
#X obj 465 463 *~;
#X obj 480 416 pack 0 50;
#X obj 480 438 line~;
#X obj 107 177 hsl 128 15 0 127 0 1 \$0-bwl-osc-fm-att-s \$0-bwl-osc-fm-att-r
FM 133 7 0 10 -158136 -1 -1 0 1;
#X obj 107 132 hsl 128 15 0 127 0 1 \$0-bwl-osc-pitch-s \$0-bwl-osc-pitch-r
PITCH 133 7 0 10 -262144 -1 -1 9900 1;
#X obj 105 109 cnv 5 5 5 empty empty PITCH 0 0 0 8 -262144 -66577 0
;
#X obj 181 109 cnv 5 5 5 empty empty WSHAPE 0 0 0 8 -262144 -120682
0;
#X text 462 227 FM IN;
#X obj 465 485 *~ 2000;
#X obj 93 502 +~;
#X text 214 248 PITCH CV IN;
#X obj 104 124 cnv 5 5 5 empty empty BWL-OSC 0 0 0 12 -262144 -66577
0;
#X obj 93 361 pack 0 50;
#X obj 240 200 cnv 5 5 5 empty \$0-waveform-gui-r PULSE 0 0 0 10 -262144
-66577 0;
#X obj 107 147 hsl 128 15 0 127 0 1 \$0-bwl-osc-pwidth-s \$0-bwl-osc-pwidth-r
WSHAPE 133 7 0 10 -262144 -1 -1 7800 1;
#X obj 107 162 hsl 128 15 0 127 0 1 \$0-bwl-osc-cv-att-s \$0-bwl-osc-cv-att-r
CV 133 7 0 10 -158136 -1 -1 6800 1;
#X obj 480 372 * 0.00787402;
#X obj 480 394 * 2;
#X obj 105 206 cnv 5 5 5 empty empty OUT 0 0 0 8 -262144 -66577 0;
#X obj 679 35 sel 0 1 2 3;
#X msg 679 522 1 0 0 0;
#X obj 679 498 t b b;
#X obj 177 192 hradio 15 1 1 4 \$0-bwl-osc-wform-s \$0-bwl-osc-wform-r
empty 65 7 0 10 -262144 -1 -1 3;
#X obj 175 124 cnv 5 5 5 empty \$0-instance-num 2 0 0 0 12 -262144
-66577 0;
#X obj 938 588 s \$0-waveform-gui-r;
#X obj 938 541 makefilename %s;
#X msg 938 565 label \$1;
#X msg 938 515 symbol SINE;
#X obj 273 109 cnv 5 5 5 empty empty FM 0 0 0 8 -262144 -120682 0;
#X obj 694 329 t b b;
#X msg 694 351 0 1 0 0;
#X obj 679 544 unpack f f f f;
#X obj 694 374 unpack f f f f;
#X msg 938 493 symbol TRIANGLE;
#X obj 710 161 t b b;
#X obj 710 206 unpack f f f f;
#X msg 710 183 0 0 1 0;
#X msg 939 471 symbol SAW;
#X obj 804 52 t b b;
#X obj 804 97 unpack f f f f;
#X msg 804 74 0 0 0 1;
#X msg 935 439 symbol PULSE;
#N canvas 0 22 749 750 pulse 0;
#X obj 94 62 inlet~;
#X obj 94 707 outlet~;
#X obj 142 691 switch~;
#X obj 94 682 *~;
#X obj 138 83 t f f;
#X obj 169 665 line~;
#X obj 388 54 inlet~;
#X text 386 33 PWM CV INPUT;
#X obj 388 273 *~;
#X obj 403 194 pack 0 50;
#X obj 403 216 line~;
#X obj 403 172 * 0.00787402;
#X obj 169 643 pack 0 100;
#X obj 12 202 phasor~;
#X obj 235 263 sig~;
#X obj 235 290 +~;
#X obj 235 316 clip~ 0 1;
#X obj 236 516 lop~ 10;
#X obj 354 516 lop~ 10;
#X obj 473 516 lop~ 10;
#X obj 235 343 expr~ if ($v1 < 0.5 \, (1-$v1*2) \, 0 ) \; if ($v1 <
0.5 \, $v1*2 \, (1-$v1+0.5)*2-1 ) \; if ($v1 > 0.5 \, ($v1*2-1) \,
0 );
#X obj 235 238 / 127;
#X obj 94 376 tabosc4~ \$0-square;
#X obj 94 533 *~;
#X obj 12 434 tabread4~ \$0-square;
#X obj 54 407 tabread4~ \$0-square;
#X obj 12 533 *~;
#X obj 54 533 *~;
#X obj 54 324 *~ 1027;
#X obj 12 227 *~ 2051;
#X obj 54 295 phasor~;
#X obj 12 170 +~ 0.5;
#X obj 54 270 -~ 0.5;
#X msg 235 193 127 \$1;
#X obj 235 215 -;
#X obj 138 61 r \$0-bwl-osc-pulse-on/off;
#X obj 235 171 r \$0-bwl-osc-pwidth-s;
#X obj 403 143 r \$0-bwl-osc-cv-att-s;
#X connect 0 0 22 0;
#X connect 0 0 31 0;
#X connect 0 0 32 0;
#X connect 3 0 1 0;
#X connect 4 0 2 0;
#X connect 4 1 12 0;
#X connect 5 0 3 1;
#X connect 6 0 8 0;
#X connect 8 0 15 1;
#X connect 9 0 10 0;
#X connect 10 0 8 1;
#X connect 11 0 9 0;
#X connect 12 0 5 0;
#X connect 13 0 29 0;
#X connect 14 0 15 0;
#X connect 15 0 16 0;
#X connect 16 0 20 0;
#X connect 17 0 26 1;
#X connect 18 0 27 1;
#X connect 19 0 23 1;
#X connect 20 0 17 0;
#X connect 20 1 18 0;
#X connect 20 2 19 0;
#X connect 21 0 14 0;
#X connect 22 0 23 0;
#X connect 23 0 3 0;
#X connect 24 0 26 0;
#X connect 25 0 27 0;
#X connect 26 0 3 0;
#X connect 27 0 3 0;
#X connect 28 0 25 0;
#X connect 29 0 24 0;
#X connect 30 0 28 0;
#X connect 31 0 13 0;
#X connect 32 0 30 0;
#X connect 33 0 34 0;
#X connect 34 0 21 0;
#X connect 35 0 4 0;
#X connect 36 0 33 0;
#X connect 37 0 11 0;
#X restore 350 519 pd pulse;
#X obj 465 246 inlet~ FM;
#X obj 217 264 inlet~ PITCH;
#N canvas 315 35 593 735 state-saving-multiple-instances 0;
#X obj 137 29 loadbang;
#X obj 184 452 textfile;
#X msg 466 435 rewind;
#X msg 423 435 bang;
#X obj 42 691 textfile;
#X obj 423 396 t b b;
#X obj 43 357 f;
#X obj 56 580 f;
#X obj -16 401 t b b b;
#X msg 119 580 clear;
#X obj 204 217 outlet;
#X text 246 221 INSTANCE NUMBER;
#X obj 165 153 f \$1;
#X obj 165 189 t f f f;
#X obj 138 62 t b b;
#X obj -16 378 bng 15 250 50 0 empty empty empty 17 7 0 10 -262144
-1 -1;
#X obj -16 234 r SAVE-S;
#X obj 43 400 pack f f f f f;
#X obj 184 474 unpack f f f f f;
#X msg 43 438 set \$1 \$2 \$3 \$4 \$5;
#X obj 58 254 r \$0-bwl-osc-pitch-s;
#X obj 184 627 s \$0-bwl-osc-pitch-r;
#X msg 184 427 read statesave/\$1-bwl-osc-ss.txt;
#X msg 55 651 write statesave/\$1-bwl-osc-ss.txt;
#X obj 66 277 r \$0-bwl-osc-pwidth-s;
#X obj 205 603 s \$0-bwl-osc-pwidth-r;
#X obj 80 298 r \$0-bwl-osc-cv-att-s;
#X obj 226 579 s \$0-bwl-osc-cv-att-r;
#X obj 98 323 r \$0-bwl-osc-fm-att-s;
#X obj 247 555 s \$0-bwl-osc-fm-att-r;
#X obj 118 348 r \$0-bwl-osc-wform-s;
#X obj 274 529 s \$0-bwl-osc-wform-r;
#X obj 222 45 r \$0-reload!;
#X connect 0 0 14 0;
#X connect 1 0 18 0;
#X connect 2 0 1 0;
#X connect 3 0 1 0;
#X connect 5 0 3 0;
#X connect 5 1 2 0;
#X connect 6 0 17 0;
#X connect 7 0 23 0;
#X connect 8 0 7 0;
#X connect 8 1 6 0;
#X connect 8 2 9 0;
#X connect 9 0 4 0;
#X connect 12 0 13 0;
#X connect 13 0 7 1;
#X connect 13 1 22 0;
#X connect 13 2 10 0;
#X connect 14 0 5 0;
#X connect 14 1 12 0;
#X connect 15 0 8 0;
#X connect 16 0 15 0;
#X connect 17 0 19 0;
#X connect 18 0 21 0;
#X connect 18 1 25 0;
#X connect 18 2 27 0;
#X connect 18 3 29 0;
#X connect 18 4 31 0;
#X connect 19 0 4 0;
#X connect 20 0 6 1;
#X connect 22 0 1 0;
#X connect 23 0 4 0;
#X connect 24 0 17 1;
#X connect 26 0 17 2;
#X connect 28 0 17 3;
#X connect 30 0 17 4;
#X connect 32 0 14 0;
#X restore 316 122 pd state-saving-multiple-instances;
#X obj 316 197 s \$0-instance-num;
#X obj 316 149 makefilename %d;
#X msg 316 174 label \$1;
#N canvas 81 22 1117 745 state-saving-via-preset-manager-module 0;
#X obj 340 227 textfile;
#X msg 719 210 rewind;
#X msg 676 210 bang;
#X obj 106 568 textfile;
#X obj 676 171 t b b;
#X obj 107 234 f;
#X obj 120 457 f;
#X obj 53 352 t b b b;
#X msg 236 499 clear;
#X obj 107 56 delay 5;
#X obj 53 407 delay 10;
#X msg 53 192 bang;
#X obj 53 26 r STORE-S!;
#X obj 340 128 f;
#X obj 313 85 t b b;
#X obj 328 49 t b f;
#X obj 385 146 f \$1;
#X obj 340 173 pack f f;
#X obj 385 96 loadbang;
#X obj 120 487 pack f f;
#X obj 165 440 loadbang;
#X obj 165 462 f \$1;
#X obj 328 26 r preset-manager-scan;
#X obj 135 418 r preset-manager-store-slot;
#X msg 106 368 set \$1 \$2 \$3 \$4 \$5;
#X obj 107 301 pack f f f f f;
#X obj 340 249 unpack f f f f f;
#X obj 123 78 r \$0-bwl-osc-pitch-s;
#X obj 345 714 s \$0-bwl-osc-pitch-r;
#X obj 136 107 r \$0-bwl-osc-pwidth-s;
#X obj 146 146 r \$0-bwl-osc-cv-att-s;
#X obj 491 545 s \$0-bwl-osc-cv-att-r;
#X obj 169 173 r \$0-bwl-osc-fm-att-s;
#X obj 549 453 s \$0-bwl-osc-fm-att-r;
#X obj 182 197 r \$0-bwl-osc-wform-s;
#X obj 596 365 s \$0-bwl-osc-wform-r;
#X msg 119 528 write statesave/\$1-\$2-bwl-osc-ss.txt;
#X msg 340 202 read statesave/\$1-\$2-bwl-osc-ss.txt;
#N canvas 0 22 1069 747 morph 0;
#X obj 176 94 inlet;
#X obj 176 236 pack f f;
#X obj 176 261 line;
#X obj 209 117 r preset-manager-morph-s;
#X msg 72 244 stop;
#X obj 72 214 r STOP-MORPH!;
#X obj 209 206 spigot;
#X obj 398 137 t f f;
#X obj 455 154 == 0;
#X obj 221 176 f;
#X floatatom 455 222 5 0 0 0 - - -, f 5;
#X obj 398 159 t b f;
#X floatatom 425 192 5 0 0 0 - - -, f 5;
#X obj 209 139 t f f;
#X obj 176 283 outlet;
#X obj 398 102 inlet;
#X connect 0 0 1 0;
#X connect 1 0 2 0;
#X connect 2 0 14 0;
#X connect 3 0 13 0;
#X connect 4 0 2 0;
#X connect 5 0 4 0;
#X connect 6 0 1 1;
#X connect 7 0 11 0;
#X connect 7 1 8 0;
#X connect 8 0 10 0;
#X connect 9 0 6 0;
#X connect 10 0 1 1;
#X connect 11 0 9 0;
#X connect 11 1 12 0;
#X connect 12 0 6 1;
#X connect 13 0 6 0;
#X connect 13 1 9 1;
#X connect 15 0 7 0;
#X restore 345 688 pd morph;
#X obj 390 665 r frequencies-s;
#N canvas 0 22 1069 747 morph 0;
#X obj 176 94 inlet;
#X obj 176 236 pack f f;
#X obj 176 261 line;
#X obj 209 117 r preset-manager-morph-s;
#X msg 72 244 stop;
#X obj 72 214 r STOP-MORPH!;
#X obj 209 206 spigot;
#X obj 398 137 t f f;
#X obj 455 154 == 0;
#X obj 221 176 f;
#X floatatom 455 222 5 0 0 0 - - -, f 5;
#X obj 398 159 t b f;
#X floatatom 425 192 5 0 0 0 - - -, f 5;
#X obj 209 139 t f f;
#X obj 176 283 outlet;
#X obj 398 102 inlet;
#X connect 0 0 1 0;
#X connect 1 0 2 0;
#X connect 2 0 14 0;
#X connect 3 0 13 0;
#X connect 4 0 2 0;
#X connect 5 0 4 0;
#X connect 6 0 1 1;
#X connect 7 0 11 0;
#X connect 7 1 8 0;
#X connect 8 0 10 0;
#X connect 9 0 6 0;
#X connect 10 0 1 1;
#X connect 11 0 9 0;
#X connect 11 1 12 0;
#X connect 12 0 6 1;
#X connect 13 0 6 0;
#X connect 13 1 9 1;
#X connect 15 0 7 0;
#X restore 421 605 pd morph;
#X obj 421 631 s \$0-bwl-osc-pwidth-r;
#X obj 466 582 r parameters-s;
#N canvas 0 22 1069 747 morph 0;
#X obj 176 94 inlet;
#X obj 176 236 pack f f;
#X obj 176 261 line;
#X obj 209 117 r preset-manager-morph-s;
#X msg 72 244 stop;
#X obj 72 214 r STOP-MORPH!;
#X obj 209 206 spigot;
#X obj 398 137 t f f;
#X obj 455 154 == 0;
#X obj 221 176 f;
#X floatatom 455 222 5 0 0 0 - - -, f 5;
#X obj 398 159 t b f;
#X floatatom 425 192 5 0 0 0 - - -, f 5;
#X obj 209 139 t f f;
#X obj 176 283 outlet;
#X obj 398 102 inlet;
#X connect 0 0 1 0;
#X connect 1 0 2 0;
#X connect 2 0 14 0;
#X connect 3 0 13 0;
#X connect 4 0 2 0;
#X connect 5 0 4 0;
#X connect 6 0 1 1;
#X connect 7 0 11 0;
#X connect 7 1 8 0;
#X connect 8 0 10 0;
#X connect 9 0 6 0;
#X connect 10 0 1 1;
#X connect 11 0 9 0;
#X connect 11 1 12 0;
#X connect 12 0 6 1;
#X connect 13 0 6 0;
#X connect 13 1 9 1;
#X connect 15 0 7 0;
#X restore 491 520 pd morph;
#X obj 536 498 r attenuators-s;
#N canvas 0 22 1069 747 morph 0;
#X obj 176 94 inlet;
#X obj 176 236 pack f f;
#X obj 176 261 line;
#X obj 209 117 r preset-manager-morph-s;
#X msg 72 244 stop;
#X obj 72 214 r STOP-MORPH!;
#X obj 209 206 spigot;
#X obj 398 137 t f f;
#X obj 455 154 == 0;
#X obj 221 176 f;
#X floatatom 455 222 5 0 0 0 - - -, f 5;
#X obj 398 159 t b f;
#X floatatom 425 192 5 0 0 0 - - -, f 5;
#X obj 209 139 t f f;
#X obj 176 283 outlet;
#X obj 398 102 inlet;
#X connect 0 0 1 0;
#X connect 1 0 2 0;
#X connect 2 0 14 0;
#X connect 3 0 13 0;
#X connect 4 0 2 0;
#X connect 5 0 4 0;
#X connect 6 0 1 1;
#X connect 7 0 11 0;
#X connect 7 1 8 0;
#X connect 8 0 10 0;
#X connect 9 0 6 0;
#X connect 10 0 1 1;
#X connect 11 0 9 0;
#X connect 11 1 12 0;
#X connect 12 0 6 1;
#X connect 13 0 6 0;
#X connect 13 1 9 1;
#X connect 15 0 7 0;
#X restore 549 424 pd morph;
#X obj 594 402 r attenuators-s;
#X connect 0 0 26 0;
#X connect 1 0 0 0;
#X connect 2 0 0 0;
#X connect 4 0 2 0;
#X connect 4 1 1 0;
#X connect 5 0 25 0;
#X connect 6 0 19 0;
#X connect 7 0 10 0;
#X connect 7 1 9 0;
#X connect 7 2 8 0;
#X connect 8 0 3 0;
#X connect 9 0 5 0;
#X connect 10 0 6 0;
#X connect 11 0 7 0;
#X connect 12 0 11 0;
#X connect 13 0 17 0;
#X connect 14 0 4 0;
#X connect 14 1 13 0;
#X connect 15 0 14 0;
#X connect 15 1 13 1;
#X connect 16 0 17 1;
#X connect 17 0 37 0;
#X connect 18 0 16 0;
#X connect 19 0 36 0;
#X connect 20 0 21 0;
#X connect 21 0 19 1;
#X connect 22 0 15 0;
#X connect 23 0 6 1;
#X connect 24 0 3 0;
#X connect 25 0 24 0;
#X connect 26 0 38 0;
#X connect 26 1 40 0;
#X connect 26 2 43 0;
#X connect 26 3 45 0;
#X connect 26 4 35 0;
#X connect 27 0 5 1;
#X connect 29 0 25 1;
#X connect 30 0 25 2;
#X connect 32 0 25 3;
#X connect 34 0 25 4;
#X connect 36 0 3 0;
#X connect 37 0 0 0;
#X connect 38 0 28 0;
#X connect 39 0 38 1;
#X connect 40 0 41 0;
#X connect 42 0 40 1;
#X connect 43 0 31 0;
#X connect 44 0 43 1;
#X connect 45 0 33 0;
#X connect 46 0 45 1;
#X restore 317 97 pd state-saving-via-preset-manager-module;
#N canvas 0 22 1102 686 wavetables 0;
#X obj 45 234 loadbang;
#X text 103 238 TRIANGLE WAVE;
#X msg 45 370 \; \$1-triangle normalize 1;
#X obj 45 256 f \$0;
#X obj 45 287 t f f;
#X obj 43 410 table \$0-triangle;
#X obj 49 28 loadbang;
#X obj 49 50 f \$0;
#X obj 49 81 t f f;
#X msg 49 164 \; \$1-sine normalize 1;
#X obj 47 204 table \$0-sine;
#X text 107 32 SINE WAVE;
#X obj 43 441 loadbang;
#X obj 43 463 f \$0;
#X obj 43 494 t f f;
#X text 101 445 SAW WAVE;
#X msg 42 598 \; \$1-saw normalize 1;
#X obj 40 638 table \$0-saw;
#X obj 567 35 loadbang;
#X text 612 58 SQUAREWAVE;
#X obj 568 151 t f f;
#X obj 567 57 f \$0;
#X msg 568 238 \; \$1-square normalize 1;
#X obj 566 278 table \$0-square;
#X obj 620 117 bng 15 250 50 0 empty empty empty 17 7 0 10 -262144
-1 -1;
#X msg 72 314 \; \$1-triangle sinesum 512 1 0 -0.111111 0 0.04 0 -0.0204082
0 0.0123457 0 -0.00826446;
#X msg 70 521 \; \$1-saw sinesum 512 1 0.5 0.33 0.25 0.2 0.16 0.14
0.125 0.111111 0.1 0.090909 0.083333 0.076923 0.0714285 0.066666 0.0625
0.058823 0.055555 0.052631 0.05 0.047619 0.045454 0.043478 0.041666
;
#X msg 644 399 \; \$1-square sinesum 512 1 0 0.33 0 0.2 0 0.142857
0 0.111111 0 0.090909 0 0.076923 0 0.066666 0 0.058823 0 0.0526315
0 0.047619 0 0.04347 0 0.04 0;
#X msg 636 167 \; \$1-square sinesum 512 1 0 0.33 0 0.2 0 0.142857
0 0.111111 0 0.090909 0 0.076923 0 0.066666 0 0.058823 0 0.0526315
0 0.047619 0 0.04347 0 0.04 0;
#X msg 76 108 \; \$1-sine sinesum 512 1;
#X connect 0 0 3 0;
#X connect 3 0 4 0;
#X connect 4 0 2 0;
#X connect 4 1 25 0;
#X connect 6 0 7 0;
#X connect 7 0 8 0;
#X connect 8 0 9 0;
#X connect 8 1 29 0;
#X connect 12 0 13 0;
#X connect 13 0 14 0;
#X connect 14 0 16 0;
#X connect 14 1 26 0;
#X connect 18 0 21 0;
#X connect 20 0 22 0;
#X connect 20 1 28 0;
#X connect 21 0 20 0;
#X connect 24 0 21 0;
#X restore 317 71 pd wavetables;
#N canvas 0 22 749 750 sawtest 0;
#X obj 94 62 inlet~;
#X obj 94 707 outlet~;
#X obj 142 691 switch~;
#X obj 94 682 *~;
#X obj 138 83 t f f;
#X obj 169 665 line~;
#X obj 524 50 inlet~;
#X obj 169 643 pack 0 100;
#X obj 94 376 tabosc4~ \$0-saw;
#X obj 138 61 r \$0-bwl-osc-saw-on/off;
#X obj 12 434 tabosc4~ \$0-saw;
#X obj 54 407 tabosc4~ \$0-saw;
#X obj 216 535 *~;
#X obj 94 533 *~ 0.33;
#X obj 232 337 r \$0-bwl-osc-pwidth-s;
#X obj 232 359 t f f;
#X msg 232 381 127 \$1;
#X obj 232 403 -;
#X obj 232 425 / 127;
#X obj 232 447 pack 0 50;
#X obj 232 469 line~;
#X obj 297 425 / 127;
#X obj 297 447 pack 0 50;
#X obj 298 473 line~;
#X obj 94 559 *~;
#X obj 210 122 r \$0-bwl-osc-pwidth-s;
#X obj 210 144 * 0.00787402;
#X obj 210 188 pack 0 50;
#X obj 210 210 line~;
#X obj 210 232 +~;
#X obj 55 376 +~;
#X text 522 29 WSHAPE CV;
#X obj 12 407 +~;
#X obj 210 283 *~ 0.5;
#X obj 524 100 *~;
#X obj 592 18 r \$0-bwl-osc-cv-att-s;
#X obj 592 40 / 127;
#X obj 592 62 pack 0 50;
#X obj 592 84 line~;
#X obj 232 491 +~;
#X obj 298 495 +~;
#X obj 523 475 *~ -1;
#X obj 210 166 * 5;
#X obj 345 214 *~ 5;
#X connect 0 0 8 0;
#X connect 0 0 30 0;
#X connect 0 0 32 0;
#X connect 3 0 1 0;
#X connect 4 0 2 0;
#X connect 4 1 7 0;
#X connect 5 0 3 1;
#X connect 6 0 34 0;
#X connect 7 0 5 0;
#X connect 8 0 12 0;
#X connect 8 0 13 0;
#X connect 9 0 4 0;
#X connect 10 0 13 0;
#X connect 11 0 13 0;
#X connect 12 0 3 0;
#X connect 13 0 24 0;
#X connect 14 0 15 0;
#X connect 15 0 16 0;
#X connect 15 1 21 0;
#X connect 16 0 17 0;
#X connect 17 0 18 0;
#X connect 18 0 19 0;
#X connect 19 0 20 0;
#X connect 20 0 39 0;
#X connect 21 0 22 0;
#X connect 22 0 23 0;
#X connect 23 0 40 0;
#X connect 24 0 3 0;
#X connect 25 0 26 0;
#X connect 26 0 42 0;
#X connect 27 0 28 0;
#X connect 28 0 29 0;
#X connect 29 0 30 1;
#X connect 29 0 33 0;
#X connect 30 0 11 0;
#X connect 32 0 10 0;
#X connect 33 0 32 1;
#X connect 34 0 40 1;
#X connect 34 0 41 0;
#X connect 34 0 43 0;
#X connect 35 0 36 0;
#X connect 36 0 37 0;
#X connect 37 0 38 0;
#X connect 38 0 34 1;
#X connect 39 0 12 1;
#X connect 40 0 24 1;
#X connect 41 0 39 1;
#X connect 42 0 27 0;
#X connect 43 0 29 1;
#X restore 259 543 pd sawtest;
#N canvas 0 22 749 750 tritest 0;
#X obj 94 62 inlet~;
#X obj 94 707 outlet~;
#X obj 142 691 switch~;
#X obj 94 682 *~;
#X obj 138 83 t f f;
#X obj 169 665 line~;
#X obj 388 54 inlet~;
#X text 386 33 PWM CV INPUT;
#X obj 388 273 *~;
#X obj 403 194 pack 0 50;
#X obj 403 216 line~;
#X obj 403 172 * 0.00787402;
#X obj 169 643 pack 0 100;
#X obj 12 202 phasor~;
#X obj 235 263 sig~;
#X obj 235 290 +~;
#X obj 235 316 clip~ 0 1;
#X obj 236 516 lop~ 10;
#X obj 354 516 lop~ 10;
#X obj 473 516 lop~ 10;
#X obj 235 343 expr~ if ($v1 < 0.5 \, (1-$v1*2) \, 0 ) \; if ($v1 <
0.5 \, $v1*2 \, (1-$v1+0.5)*2-1 ) \; if ($v1 > 0.5 \, ($v1*2-1) \,
0 );
#X obj 235 220 / 127;
#X obj 94 533 *~;
#X obj 12 533 *~;
#X obj 54 533 *~;
#X obj 54 324 *~ 1027;
#X obj 12 227 *~ 2051;
#X obj 54 295 phasor~;
#X obj 12 170 +~ 0.5;
#X obj 54 270 -~ 0.5;
#X msg 235 156 127 \$1;
#X obj 235 186 -;
#X obj 94 376 tabosc4~ \$0-triangle;
#X obj 54 407 tabread4~ \$0-triangle;
#X obj 12 434 tabread4~ \$0-triangle;
#X obj 138 61 r \$0-bwl-osc-triangle-on/off;
#X obj 235 134 r \$0-bwl-osc-pwidth-s;
#X obj 403 143 r \$0-bwl-osc-cv-att-s;
#X connect 0 0 28 0;
#X connect 0 0 29 0;
#X connect 0 0 32 0;
#X connect 3 0 1 0;
#X connect 4 0 2 0;
#X connect 4 1 12 0;
#X connect 5 0 3 1;
#X connect 6 0 8 0;
#X connect 8 0 15 1;
#X connect 9 0 10 0;
#X connect 10 0 8 1;
#X connect 11 0 9 0;
#X connect 12 0 5 0;
#X connect 13 0 26 0;
#X connect 14 0 15 0;
#X connect 15 0 16 0;
#X connect 16 0 20 0;
#X connect 17 0 23 1;
#X connect 18 0 24 1;
#X connect 19 0 22 1;
#X connect 20 0 17 0;
#X connect 20 1 18 0;
#X connect 20 2 19 0;
#X connect 21 0 14 0;
#X connect 22 0 3 0;
#X connect 23 0 3 0;
#X connect 24 0 3 0;
#X connect 25 0 33 0;
#X connect 26 0 34 0;
#X connect 27 0 25 0;
#X connect 28 0 13 0;
#X connect 29 0 27 0;
#X connect 30 0 31 0;
#X connect 31 0 21 0;
#X connect 32 0 22 0;
#X connect 33 0 24 0;
#X connect 34 0 23 0;
#X connect 35 0 4 0;
#X connect 36 0 30 0;
#X connect 37 0 11 0;
#X restore 194 519 pd tritest;
#N canvas 0 22 749 750 sinetest 0;
#X obj 94 62 inlet~;
#X obj 94 725 outlet~;
#X obj 142 691 switch~;
#X obj 94 682 *~;
#X obj 138 83 t f f;
#X obj 169 665 line~;
#X obj 388 54 inlet~;
#X obj 388 273 *~;
#X obj 403 194 pack 0 50;
#X obj 403 216 line~;
#X obj 403 172 * 0.00787402;
#X obj 169 643 pack 0 100;
#X obj 12 202 phasor~;
#X obj 235 263 sig~;
#X obj 235 290 +~;
#X obj 235 316 clip~ 0 1;
#X obj 236 516 lop~ 10;
#X obj 354 516 lop~ 10;
#X obj 473 516 lop~ 10;
#X obj 235 343 expr~ if ($v1 < 0.5 \, (1-$v1*2) \, 0 ) \; if ($v1 <
0.5 \, $v1*2 \, (1-$v1+0.5)*2-1 ) \; if ($v1 > 0.5 \, ($v1*2-1) \,
0 );
#X obj 235 220 / 127;
#X obj 94 533 *~;
#X obj 12 533 *~;
#X obj 54 533 *~;
#X obj 54 324 *~ 1027;
#X obj 12 227 *~ 2051;
#X obj 54 295 phasor~;
#X obj 12 170 +~ 0.5;
#X obj 54 270 -~ 0.5;
#X msg 235 156 127 \$1;
#X obj 235 186 -;
#X obj 94 376 tabosc4~ \$0-sine;
#X obj 54 407 tabread4~ \$0-sine;
#X obj 12 434 tabread4~ \$0-sine;
#X obj 138 61 r \$0-bwl-osc-sine-on/off;
#X obj 235 134 r \$0-bwl-osc-pwidth-s;
#X text 386 33 WSHAPE CV INPUT;
#X obj 403 143 r \$0-bwl-osc-cv-att-s;
#X connect 0 0 27 0;
#X connect 0 0 28 0;
#X connect 0 0 31 0;
#X connect 3 0 1 0;
#X connect 4 0 2 0;
#X connect 4 1 11 0;
#X connect 5 0 3 1;
#X connect 6 0 7 0;
#X connect 7 0 14 1;
#X connect 8 0 9 0;
#X connect 9 0 7 1;
#X connect 10 0 8 0;
#X connect 11 0 5 0;
#X connect 12 0 25 0;
#X connect 13 0 14 0;
#X connect 14 0 15 0;
#X connect 15 0 19 0;
#X connect 16 0 22 1;
#X connect 17 0 23 1;
#X connect 18 0 21 1;
#X connect 19 0 16 0;
#X connect 19 1 17 0;
#X connect 19 2 18 0;
#X connect 20 0 13 0;
#X connect 21 0 3 0;
#X connect 22 0 3 0;
#X connect 23 0 3 0;
#X connect 24 0 32 0;
#X connect 25 0 33 0;
#X connect 26 0 24 0;
#X connect 27 0 12 0;
#X connect 28 0 26 0;
#X connect 29 0 30 0;
#X connect 30 0 20 0;
#X connect 31 0 21 0;
#X connect 32 0 23 0;
#X connect 33 0 22 0;
#X connect 34 0 4 0;
#X connect 35 0 29 0;
#X connect 37 0 10 0;
#X restore 93 604 pd sinetest;
#X obj 376 248 *~ -1;
#X obj 342 221 inlet~;
#X obj 679 14 r \$0-bwl-osc-wform-s;
#X obj 885 120 s \$0-bwl-osc-pulse-on/off;
#X obj 858 145 s \$0-bwl-osc-saw-on/off;
#X obj 831 171 s \$0-bwl-osc-triangle-on/off;
#X obj 804 196 s \$0-bwl-osc-sine-on/off;
#X obj 791 229 s \$0-bwl-osc-pulse-on/off;
#X obj 764 254 s \$0-bwl-osc-saw-on/off;
#X obj 737 280 s \$0-bwl-osc-triangle-on/off;
#X obj 710 305 s \$0-bwl-osc-sine-on/off;
#X obj 775 397 s \$0-bwl-osc-pulse-on/off;
#X obj 748 422 s \$0-bwl-osc-saw-on/off;
#X obj 721 448 s \$0-bwl-osc-triangle-on/off;
#X obj 694 473 s \$0-bwl-osc-sine-on/off;
#X obj 760 567 s \$0-bwl-osc-pulse-on/off;
#X obj 733 592 s \$0-bwl-osc-saw-on/off;
#X obj 706 618 s \$0-bwl-osc-triangle-on/off;
#X obj 679 643 s \$0-bwl-osc-sine-on/off;
#X obj 480 350 r \$0-bwl-osc-fm-att-s;
#X obj 93 222 r \$0-bwl-osc-pitch-s;
#N canvas 297 27 670 451 parameter-nudging-system 0;
#N canvas 0 22 484 497 param-nudge 0;
#X obj 124 234 random;
#X obj 232 335 f;
#X obj 232 368 +;
#X obj 257 166 random 2;
#X obj 124 275 t f f;
#X obj 124 351 t b f;
#X obj 124 297 *;
#X obj 257 188 sel 0 1;
#X msg 257 280 -1;
#X msg 335 280 1;
#X obj 124 149 t b b b;
#X obj 124 76 r NUDGE!;
#X obj 157 193 r NUDGE-RANGE;
#X obj 247 308 inlet;
#X obj 232 397 outlet;
#X obj 124 98 spigot;
#X obj 188 81 r frequencies2-s;
#X connect 0 0 4 0;
#X connect 1 0 2 0;
#X connect 2 0 14 0;
#X connect 3 0 7 0;
#X connect 4 0 6 0;
#X connect 5 0 2 0;
#X connect 5 1 2 1;
#X connect 6 0 5 0;
#X connect 7 0 8 0;
#X connect 7 1 9 0;
#X connect 8 0 6 1;
#X connect 9 0 6 1;
#X connect 10 0 0 0;
#X connect 10 1 1 0;
#X connect 10 2 3 0;
#X connect 11 0 15 0;
#X connect 12 0 0 1;
#X connect 13 0 1 1;
#X connect 15 0 10 0;
#X connect 16 0 15 1;
#X restore 29 50 pd param-nudge;
#N canvas 0 22 484 497 param-nudge 0;
#X obj 124 234 random;
#X obj 232 335 f;
#X obj 232 368 +;
#X obj 257 166 random 2;
#X obj 124 275 t f f;
#X obj 124 351 t b f;
#X obj 124 297 *;
#X obj 257 188 sel 0 1;
#X msg 257 280 -1;
#X msg 335 280 1;
#X obj 124 149 t b b b;
#X obj 124 74 r NUDGE!;
#X obj 157 193 r NUDGE-RANGE;
#X obj 247 308 inlet;
#X obj 232 397 outlet;
#X obj 124 96 spigot;
#X obj 196 79 r parameters2-s;
#X connect 0 0 4 0;
#X connect 1 0 2 0;
#X connect 2 0 14 0;
#X connect 3 0 7 0;
#X connect 4 0 6 0;
#X connect 5 0 2 0;
#X connect 5 1 2 1;
#X connect 6 0 5 0;
#X connect 7 0 8 0;
#X connect 7 1 9 0;
#X connect 8 0 6 1;
#X connect 9 0 6 1;
#X connect 10 0 0 0;
#X connect 10 1 1 0;
#X connect 10 2 3 0;
#X connect 11 0 15 0;
#X connect 12 0 0 1;
#X connect 13 0 1 1;
#X connect 15 0 10 0;
#X connect 16 0 15 1;
#X restore 280 50 pd param-nudge;
#N canvas 0 22 484 497 param-nudge 0;
#X obj 124 234 random;
#X obj 232 335 f;
#X obj 232 368 +;
#X obj 257 166 random 2;
#X obj 124 275 t f f;
#X obj 124 351 t b f;
#X obj 124 297 *;
#X obj 257 188 sel 0 1;
#X msg 257 280 -1;
#X msg 335 280 1;
#X obj 124 149 t b b b;
#X obj 124 68 r NUDGE!;
#X obj 157 193 r NUDGE-RANGE;
#X obj 247 308 inlet;
#X obj 232 397 outlet;
#X obj 124 90 spigot;
#X obj 193 73 r attenuators2-s;
#X connect 0 0 4 0;
#X connect 1 0 2 0;
#X connect 2 0 14 0;
#X connect 3 0 7 0;
#X connect 4 0 6 0;
#X connect 5 0 2 0;
#X connect 5 1 2 1;
#X connect 6 0 5 0;
#X connect 7 0 8 0;
#X connect 7 1 9 0;
#X connect 8 0 6 1;
#X connect 9 0 6 1;
#X connect 10 0 0 0;
#X connect 10 1 1 0;
#X connect 10 2 3 0;
#X connect 11 0 15 0;
#X connect 12 0 0 1;
#X connect 13 0 1 1;
#X connect 15 0 10 0;
#X connect 16 0 15 1;
#X restore 432 50 pd param-nudge;
#N canvas 0 22 484 497 param-nudge 0;
#X obj 124 234 random;
#X obj 232 335 f;
#X obj 232 368 +;
#X obj 257 166 random 2;
#X obj 124 275 t f f;
#X obj 124 351 t b f;
#X obj 124 297 *;
#X obj 257 188 sel 0 1;
#X msg 257 280 -1;
#X msg 335 280 1;
#X obj 124 149 t b b b;
#X obj 124 72 r NUDGE!;
#X obj 157 193 r NUDGE-RANGE;
#X obj 247 308 inlet;
#X obj 232 397 outlet;
#X obj 124 94 spigot;
#X obj 201 77 r attenuators2-s;
#X connect 0 0 4 0;
#X connect 1 0 2 0;
#X connect 2 0 14 0;
#X connect 3 0 7 0;
#X connect 4 0 6 0;
#X connect 5 0 2 0;
#X connect 5 1 2 1;
#X connect 6 0 5 0;
#X connect 7 0 8 0;
#X connect 7 1 9 0;
#X connect 8 0 6 1;
#X connect 9 0 6 1;
#X connect 10 0 0 0;
#X connect 10 1 1 0;
#X connect 10 2 3 0;
#X connect 11 0 15 0;
#X connect 12 0 0 1;
#X connect 13 0 1 1;
#X connect 15 0 10 0;
#X connect 16 0 15 1;
#X restore 29 167 pd param-nudge;
#X obj 29 26 r \$0-bwl-osc-pitch-s;
#X obj 29 101 s \$0-bwl-osc-pitch-r;
#X obj 280 27 r \$0-bwl-osc-pwidth-s;
#X obj 280 101 s \$0-bwl-osc-pwidth-r;
#X obj 432 27 r \$0-bwl-osc-cv-att-s;
#X obj 432 101 s \$0-bwl-osc-cv-att-r;
#X obj 29 144 r \$0-bwl-osc-fm-att-s;
#X obj 29 219 s \$0-bwl-osc-fm-att-r;
#X obj 29 189 clip 0 127;
#X obj 29 72 clip 0 127;
#X obj 280 72 clip 0 127;
#X obj 432 72 clip 0 127;
#X connect 0 0 13 0;
#X connect 1 0 14 0;
#X connect 2 0 15 0;
#X connect 3 0 12 0;
#X connect 4 0 0 0;
#X connect 6 0 1 0;
#X connect 8 0 2 0;
#X connect 10 0 3 0;
#X connect 12 0 11 0;
#X connect 13 0 5 0;
#X connect 14 0 7 0;
#X connect 15 0 9 0;
#X restore 318 47 pd parameter-nudging-system;
#X obj 93 319 clip 0 90;
#N canvas 632 73 749 752 external-messages 1;
#X floatatom 186 706 5 0 0 0 - - -, f 5;
#X obj 185 328 spigot;
#X obj 218 288 tgl 15 0 empty empty empty 17 7 0 10 -262144 -1 -1 1
1;
#X obj 254 272 ==;
#X obj 269 248 f \$1;
#X obj 269 224 loadbang;
#X msg 185 202 \$1 \$2;
#X msg 185 156 symbol \$1;
#X obj 185 180 pack s f;
#X obj 186 685 f;
#X obj 186 633 t b f;
#X obj 186 656 spigot;
#X obj 185 62 unpack s f f;
#X symbolatom 185 94 10 0 0 0 - - -, f 10;
#X obj 218 308 t f f;
#X obj 245 332 s \$0-msg-spigot;
#X obj 234 640 r \$0-msg-spigot;
#X floatatom 223 594 5 0 0 0 - - -, f 5;
#X obj 223 573 f;
#X obj 223 521 t b f;
#X obj 223 544 spigot;
#X obj 271 528 r \$0-msg-spigot;
#X floatatom 387 639 5 0 0 0 - - -, f 5;
#X obj 387 618 f;
#X obj 387 566 t b f;
#X obj 387 589 spigot;
#X obj 435 573 r \$0-msg-spigot;
#X floatatom 424 527 5 0 0 0 - - -, f 5;
#X obj 424 506 f;
#X obj 424 454 t b f;
#X obj 424 477 spigot;
#X obj 472 461 r \$0-msg-spigot;
#X obj 185 14 r bwl-osc;
#X obj 185 380 route PITCH WSHAPE CV FM;
#X obj 186 726 s \$0-bwl-osc-pitch-r;
#X obj 223 614 s \$0-bwl-osc-pwidth-r;
#X obj 387 659 s \$0-bwl-osc-cv-att-r;
#X obj 424 547 s \$0-bwl-osc-fm-att-r;
#X connect 0 0 34 0;
#X connect 1 0 33 0;
#X connect 2 0 14 0;
#X connect 3 0 2 0;
#X connect 4 0 3 1;
#X connect 5 0 4 0;
#X connect 6 0 1 0;
#X connect 7 0 8 0;
#X connect 8 0 6 0;
#X connect 9 0 0 0;
#X connect 10 0 11 0;
#X connect 10 1 9 1;
#X connect 11 0 9 0;
#X connect 12 0 13 0;
#X connect 12 1 8 1;
#X connect 12 2 3 0;
#X connect 13 0 7 0;
#X connect 14 0 1 1;
#X connect 14 1 15 0;
#X connect 16 0 11 1;
#X connect 17 0 35 0;
#X connect 18 0 17 0;
#X connect 19 0 20 0;
#X connect 19 1 18 1;
#X connect 20 0 18 0;
#X connect 21 0 20 1;
#X connect 22 0 36 0;
#X connect 23 0 22 0;
#X connect 24 0 25 0;
#X connect 24 1 23 1;
#X connect 25 0 23 0;
#X connect 26 0 25 1;
#X connect 27 0 37 0;
#X connect 28 0 27 0;
#X connect 29 0 30 0;
#X connect 29 1 28 1;
#X connect 30 0 28 0;
#X connect 31 0 30 1;
#X connect 32 0 12 0;
#X connect 33 0 10 0;
#X connect 33 1 19 0;
#X connect 33 2 24 0;
#X connect 33 3 29 0;
#X restore 318 24 pd external-messages;
#X connect 0 0 83 0;
#X connect 0 1 3 0;
#X connect 1 0 5 0;
#X connect 2 0 16 0;
#X connect 5 0 2 0;
#X connect 6 0 5 1;
#X connect 7 0 15 0;
#X connect 8 0 9 0;
#X connect 9 0 7 1;
#X connect 15 0 16 1;
#X connect 16 0 49 0;
#X connect 16 0 58 0;
#X connect 16 0 59 0;
#X connect 16 0 60 0;
#X connect 19 0 1 0;
#X connect 23 0 24 0;
#X connect 24 0 8 0;
#X connect 26 0 28 0;
#X connect 26 1 36 0;
#X connect 26 2 41 0;
#X connect 26 3 45 0;
#X connect 27 0 38 0;
#X connect 28 0 27 0;
#X connect 28 1 34 0;
#X connect 32 0 33 0;
#X connect 33 0 31 0;
#X connect 34 0 32 0;
#X connect 36 0 37 0;
#X connect 36 1 40 0;
#X connect 37 0 39 0;
#X connect 38 0 79 0;
#X connect 38 1 78 0;
#X connect 38 2 77 0;
#X connect 38 3 76 0;
#X connect 39 0 75 0;
#X connect 39 1 74 0;
#X connect 39 2 73 0;
#X connect 39 3 72 0;
#X connect 40 0 32 0;
#X connect 41 0 43 0;
#X connect 41 1 44 0;
#X connect 42 0 71 0;
#X connect 42 1 70 0;
#X connect 42 2 69 0;
#X connect 42 3 68 0;
#X connect 43 0 42 0;
#X connect 44 0 32 0;
#X connect 45 0 47 0;
#X connect 45 1 48 0;
#X connect 46 0 67 0;
#X connect 46 1 66 0;
#X connect 46 2 65 0;
#X connect 46 3 64 0;
#X connect 47 0 46 0;
#X connect 48 0 32 0;
#X connect 49 0 4 0;
#X connect 50 0 7 0;
#X connect 51 0 6 0;
#X connect 52 0 54 0;
#X connect 54 0 55 0;
#X connect 55 0 53 0;
#X connect 58 0 4 0;
#X connect 59 0 4 0;
#X connect 60 0 4 0;
#X connect 61 0 49 1;
#X connect 61 0 59 1;
#X connect 61 0 60 1;
#X connect 62 0 61 0;
#X connect 62 0 58 1;
#X connect 63 0 26 0;
#X connect 80 0 23 0;
#X connect 81 0 0 0;
#X connect 83 0 19 0;
#X coords 0 -1 1 1 190 112 2 100 100;
