#N canvas 0 23 1256 688 10;
#X obj 367 95 inlet~;
#X obj 109 184 hsl 128 15 0 127 0 1 \$0-channel-eq-mid-gain-s \$0-channel-eq-mid-gain-r
MID-GAIN:-10 133 7 0 10 -158136 -1 -1 0 1;
#X obj 109 219 hsl 128 15 0 127 0 1 \$0-channel-eq-low-gain-s \$0-channel-eq-low-gain-r
LOW-GAIN:-10 133 7 0 10 -158136 -1 -1 0 1;
#X obj 109 134 hsl 128 15 0 127 0 1 \$0-channel-eq-high-freq-s \$0-channel-eq-high-freq-r
HIGH-FREQ:3350 133 7 0 10 -262144 -1 -1 0 1;
#X obj 109 149 hsl 128 15 0 127 0 1 \$0-channel-eq-high-gain-s \$0-channel-eq-high-gain-r
HIGH-GAIN:-10 133 7 0 10 -158136 -1 -1 0 1;
#X obj 367 401 clip~ -1 1;
#X obj 367 432 outlet~;
#X obj 367 371 *~ 1;
#X obj 105 109 cnv 5 5 5 empty empty IN 0 0 0 8 -262144 -66577 0;
#X obj 105 123 cnv 5 5 5 empty empty CHANNEL-EQ 0 0 0 12 -262144 -66577
0;
#X obj 184 123 cnv 5 5 5 empty \$0-instance-num 2 0 0 0 12 -262144
-66577 0;
#N canvas 166 22 1067 752 state-saving-multiple-instances 0;
#X obj 138 28 loadbang;
#X obj 310 351 textfile;
#X obj 138 61 t b b;
#X msg 567 334 rewind;
#X msg 524 334 bang;
#X obj 42 691 textfile;
#X obj 524 295 t b b;
#X obj 43 357 f;
#X obj 56 580 f;
#X obj -19 403 t b b b;
#X msg 119 580 clear;
#X obj 204 217 outlet;
#X text 200 237 INSTANCE NUMBER;
#X obj 165 152 f \$1;
#X obj 165 188 t f f f;
#X obj -19 378 bng 15 250 50 0 empty empty empty 17 7 0 10 -262144
-1 -1;
#X obj -19 274 r SAVE-S;
#X msg 310 326 read statesave/\$1-channel-eq-ss.txt;
#X msg 55 651 write statesave/\$1-channel-eq-ss.txt;
#X obj 43 400 pack f f f f f f;
#X msg 43 438 set \$1 \$2 \$3 \$4 \$5 \$6;
#X obj 310 373 unpack f f f f f f;
#X obj 117 348 r \$0-channel-eq-low-freq-s;
#X obj 136 373 r \$0-channel-eq-low-gain-s;
#X obj 98 324 r \$0-channel-eq-mid-gain-s;
#X obj 80 299 r \$0-channel-eq-mid-freq-s;
#X obj 27 236 r \$0-channel-eq-high-freq-s;
#X obj 61 275 r \$0-channel-eq-high-gain-s;
#X obj 310 518 s \$0-channel-eq-high-freq-r;
#X obj 331 490 s \$0-channel-eq-high-gain-r;
#X obj 352 465 s \$0-channel-eq-mid-freq-r;
#X obj 373 439 s \$0-channel-eq-mid-gain-r;
#X obj 394 413 s \$0-channel-eq-low-freq-r;
#X obj 442 390 s \$0-channel-eq-low-gain-r;
#X connect 0 0 2 0;
#X connect 1 0 21 0;
#X connect 2 0 6 0;
#X connect 2 1 13 0;
#X connect 3 0 1 0;
#X connect 4 0 1 0;
#X connect 6 0 4 0;
#X connect 6 1 3 0;
#X connect 7 0 19 0;
#X connect 8 0 18 0;
#X connect 9 0 8 0;
#X connect 9 1 7 0;
#X connect 9 2 10 0;
#X connect 10 0 5 0;
#X connect 13 0 14 0;
#X connect 14 0 8 1;
#X connect 14 1 17 0;
#X connect 14 2 11 0;
#X connect 15 0 9 0;
#X connect 16 0 15 0;
#X connect 17 0 1 0;
#X connect 18 0 5 0;
#X connect 19 0 20 0;
#X connect 20 0 5 0;
#X connect 21 0 28 0;
#X connect 21 1 29 0;
#X connect 21 2 30 0;
#X connect 21 3 31 0;
#X connect 21 4 32 0;
#X connect 21 5 33 0;
#X connect 22 0 19 4;
#X connect 23 0 19 5;
#X connect 24 0 19 3;
#X connect 25 0 19 2;
#X connect 26 0 7 1;
#X connect 27 0 19 1;
#X restore 100 307 pd state-saving-multiple-instances;
#X obj 100 397 s \$0-instance-num;
#X obj 100 349 makefilename %d;
#X msg 100 374 label \$1;
#N canvas 81 22 1117 745 state-saving-via-preset-manager-module 0;
#X obj 496 252 textfile;
#X msg 774 235 rewind;
#X msg 731 235 bang;
#X obj 243 690 textfile;
#X obj 731 196 t b b;
#X obj 244 356 f;
#X obj 257 579 f;
#X obj 190 474 t b b b;
#X msg 373 621 clear;
#X obj 244 180 delay 5;
#X obj 190 529 delay 10;
#X msg 190 314 bang;
#X obj 190 155 r STORE-S!;
#X obj 496 153 f;
#X obj 469 110 t b b;
#X obj 484 74 t b f;
#X obj 541 171 f \$1;
#X obj 496 198 pack f f;
#X obj 541 121 loadbang;
#X obj 257 609 pack f f;
#X obj 302 562 loadbang;
#X obj 302 584 f \$1;
#X obj 484 51 r preset-manager-scan;
#X obj 272 540 r preset-manager-store-slot;
#X msg 256 650 write statesave/\$1-\$2-channel-eq-ss.txt;
#X msg 496 227 read statesave/\$1-\$2-channel-eq-ss.txt;
#X obj 244 423 pack f f f f f f;
#X msg 243 490 set \$1 \$2 \$3 \$4 \$5 \$6;
#X obj 328 349 r \$0-channel-eq-low-freq-s;
#X obj 351 371 r \$0-channel-eq-low-gain-s;
#X obj 313 324 r \$0-channel-eq-mid-gain-s;
#X obj 290 302 r \$0-channel-eq-mid-freq-s;
#X obj 259 258 r \$0-channel-eq-high-freq-s;
#X obj 267 280 r \$0-channel-eq-high-gain-s;
#X obj 496 274 unpack f f f f f f;
#X obj 496 725 s \$0-channel-eq-high-freq-r;
#X obj 517 674 s \$0-channel-eq-high-gain-r;
#N canvas 0 22 1069 747 morph-frequencies 0;
#X obj 176 94 inlet;
#X obj 176 236 pack f f;
#X obj 176 261 line;
#X obj 209 117 r preset-manager-morph-s;
#X msg 72 244 stop;
#X obj 72 214 r STOP-MORPH!;
#X obj 398 102 r frequencies-s;
#X obj 209 206 spigot;
#X obj 398 137 t f f;
#X obj 455 154 == 0;
#X obj 221 176 f;
#X floatatom 455 222 5 0 0 0 - - -, f 5;
#X obj 398 159 t b f;
#X floatatom 425 192 5 0 0 0 - - -, f 5;
#X obj 209 139 t f f;
#X obj 176 283 outlet;
#X connect 0 0 1 0;
#X connect 1 0 2 0;
#X connect 2 0 15 0;
#X connect 3 0 14 0;
#X connect 4 0 2 0;
#X connect 5 0 4 0;
#X connect 6 0 8 0;
#X connect 7 0 1 1;
#X connect 8 0 12 0;
#X connect 8 1 9 0;
#X connect 9 0 11 0;
#X connect 10 0 7 0;
#X connect 11 0 1 1;
#X connect 12 0 10 0;
#X connect 12 1 13 0;
#X connect 13 0 7 1;
#X connect 14 0 7 0;
#X connect 14 1 10 1;
#X restore 496 699 pd morph-frequencies;
#N canvas 0 22 1069 747 morph-attenuators 0;
#X obj 176 94 inlet;
#X obj 176 236 pack f f;
#X obj 176 261 line;
#X obj 209 117 r preset-manager-morph-s;
#X msg 72 244 stop;
#X obj 72 214 r STOP-MORPH!;
#X obj 209 206 spigot;
#X obj 398 137 t f f;
#X obj 455 154 == 0;
#X obj 221 176 f;
#X floatatom 455 222 5 0 0 0 - - -, f 5;
#X obj 398 159 t b f;
#X floatatom 425 192 5 0 0 0 - - -, f 5;
#X obj 209 139 t f f;
#X obj 398 102 r attenuators-s;
#X obj 176 288 outlet;
#X connect 0 0 1 0;
#X connect 1 0 2 0;
#X connect 2 0 15 0;
#X connect 3 0 13 0;
#X connect 4 0 2 0;
#X connect 5 0 4 0;
#X connect 6 0 1 1;
#X connect 7 0 11 0;
#X connect 7 1 8 0;
#X connect 8 0 10 0;
#X connect 9 0 6 0;
#X connect 10 0 1 1;
#X connect 11 0 9 0;
#X connect 11 1 12 0;
#X connect 12 0 6 1;
#X connect 13 0 6 0;
#X connect 13 1 9 1;
#X connect 14 0 7 0;
#X restore 517 648 pd morph-attenuators;
#N canvas 0 22 1069 747 morph-frequencies 0;
#X obj 176 94 inlet;
#X obj 176 236 pack f f;
#X obj 176 261 line;
#X obj 209 117 r preset-manager-morph-s;
#X msg 72 244 stop;
#X obj 72 214 r STOP-MORPH!;
#X obj 398 102 r frequencies-s;
#X obj 209 206 spigot;
#X obj 398 137 t f f;
#X obj 455 154 == 0;
#X obj 221 176 f;
#X floatatom 455 222 5 0 0 0 - - -, f 5;
#X obj 398 159 t b f;
#X floatatom 425 192 5 0 0 0 - - -, f 5;
#X obj 209 139 t f f;
#X obj 176 283 outlet;
#X connect 0 0 1 0;
#X connect 1 0 2 0;
#X connect 2 0 15 0;
#X connect 3 0 14 0;
#X connect 4 0 2 0;
#X connect 5 0 4 0;
#X connect 6 0 8 0;
#X connect 7 0 1 1;
#X connect 8 0 12 0;
#X connect 8 1 9 0;
#X connect 9 0 11 0;
#X connect 10 0 7 0;
#X connect 11 0 1 1;
#X connect 12 0 10 0;
#X connect 12 1 13 0;
#X connect 13 0 7 1;
#X connect 14 0 7 0;
#X connect 14 1 10 1;
#X restore 536 586 pd morph-frequencies;
#N canvas 0 22 1069 747 morph-attenuators 0;
#X obj 176 94 inlet;
#X obj 176 236 pack f f;
#X obj 176 261 line;
#X obj 209 117 r preset-manager-morph-s;
#X msg 72 244 stop;
#X obj 72 214 r STOP-MORPH!;
#X obj 209 206 spigot;
#X obj 398 137 t f f;
#X obj 455 154 == 0;
#X obj 221 176 f;
#X floatatom 455 222 5 0 0 0 - - -, f 5;
#X obj 398 159 t b f;
#X floatatom 425 192 5 0 0 0 - - -, f 5;
#X obj 209 139 t f f;
#X obj 398 102 r attenuators-s;
#X obj 176 288 outlet;
#X connect 0 0 1 0;
#X connect 1 0 2 0;
#X connect 2 0 15 0;
#X connect 3 0 13 0;
#X connect 4 0 2 0;
#X connect 5 0 4 0;
#X connect 6 0 1 1;
#X connect 7 0 11 0;
#X connect 7 1 8 0;
#X connect 8 0 10 0;
#X connect 9 0 6 0;
#X connect 10 0 1 1;
#X connect 11 0 9 0;
#X connect 11 1 12 0;
#X connect 12 0 6 1;
#X connect 13 0 6 0;
#X connect 13 1 9 1;
#X connect 14 0 7 0;
#X restore 557 535 pd morph-attenuators;
#X obj 536 612 s \$0-channel-eq-mid-freq-r;
#X obj 557 561 s \$0-channel-eq-mid-gain-r;
#N canvas 0 22 1069 747 morph-frequencies 0;
#X obj 176 94 inlet;
#X obj 176 236 pack f f;
#X obj 176 261 line;
#X obj 209 117 r preset-manager-morph-s;
#X msg 72 244 stop;
#X obj 72 214 r STOP-MORPH!;
#X obj 398 102 r frequencies-s;
#X obj 209 206 spigot;
#X obj 398 137 t f f;
#X obj 455 154 == 0;
#X obj 221 176 f;
#X floatatom 455 222 5 0 0 0 - - -, f 5;
#X obj 398 159 t b f;
#X floatatom 425 192 5 0 0 0 - - -, f 5;
#X obj 209 139 t f f;
#X obj 176 283 outlet;
#X connect 0 0 1 0;
#X connect 1 0 2 0;
#X connect 2 0 15 0;
#X connect 3 0 14 0;
#X connect 4 0 2 0;
#X connect 5 0 4 0;
#X connect 6 0 8 0;
#X connect 7 0 1 1;
#X connect 8 0 12 0;
#X connect 8 1 9 0;
#X connect 9 0 11 0;
#X connect 10 0 7 0;
#X connect 11 0 1 1;
#X connect 12 0 10 0;
#X connect 12 1 13 0;
#X connect 13 0 7 1;
#X connect 14 0 7 0;
#X connect 14 1 10 1;
#X restore 582 472 pd morph-frequencies;
#N canvas 0 22 1069 747 morph-attenuators 0;
#X obj 176 94 inlet;
#X obj 176 236 pack f f;
#X obj 176 261 line;
#X obj 209 117 r preset-manager-morph-s;
#X msg 72 244 stop;
#X obj 72 214 r STOP-MORPH!;
#X obj 209 206 spigot;
#X obj 398 137 t f f;
#X obj 455 154 == 0;
#X obj 221 176 f;
#X floatatom 455 222 5 0 0 0 - - -, f 5;
#X obj 398 159 t b f;
#X floatatom 425 192 5 0 0 0 - - -, f 5;
#X obj 209 139 t f f;
#X obj 398 102 r attenuators-s;
#X obj 176 288 outlet;
#X connect 0 0 1 0;
#X connect 1 0 2 0;
#X connect 2 0 15 0;
#X connect 3 0 13 0;
#X connect 4 0 2 0;
#X connect 5 0 4 0;
#X connect 6 0 1 1;
#X connect 7 0 11 0;
#X connect 7 1 8 0;
#X connect 8 0 10 0;
#X connect 9 0 6 0;
#X connect 10 0 1 1;
#X connect 11 0 9 0;
#X connect 11 1 12 0;
#X connect 12 0 6 1;
#X connect 13 0 6 0;
#X connect 13 1 9 1;
#X connect 14 0 7 0;
#X restore 603 421 pd morph-attenuators;
#X obj 582 498 s \$0-channel-eq-low-freq-r;
#X obj 603 447 s \$0-channel-eq-low-gain-r;
#X connect 0 0 34 0;
#X connect 1 0 0 0;
#X connect 2 0 0 0;
#X connect 4 0 2 0;
#X connect 4 1 1 0;
#X connect 5 0 26 0;
#X connect 6 0 19 0;
#X connect 7 0 10 0;
#X connect 7 1 9 0;
#X connect 7 2 8 0;
#X connect 8 0 3 0;
#X connect 9 0 5 0;
#X connect 10 0 6 0;
#X connect 11 0 7 0;
#X connect 12 0 11 0;
#X connect 13 0 17 0;
#X connect 14 0 4 0;
#X connect 14 1 13 0;
#X connect 15 0 14 0;
#X connect 15 1 13 1;
#X connect 16 0 17 1;
#X connect 17 0 25 0;
#X connect 18 0 16 0;
#X connect 19 0 24 0;
#X connect 20 0 21 0;
#X connect 21 0 19 1;
#X connect 22 0 15 0;
#X connect 23 0 6 1;
#X connect 24 0 3 0;
#X connect 25 0 0 0;
#X connect 26 0 27 0;
#X connect 27 0 3 0;
#X connect 28 0 26 4;
#X connect 29 0 26 5;
#X connect 30 0 26 3;
#X connect 31 0 26 2;
#X connect 32 0 5 1;
#X connect 33 0 26 1;
#X connect 34 0 37 0;
#X connect 34 1 38 0;
#X connect 34 2 39 0;
#X connect 34 3 40 0;
#X connect 34 4 43 0;
#X connect 34 5 44 0;
#X connect 37 0 35 0;
#X connect 38 0 36 0;
#X connect 39 0 41 0;
#X connect 40 0 42 0;
#X connect 43 0 45 0;
#X connect 44 0 46 0;
#X restore 102 284 pd state-saving-via-preset-manager-module;
#N canvas 501 110 856 446 parameter-nudging-system 0;
#X obj 42 206 clip 0 127;
#X obj 214 208 clip 0 127;
#X obj 42 161 r \$0-channel-eq-mid-freq-s;
#X obj 42 234 s \$0-channel-eq-mid-freq-r;
#X obj 214 161 r \$0-channel-eq-mid-gain-s;
#X obj 214 234 s \$0-channel-eq-mid-gain-r;
#N canvas 0 22 484 497 nudge-attenuators 0;
#X obj 124 234 random;
#X obj 232 335 f;
#X obj 232 368 +;
#X obj 257 166 random 2;
#X obj 124 275 t f f;
#X obj 124 351 t b f;
#X obj 124 297 *;
#X obj 257 188 sel 0 1;
#X msg 257 280 -1;
#X msg 335 280 1;
#X obj 124 149 t b b b;
#X obj 124 71 r NUDGE!;
#X obj 157 193 r NUDGE-RANGE;
#X obj 247 308 inlet;
#X obj 232 397 outlet;
#X obj 124 93 spigot;
#X obj 201 76 r attenuators2-s;
#X connect 0 0 4 0;
#X connect 1 0 2 0;
#X connect 2 0 14 0;
#X connect 3 0 7 0;
#X connect 4 0 6 0;
#X connect 5 0 2 0;
#X connect 5 1 2 1;
#X connect 6 0 5 0;
#X connect 7 0 8 0;
#X connect 7 1 9 0;
#X connect 8 0 6 1;
#X connect 9 0 6 1;
#X connect 10 0 0 0;
#X connect 10 1 1 0;
#X connect 10 2 3 0;
#X connect 11 0 15 0;
#X connect 12 0 0 1;
#X connect 13 0 1 1;
#X connect 15 0 10 0;
#X connect 16 0 15 1;
#X restore 214 184 pd nudge-attenuators;
#N canvas 0 22 484 497 nudge-frequencies 0;
#X obj 124 234 random;
#X obj 232 335 f;
#X obj 232 368 +;
#X obj 257 166 random 2;
#X obj 124 275 t f f;
#X obj 124 351 t b f;
#X obj 124 297 *;
#X obj 257 188 sel 0 1;
#X msg 257 280 -1;
#X msg 335 280 1;
#X obj 124 149 t b b b;
#X obj 124 74 r NUDGE!;
#X obj 157 193 r NUDGE-RANGE;
#X obj 247 308 inlet;
#X obj 232 397 outlet;
#X obj 124 96 spigot;
#X obj 185 79 r frequencies2-s;
#X connect 0 0 4 0;
#X connect 1 0 2 0;
#X connect 2 0 14 0;
#X connect 3 0 7 0;
#X connect 4 0 6 0;
#X connect 5 0 2 0;
#X connect 5 1 2 1;
#X connect 6 0 5 0;
#X connect 7 0 8 0;
#X connect 7 1 9 0;
#X connect 8 0 6 1;
#X connect 9 0 6 1;
#X connect 10 0 0 0;
#X connect 10 1 1 0;
#X connect 10 2 3 0;
#X connect 11 0 15 0;
#X connect 12 0 0 1;
#X connect 13 0 1 1;
#X connect 15 0 10 0;
#X connect 16 0 15 1;
#X restore 42 183 pd nudge-frequencies;
#X obj 40 99 clip 0 127;
#X obj 212 101 clip 0 127;
#N canvas 0 22 484 497 nudge-attenuators 0;
#X obj 124 234 random;
#X obj 232 335 f;
#X obj 232 368 +;
#X obj 257 166 random 2;
#X obj 124 275 t f f;
#X obj 124 351 t b f;
#X obj 124 297 *;
#X obj 257 188 sel 0 1;
#X msg 257 280 -1;
#X msg 335 280 1;
#X obj 124 149 t b b b;
#X obj 124 71 r NUDGE!;
#X obj 157 193 r NUDGE-RANGE;
#X obj 247 308 inlet;
#X obj 232 397 outlet;
#X obj 124 93 spigot;
#X obj 201 76 r attenuators2-s;
#X connect 0 0 4 0;
#X connect 1 0 2 0;
#X connect 2 0 14 0;
#X connect 3 0 7 0;
#X connect 4 0 6 0;
#X connect 5 0 2 0;
#X connect 5 1 2 1;
#X connect 6 0 5 0;
#X connect 7 0 8 0;
#X connect 7 1 9 0;
#X connect 8 0 6 1;
#X connect 9 0 6 1;
#X connect 10 0 0 0;
#X connect 10 1 1 0;
#X connect 10 2 3 0;
#X connect 11 0 15 0;
#X connect 12 0 0 1;
#X connect 13 0 1 1;
#X connect 15 0 10 0;
#X connect 16 0 15 1;
#X restore 212 77 pd nudge-attenuators;
#N canvas 0 22 484 497 nudge-frequencies 0;
#X obj 124 234 random;
#X obj 232 335 f;
#X obj 232 368 +;
#X obj 257 166 random 2;
#X obj 124 275 t f f;
#X obj 124 351 t b f;
#X obj 124 297 *;
#X obj 257 188 sel 0 1;
#X msg 257 280 -1;
#X msg 335 280 1;
#X obj 124 149 t b b b;
#X obj 124 74 r NUDGE!;
#X obj 157 193 r NUDGE-RANGE;
#X obj 247 308 inlet;
#X obj 232 397 outlet;
#X obj 124 96 spigot;
#X obj 185 79 r frequencies2-s;
#X connect 0 0 4 0;
#X connect 1 0 2 0;
#X connect 2 0 14 0;
#X connect 3 0 7 0;
#X connect 4 0 6 0;
#X connect 5 0 2 0;
#X connect 5 1 2 1;
#X connect 6 0 5 0;
#X connect 7 0 8 0;
#X connect 7 1 9 0;
#X connect 8 0 6 1;
#X connect 9 0 6 1;
#X connect 10 0 0 0;
#X connect 10 1 1 0;
#X connect 10 2 3 0;
#X connect 11 0 15 0;
#X connect 12 0 0 1;
#X connect 13 0 1 1;
#X connect 15 0 10 0;
#X connect 16 0 15 1;
#X restore 40 76 pd nudge-frequencies;
#X obj 40 54 r \$0-channel-eq-high-freq-s;
#X obj 40 127 s \$0-channel-eq-high-freq-r;
#X obj 212 54 r \$0-channel-eq-high-gain-s;
#X obj 212 127 s \$0-channel-eq-high-gain-r;
#X obj 42 311 clip 0 127;
#X obj 214 313 clip 0 127;
#N canvas 0 22 484 497 nudge-attenuators 0;
#X obj 124 234 random;
#X obj 232 335 f;
#X obj 232 368 +;
#X obj 257 166 random 2;
#X obj 124 275 t f f;
#X obj 124 351 t b f;
#X obj 124 297 *;
#X obj 257 188 sel 0 1;
#X msg 257 280 -1;
#X msg 335 280 1;
#X obj 124 149 t b b b;
#X obj 124 71 r NUDGE!;
#X obj 157 193 r NUDGE-RANGE;
#X obj 247 308 inlet;
#X obj 232 397 outlet;
#X obj 124 93 spigot;
#X obj 201 76 r attenuators2-s;
#X connect 0 0 4 0;
#X connect 1 0 2 0;
#X connect 2 0 14 0;
#X connect 3 0 7 0;
#X connect 4 0 6 0;
#X connect 5 0 2 0;
#X connect 5 1 2 1;
#X connect 6 0 5 0;
#X connect 7 0 8 0;
#X connect 7 1 9 0;
#X connect 8 0 6 1;
#X connect 9 0 6 1;
#X connect 10 0 0 0;
#X connect 10 1 1 0;
#X connect 10 2 3 0;
#X connect 11 0 15 0;
#X connect 12 0 0 1;
#X connect 13 0 1 1;
#X connect 15 0 10 0;
#X connect 16 0 15 1;
#X restore 214 289 pd nudge-attenuators;
#N canvas 0 22 484 497 nudge-frequencies 0;
#X obj 124 234 random;
#X obj 232 335 f;
#X obj 232 368 +;
#X obj 257 166 random 2;
#X obj 124 275 t f f;
#X obj 124 351 t b f;
#X obj 124 297 *;
#X obj 257 188 sel 0 1;
#X msg 257 280 -1;
#X msg 335 280 1;
#X obj 124 149 t b b b;
#X obj 124 74 r NUDGE!;
#X obj 157 193 r NUDGE-RANGE;
#X obj 247 308 inlet;
#X obj 232 397 outlet;
#X obj 124 96 spigot;
#X obj 185 79 r frequencies2-s;
#X connect 0 0 4 0;
#X connect 1 0 2 0;
#X connect 2 0 14 0;
#X connect 3 0 7 0;
#X connect 4 0 6 0;
#X connect 5 0 2 0;
#X connect 5 1 2 1;
#X connect 6 0 5 0;
#X connect 7 0 8 0;
#X connect 7 1 9 0;
#X connect 8 0 6 1;
#X connect 9 0 6 1;
#X connect 10 0 0 0;
#X connect 10 1 1 0;
#X connect 10 2 3 0;
#X connect 11 0 15 0;
#X connect 12 0 0 1;
#X connect 13 0 1 1;
#X connect 15 0 10 0;
#X connect 16 0 15 1;
#X restore 42 288 pd nudge-frequencies;
#X obj 42 266 r \$0-channel-eq-low-freq-s;
#X obj 42 339 s \$0-channel-eq-low-freq-r;
#X obj 214 266 r \$0-channel-eq-low-gain-s;
#X obj 214 339 s \$0-channel-eq-low-gain-r;
#X connect 0 0 3 0;
#X connect 1 0 5 0;
#X connect 2 0 7 0;
#X connect 4 0 6 0;
#X connect 6 0 1 0;
#X connect 7 0 0 0;
#X connect 8 0 13 0;
#X connect 9 0 15 0;
#X connect 10 0 9 0;
#X connect 11 0 8 0;
#X connect 12 0 11 0;
#X connect 14 0 10 0;
#X connect 16 0 21 0;
#X connect 17 0 23 0;
#X connect 18 0 17 0;
#X connect 19 0 16 0;
#X connect 20 0 19 0;
#X connect 22 0 18 0;
#X restore 102 258 pd parameter-nudging-system;
#N canvas 0 22 858 752 mid 0;
#X obj 126 21 inlet~;
#X obj 126 544 outlet~;
#X obj 142 53 r \$0-channel-eq-mid-freq-s;
#X obj 142 75 / 127;
#X obj 142 119 + 150;
#X floatatom 142 141 5 0 0 0 - - -, f 5;
#X obj 142 97 * 3350;
#X obj 142 214 pack 0 50;
#X obj 142 240 line~;
#X obj 126 493 *~;
#X floatatom 409 104 5 0 0 0 - - -, f 5;
#X floatatom 466 106 5 0 0 0 - - -, f 5;
#X obj 409 53 moses 63.5;
#X obj 466 84 / 63.5;
#X obj 409 82 / 63.5;
#X obj 466 125 * 10;
#X floatatom 466 147 5 0 0 0 - - -, f 5;
#X obj 466 166 - 10;
#X floatatom 466 188 5 0 0 0 - - -, f 5;
#X obj 466 289 pack 0 50;
#X obj 466 220 spigot;
#X obj 409 14 t f f;
#X obj 534 31 > 63.5;
#X floatatom 534 57 5 0 0 0 - - -, f 5;
#X obj 534 76 t f f;
#X obj 408 253 spigot;
#X obj 561 236 == 0;
#X obj 586 13 / 127;
#X obj 586 35 * 20;
#X obj 586 57 - 10;
#X obj 586 79 i;
#X floatatom 586 101 5 0 0 0 - - -, f 5;
#X obj 409 -8 r \$0-channel-eq-mid-gain-s;
#X obj 586 -9 r \$0-channel-eq-mid-gain-s;
#X obj 466 476 line~;
#X obj 227 177 i;
#X obj 142 160 t f f;
#X msg 227 199 label MID-FREQ:\$1;
#X obj 227 221 s \$0-channel-eq-mid-freq-r;
#X obj 586 146 s \$0-channel-eq-mid-gain-r;
#X obj 126 265 vcf~ 3;
#X obj 126 287 vcf~ 3;
#X obj 126 311 vcf~ 3;
#X obj 126 333 vcf~ 3;
#X msg 586 124 label MID-GAIN:\$1;
#X connect 0 0 40 0;
#X connect 2 0 3 0;
#X connect 3 0 6 0;
#X connect 4 0 5 0;
#X connect 5 0 36 0;
#X connect 6 0 4 0;
#X connect 7 0 8 0;
#X connect 8 0 40 1;
#X connect 8 0 41 1;
#X connect 8 0 42 1;
#X connect 8 0 43 1;
#X connect 9 0 1 0;
#X connect 10 0 25 0;
#X connect 11 0 15 0;
#X connect 12 0 14 0;
#X connect 12 1 13 0;
#X connect 13 0 11 0;
#X connect 14 0 10 0;
#X connect 15 0 16 0;
#X connect 16 0 17 0;
#X connect 17 0 18 0;
#X connect 18 0 20 0;
#X connect 19 0 34 0;
#X connect 20 0 19 0;
#X connect 21 0 12 0;
#X connect 21 1 22 0;
#X connect 22 0 23 0;
#X connect 23 0 24 0;
#X connect 24 0 20 1;
#X connect 24 1 26 0;
#X connect 25 0 19 0;
#X connect 26 0 25 1;
#X connect 27 0 28 0;
#X connect 28 0 29 0;
#X connect 29 0 30 0;
#X connect 30 0 31 0;
#X connect 31 0 44 0;
#X connect 32 0 21 0;
#X connect 33 0 27 0;
#X connect 34 0 9 1;
#X connect 35 0 37 0;
#X connect 36 0 7 0;
#X connect 36 1 35 0;
#X connect 37 0 38 0;
#X connect 40 0 41 0;
#X connect 41 0 42 0;
#X connect 42 0 43 0;
#X connect 43 0 9 0;
#X connect 44 0 39 0;
#X restore 420 252 pd mid;
#N canvas 0 22 858 752 high 0;
#X obj 126 21 inlet~;
#X obj 126 544 outlet~;
#X obj 142 75 / 127;
#X floatatom 142 141 5 0 0 0 - - -, f 5;
#X obj 142 214 pack 0 50;
#X obj 142 240 line~;
#X obj 126 493 *~;
#X floatatom 409 104 5 0 0 0 - - -, f 5;
#X floatatom 466 106 5 0 0 0 - - -, f 5;
#X obj 409 53 moses 63.5;
#X obj 466 84 / 63.5;
#X obj 409 82 / 63.5;
#X obj 466 125 * 10;
#X floatatom 466 147 5 0 0 0 - - -, f 5;
#X obj 466 166 - 10;
#X floatatom 466 188 5 0 0 0 - - -, f 5;
#X obj 466 289 pack 0 50;
#X obj 466 220 spigot;
#X obj 409 14 t f f;
#X obj 534 31 > 63.5;
#X floatatom 534 57 5 0 0 0 - - -, f 5;
#X obj 534 76 t f f;
#X obj 408 253 spigot;
#X obj 561 236 == 0;
#X obj 586 13 / 127;
#X obj 586 35 * 20;
#X obj 586 57 - 10;
#X obj 586 79 i;
#X floatatom 586 101 5 0 0 0 - - -, f 5;
#X obj 466 476 line~;
#X obj 227 177 i;
#X obj 142 160 t f f;
#X obj 126 265 vcf~ 3;
#X obj 126 287 vcf~ 3;
#X obj 126 311 vcf~ 3;
#X obj 126 333 vcf~ 3;
#X obj 227 221 s \$0-channel-eq-high-freq-r;
#X obj 586 146 s \$0-channel-eq-high-gain-r;
#X obj 586 -9 r \$0-channel-eq-high-gain-s;
#X obj 409 -8 r \$0-channel-eq-high-gain-s;
#X obj 142 53 r \$0-channel-eq-high-freq-s;
#X obj 142 119 + 3350;
#X msg 227 199 label HIGH-FREQ:\$1;
#X msg 586 124 label HIGH-GAIN:\$1;
#X obj 142 97 * 6649;
#X connect 0 0 32 0;
#X connect 2 0 44 0;
#X connect 3 0 31 0;
#X connect 4 0 5 0;
#X connect 5 0 32 1;
#X connect 5 0 33 1;
#X connect 5 0 34 1;
#X connect 5 0 35 1;
#X connect 6 0 1 0;
#X connect 7 0 22 0;
#X connect 8 0 12 0;
#X connect 9 0 11 0;
#X connect 9 1 10 0;
#X connect 10 0 8 0;
#X connect 11 0 7 0;
#X connect 12 0 13 0;
#X connect 13 0 14 0;
#X connect 14 0 15 0;
#X connect 15 0 17 0;
#X connect 16 0 29 0;
#X connect 17 0 16 0;
#X connect 18 0 9 0;
#X connect 18 1 19 0;
#X connect 19 0 20 0;
#X connect 20 0 21 0;
#X connect 21 0 17 1;
#X connect 21 1 23 0;
#X connect 22 0 16 0;
#X connect 23 0 22 1;
#X connect 24 0 25 0;
#X connect 25 0 26 0;
#X connect 26 0 27 0;
#X connect 27 0 28 0;
#X connect 28 0 43 0;
#X connect 29 0 6 1;
#X connect 30 0 42 0;
#X connect 31 0 4 0;
#X connect 31 1 30 0;
#X connect 32 0 33 0;
#X connect 33 0 34 0;
#X connect 34 0 35 0;
#X connect 35 0 6 0;
#X connect 38 0 24 0;
#X connect 39 0 18 0;
#X connect 40 0 2 0;
#X connect 41 0 3 0;
#X connect 42 0 36 0;
#X connect 43 0 37 0;
#X connect 44 0 41 0;
#X restore 474 252 pd high;
#X obj 109 204 hsl 128 15 0 127 0 1 \$0-channel-eq-low-freq-s \$0-channel-eq-low-freq-r
LOW-FREQ:30 133 7 0 10 -262144 -1 -1 0 1;
#X obj 109 169 hsl 128 15 0 127 0 1 \$0-channel-eq-mid-freq-s \$0-channel-eq-mid-freq-r
MID-FREQ:150 133 7 0 10 -262144 -1 -1 0 1;
#N canvas 0 22 858 752 low 0;
#X obj 126 21 inlet~;
#X obj 126 544 outlet~;
#X obj 142 75 / 127;
#X floatatom 142 141 5 0 0 0 - - -, f 5;
#X obj 142 214 pack 0 50;
#X obj 142 240 line~;
#X obj 126 493 *~;
#X floatatom 409 104 5 0 0 0 - - -, f 5;
#X floatatom 466 106 5 0 0 0 - - -, f 5;
#X obj 409 53 moses 63.5;
#X obj 466 84 / 63.5;
#X obj 409 82 / 63.5;
#X obj 466 125 * 10;
#X floatatom 466 147 5 0 0 0 - - -, f 5;
#X obj 466 166 - 10;
#X floatatom 466 188 5 0 0 0 - - -, f 5;
#X obj 466 289 pack 0 50;
#X obj 466 220 spigot;
#X obj 409 14 t f f;
#X obj 534 31 > 63.5;
#X floatatom 534 57 5 0 0 0 - - -, f 5;
#X obj 534 76 t f f;
#X obj 408 253 spigot;
#X obj 561 236 == 0;
#X obj 586 13 / 127;
#X obj 586 35 * 20;
#X obj 586 57 - 10;
#X obj 586 79 i;
#X floatatom 586 101 5 0 0 0 - - -, f 5;
#X obj 466 476 line~;
#X obj 227 177 i;
#X obj 142 160 t f f;
#X obj 126 265 vcf~ 3;
#X obj 126 287 vcf~ 3;
#X obj 126 311 vcf~ 3;
#X obj 126 333 vcf~ 3;
#X obj 142 53 r \$0-channel-eq-low-freq-s;
#X msg 227 199 label LOW-FREQ:\$1;
#X obj 227 221 s \$0-channel-eq-low-freq-r;
#X obj 409 -8 r \$0-channel-eq-low-gain-s;
#X obj 586 -9 r \$0-channel-eq-low-gain-s;
#X obj 586 146 s \$0-channel-eq-low-gain-r;
#X msg 586 124 label LOW-GAIN:\$1;
#X obj 142 97 * 120;
#X obj 142 119 + 30;
#X connect 0 0 32 0;
#X connect 2 0 43 0;
#X connect 3 0 31 0;
#X connect 4 0 5 0;
#X connect 5 0 32 1;
#X connect 5 0 33 1;
#X connect 5 0 34 1;
#X connect 5 0 35 1;
#X connect 6 0 1 0;
#X connect 7 0 22 0;
#X connect 8 0 12 0;
#X connect 9 0 11 0;
#X connect 9 1 10 0;
#X connect 10 0 8 0;
#X connect 11 0 7 0;
#X connect 12 0 13 0;
#X connect 13 0 14 0;
#X connect 14 0 15 0;
#X connect 15 0 17 0;
#X connect 16 0 29 0;
#X connect 17 0 16 0;
#X connect 18 0 9 0;
#X connect 18 1 19 0;
#X connect 19 0 20 0;
#X connect 20 0 21 0;
#X connect 21 0 17 1;
#X connect 21 1 23 0;
#X connect 22 0 16 0;
#X connect 23 0 22 1;
#X connect 24 0 25 0;
#X connect 25 0 26 0;
#X connect 26 0 27 0;
#X connect 27 0 28 0;
#X connect 28 0 42 0;
#X connect 29 0 6 1;
#X connect 30 0 37 0;
#X connect 31 0 4 0;
#X connect 31 1 30 0;
#X connect 32 0 33 0;
#X connect 33 0 34 0;
#X connect 34 0 35 0;
#X connect 35 0 6 0;
#X connect 36 0 2 0;
#X connect 37 0 38 0;
#X connect 39 0 18 0;
#X connect 40 0 24 0;
#X connect 42 0 41 0;
#X connect 43 0 44 0;
#X connect 44 0 3 0;
#X restore 367 252 pd low;
#N canvas 632 73 749 752 external-messages 0;
#X floatatom 44 706 5 0 0 0 - - -, f 5;
#X obj 43 328 spigot;
#X obj 76 288 tgl 15 0 empty empty empty 17 7 0 10 -262144 -1 -1 0
1;
#X obj 112 272 ==;
#X obj 127 248 f \$1;
#X obj 127 224 loadbang;
#X msg 43 202 \$1 \$2;
#X msg 43 156 symbol \$1;
#X obj 43 180 pack s f;
#X obj 44 685 f;
#X obj 44 633 t b f;
#X obj 44 656 spigot;
#X obj 43 62 unpack s f f;
#X symbolatom 43 94 10 0 0 0 - - -, f 10;
#X obj 76 308 t f f;
#X obj 103 332 s \$0-msg-spigot;
#X obj 92 640 r \$0-msg-spigot;
#X floatatom 81 594 5 0 0 0 - - -, f 5;
#X obj 81 573 f;
#X obj 81 521 t b f;
#X obj 81 544 spigot;
#X obj 129 528 r \$0-msg-spigot;
#X floatatom 243 709 5 0 0 0 - - -, f 5;
#X obj 243 688 f;
#X obj 243 636 t b f;
#X obj 243 659 spigot;
#X obj 291 643 r \$0-msg-spigot;
#X floatatom 283 587 5 0 0 0 - - -, f 5;
#X obj 283 566 f;
#X obj 283 514 t b f;
#X obj 283 537 spigot;
#X obj 331 521 r \$0-msg-spigot;
#X floatatom 453 674 5 0 0 0 - - -, f 5;
#X obj 453 653 f;
#X obj 453 601 t b f;
#X obj 453 624 spigot;
#X obj 501 608 r \$0-msg-spigot;
#X obj 43 13 r channel-eq;
#X obj 42 380 route HIGH-FREQ HIGH-GAIN MID-FREQ MID-GAIN LOW-FREQ
LOW-GAIN;
#X floatatom 468 516 5 0 0 0 - - -, f 5;
#X obj 468 495 f;
#X obj 468 443 t b f;
#X obj 468 466 spigot;
#X obj 516 450 r \$0-msg-spigot;
#X obj 44 726 s \$0-channel-eq-high-freq-r;
#X obj 81 614 s \$0-channel-eq-high-gain-r;
#X obj 243 729 s \$0-channel-eq-mid-freq-r;
#X obj 283 607 s \$0-channel-eq-mid-gain-r;
#X obj 453 694 s \$0-channel-eq-low-freq-r;
#X obj 468 536 s \$0-channel-eq-low-gain-r;
#X connect 0 0 44 0;
#X connect 1 0 38 0;
#X connect 2 0 14 0;
#X connect 3 0 2 0;
#X connect 4 0 3 1;
#X connect 5 0 4 0;
#X connect 6 0 1 0;
#X connect 7 0 8 0;
#X connect 8 0 6 0;
#X connect 9 0 0 0;
#X connect 10 0 11 0;
#X connect 10 1 9 1;
#X connect 11 0 9 0;
#X connect 12 0 13 0;
#X connect 12 1 8 1;
#X connect 12 2 3 0;
#X connect 13 0 7 0;
#X connect 14 0 1 1;
#X connect 14 1 15 0;
#X connect 16 0 11 1;
#X connect 17 0 45 0;
#X connect 18 0 17 0;
#X connect 19 0 20 0;
#X connect 19 1 18 1;
#X connect 20 0 18 0;
#X connect 21 0 20 1;
#X connect 22 0 46 0;
#X connect 23 0 22 0;
#X connect 24 0 25 0;
#X connect 24 1 23 1;
#X connect 25 0 23 0;
#X connect 26 0 25 1;
#X connect 27 0 47 0;
#X connect 28 0 27 0;
#X connect 29 0 30 0;
#X connect 29 1 28 1;
#X connect 30 0 28 0;
#X connect 31 0 30 1;
#X connect 32 0 48 0;
#X connect 33 0 32 0;
#X connect 34 0 35 0;
#X connect 34 1 33 1;
#X connect 35 0 33 0;
#X connect 36 0 35 1;
#X connect 37 0 12 0;
#X connect 38 0 10 0;
#X connect 38 1 19 0;
#X connect 38 2 24 0;
#X connect 38 3 29 0;
#X connect 38 4 34 0;
#X connect 38 5 41 0;
#X connect 39 0 49 0;
#X connect 40 0 39 0;
#X connect 41 0 42 0;
#X connect 41 1 40 1;
#X connect 42 0 40 0;
#X connect 43 0 42 1;
#X restore 101 423 pd external-messages;
#X connect 0 0 17 0;
#X connect 0 0 18 0;
#X connect 0 0 21 0;
#X connect 5 0 6 0;
#X connect 7 0 5 0;
#X connect 11 0 13 0;
#X connect 13 0 14 0;
#X connect 14 0 12 0;
#X connect 17 0 7 0;
#X connect 18 0 7 0;
#X connect 21 0 7 0;
#X coords 0 -1 1 1 230 140 2 100 100;
