#N canvas 0 23 1209 696 10;
#N canvas 21 22 593 735 state-saving-multiple-instances 0;
#X obj 215 28 loadbang;
#X obj 261 480 reloaded/textfile \$0;
#X msg 518 463 rewind;
#X msg 475 463 bang;
#X obj 119 690 reloaded/textfile \$0;
#X obj 475 424 t b b;
#X obj 120 356 f;
#X obj 133 579 f;
#X obj 66 422 t b b b;
#X msg 196 579 clear;
#X obj 281 216 outlet;
#X text 277 236 INSTANCE NUMBER;
#X obj 242 92 f \$1;
#X obj 242 128 t f f f;
#X obj 215 61 t b b;
#X obj 66 331 bng 15 250 50 0 empty empty empty 17 7 0 10 #fcfcfc #000000 #000000;
#X obj 66 235 r SAVE-S;
#X obj 120 399 pack f f;
#X msg 120 438 set \$1 \$2;
#X obj 261 502 unpack f f;
#X obj 135 308 r \$0-chorus-rate-s;
#X obj 165 355 r \$0-chorus-depth-s;
#X msg 132 650 write statesave/\$1-chorus-ss.txt;
#X obj 261 604 s \$0-chorus-rate-r;
#X obj 318 530 s \$0-chorus-depth-r;
#X msg 261 455 read statesave/\$1-chorus-ss.txt;
#X connect 0 0 14 0;
#X connect 1 0 19 0;
#X connect 2 0 1 0;
#X connect 3 0 1 0;
#X connect 5 0 3 0;
#X connect 5 1 2 0;
#X connect 6 0 17 0;
#X connect 7 0 22 0;
#X connect 8 0 7 0;
#X connect 8 1 6 0;
#X connect 8 2 9 0;
#X connect 9 0 4 0;
#X connect 12 0 13 0;
#X connect 13 0 7 1;
#X connect 13 1 25 0;
#X connect 13 2 10 0;
#X connect 14 0 5 0;
#X connect 14 1 12 0;
#X connect 15 0 8 0;
#X connect 16 0 15 0;
#X connect 17 0 18 0;
#X connect 18 0 4 0;
#X connect 19 0 23 0;
#X connect 19 1 24 0;
#X connect 20 0 6 1;
#X connect 21 0 17 1;
#X connect 22 0 4 0;
#X connect 25 0 1 0;
#X restore 57 306 pd state-saving-multiple-instances;
#X obj 321 19 inlet~;
#X obj 321 358 phasor~;
#X obj 321 380 +~;
#X obj 321 402 cos~;
#X obj 321 424 +~ 1;
#X obj 321 446 *~ 0.5;
#X obj 321 311 mtof~;
#X obj 321 653 outlet~;
#X obj 390 279 / 127;
#X obj 390 343 pack f 50;
#X obj 390 402 line~;
#X obj 321 468 *~;
#X obj 746 360 phasor~;
#X obj 746 404 cos~;
#X obj 746 426 +~ 1;
#X obj 746 448 *~ 0.5;
#X obj 746 470 *~;
#X obj 746 329 mtof~;
#X obj 746 382 +~ 0.25;
#X obj 811 279 / 127;
#X obj 811 376 pack f 50;
#X obj 811 404 line~;
#X obj 458 354 phasor~;
#X obj 458 398 cos~;
#X obj 458 420 +~ 1;
#X obj 458 442 *~ 0.5;
#X obj 458 307 mtof~;
#X obj 746 653 outlet~;
#X obj 527 279 / 127;
#X obj 527 339 pack f 50;
#X obj 527 398 line~;
#X obj 458 464 *~;
#X obj 610 351 phasor~;
#X obj 610 395 cos~;
#X obj 610 417 +~ 1;
#X obj 610 439 *~ 0.5;
#X obj 610 461 *~;
#X obj 610 320 mtof~;
#X obj 675 279 / 127;
#X obj 675 367 pack f 50;
#X obj 675 395 line~;
#X obj 458 376 +~ 0.5;
#X obj 610 373 +~ 0.75;
#X obj 321 140 / 127;
#X obj 458 131 / 127;
#X obj 610 131 / 127;
#X obj 746 131 / 127;
#X obj 390 321 * 5;
#X obj 527 317 * 5;
#X obj 675 345 * 5;
#X obj 811 354 * 5;
#X obj 321 490 vd~ \$0-pe-chorus;
#X obj 458 583 vd~ \$0-pe-chorus;
#X obj 610 544 vd~ \$0-pe-chorus;
#X obj 746 492 vd~ \$0-pe-chorus;
#X obj 321 41 delwrite~ \$0-pe-chorus 100;
#X obj 106 128 hsl 128 15 0 127 0 1 \$0-chorus-rate-s \$0-chorus-rate-r RATE 133 7 0 10 #fcfcfc #000000 #000000 0 1;
#X obj 106 143 hsl 128 15 0 127 0 1 \$0-chorus-depth-s \$0-chorus-depth-r DEPTH 133 7 0 10 #fcfcfc #000000 #000000 0 1;
#X obj 321 114 t f f f f;
#X obj 965 207 t f f f f;
#X obj 321 561 *~ 0.5;
#X obj 746 600 *~ 0.5;
#X obj 321 597 +~;
#X obj 746 625 +~;
#X obj 321 184 - 64;
#X obj 458 187 - 64;
#X obj 610 181 - 64;
#X obj 746 186 - 64;
#X obj 321 162 * 96;
#X obj 458 165 * 96;
#X obj 610 159 * 96;
#X obj 746 164 * 96;
#X obj 321 206 sig~;
#X obj 458 209 sig~;
#X obj 610 203 sig~;
#X obj 746 208 sig~;
#X obj 321 242 +~;
#X obj 458 242 +~;
#X obj 610 242 +~;
#X obj 746 242 +~;
#X obj 518 20 inlet~;
#X text 495 0 RATE CV IN;
#X text 258 18 SIGNAL IN;
#X obj 390 451 +~;
#X obj 527 447 +~;
#X obj 675 444 +~;
#X obj 811 453 +~;
#X obj 792 177 inlet~;
#X text 790 158 DEPTH CV IN;
#X obj 792 200 *~ 5;
#X obj 103 120 cnv 5 5 5 empty empty CHORUS 0 0 0 12 #fcfcfc #404040 0;
#X obj 104 167 cnv 5 5 5 empty empty LEFT 0 0 0 8 #fcfcfc #404040 0;
#X obj 179 109 cnv 5 5 5 empty empty RATE 0 0 0 8 #fcfcfc #404040 0;
#X obj 104 109 cnv 5 5 5 empty empty IN 0 0 0 8 #fcfcfc #404040 0;
#X obj 247 108 cnv 5 5 5 empty empty DEPTH 0 0 0 8 #fcfcfc #404040 0;
#X obj 245 167 cnv 5 5 5 empty empty RIGHT 0 0 0 8 #fcfcfc #404040 0;
#X obj 518 42 *~ 96;
#X obj 57 380 s \$0-instance-num;
#X obj 57 332 makefilename %d;
#X obj 150 120 cnv 5 5 5 empty \$0-instance-num 0 0 0 0 12 #fcfcfc #404040 0;
#X msg 57 357 label \$1;
#N canvas 225 22 1117 745 state-saving-via-preset-manager-module 0;
#X obj 477 349 reloaded/textfile \$0;
#X msg 734 332 rewind;
#X msg 691 332 bang;
#X obj 243 690 reloaded/textfile \$0;
#X obj 691 293 t b b;
#X obj 244 356 f;
#X obj 257 579 f;
#X obj 190 422 t b b b;
#X msg 320 579 clear;
#X obj 244 399 pack f f;
#X msg 244 438 set \$1 \$2;
#X obj 477 371 unpack f f;
#X floatatom 325 391 5 0 0 0 - - - 0;
#X obj 244 264 delay 5;
#X obj 190 484 delay 10;
#X msg 190 314 bang;
#X obj 190 147 r STORE-S!;
#X obj 477 250 f;
#X obj 450 227 t b b;
#X obj 465 171 t b f;
#X obj 522 268 f \$1;
#X obj 477 295 pack f f;
#X obj 522 218 loadbang;
#X obj 257 609 pack f f;
#X obj 302 467 loadbang;
#X obj 302 489 f \$1;
#X obj 465 148 r preset-manager-scan;
#X obj 279 148 r preset-manager-store-slot;
#X msg 256 650 write statesave/\$1-\$2-chorus-ss.txt;
#X msg 477 324 read statesave/\$1-\$2-chorus-ss.txt;
#X obj 259 308 r \$0-chorus-rate-s;
#X obj 477 615 s \$0-chorus-rate-r;
#X obj 289 355 r \$0-chorus-depth-s;
#X obj 534 517 s \$0-chorus-depth-r;
#N canvas 0 22 1069 747 morph-parameters 0;
#X obj 176 94 inlet;
#X obj 176 236 pack f f;
#X obj 176 261 line;
#X obj 209 117 r preset-manager-morph-s;
#X msg 72 244 stop;
#X obj 72 214 r STOP-MORPH!;
#X obj 209 206 spigot;
#X obj 398 137 t f f;
#X obj 455 154 == 0;
#X obj 221 176 f;
#X floatatom 455 222 5 0 0 0 - - - 0;
#X obj 398 159 t b f;
#X floatatom 425 192 5 0 0 0 - - - 0;
#X obj 209 139 t f f;
#X obj 398 102 r parameters-s;
#X obj 176 288 outlet;
#X connect 0 0 1 0;
#X connect 1 0 2 0;
#X connect 2 0 15 0;
#X connect 3 0 13 0;
#X connect 4 0 2 0;
#X connect 5 0 4 0;
#X connect 6 0 1 1;
#X connect 7 0 11 0;
#X connect 7 1 8 0;
#X connect 8 0 10 0;
#X connect 9 0 6 0;
#X connect 10 0 1 1;
#X connect 11 0 9 0;
#X connect 11 1 12 0;
#X connect 12 0 6 1;
#X connect 13 0 6 0;
#X connect 13 1 9 1;
#X connect 14 0 7 0;
#X restore 477 592 pd morph-parameters;
#N canvas 0 22 1069 747 morph-parameters 0;
#X obj 176 94 inlet;
#X obj 176 236 pack f f;
#X obj 176 261 line;
#X obj 209 117 r preset-manager-morph-s;
#X msg 72 244 stop;
#X obj 72 214 r STOP-MORPH!;
#X obj 209 206 spigot;
#X obj 398 137 t f f;
#X obj 455 154 == 0;
#X obj 221 176 f;
#X floatatom 455 222 5 0 0 0 - - - 0;
#X obj 398 159 t b f;
#X floatatom 425 192 5 0 0 0 - - - 0;
#X obj 209 139 t f f;
#X obj 398 102 r parameters-s;
#X obj 176 288 outlet;
#X connect 0 0 1 0;
#X connect 1 0 2 0;
#X connect 2 0 15 0;
#X connect 3 0 13 0;
#X connect 4 0 2 0;
#X connect 5 0 4 0;
#X connect 6 0 1 1;
#X connect 7 0 11 0;
#X connect 7 1 8 0;
#X connect 8 0 10 0;
#X connect 9 0 6 0;
#X connect 10 0 1 1;
#X connect 11 0 9 0;
#X connect 11 1 12 0;
#X connect 12 0 6 1;
#X connect 13 0 6 0;
#X connect 13 1 9 1;
#X connect 14 0 7 0;
#X restore 534 493 pd morph-parameters;
#X connect 0 0 11 0;
#X connect 1 0 0 0;
#X connect 2 0 0 0;
#X connect 4 0 2 0;
#X connect 4 1 1 0;
#X connect 5 0 9 0;
#X connect 6 0 23 0;
#X connect 7 0 14 0;
#X connect 7 1 13 0;
#X connect 7 2 8 0;
#X connect 8 0 3 0;
#X connect 9 0 10 0;
#X connect 10 0 3 0;
#X connect 11 0 34 0;
#X connect 11 1 35 0;
#X connect 13 0 5 0;
#X connect 14 0 6 0;
#X connect 15 0 7 0;
#X connect 16 0 15 0;
#X connect 17 0 21 0;
#X connect 18 0 4 0;
#X connect 18 1 17 0;
#X connect 19 0 18 0;
#X connect 19 1 17 1;
#X connect 20 0 21 1;
#X connect 21 0 29 0;
#X connect 22 0 20 0;
#X connect 23 0 28 0;
#X connect 24 0 25 0;
#X connect 25 0 23 1;
#X connect 26 0 19 0;
#X connect 27 0 6 1;
#X connect 28 0 3 0;
#X connect 29 0 0 0;
#X connect 30 0 5 1;
#X connect 32 0 9 1;
#X connect 32 0 12 0;
#X connect 34 0 31 0;
#X connect 35 0 33 0;
#X restore 57 262 pd state-saving-via-preset-manager-module;
#N canvas 297 27 518 295 parameter-nudging-system 0;
#X obj 23 67 clip 0 127;
#X obj 231 64 clip 0 127;
#X obj 23 22 r \$0-chorus-rate-s;
#X obj 23 95 s \$0-chorus-rate-r;
#X obj 231 19 r \$0-chorus-depth-s;
#X obj 231 92 s \$0-chorus-depth-r;
#X obj 23 45 reloaded/nudge-parameters;
#X obj 230 41 reloaded/nudge-parameters;
#X connect 0 0 3 0;
#X connect 1 0 5 0;
#X connect 2 0 6 0;
#X connect 4 0 7 0;
#X connect 6 0 0 0;
#X connect 7 0 1 0;
#X restore 57 284 pd parameter-nudging-system;
#N canvas 632 73 749 752 external-messages 0;
#X floatatom 186 706 5 0 0 0 - - - 0;
#X obj 185 328 spigot;
#X obj 218 288 tgl 15 0 empty empty empty 17 7 0 10 #fcfcfc #000000 #000000 0 1;
#X obj 254 272 ==;
#X obj 269 248 f \$1;
#X obj 269 224 loadbang;
#X msg 185 202 \$1 \$2;
#X msg 185 156 symbol \$1;
#X obj 185 180 pack s f;
#X obj 186 685 f;
#X obj 186 633 t b f;
#X obj 186 656 spigot;
#X obj 185 62 unpack s f f;
#X symbolatom 185 94 10 0 0 0 - - - 0;
#X obj 218 308 t f f;
#X obj 245 332 s \$0-msg-spigot;
#X obj 234 640 r \$0-msg-spigot;
#X floatatom 223 594 5 0 0 0 - - - 0;
#X obj 223 573 f;
#X obj 223 521 t b f;
#X obj 223 544 spigot;
#X obj 271 528 r \$0-msg-spigot;
#X obj 185 14 r chorus;
#X obj 185 380 route RATE DEPTH;
#X obj 186 726 s \$0-chorus-rate-r;
#X obj 223 614 s \$0-chorus-depth-r;
#X connect 0 0 24 0;
#X connect 1 0 23 0;
#X connect 2 0 14 0;
#X connect 3 0 2 0;
#X connect 4 0 3 1;
#X connect 5 0 4 0;
#X connect 6 0 1 0;
#X connect 7 0 8 0;
#X connect 8 0 6 0;
#X connect 9 0 0 0;
#X connect 10 0 11 0;
#X connect 10 1 9 1;
#X connect 11 0 9 0;
#X connect 12 0 13 0;
#X connect 12 1 8 1;
#X connect 12 2 3 0;
#X connect 13 0 7 0;
#X connect 14 0 1 1;
#X connect 14 1 15 0;
#X connect 16 0 11 1;
#X connect 17 0 25 0;
#X connect 18 0 17 0;
#X connect 19 0 20 0;
#X connect 19 1 18 1;
#X connect 20 0 18 0;
#X connect 21 0 20 1;
#X connect 22 0 12 0;
#X connect 23 0 10 0;
#X connect 23 1 19 0;
#X restore 55 410 pd external-messages;
#X obj 10 50 reloaded chorus \$0 \$1;
#X obj 50 10 savestate;
#N canvas 0 50 450 300 \$0-gui_listeners 0;
#X obj 10 0 reloaded/hsl_dispatch chorus \$0 \$1 0 127 chorus-depth-s chorus-depth-r DEPTH #FFFFFF #000000 #000000;
#X obj 10 60 reloaded/hsl_dispatch chorus \$0 \$1 0 127 chorus-rate-s chorus-rate-r RATE #FFFFFF #000000 #000000;
#X restore 10 80 pd \$0-gui_listeners;
#X obj 324 92 r \$0-chorus-rate-s;
#X obj 964 184 r \$0-chorus-depth-s;
#X obj 135 77 namecanvas \$0-this;
#X connect 0 0 99 0;
#X connect 1 0 56 0;
#X connect 2 0 3 0;
#X connect 3 0 4 0;
#X connect 4 0 5 0;
#X connect 5 0 6 0;
#X connect 6 0 12 0;
#X connect 7 0 2 0;
#X connect 9 0 48 0;
#X connect 10 0 11 0;
#X connect 11 0 84 0;
#X connect 12 0 52 0;
#X connect 13 0 19 0;
#X connect 14 0 15 0;
#X connect 15 0 16 0;
#X connect 16 0 17 0;
#X connect 17 0 55 0;
#X connect 18 0 13 0;
#X connect 19 0 14 0;
#X connect 20 0 51 0;
#X connect 21 0 22 0;
#X connect 22 0 87 0;
#X connect 23 0 42 0;
#X connect 24 0 25 0;
#X connect 25 0 26 0;
#X connect 26 0 32 0;
#X connect 27 0 23 0;
#X connect 29 0 49 0;
#X connect 30 0 31 0;
#X connect 31 0 85 0;
#X connect 32 0 53 0;
#X connect 33 0 43 0;
#X connect 34 0 35 0;
#X connect 35 0 36 0;
#X connect 36 0 37 0;
#X connect 37 0 54 0;
#X connect 38 0 33 0;
#X connect 39 0 50 0;
#X connect 40 0 41 0;
#X connect 41 0 86 0;
#X connect 42 0 24 0;
#X connect 43 0 34 0;
#X connect 44 0 69 0;
#X connect 45 0 70 0;
#X connect 46 0 71 0;
#X connect 47 0 72 0;
#X connect 48 0 10 0;
#X connect 49 0 30 0;
#X connect 50 0 40 0;
#X connect 51 0 21 0;
#X connect 52 0 61 0;
#X connect 53 0 62 0;
#X connect 54 0 61 0;
#X connect 55 0 62 0;
#X connect 59 0 44 0;
#X connect 59 1 45 0;
#X connect 59 2 46 0;
#X connect 59 3 47 0;
#X connect 60 0 9 0;
#X connect 60 1 29 0;
#X connect 60 2 39 0;
#X connect 60 3 20 0;
#X connect 61 0 63 0;
#X connect 62 0 64 0;
#X connect 63 0 8 0;
#X connect 64 0 28 0;
#X connect 65 0 73 0;
#X connect 66 0 74 0;
#X connect 67 0 75 0;
#X connect 68 0 76 0;
#X connect 69 0 65 0;
#X connect 70 0 66 0;
#X connect 71 0 67 0;
#X connect 72 0 68 0;
#X connect 73 0 77 0;
#X connect 74 0 78 0;
#X connect 75 0 79 0;
#X connect 76 0 80 0;
#X connect 77 0 7 0;
#X connect 78 0 27 0;
#X connect 79 0 38 0;
#X connect 80 0 18 0;
#X connect 81 0 97 0;
#X connect 84 0 12 1;
#X connect 85 0 32 1;
#X connect 86 0 37 1;
#X connect 87 0 17 1;
#X connect 88 0 90 0;
#X connect 90 0 84 1;
#X connect 90 0 85 1;
#X connect 90 0 86 1;
#X connect 90 0 87 1;
#X connect 97 0 77 1;
#X connect 97 0 78 1;
#X connect 97 0 79 1;
#X connect 97 0 80 1;
#X connect 99 0 101 0;
#X connect 101 0 98 0;
#X connect 105 0 106 0;
#X connect 106 0 105 0;
#X connect 106 1 105 1;
#X connect 108 0 59 0;
#X connect 109 0 60 0;
#X coords 0 -1 1 1 175 75 2 100 100;
