#N canvas 0 22 779 572 10;
#X obj 395 234 inlet~;
#X obj 287 364 f;
#X obj 317 364 + 1;
#X obj 287 400 % 2;
#X obj 287 422 sel 0;
#X obj 287 444 t b b;
#X obj 104 154 bng 15 50 50 0 empty empty /2 0 -8 0 10 -262144 -226533
-1;
#X msg 287 490 1 0 \, 0 1 1;
#X obj 287 512 vline~;
#X obj 287 534 outlet~;
#X obj 376 364 f;
#X obj 406 364 + 1;
#X obj 376 419 sel 0;
#X obj 376 441 t b b;
#X obj 143 154 bng 15 50 50 0 empty empty /4 0 -8 0 10 -262144 -226533
-1;
#X msg 376 487 1 0 \, 0 1 1;
#X obj 376 509 vline~;
#X obj 376 531 outlet~;
#X obj 376 397 % 4;
#X obj 611 303 loadbang;
#X msg 611 325 0;
#X obj 611 347 t f f f f;
#X obj 467 364 f;
#X obj 497 364 + 1;
#X obj 467 413 sel 0;
#X obj 467 435 t b b;
#X obj 192 154 bng 15 50 50 0 empty empty /8 0 -8 0 10 -262144 -226533
-1;
#X msg 467 481 1 0 \, 0 1 1;
#X obj 467 503 vline~;
#X obj 467 525 outlet~;
#X obj 467 391 % 8;
#X obj 551 364 f;
#X obj 581 364 + 1;
#X obj 551 409 sel 0;
#X obj 551 431 t b b;
#X obj 230 154 bng 15 50 50 0 empty empty /16 0 -8 0 10 -262144 -226533
-1;
#X msg 551 477 1 0 \, 0 1 1;
#X obj 551 499 vline~;
#X obj 551 521 outlet~;
#X obj 551 387 % 16;
#X obj 104 117 bng 15 50 50 0 empty empty empty 17 7 0 10 -262144 -226533
-1;
#X obj 136 125 cnv 5 5 5 empty empty CLOCK 0 0 0 12 -262144 -66577
0;
#X obj 105 108 cnv 5 5 5 empty empty IN 0 0 0 8 -262144 -226533 0;
#X obj 176 125 cnv 5 5 5 empty empty DIVIDER 0 0 0 12 -262144 -66577
0;
#X obj 395 256 threshold~ 0.9 0 0.9 0;
#X obj 395 276 t b b b b b b;
#X connect 0 0 44 0;
#X connect 1 0 2 0;
#X connect 1 0 3 0;
#X connect 2 0 1 1;
#X connect 3 0 4 0;
#X connect 4 0 5 0;
#X connect 5 0 7 0;
#X connect 5 1 6 0;
#X connect 7 0 8 0;
#X connect 8 0 9 0;
#X connect 10 0 11 0;
#X connect 10 0 18 0;
#X connect 11 0 10 1;
#X connect 12 0 13 0;
#X connect 13 0 15 0;
#X connect 13 1 14 0;
#X connect 15 0 16 0;
#X connect 16 0 17 0;
#X connect 18 0 12 0;
#X connect 19 0 20 0;
#X connect 20 0 21 0;
#X connect 21 0 1 1;
#X connect 21 1 10 1;
#X connect 21 2 22 1;
#X connect 21 3 31 1;
#X connect 22 0 23 0;
#X connect 22 0 30 0;
#X connect 23 0 22 1;
#X connect 24 0 25 0;
#X connect 25 0 27 0;
#X connect 25 1 26 0;
#X connect 27 0 28 0;
#X connect 28 0 29 0;
#X connect 30 0 24 0;
#X connect 31 0 32 0;
#X connect 31 0 39 0;
#X connect 32 0 31 1;
#X connect 33 0 34 0;
#X connect 34 0 36 0;
#X connect 34 1 35 0;
#X connect 36 0 37 0;
#X connect 37 0 38 0;
#X connect 39 0 33 0;
#X connect 44 0 45 0;
#X connect 45 0 1 0;
#X connect 45 1 10 0;
#X connect 45 2 22 0;
#X connect 45 3 31 0;
#X connect 45 4 40 0;
#X coords 0 -1 1 1 150 75 2 100 100;
