#N canvas 0 23 1450 610 10;
#X obj 222 145 tgl 15 1 \$0-clock-on/off-s \$0-clock-on/off-r ON/OFF 17 7 0 10 #fcfcfc #000000 #000000 0 1;
#X obj 409 211 metro 100;
#X obj 408 285 vline~;
#X obj 108 126 hsl 128 15 0 127 0 1 \$0-clock-clk-rate-s \$0-clock-clk-rate-r RATE 133 7 0 10 #fcfcfc #000000 #000000 11500 1;
#X floatatom 105 141 5 0 0 0 - - - 0;
#X msg 110 213 127 \$1;
#X obj 110 235 -;
#X obj 110 258 / 127;
#X obj 110 396 t f f;
#X obj 110 309 * 1950;
#X obj 160 115 cnv 5 5 5 empty empty CLOCK 0 0 0 12 #fcfcfc #404040 0;
#X obj 408 351 outlet~;
#X obj 320 48 inlet~;
#X obj 574 81 inlet~;
#X obj 320 120 snapshot~;
#X obj 320 171 t b f;
#X obj 110 280 +;
#X text 319 24 CLK-RATE CV INPUT;
#X text 577 62 ON/OFF GATE INPUT;
#X obj 244 109 cnv 5 5 5 empty empty ON/OFF 0 0 0 8 #fcfcfc #dc4c90 0;
#X obj 105 109 cnv 5 5 5 empty empty CLK-RATE 0 0 0 8 #fcfcfc #404040 0;
#N canvas 21 22 593 735 state-saving-multiple-instances 0;
#X obj 215 28 loadbang;
#X msg 518 463 rewind;
#X msg 475 463 bang;
#X obj 475 424 t b b;
#X obj 120 356 f;
#X obj 133 579 f;
#X obj 66 422 t b b b;
#X msg 196 579 clear;
#X obj 281 216 outlet;
#X text 277 236 INSTANCE NUMBER;
#X obj 242 92 f \$1;
#X obj 242 128 t f f f;
#X obj 215 61 t b b;
#X obj 66 331 bng 15 250 50 0 empty empty empty 17 7 0 10 #fcfcfc #000000 #000000;
#X obj 66 235 r SAVE-S;
#X obj 120 399 pack f f;
#X msg 120 438 set \$1 \$2;
#X obj 261 502 unpack f f;
#X msg 132 650 write statesave/\$1-clock-ss.txt;
#X msg 261 455 read statesave/\$1-clock-ss.txt;
#X obj 135 308 r \$0-clock-clk-rate-s;
#X obj 261 604 s \$0-clock-clk-rate-r;
#X obj 165 355 r \$0-clock-on/off-s;
#X obj 318 530 s \$0-clock-on/off-r;
#X obj 261 480 state_saving_module/textfile \$0;
#X obj 119 690 state_saving_module/textfile \$0;
#X connect 0 0 12 0;
#X connect 1 0 24 0;
#X connect 2 0 24 0;
#X connect 3 0 2 0;
#X connect 3 1 1 0;
#X connect 4 0 15 0;
#X connect 5 0 18 0;
#X connect 6 0 5 0;
#X connect 6 1 4 0;
#X connect 6 2 7 0;
#X connect 7 0 25 0;
#X connect 10 0 11 0;
#X connect 11 0 5 1;
#X connect 11 1 19 0;
#X connect 11 2 8 0;
#X connect 12 0 3 0;
#X connect 12 1 10 0;
#X connect 13 0 6 0;
#X connect 14 0 13 0;
#X connect 15 0 16 0;
#X connect 16 0 25 0;
#X connect 17 0 21 0;
#X connect 17 1 23 0;
#X connect 18 0 25 0;
#X connect 19 0 24 0;
#X connect 20 0 4 1;
#X connect 22 0 15 1;
#X connect 24 0 17 0;
#X restore 594 355 pd state-saving-multiple-instances;
#X obj 594 425 s \$0-instance-num;
#X obj 594 377 makefilename %d;
#X obj 200 115 cnv 5 5 5 empty \$0-instance-num 1 0 0 0 12 #fcfcfc #404040 0;
#X msg 594 402 label \$1;
#X obj 103 167 cnv 5 5 5 empty empty OUT 0 0 0 8 #fcfcfc #dc4c90 0;
#X obj 574 105 threshold~ 0.99 0 0.99 0;
#X obj 422 96 env~;
#X floatatom 422 118 5 0 0 0 - - - 0;
#X obj 422 162 t b;
#X obj 422 137 change;
#X obj 110 353 moses 20;
#X obj 110 331 + 20;
#X msg 408 263 1 0 \, 0 1 1;
#N canvas 81 22 1117 745 state-saving-via-preset-manager-module 0;
#X msg 755 332 rewind;
#X msg 712 332 bang;
#X obj 712 293 t b b;
#X obj 244 356 f;
#X obj 257 579 f;
#X obj 190 422 t b b b;
#X msg 320 579 clear;
#X obj 244 399 pack f f;
#X msg 244 438 set \$1 \$2;
#X obj 477 371 unpack f f;
#X obj 244 264 delay 5;
#X obj 190 484 delay 10;
#X msg 190 314 bang;
#X obj 190 147 r STORE-S!;
#X obj 477 250 f;
#X obj 450 207 t b b;
#X obj 465 171 t b f;
#X obj 522 268 f \$1;
#X obj 477 295 pack f f;
#X obj 522 218 loadbang;
#X obj 257 609 pack f f;
#X obj 302 467 loadbang;
#X obj 302 489 f \$1;
#X obj 465 148 r preset-manager-scan;
#X obj 279 148 r preset-manager-store-slot;
#X msg 256 650 write statesave/\$1-\$2-clock-ss.txt;
#X msg 477 324 read statesave/\$1-\$2-clock-ss.txt;
#X obj 259 308 r \$0-clock-clk-rate-s;
#X obj 476 615 s \$0-clock-clk-rate-r;
#X obj 289 355 r \$0-clock-on/off-s;
#X obj 534 517 s \$0-clock-on/off-r;
#N canvas 0 22 1069 747 morph-parameters 0;
#X obj 176 94 inlet;
#X obj 176 236 pack f f;
#X obj 176 261 line;
#X obj 209 117 r preset-manager-morph-s;
#X msg 72 244 stop;
#X obj 72 214 r STOP-MORPH!;
#X obj 209 206 spigot;
#X obj 398 137 t f f;
#X obj 455 154 == 0;
#X obj 221 176 f;
#X floatatom 455 222 5 0 0 0 - - - 0;
#X obj 398 159 t b f;
#X floatatom 425 192 5 0 0 0 - - - 0;
#X obj 209 139 t f f;
#X obj 398 102 r parameters-s;
#X obj 176 288 outlet;
#X connect 0 0 1 0;
#X connect 1 0 2 0;
#X connect 2 0 15 0;
#X connect 3 0 13 0;
#X connect 4 0 2 0;
#X connect 5 0 4 0;
#X connect 6 0 1 1;
#X connect 7 0 11 0;
#X connect 7 1 8 0;
#X connect 8 0 10 0;
#X connect 9 0 6 0;
#X connect 10 0 1 1;
#X connect 11 0 9 0;
#X connect 11 1 12 0;
#X connect 12 0 6 1;
#X connect 13 0 6 0;
#X connect 13 1 9 1;
#X connect 14 0 7 0;
#X restore 476 587 pd morph-parameters;
#X obj 477 349 state_saving_module/textfile \$0;
#X obj 243 690 state_saving_module/textfile \$0;
#X connect 0 0 32 0;
#X connect 1 0 32 0;
#X connect 2 0 1 0;
#X connect 2 1 0 0;
#X connect 3 0 7 0;
#X connect 4 0 20 0;
#X connect 5 0 11 0;
#X connect 5 1 10 0;
#X connect 5 2 6 0;
#X connect 6 0 33 0;
#X connect 7 0 8 0;
#X connect 8 0 33 0;
#X connect 9 0 31 0;
#X connect 9 1 30 0;
#X connect 10 0 3 0;
#X connect 11 0 4 0;
#X connect 12 0 5 0;
#X connect 13 0 12 0;
#X connect 14 0 18 0;
#X connect 15 0 2 0;
#X connect 15 1 14 0;
#X connect 16 0 15 0;
#X connect 16 1 14 1;
#X connect 17 0 18 1;
#X connect 18 0 26 0;
#X connect 19 0 17 0;
#X connect 20 0 25 0;
#X connect 21 0 22 0;
#X connect 22 0 20 1;
#X connect 23 0 16 0;
#X connect 24 0 4 1;
#X connect 25 0 33 0;
#X connect 26 0 32 0;
#X connect 27 0 3 1;
#X connect 29 0 7 1;
#X connect 31 0 28 0;
#X connect 32 0 9 0;
#X restore 594 333 pd state-saving-via-preset-manager-module;
#N canvas 297 27 748 331 parameter-nudging-system 0;
#X obj 23 67 clip 0 127;
#X obj 23 22 r \$0-clock-clk-rate-s;
#X obj 23 95 s \$0-clock-clk-rate-r;
#N canvas 0 22 484 497 nudge-parameters 0;
#X obj 124 234 random;
#X obj 232 335 f;
#X obj 232 368 +;
#X obj 257 166 random 2;
#X obj 124 275 t f f;
#X obj 124 351 t b f;
#X obj 124 297 *;
#X obj 257 188 sel 0 1;
#X msg 257 280 -1;
#X msg 335 280 1;
#X obj 124 149 t b b b;
#X obj 124 74 r NUDGE!;
#X obj 157 193 r NUDGE-RANGE;
#X obj 247 308 inlet;
#X obj 232 397 outlet;
#X obj 124 96 spigot;
#X obj 185 79 r parameters2-s;
#X connect 0 0 4 0;
#X connect 1 0 2 0;
#X connect 2 0 14 0;
#X connect 3 0 7 0;
#X connect 4 0 6 0;
#X connect 5 0 2 0;
#X connect 5 1 2 1;
#X connect 6 0 5 0;
#X connect 7 0 8 0;
#X connect 7 1 9 0;
#X connect 8 0 6 1;
#X connect 9 0 6 1;
#X connect 10 0 0 0;
#X connect 10 1 1 0;
#X connect 10 2 3 0;
#X connect 11 0 15 0;
#X connect 12 0 0 1;
#X connect 13 0 1 1;
#X connect 15 0 10 0;
#X connect 16 0 15 1;
#X restore 23 45 pd nudge-parameters;
#X connect 0 0 2 0;
#X connect 1 0 3 0;
#X connect 3 0 0 0;
#X restore 593 308 pd parameter-nudging-system;
#X obj 321 94 *~ -1;
#N canvas 632 73 749 752 external-messages 0;
#X floatatom 186 706 5 0 0 0 - - - 0;
#X obj 185 328 spigot;
#X obj 218 288 tgl 15 0 empty empty empty 17 7 0 10 #fcfcfc #000000 #000000 0 1;
#X obj 254 272 ==;
#X obj 269 248 f \$1;
#X obj 269 224 loadbang;
#X msg 185 202 \$1 \$2;
#X msg 185 156 symbol \$1;
#X obj 185 180 pack s f;
#X obj 186 685 f;
#X obj 186 633 t b f;
#X obj 186 656 spigot;
#X obj 185 62 unpack s f f;
#X symbolatom 185 94 10 0 0 0 - - - 0;
#X obj 218 308 t f f;
#X obj 245 332 s \$0-msg-spigot;
#X obj 234 640 r \$0-msg-spigot;
#X floatatom 223 594 5 0 0 0 - - - 0;
#X obj 223 573 f;
#X obj 223 521 t b f;
#X obj 223 544 spigot;
#X obj 271 528 r \$0-msg-spigot;
#X obj 185 14 r clock;
#X obj 184 380 route RATE ON/OFF;
#X obj 186 726 s \$0-clock-clk-rate-r;
#X obj 223 614 s \$0-clock-on/off-r;
#X connect 0 0 24 0;
#X connect 1 0 23 0;
#X connect 2 0 14 0;
#X connect 3 0 2 0;
#X connect 4 0 3 1;
#X connect 5 0 4 0;
#X connect 6 0 1 0;
#X connect 7 0 8 0;
#X connect 8 0 6 0;
#X connect 9 0 0 0;
#X connect 10 0 11 0;
#X connect 10 1 9 1;
#X connect 11 0 9 0;
#X connect 12 0 13 0;
#X connect 12 1 8 1;
#X connect 12 2 3 0;
#X connect 13 0 7 0;
#X connect 14 0 1 1;
#X connect 14 1 15 0;
#X connect 16 0 11 1;
#X connect 17 0 25 0;
#X connect 18 0 17 0;
#X connect 19 0 20 0;
#X connect 19 1 18 1;
#X connect 20 0 18 0;
#X connect 21 0 20 1;
#X connect 22 0 12 0;
#X connect 23 0 10 0;
#X connect 23 1 19 0;
#X restore 590 277 pd external-messages;
#X obj 10 50 state_saving_module clock \$0 \$1;
#X obj 50 10 savestate;
#N canvas 0 50 450 300 \$0-gui_listeners 0;
#X obj 10 0 state_saving_module/hsl_dispatch clock \$0 \$1 0 127 clock-clk-rate-s clock-clk-rate-r RATE #FFFFFF #000000 #000000;
#X obj 10 60 state_saving_module/tgl_dispatch clock \$0 \$1 0 1 clock-on/off-s clock-on/off-r ON/OFF #FFFFFF #000000 #000000;
#X restore 10 80 pd \$0-gui_listeners;
#X obj 30 188 r \$0-clock-clk-rate-s;
#X obj 408 187 r \$0-clock-on/off-s;
#X obj 135 77 namecanvas \$0-this;
#X floatatom 139 141 5 0 0 3 BPM - - 0;
#X obj 173 141 bng 30 50 50 0 \$0-tap-snd \$0-tap-rcv TAP 5 15 0 10 #fcfcfc #000000 #000000;
#X obj 409 233 t b b b b;
#X obj 443 318 s \$0-tap-rcv;
#X obj 557 190 r \$0-tap-rcv;
#X obj 522 270 spigot 1;
#X msg 555 238 0;
#X msg 496 239 1;
#N canvas 411 289 966 651 taptime 0;
#X obj 34 4 inlet;
#X obj 41 104 sel 1 2;
#X floatatom 47 186 5 0 0 0 - - - 0;
#X msg 40 154 1;
#X msg 73 154 0;
#X obj 73 131 t b b;
#X msg 93 103 0;
#X obj 44 78 +;
#X floatatom 72 80 5 0 0 0 - - - 0;
#X obj 47 238 timer;
#X obj 44 26 bng 15 250 50 0 empty empty empty 0 -6 0 10 #00fc04 #000000 #000000;
#X msg 42 50 1;
#X obj 47 211 sel 1 0;
#X floatatom 47 262 5 0 0 0 - - - 0;
#X obj 224 121 bng 25 250 50 0 empty empty empty 0 -6 0 10 #fcfcfc #000000 #000000;
#X msg 203 58 1;
#X obj 240 58 loadbang;
#X obj 203 85 metro 500;
#X text 66 24 <-- click twice to determine the tempo;
#X text 86 262 time passed between two clicks (in ms.);
#X text 256 124 Tempo;
#X obj 433 272 timer;
#X obj 404 95 f;
#X obj 435 95 + 1;
#X obj 480 154 sel 3;
#X msg 507 66 0;
#X obj 379 157 moses 1;
#X obj 395 190 bang;
#X obj 434 197 bang;
#X obj 427 316 f;
#X obj 460 317 +;
#X obj 433 294 t b f;
#X obj 494 293 == 3;
#X obj 428 362 spigot;
#X obj 427 341 /;
#X obj 404 116 t f f f;
#X obj 403 48 bng 15 250 50 0 empty empty empty 17 7 0 10 #fcfcfc #000000 #000000;
#X floatatom 438 421 5 0 0 0 - - - 0;
#X text 19 297 Credits https://forum.pdpatchrepo.info/topic/1494/tap-tempo/3;
#X connect 0 0 11 0;
#X connect 1 0 3 0;
#X connect 1 1 5 0;
#X connect 2 0 12 0;
#X connect 3 0 2 0;
#X connect 4 0 2 0;
#X connect 5 0 4 0;
#X connect 5 1 6 0;
#X connect 6 0 8 0;
#X connect 7 0 8 0;
#X connect 8 0 7 1;
#X connect 8 0 1 0;
#X connect 9 0 13 0;
#X connect 10 0 11 0;
#X connect 11 0 7 0;
#X connect 12 0 9 0;
#X connect 12 1 9 1;
#X connect 13 0 17 1;
#X connect 15 0 17 0;
#X connect 16 0 15 0;
#X connect 17 0 14 0;
#X connect 21 0 31 0;
#X connect 22 0 23 0;
#X connect 22 0 35 0;
#X connect 23 0 22 1;
#X connect 24 0 25 0;
#X connect 25 0 22 1;
#X connect 25 0 30 1;
#X connect 26 0 27 0;
#X connect 26 1 28 0;
#X connect 27 0 21 0;
#X connect 28 0 21 1;
#X connect 28 0 21 0;
#X connect 29 0 30 1;
#X connect 29 0 34 0;
#X connect 30 0 29 1;
#X connect 31 0 29 0;
#X connect 31 1 30 0;
#X connect 32 0 33 1;
#X connect 33 0 37 0;
#X connect 34 0 33 0;
#X connect 35 0 24 0;
#X connect 35 1 26 0;
#X connect 35 2 32 0;
#X connect 35 2 34 1;
#X connect 36 0 22 0;
#X restore 259 264 pd taptime;
#X connect 1 0 47 0;
#X connect 2 0 11 0;
#X connect 5 0 6 0;
#X connect 6 0 7 0;
#X connect 7 0 16 0;
#X connect 8 0 1 1;
#X connect 8 1 4 0;
#X connect 9 0 33 0;
#X connect 12 0 28 0;
#X connect 12 0 37 0;
#X connect 13 0 27 0;
#X connect 14 0 15 0;
#X connect 15 0 16 0;
#X connect 15 1 16 1;
#X connect 16 0 9 0;
#X connect 21 0 23 0;
#X connect 23 0 25 0;
#X connect 25 0 22 0;
#X connect 27 0 0 0;
#X connect 28 0 29 0;
#X connect 29 0 31 0;
#X connect 30 0 14 0;
#X connect 31 0 30 0;
#X connect 32 1 8 0;
#X connect 33 0 32 0;
#X connect 34 0 2 0;
#X connect 37 0 14 0;
#X connect 39 0 40 0;
#X connect 40 0 39 0;
#X connect 40 1 39 1;
#X connect 42 0 5 0;
#X connect 43 0 1 0;
#X connect 47 0 34 0;
#X connect 47 1 52 0;
#X connect 47 2 48 0;
#X connect 47 3 51 0;
#X connect 49 0 50 0;
#X connect 51 0 50 1;
#X connect 52 0 50 1;
#X coords 0 -1 1 1 175 75 2 100 100;
