#N canvas 0 23 1550 975 10;
#X obj 222 145 tgl 15 1 \$0-clock-on/off-s \$0-clock-on/off-r ON/OFF 17 7 0 10 #ffffff #000000 #000000 0 1;
#X obj 286 286 metro 100;
#X obj 328 365 vline~;
#X obj 108 126 hsl 128 15 0 127 0 1 \$0-clock-clk-rate-s \$0-clock-clk-rate-r RATE 133 7 0 10 #ffffff #000000 #000000 11600 1;
#X floatatom 181 141 6 0 0 0 ms - - 0;
#X obj 140 119 cnv 5 5 5 empty empty CLOCK 0 0 0 12 #fcfcfc #404040 0;
#X obj 328 431 outlet~;
#X obj 320 48 inlet~;
#X obj 494 57 inlet~;
#X obj 320 120 snapshot~;
#X text 319 24 CLK-RATE CV INPUT;
#X obj 163 107 cnv 5 5 5 empty empty ON/OFF 0 0 0 8 #fcfcfc #dc4c90 0;
#X obj 105 109 cnv 5 5 5 empty empty CLK-RATE 0 0 0 8 #fcfcfc #404040 0;
#N canvas 21 22 593 735 state-saving-multiple-instances 0;
#X obj 215 28 loadbang;
#X msg 518 463 rewind;
#X msg 475 463 bang;
#X obj 475 424 t b b;
#X obj 120 356 f;
#X obj 133 579 f;
#X obj 66 422 t b b b;
#X msg 196 579 clear;
#X obj 281 216 outlet;
#X text 277 236 INSTANCE NUMBER;
#X obj 242 92 f \$1;
#X obj 242 128 t f f f;
#X obj 215 61 t b b;
#X obj 66 331 bng 15 250 50 0 empty \$0-save-s empty 17 7 0 10 #fcfcfc #000000 #000000;
#X obj 66 235 r SAVE-S;
#X obj 120 399 pack f f;
#X msg 120 438 set \$1 \$2;
#X obj 261 502 unpack f f;
#X msg 132 650 write statesave/\$1-clock-ss.txt;
#X msg 261 455 read statesave/\$1-clock-ss.txt;
#X obj 135 308 r \$0-clock-clk-rate-s;
#X obj 261 604 s \$0-clock-clk-rate-r;
#X obj 165 355 r \$0-clock-on/off-s;
#X obj 318 530 s \$0-clock-on/off-r;
#X obj 119 690 reloaded/textfile \$0;
#X obj 261 480 reloaded/textfile \$0 init;
#X connect 0 0 12 0;
#X connect 1 0 25 0;
#X connect 2 0 25 0;
#X connect 3 0 2 0;
#X connect 3 1 1 0;
#X connect 4 0 15 0;
#X connect 5 0 18 0;
#X connect 6 0 5 0;
#X connect 6 1 4 0;
#X connect 6 2 7 0;
#X connect 7 0 24 0;
#X connect 10 0 11 0;
#X connect 11 0 5 1;
#X connect 11 1 19 0;
#X connect 11 2 8 0;
#X connect 12 0 3 0;
#X connect 12 1 10 0;
#X connect 13 0 6 0;
#X connect 14 0 13 0;
#X connect 15 0 16 0;
#X connect 16 0 24 0;
#X connect 17 0 21 0;
#X connect 17 1 23 0;
#X connect 18 0 24 0;
#X connect 19 0 25 0;
#X connect 20 0 4 1;
#X connect 22 0 15 1;
#X connect 25 0 17 0;
#X restore 594 355 pd state-saving-multiple-instances;
#X obj 594 425 s \$0-instance-num;
#X obj 594 377 makefilename %d;
#X obj 184 119 cnv 5 5 5 empty \$0-instance-num 4 0 0 0 12 #fcfcfc #404040 0;
#X msg 594 402 label \$1;
#X obj 103 167 cnv 5 5 5 empty empty OUT 0 0 0 8 #fcfcfc #dc4c90 0;
#X obj 494 81 threshold~ 0.99 0 0.99 0;
#X obj 422 96 env~;
#X obj 422 162 t b;
#X obj 422 137 change;
#X msg 328 343 1 0 \, 0 1 1;
#N canvas 81 22 1117 745 state-saving-via-preset-manager-module 0;
#X msg 755 332 rewind;
#X msg 712 332 bang;
#X obj 712 293 t b b;
#X obj 244 356 f;
#X obj 257 579 f;
#X obj 190 422 t b b b;
#X msg 320 579 clear;
#X obj 244 399 pack f f;
#X msg 244 438 set \$1 \$2;
#X obj 477 371 unpack f f;
#X obj 244 264 delay 5;
#X obj 190 484 delay 10;
#X msg 190 314 bang;
#X obj 190 147 r STORE-S!;
#X obj 477 250 f;
#X obj 450 207 t b b;
#X obj 465 171 t b f;
#X obj 522 268 f \$1;
#X obj 477 295 pack f f;
#X obj 522 218 loadbang;
#X obj 257 609 pack f f;
#X obj 302 467 loadbang;
#X obj 302 489 f \$1;
#X obj 465 148 r preset-manager-scan;
#X obj 279 148 r preset-manager-store-slot;
#X msg 256 650 write statesave/\$1-\$2-clock-ss.txt;
#X msg 477 324 read statesave/\$1-\$2-clock-ss.txt;
#X obj 259 308 r \$0-clock-clk-rate-s;
#X obj 476 615 s \$0-clock-clk-rate-r;
#X obj 289 355 r \$0-clock-on/off-s;
#X obj 534 517 s \$0-clock-on/off-r;
#N canvas 0 22 1069 747 morph-parameters 0;
#X obj 176 94 inlet;
#X obj 176 236 pack f f;
#X obj 176 261 line;
#X obj 209 117 r preset-manager-morph-s;
#X msg 72 244 stop;
#X obj 72 214 r STOP-MORPH!;
#X obj 209 206 spigot;
#X obj 398 137 t f f;
#X obj 455 154 == 0;
#X obj 221 176 f;
#X floatatom 455 222 5 0 0 0 - - - 0;
#X obj 398 159 t b f;
#X floatatom 425 192 5 0 0 0 - - - 0;
#X obj 209 139 t f f;
#X obj 398 102 r parameters-s;
#X obj 176 288 outlet;
#X connect 0 0 1 0;
#X connect 1 0 2 0;
#X connect 2 0 15 0;
#X connect 3 0 13 0;
#X connect 4 0 2 0;
#X connect 5 0 4 0;
#X connect 6 0 1 1;
#X connect 7 0 11 0;
#X connect 7 1 8 0;
#X connect 8 0 10 0;
#X connect 9 0 6 0;
#X connect 10 0 1 1;
#X connect 11 0 9 0;
#X connect 11 1 12 0;
#X connect 12 0 6 1;
#X connect 13 0 6 0;
#X connect 13 1 9 1;
#X connect 14 0 7 0;
#X restore 476 587 pd morph-parameters;
#X obj 477 349 reloaded/textfile \$0;
#X obj 243 690 reloaded/textfile \$0;
#X connect 0 0 32 0;
#X connect 1 0 32 0;
#X connect 2 0 1 0;
#X connect 2 1 0 0;
#X connect 3 0 7 0;
#X connect 4 0 20 0;
#X connect 5 0 11 0;
#X connect 5 1 10 0;
#X connect 5 2 6 0;
#X connect 6 0 33 0;
#X connect 7 0 8 0;
#X connect 8 0 33 0;
#X connect 9 0 31 0;
#X connect 9 1 30 0;
#X connect 10 0 3 0;
#X connect 11 0 4 0;
#X connect 12 0 5 0;
#X connect 13 0 12 0;
#X connect 14 0 18 0;
#X connect 15 0 2 0;
#X connect 15 1 14 0;
#X connect 16 0 15 0;
#X connect 16 1 14 1;
#X connect 17 0 18 1;
#X connect 18 0 26 0;
#X connect 19 0 17 0;
#X connect 20 0 25 0;
#X connect 21 0 22 0;
#X connect 22 0 20 1;
#X connect 23 0 16 0;
#X connect 24 0 4 1;
#X connect 25 0 33 0;
#X connect 26 0 32 0;
#X connect 27 0 3 1;
#X connect 29 0 7 1;
#X connect 31 0 28 0;
#X connect 32 0 9 0;
#X restore 594 333 pd state-saving-via-preset-manager-module;
#N canvas 297 27 748 331 parameter-nudging-system 0;
#X obj 23 67 clip 0 127;
#X obj 23 22 r \$0-clock-clk-rate-s;
#X obj 23 95 s \$0-clock-clk-rate-r;
#X obj 23 45 reloaded/nudge-parameters;
#X connect 0 0 2 0;
#X connect 1 0 3 0;
#X connect 3 0 0 0;
#X restore 593 308 pd parameter-nudging-system;
#X obj 321 94 *~ -1;
#N canvas 632 73 749 752 external-messages 0;
#X floatatom 186 706 5 0 0 0 - - - 0;
#X obj 185 328 spigot;
#X obj 218 288 tgl 15 0 empty empty empty 17 7 0 10 #fcfcfc #000000 #000000 0 1;
#X obj 254 272 ==;
#X obj 269 248 f \$1;
#X obj 269 224 loadbang;
#X msg 185 202 \$1 \$2;
#X msg 185 156 symbol \$1;
#X obj 185 180 pack s f;
#X obj 186 685 f;
#X obj 186 633 t b f;
#X obj 186 656 spigot;
#X obj 185 62 unpack s f f;
#X symbolatom 185 94 10 0 0 0 - - - 0;
#X obj 218 308 t f f;
#X obj 245 332 s \$0-msg-spigot;
#X obj 234 640 r \$0-msg-spigot;
#X floatatom 223 594 5 0 0 0 - - - 0;
#X obj 223 573 f;
#X obj 223 521 t b f;
#X obj 223 544 spigot;
#X obj 271 528 r \$0-msg-spigot;
#X obj 185 14 r clock;
#X obj 184 380 route RATE ON/OFF;
#X obj 186 726 s \$0-clock-clk-rate-r;
#X obj 223 614 s \$0-clock-on/off-r;
#X connect 0 0 24 0;
#X connect 1 0 23 0;
#X connect 2 0 14 0;
#X connect 3 0 2 0;
#X connect 4 0 3 1;
#X connect 5 0 4 0;
#X connect 6 0 1 0;
#X connect 7 0 8 0;
#X connect 8 0 6 0;
#X connect 9 0 0 0;
#X connect 10 0 11 0;
#X connect 10 1 9 1;
#X connect 11 0 9 0;
#X connect 12 0 13 0;
#X connect 12 1 8 1;
#X connect 12 2 3 0;
#X connect 13 0 7 0;
#X connect 14 0 1 1;
#X connect 14 1 15 0;
#X connect 16 0 11 1;
#X connect 17 0 25 0;
#X connect 18 0 17 0;
#X connect 19 0 20 0;
#X connect 19 1 18 1;
#X connect 20 0 18 0;
#X connect 21 0 20 1;
#X connect 22 0 12 0;
#X connect 23 0 10 0;
#X connect 23 1 19 0;
#X restore 590 277 pd external-messages;
#X obj 10 50 reloaded clock \$0 \$1;
#X obj 50 10 savestate;
#N canvas 2 745 450 300 \$0-gui_listeners 0;
#X obj 10 0 reloaded/hsl_dispatch clock \$0 \$1 0 127 clock-clk-rate-s clock-clk-rate-r RATE #FFFFFF #000000 #000000;
#X obj 10 60 reloaded/tgl_dispatch clock \$0 \$1 0 1 clock-on/off-s clock-on/off-r ON/OFF #FFFFFF #000000 #000000;
#X restore 10 80 pd \$0-gui_listeners;
#X obj 285 262 r \$0-clock-on/off-s;
#X obj 135 77 namecanvas \$0-this;
#X floatatom 181 157 6 30 3000 0 BPM \$0-bpm-r \$0-bpm-s 0;
#X obj 124 141 bng 30 50 50 0 \$0-tap-snd \$0-tap-rcv TAP 5 15 0 10 #fcfcfc #000000 #000000;
#X obj 329 313 t b b b b;
#X obj 363 398 s \$0-tap-rcv;
#X obj 524 297 spigot 1;
#X msg 557 265 0;
#X msg 498 266 1;
#N canvas 467 403 736 578 bpm 0;
#X msg 69 240 60000 \$1;
#X obj 69 263 /;
#X msg 67 373 set \$1;
#X obj 70 399 s \$0-bpm-r;
#X obj 190 74 r \$0-bpm-s;
#X msg 194 199 60000 \$1;
#X obj 194 222 /;
#X obj 194 245 - 20;
#X obj 194 268 / 1950;
#X obj 194 291 * 127;
#X msg 194 314 127 \$1;
#X obj 296 258 s \$0-clock-clk-rate-r;
#X obj 103 140 spigot 1;
#X obj 192 137 t b f b;
#X msg 227 169 0;
#X msg 181 169 1;
#X obj 296 235 -;
#X obj 69 292 + 0.5;
#X obj 69 321 int;
#X obj 147 5 inlet;
#X connect 0 0 1 0;
#X connect 1 0 17 0;
#X connect 2 0 3 0;
#X connect 4 0 13 0;
#X connect 5 0 6 0;
#X connect 6 0 7 0;
#X connect 7 0 8 0;
#X connect 8 0 9 0;
#X connect 9 0 10 0;
#X connect 10 0 16 0;
#X connect 12 0 0 0;
#X connect 13 0 15 0;
#X connect 13 1 5 0;
#X connect 13 2 14 0;
#X connect 14 0 12 1;
#X connect 15 0 12 1;
#X connect 16 0 11 0;
#X connect 17 0 18 0;
#X connect 18 0 2 0;
#X connect 19 0 12 0;
#X restore 140 313 pd bpm;
#X obj 838 76 inlet~;
#X text 839 54 TEMPO RATE CV INPUT;
#X obj 831 193 snapshot~;
#X obj 858 98 env~;
#X obj 855 143 t b;
#X obj 855 118 change;
#X obj 832 167 *~ -1;
#X obj 233 108 cnv 5 5 5 empty empty BPM-RATE 0 0 0 8 #fcfcfc #404040 0;
#N canvas 0 32 1920 994 clk-rate/BPM 0;
#X obj 4 11 inlet;
#X obj 161 14 inlet;
#X msg 143 108 127 \$1;
#X obj 143 130 -;
#X obj 143 153 / 127;
#X obj 143 204 * 1950;
#X obj 38 128 t b f;
#X obj 143 175 +;
#X obj 143 226 + 20;
#X obj 138 61 r \$0-clock-clk-rate-s;
#X obj 267 332 * 1;
#X obj 263 129 mtof;
#X obj 266 99 * 127;
#X obj 263 152 / 8.175;
#X obj 263 175 t b f;
#X obj 270 369 outlet;
#X obj 130 253 max 20;
#X connect 0 0 6 0;
#X connect 1 0 12 0;
#X connect 2 0 3 0;
#X connect 3 0 4 0;
#X connect 4 0 7 0;
#X connect 5 0 8 0;
#X connect 6 0 7 0;
#X connect 6 1 7 1;
#X connect 7 0 5 0;
#X connect 8 0 16 0;
#X connect 9 0 2 0;
#X connect 10 0 15 0;
#X connect 11 0 13 0;
#X connect 12 0 11 0;
#X connect 13 0 14 0;
#X connect 14 0 10 0;
#X connect 14 1 10 1;
#X connect 16 0 10 0;
#X restore 306 192 pd clk-rate/BPM;
#N canvas 0 32 1920 994 tap 0;
#X obj 135 77 timer;
#X obj 135 51 t b b;
#X obj 99 147 -;
#X obj 135 98 moses 2000;
#X obj 99 171 abs;
#X obj 97 193 / 1;
#X obj 96 215 > 0.01;
#X obj 239 263 f;
#X text 266 244 reset BPM value;
#X obj 159 263 f;
#X obj 108 121 t f f f;
#X obj 96 235 select 0 1;
#X obj 240 305 f;
#X obj 159 285 * 0.3;
#X obj 149 374 +;
#X obj 203 376 * 0.7;
#X obj 248 330 t f f;
#X obj 312 395 outlet;
#X obj 131 16 inlet;
#X obj 300 370 /;
#X msg 334 337 60000 \$1;
#X connect 0 0 3 0;
#X connect 1 0 0 0;
#X connect 1 1 0 1;
#X connect 2 0 4 0;
#X connect 3 0 10 0;
#X connect 4 0 5 0;
#X connect 5 0 6 0;
#X connect 6 0 11 0;
#X connect 7 0 12 0;
#X connect 9 0 13 0;
#X connect 10 0 2 0;
#X connect 10 1 9 1;
#X connect 10 2 7 1;
#X connect 11 0 9 0;
#X connect 11 1 7 0;
#X connect 12 0 16 0;
#X connect 13 0 14 0;
#X connect 14 0 12 0;
#X connect 15 0 14 1;
#X connect 16 0 15 0;
#X connect 16 1 20 0;
#X connect 18 0 1 0;
#X connect 19 0 17 0;
#X connect 20 0 19 0;
#X restore 493 367 pd tap;
#X obj 352 554 r \$0-clock-on/off-s;
#X obj 328 583 spigot;
#X obj 460 392 t b f;
#X obj 502 506 s \$0-bpm-r;
#X obj 528 222 r \$0-tap-snd;
#X obj 201 107 cnv 5 5 5 empty empty GATE 0 0 0 8 #fcfcfc #dc4c90 0;
#X text 497 38 ON/OFF trigger INPUT;
#X obj 674 57 inlet~;
#X text 677 38 ON/OFF gate INPUT;
#X obj 665 149 snapshot~;
#X obj 704 83 env~;
#X obj 701 128 t b;
#X obj 701 103 change;
#X obj 665 171 > 0;
#X obj 320 612 bng 18 250 50 0 empty empty empty 0 -9 0 10 #fcfcfc #000000 #000000;
#X obj 607 189 change;
#X obj 521 140 r \$0-clock-on/off-r;
#X msg 521 162 1;
#X obj 508 332 t b b;
#X obj 487 447 + 1;
#X obj 495 475 int;
#X obj 269 224 t a a;
#X obj 88 343 int;
#X obj 84 313 + 0.5;
#X obj 1034 118 metro 150;
#X obj 1031 83 loadbang;
#X obj 1034 141 s \$0-gui-refresh;
#X obj 79 216 r \$0-gui-refresh;
#X obj 85 255 f;
#X connect 1 0 35 0;
#X connect 2 0 6 0;
#X connect 7 0 20 0;
#X connect 7 0 26 0;
#X connect 8 0 19 0;
#X connect 9 0 49 0;
#X connect 13 0 15 0;
#X connect 15 0 17 0;
#X connect 17 0 14 0;
#X connect 19 0 0 0;
#X connect 20 0 22 0;
#X connect 21 0 9 0;
#X connect 22 0 21 0;
#X connect 23 0 2 0;
#X connect 26 0 9 0;
#X connect 28 0 29 0;
#X connect 29 0 28 0;
#X connect 29 1 28 1;
#X connect 31 0 1 0;
#X connect 35 0 23 0;
#X connect 35 1 39 0;
#X connect 35 2 36 0;
#X connect 35 3 38 0;
#X connect 37 0 69 0;
#X connect 38 0 37 1;
#X connect 39 0 37 1;
#X connect 41 0 47 0;
#X connect 41 0 44 0;
#X connect 43 0 49 1;
#X connect 44 0 46 0;
#X connect 45 0 43 0;
#X connect 46 0 45 0;
#X connect 47 0 43 0;
#X connect 49 0 72 0;
#X connect 50 0 53 0;
#X connect 51 0 52 1;
#X connect 52 0 1 0;
#X connect 52 0 65 0;
#X connect 53 1 70 0;
#X connect 55 0 37 0;
#X connect 58 0 61 0;
#X connect 58 0 60 0;
#X connect 60 0 64 0;
#X connect 61 0 63 0;
#X connect 62 0 60 0;
#X connect 63 0 62 0;
#X connect 64 0 66 0;
#X connect 66 0 0 0;
#X connect 67 0 68 0;
#X connect 68 0 66 0;
#X connect 69 0 50 0;
#X connect 69 1 52 0;
#X connect 70 0 71 0;
#X connect 71 0 54 0;
#X connect 72 0 79 1;
#X connect 72 1 1 1;
#X connect 73 0 4 0;
#X connect 74 0 73 0;
#X connect 75 0 77 0;
#X connect 76 0 75 0;
#X connect 78 0 79 0;
#X connect 79 0 74 0;
#X connect 79 0 40 0;
#X coords 0 -1 1 1 175 75 2 99 101;
