#N canvas 0 23 1226 700 10;
#N canvas 667 172 450 300 allpass 0;
#X obj 57 71 inlet~;
#X obj 57 132 rzero_rev~;
#X obj 57 154 rpole~;
#X obj 57 185 outlet~;
#X obj 102 30 inlet;
#X obj 102 100 / 100;
#X obj 102 65 clip -1 1;
#X connect 0 0 1 0;
#X connect 1 0 2 0;
#X connect 2 0 3 0;
#X connect 4 0 6 0;
#X connect 5 0 1 1;
#X connect 5 0 2 1;
#X connect 6 0 5 0;
#X restore 438 259 pd allpass;
#N canvas 0 22 793 555 comb_filter1 0;
#X obj 195 157 inlet~;
#X obj 197 510 delwrite~ \$0-comb1 100;
#X obj 365 300 vd~ \$0-comb1;
#X obj 365 126 inlet;
#X obj 365 148 / 127;
#X obj 365 192 + 1;
#X obj 365 214 sig~;
#X obj 365 506 outlet~;
#X obj 456 356 *~;
#X obj 472 158 inlet;
#X obj 472 182 / 127;
#X obj 472 253 pack 0 50;
#X obj 472 275 line~;
#X obj 472 297 min~ 0.9;
#X text 454 141 FEEDBACK;
#X text 365 106 DELAY;
#X text 193 135 SIGNAL IN;
#X obj 472 226 + 0.5;
#X obj 472 204 * 0.48;
#X obj 571 141 inlet~;
#X obj 365 274 +~;
#X obj 571 163 *~ 99;
#X obj 365 236 lop~ 10;
#X obj 443 25 r \$0-combfilter-comb/dly-s;
#X obj 443 47 sel 0 1;
#X msg 462 113 9;
#X obj 365 170 *;
#X msg 443 83 99;
#X connect 0 0 1 0;
#X connect 2 0 7 0;
#X connect 2 0 8 0;
#X connect 3 0 4 0;
#X connect 4 0 26 0;
#X connect 5 0 6 0;
#X connect 6 0 22 0;
#X connect 8 0 1 0;
#X connect 9 0 10 0;
#X connect 10 0 18 0;
#X connect 11 0 12 0;
#X connect 12 0 13 0;
#X connect 13 0 8 1;
#X connect 17 0 11 0;
#X connect 18 0 17 0;
#X connect 19 0 21 0;
#X connect 20 0 2 0;
#X connect 21 0 20 1;
#X connect 22 0 20 0;
#X connect 23 0 24 0;
#X connect 24 0 27 0;
#X connect 24 0 4 0;
#X connect 24 1 25 0;
#X connect 24 1 4 0;
#X connect 25 0 26 1;
#X connect 26 0 5 0;
#X connect 27 0 26 1;
#X restore 438 130 pd comb_filter1;
#X obj 109 129 hsl 128 15 0 127 0 1 \$0-combfilter-delay-s \$0-combfilter-delay-r
DELAY 133 7 0 10 -262144 -1 -1 9400 1;
#X obj 109 144 hsl 128 15 0 127 0 1 \$0-combfilter-feedback-s \$0-combfilter-feedback-r
FEEDBACK 133 7 0 10 -262144 -1 -1 12700 1;
#N canvas 0 22 793 555 comb_filter2 0;
#X obj 195 112 inlet~;
#X obj 365 79 inlet;
#X obj 365 101 / 127;
#X obj 365 145 + 1;
#X obj 365 167 sig~;
#X obj 365 461 outlet~;
#X obj 456 311 *~;
#X obj 472 113 inlet;
#X obj 472 208 pack 0 50;
#X obj 472 230 line~;
#X obj 472 252 min~ 0.9;
#X text 454 96 FEEDBACK;
#X text 365 59 DELAY;
#X text 193 90 SIGNAL IN;
#X obj 365 255 vd~ \$0-comb2;
#X obj 197 465 delwrite~ \$0-comb2 100;
#X obj 365 189 lop~ 10;
#X obj 472 135 / 127;
#X obj 472 181 + 0.5;
#X obj 472 159 * 0.48;
#X obj 609 175 inlet~;
#X obj 609 197 *~ 99;
#X obj 365 211 +~;
#X obj 443 22 r \$0-combfilter-comb/dly-s;
#X obj 443 44 sel 0 1;
#X msg 463 65 9;
#X msg 421 81 99;
#X obj 365 123 *;
#X connect 0 0 15 0;
#X connect 1 0 2 0;
#X connect 2 0 27 0;
#X connect 3 0 4 0;
#X connect 4 0 16 0;
#X connect 6 0 15 0;
#X connect 7 0 17 0;
#X connect 8 0 9 0;
#X connect 9 0 10 0;
#X connect 10 0 6 1;
#X connect 14 0 5 0;
#X connect 14 0 6 0;
#X connect 16 0 22 0;
#X connect 17 0 19 0;
#X connect 18 0 8 0;
#X connect 19 0 18 0;
#X connect 20 0 21 0;
#X connect 21 0 22 1;
#X connect 22 0 14 0;
#X connect 23 0 24 0;
#X connect 24 0 26 0;
#X connect 24 0 2 0;
#X connect 24 1 25 0;
#X connect 24 1 2 0;
#X connect 25 0 27 1;
#X connect 26 0 27 1;
#X connect 27 0 3 0;
#X restore 541 131 pd comb_filter2;
#N canvas 667 172 450 300 allpass 0;
#X obj 57 71 inlet~;
#X obj 57 132 rzero_rev~;
#X obj 57 154 rpole~;
#X obj 57 185 outlet~;
#X obj 102 30 inlet;
#X obj 102 100 / 100;
#X obj 102 65 clip -1 1;
#X connect 0 0 1 0;
#X connect 1 0 2 0;
#X connect 2 0 3 0;
#X connect 4 0 6 0;
#X connect 5 0 1 1;
#X connect 5 0 2 1;
#X connect 6 0 5 0;
#X restore 438 282 pd allpass;
#X msg 495 207 1;
#X obj 495 182 loadbang;
#X obj 438 16 inlet~;
#X obj 438 368 lop~;
#X obj 438 390 lop~;
#X obj 109 159 hsl 128 15 0 127 0 1 \$0-combfilter-lowpass-s \$0-combfilter-lowpass-r
LOWPASS 133 7 0 10 -262144 -1 -1 11700 1;
#X obj 606 173 / 127;
#X obj 606 195 * 4950;
#X obj 606 217 + 50;
#X obj 606 239 pack 0 50;
#X obj 606 261 line;
#X obj 606 283 t f f;
#X obj 438 506 *~ -1;
#X obj 495 233 t f f;
#X obj 81 486 *~;
#X obj 438 482 *~;
#X obj 109 204 hsl 128 15 0 127 0 1 \$0-combfilter-dry/wet-s \$0-combfilter-dry/wet-r
DRY/WET 133 7 0 10 -262144 -1 -1 8200 1;
#X obj 44 279 t f f;
#X msg 44 301 127 \$1;
#X obj 44 323 -;
#X obj 44 345 / 127;
#X obj 44 367 pack 0 50;
#X obj 44 389 line~;
#X obj 248 420 / 127;
#X obj 248 442 pack 0 50;
#X obj 248 464 line~;
#X obj 438 346 hip~ 5;
#X obj 81 516 hip~ 5;
#X obj 439 534 min~ 1;
#X obj 439 556 max~ -1;
#X obj 439 614 outlet~;
#X obj 109 189 hsl 128 15 1.27 127 1 1 \$0-combfilter-drive-s \$0-combfilter-drive-r
DRIVE 133 7 0 10 -262144 -1 -1 6600 1;
#X obj 245 305 / 127;
#X obj 245 371 pack 0 50;
#X obj 245 393 line~;
#X obj 438 310 *~;
#X obj 245 349 + 0.25;
#X obj 245 327 * 4.75;
#X obj 273 108 cnv 5 5 5 empty empty DELAY 0 0 0 8 -262144 -66577 0
;
#X obj 105 122 cnv 5 5 5 empty empty COMBFILTER 0 0 0 12 -262144 -66577
0;
#X obj 438 210 *~ 0.5;
#X obj 601 78 t f f;
#X obj 109 174 hsl 128 15 1.27 127 1 1 \$0-combfilter-highpass-s \$0-combfilter-highpass-r
HIGHPASS 133 7 0 10 -262144 -1 -1 5800 1;
#X obj 438 412 hip~;
#X obj 438 434 hip~;
#X obj 719 192 / 127;
#X obj 719 214 * 4950;
#X obj 719 236 + 50;
#X obj 719 258 pack 0 50;
#X obj 719 280 line;
#X obj 719 302 t f f;
#X obj 774 75 inlet~;
#X obj 104 108 cnv 5 5 5 empty empty IN 0 0 0 8 -262144 -66577 0;
#N canvas 315 35 593 735 state-saving-multiple-instances 0;
#X obj 137 29 loadbang;
#X obj 184 452 textfile;
#X msg 454 435 rewind;
#X msg 411 435 bang;
#X obj 42 691 textfile;
#X obj 411 396 t b b;
#X obj 43 357 f;
#X obj 56 580 f;
#X obj -16 401 t b b b;
#X msg 119 580 clear;
#X obj 204 217 outlet;
#X text 246 221 INSTANCE NUMBER;
#X obj 165 153 f \$1;
#X obj 165 189 t f f f;
#X obj 138 62 t b b;
#X msg 184 427 read statesave/\$1-combfilter-ss.txt;
#X msg 55 651 write statesave/\$1-combfilter-ss.txt;
#X obj 58 254 r \$0-combfilter-delay-s;
#X obj 66 277 r \$0-combfilter-feedback-s;
#X obj 80 298 r \$0-combfilter-lowpass-s;
#X obj 98 323 r \$0-combfilter-highpass-s;
#X obj 118 348 r \$0-combfilter-drive-s;
#X obj 136 369 r \$0-combfilter-dry/wet-s;
#X obj 184 627 s \$0-combfilter-delay-r;
#X obj 205 603 s \$0-combfilter-feedback-r;
#X obj 226 579 s \$0-combfilter-lowpass-r;
#X obj 247 555 s \$0-combfilter-highpass-r;
#X obj -16 378 bng 15 250 50 0 empty empty empty 17 7 0 10 -262144
-1 -1;
#X obj 289 505 s \$0-combfilter-dry/wet-r;
#X obj 268 529 s \$0-combfilter-drive-r;
#X obj -16 234 r SAVE-S;
#X obj 43 400 pack f f f f f f f;
#X msg 43 438 set \$1 \$2 \$3 \$4 \$5 \$6 \$7;
#X obj 184 474 unpack f f f f f f f;
#X obj 302 322 r \$0-combfilter-comb/dly-s;
#X obj 327 476 s \$0-combfilter-comb/dly-r;
#X connect 0 0 14 0;
#X connect 1 0 33 0;
#X connect 2 0 1 0;
#X connect 3 0 1 0;
#X connect 5 0 3 0;
#X connect 5 1 2 0;
#X connect 6 0 31 0;
#X connect 7 0 16 0;
#X connect 8 0 7 0;
#X connect 8 1 6 0;
#X connect 8 2 9 0;
#X connect 9 0 4 0;
#X connect 12 0 13 0;
#X connect 13 0 7 1;
#X connect 13 1 15 0;
#X connect 13 2 10 0;
#X connect 14 0 5 0;
#X connect 14 1 12 0;
#X connect 15 0 1 0;
#X connect 16 0 4 0;
#X connect 17 0 6 1;
#X connect 18 0 31 1;
#X connect 19 0 31 2;
#X connect 20 0 31 3;
#X connect 21 0 31 4;
#X connect 22 0 31 5;
#X connect 27 0 8 0;
#X connect 30 0 27 0;
#X connect 31 0 32 0;
#X connect 32 0 4 0;
#X connect 33 0 23 0;
#X connect 33 1 24 0;
#X connect 33 2 25 0;
#X connect 33 3 26 0;
#X connect 33 4 29 0;
#X connect 33 5 28 0;
#X connect 33 6 35 0;
#X connect 34 0 31 6;
#X restore 803 238 pd state-saving-multiple-instances;
#X obj 485 47 r \$0-combfilter-delay-s;
#X obj 485 69 t f f;
#X text 772 52 DELAY CV IN;
#X obj 439 578 *~ 1;
#X obj 803 309 s \$0-instance-num;
#X obj 803 261 makefilename %d;
#X obj 186 122 cnv 5 5 5 empty \$0-instance-num 1 0 0 0 12 -262144
-66577 0;
#X msg 803 286 label \$1;
#N canvas 318 22 1126 739 state-saving-via-preset-manager-module 0
;
#X obj 340 227 textfile;
#X msg 719 210 rewind;
#X msg 676 210 bang;
#X obj 106 568 textfile;
#X obj 676 171 t b b;
#X obj 107 234 f;
#X obj 120 457 f;
#X obj 53 352 t b b b;
#X msg 236 499 clear;
#X obj 107 56 delay 5;
#X obj 53 407 delay 10;
#X msg 53 192 bang;
#X obj 53 26 r STORE-S!;
#X obj 340 128 f;
#X obj 313 85 t b b;
#X obj 327 59 t b f;
#X obj 385 146 f \$1;
#X obj 340 173 pack f f;
#X obj 385 96 loadbang;
#X obj 120 487 pack f f;
#X obj 165 440 loadbang;
#X obj 165 462 f \$1;
#X obj 328 8 r preset-manager-scan;
#X obj 135 418 r preset-manager-store-slot;
#X msg 119 528 write statesave/\$1-\$2-combfilter-ss.txt;
#X msg 340 202 read statesave/\$1-\$2-combfilter-ss.txt;
#X obj 123 78 r \$0-combfilter-delay-s;
#X obj 345 714 s \$0-combfilter-delay-r;
#X obj 136 107 r \$0-combfilter-feedback-s;
#X obj 366 617 s \$0-combfilter-feedback-r;
#X obj 146 146 r \$0-combfilter-lowpass-s;
#X obj 384 517 s \$0-combfilter-lowpass-r;
#X obj 169 173 r \$0-combfilter-highpass-s;
#X obj 190 209 r \$0-combfilter-drive-s;
#X obj 207 237 r \$0-combfilter-dry/wet-s;
#X obj 328 30 i;
#X obj 400 414 s \$0-combfilter-highpass-r;
#X obj 561 697 s \$0-combfilter-drive-r;
#X obj 616 474 s \$0-combfilter-dry/wet-r;
#X msg 106 368 set \$1 \$2 \$3 \$4 \$5 \$6 \$7;
#X obj 107 301 pack f f f f f f f;
#X obj 230 276 r \$0-combfilter-comb/dly-s;
#X obj 340 249 unpack f f f f f f f;
#X obj 654 315 s \$0-combfilter-comb/dly-r;
#N canvas 0 22 1069 747 morph-parameters 0;
#X obj 176 94 inlet;
#X obj 176 236 pack f f;
#X obj 176 261 line;
#X obj 209 117 r preset-manager-morph-s;
#X msg 72 244 stop;
#X obj 72 214 r STOP-MORPH!;
#X obj 209 206 spigot;
#X obj 398 137 t f f;
#X obj 455 154 == 0;
#X obj 221 176 f;
#X floatatom 455 222 5 0 0 0 - - -, f 5;
#X obj 398 159 t b f;
#X floatatom 425 192 5 0 0 0 - - -, f 5;
#X obj 209 139 t f f;
#X obj 398 102 r parameters-s;
#X obj 176 288 outlet;
#X connect 0 0 1 0;
#X connect 1 0 2 0;
#X connect 2 0 15 0;
#X connect 3 0 13 0;
#X connect 4 0 2 0;
#X connect 5 0 4 0;
#X connect 6 0 1 1;
#X connect 7 0 11 0;
#X connect 7 1 8 0;
#X connect 8 0 10 0;
#X connect 9 0 6 0;
#X connect 10 0 1 1;
#X connect 11 0 9 0;
#X connect 11 1 12 0;
#X connect 12 0 6 1;
#X connect 13 0 6 0;
#X connect 13 1 9 1;
#X connect 14 0 7 0;
#X restore 345 689 pd morph-parameters;
#N canvas 0 22 1069 747 morph-parameters 0;
#X obj 176 94 inlet;
#X obj 176 236 pack f f;
#X obj 176 261 line;
#X obj 209 117 r preset-manager-morph-s;
#X msg 72 244 stop;
#X obj 72 214 r STOP-MORPH!;
#X obj 209 206 spigot;
#X obj 398 137 t f f;
#X obj 455 154 == 0;
#X obj 221 176 f;
#X floatatom 455 222 5 0 0 0 - - -, f 5;
#X obj 398 159 t b f;
#X floatatom 425 192 5 0 0 0 - - -, f 5;
#X obj 209 139 t f f;
#X obj 398 102 r parameters-s;
#X obj 176 288 outlet;
#X connect 0 0 1 0;
#X connect 1 0 2 0;
#X connect 2 0 15 0;
#X connect 3 0 13 0;
#X connect 4 0 2 0;
#X connect 5 0 4 0;
#X connect 6 0 1 1;
#X connect 7 0 11 0;
#X connect 7 1 8 0;
#X connect 8 0 10 0;
#X connect 9 0 6 0;
#X connect 10 0 1 1;
#X connect 11 0 9 0;
#X connect 11 1 12 0;
#X connect 12 0 6 1;
#X connect 13 0 6 0;
#X connect 13 1 9 1;
#X connect 14 0 7 0;
#X restore 365 591 pd morph-parameters;
#N canvas 0 22 1069 747 morph-parameters 0;
#X obj 176 94 inlet;
#X obj 176 236 pack f f;
#X obj 176 261 line;
#X obj 209 117 r preset-manager-morph-s;
#X msg 72 244 stop;
#X obj 72 214 r STOP-MORPH!;
#X obj 209 206 spigot;
#X obj 398 137 t f f;
#X obj 455 154 == 0;
#X obj 221 176 f;
#X floatatom 455 222 5 0 0 0 - - -, f 5;
#X obj 398 159 t b f;
#X floatatom 425 192 5 0 0 0 - - -, f 5;
#X obj 209 139 t f f;
#X obj 398 102 r parameters-s;
#X obj 176 288 outlet;
#X connect 0 0 1 0;
#X connect 1 0 2 0;
#X connect 2 0 15 0;
#X connect 3 0 13 0;
#X connect 4 0 2 0;
#X connect 5 0 4 0;
#X connect 6 0 1 1;
#X connect 7 0 11 0;
#X connect 7 1 8 0;
#X connect 8 0 10 0;
#X connect 9 0 6 0;
#X connect 10 0 1 1;
#X connect 11 0 9 0;
#X connect 11 1 12 0;
#X connect 12 0 6 1;
#X connect 13 0 6 0;
#X connect 13 1 9 1;
#X connect 14 0 7 0;
#X restore 383 489 pd morph-parameters;
#N canvas 0 22 1069 747 morph-parameters 0;
#X obj 176 94 inlet;
#X obj 176 236 pack f f;
#X obj 176 261 line;
#X obj 209 117 r preset-manager-morph-s;
#X msg 72 244 stop;
#X obj 72 214 r STOP-MORPH!;
#X obj 209 206 spigot;
#X obj 398 137 t f f;
#X obj 455 154 == 0;
#X obj 221 176 f;
#X floatatom 455 222 5 0 0 0 - - -, f 5;
#X obj 398 159 t b f;
#X floatatom 425 192 5 0 0 0 - - -, f 5;
#X obj 209 139 t f f;
#X obj 398 102 r parameters-s;
#X obj 176 288 outlet;
#X connect 0 0 1 0;
#X connect 1 0 2 0;
#X connect 2 0 15 0;
#X connect 3 0 13 0;
#X connect 4 0 2 0;
#X connect 5 0 4 0;
#X connect 6 0 1 1;
#X connect 7 0 11 0;
#X connect 7 1 8 0;
#X connect 8 0 10 0;
#X connect 9 0 6 0;
#X connect 10 0 1 1;
#X connect 11 0 9 0;
#X connect 11 1 12 0;
#X connect 12 0 6 1;
#X connect 13 0 6 0;
#X connect 13 1 9 1;
#X connect 14 0 7 0;
#X restore 399 389 pd morph-parameters;
#N canvas 0 22 1069 747 morph-parameters 0;
#X obj 176 94 inlet;
#X obj 176 236 pack f f;
#X obj 176 261 line;
#X obj 209 117 r preset-manager-morph-s;
#X msg 72 244 stop;
#X obj 72 214 r STOP-MORPH!;
#X obj 209 206 spigot;
#X obj 398 137 t f f;
#X obj 455 154 == 0;
#X obj 221 176 f;
#X floatatom 455 222 5 0 0 0 - - -, f 5;
#X obj 398 159 t b f;
#X floatatom 425 192 5 0 0 0 - - -, f 5;
#X obj 209 139 t f f;
#X obj 398 102 r parameters-s;
#X obj 176 288 outlet;
#X connect 0 0 1 0;
#X connect 1 0 2 0;
#X connect 2 0 15 0;
#X connect 3 0 13 0;
#X connect 4 0 2 0;
#X connect 5 0 4 0;
#X connect 6 0 1 1;
#X connect 7 0 11 0;
#X connect 7 1 8 0;
#X connect 8 0 10 0;
#X connect 9 0 6 0;
#X connect 10 0 1 1;
#X connect 11 0 9 0;
#X connect 11 1 12 0;
#X connect 12 0 6 1;
#X connect 13 0 6 0;
#X connect 13 1 9 1;
#X connect 14 0 7 0;
#X restore 560 670 pd morph-parameters;
#N canvas 0 22 1069 747 morph-parameters 0;
#X obj 176 94 inlet;
#X obj 176 236 pack f f;
#X obj 176 261 line;
#X obj 209 117 r preset-manager-morph-s;
#X msg 72 244 stop;
#X obj 72 214 r STOP-MORPH!;
#X obj 209 206 spigot;
#X obj 398 137 t f f;
#X obj 455 154 == 0;
#X obj 221 176 f;
#X floatatom 455 222 5 0 0 0 - - -, f 5;
#X obj 398 159 t b f;
#X floatatom 425 192 5 0 0 0 - - -, f 5;
#X obj 209 139 t f f;
#X obj 398 102 r parameters-s;
#X obj 176 288 outlet;
#X connect 0 0 1 0;
#X connect 1 0 2 0;
#X connect 2 0 15 0;
#X connect 3 0 13 0;
#X connect 4 0 2 0;
#X connect 5 0 4 0;
#X connect 6 0 1 1;
#X connect 7 0 11 0;
#X connect 7 1 8 0;
#X connect 8 0 10 0;
#X connect 9 0 6 0;
#X connect 10 0 1 1;
#X connect 11 0 9 0;
#X connect 11 1 12 0;
#X connect 12 0 6 1;
#X connect 13 0 6 0;
#X connect 13 1 9 1;
#X connect 14 0 7 0;
#X restore 615 447 pd morph-parameters;
#X connect 0 0 42 0;
#X connect 1 0 0 0;
#X connect 2 0 0 0;
#X connect 4 0 2 0;
#X connect 4 1 1 0;
#X connect 5 0 40 0;
#X connect 6 0 19 0;
#X connect 7 0 10 0;
#X connect 7 1 9 0;
#X connect 7 2 8 0;
#X connect 8 0 3 0;
#X connect 9 0 5 0;
#X connect 10 0 6 0;
#X connect 11 0 7 0;
#X connect 12 0 11 0;
#X connect 13 0 17 0;
#X connect 14 0 4 0;
#X connect 14 1 13 0;
#X connect 15 0 14 0;
#X connect 15 1 13 1;
#X connect 16 0 17 1;
#X connect 17 0 25 0;
#X connect 18 0 16 0;
#X connect 19 0 24 0;
#X connect 20 0 21 0;
#X connect 21 0 19 1;
#X connect 22 0 35 0;
#X connect 23 0 6 1;
#X connect 24 0 3 0;
#X connect 25 0 0 0;
#X connect 26 0 5 1;
#X connect 28 0 40 1;
#X connect 30 0 40 2;
#X connect 32 0 40 3;
#X connect 33 0 40 4;
#X connect 34 0 40 5;
#X connect 35 0 15 0;
#X connect 39 0 3 0;
#X connect 40 0 39 0;
#X connect 41 0 40 6;
#X connect 42 0 44 0;
#X connect 42 1 45 0;
#X connect 42 2 46 0;
#X connect 42 3 47 0;
#X connect 42 4 48 0;
#X connect 42 5 49 0;
#X connect 42 6 43 0;
#X connect 44 0 27 0;
#X connect 45 0 29 0;
#X connect 46 0 31 0;
#X connect 47 0 36 0;
#X connect 48 0 37 0;
#X connect 49 0 38 0;
#X restore 803 216 pd state-saving-via-preset-manager-module;
#N canvas 297 27 683 471 parameter-nudging-system 0;
#X obj 21 171 clip 0 127;
#X obj 196 171 clip 0 127;
#X obj 23 67 clip 0 127;
#X obj 171 67 clip 0 127;
#X obj 342 70 clip 0 127;
#X obj 23 22 r \$0-combfilter-delay-s;
#X obj 23 95 s \$0-combfilter-delay-r;
#X obj 171 22 r \$0-combfilter-feedback-s;
#X obj 171 95 s \$0-combfilter-feedback-r;
#X obj 342 23 r \$0-combfilter-lowpass-s;
#X obj 342 96 s \$0-combfilter-lowpass-r;
#X obj 21 126 r \$0-combfilter-highpass-s;
#X obj 20 197 s \$0-combfilter-highpass-r;
#X obj 196 126 r \$0-combfilter-drive-s;
#X obj 196 197 s \$0-combfilter-drive-r;
#X obj 348 171 clip 0 127;
#X obj 348 126 r \$0-combfilter-dry/wet-s;
#X obj 348 197 s \$0-combfilter-dry/wet-r;
#N canvas 0 22 484 497 nudge-parameters 0;
#X obj 124 234 random;
#X obj 232 335 f;
#X obj 232 368 +;
#X obj 257 166 random 2;
#X obj 124 275 t f f;
#X obj 124 351 t b f;
#X obj 124 297 *;
#X obj 257 188 sel 0 1;
#X msg 257 280 -1;
#X msg 335 280 1;
#X obj 124 149 t b b b;
#X obj 124 74 r NUDGE!;
#X obj 157 193 r NUDGE-RANGE;
#X obj 247 308 inlet;
#X obj 232 397 outlet;
#X obj 124 96 spigot;
#X obj 185 79 r parameters2-s;
#X connect 0 0 4 0;
#X connect 1 0 2 0;
#X connect 2 0 14 0;
#X connect 3 0 7 0;
#X connect 4 0 6 0;
#X connect 5 0 2 0;
#X connect 5 1 2 1;
#X connect 6 0 5 0;
#X connect 7 0 8 0;
#X connect 7 1 9 0;
#X connect 8 0 6 1;
#X connect 9 0 6 1;
#X connect 10 0 0 0;
#X connect 10 1 1 0;
#X connect 10 2 3 0;
#X connect 11 0 15 0;
#X connect 12 0 0 1;
#X connect 13 0 1 1;
#X connect 15 0 10 0;
#X connect 16 0 15 1;
#X restore 342 46 pd nudge-parameters;
#N canvas 0 22 484 497 nudge-parameters 0;
#X obj 124 234 random;
#X obj 232 335 f;
#X obj 232 368 +;
#X obj 257 166 random 2;
#X obj 124 275 t f f;
#X obj 124 351 t b f;
#X obj 124 297 *;
#X obj 257 188 sel 0 1;
#X msg 257 280 -1;
#X msg 335 280 1;
#X obj 124 149 t b b b;
#X obj 124 74 r NUDGE!;
#X obj 157 193 r NUDGE-RANGE;
#X obj 247 308 inlet;
#X obj 232 397 outlet;
#X obj 124 96 spigot;
#X obj 185 79 r parameters2-s;
#X connect 0 0 4 0;
#X connect 1 0 2 0;
#X connect 2 0 14 0;
#X connect 3 0 7 0;
#X connect 4 0 6 0;
#X connect 5 0 2 0;
#X connect 5 1 2 1;
#X connect 6 0 5 0;
#X connect 7 0 8 0;
#X connect 7 1 9 0;
#X connect 8 0 6 1;
#X connect 9 0 6 1;
#X connect 10 0 0 0;
#X connect 10 1 1 0;
#X connect 10 2 3 0;
#X connect 11 0 15 0;
#X connect 12 0 0 1;
#X connect 13 0 1 1;
#X connect 15 0 10 0;
#X connect 16 0 15 1;
#X restore 22 44 pd nudge-parameters;
#N canvas 0 22 484 497 nudge-parameters 0;
#X obj 124 234 random;
#X obj 232 335 f;
#X obj 232 368 +;
#X obj 257 166 random 2;
#X obj 124 275 t f f;
#X obj 124 351 t b f;
#X obj 124 297 *;
#X obj 257 188 sel 0 1;
#X msg 257 280 -1;
#X msg 335 280 1;
#X obj 124 149 t b b b;
#X obj 124 74 r NUDGE!;
#X obj 157 193 r NUDGE-RANGE;
#X obj 247 308 inlet;
#X obj 232 397 outlet;
#X obj 124 96 spigot;
#X obj 185 79 r parameters2-s;
#X connect 0 0 4 0;
#X connect 1 0 2 0;
#X connect 2 0 14 0;
#X connect 3 0 7 0;
#X connect 4 0 6 0;
#X connect 5 0 2 0;
#X connect 5 1 2 1;
#X connect 6 0 5 0;
#X connect 7 0 8 0;
#X connect 7 1 9 0;
#X connect 8 0 6 1;
#X connect 9 0 6 1;
#X connect 10 0 0 0;
#X connect 10 1 1 0;
#X connect 10 2 3 0;
#X connect 11 0 15 0;
#X connect 12 0 0 1;
#X connect 13 0 1 1;
#X connect 15 0 10 0;
#X connect 16 0 15 1;
#X restore 174 45 pd nudge-parameters;
#N canvas 0 22 484 497 nudge-parameters 0;
#X obj 124 234 random;
#X obj 232 335 f;
#X obj 232 368 +;
#X obj 257 166 random 2;
#X obj 124 275 t f f;
#X obj 124 351 t b f;
#X obj 124 297 *;
#X obj 257 188 sel 0 1;
#X msg 257 280 -1;
#X msg 335 280 1;
#X obj 124 149 t b b b;
#X obj 124 74 r NUDGE!;
#X obj 157 193 r NUDGE-RANGE;
#X obj 247 308 inlet;
#X obj 232 397 outlet;
#X obj 124 96 spigot;
#X obj 185 79 r parameters2-s;
#X connect 0 0 4 0;
#X connect 1 0 2 0;
#X connect 2 0 14 0;
#X connect 3 0 7 0;
#X connect 4 0 6 0;
#X connect 5 0 2 0;
#X connect 5 1 2 1;
#X connect 6 0 5 0;
#X connect 7 0 8 0;
#X connect 7 1 9 0;
#X connect 8 0 6 1;
#X connect 9 0 6 1;
#X connect 10 0 0 0;
#X connect 10 1 1 0;
#X connect 10 2 3 0;
#X connect 11 0 15 0;
#X connect 12 0 0 1;
#X connect 13 0 1 1;
#X connect 15 0 10 0;
#X connect 16 0 15 1;
#X restore 357 147 pd nudge-parameters;
#N canvas 0 22 484 497 nudge-parameters 0;
#X obj 124 234 random;
#X obj 232 335 f;
#X obj 232 368 +;
#X obj 257 166 random 2;
#X obj 124 275 t f f;
#X obj 124 351 t b f;
#X obj 124 297 *;
#X obj 257 188 sel 0 1;
#X msg 257 280 -1;
#X msg 335 280 1;
#X obj 124 149 t b b b;
#X obj 124 74 r NUDGE!;
#X obj 157 193 r NUDGE-RANGE;
#X obj 247 308 inlet;
#X obj 232 397 outlet;
#X obj 124 96 spigot;
#X obj 185 79 r parameters2-s;
#X connect 0 0 4 0;
#X connect 1 0 2 0;
#X connect 2 0 14 0;
#X connect 3 0 7 0;
#X connect 4 0 6 0;
#X connect 5 0 2 0;
#X connect 5 1 2 1;
#X connect 6 0 5 0;
#X connect 7 0 8 0;
#X connect 7 1 9 0;
#X connect 8 0 6 1;
#X connect 9 0 6 1;
#X connect 10 0 0 0;
#X connect 10 1 1 0;
#X connect 10 2 3 0;
#X connect 11 0 15 0;
#X connect 12 0 0 1;
#X connect 13 0 1 1;
#X connect 15 0 10 0;
#X connect 16 0 15 1;
#X restore 21 147 pd nudge-parameters;
#N canvas 0 22 484 497 nudge-parameters 0;
#X obj 124 234 random;
#X obj 232 335 f;
#X obj 232 368 +;
#X obj 257 166 random 2;
#X obj 124 275 t f f;
#X obj 124 351 t b f;
#X obj 124 297 *;
#X obj 257 188 sel 0 1;
#X msg 257 280 -1;
#X msg 335 280 1;
#X obj 124 149 t b b b;
#X obj 124 74 r NUDGE!;
#X obj 157 193 r NUDGE-RANGE;
#X obj 247 308 inlet;
#X obj 232 397 outlet;
#X obj 124 96 spigot;
#X obj 185 79 r parameters2-s;
#X connect 0 0 4 0;
#X connect 1 0 2 0;
#X connect 2 0 14 0;
#X connect 3 0 7 0;
#X connect 4 0 6 0;
#X connect 5 0 2 0;
#X connect 5 1 2 1;
#X connect 6 0 5 0;
#X connect 7 0 8 0;
#X connect 7 1 9 0;
#X connect 8 0 6 1;
#X connect 9 0 6 1;
#X connect 10 0 0 0;
#X connect 10 1 1 0;
#X connect 10 2 3 0;
#X connect 11 0 15 0;
#X connect 12 0 0 1;
#X connect 13 0 1 1;
#X connect 15 0 10 0;
#X connect 16 0 15 1;
#X restore 173 148 pd nudge-parameters;
#X connect 0 0 12 0;
#X connect 1 0 14 0;
#X connect 2 0 6 0;
#X connect 3 0 8 0;
#X connect 4 0 10 0;
#X connect 5 0 19 0;
#X connect 7 0 20 0;
#X connect 9 0 18 0;
#X connect 11 0 22 0;
#X connect 13 0 23 0;
#X connect 15 0 17 0;
#X connect 16 0 21 0;
#X connect 18 0 4 0;
#X connect 19 0 2 0;
#X connect 20 0 3 0;
#X connect 21 0 15 0;
#X connect 22 0 0 0;
#X connect 23 0 1 0;
#X restore 803 195 pd parameter-nudging-system;
#X obj 224 114 tgl 15 1 \$0-combfilter-comb/dly-s \$0-combfilter-comb/dly-r
COMB 17 7 0 10 -262144 -1 -1 1 1;
#X obj 733 479 r \$0-combfilter-comb/dly-s;
#X obj 733 501 sel 0 1;
#X obj 733 580 s \$0-combfilter-comb/dly-r;
#X msg 763 536 label COMB;
#X msg 733 558 label DELAY;
#N canvas 632 73 749 752 external-messages 0;
#X floatatom 31 705 5 0 0 0 - - -, f 5;
#X obj 30 327 spigot;
#X obj 63 287 tgl 15 0 empty empty empty 17 7 0 10 -262144 -1 -1 0
1;
#X obj 99 271 ==;
#X obj 114 247 f \$1;
#X obj 114 223 loadbang;
#X msg 30 201 \$1 \$2;
#X msg 30 155 symbol \$1;
#X obj 30 179 pack s f;
#X obj 31 684 f;
#X obj 31 632 t b f;
#X obj 31 655 spigot;
#X obj 30 61 unpack s f f;
#X symbolatom 30 93 10 0 0 0 - - -, f 10;
#X obj 63 307 t f f;
#X obj 90 331 s \$0-msg-spigot;
#X obj 79 639 r \$0-msg-spigot;
#X floatatom 68 593 5 0 0 0 - - -, f 5;
#X obj 68 572 f;
#X obj 68 520 t b f;
#X obj 68 543 spigot;
#X obj 116 527 r \$0-msg-spigot;
#X floatatom 232 638 5 0 0 0 - - -, f 5;
#X obj 232 617 f;
#X obj 232 565 t b f;
#X obj 232 588 spigot;
#X obj 280 572 r \$0-msg-spigot;
#X floatatom 269 526 5 0 0 0 - - -, f 5;
#X obj 269 505 f;
#X obj 269 453 t b f;
#X obj 269 476 spigot;
#X obj 317 460 r \$0-msg-spigot;
#X floatatom 453 536 5 0 0 0 - - -, f 5;
#X obj 453 515 f;
#X obj 453 463 t b f;
#X obj 453 486 spigot;
#X obj 501 470 r \$0-msg-spigot;
#X obj 30 13 r combfilter;
#X obj 30 379 route DELAY FEEDBACK LOWPASS HIGHPASS DRIVE DRY/WET;
#X floatatom 554 674 5 0 0 0 - - -, f 5;
#X obj 554 653 f;
#X obj 554 601 t b f;
#X obj 554 624 spigot;
#X obj 602 608 r \$0-msg-spigot;
#X obj 31 725 s \$0-combfilter-delay-r;
#X obj 68 613 s \$0-combfilter-feedback-r;
#X obj 232 658 s \$0-combfilter-lowpass-r;
#X obj 269 546 s \$0-combfilter-highpass-r;
#X obj 453 556 s \$0-combfilter-drive-r;
#X obj 554 694 s \$0-combfilter-dry/wet-r;
#X connect 0 0 44 0;
#X connect 1 0 38 0;
#X connect 2 0 14 0;
#X connect 3 0 2 0;
#X connect 4 0 3 1;
#X connect 5 0 4 0;
#X connect 6 0 1 0;
#X connect 7 0 8 0;
#X connect 8 0 6 0;
#X connect 9 0 0 0;
#X connect 10 0 11 0;
#X connect 10 1 9 1;
#X connect 11 0 9 0;
#X connect 12 0 13 0;
#X connect 12 1 8 1;
#X connect 12 2 3 0;
#X connect 13 0 7 0;
#X connect 14 0 1 1;
#X connect 14 1 15 0;
#X connect 16 0 11 1;
#X connect 17 0 45 0;
#X connect 18 0 17 0;
#X connect 19 0 20 0;
#X connect 19 1 18 1;
#X connect 20 0 18 0;
#X connect 21 0 20 1;
#X connect 22 0 46 0;
#X connect 23 0 22 0;
#X connect 24 0 25 0;
#X connect 24 1 23 1;
#X connect 25 0 23 0;
#X connect 26 0 25 1;
#X connect 27 0 47 0;
#X connect 28 0 27 0;
#X connect 29 0 30 0;
#X connect 29 1 28 1;
#X connect 30 0 28 0;
#X connect 31 0 30 1;
#X connect 32 0 48 0;
#X connect 33 0 32 0;
#X connect 34 0 35 0;
#X connect 34 1 33 1;
#X connect 35 0 33 0;
#X connect 36 0 35 1;
#X connect 37 0 12 0;
#X connect 38 0 10 0;
#X connect 38 1 19 0;
#X connect 38 2 24 0;
#X connect 38 3 29 0;
#X connect 38 4 34 0;
#X connect 38 5 41 0;
#X connect 39 0 49 0;
#X connect 40 0 39 0;
#X connect 41 0 42 0;
#X connect 41 1 40 1;
#X connect 42 0 40 0;
#X connect 43 0 42 1;
#X restore 801 168 pd external-messages;
#X connect 0 0 5 0;
#X connect 1 0 46 0;
#X connect 3 0 47 0;
#X connect 4 0 46 0;
#X connect 5 0 41 0;
#X connect 6 0 19 0;
#X connect 7 0 6 0;
#X connect 8 0 1 0;
#X connect 8 0 4 0;
#X connect 8 0 20 0;
#X connect 9 0 10 0;
#X connect 10 0 49 0;
#X connect 11 0 12 0;
#X connect 12 0 13 0;
#X connect 13 0 14 0;
#X connect 14 0 15 0;
#X connect 15 0 16 0;
#X connect 16 0 17 0;
#X connect 17 0 9 1;
#X connect 17 1 10 1;
#X connect 18 0 34 0;
#X connect 19 0 0 1;
#X connect 19 1 5 1;
#X connect 20 0 33 0;
#X connect 21 0 18 0;
#X connect 22 0 23 0;
#X connect 23 0 24 0;
#X connect 23 1 29 0;
#X connect 24 0 25 0;
#X connect 25 0 26 0;
#X connect 26 0 27 0;
#X connect 27 0 28 0;
#X connect 28 0 20 1;
#X connect 29 0 30 0;
#X connect 30 0 31 0;
#X connect 31 0 21 1;
#X connect 32 0 9 0;
#X connect 33 0 34 0;
#X connect 34 0 35 0;
#X connect 35 0 63 0;
#X connect 37 0 38 0;
#X connect 38 0 43 0;
#X connect 39 0 40 0;
#X connect 40 0 41 1;
#X connect 41 0 32 0;
#X connect 42 0 39 0;
#X connect 43 0 42 0;
#X connect 46 0 0 0;
#X connect 47 0 1 2;
#X connect 47 1 4 2;
#X connect 48 0 51 0;
#X connect 49 0 50 0;
#X connect 50 0 21 0;
#X connect 51 0 52 0;
#X connect 52 0 53 0;
#X connect 53 0 54 0;
#X connect 54 0 55 0;
#X connect 55 0 56 0;
#X connect 56 0 49 1;
#X connect 56 1 50 1;
#X connect 57 0 1 3;
#X connect 59 0 65 0;
#X connect 60 0 61 0;
#X connect 61 0 1 1;
#X connect 61 1 4 1;
#X connect 63 0 36 0;
#X connect 65 0 67 0;
#X connect 67 0 64 0;
#X connect 71 0 72 0;
#X connect 72 0 75 0;
#X connect 72 1 74 0;
#X connect 74 0 73 0;
#X connect 75 0 73 0;
#X coords 0 -1 1 1 200 125 2 100 100;
