#N canvas 253 229 1061 583 12;
#X obj 26 317 select 1;
#X text 489 18 specify desired number of hits per bar;
#X text 315 18 specify length of bar;
#X text 98 315 <-- bang out on each hit. (Silent on rest.);
#X obj 25 112 f;
#X obj 61 112 + 1;
#X obj 25 147 mod \$1;
#X obj 25 51 threshold~ 0.9 0 0.9 0;
#X obj 25 27 inlet~;
#X obj 203 522 bng 10 250 50 0 empty empty empty 17 7 0 10 #fcfcfc #000000 #000000;
#X obj 26 394 vline~;
#X obj 26 420 outlet~;
#X msg 26 369 1 0 \, 0 1 1;
#X obj 205 459 hsl 128 15 1 32 0 1 \$0-length \$0-length-rcv empty -2 -8 0 10 #fcfcfc #000000 #000000 12600 1;
#X obj 317 212 int;
#X floatatom 394 463 3 0 0 0 - - - 0;
#X obj 205 489 hsl 128 15 1 32 0 1 \$0-numhits \$0-numhits-rcv empty -2 -8 0 10 #fcfcfc #000000 #000000 4200 1;
#X obj 520 258 int;
#X floatatom 393 490 3 0 0 0 - - - 0;
#X text 334 456 Length;
#X obj 205 474 hsl 128 15 0 1 0 0 \$0-lenCV \$0-lenCV-rcv empty -2 -8 0 10 #9898dc #000000 #000000 0 1;
#X obj 205 504 hsl 128 15 0 1 0 0 \$0-numCV \$0-numCV-rcv empty -2 -8 0 10 #9898dc #000000 #000000 0 1;
#X obj 317 47 inlet~;
#X obj 520 52 inlet~;
#X obj 795 75 threshold~ 0.9 0 0.9 0;
#X obj 795 51 inlet~;
#X obj 317 103 *;
#X obj 520 189 +;
#X obj 317 158 +;
#X obj 520 111 *;
#X obj 355 102 r \$0-lenCV;
#X obj 559 111 r \$0-numCV;
#X obj 317 132 * 32;
#X obj 520 150 * 32;
#X text 791 24 reset;
#X msg 795 104 0;
#X obj 25 218 *;
#X obj 26 252 %;
#X obj 26 285 <;
#X text 257 427 CV-Len;
#X text 320 427 CV-Num;
#X text 382 427 Reset;
#X text 334 472 CV-Len;
#X text 334 502 CV-Num;
#X obj 317 187 clip 1 32;
#X obj 520 228 clip 1 32;
#X obj 355 158 r \$0-length;
#X obj 558 189 r \$0-numhits;
#X text 21 7 send a trigger to count through the bar;
#N canvas 495 23 585 337 credits 0;
#X text 13 39 Patch by Nick Marcoux;
#X text 13 95 https://nickmarcoux.bandcamp.com/;
#X text 13 135 Euclidean algorithm used was found here:;
#X text 13 155 https://forum.pdpatchrepo.info/topic/5968/euclidean-rhythm-abstraction;
#X text 13 59 Youtube user pd_777: youtube.com/channel/UCYtaa7Qj4C4990yloa0_0jg;
#X restore 19 567 pd credits;
#X obj 513 520 reloaded euclid777 \$0 \$1;
#X obj 553 480 savestate;
#N canvas 0 0 450 300 \$0-gui_listeners 0;
#X obj 10 0 reloaded/hsl_dispatch euclid777 \$0 \$1 0 1 numCV numCV-rcv empty #9898dc #000000 #000000;
#X obj 10 60 reloaded/hsl_dispatch euclid777 \$0 \$1 0 1 lenCV lenCV-rcv empty #9898dc #000000 #000000;
#X obj 10 120 reloaded/hsl_dispatch euclid777 \$0 \$1 1 32 numhits numhits-rcv empty #fcfcfc #000000 #000000;
#X obj 10 180 reloaded/hsl_dispatch euclid777 \$0 \$1 1 32 length length-rcv empty #fcfcfc #000000 #000000;
#X restore 513 550 pd \$0-gui_listeners;
#N canvas 960 0 958 1016 state-saving-multiple-instances 0;
#X obj 215 28 loadbang;
#X obj 261 480 reloaded/textfile \$0;
#X msg 620 443 rewind;
#X msg 577 443 bang;
#X obj 119 690 reloaded/textfile \$0;
#X obj 577 404 t b b;
#X obj 120 356 f;
#X obj 133 579 f;
#X obj 66 422 t b b b;
#X msg 196 579 clear;
#X obj 281 216 outlet;
#X text 277 236 INSTANCE NUMBER;
#X obj 242 92 f \$1;
#X obj 242 128 t f f f;
#X obj 215 61 t b b;
#X obj 66 331 bng 15 250 50 0 empty empty empty 17 7 0 10 #fcfcfc #000000 #000000;
#X obj 66 235 r SAVE-S;
#X obj 257 617 s \$0-length-rcv;
#X obj 282 588 s \$0-lenCV-rcv;
#X obj 312 563 s \$0-numhits-rcv;
#X obj 348 536 s \$0-numCV-rcv;
#X obj 261 502 unpack f f f f;
#X obj 120 399 pack f f f f;
#X msg 261 455 read statesave/\$1-euclid777-ss.txt;
#X msg 132 650 write statesave/\$1-euclid777-ss.txt;
#X msg 107 466 set \$1 \$2 \$3 \$4;
#X obj 141 257 r \$0-length;
#X obj 229 346 r \$0-numCV;
#X obj 201 319 r \$0-numhits;
#X obj 177 286 r \$0-lenCV;
#X connect 0 0 14 0;
#X connect 1 0 21 0;
#X connect 2 0 1 0;
#X connect 3 0 1 0;
#X connect 5 0 3 0;
#X connect 5 1 2 0;
#X connect 6 0 22 0;
#X connect 7 0 24 0;
#X connect 8 0 7 0;
#X connect 8 1 6 0;
#X connect 8 2 9 0;
#X connect 9 0 4 0;
#X connect 12 0 13 0;
#X connect 13 0 7 1;
#X connect 13 1 23 0;
#X connect 13 2 10 0;
#X connect 14 0 5 0;
#X connect 14 1 12 0;
#X connect 15 0 8 0;
#X connect 16 0 15 0;
#X connect 21 0 17 0;
#X connect 21 1 18 0;
#X connect 21 2 19 0;
#X connect 21 3 20 0;
#X connect 22 0 25 0;
#X connect 23 0 1 0;
#X connect 24 0 4 0;
#X connect 25 0 4 0;
#X connect 26 0 6 1;
#X connect 27 0 22 3;
#X connect 28 0 22 2;
#X connect 29 0 22 1;
#X restore 710 299 pd state-saving-multiple-instances;
#X obj 710 370 s \$0-instance-num;
#X obj 710 322 makefilename %d;
#X msg 710 347 label \$1;
#N canvas 0 0 958 1016 state-saving-via-preset-manager-module 0;
#X obj 477 349 reloaded/textfile \$0;
#X msg 755 332 rewind;
#X msg 712 332 bang;
#X obj 243 690 reloaded/textfile \$0;
#X obj 712 293 t b b;
#X obj 244 356 f;
#X obj 257 579 f;
#X obj 190 422 t b b b;
#X msg 320 579 clear;
#X obj 244 264 delay 5;
#X obj 190 484 delay 10;
#X msg 190 314 bang;
#X obj 190 147 r STORE-S!;
#X obj 477 250 f;
#X obj 450 207 t b b;
#X obj 465 171 t b f;
#X obj 522 268 f \$1;
#X obj 477 295 pack f f;
#X obj 522 218 loadbang;
#X obj 257 609 pack f f;
#X obj 302 467 loadbang;
#X obj 302 489 f \$1;
#X obj 465 148 r preset-manager-scan;
#X obj 279 148 r preset-manager-store-slot;
#N canvas 0 22 1069 747 morph-parameters 0;
#X obj 176 94 inlet;
#X obj 176 236 pack f f;
#X obj 176 261 line;
#X obj 209 117 r preset-manager-morph-s;
#X msg 72 244 stop;
#X obj 72 214 r STOP-MORPH!;
#X obj 209 206 spigot;
#X obj 398 137 t f f;
#X obj 455 154 == 0;
#X obj 221 176 f;
#X floatatom 455 222 5 0 0 0 - - - 0;
#X obj 398 159 t b f;
#X floatatom 425 192 5 0 0 0 - - - 0;
#X obj 209 139 t f f;
#X obj 398 102 r parameters-s;
#X obj 176 288 outlet;
#X connect 0 0 1 0;
#X connect 1 0 2 0;
#X connect 2 0 15 0;
#X connect 3 0 13 0;
#X connect 4 0 2 0;
#X connect 5 0 4 0;
#X connect 6 0 1 1;
#X connect 7 0 11 0;
#X connect 7 1 8 0;
#X connect 8 0 10 0;
#X connect 9 0 6 0;
#X connect 10 0 1 1;
#X connect 11 0 9 0;
#X connect 11 1 12 0;
#X connect 12 0 6 1;
#X connect 13 0 6 0;
#X connect 13 1 9 1;
#X connect 14 0 7 0;
#X restore 468 514 pd morph-parameters;
#N canvas 0 22 1069 747 morph-attenuators 0;
#X obj 176 94 inlet;
#X obj 176 236 pack f f;
#X obj 176 261 line;
#X obj 209 117 r preset-manager-morph-s;
#X msg 72 244 stop;
#X obj 72 214 r STOP-MORPH!;
#X obj 209 206 spigot;
#X obj 398 137 t f f;
#X obj 455 154 == 0;
#X obj 221 176 f;
#X floatatom 455 222 5 0 0 0 - - - 0;
#X obj 398 159 t b f;
#X floatatom 425 192 5 0 0 0 - - - 0;
#X obj 209 139 t f f;
#X obj 398 102 r attenuators-s;
#X obj 176 288 outlet;
#X connect 0 0 1 0;
#X connect 1 0 2 0;
#X connect 2 0 15 0;
#X connect 3 0 13 0;
#X connect 4 0 2 0;
#X connect 5 0 4 0;
#X connect 6 0 1 1;
#X connect 7 0 11 0;
#X connect 7 1 8 0;
#X connect 8 0 10 0;
#X connect 9 0 6 0;
#X connect 10 0 1 1;
#X connect 11 0 9 0;
#X connect 11 1 12 0;
#X connect 12 0 6 1;
#X connect 13 0 6 0;
#X connect 13 1 9 1;
#X connect 14 0 7 0;
#X restore 495 488 pd morph-attenuators;
#X msg 256 650 write statesave/\$1-\$2-euclid777-ss.txt;
#X msg 477 324 read statesave/\$1-\$2-euclid777-ss.txt;
#X obj 477 371 unpack f f f f;
#N canvas 0 22 1069 747 morph-parameters 0;
#X obj 176 94 inlet;
#X obj 176 236 pack f f;
#X obj 176 261 line;
#X obj 209 117 r preset-manager-morph-s;
#X msg 72 244 stop;
#X obj 72 214 r STOP-MORPH!;
#X obj 209 206 spigot;
#X obj 398 137 t f f;
#X obj 455 154 == 0;
#X obj 221 176 f;
#X floatatom 455 222 5 0 0 0 - - - 0;
#X obj 398 159 t b f;
#X floatatom 425 192 5 0 0 0 - - - 0;
#X obj 209 139 t f f;
#X obj 398 102 r parameters-s;
#X obj 176 288 outlet;
#X connect 0 0 1 0;
#X connect 1 0 2 0;
#X connect 2 0 15 0;
#X connect 3 0 13 0;
#X connect 4 0 2 0;
#X connect 5 0 4 0;
#X connect 6 0 1 1;
#X connect 7 0 11 0;
#X connect 7 1 8 0;
#X connect 8 0 10 0;
#X connect 9 0 6 0;
#X connect 10 0 1 1;
#X connect 11 0 9 0;
#X connect 11 1 12 0;
#X connect 12 0 6 1;
#X connect 13 0 6 0;
#X connect 13 1 9 1;
#X connect 14 0 7 0;
#X restore 527 446 pd morph-parameters;
#N canvas 0 22 1069 747 morph-attenuators 0;
#X obj 176 94 inlet;
#X obj 176 236 pack f f;
#X obj 176 261 line;
#X obj 209 117 r preset-manager-morph-s;
#X msg 72 244 stop;
#X obj 72 214 r STOP-MORPH!;
#X obj 209 206 spigot;
#X obj 398 137 t f f;
#X obj 455 154 == 0;
#X obj 221 176 f;
#X floatatom 455 222 5 0 0 0 - - - 0;
#X obj 398 159 t b f;
#X floatatom 425 192 5 0 0 0 - - - 0;
#X obj 209 139 t f f;
#X obj 398 102 r attenuators-s;
#X obj 176 288 outlet;
#X connect 0 0 1 0;
#X connect 1 0 2 0;
#X connect 2 0 15 0;
#X connect 3 0 13 0;
#X connect 4 0 2 0;
#X connect 5 0 4 0;
#X connect 6 0 1 1;
#X connect 7 0 11 0;
#X connect 7 1 8 0;
#X connect 8 0 10 0;
#X connect 9 0 6 0;
#X connect 10 0 1 1;
#X connect 11 0 9 0;
#X connect 11 1 12 0;
#X connect 12 0 6 1;
#X connect 13 0 6 0;
#X connect 13 1 9 1;
#X connect 14 0 7 0;
#X restore 554 420 pd morph-attenuators;
#X obj 474 624 s \$0-length-rcv;
#X obj 499 595 s \$0-lenCV-rcv;
#X obj 529 570 s \$0-numhits-rcv;
#X obj 565 543 s \$0-numCV-rcv;
#X obj 307 222 r \$0-length;
#X obj 395 311 r \$0-numCV;
#X obj 367 284 r \$0-numhits;
#X obj 343 251 r \$0-lenCV;
#X msg 244 438 set \$1 \$2 \$3 \$4;
#X obj 244 399 pack f f f f;
#X connect 0 0 28 0;
#X connect 1 0 0 0;
#X connect 2 0 0 0;
#X connect 4 0 2 0;
#X connect 4 1 1 0;
#X connect 5 0 40 0;
#X connect 6 0 19 0;
#X connect 7 0 10 0;
#X connect 7 1 9 0;
#X connect 7 2 8 0;
#X connect 8 0 3 0;
#X connect 9 0 5 0;
#X connect 10 0 6 0;
#X connect 11 0 7 0;
#X connect 12 0 11 0;
#X connect 13 0 17 0;
#X connect 14 0 4 0;
#X connect 14 1 13 0;
#X connect 15 0 14 0;
#X connect 15 1 13 1;
#X connect 16 0 17 1;
#X connect 17 0 27 0;
#X connect 18 0 16 0;
#X connect 19 0 26 0;
#X connect 20 0 21 0;
#X connect 21 0 19 1;
#X connect 22 0 15 0;
#X connect 23 0 6 1;
#X connect 24 0 31 0;
#X connect 25 0 32 0;
#X connect 26 0 3 0;
#X connect 27 0 0 0;
#X connect 28 0 24 0;
#X connect 28 1 25 0;
#X connect 28 2 29 0;
#X connect 28 3 30 0;
#X connect 29 0 33 0;
#X connect 30 0 34 0;
#X connect 35 0 5 1;
#X connect 36 0 40 3;
#X connect 37 0 40 2;
#X connect 38 0 40 1;
#X connect 39 0 3 0;
#X connect 40 0 39 0;
#X restore 710 275 pd state-saving-via-preset-manager-module;
#N canvas 0 0 1920 1021 parameter-nudging-system 0;
#X obj 9 232 s \$0-length-rcv;
#X obj 174 251 s \$0-lenCV-rcv;
#X obj 345 238 s \$0-numhits-rcv;
#X obj 481 256 s \$0-numCV-rcv;
#X obj 16 10 r \$0-length;
#X obj 482 12 r \$0-numCV;
#X obj 316 13 r \$0-numhits;
#X obj 167 12 r \$0-lenCV;
#X obj 11 208 clip 1 32;
#X obj 345 212 clip 1 32;
#X obj 175 224 clip 0 1;
#X obj 481 235 clip 0 1;
#X obj 170 74 * 127;
#X obj 174 180 / 127;
#X obj 478 75 * 127;
#X obj 477 186 / 127;
#X obj 14 64 * 4;
#X obj 12 163 / 4;
#X obj 330 69 * 4;
#X obj 345 169 / 4;
#X obj 13 118 reloaded/nudge-parameters;
#X obj 174 135 reloaded/nudge-attenuators;
#X obj 345 125 reloaded/nudge-parameters;
#X obj 474 137 reloaded/nudge-attenuators;
#X connect 4 0 16 0;
#X connect 5 0 14 0;
#X connect 6 0 18 0;
#X connect 7 0 12 0;
#X connect 8 0 0 0;
#X connect 9 0 2 0;
#X connect 10 0 1 0;
#X connect 11 0 3 0;
#X connect 12 0 21 0;
#X connect 13 0 10 0;
#X connect 14 0 23 0;
#X connect 15 0 11 0;
#X connect 16 0 20 0;
#X connect 17 0 8 0;
#X connect 18 0 22 0;
#X connect 19 0 9 0;
#X connect 20 0 17 0;
#X connect 21 0 13 0;
#X connect 22 0 19 0;
#X connect 23 0 15 0;
#X restore 711 254 pd parameter-nudging-system;
#N canvas 0 0 1920 1021 external-messages 0;
#X obj 185 328 spigot;
#X obj 218 288 tgl 15 0 empty empty empty 17 7 0 10 #fcfcfc #000000 #000000 0 1;
#X obj 254 272 ==;
#X obj 269 248 f \$1;
#X obj 269 224 loadbang;
#X msg 185 202 \$1 \$2;
#X msg 185 156 symbol \$1;
#X obj 185 180 pack s f;
#X obj 185 62 unpack s f f;
#X symbolatom 185 94 10 0 0 0 - - - 0;
#X obj 185 14 r euclid777;
#X obj 185 380 route Length CV-Len Num-Hits CV-Num;
#X obj 178 425 s \$0-length-rcv;
#X obj 214 458 s \$0-lenCV-rcv;
#X obj 336 434 s \$0-numhits-rcv;
#X obj 355 467 s \$0-numCV-rcv;
#X connect 0 0 11 0;
#X connect 2 0 1 0;
#X connect 2 0 0 1;
#X connect 3 0 2 1;
#X connect 4 0 3 0;
#X connect 5 0 0 0;
#X connect 6 0 7 0;
#X connect 7 0 5 0;
#X connect 8 0 9 0;
#X connect 8 1 7 1;
#X connect 8 2 2 0;
#X connect 9 0 6 0;
#X connect 10 0 8 0;
#X connect 11 0 12 0;
#X connect 11 1 13 0;
#X connect 11 2 14 0;
#X connect 11 3 15 0;
#X restore 714 226 pd external-messages;
#X text 335 487 Num-Hits;
#X obj 281 449 cnv 5 5 5 empty \$0-instance-num 0 0 0 0 12 #fcfcfc #404040 0;
#X obj 43 80 r \$0-reset;
#X obj 795 133 s \$0-reset;
#X text 203 440 euclid777;
#N canvas 0 0 450 300 unsig~ 0;
#X obj 22 42 inlet~;
#X text 62 42 ~signal_in~;
#X text 12 8 unsig~;
#X obj 22 221 outlet;
#X text 69 222 float-out;
#X text 67 9 grab every metrotime one sample;
#X obj 22 195 snapshot~;
#X obj 39 172 metro 300;
#X obj 39 81 loadbang;
#X obj 39 106 t b b;
#X obj 64 128 f \$1;
#X obj 64 148 sel 0;
#X text 116 275 IEM KUG;
#X text 100 263 musil;
#X text 130 263 @;
#X text 136 263 iem.at;
#X text 51 252 (c) Thomas Musil 2000 - 2005;
#X text 99 285 Graz \, Austria;
#X connect 0 0 6 0;
#X connect 6 0 3 0;
#X connect 7 0 6 0;
#X connect 8 0 9 0;
#X connect 9 0 7 0;
#X connect 9 1 10 0;
#X connect 10 0 11 0;
#X connect 11 1 7 1;
#X restore 315 73 pd unsig~;
#N canvas 0 0 450 300 unsig~ 0;
#X obj 22 42 inlet~;
#X text 62 42 ~signal_in~;
#X text 12 8 unsig~;
#X obj 22 221 outlet;
#X text 69 222 float-out;
#X text 67 9 grab every metrotime one sample;
#X obj 22 195 snapshot~;
#X obj 39 172 metro 300;
#X obj 39 81 loadbang;
#X obj 39 106 t b b;
#X obj 64 128 f \$1;
#X obj 64 148 sel 0;
#X text 116 275 IEM KUG;
#X text 100 263 musil;
#X text 130 263 @;
#X text 136 263 iem.at;
#X text 51 252 (c) Thomas Musil 2000 - 2005;
#X text 99 285 Graz \, Austria;
#X connect 0 0 6 0;
#X connect 6 0 3 0;
#X connect 7 0 6 0;
#X connect 8 0 9 0;
#X connect 9 0 7 0;
#X connect 9 1 10 0;
#X connect 10 0 11 0;
#X connect 11 1 7 1;
#X restore 519 80 pd unsig~;
#X text 198 427 Clk;
#X obj 656 549 namecanvas \$0-this;
#X connect 0 0 9 0;
#X connect 0 0 12 0;
#X connect 4 0 5 0;
#X connect 4 0 6 0;
#X connect 5 0 4 1;
#X connect 6 0 36 0;
#X connect 7 0 4 0;
#X connect 8 0 7 0;
#X connect 10 0 11 0;
#X connect 12 0 10 0;
#X connect 14 0 15 0;
#X connect 14 0 6 1;
#X connect 14 0 37 1;
#X connect 17 0 18 0;
#X connect 17 0 36 1;
#X connect 17 0 38 1;
#X connect 22 0 65 0;
#X connect 23 0 66 0;
#X connect 24 0 35 0;
#X connect 25 0 24 0;
#X connect 26 0 32 0;
#X connect 27 0 45 0;
#X connect 28 0 44 0;
#X connect 29 0 33 0;
#X connect 30 0 26 1;
#X connect 31 0 29 1;
#X connect 32 0 28 0;
#X connect 33 0 27 0;
#X connect 35 0 63 0;
#X connect 36 0 37 0;
#X connect 37 0 38 0;
#X connect 38 0 0 0;
#X connect 44 0 14 0;
#X connect 45 0 17 0;
#X connect 46 0 28 1;
#X connect 47 0 27 1;
#X connect 50 0 51 0;
#X connect 51 0 50 0;
#X connect 51 1 50 1;
#X connect 53 0 55 0;
#X connect 55 0 56 0;
#X connect 56 0 54 0;
#X connect 62 0 4 1;
#X connect 65 0 26 0;
#X connect 66 0 29 0;
#X coords 0 -1 1 1 224 110 2 197 427;
