#N canvas 0 0 1920 1021 12;
#X text 1399 412 specify desired number of hits per bar;
#X text 1144 374 specify length of bar;
#X obj 1148 407 inlet~;
#X obj 1460 445 inlet~;
#X obj 1651 562 threshold~ 0.9 0 0.9 0;
#X obj 1148 463 *;
#X obj 1460 504 *;
#X obj 1237 399 r \$0-lenCV;
#X obj 1543 438 r \$0-numCV;
#X text 1647 433 reset;
#X msg 1651 591 0;
#N canvas 495 23 551 88 credits 0;
#X text 41 17 Credits : MikeMorenoDSP https://github.com/MikeMorenoDSP/mian-/tree/master/eucgui;
#X restore 1566 105 pd credits;
#N canvas 982 0 958 1016 state-saving-multiple-instances 0;
#X obj 215 28 loadbang;
#X obj 261 480 reloaded/textfile \$0;
#X msg 620 443 rewind;
#X msg 577 443 bang;
#X obj 119 690 reloaded/textfile \$0;
#X obj 577 404 t b b;
#X obj 120 356 f;
#X obj 133 579 f;
#X obj 66 422 t b b b;
#X msg 196 579 clear;
#X obj 281 216 outlet;
#X text 277 236 INSTANCE NUMBER;
#X obj 242 92 f \$1;
#X obj 242 128 t f f f;
#X obj 215 61 t b b;
#X obj 66 331 bng 15 250 50 0 empty empty empty 17 7 0 10 #fcfcfc #000000 #000000;
#X obj 66 235 r SAVE-S;
#X obj 338 574 s \$0-lenCV-rcv;
#X obj 141 257 r \$0-sndstp;
#X obj 264 603 s \$0-rcvstp;
#X obj 156 286 r \$0-lenCV;
#X obj 213 313 r \$0-sndbts;
#X obj 419 553 s \$0-rcvbts;
#X obj 229 342 r \$0-numCV;
#X obj 489 531 s \$0-numCV-rcv;
#X msg 261 455 read statesave/\$1-euklid-ss.txt;
#X msg 132 650 write statesave/\$1-euklid-ss.txt;
#X obj 312 266 r \$0-sndrte;
#X obj 554 670 s \$0-rcvrte;
#X obj 343 292 r \$0-sndacc;
#X obj 608 612 s \$0-rcvacc;
#X obj 349 335 r \$0-sndart;
#X obj 389 363 r \$0-sndspd;
#X obj 120 399 pack f f f f f f f f f, f 39;
#X obj 432 392 r \$0-sndtgl;
#X obj 261 502 unpack f f f f f f f f f, f 78;
#X obj 646 567 s \$0-rcvart;
#X obj 716 545 s \$0-rcvspd;
#X obj 804 591 s \$0-rcvtgl;
#X msg 34 512 set \$1 \$2 \$3 \$4 \$5 \$6 \$7 \$8 \$9;
#X connect 0 0 14 0;
#X connect 1 0 35 0;
#X connect 2 0 1 0;
#X connect 3 0 1 0;
#X connect 5 0 3 0;
#X connect 5 1 2 0;
#X connect 6 0 33 0;
#X connect 7 0 26 0;
#X connect 8 0 7 0;
#X connect 8 1 6 0;
#X connect 8 2 9 0;
#X connect 9 0 4 0;
#X connect 12 0 13 0;
#X connect 13 0 7 1;
#X connect 13 1 25 0;
#X connect 13 2 10 0;
#X connect 14 0 5 0;
#X connect 14 1 12 0;
#X connect 15 0 8 0;
#X connect 16 0 15 0;
#X connect 18 0 6 1;
#X connect 20 0 33 1;
#X connect 21 0 33 2;
#X connect 23 0 33 3;
#X connect 25 0 1 0;
#X connect 26 0 4 0;
#X connect 27 0 33 4;
#X connect 29 0 33 5;
#X connect 31 0 33 6;
#X connect 32 0 33 7;
#X connect 33 0 39 0;
#X connect 34 0 33 8;
#X connect 35 0 19 0;
#X connect 35 1 17 0;
#X connect 35 2 22 0;
#X connect 35 3 24 0;
#X connect 35 4 28 0;
#X connect 35 5 30 0;
#X connect 35 6 36 0;
#X connect 35 7 37 0;
#X connect 35 8 38 0;
#X connect 39 0 4 0;
#X restore 881 144 pd state-saving-multiple-instances;
#X obj 880 216 s \$0-instance-num;
#X obj 880 168 makefilename %d;
#X msg 880 193 label \$1;
#N canvas 0 0 1389 1016 state-saving-via-preset-manager-module 0;
#X obj 599 387 reloaded/textfile \$0;
#X msg 777 326 rewind;
#X msg 734 326 bang;
#X obj 153 850 reloaded/textfile \$0;
#X obj 736 293 t b b;
#X obj 154 516 f;
#X obj 167 739 f;
#X obj 84 574 t b b b;
#X msg 230 739 clear;
#X obj 118 485 delay 5;
#X obj 100 644 delay 10;
#X msg 100 474 bang;
#X obj 190 147 r STORE-S!;
#X obj 477 250 f;
#X obj 450 207 t b b;
#X obj 465 171 t b f;
#X obj 522 268 f \$1;
#X obj 477 295 pack f f;
#X obj 522 218 loadbang;
#X obj 167 769 pack f f;
#X obj 212 627 loadbang;
#X obj 212 649 f \$1;
#X obj 465 148 r preset-manager-scan;
#X obj 279 148 r preset-manager-store-slot;
#N canvas 0 22 1069 747 morph-parameters 0;
#X obj 176 94 inlet;
#X obj 176 236 pack f f;
#X obj 176 261 line;
#X obj 209 117 r preset-manager-morph-s;
#X msg 72 244 stop;
#X obj 72 214 r STOP-MORPH!;
#X obj 209 206 spigot;
#X obj 398 137 t f f;
#X obj 455 154 == 0;
#X obj 221 176 f;
#X floatatom 455 222 5 0 0 0 - - - 0;
#X obj 398 159 t b f;
#X floatatom 425 192 5 0 0 0 - - - 0;
#X obj 209 139 t f f;
#X obj 398 102 r parameters-s;
#X obj 176 288 outlet;
#X connect 0 0 1 0;
#X connect 1 0 2 0;
#X connect 2 0 15 0;
#X connect 3 0 13 0;
#X connect 4 0 2 0;
#X connect 5 0 4 0;
#X connect 6 0 1 1;
#X connect 7 0 11 0;
#X connect 7 1 8 0;
#X connect 8 0 10 0;
#X connect 9 0 6 0;
#X connect 10 0 1 1;
#X connect 11 0 9 0;
#X connect 11 1 12 0;
#X connect 12 0 6 1;
#X connect 13 0 6 0;
#X connect 13 1 9 1;
#X connect 14 0 7 0;
#X restore 618 471 pd morph-parameters;
#N canvas 0 22 1069 747 morph-attenuators 0;
#X obj 176 94 inlet;
#X obj 176 236 pack f f;
#X obj 176 261 line;
#X obj 209 117 r preset-manager-morph-s;
#X msg 72 244 stop;
#X obj 72 214 r STOP-MORPH!;
#X obj 209 206 spigot;
#X obj 398 137 t f f;
#X obj 455 154 == 0;
#X obj 221 176 f;
#X floatatom 455 222 5 0 0 0 - - - 0;
#X obj 398 159 t b f;
#X floatatom 425 192 5 0 0 0 - - - 0;
#X obj 209 139 t f f;
#X obj 398 102 r attenuators-s;
#X obj 176 288 outlet;
#X connect 0 0 1 0;
#X connect 1 0 2 0;
#X connect 2 0 15 0;
#X connect 3 0 13 0;
#X connect 4 0 2 0;
#X connect 5 0 4 0;
#X connect 6 0 1 1;
#X connect 7 0 11 0;
#X connect 7 1 8 0;
#X connect 8 0 10 0;
#X connect 9 0 6 0;
#X connect 10 0 1 1;
#X connect 11 0 9 0;
#X connect 11 1 12 0;
#X connect 12 0 6 1;
#X connect 13 0 6 0;
#X connect 13 1 9 1;
#X connect 14 0 7 0;
#X restore 792 521 pd morph-attenuators;
#X msg 154 598 set \$1 \$2 \$3 \$4 \$5 \$6 \$7 \$8 \$9;
#X obj 175 406 r \$0-sndstp;
#X obj 190 435 r \$0-lenCV;
#X obj 247 462 r \$0-sndbts;
#X obj 263 491 r \$0-numCV;
#X obj 346 415 r \$0-sndrte;
#X obj 377 441 r \$0-sndacc;
#X obj 383 484 r \$0-sndart;
#X obj 423 512 r \$0-sndspd;
#X obj 154 548 pack f f f f f f f f f, f 39;
#X obj 466 541 r \$0-sndtgl;
#X msg 166 810 write statesave/\$1-\$2-euklid-ss.txt;
#X msg 477 324 read statesave/\$1-\$2-euklid-ss.txt;
#X obj 687 635 s \$0-lenCV-rcv;
#X obj 606 527 s \$0-rcvstp;
#X obj 817 844 s \$0-rcvbts;
#X obj 785 554 s \$0-numCV-rcv;
#X obj 896 594 s \$0-rcvrte;
#X obj 937 565 s \$0-rcvacc;
#X obj 603 426 unpack f f f f f f f f f, f 78;
#X obj 1060 652 s \$0-rcvart;
#X obj 1085 555 s \$0-rcvspd;
#X obj 1146 515 s \$0-rcvtgl;
#N canvas 0 22 1069 747 morph-attenuators 0;
#X obj 176 94 inlet;
#X obj 176 236 pack f f;
#X obj 176 261 line;
#X obj 209 117 r preset-manager-morph-s;
#X msg 72 244 stop;
#X obj 72 214 r STOP-MORPH!;
#X obj 209 206 spigot;
#X obj 398 137 t f f;
#X obj 455 154 == 0;
#X obj 221 176 f;
#X floatatom 455 222 5 0 0 0 - - - 0;
#X obj 398 159 t b f;
#X floatatom 425 192 5 0 0 0 - - - 0;
#X obj 209 139 t f f;
#X obj 398 102 r attenuators-s;
#X obj 176 288 outlet;
#X connect 0 0 1 0;
#X connect 1 0 2 0;
#X connect 2 0 15 0;
#X connect 3 0 13 0;
#X connect 4 0 2 0;
#X connect 5 0 4 0;
#X connect 6 0 1 1;
#X connect 7 0 11 0;
#X connect 7 1 8 0;
#X connect 8 0 10 0;
#X connect 9 0 6 0;
#X connect 10 0 1 1;
#X connect 11 0 9 0;
#X connect 11 1 12 0;
#X connect 12 0 6 1;
#X connect 13 0 6 0;
#X connect 13 1 9 1;
#X connect 14 0 7 0;
#X restore 684 592 pd morph-attenuators;
#N canvas 0 22 1069 747 morph-parameters 0;
#X obj 176 94 inlet;
#X obj 176 236 pack f f;
#X obj 176 261 line;
#X obj 209 117 r preset-manager-morph-s;
#X msg 72 244 stop;
#X obj 72 214 r STOP-MORPH!;
#X obj 209 206 spigot;
#X obj 398 137 t f f;
#X obj 455 154 == 0;
#X obj 221 176 f;
#X floatatom 455 222 5 0 0 0 - - - 0;
#X obj 398 159 t b f;
#X floatatom 425 192 5 0 0 0 - - - 0;
#X obj 209 139 t f f;
#X obj 398 102 r parameters-s;
#X obj 176 288 outlet;
#X connect 0 0 1 0;
#X connect 1 0 2 0;
#X connect 2 0 15 0;
#X connect 3 0 13 0;
#X connect 4 0 2 0;
#X connect 5 0 4 0;
#X connect 6 0 1 1;
#X connect 7 0 11 0;
#X connect 7 1 8 0;
#X connect 8 0 10 0;
#X connect 9 0 6 0;
#X connect 10 0 1 1;
#X connect 11 0 9 0;
#X connect 11 1 12 0;
#X connect 12 0 6 1;
#X connect 13 0 6 0;
#X connect 13 1 9 1;
#X connect 14 0 7 0;
#X restore 794 702 pd morph-parameters;
#N canvas 0 22 1069 747 morph-parameters 0;
#X obj 176 94 inlet;
#X obj 176 236 pack f f;
#X obj 176 261 line;
#X obj 209 117 r preset-manager-morph-s;
#X msg 72 244 stop;
#X obj 72 214 r STOP-MORPH!;
#X obj 209 206 spigot;
#X obj 398 137 t f f;
#X obj 455 154 == 0;
#X obj 221 176 f;
#X floatatom 455 222 5 0 0 0 - - - 0;
#X obj 398 159 t b f;
#X floatatom 425 192 5 0 0 0 - - - 0;
#X obj 209 139 t f f;
#X obj 398 102 r parameters-s;
#X obj 176 288 outlet;
#X connect 0 0 1 0;
#X connect 1 0 2 0;
#X connect 2 0 15 0;
#X connect 3 0 13 0;
#X connect 4 0 2 0;
#X connect 5 0 4 0;
#X connect 6 0 1 1;
#X connect 7 0 11 0;
#X connect 7 1 8 0;
#X connect 8 0 10 0;
#X connect 9 0 6 0;
#X connect 10 0 1 1;
#X connect 11 0 9 0;
#X connect 11 1 12 0;
#X connect 12 0 6 1;
#X connect 13 0 6 0;
#X connect 13 1 9 1;
#X connect 14 0 7 0;
#X restore 934 482 pd morph-parameters;
#N canvas 0 22 1069 747 morph-parameters 0;
#X obj 176 94 inlet;
#X obj 176 236 pack f f;
#X obj 176 261 line;
#X obj 209 117 r preset-manager-morph-s;
#X msg 72 244 stop;
#X obj 72 214 r STOP-MORPH!;
#X obj 209 206 spigot;
#X obj 398 137 t f f;
#X obj 455 154 == 0;
#X obj 221 176 f;
#X floatatom 455 222 5 0 0 0 - - - 0;
#X obj 398 159 t b f;
#X floatatom 425 192 5 0 0 0 - - - 0;
#X obj 209 139 t f f;
#X obj 398 102 r parameters-s;
#X obj 176 288 outlet;
#X connect 0 0 1 0;
#X connect 1 0 2 0;
#X connect 2 0 15 0;
#X connect 3 0 13 0;
#X connect 4 0 2 0;
#X connect 5 0 4 0;
#X connect 6 0 1 1;
#X connect 7 0 11 0;
#X connect 7 1 8 0;
#X connect 8 0 10 0;
#X connect 9 0 6 0;
#X connect 10 0 1 1;
#X connect 11 0 9 0;
#X connect 11 1 12 0;
#X connect 12 0 6 1;
#X connect 13 0 6 0;
#X connect 13 1 9 1;
#X connect 14 0 7 0;
#X restore 860 463 pd morph-parameters;
#N canvas 0 22 1069 747 morph-parameters 0;
#X obj 176 94 inlet;
#X obj 176 236 pack f f;
#X obj 176 261 line;
#X obj 209 117 r preset-manager-morph-s;
#X msg 72 244 stop;
#X obj 72 214 r STOP-MORPH!;
#X obj 209 206 spigot;
#X obj 398 137 t f f;
#X obj 455 154 == 0;
#X obj 221 176 f;
#X floatatom 455 222 5 0 0 0 - - - 0;
#X obj 398 159 t b f;
#X floatatom 425 192 5 0 0 0 - - - 0;
#X obj 209 139 t f f;
#X obj 398 102 r parameters-s;
#X obj 176 288 outlet;
#X connect 0 0 1 0;
#X connect 1 0 2 0;
#X connect 2 0 15 0;
#X connect 3 0 13 0;
#X connect 4 0 2 0;
#X connect 5 0 4 0;
#X connect 6 0 1 1;
#X connect 7 0 11 0;
#X connect 7 1 8 0;
#X connect 8 0 10 0;
#X connect 9 0 6 0;
#X connect 10 0 1 1;
#X connect 11 0 9 0;
#X connect 11 1 12 0;
#X connect 12 0 6 1;
#X connect 13 0 6 0;
#X connect 13 1 9 1;
#X connect 14 0 7 0;
#X restore 1066 607 pd morph-parameters;
#X connect 0 0 45 0;
#X connect 1 0 0 0;
#X connect 2 0 0 0;
#X connect 4 0 2 0;
#X connect 4 1 1 0;
#X connect 5 0 35 0;
#X connect 6 0 19 0;
#X connect 7 0 10 0;
#X connect 7 1 9 0;
#X connect 7 2 8 0;
#X connect 8 0 3 0;
#X connect 9 0 5 0;
#X connect 10 0 6 0;
#X connect 11 0 7 0;
#X connect 12 0 11 0;
#X connect 13 0 17 0;
#X connect 14 0 4 0;
#X connect 14 1 13 0;
#X connect 15 0 14 0;
#X connect 15 1 13 1;
#X connect 16 0 17 1;
#X connect 17 0 38 0;
#X connect 18 0 16 0;
#X connect 19 0 37 0;
#X connect 20 0 21 0;
#X connect 21 0 19 1;
#X connect 22 0 15 0;
#X connect 23 0 6 1;
#X connect 24 0 40 0;
#X connect 25 0 42 0;
#X connect 26 0 3 0;
#X connect 27 0 5 1;
#X connect 28 0 35 1;
#X connect 29 0 35 2;
#X connect 30 0 35 3;
#X connect 31 0 35 4;
#X connect 32 0 35 5;
#X connect 33 0 35 6;
#X connect 34 0 35 7;
#X connect 35 0 26 0;
#X connect 36 0 35 8;
#X connect 37 0 3 0;
#X connect 38 0 0 0;
#X connect 45 0 24 0;
#X connect 45 1 49 0;
#X connect 45 2 50 0;
#X connect 45 3 25 0;
#X connect 45 4 52 0;
#X connect 45 5 51 0;
#X connect 45 6 53 0;
#X connect 45 7 47 0;
#X connect 45 8 48 0;
#X connect 49 0 39 0;
#X connect 50 0 41 0;
#X connect 51 0 44 0;
#X connect 52 0 43 0;
#X connect 53 0 46 0;
#X restore 878 59 pd state-saving-via-preset-manager-module;
#N canvas 659 141 1920 1021 parameter-nudging-system 0;
#X obj 16 10 r \$0-lenCV;
#X obj 11 208 clip 0 127;
#X obj 9 232 s \$0-lenCV-rcv;
#X obj 167 12 r \$0-numCV;
#X obj 174 251 s \$0-numCV-rcv;
#X obj 175 224 clip 0 127;
#X obj 345 212 clip 0 127;
#X obj 316 13 r \$0-sndstp;
#X obj 345 238 s \$0-rcvstp;
#X obj 540 204 clip 0 127;
#X obj 511 5 r \$0-sndbts;
#X obj 540 230 s \$0-rcvbts;
#X obj 740 204 clip 0 127;
#X obj 711 5 r \$0-sndrte;
#X obj 740 230 s \$0-rcvrte;
#X obj 930 204 clip 0 127;
#X obj 901 5 r \$0-sndacc;
#X obj 930 230 s \$0-rcvacc;
#X obj 1080 204 clip 0 127;
#X obj 1051 5 r \$0-sndart;
#X obj 1080 230 s \$0-rcvart;
#X obj 6 65 reloaded/nudge-attenuators;
#X obj 174 135 reloaded/nudge-attenuators;
#X obj 345 129 reloaded/nudge-parameters;
#X obj 540 121 reloaded/nudge-parameters;
#X obj 740 121 reloaded/nudge-parameters;
#X obj 930 121 reloaded/nudge-parameters;
#X obj 1073 98 reloaded/nudge-parameters;
#X connect 0 0 21 0;
#X connect 1 0 2 0;
#X connect 3 0 22 0;
#X connect 5 0 4 0;
#X connect 6 0 8 0;
#X connect 7 0 23 0;
#X connect 9 0 11 0;
#X connect 10 0 24 0;
#X connect 12 0 14 0;
#X connect 13 0 25 0;
#X connect 15 0 17 0;
#X connect 16 0 26 0;
#X connect 18 0 20 0;
#X connect 19 0 27 0;
#X connect 21 0 1 0;
#X connect 22 0 5 0;
#X connect 23 0 6 0;
#X connect 24 0 9 0;
#X connect 25 0 12 0;
#X connect 26 0 15 0;
#X connect 27 0 18 0;
#X restore 879 241 pd parameter-nudging-system;
#N canvas 758 119 1920 1021 external-messages 0;
#X obj 185 328 spigot;
#X obj 254 272 ==;
#X obj 269 248 f \$1;
#X obj 269 224 loadbang;
#X msg 185 202 \$1 \$2;
#X obj 185 180 pack s f;
#X obj 185 62 unpack s f f;
#X obj 185 14 r euklid;
#X text 180 474 stp = STEPS;
#X text 180 489 bts = BEATS;
#X text 180 454 PARAMETERS;
#X obj 90 404 s \$0-rcvstp;
#X obj 229 411 s \$0-rcvbts;
#X obj 274 437 s \$0-rcvrte;
#X obj 275 532 / 16;
#X floatatom 273 631 5 0 0 0 - - - 0;
#X obj 274 582 int;
#X obj 273 607 change;
#X obj 245 665 s \$0-rcvspd;
#X obj 396 571 s \$0-rcvacc;
#X obj 494 576 s \$0-rcvart;
#X obj 554 474 s \$0-rcvtgl;
#X obj 211 375 route STEPS BEATS ROTATE SPEED ACCENTS ACC.ROT. ON/OFF CV-STEPS CV-BEATS, f 97;
#X obj 682 457 s \$0-lenCV-rcv;
#X obj 817 455 s \$0-numCV-rcv;
#X connect 0 0 22 0;
#X connect 1 0 0 1;
#X connect 2 0 1 1;
#X connect 3 0 2 0;
#X connect 4 0 0 0;
#X connect 5 0 4 0;
#X connect 6 0 5 0;
#X connect 6 1 5 1;
#X connect 6 2 1 0;
#X connect 7 0 6 0;
#X connect 14 0 16 0;
#X connect 16 0 17 0;
#X connect 17 0 15 0;
#X connect 17 0 18 0;
#X connect 22 0 11 0;
#X connect 22 1 12 0;
#X connect 22 2 13 0;
#X connect 22 3 14 0;
#X connect 22 4 19 0;
#X connect 22 5 20 0;
#X connect 22 6 21 0;
#X connect 22 7 23 0;
#X connect 22 8 24 0;
#X restore 880 114 pd external-messages;
#X obj 1651 620 s \$0-reset;
#N canvas 0 0 450 300 unsig~ 0;
#X obj 22 42 inlet~;
#X text 62 42 ~signal_in~;
#X text 12 8 unsig~;
#X obj 22 221 outlet;
#X text 69 222 float-out;
#X text 67 9 grab every metrotime one sample;
#X obj 22 195 snapshot~;
#X obj 39 172 metro 300;
#X obj 39 81 loadbang;
#X text 116 275 IEM KUG;
#X text 100 263 musil;
#X text 130 263 @;
#X text 136 263 iem.at;
#X text 51 252 (c) Thomas Musil 2000 - 2005;
#X text 99 285 Graz \, Austria;
#X obj 69 150 tgl 15 1 empty empty empty 17 7 0 10 #fcfcfc #000000 #000000 1 1;
#X connect 0 0 6 0;
#X connect 6 0 3 0;
#X connect 7 0 6 0;
#X connect 8 0 7 0;
#X connect 15 0 7 0;
#X restore 1146 433 pd unsig~;
#N canvas 895 23 604 551 \$0-tabwrite 0;
#X obj 12 12 table \$0-eucbts 32;
#X obj 12 34 table \$0-eucacc 32;
#X obj 336 44 r \$0-stp;
#X obj 359 88 t b f;
#X obj 359 132 i;
#X obj 391 132 + 1;
#X obj 359 154 sel;
#X obj 359 176 t b b;
#X msg 377 193 0;
#X obj 12 56 table \$0-btsacc 32;
#X obj 438 171 *;
#X obj 438 193 %;
#X obj 438 215 <;
#X obj 396 71 r \$0-bts;
#X obj 438 149 t f f;
#X obj 438 237 pack, f 5;
#X obj 438 259 tabwrite \$0-eucbts;
#X obj 391 154 - 1;
#X obj 359 110 until;
#X obj 175 132 t b f;
#X obj 175 176 i;
#X obj 207 176 + 1;
#X obj 175 198 sel;
#X obj 175 220 t b b;
#X msg 193 237 0;
#X obj 254 215 +;
#X obj 254 237 *;
#X obj 254 259 %;
#X obj 254 281 <;
#X obj 175 110 t f f;
#X obj 254 193 t f f;
#X obj 254 303 pack, f 5;
#X obj 207 198 - 1;
#X obj 175 154 until;
#X obj 310 105 t b f;
#X obj 310 127 -;
#X obj 226 115 r \$0-acc;
#X obj 152 66 r \$0-art;
#X obj 254 325 tabwrite \$0-eucacc;
#X obj 207 220 max 0;
#X obj 396 93 t b f b f;
#X obj 336 66 t f f f;
#X obj 108 105 t b f;
#X obj 108 149 i;
#X obj 140 149 + 1;
#X obj 108 171 sel;
#X obj 108 193 t b b;
#X msg 126 210 0;
#X obj 140 171 - 1;
#X obj 108 127 until;
#X obj 101 296 sel 1;
#X obj 108 83 t f b;
#X msg 140 301 0;
#X obj 69 428 pack;
#X obj 69 450 tabwrite \$0-btsacc;
#X obj 101 318 i;
#X obj 131 318 + 1;
#X obj 101 340 tabread \$0-eucacc;
#X obj 226 137 t b b f;
#X obj 152 88 t b b f;
#X obj 23 257 tabread \$0-eucbts;
#X obj 62 230 t f f;
#X obj 23 279 t f f;
#X obj 101 362 + 1;
#X obj 23 379 *;
#X obj 254 345 r \$0-rte;
#X obj 94 384 +;
#X obj 94 406 %;
#X obj 254 367 t b b f;
#X connect 2 0 41 0;
#X connect 3 0 18 0;
#X connect 3 1 17 0;
#X connect 4 0 5 0;
#X connect 4 0 6 0;
#X connect 4 0 14 0;
#X connect 5 0 4 1;
#X connect 6 0 7 0;
#X connect 7 0 8 0;
#X connect 7 1 18 1;
#X connect 8 0 4 1;
#X connect 10 0 11 0;
#X connect 11 0 12 0;
#X connect 12 0 15 0;
#X connect 13 0 40 0;
#X connect 14 0 10 0;
#X connect 14 1 15 1;
#X connect 15 0 16 0;
#X connect 17 0 6 1;
#X connect 18 0 4 0;
#X connect 19 0 33 0;
#X connect 19 1 32 0;
#X connect 20 0 21 0;
#X connect 20 0 22 0;
#X connect 20 0 30 0;
#X connect 21 0 20 1;
#X connect 22 0 23 0;
#X connect 23 0 24 0;
#X connect 23 1 33 1;
#X connect 24 0 20 1;
#X connect 25 0 26 0;
#X connect 26 0 27 0;
#X connect 27 0 28 0;
#X connect 28 0 31 0;
#X connect 29 0 19 0;
#X connect 29 1 27 1;
#X connect 29 1 35 0;
#X connect 30 0 25 0;
#X connect 30 1 31 1;
#X connect 31 0 38 0;
#X connect 32 0 39 0;
#X connect 33 0 20 0;
#X connect 34 0 35 0;
#X connect 34 1 35 1;
#X connect 35 0 25 1;
#X connect 36 0 58 0;
#X connect 37 0 59 0;
#X connect 39 0 22 1;
#X connect 40 1 29 0;
#X connect 40 2 18 0;
#X connect 40 3 10 1;
#X connect 40 3 12 1;
#X connect 41 0 51 0;
#X connect 41 1 3 0;
#X connect 41 2 11 1;
#X connect 41 2 67 1;
#X connect 42 0 49 0;
#X connect 42 1 48 0;
#X connect 43 0 44 0;
#X connect 43 0 45 0;
#X connect 43 0 61 0;
#X connect 44 0 43 1;
#X connect 45 0 46 0;
#X connect 46 0 47 0;
#X connect 46 1 49 1;
#X connect 47 0 43 1;
#X connect 48 0 45 1;
#X connect 49 0 43 0;
#X connect 50 0 55 0;
#X connect 51 0 42 0;
#X connect 51 1 52 0;
#X connect 52 0 55 1;
#X connect 53 0 54 0;
#X connect 55 0 56 0;
#X connect 55 0 57 0;
#X connect 56 0 55 1;
#X connect 57 0 63 0;
#X connect 58 0 49 0;
#X connect 58 1 33 0;
#X connect 58 1 52 0;
#X connect 58 2 26 1;
#X connect 58 2 28 1;
#X connect 59 0 49 0;
#X connect 59 1 33 0;
#X connect 59 1 52 0;
#X connect 59 2 34 0;
#X connect 60 0 62 0;
#X connect 61 0 60 0;
#X connect 61 1 66 0;
#X connect 62 0 64 0;
#X connect 62 1 50 0;
#X connect 63 0 64 1;
#X connect 64 0 53 0;
#X connect 65 0 68 0;
#X connect 66 0 67 0;
#X connect 67 0 53 1;
#X connect 68 0 49 0;
#X connect 68 1 52 0;
#X connect 68 2 66 1;
#X restore 512 341 pd \$0-tabwrite;
#N canvas 0 0 1920 1021 \$0-sliders 0;
#X obj 251 11 r \$0-sndspd;
#X obj 251 239 symbol;
#X obj 251 283 s \$0-rcvspd;
#X msg 251 261 label SPEED \$1;
#X obj 12 11 r \$0-sndtgl;
#X msg 12 55 ON;
#X msg 115 55 OFF;
#X obj 12 121 symbol;
#X msg 12 143 label \$1;
#X obj 12 165 s \$0-rcvtgl;
#X msg 12 77 color 22 22 0;
#X msg 115 77 color 0 0 22;
#X msg 12 99 label_pos 6 15;
#X msg 115 99 label_pos 2 15;
#X obj 646 3 r \$0-sndstp;
#X obj 724 81 / 127;
#X obj 727 144 i;
#X obj 709 214 s \$0-rcvstpnmb;
#X msg 709 192 set \$1;
#X obj 421 212 / 127;
#X obj 420 249 *;
#X obj 472 200 r \$0-stp;
#X obj 420 271 + 0.5;
#X obj 420 293 i;
#X msg 420 315 set \$1;
#X obj 420 337 s \$0-rcvbtsnmb;
#X obj 572 208 r \$0-sndbtsnmb;
#X obj 572 230 /;
#X obj 472 222 t b f f;
#X obj 572 252 * 127;
#X obj 572 274 i;
#X msg 572 296 set \$1;
#X obj 572 318 s \$0-rcvbts;
#X obj 422 82 r \$0-sndbts;
#X obj 421 384 / 127;
#X obj 421 406 *;
#X obj 507 367 r \$0-stp;
#X obj 421 428 + 0.5;
#X obj 421 450 i;
#X msg 421 472 set \$1;
#X obj 572 406 /;
#X obj 507 389 t b f f;
#X obj 572 428 * 127;
#X obj 572 450 i;
#X msg 572 472 set \$1;
#X obj 421 362 r \$0-sndrte;
#X obj 421 494 s \$0-rcvrtenmb;
#X obj 572 384 r \$0-sndrtenmb;
#X obj 572 494 s \$0-rcvrte;
#X obj 731 258 pack f \$0;
#X msg 731 280 \; \$2-rcvbtsnmb range 0 \$1;
#X obj 679 406 pack f \$0;
#X msg 679 428 \; \$2-rcvrtenmb range 0 \$1;
#X obj 421 560 / 127;
#X obj 421 582 *;
#X obj 421 604 + 0.5;
#X obj 421 626 i;
#X msg 421 648 set \$1;
#X obj 572 582 /;
#X obj 507 565 t b f f;
#X obj 572 604 * 127;
#X obj 572 626 i;
#X msg 572 648 set \$1;
#X obj 421 736 / 127;
#X obj 421 758 *;
#X obj 421 780 + 0.5;
#X obj 421 802 i;
#X msg 421 824 set \$1;
#X obj 572 758 /;
#X obj 507 741 t b f f;
#X obj 572 780 * 127;
#X obj 572 802 i;
#X msg 572 824 set \$1;
#X obj 679 582 pack f \$0;
#X obj 679 758 pack f \$0;
#X obj 421 538 r \$0-sndacc;
#X obj 421 670 s \$0-rcvaccnmb;
#X obj 572 670 s \$0-rcvacc;
#X obj 572 560 r \$0-sndaccnmb;
#X msg 679 604 \; \$2-rcvaccnmb range 0 \$1;
#X obj 507 543 r \$0-bts;
#X obj 507 719 r \$0-bts;
#X obj 421 714 r \$0-sndart;
#X obj 421 846 s \$0-rcvartnmb;
#X obj 572 846 s \$0-rcvart;
#X obj 572 736 r \$0-sndartnmb;
#X msg 679 780 \; \$2-rcvartnmb range 0 \$1;
#X msg 251 55 1/1;
#X msg 267 76 2/1;
#X obj 724 103 * 31;
#X obj 726 121 + 1;
#X obj 1048 179 s \$0-stp;
#X obj 690 335 s \$0-bts;
#X obj 690 511 s \$0-rte;
#X obj 690 687 s \$0-acc;
#X obj 690 863 s \$0-art;
#X obj 920 200 s \$0-guistp;
#X obj 658 357 s \$0-guibts;
#X obj 658 533 s \$0-guirte;
#X obj 658 709 s \$0-guiacc;
#X obj 658 885 s \$0-guiart;
#X obj 953 144 t f f;
#X obj 658 313 t f f;
#X obj 658 489 t f f;
#X obj 658 665 t f f;
#X obj 658 841 t f f;
#X obj 658 291 f;
#X obj 658 467 f;
#X obj 658 643 f;
#X obj 658 819 f;
#X msg 283 98 3/1;
#X msg 299 120 4/1;
#X msg 315 142 6/1;
#X msg 331 162 8/1;
#X msg 347 182 9/1;
#X msg 363 202 12/1;
#X msg 379 222 16/1;
#X obj 251 33 sel 0 1 2 3 4 5 6 7 8;
#X obj 12 33 sel 1 0, f 30;
#N canvas 226 96 607 607 speed_limit 0;
#X obj 107 8 inlet;
#X obj 109 271 outlet;
#X obj 105 147 spigot 1;
#X msg 201 124 0;
#X msg 164 100 1;
#X obj 105 206 t f b b;
#X obj 107 80 f;
#X obj 168 258 t b b;
#X obj 105 177 change;
#X obj 168 234 delay 300;
#X connect 0 0 6 0;
#X connect 2 0 8 0;
#X connect 3 0 2 1;
#X connect 4 0 2 1;
#X connect 5 0 1 0;
#X connect 5 1 9 0;
#X connect 5 2 3 0;
#X connect 6 0 2 0;
#X connect 7 0 6 0;
#X connect 7 1 4 0;
#X connect 8 0 5 0;
#X connect 9 0 7 0;
#X restore 918 171 pd speed_limit;
#X obj 951 116 change;
#X obj 511 81 r \$0-sndcvbts;
#X obj 422 132 +;
#X obj 511 105 t b f;
#X obj 421 172 clip 0 127;
#X floatatom 522 161 5 0 0 0 - - - 0;
#X obj 733 3 r \$0-sndcvstp;
#X obj 734 54 +;
#X obj 733 27 t b f;
#X obj 716 169 clip 1 32;
#X connect 0 0 117 0;
#X connect 1 0 3 0;
#X connect 3 0 2 0;
#X connect 4 0 118 0;
#X connect 5 0 7 0;
#X connect 6 0 7 0;
#X connect 7 0 8 0;
#X connect 8 0 9 0;
#X connect 10 0 9 0;
#X connect 11 0 9 0;
#X connect 12 0 9 0;
#X connect 13 0 9 0;
#X connect 14 0 127 0;
#X connect 15 0 89 0;
#X connect 16 0 129 0;
#X connect 18 0 17 0;
#X connect 19 0 20 0;
#X connect 20 0 22 0;
#X connect 21 0 28 0;
#X connect 22 0 23 0;
#X connect 23 0 24 0;
#X connect 23 0 106 0;
#X connect 24 0 25 0;
#X connect 26 0 27 0;
#X connect 26 0 106 0;
#X connect 27 0 29 0;
#X connect 28 0 20 0;
#X connect 28 1 20 1;
#X connect 28 2 27 1;
#X connect 28 2 49 0;
#X connect 29 0 30 0;
#X connect 30 0 31 0;
#X connect 31 0 32 0;
#X connect 33 0 122 0;
#X connect 34 0 35 0;
#X connect 35 0 37 0;
#X connect 36 0 41 0;
#X connect 37 0 38 0;
#X connect 38 0 39 0;
#X connect 38 0 107 0;
#X connect 39 0 46 0;
#X connect 40 0 42 0;
#X connect 41 0 35 0;
#X connect 41 1 35 1;
#X connect 41 2 40 1;
#X connect 41 2 51 0;
#X connect 42 0 43 0;
#X connect 43 0 44 0;
#X connect 44 0 48 0;
#X connect 45 0 34 0;
#X connect 47 0 40 0;
#X connect 47 0 107 0;
#X connect 49 0 50 0;
#X connect 51 0 52 0;
#X connect 53 0 54 0;
#X connect 54 0 55 0;
#X connect 55 0 56 0;
#X connect 56 0 57 0;
#X connect 56 0 108 0;
#X connect 57 0 76 0;
#X connect 58 0 60 0;
#X connect 59 0 54 0;
#X connect 59 1 54 1;
#X connect 59 2 58 1;
#X connect 59 2 73 0;
#X connect 60 0 61 0;
#X connect 61 0 62 0;
#X connect 62 0 77 0;
#X connect 63 0 64 0;
#X connect 64 0 65 0;
#X connect 65 0 66 0;
#X connect 66 0 67 0;
#X connect 66 0 109 0;
#X connect 67 0 83 0;
#X connect 68 0 70 0;
#X connect 69 0 64 0;
#X connect 69 1 64 1;
#X connect 69 2 68 1;
#X connect 69 2 74 0;
#X connect 70 0 71 0;
#X connect 71 0 72 0;
#X connect 72 0 84 0;
#X connect 73 0 79 0;
#X connect 74 0 86 0;
#X connect 75 0 53 0;
#X connect 78 0 58 0;
#X connect 78 0 108 0;
#X connect 80 0 59 0;
#X connect 81 0 69 0;
#X connect 82 0 63 0;
#X connect 85 0 68 0;
#X connect 85 0 109 0;
#X connect 87 0 1 0;
#X connect 88 0 1 0;
#X connect 89 0 90 0;
#X connect 90 0 16 0;
#X connect 101 0 119 0;
#X connect 101 1 91 0;
#X connect 102 0 97 0;
#X connect 102 1 92 0;
#X connect 103 0 98 0;
#X connect 103 1 93 0;
#X connect 104 0 99 0;
#X connect 104 1 94 0;
#X connect 105 0 100 0;
#X connect 105 1 95 0;
#X connect 106 0 102 0;
#X connect 107 0 103 0;
#X connect 108 0 104 0;
#X connect 109 0 105 0;
#X connect 110 0 1 0;
#X connect 111 0 1 0;
#X connect 112 0 1 0;
#X connect 113 0 1 0;
#X connect 114 0 1 0;
#X connect 115 0 1 0;
#X connect 116 0 1 0;
#X connect 117 0 87 0;
#X connect 117 1 88 0;
#X connect 117 2 110 0;
#X connect 117 3 111 0;
#X connect 117 4 112 0;
#X connect 117 5 113 0;
#X connect 117 6 114 0;
#X connect 117 7 115 0;
#X connect 117 8 116 0;
#X connect 118 0 5 0;
#X connect 118 0 10 0;
#X connect 118 0 12 0;
#X connect 118 1 6 0;
#X connect 118 1 11 0;
#X connect 118 1 13 0;
#X connect 119 0 96 0;
#X connect 120 0 101 0;
#X connect 121 0 123 0;
#X connect 122 0 124 0;
#X connect 123 0 122 0;
#X connect 123 1 122 1;
#X connect 124 0 19 0;
#X connect 124 0 125 0;
#X connect 126 0 128 0;
#X connect 127 0 15 0;
#X connect 128 0 127 0;
#X connect 128 1 127 1;
#X connect 129 0 18 0;
#X connect 129 0 120 0;
#X restore 512 321 pd \$0-sliders;
#N canvas 895 23 677 541 \$0-guicircle 0;
#X obj 545 479 s pd-\$0-circle;
#X obj 285 330 cos;
#X obj 329 330 sin;
#X obj 285 137 until;
#X obj 285 159 i;
#X obj 317 159 + 1;
#X obj 285 203 t b b;
#X msg 303 220 0;
#X obj 340 225 /;
#X obj 285 242 *;
#X obj 285 308 t f f;
#X obj 285 374 i;
#X obj 329 374 i;
#X obj 285 418 pack f f;
#X msg 285 462 obj \$1 \$2 tgl;
#X obj 317 181 - 1;
#X msg 545 248 clear;
#X obj 285 286 - 1.57079;
#X obj 285 264 * 6.28319;
#X msg 340 203 1 \$1;
#X obj 285 181 sel;
#X msg 155 462 connect \$1 0 \$2 0;
#X obj 155 242 t f f;
#X obj 192 264 +;
#X obj 155 281 pack;
#X obj 294 115 t b f f;
#X obj 155 137 until;
#X obj 155 159 i;
#X obj 187 159 + 1;
#X obj 155 203 t b b;
#X msg 173 220 0;
#X obj 187 181 - 1;
#X obj 155 181 sel;
#X obj 164 115 t b f f;
#X msg 387 462 obj \$1 \$2 r \$4-tgl\$3;
#X obj 387 440 pack f f f \$0;
#X obj 390 352 cos;
#X obj 434 352 sin;
#X obj 390 137 until;
#X obj 390 159 i;
#X obj 422 159 + 1;
#X obj 390 203 t b b;
#X msg 408 220 0;
#X obj 445 247 /;
#X obj 390 264 *;
#X obj 390 330 t f f;
#X obj 390 396 i;
#X obj 434 396 i;
#X obj 422 181 - 1;
#X obj 390 308 - 1.57079;
#X obj 390 286 * 6.28319;
#X msg 445 225 1 \$1;
#X obj 390 181 sel;
#X obj 399 115 t b f f;
#X obj 471 76 r \$0-guistp;
#X obj 285 395 + 180;
#X obj 329 396 + 180;
#X obj 285 352 * 75;
#X obj 329 352 * 75;
#X obj 390 374 * 75;
#X obj 434 374 * 75;
#X obj 390 418 + 180;
#X obj 434 418 + 170;
#X obj 471 98 t f f f f b;
#X obj 12 159 i;
#X obj 44 159 + 1;
#X obj 12 181 sel;
#X obj 12 203 t b b;
#X msg 30 220 0;
#X obj 44 181 - 1;
#X obj 12 137 until;
#X obj 12 309 tabread \$0-btsacc;
#X obj 12 331 sel 0 1 2;
#X msg 12 353 color 0 0;
#X msg 32 373 color 11 11;
#X msg 52 393 color 22 22;
#X obj 12 454 s;
#X obj 49 415 pack f \$0;
#X msg 49 437 symbol \$2-tgl\$1;
#X obj 390 242 t f f;
#X obj 12 93 bang;
#X obj 12 11 r \$0-guibts;
#X obj 12 31 r \$0-guirte;
#X obj 12 51 r \$0-guiacc;
#X obj 12 71 r \$0-guiart;
#X obj 21 115 t b f f;
#X obj 12 242 t f f;
#X connect 1 0 57 0;
#X connect 2 0 58 0;
#X connect 3 0 4 0;
#X connect 4 0 5 0;
#X connect 4 0 20 0;
#X connect 4 0 9 0;
#X connect 5 0 4 1;
#X connect 6 0 7 0;
#X connect 6 1 3 1;
#X connect 7 0 4 1;
#X connect 8 0 9 1;
#X connect 9 0 18 0;
#X connect 10 0 1 0;
#X connect 10 1 2 0;
#X connect 11 0 55 0;
#X connect 12 0 56 0;
#X connect 13 0 14 0;
#X connect 14 0 0 0;
#X connect 15 0 20 1;
#X connect 16 0 0 0;
#X connect 17 0 10 0;
#X connect 18 0 17 0;
#X connect 19 0 8 0;
#X connect 20 0 6 0;
#X connect 21 0 0 0;
#X connect 22 0 24 0;
#X connect 22 1 23 0;
#X connect 23 0 24 1;
#X connect 24 0 21 0;
#X connect 25 0 3 0;
#X connect 25 1 15 0;
#X connect 25 2 19 0;
#X connect 26 0 27 0;
#X connect 27 0 28 0;
#X connect 27 0 32 0;
#X connect 27 0 22 0;
#X connect 28 0 27 1;
#X connect 29 0 30 0;
#X connect 29 1 26 1;
#X connect 30 0 27 1;
#X connect 31 0 32 1;
#X connect 32 0 29 0;
#X connect 33 0 26 0;
#X connect 33 1 31 0;
#X connect 33 2 23 1;
#X connect 34 0 0 0;
#X connect 35 0 34 0;
#X connect 36 0 59 0;
#X connect 37 0 60 0;
#X connect 38 0 39 0;
#X connect 39 0 40 0;
#X connect 39 0 52 0;
#X connect 39 0 79 0;
#X connect 40 0 39 1;
#X connect 41 0 42 0;
#X connect 41 1 38 1;
#X connect 42 0 39 1;
#X connect 43 0 44 1;
#X connect 44 0 50 0;
#X connect 45 0 36 0;
#X connect 45 1 37 0;
#X connect 46 0 61 0;
#X connect 47 0 62 0;
#X connect 48 0 52 1;
#X connect 49 0 45 0;
#X connect 50 0 49 0;
#X connect 51 0 43 0;
#X connect 52 0 41 0;
#X connect 53 0 38 0;
#X connect 53 1 48 0;
#X connect 53 2 51 0;
#X connect 54 0 63 0;
#X connect 55 0 13 0;
#X connect 56 0 13 1;
#X connect 57 0 11 0;
#X connect 58 0 12 0;
#X connect 59 0 46 0;
#X connect 60 0 47 0;
#X connect 61 0 35 0;
#X connect 62 0 35 1;
#X connect 63 0 85 0;
#X connect 63 1 33 0;
#X connect 63 2 25 0;
#X connect 63 3 53 0;
#X connect 63 4 16 0;
#X connect 64 0 65 0;
#X connect 64 0 66 0;
#X connect 64 0 86 0;
#X connect 65 0 64 1;
#X connect 66 0 67 0;
#X connect 67 0 68 0;
#X connect 67 1 70 1;
#X connect 68 0 64 1;
#X connect 69 0 66 1;
#X connect 70 0 64 0;
#X connect 71 0 72 0;
#X connect 72 0 73 0;
#X connect 72 1 74 0;
#X connect 72 2 75 0;
#X connect 73 0 76 0;
#X connect 74 0 76 0;
#X connect 75 0 76 0;
#X connect 77 0 78 0;
#X connect 78 0 76 1;
#X connect 79 0 44 0;
#X connect 79 1 35 2;
#X connect 80 0 70 0;
#X connect 81 0 80 0;
#X connect 82 0 80 0;
#X connect 83 0 80 0;
#X connect 84 0 80 0;
#X connect 85 0 70 0;
#X connect 85 1 69 0;
#X connect 86 0 71 0;
#X connect 86 1 77 0;
#X restore 512 361 pd \$0-guicircle;
#X obj 835 808 %;
#X obj 835 896 tabread \$0-btsacc;
#X obj 835 874 t f f;
#X obj 963 891 pack f \$0;
#X msg 963 980 symbol \$2-tgl\$1;
#X obj 835 997 s;
#X obj 835 918 sel 0 1 2;
#X msg 835 940 color 0 0;
#X msg 855 960 color 11 11;
#X msg 875 980 color 22 22;
#X obj 835 852 i;
#X obj 835 830 t f b b f;
#X obj 415 808 tabread \$0-btsacc;
#X obj 895 791 r \$0-guistp;
#X obj 309 842 sel 1 2, f 23;
#X obj 835 759 i;
#X obj 835 781 change;
#X obj 971 624 r \$0-sndspd;
#X obj 970 676 sel 0 1 2 3 4 5 6 7 8;
#X msg 970 698 1;
#X msg 986 720 2;
#X msg 1002 698 3;
#X msg 1018 720 4;
#X msg 1034 698 6;
#X msg 1098 698 16;
#X msg 1050 720 8;
#X msg 1066 698 9;
#X msg 1082 720 12;
#X obj 827 577 spigot;
#X obj 876 560 r \$0-sndtgl;
#X text 827 535 CLOCK;
#X text 1348 75 rte = ROTATE;
#X text 1348 90 vel = VELOCITY;
#X text 1348 105 tgl = TOGGLE ON/OFF;
#X text 1348 120 spd = SPEED;
#X text 1348 135 acc = ACCENTS;
#X text 1348 150 art = ACCENT ROTATE;
#X text 1348 165 avl = ACCENT VELOCITY;
#X obj 815 440 threshold~ 0.9 0 0.9 0;
#X obj 815 416 inlet~;
#X obj 841 655 f;
#X obj 877 655 + 1;
#X obj 859 623 r \$0-reset;
#X obj 225 960 vline~;
#X obj 225 986 outlet~;
#X msg 225 935 1 0 \, 0 1 1;
#X obj 313 960 vline~;
#X obj 313 986 outlet~;
#X msg 313 935 1 0 \, 0 1 1;
#X obj 1148 551 s \$0-sndcvstp;
#X obj 1455 583 s \$0-sndcvbts;
#X msg 943 850 color 14 14;
#N canvas 0 0 450 300 unsig~ 0;
#X obj 22 42 inlet~;
#X text 62 42 ~signal_in~;
#X text 12 8 unsig~;
#X obj 22 221 outlet;
#X text 69 222 float-out;
#X text 67 9 grab every metrotime one sample;
#X obj 22 195 snapshot~;
#X obj 39 172 metro 300;
#X obj 39 81 loadbang;
#X text 116 275 IEM KUG;
#X text 100 263 musil;
#X text 130 263 @;
#X text 136 263 iem.at;
#X text 51 252 (c) Thomas Musil 2000 - 2005;
#X text 99 285 Graz \, Austria;
#X obj 69 150 tgl 15 1 empty empty empty 17 7 0 10 #fcfcfc #000000 #000000 1 1;
#X connect 0 0 6 0;
#X connect 6 0 3 0;
#X connect 7 0 6 0;
#X connect 8 0 7 0;
#X connect 15 0 7 0;
#X restore 1452 478 pd unsig~;
#X obj 10 50 reloaded euklid \$0 \$1;
#X obj 50 10 savestate;
#N canvas 0 0 958 1016 \$0-gui_listeners 0;
#X obj 10 0 reloaded/hsl_dispatch euklid \$0 \$1 0 127 sndart rcvart ACC.ROT. #fcfcfc #000000 #000000;
#X obj 10 60 reloaded/tgl_dispatch euklid \$0 \$1 0 1 sndtgl rcvtgl ON #000000 #000000 #fcfcfc;
#X obj 10 120 reloaded/hradio_dispatch euklid \$0 \$1 0 7 sndspd rcvspd SPEED #fcfcfc #000000 #000000;
#X obj 10 300 reloaded/hsl_dispatch euklid \$0 \$1 0 127 sndacc rcvacc ACCENTS #fcfcfc #000000 #000000;
#X obj 10 420 reloaded/hsl_dispatch euklid \$0 \$1 0 127 sndrte rcvrte ROTATE #fcfcfc #000000 #000000;
#X obj 10 540 reloaded/hsl_dispatch euklid \$0 \$1 0 127 sndbts rcvbts BEATS #fcfcfc #000000 #000000;
#X obj 10 660 reloaded/hsl_dispatch euklid \$0 \$1 0 127 sndstp rcvstp STEPS #fcfcfc #000000 #000000;
#X obj 10 720 reloaded/hsl_dispatch euklid \$0 \$1 0 127 numCV numCV-rcv CV-BEATS #9898dc #000000 #000000;
#X obj 10 780 reloaded/hsl_dispatch euklid \$0 \$1 0 127 lenCV lenCV-rcv CV-STEPS #9898dc #000000 #000000;
#X restore 10 80 pd \$0-gui_listeners;
#X obj 203 449 cnv 15 173 173 empty empty empty 20 12 0 14 #f4e1d8 #404040 0;
#X obj 388 500 hsl 128 14 0 127 0 0 \$0-lenCV \$0-lenCV-rcv CV-STEPS 165 8 0 10 #9898dc #000000 #000000 0 1;
#X obj 388 528 hsl 128 14 0 127 0 0 \$0-numCV \$0-numCV-rcv CV-BEATS 165 8 0 10 #9898dc #000000 #000000 0 1;
#X obj 388 486 hsl 128 14 0 127 0 1 \$0-sndstp \$0-rcvstp STEPS 165 8 0 10 #fcfcfc #000000 #000000 11100 1;
#X obj 388 514 hsl 128 14 0 127 0 0 \$0-sndbts \$0-rcvbts BEATS 165 8 0 10 #fcfcfc #000000 #000000 0 1;
#X obj 388 542 hsl 128 14 0 127 0 0 \$0-sndrte \$0-rcvrte ROTATE 165 8 0 10 #fcfcfc #000000 #000000 0 1;
#X obj 388 566 hsl 128 14 0 127 0 0 \$0-sndacc \$0-rcvacc ACCENTS 165 8 0 10 #fcfcfc #000000 #000000 0 1;
#X obj 447 451 hradio 15 1 0 8 \$0-sndspd \$0-rcvspd SPEED 125 8 0 10 #fcfcfc #000000 #000000 0;
#N canvas 0 0 958 1016 \$0-circle 0;
#X obj 180 95 r 1246-tgl0;
#X obj 196 97 r 1246-tgl1;
#X obj 212 103 r 1246-tgl2;
#X obj 226 112 r 1246-tgl3;
#X obj 238 124 r 1246-tgl4;
#X obj 247 138 r 1246-tgl5;
#X obj 253 154 r 1246-tgl6;
#X obj 255 170 r 1246-tgl7;
#X obj 253 186 r 1246-tgl8;
#X obj 247 202 r 1246-tgl9;
#X obj 238 216 r 1246-tgl10;
#X obj 226 228 r 1246-tgl11;
#X obj 212 237 r 1246-tgl12;
#X obj 196 243 r 1246-tgl13;
#X obj 180 245 r 1246-tgl14;
#X obj 164 243 r 1246-tgl15;
#X obj 148 237 r 1246-tgl16;
#X obj 134 228 r 1246-tgl17;
#X obj 122 216 r 1246-tgl18;
#X obj 113 202 r 1246-tgl19;
#X obj 107 186 r 1246-tgl20;
#X obj 105 170 r 1246-tgl21;
#X obj 107 154 r 1246-tgl22;
#X obj 113 138 r 1246-tgl23;
#X obj 122 124 r 1246-tgl24;
#X obj 134 112 r 1246-tgl25;
#X obj 148 103 r 1246-tgl26;
#X obj 164 97 r 1246-tgl27;
#X obj 180 105 tgl 20 0 empty empty empty 0 -10 0 12 #fcfcfc #fcfcfc #000000 0 1;
#X obj 196 107 tgl 20 0 empty empty empty 0 -10 0 12 #fcfcfc #fcfcfc #000000 0 1;
#X obj 212 113 tgl 20 0 empty empty empty 0 -10 0 12 #fcfcfc #fcfcfc #000000 0 1;
#X obj 226 122 tgl 20 0 empty empty empty 0 -10 0 12 #fcfcfc #fcfcfc #000000 0 1;
#X obj 238 134 tgl 20 0 empty empty empty 0 -10 0 12 #fcfcfc #fcfcfc #000000 0 1;
#X obj 247 148 tgl 20 0 empty empty empty 0 -10 0 12 #fcfcfc #fcfcfc #000000 0 1;
#X obj 253 164 tgl 20 0 empty empty empty 0 -10 0 12 #fcfcfc #fcfcfc #000000 0 1;
#X obj 255 180 tgl 20 0 empty empty empty 0 -10 0 12 #fcfcfc #fcfcfc #000000 0 1;
#X obj 253 196 tgl 20 0 empty empty empty 0 -10 0 12 #fcfcfc #fcfcfc #000000 0 1;
#X obj 247 212 tgl 20 0 empty empty empty 0 -10 0 12 #fcfcfc #fcfcfc #000000 0 1;
#X obj 238 226 tgl 20 0 empty empty empty 0 -10 0 12 #fcfcfc #fcfcfc #000000 0 1;
#X obj 226 238 tgl 20 0 empty empty empty 0 -10 0 12 #fcfcfc #fcfcfc #000000 0 1;
#X obj 212 247 tgl 20 0 empty empty empty 0 -10 0 12 #fcfcfc #fcfcfc #000000 0 1;
#X obj 196 253 tgl 20 0 empty empty empty 0 -10 0 12 #fcfcfc #fcfcfc #000000 0 1;
#X obj 180 255 tgl 20 0 empty empty empty 0 -10 0 12 #fcfcfc #fcfcfc #000000 0 1;
#X obj 164 253 tgl 20 0 empty empty empty 0 -10 0 12 #fcfcfc #fcfcfc #000000 0 1;
#X obj 148 247 tgl 20 0 empty empty empty 0 -10 0 12 #fcfcfc #fcfcfc #000000 0 1;
#X obj 134 238 tgl 20 0 empty empty empty 0 -10 0 12 #fcfcfc #fcfcfc #000000 0 1;
#X obj 122 226 tgl 20 0 empty empty empty 0 -10 0 12 #fcfcfc #fcfcfc #000000 0 1;
#X obj 113 212 tgl 20 0 empty empty empty 0 -10 0 12 #fcfcfc #fcfcfc #000000 0 1;
#X obj 107 196 tgl 20 0 empty empty empty 0 -10 0 12 #fcfcfc #fcfcfc #000000 0 1;
#X obj 105 180 tgl 20 0 empty empty empty 0 -10 0 12 #fcfcfc #fcfcfc #000000 0 1;
#X obj 107 164 tgl 20 0 empty empty empty 0 -10 0 12 #fcfcfc #fcfcfc #000000 0 1;
#X obj 113 148 tgl 20 0 empty empty empty 0 -10 0 12 #fcfcfc #fcfcfc #000000 0 1;
#X obj 122 134 tgl 20 0 empty empty empty 0 -10 0 12 #fcfcfc #fcfcfc #000000 0 1;
#X obj 134 122 tgl 20 0 empty empty empty 0 -10 0 12 #fcfcfc #fcfcfc #000000 0 1;
#X obj 148 113 tgl 20 0 empty empty empty 0 -10 0 12 #fcfcfc #fcfcfc #000000 0 1;
#X obj 164 107 tgl 20 0 empty empty empty 0 -10 0 12 #fcfcfc #fcfcfc #000000 0 1;
#X connect 0 0 28 0;
#X connect 1 0 29 0;
#X connect 2 0 30 0;
#X connect 3 0 31 0;
#X connect 4 0 32 0;
#X connect 5 0 33 0;
#X connect 6 0 34 0;
#X connect 7 0 35 0;
#X connect 8 0 36 0;
#X connect 9 0 37 0;
#X connect 10 0 38 0;
#X connect 11 0 39 0;
#X connect 12 0 40 0;
#X connect 13 0 41 0;
#X connect 14 0 42 0;
#X connect 15 0 43 0;
#X connect 16 0 44 0;
#X connect 17 0 45 0;
#X connect 18 0 46 0;
#X connect 19 0 47 0;
#X connect 20 0 48 0;
#X connect 21 0 49 0;
#X connect 22 0 50 0;
#X connect 23 0 51 0;
#X connect 24 0 52 0;
#X connect 25 0 53 0;
#X connect 26 0 54 0;
#X connect 27 0 55 0;
#X coords 0 -1 1 1 175 175 2 100 100;
#X restore 203 449 pd \$0-circle;
#X obj 402 450 tgl 28 1 \$0-sndtgl \$0-rcvtgl ON 6 15 0 14 #000000 #000000 #fcfcfc 1 1;
#X obj 388 606 hsl 128 14 0 127 0 0 \$0-sndart \$0-rcvart ACC.ROT. 165 8 0 10 #fcfcfc #000000 #000000 0 1;
#X obj 337 433 cnv 5 5 5 empty empty STEPS 0 0 0 8 #fcfcfc #dc4c90 0;
#X obj 202 433 cnv 5 5 5 empty empty CLK 0 0 0 8 #fcfcfc #404040 0;
#X obj 597 433 cnv 5 5 5 empty empty SYNC 0 0 0 8 #fcfcfc #dc4c90 0;
#X obj 457 433 cnv 5 5 5 empty empty BEATS 0 0 0 8 #fcfcfc #dc4c90 0;
#X obj 231 628 bng 10 50 50 0 empty empty empty 17 7 0 10 #fcfcfc #000000 #000000;
#X obj 571 628 bng 10 50 50 0 empty empty empty 17 7 0 10 #fcfcfc #000000 #000000;
#X obj 231 441 cnv 5 5 5 empty empty EUKLID 0 0 0 12 #fcfcfc #404040 0;
#X obj 281 441 cnv 5 5 5 empty \$0-instance-num 0 0 0 0 12 #fcfcfc #404040 0;
#X obj 200 631 cnv 5 5 5 empty empty BEAT 0 0 0 8 #fcfcfc #404040 0;
#X obj 587 630 cnv 5 5 5 empty empty ACCENT 0 0 0 8 #fcfcfc #404040 0;
#X text 940 37 A terminer;
#X obj 1457 544 change;
#X obj 1147 519 change;
#X obj 521 488 vsl 30 128 0 127 0 0 empty empty empty 0 -9 0 10 #fcfcfc #000000 #000000 0 1;
#X obj 520 485 cnv 15 31 134 empty empty empty 20 12 0 14 #ffffff #404040 0;
#X obj 518 486 nbx 2 14 1 32 0 0 \$0-sndstpnmb \$0-rcvstpnmb empty 0 -8 0 12 #fcfcfc #000000 #000000 0 256;
#X obj 518 514 nbx 2 14 0 28 0 0 \$0-sndbtsnmb \$0-rcvbtsnmb empty 0 -8 0 12 #fcfcfc #000000 #000000 0 256;
#X obj 518 542 nbx 2 14 0 28 0 0 \$0-sndrtenmb \$0-rcvrtenmb empty 0 -8 0 12 #fcfcfc #000000 #000000 0 256;
#X obj 518 566 nbx 2 14 0 0 0 0 \$0-sndaccnmb \$0-rcvaccnmb empty 0 -8 0 12 #fcfcfc #000000 #000000 0 256;
#X obj 518 606 nbx 2 14 0 0 0 0 \$0-sndartnmb \$0-rcvartnmb empty 0 -8 0 12 #fcfcfc #000000 #000000 0 256;
#X obj 1651 460 inlet~ fwd;
#X obj 1716 496 route bang;
#X obj 835 737 / 1;
#X obj 157 78 namecanvas \$0-this;
#X connect 2 0 20 0;
#X connect 3 0 76 0;
#X connect 4 0 10 0;
#X connect 5 0 103 0;
#X connect 6 0 102 0;
#X connect 7 0 5 1;
#X connect 8 0 6 1;
#X connect 10 0 19 0;
#X connect 12 0 14 0;
#X connect 14 0 15 0;
#X connect 15 0 13 0;
#X connect 20 0 5 0;
#X connect 24 0 35 0;
#X connect 25 0 30 0;
#X connect 26 0 25 0;
#X connect 26 1 27 0;
#X connect 27 0 28 0;
#X connect 28 0 29 1;
#X connect 30 0 31 0;
#X connect 30 1 32 0;
#X connect 30 2 33 0;
#X connect 31 0 29 0;
#X connect 32 0 29 0;
#X connect 33 0 29 0;
#X connect 34 0 26 0;
#X connect 35 0 34 1;
#X connect 35 1 34 0;
#X connect 35 2 75 0;
#X connect 35 3 27 0;
#X connect 35 3 36 0;
#X connect 36 0 38 0;
#X connect 37 0 24 1;
#X connect 38 0 69 0;
#X connect 38 0 95 0;
#X connect 38 1 72 0;
#X connect 38 1 96 0;
#X connect 39 0 40 0;
#X connect 40 0 24 0;
#X connect 41 0 42 0;
#X connect 42 0 43 0;
#X connect 42 1 44 0;
#X connect 42 2 45 0;
#X connect 42 3 46 0;
#X connect 42 4 47 0;
#X connect 42 5 49 0;
#X connect 42 6 50 0;
#X connect 42 7 51 0;
#X connect 42 8 48 0;
#X connect 43 0 113 1;
#X connect 44 0 113 1;
#X connect 45 0 113 1;
#X connect 46 0 113 1;
#X connect 47 0 113 1;
#X connect 48 0 113 1;
#X connect 49 0 113 1;
#X connect 50 0 113 1;
#X connect 51 0 113 1;
#X connect 52 0 64 0;
#X connect 53 0 52 1;
#X connect 62 0 52 0;
#X connect 63 0 62 0;
#X connect 64 0 65 0;
#X connect 64 0 113 0;
#X connect 65 0 64 1;
#X connect 66 0 64 1;
#X connect 67 0 68 0;
#X connect 69 0 67 0;
#X connect 70 0 71 0;
#X connect 72 0 70 0;
#X connect 75 0 29 0;
#X connect 76 0 6 0;
#X connect 77 0 78 0;
#X connect 78 0 77 0;
#X connect 78 1 77 1;
#X connect 102 0 74 0;
#X connect 103 0 73 0;
#X connect 111 0 4 0;
#X connect 111 1 112 0;
#X connect 112 0 10 0;
#X connect 113 0 39 0;
#X coords 0 -1 1 1 424 215 2 197 427;
