#N canvas 0 23 1001 752 10;
#X obj 356 456 clip 0 1;
#X obj 356 477 sig~;
#X obj 356 506 lop~ 10;
#X text 407 505 SMOOTHENESS;
#X obj 488 460 expr~ if ($v1 > $v2 \, 1 \, 0 );
#X obj 647 434 sig~;
#X obj 356 431 / 100;
#X obj 356 409 env~;
#X obj 112 121 hsl 128 15 0 127 0 1 \$0-env-follower2-input-s \$0-env-follower2-input-r
INPUT 135 7 0 10 -262144 -1 -1 12700 1;
#X obj 647 412 * 0.00787402;
#X obj 488 530 outlet~ EXTRACT-GATE;
#X obj 484 198 *~;
#X obj 112 151 hsl 128 15 0 127 0 1 \$0-env-follower2-threshold-s \$0-env-follower2-threshold-r
GATE-THRESH 135 7 0 10 -262144 -1 -1 1000 1;
#X obj 112 136 hsl 128 15 0 127 0 1 \$0-env-follower2-smooth-s \$0-env-follower2-smooth-r
AMP-SMOOTH 135 7 0 10 -262144 -1 -1 0 1;
#X obj 549 71 * 0.00787402;
#X obj 549 134 pack 0 50;
#X obj 549 157 line~;
#X obj 549 179 +~;
#X obj 356 693 outlet~ AMPLITUDE;
#X obj 395 370 * 0.00787402;
#X obj 395 414 + 1;
#X obj 549 93 * 4;
#X msg 395 309 127 \$1;
#X obj 395 331 -;
#X floatatom 241 106 5 0 0 0 - - -, f 5;
#X obj 243 41 * 0.00787402;
#X obj 243 63 * 4;
#X floatatom 432 462 5 0 0 0 - - -, f 5;
#X obj 395 392 * 999;
#X obj 851 214 fiddle~;
#X obj 877 238 unpack f f;
#X floatatom 877 260 5 0 0 0 - - -, f 5;
#X obj 877 279 * 0.00787402;
#X obj 877 323 line~;
#X obj 877 301 pack 0 10;
#X obj 877 345 +~;
#X obj 877 367 outlet~ FREQUENCY;
#X obj 109 114 cnv 5 5 5 empty empty EXTERNAL-AUDIO 0 0 0 12 -262144
-66577 0;
#X obj 219 114 cnv 5 5 5 empty \$0-instance-num 1 0 0 0 12 -262144
-66577 0;
#X obj 342 217 cnv 5 5 5 empty empty FREQ 0 0 0 8 -262144 -1 0;
#X obj 288 217 cnv 5 5 5 empty empty GATE 0 0 0 8 -262144 -226533 0
;
#X obj 161 217 cnv 5 5 5 empty empty CH2 0 0 0 8 -262144 -1 0;
#X obj 112 166 hsl 128 15 0 127 0 1 \$0-env-follower2-amp-/+-s \$0-env-follower2-amp-/+-r
AMPLITUDE-/+ 135 7 0 10 -150893 -1 -1 0 1;
#X floatatom 109 181 5 0 0 0 - - -, f 5;
#X obj 36 45 * 0.00787402;
#X obj 36 67 * 2;
#X obj 36 89 - 1;
#X obj 356 626 *~;
#X obj 411 584 * 0.00787402;
#X obj 411 606 * 2;
#X obj 411 628 - 1;
#X obj 411 672 line~;
#X obj 411 650 pack 0 10;
#N canvas 267 22 593 735 state-saving-multiple-instances 0;
#X obj 205 28 loadbang;
#X obj 251 481 textfile;
#X obj 205 61 t b b;
#X obj 251 503 unpack f f f f;
#X msg 508 464 rewind;
#X msg 465 464 bang;
#X obj 109 691 textfile;
#X obj 465 425 t b b;
#X obj 110 400 pack f f f f;
#X obj 110 357 f;
#X obj 123 580 f;
#X obj 48 403 t b b b;
#X msg 186 580 clear;
#X msg 110 438 set \$1 \$2 \$3 \$4;
#X obj 271 217 outlet;
#X text 267 237 INSTANCE NUMBER;
#X obj 232 152 f \$1;
#X obj 232 188 t f f f;
#X obj 48 378 bng 15 250 50 0 empty empty empty 17 7 0 10 -262144 -1
-1;
#X obj 48 274 r SAVE-S;
#X msg 122 651 write statesave/\$1-env-follow2-ss.txt;
#X msg 251 456 read statesave/\$1-env-follow2-ss.txt;
#X obj 125 309 r \$0-env-follower2-input-s;
#X obj 133 332 r \$0-env-follower2-smooth-s;
#X obj 156 353 r \$0-env-follower2-threshold-s;
#X obj 179 374 r \$0-env-follower2-amp-/+-s;
#X obj 251 617 s \$0-env-follower2-input-r;
#X obj 278 594 s \$0-env-follower2-smooth-r;
#X obj 305 568 s \$0-env-follower2-threshold-r;
#X obj 332 538 s \$0-env-follower2-amp-/+-r;
#X connect 0 0 2 0;
#X connect 1 0 3 0;
#X connect 2 0 7 0;
#X connect 2 1 16 0;
#X connect 3 0 26 0;
#X connect 3 1 27 0;
#X connect 3 2 28 0;
#X connect 3 3 29 0;
#X connect 4 0 1 0;
#X connect 5 0 1 0;
#X connect 7 0 5 0;
#X connect 7 1 4 0;
#X connect 8 0 13 0;
#X connect 9 0 8 0;
#X connect 10 0 20 0;
#X connect 11 0 10 0;
#X connect 11 1 9 0;
#X connect 11 2 12 0;
#X connect 12 0 6 0;
#X connect 13 0 6 0;
#X connect 16 0 17 0;
#X connect 17 0 10 1;
#X connect 17 1 21 0;
#X connect 17 2 14 0;
#X connect 18 0 11 0;
#X connect 19 0 18 0;
#X connect 20 0 6 0;
#X connect 21 0 1 0;
#X connect 22 0 9 1;
#X connect 23 0 8 1;
#X connect 24 0 8 2;
#X connect 25 0 8 3;
#X restore 51 451 pd state-saving-multiple-instances;
#X obj 51 523 s \$0-instance-num;
#X obj 51 475 makefilename %d;
#X msg 51 500 label \$1;
#N canvas 81 22 1117 745 state-saving-via-preset-manager-module 0;
#X obj 477 349 textfile;
#X msg 755 332 rewind;
#X msg 712 332 bang;
#X obj 243 690 textfile;
#X obj 712 293 t b b;
#X obj 244 356 f;
#X obj 257 579 f;
#X obj 190 474 t b b b;
#X msg 373 621 clear;
#X obj 244 180 delay 5;
#X obj 190 529 delay 10;
#X msg 190 314 bang;
#X obj 190 155 r STORE-S!;
#X obj 477 250 f;
#X obj 450 207 t b b;
#X obj 465 171 t b f;
#X obj 522 268 f \$1;
#X obj 477 295 pack f f;
#X obj 522 218 loadbang;
#X obj 257 609 pack f f;
#X obj 302 562 loadbang;
#X obj 302 584 f \$1;
#X obj 465 107 r preset-manager-scan;
#X obj 272 540 r preset-manager-store-slot;
#X msg 243 490 set \$1 \$2 \$3 \$4;
#X obj 244 423 pack f f f f;
#X obj 477 371 unpack f f f f;
#X obj 465 129 i;
#X msg 256 650 write statesave/\$1-\$2-env-follow2-ss.txt;
#X msg 477 324 read statesave/\$1-\$2-env-follow2-ss.txt;
#X obj 259 308 r \$0-env-follower2-input-s;
#X obj 267 330 r \$0-env-follower2-smooth-s;
#X obj 290 352 r \$0-env-follower2-threshold-s;
#X obj 313 374 r \$0-env-follower2-amp-/+-s;
#X obj 477 713 s \$0-env-follower2-input-r;
#X obj 504 615 s \$0-env-follower2-smooth-r;
#X obj 531 518 s \$0-env-follower2-threshold-r;
#X obj 731 435 s \$0-env-follower2-amp-/+-r;
#N canvas 0 22 1069 747 morph-parameters 0;
#X obj 176 94 inlet;
#X obj 176 236 pack f f;
#X obj 176 261 line;
#X obj 209 117 r preset-manager-morph-s;
#X msg 72 244 stop;
#X obj 72 214 r STOP-MORPH!;
#X obj 209 206 spigot;
#X obj 398 137 t f f;
#X obj 455 154 == 0;
#X obj 221 176 f;
#X floatatom 455 222 5 0 0 0 - - -, f 5;
#X obj 398 159 t b f;
#X floatatom 425 192 5 0 0 0 - - -, f 5;
#X obj 209 139 t f f;
#X obj 398 102 r parameters-s;
#X obj 176 288 outlet;
#X connect 0 0 1 0;
#X connect 1 0 2 0;
#X connect 2 0 15 0;
#X connect 3 0 13 0;
#X connect 4 0 2 0;
#X connect 5 0 4 0;
#X connect 6 0 1 1;
#X connect 7 0 11 0;
#X connect 7 1 8 0;
#X connect 8 0 10 0;
#X connect 9 0 6 0;
#X connect 10 0 1 1;
#X connect 11 0 9 0;
#X connect 11 1 12 0;
#X connect 12 0 6 1;
#X connect 13 0 6 0;
#X connect 13 1 9 1;
#X connect 14 0 7 0;
#X restore 532 491 pd morph-parameters;
#N canvas 0 22 1069 747 morph-attenuators 0;
#X obj 176 94 inlet;
#X obj 176 236 pack f f;
#X obj 176 261 line;
#X obj 209 117 r preset-manager-morph-s;
#X msg 72 244 stop;
#X obj 72 214 r STOP-MORPH!;
#X obj 209 206 spigot;
#X obj 398 137 t f f;
#X obj 455 154 == 0;
#X obj 221 176 f;
#X floatatom 455 222 5 0 0 0 - - -, f 5;
#X obj 398 159 t b f;
#X floatatom 425 192 5 0 0 0 - - -, f 5;
#X obj 209 139 t f f;
#X obj 398 102 r attenuators-s;
#X obj 176 288 outlet;
#X connect 0 0 1 0;
#X connect 1 0 2 0;
#X connect 2 0 15 0;
#X connect 3 0 13 0;
#X connect 4 0 2 0;
#X connect 5 0 4 0;
#X connect 6 0 1 1;
#X connect 7 0 11 0;
#X connect 7 1 8 0;
#X connect 8 0 10 0;
#X connect 9 0 6 0;
#X connect 10 0 1 1;
#X connect 11 0 9 0;
#X connect 11 1 12 0;
#X connect 12 0 6 1;
#X connect 13 0 6 0;
#X connect 13 1 9 1;
#X connect 14 0 7 0;
#X restore 731 412 pd morph-attenuators;
#N canvas 0 22 1069 747 morph-parameters 0;
#X obj 176 94 inlet;
#X obj 176 236 pack f f;
#X obj 176 261 line;
#X obj 209 117 r preset-manager-morph-s;
#X msg 72 244 stop;
#X obj 72 214 r STOP-MORPH!;
#X obj 209 206 spigot;
#X obj 398 137 t f f;
#X obj 455 154 == 0;
#X obj 221 176 f;
#X floatatom 455 222 5 0 0 0 - - -, f 5;
#X obj 398 159 t b f;
#X floatatom 425 192 5 0 0 0 - - -, f 5;
#X obj 209 139 t f f;
#X obj 398 102 r parameters-s;
#X obj 176 288 outlet;
#X connect 0 0 1 0;
#X connect 1 0 2 0;
#X connect 2 0 15 0;
#X connect 3 0 13 0;
#X connect 4 0 2 0;
#X connect 5 0 4 0;
#X connect 6 0 1 1;
#X connect 7 0 11 0;
#X connect 7 1 8 0;
#X connect 8 0 10 0;
#X connect 9 0 6 0;
#X connect 10 0 1 1;
#X connect 11 0 9 0;
#X connect 11 1 12 0;
#X connect 12 0 6 1;
#X connect 13 0 6 0;
#X connect 13 1 9 1;
#X connect 14 0 7 0;
#X restore 477 688 pd morph-parameters;
#N canvas 0 22 1069 747 morph-parameters 0;
#X obj 176 94 inlet;
#X obj 176 236 pack f f;
#X obj 176 261 line;
#X obj 209 117 r preset-manager-morph-s;
#X msg 72 244 stop;
#X obj 72 214 r STOP-MORPH!;
#X obj 209 206 spigot;
#X obj 398 137 t f f;
#X obj 455 154 == 0;
#X obj 221 176 f;
#X floatatom 455 222 5 0 0 0 - - -, f 5;
#X obj 398 159 t b f;
#X floatatom 425 192 5 0 0 0 - - -, f 5;
#X obj 209 139 t f f;
#X obj 398 102 r parameters-s;
#X obj 176 288 outlet;
#X connect 0 0 1 0;
#X connect 1 0 2 0;
#X connect 2 0 15 0;
#X connect 3 0 13 0;
#X connect 4 0 2 0;
#X connect 5 0 4 0;
#X connect 6 0 1 1;
#X connect 7 0 11 0;
#X connect 7 1 8 0;
#X connect 8 0 10 0;
#X connect 9 0 6 0;
#X connect 10 0 1 1;
#X connect 11 0 9 0;
#X connect 11 1 12 0;
#X connect 12 0 6 1;
#X connect 13 0 6 0;
#X connect 13 1 9 1;
#X connect 14 0 7 0;
#X restore 504 586 pd morph-parameters;
#X connect 0 0 26 0;
#X connect 1 0 0 0;
#X connect 2 0 0 0;
#X connect 4 0 2 0;
#X connect 4 1 1 0;
#X connect 5 0 25 0;
#X connect 6 0 19 0;
#X connect 7 0 10 0;
#X connect 7 1 9 0;
#X connect 7 2 8 0;
#X connect 8 0 3 0;
#X connect 9 0 5 0;
#X connect 10 0 6 0;
#X connect 11 0 7 0;
#X connect 12 0 11 0;
#X connect 13 0 17 0;
#X connect 14 0 4 0;
#X connect 14 1 13 0;
#X connect 15 0 14 0;
#X connect 15 1 13 1;
#X connect 16 0 17 1;
#X connect 17 0 29 0;
#X connect 18 0 16 0;
#X connect 19 0 28 0;
#X connect 20 0 21 0;
#X connect 21 0 19 1;
#X connect 22 0 27 0;
#X connect 23 0 6 1;
#X connect 24 0 3 0;
#X connect 25 0 24 0;
#X connect 26 0 40 0;
#X connect 26 1 41 0;
#X connect 26 2 38 0;
#X connect 26 3 39 0;
#X connect 27 0 15 0;
#X connect 28 0 3 0;
#X connect 29 0 0 0;
#X connect 30 0 5 1;
#X connect 31 0 25 1;
#X connect 32 0 25 2;
#X connect 33 0 25 3;
#X connect 38 0 36 0;
#X connect 39 0 37 0;
#X connect 40 0 34 0;
#X connect 41 0 35 0;
#X restore 49 429 pd state-saving-via-preset-manager-module;
#N canvas 297 27 897 311 parameter-nudging-system 0;
#X obj 576 68 clip 0 127;
#X obj 23 67 clip 0 127;
#X obj 214 67 clip 0 127;
#X obj 386 69 clip 0 127;
#X obj 23 22 r \$0-env-follower2-input-s;
#X obj 23 95 s \$0-env-follower2-input-r;
#X obj 214 22 r \$0-env-follower2-smooth-s;
#X obj 214 95 s \$0-env-follower2-smooth-r;
#X obj 386 95 s \$0-env-follower2-threshold-r;
#X obj 386 22 r \$0-env-follower2-threshold-s;
#X obj 576 23 r \$0-env-follower2-amp-/+-s;
#X obj 576 95 s \$0-env-follower2-amp-/+-r;
#N canvas 0 22 484 497 nudge-parameters 0;
#X obj 124 234 random;
#X obj 232 335 f;
#X obj 232 368 +;
#X obj 257 166 random 2;
#X obj 124 275 t f f;
#X obj 124 351 t b f;
#X obj 124 297 *;
#X obj 257 188 sel 0 1;
#X msg 257 280 -1;
#X msg 335 280 1;
#X obj 124 149 t b b b;
#X obj 124 74 r NUDGE!;
#X obj 157 193 r NUDGE-RANGE;
#X obj 247 308 inlet;
#X obj 232 397 outlet;
#X obj 124 96 spigot;
#X obj 185 79 r parameters2-s;
#X connect 0 0 4 0;
#X connect 1 0 2 0;
#X connect 2 0 14 0;
#X connect 3 0 7 0;
#X connect 4 0 6 0;
#X connect 5 0 2 0;
#X connect 5 1 2 1;
#X connect 6 0 5 0;
#X connect 7 0 8 0;
#X connect 7 1 9 0;
#X connect 8 0 6 1;
#X connect 9 0 6 1;
#X connect 10 0 0 0;
#X connect 10 1 1 0;
#X connect 10 2 3 0;
#X connect 11 0 15 0;
#X connect 12 0 0 1;
#X connect 13 0 1 1;
#X connect 15 0 10 0;
#X connect 16 0 15 1;
#X restore 385 45 pd nudge-parameters;
#N canvas 0 22 484 497 nudge-attenuators 0;
#X obj 124 234 random;
#X obj 232 335 f;
#X obj 232 368 +;
#X obj 257 166 random 2;
#X obj 124 275 t f f;
#X obj 124 351 t b f;
#X obj 124 297 *;
#X obj 257 188 sel 0 1;
#X msg 257 280 -1;
#X msg 335 280 1;
#X obj 124 149 t b b b;
#X obj 124 71 r NUDGE!;
#X obj 157 193 r NUDGE-RANGE;
#X obj 247 308 inlet;
#X obj 232 397 outlet;
#X obj 124 93 spigot;
#X obj 201 76 r attenuators2-s;
#X connect 0 0 4 0;
#X connect 1 0 2 0;
#X connect 2 0 14 0;
#X connect 3 0 7 0;
#X connect 4 0 6 0;
#X connect 5 0 2 0;
#X connect 5 1 2 1;
#X connect 6 0 5 0;
#X connect 7 0 8 0;
#X connect 7 1 9 0;
#X connect 8 0 6 1;
#X connect 9 0 6 1;
#X connect 10 0 0 0;
#X connect 10 1 1 0;
#X connect 10 2 3 0;
#X connect 11 0 15 0;
#X connect 12 0 0 1;
#X connect 13 0 1 1;
#X connect 15 0 10 0;
#X connect 16 0 15 1;
#X restore 576 46 pd nudge-attenuators;
#N canvas 0 22 484 497 nudge-parameters 0;
#X obj 124 234 random;
#X obj 232 335 f;
#X obj 232 368 +;
#X obj 257 166 random 2;
#X obj 124 275 t f f;
#X obj 124 351 t b f;
#X obj 124 297 *;
#X obj 257 188 sel 0 1;
#X msg 257 280 -1;
#X msg 335 280 1;
#X obj 124 149 t b b b;
#X obj 124 74 r NUDGE!;
#X obj 157 193 r NUDGE-RANGE;
#X obj 247 308 inlet;
#X obj 232 397 outlet;
#X obj 124 96 spigot;
#X obj 185 79 r parameters2-s;
#X connect 0 0 4 0;
#X connect 1 0 2 0;
#X connect 2 0 14 0;
#X connect 3 0 7 0;
#X connect 4 0 6 0;
#X connect 5 0 2 0;
#X connect 5 1 2 1;
#X connect 6 0 5 0;
#X connect 7 0 8 0;
#X connect 7 1 9 0;
#X connect 8 0 6 1;
#X connect 9 0 6 1;
#X connect 10 0 0 0;
#X connect 10 1 1 0;
#X connect 10 2 3 0;
#X connect 11 0 15 0;
#X connect 12 0 0 1;
#X connect 13 0 1 1;
#X connect 15 0 10 0;
#X connect 16 0 15 1;
#X restore 24 45 pd nudge-parameters;
#N canvas 0 22 484 497 nudge-parameters 0;
#X obj 124 234 random;
#X obj 232 335 f;
#X obj 232 368 +;
#X obj 257 166 random 2;
#X obj 124 275 t f f;
#X obj 124 351 t b f;
#X obj 124 297 *;
#X obj 257 188 sel 0 1;
#X msg 257 280 -1;
#X msg 335 280 1;
#X obj 124 149 t b b b;
#X obj 124 74 r NUDGE!;
#X obj 157 193 r NUDGE-RANGE;
#X obj 247 308 inlet;
#X obj 232 397 outlet;
#X obj 124 96 spigot;
#X obj 185 79 r parameters2-s;
#X connect 0 0 4 0;
#X connect 1 0 2 0;
#X connect 2 0 14 0;
#X connect 3 0 7 0;
#X connect 4 0 6 0;
#X connect 5 0 2 0;
#X connect 5 1 2 1;
#X connect 6 0 5 0;
#X connect 7 0 8 0;
#X connect 7 1 9 0;
#X connect 8 0 6 1;
#X connect 9 0 6 1;
#X connect 10 0 0 0;
#X connect 10 1 1 0;
#X connect 10 2 3 0;
#X connect 11 0 15 0;
#X connect 12 0 0 1;
#X connect 13 0 1 1;
#X connect 15 0 10 0;
#X connect 16 0 15 1;
#X restore 214 45 pd nudge-parameters;
#X connect 0 0 11 0;
#X connect 1 0 5 0;
#X connect 2 0 7 0;
#X connect 3 0 8 0;
#X connect 4 0 14 0;
#X connect 6 0 15 0;
#X connect 9 0 12 0;
#X connect 10 0 13 0;
#X connect 12 0 3 0;
#X connect 13 0 0 0;
#X connect 14 0 1 0;
#X connect 15 0 2 0;
#X restore 51 403 pd parameter-nudging-system;
#X obj 323 109 vu 15 80 empty empty -1 -8 0 10 -66577 -1 0 0;
#X obj 417 176 env~;
#X obj 417 198 - 96;
#X obj 226 217 cnv 5 5 5 empty empty ENV 0 0 0 8 -262144 -1 0;
#X obj 104 217 cnv 5 5 5 empty empty CH1 0 0 0 8 -262144 -1 0;
#X obj 17 685 outlet~ EXT.AUDIO-CH1L;
#X obj 169 684 outlet~ EXT.AUDIO-CH1L;
#X obj 633 180 *~;
#X obj 759 220 *~ 0.5;
#X obj 485 376 *~ 0.5;
#X obj 356 387 *~ 0.5;
#X obj 340 109 vu 15 80 empty empty -1 -8 0 10 -66577 -1 0 0;
#X obj 639 243 env~;
#X obj 639 265 - 96;
#X obj 36 23 r \$0-env-follower2-amp-/+-s;
#X obj 243 19 r \$0-env-follower2-input-s;
#X obj 549 49 r \$0-env-follower2-input-s;
#X obj 647 390 r \$0-env-follower2-threshold-s;
#X obj 411 562 r \$0-env-follower2-amp-/+-s;
#X obj 395 287 r \$0-env-follower2-smooth-s;
#N canvas 632 73 749 752 external-messages 0;
#X floatatom 186 706 5 0 0 0 - - -, f 5;
#X obj 185 328 spigot;
#X obj 218 288 tgl 15 0 empty empty empty 17 7 0 10 -262144 -1 -1 0
1;
#X obj 254 272 ==;
#X obj 269 248 f \$1;
#X obj 269 224 loadbang;
#X msg 185 202 \$1 \$2;
#X msg 185 156 symbol \$1;
#X obj 185 180 pack s f;
#X obj 186 685 f;
#X obj 186 633 t b f;
#X obj 186 656 spigot;
#X obj 185 62 unpack s f f;
#X symbolatom 185 94 10 0 0 0 - - -, f 10;
#X obj 218 308 t f f;
#X obj 245 332 s \$0-msg-spigot;
#X obj 234 640 r \$0-msg-spigot;
#X floatatom 223 594 5 0 0 0 - - -, f 5;
#X obj 223 573 f;
#X obj 223 521 t b f;
#X obj 223 544 spigot;
#X obj 271 528 r \$0-msg-spigot;
#X floatatom 387 639 5 0 0 0 - - -, f 5;
#X obj 387 618 f;
#X obj 387 566 t b f;
#X obj 387 589 spigot;
#X obj 435 573 r \$0-msg-spigot;
#X floatatom 424 527 5 0 0 0 - - -, f 5;
#X obj 424 506 f;
#X obj 424 454 t b f;
#X obj 424 477 spigot;
#X obj 472 461 r \$0-msg-spigot;
#X obj 185 14 r external-audio;
#X obj 185 380 route INPUT AMP-SMOOTH GATE-THRESH AMPLITUDE-/+;
#X obj 186 726 s \$0-env-follower2-input-r;
#X obj 223 614 s \$0-env-follower2-smooth-r;
#X obj 387 659 s \$0-env-follower2-threshold-r;
#X obj 424 547 s \$0-env-follower2-amp-/+-r;
#X connect 0 0 34 0;
#X connect 1 0 33 0;
#X connect 2 0 14 0;
#X connect 3 0 2 0;
#X connect 4 0 3 1;
#X connect 5 0 4 0;
#X connect 6 0 1 0;
#X connect 7 0 8 0;
#X connect 8 0 6 0;
#X connect 9 0 0 0;
#X connect 10 0 11 0;
#X connect 10 1 9 1;
#X connect 11 0 9 0;
#X connect 12 0 13 0;
#X connect 12 1 8 1;
#X connect 12 2 3 0;
#X connect 13 0 7 0;
#X connect 14 0 1 1;
#X connect 14 1 15 0;
#X connect 16 0 11 1;
#X connect 17 0 35 0;
#X connect 18 0 17 0;
#X connect 19 0 20 0;
#X connect 19 1 18 1;
#X connect 20 0 18 0;
#X connect 21 0 20 1;
#X connect 22 0 36 0;
#X connect 23 0 22 0;
#X connect 24 0 25 0;
#X connect 24 1 23 1;
#X connect 25 0 23 0;
#X connect 26 0 25 1;
#X connect 27 0 37 0;
#X connect 28 0 27 0;
#X connect 29 0 30 0;
#X connect 29 1 28 1;
#X connect 30 0 28 0;
#X connect 31 0 30 1;
#X connect 32 0 12 0;
#X connect 33 0 10 0;
#X connect 33 1 19 0;
#X connect 33 2 24 0;
#X connect 33 3 29 0;
#X restore 56 377 pd external-messages;
#X obj 483 47 adc~ 1 2;
#X connect 0 0 1 0;
#X connect 1 0 2 0;
#X connect 2 0 47 0;
#X connect 4 0 10 0;
#X connect 5 0 4 1;
#X connect 6 0 0 0;
#X connect 7 0 6 0;
#X connect 9 0 5 0;
#X connect 11 0 60 0;
#X connect 11 0 64 0;
#X connect 11 0 67 0;
#X connect 11 0 68 0;
#X connect 11 0 69 0;
#X connect 14 0 21 0;
#X connect 15 0 16 0;
#X connect 16 0 17 0;
#X connect 17 0 11 1;
#X connect 17 0 66 1;
#X connect 19 0 28 0;
#X connect 20 0 2 1;
#X connect 20 0 27 0;
#X connect 21 0 15 0;
#X connect 22 0 23 0;
#X connect 23 0 19 0;
#X connect 25 0 26 0;
#X connect 26 0 24 0;
#X connect 28 0 20 0;
#X connect 29 2 30 0;
#X connect 30 0 31 0;
#X connect 31 0 32 0;
#X connect 32 0 34 0;
#X connect 33 0 35 0;
#X connect 34 0 33 0;
#X connect 35 0 36 0;
#X connect 44 0 45 0;
#X connect 45 0 46 0;
#X connect 46 0 43 0;
#X connect 47 0 18 0;
#X connect 48 0 49 0;
#X connect 49 0 50 0;
#X connect 50 0 52 0;
#X connect 51 0 47 1;
#X connect 52 0 51 0;
#X connect 53 0 55 0;
#X connect 55 0 56 0;
#X connect 56 0 54 0;
#X connect 60 0 61 0;
#X connect 61 0 59 0;
#X connect 61 0 59 1;
#X connect 66 0 65 0;
#X connect 66 0 67 0;
#X connect 66 0 68 0;
#X connect 66 0 69 0;
#X connect 66 0 71 0;
#X connect 67 0 29 0;
#X connect 68 0 4 0;
#X connect 69 0 7 0;
#X connect 71 0 72 0;
#X connect 72 0 70 0;
#X connect 72 0 70 1;
#X connect 73 0 44 0;
#X connect 74 0 25 0;
#X connect 75 0 14 0;
#X connect 76 0 9 0;
#X connect 77 0 48 0;
#X connect 78 0 22 0;
#X connect 80 0 11 0;
#X connect 80 1 66 0;
#X coords 0 -1 1 1 265 125 2 100 100;
