#N canvas 0 23 983 550 10;
#X obj 150 149 vsl 15 128 0 127 0 1 \$0-gate-seq-l4-s \$0-gate-seq-l4-r
empty 0 -9 0 10 -262144 -1 -1 2600 1;
#X obj 105 149 vsl 15 128 0 127 0 1 \$0-gate-seq-l1-s \$0-gate-seq-l1-r
empty 0 -9 0 10 -262144 -1 -1 8700 1;
#X obj 120 149 vsl 15 128 0 127 0 1 \$0-gate-seq-l2-s \$0-gate-seq-l2-r
empty 0 -9 0 10 -262144 -1 -1 8900 1;
#X obj 135 149 vsl 15 128 0 127 0 1 \$0-gate-seq-l3-s \$0-gate-seq-l3-r
empty 0 -9 0 10 -262144 -1 -1 1300 1;
#X obj 210 149 vsl 15 128 0 127 0 1 \$0-gate-seq-l8-s \$0-gate-seq-l8-r
empty 17 10 0 10 -262144 -1 -1 5000 1;
#X obj 165 149 vsl 15 128 0 127 0 1 \$0-gate-seq-l5-s \$0-gate-seq-l5-r
empty 0 -9 0 10 -262144 -1 -1 3500 1;
#X obj 180 149 vsl 15 128 0 127 0 1 \$0-gate-seq-l6-s \$0-gate-seq-l6-r
empty 0 -9 0 10 -262144 -1 -1 6900 1;
#X obj 195 149 vsl 15 128 0 127 0 1 \$0-gate-seq-l7-s \$0-gate-seq-l7-r
empty 0 -9 0 10 -262144 -1 -1 9700 1;
#X obj 105 132 hradio 15 1 0 8 s empty empty 0 -8 0 10 -262144 -226533
-1 5;
#X obj 120 280 tgl 15 1 \$0-gate-seq-t2-s \$0-gate-seq-t2-r empty 17
7 0 10 -262144 -1 -1 1 1;
#X obj 105 280 tgl 15 1 \$0-gate-seq-t1-s \$0-gate-seq-t1-r empty 17
7 0 10 -262144 -1 -1 1 1;
#X obj 150 280 tgl 15 1 \$0-gate-seq-t4-s \$0-gate-seq-t4-r empty 17
7 0 10 -262144 -1 -1 1 1;
#X obj 135 280 tgl 15 1 \$0-gate-seq-t3-s \$0-gate-seq-t3-r empty 17
7 0 10 -262144 -1 -1 1 1;
#X obj 180 280 tgl 15 1 \$0-gate-seq-t6-s \$0-gate-seq-t6-r empty 17
7 0 10 -262144 -1 -1 1 1;
#X obj 165 280 tgl 15 1 \$0-gate-seq-t5-s \$0-gate-seq-t5-r empty 17
7 0 10 -262144 -1 -1 1 1;
#X obj 210 280 tgl 15 1 \$0-gate-seq-t8-s \$0-gate-seq-t8-r empty 17
7 0 10 -262144 -1 -1 1 1;
#X obj 195 280 tgl 15 1 \$0-gate-seq-t7-s \$0-gate-seq-t7-r empty 17
7 0 10 -262144 -1 -1 1 1;
#X obj 265 220 f;
#X obj 291 220 + 1;
#X obj 265 242 % 8;
#X obj 265 289 sel 0 1 2 3 4 5 6 7;
#X obj 265 264 t f f;
#X obj 265 341 vline~;
#X obj 265 183 t b b;
#X obj 387 222 timer;
#X obj 387 200 t b b;
#X floatatom 387 244 5 0 0 0 - - -, f 5;
#X obj 387 263 * 0.75;
#X obj 387 285 s \$0-clock-length-s;
#N canvas 0 22 1097 629 gatesequencer8 0;
#X obj 73 119 r \$0-gate-seq-l1-s;
#X obj 58 185 f;
#X obj 58 72 spigot;
#X obj 58 95 t b;
#X obj 101 55 r \$0-gate-seq-t1-s;
#X obj 73 141 * 0.00787402;
#X obj 73 163 *;
#X obj 161 146 r \$0-clock-length-s;
#X obj 147 332 f;
#X obj 147 219 spigot;
#X obj 147 242 t b;
#X obj 162 288 * 0.00787402;
#X obj 162 310 *;
#X obj 250 293 r \$0-clock-length-s;
#X obj 190 202 r \$0-gate-seq-t2-s;
#X obj 162 266 r \$0-gate-seq-l2-s;
#X obj 58 33 inlet;
#X obj 61 593 outlet;
#X obj 148 188 inlet;
#X obj 309 201 f;
#X obj 309 88 spigot;
#X obj 309 111 t b;
#X obj 324 157 * 0.00787402;
#X obj 324 179 *;
#X obj 412 162 r \$0-clock-length-s;
#X obj 398 348 f;
#X obj 398 235 spigot;
#X obj 398 258 t b;
#X obj 413 304 * 0.00787402;
#X obj 413 326 *;
#X obj 501 309 r \$0-clock-length-s;
#X obj 309 49 inlet;
#X obj 399 204 inlet;
#X obj 352 71 r \$0-gate-seq-t3-s;
#X obj 324 135 r \$0-gate-seq-l3-s;
#X obj 441 218 r \$0-gate-seq-t4-s;
#X obj 413 282 r \$0-gate-seq-l4-s;
#X obj 559 191 f;
#X obj 559 78 spigot;
#X obj 559 101 t b;
#X obj 574 147 * 0.00787402;
#X obj 574 169 *;
#X obj 662 152 r \$0-clock-length-s;
#X obj 648 338 f;
#X obj 648 225 spigot;
#X obj 648 248 t b;
#X obj 663 294 * 0.00787402;
#X obj 663 316 *;
#X obj 751 299 r \$0-clock-length-s;
#X obj 559 39 inlet;
#X obj 649 194 inlet;
#X obj 602 61 r \$0-gate-seq-t5-s;
#X obj 574 125 r \$0-gate-seq-l5-s;
#X obj 691 208 r \$0-gate-seq-t6-s;
#X obj 663 272 r \$0-gate-seq-l6-s;
#X obj 810 186 f;
#X obj 810 73 spigot;
#X obj 810 96 t b;
#X obj 825 142 * 0.00787402;
#X obj 825 164 *;
#X obj 913 147 r \$0-clock-length-s;
#X obj 899 333 f;
#X obj 899 220 spigot;
#X obj 899 243 t b;
#X obj 914 289 * 0.00787402;
#X obj 914 311 *;
#X obj 1002 294 r \$0-clock-length-s;
#X obj 810 34 inlet;
#X obj 900 189 inlet;
#X obj 853 56 r \$0-gate-seq-t7-s;
#X obj 825 120 r \$0-gate-seq-l7-s;
#X obj 942 203 r \$0-gate-seq-t8-s;
#X obj 914 267 r \$0-gate-seq-l8-s;
#X msg 58 215 1 0 \, -1 \$1 0;
#X msg 147 362 1 0 \, -1 \$1 0;
#X msg 309 231 1 0 \, -1 \$1 0;
#X msg 398 378 1 0 \, -1 \$1 0;
#X msg 559 221 1 0 \, -1 \$1 0;
#X msg 648 368 1 0 \, -1 \$1 0;
#X msg 810 216 1 0 \, -1 \$1 0;
#X msg 899 363 1 0 \, -1 \$1 0;
#X msg 58 251 1 0 \, 0 \$1 0;
#X msg 147 398 1 0 \, 0 \$1 0;
#X msg 309 267 1 0 \, 0 \$1 0;
#X msg 398 414 1 0 \, 0 \$1 0;
#X msg 559 257 1 0 \, 0 \$1 0;
#X msg 648 404 1 0 \, 0 \$1 0;
#X msg 810 252 1 0 \, 0 \$1 0;
#X msg 899 399 1 0 \, 0 \$1 0;
#X obj 249 589 outlet;
#X connect 0 0 5 0;
#X connect 1 0 73 0;
#X connect 1 0 81 0;
#X connect 2 0 3 0;
#X connect 3 0 1 0;
#X connect 4 0 2 1;
#X connect 5 0 6 0;
#X connect 6 0 1 1;
#X connect 7 0 6 1;
#X connect 8 0 74 0;
#X connect 8 0 82 0;
#X connect 9 0 10 0;
#X connect 10 0 8 0;
#X connect 11 0 12 0;
#X connect 12 0 8 1;
#X connect 13 0 12 1;
#X connect 14 0 9 1;
#X connect 15 0 11 0;
#X connect 16 0 2 0;
#X connect 18 0 9 0;
#X connect 19 0 75 0;
#X connect 19 0 83 0;
#X connect 20 0 21 0;
#X connect 21 0 19 0;
#X connect 22 0 23 0;
#X connect 23 0 19 1;
#X connect 24 0 23 1;
#X connect 25 0 76 0;
#X connect 25 0 84 0;
#X connect 26 0 27 0;
#X connect 27 0 25 0;
#X connect 28 0 29 0;
#X connect 29 0 25 1;
#X connect 30 0 29 1;
#X connect 31 0 20 0;
#X connect 32 0 26 0;
#X connect 33 0 20 1;
#X connect 34 0 22 0;
#X connect 35 0 26 1;
#X connect 36 0 28 0;
#X connect 37 0 77 0;
#X connect 37 0 85 0;
#X connect 38 0 39 0;
#X connect 39 0 37 0;
#X connect 40 0 41 0;
#X connect 41 0 37 1;
#X connect 42 0 41 1;
#X connect 43 0 78 0;
#X connect 43 0 86 0;
#X connect 44 0 45 0;
#X connect 45 0 43 0;
#X connect 46 0 47 0;
#X connect 47 0 43 1;
#X connect 48 0 47 1;
#X connect 49 0 38 0;
#X connect 50 0 44 0;
#X connect 51 0 38 1;
#X connect 52 0 40 0;
#X connect 53 0 44 1;
#X connect 54 0 46 0;
#X connect 55 0 79 0;
#X connect 55 0 87 0;
#X connect 56 0 57 0;
#X connect 57 0 55 0;
#X connect 58 0 59 0;
#X connect 59 0 55 1;
#X connect 60 0 59 1;
#X connect 61 0 80 0;
#X connect 61 0 88 0;
#X connect 62 0 63 0;
#X connect 63 0 61 0;
#X connect 64 0 65 0;
#X connect 65 0 61 1;
#X connect 66 0 65 1;
#X connect 67 0 56 0;
#X connect 68 0 62 0;
#X connect 69 0 56 1;
#X connect 70 0 58 0;
#X connect 71 0 62 1;
#X connect 72 0 64 0;
#X connect 73 0 17 0;
#X connect 74 0 17 0;
#X connect 75 0 17 0;
#X connect 76 0 17 0;
#X connect 77 0 17 0;
#X connect 78 0 17 0;
#X connect 79 0 17 0;
#X connect 80 0 17 0;
#X connect 81 0 89 0;
#X connect 82 0 89 0;
#X connect 83 0 89 0;
#X connect 84 0 89 0;
#X connect 85 0 89 0;
#X connect 86 0 89 0;
#X connect 87 0 89 0;
#X connect 88 0 89 0;
#X restore 265 316 pd gatesequencer8;
#X msg 265 157 bang;
#X obj 266 71 threshold~ 0.9 0 0.9 0;
#X obj 105 124 cnv 5 5 5 empty empty GATE-SEQ 0 0 0 12 -262144 -66577
0;
#X obj 170 124 cnv 5 5 5 empty \$0-instance-num 1 0 0 0 12 -262144
-66577 0;
#X obj 210 115 bng 15 250 50 0 \$0-gate-seq-randomize! \$0-gate-seq-randomize!-r
RDM! -1 -7 0 8 -262144 -226533 -226533;
#X obj 202 303 cnv 5 5 5 empty empty UNI-P 0 0 0 8 -262144 -1 0;
#N canvas 415 22 436 413 randomize 0;
#X obj 34 20 r \$0-gate-seq-randomize!;
#X obj 82 277 f \$0;
#X obj 82 254 loadbang;
#X obj 53 239 + 1;
#X msg 34 42 1;
#X obj 34 154 t f f f;
#X obj 38 263 f;
#X obj 111 228 random 127;
#X obj 54 304 pack f f f;
#X obj 34 132 % 8;
#X obj 34 176 t b;
#X obj 53 211 t f b;
#X msg 54 328 \; \$2-gate-seq-l\$1-r \$3;
#X msg 34 88 bang;
#X obj 34 110 f;
#X obj 62 109 + 1;
#X obj 104 98 sel 7;
#X msg 104 120 0;
#X obj 214 19 r \$0-gate-seq-randomize!;
#X obj 262 276 f \$0;
#X obj 262 253 loadbang;
#X obj 233 238 + 1;
#X msg 214 41 1;
#X obj 214 153 t f f f;
#X obj 218 262 f;
#X obj 234 303 pack f f f;
#X obj 214 131 % 8;
#X obj 214 175 t b;
#X obj 233 210 t f b;
#X msg 214 87 bang;
#X obj 214 109 f;
#X obj 242 108 + 1;
#X obj 284 97 sel 7;
#X msg 284 119 0;
#X obj 291 227 random 2;
#X msg 234 327 \; \$2-gate-seq-t\$1-r \$3;
#X obj 34 65 metro 1;
#X obj 214 64 metro 1;
#X connect 0 0 4 0;
#X connect 1 0 8 1;
#X connect 2 0 1 0;
#X connect 3 0 6 1;
#X connect 4 0 36 0;
#X connect 5 0 10 0;
#X connect 5 1 11 0;
#X connect 6 0 8 0;
#X connect 7 0 8 2;
#X connect 8 0 12 0;
#X connect 9 0 5 0;
#X connect 9 0 16 0;
#X connect 10 0 6 0;
#X connect 11 0 3 0;
#X connect 11 1 7 0;
#X connect 13 0 14 0;
#X connect 14 0 15 0;
#X connect 14 0 9 0;
#X connect 15 0 14 1;
#X connect 16 0 17 0;
#X connect 17 0 36 0;
#X connect 18 0 22 0;
#X connect 19 0 25 1;
#X connect 20 0 19 0;
#X connect 21 0 24 1;
#X connect 22 0 37 0;
#X connect 23 0 27 0;
#X connect 23 1 28 0;
#X connect 24 0 25 0;
#X connect 25 0 35 0;
#X connect 26 0 23 0;
#X connect 26 0 32 0;
#X connect 27 0 24 0;
#X connect 28 0 21 0;
#X connect 28 1 34 0;
#X connect 29 0 30 0;
#X connect 30 0 31 0;
#X connect 30 0 26 0;
#X connect 31 0 30 1;
#X connect 32 0 33 0;
#X connect 33 0 37 0;
#X connect 34 0 25 2;
#X connect 36 0 13 0;
#X connect 37 0 29 0;
#X restore 389 307 pd randomize;
#X obj 612 77 threshold~ 0.9 0 0.9 0;
#X obj 612 99 s \$0-gate-seq-randomize!-r;
#X obj 612 55 inlet~ RDM!;
#X obj 266 49 inlet~ CLOCK;
#X obj 364 362 vline~;
#X obj 265 411 outlet~ BI-POLAR;
#X obj 364 384 outlet~ UNI-POLAR;
#X obj 106 303 cnv 5 5 5 empty empty BI-P 0 0 0 8 -262144 -1 0;
#X obj 598 181 loadbang;
#X msg 598 203 0;
#X obj 450 49 inlet~;
#X obj 450 71 threshold~ 0.9 0 0.9 0;
#X msg 450 93 bang;
#X obj 105 109 cnv 5 5 5 empty empty CLOCK 0 0 0 8 -262144 -226533
0;
#X obj 152 109 cnv 5 5 5 empty empty RESET 0 0 0 8 -262144 -226533
0;
#X obj 550 236 env~;
#X obj 550 258 > 0;
#X obj 550 280 change;
#X obj 550 302 sel 0;
#X obj 578 332 s \$0-gate-seq-startup;
#N canvas 0 22 890 607 startup-values-correctly! 0;
#X obj 111 176 r \$0-gate-seq-l1-s;
#X obj 95 219 f;
#X obj 95 241 s \$0-gate-seq-l1-r;
#X obj 225 217 f;
#X obj 241 174 r \$0-gate-seq-l2-s;
#X obj 225 239 s \$0-gate-seq-l2-r;
#X obj 95 63 loadbang;
#X obj 95 119 t b b b b;
#X obj 119 313 f;
#X obj 249 311 f;
#X obj 135 270 r \$0-gate-seq-l3-s;
#X obj 119 335 s \$0-gate-seq-l3-r;
#X obj 249 333 s \$0-gate-seq-l4-r;
#X obj 265 268 r \$0-gate-seq-l4-s;
#X obj 95 85 delay 2000;
#X obj 408 217 f;
#X obj 538 215 f;
#X obj 408 61 loadbang;
#X obj 408 117 t b b b b;
#X obj 432 311 f;
#X obj 562 309 f;
#X obj 408 83 delay 2000;
#X obj 424 174 r \$0-gate-seq-l5-s;
#X obj 408 239 s \$0-gate-seq-l5-r;
#X obj 448 268 r \$0-gate-seq-l6-s;
#X obj 432 333 s \$0-gate-seq-l6-r;
#X obj 554 172 r \$0-gate-seq-l7-s;
#X obj 538 237 s \$0-gate-seq-l7-r;
#X obj 578 266 r \$0-gate-seq-l8-s;
#X obj 562 331 s \$0-gate-seq-l8-r;
#X obj 239 88 r \$0-gate-seq-startup;
#X connect 0 0 1 1;
#X connect 1 0 2 0;
#X connect 3 0 5 0;
#X connect 4 0 3 1;
#X connect 6 0 14 0;
#X connect 7 0 1 0;
#X connect 7 1 3 0;
#X connect 7 2 8 0;
#X connect 7 3 9 0;
#X connect 8 0 11 0;
#X connect 9 0 12 0;
#X connect 10 0 8 1;
#X connect 13 0 9 1;
#X connect 14 0 7 0;
#X connect 15 0 23 0;
#X connect 16 0 27 0;
#X connect 17 0 21 0;
#X connect 18 0 15 0;
#X connect 18 1 16 0;
#X connect 18 2 19 0;
#X connect 18 3 20 0;
#X connect 19 0 25 0;
#X connect 20 0 29 0;
#X connect 21 0 18 0;
#X connect 22 0 15 1;
#X connect 24 0 19 1;
#X connect 26 0 16 1;
#X connect 28 0 20 1;
#X connect 30 0 7 0;
#X connect 30 0 18 0;
#X restore 611 121 pd startup-values-correctly!;
#N canvas 315 35 895 724 state-saving-multiple-instances 0;
#X obj 205 1 loadbang;
#X obj 488 156 textfile;
#X msg 758 139 rewind;
#X msg 715 139 bang;
#X obj 110 663 textfile;
#X obj 715 100 t b b;
#X obj 111 329 f;
#X obj 124 552 f;
#X obj 52 373 t b b b;
#X msg 187 552 clear;
#X obj 272 189 outlet;
#X text 314 193 INSTANCE NUMBER;
#X obj 233 125 f \$1;
#X obj 233 161 t f f f;
#X obj 206 34 t b b;
#X obj 52 350 bng 15 250 50 0 empty empty empty 17 7 0 10 -262144 -1
-1;
#X obj 52 206 r SAVE-S;
#X msg 111 410 set \$1 \$2 \$3 \$4 \$5 \$6 \$7 \$8 \$9 \$10 \$11 \$12
\$13 \$14 \$15 \$16;
#X obj 111 372 pack f f f f f f f f f f f f f f f f;
#X obj 489 179 unpack f f f f f f f f f f f f f f f f;
#X obj 4 15 r \$0-gate-seq-l1-s;
#X obj 483 549 s \$0-gate-seq-l1-r;
#X obj 12 38 r \$0-gate-seq-l2-s;
#X obj 504 525 s \$0-gate-seq-l2-r;
#X obj 26 59 r \$0-gate-seq-l3-s;
#X obj 525 501 s \$0-gate-seq-l3-r;
#X obj 44 84 r \$0-gate-seq-l4-s;
#X obj 546 477 s \$0-gate-seq-l4-r;
#X obj 64 109 r \$0-gate-seq-l5-s;
#X obj 567 451 s \$0-gate-seq-l5-r;
#X obj 82 130 r \$0-gate-seq-l6-s;
#X obj 588 427 s \$0-gate-seq-l6-r;
#X obj 112 155 r \$0-gate-seq-l7-s;
#X obj 598 392 s \$0-gate-seq-l7-r;
#X obj 132 180 r \$0-gate-seq-l8-s;
#X obj 619 366 s \$0-gate-seq-l8-r;
#X obj 150 201 r \$0-gate-seq-t1-s;
#X obj 640 342 s \$0-gate-seq-t1-r, f 35;
#X obj 180 222 r \$0-gate-seq-t2-s;
#X obj 659 315 s \$0-gate-seq-t2-r;
#X obj 210 247 r \$0-gate-seq-t3-s;
#X obj 668 295 s \$0-gate-seq-t3-r;
#X obj 230 272 r \$0-gate-seq-t4-s;
#X obj 682 273 s \$0-gate-seq-t4-r;
#X obj 248 293 r \$0-gate-seq-t5-s;
#X obj 703 249 s \$0-gate-seq-t5-r, f 35;
#X obj 343 258 r \$0-gate-seq-t6-s;
#X obj 716 222 s \$0-gate-seq-t6-r;
#X obj 363 283 r \$0-gate-seq-t7-s;
#X obj 730 200 s \$0-gate-seq-t7-r;
#X obj 381 304 r \$0-gate-seq-t8-s;
#X obj 751 176 s \$0-gate-seq-t8-r, f 35;
#X msg 123 623 write statesave/\$1-gate-seq-ss.txt;
#X msg 488 131 read statesave/\$1-gate-seq-ss.txt;
#X connect 0 0 14 0;
#X connect 1 0 19 0;
#X connect 2 0 1 0;
#X connect 3 0 1 0;
#X connect 5 0 3 0;
#X connect 5 1 2 0;
#X connect 6 0 18 0;
#X connect 7 0 52 0;
#X connect 8 0 7 0;
#X connect 8 1 6 0;
#X connect 8 2 9 0;
#X connect 9 0 4 0;
#X connect 12 0 13 0;
#X connect 13 0 7 1;
#X connect 13 1 53 0;
#X connect 13 2 10 0;
#X connect 14 0 5 0;
#X connect 14 1 12 0;
#X connect 15 0 8 0;
#X connect 16 0 15 0;
#X connect 17 0 4 0;
#X connect 18 0 17 0;
#X connect 19 0 21 0;
#X connect 19 1 23 0;
#X connect 19 2 25 0;
#X connect 19 3 27 0;
#X connect 19 4 29 0;
#X connect 19 5 31 0;
#X connect 19 6 33 0;
#X connect 19 7 35 0;
#X connect 19 8 37 0;
#X connect 19 9 39 0;
#X connect 19 10 41 0;
#X connect 19 11 43 0;
#X connect 19 12 45 0;
#X connect 19 13 47 0;
#X connect 19 14 49 0;
#X connect 19 15 51 0;
#X connect 20 0 6 1;
#X connect 22 0 18 1;
#X connect 24 0 18 2;
#X connect 26 0 18 3;
#X connect 28 0 18 4;
#X connect 30 0 18 5;
#X connect 32 0 18 6;
#X connect 34 0 18 7;
#X connect 36 0 18 8;
#X connect 38 0 18 9;
#X connect 40 0 18 10;
#X connect 42 0 18 11;
#X connect 44 0 18 12;
#X connect 46 0 18 13;
#X connect 48 0 18 14;
#X connect 50 0 18 15;
#X connect 52 0 4 0;
#X connect 53 0 1 0;
#X restore 43 352 pd state-saving-multiple-instances;
#X obj 43 424 s \$0-instance-num;
#X obj 43 376 makefilename %d;
#X msg 43 401 label \$1;
#N canvas 81 22 1117 745 state-saving-via-preset-manager-module 0;
#X obj 733 231 textfile;
#X msg 1011 214 rewind;
#X msg 968 214 bang;
#X obj 106 568 textfile;
#X obj 968 175 t b b;
#X obj 107 234 f;
#X obj 120 457 f;
#X obj 53 352 t b b b;
#X msg 236 499 clear;
#X obj 107 56 delay 5;
#X obj 53 407 delay 10;
#X msg 53 192 bang;
#X obj 53 26 r STORE-S!;
#X obj 733 132 f;
#X obj 706 89 t b b;
#X obj 721 53 t b f;
#X obj 778 150 f \$1;
#X obj 733 177 pack f f;
#X obj 778 100 loadbang;
#X obj 120 487 pack f f;
#X obj 165 440 loadbang;
#X obj 165 462 f \$1;
#X obj 721 30 r preset-manager-scan;
#X obj 135 418 r preset-manager-store-slot;
#X msg 106 368 set \$1 \$2 \$3 \$4 \$5 \$6 \$7 \$8 \$9 \$10 \$11 \$12
\$13 \$14 \$15 \$16;
#X obj 733 253 unpack f f f f f f f f f f f f f f f f;
#X msg 119 528 write statesave/\$1-\$2-gate-seq-ss.txt;
#X msg 733 206 read statesave/\$1-\$2-gate-seq-ss.txt;
#X obj 167 13 r \$0-gate-seq-l1-s;
#X obj 738 718 s \$0-gate-seq-l1-r;
#X obj 180 42 r \$0-gate-seq-l2-s;
#X obj 759 621 s \$0-gate-seq-l2-r;
#X obj 190 81 r \$0-gate-seq-l3-s;
#X obj 777 542 s \$0-gate-seq-l3-r;
#X obj 793 418 s \$0-gate-seq-l4-r;
#X obj 213 108 r \$0-gate-seq-l4-s;
#X obj 227 131 r \$0-gate-seq-l5-s;
#X obj 954 701 s \$0-gate-seq-l5-r;
#X obj 237 153 r \$0-gate-seq-l6-s;
#X obj 1009 600 s \$0-gate-seq-l6-r;
#X obj 245 180 r \$0-gate-seq-l7-s;
#X obj 1022 515 s \$0-gate-seq-l7-r;
#X obj 260 203 r \$0-gate-seq-l8-s;
#X obj 1196 480 s \$0-gate-seq-l8-r;
#X obj 359 112 r \$0-gate-seq-t1-s;
#X obj 1022 311 s \$0-gate-seq-t1-r;
#X obj 362 143 r \$0-gate-seq-t2-s;
#X obj 1069 289 s \$0-gate-seq-t2-r;
#X obj 370 170 r \$0-gate-seq-t3-s;
#X obj 1083 266 s \$0-gate-seq-t3-r;
#X obj 385 193 r \$0-gate-seq-t4-s;
#X obj 1130 244 s \$0-gate-seq-t4-r;
#X obj 393 220 r \$0-gate-seq-t5-s;
#X obj 1177 214 s \$0-gate-seq-t5-r;
#X obj 410 244 r \$0-gate-seq-t6-s;
#X obj 1223 192 s \$0-gate-seq-t6-r;
#X obj 425 267 r \$0-gate-seq-t7-s;
#X obj 1238 169 s \$0-gate-seq-t7-r;
#X obj 438 291 r \$0-gate-seq-t8-s;
#X obj 1285 147 s \$0-gate-seq-t8-r;
#X obj 107 341 pack f f f f f f f f f f f f f f f f;
#N canvas 0 22 1069 747 morph-frequencies 0;
#X obj 176 94 inlet;
#X obj 176 236 pack f f;
#X obj 176 261 line;
#X obj 209 117 r preset-manager-morph-s;
#X msg 72 244 stop;
#X obj 72 214 r STOP-MORPH!;
#X obj 398 102 r frequencies-s;
#X obj 209 206 spigot;
#X obj 398 137 t f f;
#X obj 455 154 == 0;
#X obj 221 176 f;
#X floatatom 455 222 5 0 0 0 - - -, f 5;
#X obj 398 159 t b f;
#X floatatom 425 192 5 0 0 0 - - -, f 5;
#X obj 209 139 t f f;
#X obj 176 283 outlet;
#X connect 0 0 1 0;
#X connect 1 0 2 0;
#X connect 2 0 15 0;
#X connect 3 0 14 0;
#X connect 4 0 2 0;
#X connect 5 0 4 0;
#X connect 6 0 8 0;
#X connect 7 0 1 1;
#X connect 8 0 12 0;
#X connect 8 1 9 0;
#X connect 9 0 11 0;
#X connect 10 0 7 0;
#X connect 11 0 1 1;
#X connect 12 0 10 0;
#X connect 12 1 13 0;
#X connect 13 0 7 1;
#X connect 14 0 7 0;
#X connect 14 1 10 1;
#X restore 340 577 pd morph-frequencies;
#N canvas 0 22 1069 747 morph-parameters 0;
#X obj 176 94 inlet;
#X obj 176 236 pack f f;
#X obj 176 261 line;
#X obj 209 117 r preset-manager-morph-s;
#X msg 72 244 stop;
#X obj 72 214 r STOP-MORPH!;
#X obj 209 206 spigot;
#X obj 398 137 t f f;
#X obj 455 154 == 0;
#X obj 221 176 f;
#X floatatom 455 222 5 0 0 0 - - -, f 5;
#X obj 398 159 t b f;
#X floatatom 425 192 5 0 0 0 - - -, f 5;
#X obj 209 139 t f f;
#X obj 398 102 r parameters-s;
#X obj 176 288 outlet;
#X connect 0 0 1 0;
#X connect 1 0 2 0;
#X connect 2 0 15 0;
#X connect 3 0 13 0;
#X connect 4 0 2 0;
#X connect 5 0 4 0;
#X connect 6 0 1 1;
#X connect 7 0 11 0;
#X connect 7 1 8 0;
#X connect 8 0 10 0;
#X connect 9 0 6 0;
#X connect 10 0 1 1;
#X connect 11 0 9 0;
#X connect 11 1 12 0;
#X connect 12 0 6 1;
#X connect 13 0 6 0;
#X connect 13 1 9 1;
#X connect 14 0 7 0;
#X restore 740 693 pd morph-parameters;
#N canvas 0 22 1069 747 morph-attenuators 0;
#X obj 176 94 inlet;
#X obj 176 236 pack f f;
#X obj 176 261 line;
#X obj 209 117 r preset-manager-morph-s;
#X msg 72 244 stop;
#X obj 72 214 r STOP-MORPH!;
#X obj 209 206 spigot;
#X obj 398 137 t f f;
#X obj 455 154 == 0;
#X obj 221 176 f;
#X floatatom 455 222 5 0 0 0 - - -, f 5;
#X obj 398 159 t b f;
#X floatatom 425 192 5 0 0 0 - - -, f 5;
#X obj 209 139 t f f;
#X obj 398 102 r attenuators-s;
#X obj 176 288 outlet;
#X connect 0 0 1 0;
#X connect 1 0 2 0;
#X connect 2 0 15 0;
#X connect 3 0 13 0;
#X connect 4 0 2 0;
#X connect 5 0 4 0;
#X connect 6 0 1 1;
#X connect 7 0 11 0;
#X connect 7 1 8 0;
#X connect 8 0 10 0;
#X connect 9 0 6 0;
#X connect 10 0 1 1;
#X connect 11 0 9 0;
#X connect 11 1 12 0;
#X connect 12 0 6 1;
#X connect 13 0 6 0;
#X connect 13 1 9 1;
#X connect 14 0 7 0;
#X restore 386 483 pd morph-attenuators;
#N canvas 0 22 1069 747 morph-parameters 0;
#X obj 176 94 inlet;
#X obj 176 236 pack f f;
#X obj 176 261 line;
#X obj 209 117 r preset-manager-morph-s;
#X msg 72 244 stop;
#X obj 72 214 r STOP-MORPH!;
#X obj 209 206 spigot;
#X obj 398 137 t f f;
#X obj 455 154 == 0;
#X obj 221 176 f;
#X floatatom 455 222 5 0 0 0 - - -, f 5;
#X obj 398 159 t b f;
#X floatatom 425 192 5 0 0 0 - - -, f 5;
#X obj 209 139 t f f;
#X obj 398 102 r parameters-s;
#X obj 176 288 outlet;
#X connect 0 0 1 0;
#X connect 1 0 2 0;
#X connect 2 0 15 0;
#X connect 3 0 13 0;
#X connect 4 0 2 0;
#X connect 5 0 4 0;
#X connect 6 0 1 1;
#X connect 7 0 11 0;
#X connect 7 1 8 0;
#X connect 8 0 10 0;
#X connect 9 0 6 0;
#X connect 10 0 1 1;
#X connect 11 0 9 0;
#X connect 11 1 12 0;
#X connect 12 0 6 1;
#X connect 13 0 6 0;
#X connect 13 1 9 1;
#X connect 14 0 7 0;
#X restore 777 518 pd morph-parameters;
#N canvas 0 22 1069 747 morph-parameters 0;
#X obj 176 94 inlet;
#X obj 176 236 pack f f;
#X obj 176 261 line;
#X obj 209 117 r preset-manager-morph-s;
#X msg 72 244 stop;
#X obj 72 214 r STOP-MORPH!;
#X obj 209 206 spigot;
#X obj 398 137 t f f;
#X obj 455 154 == 0;
#X obj 221 176 f;
#X floatatom 455 222 5 0 0 0 - - -, f 5;
#X obj 398 159 t b f;
#X floatatom 425 192 5 0 0 0 - - -, f 5;
#X obj 209 139 t f f;
#X obj 398 102 r parameters-s;
#X obj 176 288 outlet;
#X connect 0 0 1 0;
#X connect 1 0 2 0;
#X connect 2 0 15 0;
#X connect 3 0 13 0;
#X connect 4 0 2 0;
#X connect 5 0 4 0;
#X connect 6 0 1 1;
#X connect 7 0 11 0;
#X connect 7 1 8 0;
#X connect 8 0 10 0;
#X connect 9 0 6 0;
#X connect 10 0 1 1;
#X connect 11 0 9 0;
#X connect 11 1 12 0;
#X connect 12 0 6 1;
#X connect 13 0 6 0;
#X connect 13 1 9 1;
#X connect 14 0 7 0;
#X restore 759 599 pd morph-parameters;
#N canvas 0 22 1069 747 morph-parameters 0;
#X obj 176 94 inlet;
#X obj 176 236 pack f f;
#X obj 176 261 line;
#X obj 209 117 r preset-manager-morph-s;
#X msg 72 244 stop;
#X obj 72 214 r STOP-MORPH!;
#X obj 209 206 spigot;
#X obj 398 137 t f f;
#X obj 455 154 == 0;
#X obj 221 176 f;
#X floatatom 455 222 5 0 0 0 - - -, f 5;
#X obj 398 159 t b f;
#X floatatom 425 192 5 0 0 0 - - -, f 5;
#X obj 209 139 t f f;
#X obj 398 102 r parameters-s;
#X obj 176 288 outlet;
#X connect 0 0 1 0;
#X connect 1 0 2 0;
#X connect 2 0 15 0;
#X connect 3 0 13 0;
#X connect 4 0 2 0;
#X connect 5 0 4 0;
#X connect 6 0 1 1;
#X connect 7 0 11 0;
#X connect 7 1 8 0;
#X connect 8 0 10 0;
#X connect 9 0 6 0;
#X connect 10 0 1 1;
#X connect 11 0 9 0;
#X connect 11 1 12 0;
#X connect 12 0 6 1;
#X connect 13 0 6 0;
#X connect 13 1 9 1;
#X connect 14 0 7 0;
#X restore 793 390 pd morph-parameters;
#N canvas 0 22 1069 747 morph-parameters 0;
#X obj 176 94 inlet;
#X obj 176 236 pack f f;
#X obj 176 261 line;
#X obj 209 117 r preset-manager-morph-s;
#X msg 72 244 stop;
#X obj 72 214 r STOP-MORPH!;
#X obj 209 206 spigot;
#X obj 398 137 t f f;
#X obj 455 154 == 0;
#X obj 221 176 f;
#X floatatom 455 222 5 0 0 0 - - -, f 5;
#X obj 398 159 t b f;
#X floatatom 425 192 5 0 0 0 - - -, f 5;
#X obj 209 139 t f f;
#X obj 398 102 r parameters-s;
#X obj 176 288 outlet;
#X connect 0 0 1 0;
#X connect 1 0 2 0;
#X connect 2 0 15 0;
#X connect 3 0 13 0;
#X connect 4 0 2 0;
#X connect 5 0 4 0;
#X connect 6 0 1 1;
#X connect 7 0 11 0;
#X connect 7 1 8 0;
#X connect 8 0 10 0;
#X connect 9 0 6 0;
#X connect 10 0 1 1;
#X connect 11 0 9 0;
#X connect 11 1 12 0;
#X connect 12 0 6 1;
#X connect 13 0 6 0;
#X connect 13 1 9 1;
#X connect 14 0 7 0;
#X restore 955 677 pd morph-parameters;
#N canvas 0 22 1069 747 morph-parameters 0;
#X obj 176 94 inlet;
#X obj 176 236 pack f f;
#X obj 176 261 line;
#X obj 209 117 r preset-manager-morph-s;
#X msg 72 244 stop;
#X obj 72 214 r STOP-MORPH!;
#X obj 209 206 spigot;
#X obj 398 137 t f f;
#X obj 455 154 == 0;
#X obj 221 176 f;
#X floatatom 455 222 5 0 0 0 - - -, f 5;
#X obj 398 159 t b f;
#X floatatom 425 192 5 0 0 0 - - -, f 5;
#X obj 209 139 t f f;
#X obj 398 102 r parameters-s;
#X obj 176 288 outlet;
#X connect 0 0 1 0;
#X connect 1 0 2 0;
#X connect 2 0 15 0;
#X connect 3 0 13 0;
#X connect 4 0 2 0;
#X connect 5 0 4 0;
#X connect 6 0 1 1;
#X connect 7 0 11 0;
#X connect 7 1 8 0;
#X connect 8 0 10 0;
#X connect 9 0 6 0;
#X connect 10 0 1 1;
#X connect 11 0 9 0;
#X connect 11 1 12 0;
#X connect 12 0 6 1;
#X connect 13 0 6 0;
#X connect 13 1 9 1;
#X connect 14 0 7 0;
#X restore 1011 571 pd morph-parameters;
#N canvas 0 22 1069 747 morph-parameters 0;
#X obj 176 94 inlet;
#X obj 176 236 pack f f;
#X obj 176 261 line;
#X obj 209 117 r preset-manager-morph-s;
#X msg 72 244 stop;
#X obj 72 214 r STOP-MORPH!;
#X obj 209 206 spigot;
#X obj 398 137 t f f;
#X obj 455 154 == 0;
#X obj 221 176 f;
#X floatatom 455 222 5 0 0 0 - - -, f 5;
#X obj 398 159 t b f;
#X floatatom 425 192 5 0 0 0 - - -, f 5;
#X obj 209 139 t f f;
#X obj 398 102 r parameters-s;
#X obj 176 288 outlet;
#X connect 0 0 1 0;
#X connect 1 0 2 0;
#X connect 2 0 15 0;
#X connect 3 0 13 0;
#X connect 4 0 2 0;
#X connect 5 0 4 0;
#X connect 6 0 1 1;
#X connect 7 0 11 0;
#X connect 7 1 8 0;
#X connect 8 0 10 0;
#X connect 9 0 6 0;
#X connect 10 0 1 1;
#X connect 11 0 9 0;
#X connect 11 1 12 0;
#X connect 12 0 6 1;
#X connect 13 0 6 0;
#X connect 13 1 9 1;
#X connect 14 0 7 0;
#X restore 1023 489 pd morph-parameters;
#N canvas 0 22 1069 747 morph-parameters 0;
#X obj 176 94 inlet;
#X obj 176 236 pack f f;
#X obj 176 261 line;
#X obj 209 117 r preset-manager-morph-s;
#X msg 72 244 stop;
#X obj 72 214 r STOP-MORPH!;
#X obj 209 206 spigot;
#X obj 398 137 t f f;
#X obj 455 154 == 0;
#X obj 221 176 f;
#X floatatom 455 222 5 0 0 0 - - -, f 5;
#X obj 398 159 t b f;
#X floatatom 425 192 5 0 0 0 - - -, f 5;
#X obj 209 139 t f f;
#X obj 398 102 r parameters-s;
#X obj 176 288 outlet;
#X connect 0 0 1 0;
#X connect 1 0 2 0;
#X connect 2 0 15 0;
#X connect 3 0 13 0;
#X connect 4 0 2 0;
#X connect 5 0 4 0;
#X connect 6 0 1 1;
#X connect 7 0 11 0;
#X connect 7 1 8 0;
#X connect 8 0 10 0;
#X connect 9 0 6 0;
#X connect 10 0 1 1;
#X connect 11 0 9 0;
#X connect 11 1 12 0;
#X connect 12 0 6 1;
#X connect 13 0 6 0;
#X connect 13 1 9 1;
#X connect 14 0 7 0;
#X restore 1198 454 pd morph-parameters;
#N canvas 0 22 1069 747 morph-parameters 0;
#X obj 176 94 inlet;
#X obj 176 236 pack f f;
#X obj 176 261 line;
#X obj 209 117 r preset-manager-morph-s;
#X msg 72 244 stop;
#X obj 72 214 r STOP-MORPH!;
#X obj 209 206 spigot;
#X obj 398 137 t f f;
#X obj 455 154 == 0;
#X obj 221 176 f;
#X floatatom 455 222 5 0 0 0 - - -, f 5;
#X obj 398 159 t b f;
#X floatatom 425 192 5 0 0 0 - - -, f 5;
#X obj 209 139 t f f;
#X obj 398 102 r parameters-s;
#X obj 176 288 outlet;
#X connect 0 0 1 0;
#X connect 1 0 2 0;
#X connect 2 0 15 0;
#X connect 3 0 13 0;
#X connect 4 0 2 0;
#X connect 5 0 4 0;
#X connect 6 0 1 1;
#X connect 7 0 11 0;
#X connect 7 1 8 0;
#X connect 8 0 10 0;
#X connect 9 0 6 0;
#X connect 10 0 1 1;
#X connect 11 0 9 0;
#X connect 11 1 12 0;
#X connect 12 0 6 1;
#X connect 13 0 6 0;
#X connect 13 1 9 1;
#X connect 14 0 7 0;
#X restore 525 583 pd morph-parameters;
#X connect 0 0 25 0;
#X connect 1 0 0 0;
#X connect 2 0 0 0;
#X connect 4 0 2 0;
#X connect 4 1 1 0;
#X connect 5 0 60 0;
#X connect 6 0 19 0;
#X connect 7 0 10 0;
#X connect 7 1 9 0;
#X connect 7 2 8 0;
#X connect 8 0 3 0;
#X connect 9 0 5 0;
#X connect 10 0 6 0;
#X connect 11 0 7 0;
#X connect 12 0 11 0;
#X connect 13 0 17 0;
#X connect 14 0 4 0;
#X connect 14 1 13 0;
#X connect 15 0 14 0;
#X connect 15 1 13 1;
#X connect 16 0 17 1;
#X connect 17 0 27 0;
#X connect 18 0 16 0;
#X connect 19 0 26 0;
#X connect 20 0 21 0;
#X connect 21 0 19 1;
#X connect 22 0 15 0;
#X connect 23 0 6 1;
#X connect 24 0 3 0;
#X connect 25 0 62 0;
#X connect 25 1 65 0;
#X connect 25 2 64 0;
#X connect 25 3 66 0;
#X connect 25 4 67 0;
#X connect 25 5 68 0;
#X connect 25 6 69 0;
#X connect 25 7 70 0;
#X connect 25 8 45 0;
#X connect 25 9 47 0;
#X connect 25 10 49 0;
#X connect 25 11 51 0;
#X connect 25 12 53 0;
#X connect 25 13 55 0;
#X connect 25 14 57 0;
#X connect 25 15 59 0;
#X connect 26 0 3 0;
#X connect 27 0 0 0;
#X connect 28 0 5 1;
#X connect 30 0 60 1;
#X connect 32 0 60 2;
#X connect 35 0 60 3;
#X connect 36 0 60 4;
#X connect 38 0 60 5;
#X connect 40 0 60 6;
#X connect 42 0 60 7;
#X connect 44 0 60 8;
#X connect 46 0 60 9;
#X connect 48 0 60 10;
#X connect 50 0 60 11;
#X connect 52 0 60 12;
#X connect 54 0 60 13;
#X connect 56 0 60 14;
#X connect 58 0 60 15;
#X connect 60 0 24 0;
#X connect 62 0 29 0;
#X connect 64 0 33 0;
#X connect 65 0 31 0;
#X connect 66 0 34 0;
#X connect 67 0 37 0;
#X connect 68 0 39 0;
#X connect 69 0 41 0;
#X connect 70 0 43 0;
#X restore 43 448 pd state-saving-via-preset-manager-module;
#N canvas 297 27 844 588 parameter-nudging-system 0;
#X obj 23 67 clip 0 127;
#X obj 158 75 clip 0 127;
#X obj 289 73 clip 0 127;
#X obj 421 72 clip 0 127;
#X obj 24 184 clip 0 127;
#X obj 142 182 clip 0 127;
#X obj 257 185 clip 0 127;
#X obj 382 184 clip 0 127;
#X obj 23 22 r \$0-gate-seq-l1-s;
#X obj 23 95 s \$0-gate-seq-l1-r;
#X obj 158 20 r \$0-gate-seq-l2-s;
#X obj 158 103 s \$0-gate-seq-l2-r;
#X obj 286 16 r \$0-gate-seq-l3-s;
#X obj 289 99 s \$0-gate-seq-l3-r;
#X obj 420 14 r \$0-gate-seq-l4-s;
#X obj 421 98 s \$0-gate-seq-l4-r;
#X obj 24 139 r \$0-gate-seq-l5-s;
#X obj 24 212 s \$0-gate-seq-l5-r;
#X obj 142 137 r \$0-gate-seq-l6-s;
#X obj 142 210 s \$0-gate-seq-l6-r;
#X obj 257 138 r \$0-gate-seq-l7-s;
#X obj 257 211 s \$0-gate-seq-l7-r;
#X obj 382 137 r \$0-gate-seq-l8-s;
#X obj 382 210 s \$0-gate-seq-l8-r;
#X obj 29 249 r NUDGE!;
#X obj 29 271 random 2;
#X obj 167 248 r NUDGE!;
#X obj 167 270 random 2;
#X obj 308 246 r NUDGE!;
#X obj 308 268 random 2;
#X obj 451 246 r NUDGE!;
#X obj 451 268 random 2;
#X obj 27 356 r NUDGE!;
#X obj 27 378 random 2;
#X obj 165 355 r NUDGE!;
#X obj 165 377 random 2;
#X obj 306 353 r NUDGE!;
#X obj 306 375 random 2;
#X obj 449 353 r NUDGE!;
#X obj 449 375 random 2;
#X obj 29 293 s \$0-gate-seq-t1-r;
#X obj 167 292 s \$0-gate-seq-t2-r;
#X obj 308 290 s \$0-gate-seq-t3-r;
#X obj 451 290 s \$0-gate-seq-t4-r;
#X obj 27 400 s \$0-gate-seq-t5-r;
#X obj 165 399 s \$0-gate-seq-t6-r;
#X obj 306 397 s \$0-gate-seq-t7-r;
#X obj 449 397 s \$0-gate-seq-t8-r;
#N canvas 0 22 484 497 nudge-parameters 0;
#X obj 124 234 random;
#X obj 232 335 f;
#X obj 232 368 +;
#X obj 257 166 random 2;
#X obj 124 275 t f f;
#X obj 124 351 t b f;
#X obj 124 297 *;
#X obj 257 188 sel 0 1;
#X msg 257 280 -1;
#X msg 335 280 1;
#X obj 124 149 t b b b;
#X obj 124 74 r NUDGE!;
#X obj 157 193 r NUDGE-RANGE;
#X obj 247 308 inlet;
#X obj 232 397 outlet;
#X obj 124 96 spigot;
#X obj 185 79 r parameters2-s;
#X connect 0 0 4 0;
#X connect 1 0 2 0;
#X connect 2 0 14 0;
#X connect 3 0 7 0;
#X connect 4 0 6 0;
#X connect 5 0 2 0;
#X connect 5 1 2 1;
#X connect 6 0 5 0;
#X connect 7 0 8 0;
#X connect 7 1 9 0;
#X connect 8 0 6 1;
#X connect 9 0 6 1;
#X connect 10 0 0 0;
#X connect 10 1 1 0;
#X connect 10 2 3 0;
#X connect 11 0 15 0;
#X connect 12 0 0 1;
#X connect 13 0 1 1;
#X connect 15 0 10 0;
#X connect 16 0 15 1;
#X restore 157 44 pd nudge-parameters;
#N canvas 0 22 484 497 nudge-parameters 0;
#X obj 124 234 random;
#X obj 232 335 f;
#X obj 232 368 +;
#X obj 257 166 random 2;
#X obj 124 275 t f f;
#X obj 124 351 t b f;
#X obj 124 297 *;
#X obj 257 188 sel 0 1;
#X msg 257 280 -1;
#X msg 335 280 1;
#X obj 124 149 t b b b;
#X obj 124 74 r NUDGE!;
#X obj 157 193 r NUDGE-RANGE;
#X obj 247 308 inlet;
#X obj 232 397 outlet;
#X obj 124 96 spigot;
#X obj 185 79 r parameters2-s;
#X connect 0 0 4 0;
#X connect 1 0 2 0;
#X connect 2 0 14 0;
#X connect 3 0 7 0;
#X connect 4 0 6 0;
#X connect 5 0 2 0;
#X connect 5 1 2 1;
#X connect 6 0 5 0;
#X connect 7 0 8 0;
#X connect 7 1 9 0;
#X connect 8 0 6 1;
#X connect 9 0 6 1;
#X connect 10 0 0 0;
#X connect 10 1 1 0;
#X connect 10 2 3 0;
#X connect 11 0 15 0;
#X connect 12 0 0 1;
#X connect 13 0 1 1;
#X connect 15 0 10 0;
#X connect 16 0 15 1;
#X restore 23 44 pd nudge-parameters;
#N canvas 0 22 484 497 nudge-parameters 0;
#X obj 124 234 random;
#X obj 232 335 f;
#X obj 232 368 +;
#X obj 257 166 random 2;
#X obj 124 275 t f f;
#X obj 124 351 t b f;
#X obj 124 297 *;
#X obj 257 188 sel 0 1;
#X msg 257 280 -1;
#X msg 335 280 1;
#X obj 124 149 t b b b;
#X obj 124 74 r NUDGE!;
#X obj 157 193 r NUDGE-RANGE;
#X obj 247 308 inlet;
#X obj 232 397 outlet;
#X obj 124 96 spigot;
#X obj 185 79 r parameters2-s;
#X connect 0 0 4 0;
#X connect 1 0 2 0;
#X connect 2 0 14 0;
#X connect 3 0 7 0;
#X connect 4 0 6 0;
#X connect 5 0 2 0;
#X connect 5 1 2 1;
#X connect 6 0 5 0;
#X connect 7 0 8 0;
#X connect 7 1 9 0;
#X connect 8 0 6 1;
#X connect 9 0 6 1;
#X connect 10 0 0 0;
#X connect 10 1 1 0;
#X connect 10 2 3 0;
#X connect 11 0 15 0;
#X connect 12 0 0 1;
#X connect 13 0 1 1;
#X connect 15 0 10 0;
#X connect 16 0 15 1;
#X restore 422 43 pd nudge-parameters;
#N canvas 0 22 484 497 nudge-parameters 0;
#X obj 124 234 random;
#X obj 232 335 f;
#X obj 232 368 +;
#X obj 257 166 random 2;
#X obj 124 275 t f f;
#X obj 124 351 t b f;
#X obj 124 297 *;
#X obj 257 188 sel 0 1;
#X msg 257 280 -1;
#X msg 335 280 1;
#X obj 124 149 t b b b;
#X obj 124 74 r NUDGE!;
#X obj 157 193 r NUDGE-RANGE;
#X obj 247 308 inlet;
#X obj 232 397 outlet;
#X obj 124 96 spigot;
#X obj 185 79 r parameters2-s;
#X connect 0 0 4 0;
#X connect 1 0 2 0;
#X connect 2 0 14 0;
#X connect 3 0 7 0;
#X connect 4 0 6 0;
#X connect 5 0 2 0;
#X connect 5 1 2 1;
#X connect 6 0 5 0;
#X connect 7 0 8 0;
#X connect 7 1 9 0;
#X connect 8 0 6 1;
#X connect 9 0 6 1;
#X connect 10 0 0 0;
#X connect 10 1 1 0;
#X connect 10 2 3 0;
#X connect 11 0 15 0;
#X connect 12 0 0 1;
#X connect 13 0 1 1;
#X connect 15 0 10 0;
#X connect 16 0 15 1;
#X restore 288 43 pd nudge-parameters;
#N canvas 0 22 484 497 nudge-parameters 0;
#X obj 124 234 random;
#X obj 232 335 f;
#X obj 232 368 +;
#X obj 257 166 random 2;
#X obj 124 275 t f f;
#X obj 124 351 t b f;
#X obj 124 297 *;
#X obj 257 188 sel 0 1;
#X msg 257 280 -1;
#X msg 335 280 1;
#X obj 124 149 t b b b;
#X obj 124 74 r NUDGE!;
#X obj 157 193 r NUDGE-RANGE;
#X obj 247 308 inlet;
#X obj 232 397 outlet;
#X obj 124 96 spigot;
#X obj 185 79 r parameters2-s;
#X connect 0 0 4 0;
#X connect 1 0 2 0;
#X connect 2 0 14 0;
#X connect 3 0 7 0;
#X connect 4 0 6 0;
#X connect 5 0 2 0;
#X connect 5 1 2 1;
#X connect 6 0 5 0;
#X connect 7 0 8 0;
#X connect 7 1 9 0;
#X connect 8 0 6 1;
#X connect 9 0 6 1;
#X connect 10 0 0 0;
#X connect 10 1 1 0;
#X connect 10 2 3 0;
#X connect 11 0 15 0;
#X connect 12 0 0 1;
#X connect 13 0 1 1;
#X connect 15 0 10 0;
#X connect 16 0 15 1;
#X restore 158 161 pd nudge-parameters;
#N canvas 0 22 484 497 nudge-parameters 0;
#X obj 124 234 random;
#X obj 232 335 f;
#X obj 232 368 +;
#X obj 257 166 random 2;
#X obj 124 275 t f f;
#X obj 124 351 t b f;
#X obj 124 297 *;
#X obj 257 188 sel 0 1;
#X msg 257 280 -1;
#X msg 335 280 1;
#X obj 124 149 t b b b;
#X obj 124 74 r NUDGE!;
#X obj 157 193 r NUDGE-RANGE;
#X obj 247 308 inlet;
#X obj 232 397 outlet;
#X obj 124 96 spigot;
#X obj 185 79 r parameters2-s;
#X connect 0 0 4 0;
#X connect 1 0 2 0;
#X connect 2 0 14 0;
#X connect 3 0 7 0;
#X connect 4 0 6 0;
#X connect 5 0 2 0;
#X connect 5 1 2 1;
#X connect 6 0 5 0;
#X connect 7 0 8 0;
#X connect 7 1 9 0;
#X connect 8 0 6 1;
#X connect 9 0 6 1;
#X connect 10 0 0 0;
#X connect 10 1 1 0;
#X connect 10 2 3 0;
#X connect 11 0 15 0;
#X connect 12 0 0 1;
#X connect 13 0 1 1;
#X connect 15 0 10 0;
#X connect 16 0 15 1;
#X restore 24 161 pd nudge-parameters;
#N canvas 0 22 484 497 nudge-parameters 0;
#X obj 124 234 random;
#X obj 232 335 f;
#X obj 232 368 +;
#X obj 257 166 random 2;
#X obj 124 275 t f f;
#X obj 124 351 t b f;
#X obj 124 297 *;
#X obj 257 188 sel 0 1;
#X msg 257 280 -1;
#X msg 335 280 1;
#X obj 124 149 t b b b;
#X obj 124 74 r NUDGE!;
#X obj 157 193 r NUDGE-RANGE;
#X obj 247 308 inlet;
#X obj 232 397 outlet;
#X obj 124 96 spigot;
#X obj 185 79 r parameters2-s;
#X connect 0 0 4 0;
#X connect 1 0 2 0;
#X connect 2 0 14 0;
#X connect 3 0 7 0;
#X connect 4 0 6 0;
#X connect 5 0 2 0;
#X connect 5 1 2 1;
#X connect 6 0 5 0;
#X connect 7 0 8 0;
#X connect 7 1 9 0;
#X connect 8 0 6 1;
#X connect 9 0 6 1;
#X connect 10 0 0 0;
#X connect 10 1 1 0;
#X connect 10 2 3 0;
#X connect 11 0 15 0;
#X connect 12 0 0 1;
#X connect 13 0 1 1;
#X connect 15 0 10 0;
#X connect 16 0 15 1;
#X restore 423 160 pd nudge-parameters;
#N canvas 0 22 484 497 nudge-parameters 0;
#X obj 124 234 random;
#X obj 232 335 f;
#X obj 232 368 +;
#X obj 257 166 random 2;
#X obj 124 275 t f f;
#X obj 124 351 t b f;
#X obj 124 297 *;
#X obj 257 188 sel 0 1;
#X msg 257 280 -1;
#X msg 335 280 1;
#X obj 124 149 t b b b;
#X obj 124 74 r NUDGE!;
#X obj 157 193 r NUDGE-RANGE;
#X obj 247 308 inlet;
#X obj 232 397 outlet;
#X obj 124 96 spigot;
#X obj 185 79 r parameters2-s;
#X connect 0 0 4 0;
#X connect 1 0 2 0;
#X connect 2 0 14 0;
#X connect 3 0 7 0;
#X connect 4 0 6 0;
#X connect 5 0 2 0;
#X connect 5 1 2 1;
#X connect 6 0 5 0;
#X connect 7 0 8 0;
#X connect 7 1 9 0;
#X connect 8 0 6 1;
#X connect 9 0 6 1;
#X connect 10 0 0 0;
#X connect 10 1 1 0;
#X connect 10 2 3 0;
#X connect 11 0 15 0;
#X connect 12 0 0 1;
#X connect 13 0 1 1;
#X connect 15 0 10 0;
#X connect 16 0 15 1;
#X restore 289 160 pd nudge-parameters;
#X connect 0 0 9 0;
#X connect 1 0 11 0;
#X connect 2 0 13 0;
#X connect 3 0 15 0;
#X connect 4 0 17 0;
#X connect 5 0 19 0;
#X connect 6 0 21 0;
#X connect 7 0 23 0;
#X connect 8 0 49 0;
#X connect 10 0 48 0;
#X connect 12 0 51 0;
#X connect 14 0 50 0;
#X connect 16 0 53 0;
#X connect 18 0 52 0;
#X connect 20 0 55 0;
#X connect 22 0 54 0;
#X connect 24 0 25 0;
#X connect 25 0 40 0;
#X connect 26 0 27 0;
#X connect 27 0 41 0;
#X connect 28 0 29 0;
#X connect 29 0 42 0;
#X connect 30 0 31 0;
#X connect 31 0 43 0;
#X connect 32 0 33 0;
#X connect 33 0 44 0;
#X connect 34 0 35 0;
#X connect 35 0 45 0;
#X connect 36 0 37 0;
#X connect 37 0 46 0;
#X connect 38 0 39 0;
#X connect 39 0 47 0;
#X connect 48 0 1 0;
#X connect 49 0 0 0;
#X connect 50 0 3 0;
#X connect 51 0 2 0;
#X connect 52 0 5 0;
#X connect 53 0 4 0;
#X connect 54 0 7 0;
#X connect 55 0 6 0;
#X restore 43 329 pd parameter-nudging-system;
#N canvas 423 56 1017 798 external-messages 0;
#X floatatom 11 518 5 0 0 0 - - -, f 5;
#X obj 190 328 spigot;
#X obj 218 288 tgl 15 0 empty empty empty 17 7 0 10 -262144 -1 -1 0
1;
#X obj 254 272 ==;
#X obj 269 248 f \$1;
#X obj 269 224 loadbang;
#X msg 185 202 \$1 \$2;
#X msg 185 156 symbol \$1;
#X obj 185 180 pack s f;
#X obj 11 497 f;
#X obj 11 445 t b f;
#X obj 11 468 spigot;
#X obj 185 62 unpack s f f;
#X symbolatom 185 94 10 0 0 0 - - -, f 10;
#X obj 218 308 t f f;
#X obj 245 332 s \$0-msg-spigot;
#X obj 59 452 r \$0-msg-spigot;
#X floatatom 56 692 5 0 0 0 - - -, f 5;
#X obj 56 671 f;
#X obj 56 619 t b f;
#X obj 56 642 spigot;
#X obj 104 626 r \$0-msg-spigot;
#X floatatom 201 523 5 0 0 0 - - -, f 5;
#X obj 201 502 f;
#X obj 201 450 t b f;
#X obj 201 473 spigot;
#X obj 249 457 r \$0-msg-spigot;
#X floatatom 296 700 5 0 0 0 - - -, f 5;
#X obj 296 679 f;
#X obj 296 627 t b f;
#X obj 296 650 spigot;
#X obj 344 634 r \$0-msg-spigot;
#X floatatom 363 559 5 0 0 0 - - -, f 5;
#X obj 363 538 f;
#X obj 363 486 t b f;
#X obj 363 509 spigot;
#X obj 411 493 r \$0-msg-spigot;
#X floatatom 486 688 5 0 0 0 - - -, f 5;
#X obj 486 667 f;
#X obj 486 615 t b f;
#X obj 486 638 spigot;
#X obj 534 622 r \$0-msg-spigot;
#X floatatom 531 560 5 0 0 0 - - -, f 5;
#X obj 531 539 f;
#X obj 531 487 t b f;
#X obj 531 510 spigot;
#X obj 579 494 r \$0-msg-spigot;
#X floatatom 667 693 5 0 0 0 - - -, f 5;
#X obj 667 672 f;
#X obj 667 620 t b f;
#X obj 667 643 spigot;
#X obj 715 627 r \$0-msg-spigot;
#X obj 11 538 s \$0-gate-seq-l1-r;
#X obj 56 712 s \$0-gate-seq-l2-r;
#X obj 201 543 s \$0-gate-seq-l3-r;
#X obj 296 720 s \$0-gate-seq-l4-r;
#X obj 363 579 s \$0-gate-seq-l5-r;
#X obj 486 708 s \$0-gate-seq-l6-r;
#X obj 531 580 s \$0-gate-seq-l7-r;
#X obj 667 713 s \$0-gate-seq-l8-r;
#X obj 185 14 r gate-seq;
#X obj 185 362 route ONE TWO THREE FOUR FIVE SIX SEVEN EIGHT RDM!;
#X floatatom 611 448 5 0 0 0 - - -, f 5;
#X obj 611 427 f;
#X obj 611 375 t b f;
#X obj 611 398 spigot;
#X obj 659 382 r \$0-msg-spigot;
#X obj 611 468 s \$0-gate-seq-randomize!-r;
#X connect 0 0 52 0;
#X connect 1 0 61 0;
#X connect 2 0 14 0;
#X connect 3 0 2 0;
#X connect 4 0 3 1;
#X connect 5 0 4 0;
#X connect 6 0 1 0;
#X connect 7 0 8 0;
#X connect 8 0 6 0;
#X connect 9 0 0 0;
#X connect 10 0 11 0;
#X connect 10 1 9 1;
#X connect 11 0 9 0;
#X connect 12 0 13 0;
#X connect 12 1 8 1;
#X connect 12 2 3 0;
#X connect 13 0 7 0;
#X connect 14 0 1 1;
#X connect 14 1 15 0;
#X connect 16 0 11 1;
#X connect 17 0 53 0;
#X connect 18 0 17 0;
#X connect 19 0 20 0;
#X connect 19 1 18 1;
#X connect 20 0 18 0;
#X connect 21 0 20 1;
#X connect 22 0 54 0;
#X connect 23 0 22 0;
#X connect 24 0 25 0;
#X connect 24 1 23 1;
#X connect 25 0 23 0;
#X connect 26 0 25 1;
#X connect 27 0 55 0;
#X connect 28 0 27 0;
#X connect 29 0 30 0;
#X connect 29 1 28 1;
#X connect 30 0 28 0;
#X connect 31 0 30 1;
#X connect 32 0 56 0;
#X connect 33 0 32 0;
#X connect 34 0 35 0;
#X connect 34 1 33 1;
#X connect 35 0 33 0;
#X connect 36 0 35 1;
#X connect 37 0 57 0;
#X connect 38 0 37 0;
#X connect 39 0 40 0;
#X connect 39 1 38 1;
#X connect 40 0 38 0;
#X connect 41 0 40 1;
#X connect 42 0 58 0;
#X connect 43 0 42 0;
#X connect 44 0 45 0;
#X connect 44 1 43 1;
#X connect 45 0 43 0;
#X connect 46 0 45 1;
#X connect 47 0 59 0;
#X connect 48 0 47 0;
#X connect 49 0 50 0;
#X connect 49 1 48 1;
#X connect 50 0 48 0;
#X connect 51 0 50 1;
#X connect 60 0 12 0;
#X connect 61 0 10 0;
#X connect 61 1 19 0;
#X connect 61 2 24 0;
#X connect 61 3 29 0;
#X connect 61 4 34 0;
#X connect 61 5 39 0;
#X connect 61 6 44 0;
#X connect 61 7 49 0;
#X connect 61 8 64 0;
#X connect 62 0 67 0;
#X connect 63 0 62 0;
#X connect 64 0 65 0;
#X connect 64 1 63 1;
#X connect 65 0 63 0;
#X connect 66 0 65 1;
#X restore 45 473 pd external-messages;
#X connect 17 0 18 0;
#X connect 17 0 19 0;
#X connect 18 0 17 1;
#X connect 19 0 21 0;
#X connect 20 0 29 0;
#X connect 20 1 29 1;
#X connect 20 2 29 2;
#X connect 20 3 29 3;
#X connect 20 4 29 4;
#X connect 20 5 29 5;
#X connect 20 6 29 6;
#X connect 20 7 29 7;
#X connect 21 0 20 0;
#X connect 21 1 8 0;
#X connect 22 0 42 0;
#X connect 23 0 17 0;
#X connect 23 1 25 0;
#X connect 24 0 26 0;
#X connect 25 0 24 0;
#X connect 25 1 24 1;
#X connect 26 0 27 0;
#X connect 27 0 28 0;
#X connect 29 0 22 0;
#X connect 29 1 41 0;
#X connect 30 0 23 0;
#X connect 31 0 30 0;
#X connect 37 0 38 0;
#X connect 39 0 37 0;
#X connect 40 0 31 0;
#X connect 40 0 52 0;
#X connect 41 0 43 0;
#X connect 45 0 46 0;
#X connect 46 0 17 1;
#X connect 47 0 48 0;
#X connect 48 0 49 0;
#X connect 49 0 46 0;
#X connect 52 0 53 0;
#X connect 53 0 54 0;
#X connect 54 0 55 0;
#X connect 55 1 56 0;
#X connect 58 0 60 0;
#X connect 60 0 61 0;
#X connect 61 0 59 0;
#X coords 0 -1 1 1 130 210 2 100 100;
