#N canvas 0 23 1254 751 10;
#X obj 106 332 inlet~;
#X obj 107 133 hsl 128 15 0 127 0 1 \$0-gran-fx-pitch-s \$0-gran-fx-pitch-r
PITCH 133 7 0 10 -262144 -1 -1 3200 1;
#X obj 107 148 hsl 128 15 0 127 0 1 \$0-gran-fx-grainsize-s \$0-gran-fx-grainsize-r
GRAIN 133 7 0 10 -262144 -1 -1 2300 1;
#X obj 484 29 r \$0-gran-fx-pitch-s;
#X obj 365 5 r \$0-gran-fx-grainsize-s;
#X obj 365 27 / 127;
#X obj 365 130 t b f;
#X floatatom 392 173 5 0 0 0 - - -, f 5;
#X obj 484 148 * 64;
#X obj 484 192 t b f;
#X obj 392 215 expr (pow(2 \, ($f2/12)) - 1) * (44100/$f1);
#X floatatom 392 262 5 0 0 0 - - -, f 5;
#X obj 392 191 t f f;
#X obj 365 49 * 44100;
#X obj 154 482 *~;
#X obj 107 178 hsl 128 15 0 127 0 1 \$0-gran-fx-dry/wet-s \$0-gran-fx-dry/wet-r
DRY/WET 133 7 0 10 -262144 -1 -1 7200 1;
#X obj 216 399 / 127;
#X obj 216 443 pack 0 50;
#X obj 216 465 line~;
#X obj 106 520 delwrite~ \$0-cloud1 8000;
#X obj 110 268 hsl 128 15 0 127 0 1 \$0-gran-fx-fback-s \$0-gran-fx-fback-r
FEEDBACK 133 7 0 10 -262144 -1 -1 0 1;
#X obj 107 163 hsl 128 15 0 127 0 1 \$0-gran-fx-reverb-s \$0-gran-fx-reverb-r
REVERB 133 7 0 10 -262144 -1 -1 12700 1;
#N canvas 0 22 872 596 reader-1&2 0;
#X obj 297 122 / 44.1;
#X floatatom 297 144 5 0 0 0 - - -, f 5;
#X obj 107 236 *~ -1;
#X obj 107 258 +~ 1;
#X obj 107 328 *~;
#X obj 122 281 sig~;
#X obj 122 303 samphold~;
#X obj 107 350 vd~ \$0-cloud1;
#X obj 107 392 *~;
#N canvas 0 22 250 217 hanning 0;
#X obj 78 104 -~;
#X obj 78 126 *~ 0.5;
#X obj 132 87 cos~;
#X obj 132 39 inlet~;
#X obj 78 148 outlet~;
#X obj 78 73 sig~ 1;
#X connect 0 0 1 0;
#X connect 1 0 4 0;
#X connect 2 0 0 1;
#X connect 3 0 2 0;
#X connect 5 0 0 0;
#X restore 344 356 pd hanning;
#X obj 437 234 *~ -1;
#X obj 437 256 +~ 1;
#X obj 437 326 *~;
#X obj 452 279 sig~;
#X obj 452 301 samphold~;
#X obj 437 348 vd~ \$0-cloud1;
#X obj 437 370 *~;
#N canvas 0 22 250 217 hanning 0;
#X obj 78 73 sig~ 1;
#X obj 78 104 -~;
#X obj 78 126 *~ 0.5;
#X obj 132 87 cos~;
#X obj 132 39 inlet~;
#X obj 78 148 outlet~;
#X connect 0 0 1 0;
#X connect 1 0 2 0;
#X connect 2 0 5 0;
#X connect 3 0 1 1;
#X connect 4 0 3 0;
#X restore 576 354 pd hanning;
#X obj 437 186 +~ 0.5;
#X obj 437 208 wrap~;
#X obj 297 263 t f f;
#X obj 297 163 * 8;
#X floatatom 297 185 5 0 0 0 - - -, f 5;
#X obj 107 439 *~ 0.5;
#X obj 294 440 *~ 0.5;
#X msg 297 204 \$1 50;
#X obj 297 226 line;
#X obj 294 469 throw~ \$0-grain-fx-fback;
#X obj 107 534 throw~ \$0-gran-fx-LEFT;
#X obj 467 441 *~ 0.5;
#X obj 467 536 throw~ \$0-gran-fx-RIGHT;
#X obj 297 95 r \$0-gran-fx-delay-to-reader;
#X obj 107 51 r~ \$0-gran-fx-freq-to-reader;
#X obj 107 169 phasor~;
#X connect 0 0 1 0;
#X connect 1 0 21 0;
#X connect 2 0 3 0;
#X connect 3 0 4 0;
#X connect 4 0 7 0;
#X connect 5 0 6 0;
#X connect 6 0 4 1;
#X connect 7 0 8 0;
#X connect 7 0 24 0;
#X connect 8 0 23 0;
#X connect 9 0 8 1;
#X connect 10 0 11 0;
#X connect 11 0 12 0;
#X connect 12 0 15 0;
#X connect 13 0 14 0;
#X connect 14 0 12 1;
#X connect 15 0 16 0;
#X connect 15 0 24 0;
#X connect 16 0 29 0;
#X connect 17 0 16 1;
#X connect 18 0 19 0;
#X connect 19 0 10 0;
#X connect 19 0 14 1;
#X connect 19 0 17 0;
#X connect 20 0 5 0;
#X connect 20 1 13 0;
#X connect 21 0 22 0;
#X connect 22 0 25 0;
#X connect 23 0 28 0;
#X connect 24 0 27 0;
#X connect 25 0 26 0;
#X connect 26 0 20 0;
#X connect 29 0 30 0;
#X connect 31 0 0 0;
#X connect 32 0 33 0;
#X connect 33 0 2 0;
#X connect 33 0 6 1;
#X connect 33 0 9 0;
#X connect 33 0 18 0;
#X restore 392 428 pd reader-1&2;
#X obj 392 353 sig~;
#X obj 392 377 +~;
#X obj 818 407 catch~ \$0-gran-fx-LEFT;
#X obj 971 406 catch~ \$0-gran-fx-RIGHT;
#X obj 392 405 s~ \$0-gran-fx-freq-to-reader;
#X obj 462 286 s \$0-gran-fx-delay-to-reader;
#N canvas 0 22 872 596 reader-3&4 0;
#X obj 297 122 / 44.1;
#X floatatom 297 144 5 0 0 0 - - -, f 5;
#X obj 205 169 phasor~;
#X obj 205 236 *~ -1;
#X obj 205 258 +~ 1;
#X obj 205 328 *~;
#X obj 220 281 sig~;
#X obj 220 303 samphold~;
#X obj 205 350 vd~ \$0-cloud1;
#X obj 205 372 *~;
#N canvas 0 22 250 217 hanning 0;
#X obj 78 73 sig~ 1;
#X obj 78 104 -~;
#X obj 78 126 *~ 0.5;
#X obj 132 87 cos~;
#X obj 132 39 inlet~;
#X obj 78 148 outlet~;
#X connect 0 0 1 0;
#X connect 1 0 2 0;
#X connect 2 0 5 0;
#X connect 3 0 1 1;
#X connect 4 0 3 0;
#X restore 344 356 pd hanning;
#X obj 437 234 *~ -1;
#X obj 437 256 +~ 1;
#X obj 437 326 *~;
#X obj 452 279 sig~;
#X obj 452 301 samphold~;
#X obj 437 348 vd~ \$0-cloud1;
#X obj 437 370 *~;
#N canvas 0 22 250 217 hanning 0;
#X obj 78 73 sig~ 1;
#X obj 78 104 -~;
#X obj 78 126 *~ 0.5;
#X obj 132 87 cos~;
#X obj 132 39 inlet~;
#X obj 78 148 outlet~;
#X connect 0 0 1 0;
#X connect 1 0 2 0;
#X connect 2 0 5 0;
#X connect 3 0 1 1;
#X connect 4 0 3 0;
#X restore 576 354 pd hanning;
#X obj 437 186 +~ 0.5;
#X obj 437 208 wrap~;
#X obj 297 263 t f f;
#X floatatom 297 185 5 0 0 0 - - -, f 5;
#X obj 294 440 *~ 0.5;
#X msg 297 204 \$1 50;
#X obj 297 226 line;
#X obj 294 469 throw~ \$0-grain-fx-fback;
#X obj 205 51 r~ \$0-gran-fx-freq-to-reader;
#X obj 297 95 r \$0-gran-fx-delay-to-reader;
#X obj 205 439 *~ 0.5;
#X obj 468 482 throw~ \$0-gran-fx-LEFT;
#X obj 467 441 *~ 0.5;
#X obj 209 503 throw~ \$0-gran-fx-RIGHT;
#X obj 297 163 * 7;
#X connect 0 0 1 0;
#X connect 1 0 33 0;
#X connect 2 0 3 0;
#X connect 2 0 7 1;
#X connect 2 0 10 0;
#X connect 2 0 19 0;
#X connect 3 0 4 0;
#X connect 4 0 5 0;
#X connect 5 0 8 0;
#X connect 6 0 7 0;
#X connect 7 0 5 1;
#X connect 8 0 9 0;
#X connect 8 0 23 0;
#X connect 9 0 29 0;
#X connect 10 0 9 1;
#X connect 11 0 12 0;
#X connect 12 0 13 0;
#X connect 13 0 16 0;
#X connect 14 0 15 0;
#X connect 15 0 13 1;
#X connect 16 0 17 0;
#X connect 16 0 23 0;
#X connect 17 0 31 0;
#X connect 18 0 17 1;
#X connect 19 0 20 0;
#X connect 20 0 11 0;
#X connect 20 0 15 1;
#X connect 20 0 18 0;
#X connect 21 0 6 0;
#X connect 21 1 14 0;
#X connect 22 0 24 0;
#X connect 23 0 26 0;
#X connect 24 0 25 0;
#X connect 25 0 21 0;
#X connect 27 0 2 0;
#X connect 28 0 0 0;
#X connect 29 0 32 0;
#X connect 31 0 30 0;
#X connect 33 0 22 0;
#X restore 392 458 pd reader-3&4;
#N canvas 0 22 872 596 reader-5&6 0;
#X obj 297 122 / 44.1;
#X floatatom 297 144 5 0 0 0 - - -, f 5;
#X obj 205 169 phasor~;
#X obj 205 236 *~ -1;
#X obj 205 258 +~ 1;
#X obj 205 328 *~;
#X obj 220 281 sig~;
#X obj 220 303 samphold~;
#X obj 205 350 vd~ \$0-cloud1;
#X obj 205 372 *~;
#N canvas 0 22 250 217 hanning 0;
#X obj 78 73 sig~ 1;
#X obj 78 104 -~;
#X obj 78 126 *~ 0.5;
#X obj 132 87 cos~;
#X obj 132 39 inlet~;
#X obj 78 148 outlet~;
#X connect 0 0 1 0;
#X connect 1 0 2 0;
#X connect 2 0 5 0;
#X connect 3 0 1 1;
#X connect 4 0 3 0;
#X restore 344 356 pd hanning;
#X obj 437 234 *~ -1;
#X obj 437 256 +~ 1;
#X obj 437 326 *~;
#X obj 452 279 sig~;
#X obj 452 301 samphold~;
#X obj 437 348 vd~ \$0-cloud1;
#X obj 437 370 *~;
#N canvas 0 22 250 217 hanning 0;
#X obj 78 73 sig~ 1;
#X obj 78 104 -~;
#X obj 78 126 *~ 0.5;
#X obj 132 87 cos~;
#X obj 132 39 inlet~;
#X obj 78 148 outlet~;
#X connect 0 0 1 0;
#X connect 1 0 2 0;
#X connect 2 0 5 0;
#X connect 3 0 1 1;
#X connect 4 0 3 0;
#X restore 576 354 pd hanning;
#X obj 437 186 +~ 0.5;
#X obj 437 208 wrap~;
#X obj 297 263 t f f;
#X floatatom 297 185 5 0 0 0 - - -, f 5;
#X obj 294 440 *~ 0.5;
#X msg 297 204 \$1 50;
#X obj 297 226 line;
#X obj 294 469 throw~ \$0-grain-fx-fback;
#X obj 205 51 r~ \$0-gran-fx-freq-to-reader;
#X obj 297 95 r \$0-gran-fx-delay-to-reader;
#X obj 205 439 *~ 0.5;
#X obj 205 534 throw~ \$0-gran-fx-LEFT;
#X obj 467 441 *~ 0.5;
#X obj 467 536 throw~ \$0-gran-fx-RIGHT;
#X obj 297 163 * 6;
#X connect 0 0 1 0;
#X connect 1 0 33 0;
#X connect 2 0 3 0;
#X connect 2 0 7 1;
#X connect 2 0 10 0;
#X connect 2 0 19 0;
#X connect 3 0 4 0;
#X connect 4 0 5 0;
#X connect 5 0 8 0;
#X connect 6 0 7 0;
#X connect 7 0 5 1;
#X connect 8 0 9 0;
#X connect 8 0 23 0;
#X connect 9 0 29 0;
#X connect 10 0 9 1;
#X connect 11 0 12 0;
#X connect 12 0 13 0;
#X connect 13 0 16 0;
#X connect 14 0 15 0;
#X connect 15 0 13 1;
#X connect 16 0 17 0;
#X connect 16 0 23 0;
#X connect 17 0 31 0;
#X connect 18 0 17 1;
#X connect 19 0 20 0;
#X connect 20 0 11 0;
#X connect 20 0 15 1;
#X connect 20 0 18 0;
#X connect 21 0 6 0;
#X connect 21 1 14 0;
#X connect 22 0 24 0;
#X connect 23 0 26 0;
#X connect 24 0 25 0;
#X connect 25 0 21 0;
#X connect 27 0 2 0;
#X connect 28 0 0 0;
#X connect 29 0 30 0;
#X connect 31 0 32 0;
#X connect 33 0 22 0;
#X restore 392 486 pd reader-5&6;
#X floatatom 392 303 5 0 0 0 - - -, f 5;
#N canvas 0 22 872 596 reader-7&8 0;
#X obj 297 122 / 44.1;
#X floatatom 297 144 5 0 0 0 - - -, f 5;
#X obj 205 169 phasor~;
#X obj 205 236 *~ -1;
#X obj 205 258 +~ 1;
#X obj 205 328 *~;
#X obj 220 281 sig~;
#X obj 220 303 samphold~;
#X obj 205 350 vd~ \$0-cloud1;
#X obj 205 372 *~;
#N canvas 0 22 250 217 hanning 0;
#X obj 78 73 sig~ 1;
#X obj 78 104 -~;
#X obj 78 126 *~ 0.5;
#X obj 132 87 cos~;
#X obj 132 39 inlet~;
#X obj 78 148 outlet~;
#X connect 0 0 1 0;
#X connect 1 0 2 0;
#X connect 2 0 5 0;
#X connect 3 0 1 1;
#X connect 4 0 3 0;
#X restore 344 356 pd hanning;
#X obj 437 234 *~ -1;
#X obj 437 256 +~ 1;
#X obj 437 326 *~;
#X obj 452 279 sig~;
#X obj 452 301 samphold~;
#X obj 437 348 vd~ \$0-cloud1;
#X obj 437 370 *~;
#N canvas 0 22 250 217 hanning 0;
#X obj 78 73 sig~ 1;
#X obj 78 104 -~;
#X obj 78 126 *~ 0.5;
#X obj 132 87 cos~;
#X obj 132 39 inlet~;
#X obj 78 148 outlet~;
#X connect 0 0 1 0;
#X connect 1 0 2 0;
#X connect 2 0 5 0;
#X connect 3 0 1 1;
#X connect 4 0 3 0;
#X restore 576 354 pd hanning;
#X obj 437 186 +~ 0.5;
#X obj 437 208 wrap~;
#X obj 297 263 t f f;
#X floatatom 297 185 5 0 0 0 - - -, f 5;
#X obj 294 440 *~ 0.5;
#X msg 297 204 \$1 50;
#X obj 297 226 line;
#X obj 294 469 throw~ \$0-grain-fx-fback;
#X obj 205 51 r~ \$0-gran-fx-freq-to-reader;
#X obj 297 95 r \$0-gran-fx-delay-to-reader;
#X obj 205 439 *~ 0.5;
#X obj 468 478 throw~ \$0-gran-fx-LEFT;
#X obj 467 441 *~ 0.5;
#X obj 201 500 throw~ \$0-gran-fx-RIGHT;
#X obj 297 163 * 5;
#X connect 0 0 1 0;
#X connect 1 0 33 0;
#X connect 2 0 3 0;
#X connect 2 0 7 1;
#X connect 2 0 10 0;
#X connect 2 0 19 0;
#X connect 3 0 4 0;
#X connect 4 0 5 0;
#X connect 5 0 8 0;
#X connect 6 0 7 0;
#X connect 7 0 5 1;
#X connect 8 0 9 0;
#X connect 8 0 23 0;
#X connect 9 0 29 0;
#X connect 10 0 9 1;
#X connect 11 0 12 0;
#X connect 12 0 13 0;
#X connect 13 0 16 0;
#X connect 14 0 15 0;
#X connect 15 0 13 1;
#X connect 16 0 17 0;
#X connect 16 0 23 0;
#X connect 17 0 31 0;
#X connect 18 0 17 1;
#X connect 19 0 20 0;
#X connect 20 0 11 0;
#X connect 20 0 15 1;
#X connect 20 0 18 0;
#X connect 21 0 6 0;
#X connect 21 1 14 0;
#X connect 22 0 24 0;
#X connect 23 0 26 0;
#X connect 24 0 25 0;
#X connect 25 0 21 0;
#X connect 27 0 2 0;
#X connect 28 0 0 0;
#X connect 29 0 32 0;
#X connect 31 0 30 0;
#X connect 33 0 22 0;
#X restore 392 518 pd reader-7&8;
#N canvas 0 22 872 596 reader-9&10 0;
#X obj 297 122 / 44.1;
#X floatatom 297 144 5 0 0 0 - - -, f 5;
#X obj 205 169 phasor~;
#X obj 205 236 *~ -1;
#X obj 205 258 +~ 1;
#X obj 205 328 *~;
#X obj 220 281 sig~;
#X obj 220 303 samphold~;
#X obj 205 350 vd~ \$0-cloud1;
#X obj 205 372 *~;
#N canvas 0 22 250 217 hanning 0;
#X obj 78 73 sig~ 1;
#X obj 78 104 -~;
#X obj 78 126 *~ 0.5;
#X obj 132 87 cos~;
#X obj 132 39 inlet~;
#X obj 78 148 outlet~;
#X connect 0 0 1 0;
#X connect 1 0 2 0;
#X connect 2 0 5 0;
#X connect 3 0 1 1;
#X connect 4 0 3 0;
#X restore 344 356 pd hanning;
#X obj 437 234 *~ -1;
#X obj 437 256 +~ 1;
#X obj 437 326 *~;
#X obj 452 279 sig~;
#X obj 452 301 samphold~;
#X obj 437 348 vd~ \$0-cloud1;
#X obj 437 370 *~;
#N canvas 0 22 250 217 hanning 0;
#X obj 78 73 sig~ 1;
#X obj 78 104 -~;
#X obj 78 126 *~ 0.5;
#X obj 132 87 cos~;
#X obj 132 39 inlet~;
#X obj 78 148 outlet~;
#X connect 0 0 1 0;
#X connect 1 0 2 0;
#X connect 2 0 5 0;
#X connect 3 0 1 1;
#X connect 4 0 3 0;
#X restore 576 354 pd hanning;
#X obj 437 186 +~ 0.5;
#X obj 437 208 wrap~;
#X obj 297 263 t f f;
#X floatatom 297 185 5 0 0 0 - - -, f 5;
#X obj 294 440 *~ 0.5;
#X msg 297 204 \$1 50;
#X obj 297 226 line;
#X obj 294 469 throw~ \$0-grain-fx-fback;
#X obj 205 51 r~ \$0-gran-fx-freq-to-reader;
#X obj 297 95 r \$0-gran-fx-delay-to-reader;
#X obj 205 439 *~ 0.5;
#X obj 207 555 throw~ \$0-gran-fx-LEFT;
#X obj 467 441 *~ 0.5;
#X obj 470 478 throw~ \$0-gran-fx-RIGHT;
#X obj 297 163 * 4;
#X connect 0 0 1 0;
#X connect 1 0 33 0;
#X connect 2 0 3 0;
#X connect 2 0 7 1;
#X connect 2 0 10 0;
#X connect 2 0 19 0;
#X connect 3 0 4 0;
#X connect 4 0 5 0;
#X connect 5 0 8 0;
#X connect 6 0 7 0;
#X connect 7 0 5 1;
#X connect 8 0 9 0;
#X connect 8 0 23 0;
#X connect 9 0 29 0;
#X connect 10 0 9 1;
#X connect 11 0 12 0;
#X connect 12 0 13 0;
#X connect 13 0 16 0;
#X connect 14 0 15 0;
#X connect 15 0 13 1;
#X connect 16 0 17 0;
#X connect 16 0 23 0;
#X connect 17 0 31 0;
#X connect 18 0 17 1;
#X connect 19 0 20 0;
#X connect 20 0 11 0;
#X connect 20 0 15 1;
#X connect 20 0 18 0;
#X connect 21 0 6 0;
#X connect 21 1 14 0;
#X connect 22 0 24 0;
#X connect 23 0 26 0;
#X connect 24 0 25 0;
#X connect 25 0 21 0;
#X connect 27 0 2 0;
#X connect 28 0 0 0;
#X connect 29 0 30 0;
#X connect 31 0 32 0;
#X connect 33 0 22 0;
#X restore 487 427 pd reader-9&10;
#X obj 392 281 * 1;
#X obj 484 170 - 32;
#X obj 216 372 r \$0-gran-fx-fback-s;
#N canvas 0 22 1257 752 reverb 0;
#X obj 366 24 inlet~;
#N canvas 0 22 450 300 reverberator-1 0;
#X obj 134 108 inlet~;
#X obj 204 109 inlet~;
#X obj 134 153 +~;
#X obj 189 152 -~;
#X obj 134 204 outlet~;
#X obj 186 223 outlet~;
#X obj 189 174 delwrite~ \$0-echo1 5.43216;
#X obj 186 201 delread~ \$0-echo1 5.43216;
#X connect 0 0 2 0;
#X connect 0 0 3 0;
#X connect 1 0 3 1;
#X connect 1 0 2 1;
#X connect 2 0 4 0;
#X connect 3 0 6 0;
#X connect 7 0 5 0;
#X restore 366 57 pd reverberator-1;
#N canvas 0 22 450 300 reverberator-2 0;
#X obj 134 108 inlet~;
#X obj 204 109 inlet~;
#X obj 134 153 +~;
#X obj 189 152 -~;
#X obj 134 204 outlet~;
#X obj 186 223 outlet~;
#X obj 186 201 delread~ \$0-echo2 8.45346;
#X obj 189 174 delwrite~ \$0-echo2 8.45346;
#X connect 0 0 2 0;
#X connect 0 0 3 0;
#X connect 1 0 3 1;
#X connect 1 0 2 1;
#X connect 2 0 4 0;
#X connect 3 0 7 0;
#X connect 6 0 5 0;
#X restore 366 93 pd reverberator-2;
#N canvas 0 22 450 300 reverberator-3 0;
#X obj 134 108 inlet~;
#X obj 204 109 inlet~;
#X obj 134 153 +~;
#X obj 189 152 -~;
#X obj 134 204 outlet~;
#X obj 186 223 outlet~;
#X obj 186 201 delread~ \$0-echo3 13.4367;
#X obj 189 174 delwrite~ \$0-echo3 13.4367;
#X connect 0 0 2 0;
#X connect 0 0 3 0;
#X connect 1 0 3 1;
#X connect 1 0 2 1;
#X connect 2 0 4 0;
#X connect 3 0 7 0;
#X connect 6 0 5 0;
#X restore 366 124 pd reverberator-3;
#N canvas 0 22 450 300 reverberator-4 0;
#X obj 134 108 inlet~;
#X obj 204 109 inlet~;
#X obj 134 153 +~;
#X obj 189 152 -~;
#X obj 134 204 outlet~;
#X obj 186 223 outlet~;
#X obj 189 174 delwrite~ \$0-echo4 21.5463;
#X obj 186 200 delread~ \$0-echo4 21.5463;
#X connect 0 0 2 0;
#X connect 0 0 3 0;
#X connect 1 0 3 1;
#X connect 1 0 2 1;
#X connect 2 0 4 0;
#X connect 3 0 6 0;
#X connect 7 0 5 0;
#X restore 366 156 pd reverberator-4;
#N canvas 0 22 450 300 reverberator-5 0;
#X obj 134 108 inlet~;
#X obj 204 109 inlet~;
#X obj 134 153 +~;
#X obj 189 152 -~;
#X obj 134 204 outlet~;
#X obj 186 223 outlet~;
#X obj 189 174 delwrite~ \$0-echo5 34.3876;
#X obj 186 201 delread~ \$0-echo5 34.3876;
#X connect 0 0 2 0;
#X connect 0 0 3 0;
#X connect 1 0 3 1;
#X connect 1 0 2 1;
#X connect 2 0 4 0;
#X connect 3 0 6 0;
#X connect 7 0 5 0;
#X restore 366 185 pd reverberator-5;
#N canvas 0 22 450 300 reverberator-6 0;
#X obj 134 108 inlet~;
#X obj 204 109 inlet~;
#X obj 134 153 +~;
#X obj 189 152 -~;
#X obj 134 204 outlet~;
#X obj 186 223 outlet~;
#X obj 189 174 delwrite~ \$0-echo6 55.5437;
#X obj 186 200 delread~ \$0-echo6 55.5437;
#X connect 0 0 2 0;
#X connect 0 0 3 0;
#X connect 1 0 3 1;
#X connect 1 0 2 1;
#X connect 2 0 4 0;
#X connect 3 0 6 0;
#X connect 7 0 5 0;
#X restore 366 217 pd reverberator-6;
#X obj 366 340 +~;
#X obj 465 340 +~;
#X obj 366 421 +~;
#X obj 410 421 -~;
#X obj 465 421 +~;
#X obj 482 459 -~;
#X obj 366 459 +~;
#X obj 410 459 +~;
#X obj 497 421 -~;
#X obj 450 459 -~;
#X obj 410 507 *~;
#X obj 366 507 *~;
#X obj 482 507 *~;
#X obj 450 507 *~;
#X obj 120 138 hsl 128 15 0 127 0 1 \$0-millerverb-reverb-s \$0-millerverb-reverb-r
REVERB 133 7 0 10 -262144 -1 -1 12700 1;
#X obj 366 645 delwrite~ \$0-loop1 60;
#X obj 410 622 delwrite~ \$0-loop2 71.9345;
#X obj 492 147 delread~ \$0-loop1 60;
#X obj 499 179 delread~ \$0-loop2 71.9345;
#X obj 450 595 delwrite~ \$0-loop3 86.754;
#X obj 482 565 delwrite~ \$0-loop4 95.945;
#X obj 553 294 delread~ \$0-loop3 86.754;
#X obj 516 261 delread~ \$0-loop4 95.945;
#X obj 586 353 / 127;
#X obj 586 377 * 0.452;
#X obj 222 404 lop~;
#X obj 222 434 lop~;
#X obj 289 404 lop~;
#X obj 289 434 lop~;
#X obj 120 154 hsl 128 15 0 127 0 1 \$0-millerverb-lowpass-s \$0-millerverb-lowpass-r
LOWPASS 133 7 0 10 -262144 -1 -1 9400 1;
#X obj 132 203 / 127;
#X obj 132 247 * 4950;
#X obj 132 269 + 50;
#X obj 132 291 pack 0 50;
#X obj 132 313 line;
#X obj 132 335 t f f f f;
#X obj 222 357 *~ 0.033;
#X obj 289 357 *~ 0.033;
#X obj 120 131 cnv 5 5 5 empty empty MILLERVERB 0 0 0 12 -262144 -66577
0;
#X obj 272 217 cnv 5 5 5 empty empty RIGHT 0 0 0 8 -262144 -66577 0
;
#X obj 273 111 cnv 5 5 5 empty empty LPASS 0 0 0 8 -262144 -66577 0
;
#X obj 105 216 cnv 5 5 5 empty empty LEFT 0 0 0 8 -262144 -66577 0
;
#X obj 120 168 hsl 128 15 0 127 0 1 \$0-millerverb-drywet-s \$0-millerverb-drywet-r
DRY/WET 133 7 0 10 -262144 -1 -1 12700 1;
#X obj 171 495 *~;
#X text 135 495 DRY;
#X obj 4 309 / 127;
#X msg 4 262 127 \$1;
#X obj 4 284 -;
#X obj 4 334 pack 0 50;
#X obj 4 356 line~;
#X obj 64 244 / 127;
#X obj 64 268 pack 0 50;
#X obj 222 473 *~;
#X obj 289 472 *~;
#X obj 4 221 t f f;
#X obj 656 380 inlet~;
#X obj 656 402 *~ 0.452;
#X obj 586 402 pack 0 50;
#X obj 586 424 line~;
#X obj 586 446 +~;
#X text 654 361 REVERB CV IN;
#X obj 809 153 inlet~;
#X obj 132 225 +;
#X obj 809 184 snapshot~;
#X obj 809 208 t b f;
#X obj 857 153 bang~;
#X obj 586 468 min~ 0.452;
#X obj 586 490 max~ -0.452;
#X obj 103 111 cnv 5 5 5 empty empty IN 0 0 0 8 -262144 -66577 0;
#X obj 184 111 cnv 5 5 5 empty empty REVERB 0 0 0 8 -262144 -66577
0;
#X obj 288 635 *~;
#X obj 222 653 *~;
#X obj 222 675 clip~ -1 1;
#X obj 288 675 clip~ -1 1;
#X obj 222 697 outlet~;
#X obj 288 697 outlet~;
#X obj 120 183 hsl 128 15 0 127 0 1 \$0-millerverb-gain-s \$0-millerverb-gain-r
GAIN 133 7 0 10 -262144 -1 -1 12700 1;
#X obj 21 515 r \$0-millerverb-gain-s;
#X obj 21 537 / 127;
#X obj 21 624 pack 0 50;
#X obj 21 646 line~;
#X obj 21 581 + 1;
#X obj 21 559 * 4;
#X obj 194 131 cnv 5 5 5 empty \$0-instance-num 1 0 0 0 12 -262144
-66577 0;
#X obj 66 344 line~;
#X obj 222 610 *~ 0.5;
#X obj 290 600 *~ 0.5;
#X connect 0 0 1 0;
#X connect 0 0 50 0;
#X connect 1 0 2 0;
#X connect 1 1 2 1;
#X connect 2 0 3 0;
#X connect 2 1 3 1;
#X connect 3 0 4 0;
#X connect 3 1 4 1;
#X connect 4 0 5 0;
#X connect 4 1 5 1;
#X connect 5 0 6 0;
#X connect 5 1 6 1;
#X connect 6 0 7 0;
#X connect 6 1 8 0;
#X connect 7 0 9 0;
#X connect 7 0 10 0;
#X connect 7 0 43 0;
#X connect 8 0 9 1;
#X connect 8 0 10 1;
#X connect 8 0 44 0;
#X connect 9 0 13 0;
#X connect 9 0 16 0;
#X connect 10 0 14 0;
#X connect 10 0 12 0;
#X connect 11 0 13 1;
#X connect 11 0 16 1;
#X connect 12 0 19 0;
#X connect 13 0 18 0;
#X connect 14 0 17 0;
#X connect 15 0 12 1;
#X connect 15 0 14 1;
#X connect 16 0 20 0;
#X connect 17 0 23 0;
#X connect 18 0 22 0;
#X connect 19 0 27 0;
#X connect 20 0 26 0;
#X connect 21 0 30 0;
#X connect 24 0 7 1;
#X connect 25 0 8 1;
#X connect 28 0 11 0;
#X connect 28 0 15 0;
#X connect 29 0 11 1;
#X connect 29 0 15 1;
#X connect 30 0 31 0;
#X connect 31 0 64 0;
#X connect 32 0 33 0;
#X connect 33 0 59 0;
#X connect 34 0 35 0;
#X connect 35 0 60 0;
#X connect 36 0 37 0;
#X connect 37 0 69 0;
#X connect 38 0 39 0;
#X connect 39 0 40 0;
#X connect 40 0 41 0;
#X connect 41 0 42 0;
#X connect 42 0 32 1;
#X connect 42 1 33 1;
#X connect 42 2 34 1;
#X connect 42 3 35 1;
#X connect 43 0 32 0;
#X connect 44 0 34 0;
#X connect 49 0 61 0;
#X connect 50 0 92 0;
#X connect 50 0 93 0;
#X connect 52 0 55 0;
#X connect 53 0 54 0;
#X connect 54 0 52 0;
#X connect 55 0 56 0;
#X connect 56 0 50 1;
#X connect 57 0 58 0;
#X connect 58 0 91 0;
#X connect 59 0 92 0;
#X connect 60 0 93 0;
#X connect 61 0 53 0;
#X connect 61 1 57 0;
#X connect 62 0 63 0;
#X connect 63 0 66 1;
#X connect 64 0 65 0;
#X connect 65 0 66 0;
#X connect 66 0 73 0;
#X connect 68 0 70 0;
#X connect 69 0 38 0;
#X connect 70 0 71 0;
#X connect 71 0 69 0;
#X connect 71 1 69 1;
#X connect 72 0 70 0;
#X connect 73 0 74 0;
#X connect 74 0 19 1;
#X connect 74 0 20 1;
#X connect 74 0 17 1;
#X connect 74 0 18 1;
#X connect 77 0 80 0;
#X connect 78 0 79 0;
#X connect 79 0 81 0;
#X connect 80 0 82 0;
#X connect 84 0 85 0;
#X connect 85 0 89 0;
#X connect 86 0 87 0;
#X connect 87 0 78 1;
#X connect 87 0 77 1;
#X connect 88 0 86 0;
#X connect 89 0 88 0;
#X connect 91 0 59 1;
#X connect 91 0 60 1;
#X connect 92 0 78 0;
#X connect 93 0 77 0;
#X restore 818 481 pd reverb;
#X obj 818 439 *~;
#X obj 1025 100 r \$0-gran-fx-reverb-s;
#X obj 1025 122 / 127;
#X obj 1025 144 t f f;
#X obj 986 211 pack 0 50;
#X obj 986 233 line~;
#X msg 1052 167 1 \$1;
#X obj 1052 189 -;
#X obj 1052 211 pack 0 50;
#X obj 883 482 *~;
#X obj 971 451 *~;
#N canvas 0 22 1257 752 reverb 0;
#X obj 366 24 inlet~;
#N canvas 0 22 450 300 reverberator-1 0;
#X obj 134 108 inlet~;
#X obj 204 109 inlet~;
#X obj 134 153 +~;
#X obj 189 152 -~;
#X obj 134 204 outlet~;
#X obj 186 223 outlet~;
#X obj 189 174 delwrite~ \$0-echo11 5.43216;
#X obj 186 201 delread~ \$0-echo11 5.43216;
#X connect 0 0 2 0;
#X connect 0 0 3 0;
#X connect 1 0 3 1;
#X connect 1 0 2 1;
#X connect 2 0 4 0;
#X connect 3 0 6 0;
#X connect 7 0 5 0;
#X restore 366 57 pd reverberator-1;
#N canvas 0 22 450 300 reverberator-2 0;
#X obj 134 108 inlet~;
#X obj 204 109 inlet~;
#X obj 134 153 +~;
#X obj 189 152 -~;
#X obj 134 204 outlet~;
#X obj 186 223 outlet~;
#X obj 189 174 delwrite~ \$0-echo22 8.45346;
#X obj 186 201 delread~ \$0-echo22 8.45346;
#X connect 0 0 2 0;
#X connect 0 0 3 0;
#X connect 1 0 3 1;
#X connect 1 0 2 1;
#X connect 2 0 4 0;
#X connect 3 0 6 0;
#X connect 7 0 5 0;
#X restore 366 93 pd reverberator-2;
#N canvas 0 22 450 300 reverberator-3 0;
#X obj 134 108 inlet~;
#X obj 204 109 inlet~;
#X obj 134 153 +~;
#X obj 189 152 -~;
#X obj 134 204 outlet~;
#X obj 186 223 outlet~;
#X obj 189 174 delwrite~ \$0-echo33 13.4367;
#X obj 186 201 delread~ \$0-echo33 13.4367;
#X connect 0 0 2 0;
#X connect 0 0 3 0;
#X connect 1 0 3 1;
#X connect 1 0 2 1;
#X connect 2 0 4 0;
#X connect 3 0 6 0;
#X connect 7 0 5 0;
#X restore 366 124 pd reverberator-3;
#N canvas 0 22 450 300 reverberator-4 0;
#X obj 134 108 inlet~;
#X obj 204 109 inlet~;
#X obj 134 153 +~;
#X obj 189 152 -~;
#X obj 134 204 outlet~;
#X obj 186 223 outlet~;
#X obj 189 174 delwrite~ \$0-echo44 21.5463;
#X obj 186 200 delread~ \$0-echo44 21.5463;
#X connect 0 0 2 0;
#X connect 0 0 3 0;
#X connect 1 0 3 1;
#X connect 1 0 2 1;
#X connect 2 0 4 0;
#X connect 3 0 6 0;
#X connect 7 0 5 0;
#X restore 366 156 pd reverberator-4;
#N canvas 0 22 450 300 reverberator-5 0;
#X obj 134 108 inlet~;
#X obj 204 109 inlet~;
#X obj 134 153 +~;
#X obj 189 152 -~;
#X obj 134 204 outlet~;
#X obj 186 223 outlet~;
#X obj 189 174 delwrite~ \$0-echo55 34.3876;
#X obj 186 201 delread~ \$0-echo55 34.3876;
#X connect 0 0 2 0;
#X connect 0 0 3 0;
#X connect 1 0 3 1;
#X connect 1 0 2 1;
#X connect 2 0 4 0;
#X connect 3 0 6 0;
#X connect 7 0 5 0;
#X restore 366 185 pd reverberator-5;
#N canvas 0 22 450 300 reverberator-6 0;
#X obj 134 108 inlet~;
#X obj 204 109 inlet~;
#X obj 134 153 +~;
#X obj 189 152 -~;
#X obj 134 204 outlet~;
#X obj 186 223 outlet~;
#X obj 189 174 delwrite~ \$0-echo66 55.5437;
#X obj 186 200 delread~ \$0-echo66 55.5437;
#X connect 0 0 2 0;
#X connect 0 0 3 0;
#X connect 1 0 3 1;
#X connect 1 0 2 1;
#X connect 2 0 4 0;
#X connect 3 0 6 0;
#X connect 7 0 5 0;
#X restore 366 217 pd reverberator-6;
#X obj 366 340 +~;
#X obj 465 340 +~;
#X obj 366 421 +~;
#X obj 410 421 -~;
#X obj 465 421 +~;
#X obj 482 459 -~;
#X obj 366 459 +~;
#X obj 410 459 +~;
#X obj 497 421 -~;
#X obj 450 459 -~;
#X obj 410 507 *~;
#X obj 366 507 *~;
#X obj 482 507 *~;
#X obj 450 507 *~;
#X obj 120 138 hsl 128 15 0 127 0 1 \$0-millerverb-reverb-s \$0-millerverb-reverb-r
REVERB 133 7 0 10 -262144 -1 -1 12700 1;
#X obj 553 294 delread~ \$0-loop3 86.754;
#X obj 516 261 delread~ \$0-loop4 95.945;
#X obj 586 353 / 127;
#X obj 586 377 * 0.452;
#X obj 222 404 lop~;
#X obj 222 434 lop~;
#X obj 289 404 lop~;
#X obj 289 434 lop~;
#X obj 120 154 hsl 128 15 0 127 0 1 \$0-millerverb-lowpass-s \$0-millerverb-lowpass-r
LOWPASS 133 7 0 10 -262144 -1 -1 9400 1;
#X obj 132 203 / 127;
#X obj 132 247 * 4950;
#X obj 132 269 + 50;
#X obj 132 291 pack 0 50;
#X obj 132 313 line;
#X obj 132 335 t f f f f;
#X obj 222 357 *~ 0.033;
#X obj 289 357 *~ 0.033;
#X obj 120 131 cnv 5 5 5 empty empty MILLERVERB 0 0 0 12 -262144 -66577
0;
#X obj 272 217 cnv 5 5 5 empty empty RIGHT 0 0 0 8 -262144 -66577 0
;
#X obj 273 111 cnv 5 5 5 empty empty LPASS 0 0 0 8 -262144 -66577 0
;
#X obj 105 216 cnv 5 5 5 empty empty LEFT 0 0 0 8 -262144 -66577 0
;
#X obj 120 168 hsl 128 15 0 127 0 1 \$0-millerverb-drywet-s \$0-millerverb-drywet-r
DRY/WET 133 7 0 10 -262144 -1 -1 12700 1;
#X obj 171 495 *~;
#X text 135 495 DRY;
#X obj 4 309 / 127;
#X msg 4 262 127 \$1;
#X obj 4 284 -;
#X obj 4 334 pack 0 50;
#X obj 4 356 line~;
#X obj 64 244 / 127;
#X obj 64 268 pack 0 50;
#X obj 222 473 *~;
#X obj 289 472 *~;
#X obj 4 221 t f f;
#X obj 656 380 inlet~;
#X obj 656 402 *~ 0.452;
#X obj 586 402 pack 0 50;
#X obj 586 424 line~;
#X obj 586 446 +~;
#X text 654 361 REVERB CV IN;
#X obj 809 153 inlet~;
#X obj 132 225 +;
#X obj 809 184 snapshot~;
#X obj 809 208 t b f;
#X obj 857 153 bang~;
#X obj 586 468 min~ 0.452;
#X obj 586 490 max~ -0.452;
#X obj 103 111 cnv 5 5 5 empty empty IN 0 0 0 8 -262144 -66577 0;
#X obj 184 111 cnv 5 5 5 empty empty REVERB 0 0 0 8 -262144 -66577
0;
#X obj 288 635 *~;
#X obj 222 653 *~;
#X obj 222 675 clip~ -1 1;
#X obj 288 675 clip~ -1 1;
#X obj 222 697 outlet~;
#X obj 288 697 outlet~;
#X obj 120 183 hsl 128 15 0 127 0 1 \$0-millerverb-gain-s \$0-millerverb-gain-r
GAIN 133 7 0 10 -262144 -1 -1 12700 1;
#X obj 21 515 r \$0-millerverb-gain-s;
#X obj 21 537 / 127;
#X obj 21 624 pack 0 50;
#X obj 21 646 line~;
#X obj 21 581 + 1;
#X obj 21 559 * 4;
#X obj 194 131 cnv 5 5 5 empty \$0-instance-num 1 0 0 0 12 -262144
-66577 0;
#X obj 66 344 line~;
#X obj 222 610 *~ 1;
#X obj 290 600 *~ 1;
#X obj 492 147 delread~ \$0-loop11 60;
#X obj 499 179 delread~ \$0-loop22 71.9345;
#X obj 482 565 delwrite~ \$0-loop44 95.945;
#X obj 450 595 delwrite~ \$0-loop33 86.754;
#X obj 410 622 delwrite~ \$0-loop22 71.9345;
#X obj 366 645 delwrite~ \$0-loop11 60;
#X connect 0 0 1 0;
#X connect 0 0 44 0;
#X connect 1 0 2 0;
#X connect 1 1 2 1;
#X connect 2 0 3 0;
#X connect 2 1 3 1;
#X connect 3 0 4 0;
#X connect 3 1 4 1;
#X connect 4 0 5 0;
#X connect 4 1 5 1;
#X connect 5 0 6 0;
#X connect 5 1 6 1;
#X connect 6 0 7 0;
#X connect 6 1 8 0;
#X connect 7 0 9 0;
#X connect 7 0 10 0;
#X connect 7 0 37 0;
#X connect 8 0 9 1;
#X connect 8 0 10 1;
#X connect 8 0 38 0;
#X connect 9 0 13 0;
#X connect 9 0 16 0;
#X connect 10 0 14 0;
#X connect 10 0 12 0;
#X connect 11 0 13 1;
#X connect 11 0 16 1;
#X connect 12 0 19 0;
#X connect 13 0 18 0;
#X connect 14 0 17 0;
#X connect 15 0 12 1;
#X connect 15 0 14 1;
#X connect 16 0 20 0;
#X connect 17 0 92 0;
#X connect 18 0 93 0;
#X connect 19 0 90 0;
#X connect 20 0 91 0;
#X connect 21 0 24 0;
#X connect 22 0 11 0;
#X connect 22 0 15 0;
#X connect 23 0 11 1;
#X connect 23 0 15 1;
#X connect 24 0 25 0;
#X connect 25 0 58 0;
#X connect 26 0 27 0;
#X connect 27 0 53 0;
#X connect 28 0 29 0;
#X connect 29 0 54 0;
#X connect 30 0 31 0;
#X connect 31 0 63 0;
#X connect 32 0 33 0;
#X connect 33 0 34 0;
#X connect 34 0 35 0;
#X connect 35 0 36 0;
#X connect 36 0 26 1;
#X connect 36 1 27 1;
#X connect 36 2 28 1;
#X connect 36 3 29 1;
#X connect 37 0 26 0;
#X connect 38 0 28 0;
#X connect 43 0 55 0;
#X connect 44 0 86 0;
#X connect 44 0 87 0;
#X connect 46 0 49 0;
#X connect 47 0 48 0;
#X connect 48 0 46 0;
#X connect 49 0 50 0;
#X connect 50 0 44 1;
#X connect 51 0 52 0;
#X connect 52 0 85 0;
#X connect 53 0 86 0;
#X connect 54 0 87 0;
#X connect 55 0 47 0;
#X connect 55 1 51 0;
#X connect 56 0 57 0;
#X connect 57 0 60 1;
#X connect 58 0 59 0;
#X connect 59 0 60 0;
#X connect 60 0 67 0;
#X connect 62 0 64 0;
#X connect 63 0 32 0;
#X connect 64 0 65 0;
#X connect 65 0 63 0;
#X connect 65 1 63 1;
#X connect 66 0 64 0;
#X connect 67 0 68 0;
#X connect 68 0 19 1;
#X connect 68 0 20 1;
#X connect 68 0 17 1;
#X connect 68 0 18 1;
#X connect 71 0 74 0;
#X connect 72 0 73 0;
#X connect 73 0 75 0;
#X connect 74 0 76 0;
#X connect 78 0 79 0;
#X connect 79 0 83 0;
#X connect 80 0 81 0;
#X connect 81 0 72 1;
#X connect 81 0 71 1;
#X connect 82 0 80 0;
#X connect 83 0 82 0;
#X connect 85 0 53 1;
#X connect 85 0 54 1;
#X connect 86 0 72 0;
#X connect 87 0 71 0;
#X connect 88 0 7 1;
#X connect 89 0 8 1;
#X restore 971 480 pd reverb;
#X obj 1042 480 *~;
#X obj 155 323 catch~ \$0-grain-fx-fback;
#X obj 155 345 *~ 0.1566;
#N canvas 0 22 872 596 reader-11&12 0;
#X obj 297 122 / 44.1;
#X floatatom 297 144 5 0 0 0 - - -, f 5;
#X obj 205 169 phasor~;
#X obj 205 236 *~ -1;
#X obj 205 258 +~ 1;
#X obj 205 328 *~;
#X obj 220 281 sig~;
#X obj 220 303 samphold~;
#X obj 205 350 vd~ \$0-cloud1;
#X obj 205 372 *~;
#N canvas 0 22 250 217 hanning 0;
#X obj 78 73 sig~ 1;
#X obj 78 104 -~;
#X obj 78 126 *~ 0.5;
#X obj 132 87 cos~;
#X obj 132 39 inlet~;
#X obj 78 148 outlet~;
#X connect 0 0 1 0;
#X connect 1 0 2 0;
#X connect 2 0 5 0;
#X connect 3 0 1 1;
#X connect 4 0 3 0;
#X restore 344 356 pd hanning;
#X obj 437 234 *~ -1;
#X obj 437 256 +~ 1;
#X obj 437 326 *~;
#X obj 452 279 sig~;
#X obj 452 301 samphold~;
#X obj 437 348 vd~ \$0-cloud1;
#X obj 437 370 *~;
#N canvas 0 22 250 217 hanning 0;
#X obj 78 73 sig~ 1;
#X obj 78 104 -~;
#X obj 78 126 *~ 0.5;
#X obj 132 87 cos~;
#X obj 132 39 inlet~;
#X obj 78 148 outlet~;
#X connect 0 0 1 0;
#X connect 1 0 2 0;
#X connect 2 0 5 0;
#X connect 3 0 1 1;
#X connect 4 0 3 0;
#X restore 576 354 pd hanning;
#X obj 437 186 +~ 0.5;
#X obj 437 208 wrap~;
#X obj 297 263 t f f;
#X floatatom 297 185 5 0 0 0 - - -, f 5;
#X obj 294 440 *~ 0.5;
#X msg 297 204 \$1 50;
#X obj 297 226 line;
#X obj 294 469 throw~ \$0-grain-fx-fback;
#X obj 205 51 r~ \$0-gran-fx-freq-to-reader;
#X obj 297 95 r \$0-gran-fx-delay-to-reader;
#X obj 205 439 *~ 0.5;
#X obj 468 478 throw~ \$0-gran-fx-LEFT;
#X obj 467 441 *~ 0.5;
#X obj 201 500 throw~ \$0-gran-fx-RIGHT;
#X obj 297 163 * 3;
#X connect 0 0 1 0;
#X connect 1 0 33 0;
#X connect 2 0 3 0;
#X connect 2 0 7 1;
#X connect 2 0 10 0;
#X connect 2 0 19 0;
#X connect 3 0 4 0;
#X connect 4 0 5 0;
#X connect 5 0 8 0;
#X connect 6 0 7 0;
#X connect 7 0 5 1;
#X connect 8 0 9 0;
#X connect 8 0 23 0;
#X connect 9 0 29 0;
#X connect 10 0 9 1;
#X connect 11 0 12 0;
#X connect 12 0 13 0;
#X connect 13 0 16 0;
#X connect 14 0 15 0;
#X connect 15 0 13 1;
#X connect 16 0 17 0;
#X connect 16 0 23 0;
#X connect 17 0 31 0;
#X connect 18 0 17 1;
#X connect 19 0 20 0;
#X connect 20 0 11 0;
#X connect 20 0 15 1;
#X connect 20 0 18 0;
#X connect 21 0 6 0;
#X connect 21 1 14 0;
#X connect 22 0 24 0;
#X connect 23 0 26 0;
#X connect 24 0 25 0;
#X connect 25 0 21 0;
#X connect 27 0 2 0;
#X connect 28 0 0 0;
#X connect 29 0 32 0;
#X connect 31 0 30 0;
#X connect 33 0 22 0;
#X restore 487 457 pd reader-11&12;
#X obj 216 421 * 0.8;
#N canvas 0 22 872 596 reader-15&16 0;
#X obj 297 122 / 44.1;
#X floatatom 297 144 5 0 0 0 - - -, f 5;
#X obj 205 169 phasor~;
#X obj 205 236 *~ -1;
#X obj 205 258 +~ 1;
#X obj 205 328 *~;
#X obj 220 281 sig~;
#X obj 220 303 samphold~;
#X obj 205 350 vd~ \$0-cloud1;
#X obj 205 372 *~;
#N canvas 0 22 250 217 hanning 0;
#X obj 78 73 sig~ 1;
#X obj 78 104 -~;
#X obj 78 126 *~ 0.5;
#X obj 132 87 cos~;
#X obj 132 39 inlet~;
#X obj 78 148 outlet~;
#X connect 0 0 1 0;
#X connect 1 0 2 0;
#X connect 2 0 5 0;
#X connect 3 0 1 1;
#X connect 4 0 3 0;
#X restore 344 356 pd hanning;
#X obj 437 234 *~ -1;
#X obj 437 256 +~ 1;
#X obj 437 326 *~;
#X obj 452 279 sig~;
#X obj 452 301 samphold~;
#X obj 437 348 vd~ \$0-cloud1;
#X obj 437 370 *~;
#N canvas 0 22 250 217 hanning 0;
#X obj 78 73 sig~ 1;
#X obj 78 104 -~;
#X obj 78 126 *~ 0.5;
#X obj 132 87 cos~;
#X obj 132 39 inlet~;
#X obj 78 148 outlet~;
#X connect 0 0 1 0;
#X connect 1 0 2 0;
#X connect 2 0 5 0;
#X connect 3 0 1 1;
#X connect 4 0 3 0;
#X restore 576 354 pd hanning;
#X obj 437 186 +~ 0.5;
#X obj 437 208 wrap~;
#X obj 297 263 t f f;
#X floatatom 297 185 5 0 0 0 - - -, f 5;
#X obj 294 440 *~ 0.5;
#X msg 297 204 \$1 50;
#X obj 297 226 line;
#X obj 294 469 throw~ \$0-grain-fx-fback;
#X obj 205 51 r~ \$0-gran-fx-freq-to-reader;
#X obj 297 95 r \$0-gran-fx-delay-to-reader;
#X obj 205 439 *~ 0.5;
#X obj 459 489 throw~ \$0-gran-fx-LEFT;
#X obj 467 441 *~ 0.5;
#X obj 206 497 throw~ \$0-gran-fx-RIGHT;
#X obj 297 163 * 1;
#X connect 0 0 1 0;
#X connect 1 0 33 0;
#X connect 2 0 3 0;
#X connect 2 0 7 1;
#X connect 2 0 10 0;
#X connect 2 0 19 0;
#X connect 3 0 4 0;
#X connect 4 0 5 0;
#X connect 5 0 8 0;
#X connect 6 0 7 0;
#X connect 7 0 5 1;
#X connect 8 0 9 0;
#X connect 8 0 23 0;
#X connect 9 0 29 0;
#X connect 10 0 9 1;
#X connect 11 0 12 0;
#X connect 12 0 13 0;
#X connect 13 0 16 0;
#X connect 14 0 15 0;
#X connect 15 0 13 1;
#X connect 16 0 17 0;
#X connect 16 0 23 0;
#X connect 17 0 31 0;
#X connect 18 0 17 1;
#X connect 19 0 20 0;
#X connect 20 0 11 0;
#X connect 20 0 15 1;
#X connect 20 0 18 0;
#X connect 21 0 6 0;
#X connect 21 1 14 0;
#X connect 22 0 24 0;
#X connect 23 0 26 0;
#X connect 24 0 25 0;
#X connect 25 0 21 0;
#X connect 27 0 2 0;
#X connect 28 0 0 0;
#X connect 29 0 32 0;
#X connect 31 0 30 0;
#X connect 33 0 22 0;
#X restore 487 517 pd reader-15&16;
#N canvas 0 22 872 596 reader-13&14 0;
#X obj 297 122 / 44.1;
#X floatatom 297 144 5 0 0 0 - - -, f 5;
#X obj 205 169 phasor~;
#X obj 205 236 *~ -1;
#X obj 205 258 +~ 1;
#X obj 205 328 *~;
#X obj 220 281 sig~;
#X obj 220 303 samphold~;
#X obj 205 350 vd~ \$0-cloud1;
#X obj 205 372 *~;
#N canvas 0 22 250 217 hanning 0;
#X obj 78 73 sig~ 1;
#X obj 78 104 -~;
#X obj 78 126 *~ 0.5;
#X obj 132 87 cos~;
#X obj 132 39 inlet~;
#X obj 78 148 outlet~;
#X connect 0 0 1 0;
#X connect 1 0 2 0;
#X connect 2 0 5 0;
#X connect 3 0 1 1;
#X connect 4 0 3 0;
#X restore 344 356 pd hanning;
#X obj 437 234 *~ -1;
#X obj 437 256 +~ 1;
#X obj 437 326 *~;
#X obj 452 279 sig~;
#X obj 452 301 samphold~;
#X obj 437 348 vd~ \$0-cloud1;
#X obj 437 370 *~;
#N canvas 0 22 250 217 hanning 0;
#X obj 78 73 sig~ 1;
#X obj 78 104 -~;
#X obj 78 126 *~ 0.5;
#X obj 132 87 cos~;
#X obj 132 39 inlet~;
#X obj 78 148 outlet~;
#X connect 0 0 1 0;
#X connect 1 0 2 0;
#X connect 2 0 5 0;
#X connect 3 0 1 1;
#X connect 4 0 3 0;
#X restore 576 354 pd hanning;
#X obj 437 186 +~ 0.5;
#X obj 437 208 wrap~;
#X obj 297 263 t f f;
#X floatatom 297 185 5 0 0 0 - - -, f 5;
#X obj 294 440 *~ 0.5;
#X msg 297 204 \$1 50;
#X obj 297 226 line;
#X obj 294 469 throw~ \$0-grain-fx-fback;
#X obj 205 51 r~ \$0-gran-fx-freq-to-reader;
#X obj 297 95 r \$0-gran-fx-delay-to-reader;
#X obj 205 439 *~ 0.5;
#X obj 200 522 throw~ \$0-gran-fx-LEFT;
#X obj 467 441 *~ 0.5;
#X obj 455 494 throw~ \$0-gran-fx-RIGHT;
#X obj 297 163 * 2;
#X connect 0 0 1 0;
#X connect 1 0 33 0;
#X connect 2 0 3 0;
#X connect 2 0 7 1;
#X connect 2 0 10 0;
#X connect 2 0 19 0;
#X connect 3 0 4 0;
#X connect 4 0 5 0;
#X connect 5 0 8 0;
#X connect 6 0 7 0;
#X connect 7 0 5 1;
#X connect 8 0 9 0;
#X connect 8 0 23 0;
#X connect 9 0 29 0;
#X connect 10 0 9 1;
#X connect 11 0 12 0;
#X connect 12 0 13 0;
#X connect 13 0 16 0;
#X connect 14 0 15 0;
#X connect 15 0 13 1;
#X connect 16 0 17 0;
#X connect 16 0 23 0;
#X connect 17 0 31 0;
#X connect 18 0 17 1;
#X connect 19 0 20 0;
#X connect 20 0 11 0;
#X connect 20 0 15 1;
#X connect 20 0 18 0;
#X connect 21 0 6 0;
#X connect 21 1 14 0;
#X connect 22 0 24 0;
#X connect 23 0 26 0;
#X connect 24 0 25 0;
#X connect 25 0 21 0;
#X connect 27 0 2 0;
#X connect 28 0 0 0;
#X connect 29 0 30 0;
#X connect 31 0 32 0;
#X connect 33 0 22 0;
#X restore 487 487 pd reader-13&14;
#X obj 205 123 cnv 5 5 5 empty \$0-instance-num 1 0 0 0 12 -262144
-66577 0;
#X obj 103 123 cnv 5 5 5 empty empty GRANULAR-DELAY 0 0 0 12 -262144
-66577 0;
#X obj 618 320 r \$0-gran-fx-dry/wet-s;
#X obj 618 342 / 127;
#X obj 618 364 t f f;
#X obj 817 600 *~;
#X obj 971 612 *~;
#X text 845 602 WET LEFT;
#X text 1048 659 WET RIGHT;
#X obj 601 559 *~;
#X obj 681 381 pack 0 50;
#X obj 817 628 clip~ -1 1;
#X obj 971 647 clip~ -1 1;
#X msg 618 386 1 \$1;
#X obj 618 408 -;
#X obj 618 430 pack 0 50;
#X obj 618 452 line~;
#X obj 817 689 outlet~;
#X obj 971 698 outlet~;
#X obj 103 108 cnv 5 5 5 empty empty IN 0 0 0 8 -262144 -66577 0;
#X obj 222 108 cnv 5 5 5 empty empty REVERB 0 0 0 8 -262144 -66577
0;
#X obj 135 108 cnv 5 5 5 empty empty PITCH 0 0 0 8 -262144 -66577 0
;
#X obj 181 108 cnv 5 5 5 empty empty GRAIN 0 0 0 8 -262144 -66577 0
;
#X obj 267 108 cnv 5 5 5 empty empty D/W 0 0 0 8 -262144 -66577 0;
#N canvas 315 35 593 735 state-saving-multiple-instances 0;
#X obj 137 29 loadbang;
#X obj 184 452 textfile;
#X msg 471 435 rewind;
#X msg 428 435 bang;
#X obj 42 691 textfile;
#X obj 428 396 t b b;
#X obj 43 357 f;
#X obj 56 580 f;
#X obj -16 401 t b b b;
#X msg 119 580 clear;
#X obj 204 217 outlet;
#X text 246 221 INSTANCE NUMBER;
#X obj 165 153 f \$1;
#X obj 165 189 t f f f;
#X obj 138 62 t b b;
#X obj -16 378 bng 15 250 50 0 empty empty empty 17 7 0 10 -262144
-1 -1;
#X obj -16 234 r SAVE-S;
#X obj 43 400 pack f f f f f;
#X obj 184 474 unpack f f f f f;
#X msg 43 438 set \$1 \$2 \$3 \$4 \$5;
#X msg 184 427 read statesave/\$1-granular-delay-ss.txt;
#X msg 55 651 write statesave/\$1-granular-delay-ss.txt;
#X obj 58 254 r \$0-gran-fx-pitch-s;
#X obj 184 627 s \$0-gran-fx-pitch-r;
#X obj 66 277 r \$0-gran-fx-grainsize-s;
#X obj 205 603 s \$0-gran-fx-grainsize-r;
#X obj 80 298 r \$0-gran-fx-fback-s;
#X obj 226 579 s \$0-gran-fx-fback-r;
#X obj 98 323 r \$0-gran-fx-reverb-s;
#X obj 247 555 s \$0-gran-fx-reverb-r;
#X obj 118 348 r \$0-gran-fx-dry/wet-s;
#X obj 275 529 s \$0-gran-fx-dry/wet-r;
#X connect 0 0 14 0;
#X connect 1 0 18 0;
#X connect 2 0 1 0;
#X connect 3 0 1 0;
#X connect 5 0 3 0;
#X connect 5 1 2 0;
#X connect 6 0 17 0;
#X connect 7 0 21 0;
#X connect 8 0 7 0;
#X connect 8 1 6 0;
#X connect 8 2 9 0;
#X connect 9 0 4 0;
#X connect 12 0 13 0;
#X connect 13 0 7 1;
#X connect 13 1 20 0;
#X connect 13 2 10 0;
#X connect 14 0 5 0;
#X connect 14 1 12 0;
#X connect 15 0 8 0;
#X connect 16 0 15 0;
#X connect 17 0 19 0;
#X connect 18 0 23 0;
#X connect 18 1 25 0;
#X connect 18 2 27 0;
#X connect 18 3 29 0;
#X connect 18 4 31 0;
#X connect 19 0 4 0;
#X connect 20 0 1 0;
#X connect 21 0 4 0;
#X connect 22 0 6 1;
#X connect 24 0 17 1;
#X connect 26 0 17 2;
#X connect 28 0 17 3;
#X connect 30 0 17 4;
#X restore 105 550 pd state-saving-multiple-instances;
#X obj 105 636 s \$0-instance-num;
#X obj 105 588 makefilename %d;
#X msg 105 613 label \$1;
#X obj 484 51 / 127;
#X obj 484 77 t f f;
#X obj 534 94 * 2;
#X obj 534 116 - 1;
#X floatatom 237 119 5 0 0 0 - - -, f 5;
#X obj 151 35 inlet~;
#X obj 985 157 * 1;
#X text 149 13 PITCH CV IN;
#X obj 151 57 snapshot~;
#X obj 151 79 t b f;
#X obj 204 34 bang~;
#X obj 484 99 +;
#X obj 365 93 +;
#X obj 265 -13 inlet~;
#X obj 265 9 *~ 44100;
#X obj 265 31 +~ 100;
#X obj 265 53 snapshot~;
#X obj 265 75 t b f;
#X obj 316 31 bang~;
#X obj 986 259 +~;
#X obj 659 43 inlet~;
#X obj 986 281 clip~ 0 1;
#X obj 1052 281 clip~ 0 1;
#X obj 1052 233 line~;
#X obj 1052 255 +~;
#X obj 1137 238 *~ -1;
#X text 653 23 REVERB CV IN;
#X obj 826 45 inlet~;
#X text 826 20 DRY/WET CV IN;
#X obj 618 474 +~;
#X obj 618 496 clip~ 0 1;
#X obj 680 495 clip~ 0 1;
#X obj 681 403 line~;
#X obj 681 425 +~;
#X obj 767 457 *~ -1;
#N canvas 81 22 1117 745 state-saving-via-preset-manager-module 0;
#X obj 477 349 textfile;
#X msg 755 332 rewind;
#X msg 712 332 bang;
#X obj 243 690 textfile;
#X obj 712 293 t b b;
#X obj 244 356 f;
#X obj 257 579 f;
#X obj 190 474 t b b b;
#X msg 373 621 clear;
#X obj 244 180 delay 5;
#X obj 190 529 delay 10;
#X msg 190 314 bang;
#X obj 190 155 r STORE-S!;
#X obj 477 250 f;
#X obj 450 207 t b b;
#X obj 465 171 t b f;
#X obj 522 268 f \$1;
#X obj 477 295 pack f f;
#X obj 522 218 loadbang;
#X obj 257 609 pack f f;
#X obj 302 562 loadbang;
#X obj 302 584 f \$1;
#X obj 465 122 r preset-manager-scan;
#X obj 272 540 r preset-manager-store-slot;
#X msg 243 490 set \$1 \$2 \$3 \$4;
#X obj 244 423 pack f f f f;
#X obj 477 371 unpack f f f f;
#X msg 256 650 write statesave/\$1-\$2-granular-delay-ss.txt;
#X msg 477 324 read statesave/\$1-\$2-granular-delay-ss.txt;
#X obj 259 308 r \$0-gran-fx-pitch-s;
#X obj 477 713 s \$0-gran-fx-pitch-r;
#X obj 267 330 r \$0-gran-fx-grainsize-s;
#X obj 504 615 s \$0-gran-fx-grainsize-r;
#X obj 290 352 r \$0-gran-fx-reverb-s;
#X obj 531 518 s \$0-gran-fx-reverb-r;
#X obj 313 374 r \$0-gran-fx-dry/wet-s;
#X obj 731 435 s \$0-gran-fx-dry/wet-r;
#X obj 465 144 i;
#N canvas 0 22 1069 747 morph-parameters 0;
#X obj 176 94 inlet;
#X obj 176 236 pack f f;
#X obj 176 261 line;
#X obj 209 117 r preset-manager-morph-s;
#X msg 72 244 stop;
#X obj 72 214 r STOP-MORPH!;
#X obj 209 206 spigot;
#X obj 398 137 t f f;
#X obj 455 154 == 0;
#X obj 221 176 f;
#X floatatom 455 222 5 0 0 0 - - -, f 5;
#X obj 398 159 t b f;
#X floatatom 425 192 5 0 0 0 - - -, f 5;
#X obj 209 139 t f f;
#X obj 398 102 r parameters-s;
#X obj 176 288 outlet;
#X connect 0 0 1 0;
#X connect 1 0 2 0;
#X connect 2 0 15 0;
#X connect 3 0 13 0;
#X connect 4 0 2 0;
#X connect 5 0 4 0;
#X connect 6 0 1 1;
#X connect 7 0 11 0;
#X connect 7 1 8 0;
#X connect 8 0 10 0;
#X connect 9 0 6 0;
#X connect 10 0 1 1;
#X connect 11 0 9 0;
#X connect 11 1 12 0;
#X connect 12 0 6 1;
#X connect 13 0 6 0;
#X connect 13 1 9 1;
#X connect 14 0 7 0;
#X restore 505 587 pd morph-parameters;
#N canvas 0 22 1069 747 morph-parameters 0;
#X obj 176 94 inlet;
#X obj 176 236 pack f f;
#X obj 176 261 line;
#X obj 209 117 r preset-manager-morph-s;
#X msg 72 244 stop;
#X obj 72 214 r STOP-MORPH!;
#X obj 209 206 spigot;
#X obj 398 137 t f f;
#X obj 455 154 == 0;
#X obj 221 176 f;
#X floatatom 455 222 5 0 0 0 - - -, f 5;
#X obj 398 159 t b f;
#X floatatom 425 192 5 0 0 0 - - -, f 5;
#X obj 209 139 t f f;
#X obj 398 102 r parameters-s;
#X obj 176 288 outlet;
#X connect 0 0 1 0;
#X connect 1 0 2 0;
#X connect 2 0 15 0;
#X connect 3 0 13 0;
#X connect 4 0 2 0;
#X connect 5 0 4 0;
#X connect 6 0 1 1;
#X connect 7 0 11 0;
#X connect 7 1 8 0;
#X connect 8 0 10 0;
#X connect 9 0 6 0;
#X connect 10 0 1 1;
#X connect 11 0 9 0;
#X connect 11 1 12 0;
#X connect 12 0 6 1;
#X connect 13 0 6 0;
#X connect 13 1 9 1;
#X connect 14 0 7 0;
#X restore 477 685 pd morph-parameters;
#N canvas 0 22 1069 747 morph-parameters 0;
#X obj 176 94 inlet;
#X obj 176 236 pack f f;
#X obj 176 261 line;
#X obj 209 117 r preset-manager-morph-s;
#X msg 72 244 stop;
#X obj 72 214 r STOP-MORPH!;
#X obj 209 206 spigot;
#X obj 398 137 t f f;
#X obj 455 154 == 0;
#X obj 221 176 f;
#X floatatom 455 222 5 0 0 0 - - -, f 5;
#X obj 398 159 t b f;
#X floatatom 425 192 5 0 0 0 - - -, f 5;
#X obj 209 139 t f f;
#X obj 398 102 r parameters-s;
#X obj 176 288 outlet;
#X connect 0 0 1 0;
#X connect 1 0 2 0;
#X connect 2 0 15 0;
#X connect 3 0 13 0;
#X connect 4 0 2 0;
#X connect 5 0 4 0;
#X connect 6 0 1 1;
#X connect 7 0 11 0;
#X connect 7 1 8 0;
#X connect 8 0 10 0;
#X connect 9 0 6 0;
#X connect 10 0 1 1;
#X connect 11 0 9 0;
#X connect 11 1 12 0;
#X connect 12 0 6 1;
#X connect 13 0 6 0;
#X connect 13 1 9 1;
#X connect 14 0 7 0;
#X restore 531 493 pd morph-parameters;
#N canvas 0 22 1069 747 morph-parameters 0;
#X obj 176 94 inlet;
#X obj 176 236 pack f f;
#X obj 176 261 line;
#X obj 209 117 r preset-manager-morph-s;
#X msg 72 244 stop;
#X obj 72 214 r STOP-MORPH!;
#X obj 209 206 spigot;
#X obj 398 137 t f f;
#X obj 455 154 == 0;
#X obj 221 176 f;
#X floatatom 455 222 5 0 0 0 - - -, f 5;
#X obj 398 159 t b f;
#X floatatom 425 192 5 0 0 0 - - -, f 5;
#X obj 209 139 t f f;
#X obj 398 102 r parameters-s;
#X obj 176 288 outlet;
#X connect 0 0 1 0;
#X connect 1 0 2 0;
#X connect 2 0 15 0;
#X connect 3 0 13 0;
#X connect 4 0 2 0;
#X connect 5 0 4 0;
#X connect 6 0 1 1;
#X connect 7 0 11 0;
#X connect 7 1 8 0;
#X connect 8 0 10 0;
#X connect 9 0 6 0;
#X connect 10 0 1 1;
#X connect 11 0 9 0;
#X connect 11 1 12 0;
#X connect 12 0 6 1;
#X connect 13 0 6 0;
#X connect 13 1 9 1;
#X connect 14 0 7 0;
#X restore 731 407 pd morph-parameters;
#X connect 0 0 26 0;
#X connect 1 0 0 0;
#X connect 2 0 0 0;
#X connect 4 0 2 0;
#X connect 4 1 1 0;
#X connect 5 0 25 0;
#X connect 6 0 19 0;
#X connect 7 0 10 0;
#X connect 7 1 9 0;
#X connect 7 2 8 0;
#X connect 8 0 3 0;
#X connect 9 0 5 0;
#X connect 10 0 6 0;
#X connect 11 0 7 0;
#X connect 12 0 11 0;
#X connect 13 0 17 0;
#X connect 14 0 4 0;
#X connect 14 1 13 0;
#X connect 15 0 14 0;
#X connect 15 1 13 1;
#X connect 16 0 17 1;
#X connect 17 0 28 0;
#X connect 18 0 16 0;
#X connect 19 0 27 0;
#X connect 20 0 21 0;
#X connect 21 0 19 1;
#X connect 22 0 37 0;
#X connect 23 0 6 1;
#X connect 24 0 3 0;
#X connect 25 0 24 0;
#X connect 26 0 39 0;
#X connect 26 1 38 0;
#X connect 26 2 40 0;
#X connect 26 3 41 0;
#X connect 27 0 3 0;
#X connect 28 0 0 0;
#X connect 29 0 5 1;
#X connect 31 0 25 1;
#X connect 33 0 25 2;
#X connect 35 0 25 3;
#X connect 37 0 15 0;
#X connect 38 0 32 0;
#X connect 39 0 30 0;
#X connect 40 0 34 0;
#X connect 41 0 36 0;
#X restore 102 667 pd state-saving-via-preset-manager-module;
#N canvas 297 27 518 295 parameter-nudging-system 0;
#X obj 21 171 clip 0 127;
#X obj 23 67 clip 0 127;
#X obj 171 67 clip 0 127;
#X obj 343 69 clip 0 127;
#X obj 23 22 r \$0-gran-fx-pitch-s;
#X obj 23 95 s \$0-gran-fx-pitch-r;
#X obj 171 22 r \$0-gran-fx-grainsize-s;
#X obj 171 95 s \$0-gran-fx-grainsize-r;
#X obj 343 22 r \$0-gran-fx-reverb-s;
#X obj 343 95 s \$0-gran-fx-reverb-r;
#X obj 21 126 r \$0-gran-fx-dry/wet-s;
#X obj 21 198 s \$0-gran-fx-dry/wet-r;
#N canvas 0 22 484 497 nudge-parameters 0;
#X obj 124 234 random;
#X obj 232 335 f;
#X obj 232 368 +;
#X obj 257 166 random 2;
#X obj 124 275 t f f;
#X obj 124 351 t b f;
#X obj 124 297 *;
#X obj 257 188 sel 0 1;
#X msg 257 280 -1;
#X msg 335 280 1;
#X obj 124 149 t b b b;
#X obj 124 74 r NUDGE!;
#X obj 157 193 r NUDGE-RANGE;
#X obj 247 308 inlet;
#X obj 232 397 outlet;
#X obj 124 96 spigot;
#X obj 185 79 r parameters2-s;
#X connect 0 0 4 0;
#X connect 1 0 2 0;
#X connect 2 0 14 0;
#X connect 3 0 7 0;
#X connect 4 0 6 0;
#X connect 5 0 2 0;
#X connect 5 1 2 1;
#X connect 6 0 5 0;
#X connect 7 0 8 0;
#X connect 7 1 9 0;
#X connect 8 0 6 1;
#X connect 9 0 6 1;
#X connect 10 0 0 0;
#X connect 10 1 1 0;
#X connect 10 2 3 0;
#X connect 11 0 15 0;
#X connect 12 0 0 1;
#X connect 13 0 1 1;
#X connect 15 0 10 0;
#X connect 16 0 15 1;
#X restore 351 44 pd nudge-parameters;
#N canvas 0 22 484 497 nudge-parameters 0;
#X obj 124 234 random;
#X obj 232 335 f;
#X obj 232 368 +;
#X obj 257 166 random 2;
#X obj 124 275 t f f;
#X obj 124 351 t b f;
#X obj 124 297 *;
#X obj 257 188 sel 0 1;
#X msg 257 280 -1;
#X msg 335 280 1;
#X obj 124 149 t b b b;
#X obj 124 74 r NUDGE!;
#X obj 157 193 r NUDGE-RANGE;
#X obj 247 308 inlet;
#X obj 232 397 outlet;
#X obj 124 96 spigot;
#X obj 185 79 r parameters2-s;
#X connect 0 0 4 0;
#X connect 1 0 2 0;
#X connect 2 0 14 0;
#X connect 3 0 7 0;
#X connect 4 0 6 0;
#X connect 5 0 2 0;
#X connect 5 1 2 1;
#X connect 6 0 5 0;
#X connect 7 0 8 0;
#X connect 7 1 9 0;
#X connect 8 0 6 1;
#X connect 9 0 6 1;
#X connect 10 0 0 0;
#X connect 10 1 1 0;
#X connect 10 2 3 0;
#X connect 11 0 15 0;
#X connect 12 0 0 1;
#X connect 13 0 1 1;
#X connect 15 0 10 0;
#X connect 16 0 15 1;
#X restore 23 45 pd nudge-parameters;
#N canvas 0 22 484 497 nudge-parameters 0;
#X obj 124 234 random;
#X obj 232 335 f;
#X obj 232 368 +;
#X obj 257 166 random 2;
#X obj 124 275 t f f;
#X obj 124 351 t b f;
#X obj 124 297 *;
#X obj 257 188 sel 0 1;
#X msg 257 280 -1;
#X msg 335 280 1;
#X obj 124 149 t b b b;
#X obj 124 74 r NUDGE!;
#X obj 157 193 r NUDGE-RANGE;
#X obj 247 308 inlet;
#X obj 232 397 outlet;
#X obj 124 96 spigot;
#X obj 185 79 r parameters2-s;
#X connect 0 0 4 0;
#X connect 1 0 2 0;
#X connect 2 0 14 0;
#X connect 3 0 7 0;
#X connect 4 0 6 0;
#X connect 5 0 2 0;
#X connect 5 1 2 1;
#X connect 6 0 5 0;
#X connect 7 0 8 0;
#X connect 7 1 9 0;
#X connect 8 0 6 1;
#X connect 9 0 6 1;
#X connect 10 0 0 0;
#X connect 10 1 1 0;
#X connect 10 2 3 0;
#X connect 11 0 15 0;
#X connect 12 0 0 1;
#X connect 13 0 1 1;
#X connect 15 0 10 0;
#X connect 16 0 15 1;
#X restore 22 149 pd nudge-parameters;
#N canvas 0 22 484 497 nudge-parameters 0;
#X obj 124 234 random;
#X obj 232 335 f;
#X obj 232 368 +;
#X obj 257 166 random 2;
#X obj 124 275 t f f;
#X obj 124 351 t b f;
#X obj 124 297 *;
#X obj 257 188 sel 0 1;
#X msg 257 280 -1;
#X msg 335 280 1;
#X obj 124 149 t b b b;
#X obj 124 74 r NUDGE!;
#X obj 157 193 r NUDGE-RANGE;
#X obj 247 308 inlet;
#X obj 232 397 outlet;
#X obj 124 96 spigot;
#X obj 185 79 r parameters2-s;
#X connect 0 0 4 0;
#X connect 1 0 2 0;
#X connect 2 0 14 0;
#X connect 3 0 7 0;
#X connect 4 0 6 0;
#X connect 5 0 2 0;
#X connect 5 1 2 1;
#X connect 6 0 5 0;
#X connect 7 0 8 0;
#X connect 7 1 9 0;
#X connect 8 0 6 1;
#X connect 9 0 6 1;
#X connect 10 0 0 0;
#X connect 10 1 1 0;
#X connect 10 2 3 0;
#X connect 11 0 15 0;
#X connect 12 0 0 1;
#X connect 13 0 1 1;
#X connect 15 0 10 0;
#X connect 16 0 15 1;
#X restore 168 46 pd nudge-parameters;
#X connect 0 0 11 0;
#X connect 1 0 5 0;
#X connect 2 0 7 0;
#X connect 3 0 9 0;
#X connect 4 0 13 0;
#X connect 6 0 15 0;
#X connect 8 0 12 0;
#X connect 10 0 14 0;
#X connect 12 0 3 0;
#X connect 13 0 1 0;
#X connect 14 0 0 0;
#X connect 15 0 2 0;
#X restore 103 695 pd parameter-nudging-system;
#X obj 817 650 *~ 1;
#X obj 971 669 *~ 1;
#X obj 365 71 + 1;
#N canvas 632 73 749 752 external-messages 0;
#X floatatom 186 706 5 0 0 0 - - -, f 5;
#X obj 185 328 spigot;
#X obj 218 288 tgl 15 0 empty empty empty 17 7 0 10 -262144 -1 -1 0
1;
#X obj 254 272 ==;
#X obj 269 248 f \$1;
#X obj 269 224 loadbang;
#X msg 185 202 \$1 \$2;
#X msg 185 156 symbol \$1;
#X obj 185 180 pack s f;
#X obj 186 685 f;
#X obj 186 633 t b f;
#X obj 186 656 spigot;
#X obj 185 62 unpack s f f;
#X symbolatom 185 94 10 0 0 0 - - -, f 10;
#X obj 218 308 t f f;
#X obj 245 332 s \$0-msg-spigot;
#X obj 234 640 r \$0-msg-spigot;
#X floatatom 223 594 5 0 0 0 - - -, f 5;
#X obj 223 573 f;
#X obj 223 521 t b f;
#X obj 223 544 spigot;
#X obj 271 528 r \$0-msg-spigot;
#X floatatom 387 639 5 0 0 0 - - -, f 5;
#X obj 387 618 f;
#X obj 387 566 t b f;
#X obj 387 589 spigot;
#X obj 435 573 r \$0-msg-spigot;
#X floatatom 424 527 5 0 0 0 - - -, f 5;
#X obj 424 506 f;
#X obj 424 454 t b f;
#X obj 424 477 spigot;
#X obj 472 461 r \$0-msg-spigot;
#X obj 185 14 r granular-delay;
#X obj 185 379 route PITCH GRAIN REVERB DRY/WET;
#X obj 186 726 s \$0-gran-fx-pitch-r;
#X obj 223 614 s \$0-gran-fx-grainsize-r;
#X obj 387 659 s \$0-gran-fx-reverb-r;
#X obj 424 547 s \$0-gran-fx-dry/wet-r;
#X connect 0 0 34 0;
#X connect 1 0 33 0;
#X connect 2 0 14 0;
#X connect 3 0 2 0;
#X connect 4 0 3 1;
#X connect 5 0 4 0;
#X connect 6 0 1 0;
#X connect 7 0 8 0;
#X connect 8 0 6 0;
#X connect 9 0 0 0;
#X connect 10 0 11 0;
#X connect 10 1 9 1;
#X connect 11 0 9 0;
#X connect 12 0 13 0;
#X connect 12 1 8 1;
#X connect 12 2 3 0;
#X connect 13 0 7 0;
#X connect 14 0 1 1;
#X connect 14 1 15 0;
#X connect 16 0 11 1;
#X connect 17 0 35 0;
#X connect 18 0 17 0;
#X connect 19 0 20 0;
#X connect 19 1 18 1;
#X connect 20 0 18 0;
#X connect 21 0 20 1;
#X connect 22 0 36 0;
#X connect 23 0 22 0;
#X connect 24 0 25 0;
#X connect 24 1 23 1;
#X connect 25 0 23 0;
#X connect 26 0 25 1;
#X connect 27 0 37 0;
#X connect 28 0 27 0;
#X connect 29 0 30 0;
#X connect 29 1 28 1;
#X connect 30 0 28 0;
#X connect 31 0 30 1;
#X connect 32 0 12 0;
#X connect 33 0 10 0;
#X connect 33 1 19 0;
#X connect 33 2 24 0;
#X connect 33 3 29 0;
#X restore 300 694 pd external-messages;
#X connect 0 0 19 0;
#X connect 0 0 66 0;
#X connect 3 0 85 0;
#X connect 4 0 5 0;
#X connect 5 0 13 0;
#X connect 6 0 35 0;
#X connect 6 1 7 0;
#X connect 7 0 12 0;
#X connect 8 0 35 0;
#X connect 9 0 10 0;
#X connect 9 1 10 1;
#X connect 10 0 11 0;
#X connect 11 0 34 0;
#X connect 12 0 10 0;
#X connect 12 1 28 0;
#X connect 13 0 124 0;
#X connect 16 0 54 0;
#X connect 17 0 18 0;
#X connect 18 0 14 1;
#X connect 23 0 24 0;
#X connect 24 0 27 0;
#X connect 25 0 38 0;
#X connect 25 0 47 0;
#X connect 26 0 48 0;
#X connect 26 0 50 0;
#X connect 31 0 23 0;
#X connect 34 0 31 0;
#X connect 35 0 9 0;
#X connect 36 0 16 0;
#X connect 37 0 62 0;
#X connect 38 0 37 0;
#X connect 39 0 40 0;
#X connect 40 0 41 0;
#X connect 41 0 91 0;
#X connect 41 1 44 0;
#X connect 42 0 43 0;
#X connect 43 0 104 0;
#X connect 44 0 45 0;
#X connect 45 0 46 0;
#X connect 46 0 108 0;
#X connect 47 0 62 0;
#X connect 48 0 49 0;
#X connect 49 0 63 0;
#X connect 50 0 63 0;
#X connect 51 0 52 0;
#X connect 52 0 14 0;
#X connect 54 0 17 0;
#X connect 59 0 60 0;
#X connect 60 0 61 0;
#X connect 61 0 70 0;
#X connect 61 1 67 0;
#X connect 62 0 68 0;
#X connect 63 0 69 0;
#X connect 66 0 68 0;
#X connect 66 0 69 0;
#X connect 67 0 117 0;
#X connect 68 0 122 0;
#X connect 69 0 123 0;
#X connect 70 0 71 0;
#X connect 71 0 72 0;
#X connect 72 0 73 0;
#X connect 73 0 114 0;
#X connect 81 0 83 0;
#X connect 83 0 84 0;
#X connect 84 0 82 0;
#X connect 85 0 86 0;
#X connect 86 0 96 0;
#X connect 86 1 87 0;
#X connect 87 0 88 0;
#X connect 88 0 89 0;
#X connect 90 0 93 0;
#X connect 91 0 42 0;
#X connect 93 0 94 0;
#X connect 94 0 96 0;
#X connect 94 1 96 1;
#X connect 95 0 93 0;
#X connect 96 0 8 0;
#X connect 97 0 6 0;
#X connect 98 0 99 0;
#X connect 99 0 100 0;
#X connect 100 0 101 0;
#X connect 101 0 102 0;
#X connect 102 0 97 0;
#X connect 102 1 97 1;
#X connect 103 0 101 0;
#X connect 104 0 106 0;
#X connect 105 0 104 1;
#X connect 105 0 110 0;
#X connect 106 0 38 1;
#X connect 106 0 48 1;
#X connect 107 0 47 1;
#X connect 107 0 50 1;
#X connect 108 0 109 0;
#X connect 109 0 107 0;
#X connect 110 0 109 1;
#X connect 112 0 118 1;
#X connect 112 0 119 0;
#X connect 114 0 115 0;
#X connect 115 0 66 1;
#X connect 116 0 62 1;
#X connect 116 0 63 1;
#X connect 117 0 118 0;
#X connect 118 0 116 0;
#X connect 119 0 114 1;
#X connect 122 0 74 0;
#X connect 123 0 75 0;
#X connect 124 0 97 0;
#X coords 0 -1 1 1 185 100 2 100 100;
