#N canvas 0 22 1055 716 10;
#N canvas 0 22 450 300 (subpatch) 0;
#X array \$0-graphic-osc 67 float 1;
#A 0 -0.300004 0.624999 0.374998 0.149997 0.0249969 -0.175004 -0.375005
-0.425005 -0.525005 -0.325004 -0.0750035 0.8 0.8 0.8 0.8 0.8 0.8 0.8
0.8 0.8 0.8 0.8 0.8 0.8 0.8 0.8 0.8 0.8 0.8 0.8 0.8 0.8 0.8 0.8 0.8
0.8 0.8 0.8 0.8 -0.475005 -0.475005 -0.475005 -0.475005 -0.475005 -0.475005
-0.475005 -0.500005 -0.600006 -0.600006 -0.600006 -0.600006 -0.600006
-1.02501 -1.02501 -1.00001 -1.00001 -0.975007 -0.950007 -0.925007 -0.900007
-0.887507 -0.875007 -0.825006 -0.825006 -0.800006 -0.575005 -0.250004
;
#X coords 0 1 66 -1 120 80 1 0 0;
#X restore 107 143 graph;
#X obj 382 387 tabosc4~ \$0-graphic-osc;
#X obj 145 42 hradio 15 1 1 8 \$0-graph-load-s \$0-graph-load-r LOAD
125 7 0 10 -262144 -150893 -1 0;
#X obj 107 238 hradio 15 1 0 8 \$0-graph-write-s \$0-graph-write-r
WRITE 125 7 0 10 -262144 -226533 -1 1;
#N canvas 0 22 1197 681 write&load 0;
#X obj 552 138 loadbang;
#X obj 684 293 f;
#X obj 684 324 pack f f;
#X obj 406 234 delay 10;
#X obj 684 249 t b f;
#X text 446 112 WRITE;
#X obj 406 114 inlet;
#X obj 684 176 inlet;
#X obj 406 268 f;
#X obj 406 307 pack f f;
#X obj 552 186 t f f;
#X obj 552 164 f \$1;
#X msg 39 343 bang;
#X obj 406 591 textfile;
#X msg 484 296 clear;
#X obj 406 178 t b f b b;
#X msg 39 407 set \$1 \$2 \$3 \$4 \$5 \$6 \$7 \$8 \$9 \$10 \$11 \$12
\$13 \$14 \$15 \$16 \$17 \$18 \$19 \$20 \$21 \$22 \$23 \$24 \$25 \$26
\$27 \$28 \$29 \$30 \$31 \$32 \$33 \$34 \$35 \$36 \$37 \$38 \$39 \$40
\$41 \$42 \$43 \$44 \$45 \$46 \$47 \$48 \$49 \$50 \$51 \$52 \$53 \$54
\$55 \$56 \$57 \$58 \$59 \$60 \$61 \$62 \$63 \$64 \$65 \$66 \$67;
#X msg 777 128 write statesave/morph-patterns/morph-seq-\$1-pattern\$2.txt
;
#X msg 406 389 write statesave/graph-osc-shapes/graph-osc-\$1-shape\$2.txt
;
#X msg 582 445 read statesave/graph-osc-shapes/graph-osc-\$1-shape\$2.txt
;
#X obj 39 368 array get \$0-graphic-osc;
#X obj 582 577 s \$0-graphic-osc;
#X connect 0 0 11 0;
#X connect 1 0 2 0;
#X connect 2 0 19 0;
#X connect 3 0 8 0;
#X connect 4 0 1 0;
#X connect 4 1 2 1;
#X connect 6 0 15 0;
#X connect 7 0 4 0;
#X connect 8 0 9 0;
#X connect 9 0 18 0;
#X connect 10 0 8 1;
#X connect 10 1 1 1;
#X connect 11 0 10 0;
#X connect 12 0 20 0;
#X connect 14 0 13 0;
#X connect 15 0 3 0;
#X connect 15 1 9 1;
#X connect 15 2 12 0;
#X connect 15 3 14 0;
#X connect 16 0 13 0;
#X connect 18 0 13 0;
#X connect 19 0 21 0;
#X connect 20 0 16 0;
#X restore 102 361 pd write&load;
#X obj 177 338 r \$0-graph-load-s;
#X obj 102 318 r \$0-graph-write-s;
#X obj 382 151 t f f;
#X obj 382 239 line~;
#X obj 382 333 mtof~;
#X obj 382 305 +~;
#X obj 506 288 *~ 127;
#X obj 892 320 *~;
#X obj 907 273 pack 0 50;
#X obj 907 295 line~;
#X text 889 84 FM IN;
#X obj 892 342 *~ 2000;
#X obj 382 357 +~;
#X text 503 85 PITCH CV IN;
#X obj 382 216 pack 0 50;
#X obj 907 207 r \$0-basic-osc-fm-att-s;
#X obj 907 229 * 0.00787402;
#X obj 907 251 * 2;
#X obj 892 103 inlet~ FM;
#X obj 506 101 inlet~ PITCH;
#X obj 382 173 clip 0 100;
#X obj 110 253 hsl 115 15 0 127 0 1 \$0-graphic-osc-load-s \$0-graphic-osc-load-r
SCAN 128 7 0 10 -262144 -1 -1 7900 1;
#X obj 382 42 r \$0-graphic-osc-freq-s;
#X obj 382 667 outlet~;
#X obj 382 409 clip~ -1 1;
#X obj 110 268 hsl 115 15 0 127 0 1 \$0-graphic-osc-cutoff-s \$0-graphic-osc-cutoff-r
CUTOFF 128 7 0 10 -262144 -1 -1 7700 1;
#X obj 603 27 r \$0-graphic-osc-load-s;
#X obj 603 49 / 127;
#X obj 603 93 i;
#X floatatom 603 115 5 0 0 0 - - -, f 5;
#X floatatom 145 62 5 0 0 0 - - -, f 5;
#X obj 603 71 * 7;
#X obj 603 207 s \$0-graph-load-s;
#X obj 603 134 +;
#X obj 775 86 snapshot~;
#X obj 775 108 * 7;
#X obj 777 182 t b f;
#X obj 725 79 env~;
#X obj 725 101 == 0;
#X floatatom 725 123 5 0 0 0 - - -, f 5;
#X obj 725 142 sel 1;
#X msg 725 164 0;
#X obj 775 56 inlet~ SCAN;
#X obj 859 41 tgl 15 0 empty empty empty 17 7 0 10 -262144 -1 -1 1
1;
#X obj 859 61 metro 20;
#X obj 862 19 loadbang;
#X obj 603 167 i;
#X obj 775 130 change;
#X obj 110 223 hsl 115 15 0 127 0 1 \$0-graphic-osc-freq-s \$0-graphic-osc-freq-r
FREQ 128 7 0 10 -262144 -1 -1 3100 1;
#X obj 382 448 vcf~ 4;
#X obj 107 283 hradio 15 1 0 8 \$0-graphic-osc-res-s \$0-graphic-osc-res-r
Q 135 7 0 10 -262144 -1 -1 6;
#X obj 382 552 vcf~ 4;
#X obj 537 395 r \$0-graphic-osc-cutoff-s;
#X obj 537 417 mtof;
#X obj 537 439 pack 0 50;
#X obj 537 461 line~;
#X obj 537 483 +~;
#X obj 623 462 r \$0-graphic-osc-res-s;
#X obj 623 484 + 1;
#X obj 292 455 lop~;
#X obj 292 477 lop~;
#X obj 100 438 r \$0-graphic-osc-cutoff-s;
#X obj 100 460 mtof;
#X obj 100 482 pack 0 50;
#X obj 100 504 line;
#X obj 100 526 +;
#X obj 100 548 t f f;
#X connect 1 0 29 0;
#X connect 2 0 35 0;
#X connect 5 0 4 1;
#X connect 6 0 4 0;
#X connect 7 0 25 0;
#X connect 8 0 10 0;
#X connect 9 0 17 0;
#X connect 10 0 9 0;
#X connect 11 0 10 1;
#X connect 12 0 16 0;
#X connect 13 0 14 0;
#X connect 14 0 12 1;
#X connect 16 0 17 1;
#X connect 17 0 1 0;
#X connect 19 0 8 0;
#X connect 20 0 21 0;
#X connect 21 0 22 0;
#X connect 22 0 13 0;
#X connect 23 0 12 0;
#X connect 24 0 11 0;
#X connect 25 0 19 0;
#X connect 27 0 7 0;
#X connect 29 0 54 0;
#X connect 29 0 64 0;
#X connect 31 0 32 0;
#X connect 32 0 36 0;
#X connect 33 0 34 0;
#X connect 34 0 38 0;
#X connect 36 0 33 0;
#X connect 38 0 51 0;
#X connect 39 0 40 0;
#X connect 40 0 52 0;
#X connect 41 0 38 0;
#X connect 41 1 38 1;
#X connect 42 0 43 0;
#X connect 43 0 44 0;
#X connect 44 0 45 0;
#X connect 45 0 46 0;
#X connect 46 0 38 1;
#X connect 47 0 39 0;
#X connect 47 0 42 0;
#X connect 48 0 49 0;
#X connect 49 0 39 0;
#X connect 50 0 48 0;
#X connect 51 0 37 0;
#X connect 52 0 41 0;
#X connect 54 0 56 0;
#X connect 54 1 56 0;
#X connect 56 0 28 0;
#X connect 56 1 28 0;
#X connect 57 0 58 0;
#X connect 58 0 59 0;
#X connect 59 0 60 0;
#X connect 60 0 61 0;
#X connect 61 0 54 1;
#X connect 61 0 56 1;
#X connect 62 0 63 0;
#X connect 63 0 54 2;
#X connect 63 0 56 2;
#X connect 64 0 65 0;
#X connect 65 0 28 0;
#X connect 66 0 67 0;
#X connect 67 0 68 0;
#X connect 68 0 69 0;
#X connect 69 0 70 0;
#X connect 70 0 71 0;
#X connect 71 0 64 1;
#X connect 71 1 65 1;
#X coords 0 -1 1 1 175 200 2 100 100;
