#N canvas 91 22 1082 683 10;
#X obj 179 143 vsl 15 90 0 127 0 1 \$0-eq-3200-s \$0-eq-3200-r 3200
0 101 0 10 -226533 -1 -1 7700 1;
#X obj 104 143 vsl 15 90 0 127 0 1 \$0-eq-100-s \$0-eq-100-r 100 0
-9 0 10 -158136 -1 -1 0 1;
#X obj 375 120 s~ \$0-eq-inputL;
#X obj 374 163 catch~ \$0-eq-outputL;
#X obj 194 143 vsl 15 90 0 127 0 1 \$0-eq-6400-s \$0-eq-6400-r 6400
0 -9 0 10 -226533 -1 -1 4700 1;
#X obj 119 143 vsl 15 90 0 127 0 1 \$0-eq-200-s \$0-eq-200-r 200 0
101 0 10 -158136 -1 -1 0 1;
#X obj 134 143 vsl 15 90 0 127 0 1 \$0-eq-400-s \$0-eq-400-r 400 0
-9 0 10 -158136 -1 -1 6800 1;
#X obj 149 143 vsl 15 90 0 127 0 1 \$0-eq-800-s \$0-eq-800-r 800 0
101 0 10 -150893 -1 -1 0 1;
#X obj 164 143 vsl 15 90 0 127 0 1 \$0-eq-1600-s \$0-eq-1600-r 1600
0 -9 0 10 -150893 -1 -1 4700 1;
#X obj 295 290 / 127;
#X obj 295 334 + 1;
#X obj 295 356 pack 0 50;
#X obj 295 378 line;
#X obj 295 400 s \$0-eq-Q;
#X obj 295 267 r \$0-eq-q-s;
#X obj 508 58 r \$0-eq-level-s;
#X obj 508 80 * 0.00787402;
#X obj 508 102 * 0.75;
#X obj 508 146 pack 0 50;
#X obj 508 168 line~;
#X obj 374 185 *~;
#X obj 104 122 cnv 5 5 5 empty empty FILTERBANK 0 0 0 12 -262144 -66577
0;
#X obj 185 122 cnv 5 5 5 empty \$0-instance-num 3 0 0 0 12 -262144
-66577 0;
#X obj 355 246 cnv 5 5 5 empty empty R 0 0 0 8 -262144 -66577 0;
#X obj 156 108 cnv 5 5 5 empty empty RIGHT 0 0 0 8 -262144 -66577 0
;
#X obj 225 108 cnv 5 5 5 empty empty LOW 0 0 0 8 -262144 -158136 0
;
#X obj 290 108 cnv 5 5 5 empty empty MID 0 0 0 8 -262144 -96927 0;
#X obj 343 108 cnv 5 5 5 empty empty HIGH 0 0 0 8 -262144 -226533 0
;
#X obj 375 98 inlet~ LEFT;
#X obj 596 175 r \$0-eq-level-s;
#X obj 596 197 * 0.00787402;
#X obj 596 263 pack 0 50;
#X obj 596 285 line~;
#X obj 462 302 *~;
#X obj 463 215 inlet~ RIGHT;
#X obj 463 237 s~ \$0-eq-inputR;
#X obj 462 280 catch~ \$0-eq-outputR;
#X obj 373 620 outlet~ LEFT;
#X obj 461 619 outlet~ RIGHT;
#X obj 699 79 inlet~;
#X obj 699 277 s~ \$0-eq-cv-low;
#X obj 830 82 inlet~;
#X obj 829 280 s~ \$0-eq-cv-mid;
#X obj 956 78 inlet~;
#X obj 956 286 s~ \$0-eq-cv-high;
#N canvas 0 22 1209 716 7bandsLEFT 0;
#X obj 17 74 vcf~ 1;
#X msg 33 29 100;
#X obj 33 51 sig~;
#X obj 33 6 loadbang;
#X obj 17 255 *~;
#X obj 32 123 r \$0-eq-100-s;
#N canvas 375 75 488 529 scale-(0-127)-(0-15_with-1_in_middle) 0;
#X obj 137 62 / 127;
#X obj 137 200 clip 0 0.5;
#X floatatom 137 222 5 0 0 0 - - -, f 5;
#X obj 137 121 t f f;
#X obj 224 138 clip 0.5 1;
#X floatatom 224 160 5 0 0 0 - - -, f 5;
#X floatatom 137 285 5 0 0 0 - - -, f 5;
#X obj 224 179 * 2;
#X floatatom 224 245 5 0 0 0 - - -, f 5;
#X obj 137 387 spigot;
#X obj 224 339 spigot;
#X obj 293 243 > 0.5;
#X floatatom 293 265 5 0 0 0 - - -, f 5;
#X obj 137 84 t f f;
#X obj 293 284 t f f;
#X obj 320 338 == 0;
#X floatatom 137 459 5 0 0 0 - - -, f 5;
#X obj 137 24 inlet;
#X obj 137 478 outlet;
#X obj 137 263 - 0;
#X obj 137 241 * 2;
#X obj 224 201 * 9;
#X obj 224 223 - 8;
#X connect 0 0 13 0;
#X connect 1 0 2 0;
#X connect 2 0 20 0;
#X connect 3 0 1 0;
#X connect 3 1 4 0;
#X connect 4 0 5 0;
#X connect 5 0 7 0;
#X connect 6 0 9 0;
#X connect 7 0 21 0;
#X connect 8 0 10 0;
#X connect 9 0 16 0;
#X connect 10 0 16 0;
#X connect 11 0 12 0;
#X connect 12 0 14 0;
#X connect 13 0 3 0;
#X connect 13 1 11 0;
#X connect 14 0 10 1;
#X connect 14 1 15 0;
#X connect 15 0 9 1;
#X connect 16 0 18 0;
#X connect 17 0 0 0;
#X connect 19 0 6 0;
#X connect 20 0 19 0;
#X connect 21 0 22 0;
#X connect 22 0 8 0;
#X restore 32 145 pd scale-(0-127)-(0-15_with-1_in_middle);
#X obj 32 167 pack 0 50;
#X obj 32 189 line~;
#X obj 17 96 vcf~ 1;
#X obj 306 71 vcf~ 1;
#X obj 322 48 sig~;
#X obj 322 3 loadbang;
#X obj 306 93 vcf~ 1;
#X msg 322 26 200;
#X obj 306 233 *~;
#X obj 591 85 vcf~ 1;
#X obj 607 62 sig~;
#X obj 607 17 loadbang;
#X obj 591 107 vcf~ 1;
#X obj 591 224 *~;
#X obj 17 -19 r~ \$0-eq-inputL;
#X obj 306 -18 r~ \$0-eq-inputL;
#X obj 591 -7 r~ \$0-eq-inputL;
#X obj 17 281 throw~ \$0-eq-outputL;
#X obj 306 258 throw~ \$0-eq-outputL;
#X msg 607 40 400;
#X obj 591 246 throw~ \$0-eq-outputL;
#X obj 894 81 vcf~ 1;
#X obj 910 58 sig~;
#X obj 910 13 loadbang;
#X obj 894 103 vcf~ 1;
#X obj 894 220 *~;
#X obj 894 -11 r~ \$0-eq-inputL;
#X obj 894 242 throw~ \$0-eq-outputL;
#X msg 910 36 800;
#X obj 21 395 vcf~ 1;
#X obj 37 372 sig~;
#X obj 37 327 loadbang;
#X obj 21 417 vcf~ 1;
#X obj 21 534 *~;
#X obj 21 303 r~ \$0-eq-inputL;
#X obj 21 556 throw~ \$0-eq-outputL;
#X msg 37 350 1600;
#X obj 322 387 vcf~ 1;
#X obj 338 364 sig~;
#X obj 338 319 loadbang;
#X obj 322 409 vcf~ 1;
#X obj 322 526 *~;
#X obj 322 295 r~ \$0-eq-inputL;
#X obj 322 548 throw~ \$0-eq-outputL;
#X msg 338 342 3200;
#X obj 620 377 vcf~ 1;
#X obj 636 354 sig~;
#X obj 636 309 loadbang;
#X obj 620 399 vcf~ 1;
#X obj 620 516 *~;
#X obj 620 285 r~ \$0-eq-inputL;
#X obj 620 538 throw~ \$0-eq-outputL;
#X msg 636 332 6400;
#X obj 100 57 r \$0-eq-Q;
#X obj 381 54 r \$0-eq-Q;
#X obj 673 62 r \$0-eq-Q;
#X obj 954 59 r \$0-eq-Q;
#X obj 98 371 r \$0-eq-Q;
#X obj 379 368 r \$0-eq-Q;
#X obj 681 367 r \$0-eq-Q;
#X obj 79 194 r~ \$0-eq-cv-low;
#X obj 32 211 +~;
#X obj 32 233 clip~ 0 10;
#N canvas 375 75 488 529 scale-(0-127)-(0-15_with-1_in_middle) 0;
#X obj 137 62 / 127;
#X obj 137 200 clip 0 0.5;
#X floatatom 137 222 5 0 0 0 - - -, f 5;
#X obj 137 121 t f f;
#X obj 224 138 clip 0.5 1;
#X floatatom 224 160 5 0 0 0 - - -, f 5;
#X floatatom 137 285 5 0 0 0 - - -, f 5;
#X obj 224 179 * 2;
#X floatatom 224 245 5 0 0 0 - - -, f 5;
#X obj 137 387 spigot;
#X obj 224 339 spigot;
#X obj 293 243 > 0.5;
#X floatatom 293 265 5 0 0 0 - - -, f 5;
#X obj 137 84 t f f;
#X obj 293 284 t f f;
#X obj 320 338 == 0;
#X floatatom 137 459 5 0 0 0 - - -, f 5;
#X obj 137 24 inlet;
#X obj 137 478 outlet;
#X obj 137 263 - 0;
#X obj 137 241 * 2;
#X obj 224 201 * 9;
#X obj 224 223 - 8;
#X connect 0 0 13 0;
#X connect 1 0 2 0;
#X connect 2 0 20 0;
#X connect 3 0 1 0;
#X connect 3 1 4 0;
#X connect 4 0 5 0;
#X connect 5 0 7 0;
#X connect 6 0 9 0;
#X connect 7 0 21 0;
#X connect 8 0 10 0;
#X connect 9 0 16 0;
#X connect 10 0 16 0;
#X connect 11 0 12 0;
#X connect 12 0 14 0;
#X connect 13 0 3 0;
#X connect 13 1 11 0;
#X connect 14 0 10 1;
#X connect 14 1 15 0;
#X connect 15 0 9 1;
#X connect 16 0 18 0;
#X connect 17 0 0 0;
#X connect 19 0 6 0;
#X connect 20 0 19 0;
#X connect 21 0 22 0;
#X connect 22 0 8 0;
#X restore 347 128 pd scale-(0-127)-(0-15_with-1_in_middle);
#X obj 347 150 pack 0 50;
#X obj 347 172 line~;
#X obj 394 177 r~ \$0-eq-cv-low;
#X obj 347 194 +~;
#X obj 347 216 clip~ 0 10;
#X obj 347 106 r \$0-eq-200-s;
#N canvas 375 75 488 529 scale-(0-127)-(0-15_with-1_in_middle) 0;
#X obj 137 62 / 127;
#X obj 137 200 clip 0 0.5;
#X floatatom 137 222 5 0 0 0 - - -, f 5;
#X obj 137 121 t f f;
#X obj 224 138 clip 0.5 1;
#X floatatom 224 160 5 0 0 0 - - -, f 5;
#X floatatom 137 285 5 0 0 0 - - -, f 5;
#X obj 224 179 * 2;
#X floatatom 224 245 5 0 0 0 - - -, f 5;
#X obj 137 387 spigot;
#X obj 224 339 spigot;
#X obj 293 243 > 0.5;
#X floatatom 293 265 5 0 0 0 - - -, f 5;
#X obj 137 84 t f f;
#X obj 293 284 t f f;
#X obj 320 338 == 0;
#X floatatom 137 459 5 0 0 0 - - -, f 5;
#X obj 137 24 inlet;
#X obj 137 478 outlet;
#X obj 137 263 - 0;
#X obj 137 241 * 2;
#X obj 224 201 * 9;
#X obj 224 223 - 8;
#X connect 0 0 13 0;
#X connect 1 0 2 0;
#X connect 2 0 20 0;
#X connect 3 0 1 0;
#X connect 3 1 4 0;
#X connect 4 0 5 0;
#X connect 5 0 7 0;
#X connect 6 0 9 0;
#X connect 7 0 21 0;
#X connect 8 0 10 0;
#X connect 9 0 16 0;
#X connect 10 0 16 0;
#X connect 11 0 12 0;
#X connect 12 0 14 0;
#X connect 13 0 3 0;
#X connect 13 1 11 0;
#X connect 14 0 10 1;
#X connect 14 1 15 0;
#X connect 15 0 9 1;
#X connect 16 0 18 0;
#X connect 17 0 0 0;
#X connect 19 0 6 0;
#X connect 20 0 19 0;
#X connect 21 0 22 0;
#X connect 22 0 8 0;
#X restore 641 119 pd scale-(0-127)-(0-15_with-1_in_middle);
#X obj 641 141 pack 0 50;
#X obj 641 163 line~;
#X obj 688 168 r~ \$0-eq-cv-low;
#X obj 641 185 +~;
#X obj 641 207 clip~ 0 10;
#X obj 641 97 r \$0-eq-400-s;
#N canvas 375 75 488 529 scale-(0-127)-(0-15_with-1_in_middle) 0;
#X obj 137 62 / 127;
#X obj 137 200 clip 0 0.5;
#X floatatom 137 222 5 0 0 0 - - -, f 5;
#X obj 137 121 t f f;
#X obj 224 138 clip 0.5 1;
#X floatatom 224 160 5 0 0 0 - - -, f 5;
#X floatatom 137 285 5 0 0 0 - - -, f 5;
#X obj 224 179 * 2;
#X floatatom 224 245 5 0 0 0 - - -, f 5;
#X obj 137 387 spigot;
#X obj 224 339 spigot;
#X obj 293 243 > 0.5;
#X floatatom 293 265 5 0 0 0 - - -, f 5;
#X obj 137 84 t f f;
#X obj 293 284 t f f;
#X obj 320 338 == 0;
#X floatatom 137 459 5 0 0 0 - - -, f 5;
#X obj 137 24 inlet;
#X obj 137 478 outlet;
#X obj 137 263 - 0;
#X obj 137 241 * 2;
#X obj 224 201 * 9;
#X obj 224 223 - 8;
#X connect 0 0 13 0;
#X connect 1 0 2 0;
#X connect 2 0 20 0;
#X connect 3 0 1 0;
#X connect 3 1 4 0;
#X connect 4 0 5 0;
#X connect 5 0 7 0;
#X connect 6 0 9 0;
#X connect 7 0 21 0;
#X connect 8 0 10 0;
#X connect 9 0 16 0;
#X connect 10 0 16 0;
#X connect 11 0 12 0;
#X connect 12 0 14 0;
#X connect 13 0 3 0;
#X connect 13 1 11 0;
#X connect 14 0 10 1;
#X connect 14 1 15 0;
#X connect 15 0 9 1;
#X connect 16 0 18 0;
#X connect 17 0 0 0;
#X connect 19 0 6 0;
#X connect 20 0 19 0;
#X connect 21 0 22 0;
#X connect 22 0 8 0;
#X restore 945 112 pd scale-(0-127)-(0-15_with-1_in_middle);
#X obj 945 134 pack 0 50;
#X obj 945 156 line~;
#X obj 945 178 +~;
#X obj 945 200 clip~ 0 10;
#X obj 945 90 r \$0-eq-800-s;
#N canvas 375 75 488 529 scale-(0-127)-(0-15_with-1_in_middle) 0;
#X obj 137 62 / 127;
#X obj 137 200 clip 0 0.5;
#X floatatom 137 222 5 0 0 0 - - -, f 5;
#X obj 137 121 t f f;
#X obj 224 138 clip 0.5 1;
#X floatatom 224 160 5 0 0 0 - - -, f 5;
#X floatatom 137 285 5 0 0 0 - - -, f 5;
#X obj 224 179 * 2;
#X floatatom 224 245 5 0 0 0 - - -, f 5;
#X obj 137 387 spigot;
#X obj 224 339 spigot;
#X obj 293 243 > 0.5;
#X floatatom 293 265 5 0 0 0 - - -, f 5;
#X obj 137 84 t f f;
#X obj 293 284 t f f;
#X obj 320 338 == 0;
#X floatatom 137 459 5 0 0 0 - - -, f 5;
#X obj 137 24 inlet;
#X obj 137 478 outlet;
#X obj 137 263 - 0;
#X obj 137 241 * 2;
#X obj 224 201 * 9;
#X obj 224 223 - 8;
#X connect 0 0 13 0;
#X connect 1 0 2 0;
#X connect 2 0 20 0;
#X connect 3 0 1 0;
#X connect 3 1 4 0;
#X connect 4 0 5 0;
#X connect 5 0 7 0;
#X connect 6 0 9 0;
#X connect 7 0 21 0;
#X connect 8 0 10 0;
#X connect 9 0 16 0;
#X connect 10 0 16 0;
#X connect 11 0 12 0;
#X connect 12 0 14 0;
#X connect 13 0 3 0;
#X connect 13 1 11 0;
#X connect 14 0 10 1;
#X connect 14 1 15 0;
#X connect 15 0 9 1;
#X connect 16 0 18 0;
#X connect 17 0 0 0;
#X connect 19 0 6 0;
#X connect 20 0 19 0;
#X connect 21 0 22 0;
#X connect 22 0 8 0;
#X restore 65 429 pd scale-(0-127)-(0-15_with-1_in_middle);
#X obj 65 451 pack 0 50;
#X obj 65 473 line~;
#X obj 65 495 +~;
#X obj 65 517 clip~ 0 10;
#X obj 65 407 r \$0-eq-1600-s;
#N canvas 375 75 488 529 scale-(0-127)-(0-15_with-1_in_middle) 0;
#X obj 137 62 / 127;
#X obj 137 200 clip 0 0.5;
#X floatatom 137 222 5 0 0 0 - - -, f 5;
#X obj 137 121 t f f;
#X obj 224 138 clip 0.5 1;
#X floatatom 224 160 5 0 0 0 - - -, f 5;
#X floatatom 137 285 5 0 0 0 - - -, f 5;
#X obj 224 179 * 2;
#X floatatom 224 245 5 0 0 0 - - -, f 5;
#X obj 137 387 spigot;
#X obj 224 339 spigot;
#X obj 293 243 > 0.5;
#X floatatom 293 265 5 0 0 0 - - -, f 5;
#X obj 137 84 t f f;
#X obj 293 284 t f f;
#X obj 320 338 == 0;
#X floatatom 137 459 5 0 0 0 - - -, f 5;
#X obj 137 24 inlet;
#X obj 137 478 outlet;
#X obj 137 263 - 0;
#X obj 137 241 * 2;
#X obj 224 201 * 9;
#X obj 224 223 - 8;
#X connect 0 0 13 0;
#X connect 1 0 2 0;
#X connect 2 0 20 0;
#X connect 3 0 1 0;
#X connect 3 1 4 0;
#X connect 4 0 5 0;
#X connect 5 0 7 0;
#X connect 6 0 9 0;
#X connect 7 0 21 0;
#X connect 8 0 10 0;
#X connect 9 0 16 0;
#X connect 10 0 16 0;
#X connect 11 0 12 0;
#X connect 12 0 14 0;
#X connect 13 0 3 0;
#X connect 13 1 11 0;
#X connect 14 0 10 1;
#X connect 14 1 15 0;
#X connect 15 0 9 1;
#X connect 16 0 18 0;
#X connect 17 0 0 0;
#X connect 19 0 6 0;
#X connect 20 0 19 0;
#X connect 21 0 22 0;
#X connect 22 0 8 0;
#X restore 374 418 pd scale-(0-127)-(0-15_with-1_in_middle);
#X obj 374 440 pack 0 50;
#X obj 374 462 line~;
#X obj 374 484 +~;
#X obj 374 506 clip~ 0 10;
#X obj 374 396 r \$0-eq-3200-s;
#N canvas 375 75 488 529 scale-(0-127)-(0-15_with-1_in_middle) 0;
#X obj 137 62 / 127;
#X obj 137 200 clip 0 0.5;
#X floatatom 137 222 5 0 0 0 - - -, f 5;
#X obj 137 121 t f f;
#X obj 224 138 clip 0.5 1;
#X floatatom 224 160 5 0 0 0 - - -, f 5;
#X floatatom 137 285 5 0 0 0 - - -, f 5;
#X obj 224 179 * 2;
#X floatatom 224 245 5 0 0 0 - - -, f 5;
#X obj 137 387 spigot;
#X obj 224 339 spigot;
#X obj 293 243 > 0.5;
#X floatatom 293 265 5 0 0 0 - - -, f 5;
#X obj 137 84 t f f;
#X obj 293 284 t f f;
#X obj 320 338 == 0;
#X floatatom 137 459 5 0 0 0 - - -, f 5;
#X obj 137 24 inlet;
#X obj 137 478 outlet;
#X obj 137 263 - 0;
#X obj 137 241 * 2;
#X obj 224 201 * 9;
#X obj 224 223 - 8;
#X connect 0 0 13 0;
#X connect 1 0 2 0;
#X connect 2 0 20 0;
#X connect 3 0 1 0;
#X connect 3 1 4 0;
#X connect 4 0 5 0;
#X connect 5 0 7 0;
#X connect 6 0 9 0;
#X connect 7 0 21 0;
#X connect 8 0 10 0;
#X connect 9 0 16 0;
#X connect 10 0 16 0;
#X connect 11 0 12 0;
#X connect 12 0 14 0;
#X connect 13 0 3 0;
#X connect 13 1 11 0;
#X connect 14 0 10 1;
#X connect 14 1 15 0;
#X connect 15 0 9 1;
#X connect 16 0 18 0;
#X connect 17 0 0 0;
#X connect 19 0 6 0;
#X connect 20 0 19 0;
#X connect 21 0 22 0;
#X connect 22 0 8 0;
#X restore 683 417 pd scale-(0-127)-(0-15_with-1_in_middle);
#X obj 683 439 pack 0 50;
#X obj 683 461 line~;
#X obj 683 483 +~;
#X obj 683 505 clip~ 0 10;
#X obj 683 395 r \$0-eq-6400-s;
#X obj 992 161 r~ \$0-eq-cv-mid;
#X obj 112 478 r~ \$0-eq-cv-mid;
#X obj 421 467 r~ \$0-eq-cv-high;
#X obj 730 466 r~ \$0-eq-cv-high;
#X connect 0 0 9 0;
#X connect 1 0 2 0;
#X connect 2 0 0 1;
#X connect 2 0 9 1;
#X connect 3 0 1 0;
#X connect 4 0 24 0;
#X connect 5 0 6 0;
#X connect 6 0 7 0;
#X connect 7 0 8 0;
#X connect 8 0 68 0;
#X connect 9 0 4 0;
#X connect 10 0 13 0;
#X connect 11 0 10 1;
#X connect 11 0 13 1;
#X connect 12 0 14 0;
#X connect 13 0 15 0;
#X connect 14 0 11 0;
#X connect 15 0 25 0;
#X connect 16 0 19 0;
#X connect 17 0 16 1;
#X connect 17 0 19 1;
#X connect 18 0 26 0;
#X connect 19 0 20 0;
#X connect 20 0 27 0;
#X connect 21 0 0 0;
#X connect 22 0 10 0;
#X connect 23 0 16 0;
#X connect 26 0 17 0;
#X connect 28 0 31 0;
#X connect 29 0 28 1;
#X connect 29 0 31 1;
#X connect 30 0 35 0;
#X connect 31 0 32 0;
#X connect 32 0 34 0;
#X connect 33 0 28 0;
#X connect 35 0 29 0;
#X connect 36 0 39 0;
#X connect 37 0 36 1;
#X connect 37 0 39 1;
#X connect 38 0 43 0;
#X connect 39 0 40 0;
#X connect 40 0 42 0;
#X connect 41 0 36 0;
#X connect 43 0 37 0;
#X connect 44 0 47 0;
#X connect 45 0 44 1;
#X connect 45 0 47 1;
#X connect 46 0 51 0;
#X connect 47 0 48 0;
#X connect 48 0 50 0;
#X connect 49 0 44 0;
#X connect 51 0 45 0;
#X connect 52 0 55 0;
#X connect 53 0 52 1;
#X connect 53 0 55 1;
#X connect 54 0 59 0;
#X connect 55 0 56 0;
#X connect 56 0 58 0;
#X connect 57 0 52 0;
#X connect 59 0 53 0;
#X connect 60 0 0 2;
#X connect 60 0 9 2;
#X connect 61 0 10 2;
#X connect 61 0 13 2;
#X connect 62 0 16 2;
#X connect 62 0 19 2;
#X connect 63 0 28 2;
#X connect 63 0 31 2;
#X connect 64 0 36 2;
#X connect 64 0 39 2;
#X connect 65 0 44 2;
#X connect 65 0 47 2;
#X connect 66 0 52 2;
#X connect 66 0 55 2;
#X connect 67 0 68 1;
#X connect 68 0 69 0;
#X connect 69 0 4 1;
#X connect 70 0 71 0;
#X connect 71 0 72 0;
#X connect 72 0 74 0;
#X connect 73 0 74 1;
#X connect 74 0 75 0;
#X connect 75 0 15 1;
#X connect 76 0 70 0;
#X connect 77 0 78 0;
#X connect 78 0 79 0;
#X connect 79 0 81 0;
#X connect 80 0 81 1;
#X connect 81 0 82 0;
#X connect 82 0 20 1;
#X connect 83 0 77 0;
#X connect 84 0 85 0;
#X connect 85 0 86 0;
#X connect 86 0 87 0;
#X connect 87 0 88 0;
#X connect 88 0 32 1;
#X connect 89 0 84 0;
#X connect 90 0 91 0;
#X connect 91 0 92 0;
#X connect 92 0 93 0;
#X connect 93 0 94 0;
#X connect 94 0 40 1;
#X connect 95 0 90 0;
#X connect 96 0 97 0;
#X connect 97 0 98 0;
#X connect 98 0 99 0;
#X connect 99 0 100 0;
#X connect 100 0 48 1;
#X connect 101 0 96 0;
#X connect 102 0 103 0;
#X connect 103 0 104 0;
#X connect 104 0 105 0;
#X connect 105 0 106 0;
#X connect 106 0 56 1;
#X connect 107 0 102 0;
#X connect 108 0 87 1;
#X connect 109 0 93 1;
#X connect 110 0 99 1;
#X connect 111 0 105 1;
#X restore 375 142 pd 7bandsLEFT;
#N canvas 0 22 1209 716 7bandsRIGHT 0;
#X obj 17 74 vcf~ 1;
#X msg 33 29 100;
#X obj 33 51 sig~;
#X obj 33 6 loadbang;
#X obj 17 255 *~;
#X obj 32 123 r \$0-eq-100-s;
#N canvas 375 75 488 529 scale-(0-127)-(0-15_with-1_in_middle) 0;
#X obj 137 62 / 127;
#X obj 137 200 clip 0 0.5;
#X floatatom 137 222 5 0 0 0 - - -, f 5;
#X obj 137 121 t f f;
#X obj 224 138 clip 0.5 1;
#X floatatom 224 160 5 0 0 0 - - -, f 5;
#X floatatom 137 285 5 0 0 0 - - -, f 5;
#X obj 224 179 * 2;
#X floatatom 224 245 5 0 0 0 - - -, f 5;
#X obj 137 387 spigot;
#X obj 224 339 spigot;
#X obj 293 243 > 0.5;
#X floatatom 293 265 5 0 0 0 - - -, f 5;
#X obj 137 84 t f f;
#X obj 293 284 t f f;
#X obj 320 338 == 0;
#X floatatom 137 459 5 0 0 0 - - -, f 5;
#X obj 137 24 inlet;
#X obj 137 478 outlet;
#X obj 137 263 - 0;
#X obj 137 241 * 2;
#X obj 224 201 * 9;
#X obj 224 223 - 8;
#X connect 0 0 13 0;
#X connect 1 0 2 0;
#X connect 2 0 20 0;
#X connect 3 0 1 0;
#X connect 3 1 4 0;
#X connect 4 0 5 0;
#X connect 5 0 7 0;
#X connect 6 0 9 0;
#X connect 7 0 21 0;
#X connect 8 0 10 0;
#X connect 9 0 16 0;
#X connect 10 0 16 0;
#X connect 11 0 12 0;
#X connect 12 0 14 0;
#X connect 13 0 3 0;
#X connect 13 1 11 0;
#X connect 14 0 10 1;
#X connect 14 1 15 0;
#X connect 15 0 9 1;
#X connect 16 0 18 0;
#X connect 17 0 0 0;
#X connect 19 0 6 0;
#X connect 20 0 19 0;
#X connect 21 0 22 0;
#X connect 22 0 8 0;
#X restore 32 145 pd scale-(0-127)-(0-15_with-1_in_middle);
#X obj 32 167 pack 0 50;
#X obj 32 189 line~;
#X obj 17 96 vcf~ 1;
#X obj 306 71 vcf~ 1;
#X obj 322 48 sig~;
#X obj 322 3 loadbang;
#X obj 306 93 vcf~ 1;
#X msg 322 26 200;
#X obj 306 233 *~;
#X obj 591 85 vcf~ 1;
#X obj 607 62 sig~;
#X obj 607 17 loadbang;
#X obj 591 107 vcf~ 1;
#X obj 591 224 *~;
#X msg 607 40 400;
#X obj 894 81 vcf~ 1;
#X obj 910 58 sig~;
#X obj 910 13 loadbang;
#X obj 894 103 vcf~ 1;
#X obj 894 220 *~;
#X msg 910 36 800;
#X obj 21 395 vcf~ 1;
#X obj 37 372 sig~;
#X obj 37 327 loadbang;
#X obj 21 417 vcf~ 1;
#X obj 21 534 *~;
#X msg 37 350 1600;
#X obj 322 387 vcf~ 1;
#X obj 338 364 sig~;
#X obj 338 319 loadbang;
#X obj 322 409 vcf~ 1;
#X obj 322 526 *~;
#X msg 338 342 3200;
#X obj 620 377 vcf~ 1;
#X obj 636 354 sig~;
#X obj 636 309 loadbang;
#X obj 620 399 vcf~ 1;
#X obj 620 516 *~;
#X msg 636 332 6400;
#X obj 100 57 r \$0-eq-Q;
#X obj 381 54 r \$0-eq-Q;
#X obj 673 62 r \$0-eq-Q;
#X obj 954 59 r \$0-eq-Q;
#X obj 98 371 r \$0-eq-Q;
#X obj 379 368 r \$0-eq-Q;
#X obj 681 367 r \$0-eq-Q;
#X obj 79 194 r~ \$0-eq-cv-low;
#X obj 32 211 +~;
#X obj 32 233 clip~ 0 10;
#N canvas 375 75 488 529 scale-(0-127)-(0-15_with-1_in_middle) 0;
#X obj 137 62 / 127;
#X obj 137 200 clip 0 0.5;
#X floatatom 137 222 5 0 0 0 - - -, f 5;
#X obj 137 121 t f f;
#X obj 224 138 clip 0.5 1;
#X floatatom 224 160 5 0 0 0 - - -, f 5;
#X floatatom 137 285 5 0 0 0 - - -, f 5;
#X obj 224 179 * 2;
#X floatatom 224 245 5 0 0 0 - - -, f 5;
#X obj 137 387 spigot;
#X obj 224 339 spigot;
#X obj 293 243 > 0.5;
#X floatatom 293 265 5 0 0 0 - - -, f 5;
#X obj 137 84 t f f;
#X obj 293 284 t f f;
#X obj 320 338 == 0;
#X floatatom 137 459 5 0 0 0 - - -, f 5;
#X obj 137 24 inlet;
#X obj 137 478 outlet;
#X obj 137 263 - 0;
#X obj 137 241 * 2;
#X obj 224 201 * 9;
#X obj 224 223 - 8;
#X connect 0 0 13 0;
#X connect 1 0 2 0;
#X connect 2 0 20 0;
#X connect 3 0 1 0;
#X connect 3 1 4 0;
#X connect 4 0 5 0;
#X connect 5 0 7 0;
#X connect 6 0 9 0;
#X connect 7 0 21 0;
#X connect 8 0 10 0;
#X connect 9 0 16 0;
#X connect 10 0 16 0;
#X connect 11 0 12 0;
#X connect 12 0 14 0;
#X connect 13 0 3 0;
#X connect 13 1 11 0;
#X connect 14 0 10 1;
#X connect 14 1 15 0;
#X connect 15 0 9 1;
#X connect 16 0 18 0;
#X connect 17 0 0 0;
#X connect 19 0 6 0;
#X connect 20 0 19 0;
#X connect 21 0 22 0;
#X connect 22 0 8 0;
#X restore 347 128 pd scale-(0-127)-(0-15_with-1_in_middle);
#X obj 347 150 pack 0 50;
#X obj 347 172 line~;
#X obj 394 177 r~ \$0-eq-cv-low;
#X obj 347 194 +~;
#X obj 347 216 clip~ 0 10;
#X obj 347 106 r \$0-eq-200-s;
#N canvas 375 75 488 529 scale-(0-127)-(0-15_with-1_in_middle) 0;
#X obj 137 62 / 127;
#X obj 137 200 clip 0 0.5;
#X floatatom 137 222 5 0 0 0 - - -, f 5;
#X obj 137 121 t f f;
#X obj 224 138 clip 0.5 1;
#X floatatom 224 160 5 0 0 0 - - -, f 5;
#X floatatom 137 285 5 0 0 0 - - -, f 5;
#X obj 224 179 * 2;
#X floatatom 224 245 5 0 0 0 - - -, f 5;
#X obj 137 387 spigot;
#X obj 224 339 spigot;
#X obj 293 243 > 0.5;
#X floatatom 293 265 5 0 0 0 - - -, f 5;
#X obj 137 84 t f f;
#X obj 293 284 t f f;
#X obj 320 338 == 0;
#X floatatom 137 459 5 0 0 0 - - -, f 5;
#X obj 137 24 inlet;
#X obj 137 478 outlet;
#X obj 137 263 - 0;
#X obj 137 241 * 2;
#X obj 224 201 * 9;
#X obj 224 223 - 8;
#X connect 0 0 13 0;
#X connect 1 0 2 0;
#X connect 2 0 20 0;
#X connect 3 0 1 0;
#X connect 3 1 4 0;
#X connect 4 0 5 0;
#X connect 5 0 7 0;
#X connect 6 0 9 0;
#X connect 7 0 21 0;
#X connect 8 0 10 0;
#X connect 9 0 16 0;
#X connect 10 0 16 0;
#X connect 11 0 12 0;
#X connect 12 0 14 0;
#X connect 13 0 3 0;
#X connect 13 1 11 0;
#X connect 14 0 10 1;
#X connect 14 1 15 0;
#X connect 15 0 9 1;
#X connect 16 0 18 0;
#X connect 17 0 0 0;
#X connect 19 0 6 0;
#X connect 20 0 19 0;
#X connect 21 0 22 0;
#X connect 22 0 8 0;
#X restore 641 119 pd scale-(0-127)-(0-15_with-1_in_middle);
#X obj 641 141 pack 0 50;
#X obj 641 163 line~;
#X obj 688 168 r~ \$0-eq-cv-low;
#X obj 641 185 +~;
#X obj 641 207 clip~ 0 10;
#X obj 641 97 r \$0-eq-400-s;
#N canvas 375 75 488 529 scale-(0-127)-(0-15_with-1_in_middle) 0;
#X obj 137 62 / 127;
#X obj 137 200 clip 0 0.5;
#X floatatom 137 222 5 0 0 0 - - -, f 5;
#X obj 137 121 t f f;
#X obj 224 138 clip 0.5 1;
#X floatatom 224 160 5 0 0 0 - - -, f 5;
#X floatatom 137 285 5 0 0 0 - - -, f 5;
#X obj 224 179 * 2;
#X floatatom 224 245 5 0 0 0 - - -, f 5;
#X obj 137 387 spigot;
#X obj 224 339 spigot;
#X obj 293 243 > 0.5;
#X floatatom 293 265 5 0 0 0 - - -, f 5;
#X obj 137 84 t f f;
#X obj 293 284 t f f;
#X obj 320 338 == 0;
#X floatatom 137 459 5 0 0 0 - - -, f 5;
#X obj 137 24 inlet;
#X obj 137 478 outlet;
#X obj 137 263 - 0;
#X obj 137 241 * 2;
#X obj 224 201 * 9;
#X obj 224 223 - 8;
#X connect 0 0 13 0;
#X connect 1 0 2 0;
#X connect 2 0 20 0;
#X connect 3 0 1 0;
#X connect 3 1 4 0;
#X connect 4 0 5 0;
#X connect 5 0 7 0;
#X connect 6 0 9 0;
#X connect 7 0 21 0;
#X connect 8 0 10 0;
#X connect 9 0 16 0;
#X connect 10 0 16 0;
#X connect 11 0 12 0;
#X connect 12 0 14 0;
#X connect 13 0 3 0;
#X connect 13 1 11 0;
#X connect 14 0 10 1;
#X connect 14 1 15 0;
#X connect 15 0 9 1;
#X connect 16 0 18 0;
#X connect 17 0 0 0;
#X connect 19 0 6 0;
#X connect 20 0 19 0;
#X connect 21 0 22 0;
#X connect 22 0 8 0;
#X restore 945 112 pd scale-(0-127)-(0-15_with-1_in_middle);
#X obj 945 134 pack 0 50;
#X obj 945 156 line~;
#X obj 945 178 +~;
#X obj 945 200 clip~ 0 10;
#X obj 945 90 r \$0-eq-800-s;
#N canvas 375 75 488 529 scale-(0-127)-(0-15_with-1_in_middle) 0;
#X obj 137 62 / 127;
#X obj 137 200 clip 0 0.5;
#X floatatom 137 222 5 0 0 0 - - -, f 5;
#X obj 137 121 t f f;
#X obj 224 138 clip 0.5 1;
#X floatatom 224 160 5 0 0 0 - - -, f 5;
#X floatatom 137 285 5 0 0 0 - - -, f 5;
#X obj 224 179 * 2;
#X floatatom 224 245 5 0 0 0 - - -, f 5;
#X obj 137 387 spigot;
#X obj 224 339 spigot;
#X obj 293 243 > 0.5;
#X floatatom 293 265 5 0 0 0 - - -, f 5;
#X obj 137 84 t f f;
#X obj 293 284 t f f;
#X obj 320 338 == 0;
#X floatatom 137 459 5 0 0 0 - - -, f 5;
#X obj 137 24 inlet;
#X obj 137 478 outlet;
#X obj 137 263 - 0;
#X obj 137 241 * 2;
#X obj 224 201 * 9;
#X obj 224 223 - 8;
#X connect 0 0 13 0;
#X connect 1 0 2 0;
#X connect 2 0 20 0;
#X connect 3 0 1 0;
#X connect 3 1 4 0;
#X connect 4 0 5 0;
#X connect 5 0 7 0;
#X connect 6 0 9 0;
#X connect 7 0 21 0;
#X connect 8 0 10 0;
#X connect 9 0 16 0;
#X connect 10 0 16 0;
#X connect 11 0 12 0;
#X connect 12 0 14 0;
#X connect 13 0 3 0;
#X connect 13 1 11 0;
#X connect 14 0 10 1;
#X connect 14 1 15 0;
#X connect 15 0 9 1;
#X connect 16 0 18 0;
#X connect 17 0 0 0;
#X connect 19 0 6 0;
#X connect 20 0 19 0;
#X connect 21 0 22 0;
#X connect 22 0 8 0;
#X restore 65 429 pd scale-(0-127)-(0-15_with-1_in_middle);
#X obj 65 451 pack 0 50;
#X obj 65 473 line~;
#X obj 65 495 +~;
#X obj 65 517 clip~ 0 10;
#X obj 65 407 r \$0-eq-1600-s;
#N canvas 375 75 488 529 scale-(0-127)-(0-15_with-1_in_middle) 0;
#X obj 137 62 / 127;
#X obj 137 200 clip 0 0.5;
#X floatatom 137 222 5 0 0 0 - - -, f 5;
#X obj 137 121 t f f;
#X obj 224 138 clip 0.5 1;
#X floatatom 224 160 5 0 0 0 - - -, f 5;
#X floatatom 137 285 5 0 0 0 - - -, f 5;
#X obj 224 179 * 2;
#X floatatom 224 245 5 0 0 0 - - -, f 5;
#X obj 137 387 spigot;
#X obj 224 339 spigot;
#X obj 293 243 > 0.5;
#X floatatom 293 265 5 0 0 0 - - -, f 5;
#X obj 137 84 t f f;
#X obj 293 284 t f f;
#X obj 320 338 == 0;
#X floatatom 137 459 5 0 0 0 - - -, f 5;
#X obj 137 24 inlet;
#X obj 137 478 outlet;
#X obj 137 263 - 0;
#X obj 137 241 * 2;
#X obj 224 201 * 9;
#X obj 224 223 - 8;
#X connect 0 0 13 0;
#X connect 1 0 2 0;
#X connect 2 0 20 0;
#X connect 3 0 1 0;
#X connect 3 1 4 0;
#X connect 4 0 5 0;
#X connect 5 0 7 0;
#X connect 6 0 9 0;
#X connect 7 0 21 0;
#X connect 8 0 10 0;
#X connect 9 0 16 0;
#X connect 10 0 16 0;
#X connect 11 0 12 0;
#X connect 12 0 14 0;
#X connect 13 0 3 0;
#X connect 13 1 11 0;
#X connect 14 0 10 1;
#X connect 14 1 15 0;
#X connect 15 0 9 1;
#X connect 16 0 18 0;
#X connect 17 0 0 0;
#X connect 19 0 6 0;
#X connect 20 0 19 0;
#X connect 21 0 22 0;
#X connect 22 0 8 0;
#X restore 374 418 pd scale-(0-127)-(0-15_with-1_in_middle);
#X obj 374 440 pack 0 50;
#X obj 374 462 line~;
#X obj 374 484 +~;
#X obj 374 506 clip~ 0 10;
#X obj 374 396 r \$0-eq-3200-s;
#N canvas 375 75 488 529 scale-(0-127)-(0-15_with-1_in_middle) 0;
#X obj 137 62 / 127;
#X obj 137 200 clip 0 0.5;
#X floatatom 137 222 5 0 0 0 - - -, f 5;
#X obj 137 121 t f f;
#X obj 224 138 clip 0.5 1;
#X floatatom 224 160 5 0 0 0 - - -, f 5;
#X floatatom 137 285 5 0 0 0 - - -, f 5;
#X obj 224 179 * 2;
#X floatatom 224 245 5 0 0 0 - - -, f 5;
#X obj 137 387 spigot;
#X obj 224 339 spigot;
#X obj 293 243 > 0.5;
#X floatatom 293 265 5 0 0 0 - - -, f 5;
#X obj 137 84 t f f;
#X obj 293 284 t f f;
#X obj 320 338 == 0;
#X floatatom 137 459 5 0 0 0 - - -, f 5;
#X obj 137 24 inlet;
#X obj 137 478 outlet;
#X obj 137 263 - 0;
#X obj 137 241 * 2;
#X obj 224 201 * 9;
#X obj 224 223 - 8;
#X connect 0 0 13 0;
#X connect 1 0 2 0;
#X connect 2 0 20 0;
#X connect 3 0 1 0;
#X connect 3 1 4 0;
#X connect 4 0 5 0;
#X connect 5 0 7 0;
#X connect 6 0 9 0;
#X connect 7 0 21 0;
#X connect 8 0 10 0;
#X connect 9 0 16 0;
#X connect 10 0 16 0;
#X connect 11 0 12 0;
#X connect 12 0 14 0;
#X connect 13 0 3 0;
#X connect 13 1 11 0;
#X connect 14 0 10 1;
#X connect 14 1 15 0;
#X connect 15 0 9 1;
#X connect 16 0 18 0;
#X connect 17 0 0 0;
#X connect 19 0 6 0;
#X connect 20 0 19 0;
#X connect 21 0 22 0;
#X connect 22 0 8 0;
#X restore 683 417 pd scale-(0-127)-(0-15_with-1_in_middle);
#X obj 683 439 pack 0 50;
#X obj 683 461 line~;
#X obj 683 483 +~;
#X obj 683 505 clip~ 0 10;
#X obj 683 395 r \$0-eq-6400-s;
#X obj 992 161 r~ \$0-eq-cv-mid;
#X obj 112 478 r~ \$0-eq-cv-mid;
#X obj 421 467 r~ \$0-eq-cv-high;
#X obj 730 466 r~ \$0-eq-cv-high;
#X obj 17 -19 r~ \$0-eq-inputR;
#X obj 17 281 throw~ \$0-eq-outputR;
#X obj 306 -18 r~ \$0-eq-inputR;
#X obj 306 258 throw~ \$0-eq-outputR;
#X obj 591 -7 r~ \$0-eq-inputR;
#X obj 591 246 throw~ \$0-eq-outputR;
#X obj 894 -11 r~ \$0-eq-inputR;
#X obj 894 242 throw~ \$0-eq-outputR;
#X obj 21 303 r~ \$0-eq-inputR;
#X obj 21 556 throw~ \$0-eq-outputR;
#X obj 322 295 r~ \$0-eq-inputR;
#X obj 322 548 throw~ \$0-eq-outputR;
#X obj 620 285 r~ \$0-eq-inputR;
#X obj 620 538 throw~ \$0-eq-outputR;
#X connect 0 0 9 0;
#X connect 1 0 2 0;
#X connect 2 0 0 1;
#X connect 2 0 9 1;
#X connect 3 0 1 0;
#X connect 4 0 99 0;
#X connect 5 0 6 0;
#X connect 6 0 7 0;
#X connect 7 0 8 0;
#X connect 8 0 54 0;
#X connect 9 0 4 0;
#X connect 10 0 13 0;
#X connect 11 0 10 1;
#X connect 11 0 13 1;
#X connect 12 0 14 0;
#X connect 13 0 15 0;
#X connect 14 0 11 0;
#X connect 15 0 101 0;
#X connect 16 0 19 0;
#X connect 17 0 16 1;
#X connect 17 0 19 1;
#X connect 18 0 21 0;
#X connect 19 0 20 0;
#X connect 20 0 103 0;
#X connect 21 0 17 0;
#X connect 22 0 25 0;
#X connect 23 0 22 1;
#X connect 23 0 25 1;
#X connect 24 0 27 0;
#X connect 25 0 26 0;
#X connect 26 0 105 0;
#X connect 27 0 23 0;
#X connect 28 0 31 0;
#X connect 29 0 28 1;
#X connect 29 0 31 1;
#X connect 30 0 33 0;
#X connect 31 0 32 0;
#X connect 32 0 107 0;
#X connect 33 0 29 0;
#X connect 34 0 37 0;
#X connect 35 0 34 1;
#X connect 35 0 37 1;
#X connect 36 0 39 0;
#X connect 37 0 38 0;
#X connect 38 0 109 0;
#X connect 39 0 35 0;
#X connect 40 0 43 0;
#X connect 41 0 40 1;
#X connect 41 0 43 1;
#X connect 42 0 45 0;
#X connect 43 0 44 0;
#X connect 44 0 111 0;
#X connect 45 0 41 0;
#X connect 46 0 0 2;
#X connect 46 0 9 2;
#X connect 47 0 10 2;
#X connect 47 0 13 2;
#X connect 48 0 16 2;
#X connect 48 0 19 2;
#X connect 49 0 22 2;
#X connect 49 0 25 2;
#X connect 50 0 28 2;
#X connect 50 0 31 2;
#X connect 51 0 34 2;
#X connect 51 0 37 2;
#X connect 52 0 40 2;
#X connect 52 0 43 2;
#X connect 53 0 54 1;
#X connect 54 0 55 0;
#X connect 55 0 4 1;
#X connect 56 0 57 0;
#X connect 57 0 58 0;
#X connect 58 0 60 0;
#X connect 59 0 60 1;
#X connect 60 0 61 0;
#X connect 61 0 15 1;
#X connect 62 0 56 0;
#X connect 63 0 64 0;
#X connect 64 0 65 0;
#X connect 65 0 67 0;
#X connect 66 0 67 1;
#X connect 67 0 68 0;
#X connect 68 0 20 1;
#X connect 69 0 63 0;
#X connect 70 0 71 0;
#X connect 71 0 72 0;
#X connect 72 0 73 0;
#X connect 73 0 74 0;
#X connect 74 0 26 1;
#X connect 75 0 70 0;
#X connect 76 0 77 0;
#X connect 77 0 78 0;
#X connect 78 0 79 0;
#X connect 79 0 80 0;
#X connect 80 0 32 1;
#X connect 81 0 76 0;
#X connect 82 0 83 0;
#X connect 83 0 84 0;
#X connect 84 0 85 0;
#X connect 85 0 86 0;
#X connect 86 0 38 1;
#X connect 87 0 82 0;
#X connect 88 0 89 0;
#X connect 89 0 90 0;
#X connect 90 0 91 0;
#X connect 91 0 92 0;
#X connect 92 0 44 1;
#X connect 93 0 88 0;
#X connect 94 0 73 1;
#X connect 95 0 79 1;
#X connect 96 0 85 1;
#X connect 97 0 91 1;
#X connect 98 0 0 0;
#X connect 100 0 10 0;
#X connect 102 0 16 0;
#X connect 104 0 22 0;
#X connect 106 0 28 0;
#X connect 108 0 34 0;
#X connect 110 0 40 0;
#X restore 462 257 pd 7bandsRIGHT;
#X obj 699 240 *~;
#X obj 219 221 hsl 90 15 0 127 0 1 \$0-eq-level-s \$0-eq-level-r LEVEL
95 7 0 10 -262144 -1 -1 6000 1;
#X obj 219 141 hsl 90 15 0 127 0 1 \$0-eq-cv1-att-s \$0-eq-cv1-att-r
CV(LOW) 95 7 0 10 -158136 -1 -1 0 1;
#X obj 219 156 hsl 90 15 0 127 0 1 \$0-eq-cv2-att-s \$0-eq-cv2-att-r
CV(MID) 95 7 0 10 -150893 -1 -1 0 1;
#X obj 219 171 hsl 90 15 0 127 0 1 \$0-eq-cv3-att-s \$0-eq-cv3-att-r
CV(HIGH) 95 7 0 10 -226533 -1 -1 2500 1;
#X obj 219 206 hsl 90 15 0 127 0 1 \$0-eq-q-s \$0-eq-q-r Q 95 7 0 10
-262144 -1 -1 5400 1;
#X obj 102 108 cnv 5 5 5 empty empty LEFT 0 0 0 8 -262144 -66577 0
;
#X obj 103 246 cnv 5 5 5 empty empty L 0 0 0 8 -262144 -66577 0;
#X obj 714 120 r \$0-eq-cv1-att-s;
#X obj 714 194 pack 0 50;
#X obj 714 216 line~;
#X obj 829 253 *~;
#X obj 844 207 pack 0 50;
#X obj 844 229 line~;
#X obj 956 255 *~;
#X obj 971 209 pack 0 50;
#X obj 971 231 line~;
#X obj 844 150 r \$0-eq-cv2-att-s;
#X obj 714 142 * 0.00787402;
#X obj 844 172 * 0.00787402;
#X obj 971 148 * 0.00787402;
#X obj 971 126 r \$0-eq-cv3-att-s;
#X obj 699 101 *~ 10;
#X obj 830 114 *~ 10;
#X obj 956 105 *~ 10;
#N canvas 315 35 788 739 state-saving-multiple-instances 0;
#X obj 137 -36 loadbang;
#X obj 355 208 textfile;
#X msg 637 191 rewind;
#X msg 594 191 bang;
#X obj 42 691 textfile;
#X obj 594 152 t b b;
#X obj 43 357 f;
#X obj 56 580 f;
#X obj -16 401 t b b b;
#X msg 119 580 clear;
#X obj 204 82 outlet;
#X text 246 86 INSTANCE NUMBER;
#X obj 165 18 f \$1;
#X obj 165 54 t f f f;
#X obj 138 -3 t b b;
#X obj -16 378 bng 15 250 50 0 empty empty empty 17 7 0 10 -262144
-1 -1;
#X obj -16 234 r SAVE-S;
#X msg 43 438 set \$1 \$2 \$3 \$4 \$5 \$6 \$7 \$8 \$9 \$10 \$11 \$12
;
#X obj 43 400 pack f f f f f f f f f f f f;
#X obj 355 230 unpack f f f f f f f f f f f f;
#X msg 55 651 write statesave/\$1-graphic-eq-ss.txt;
#X msg 355 183 read statesave/\$1-graphic-eq-ss.txt;
#X obj 50 91 r \$0-eq-100-s;
#X obj 285 698 s \$0-eq-100-r;
#X obj 58 114 r \$0-eq-200-s;
#X obj 306 674 s \$0-eq-200-r;
#X obj 72 135 r \$0-eq-400-s;
#X obj 327 650 s \$0-eq-400-e;
#X obj 90 160 r \$0-eq-800-s;
#X obj 348 626 s \$0-eq-800-r;
#X obj 115 189 r \$0-eq-1600-s;
#X obj 376 600 s \$0-eq-1600-r;
#X obj 136 212 r \$0-eq-3200-s;
#X obj 391 570 s \$0-eq-3200-s;
#X obj 148 240 r \$0-eq-6400-s;
#X obj 407 542 s \$0-eq-6400-r;
#X obj 173 269 r \$0-eq-cv1-att-s;
#X obj 435 516 s \$0-eq-cv1-att-r;
#X obj 194 292 r \$0-eq-cv2-att-s;
#X obj 450 486 s \$0-eq-cv2-att-r;
#X obj 213 316 r \$0-eq-cv3-att-s;
#X obj 485 435 s \$0-eq-cv3-att-r;
#X obj 238 345 r \$0-eq-q-s;
#X obj 513 409 s \$0-eq-q-r;
#X obj 259 368 r \$0-eq-level-s;
#X obj 528 379 s \$0-eq-level-r;
#X connect 0 0 14 0;
#X connect 1 0 19 0;
#X connect 2 0 1 0;
#X connect 3 0 1 0;
#X connect 5 0 3 0;
#X connect 5 1 2 0;
#X connect 6 0 18 0;
#X connect 7 0 20 0;
#X connect 8 0 7 0;
#X connect 8 1 6 0;
#X connect 8 2 9 0;
#X connect 9 0 4 0;
#X connect 12 0 13 0;
#X connect 13 0 7 1;
#X connect 13 1 21 0;
#X connect 13 2 10 0;
#X connect 14 0 5 0;
#X connect 14 1 12 0;
#X connect 15 0 8 0;
#X connect 16 0 15 0;
#X connect 17 0 4 0;
#X connect 18 0 17 0;
#X connect 19 0 23 0;
#X connect 19 1 25 0;
#X connect 19 2 27 0;
#X connect 19 3 29 0;
#X connect 19 4 31 0;
#X connect 19 5 33 0;
#X connect 19 6 35 0;
#X connect 19 7 37 0;
#X connect 19 8 39 0;
#X connect 19 9 41 0;
#X connect 19 10 43 0;
#X connect 19 11 45 0;
#X connect 20 0 4 0;
#X connect 21 0 1 0;
#X connect 22 0 6 1;
#X connect 24 0 18 1;
#X connect 26 0 18 2;
#X connect 28 0 18 3;
#X connect 30 0 18 4;
#X connect 32 0 18 5;
#X connect 34 0 18 6;
#X connect 36 0 18 7;
#X connect 38 0 18 8;
#X connect 40 0 18 9;
#X connect 42 0 18 10;
#X connect 44 0 18 11;
#X restore 33 332 pd state-saving-multiple-instances;
#X obj 33 406 s \$0-instance-num;
#X obj 33 358 makefilename %d;
#X msg 33 383 label \$1;
#N canvas 81 22 1117 745 state-saving-via-preset-manager-module 1;
#X obj 340 227 textfile;
#X msg 719 210 rewind;
#X msg 676 210 bang;
#X obj 106 568 textfile;
#X obj 676 171 t b b;
#X obj 107 234 f;
#X obj 120 457 f;
#X obj 53 352 t b b b;
#X msg 236 499 clear;
#X obj 99 5 delay 5;
#X obj 53 407 delay 10;
#X msg 53 192 bang;
#X obj 53 26 r STORE-S!;
#X obj 340 128 f;
#X obj 313 85 t b b;
#X obj 328 49 t b f;
#X obj 385 146 f \$1;
#X obj 340 173 pack f f;
#X obj 385 96 loadbang;
#X obj 120 487 pack f f;
#X obj 165 440 loadbang;
#X obj 165 462 f \$1;
#X obj 345 665 pack f f;
#X obj 345 689 line;
#X obj 390 640 r preset-manager-morph-s;
#X obj 328 26 r preset-manager-scan;
#X obj 366 570 pack f f;
#X obj 366 594 line;
#X obj 411 545 r preset-manager-morph-s;
#X obj 135 418 r preset-manager-store-slot;
#X obj 384 494 line;
#X obj 429 443 r preset-manager-morph-s;
#X msg 43 669 stop;
#X obj 43 602 r STOP-MORPH!;
#X obj 384 470 pack f f;
#X obj 561 650 pack f f;
#X obj 561 674 line;
#X obj 606 625 r preset-manager-morph-s;
#X obj 616 573 line;
#X obj 661 522 r preset-manager-morph-s;
#X obj 616 549 pack f f;
#X obj 633 476 line;
#X obj 678 425 r preset-manager-morph-s;
#X obj 633 452 pack f f;
#X obj 849 711 line;
#X obj 896 661 r preset-manager-morph-s;
#X obj 851 688 pack f f;
#X obj 868 615 line;
#X obj 913 564 r preset-manager-morph-s;
#X obj 868 591 pack f f;
#X obj 879 496 line;
#X obj 924 445 r preset-manager-morph-s;
#X obj 879 472 pack f f;
#X msg 106 368 set \$1 \$2 \$3 \$4 \$5 \$6 \$7 \$8 \$9 \$10 \$11 \$12
;
#X obj 107 338 pack f f f f f f f f f f f f;
#X obj 340 249 unpack f f f f f f f f f f f f;
#X obj 847 378 line;
#X obj 892 327 r preset-manager-morph-s;
#X obj 847 354 pack f f;
#X obj 864 281 line;
#X obj 909 230 r preset-manager-morph-s;
#X obj 864 257 pack f f;
#X obj 875 162 line;
#X obj 920 111 r preset-manager-morph-s;
#X obj 875 138 pack f f;
#X msg 119 528 write statesave/\$1-\$2-graphic-eq-ss.txt;
#X msg 340 202 read statesave/\$1-\$2-graphic-eq-ss.txt;
#X obj 115 27 r \$0-eq-100-s;
#X obj 345 714 s \$0-eq-100-r;
#X obj 128 56 r \$0-eq-200-s;
#X obj 366 616 s \$0-eq-200-r;
#X obj 138 95 r \$0-eq-400-s;
#X obj 384 517 s \$0-eq-400-r;
#X obj 161 122 r \$0-eq-800-s;
#X obj 561 697 s \$0-eq-800-r;
#X obj 175 145 r \$0-eq-1600-s;
#X obj 616 596 s \$0-eq-1600-r;
#X obj 187 167 r \$0-eq-3200-s;
#X obj 633 499 s \$0-eq-3200-r;
#X obj 193 188 r \$0-eq-6400-s;
#X obj 851 735 s \$0-eq-6400-r;
#X obj 207 211 r \$0-eq-cv1-att-s;
#X obj 868 638 s \$0-eq-cv1-att-r;
#X obj 219 233 r \$0-eq-cv2-att-s;
#X obj 879 519 s \$0-eq-cv2-att-r;
#X obj 241 267 r \$0-eq-cv3-att-s;
#X obj 847 401 s \$0-eq-cv3-att-r;
#X obj 255 290 r \$0-eq-q-s;
#X obj 864 304 s \$0-eq-q-r;
#X obj 267 312 r \$0-eq-level-s;
#X obj 875 185 s \$0-eq-level-r;
#X connect 0 0 55 0;
#X connect 1 0 0 0;
#X connect 2 0 0 0;
#X connect 4 0 2 0;
#X connect 4 1 1 0;
#X connect 5 0 54 0;
#X connect 6 0 19 0;
#X connect 7 0 10 0;
#X connect 7 1 9 0;
#X connect 7 2 8 0;
#X connect 8 0 3 0;
#X connect 9 0 5 0;
#X connect 10 0 6 0;
#X connect 11 0 7 0;
#X connect 12 0 11 0;
#X connect 13 0 17 0;
#X connect 14 0 4 0;
#X connect 14 1 13 0;
#X connect 15 0 14 0;
#X connect 15 1 13 1;
#X connect 16 0 17 1;
#X connect 17 0 66 0;
#X connect 18 0 16 0;
#X connect 19 0 65 0;
#X connect 20 0 21 0;
#X connect 21 0 19 1;
#X connect 22 0 23 0;
#X connect 23 0 68 0;
#X connect 24 0 22 1;
#X connect 25 0 15 0;
#X connect 26 0 27 0;
#X connect 27 0 70 0;
#X connect 28 0 26 1;
#X connect 29 0 6 1;
#X connect 30 0 72 0;
#X connect 31 0 34 1;
#X connect 32 0 23 0;
#X connect 32 0 27 0;
#X connect 32 0 30 0;
#X connect 32 0 36 0;
#X connect 32 0 38 0;
#X connect 32 0 41 0;
#X connect 32 0 44 0;
#X connect 32 0 47 0;
#X connect 32 0 50 0;
#X connect 33 0 32 0;
#X connect 34 0 30 0;
#X connect 35 0 36 0;
#X connect 36 0 74 0;
#X connect 37 0 35 1;
#X connect 38 0 76 0;
#X connect 39 0 40 1;
#X connect 40 0 38 0;
#X connect 41 0 78 0;
#X connect 42 0 43 1;
#X connect 43 0 41 0;
#X connect 44 0 80 0;
#X connect 45 0 46 1;
#X connect 46 0 44 0;
#X connect 47 0 82 0;
#X connect 48 0 49 1;
#X connect 49 0 47 0;
#X connect 50 0 84 0;
#X connect 51 0 52 1;
#X connect 52 0 50 0;
#X connect 53 0 3 0;
#X connect 54 0 53 0;
#X connect 55 0 22 0;
#X connect 55 1 26 0;
#X connect 55 2 34 0;
#X connect 55 3 35 0;
#X connect 55 4 40 0;
#X connect 55 5 43 0;
#X connect 55 6 46 0;
#X connect 55 7 49 0;
#X connect 55 8 52 0;
#X connect 55 9 58 0;
#X connect 55 10 61 0;
#X connect 55 11 64 0;
#X connect 56 0 86 0;
#X connect 57 0 58 1;
#X connect 58 0 56 0;
#X connect 59 0 88 0;
#X connect 60 0 61 1;
#X connect 61 0 59 0;
#X connect 62 0 90 0;
#X connect 63 0 64 1;
#X connect 64 0 62 0;
#X connect 65 0 3 0;
#X connect 66 0 0 0;
#X connect 67 0 5 1;
#X connect 69 0 54 1;
#X connect 71 0 54 2;
#X connect 73 0 54 3;
#X connect 75 0 54 4;
#X connect 77 0 54 5;
#X connect 79 0 54 6;
#X connect 81 0 54 7;
#X connect 83 0 54 8;
#X connect 85 0 54 9;
#X connect 87 0 54 10;
#X connect 89 0 54 11;
#X restore 33 310 pd state-saving-via-preset-manager-module;
#N canvas 297 27 840 446 parameter-nudging-system 1;
#N canvas 0 22 484 497 param-nudge 0;
#X obj 124 234 random;
#X obj 232 335 f;
#X obj 232 368 +;
#X obj 257 166 random 2;
#X obj 124 275 t f f;
#X obj 124 351 t b f;
#X obj 124 297 *;
#X obj 257 188 sel 0 1;
#X msg 257 280 -1;
#X msg 335 280 1;
#X obj 124 149 t b b b;
#X obj 124 123 r NUDGE!;
#X obj 157 193 r NUDGE-RANGE;
#X obj 247 308 inlet;
#X obj 232 397 outlet;
#X floatatom 316 396 5 0 0 0 - - -, f 5;
#X connect 0 0 4 0;
#X connect 1 0 2 0;
#X connect 2 0 14 0;
#X connect 2 0 15 0;
#X connect 3 0 7 0;
#X connect 4 0 6 0;
#X connect 5 0 2 0;
#X connect 5 1 2 1;
#X connect 6 0 5 0;
#X connect 7 0 8 0;
#X connect 7 1 9 0;
#X connect 8 0 6 1;
#X connect 9 0 6 1;
#X connect 10 0 0 0;
#X connect 10 1 1 0;
#X connect 10 2 3 0;
#X connect 11 0 10 0;
#X connect 12 0 0 1;
#X connect 13 0 1 1;
#X restore 23 45 pd param-nudge;
#N canvas 0 22 484 497 param-nudge 0;
#X obj 124 234 random;
#X obj 232 335 f;
#X obj 232 368 +;
#X obj 257 166 random 2;
#X obj 124 275 t f f;
#X obj 124 351 t b f;
#X obj 124 297 *;
#X obj 257 188 sel 0 1;
#X msg 257 280 -1;
#X msg 335 280 1;
#X obj 124 149 t b b b;
#X obj 124 123 r NUDGE!;
#X obj 157 193 r NUDGE-RANGE;
#X obj 247 308 inlet;
#X obj 232 397 outlet;
#X connect 0 0 4 0;
#X connect 1 0 2 0;
#X connect 2 0 14 0;
#X connect 3 0 7 0;
#X connect 4 0 6 0;
#X connect 5 0 2 0;
#X connect 5 1 2 1;
#X connect 6 0 5 0;
#X connect 7 0 8 0;
#X connect 7 1 9 0;
#X connect 8 0 6 1;
#X connect 9 0 6 1;
#X connect 10 0 0 0;
#X connect 10 1 1 0;
#X connect 10 2 3 0;
#X connect 11 0 10 0;
#X connect 12 0 0 1;
#X connect 13 0 1 1;
#X restore 214 47 pd param-nudge;
#N canvas 0 22 484 497 param-nudge 0;
#X obj 124 234 random;
#X obj 232 335 f;
#X obj 232 368 +;
#X obj 257 166 random 2;
#X obj 124 275 t f f;
#X obj 124 351 t b f;
#X obj 124 297 *;
#X obj 257 188 sel 0 1;
#X msg 257 280 -1;
#X msg 335 280 1;
#X obj 124 149 t b b b;
#X obj 124 123 r NUDGE!;
#X obj 157 193 r NUDGE-RANGE;
#X obj 247 308 inlet;
#X obj 232 397 outlet;
#X connect 0 0 4 0;
#X connect 1 0 2 0;
#X connect 2 0 14 0;
#X connect 3 0 7 0;
#X connect 4 0 6 0;
#X connect 5 0 2 0;
#X connect 5 1 2 1;
#X connect 6 0 5 0;
#X connect 7 0 8 0;
#X connect 7 1 9 0;
#X connect 8 0 6 1;
#X connect 9 0 6 1;
#X connect 10 0 0 0;
#X connect 10 1 1 0;
#X connect 10 2 3 0;
#X connect 11 0 10 0;
#X connect 12 0 0 1;
#X connect 13 0 1 1;
#X restore 407 47 pd param-nudge;
#N canvas 0 22 484 497 param-nudge 0;
#X obj 124 234 random;
#X obj 232 335 f;
#X obj 232 368 +;
#X obj 257 166 random 2;
#X obj 124 275 t f f;
#X obj 124 351 t b f;
#X obj 124 297 *;
#X obj 257 188 sel 0 1;
#X msg 257 280 -1;
#X msg 335 280 1;
#X obj 124 149 t b b b;
#X obj 124 123 r NUDGE!;
#X obj 157 193 r NUDGE-RANGE;
#X obj 247 308 inlet;
#X obj 232 397 outlet;
#X connect 0 0 4 0;
#X connect 1 0 2 0;
#X connect 2 0 14 0;
#X connect 3 0 7 0;
#X connect 4 0 6 0;
#X connect 5 0 2 0;
#X connect 5 1 2 1;
#X connect 6 0 5 0;
#X connect 7 0 8 0;
#X connect 7 1 9 0;
#X connect 8 0 6 1;
#X connect 9 0 6 1;
#X connect 10 0 0 0;
#X connect 10 1 1 0;
#X connect 10 2 3 0;
#X connect 11 0 10 0;
#X connect 12 0 0 1;
#X connect 13 0 1 1;
#X restore 21 149 pd param-nudge;
#N canvas 0 22 484 497 param-nudge 0;
#X obj 124 234 random;
#X obj 232 335 f;
#X obj 232 368 +;
#X obj 257 166 random 2;
#X obj 124 275 t f f;
#X obj 124 351 t b f;
#X obj 124 297 *;
#X obj 257 188 sel 0 1;
#X msg 257 280 -1;
#X msg 335 280 1;
#X obj 124 149 t b b b;
#X obj 124 123 r NUDGE!;
#X obj 157 193 r NUDGE-RANGE;
#X obj 247 308 inlet;
#X obj 232 397 outlet;
#X connect 0 0 4 0;
#X connect 1 0 2 0;
#X connect 2 0 14 0;
#X connect 3 0 7 0;
#X connect 4 0 6 0;
#X connect 5 0 2 0;
#X connect 5 1 2 1;
#X connect 6 0 5 0;
#X connect 7 0 8 0;
#X connect 7 1 9 0;
#X connect 8 0 6 1;
#X connect 9 0 6 1;
#X connect 10 0 0 0;
#X connect 10 1 1 0;
#X connect 10 2 3 0;
#X connect 11 0 10 0;
#X connect 12 0 0 1;
#X connect 13 0 1 1;
#X restore 213 151 pd param-nudge;
#X obj 21 171 clip 0 127;
#X obj 213 173 clip 0 127;
#X obj 23 67 clip 0 127;
#X obj 214 69 clip 0 127;
#X obj 407 71 clip 0 127;
#N canvas 0 22 484 497 param-nudge 0;
#X obj 124 234 random;
#X obj 232 335 f;
#X obj 232 368 +;
#X obj 257 166 random 2;
#X obj 124 275 t f f;
#X obj 124 351 t b f;
#X obj 124 297 *;
#X obj 257 188 sel 0 1;
#X msg 257 280 -1;
#X msg 335 280 1;
#X obj 124 149 t b b b;
#X obj 124 123 r NUDGE!;
#X obj 157 193 r NUDGE-RANGE;
#X obj 247 308 inlet;
#X obj 232 397 outlet;
#X connect 0 0 4 0;
#X connect 1 0 2 0;
#X connect 2 0 14 0;
#X connect 3 0 7 0;
#X connect 4 0 6 0;
#X connect 5 0 2 0;
#X connect 5 1 2 1;
#X connect 6 0 5 0;
#X connect 7 0 8 0;
#X connect 7 1 9 0;
#X connect 8 0 6 1;
#X connect 9 0 6 1;
#X connect 10 0 0 0;
#X connect 10 1 1 0;
#X connect 10 2 3 0;
#X connect 11 0 10 0;
#X connect 12 0 0 1;
#X connect 13 0 1 1;
#X restore 409 151 pd param-nudge;
#X obj 409 173 clip 0 127;
#N canvas 0 22 484 497 param-nudge 0;
#X obj 124 234 random;
#X obj 232 335 f;
#X obj 232 368 +;
#X obj 257 166 random 2;
#X obj 124 275 t f f;
#X obj 124 351 t b f;
#X obj 124 297 *;
#X obj 257 188 sel 0 1;
#X msg 257 280 -1;
#X msg 335 280 1;
#X obj 124 149 t b b b;
#X obj 124 123 r NUDGE!;
#X obj 157 193 r NUDGE-RANGE;
#X obj 247 308 inlet;
#X obj 232 397 outlet;
#X connect 0 0 4 0;
#X connect 1 0 2 0;
#X connect 2 0 14 0;
#X connect 3 0 7 0;
#X connect 4 0 6 0;
#X connect 5 0 2 0;
#X connect 5 1 2 1;
#X connect 6 0 5 0;
#X connect 7 0 8 0;
#X connect 7 1 9 0;
#X connect 8 0 6 1;
#X connect 9 0 6 1;
#X connect 10 0 0 0;
#X connect 10 1 1 0;
#X connect 10 2 3 0;
#X connect 11 0 10 0;
#X connect 12 0 0 1;
#X connect 13 0 1 1;
#X restore 25 264 pd param-nudge;
#N canvas 0 22 484 497 param-nudge 0;
#X obj 124 234 random;
#X obj 232 335 f;
#X obj 232 368 +;
#X obj 257 166 random 2;
#X obj 124 275 t f f;
#X obj 124 351 t b f;
#X obj 124 297 *;
#X obj 257 188 sel 0 1;
#X msg 257 280 -1;
#X msg 335 280 1;
#X obj 124 149 t b b b;
#X obj 124 123 r NUDGE!;
#X obj 157 193 r NUDGE-RANGE;
#X obj 247 308 inlet;
#X obj 232 397 outlet;
#X connect 0 0 4 0;
#X connect 1 0 2 0;
#X connect 2 0 14 0;
#X connect 3 0 7 0;
#X connect 4 0 6 0;
#X connect 5 0 2 0;
#X connect 5 1 2 1;
#X connect 6 0 5 0;
#X connect 7 0 8 0;
#X connect 7 1 9 0;
#X connect 8 0 6 1;
#X connect 9 0 6 1;
#X connect 10 0 0 0;
#X connect 10 1 1 0;
#X connect 10 2 3 0;
#X connect 11 0 10 0;
#X connect 12 0 0 1;
#X connect 13 0 1 1;
#X restore 217 266 pd param-nudge;
#X obj 25 286 clip 0 127;
#X obj 217 288 clip 0 127;
#N canvas 0 22 484 497 param-nudge 0;
#X obj 124 234 random;
#X obj 232 335 f;
#X obj 232 368 +;
#X obj 257 166 random 2;
#X obj 124 275 t f f;
#X obj 124 351 t b f;
#X obj 124 297 *;
#X obj 257 188 sel 0 1;
#X msg 257 280 -1;
#X msg 335 280 1;
#X obj 124 149 t b b b;
#X obj 124 123 r NUDGE!;
#X obj 157 193 r NUDGE-RANGE;
#X obj 247 308 inlet;
#X obj 232 397 outlet;
#X connect 0 0 4 0;
#X connect 1 0 2 0;
#X connect 2 0 14 0;
#X connect 3 0 7 0;
#X connect 4 0 6 0;
#X connect 5 0 2 0;
#X connect 5 1 2 1;
#X connect 6 0 5 0;
#X connect 7 0 8 0;
#X connect 7 1 9 0;
#X connect 8 0 6 1;
#X connect 9 0 6 1;
#X connect 10 0 0 0;
#X connect 10 1 1 0;
#X connect 10 2 3 0;
#X connect 11 0 10 0;
#X connect 12 0 0 1;
#X connect 13 0 1 1;
#X restore 413 266 pd param-nudge;
#X obj 413 288 clip 0 127;
#X obj 23 22 r \$0-eq-100-s;
#X obj 23 95 s \$0-eq-100-r;
#X obj 214 24 r \$0-eq-200-s;
#X obj 214 97 s \$0-eq-200-r;
#X obj 407 24 r \$0-eq-400-s;
#X obj 407 97 s \$0-eq-400-r;
#X obj 21 126 r \$0-eq-800-s;
#X obj 21 198 s \$0-eq-800-r;
#X obj 213 128 r \$0-eq-1600-s;
#X obj 213 199 s \$0-eq-1600-r;
#X obj 409 128 r \$0-eq-3200-s;
#X obj 409 199 s \$0-eq-3200-r;
#X obj 25 241 r \$0-eq-6400-s;
#X obj 25 313 s \$0-eq-6400-r;
#X obj 217 243 r \$0-eq-cv1-att-s;
#X obj 217 314 s \$0-eq-cv1-att-r;
#X obj 413 243 r \$0-eq-cv2-att-s;
#X obj 413 314 s \$0-eq-cv2-att-r;
#N canvas 0 22 484 497 param-nudge 0;
#X obj 124 234 random;
#X obj 232 335 f;
#X obj 232 368 +;
#X obj 257 166 random 2;
#X obj 124 275 t f f;
#X obj 124 351 t b f;
#X obj 124 297 *;
#X obj 257 188 sel 0 1;
#X msg 257 280 -1;
#X msg 335 280 1;
#X obj 124 149 t b b b;
#X obj 124 123 r NUDGE!;
#X obj 157 193 r NUDGE-RANGE;
#X obj 247 308 inlet;
#X obj 232 397 outlet;
#X connect 0 0 4 0;
#X connect 1 0 2 0;
#X connect 2 0 14 0;
#X connect 3 0 7 0;
#X connect 4 0 6 0;
#X connect 5 0 2 0;
#X connect 5 1 2 1;
#X connect 6 0 5 0;
#X connect 7 0 8 0;
#X connect 7 1 9 0;
#X connect 8 0 6 1;
#X connect 9 0 6 1;
#X connect 10 0 0 0;
#X connect 10 1 1 0;
#X connect 10 2 3 0;
#X connect 11 0 10 0;
#X connect 12 0 0 1;
#X connect 13 0 1 1;
#X restore 553 266 pd param-nudge;
#X obj 553 288 clip 0 127;
#X obj 553 243 r \$0-eq-cv3-att-s;
#X obj 553 314 s \$0-eq-cv3-att-r;
#N canvas 0 22 484 497 param-nudge 0;
#X obj 124 234 random;
#X obj 232 335 f;
#X obj 232 368 +;
#X obj 257 166 random 2;
#X obj 124 275 t f f;
#X obj 124 351 t b f;
#X obj 124 297 *;
#X obj 257 188 sel 0 1;
#X msg 257 280 -1;
#X msg 335 280 1;
#X obj 124 149 t b b b;
#X obj 124 123 r NUDGE!;
#X obj 157 193 r NUDGE-RANGE;
#X obj 247 308 inlet;
#X obj 232 397 outlet;
#X connect 0 0 4 0;
#X connect 1 0 2 0;
#X connect 2 0 14 0;
#X connect 3 0 7 0;
#X connect 4 0 6 0;
#X connect 5 0 2 0;
#X connect 5 1 2 1;
#X connect 6 0 5 0;
#X connect 7 0 8 0;
#X connect 7 1 9 0;
#X connect 8 0 6 1;
#X connect 9 0 6 1;
#X connect 10 0 0 0;
#X connect 10 1 1 0;
#X connect 10 2 3 0;
#X connect 11 0 10 0;
#X connect 12 0 0 1;
#X connect 13 0 1 1;
#X restore 30 371 pd param-nudge;
#X obj 30 393 clip 0 127;
#N canvas 0 22 484 497 param-nudge 0;
#X obj 124 234 random;
#X obj 232 335 f;
#X obj 232 368 +;
#X obj 257 166 random 2;
#X obj 124 275 t f f;
#X obj 124 351 t b f;
#X obj 124 297 *;
#X obj 257 188 sel 0 1;
#X msg 257 280 -1;
#X msg 335 280 1;
#X obj 124 149 t b b b;
#X obj 124 123 r NUDGE!;
#X obj 157 193 r NUDGE-RANGE;
#X obj 247 308 inlet;
#X obj 232 397 outlet;
#X connect 0 0 4 0;
#X connect 1 0 2 0;
#X connect 2 0 14 0;
#X connect 3 0 7 0;
#X connect 4 0 6 0;
#X connect 5 0 2 0;
#X connect 5 1 2 1;
#X connect 6 0 5 0;
#X connect 7 0 8 0;
#X connect 7 1 9 0;
#X connect 8 0 6 1;
#X connect 9 0 6 1;
#X connect 10 0 0 0;
#X connect 10 1 1 0;
#X connect 10 2 3 0;
#X connect 11 0 10 0;
#X connect 12 0 0 1;
#X connect 13 0 1 1;
#X restore 170 371 pd param-nudge;
#X obj 170 393 clip 0 127;
#X obj 30 348 r \$0-eq-q-s;
#X obj 30 419 s \$0-eq-q-r;
#X obj 170 348 r \$0-eq-level-s;
#X obj 170 419 s \$0-eq-level-r;
#X connect 0 0 7 0;
#X connect 1 0 8 0;
#X connect 2 0 9 0;
#X connect 3 0 5 0;
#X connect 4 0 6 0;
#X connect 5 0 25 0;
#X connect 6 0 27 0;
#X connect 7 0 19 0;
#X connect 8 0 21 0;
#X connect 9 0 23 0;
#X connect 10 0 11 0;
#X connect 11 0 29 0;
#X connect 12 0 14 0;
#X connect 13 0 15 0;
#X connect 14 0 31 0;
#X connect 15 0 33 0;
#X connect 16 0 17 0;
#X connect 17 0 35 0;
#X connect 18 0 0 0;
#X connect 20 0 1 0;
#X connect 22 0 2 0;
#X connect 24 0 3 0;
#X connect 26 0 4 0;
#X connect 28 0 10 0;
#X connect 30 0 12 0;
#X connect 32 0 13 0;
#X connect 34 0 16 0;
#X connect 36 0 37 0;
#X connect 37 0 39 0;
#X connect 38 0 36 0;
#X connect 40 0 41 0;
#X connect 41 0 45 0;
#X connect 42 0 43 0;
#X connect 43 0 47 0;
#X connect 44 0 40 0;
#X connect 46 0 42 0;
#X restore 33 288 pd parameter-nudging-system;
#X obj 596 241 + 0.1;
#X obj 596 219 * 0.9;
#X obj 508 124 + 0;
#X obj 295 312 * 9;
#X connect 3 0 20 0;
#X connect 9 0 81 0;
#X connect 10 0 11 0;
#X connect 11 0 12 0;
#X connect 12 0 13 0;
#X connect 14 0 9 0;
#X connect 15 0 16 0;
#X connect 16 0 17 0;
#X connect 17 0 80 0;
#X connect 18 0 19 0;
#X connect 19 0 20 1;
#X connect 20 0 37 0;
#X connect 28 0 2 0;
#X connect 29 0 30 0;
#X connect 30 0 79 0;
#X connect 31 0 32 0;
#X connect 32 0 33 1;
#X connect 33 0 38 0;
#X connect 34 0 35 0;
#X connect 36 0 33 0;
#X connect 39 0 69 0;
#X connect 41 0 70 0;
#X connect 43 0 71 0;
#X connect 47 0 40 0;
#X connect 55 0 65 0;
#X connect 56 0 57 0;
#X connect 57 0 47 1;
#X connect 58 0 42 0;
#X connect 59 0 60 0;
#X connect 60 0 58 1;
#X connect 61 0 44 0;
#X connect 62 0 63 0;
#X connect 63 0 61 1;
#X connect 64 0 66 0;
#X connect 65 0 56 0;
#X connect 66 0 59 0;
#X connect 67 0 62 0;
#X connect 68 0 67 0;
#X connect 69 0 47 0;
#X connect 70 0 58 0;
#X connect 71 0 61 0;
#X connect 72 0 74 0;
#X connect 74 0 75 0;
#X connect 75 0 73 0;
#X connect 78 0 31 0;
#X connect 79 0 78 0;
#X connect 80 0 18 0;
#X connect 81 0 10 0;
#X coords 0 -1 1 1 265 155 2 100 100;
