#N canvas 0 23 1255 697 10;
#X obj 67 75 s \$0-trig!;
#X obj 67 8 inlet~;
#X obj 67 30 threshold~ 0.9 0 0.9 0;
#X obj 67 52 t b b;
#X obj 440 255 -~ 1;
#X obj 440 185 cos~;
#X obj 440 234 *~ 2;
#X obj 440 210 expr~ $v1 < 0.5;
#X obj 685 161 -~ 1;
#X obj 685 91 cos~;
#X obj 685 140 *~ 2;
#X obj 685 116 expr~ $v1 < 0.5;
#X obj 440 156 +~;
#X obj 108 183 hsl 128 15 0 127 0 1 \$0-perc-hp-s \$0-perc-hp-r FILTER
135 7 0 10 -262144 -1 -1 0 1;
#X obj 547 216 mtof;
#X obj 547 238 pack 0 50;
#X obj 547 260 line~;
#X obj 547 282 +~;
#X obj 934 163 vline~;
#X obj 934 193 *~;
#X obj 934 222 *~;
#X obj 934 116 r \$0-trig!;
#X obj 108 138 hsl 128 15 0 127 0 1 \$0-perc-filter-s \$0-perc-filter-r
STRIKE 135 7 0 10 -262144 -1 -1 0 1;
#X obj 934 244 s~ \$0-EG1;
#X obj 613 243 r~ \$0-EG1;
#X obj 613 265 *~ 2000;
#X obj 440 461 *~;
#X obj 481 444 r~ \$0-EG1;
#X obj 695 219 r~ \$0-EG2;
#X obj 695 263 snapshot~;
#X obj 766 226 tgl 15 0 empty empty empty 17 7 0 10 -262144 -1 -1 1
1;
#X obj 766 246 metro 20;
#X obj 766 202 loadbang;
#X obj 615 404 *~;
#X obj 695 307 pack 0 50;
#X obj 695 329 line;
#X obj 649 387 r~ \$0-EG2;
#X obj 615 478 *~;
#X obj 937 418 vline~;
#X msg 937 396 1 1 \, 0 \$1 1;
#X obj 937 448 *~;
#X obj 937 477 *~;
#X obj 937 367 f;
#X obj 937 297 r \$0-trig!;
#X obj 1024 262 / 127;
#X obj 1024 306 + 10;
#X obj 1024 240 r \$0-perc-decay2-s;
#X obj 937 499 s~ \$0-EG3;
#X obj 630 449 r~ \$0-EG3;
#X obj 695 285 + 2600;
#X obj 615 346 hip~ 5;
#X obj 1024 284 * 1990;
#X obj 100 337 vline~;
#X obj 100 371 *~;
#X obj 100 393 *~;
#X obj 100 415 s~ \$0-EG2;
#X obj 100 282 r \$0-trig!;
#X obj 376 62 pack 0 50;
#X obj 376 84 line~;
#X obj 376 106 +~;
#X obj 685 183 *~ 10000;
#X obj 547 194 r \$0-perc-filter-s;
#X obj 440 299 vcf~ 1;
#X obj 440 321 vcf~ 1;
#X msg 100 309 1 219 \, 0 3700 220;
#X msg 934 141 1 1 \, 0 200 1;
#X obj 615 534 hip~;
#X obj 108 168 hsl 128 15 0 127 0 1 \$0-perc-decay2-cv-att-s \$0-perc-decay2-cv-att-r
DECAY-CV 135 7 0 10 -158136 -1 -1 0 1;
#X obj 702 473 mtof;
#X obj 702 495 pack 0 50;
#X obj 702 517 line;
#X obj 615 603 outlet~;
#X obj 695 241 *~ 10000;
#X obj 105 124 cnv 5 5 5 empty empty HIHAT 0 0 0 12 -262144 -66577
0;
#X obj 296 109 cnv 5 5 5 empty empty RDM 0 0 0 8 -262144 -226533 0
;
#X obj 149 124 cnv 5 5 5 empty \$0-instance-num 2 0 0 0 12 -262144
-66577 0;
#X obj 108 212 hsl 128 15 0 127 0 1 \$0-flam-prob-s \$0-flam-prob-r
FLAM-PROB 133 7 0 10 -262144 -1 -1 0 1;
#X obj 108 197 hsl 128 15 0 127 0 1 \$0-flam-s \$0-flam-r FLAM 133
7 0 10 -262144 -1 -1 0 1;
#X obj 297 210 bng 15 250 50 0 \$0-flam-prob-gui-r \$0-flam-prob-gui-r
empty 17 7 0 10 -1 -226533 -1;
#N canvas 0 22 864 595 flam-code 0;
#X obj 406 349 t b b b;
#X obj 406 425 delay;
#X obj 426 400 delay;
#X obj 433 258 / 127;
#X obj 445 376 delay;
#X obj 101 447 spigot;
#X floatatom 134 368 5 0 0 0 - - -, f 5;
#X obj 134 346 < 1;
#X obj 134 387 == 0;
#X floatatom 134 409 5 0 0 0 - - -, f 5;
#X obj 433 302 + 1;
#X obj 433 324 t f f f;
#X obj 433 280 * 99;
#X obj 433 234 r \$0-flam-s;
#X obj 134 324 r \$0-flam-s;
#X obj 101 500 s \$0-trig!;
#X obj 409 110 random 127;
#X floatatom 409 132 5 0 0 0 - - -, f 5;
#X obj 409 151 moses;
#X obj 409 197 t b b;
#X obj 409 173 change;
#X obj 492 185 s \$0-flam-prob-gui-r;
#X obj 516 124 r \$0-flam-prob-s;
#X obj 417 43 inlet;
#X connect 0 0 1 0;
#X connect 0 1 2 0;
#X connect 0 2 4 0;
#X connect 1 0 5 0;
#X connect 2 0 5 0;
#X connect 3 0 12 0;
#X connect 4 0 5 0;
#X connect 5 0 15 0;
#X connect 6 0 8 0;
#X connect 7 0 6 0;
#X connect 8 0 9 0;
#X connect 9 0 5 1;
#X connect 10 0 11 0;
#X connect 11 0 1 1;
#X connect 11 1 2 1;
#X connect 11 2 4 1;
#X connect 12 0 10 0;
#X connect 13 0 3 0;
#X connect 14 0 7 0;
#X connect 16 0 17 0;
#X connect 17 0 18 0;
#X connect 18 0 20 0;
#X connect 19 0 0 0;
#X connect 19 1 21 0;
#X connect 20 0 19 0;
#X connect 22 0 18 1;
#X connect 23 0 16 0;
#X restore 216 68 pd flam-code;
#X obj 118 242 hradio 15 1 1 8 \$0-load-s \$0-load-r LOAD-1 125 7 0
10 -262144 -150893 -1 0;
#X obj 118 227 hradio 15 1 0 8 \$0-write-s \$0-write-r STORE-1 125
7 0 10 -262144 -226533 -1 0;
#X obj 440 123 phasor~ 1046;
#X obj 685 64 phasor~ 2489;
#X obj 376 10 loadbang;
#X msg 376 36 1046;
#X obj 1118 55 inlet~ STEP;
#X obj 1241 107 inlet~ RDM-LOAD;
#X obj 1118 77 threshold~ 0.9 0 0.9 0;
#X obj 1118 99 f;
#X obj 1147 99 + 1;
#X obj 1118 121 % 8;
#X floatatom 1118 143 5 0 0 0 - - -, f 5;
#X obj 1118 162 s \$0-load-r;
#X obj 1063 29 loadbang;
#X obj 1241 129 threshold~ 0.9 0 0.9 0;
#X obj 1241 151 random 8;
#X obj 1241 173 s \$0-load-r;
#X obj 103 109 cnv 5 5 5 empty empty TRIG 0 0 0 8 -262144 -226533 0
;
#X obj 197 109 cnv 5 5 5 empty empty DECAY 0 0 0 8 -262144 -1 0;
#X obj 250 109 cnv 5 5 5 empty empty LOAD 0 0 0 8 -262144 -226533 0
;
#X obj 144 109 cnv 5 5 5 empty empty STRIKE 0 0 0 8 -262144 -1 0;
#X obj 562 74 *~ 127;
#X obj 562 96 mtof~;
#X obj 562 52 inlet~ STRIKE-CV;
#X obj 1024 330 +;
#X obj 1024 350 moses 10;
#X obj 839 6 inlet~ DECAY-CV;
#X obj 839 28 *~ 2000;
#X obj 837 100 snapshot~;
#X obj 780 11 loadbang;
#X obj 780 36 tgl 15 0 empty empty empty 17 7 0 10 -262144 -1 -1 1
1;
#X obj 780 56 metro 20;
#X floatatom 836 294 5 0 0 0 - - -, f 5;
#X obj 800 118 env~;
#X floatatom 835 173 5 0 0 0 - - -, f 5;
#X obj 835 151 == 0;
#X obj 835 192 change;
#X obj 835 214 sel 1;
#X msg 835 236 0;
#X obj 836 313 t b f;
#X obj 108 153 hsl 128 15 0 127 0 1 \$0-perc-decay2-s \$0-perc-decay2-r
DECAY 135 7 0 10 -262144 -1 -1 0 1;
#X obj 839 50 *~;
#X obj 938 5 r \$0-perc-decay2-cv-att-s;
#X obj 938 27 / 127;
#X obj 938 49 pack 0 50;
#X obj 938 71 line~;
#N canvas 267 22 921 741 state-saving-multiple-instances 0;
#X obj 380 -42 loadbang;
#X obj 413 264 textfile;
#X obj 380 -9 t b b;
#X msg 670 247 rewind;
#X msg 627 247 bang;
#X obj 109 691 textfile;
#X obj 627 208 t b b;
#X obj 110 357 f;
#X obj 123 580 f;
#X obj 48 403 t b b b;
#X msg 186 580 clear;
#X obj 446 147 outlet;
#X text 442 167 INSTANCE NUMBER;
#X obj 407 82 f \$1;
#X obj 407 118 t f f f;
#X obj 48 378 bng 15 250 50 0 empty empty empty 17 7 0 10 -262144 -1
-1;
#X obj 48 274 r SAVE-S;
#X msg 110 430 set \$1 \$2 \$3 \$4 \$5 \$6 \$7;
#X obj 110 400 pack f f f f f f f;
#X obj 413 286 unpack f f f f f f f;
#X obj 79 -26 r \$0-perc-filter-s;
#X obj 87 -3 r \$0-perc-decay2-s;
#X obj 110 18 r \$0-perc-decay2-cv-att-s;
#X obj 162 67 r \$0-flam-s;
#X obj 179 92 r \$0-flam-prob-s;
#X obj 225 113 r \$0-load-s;
#X obj 403 626 s \$0-perc-filter-r;
#X obj 430 603 s \$0-perc-decay2-r;
#X obj 457 577 s \$0-perc-decay2-cv-att-r;
#X obj 504 510 s \$0-flam-r;
#X obj 531 487 s \$0-flam-prob-r;
#X obj 558 461 s \$0-load-r;
#X msg 122 651 write statesave/\$1-hihat-ss.txt;
#X msg 413 239 read statesave/\$1-hihat-ss.txt;
#X obj 484 547 s \$0-perc-hp-r;
#X obj 133 39 r \$0-perc-hp-s;
#X obj 465 13 r \$0-reload!;
#X connect 0 0 2 0;
#X connect 1 0 19 0;
#X connect 2 0 6 0;
#X connect 2 1 13 0;
#X connect 3 0 1 0;
#X connect 4 0 1 0;
#X connect 6 0 4 0;
#X connect 6 1 3 0;
#X connect 7 0 18 0;
#X connect 8 0 32 0;
#X connect 9 0 8 0;
#X connect 9 1 7 0;
#X connect 9 2 10 0;
#X connect 10 0 5 0;
#X connect 13 0 14 0;
#X connect 14 0 8 1;
#X connect 14 1 33 0;
#X connect 14 2 11 0;
#X connect 15 0 9 0;
#X connect 16 0 15 0;
#X connect 17 0 5 0;
#X connect 18 0 17 0;
#X connect 19 0 26 0;
#X connect 19 1 27 0;
#X connect 19 2 28 0;
#X connect 19 3 34 0;
#X connect 19 4 29 0;
#X connect 19 5 30 0;
#X connect 19 6 31 0;
#X connect 20 0 7 1;
#X connect 21 0 18 1;
#X connect 22 0 18 2;
#X connect 23 0 18 4;
#X connect 24 0 18 5;
#X connect 25 0 18 6;
#X connect 32 0 5 0;
#X connect 33 0 1 0;
#X connect 35 0 18 3;
#X connect 36 0 2 0;
#X restore 101 490 pd state-saving-multiple-instances;
#X obj 101 564 s \$0-instance-num;
#X obj 101 516 makefilename %d;
#X msg 101 541 label \$1;
#N canvas 81 22 1117 745 state-saving-via-preset-manager-module 0;
#X obj 477 158 textfile;
#X msg 755 141 rewind;
#X msg 712 141 bang;
#X obj 243 690 textfile;
#X obj 712 102 t b b;
#X obj 194 252 f;
#X obj 257 579 f;
#X obj 139 122 t b b b;
#X msg 373 621 clear;
#X obj 194 76 delay 5;
#X obj 190 529 delay 10;
#X msg 140 83 bang;
#X obj 140 51 r STORE-S!;
#X obj 477 59 f;
#X obj 450 16 t b b;
#X obj 465 -20 t b f;
#X obj 522 77 f \$1;
#X obj 477 104 pack f f;
#X obj 522 27 loadbang;
#X obj 257 609 pack f f;
#X obj 302 562 loadbang;
#X obj 302 584 f \$1;
#X obj 465 -84 r preset-manager-scan;
#X obj 272 540 r preset-manager-store-slot;
#X obj 465 -62 i;
#N canvas 0 22 1069 747 morph-parameters 0;
#X obj 176 94 inlet;
#X obj 176 236 pack f f;
#X obj 176 261 line;
#X obj 209 117 r preset-manager-morph-s;
#X msg 72 244 stop;
#X obj 72 214 r STOP-MORPH!;
#X obj 209 206 spigot;
#X obj 398 137 t f f;
#X obj 455 154 == 0;
#X obj 221 176 f;
#X floatatom 455 222 5 0 0 0 - - -, f 5;
#X obj 398 159 t b f;
#X floatatom 425 192 5 0 0 0 - - -, f 5;
#X obj 209 139 t f f;
#X obj 398 102 r parameters-s;
#X obj 176 288 outlet;
#X connect 0 0 1 0;
#X connect 1 0 2 0;
#X connect 2 0 15 0;
#X connect 3 0 13 0;
#X connect 4 0 2 0;
#X connect 5 0 4 0;
#X connect 6 0 1 1;
#X connect 7 0 11 0;
#X connect 7 1 8 0;
#X connect 8 0 10 0;
#X connect 9 0 6 0;
#X connect 10 0 1 1;
#X connect 11 0 9 0;
#X connect 11 1 12 0;
#X connect 12 0 6 1;
#X connect 13 0 6 0;
#X connect 13 1 9 1;
#X connect 14 0 7 0;
#X restore 522 620 pd morph-parameters;
#N canvas 0 22 1069 747 morph-parameters 0;
#X obj 176 94 inlet;
#X obj 176 236 pack f f;
#X obj 176 261 line;
#X obj 209 117 r preset-manager-morph-s;
#X msg 72 244 stop;
#X obj 72 214 r STOP-MORPH!;
#X obj 209 206 spigot;
#X obj 398 137 t f f;
#X obj 455 154 == 0;
#X obj 221 176 f;
#X floatatom 455 222 5 0 0 0 - - -, f 5;
#X obj 398 159 t b f;
#X floatatom 425 192 5 0 0 0 - - -, f 5;
#X obj 209 139 t f f;
#X obj 398 102 r parameters-s;
#X obj 176 288 outlet;
#X connect 0 0 1 0;
#X connect 1 0 2 0;
#X connect 2 0 15 0;
#X connect 3 0 13 0;
#X connect 4 0 2 0;
#X connect 5 0 4 0;
#X connect 6 0 1 1;
#X connect 7 0 11 0;
#X connect 7 1 8 0;
#X connect 8 0 10 0;
#X connect 9 0 6 0;
#X connect 10 0 1 1;
#X connect 11 0 9 0;
#X connect 11 1 12 0;
#X connect 12 0 6 1;
#X connect 13 0 6 0;
#X connect 13 1 9 1;
#X connect 14 0 7 0;
#X restore 559 519 pd morph-parameters;
#N canvas 0 22 1069 747 morph-parameters 0;
#X obj 176 94 inlet;
#X obj 176 236 pack f f;
#X obj 176 261 line;
#X obj 209 117 r preset-manager-morph-s;
#X msg 72 244 stop;
#X obj 72 214 r STOP-MORPH!;
#X obj 209 206 spigot;
#X obj 398 137 t f f;
#X obj 455 154 == 0;
#X obj 221 176 f;
#X floatatom 455 222 5 0 0 0 - - -, f 5;
#X obj 398 159 t b f;
#X floatatom 425 192 5 0 0 0 - - -, f 5;
#X obj 209 139 t f f;
#X obj 398 102 r parameters-s;
#X obj 176 288 outlet;
#X connect 0 0 1 0;
#X connect 1 0 2 0;
#X connect 2 0 15 0;
#X connect 3 0 13 0;
#X connect 4 0 2 0;
#X connect 5 0 4 0;
#X connect 6 0 1 1;
#X connect 7 0 11 0;
#X connect 7 1 8 0;
#X connect 8 0 10 0;
#X connect 9 0 6 0;
#X connect 10 0 1 1;
#X connect 11 0 9 0;
#X connect 11 1 12 0;
#X connect 12 0 6 1;
#X connect 13 0 6 0;
#X connect 13 1 9 1;
#X connect 14 0 7 0;
#X restore 577 465 pd morph-parameters;
#N canvas 0 22 1069 747 morph-parameters 0;
#X obj 176 94 inlet;
#X obj 176 236 pack f f;
#X obj 176 261 line;
#X obj 209 117 r preset-manager-morph-s;
#X msg 72 244 stop;
#X obj 72 214 r STOP-MORPH!;
#X obj 209 206 spigot;
#X obj 398 137 t f f;
#X obj 455 154 == 0;
#X obj 221 176 f;
#X floatatom 455 222 5 0 0 0 - - -, f 5;
#X obj 398 159 t b f;
#X floatatom 425 192 5 0 0 0 - - -, f 5;
#X obj 209 139 t f f;
#X obj 398 102 r parameters-s;
#X obj 176 288 outlet;
#X connect 0 0 1 0;
#X connect 1 0 2 0;
#X connect 2 0 15 0;
#X connect 3 0 13 0;
#X connect 4 0 2 0;
#X connect 5 0 4 0;
#X connect 6 0 1 1;
#X connect 7 0 11 0;
#X connect 7 1 8 0;
#X connect 8 0 10 0;
#X connect 9 0 6 0;
#X connect 10 0 1 1;
#X connect 11 0 9 0;
#X connect 11 1 12 0;
#X connect 12 0 6 1;
#X connect 13 0 6 0;
#X connect 13 1 9 1;
#X connect 14 0 7 0;
#X restore 590 417 pd morph-parameters;
#X msg 243 490 set \$1 \$2 \$3 \$4 \$5 \$6 \$7;
#X obj 194 319 pack f f f f f f f;
#X msg 256 650 write statesave/\$1-\$2-hihat-ss.txt;
#X msg 477 133 read statesave/\$1-\$2-hihat-ss.txt;
#X obj 477 181 unpack f f f f f f f;
#X obj 211 103 r \$0-perc-filter-s;
#X obj 219 125 r \$0-perc-decay2-s;
#X obj 242 147 r \$0-perc-decay2-cv-att-s;
#X obj 256 200 r \$0-flam-s;
#X obj 273 225 r \$0-flam-prob-s;
#X obj 319 246 r \$0-load-s;
#N canvas 0 22 1069 747 morph-parameters 0;
#X obj 176 94 inlet;
#X obj 176 236 pack f f;
#X obj 176 261 line;
#X obj 209 117 r preset-manager-morph-s;
#X msg 72 244 stop;
#X obj 72 214 r STOP-MORPH!;
#X obj 209 206 spigot;
#X obj 398 137 t f f;
#X obj 455 154 == 0;
#X obj 221 176 f;
#X floatatom 455 222 5 0 0 0 - - -, f 5;
#X obj 398 159 t b f;
#X floatatom 425 192 5 0 0 0 - - -, f 5;
#X obj 209 139 t f f;
#X obj 398 102 r parameters-s;
#X obj 176 288 outlet;
#X connect 0 0 1 0;
#X connect 1 0 2 0;
#X connect 2 0 15 0;
#X connect 3 0 13 0;
#X connect 4 0 2 0;
#X connect 5 0 4 0;
#X connect 6 0 1 1;
#X connect 7 0 11 0;
#X connect 7 1 8 0;
#X connect 8 0 10 0;
#X connect 9 0 6 0;
#X connect 10 0 1 1;
#X connect 11 0 9 0;
#X connect 11 1 12 0;
#X connect 12 0 6 1;
#X connect 13 0 6 0;
#X connect 13 1 9 1;
#X connect 14 0 7 0;
#X restore 502 666 pd morph-parameters;
#X obj 502 694 s \$0-perc-filter-r;
#X obj 522 643 s \$0-perc-decay2-r;
#N canvas 0 22 1069 747 morph-attenuators 0;
#X obj 176 94 inlet;
#X obj 176 236 pack f f;
#X obj 176 261 line;
#X obj 209 117 r preset-manager-morph-s;
#X msg 72 244 stop;
#X obj 72 214 r STOP-MORPH!;
#X obj 209 206 spigot;
#X obj 398 137 t f f;
#X obj 455 154 == 0;
#X obj 221 176 f;
#X floatatom 455 222 5 0 0 0 - - -, f 5;
#X obj 398 159 t b f;
#X floatatom 425 192 5 0 0 0 - - -, f 5;
#X obj 209 139 t f f;
#X obj 398 102 r attenuators-s;
#X obj 176 288 outlet;
#X connect 0 0 1 0;
#X connect 1 0 2 0;
#X connect 2 0 15 0;
#X connect 3 0 13 0;
#X connect 4 0 2 0;
#X connect 5 0 4 0;
#X connect 6 0 1 1;
#X connect 7 0 11 0;
#X connect 7 1 8 0;
#X connect 8 0 10 0;
#X connect 9 0 6 0;
#X connect 10 0 1 1;
#X connect 11 0 9 0;
#X connect 11 1 12 0;
#X connect 12 0 6 1;
#X connect 13 0 6 0;
#X connect 13 1 9 1;
#X connect 14 0 7 0;
#X restore 533 575 pd morph-attenuators;
#X obj 532 597 s \$0-perc-decay2-cv-att-r;
#X obj 577 488 s \$0-flam-r;
#X obj 590 440 s \$0-flam-prob-r;
#X obj 607 385 s \$0-load-r;
#X obj 264 169 r \$0-perc-hp-s;
#X obj 559 542 s \$0-perc-hp-r;
#X connect 0 0 33 0;
#X connect 1 0 0 0;
#X connect 2 0 0 0;
#X connect 4 0 2 0;
#X connect 4 1 1 0;
#X connect 5 0 30 0;
#X connect 6 0 19 0;
#X connect 7 0 10 0;
#X connect 7 1 9 0;
#X connect 7 2 8 0;
#X connect 8 0 3 0;
#X connect 9 0 5 0;
#X connect 10 0 6 0;
#X connect 11 0 7 0;
#X connect 12 0 11 0;
#X connect 13 0 17 0;
#X connect 14 0 4 0;
#X connect 14 1 13 0;
#X connect 15 0 14 0;
#X connect 15 1 13 1;
#X connect 16 0 17 1;
#X connect 17 0 32 0;
#X connect 18 0 16 0;
#X connect 19 0 31 0;
#X connect 20 0 21 0;
#X connect 21 0 19 1;
#X connect 22 0 24 0;
#X connect 23 0 6 1;
#X connect 24 0 15 0;
#X connect 25 0 42 0;
#X connect 26 0 49 0;
#X connect 27 0 45 0;
#X connect 28 0 46 0;
#X connect 29 0 3 0;
#X connect 30 0 29 0;
#X connect 31 0 3 0;
#X connect 32 0 0 0;
#X connect 33 0 40 0;
#X connect 33 1 25 0;
#X connect 33 2 43 0;
#X connect 33 3 26 0;
#X connect 33 4 27 0;
#X connect 33 5 28 0;
#X connect 33 6 47 0;
#X connect 34 0 5 1;
#X connect 35 0 30 1;
#X connect 36 0 30 2;
#X connect 37 0 30 4;
#X connect 38 0 30 5;
#X connect 39 0 30 6;
#X connect 40 0 41 0;
#X connect 43 0 44 0;
#X connect 48 0 30 3;
#X restore 101 468 pd state-saving-via-preset-manager-module;
#N canvas 297 27 867 616 parameter-nudging-system 0;
#X obj 171 70 clip 0 127;
#N canvas 0 22 484 497 nudge-parameters 0;
#X obj 124 234 random;
#X obj 232 335 f;
#X obj 232 368 +;
#X obj 257 166 random 2;
#X obj 124 275 t f f;
#X obj 124 351 t b f;
#X obj 124 297 *;
#X obj 257 188 sel 0 1;
#X msg 257 280 -1;
#X msg 335 280 1;
#X obj 124 149 t b b b;
#X obj 124 74 r NUDGE!;
#X obj 157 193 r NUDGE-RANGE;
#X obj 247 308 inlet;
#X obj 232 397 outlet;
#X obj 124 96 spigot;
#X obj 185 79 r parameters2-s;
#X connect 0 0 4 0;
#X connect 1 0 2 0;
#X connect 2 0 14 0;
#X connect 3 0 7 0;
#X connect 4 0 6 0;
#X connect 5 0 2 0;
#X connect 5 1 2 1;
#X connect 6 0 5 0;
#X connect 7 0 8 0;
#X connect 7 1 9 0;
#X connect 8 0 6 1;
#X connect 9 0 6 1;
#X connect 10 0 0 0;
#X connect 10 1 1 0;
#X connect 10 2 3 0;
#X connect 11 0 15 0;
#X connect 12 0 0 1;
#X connect 13 0 1 1;
#X connect 15 0 10 0;
#X connect 16 0 15 1;
#X restore 171 48 pd nudge-parameters;
#X obj 28 185 clip 0 127;
#N canvas 0 22 484 497 nudge-parameters 0;
#X obj 124 234 random;
#X obj 232 335 f;
#X obj 232 368 +;
#X obj 257 166 random 2;
#X obj 124 275 t f f;
#X obj 124 351 t b f;
#X obj 124 297 *;
#X obj 257 188 sel 0 1;
#X msg 257 280 -1;
#X msg 335 280 1;
#X obj 124 149 t b b b;
#X obj 124 74 r NUDGE!;
#X obj 157 193 r NUDGE-RANGE;
#X obj 247 308 inlet;
#X obj 232 397 outlet;
#X obj 124 96 spigot;
#X obj 185 79 r parameters2-s;
#X connect 0 0 4 0;
#X connect 1 0 2 0;
#X connect 2 0 14 0;
#X connect 3 0 7 0;
#X connect 4 0 6 0;
#X connect 5 0 2 0;
#X connect 5 1 2 1;
#X connect 6 0 5 0;
#X connect 7 0 8 0;
#X connect 7 1 9 0;
#X connect 8 0 6 1;
#X connect 9 0 6 1;
#X connect 10 0 0 0;
#X connect 10 1 1 0;
#X connect 10 2 3 0;
#X connect 11 0 15 0;
#X connect 12 0 0 1;
#X connect 13 0 1 1;
#X connect 15 0 10 0;
#X connect 16 0 15 1;
#X restore 28 163 pd nudge-parameters;
#X obj 25 70 clip 0 127;
#N canvas 0 22 484 497 nudge-parameters 0;
#X obj 124 234 random;
#X obj 232 335 f;
#X obj 232 368 +;
#X obj 257 166 random 2;
#X obj 124 275 t f f;
#X obj 124 351 t b f;
#X obj 124 297 *;
#X obj 257 188 sel 0 1;
#X msg 257 280 -1;
#X msg 335 280 1;
#X obj 124 149 t b b b;
#X obj 124 74 r NUDGE!;
#X obj 157 193 r NUDGE-RANGE;
#X obj 247 308 inlet;
#X obj 232 397 outlet;
#X obj 124 96 spigot;
#X obj 185 79 r parameters2-s;
#X connect 0 0 4 0;
#X connect 1 0 2 0;
#X connect 2 0 14 0;
#X connect 3 0 7 0;
#X connect 4 0 6 0;
#X connect 5 0 2 0;
#X connect 5 1 2 1;
#X connect 6 0 5 0;
#X connect 7 0 8 0;
#X connect 7 1 9 0;
#X connect 8 0 6 1;
#X connect 9 0 6 1;
#X connect 10 0 0 0;
#X connect 10 1 1 0;
#X connect 10 2 3 0;
#X connect 11 0 15 0;
#X connect 12 0 0 1;
#X connect 13 0 1 1;
#X connect 15 0 10 0;
#X connect 16 0 15 1;
#X restore 25 48 pd nudge-parameters;
#X obj 23 22 r \$0-perc-filter-s;
#X obj 23 95 s \$0-perc-filter-r;
#X obj 171 22 r \$0-perc-decay2-s;
#X obj 171 95 s \$0-perc-decay2-r;
#N canvas 0 22 484 497 nudge-attenuators 0;
#X obj 124 234 random;
#X obj 232 335 f;
#X obj 232 368 +;
#X obj 257 166 random 2;
#X obj 124 275 t f f;
#X obj 124 351 t b f;
#X obj 124 297 *;
#X obj 257 188 sel 0 1;
#X msg 257 280 -1;
#X msg 335 280 1;
#X obj 124 149 t b b b;
#X obj 124 71 r NUDGE!;
#X obj 157 193 r NUDGE-RANGE;
#X obj 247 308 inlet;
#X obj 232 397 outlet;
#X obj 124 93 spigot;
#X obj 201 76 r attenuators2-s;
#X connect 0 0 4 0;
#X connect 1 0 2 0;
#X connect 2 0 14 0;
#X connect 3 0 7 0;
#X connect 4 0 6 0;
#X connect 5 0 2 0;
#X connect 5 1 2 1;
#X connect 6 0 5 0;
#X connect 7 0 8 0;
#X connect 7 1 9 0;
#X connect 8 0 6 1;
#X connect 9 0 6 1;
#X connect 10 0 0 0;
#X connect 10 1 1 0;
#X connect 10 2 3 0;
#X connect 11 0 15 0;
#X connect 12 0 0 1;
#X connect 13 0 1 1;
#X connect 15 0 10 0;
#X connect 16 0 15 1;
#X restore 307 43 pd nudge-attenuators;
#X obj 308 68 clip 0 127;
#X obj 307 17 r \$0-perc-decay2-cv-att-s;
#X obj 308 94 s \$0-perc-decay2-cv-att-r;
#X obj 201 185 clip 0 127;
#N canvas 0 22 484 497 nudge-parameters 0;
#X obj 124 234 random;
#X obj 232 335 f;
#X obj 232 368 +;
#X obj 257 166 random 2;
#X obj 124 275 t f f;
#X obj 124 351 t b f;
#X obj 124 297 *;
#X obj 257 188 sel 0 1;
#X msg 257 280 -1;
#X msg 335 280 1;
#X obj 124 149 t b b b;
#X obj 124 74 r NUDGE!;
#X obj 157 193 r NUDGE-RANGE;
#X obj 247 308 inlet;
#X obj 232 397 outlet;
#X obj 124 96 spigot;
#X obj 185 79 r parameters2-s;
#X connect 0 0 4 0;
#X connect 1 0 2 0;
#X connect 2 0 14 0;
#X connect 3 0 7 0;
#X connect 4 0 6 0;
#X connect 5 0 2 0;
#X connect 5 1 2 1;
#X connect 6 0 5 0;
#X connect 7 0 8 0;
#X connect 7 1 9 0;
#X connect 8 0 6 1;
#X connect 9 0 6 1;
#X connect 10 0 0 0;
#X connect 10 1 1 0;
#X connect 10 2 3 0;
#X connect 11 0 15 0;
#X connect 12 0 0 1;
#X connect 13 0 1 1;
#X connect 15 0 10 0;
#X connect 16 0 15 1;
#X restore 201 163 pd nudge-parameters;
#X obj 201 138 r \$0-flam-s;
#X obj 201 209 s \$0-flam-r;
#X obj 337 185 clip 0 127;
#N canvas 0 22 484 497 nudge-parameters 0;
#X obj 124 234 random;
#X obj 232 335 f;
#X obj 232 368 +;
#X obj 257 166 random 2;
#X obj 124 275 t f f;
#X obj 124 351 t b f;
#X obj 124 297 *;
#X obj 257 188 sel 0 1;
#X msg 257 280 -1;
#X msg 335 280 1;
#X obj 124 149 t b b b;
#X obj 124 74 r NUDGE!;
#X obj 157 193 r NUDGE-RANGE;
#X obj 247 308 inlet;
#X obj 232 397 outlet;
#X obj 124 96 spigot;
#X obj 185 79 r parameters2-s;
#X connect 0 0 4 0;
#X connect 1 0 2 0;
#X connect 2 0 14 0;
#X connect 3 0 7 0;
#X connect 4 0 6 0;
#X connect 5 0 2 0;
#X connect 5 1 2 1;
#X connect 6 0 5 0;
#X connect 7 0 8 0;
#X connect 7 1 9 0;
#X connect 8 0 6 1;
#X connect 9 0 6 1;
#X connect 10 0 0 0;
#X connect 10 1 1 0;
#X connect 10 2 3 0;
#X connect 11 0 15 0;
#X connect 12 0 0 1;
#X connect 13 0 1 1;
#X connect 15 0 10 0;
#X connect 16 0 15 1;
#X restore 337 163 pd nudge-parameters;
#X obj 337 138 r \$0-flam-prob-s;
#X obj 337 209 s \$0-flam-prob-r;
#X obj 28 211 s \$0-perc-hp-r;
#X obj 28 138 r \$0-perc-hp-s;
#X connect 0 0 9 0;
#X connect 1 0 0 0;
#X connect 2 0 22 0;
#X connect 3 0 2 0;
#X connect 4 0 7 0;
#X connect 5 0 4 0;
#X connect 6 0 5 0;
#X connect 8 0 1 0;
#X connect 10 0 11 0;
#X connect 11 0 13 0;
#X connect 12 0 10 0;
#X connect 14 0 17 0;
#X connect 15 0 14 0;
#X connect 16 0 15 0;
#X connect 18 0 21 0;
#X connect 19 0 18 0;
#X connect 20 0 19 0;
#X connect 23 0 3 0;
#X restore 101 445 pd parameter-nudging-system;
#X obj 276 395 r \$0-write-s;
#X obj 351 418 r \$0-load-s;
#N canvas 295 22 1008 752 store/load 0;
#X obj 290 212 pack f f;
#X obj 305 133 loadbang;
#X obj 305 155 f \$1;
#X obj 290 184 f;
#X obj 292 453 textfile;
#X msg 475 436 rewind;
#X obj 165 78 loadbang;
#X obj 19 174 delay 10;
#X text 59 52 WRITE;
#X obj 19 54 inlet;
#X obj 19 208 f;
#X obj 19 247 pack f f;
#X obj 165 126 t f f;
#X obj 165 104 f \$1;
#X msg -193 97 bang;
#X obj 22 597 textfile;
#X msg 97 236 clear;
#X obj 19 118 t b f b b;
#X obj 308 21 inlet;
#X text 353 19 LOAD;
#X msg 399 415 bang;
#X obj 412 375 t b b;
#X obj 308 43 t b f;
#X obj 290 90 t b b;
#X obj -412 344 f;
#N canvas 0 22 1084 659 unpack-values 0;
#X obj 182 32 inlet;
#X obj 182 59 unpack f f f f f f;
#X obj 181 578 s \$0-perc-filter-r;
#X obj 194 557 s \$0-perc-decay2-r;
#X obj 211 531 s \$0-perc-decay2-cv-att-r;
#X obj 224 510 s \$0-perc-hp--r;
#X obj 238 485 s \$0-flam-r;
#X obj 251 464 s \$0-flam-prob-r;
#X connect 0 0 1 0;
#X connect 1 0 2 0;
#X connect 1 1 3 0;
#X connect 1 2 4 0;
#X connect 1 3 5 0;
#X connect 1 4 6 0;
#X connect 1 5 7 0;
#X restore 292 479 pd unpack-values;
#X obj 308 67 delay 100;
#X obj 411 85 f;
#X obj 411 24 r SAVE-S;
#X obj 426 56 r \$0-load-s;
#X obj 411 107 s \$0-write-r;
#X msg 19 329 write statesave/\$1-complex-hihatpreset-\$2-ss.txt;
#X msg 291 297 read statesave/\$1-complex-hihatpreset-\$2-ss.txt;
#X msg -378 522 set \$1 \$2 \$3 \$4 \$5 \$6;
#X obj -377 481 pack f f f f f f;
#X obj -421 18 r \$0-perc-filter-s;
#X obj -387 44 r \$0-perc-decay2-s;
#X obj -371 64 r \$0-perc-decay2-cv-att-s;
#X obj -355 84 r \$0-perc-hp--s;
#X obj -337 103 r \$0-flam-s;
#X obj -321 123 r \$0-flam-prob-s;
#X connect 0 0 32 0;
#X connect 1 0 2 0;
#X connect 2 0 3 1;
#X connect 3 0 0 0;
#X connect 4 0 25 0;
#X connect 5 0 4 0;
#X connect 6 0 13 0;
#X connect 7 0 10 0;
#X connect 9 0 17 0;
#X connect 10 0 11 0;
#X connect 11 0 31 0;
#X connect 12 0 10 1;
#X connect 13 0 12 0;
#X connect 14 0 24 0;
#X connect 16 0 15 0;
#X connect 17 0 7 0;
#X connect 17 1 11 1;
#X connect 17 2 14 0;
#X connect 17 3 16 0;
#X connect 18 0 22 0;
#X connect 20 0 4 0;
#X connect 21 0 20 0;
#X connect 21 1 5 0;
#X connect 22 0 26 0;
#X connect 22 1 0 1;
#X connect 23 0 21 0;
#X connect 23 1 3 0;
#X connect 24 0 34 0;
#X connect 26 0 23 0;
#X connect 27 0 30 0;
#X connect 28 0 27 0;
#X connect 29 0 27 1;
#X connect 31 0 15 0;
#X connect 32 0 4 0;
#X connect 33 0 15 0;
#X connect 34 0 33 0;
#X connect 35 0 24 1;
#X connect 36 0 34 1;
#X connect 37 0 34 2;
#X connect 38 0 34 3;
#X connect 39 0 34 4;
#X connect 40 0 34 5;
#X restore 276 444 pd store/load;
#X obj 615 556 hip~;
#X obj 615 578 hip~;
#X obj 702 451 r \$0-perc-hp-s;
#X obj 246 656 makefilename %d;
#X obj 246 704 s \$0-write-r;
#X floatatom 246 636 5 0 0 0 - - -, f 5;
#X obj 246 575 r \$0-write-s;
#X msg 246 681 label STORE-\$1;
#X obj 363 656 makefilename %d;
#X floatatom 363 636 5 0 0 0 - - -, f 5;
#X obj 363 575 r \$0-load-s;
#X obj 363 704 s \$0-load-r;
#X msg 363 681 label LOAD-\$1;
#X obj 246 597 + 1;
#X obj 363 597 + 1;
#X obj 223 530 loadbang;
#X msg 223 552 0;
#N canvas 569 47 1280 809 external-messages 0;
#X floatatom -71 513 5 0 0 0 - - -, f 5;
#X obj 43 328 spigot;
#X obj 76 288 tgl 15 0 empty empty empty 17 7 0 10 -262144 -1 -1 0
1;
#X obj 112 272 ==;
#X obj 127 248 f \$1;
#X obj 127 224 loadbang;
#X msg 43 202 \$1 \$2;
#X msg 43 156 symbol \$1;
#X obj 43 180 pack s f;
#X obj -71 492 f;
#X obj -71 440 t b f;
#X obj -71 463 spigot;
#X obj 43 62 unpack s f f;
#X symbolatom 43 94 10 0 0 0 - - -, f 10;
#X obj 76 308 t f f;
#X obj 103 332 s \$0-msg-spigot;
#X obj -23 447 r \$0-msg-spigot;
#X floatatom -45 657 5 0 0 0 - - -, f 5;
#X obj -45 636 f;
#X obj -45 584 t b f;
#X obj -45 607 spigot;
#X obj 3 591 r \$0-msg-spigot;
#X floatatom 106 549 5 0 0 0 - - -, f 5;
#X obj 106 528 f;
#X obj 106 476 t b f;
#X obj 106 499 spigot;
#X obj 154 483 r \$0-msg-spigot;
#X floatatom 145 687 5 0 0 0 - - -, f 5;
#X obj 145 666 f;
#X obj 145 614 t b f;
#X obj 145 637 spigot;
#X obj 193 621 r \$0-msg-spigot;
#X floatatom 270 523 5 0 0 0 - - -, f 5;
#X obj 270 502 f;
#X obj 270 450 t b f;
#X obj 270 473 spigot;
#X obj 318 457 r \$0-msg-spigot;
#X floatatom 315 690 5 0 0 0 - - -, f 5;
#X obj 315 669 f;
#X obj 315 617 t b f;
#X obj 315 640 spigot;
#X obj 363 624 r \$0-msg-spigot;
#X obj 43 14 r hihat;
#X obj 43 380 route STRIKE DECAY DECAY-CV FILTER FLAM FLAM-PROB;
#X obj -71 533 s \$0-perc-filter-r;
#X obj -45 677 s \$0-perc-decay2-r;
#X obj 106 569 s \$0-perc-decay2-cv-att-r;
#X obj 145 707 s \$0-perc-hp-r;
#X obj 270 543 s \$0-flam-r;
#X obj 315 710 s \$0-flam-prob-r;
#X connect 0 0 44 0;
#X connect 1 0 43 0;
#X connect 2 0 14 0;
#X connect 3 0 2 0;
#X connect 4 0 3 1;
#X connect 5 0 4 0;
#X connect 6 0 1 0;
#X connect 7 0 8 0;
#X connect 8 0 6 0;
#X connect 9 0 0 0;
#X connect 10 0 11 0;
#X connect 10 1 9 1;
#X connect 11 0 9 0;
#X connect 12 0 13 0;
#X connect 12 1 8 1;
#X connect 12 2 3 0;
#X connect 13 0 7 0;
#X connect 14 0 1 1;
#X connect 14 1 15 0;
#X connect 16 0 11 1;
#X connect 17 0 45 0;
#X connect 18 0 17 0;
#X connect 19 0 20 0;
#X connect 19 1 18 1;
#X connect 20 0 18 0;
#X connect 21 0 20 1;
#X connect 22 0 46 0;
#X connect 23 0 22 0;
#X connect 24 0 25 0;
#X connect 24 1 23 1;
#X connect 25 0 23 0;
#X connect 26 0 25 1;
#X connect 27 0 47 0;
#X connect 28 0 27 0;
#X connect 29 0 30 0;
#X connect 29 1 28 1;
#X connect 30 0 28 0;
#X connect 31 0 30 1;
#X connect 32 0 48 0;
#X connect 33 0 32 0;
#X connect 34 0 35 0;
#X connect 34 1 33 1;
#X connect 35 0 33 0;
#X connect 36 0 35 1;
#X connect 37 0 49 0;
#X connect 38 0 37 0;
#X connect 39 0 40 0;
#X connect 39 1 38 1;
#X connect 40 0 38 0;
#X connect 41 0 40 1;
#X connect 42 0 12 0;
#X connect 43 0 10 0;
#X connect 43 1 19 0;
#X connect 43 2 24 0;
#X connect 43 3 29 0;
#X connect 43 4 34 0;
#X connect 43 5 39 0;
#X restore 86 596 pd external-messages;
#X connect 1 0 2 0;
#X connect 2 0 3 0;
#X connect 3 0 0 0;
#X connect 3 1 79 0;
#X connect 4 0 50 0;
#X connect 4 0 62 0;
#X connect 5 0 7 0;
#X connect 6 0 4 0;
#X connect 7 0 6 0;
#X connect 8 0 60 0;
#X connect 9 0 11 0;
#X connect 10 0 8 0;
#X connect 11 0 10 0;
#X connect 12 0 5 0;
#X connect 14 0 15 0;
#X connect 15 0 16 0;
#X connect 16 0 17 0;
#X connect 17 0 62 1;
#X connect 17 0 63 1;
#X connect 18 0 19 0;
#X connect 18 0 19 1;
#X connect 19 0 20 0;
#X connect 19 0 20 1;
#X connect 20 0 23 0;
#X connect 21 0 65 0;
#X connect 24 0 25 0;
#X connect 25 0 17 1;
#X connect 26 0 37 0;
#X connect 27 0 26 1;
#X connect 28 0 72 0;
#X connect 29 0 49 0;
#X connect 30 0 31 0;
#X connect 31 0 29 0;
#X connect 32 0 30 0;
#X connect 33 0 37 0;
#X connect 34 0 35 0;
#X connect 35 0 50 1;
#X connect 36 0 33 1;
#X connect 37 0 66 0;
#X connect 38 0 40 0;
#X connect 38 0 40 1;
#X connect 39 0 38 0;
#X connect 40 0 41 0;
#X connect 40 0 41 1;
#X connect 41 0 47 0;
#X connect 42 0 39 0;
#X connect 43 0 42 0;
#X connect 44 0 51 0;
#X connect 45 0 105 0;
#X connect 46 0 44 0;
#X connect 48 0 37 1;
#X connect 49 0 34 0;
#X connect 50 0 33 0;
#X connect 51 0 45 0;
#X connect 52 0 53 0;
#X connect 52 0 53 1;
#X connect 53 0 54 0;
#X connect 53 0 54 1;
#X connect 54 0 55 0;
#X connect 56 0 64 0;
#X connect 57 0 58 0;
#X connect 58 0 59 0;
#X connect 59 0 82 0;
#X connect 60 0 59 1;
#X connect 61 0 14 0;
#X connect 62 0 63 0;
#X connect 63 0 26 0;
#X connect 64 0 52 0;
#X connect 65 0 18 0;
#X connect 66 0 136 0;
#X connect 68 0 69 0;
#X connect 69 0 70 0;
#X connect 70 0 66 1;
#X connect 70 0 136 1;
#X connect 70 0 137 1;
#X connect 72 0 29 0;
#X connect 82 0 12 0;
#X connect 83 0 9 0;
#X connect 84 0 85 0;
#X connect 85 0 57 0;
#X connect 86 0 88 0;
#X connect 87 0 95 0;
#X connect 88 0 89 0;
#X connect 89 0 90 0;
#X connect 89 0 91 0;
#X connect 90 0 89 1;
#X connect 91 0 92 0;
#X connect 92 0 93 0;
#X connect 94 0 89 0;
#X connect 95 0 96 0;
#X connect 96 0 97 0;
#X connect 102 0 103 0;
#X connect 103 0 17 1;
#X connect 104 0 102 0;
#X connect 105 0 106 0;
#X connect 106 1 42 1;
#X connect 107 0 108 0;
#X connect 107 0 114 0;
#X connect 108 0 122 0;
#X connect 109 0 113 0;
#X connect 110 0 111 0;
#X connect 111 0 112 0;
#X connect 112 0 109 0;
#X connect 113 0 120 0;
#X connect 114 0 116 0;
#X connect 115 0 117 0;
#X connect 116 0 115 0;
#X connect 117 0 118 0;
#X connect 118 0 119 0;
#X connect 119 0 105 1;
#X connect 120 0 105 0;
#X connect 120 1 105 1;
#X connect 122 0 109 0;
#X connect 123 0 124 0;
#X connect 124 0 125 0;
#X connect 125 0 126 0;
#X connect 126 0 122 1;
#X connect 127 0 129 0;
#X connect 129 0 130 0;
#X connect 130 0 128 0;
#X connect 133 0 135 0;
#X connect 134 0 135 1;
#X connect 136 0 137 0;
#X connect 137 0 71 0;
#X connect 138 0 68 0;
#X connect 139 0 143 0;
#X connect 141 0 139 0;
#X connect 142 0 149 0;
#X connect 143 0 140 0;
#X connect 144 0 148 0;
#X connect 145 0 144 0;
#X connect 146 0 150 0;
#X connect 148 0 147 0;
#X connect 149 0 141 0;
#X connect 150 0 145 0;
#X connect 151 0 152 0;
#X connect 152 0 149 0;
#X coords 0 -1 1 1 215 170 2 100 100;
