#N canvas 296 23 1015 752 10;
#X obj 108 133 hsl 128 15 0 127 0 1 \$0-karplus2-pitch-s \$0-karplus2-pitch-r
PITCH 135 7 0 10 -262144 -1 -1 0 1;
#X obj 132 393 noise~;
#X obj 182 668 *~;
#X obj 108 148 hsl 128 15 0 127 0 1 \$0-karplus2-contour-s \$0-karplus2-contour-r
CONTOUR 135 7 0 10 -262144 -1 -1 0 1;
#X obj 108 178 hsl 128 15 0 127 0 1 \$0-karplus2-resonate-s \$0-karplus2-resonate-r
RESONATE 135 7 0 10 -262144 -1 -1 0 1;
#X obj 453 758 *~ 0.99;
#X obj 71 580 vd~ \$0-kps;
#X obj 105 116 bng 15 50 50 0 empty empty empty 17 7 0 10 -262144 -226533
-1;
#X obj 474 592 / 127;
#X obj 474 614 * 4800;
#X obj 474 636 + 200;
#X floatatom 206 119 5 0 0 0 - - -, f 5;
#X obj 420 597 *~;
#X obj 108 163 hsl 128 15 0 127 0 1 \$0-karplus2-damp-slider-s \$0-karplus2-damp-slider-r
DAMP 135 7 0 10 -262144 -1 -1 0 1;
#X obj 435 476 pack 0 50;
#X obj 435 498 line~;
#X obj 435 408 / 127;
#X obj 435 430 * 0.1999;
#X obj 435 452 + 0.8;
#X obj -175 126 threshold~ 0.9 0 0.9 0;
#X obj 71 276 r \$0-karplus2-pitch-s;
#X obj 474 568 r \$0-karplus2-damp-s;
#X obj -176 323 s \$0-karplus-excite-bang1!;
#X obj 262 253 r \$0-karplus-excite-bang1!;
#X obj 183 699 delwrite~ \$0-kps 20;
#X obj 71 345 mtof~;
#X obj 435 145 *~ 127;
#X obj 71 321 +~;
#X obj 71 372 expr~ 1000 / $v1;
#X obj 71 298 sig~;
#X obj 435 376 r \$0-karplus2-resonate-s;
#X obj -175 147 f;
#X obj -147 147 + 1;
#X msg 289 318 reset;
#X obj -156 295 s \$0-karplus-excite-bang2!;
#X obj 71 394 lop~ 10;
#X obj 487 162 s~ \$0-kps-pitch-cv;
#N canvas 622 28 646 635 contour 0;
#X obj 198 158 spigot;
#X floatatom 198 180 5 0 0 0 - - -, f 5;
#X obj 164 112 spigot;
#X obj 197 87 < 64;
#X obj 164 137 clip 0 64;
#X obj 197 67 t f f f f;
#X obj 153 429 pack f f;
#X msg 153 454 1 \$2 \, 0 \$1 \$2;
#X obj 153 288 f;
#X obj 164 158 / 64;
#X obj 198 221 - 63;
#X obj 198 243 / 64;
#X obj 231 108 > 63;
#X obj 198 199 clip 63 127;
#X obj 164 183 * 990;
#X obj 164 205 + 10;
#X obj 198 266 * 999;
#X obj 198 288 + 1;
#X obj 153 476 vline~;
#X obj 153 540 outlet~;
#X obj 197 43 r \$0-karplus2-excite-s;
#X obj 153 14 inlet;
#X obj 198 310 t f f;
#X msg 225 333 1000 \$1;
#X obj 225 355 -;
#X connect 0 0 1 0;
#X connect 1 0 13 0;
#X connect 2 0 4 0;
#X connect 3 0 2 1;
#X connect 4 0 9 0;
#X connect 5 0 3 0;
#X connect 5 1 2 0;
#X connect 5 2 12 0;
#X connect 5 3 0 0;
#X connect 6 0 7 0;
#X connect 7 0 18 0;
#X connect 8 0 6 0;
#X connect 9 0 14 0;
#X connect 10 0 11 0;
#X connect 11 0 16 0;
#X connect 12 0 0 1;
#X connect 13 0 10 0;
#X connect 14 0 15 0;
#X connect 15 0 8 1;
#X connect 16 0 17 0;
#X connect 17 0 22 0;
#X connect 18 0 19 0;
#X connect 20 0 5 0;
#X connect 21 0 8 0;
#X connect 22 0 6 1;
#X connect 22 1 23 0;
#X connect 23 0 24 0;
#X connect 24 0 8 1;
#X restore 265 651 pd contour;
#X obj 290 365 / 127;
#X obj 290 387 * 4800;
#X obj 290 409 + 200;
#X obj 108 193 hsl 128 15 0 127 0 1 \$0-karplus2-color-s \$0-karplus2-color-r
COLOR 135 7 0 10 -262144 -1 -1 0 1;
#X obj 290 341 r \$0-karplus2-color-s;
#X obj 435 304 samphold~;
#X obj 262 275 t b b;
#X obj -144 262 s \$0-karplus-excite-bang3!;
#X obj -124 234 s \$0-karplus-excite-bang4!;
#N canvas 0 23 915 739 karplus2 0;
#X obj 186 509 *~;
#X obj 26 531 outlet~;
#X obj 403 455 / 127;
#X obj 403 477 * 4800;
#X obj 403 499 + 200;
#X obj 350 438 *~;
#X obj 365 349 pack 0 50;
#X obj 365 371 line~;
#X obj 365 281 / 127;
#X obj 365 303 * 0.1999;
#X obj 365 325 + 0.8;
#X obj 26 117 r \$0-karplus2-pitch-s;
#X obj 403 430 r \$0-karplus2-damp-s;
#X obj 26 186 mtof~;
#X obj 26 162 +~;
#X obj 26 213 expr~ 1000 / $v1;
#X obj 26 139 sig~;
#X obj 365 249 r \$0-karplus2-resonate-s;
#X msg 293 200 reset;
#X obj 26 235 lop~ 10;
#N canvas 622 28 646 635 contour 0;
#X obj 198 158 spigot;
#X floatatom 198 180 5 0 0 0 - - -, f 5;
#X obj 164 112 spigot;
#X obj 197 87 < 64;
#X obj 164 137 clip 0 64;
#X obj 197 67 t f f f f;
#X obj 153 429 pack f f;
#X msg 153 454 1 \$2 \, 0 \$1 \$2;
#X obj 153 288 f;
#X obj 164 158 / 64;
#X obj 198 221 - 63;
#X obj 198 243 / 64;
#X obj 231 108 > 63;
#X obj 198 199 clip 63 127;
#X obj 164 183 * 990;
#X obj 164 205 + 10;
#X obj 198 266 * 999;
#X obj 198 288 + 1;
#X obj 153 476 vline~;
#X obj 153 540 outlet~;
#X obj 197 43 r \$0-karplus2-excite-s;
#X obj 153 14 inlet;
#X obj 198 310 t f f;
#X msg 225 333 1000 \$1;
#X obj 225 355 -;
#X connect 0 0 1 0;
#X connect 1 0 13 0;
#X connect 2 0 4 0;
#X connect 3 0 2 1;
#X connect 4 0 9 0;
#X connect 5 0 3 0;
#X connect 5 1 2 0;
#X connect 5 2 12 0;
#X connect 5 3 0 0;
#X connect 6 0 7 0;
#X connect 7 0 18 0;
#X connect 8 0 6 0;
#X connect 9 0 14 0;
#X connect 10 0 11 0;
#X connect 11 0 16 0;
#X connect 12 0 0 1;
#X connect 13 0 10 0;
#X connect 14 0 15 0;
#X connect 15 0 8 1;
#X connect 16 0 17 0;
#X connect 17 0 22 0;
#X connect 18 0 19 0;
#X connect 20 0 5 0;
#X connect 21 0 8 0;
#X connect 22 0 6 1;
#X connect 22 1 23 0;
#X connect 23 0 24 0;
#X connect 24 0 8 1;
#X restore 269 492 pd contour;
#X obj 202 282 / 127;
#X obj 202 304 * 4800;
#X obj 202 326 + 200;
#X obj 202 258 r \$0-karplus2-color-s;
#X obj 439 145 samphold~;
#X obj 266 125 t b b;
#X obj 186 533 delwrite~ \$0-kps2 20;
#X obj 26 421 vd~ \$0-kps2;
#X obj 266 103 r \$0-karplus-excite-bang2!;
#X obj 439 118 r~ \$0-kps-pitch-cv;
#X obj 293 166 delay 3;
#X obj 41 48 r~ \$0-kps-free-running-pitch-cv;
#X obj 202 375 line~;
#X obj 202 397 +~;
#X obj 219 477 vcf~ 1;
#X obj 186 421 vcf~ 1;
#X obj 219 449 *~ 2;
#X obj 350 608 *~ 0.99;
#X obj 350 562 lop~;
#X obj 403 521 t f f;
#X obj 350 584 lop~;
#X obj 146 183 noise~;
#X obj 146 286 *~;
#X obj 161 205 r \$0-kps-kill-noise;
#X obj 186 226 r~ \$0-kps-ext;
#X obj 202 353 pack 0 50;
#X obj 241 380 r~ \$0-kps-color-cv;
#X obj 365 393 +~;
#X connect 0 0 27 0;
#X connect 2 0 3 0;
#X connect 3 0 4 0;
#X connect 4 0 40 0;
#X connect 5 0 39 0;
#X connect 6 0 7 0;
#X connect 7 0 48 0;
#X connect 8 0 9 0;
#X connect 9 0 10 0;
#X connect 10 0 6 0;
#X connect 11 0 16 0;
#X connect 12 0 2 0;
#X connect 13 0 15 0;
#X connect 14 0 13 0;
#X connect 15 0 19 0;
#X connect 16 0 14 0;
#X connect 17 0 8 0;
#X connect 18 0 25 0;
#X connect 19 0 28 0;
#X connect 20 0 0 1;
#X connect 21 0 22 0;
#X connect 22 0 23 0;
#X connect 23 0 46 0;
#X connect 24 0 21 0;
#X connect 25 0 14 1;
#X connect 26 0 20 0;
#X connect 26 1 31 0;
#X connect 28 0 5 0;
#X connect 28 0 1 0;
#X connect 29 0 26 0;
#X connect 30 0 25 0;
#X connect 31 0 18 0;
#X connect 32 0 14 1;
#X connect 33 0 34 0;
#X connect 34 0 35 1;
#X connect 34 0 36 1;
#X connect 35 1 0 0;
#X connect 36 1 37 0;
#X connect 37 0 35 0;
#X connect 38 0 27 0;
#X connect 39 0 41 0;
#X connect 40 0 39 1;
#X connect 40 1 41 1;
#X connect 41 0 38 0;
#X connect 42 0 43 0;
#X connect 43 0 36 0;
#X connect 44 0 43 1;
#X connect 45 0 36 0;
#X connect 46 0 33 0;
#X connect 47 0 34 1;
#X connect 48 0 5 1;
#X restore -5 580 pd karplus2;
#X obj 517 304 *~;
#X obj 517 326 s~ \$0-kps-free-running-pitch-cv;
#X obj 306 103 tgl 15 1 \$0-kps-free-s \$0-kps-free-r FREE 17 7 0 10
-262144 -1 -1 0 1;
#X obj 532 273 r \$0-kps-free-s;
#X obj -175 348 r \$0-karplus2-contour-s;
#X obj -175 370 sig~;
#X obj -175 414 +~;
#X obj -175 452 snapshot~;
#X obj -175 500 s \$0-karplus2-excite-s;
#X obj -70 413 loadbang;
#X obj -70 435 metro 20;
#X obj -175 474 clip 0 127;
#X obj -175 104 inlet~ 1-TRIG;
#X obj 485 76 *~ 127;
#X obj 485 98 s~ \$0-kps-contour-cv;
#X obj -160 391 r~ \$0-kps-contour-cv;
#X obj 105 109 cnv 5 5 5 empty empty EXC. 0 0 0 8 -262144 -226533 0
;
#X obj 124 125 cnv 5 5 5 empty empty KARPLUS 0 0 0 12 -262144 -66577
0;
#X obj 284 109 cnv 5 5 5 empty empty CLR 0 0 0 8 -262144 -1 0;
#X obj 273 218 cnv 5 5 5 empty empty RIGHT 0 0 0 8 -262144 -1 0;
#X obj 178 125 cnv 5 5 5 empty \$0-instance-num 2 0 0 0 12 -262144
-66577 0;
#X obj 127 109 cnv 5 5 5 empty empty EXT.EX 0 0 0 8 -262144 -1 0;
#X obj 290 453 line~;
#X obj 290 502 +~;
#X obj 307 588 vcf~ 1;
#X obj 274 531 vcf~ 1;
#X obj 307 563 *~ 2;
#X obj 453 686 lop~;
#X obj 453 708 lop~;
#X obj 474 658 t f f;
#X obj -174 546 sig~;
#X obj -174 590 +~;
#X obj -174 628 snapshot~;
#X obj -69 589 loadbang;
#X obj -69 611 metro 20;
#X obj -174 650 clip 0 127;
#X obj -174 524 r \$0-karplus2-damp-slider-s;
#X obj -159 567 r~ \$0-kps-damp-cv;
#X obj -174 676 s \$0-karplus2-damp-s;
#X obj 616 121 *~ 127;
#X obj 616 143 s~ \$0-kps-damp-cv;
#X obj 132 514 *~;
#X obj -63 -24 env~;
#X obj -63 -2 > 0;
#X floatatom -63 20 5 0 0 0 - - -, f 5;
#X obj -78 65 *~;
#X obj -63 39 t f f;
#X obj -36 61 == 0;
#X obj -78 103 s~ \$0-kps-ext;
#X obj -36 83 s \$0-kps-kill-noise;
#X obj 147 412 r \$0-kps-kill-noise;
#X obj 158 436 r~ \$0-kps-ext;
#X obj -78 -45 *~ 0.5;
#X obj -78 -69 inlet~ 2-EXT.EXCITE;
#X obj 435 123 inlet~ 3-PITCH CV;
#X obj 485 54 inlet~ 4-CONTOUR;
#X obj 616 99 inlet~ 5-DAMP;
#X obj 210 109 cnv 5 5 5 empty empty CNTR 0 0 0 8 -262144 -1 0;
#X obj 249 109 cnv 5 5 5 empty empty DAMP 0 0 0 8 -262144 -1 0;
#X obj 748 186 s~ \$0-kps-color-cv;
#X obj 305 474 r~ \$0-kps-color-cv;
#X obj 290 431 pack 0 50;
#X obj 748 119 *~ 4800;
#X obj 748 141 +~ 200;
#X obj 435 520 +~;
#X obj 435 542 clip~ 0.8 0.9999;
#X obj -175 191 sel 0 1 2 3;
#N canvas 0 23 915 739 karplus3 0;
#X obj 186 509 *~;
#X obj 26 531 outlet~;
#X obj 403 455 / 127;
#X obj 403 477 * 4800;
#X obj 403 499 + 200;
#X obj 350 438 *~;
#X obj 365 349 pack 0 50;
#X obj 365 371 line~;
#X obj 365 281 / 127;
#X obj 365 303 * 0.1999;
#X obj 365 325 + 0.8;
#X obj 26 117 r \$0-karplus2-pitch-s;
#X obj 403 430 r \$0-karplus2-damp-s;
#X obj 26 186 mtof~;
#X obj 26 162 +~;
#X obj 26 213 expr~ 1000 / $v1;
#X obj 26 139 sig~;
#X obj 365 249 r \$0-karplus2-resonate-s;
#X msg 293 200 reset;
#X obj 26 235 lop~ 10;
#N canvas 622 28 646 635 contour 0;
#X obj 198 158 spigot;
#X floatatom 198 180 5 0 0 0 - - -, f 5;
#X obj 164 112 spigot;
#X obj 197 87 < 64;
#X obj 164 137 clip 0 64;
#X obj 197 67 t f f f f;
#X obj 153 429 pack f f;
#X msg 153 454 1 \$2 \, 0 \$1 \$2;
#X obj 153 288 f;
#X obj 164 158 / 64;
#X obj 198 221 - 63;
#X obj 198 243 / 64;
#X obj 231 108 > 63;
#X obj 198 199 clip 63 127;
#X obj 164 183 * 990;
#X obj 164 205 + 10;
#X obj 198 266 * 999;
#X obj 198 288 + 1;
#X obj 153 476 vline~;
#X obj 153 540 outlet~;
#X obj 197 43 r \$0-karplus2-excite-s;
#X obj 153 14 inlet;
#X obj 198 310 t f f;
#X msg 225 333 1000 \$1;
#X obj 225 355 -;
#X connect 0 0 1 0;
#X connect 1 0 13 0;
#X connect 2 0 4 0;
#X connect 3 0 2 1;
#X connect 4 0 9 0;
#X connect 5 0 3 0;
#X connect 5 1 2 0;
#X connect 5 2 12 0;
#X connect 5 3 0 0;
#X connect 6 0 7 0;
#X connect 7 0 18 0;
#X connect 8 0 6 0;
#X connect 9 0 14 0;
#X connect 10 0 11 0;
#X connect 11 0 16 0;
#X connect 12 0 0 1;
#X connect 13 0 10 0;
#X connect 14 0 15 0;
#X connect 15 0 8 1;
#X connect 16 0 17 0;
#X connect 17 0 22 0;
#X connect 18 0 19 0;
#X connect 20 0 5 0;
#X connect 21 0 8 0;
#X connect 22 0 6 1;
#X connect 22 1 23 0;
#X connect 23 0 24 0;
#X connect 24 0 8 1;
#X restore 269 492 pd contour;
#X obj 202 282 / 127;
#X obj 202 304 * 4800;
#X obj 202 326 + 200;
#X obj 202 258 r \$0-karplus2-color-s;
#X obj 439 145 samphold~;
#X obj 266 125 t b b;
#X obj 439 118 r~ \$0-kps-pitch-cv;
#X obj 41 48 r~ \$0-kps-free-running-pitch-cv;
#X obj 202 375 line~;
#X obj 202 397 +~;
#X obj 219 477 vcf~ 1;
#X obj 186 421 vcf~ 1;
#X obj 219 449 *~ 2;
#X obj 350 608 *~ 0.99;
#X obj 350 562 lop~;
#X obj 403 521 t f f;
#X obj 350 584 lop~;
#X obj 146 183 noise~;
#X obj 146 286 *~;
#X obj 161 205 r \$0-kps-kill-noise;
#X obj 186 226 r~ \$0-kps-ext;
#X obj 202 353 pack 0 50;
#X obj 241 380 r~ \$0-kps-color-cv;
#X obj 365 393 +~;
#X obj 266 103 r \$0-karplus-excite-bang3!;
#X obj 186 533 delwrite~ \$0-kps3 20;
#X obj 26 421 vd~ \$0-kps3;
#X obj 293 166 delay 5;
#X connect 0 0 46 0;
#X connect 2 0 3 0;
#X connect 3 0 4 0;
#X connect 4 0 36 0;
#X connect 5 0 35 0;
#X connect 6 0 7 0;
#X connect 7 0 44 0;
#X connect 8 0 9 0;
#X connect 9 0 10 0;
#X connect 10 0 6 0;
#X connect 11 0 16 0;
#X connect 12 0 2 0;
#X connect 13 0 15 0;
#X connect 14 0 13 0;
#X connect 15 0 19 0;
#X connect 16 0 14 0;
#X connect 17 0 8 0;
#X connect 18 0 25 0;
#X connect 19 0 47 0;
#X connect 20 0 0 1;
#X connect 21 0 22 0;
#X connect 22 0 23 0;
#X connect 23 0 42 0;
#X connect 24 0 21 0;
#X connect 25 0 14 1;
#X connect 26 0 20 0;
#X connect 26 1 48 0;
#X connect 27 0 25 0;
#X connect 28 0 14 1;
#X connect 29 0 30 0;
#X connect 30 0 31 1;
#X connect 30 0 32 1;
#X connect 31 1 0 0;
#X connect 32 1 33 0;
#X connect 33 0 31 0;
#X connect 34 0 46 0;
#X connect 35 0 37 0;
#X connect 36 0 35 1;
#X connect 36 1 37 1;
#X connect 37 0 34 0;
#X connect 38 0 39 0;
#X connect 39 0 32 0;
#X connect 40 0 39 1;
#X connect 41 0 32 0;
#X connect 42 0 29 0;
#X connect 43 0 30 1;
#X connect 44 0 5 1;
#X connect 45 0 26 0;
#X connect 47 0 5 0;
#X connect 47 0 1 0;
#X connect 48 0 18 0;
#X restore 107 609 pd karplus3;
#N canvas 0 23 915 739 karplus4 0;
#X obj 186 509 *~;
#X obj 26 531 outlet~;
#X obj 403 455 / 127;
#X obj 403 477 * 4800;
#X obj 403 499 + 200;
#X obj 350 438 *~;
#X obj 365 349 pack 0 50;
#X obj 365 371 line~;
#X obj 365 281 / 127;
#X obj 365 303 * 0.1999;
#X obj 365 325 + 0.8;
#X obj 26 117 r \$0-karplus2-pitch-s;
#X obj 403 430 r \$0-karplus2-damp-s;
#X obj 26 186 mtof~;
#X obj 26 162 +~;
#X obj 26 213 expr~ 1000 / $v1;
#X obj 26 139 sig~;
#X obj 365 249 r \$0-karplus2-resonate-s;
#X msg 293 200 reset;
#X obj 26 235 lop~ 10;
#N canvas 622 28 646 635 contour 0;
#X obj 198 158 spigot;
#X floatatom 198 180 5 0 0 0 - - -, f 5;
#X obj 164 112 spigot;
#X obj 197 87 < 64;
#X obj 164 137 clip 0 64;
#X obj 197 67 t f f f f;
#X obj 153 429 pack f f;
#X msg 153 454 1 \$2 \, 0 \$1 \$2;
#X obj 153 288 f;
#X obj 164 158 / 64;
#X obj 198 221 - 63;
#X obj 198 243 / 64;
#X obj 231 108 > 63;
#X obj 198 199 clip 63 127;
#X obj 164 183 * 990;
#X obj 164 205 + 10;
#X obj 198 266 * 999;
#X obj 198 288 + 1;
#X obj 153 476 vline~;
#X obj 153 540 outlet~;
#X obj 197 43 r \$0-karplus2-excite-s;
#X obj 153 14 inlet;
#X obj 198 310 t f f;
#X msg 225 333 1000 \$1;
#X obj 225 355 -;
#X connect 0 0 1 0;
#X connect 1 0 13 0;
#X connect 2 0 4 0;
#X connect 3 0 2 1;
#X connect 4 0 9 0;
#X connect 5 0 3 0;
#X connect 5 1 2 0;
#X connect 5 2 12 0;
#X connect 5 3 0 0;
#X connect 6 0 7 0;
#X connect 7 0 18 0;
#X connect 8 0 6 0;
#X connect 9 0 14 0;
#X connect 10 0 11 0;
#X connect 11 0 16 0;
#X connect 12 0 0 1;
#X connect 13 0 10 0;
#X connect 14 0 15 0;
#X connect 15 0 8 1;
#X connect 16 0 17 0;
#X connect 17 0 22 0;
#X connect 18 0 19 0;
#X connect 20 0 5 0;
#X connect 21 0 8 0;
#X connect 22 0 6 1;
#X connect 22 1 23 0;
#X connect 23 0 24 0;
#X connect 24 0 8 1;
#X restore 269 492 pd contour;
#X obj 202 282 / 127;
#X obj 202 304 * 4800;
#X obj 202 326 + 200;
#X obj 202 258 r \$0-karplus2-color-s;
#X obj 439 145 samphold~;
#X obj 266 125 t b b;
#X obj 439 118 r~ \$0-kps-pitch-cv;
#X obj 41 48 r~ \$0-kps-free-running-pitch-cv;
#X obj 202 375 line~;
#X obj 202 397 +~;
#X obj 219 477 vcf~ 1;
#X obj 186 421 vcf~ 1;
#X obj 219 449 *~ 2;
#X obj 350 608 *~ 0.99;
#X obj 350 562 lop~;
#X obj 403 521 t f f;
#X obj 350 584 lop~;
#X obj 146 183 noise~;
#X obj 146 286 *~;
#X obj 161 205 r \$0-kps-kill-noise;
#X obj 186 226 r~ \$0-kps-ext;
#X obj 202 353 pack 0 50;
#X obj 241 380 r~ \$0-kps-color-cv;
#X obj 365 393 +~;
#X obj 266 103 r \$0-karplus-excite-bang4!;
#X obj 186 533 delwrite~ \$0-kps4 20;
#X obj 26 421 vd~ \$0-kps4;
#X obj 293 166 delay 7;
#X connect 0 0 46 0;
#X connect 2 0 3 0;
#X connect 3 0 4 0;
#X connect 4 0 36 0;
#X connect 5 0 35 0;
#X connect 6 0 7 0;
#X connect 7 0 44 0;
#X connect 8 0 9 0;
#X connect 9 0 10 0;
#X connect 10 0 6 0;
#X connect 11 0 16 0;
#X connect 12 0 2 0;
#X connect 13 0 15 0;
#X connect 14 0 13 0;
#X connect 15 0 19 0;
#X connect 16 0 14 0;
#X connect 17 0 8 0;
#X connect 18 0 25 0;
#X connect 19 0 47 0;
#X connect 20 0 0 1;
#X connect 21 0 22 0;
#X connect 22 0 23 0;
#X connect 23 0 42 0;
#X connect 24 0 21 0;
#X connect 25 0 14 1;
#X connect 26 0 20 0;
#X connect 26 1 48 0;
#X connect 27 0 25 0;
#X connect 28 0 14 1;
#X connect 29 0 30 0;
#X connect 30 0 31 1;
#X connect 30 0 32 1;
#X connect 31 1 0 0;
#X connect 32 1 33 0;
#X connect 33 0 31 0;
#X connect 34 0 46 0;
#X connect 35 0 37 0;
#X connect 36 0 35 1;
#X connect 36 1 37 1;
#X connect 37 0 34 0;
#X connect 38 0 39 0;
#X connect 39 0 32 0;
#X connect 40 0 39 1;
#X connect 41 0 32 0;
#X connect 42 0 29 0;
#X connect 43 0 30 1;
#X connect 44 0 5 1;
#X connect 45 0 26 0;
#X connect 47 0 5 0;
#X connect 47 0 1 0;
#X connect 48 0 18 0;
#X restore -4 664 pd karplus4;
#X obj -175 169 % 4;
#X obj 748 96 inlet~ 6-COLOR;
#X obj -16 759 outlet~ MONO;
#X obj 73 736 outlet~ LEFT;
#X obj 128 735 outlet~ RIGHT;
#X obj 169 109 cnv 5 5 5 empty empty PITCH 0 0 0 8 -262144 -1 0;
#X obj 104 218 cnv 5 5 5 empty empty MONO 0 0 0 8 -262144 -1 0;
#X obj 190 218 cnv 5 5 5 empty empty LEFT 0 0 0 8 -262144 -1 0;
#X obj 748 163 lop~ 10;
#N canvas 315 35 593 735 state-saving-multiple-instances 0;
#X obj 137 29 loadbang;
#X obj 184 452 textfile;
#X msg 466 435 rewind;
#X msg 423 435 bang;
#X obj 42 691 textfile;
#X obj 423 396 t b b;
#X obj 43 357 f;
#X obj 56 580 f;
#X obj -16 401 t b b b;
#X msg 119 580 clear;
#X obj 204 217 outlet;
#X text 246 221 INSTANCE NUMBER;
#X obj 165 153 f \$1;
#X obj 165 189 t f f f;
#X obj 138 62 t b b;
#X obj -16 378 bng 15 250 50 0 empty empty empty 17 7 0 10 -262144
-1 -1;
#X obj -16 234 r SAVE-S;
#X obj 43 400 pack f f f f f;
#X obj 184 474 unpack f f f f f;
#X msg 43 438 set \$1 \$2 \$3 \$4 \$5;
#X msg 55 651 write statesave/\$1-karplus-ss.txt;
#X msg 184 427 read statesave/\$1-karplus-ss.txt;
#X obj 58 254 r \$0-karplus2-pitch-s;
#X obj 184 627 s \$0-karplus2-pitch-r;
#X obj 66 277 r \$0-karplus2-contour-s;
#X obj 205 603 s \$0-karplus2-contour-r;
#X obj 80 298 r \$0-karplus2-damp-slider-s;
#X obj 226 579 s \$0-karplus2-damp-slider-r;
#X obj 98 323 r \$0-karplus2-resonate-s;
#X obj 247 555 s \$0-karplus2-resonate-r;
#X obj 118 348 r \$0-karplus2-color-s;
#X obj 274 529 s \$0-karplus2-color-r;
#X obj 222 45 r \$0-reload!;
#X connect 0 0 14 0;
#X connect 1 0 18 0;
#X connect 2 0 1 0;
#X connect 3 0 1 0;
#X connect 5 0 3 0;
#X connect 5 1 2 0;
#X connect 6 0 17 0;
#X connect 7 0 20 0;
#X connect 8 0 7 0;
#X connect 8 1 6 0;
#X connect 8 2 9 0;
#X connect 9 0 4 0;
#X connect 12 0 13 0;
#X connect 13 0 7 1;
#X connect 13 1 21 0;
#X connect 13 2 10 0;
#X connect 14 0 5 0;
#X connect 14 1 12 0;
#X connect 15 0 8 0;
#X connect 16 0 15 0;
#X connect 17 0 19 0;
#X connect 18 0 23 0;
#X connect 18 1 25 0;
#X connect 18 2 27 0;
#X connect 18 3 29 0;
#X connect 18 4 31 0;
#X connect 19 0 4 0;
#X connect 20 0 4 0;
#X connect 21 0 1 0;
#X connect 22 0 6 1;
#X connect 24 0 17 1;
#X connect 26 0 17 2;
#X connect 28 0 17 3;
#X connect 30 0 17 4;
#X connect 32 0 14 0;
#X restore 616 475 pd state-saving-multiple-instances;
#X obj 616 561 s \$0-instance-num;
#X obj 616 513 makefilename %d;
#X msg 616 538 label \$1;
#N canvas 81 22 1117 745 state-saving-via-preset-manager-module 0;
#X obj 340 227 textfile;
#X msg 719 210 rewind;
#X msg 676 210 bang;
#X obj 106 568 textfile;
#X obj 676 171 t b b;
#X obj 107 234 f;
#X obj 120 457 f;
#X obj 53 352 t b b b;
#X msg 236 499 clear;
#X obj 107 56 delay 5;
#X obj 53 407 delay 10;
#X msg 53 192 bang;
#X obj 53 26 r STORE-S!;
#X obj 340 128 f;
#X obj 313 85 t b b;
#X obj 328 49 t b f;
#X obj 385 146 f \$1;
#X obj 340 173 pack f f;
#X obj 385 96 loadbang;
#X obj 120 487 pack f f;
#X obj 165 440 loadbang;
#X obj 165 462 f \$1;
#X obj 328 26 r preset-manager-scan;
#X obj 135 418 r preset-manager-store-slot;
#X msg 106 368 set \$1 \$2 \$3 \$4 \$5;
#X obj 107 301 pack f f f f f;
#X obj 340 249 unpack f f f f f;
#X msg 119 528 write statesave/\$1-\$2-karplus-ss.txt;
#X msg 340 202 read statesave/\$1-\$2-karplus-ss.txt;
#X obj 123 78 r \$0-karplus2-pitch-s;
#X obj 345 714 s \$0-karplus2-pitch-r;
#X obj 136 107 r \$0-karplus2-contour-s;
#X obj 367 640 s \$0-karplus2-contour-r;
#X obj 146 146 r \$0-karplus2-damp-slider-s;
#X obj 384 562 s \$0-karplus2-damp-slider-r;
#X obj 169 173 r \$0-karplus2-resonate-s;
#X obj 413 488 s \$0-karplus2-resonate-r;
#X obj 183 196 r \$0-karplus2-color-s;
#X obj 435 412 s \$0-karplus2-color-r;
#N canvas 0 22 1069 747 morph 0;
#X obj 176 94 inlet;
#X obj 176 236 pack f f;
#X obj 176 261 line;
#X obj 209 117 r preset-manager-morph-s;
#X msg 72 244 stop;
#X obj 72 214 r STOP-MORPH!;
#X obj 209 206 spigot;
#X obj 398 137 t f f;
#X obj 455 154 == 0;
#X obj 221 176 f;
#X floatatom 455 222 5 0 0 0 - - -, f 5;
#X obj 398 159 t b f;
#X floatatom 425 192 5 0 0 0 - - -, f 5;
#X obj 209 139 t f f;
#X obj 176 283 outlet;
#X obj 398 102 inlet;
#X connect 0 0 1 0;
#X connect 1 0 2 0;
#X connect 2 0 14 0;
#X connect 3 0 13 0;
#X connect 4 0 2 0;
#X connect 5 0 4 0;
#X connect 6 0 1 1;
#X connect 7 0 11 0;
#X connect 7 1 8 0;
#X connect 8 0 10 0;
#X connect 9 0 6 0;
#X connect 10 0 1 1;
#X connect 11 0 9 0;
#X connect 11 1 12 0;
#X connect 12 0 6 1;
#X connect 13 0 6 0;
#X connect 13 1 9 1;
#X connect 15 0 7 0;
#X restore 345 690 pd morph;
#X obj 390 667 r frequencies-s;
#N canvas 0 22 1069 747 morph 0;
#X obj 176 94 inlet;
#X obj 176 236 pack f f;
#X obj 176 261 line;
#X obj 209 117 r preset-manager-morph-s;
#X msg 72 244 stop;
#X obj 72 214 r STOP-MORPH!;
#X obj 209 206 spigot;
#X obj 398 137 t f f;
#X obj 455 154 == 0;
#X obj 221 176 f;
#X floatatom 455 222 5 0 0 0 - - -, f 5;
#X obj 398 159 t b f;
#X floatatom 425 192 5 0 0 0 - - -, f 5;
#X obj 209 139 t f f;
#X obj 176 283 outlet;
#X obj 398 102 inlet;
#X connect 0 0 1 0;
#X connect 1 0 2 0;
#X connect 2 0 14 0;
#X connect 3 0 13 0;
#X connect 4 0 2 0;
#X connect 5 0 4 0;
#X connect 6 0 1 1;
#X connect 7 0 11 0;
#X connect 7 1 8 0;
#X connect 8 0 10 0;
#X connect 9 0 6 0;
#X connect 10 0 1 1;
#X connect 11 0 9 0;
#X connect 11 1 12 0;
#X connect 12 0 6 1;
#X connect 13 0 6 0;
#X connect 13 1 9 1;
#X connect 15 0 7 0;
#X restore 369 615 pd morph;
#X obj 414 592 r parameters-s;
#N canvas 0 22 1069 747 morph 0;
#X obj 176 94 inlet;
#X obj 176 236 pack f f;
#X obj 176 261 line;
#X obj 209 117 r preset-manager-morph-s;
#X msg 72 244 stop;
#X obj 72 214 r STOP-MORPH!;
#X obj 209 206 spigot;
#X obj 398 137 t f f;
#X obj 455 154 == 0;
#X obj 221 176 f;
#X floatatom 455 222 5 0 0 0 - - -, f 5;
#X obj 398 159 t b f;
#X floatatom 425 192 5 0 0 0 - - -, f 5;
#X obj 209 139 t f f;
#X obj 176 283 outlet;
#X obj 398 102 inlet;
#X connect 0 0 1 0;
#X connect 1 0 2 0;
#X connect 2 0 14 0;
#X connect 3 0 13 0;
#X connect 4 0 2 0;
#X connect 5 0 4 0;
#X connect 6 0 1 1;
#X connect 7 0 11 0;
#X connect 7 1 8 0;
#X connect 8 0 10 0;
#X connect 9 0 6 0;
#X connect 10 0 1 1;
#X connect 11 0 9 0;
#X connect 11 1 12 0;
#X connect 12 0 6 1;
#X connect 13 0 6 0;
#X connect 13 1 9 1;
#X connect 15 0 7 0;
#X restore 382 538 pd morph;
#X obj 427 515 r parameters-s;
#N canvas 0 22 1069 747 morph 0;
#X obj 176 94 inlet;
#X obj 176 236 pack f f;
#X obj 176 261 line;
#X obj 209 117 r preset-manager-morph-s;
#X msg 72 244 stop;
#X obj 72 214 r STOP-MORPH!;
#X obj 209 206 spigot;
#X obj 398 137 t f f;
#X obj 455 154 == 0;
#X obj 221 176 f;
#X floatatom 455 222 5 0 0 0 - - -, f 5;
#X obj 398 159 t b f;
#X floatatom 425 192 5 0 0 0 - - -, f 5;
#X obj 209 139 t f f;
#X obj 176 283 outlet;
#X obj 398 102 inlet;
#X connect 0 0 1 0;
#X connect 1 0 2 0;
#X connect 2 0 14 0;
#X connect 3 0 13 0;
#X connect 4 0 2 0;
#X connect 5 0 4 0;
#X connect 6 0 1 1;
#X connect 7 0 11 0;
#X connect 7 1 8 0;
#X connect 8 0 10 0;
#X connect 9 0 6 0;
#X connect 10 0 1 1;
#X connect 11 0 9 0;
#X connect 11 1 12 0;
#X connect 12 0 6 1;
#X connect 13 0 6 0;
#X connect 13 1 9 1;
#X connect 15 0 7 0;
#X restore 411 464 pd morph;
#X obj 456 441 r parameters-s;
#N canvas 0 22 1069 747 morph 0;
#X obj 176 94 inlet;
#X obj 176 236 pack f f;
#X obj 176 261 line;
#X obj 209 117 r preset-manager-morph-s;
#X msg 72 244 stop;
#X obj 72 214 r STOP-MORPH!;
#X obj 209 206 spigot;
#X obj 398 137 t f f;
#X obj 455 154 == 0;
#X obj 221 176 f;
#X floatatom 455 222 5 0 0 0 - - -, f 5;
#X obj 398 159 t b f;
#X floatatom 425 192 5 0 0 0 - - -, f 5;
#X obj 209 139 t f f;
#X obj 176 283 outlet;
#X obj 398 102 inlet;
#X connect 0 0 1 0;
#X connect 1 0 2 0;
#X connect 2 0 14 0;
#X connect 3 0 13 0;
#X connect 4 0 2 0;
#X connect 5 0 4 0;
#X connect 6 0 1 1;
#X connect 7 0 11 0;
#X connect 7 1 8 0;
#X connect 8 0 10 0;
#X connect 9 0 6 0;
#X connect 10 0 1 1;
#X connect 11 0 9 0;
#X connect 11 1 12 0;
#X connect 12 0 6 1;
#X connect 13 0 6 0;
#X connect 13 1 9 1;
#X connect 15 0 7 0;
#X restore 435 385 pd morph;
#X obj 480 362 r parameters-s;
#X connect 0 0 26 0;
#X connect 1 0 0 0;
#X connect 2 0 0 0;
#X connect 4 0 2 0;
#X connect 4 1 1 0;
#X connect 5 0 25 0;
#X connect 6 0 19 0;
#X connect 7 0 10 0;
#X connect 7 1 9 0;
#X connect 7 2 8 0;
#X connect 8 0 3 0;
#X connect 9 0 5 0;
#X connect 10 0 6 0;
#X connect 11 0 7 0;
#X connect 12 0 11 0;
#X connect 13 0 17 0;
#X connect 14 0 4 0;
#X connect 14 1 13 0;
#X connect 15 0 14 0;
#X connect 15 1 13 1;
#X connect 16 0 17 1;
#X connect 17 0 28 0;
#X connect 18 0 16 0;
#X connect 19 0 27 0;
#X connect 20 0 21 0;
#X connect 21 0 19 1;
#X connect 22 0 15 0;
#X connect 23 0 6 1;
#X connect 24 0 3 0;
#X connect 25 0 24 0;
#X connect 26 0 39 0;
#X connect 26 1 41 0;
#X connect 26 2 43 0;
#X connect 26 3 45 0;
#X connect 26 4 47 0;
#X connect 27 0 3 0;
#X connect 28 0 0 0;
#X connect 29 0 5 1;
#X connect 31 0 25 1;
#X connect 33 0 25 2;
#X connect 35 0 25 3;
#X connect 37 0 25 4;
#X connect 39 0 30 0;
#X connect 40 0 39 1;
#X connect 41 0 32 0;
#X connect 42 0 41 1;
#X connect 43 0 34 0;
#X connect 44 0 43 1;
#X connect 45 0 36 0;
#X connect 46 0 45 1;
#X connect 47 0 38 0;
#X connect 48 0 47 1;
#X restore 617 443 pd state-saving-via-preset-manager-module;
#N canvas 297 27 843 483 parameter-nudging-system 0;
#N canvas 0 22 484 497 param-nudge 0;
#X obj 124 234 random;
#X obj 232 335 f;
#X obj 232 368 +;
#X obj 257 166 random 2;
#X obj 124 275 t f f;
#X obj 124 351 t b f;
#X obj 124 297 *;
#X obj 257 188 sel 0 1;
#X msg 257 280 -1;
#X msg 335 280 1;
#X obj 124 149 t b b b;
#X obj 123 63 r NUDGE!;
#X obj 157 193 r NUDGE-RANGE;
#X obj 247 308 inlet;
#X obj 232 397 outlet;
#X floatatom 316 396 5 0 0 0 - - -, f 5;
#X obj 123 107 spigot;
#X obj 172 90 r frequencies2-s;
#X connect 0 0 4 0;
#X connect 1 0 2 0;
#X connect 2 0 14 0;
#X connect 2 0 15 0;
#X connect 3 0 7 0;
#X connect 4 0 6 0;
#X connect 5 0 2 0;
#X connect 5 1 2 1;
#X connect 6 0 5 0;
#X connect 7 0 8 0;
#X connect 7 1 9 0;
#X connect 8 0 6 1;
#X connect 9 0 6 1;
#X connect 10 0 0 0;
#X connect 10 1 1 0;
#X connect 10 2 3 0;
#X connect 11 0 16 0;
#X connect 12 0 0 1;
#X connect 13 0 1 1;
#X connect 16 0 10 0;
#X connect 17 0 16 1;
#X restore 93 114 pd param-nudge;
#X obj 93 136 clip 0 127;
#X obj 93 91 r \$0-karplus2-pitch-s;
#X obj 93 164 s \$0-karplus2-pitch-r;
#N canvas 0 22 484 497 param-nudge 0;
#X obj 124 234 random;
#X obj 232 335 f;
#X obj 232 368 +;
#X obj 257 166 random 2;
#X obj 124 275 t f f;
#X obj 124 351 t b f;
#X obj 124 297 *;
#X obj 257 188 sel 0 1;
#X msg 257 280 -1;
#X msg 335 280 1;
#X obj 124 149 t b b b;
#X obj 123 63 r NUDGE!;
#X obj 157 193 r NUDGE-RANGE;
#X obj 247 308 inlet;
#X obj 232 397 outlet;
#X floatatom 316 396 5 0 0 0 - - -, f 5;
#X obj 123 107 spigot;
#X obj 172 90 r parameters2-s;
#X connect 0 0 4 0;
#X connect 1 0 2 0;
#X connect 2 0 14 0;
#X connect 2 0 15 0;
#X connect 3 0 7 0;
#X connect 4 0 6 0;
#X connect 5 0 2 0;
#X connect 5 1 2 1;
#X connect 6 0 5 0;
#X connect 7 0 8 0;
#X connect 7 1 9 0;
#X connect 8 0 6 1;
#X connect 9 0 6 1;
#X connect 10 0 0 0;
#X connect 10 1 1 0;
#X connect 10 2 3 0;
#X connect 11 0 16 0;
#X connect 12 0 0 1;
#X connect 13 0 1 1;
#X connect 16 0 10 0;
#X connect 17 0 16 1;
#X restore 267 114 pd param-nudge;
#X obj 267 136 clip 0 127;
#X obj 267 91 r \$0-karplus2-contour-s;
#X obj 267 164 s \$0-karplus2-contour-r;
#N canvas 0 22 484 497 param-nudge 0;
#X obj 124 234 random;
#X obj 232 335 f;
#X obj 232 368 +;
#X obj 257 166 random 2;
#X obj 124 275 t f f;
#X obj 124 351 t b f;
#X obj 124 297 *;
#X obj 257 188 sel 0 1;
#X msg 257 280 -1;
#X msg 335 280 1;
#X obj 124 149 t b b b;
#X obj 123 63 r NUDGE!;
#X obj 157 193 r NUDGE-RANGE;
#X obj 247 308 inlet;
#X obj 232 397 outlet;
#X floatatom 316 396 5 0 0 0 - - -, f 5;
#X obj 123 107 spigot;
#X obj 172 90 r parameters2-s;
#X connect 0 0 4 0;
#X connect 1 0 2 0;
#X connect 2 0 14 0;
#X connect 2 0 15 0;
#X connect 3 0 7 0;
#X connect 4 0 6 0;
#X connect 5 0 2 0;
#X connect 5 1 2 1;
#X connect 6 0 5 0;
#X connect 7 0 8 0;
#X connect 7 1 9 0;
#X connect 8 0 6 1;
#X connect 9 0 6 1;
#X connect 10 0 0 0;
#X connect 10 1 1 0;
#X connect 10 2 3 0;
#X connect 11 0 16 0;
#X connect 12 0 0 1;
#X connect 13 0 1 1;
#X connect 16 0 10 0;
#X connect 17 0 16 1;
#X restore 443 113 pd param-nudge;
#X obj 443 135 clip 0 127;
#X obj 443 90 r \$0-karplus2-damp-slider-s;
#X obj 443 163 s \$0-karplus2-damp-slider-r;
#N canvas 0 22 484 497 param-nudge 0;
#X obj 124 234 random;
#X obj 232 335 f;
#X obj 232 368 +;
#X obj 257 166 random 2;
#X obj 124 275 t f f;
#X obj 124 351 t b f;
#X obj 124 297 *;
#X obj 257 188 sel 0 1;
#X msg 257 280 -1;
#X msg 335 280 1;
#X obj 124 149 t b b b;
#X obj 123 63 r NUDGE!;
#X obj 157 193 r NUDGE-RANGE;
#X obj 247 308 inlet;
#X obj 232 397 outlet;
#X floatatom 316 396 5 0 0 0 - - -, f 5;
#X obj 123 107 spigot;
#X obj 172 90 r parameters2-s;
#X connect 0 0 4 0;
#X connect 1 0 2 0;
#X connect 2 0 14 0;
#X connect 2 0 15 0;
#X connect 3 0 7 0;
#X connect 4 0 6 0;
#X connect 5 0 2 0;
#X connect 5 1 2 1;
#X connect 6 0 5 0;
#X connect 7 0 8 0;
#X connect 7 1 9 0;
#X connect 8 0 6 1;
#X connect 9 0 6 1;
#X connect 10 0 0 0;
#X connect 10 1 1 0;
#X connect 10 2 3 0;
#X connect 11 0 16 0;
#X connect 12 0 0 1;
#X connect 13 0 1 1;
#X connect 16 0 10 0;
#X connect 17 0 16 1;
#X restore 639 113 pd param-nudge;
#X obj 639 135 clip 0 127;
#X obj 639 90 r \$0-karplus2-resonate-s;
#X obj 639 163 s \$0-karplus2-resonate-r;
#N canvas 0 22 484 497 param-nudge 0;
#X obj 124 234 random;
#X obj 232 335 f;
#X obj 232 368 +;
#X obj 257 166 random 2;
#X obj 124 275 t f f;
#X obj 124 351 t b f;
#X obj 124 297 *;
#X obj 257 188 sel 0 1;
#X msg 257 280 -1;
#X msg 335 280 1;
#X obj 124 149 t b b b;
#X obj 123 63 r NUDGE!;
#X obj 157 193 r NUDGE-RANGE;
#X obj 247 308 inlet;
#X obj 232 397 outlet;
#X floatatom 316 396 5 0 0 0 - - -, f 5;
#X obj 123 107 spigot;
#X obj 172 90 r parameters2-s;
#X connect 0 0 4 0;
#X connect 1 0 2 0;
#X connect 2 0 14 0;
#X connect 2 0 15 0;
#X connect 3 0 7 0;
#X connect 4 0 6 0;
#X connect 5 0 2 0;
#X connect 5 1 2 1;
#X connect 6 0 5 0;
#X connect 7 0 8 0;
#X connect 7 1 9 0;
#X connect 8 0 6 1;
#X connect 9 0 6 1;
#X connect 10 0 0 0;
#X connect 10 1 1 0;
#X connect 10 2 3 0;
#X connect 11 0 16 0;
#X connect 12 0 0 1;
#X connect 13 0 1 1;
#X connect 16 0 10 0;
#X connect 17 0 16 1;
#X restore 96 218 pd param-nudge;
#X obj 96 240 clip 0 127;
#X obj 96 195 r \$0-karplus2-color-s;
#X obj 96 268 s \$0-karplus2-color-r;
#X connect 0 0 1 0;
#X connect 1 0 3 0;
#X connect 2 0 0 0;
#X connect 4 0 5 0;
#X connect 5 0 7 0;
#X connect 6 0 4 0;
#X connect 8 0 9 0;
#X connect 9 0 11 0;
#X connect 10 0 8 0;
#X connect 12 0 13 0;
#X connect 13 0 15 0;
#X connect 14 0 12 0;
#X connect 16 0 17 0;
#X connect 17 0 19 0;
#X connect 18 0 16 0;
#X restore 617 416 pd parameter-nudging-system;
#X obj -16 737 *~ 1;
#X obj 73 714 *~ 1;
#X obj 128 713 *~ 1;
#N canvas 704 23 749 752 external-messages 1;
#X floatatom 186 706 5 0 0 0 - - -, f 5;
#X obj 185 328 spigot;
#X obj 218 288 tgl 15 0 empty empty empty 17 7 0 10 -262144 -1 -1 0
1;
#X obj 254 272 ==;
#X obj 269 248 f \$1;
#X obj 269 224 loadbang;
#X msg 185 202 \$1 \$2;
#X msg 185 156 symbol \$1;
#X obj 185 180 pack s f;
#X obj 186 685 f;
#X obj 186 633 t b f;
#X obj 186 656 spigot;
#X obj 185 62 unpack s f f;
#X symbolatom 185 94 10 0 0 0 - - -, f 10;
#X obj 218 308 t f f;
#X obj 245 332 s \$0-msg-spigot;
#X obj 234 640 r \$0-msg-spigot;
#X floatatom 223 594 5 0 0 0 - - -, f 5;
#X obj 223 573 f;
#X obj 223 521 t b f;
#X obj 223 544 spigot;
#X obj 271 528 r \$0-msg-spigot;
#X floatatom 387 639 5 0 0 0 - - -, f 5;
#X obj 387 618 f;
#X obj 387 566 t b f;
#X obj 387 589 spigot;
#X obj 435 573 r \$0-msg-spigot;
#X floatatom 424 527 5 0 0 0 - - -, f 5;
#X obj 424 506 f;
#X obj 424 454 t b f;
#X obj 424 477 spigot;
#X obj 472 461 r \$0-msg-spigot;
#X floatatom 608 537 5 0 0 0 - - -, f 5;
#X obj 608 516 f;
#X obj 608 464 t b f;
#X obj 608 487 spigot;
#X obj 656 471 r \$0-msg-spigot;
#X obj 185 14 r karplus;
#X obj 185 380 route PITCH CONTOUR DAMP RESONATE COLOR;
#X obj 186 726 s \$0-karplus2-pitch-r;
#X obj 223 614 s \$0-karplus2-contour-r;
#X obj 387 659 s \$0-karplus2-damp-slider-r;
#X obj 424 547 s \$0-karplus2-resonate-r;
#X obj 608 557 s \$0-karplus2-color-r;
#X connect 0 0 39 0;
#X connect 1 0 38 0;
#X connect 2 0 14 0;
#X connect 3 0 2 0;
#X connect 4 0 3 1;
#X connect 5 0 4 0;
#X connect 6 0 1 0;
#X connect 7 0 8 0;
#X connect 8 0 6 0;
#X connect 9 0 0 0;
#X connect 10 0 11 0;
#X connect 10 1 9 1;
#X connect 11 0 9 0;
#X connect 12 0 13 0;
#X connect 12 1 8 1;
#X connect 12 2 3 0;
#X connect 13 0 7 0;
#X connect 14 0 1 1;
#X connect 14 1 15 0;
#X connect 16 0 11 1;
#X connect 17 0 40 0;
#X connect 18 0 17 0;
#X connect 19 0 20 0;
#X connect 19 1 18 1;
#X connect 20 0 18 0;
#X connect 21 0 20 1;
#X connect 22 0 41 0;
#X connect 23 0 22 0;
#X connect 24 0 25 0;
#X connect 24 1 23 1;
#X connect 25 0 23 0;
#X connect 26 0 25 1;
#X connect 27 0 42 0;
#X connect 28 0 27 0;
#X connect 29 0 30 0;
#X connect 29 1 28 1;
#X connect 30 0 28 0;
#X connect 31 0 30 1;
#X connect 32 0 43 0;
#X connect 33 0 32 0;
#X connect 34 0 35 0;
#X connect 34 1 33 1;
#X connect 35 0 33 0;
#X connect 36 0 35 1;
#X connect 37 0 12 0;
#X connect 38 0 10 0;
#X connect 38 1 19 0;
#X connect 38 2 24 0;
#X connect 38 3 29 0;
#X connect 38 4 34 0;
#X restore 615 390 pd external-messages;
#X connect 0 0 11 0;
#X connect 1 0 89 0;
#X connect 2 0 24 0;
#X connect 5 0 24 0;
#X connect 6 0 12 0;
#X connect 6 0 132 0;
#X connect 6 0 133 0;
#X connect 8 0 9 0;
#X connect 9 0 10 0;
#X connect 10 0 77 0;
#X connect 12 0 75 0;
#X connect 14 0 15 0;
#X connect 15 0 112 0;
#X connect 16 0 17 0;
#X connect 17 0 18 0;
#X connect 18 0 14 0;
#X connect 19 0 31 0;
#X connect 19 0 7 0;
#X connect 20 0 29 0;
#X connect 21 0 8 0;
#X connect 23 0 44 0;
#X connect 25 0 28 0;
#X connect 26 0 36 0;
#X connect 26 0 43 0;
#X connect 26 0 48 0;
#X connect 27 0 25 0;
#X connect 28 0 35 0;
#X connect 29 0 27 0;
#X connect 30 0 16 0;
#X connect 31 0 32 0;
#X connect 31 0 117 0;
#X connect 32 0 31 1;
#X connect 33 0 43 0;
#X connect 35 0 6 0;
#X connect 37 0 2 1;
#X connect 38 0 39 0;
#X connect 39 0 40 0;
#X connect 40 0 109 0;
#X connect 42 0 38 0;
#X connect 43 0 27 1;
#X connect 44 0 37 0;
#X connect 44 1 33 0;
#X connect 47 0 132 0;
#X connect 47 0 134 0;
#X connect 48 0 27 1;
#X connect 48 0 49 0;
#X connect 51 0 48 1;
#X connect 52 0 53 0;
#X connect 53 0 54 0;
#X connect 54 0 55 0;
#X connect 55 0 59 0;
#X connect 57 0 58 0;
#X connect 58 0 55 0;
#X connect 59 0 56 0;
#X connect 60 0 19 0;
#X connect 61 0 62 0;
#X connect 63 0 54 1;
#X connect 70 0 71 0;
#X connect 71 0 72 1;
#X connect 71 0 73 1;
#X connect 72 1 2 0;
#X connect 73 1 74 0;
#X connect 74 0 72 0;
#X connect 75 0 76 0;
#X connect 76 0 5 0;
#X connect 77 0 75 1;
#X connect 77 1 76 1;
#X connect 78 0 79 0;
#X connect 79 0 80 0;
#X connect 80 0 83 0;
#X connect 81 0 82 0;
#X connect 82 0 80 0;
#X connect 83 0 86 0;
#X connect 84 0 78 0;
#X connect 85 0 79 1;
#X connect 87 0 88 0;
#X connect 89 0 73 0;
#X connect 90 0 91 0;
#X connect 91 0 92 0;
#X connect 92 0 94 0;
#X connect 93 0 96 0;
#X connect 94 0 93 1;
#X connect 94 1 95 0;
#X connect 95 0 97 0;
#X connect 98 0 89 1;
#X connect 99 0 73 0;
#X connect 100 0 93 0;
#X connect 101 0 90 0;
#X connect 101 0 100 0;
#X connect 102 0 26 0;
#X connect 103 0 61 0;
#X connect 104 0 87 0;
#X connect 108 0 71 1;
#X connect 109 0 70 0;
#X connect 110 0 111 0;
#X connect 111 0 125 0;
#X connect 112 0 113 0;
#X connect 113 0 12 1;
#X connect 114 0 22 0;
#X connect 114 1 34 0;
#X connect 114 2 45 0;
#X connect 114 3 46 0;
#X connect 115 0 132 0;
#X connect 115 0 133 0;
#X connect 116 0 132 0;
#X connect 116 0 134 0;
#X connect 117 0 114 0;
#X connect 118 0 110 0;
#X connect 125 0 107 0;
#X connect 126 0 128 0;
#X connect 128 0 129 0;
#X connect 129 0 127 0;
#X connect 132 0 119 0;
#X connect 133 0 120 0;
#X connect 134 0 121 0;
#X coords 0 -1 1 1 200 125 2 100 100;
