#N canvas 38 23 1269 675 10;
#X obj 108 175 hsl 128 15 1.27 127 1 1 \$0-kick-envmod-s \$0-kick-envmod-r
EG2 133 7 0 10 -262144 -1 -1 8200 1;
#X obj 108 145 hsl 128 15 1.27 127 1 1 \$0-kick-hold-s \$0-kick-hold-r
HOLD 133 7 0 10 -262144 -1 -1 1300 1;
#X obj 108 190 hsl 128 15 0 127 0 1 \$0-kick-sweep-s \$0-kick-sweep-r
SWEEP 133 7 0 10 -262144 -1 -1 1300 1;
#X obj 108 130 hsl 128 15 0 127 0 1 \$0-kick-pitch-s \$0-kick-pitch-r
PITCH 133 7 0 10 -262144 -1 -1 0 1;
#X obj 412 405 *~;
#X obj 548 344 vline~;
#X obj 548 366 *~;
#X obj 548 388 *~;
#X obj 548 257 f;
#X obj 518 105 / 127;
#X obj 518 198 moses 10;
#X msg 723 273 1 1 \, 0 \$1 1;
#X obj 723 302 vline~;
#X obj 723 334 *~;
#X obj 723 361 *~;
#X obj 723 252 f;
#X obj 693 146 / 127;
#X obj 693 224 moses 10;
#X obj 783 483 *~;
#X obj 798 336 / 127;
#X obj 798 380 pack 0 50;
#X obj 798 402 line~;
#X obj 412 327 +~;
#X obj 723 397 *~ 2000;
#X obj 798 358 * 0.5;
#X obj 410 202 + 30;
#X obj 410 224 pack 0 50;
#X obj 410 246 line~;
#X obj 410 143 r \$0-kick-pitch-s;
#X obj 292 10 inlet~;
#X obj 518 81 r \$0-kick-decay-s;
#X obj 693 126 r \$0-kick-envmod-s;
#X obj 798 309 r \$0-kick-sweep-s;
#X obj 412 598 outlet~;
#X obj 641 18 inlet~;
#X obj 641 79 t b f;
#X obj 335 113 s \$0-kick-trig!;
#X obj 518 127 +;
#X obj 693 168 +;
#X obj 641 57 snapshot~;
#X obj 710 24 r \$0-kick-trig!;
#X obj 823 122 inlet~;
#X obj 823 183 t b f;
#X obj 823 161 snapshot~;
#X obj 892 128 r \$0-kick-trig!;
#X obj 798 424 +~;
#X obj 798 446 clip~ 0 0.5;
#X obj 929 326 inlet~;
#X obj 929 348 *~ 0.5;
#X obj 410 268 +~;
#X obj 339 194 inlet~;
#X obj 339 216 *~ 127;
#N canvas 267 22 926 752 state-saving-multiple-instances 0;
#X obj 461 15 loadbang;
#X obj 536 276 textfile;
#X obj 461 48 t b b;
#X msg 793 259 rewind;
#X msg 750 259 bang;
#X obj 109 691 textfile;
#X obj 750 220 t b b;
#X obj 110 357 f;
#X obj 123 580 f;
#X obj 48 403 t b b b;
#X msg 186 580 clear;
#X obj 527 204 outlet;
#X text 523 224 INSTANCE NUMBER;
#X obj 488 139 f \$1;
#X obj 488 175 t f f f;
#X obj 48 378 bng 15 250 50 0 empty empty empty 17 7 0 10 -262144 -1
-1;
#X obj 48 274 r SAVE-S;
#X obj 116 51 r \$0-kick-pitch-s;
#X obj 358 706 s \$0-kick-pitch-r;
#X obj 124 74 r \$0-kick-decay-s;
#X obj 385 683 s \$0-kick-decay-r;
#X obj 147 95 r \$0-kick-envmod-s;
#X obj 412 657 s \$0-kick-envmod-r;
#X obj 170 116 r \$0-kick-sweep-s;
#X obj 439 627 s \$0-kick-sweep-r;
#X msg 122 651 write statesave/\$1-kick-ss.txt;
#X msg 535 251 read statesave/\$1-kick-ss.txt;
#X obj 212 135 r \$0-kick-wform-s;
#X obj 460 599 s \$0-kick-wform-r;
#X obj 219 163 r \$0-flam-s;
#X obj 232 187 r \$0-flam-prob-s;
#X obj 243 214 r \$0-acc-prob-s;
#X obj 256 242 r \$0-acc-level-s;
#X obj 273 270 r \$0-drive-s;
#X obj 271 307 r \$0-tone-s;
#X obj 296 337 r \$0-load-s;
#X msg 110 438 set \$1 \$2 \$3 \$4 \$5 \$6 \$7 \$8 \$9 \$10 \$11 \$12
;
#X obj 110 400 pack f f f f f f f f f f f f;
#X obj 541 318 unpack f f f f f f f f f f f f;
#X obj 509 570 s \$0-flam-r;
#X obj 553 542 s \$0-flam-prob-r;
#X obj 601 512 s \$0-acc-prob-r;
#X obj 642 482 s \$0-acc-level-r;
#X obj 673 457 s \$0-drive-r;
#X obj 699 428 s \$0-tone-r;
#X obj 720 400 s \$0-load-r;
#X obj 521 44 r \$0-reload!;
#X connect 0 0 2 0;
#X connect 1 0 38 0;
#X connect 2 0 6 0;
#X connect 2 1 13 0;
#X connect 3 0 1 0;
#X connect 4 0 1 0;
#X connect 6 0 4 0;
#X connect 6 1 3 0;
#X connect 7 0 37 0;
#X connect 8 0 25 0;
#X connect 9 0 8 0;
#X connect 9 1 7 0;
#X connect 9 2 10 0;
#X connect 10 0 5 0;
#X connect 13 0 14 0;
#X connect 14 0 8 1;
#X connect 14 1 26 0;
#X connect 14 2 11 0;
#X connect 15 0 9 0;
#X connect 16 0 15 0;
#X connect 17 0 7 1;
#X connect 19 0 37 1;
#X connect 21 0 37 2;
#X connect 23 0 37 3;
#X connect 25 0 5 0;
#X connect 26 0 1 0;
#X connect 27 0 37 4;
#X connect 29 0 37 5;
#X connect 30 0 37 6;
#X connect 31 0 37 7;
#X connect 32 0 37 8;
#X connect 33 0 37 9;
#X connect 34 0 37 10;
#X connect 35 0 37 11;
#X connect 36 0 5 0;
#X connect 37 0 36 0;
#X connect 38 0 18 0;
#X connect 38 1 20 0;
#X connect 38 2 22 0;
#X connect 38 3 24 0;
#X connect 38 4 28 0;
#X connect 38 5 39 0;
#X connect 38 6 40 0;
#X connect 38 7 41 0;
#X connect 38 8 42 0;
#X connect 38 9 43 0;
#X connect 38 10 44 0;
#X connect 38 11 45 0;
#X connect 46 0 2 0;
#X restore 99 453 pd state-saving-multiple-instances;
#X obj 99 525 s \$0-instance-num;
#X obj 99 477 makefilename %d;
#X msg 99 502 label \$1;
#N canvas 81 22 1117 745 state-saving-via-preset-manager-module 0;
#X obj 478 210 textfile;
#X msg 756 193 rewind;
#X msg 713 193 bang;
#X obj 243 690 textfile;
#X obj 713 154 t b b;
#X obj 116 230 f;
#X obj 257 579 f;
#X obj 190 474 t b b b;
#X msg 373 621 clear;
#X obj 116 54 delay 5;
#X obj 190 529 delay 10;
#X msg 62 188 bang;
#X obj 62 29 r STORE-S!;
#X obj 478 111 f;
#X obj 451 68 t b b;
#X obj 466 32 t b f;
#X obj 523 129 f \$1;
#X obj 478 156 pack f f;
#X obj 523 79 loadbang;
#X obj 257 609 pack f f;
#X obj 302 562 loadbang;
#X obj 302 584 f \$1;
#X obj 466 -32 r preset-manager-scan;
#X obj 272 540 r preset-manager-store-slot;
#X obj 466 -10 i;
#X msg 256 650 write statesave/\$1-\$2-kick-ss.txt;
#X msg 478 185 read statesave/\$1-\$2-kick-ss.txt;
#X obj 205 -8 r \$0-kick-pitch-s;
#X obj 213 15 r \$0-kick-decay-s;
#X obj 236 36 r \$0-kick-envmod-s;
#X obj 259 57 r \$0-kick-sweep-s;
#X obj 300 81 r \$0-kick-wform-s;
#X obj 308 104 r \$0-flam-s;
#X obj 321 128 r \$0-flam-prob-s;
#X obj 332 155 r \$0-acc-prob-s;
#X obj 345 183 r \$0-acc-level-s;
#X obj 362 211 r \$0-drive-s;
#X obj 360 248 r \$0-tone-s;
#X obj 385 278 r \$0-load-s;
#X msg 199 379 set \$1 \$2 \$3 \$4 \$5 \$6 \$7 \$8 \$9 \$10 \$11 \$12
;
#X obj 199 341 pack f f f f f f f f f f f f;
#X obj 480 254 unpack f f f f f f f f f f f f;
#X obj 483 743 s \$0-basic-osc-pitch-r;
#N canvas 0 22 1069 747 morph-parameters 0;
#X obj 176 94 inlet;
#X obj 176 236 pack f f;
#X obj 176 261 line;
#X obj 209 117 r preset-manager-morph-s;
#X msg 72 244 stop;
#X obj 72 214 r STOP-MORPH!;
#X obj 209 206 spigot;
#X obj 398 137 t f f;
#X obj 455 154 == 0;
#X obj 221 176 f;
#X floatatom 455 222 5 0 0 0 - - -, f 5;
#X obj 398 159 t b f;
#X floatatom 425 192 5 0 0 0 - - -, f 5;
#X obj 209 139 t f f;
#X obj 398 102 r parameters-s;
#X obj 176 288 outlet;
#X connect 0 0 1 0;
#X connect 1 0 2 0;
#X connect 2 0 15 0;
#X connect 3 0 13 0;
#X connect 4 0 2 0;
#X connect 5 0 4 0;
#X connect 6 0 1 1;
#X connect 7 0 11 0;
#X connect 7 1 8 0;
#X connect 8 0 10 0;
#X connect 9 0 6 0;
#X connect 10 0 1 1;
#X connect 11 0 9 0;
#X connect 11 1 12 0;
#X connect 12 0 6 1;
#X connect 13 0 6 0;
#X connect 13 1 9 1;
#X connect 14 0 7 0;
#X restore 502 669 pd morph-parameters;
#N canvas 0 22 1069 747 morph-attenuators 0;
#X obj 176 94 inlet;
#X obj 176 236 pack f f;
#X obj 176 261 line;
#X obj 209 117 r preset-manager-morph-s;
#X msg 72 244 stop;
#X obj 72 214 r STOP-MORPH!;
#X obj 209 206 spigot;
#X obj 398 137 t f f;
#X obj 455 154 == 0;
#X obj 221 176 f;
#X floatatom 455 222 5 0 0 0 - - -, f 5;
#X obj 398 159 t b f;
#X floatatom 425 192 5 0 0 0 - - -, f 5;
#X obj 209 139 t f f;
#X obj 398 102 r attenuators-s;
#X obj 176 288 outlet;
#X connect 0 0 1 0;
#X connect 1 0 2 0;
#X connect 2 0 15 0;
#X connect 3 0 13 0;
#X connect 4 0 2 0;
#X connect 5 0 4 0;
#X connect 6 0 1 1;
#X connect 7 0 11 0;
#X connect 7 1 8 0;
#X connect 8 0 10 0;
#X connect 9 0 6 0;
#X connect 10 0 1 1;
#X connect 11 0 9 0;
#X connect 11 1 12 0;
#X connect 12 0 6 1;
#X connect 13 0 6 0;
#X connect 13 1 9 1;
#X connect 14 0 7 0;
#X restore 611 338 pd morph-attenuators;
#X obj 502 692 s \$0-kick-decay-r;
#N canvas 0 22 1069 747 morph-parameters 0;
#X obj 176 94 inlet;
#X obj 176 236 pack f f;
#X obj 176 261 line;
#X obj 209 117 r preset-manager-morph-s;
#X msg 72 244 stop;
#X obj 72 214 r STOP-MORPH!;
#X obj 209 206 spigot;
#X obj 398 137 t f f;
#X obj 455 154 == 0;
#X obj 221 176 f;
#X floatatom 455 222 5 0 0 0 - - -, f 5;
#X obj 398 159 t b f;
#X floatatom 425 192 5 0 0 0 - - -, f 5;
#X obj 209 139 t f f;
#X obj 398 102 r parameters-s;
#X obj 176 288 outlet;
#X connect 0 0 1 0;
#X connect 1 0 2 0;
#X connect 2 0 15 0;
#X connect 3 0 13 0;
#X connect 4 0 2 0;
#X connect 5 0 4 0;
#X connect 6 0 1 1;
#X connect 7 0 11 0;
#X connect 7 1 8 0;
#X connect 8 0 10 0;
#X connect 9 0 6 0;
#X connect 10 0 1 1;
#X connect 11 0 9 0;
#X connect 11 1 12 0;
#X connect 12 0 6 1;
#X connect 13 0 6 0;
#X connect 13 1 9 1;
#X connect 14 0 7 0;
#X restore 521 619 pd morph-parameters;
#X obj 521 642 s \$0-kick-envmod-r;
#N canvas 0 22 1069 747 morph-parameters 0;
#X obj 176 94 inlet;
#X obj 176 236 pack f f;
#X obj 176 261 line;
#X obj 209 117 r preset-manager-morph-s;
#X msg 72 244 stop;
#X obj 72 214 r STOP-MORPH!;
#X obj 209 206 spigot;
#X obj 398 137 t f f;
#X obj 455 154 == 0;
#X obj 221 176 f;
#X floatatom 455 222 5 0 0 0 - - -, f 5;
#X obj 398 159 t b f;
#X floatatom 425 192 5 0 0 0 - - -, f 5;
#X obj 209 139 t f f;
#X obj 398 102 r parameters-s;
#X obj 176 288 outlet;
#X connect 0 0 1 0;
#X connect 1 0 2 0;
#X connect 2 0 15 0;
#X connect 3 0 13 0;
#X connect 4 0 2 0;
#X connect 5 0 4 0;
#X connect 6 0 1 1;
#X connect 7 0 11 0;
#X connect 7 1 8 0;
#X connect 8 0 10 0;
#X connect 9 0 6 0;
#X connect 10 0 1 1;
#X connect 11 0 9 0;
#X connect 11 1 12 0;
#X connect 12 0 6 1;
#X connect 13 0 6 0;
#X connect 13 1 9 1;
#X connect 14 0 7 0;
#X restore 540 568 pd morph-parameters;
#X obj 540 591 s \$0-kick-sweep-r;
#N canvas 0 22 1069 747 morph-parameters 0;
#X obj 176 94 inlet;
#X obj 176 236 pack f f;
#X obj 176 261 line;
#X obj 209 117 r preset-manager-morph-s;
#X msg 72 244 stop;
#X obj 72 214 r STOP-MORPH!;
#X obj 209 206 spigot;
#X obj 398 137 t f f;
#X obj 455 154 == 0;
#X obj 221 176 f;
#X floatatom 455 222 5 0 0 0 - - -, f 5;
#X obj 398 159 t b f;
#X floatatom 425 192 5 0 0 0 - - -, f 5;
#X obj 209 139 t f f;
#X obj 398 102 r parameters-s;
#X obj 176 288 outlet;
#X connect 0 0 1 0;
#X connect 1 0 2 0;
#X connect 2 0 15 0;
#X connect 3 0 13 0;
#X connect 4 0 2 0;
#X connect 5 0 4 0;
#X connect 6 0 1 1;
#X connect 7 0 11 0;
#X connect 7 1 8 0;
#X connect 8 0 10 0;
#X connect 9 0 6 0;
#X connect 10 0 1 1;
#X connect 11 0 9 0;
#X connect 11 1 12 0;
#X connect 12 0 6 1;
#X connect 13 0 6 0;
#X connect 13 1 9 1;
#X connect 14 0 7 0;
#X restore 552 520 pd morph-parameters;
#X obj 552 543 s \$0-kick-wform-r;
#N canvas 0 22 1069 747 morph-frequencies 0;
#X obj 176 94 inlet;
#X obj 176 236 pack f f;
#X obj 176 261 line;
#X obj 209 117 r preset-manager-morph-s;
#X msg 72 244 stop;
#X obj 72 214 r STOP-MORPH!;
#X obj 398 102 r frequencies-s;
#X obj 209 206 spigot;
#X obj 398 137 t f f;
#X obj 455 154 == 0;
#X obj 221 176 f;
#X floatatom 455 222 5 0 0 0 - - -, f 5;
#X obj 398 159 t b f;
#X floatatom 425 192 5 0 0 0 - - -, f 5;
#X obj 209 139 t f f;
#X obj 176 283 outlet;
#X connect 0 0 1 0;
#X connect 1 0 2 0;
#X connect 2 0 15 0;
#X connect 3 0 14 0;
#X connect 4 0 2 0;
#X connect 5 0 4 0;
#X connect 6 0 8 0;
#X connect 7 0 1 1;
#X connect 8 0 12 0;
#X connect 8 1 9 0;
#X connect 9 0 11 0;
#X connect 10 0 7 0;
#X connect 11 0 1 1;
#X connect 12 0 10 0;
#X connect 12 1 13 0;
#X connect 13 0 7 1;
#X connect 14 0 7 0;
#X connect 14 1 10 1;
#X restore 483 720 pd morph-frequencies;
#N canvas 0 22 1069 747 morph-parameters 0;
#X obj 176 94 inlet;
#X obj 176 236 pack f f;
#X obj 176 261 line;
#X obj 209 117 r preset-manager-morph-s;
#X msg 72 244 stop;
#X obj 72 214 r STOP-MORPH!;
#X obj 209 206 spigot;
#X obj 398 137 t f f;
#X obj 455 154 == 0;
#X obj 221 176 f;
#X floatatom 455 222 5 0 0 0 - - -, f 5;
#X obj 398 159 t b f;
#X floatatom 425 192 5 0 0 0 - - -, f 5;
#X obj 209 139 t f f;
#X obj 398 102 r parameters-s;
#X obj 176 288 outlet;
#X connect 0 0 1 0;
#X connect 1 0 2 0;
#X connect 2 0 15 0;
#X connect 3 0 13 0;
#X connect 4 0 2 0;
#X connect 5 0 4 0;
#X connect 6 0 1 1;
#X connect 7 0 11 0;
#X connect 7 1 8 0;
#X connect 8 0 10 0;
#X connect 9 0 6 0;
#X connect 10 0 1 1;
#X connect 11 0 9 0;
#X connect 11 1 12 0;
#X connect 12 0 6 1;
#X connect 13 0 6 0;
#X connect 13 1 9 1;
#X connect 14 0 7 0;
#X restore 565 473 pd morph-parameters;
#X obj 565 496 s \$0-flam-r;
#N canvas 0 22 1069 747 morph-parameters 0;
#X obj 176 94 inlet;
#X obj 176 236 pack f f;
#X obj 176 261 line;
#X obj 209 117 r preset-manager-morph-s;
#X msg 72 244 stop;
#X obj 72 214 r STOP-MORPH!;
#X obj 209 206 spigot;
#X obj 398 137 t f f;
#X obj 455 154 == 0;
#X obj 221 176 f;
#X floatatom 455 222 5 0 0 0 - - -, f 5;
#X obj 398 159 t b f;
#X floatatom 425 192 5 0 0 0 - - -, f 5;
#X obj 209 139 t f f;
#X obj 398 102 r parameters-s;
#X obj 176 288 outlet;
#X connect 0 0 1 0;
#X connect 1 0 2 0;
#X connect 2 0 15 0;
#X connect 3 0 13 0;
#X connect 4 0 2 0;
#X connect 5 0 4 0;
#X connect 6 0 1 1;
#X connect 7 0 11 0;
#X connect 7 1 8 0;
#X connect 8 0 10 0;
#X connect 9 0 6 0;
#X connect 10 0 1 1;
#X connect 11 0 9 0;
#X connect 11 1 12 0;
#X connect 12 0 6 1;
#X connect 13 0 6 0;
#X connect 13 1 9 1;
#X connect 14 0 7 0;
#X restore 581 425 pd morph-parameters;
#X obj 581 448 s \$0-flam-prob-r;
#N canvas 0 22 1069 747 morph-parameters 0;
#X obj 176 94 inlet;
#X obj 176 236 pack f f;
#X obj 176 261 line;
#X obj 209 117 r preset-manager-morph-s;
#X msg 72 244 stop;
#X obj 72 214 r STOP-MORPH!;
#X obj 209 206 spigot;
#X obj 398 137 t f f;
#X obj 455 154 == 0;
#X obj 221 176 f;
#X floatatom 455 222 5 0 0 0 - - -, f 5;
#X obj 398 159 t b f;
#X floatatom 425 192 5 0 0 0 - - -, f 5;
#X obj 209 139 t f f;
#X obj 398 102 r parameters-s;
#X obj 176 288 outlet;
#X connect 0 0 1 0;
#X connect 1 0 2 0;
#X connect 2 0 15 0;
#X connect 3 0 13 0;
#X connect 4 0 2 0;
#X connect 5 0 4 0;
#X connect 6 0 1 1;
#X connect 7 0 11 0;
#X connect 7 1 8 0;
#X connect 8 0 10 0;
#X connect 9 0 6 0;
#X connect 10 0 1 1;
#X connect 11 0 9 0;
#X connect 11 1 12 0;
#X connect 12 0 6 1;
#X connect 13 0 6 0;
#X connect 13 1 9 1;
#X connect 14 0 7 0;
#X restore 597 380 pd morph-parameters;
#X obj 597 403 s \$0-acc-prob-r;
#X obj 611 359 s \$0-acc-level-r;
#N canvas 0 22 1069 747 morph-parameters 0;
#X obj 176 94 inlet;
#X obj 176 236 pack f f;
#X obj 176 261 line;
#X obj 209 117 r preset-manager-morph-s;
#X msg 72 244 stop;
#X obj 72 214 r STOP-MORPH!;
#X obj 209 206 spigot;
#X obj 398 137 t f f;
#X obj 455 154 == 0;
#X obj 221 176 f;
#X floatatom 455 222 5 0 0 0 - - -, f 5;
#X obj 398 159 t b f;
#X floatatom 425 192 5 0 0 0 - - -, f 5;
#X obj 209 139 t f f;
#X obj 398 102 r parameters-s;
#X obj 176 288 outlet;
#X connect 0 0 1 0;
#X connect 1 0 2 0;
#X connect 2 0 15 0;
#X connect 3 0 13 0;
#X connect 4 0 2 0;
#X connect 5 0 4 0;
#X connect 6 0 1 1;
#X connect 7 0 11 0;
#X connect 7 1 8 0;
#X connect 8 0 10 0;
#X connect 9 0 6 0;
#X connect 10 0 1 1;
#X connect 11 0 9 0;
#X connect 11 1 12 0;
#X connect 12 0 6 1;
#X connect 13 0 6 0;
#X connect 13 1 9 1;
#X connect 14 0 7 0;
#X restore 749 512 pd morph-parameters;
#X obj 749 535 s \$0-drive-r;
#N canvas 0 22 1069 747 morph-parameters 0;
#X obj 176 94 inlet;
#X obj 176 236 pack f f;
#X obj 176 261 line;
#X obj 209 117 r preset-manager-morph-s;
#X msg 72 244 stop;
#X obj 72 214 r STOP-MORPH!;
#X obj 209 206 spigot;
#X obj 398 137 t f f;
#X obj 455 154 == 0;
#X obj 221 176 f;
#X floatatom 455 222 5 0 0 0 - - -, f 5;
#X obj 398 159 t b f;
#X floatatom 425 192 5 0 0 0 - - -, f 5;
#X obj 209 139 t f f;
#X obj 398 102 r parameters-s;
#X obj 176 288 outlet;
#X connect 0 0 1 0;
#X connect 1 0 2 0;
#X connect 2 0 15 0;
#X connect 3 0 13 0;
#X connect 4 0 2 0;
#X connect 5 0 4 0;
#X connect 6 0 1 1;
#X connect 7 0 11 0;
#X connect 7 1 8 0;
#X connect 8 0 10 0;
#X connect 9 0 6 0;
#X connect 10 0 1 1;
#X connect 11 0 9 0;
#X connect 11 1 12 0;
#X connect 12 0 6 1;
#X connect 13 0 6 0;
#X connect 13 1 9 1;
#X connect 14 0 7 0;
#X restore 763 442 pd morph-parameters;
#X obj 763 465 s \$0-tone-r;
#X obj 802 379 s \$0-load-r;
#X connect 0 0 41 0;
#X connect 1 0 0 0;
#X connect 2 0 0 0;
#X connect 4 0 2 0;
#X connect 4 1 1 0;
#X connect 5 0 40 0;
#X connect 6 0 19 0;
#X connect 7 0 10 0;
#X connect 7 1 9 0;
#X connect 7 2 8 0;
#X connect 8 0 3 0;
#X connect 9 0 5 0;
#X connect 10 0 6 0;
#X connect 11 0 7 0;
#X connect 12 0 11 0;
#X connect 13 0 17 0;
#X connect 14 0 4 0;
#X connect 14 1 13 0;
#X connect 15 0 14 0;
#X connect 15 1 13 1;
#X connect 16 0 17 1;
#X connect 17 0 26 0;
#X connect 18 0 16 0;
#X connect 19 0 25 0;
#X connect 20 0 21 0;
#X connect 21 0 19 1;
#X connect 22 0 24 0;
#X connect 23 0 6 1;
#X connect 24 0 15 0;
#X connect 25 0 3 0;
#X connect 26 0 0 0;
#X connect 27 0 5 1;
#X connect 28 0 40 1;
#X connect 29 0 40 2;
#X connect 30 0 40 3;
#X connect 31 0 40 4;
#X connect 32 0 40 5;
#X connect 33 0 40 6;
#X connect 34 0 40 7;
#X connect 35 0 40 8;
#X connect 36 0 40 9;
#X connect 37 0 40 10;
#X connect 38 0 40 11;
#X connect 39 0 3 0;
#X connect 40 0 39 0;
#X connect 41 0 52 0;
#X connect 41 1 43 0;
#X connect 41 2 46 0;
#X connect 41 3 48 0;
#X connect 41 4 50 0;
#X connect 41 5 53 0;
#X connect 41 6 55 0;
#X connect 41 7 57 0;
#X connect 41 8 44 0;
#X connect 41 9 60 0;
#X connect 41 10 62 0;
#X connect 41 11 64 0;
#X connect 43 0 45 0;
#X connect 44 0 59 0;
#X connect 46 0 47 0;
#X connect 48 0 49 0;
#X connect 50 0 51 0;
#X connect 52 0 42 0;
#X connect 53 0 54 0;
#X connect 55 0 56 0;
#X connect 57 0 58 0;
#X connect 60 0 61 0;
#X connect 62 0 63 0;
#X restore 99 428 pd state-saving-via-preset-manager-module;
#X obj 105 124 cnv 5 5 5 empty empty KICK 0 0 0 12 -262144 -66577 0
;
#X obj 210 109 cnv 5 5 5 empty empty SWEEP 0 0 0 8 -262144 -1 0;
#X obj 103 109 cnv 5 5 5 empty empty TRG 0 0 0 8 -262144 -226533 0
;
#X obj 156 109 cnv 5 5 5 empty empty DCY 0 0 0 8 -262144 -1 0;
#X obj 145 124 cnv 5 5 5 empty \$0-instance-num 2 0 0 0 12 -262144
-66577 0;
#X obj 126 109 cnv 5 5 5 empty empty PTCH 0 0 0 8 -262144 -1 0;
#X obj 241 109 cnv 5 5 5 empty empty WFRM 0 0 0 8 -262144 -1 0;
#X floatatom 587 252 5 0 0 0 - - -, f 5;
#N canvas 292 124 758 559 anti-alias 0;
#X obj 144 23 inlet~;
#X obj 144 509 outlet~;
#X obj 144 69 osc~;
#N canvas 0 22 827 623 wform-xfader 0;
#X obj 115 599 *~;
#X obj 116 679 outlet~;
#X obj 59 540 inlet~ A;
#X obj 252 603 *~;
#X obj 193 548 inlet~ B;
#X obj 403 609 *~;
#X obj 344 554 inlet~ C;
#X obj 90 152 r \$0-kick-wform-s;
#X obj 90 258 sig~;
#X obj 90 295 +~;
#X obj 90 339 clip~ 0 1;
#X obj 90 465 lop~ 10;
#X obj 208 465 lop~ 10;
#X obj 327 465 lop~ 10;
#X obj 90 366 expr~ if ($v1 < 0.5 \, (1-$v1*2) \, 0 ) \; if ($v1 <
0.5 \, $v1*2 \, (1-$v1+0.5)*2-1 ) \; if ($v1 > 0.5 \, ($v1*2-1) \,
0 );
#X obj 90 414 clip~ 0 1;
#X obj 208 421 clip~ 0 1;
#X obj 327 420 clip~ 0 1;
#X obj 90 223 / 127;
#X obj 213 271 r~ \$0-kick-wform-cv;
#X connect 0 0 1 0;
#X connect 2 0 0 0;
#X connect 3 0 1 0;
#X connect 4 0 3 0;
#X connect 5 0 1 0;
#X connect 6 0 5 0;
#X connect 7 0 18 0;
#X connect 8 0 9 0;
#X connect 9 0 10 0;
#X connect 10 0 14 0;
#X connect 11 0 0 1;
#X connect 12 0 3 1;
#X connect 13 0 5 1;
#X connect 14 0 15 0;
#X connect 14 1 16 0;
#X connect 14 2 17 0;
#X connect 15 0 11 0;
#X connect 16 0 12 0;
#X connect 17 0 13 0;
#X connect 18 0 8 0;
#X connect 19 0 9 1;
#X restore 144 283 pd wform-xfader;
#X obj 388 77 phasor~;
#X obj 388 99 expr~ $v1 > 0.5;
#X obj 388 121 *~ 2;
#X obj 388 143 -~ 1;
#X obj 211 91 phasor~;
#X obj 211 223 -~ 1;
#X obj 211 113 *~ 2;
#X connect 0 0 2 0;
#X connect 0 0 4 0;
#X connect 0 0 8 0;
#X connect 2 0 3 0;
#X connect 3 0 1 0;
#X connect 4 0 5 0;
#X connect 5 0 6 0;
#X connect 6 0 7 0;
#X connect 7 0 3 2;
#X connect 8 0 10 0;
#X connect 9 0 3 1;
#X connect 10 0 9 0;
#X restore 412 360 pd anti-alias;
#X obj 108 204 hsl 128 15 0 127 0 1 \$0-kick-wform-s \$0-kick-wform-r
WFORM 135 7 0 10 -262144 -1 -1 2500 1;
#X obj 410 165 * 2;
#X obj 976 327 inlet~ WFORM;
#X obj 976 349 s~ \$0-kick-wform-cv;
#X obj 186 109 cnv 5 5 5 empty empty EG2 0 0 0 8 -262144 -1 0;
#N canvas 297 27 981 701 parameter-nudging-system 0;
#X obj 23 70 clip 0 127;
#X obj 182 67 clip 0 127;
#X obj 337 65 clip 0 127;
#N canvas 0 22 484 497 nudge-parameters 0;
#X obj 124 234 random;
#X obj 232 335 f;
#X obj 232 368 +;
#X obj 257 166 random 2;
#X obj 124 275 t f f;
#X obj 124 351 t b f;
#X obj 124 297 *;
#X obj 257 188 sel 0 1;
#X msg 257 280 -1;
#X msg 335 280 1;
#X obj 124 149 t b b b;
#X obj 124 74 r NUDGE!;
#X obj 157 193 r NUDGE-RANGE;
#X obj 247 308 inlet;
#X obj 232 397 outlet;
#X obj 124 96 spigot;
#X obj 185 79 r parameters2-s;
#X connect 0 0 4 0;
#X connect 1 0 2 0;
#X connect 2 0 14 0;
#X connect 3 0 7 0;
#X connect 4 0 6 0;
#X connect 5 0 2 0;
#X connect 5 1 2 1;
#X connect 6 0 5 0;
#X connect 7 0 8 0;
#X connect 7 1 9 0;
#X connect 8 0 6 1;
#X connect 9 0 6 1;
#X connect 10 0 0 0;
#X connect 10 1 1 0;
#X connect 10 2 3 0;
#X connect 11 0 15 0;
#X connect 12 0 0 1;
#X connect 13 0 1 1;
#X connect 15 0 10 0;
#X connect 16 0 15 1;
#X restore 182 45 pd nudge-parameters;
#X obj 23 22 r \$0-kick-pitch-s;
#X obj 23 102 s \$0-kick-pitch-r;
#X obj 182 22 r \$0-kick-decay-s;
#X obj 182 99 s \$0-kick-decay-r;
#X obj 337 20 r \$0-kick-envmod-s;
#X obj 337 97 s \$0-kick-envmod-r;
#X obj 27 193 clip 0 127;
#N canvas 0 22 484 497 nudge-parameters 0;
#X obj 124 234 random;
#X obj 232 335 f;
#X obj 232 368 +;
#X obj 257 166 random 2;
#X obj 124 275 t f f;
#X obj 124 351 t b f;
#X obj 124 297 *;
#X obj 257 188 sel 0 1;
#X msg 257 280 -1;
#X msg 335 280 1;
#X obj 124 149 t b b b;
#X obj 124 74 r NUDGE!;
#X obj 157 193 r NUDGE-RANGE;
#X obj 247 308 inlet;
#X obj 232 397 outlet;
#X obj 124 96 spigot;
#X obj 185 79 r parameters2-s;
#X connect 0 0 4 0;
#X connect 1 0 2 0;
#X connect 2 0 14 0;
#X connect 3 0 7 0;
#X connect 4 0 6 0;
#X connect 5 0 2 0;
#X connect 5 1 2 1;
#X connect 6 0 5 0;
#X connect 7 0 8 0;
#X connect 7 1 9 0;
#X connect 8 0 6 1;
#X connect 9 0 6 1;
#X connect 10 0 0 0;
#X connect 10 1 1 0;
#X connect 10 2 3 0;
#X connect 11 0 15 0;
#X connect 12 0 0 1;
#X connect 13 0 1 1;
#X connect 15 0 10 0;
#X connect 16 0 15 1;
#X restore 27 171 pd nudge-parameters;
#X obj 209 191 clip 0 127;
#N canvas 0 22 484 497 nudge-parameters 0;
#X obj 124 234 random;
#X obj 232 335 f;
#X obj 232 368 +;
#X obj 257 166 random 2;
#X obj 124 275 t f f;
#X obj 124 351 t b f;
#X obj 124 297 *;
#X obj 257 188 sel 0 1;
#X msg 257 280 -1;
#X msg 335 280 1;
#X obj 124 149 t b b b;
#X obj 124 74 r NUDGE!;
#X obj 157 193 r NUDGE-RANGE;
#X obj 247 308 inlet;
#X obj 232 397 outlet;
#X obj 124 96 spigot;
#X obj 185 79 r parameters2-s;
#X connect 0 0 4 0;
#X connect 1 0 2 0;
#X connect 2 0 14 0;
#X connect 3 0 7 0;
#X connect 4 0 6 0;
#X connect 5 0 2 0;
#X connect 5 1 2 1;
#X connect 6 0 5 0;
#X connect 7 0 8 0;
#X connect 7 1 9 0;
#X connect 8 0 6 1;
#X connect 9 0 6 1;
#X connect 10 0 0 0;
#X connect 10 1 1 0;
#X connect 10 2 3 0;
#X connect 11 0 15 0;
#X connect 12 0 0 1;
#X connect 13 0 1 1;
#X connect 15 0 10 0;
#X connect 16 0 15 1;
#X restore 209 169 pd nudge-parameters;
#X obj 350 191 clip 0 127;
#N canvas 0 22 484 497 nudge-parameters 0;
#X obj 124 234 random;
#X obj 232 335 f;
#X obj 232 368 +;
#X obj 257 166 random 2;
#X obj 124 275 t f f;
#X obj 124 351 t b f;
#X obj 124 297 *;
#X obj 257 188 sel 0 1;
#X msg 257 280 -1;
#X msg 335 280 1;
#X obj 124 149 t b b b;
#X obj 124 74 r NUDGE!;
#X obj 157 193 r NUDGE-RANGE;
#X obj 247 308 inlet;
#X obj 232 397 outlet;
#X obj 124 96 spigot;
#X obj 185 79 r parameters2-s;
#X connect 0 0 4 0;
#X connect 1 0 2 0;
#X connect 2 0 14 0;
#X connect 3 0 7 0;
#X connect 4 0 6 0;
#X connect 5 0 2 0;
#X connect 5 1 2 1;
#X connect 6 0 5 0;
#X connect 7 0 8 0;
#X connect 7 1 9 0;
#X connect 8 0 6 1;
#X connect 9 0 6 1;
#X connect 10 0 0 0;
#X connect 10 1 1 0;
#X connect 10 2 3 0;
#X connect 11 0 15 0;
#X connect 12 0 0 1;
#X connect 13 0 1 1;
#X connect 15 0 10 0;
#X connect 16 0 15 1;
#X restore 350 169 pd nudge-parameters;
#X obj 27 148 r \$0-kick-sweep-s;
#X obj 27 225 s \$0-kick-sweep-r;
#X obj 209 146 r \$0-kick-wform-s;
#X obj 209 223 s \$0-kick-wform-r;
#X obj 350 146 r \$0-flam-s;
#X obj 350 223 s \$0-flam-r;
#X obj 23 309 clip 0 127;
#N canvas 0 22 484 497 nudge-parameters 0;
#X obj 124 234 random;
#X obj 232 335 f;
#X obj 232 368 +;
#X obj 257 166 random 2;
#X obj 124 275 t f f;
#X obj 124 351 t b f;
#X obj 124 297 *;
#X obj 257 188 sel 0 1;
#X msg 257 280 -1;
#X msg 335 280 1;
#X obj 124 149 t b b b;
#X obj 124 74 r NUDGE!;
#X obj 157 193 r NUDGE-RANGE;
#X obj 247 308 inlet;
#X obj 232 397 outlet;
#X obj 124 96 spigot;
#X obj 185 79 r parameters2-s;
#X connect 0 0 4 0;
#X connect 1 0 2 0;
#X connect 2 0 14 0;
#X connect 3 0 7 0;
#X connect 4 0 6 0;
#X connect 5 0 2 0;
#X connect 5 1 2 1;
#X connect 6 0 5 0;
#X connect 7 0 8 0;
#X connect 7 1 9 0;
#X connect 8 0 6 1;
#X connect 9 0 6 1;
#X connect 10 0 0 0;
#X connect 10 1 1 0;
#X connect 10 2 3 0;
#X connect 11 0 15 0;
#X connect 12 0 0 1;
#X connect 13 0 1 1;
#X connect 15 0 10 0;
#X connect 16 0 15 1;
#X restore 23 287 pd nudge-parameters;
#X obj 205 307 clip 0 127;
#N canvas 0 22 484 497 nudge-parameters 0;
#X obj 124 234 random;
#X obj 232 335 f;
#X obj 232 368 +;
#X obj 257 166 random 2;
#X obj 124 275 t f f;
#X obj 124 351 t b f;
#X obj 124 297 *;
#X obj 257 188 sel 0 1;
#X msg 257 280 -1;
#X msg 335 280 1;
#X obj 124 149 t b b b;
#X obj 124 74 r NUDGE!;
#X obj 157 193 r NUDGE-RANGE;
#X obj 247 308 inlet;
#X obj 232 397 outlet;
#X obj 124 96 spigot;
#X obj 185 79 r parameters2-s;
#X connect 0 0 4 0;
#X connect 1 0 2 0;
#X connect 2 0 14 0;
#X connect 3 0 7 0;
#X connect 4 0 6 0;
#X connect 5 0 2 0;
#X connect 5 1 2 1;
#X connect 6 0 5 0;
#X connect 7 0 8 0;
#X connect 7 1 9 0;
#X connect 8 0 6 1;
#X connect 9 0 6 1;
#X connect 10 0 0 0;
#X connect 10 1 1 0;
#X connect 10 2 3 0;
#X connect 11 0 15 0;
#X connect 12 0 0 1;
#X connect 13 0 1 1;
#X connect 15 0 10 0;
#X connect 16 0 15 1;
#X restore 205 285 pd nudge-parameters;
#N canvas 0 22 484 497 nudge-attenuators 0;
#X obj 124 234 random;
#X obj 232 335 f;
#X obj 232 368 +;
#X obj 257 166 random 2;
#X obj 124 275 t f f;
#X obj 124 351 t b f;
#X obj 124 297 *;
#X obj 257 188 sel 0 1;
#X msg 257 280 -1;
#X msg 335 280 1;
#X obj 124 149 t b b b;
#X obj 124 71 r NUDGE!;
#X obj 157 193 r NUDGE-RANGE;
#X obj 247 308 inlet;
#X obj 232 397 outlet;
#X obj 124 93 spigot;
#X obj 201 76 r attenuators2-s;
#X connect 0 0 4 0;
#X connect 1 0 2 0;
#X connect 2 0 14 0;
#X connect 3 0 7 0;
#X connect 4 0 6 0;
#X connect 5 0 2 0;
#X connect 5 1 2 1;
#X connect 6 0 5 0;
#X connect 7 0 8 0;
#X connect 7 1 9 0;
#X connect 8 0 6 1;
#X connect 9 0 6 1;
#X connect 10 0 0 0;
#X connect 10 1 1 0;
#X connect 10 2 3 0;
#X connect 11 0 15 0;
#X connect 12 0 0 1;
#X connect 13 0 1 1;
#X connect 15 0 10 0;
#X connect 16 0 15 1;
#X restore 353 280 pd nudge-attenuators;
#N canvas 0 22 484 497 nudge-parameters 0;
#X obj 124 234 random;
#X obj 232 335 f;
#X obj 232 368 +;
#X obj 257 166 random 2;
#X obj 124 275 t f f;
#X obj 124 351 t b f;
#X obj 124 297 *;
#X obj 257 188 sel 0 1;
#X msg 257 280 -1;
#X msg 335 280 1;
#X obj 124 149 t b b b;
#X obj 124 74 r NUDGE!;
#X obj 157 193 r NUDGE-RANGE;
#X obj 247 308 inlet;
#X obj 232 397 outlet;
#X obj 124 96 spigot;
#X obj 185 79 r parameters2-s;
#X connect 0 0 4 0;
#X connect 1 0 2 0;
#X connect 2 0 14 0;
#X connect 3 0 7 0;
#X connect 4 0 6 0;
#X connect 5 0 2 0;
#X connect 5 1 2 1;
#X connect 6 0 5 0;
#X connect 7 0 8 0;
#X connect 7 1 9 0;
#X connect 8 0 6 1;
#X connect 9 0 6 1;
#X connect 10 0 0 0;
#X connect 10 1 1 0;
#X connect 10 2 3 0;
#X connect 11 0 15 0;
#X connect 12 0 0 1;
#X connect 13 0 1 1;
#X connect 15 0 10 0;
#X connect 16 0 15 1;
#X restore 337 41 pd nudge-parameters;
#X obj 354 305 clip 0 127;
#X obj 353 254 r \$0-acc-level-s;
#X obj 354 331 s \$0-acc-level-r;
#X obj 23 264 r \$0-flam-prob-s;
#X obj 23 341 s \$0-flam-prob-r;
#X obj 205 262 r \$0-acc-prob-s;
#X obj 205 339 s \$0-acc-prob-r;
#X obj 23 448 clip 0 127;
#N canvas 0 22 484 497 nudge-parameters 0;
#X obj 124 234 random;
#X obj 232 335 f;
#X obj 232 368 +;
#X obj 257 166 random 2;
#X obj 124 275 t f f;
#X obj 124 351 t b f;
#X obj 124 297 *;
#X obj 257 188 sel 0 1;
#X msg 257 280 -1;
#X msg 335 280 1;
#X obj 124 149 t b b b;
#X obj 124 74 r NUDGE!;
#X obj 157 193 r NUDGE-RANGE;
#X obj 247 308 inlet;
#X obj 232 397 outlet;
#X obj 124 96 spigot;
#X obj 185 79 r parameters2-s;
#X connect 0 0 4 0;
#X connect 1 0 2 0;
#X connect 2 0 14 0;
#X connect 3 0 7 0;
#X connect 4 0 6 0;
#X connect 5 0 2 0;
#X connect 5 1 2 1;
#X connect 6 0 5 0;
#X connect 7 0 8 0;
#X connect 7 1 9 0;
#X connect 8 0 6 1;
#X connect 9 0 6 1;
#X connect 10 0 0 0;
#X connect 10 1 1 0;
#X connect 10 2 3 0;
#X connect 11 0 15 0;
#X connect 12 0 0 1;
#X connect 13 0 1 1;
#X connect 15 0 10 0;
#X connect 16 0 15 1;
#X restore 23 426 pd nudge-parameters;
#X obj 205 446 clip 0 127;
#N canvas 0 22 484 497 nudge-parameters 0;
#X obj 124 234 random;
#X obj 232 335 f;
#X obj 232 368 +;
#X obj 257 166 random 2;
#X obj 124 275 t f f;
#X obj 124 351 t b f;
#X obj 124 297 *;
#X obj 257 188 sel 0 1;
#X msg 257 280 -1;
#X msg 335 280 1;
#X obj 124 149 t b b b;
#X obj 124 74 r NUDGE!;
#X obj 157 193 r NUDGE-RANGE;
#X obj 247 308 inlet;
#X obj 232 397 outlet;
#X obj 124 96 spigot;
#X obj 185 79 r parameters2-s;
#X connect 0 0 4 0;
#X connect 1 0 2 0;
#X connect 2 0 14 0;
#X connect 3 0 7 0;
#X connect 4 0 6 0;
#X connect 5 0 2 0;
#X connect 5 1 2 1;
#X connect 6 0 5 0;
#X connect 7 0 8 0;
#X connect 7 1 9 0;
#X connect 8 0 6 1;
#X connect 9 0 6 1;
#X connect 10 0 0 0;
#X connect 10 1 1 0;
#X connect 10 2 3 0;
#X connect 11 0 15 0;
#X connect 12 0 0 1;
#X connect 13 0 1 1;
#X connect 15 0 10 0;
#X connect 16 0 15 1;
#X restore 205 424 pd nudge-parameters;
#X obj 23 403 r \$0-drive-s;
#X obj 23 480 s \$0-drive-r;
#X obj 205 401 r \$0-tone-s;
#X obj 205 478 s \$0-tone-r;
#N canvas 0 22 484 497 nudge-freq 0;
#X obj 124 234 random;
#X obj 232 335 f;
#X obj 232 368 +;
#X obj 257 166 random 2;
#X obj 124 275 t f f;
#X obj 124 351 t b f;
#X obj 124 297 *;
#X obj 257 188 sel 0 1;
#X msg 257 280 -1;
#X msg 335 280 1;
#X obj 124 149 t b b b;
#X obj 124 51 r NUDGE!;
#X obj 157 193 r NUDGE-RANGE;
#X obj 247 308 inlet;
#X obj 232 397 outlet;
#X obj 124 73 spigot;
#X obj 185 56 r frequencies2-s;
#X connect 0 0 4 0;
#X connect 1 0 2 0;
#X connect 2 0 14 0;
#X connect 3 0 7 0;
#X connect 4 0 6 0;
#X connect 5 0 2 0;
#X connect 5 1 2 1;
#X connect 6 0 5 0;
#X connect 7 0 8 0;
#X connect 7 1 9 0;
#X connect 8 0 6 1;
#X connect 9 0 6 1;
#X connect 10 0 0 0;
#X connect 10 1 1 0;
#X connect 10 2 3 0;
#X connect 11 0 15 0;
#X connect 12 0 0 1;
#X connect 13 0 1 1;
#X connect 15 0 10 0;
#X connect 16 0 15 1;
#X restore 22 48 pd nudge-freq;
#X connect 0 0 5 0;
#X connect 1 0 7 0;
#X connect 2 0 9 0;
#X connect 3 0 1 0;
#X connect 4 0 43 0;
#X connect 6 0 3 0;
#X connect 8 0 27 0;
#X connect 10 0 17 0;
#X connect 11 0 10 0;
#X connect 12 0 19 0;
#X connect 13 0 12 0;
#X connect 14 0 21 0;
#X connect 15 0 14 0;
#X connect 16 0 11 0;
#X connect 18 0 13 0;
#X connect 20 0 15 0;
#X connect 22 0 32 0;
#X connect 23 0 22 0;
#X connect 24 0 34 0;
#X connect 25 0 24 0;
#X connect 26 0 28 0;
#X connect 27 0 2 0;
#X connect 28 0 30 0;
#X connect 29 0 26 0;
#X connect 31 0 23 0;
#X connect 33 0 25 0;
#X connect 35 0 40 0;
#X connect 36 0 35 0;
#X connect 37 0 42 0;
#X connect 38 0 37 0;
#X connect 39 0 36 0;
#X connect 41 0 38 0;
#X connect 43 0 0 0;
#X restore 99 404 pd parameter-nudging-system;
#X obj 292 49 threshold~ 0.9 0 0.9 0;
#X floatatom 465 191 5 0 0 0 - - -, f 5;
#X obj 518 176 * 5000;
#X obj 108 264 hsl 128 15 0 127 0 1 \$0-acc-level-s \$0-acc-level-r
ACCENT 133 7 0 10 -158136 -1 -1 100 1;
#X obj 108 234 hsl 128 15 0 127 0 1 \$0-flam-prob-s \$0-flam-prob-r
FLAM-PROB 133 7 0 10 -262144 -1 -1 2300 1;
#X obj 108 219 hsl 128 15 0 127 0 1 \$0-flam-s \$0-flam-r FLAM 133
7 0 10 -262144 -1 -1 700 1;
#X obj 118 323 hradio 15 1 1 8 \$0-load-s \$0-load-r LOAD 125 7 0 10
-262144 -150893 -1 0;
#X obj 118 308 hradio 15 1 0 8 \$0-write-s \$0-write-r STORE 125 7
0 10 -262144 -226533 -1 0;
#X obj 297 235 bng 15 250 50 0 \$0-flam-prob-gui-r \$0-flam-prob-gui-r
empty 17 7 0 10 -1 -226533 -1;
#X obj 297 250 bng 15 250 50 0 \$0-acc-prob-gui-s \$0-acc-prob-gui-r
empty 17 7 0 10 -1 -226533 -1;
#N canvas 0 22 864 595 flam-code 0;
#X obj 406 349 t b b b;
#X obj 406 425 delay;
#X obj 426 400 delay;
#X obj 433 258 / 127;
#X obj 445 376 delay;
#X obj 101 447 spigot;
#X floatatom 134 368 5 0 0 0 - - -, f 5;
#X obj 134 346 < 1;
#X obj 134 387 == 0;
#X floatatom 134 409 5 0 0 0 - - -, f 5;
#X obj 433 302 + 1;
#X obj 433 324 t f f f;
#X obj 433 280 * 99;
#X obj 433 234 r \$0-flam-s;
#X obj 134 324 r \$0-flam-s;
#X obj 409 110 random 127;
#X floatatom 409 132 5 0 0 0 - - -, f 5;
#X obj 409 151 moses;
#X obj 409 197 t b b;
#X obj 409 173 change;
#X obj 492 185 s \$0-flam-prob-gui-r;
#X obj 516 124 r \$0-flam-prob-s;
#X obj 408 55 inlet;
#X obj 101 500 s \$0-kick-trig!;
#X connect 0 0 1 0;
#X connect 0 1 2 0;
#X connect 0 2 4 0;
#X connect 1 0 5 0;
#X connect 2 0 5 0;
#X connect 3 0 12 0;
#X connect 4 0 5 0;
#X connect 5 0 23 0;
#X connect 6 0 8 0;
#X connect 7 0 6 0;
#X connect 8 0 9 0;
#X connect 9 0 5 1;
#X connect 10 0 11 0;
#X connect 11 0 1 1;
#X connect 11 1 2 1;
#X connect 11 2 4 1;
#X connect 12 0 10 0;
#X connect 13 0 3 0;
#X connect 14 0 7 0;
#X connect 15 0 16 0;
#X connect 16 0 17 0;
#X connect 17 0 19 0;
#X connect 18 0 0 0;
#X connect 18 1 20 0;
#X connect 19 0 18 0;
#X connect 21 0 17 1;
#X connect 22 0 15 0;
#X restore 423 80 pd flam-code;
#X obj 292 75 t b b b b;
#X obj 947 494 random 127;
#X floatatom 947 516 5 0 0 0 - - -, f 5;
#X obj 947 535 moses;
#X floatatom 1011 562 5 0 0 0 - - -, f 5;
#X obj 947 557 t b b;
#X obj 947 579 s \$0-acc-prob-gui-r;
#X obj 1016 521 r \$0-acc-prob-s;
#N canvas 0 22 623 472 EGACCENT 0;
#X obj 135 132 f;
#X obj 210 71 / 127;
#X msg 135 154 1 1 \, 0 \$1 1;
#X obj 135 176 vline~;
#X obj 135 198 *~;
#X obj 135 220 *~;
#X obj 135 314 s~ \$0-ACCENT;
#X obj 135 55 inlet;
#X obj 210 49 r \$0-kick-decay-s;
#X obj 135 242 *~;
#X obj 213 159 r \$0-acc-level-s;
#X obj 213 181 / 127;
#X obj 213 203 pack 0 50;
#X obj 213 225 line~;
#X obj 210 115 + 10;
#X obj 210 93 * 5000;
#X obj 342 135 f;
#X obj 417 74 / 127;
#X msg 342 157 1 1 \, 0 \$1 1;
#X obj 342 179 vline~;
#X obj 342 201 *~;
#X obj 342 223 *~;
#X obj 342 245 *~;
#X obj 420 162 r \$0-acc-level-s;
#X obj 420 184 / 127;
#X obj 420 206 pack 0 50;
#X obj 420 228 line~;
#X obj 417 118 + 10;
#X obj 135 77 t b b;
#X obj 417 52 r \$0-kick-envmod-s;
#X obj 342 267 s~ \$0-ACCENT2;
#X obj 417 96 * 500;
#X connect 0 0 2 0;
#X connect 1 0 15 0;
#X connect 2 0 3 0;
#X connect 3 0 4 0;
#X connect 3 0 4 1;
#X connect 4 0 5 0;
#X connect 4 0 5 1;
#X connect 5 0 9 0;
#X connect 7 0 28 0;
#X connect 8 0 1 0;
#X connect 9 0 6 0;
#X connect 10 0 11 0;
#X connect 11 0 12 0;
#X connect 12 0 13 0;
#X connect 13 0 9 1;
#X connect 14 0 0 1;
#X connect 15 0 14 0;
#X connect 16 0 18 0;
#X connect 17 0 31 0;
#X connect 18 0 19 0;
#X connect 19 0 20 0;
#X connect 19 0 20 1;
#X connect 20 0 21 0;
#X connect 20 0 21 1;
#X connect 21 0 22 0;
#X connect 22 0 30 0;
#X connect 23 0 24 0;
#X connect 24 0 25 0;
#X connect 25 0 26 0;
#X connect 26 0 22 1;
#X connect 27 0 16 1;
#X connect 28 0 0 0;
#X connect 28 1 16 0;
#X connect 29 0 17 0;
#X connect 31 0 27 0;
#X restore 974 611 pd EGACCENT;
#X obj 947 472 r \$0-kick-trig!;
#X obj 553 417 r~ \$0-ACCENT;
#X obj 108 249 hsl 128 15 0 127 0 1 \$0-acc-prob-s \$0-acc-prob-r ACC-PROB
133 7 0 10 -262144 -1 -1 4000 1;
#X obj 412 476 *~ 0.5;
#X obj 108 294 hsl 128 15 0 16 0 1 \$0-tone-s \$0-tone-r TONE 135 7
0 10 -262144 -1 -1 12700 1;
#X obj 108 279 hsl 128 15 0 127 0 1 \$0-drive-s \$0-drive-r DRIVE 135
7 0 10 -262144 -1 -1 1900 1;
#N canvas 0 22 961 591 post-harmonics 0;
#X obj 303 45 inlet~;
#X obj 302 373 *~;
#X obj 302 463 clip~ -1 1;
#X obj 302 662 outlet~;
#X obj 317 305 pack 0 50;
#X obj 317 327 line~;
#X obj 317 349 +~;
#X obj 604 243 * 0.00787402;
#X obj 604 267 * 9900;
#X obj 604 289 + 100;
#X obj 317 239 * 0.00787402;
#X obj 302 417 lop~;
#X obj 302 439 lop~;
#X obj 302 515 lop~;
#X obj 302 537 lop~;
#X obj 604 333 line;
#X obj 604 400 t f f f f;
#X obj 604 355 +;
#X obj 604 377 clip 100 10000;
#X obj 303 195 hip~;
#X obj 369 46 / 127;
#X obj 369 68 * 450;
#X obj 369 90 + 50;
#X obj 302 492 expr~ $v1-pow($v1 \, 3)/3;
#X obj 302 615 biquad~ 1.923 -0.92564 0.985317 -1.923 0.940323;
#X obj 369 134 line;
#X obj 369 156 +;
#X obj 369 178 clip 50 500;
#X obj 674 433 / 127;
#X obj 674 455 * 480;
#X obj 674 477 + 20;
#X obj 674 543 +;
#X obj 674 565 t f f;
#X obj 302 640 clip~ -1 1;
#X obj 369 112 pack 0 50;
#X obj 604 311 pack 0 50;
#X obj 674 499 pack 0 50;
#X obj 302 565 hip~;
#X obj 302 587 hip~;
#X obj 674 521 t f f;
#X obj 674 587 sig~;
#X obj 674 609 lop~ 10;
#X obj 674 631 snapshot~;
#X obj 674 653 t f f;
#X obj 769 614 bang~;
#X obj 317 261 * 499;
#X obj 302 395 +~ 0.1;
#X obj 317 283 + 10;
#X obj 405 200 loadbang;
#X msg 405 222 64;
#X obj 369 20 r \$0-tone-s;
#X obj 604 218 r \$0-tone-s;
#X obj 674 408 r \$0-tone-s;
#X connect 0 0 19 0;
#X connect 1 0 46 0;
#X connect 2 0 23 0;
#X connect 4 0 5 0;
#X connect 5 0 6 0;
#X connect 6 0 1 1;
#X connect 7 0 8 0;
#X connect 8 0 9 0;
#X connect 9 0 35 0;
#X connect 10 0 45 0;
#X connect 11 0 12 0;
#X connect 12 0 2 0;
#X connect 13 0 14 0;
#X connect 14 0 37 0;
#X connect 15 0 17 0;
#X connect 16 0 11 1;
#X connect 16 1 12 1;
#X connect 16 2 13 1;
#X connect 16 3 14 1;
#X connect 17 0 18 0;
#X connect 18 0 16 0;
#X connect 19 0 1 0;
#X connect 20 0 21 0;
#X connect 21 0 22 0;
#X connect 22 0 34 0;
#X connect 23 0 13 0;
#X connect 24 0 33 0;
#X connect 25 0 26 0;
#X connect 26 0 27 0;
#X connect 27 0 19 1;
#X connect 28 0 29 0;
#X connect 29 0 30 0;
#X connect 30 0 36 0;
#X connect 31 0 32 0;
#X connect 32 0 40 0;
#X connect 33 0 3 0;
#X connect 34 0 25 0;
#X connect 35 0 15 0;
#X connect 36 0 39 0;
#X connect 37 0 38 0;
#X connect 38 0 24 0;
#X connect 39 0 31 0;
#X connect 40 0 41 0;
#X connect 41 0 42 0;
#X connect 42 0 43 0;
#X connect 43 0 37 1;
#X connect 43 1 38 1;
#X connect 44 0 42 0;
#X connect 45 0 47 0;
#X connect 46 0 11 0;
#X connect 47 0 4 0;
#X connect 48 0 49 0;
#X connect 49 0 10 0;
#X connect 50 0 20 0;
#X connect 51 0 7 0;
#X connect 52 0 28 0;
#X restore 412 519 pd post-harmonics;
#X obj 412 563 *~;
#X obj 346 542 *~;
#X obj 607 452 r \$0-drive-s;
#X obj 607 474 / 127;
#X obj 668 523 pack 0 50;
#X obj 668 545 line~;
#X obj 607 496 t f f;
#X msg 607 518 1 \$1;
#X obj 607 540 -;
#X obj 607 562 pack 0 50;
#X obj 607 584 line~;
#X obj 108 160 hsl 128 15 1.27 127 1 1 \$0-kick-decay-s \$0-kick-decay-r
DECAY 133 7 0 10 -262144 -1 -1 10300 1;
#X msg 548 322 1 1 \, 0 \$1 \$2;
#X obj 548 279 pack f f;
#X obj 578 130 r \$0-kick-hold-s;
#X obj 578 152 / 127;
#X obj 578 174 * 1000;
#X obj 578 196 moses 10;
#X obj 693 195 * 500;
#X obj 627 371 r~ \$0-ACCENT2;
#X obj 1058 44 inlet~ LOAD;
#X obj 298 109 cnv 5 5 5 empty empty RDM 0 0 0 8 -262144 -226533 0
;
#X obj 267 109 cnv 5 5 5 empty empty LOAD 0 0 0 8 -262144 -226533 0
;
#N canvas 302 65 1008 752 savetest 0;
#X obj 290 212 pack f f;
#X obj 305 133 loadbang;
#X obj 305 155 f \$1;
#X obj 290 184 f;
#X obj 292 453 textfile;
#X msg 475 436 rewind;
#X obj 165 78 loadbang;
#X obj 19 174 delay 10;
#X text 59 52 WRITE;
#X obj 19 54 inlet;
#X obj 19 208 f;
#X obj 19 247 pack f f;
#X obj 165 126 t f f;
#X obj 165 104 f \$1;
#X msg -193 97 bang;
#X obj 91 611 textfile;
#X msg 97 236 clear;
#X obj 19 118 t b f b b;
#X obj 308 21 inlet;
#X text 353 19 LOAD;
#X msg 399 415 bang;
#X obj 412 375 t b b;
#X obj 308 43 t b f;
#X obj 290 90 t b b;
#X obj -412 344 f;
#N canvas 0 22 1084 659 unpack-values 0;
#X obj 182 32 inlet;
#X obj 181 578 s \$0-kick-pitch-r;
#X obj 194 557 s \$0-kick-decay-r;
#X obj 211 531 s \$0-kick-envmod-r;
#X obj 224 510 s \$0-kick-sweep-r;
#X obj 238 485 s \$0-kick-wform-r;
#X obj 251 464 s \$0-flam-r;
#X obj 268 438 s \$0-flam-prob-r;
#X obj 281 417 s \$0-acc-prob-r;
#X obj 298 394 s \$0-acc-level-r;
#X obj 311 373 s \$0-drive-r;
#X obj 337 317 s \$0-tone-r;
#X obj 182 59 unpack f f f f f f f f f f f;
#X connect 0 0 12 0;
#X connect 12 0 1 0;
#X connect 12 1 2 0;
#X connect 12 2 3 0;
#X connect 12 3 4 0;
#X connect 12 4 5 0;
#X connect 12 5 6 0;
#X connect 12 6 7 0;
#X connect 12 7 8 0;
#X connect 12 8 9 0;
#X connect 12 9 10 0;
#X connect 12 10 11 0;
#X restore 292 479 pd unpack-values;
#X obj 411 85 f;
#X obj 411 24 r SAVE-S;
#X msg 19 329 write statesave/\$1-kickpreset-\$2-ss.txt;
#X msg 291 297 read statesave/\$1-kickpreset-\$2-ss.txt;
#X obj -400 22 r \$0-kick-pitch-s;
#X obj -387 44 r \$0-kick-decay-s;
#X obj -371 64 r \$0-kick-envmod-s;
#X obj -355 84 r \$0-kick-sweep-s;
#X obj -337 103 r \$0-kick-wform-s;
#X obj -321 123 r \$0-flam-s;
#X obj -305 143 r \$0-flam-prob-s;
#X obj -284 166 r \$0-acc-prob-s;
#X obj -264 195 r \$0-acc-level-s;
#X obj -248 215 r \$0-drive-s;
#X obj -232 235 r \$0-tone-s;
#X obj 426 56 r \$0-load-s;
#X obj 411 107 s \$0-write-r;
#X msg -378 522 set \$1 \$2 \$3 \$4 \$5 \$6 \$7 \$8 \$9 \$10 \$11;
#X obj -377 481 pack f f f f f f f f f f f;
#X connect 0 0 29 0;
#X connect 1 0 2 0;
#X connect 2 0 3 1;
#X connect 3 0 0 0;
#X connect 4 0 25 0;
#X connect 5 0 4 0;
#X connect 6 0 13 0;
#X connect 7 0 10 0;
#X connect 9 0 17 0;
#X connect 10 0 11 0;
#X connect 11 0 28 0;
#X connect 12 0 10 1;
#X connect 13 0 12 0;
#X connect 14 0 24 0;
#X connect 16 0 15 0;
#X connect 17 0 7 0;
#X connect 17 1 11 1;
#X connect 17 2 14 0;
#X connect 17 3 16 0;
#X connect 18 0 22 0;
#X connect 20 0 4 0;
#X connect 21 0 20 0;
#X connect 21 1 5 0;
#X connect 22 0 23 0;
#X connect 22 1 0 1;
#X connect 23 0 21 0;
#X connect 23 1 3 0;
#X connect 24 0 44 0;
#X connect 26 0 42 0;
#X connect 27 0 26 0;
#X connect 28 0 15 0;
#X connect 29 0 4 0;
#X connect 30 0 24 1;
#X connect 31 0 44 1;
#X connect 32 0 44 2;
#X connect 33 0 44 3;
#X connect 34 0 44 4;
#X connect 35 0 44 5;
#X connect 36 0 44 6;
#X connect 37 0 44 7;
#X connect 38 0 44 8;
#X connect 39 0 44 9;
#X connect 40 0 44 10;
#X connect 41 0 26 1;
#X connect 43 0 15 0;
#X connect 44 0 43 0;
#X restore 99 604 pd savetest;
#X obj 99 552 r \$0-write-s;
#X obj 162 576 r \$0-load-s;
#X obj 1058 119 threshold~ 0.9 0 0.9 0;
#X obj 1058 141 f;
#X obj 1087 141 + 1;
#X obj 1058 163 % 8;
#X floatatom 1058 185 5 0 0 0 - - -, f 5;
#X obj 1058 204 s \$0-load-r;
#X obj 952 98 loadbang;
#X obj 1181 171 threshold~ 0.9 0 0.9 0;
#X obj 1181 193 random 8;
#X obj 1181 215 s \$0-load-r;
#X obj 1182 95 inlet~ RDM-LOAD;
#N canvas 376 23 1280 809 external-messages 1;
#X floatatom -71 513 5 0 0 0 - - -, f 5;
#X obj 43 328 spigot;
#X obj 76 288 tgl 15 0 empty empty empty 17 7 0 10 -262144 -1 -1 0
1;
#X obj 112 272 ==;
#X obj 127 248 f \$1;
#X obj 127 224 loadbang;
#X msg 43 202 \$1 \$2;
#X msg 43 156 symbol \$1;
#X obj 43 180 pack s f;
#X obj -71 492 f;
#X obj -71 440 t b f;
#X obj -71 463 spigot;
#X obj 43 62 unpack s f f;
#X symbolatom 43 94 10 0 0 0 - - -, f 10;
#X obj 76 308 t f f;
#X obj 103 332 s \$0-msg-spigot;
#X obj -23 447 r \$0-msg-spigot;
#X floatatom -45 657 5 0 0 0 - - -, f 5;
#X obj -45 636 f;
#X obj -45 584 t b f;
#X obj -45 607 spigot;
#X obj 3 591 r \$0-msg-spigot;
#X floatatom 106 549 5 0 0 0 - - -, f 5;
#X obj 106 528 f;
#X obj 106 476 t b f;
#X obj 106 499 spigot;
#X obj 154 483 r \$0-msg-spigot;
#X floatatom 145 687 5 0 0 0 - - -, f 5;
#X obj 145 666 f;
#X obj 145 614 t b f;
#X obj 145 637 spigot;
#X obj 193 621 r \$0-msg-spigot;
#X floatatom 270 523 5 0 0 0 - - -, f 5;
#X obj 270 502 f;
#X obj 270 450 t b f;
#X obj 270 473 spigot;
#X obj 318 457 r \$0-msg-spigot;
#X obj 43 14 r kick;
#X obj 43 380 route PITCH HOLD DECAY EG2 SWEEP WFORM FLAM FLAM-PROB
ACC-PROB ACCENT DRIVE TONE;
#X floatatom 315 690 5 0 0 0 - - -, f 5;
#X obj 315 669 f;
#X obj 315 617 t b f;
#X obj 315 640 spigot;
#X obj 363 624 r \$0-msg-spigot;
#X floatatom 442 535 5 0 0 0 - - -, f 5;
#X obj 442 514 f;
#X obj 442 462 t b f;
#X obj 442 485 spigot;
#X obj 490 469 r \$0-msg-spigot;
#X floatatom 479 685 5 0 0 0 - - -, f 5;
#X obj 479 664 f;
#X obj 479 612 t b f;
#X obj 479 635 spigot;
#X obj 527 619 r \$0-msg-spigot;
#X floatatom 622 527 5 0 0 0 - - -, f 5;
#X obj 622 506 f;
#X obj 622 454 t b f;
#X obj 622 477 spigot;
#X obj 670 461 r \$0-msg-spigot;
#X floatatom 654 680 5 0 0 0 - - -, f 5;
#X obj 654 659 f;
#X obj 654 607 t b f;
#X obj 654 630 spigot;
#X obj 702 614 r \$0-msg-spigot;
#X floatatom 784 516 5 0 0 0 - - -, f 5;
#X obj 784 495 f;
#X obj 784 443 t b f;
#X obj 784 466 spigot;
#X obj 832 450 r \$0-msg-spigot;
#X floatatom 816 707 5 0 0 0 - - -, f 5;
#X obj 816 686 f;
#X obj 816 634 t b f;
#X obj 816 657 spigot;
#X obj 864 641 r \$0-msg-spigot;
#X obj -71 533 s \$0-kick-pitch-r;
#X obj -45 677 s \$0-kick-hold-r;
#X obj 106 569 s \$0-kick-decay-r;
#X obj 145 707 s \$0-kick-envmod-r;
#X obj 270 543 s \$0-kick-sweep-r;
#X obj 315 710 s \$0-kick-wform-r;
#X obj 442 555 s \$0-flam-r;
#X obj 479 705 s \$0-flam-prob-r;
#X obj 622 547 s \$0-acc-prob-r;
#X obj 654 700 s \$0-acc-level-r;
#X obj 784 536 s \$0-drive-r;
#X obj 816 727 s \$0-tone-r;
#X connect 0 0 74 0;
#X connect 1 0 38 0;
#X connect 2 0 14 0;
#X connect 3 0 2 0;
#X connect 4 0 3 1;
#X connect 5 0 4 0;
#X connect 6 0 1 0;
#X connect 7 0 8 0;
#X connect 8 0 6 0;
#X connect 9 0 0 0;
#X connect 10 0 11 0;
#X connect 10 1 9 1;
#X connect 11 0 9 0;
#X connect 12 0 13 0;
#X connect 12 1 8 1;
#X connect 12 2 3 0;
#X connect 13 0 7 0;
#X connect 14 0 1 1;
#X connect 14 1 15 0;
#X connect 16 0 11 1;
#X connect 17 0 75 0;
#X connect 18 0 17 0;
#X connect 19 0 20 0;
#X connect 19 1 18 1;
#X connect 20 0 18 0;
#X connect 21 0 20 1;
#X connect 22 0 76 0;
#X connect 23 0 22 0;
#X connect 24 0 25 0;
#X connect 24 1 23 1;
#X connect 25 0 23 0;
#X connect 26 0 25 1;
#X connect 27 0 77 0;
#X connect 28 0 27 0;
#X connect 29 0 30 0;
#X connect 29 1 28 1;
#X connect 30 0 28 0;
#X connect 31 0 30 1;
#X connect 32 0 78 0;
#X connect 33 0 32 0;
#X connect 34 0 35 0;
#X connect 34 1 33 1;
#X connect 35 0 33 0;
#X connect 36 0 35 1;
#X connect 37 0 12 0;
#X connect 38 0 10 0;
#X connect 38 1 19 0;
#X connect 38 2 24 0;
#X connect 38 3 29 0;
#X connect 38 4 34 0;
#X connect 38 5 41 0;
#X connect 38 6 46 0;
#X connect 38 7 51 0;
#X connect 38 8 56 0;
#X connect 38 9 61 0;
#X connect 38 10 66 0;
#X connect 38 11 71 0;
#X connect 39 0 79 0;
#X connect 40 0 39 0;
#X connect 41 0 42 0;
#X connect 41 1 40 1;
#X connect 42 0 40 0;
#X connect 43 0 42 1;
#X connect 44 0 80 0;
#X connect 45 0 44 0;
#X connect 46 0 47 0;
#X connect 46 1 45 1;
#X connect 47 0 45 0;
#X connect 48 0 47 1;
#X connect 49 0 81 0;
#X connect 50 0 49 0;
#X connect 51 0 52 0;
#X connect 51 1 50 1;
#X connect 52 0 50 0;
#X connect 53 0 52 1;
#X connect 54 0 82 0;
#X connect 55 0 54 0;
#X connect 56 0 57 0;
#X connect 56 1 55 1;
#X connect 57 0 55 0;
#X connect 58 0 57 1;
#X connect 59 0 83 0;
#X connect 60 0 59 0;
#X connect 61 0 62 0;
#X connect 61 1 60 1;
#X connect 62 0 60 0;
#X connect 63 0 62 1;
#X connect 64 0 84 0;
#X connect 65 0 64 0;
#X connect 66 0 67 0;
#X connect 66 1 65 1;
#X connect 67 0 65 0;
#X connect 68 0 67 1;
#X connect 69 0 85 0;
#X connect 70 0 69 0;
#X connect 71 0 72 0;
#X connect 71 1 70 1;
#X connect 72 0 70 0;
#X connect 73 0 72 1;
#X restore 98 380 pd external-messages;
#X connect 4 0 95 0;
#X connect 5 0 6 0;
#X connect 5 0 6 1;
#X connect 6 0 7 0;
#X connect 6 0 7 1;
#X connect 7 0 4 1;
#X connect 8 0 112 0;
#X connect 9 0 37 0;
#X connect 10 1 8 1;
#X connect 11 0 12 0;
#X connect 12 0 13 0;
#X connect 12 0 13 1;
#X connect 13 0 14 0;
#X connect 13 0 14 1;
#X connect 14 0 23 0;
#X connect 15 0 11 0;
#X connect 16 0 38 0;
#X connect 17 1 15 1;
#X connect 18 0 22 1;
#X connect 19 0 24 0;
#X connect 20 0 21 0;
#X connect 21 0 45 0;
#X connect 22 0 65 0;
#X connect 23 0 18 0;
#X connect 24 0 20 0;
#X connect 25 0 26 0;
#X connect 25 0 73 0;
#X connect 26 0 27 0;
#X connect 27 0 49 0;
#X connect 28 0 67 0;
#X connect 29 0 72 0;
#X connect 30 0 9 0;
#X connect 31 0 16 0;
#X connect 32 0 19 0;
#X connect 34 0 39 0;
#X connect 35 0 37 0;
#X connect 35 1 37 1;
#X connect 37 0 74 0;
#X connect 38 0 117 0;
#X connect 39 0 35 0;
#X connect 40 0 39 0;
#X connect 41 0 43 0;
#X connect 42 0 38 0;
#X connect 42 1 38 1;
#X connect 43 0 42 0;
#X connect 44 0 43 0;
#X connect 45 0 46 0;
#X connect 46 0 18 1;
#X connect 47 0 48 0;
#X connect 48 0 45 1;
#X connect 49 0 22 0;
#X connect 50 0 51 0;
#X connect 51 0 49 1;
#X connect 52 0 54 0;
#X connect 54 0 55 0;
#X connect 55 0 53 0;
#X connect 65 0 4 0;
#X connect 67 0 25 0;
#X connect 68 0 69 0;
#X connect 72 0 83 0;
#X connect 74 0 10 0;
#X connect 74 0 64 0;
#X connect 83 0 8 0;
#X connect 83 1 15 0;
#X connect 83 2 36 0;
#X connect 83 3 82 0;
#X connect 84 0 85 0;
#X connect 85 0 86 0;
#X connect 86 0 88 0;
#X connect 86 1 87 0;
#X connect 88 0 89 0;
#X connect 88 1 91 0;
#X connect 90 0 86 1;
#X connect 92 0 84 0;
#X connect 93 0 4 1;
#X connect 95 0 98 0;
#X connect 95 0 100 0;
#X connect 98 0 99 0;
#X connect 99 0 33 0;
#X connect 100 0 33 0;
#X connect 101 0 102 0;
#X connect 102 0 105 0;
#X connect 103 0 104 0;
#X connect 104 0 99 1;
#X connect 105 0 106 0;
#X connect 105 1 103 0;
#X connect 106 0 107 0;
#X connect 107 0 108 0;
#X connect 108 0 109 0;
#X connect 109 0 100 1;
#X connect 111 0 5 0;
#X connect 112 0 111 0;
#X connect 113 0 114 0;
#X connect 114 0 115 0;
#X connect 115 0 116 0;
#X connect 116 1 112 1;
#X connect 117 0 17 0;
#X connect 118 0 23 0;
#X connect 119 0 125 0;
#X connect 123 0 122 0;
#X connect 124 0 122 1;
#X connect 125 0 126 0;
#X connect 126 0 127 0;
#X connect 126 0 128 0;
#X connect 127 0 126 1;
#X connect 128 0 129 0;
#X connect 129 0 130 0;
#X connect 131 0 126 0;
#X connect 132 0 133 0;
#X connect 133 0 134 0;
#X connect 135 0 132 0;
#X coords 0 -1 1 1 215 245 2 100 100;
