#N canvas 0 7 1920 1023 10;
#X obj 104 148 tgl 15 0 \$0-looper-record-s \$0-looper-record-r RECORD 17 7 0 10 #fcfcfc #dc4c90 #000000 0 1;
#X obj 467 521 phasor~;
#X obj 107 131 hsl 128 15 0 127 0 1 \$0-looper-speed-s \$0-looper-speed-r SPEED 133 7 0 10 #90d4b0 #000000 #000000 0 1;
#X floatatom 34 385 5 0 0 0 - - - 0;
#X text 142 584 ORIGINAL SPEED;
#X obj 467 424 line~;
#X obj 467 487 *~;
#X obj 34 404 pack 0 50;
#X obj 34 426 line~;
#X obj 34 448 +~;
#X obj 539 409 inlet~ SPEED-CV;
#X obj 410 181 inlet~ SAMPLE-INPUT-LEFT;
#X obj 161 148 bng 15 250 50 0 \$0-looper-original-s \$0-looper-original-r ORIGINAL 17 7 0 10 #fcfcfc #dc4c90 #000000;
#X obj 105 123 cnv 5 5 5 empty empty LOOPER 0 0 0 12 #fcfcfc #404040 0;
#X obj 135 109 cnv 5 5 5 empty empty IN-R 0 0 0 8 #fcfcfc #404040 0;
#X obj 223 109 cnv 5 5 5 empty empty REC 0 0 0 8 #fcfcfc #dc4c90 0;
#X obj 165 123 cnv 5 5 5 empty \$0-instance-num 0 0 0 0 12 #fcfcfc #404040 0;
#X obj 108 711 r \$0-looper-original-s;
#X obj 108 758 s \$0-looper-speed-r;
#X obj 34 338 r \$0-looper-speed-s;
#X obj 109 604 r \$0-looper-record-s;
#X obj 109 626 sel 0;
#X obj 109 670 s \$0-looper-speed-r;
#X text 14 692 ORIGINAL SPEED DIRECTLY AFTER SAMPLING;
#X floatatom 205 115 5 0 0 0 - - - 0;
#X obj 306 767 *~;
#X obj 321 607 r \$0-looper-record-s;
#X obj 467 683 *~;
#X obj 509 601 r \$0-looper-record-s;
#X obj 509 623 == 0;
#X obj 770 132 threshold~ 0.9 0 0.9 0;
#X obj 770 178 s \$0-looper-record-r;
#X obj 175 109 cnv 5 5 5 empty empty SPEED 0 0 0 8 #fcfcfc #404040 0;
#X msg 910 504 0;
#X obj 770 74 inlet~ REC/STOP;
#X obj 910 74 inlet~ RESET;
#X obj 910 96 threshold~ 0.9 0 0.9 0;
#X obj 249 109 cnv 5 5 5 empty empty RESET 0 0 0 8 #fcfcfc #dc4c90 0;
#N canvas 21 22 593 735 state-saving-multiple-instances 0;
#X obj 215 28 loadbang;
#X msg 556 463 rewind;
#X msg 513 463 bang;
#X obj 119 690 reloaded/textfile \$0;
#X obj 513 424 t b b;
#X obj 120 356 f;
#X obj 133 579 f;
#X obj 66 422 t b b b;
#X msg 196 579 clear;
#X obj 281 216 outlet;
#X text 277 236 INSTANCE NUMBER;
#X obj 242 92 f \$1;
#X obj 242 128 t f f f;
#X obj 215 61 t b b;
#X obj 66 331 bng 15 250 50 0 empty \$0-save-s empty 17 7 0 10 #fcfcfc #000000 #000000;
#X obj 66 235 r SAVE-S;
#X msg 132 648 write statesave/\$1-looper-ss.txt;
#X msg 262 455 read statesave/\$1-looper-ss.txt;
#X obj 135 307 r \$0-looper-speed-s;
#X obj 261 604 s \$0-looper-speed-r;
#X obj 165 364 r \$0-samplesize;
#X obj 316 564 s \$0-samplesize;
#X msg 120 438 set \$1;
#X obj 120 398 pack f;
#X obj 261 502 unpack f;
#X obj 261 480 reloaded/textfile \$0 init;
#X connect 0 0 13 0;
#X connect 1 0 25 0;
#X connect 2 0 25 0;
#X connect 4 0 2 0;
#X connect 4 1 1 0;
#X connect 5 0 23 0;
#X connect 6 0 16 0;
#X connect 7 0 6 0;
#X connect 7 1 5 0;
#X connect 7 2 8 0;
#X connect 8 0 3 0;
#X connect 11 0 12 0;
#X connect 12 0 6 1;
#X connect 12 1 17 0;
#X connect 12 2 9 0;
#X connect 13 0 4 0;
#X connect 13 1 11 0;
#X connect 14 0 7 0;
#X connect 15 0 14 0;
#X connect 16 0 3 0;
#X connect 17 0 25 0;
#X connect 18 0 5 1;
#X connect 22 0 3 0;
#X connect 23 0 22 0;
#X connect 24 0 19 0;
#X connect 25 0 24 0;
#X restore 650 336 pd state-saving-multiple-instances;
#X obj 650 410 s \$0-instance-num;
#X obj 650 362 makefilename %d;
#X msg 650 387 label \$1;
#N canvas 81 22 1117 745 state-saving-via-preset-manager-module 0;
#X obj 477 349 reloaded/textfile \$0;
#X msg 755 332 rewind;
#X msg 712 332 bang;
#X obj 243 690 reloaded/textfile \$0;
#X obj 712 293 t b b;
#X obj 244 356 f;
#X obj 257 579 f;
#X obj 190 422 t b b b;
#X msg 320 579 clear;
#X obj 244 264 delay 5;
#X obj 190 484 delay 10;
#X msg 190 314 bang;
#X obj 190 147 r STORE-S!;
#X obj 477 250 f;
#X obj 450 207 t b b;
#X obj 465 171 t b f;
#X obj 522 268 f \$1;
#X obj 477 295 pack f f;
#X obj 522 218 loadbang;
#X obj 257 609 pack f f;
#X obj 302 467 loadbang;
#X obj 302 489 f \$1;
#X obj 465 148 r preset-manager-scan;
#X obj 279 148 r preset-manager-store-slot;
#X msg 244 438 set \$1;
#X msg 256 650 write statesave/\$1-\$2-looper-ss.txt;
#X msg 477 324 read statesave/\$1-\$2-looper-ss.txt;
#X obj 259 308 r \$0-looper-speed-s;
#X obj 477 615 s \$0-looper-speed-r;
#N canvas 0 22 1069 747 morph-frequencies 0;
#X obj 176 94 inlet;
#X obj 176 236 pack f f;
#X obj 176 261 line;
#X obj 209 117 r preset-manager-morph-s;
#X msg 72 244 stop;
#X obj 72 214 r STOP-MORPH!;
#X obj 398 102 r frequencies-s;
#X obj 209 206 spigot;
#X obj 398 137 t f f;
#X obj 455 154 == 0;
#X obj 221 176 f;
#X floatatom 455 222 5 0 0 0 - - - 0;
#X obj 398 159 t b f;
#X floatatom 425 192 5 0 0 0 - - - 0;
#X obj 209 139 t f f;
#X obj 176 283 outlet;
#X connect 0 0 1 0;
#X connect 1 0 2 0;
#X connect 2 0 15 0;
#X connect 3 0 14 0;
#X connect 4 0 2 0;
#X connect 5 0 4 0;
#X connect 6 0 8 0;
#X connect 7 0 1 1;
#X connect 8 0 12 0;
#X connect 8 1 9 0;
#X connect 9 0 11 0;
#X connect 10 0 7 0;
#X connect 11 0 1 1;
#X connect 12 0 10 0;
#X connect 12 1 13 0;
#X connect 13 0 7 1;
#X connect 14 0 7 0;
#X connect 14 1 10 1;
#X restore 477 591 pd morph-frequencies;
#X connect 0 0 29 0;
#X connect 1 0 0 0;
#X connect 2 0 0 0;
#X connect 4 0 2 0;
#X connect 4 1 1 0;
#X connect 5 0 24 0;
#X connect 6 0 19 0;
#X connect 7 0 10 0;
#X connect 7 1 9 0;
#X connect 7 2 8 0;
#X connect 8 0 3 0;
#X connect 9 0 5 0;
#X connect 10 0 6 0;
#X connect 11 0 7 0;
#X connect 12 0 11 0;
#X connect 13 0 17 0;
#X connect 14 0 4 0;
#X connect 14 1 13 0;
#X connect 15 0 14 0;
#X connect 15 1 13 1;
#X connect 16 0 17 1;
#X connect 17 0 26 0;
#X connect 18 0 16 0;
#X connect 19 0 25 0;
#X connect 20 0 21 0;
#X connect 21 0 19 1;
#X connect 22 0 15 0;
#X connect 23 0 6 1;
#X connect 24 0 3 0;
#X connect 25 0 3 0;
#X connect 26 0 0 0;
#X connect 27 0 5 1;
#X connect 29 0 28 0;
#X restore 650 312 pd state-saving-via-preset-manager-module;
#N canvas 375 75 488 529 scale-(0-127)-(-1-16_with_0_in_middle) 0;
#X obj 137 62 / 127;
#X obj 137 200 clip 0 0.5;
#X floatatom 137 222 5 0 0 0 - - - 0;
#X obj 137 121 t f f;
#X obj 224 138 clip 0.5 1;
#X floatatom 224 160 5 0 0 0 - - - 0;
#X floatatom 137 285 5 0 0 0 - - - 0;
#X obj 224 179 * 2;
#X floatatom 224 245 5 0 0 0 - - - 0;
#X obj 137 387 spigot;
#X obj 224 339 spigot;
#X obj 293 243 > 0.5;
#X floatatom 293 265 5 0 0 0 - - - 0;
#X obj 137 84 t f f;
#X obj 293 284 t f f;
#X obj 320 338 == 0;
#X floatatom 137 459 5 0 0 0 - - - 0;
#X obj 138 24 inlet;
#X obj 137 478 outlet;
#X obj 243 40 hsl 128 15 0 127 0 0 empty empty empty -2 -8 0 10 #fcfcfc #000000 #000000 0 1;
#X floatatom 222 82 5 0 0 0 - - - 0;
#X obj 137 241 * 2;
#X obj 224 201 * 15;
#X obj 137 263 - 1;
#X obj 224 224 - 15;
#X connect 0 0 13 0;
#X connect 1 0 2 0;
#X connect 2 0 21 0;
#X connect 3 0 1 0;
#X connect 3 1 4 0;
#X connect 4 0 5 0;
#X connect 5 0 7 0;
#X connect 6 0 9 0;
#X connect 7 0 22 0;
#X connect 8 0 10 0;
#X connect 9 0 16 0;
#X connect 10 0 16 0;
#X connect 11 0 12 0;
#X connect 12 0 14 0;
#X connect 13 0 3 0;
#X connect 13 1 11 0;
#X connect 14 0 10 1;
#X connect 14 1 15 0;
#X connect 15 0 9 1;
#X connect 16 0 18 0;
#X connect 17 0 0 0;
#X connect 19 0 0 0;
#X connect 19 0 20 0;
#X connect 21 0 23 0;
#X connect 22 0 24 0;
#X connect 23 0 6 0;
#X connect 24 0 8 0;
#X restore 34 363 pd scale-(0-127)-(-1-16_with_0_in_middle);
#N canvas 297 27 748 331 parameter-nudging-system 0;
#X obj 23 67 clip 0 127;
#X obj 23 22 r \$0-looper-speed-s;
#X obj 23 95 s \$0-looper-speed-r;
#X obj 22 45 reloaded/nudge-freq;
#X connect 0 0 2 0;
#X connect 1 0 3 0;
#X connect 3 0 0 0;
#X restore 649 433 pd parameter-nudging-system;
#X msg 109 648 67.735;
#X msg 108 736 67.735;
#X obj 467 552 *~;
#X obj 321 741 line~;
#X obj 509 667 line~;
#X obj 509 645 pack 0 50;
#X obj 321 727 pack 0 50;
#X obj 301 27 r \$0-looper-record-s;
#X obj 301 49 sel 0 1;
#X msg 301 268 stop;
#X msg 320 216 start;
#X text 301 6 RECORD TO DISK:;
#X obj 556 476 r \$0-samplesize;
#X obj 450 204 inlet~ SAMPLE-INPUT-RIGHT;
#X obj 467 575 tabread4~ \$0-loopL;
#X obj 685 677 *~;
#X obj 727 595 r \$0-looper-record-s;
#X obj 727 617 == 0;
#X obj 727 661 line~;
#X obj 727 639 pack 0 50;
#X obj 685 569 tabread4~ \$0-loopR;
#X obj 467 791 outlet~ LEFT;
#X obj 685 785 outlet~ RIGHT;
#X obj 306 584 r~ \$0-looper-sampleL;
#X obj 519 312 s~ \$0-looper-sampleR;
#X obj 856 751 *~;
#X obj 871 581 r \$0-looper-record-s;
#X obj 871 715 line~;
#X obj 871 693 pack 0 50;
#X obj 856 558 r~ \$0-looper-sampleR;
#X obj 248 243 cnv 5 5 5 empty empty RIGHT 0 0 0 8 #fcfcfc #404040 0;
#X obj 104 109 cnv 5 5 5 empty empty IN-L 0 0 0 8 #fcfcfc #404040 0;
#X obj 104 243 cnv 5 5 5 empty empty LEFT 0 0 0 8 #fcfcfc #404040 0;
#X obj 390 311 s~ \$0-looper-sampleL;
#X obj 572 622 loadbang;
#X msg 572 644 1;
#X obj 794 617 loadbang;
#X msg 794 639 1;
#N canvas 355 23 690 662 write-crown 0;
#X obj 145 455 clip~ 0 1;
#X obj 145 490 tabwrite~ \$0-crown;
#X obj 146 351 vline~;
#X obj 146 375 cos~;
#X obj 145 512 table \$0-crown;
#X msg 146 328 -0.25 \, 0.25 \$1;
#X floatatom 113 250 20 0 0 0 - - - 0;
#X obj 113 269 t b f, f 6;
#X obj 274 416 s \$0-crown;
#X msg 274 392 resize \$1;
#X obj 113 206 f;
#X obj 113 156 t b f;
#X obj 274 323 f;
#X obj 145 431 *~ 64;
#X obj 101 24 r \$0-base_freq;
#X msg 101 50 1000 \$1;
#X obj 101 76 /;
#X obj 185 213 bng 25 250 50 0 empty empty empty 17 7 0 10 #e4e4e4 #4d4d4d #373737;
#X obj 113 182 delay 1000;
#X obj 312 184 r \$0-samplerate;
#X obj 278 83 r \$0-base_freq;
#X msg 278 162 1 \$1;
#X obj 278 183 /;
#X obj 276 228 *;
#X obj 276 249 t b f;
#X obj 276 270 delay 100;
#X obj 274 370 * 0.5;
#X obj 146 299 * 0.5;
#X text 402 368 crown envelop half size of sample;
#X text 401 392 for enabling instant playback;
#X obj 449 111 r \$0-diskram-s;
#X obj 278 123 spigot 1;
#X obj 449 137 == 0;
#X connect 0 0 1 0;
#X connect 2 0 3 0;
#X connect 3 0 13 0;
#X connect 5 0 2 0;
#X connect 6 0 7 0;
#X connect 7 0 1 0;
#X connect 7 1 27 0;
#X connect 9 0 8 0;
#X connect 10 0 6 0;
#X connect 11 0 18 0;
#X connect 11 1 10 1;
#X connect 12 0 26 0;
#X connect 13 0 0 0;
#X connect 14 0 15 0;
#X connect 15 0 16 0;
#X connect 16 0 11 0;
#X connect 17 0 6 0;
#X connect 18 0 10 0;
#X connect 19 0 23 1;
#X connect 20 0 31 0;
#X connect 21 0 22 0;
#X connect 22 0 23 0;
#X connect 23 0 24 0;
#X connect 24 0 25 0;
#X connect 24 1 12 1;
#X connect 25 0 12 0;
#X connect 26 0 9 0;
#X connect 27 0 5 0;
#X connect 30 0 32 0;
#X connect 31 0 21 0;
#X connect 32 0 31 1;
#X restore 154 11 pd write-crown;
#X obj 542 704 tabread4~ \$0-crown;
#X obj 467 724 *~;
#X obj 685 724 *~;
#X obj 107 219 hsl 128 10 0 127 0 0 \$0-looper-gui-s \$0-looper-gui-r empty -2 -8 0 10 #fcfcfc #000000 #000000 0 1;
#X obj 257 508 snapshot~;
#X obj 257 464 tgl 15 0 empty empty empty 17 7 0 10 #fcfcfc #000000 #000000 0 1;
#X obj 257 484 metro 20;
#X obj 257 554 s \$0-looper-gui-r;
#X obj 257 530 * 127;
#X obj 257 439 loadbang;
#X obj 347 99 f \$1;
#X floatatom -45 553 5 0 0 0 - - - 0;
#X obj -45 572 < 0.5;
#X floatatom -45 594 5 0 0 0 - - - 0;
#X obj -45 613 sel 1;
#X obj -45 656 s \$0-looper-help;
#X obj -45 635 spigot;
#X obj 12 545 loadbang;
#X msg 12 590 1;
#X obj 41 596 delay 5000;
#X msg 41 618 0;
#X obj 539 431 *~ 15;
#X obj 391 247 *~;
#X obj 431 247 *~;
#X msg 615 88 1;
#X obj 615 110 pack 0 1;
#X obj 615 230 vline~;
#X msg 645 60 0, f 4;
#N canvas 0 22 450 278 (subpatch) 0;
#X array \$0-loopR 1 float 2;
#X coords 0 1 1 -1 60 40 1 0 0;
#X restore 167 180 graph;
#N canvas 0 22 450 278 (subpatch) 0;
#X array \$0-loopL 1 float 2;
#X coords 0 1 1 -1 60 40 1 0 0;
#X restore 104 180 graph;
#X obj 467 746 *~ 1;
#X obj 685 746 *~ 1;
#N canvas 232 71 749 752 external-messages 0;
#X floatatom 186 706 5 0 0 0 - - - 0;
#X obj 185 328 spigot;
#X obj 218 288 tgl 15 0 empty empty empty 17 7 0 10 #fcfcfc #000000 #000000 0 1;
#X obj 254 272 ==;
#X obj 269 248 f \$1;
#X obj 269 224 loadbang;
#X msg 185 202 \$1 \$2;
#X msg 185 156 symbol \$1;
#X obj 185 180 pack s f;
#X obj 186 685 f;
#X obj 186 633 t b f;
#X obj 186 656 spigot;
#X obj 185 62 unpack s f f;
#X symbolatom 185 94 10 0 0 0 - - - 0;
#X obj 218 308 t f f;
#X obj 245 332 s \$0-msg-spigot;
#X obj 234 640 r \$0-msg-spigot;
#X floatatom 223 594 5 0 0 0 - - - 0;
#X obj 223 573 f;
#X obj 223 521 t b f;
#X obj 223 544 spigot;
#X obj 271 528 r \$0-msg-spigot;
#X floatatom 387 639 5 0 0 0 - - - 0;
#X obj 387 618 f;
#X obj 387 566 t b f;
#X obj 387 589 spigot;
#X obj 435 573 r \$0-msg-spigot;
#X obj 185 14 r looper;
#X obj 186 726 s \$0-looper-speed-r;
#X obj 223 614 s \$0-looper-record-r;
#X obj 387 659 s \$0-looper-original-r;
#X obj 185 380 route SPEED RECORD ORIGINAL STOP;
#X floatatom 557 639 5 0 0 0 - - - 0;
#X obj 557 618 f;
#X obj 557 566 t b f;
#X obj 557 589 spigot;
#X obj 605 573 r \$0-msg-spigot;
#X obj 557 659 s \$0-looper-stop-r;
#X obj 519 467 bng 16 250 50 0 empty empty empty 0 -8 0 10 #fcfcfc #000000 #000000;
#X connect 0 0 28 0;
#X connect 1 0 31 0;
#X connect 2 0 14 0;
#X connect 3 0 2 0;
#X connect 4 0 3 1;
#X connect 5 0 4 0;
#X connect 6 0 1 0;
#X connect 7 0 8 0;
#X connect 8 0 6 0;
#X connect 9 0 0 0;
#X connect 10 0 11 0;
#X connect 10 1 9 1;
#X connect 11 0 9 0;
#X connect 12 0 13 0;
#X connect 12 1 8 1;
#X connect 12 2 3 0;
#X connect 13 0 7 0;
#X connect 14 0 1 1;
#X connect 14 1 15 0;
#X connect 16 0 11 1;
#X connect 17 0 29 0;
#X connect 18 0 17 0;
#X connect 19 0 20 0;
#X connect 19 1 18 1;
#X connect 20 0 18 0;
#X connect 21 0 20 1;
#X connect 22 0 30 0;
#X connect 23 0 22 0;
#X connect 24 0 25 0;
#X connect 24 1 23 1;
#X connect 25 0 23 0;
#X connect 26 0 25 1;
#X connect 27 0 12 0;
#X connect 31 0 10 0;
#X connect 31 1 19 0;
#X connect 31 2 24 0;
#X connect 31 3 34 0;
#X connect 31 3 38 0;
#X connect 32 0 37 0;
#X connect 33 0 32 0;
#X connect 34 0 35 0;
#X connect 34 1 33 1;
#X connect 35 0 33 0;
#X connect 36 0 35 1;
#X restore 657 283 pd external-messages;
#X obj -122 67 reloaded looper \$0 \$1;
#X obj -122 27 savestate;
#N canvas 0 50 450 300 \$0-gui_listeners 0;
#X obj 10 60 reloaded/bng_dispatch looper \$0 \$1 250 50 looper-original-s looper-original-r ORIGINAL #FFFFFF #DE4C91 #000000;
#X obj 10 120 reloaded/hsl_dispatch looper \$0 \$1 0 127 looper-speed-s looper-speed-r SPEED #91D6B2 #000000 #000000;
#X obj 10 180 reloaded/tgl_dispatch looper \$0 \$1 0 1 looper-record-s looper-record-r RECORD #FFFFFF #DE4C91 #000000;
#X restore -122 97 pd \$0-gui_listeners;
#X obj 460 55 pdcontrol;
#X msg 459 30 dir 1;
#X obj 459 9 loadbang;
#X obj 460 76 s \$0-local_dir;
#X obj 405 109 r \$0-local_dir;
#X obj 346 132 pack f s;
#X msg 345 158 open -bytes 3 \$2/samples/loop\$1.wav;
#X obj 135 77 namecanvas \$0-this;
#X obj 34 470 clip~ -30 30;
#X obj 231 148 bng 15 250 50 0 \$0-looper-stop-s \$0-looper-stop-r STOP 17 7 0 10 #fcfcfc #dc4c90 #000000;
#X obj -42 758 s \$0-looper-speed-r;
#X obj -42 711 r \$0-looper-stop-s;
#X msg -42 736 63.5;
#X obj 221 232 tgl 16 0 \$0-rec-mon-s \$0-rec-mon-r ON 1 8 0 8 #fcfcfc #ffffff #000000 0 1;
#N canvas 32 32 823 509 rec_monitoring_gui 0;
#X obj 36 34 r \$0-rec-mon-s;
#X obj 46 104 s \$0-rec-mon-r;
#X obj 36 56 select 0 1;
#X msg 35 78 label ON;
#X msg 97 78 label OFF;
#X obj 263 88 v \$0-rec-mon-s;
#X obj 216 50 savestate;
#X obj 221 154 list trim;
#X obj 221 176 route -rec_mon;
#X obj 263 110 list prepend -rec_mon;
#X obj 221 203 s \$0-rec-mon-s;
#X msg 157 200 set \$1;
#X obj 221 233 s \$0-rec-mon-r;
#X connect 0 0 2 0;
#X connect 2 0 3 0;
#X connect 2 1 4 0;
#X connect 3 0 1 0;
#X connect 4 0 1 0;
#X connect 5 0 9 0;
#X connect 6 0 7 0;
#X connect 6 1 5 0;
#X connect 7 0 8 0;
#X connect 8 0 10 0;
#X connect 8 0 11 0;
#X connect 9 0 6 0;
#X connect 11 0 12 0;
#X restore -117 158 pd rec_monitoring_gui;
#X obj 896 607 r \$0-rec-mon-s;
#X obj 885 628 t b f;
#X obj 899 651 == 0;
#X obj 871 667 * 1;
#X obj 346 627 r \$0-rec-mon-s;
#X obj 335 654 t b f;
#X obj 349 679 == 0;
#X obj 321 695 * 1;
#N canvas 0 50 450 300 check_samples_dir 0;
#X obj 64 153 file isdirectory;
#X obj 144 32 r \$0-local_dir;
#X msg 144 65 symbol \$1/samples;
#X obj 317 175 print looper;
#X obj 172 208 symbol;
#X obj 184 271 file mkdir;
#X obj 134 88 t a a;
#X msg 319 146 creating samples directory : \$1;
#X obj 144 189 t b;
#X connect 0 1 8 0;
#X connect 1 0 2 0;
#X connect 2 0 6 0;
#X connect 4 0 5 0;
#X connect 4 0 7 0;
#X connect 6 0 0 0;
#X connect 6 1 4 1;
#X connect 7 0 3 0;
#X connect 8 0 4 0;
#X restore 532 -35 pd check_samples_dir;
#X obj 306 402 s \$0-base_freq;
#X obj 652 506 *~;
#X obj 688 462 r \$0-samplerate;
#X obj 652 527 *~;
#X obj 693 485 r \$0-base_freq;
#X msg 693 506 1 \$1;
#X obj 693 527 /;
#X msg 508 469 0;
#X obj 615 558 *~ 0.5;
#X obj 519 371 r \$0-base_freq;
#X obj 236 257 timer;
#X obj 320 71 t b b b b;
#X obj 301 106 t b b b b;
#X msg 236 283 1000 \$1;
#X obj 236 306 /;
#X obj 194 329 s \$0-base_freq;
#X obj 467 402 pack 0 5;
#N canvas 0 7 1920 1023 write/load-sample 0;
#X obj 28 391 f \$0;
#X obj 28 476 soundfiler;
#X obj 28 639 /;
#X floatatom 28 674 7 0 0 0 - - - 16;
#X obj 57 539 s \$0-samplesize;
#X obj 28 498 t b f f;
#X obj 28 214 r \$0-looper-record-s;
#X obj 28 336 sel 0;
#X obj 28 711 outlet;
#X obj 28 367 delay 10;
#X obj 350 394 r \$0-local_dir;
#X msg 28 452 read -resize \$3/samples/loop\$2.wav \$1-loopL \$1-loopR, f 61;
#X obj 28 424 pack f \$1 s, f 55;
#X obj 28 606 44100;
#X msg 189 539 \$1;
#X floatatom 189 565 5 0 0 0 - - - 12;
#X obj -75 226 loadbang;
#X obj 36 56 inlet~;
#X obj 82 56 inlet~;
#X obj 36 177 writesf~ 2;
#X obj 239 133 route 0 1;
#X obj 243 89 list prepend 0;
#X obj 350 34 r \$0-diskram-s;
#X obj 406 110 snake~ in;
#X obj 257 169 route start stop;
#X msg 304 193 stop;
#X obj -75 252 delay 90;
#X msg -75 278 0;
#X obj 43 297 route 0 1;
#X obj 28 273 list prepend 0;
#X obj 95 242 r \$0-diskram-s;
#X obj 291 287 timer;
#X obj 290 251 t b;
#X obj 331 251 t b;
#X obj 566 441 r \$0-samplerate;
#X obj 426 589 /;
#X msg 419 557 1000 \$1;
#X obj 429 636 f;
#X obj 446 408 t b b;
#X obj 446 336 sel 0;
#X obj 520 576 / 1000;
#X obj 505 616 f;
#X obj 514 651 s \$0-samplesize;
#X obj 446 372 delay 10;
#X obj 411 230 tabwrite~ \$0-loopL \$0-loopR;
#X floatatom 264 357 5 0 0 0 - - - 12;
#X floatatom 556 528 5 0 0 0 - - - 12;
#X obj 528 479 *;
#X msg 257 195 bang;
#X connect 0 0 12 0;
#X connect 1 0 5 0;
#X connect 1 1 14 0;
#X connect 2 0 3 0;
#X connect 3 0 8 0;
#X connect 5 0 13 0;
#X connect 5 1 2 1;
#X connect 5 2 4 0;
#X connect 6 0 29 0;
#X connect 7 0 9 0;
#X connect 9 0 0 0;
#X connect 10 0 12 2;
#X connect 11 0 1 0;
#X connect 12 0 11 0;
#X connect 13 0 2 0;
#X connect 14 0 13 1;
#X connect 14 0 15 0;
#X connect 16 0 26 0;
#X connect 17 0 19 0;
#X connect 17 0 23 0;
#X connect 17 1 21 0;
#X connect 18 0 19 1;
#X connect 18 0 23 1;
#X connect 20 0 19 0;
#X connect 20 1 24 0;
#X connect 21 0 20 0;
#X connect 22 0 21 1;
#X connect 23 0 44 0;
#X connect 24 0 48 0;
#X connect 24 0 32 0;
#X connect 24 1 25 0;
#X connect 24 1 33 0;
#X connect 25 0 44 0;
#X connect 26 0 27 0;
#X connect 27 0 29 0;
#X connect 28 0 7 0;
#X connect 28 1 39 0;
#X connect 29 0 28 0;
#X connect 30 0 29 1;
#X connect 31 0 36 0;
#X connect 31 0 45 0;
#X connect 31 0 47 0;
#X connect 32 0 31 0;
#X connect 33 0 31 1;
#X connect 34 0 47 1;
#X connect 35 0 37 1;
#X connect 36 0 35 0;
#X connect 38 0 37 0;
#X connect 38 1 41 0;
#X connect 39 0 43 0;
#X connect 40 0 41 1;
#X connect 41 0 42 0;
#X connect 43 0 38 0;
#X connect 47 0 40 0;
#X connect 47 0 46 0;
#X connect 48 0 44 0;
#X restore 301 363 pd write/load-sample;
#X obj 246 199 vradio 10 1 0 2 \$0-diskram-s \$0-diskram-r YES 12 6 0 10 #e4e4e4 #4d4d4d #373737 0;
#X obj -117 260 samplerate~;
#X obj -117 207 receive pd-dsp-started;
#X obj -117 233 t b;
#X obj -117 286 s \$0-samplerate;
#N canvas 0 50 450 300 SaveLoop-gui 0;
#X obj 136 50 r \$0-diskram-s;
#X obj 144 223 s \$0-diskram-r;
#X obj 136 76 select 0 1;
#X msg 140 158 label YES \, label_pos 12 6;
#X msg 304 183 label NO \, label_pos 12 16;
#X obj 524 66 savestate;
#X obj 529 170 list trim;
#X obj 571 104 v \$0-diskram-s;
#X obj 571 126 list prepend -diskram;
#X obj 529 192 route -diskram;
#X obj 529 219 s \$0-diskram-s;
#X msg 578 243 set \$1;
#X obj 539 279 s \$0-diskram-r;
#X obj 278 473 s \$0-loopL;
#X obj 387 477 s \$0-loopR;
#X msg 294 419 resize \$1;
#X obj 327 356 r \$0-samplerate;
#X obj 333 234 r \$0-diskram-s;
#X obj 333 260 select 1;
#X msg 312 333 10;
#X obj 561 377 s \$0-crown;
#X msg 561 353 resize \$1;
#X obj 393 413 / 2;
#X obj 322 284 delay 10;
#X obj 290 385 * 48000;
#X connect 0 0 2 0;
#X connect 2 0 3 0;
#X connect 2 1 4 0;
#X connect 3 0 1 0;
#X connect 4 0 1 0;
#X connect 5 0 6 0;
#X connect 5 1 7 0;
#X connect 6 0 9 0;
#X connect 7 0 8 0;
#X connect 8 0 5 0;
#X connect 9 0 10 0;
#X connect 9 0 11 0;
#X connect 11 0 12 0;
#X connect 15 0 13 0;
#X connect 15 0 14 0;
#X connect 16 0 24 1;
#X connect 17 0 18 0;
#X connect 18 0 23 0;
#X connect 19 0 24 0;
#X connect 21 0 20 0;
#X connect 22 0 21 0;
#X connect 23 0 19 0;
#X connect 24 0 15 0;
#X connect 24 0 22 0;
#X restore -117 131 pd SaveLoop-gui;
#X text 133 229 MONITORING;
#X text 235 166 SAVE LOOP, f 6;
#X connect 1 0 47 0;
#X connect 1 0 88 0;
#X connect 1 0 145 0;
#X connect 3 0 7 0;
#X connect 3 0 24 0;
#X connect 5 0 6 0;
#X connect 6 0 1 0;
#X connect 7 0 8 0;
#X connect 8 0 9 0;
#X connect 9 0 128 0;
#X connect 10 0 105 0;
#X connect 11 0 106 0;
#X connect 17 0 46 0;
#X connect 19 0 43 0;
#X connect 20 0 21 0;
#X connect 21 0 45 0;
#X connect 25 0 66 0;
#X connect 26 0 142 0;
#X connect 27 0 85 0;
#X connect 28 0 29 0;
#X connect 29 0 50 0;
#X connect 30 0 31 0;
#X connect 33 0 1 1;
#X connect 34 0 30 0;
#X connect 35 0 36 0;
#X connect 36 0 33 0;
#X connect 38 0 40 0;
#X connect 40 0 41 0;
#X connect 41 0 39 0;
#X connect 43 0 3 0;
#X connect 45 0 22 0;
#X connect 46 0 18 0;
#X connect 47 0 59 0;
#X connect 47 0 65 0;
#X connect 48 0 25 1;
#X connect 49 0 27 1;
#X connect 50 0 49 0;
#X connect 51 0 48 0;
#X connect 52 0 53 0;
#X connect 53 0 156 0;
#X connect 53 1 155 0;
#X connect 54 0 161 0;
#X connect 55 0 161 0;
#X connect 57 0 47 1;
#X connect 58 0 107 0;
#X connect 59 0 27 0;
#X connect 60 0 86 0;
#X connect 61 0 62 0;
#X connect 62 0 64 0;
#X connect 63 0 60 1;
#X connect 64 0 63 0;
#X connect 65 0 60 0;
#X connect 68 0 25 0;
#X connect 70 0 67 0;
#X connect 71 0 138 0;
#X connect 72 0 70 1;
#X connect 73 0 72 0;
#X connect 74 0 70 0;
#X connect 79 0 80 0;
#X connect 80 0 50 0;
#X connect 81 0 82 0;
#X connect 82 0 64 0;
#X connect 84 0 85 1;
#X connect 84 0 86 1;
#X connect 85 0 114 0;
#X connect 86 0 115 0;
#X connect 88 0 92 0;
#X connect 88 0 95 0;
#X connect 89 0 90 0;
#X connect 90 0 88 0;
#X connect 92 0 91 0;
#X connect 93 0 89 0;
#X connect 94 0 125 0;
#X connect 95 0 96 0;
#X connect 96 0 97 0;
#X connect 97 0 98 0;
#X connect 98 0 100 0;
#X connect 100 0 99 0;
#X connect 101 0 102 0;
#X connect 101 0 103 0;
#X connect 102 0 100 1;
#X connect 103 0 104 0;
#X connect 104 0 100 1;
#X connect 105 0 9 1;
#X connect 106 0 78 0;
#X connect 106 0 161 0;
#X connect 107 0 69 0;
#X connect 107 0 161 1;
#X connect 108 0 109 0;
#X connect 109 0 110 0;
#X connect 110 0 107 1;
#X connect 110 0 106 1;
#X connect 111 0 109 0;
#X connect 114 0 66 0;
#X connect 115 0 67 0;
#X connect 117 0 118 0;
#X connect 118 0 117 0;
#X connect 118 1 117 1;
#X connect 120 0 123 0;
#X connect 121 0 120 0;
#X connect 122 0 121 0;
#X connect 124 0 125 1;
#X connect 125 0 126 0;
#X connect 126 0 161 0;
#X connect 128 0 6 1;
#X connect 131 0 132 0;
#X connect 132 0 130 0;
#X connect 135 0 136 0;
#X connect 136 0 138 0;
#X connect 136 1 137 0;
#X connect 137 0 138 1;
#X connect 138 0 73 0;
#X connect 139 0 140 0;
#X connect 140 0 142 0;
#X connect 140 1 141 0;
#X connect 141 0 142 1;
#X connect 142 0 51 0;
#X connect 145 0 147 0;
#X connect 146 0 145 1;
#X connect 147 0 152 0;
#X connect 148 0 149 0;
#X connect 149 0 150 0;
#X connect 150 0 147 1;
#X connect 151 0 1 1;
#X connect 152 0 84 0;
#X connect 153 0 160 0;
#X connect 154 0 157 0;
#X connect 155 0 55 0;
#X connect 155 1 94 0;
#X connect 155 2 154 0;
#X connect 155 3 108 0;
#X connect 156 0 151 0;
#X connect 156 1 54 0;
#X connect 156 2 154 1;
#X connect 156 3 111 0;
#X connect 157 0 158 0;
#X connect 158 0 159 0;
#X connect 160 0 5 0;
#X connect 161 0 144 0;
#X connect 163 0 166 0;
#X connect 164 0 165 0;
#X connect 165 0 163 0;
#X coords 0 -1 1 1 180 150 2 100 100;
