#N canvas 71 23 1056 752 10;
#X obj 104 151 tgl 15 0 \$0-looper-record-s \$0-looper-record-r RECORD
17 7 0 10 -262144 -226533 -1 0 1;
#X obj 467 521 phasor~;
#X obj 107 131 hsl 128 15 0 127 0 1 \$0-looper-speed-s \$0-looper-speed-r
SPEED 133 7 0 10 -150893 -1 -1 6574 1;
#X floatatom 34 385 5 0 0 0 - - -, f 5;
#X text 142 584 ORIGINAL SPEED;
#X obj 467 402 pack 0 50;
#X obj 467 424 line~;
#X obj 467 458 +~;
#X obj 467 487 *~;
#X obj 34 404 pack 0 50;
#X obj 34 426 line~;
#X obj 34 448 +~;
#X obj 539 409 inlet~ SPEED-CV;
#X obj 391 149 inlet~ SAMPLE-INPUT-LEFT;
#X obj 177 151 bng 15 250 50 0 \$0-looper-original-s \$0-looper-original-r
ORIGINAL 17 7 0 10 -262144 -226533 -1;
#X obj 105 123 cnv 5 5 5 empty empty LOOPER 0 0 0 12 -262144 -66577
0;
#X obj 135 109 cnv 5 5 5 empty empty IN-R 0 0 0 8 -262144 -66577 0
;
#X obj 223 109 cnv 5 5 5 empty empty REC 0 0 0 8 -262144 -226533 0
;
#X obj 165 123 cnv 5 5 5 empty \$0-instance-num 2 0 0 0 12 -262144
-66577 0;
#X obj 108 711 r \$0-looper-original-s;
#X obj 108 758 s \$0-looper-speed-r;
#X obj 34 338 r \$0-looper-speed-s;
#X obj 109 604 r \$0-looper-record-s;
#X obj 109 626 sel 0;
#X obj 109 670 s \$0-looper-speed-r;
#X text 14 692 ORIGINAL SPEED DIRECTLY AFTER SAMPLING;
#X floatatom 205 117 5 0 0 0 - - -, f 5;
#X obj 306 737 *~;
#X obj 321 647 r \$0-looper-record-s;
#X obj 467 683 *~;
#X obj 509 601 r \$0-looper-record-s;
#X obj 509 623 == 0;
#X obj 770 132 threshold~ 0.9 0 0.9 0;
#X obj 770 178 s \$0-looper-record-r;
#X obj 175 109 cnv 5 5 5 empty empty SPEED 0 0 0 8 -262144 -66577 0
;
#X msg 910 504 0;
#X obj 770 74 inlet~ REC/STOP;
#X obj 910 74 inlet~ RESET;
#X obj 910 96 threshold~ 0.9 0 0.9 0;
#X obj 249 109 cnv 5 5 5 empty empty RESET 0 0 0 8 -262144 -226533
0;
#N canvas 21 22 593 735 state-saving-multiple-instances 0;
#X obj 215 28 loadbang;
#X obj 261 480 textfile;
#X msg 556 463 rewind;
#X msg 513 463 bang;
#X obj 119 690 textfile;
#X obj 513 424 t b b;
#X obj 120 356 f;
#X obj 133 579 f;
#X obj 66 422 t b b b;
#X msg 196 579 clear;
#X obj 281 216 outlet;
#X text 277 236 INSTANCE NUMBER;
#X obj 242 92 f \$1;
#X obj 242 128 t f f f;
#X obj 215 61 t b b;
#X obj 66 331 bng 15 250 50 0 empty empty empty 17 7 0 10 -262144 -1
-1;
#X obj 66 235 r SAVE-S;
#X msg 132 648 write statesave/\$1-looper-ss.txt;
#X msg 262 455 read statesave/\$1-looper-ss.txt;
#X obj 135 307 r \$0-looper-speed-s;
#X obj 261 604 s \$0-looper-speed-r;
#X obj 165 364 r \$0-samplesize;
#X obj 316 564 s \$0-samplesize;
#X msg 120 438 set \$1;
#X obj 120 398 pack f;
#X obj 261 502 unpack f;
#X obj 294 42 r \$0-reload!;
#X connect 0 0 14 0;
#X connect 1 0 25 0;
#X connect 2 0 1 0;
#X connect 3 0 1 0;
#X connect 5 0 3 0;
#X connect 5 1 2 0;
#X connect 6 0 24 0;
#X connect 7 0 17 0;
#X connect 8 0 7 0;
#X connect 8 1 6 0;
#X connect 8 2 9 0;
#X connect 9 0 4 0;
#X connect 12 0 13 0;
#X connect 13 0 7 1;
#X connect 13 1 18 0;
#X connect 13 2 10 0;
#X connect 14 0 5 0;
#X connect 14 1 12 0;
#X connect 15 0 8 0;
#X connect 16 0 15 0;
#X connect 17 0 4 0;
#X connect 18 0 1 0;
#X connect 19 0 6 1;
#X connect 23 0 4 0;
#X connect 24 0 23 0;
#X connect 25 0 20 0;
#X connect 26 0 14 0;
#X restore 650 336 pd state-saving-multiple-instances;
#X obj 650 410 s \$0-instance-num;
#X obj 650 362 makefilename %d;
#X msg 650 387 label \$1;
#N canvas 81 22 1117 745 state-saving-via-preset-manager-module 0;
#X obj 477 349 textfile;
#X msg 755 332 rewind;
#X msg 712 332 bang;
#X obj 243 690 textfile;
#X obj 712 293 t b b;
#X obj 244 356 f;
#X obj 257 579 f;
#X obj 190 422 t b b b;
#X msg 320 579 clear;
#X obj 244 264 delay 5;
#X obj 190 484 delay 10;
#X msg 190 314 bang;
#X obj 190 147 r STORE-S!;
#X obj 477 250 f;
#X obj 450 207 t b b;
#X obj 465 171 t b f;
#X obj 522 268 f \$1;
#X obj 477 295 pack f f;
#X obj 522 218 loadbang;
#X obj 257 609 pack f f;
#X obj 302 467 loadbang;
#X obj 302 489 f \$1;
#X obj 465 148 r preset-manager-scan;
#X obj 279 148 r preset-manager-store-slot;
#X msg 244 438 set \$1;
#X msg 256 650 write statesave/\$1-\$2-looper-ss.txt;
#X msg 477 324 read statesave/\$1-\$2-looper-ss.txt;
#X obj 259 308 r \$0-looper-speed-s;
#X obj 477 615 s \$0-looper-speed-r;
#N canvas 0 22 1069 747 morph-frequencies 0;
#X obj 176 94 inlet;
#X obj 176 236 pack f f;
#X obj 176 261 line;
#X obj 209 117 r preset-manager-morph-s;
#X msg 72 244 stop;
#X obj 72 214 r STOP-MORPH!;
#X obj 398 102 r frequencies-s;
#X obj 209 206 spigot;
#X obj 398 137 t f f;
#X obj 455 154 == 0;
#X obj 221 176 f;
#X floatatom 455 222 5 0 0 0 - - -, f 5;
#X obj 398 159 t b f;
#X floatatom 425 192 5 0 0 0 - - -, f 5;
#X obj 209 139 t f f;
#X obj 176 283 outlet;
#X connect 0 0 1 0;
#X connect 1 0 2 0;
#X connect 2 0 15 0;
#X connect 3 0 14 0;
#X connect 4 0 2 0;
#X connect 5 0 4 0;
#X connect 6 0 8 0;
#X connect 7 0 1 1;
#X connect 8 0 12 0;
#X connect 8 1 9 0;
#X connect 9 0 11 0;
#X connect 10 0 7 0;
#X connect 11 0 1 1;
#X connect 12 0 10 0;
#X connect 12 1 13 0;
#X connect 13 0 7 1;
#X connect 14 0 7 0;
#X connect 14 1 10 1;
#X restore 477 591 pd morph-frequencies;
#X connect 0 0 29 0;
#X connect 1 0 0 0;
#X connect 2 0 0 0;
#X connect 4 0 2 0;
#X connect 4 1 1 0;
#X connect 5 0 24 0;
#X connect 6 0 19 0;
#X connect 7 0 10 0;
#X connect 7 1 9 0;
#X connect 7 2 8 0;
#X connect 8 0 3 0;
#X connect 9 0 5 0;
#X connect 10 0 6 0;
#X connect 11 0 7 0;
#X connect 12 0 11 0;
#X connect 13 0 17 0;
#X connect 14 0 4 0;
#X connect 14 1 13 0;
#X connect 15 0 14 0;
#X connect 15 1 13 1;
#X connect 16 0 17 1;
#X connect 17 0 26 0;
#X connect 18 0 16 0;
#X connect 19 0 25 0;
#X connect 20 0 21 0;
#X connect 21 0 19 1;
#X connect 22 0 15 0;
#X connect 23 0 6 1;
#X connect 24 0 3 0;
#X connect 25 0 3 0;
#X connect 26 0 0 0;
#X connect 27 0 5 1;
#X connect 29 0 28 0;
#X restore 650 312 pd state-saving-via-preset-manager-module;
#N canvas 375 75 488 529 scale-(0-127)-(-1-16_with_0_in_middle) 0;
#X obj 137 62 / 127;
#X obj 137 200 clip 0 0.5;
#X floatatom 137 222 5 0 0 0 - - -, f 5;
#X obj 137 121 t f f;
#X obj 224 138 clip 0.5 1;
#X floatatom 224 160 5 0 0 0 - - -, f 5;
#X floatatom 137 285 5 0 0 0 - - -, f 5;
#X obj 224 179 * 2;
#X floatatom 224 245 5 0 0 0 - - -, f 5;
#X obj 137 387 spigot;
#X obj 224 339 spigot;
#X obj 293 243 > 0.5;
#X floatatom 293 265 5 0 0 0 - - -, f 5;
#X obj 137 84 t f f;
#X obj 293 284 t f f;
#X obj 320 338 == 0;
#X floatatom 137 459 5 0 0 0 - - -, f 5;
#X obj 138 24 inlet;
#X obj 137 478 outlet;
#X obj 243 40 hsl 128 15 0 127 0 0 empty empty empty -2 -8 0 10 -262144
-1 -1 0 1;
#X floatatom 222 82 5 0 0 0 - - -, f 5;
#X obj 137 241 * 2;
#X obj 224 201 * 15;
#X obj 137 263 - 1;
#X obj 224 224 - 15;
#X connect 0 0 13 0;
#X connect 1 0 2 0;
#X connect 2 0 21 0;
#X connect 3 0 1 0;
#X connect 3 1 4 0;
#X connect 4 0 5 0;
#X connect 5 0 7 0;
#X connect 6 0 9 0;
#X connect 7 0 22 0;
#X connect 8 0 10 0;
#X connect 9 0 16 0;
#X connect 10 0 16 0;
#X connect 11 0 12 0;
#X connect 12 0 14 0;
#X connect 13 0 3 0;
#X connect 13 1 11 0;
#X connect 14 0 10 1;
#X connect 14 1 15 0;
#X connect 15 0 9 1;
#X connect 16 0 18 0;
#X connect 17 0 0 0;
#X connect 19 0 0 0;
#X connect 19 0 20 0;
#X connect 21 0 23 0;
#X connect 22 0 24 0;
#X connect 23 0 6 0;
#X connect 24 0 8 0;
#X restore 34 363 pd scale-(0-127)-(-1-16_with_0_in_middle);
#N canvas 297 27 748 331 parameter-nudging-system 0;
#X obj 23 67 clip 0 127;
#X obj 23 22 r \$0-looper-speed-s;
#X obj 23 95 s \$0-looper-speed-r;
#N canvas 0 22 484 497 nudge-freq 0;
#X obj 124 234 random;
#X obj 232 335 f;
#X obj 232 368 +;
#X obj 257 166 random 2;
#X obj 124 275 t f f;
#X obj 124 351 t b f;
#X obj 124 297 *;
#X obj 257 188 sel 0 1;
#X msg 257 280 -1;
#X msg 335 280 1;
#X obj 124 149 t b b b;
#X obj 124 51 r NUDGE!;
#X obj 157 193 r NUDGE-RANGE;
#X obj 247 308 inlet;
#X obj 232 397 outlet;
#X obj 124 73 spigot;
#X obj 185 56 r frequencies2-s;
#X connect 0 0 4 0;
#X connect 1 0 2 0;
#X connect 2 0 14 0;
#X connect 3 0 7 0;
#X connect 4 0 6 0;
#X connect 5 0 2 0;
#X connect 5 1 2 1;
#X connect 6 0 5 0;
#X connect 7 0 8 0;
#X connect 7 1 9 0;
#X connect 8 0 6 1;
#X connect 9 0 6 1;
#X connect 10 0 0 0;
#X connect 10 1 1 0;
#X connect 10 2 3 0;
#X connect 11 0 15 0;
#X connect 12 0 0 1;
#X connect 13 0 1 1;
#X connect 15 0 10 0;
#X connect 16 0 15 1;
#X restore 22 45 pd nudge-freq;
#X connect 0 0 2 0;
#X connect 1 0 3 0;
#X connect 3 0 0 0;
#X restore 649 433 pd parameter-nudging-system;
#X msg 109 648 67.735;
#X msg 108 736 67.735;
#X obj 467 552 *~;
#X obj 321 691 line~;
#X obj 509 667 line~;
#X obj 509 645 pack 0 50;
#X obj 321 669 pack 0 50;
#X obj 319 341 writesf~ 2;
#X obj 301 27 r \$0-looper-record-s;
#X obj 301 49 sel 0 1;
#X msg 301 208 stop;
#X msg 320 156 start;
#X text 301 6 RECORD TO DISK:;
#N canvas 0 22 636 427 load-sample-soundfiler 0;
#X obj 21 129 f \$0;
#X obj 21 214 soundfiler;
#X obj 21 260 44100;
#X obj 21 282 /;
#X floatatom 21 304 5 0 0 0 - - -, f 5;
#X obj 60 260 s \$0-samplesize;
#X obj 21 236 t b f f;
#X obj 21 61 r \$0-looper-record-s;
#X obj 21 83 sel 0;
#X obj 21 323 outlet;
#X obj 21 105 delay 10;
#X obj 159 61 loadbang;
#X obj 21 151 pack f f;
#X obj 186 134 f \$1;
#X msg 21 190 read -resize ../samples/loop\$2.wav \$1-loopL \$1-loopR
, f 61;
#X obj 159 112 t b b;
#X obj 159 83 delay 100;
#X connect 0 0 12 0;
#X connect 1 0 6 0;
#X connect 2 0 3 0;
#X connect 3 0 4 0;
#X connect 4 0 9 0;
#X connect 6 0 2 0;
#X connect 6 1 3 1;
#X connect 6 2 5 0;
#X connect 7 0 8 0;
#X connect 8 0 10 0;
#X connect 10 0 0 0;
#X connect 11 0 16 0;
#X connect 12 0 14 0;
#X connect 13 0 12 1;
#X connect 14 0 1 0;
#X connect 15 0 0 0;
#X connect 15 1 13 0;
#X connect 16 0 15 0;
#X restore 467 379 pd load-sample-soundfiler;
#X obj 531 535 r \$0-samplesize;
#X obj 431 172 inlet~ SAMPLE-INPUT-RIGHT;
#X obj 467 575 tabread4~ \$0-loopL;
#X obj 685 677 *~;
#X obj 727 595 r \$0-looper-record-s;
#X obj 727 617 == 0;
#X obj 727 661 line~;
#X obj 727 639 pack 0 50;
#X obj 685 569 tabread4~ \$0-loopR;
#X obj 467 791 outlet~ LEFT;
#X obj 685 785 outlet~ RIGHT;
#X obj 306 624 r~ \$0-looper-sampleL;
#X obj 519 342 s~ \$0-looper-sampleR;
#X obj 856 731 *~;
#X obj 871 641 r \$0-looper-record-s;
#X obj 871 685 line~;
#X obj 871 663 pack 0 50;
#X obj 856 618 r~ \$0-looper-sampleR;
#X obj 248 243 cnv 5 5 5 empty empty RIGHT 0 0 0 8 -262144 -66577 0
;
#X obj 104 109 cnv 5 5 5 empty empty IN-L 0 0 0 8 -262144 -66577 0
;
#X obj 104 243 cnv 5 5 5 empty empty LEFT 0 0 0 8 -262144 -66577 0
;
#X obj 390 341 s~ \$0-looper-sampleL;
#X obj 572 622 loadbang;
#X msg 572 644 1;
#X obj 794 617 loadbang;
#X msg 794 639 1;
#N canvas 355 23 690 662 write-crown 0;
#X obj 145 455 clip~ 0 1;
#X obj 145 490 tabwrite~ \$0-crown;
#X obj 146 325 vline~;
#X obj 146 349 cos~;
#X obj 145 512 table \$0-crown;
#X obj 113 127 r \$0-samplesize;
#X msg 146 302 -0.25 \, 0.25 \$1;
#X floatatom 113 250 20 0 0 0 - - -, f 20;
#X obj 113 269 t b f, f 6;
#X obj 274 321 s \$0-crown;
#X obj 229 136 r \$0-samplesize;
#X msg 274 297 resize \$1;
#X obj 113 206 f;
#X obj 113 156 t b f;
#X obj 113 182 delay 100;
#X obj 113 228 / 44.1;
#X obj 131 38 r \$0-samplesize;
#X obj 116 63 f;
#X obj 116 -6 loadbang;
#X obj 116 85 t f f;
#X obj 274 253 f;
#X obj 229 158 t b f;
#X obj 229 195 delay 250;
#X obj 130 16 r \$0-looper-help;
#X obj 145 431 *~ 64;
#X obj 332 133 r \$0-samplesize;
#X floatatom 332 155 20 0 0 0 - - -, f 20;
#X obj 42 -2 loadbang;
#X obj 42 24 delay 7500;
#X msg 42 46 bang;
#X connect 0 0 1 0;
#X connect 2 0 3 0;
#X connect 3 0 24 0;
#X connect 5 0 13 0;
#X connect 6 0 2 0;
#X connect 7 0 8 0;
#X connect 8 0 1 0;
#X connect 8 1 6 0;
#X connect 10 0 21 0;
#X connect 11 0 9 0;
#X connect 12 0 15 0;
#X connect 13 0 14 0;
#X connect 13 1 12 1;
#X connect 14 0 12 0;
#X connect 15 0 7 0;
#X connect 16 0 17 1;
#X connect 17 0 19 0;
#X connect 18 0 17 0;
#X connect 19 0 13 0;
#X connect 19 1 21 0;
#X connect 20 0 11 0;
#X connect 20 0 13 0;
#X connect 21 0 22 0;
#X connect 21 1 20 1;
#X connect 22 0 20 0;
#X connect 23 0 17 0;
#X connect 24 0 0 0;
#X connect 25 0 26 0;
#X connect 27 0 28 0;
#X connect 28 0 29 0;
#X connect 29 0 17 0;
#X restore 98 76 pd write-crown;
#X obj 542 704 tabread4~ \$0-crown;
#X obj 467 724 *~;
#X obj 685 724 *~;
#X obj 107 224 hsl 128 10 0 127 0 0 \$0-looper-gui-s \$0-looper-gui-r
empty -2 -8 0 10 -262144 -1 -1 0 1;
#X obj 257 538 snapshot~;
#X obj 257 494 tgl 15 0 empty empty empty 17 7 0 10 -262144 -1 -1 1
1;
#X obj 257 514 metro 20;
#X obj 257 584 s \$0-looper-gui-r;
#X obj 257 560 * 127;
#X obj 257 469 loadbang;
#X msg 347 125 open -bytes 3 ../samples/loop\$1.wav;
#X obj 347 99 f \$1;
#X floatatom -45 553 5 0 0 0 - - -, f 5;
#X obj -45 572 < 0.5;
#X floatatom -45 594 5 0 0 0 - - -, f 5;
#X obj -45 613 sel 1;
#X obj -45 656 s \$0-looper-help;
#X obj -45 635 spigot;
#X obj 12 545 loadbang;
#X msg 12 590 1;
#X obj 41 596 delay 5000;
#X msg 41 618 0;
#X obj 539 431 *~ 15;
#X obj 34 470 clip~ -1 30;
#X obj 391 247 *~;
#X obj 431 247 *~;
#X obj 320 71 t b b b;
#X msg 615 88 1;
#X obj 615 110 pack 0 1;
#X obj 615 230 vline~;
#X obj 301 106 t b b;
#X msg 645 60 0, f 4;
#N canvas 0 22 450 278 (subpatch) 0;
#X array \$0-loopR 441831 float 2;
#X coords 0 1 441831 -1 60 40 1 0 0;
#X restore 177 184 graph;
#N canvas 0 22 450 278 (subpatch) 0;
#X array \$0-loopL 441831 float 2;
#X coords 0 1 441831 -1 60 40 1 0 0;
#X restore 104 184 graph;
#X obj 467 746 *~ 1;
#X obj 685 746 *~ 1;
#N canvas 632 73 749 752 external-messages 0;
#X floatatom 186 706 5 0 0 0 - - -, f 5;
#X obj 185 328 spigot;
#X obj 218 288 tgl 15 0 empty empty empty 17 7 0 10 -262144 -1 -1 0
1;
#X obj 254 272 ==;
#X obj 269 248 f \$1;
#X obj 269 224 loadbang;
#X msg 185 202 \$1 \$2;
#X msg 185 156 symbol \$1;
#X obj 185 180 pack s f;
#X obj 186 685 f;
#X obj 186 633 t b f;
#X obj 186 656 spigot;
#X obj 185 62 unpack s f f;
#X symbolatom 185 94 10 0 0 0 - - -, f 10;
#X obj 218 308 t f f;
#X obj 245 332 s \$0-msg-spigot;
#X obj 234 640 r \$0-msg-spigot;
#X floatatom 223 594 5 0 0 0 - - -, f 5;
#X obj 223 573 f;
#X obj 223 521 t b f;
#X obj 223 544 spigot;
#X obj 271 528 r \$0-msg-spigot;
#X floatatom 387 639 5 0 0 0 - - -, f 5;
#X obj 387 618 f;
#X obj 387 566 t b f;
#X obj 387 589 spigot;
#X obj 435 573 r \$0-msg-spigot;
#X obj 185 14 r looper;
#X obj 185 380 route SPEED RECORD ORIGINAL;
#X obj 186 726 s \$0-looper-speed-r;
#X obj 223 614 s \$0-looper-record-r;
#X obj 387 659 s \$0-looper-original-r;
#X connect 0 0 29 0;
#X connect 1 0 28 0;
#X connect 2 0 14 0;
#X connect 3 0 2 0;
#X connect 4 0 3 1;
#X connect 5 0 4 0;
#X connect 6 0 1 0;
#X connect 7 0 8 0;
#X connect 8 0 6 0;
#X connect 9 0 0 0;
#X connect 10 0 11 0;
#X connect 10 1 9 1;
#X connect 11 0 9 0;
#X connect 12 0 13 0;
#X connect 12 1 8 1;
#X connect 12 2 3 0;
#X connect 13 0 7 0;
#X connect 14 0 1 1;
#X connect 14 1 15 0;
#X connect 16 0 11 1;
#X connect 17 0 30 0;
#X connect 18 0 17 0;
#X connect 19 0 20 0;
#X connect 19 1 18 1;
#X connect 20 0 18 0;
#X connect 21 0 20 1;
#X connect 22 0 31 0;
#X connect 23 0 22 0;
#X connect 24 0 25 0;
#X connect 24 1 23 1;
#X connect 25 0 23 0;
#X connect 26 0 25 1;
#X connect 27 0 12 0;
#X connect 28 0 10 0;
#X connect 28 1 19 0;
#X connect 28 2 24 0;
#X restore 657 283 pd external-messages;
#X connect 1 0 49 0;
#X connect 1 0 92 0;
#X connect 3 0 9 0;
#X connect 3 0 26 0;
#X connect 5 0 6 0;
#X connect 6 0 7 0;
#X connect 7 0 8 0;
#X connect 8 0 1 0;
#X connect 9 0 10 0;
#X connect 10 0 11 0;
#X connect 11 0 111 0;
#X connect 12 0 110 0;
#X connect 13 0 112 0;
#X connect 19 0 48 0;
#X connect 21 0 45 0;
#X connect 22 0 23 0;
#X connect 23 0 47 0;
#X connect 27 0 70 0;
#X connect 28 0 53 0;
#X connect 29 0 89 0;
#X connect 30 0 31 0;
#X connect 31 0 52 0;
#X connect 32 0 33 0;
#X connect 35 0 1 1;
#X connect 36 0 32 0;
#X connect 37 0 38 0;
#X connect 38 0 35 0;
#X connect 40 0 42 0;
#X connect 42 0 43 0;
#X connect 43 0 41 0;
#X connect 45 0 3 0;
#X connect 47 0 24 0;
#X connect 48 0 20 0;
#X connect 49 0 63 0;
#X connect 49 0 69 0;
#X connect 49 0 88 0;
#X connect 50 0 27 1;
#X connect 51 0 29 1;
#X connect 52 0 51 0;
#X connect 53 0 50 0;
#X connect 55 0 56 0;
#X connect 56 0 118 0;
#X connect 56 1 114 0;
#X connect 57 0 54 0;
#X connect 58 0 54 0;
#X connect 60 0 5 0;
#X connect 61 0 49 1;
#X connect 62 0 113 0;
#X connect 63 0 29 0;
#X connect 64 0 90 0;
#X connect 65 0 66 0;
#X connect 66 0 68 0;
#X connect 67 0 64 1;
#X connect 68 0 67 0;
#X connect 69 0 64 0;
#X connect 72 0 27 0;
#X connect 74 0 71 0;
#X connect 75 0 77 0;
#X connect 76 0 74 1;
#X connect 77 0 76 0;
#X connect 78 0 74 0;
#X connect 83 0 84 0;
#X connect 84 0 52 0;
#X connect 85 0 86 0;
#X connect 86 0 68 0;
#X connect 88 0 89 1;
#X connect 88 0 90 1;
#X connect 89 0 122 0;
#X connect 90 0 123 0;
#X connect 92 0 96 0;
#X connect 92 0 100 0;
#X connect 93 0 94 0;
#X connect 94 0 92 0;
#X connect 96 0 95 0;
#X connect 97 0 93 0;
#X connect 98 0 54 0;
#X connect 99 0 98 0;
#X connect 100 0 101 0;
#X connect 101 0 102 0;
#X connect 102 0 103 0;
#X connect 103 0 105 0;
#X connect 105 0 104 0;
#X connect 106 0 107 0;
#X connect 106 0 108 0;
#X connect 107 0 105 1;
#X connect 108 0 109 0;
#X connect 109 0 105 1;
#X connect 110 0 11 1;
#X connect 111 0 8 1;
#X connect 112 0 82 0;
#X connect 112 0 54 0;
#X connect 113 0 73 0;
#X connect 113 0 54 1;
#X connect 114 0 58 0;
#X connect 114 1 99 0;
#X connect 114 2 115 0;
#X connect 115 0 116 0;
#X connect 116 0 117 0;
#X connect 117 0 113 1;
#X connect 117 0 112 1;
#X connect 118 0 57 0;
#X connect 118 1 119 0;
#X connect 119 0 116 0;
#X connect 122 0 70 0;
#X connect 123 0 71 0;
#X coords 0 -1 1 1 175 150 2 100 100;
