#N canvas 0 57 1920 1023 10;
#X obj 103 125 cnv 5 5 5 empty empty MACRO-CONTROL 0 0 0 12 -262144
-66577 0;
#X obj 301 102 s \$0-instance-num;
#X obj 301 54 makefilename %d;
#X msg 301 79 label \$1;
#X obj 203 125 cnv 5 5 5 empty \$0-instance-num 0 0 0 0 12 -262144
-66577 0;
#N canvas 21 22 593 735 instance-number 0;
#X obj 215 28 loadbang;
#X obj 281 216 outlet;
#X text 277 236 INSTANCE NUMBER;
#X obj 242 92 f \$1;
#X connect 0 0 3 0;
#X connect 3 0 1 0;
#X restore 301 20 pd instance-number;
#X obj 107 153 hsl 128 15 0 127 0 0 \$0-macro1-value-s \$0-macro1-value-r
'1 127 8 0 10 -262130 -1 -1 0 1;
#X symbolatom 104 136 19 0 0 0 - #0-macro1-name-r #0-macro1-name-s
;
#X obj 104 287 cnv 5 5 5 empty empty VC1 0 0 0 8 -262144 -66577 0;
#X obj 104 107 cnv 5 5 5 empty empty VC1 0 0 0 8 -262144 -66577 0;
#X obj 107 190 hsl 128 15 0 127 0 0 \$0-macro2-value-s \$0-macro2-value-r
'2 127 8 0 10 -262130 -1 -1 4300 1;
#X obj 107 227 hsl 128 15 0 127 0 0 \$0-macro3-value-s \$0-macro3-value-r
'3 127 8 0 10 -262130 -1 -1 800 1;
#X obj 107 264 hsl 128 15 0 127 0 0 \$0-macro4-value-s \$0-macro4-value-r
'4 127 8 0 10 -262130 -1 -1 2400 1;
#X obj 10 50 state_saving_module macro-control \$0 \$1;
#X obj 50 10 savestate;
#X obj 144 107 cnv 5 5 5 empty empty VC2 0 0 0 8 -262144 -66577 0;
#X obj 184 107 cnv 5 5 5 empty empty VC3 0 0 0 8 -262144 -66577 0;
#X obj 224 107 cnv 5 5 5 empty empty VC4 0 0 0 8 -262144 -66577 0;
#X obj 144 287 cnv 5 5 5 empty empty VC2 0 0 0 8 -262144 -66577 0;
#X obj 184 287 cnv 5 5 5 empty empty VC3 0 0 0 8 -262144 -66577 0;
#X obj 224 287 cnv 5 5 5 empty empty VC4 0 0 0 8 -262144 -66577 0;
#X obj 221 137 tgl 16 0 \$0-midi_map1-s \$0-midi_map1-r lnk 1 6 0 8
-261234 -1 -1 0 1;
#X obj 849 724 v MIDI_CHANNEL;
#X obj 737 721 v MIDI_MAP_NUM;
#X obj 961 733 v MIDI_MAP_TYPE;
#X obj 854 692 f \$1;
#X obj 176 556 delay 10;
#X obj 185 637 s MIDI_LEARN;
#X msg 177 585 1;
#X obj 193 479 select 1 0;
#X msg 728 418 1;
#X msg 781 441 2;
#X msg 827 466 3;
#X msg 885 488 4;
#X obj 323 391 r MIDI_LEARN_OK;
#X msg 359 485 set 0;
#X obj 284 486 spigot;
#X obj 264 533 t b b;
#X msg 249 586 0;
#X obj 872 61 r \$0-macro1-value-s;
#X obj 925 85 r \$0-macro2-value-s;
#X obj 965 110 r \$0-macro3-value-s;
#X obj 1004 137 r \$0-macro4-value-s;
#X msg 925 108 2 \$1;
#X msg 872 84 1 \$1;
#X msg 1004 160 4 \$1;
#X msg 965 133 3 \$1;
#X obj 823 290 s;
#X obj 771 137 loadbang;
#X obj 776 180 f \$1;
#X msg 894 254 symbol MACRO-\$1;
#X obj 278 157 state_saving_module/macro_dispatch macro-control \$0
\$1 0 127 macro4-value-s macro4-value-r '4 #FFFFC6 #000000 #000000
;
#X obj 278 192 state_saving_module/macro_dispatch macro-control \$0
\$1 0 127 macro3-value-s macro3-value-r '3 #FFFFC6 #000000 #000000
;
#X obj 278 228 state_saving_module/macro_dispatch macro-control \$0
\$1 0 127 macro2-value-s macro2-value-r '2 #FFFFC6 #000000 #000000
;
#X obj 278 264 state_saving_module/macro_dispatch macro-control \$0
\$1 0 127 macro1-value-s macro1-value-r '1 #FFFFC6 #000000 #000000
;
#X symbolatom 104 173 19 0 0 0 - #0-macro2-name-r #0-macro2-name-s
;
#X obj 221 174 tgl 16 0 \$0-midi_map2-s \$0-midi_map2-r lnk 1 6 0 8
-261234 -1 -1 0 1;
#X symbolatom 104 210 19 0 0 0 - #0-macro3-name-r #0-macro3-name-s
;
#X obj 221 211 tgl 16 0 \$0-midi_map3-s \$0-midi_map3-r lnk 1 6 0 8
-261234 -1 -1 0 1;
#X symbolatom 104 247 19 0 0 0 - #0-macro4-name-r #0-macro4-name-s
;
#X obj 221 248 tgl 16 0 \$0-midi_map4-s \$0-midi_map4-r lnk 1 6 0 8
-261234 -1 -1 0 1;
#X obj 740 368 r \$0-midi_map1-s;
#X obj 790 391 r \$0-midi_map2-s;
#X obj 840 415 r \$0-midi_map3-s;
#X obj 893 436 r \$0-midi_map4-s;
#X obj 494 552 s \$0-midi_map1-r;
#X obj 495 572 s \$0-midi_map2-r;
#X obj 495 591 s \$0-midi_map3-r;
#X obj 495 610 s \$0-midi_map4-r;
#X obj 824 652 t f b b b;
#X msg 587 471 set 0;
#X msg 604 499 set 0;
#X msg 623 527 set 0;
#X msg 640 555 set 0;
#X obj 58 364 r \$0-midi_map1-s;
#X obj 61 386 r \$0-midi_map2-s;
#X obj 62 408 r \$0-midi_map3-s;
#X obj 63 430 r \$0-midi_map4-s;
#X obj 332 721 r MIDI_LEARN;
#X obj 332 744 select 0;
#X obj 327 795 s \$0-midi_learn-s;
#X msg 332 767 0;
#X obj 730 391 select 1;
#X obj 780 414 select 1;
#X obj 830 438 select 1;
#X obj 883 459 select 1;
#X obj 182 387 t f f;
#X obj 197 729 s \$0-midi_learn-s;
#X msg 167 691 1;
#X floatatom 724 678 5 0 0 0 - - -;
#X obj 888 591 pipe f 20;
#X msg 960 707 3;
#X text 1038 697 3 = macro;
#X connect 2 0 3 0;
#X connect 3 0 1 0;
#X connect 5 0 2 0;
#X connect 13 0 14 0;
#X connect 14 0 13 0;
#X connect 14 1 13 1;
#X connect 25 0 22 0;
#X connect 26 0 28 0;
#X connect 28 0 27 0;
#X connect 29 0 26 0;
#X connect 29 0 88 0;
#X connect 29 1 38 0;
#X connect 30 0 90 0;
#X connect 31 0 90 0;
#X connect 32 0 90 0;
#X connect 33 0 90 0;
#X connect 34 0 36 0;
#X connect 35 0 65 0;
#X connect 35 0 68 0;
#X connect 35 0 67 0;
#X connect 35 0 66 0;
#X connect 36 0 37 0;
#X connect 37 0 38 0;
#X connect 37 1 35 0;
#X connect 38 0 27 0;
#X connect 39 0 44 0;
#X connect 40 0 43 0;
#X connect 41 0 46 0;
#X connect 42 0 45 0;
#X connect 43 0 47 0;
#X connect 44 0 47 0;
#X connect 45 0 47 0;
#X connect 46 0 47 0;
#X connect 48 0 49 0;
#X connect 49 0 50 0;
#X connect 50 0 47 1;
#X connect 61 0 82 0;
#X connect 62 0 83 0;
#X connect 63 0 84 0;
#X connect 64 0 85 0;
#X connect 69 0 23 0;
#X connect 69 0 89 0;
#X connect 69 1 25 0;
#X connect 69 2 91 0;
#X connect 70 0 66 0;
#X connect 70 0 68 0;
#X connect 70 0 67 0;
#X connect 71 0 65 0;
#X connect 71 0 68 0;
#X connect 71 0 67 0;
#X connect 72 0 65 0;
#X connect 72 0 66 0;
#X connect 72 0 68 0;
#X connect 73 0 65 0;
#X connect 73 0 67 0;
#X connect 73 0 66 0;
#X connect 74 0 86 0;
#X connect 75 0 86 0;
#X connect 76 0 86 0;
#X connect 77 0 86 0;
#X connect 78 0 79 0;
#X connect 79 0 35 0;
#X connect 79 0 81 0;
#X connect 81 0 80 0;
#X connect 82 0 70 0;
#X connect 82 0 30 0;
#X connect 83 0 71 0;
#X connect 83 0 31 0;
#X connect 84 0 72 0;
#X connect 84 0 32 0;
#X connect 85 0 73 0;
#X connect 85 0 33 0;
#X connect 86 0 29 0;
#X connect 86 1 36 1;
#X connect 88 0 87 0;
#X connect 90 0 69 0;
#X connect 91 0 24 0;
#X coords 0 -1 1 1 150 200 2 100 100;
