#N struct 1241-point float xPos float yPos float rgb;
#N struct 1243-point float xPos float yPos float rgb;
#N canvas 294 288 697 518 10;
#X obj 20 17 cnv 15 400 30 empty empty MACRO-XY-CONTROL: 20 12 0 14 #90d4b0 #fcfcfc 0;
#X text 25 101 The "MACRO-CONTROL" module behaves as a virtual MIDI controler and thus can be mapped to any automatonism module. In turn \, it can be mapped and listen to any MIDI note and MIDI control signals delivered by MIDI interfaces connected to puredata.;
#N canvas 2 87 450 300 camomille/plugdata 0;
#X text 87 98 when patch is used as a vst3 plugin \, vst parameters are linked to corresponding macro numbers;
#X restore 628 619 pd camomille/plugdata plugin;
#X text 25 54 The "MACRO-XY-CONTROL" is an extended version of "MACRO-CONTROL" module with two xy pads linked to parameters;
#X obj 459 19 macro-xy-control 1;
#A saved dispatch macro1-value-s 29.21;
#A saved dispatch macro2-value-s 60.96;
#A saved dispatch macro3-value-s 100.701;
#A saved dispatch macro4-value-s 82.7681;
#A saved -macro-names param1 param2 param3 param4;
#A saved -macro-daw-enable;
#X obj 25 409 cnv 15 400 30 empty empty OUTPUTS: 20 12 0 14 #9898dc #fcfcfc 0;
#X obj 22 196 cnv 15 400 30 empty empty CONTROLS: 20 12 0 14 #9898dc #fcfcfc 0;
#X obj 22 342 cnv 15 400 30 empty empty INPUTS: 20 12 0 14 #9898dc #fcfcfc 0;
#X text 25 228 You can specify a custom name for each control slider. Type it in the text box., f 64;
#X text 25 262 Click on the 'map' button to map parameters from other modules, f 64;
#X text 27 284 When the patch is used with plugdata as plugin inside a DAW \, parameters are linked to macro numbers as soon as you check the corresponding boxes in the purple column., f 64;
#X text 27 382 no inputs;
#X text 34 446 V1 - V4 : slider position converted to voltage (0-1);
