#N canvas 0 57 1920 1023 10;
#X obj 103 125 cnv 5 5 5 empty empty MACRO-CONTROL 0 0 0 12 -262144
-66577 0;
#X obj 301 102 s \$0-instance-num;
#X obj 301 54 makefilename %d;
#X msg 301 79 label \$1;
#X obj 203 125 cnv 5 5 5 empty \$0-instance-num 0 0 0 0 12 -262144
-66577 0;
#N canvas 21 22 593 735 instance-number 0;
#X obj 215 28 loadbang;
#X obj 281 216 outlet;
#X text 277 236 INSTANCE NUMBER;
#X obj 242 92 f \$1;
#X connect 0 0 3 0;
#X connect 3 0 1 0;
#X restore 301 20 pd instance-number;
#X obj 107 153 hsl 128 15 0 127 0 0 \$0-macro1-value-s \$0-macro1-value-r
'1 127 8 0 10 -262130 -1 -1 0 1;
#X symbolatom 104 136 19 0 0 0 - #0-macro1-name-r #0-macro1-name-s
;
#X obj 104 287 cnv 5 5 5 empty empty V1 0 0 0 8 -262144 -66577 0;
#X obj 104 107 cnv 5 5 5 empty empty VC1 0 0 0 8 -262144 -66577 0;
#X obj 107 190 hsl 128 15 0 127 0 0 \$0-macro2-value-s \$0-macro2-value-r
'2 127 8 0 10 -262130 -1 -1 0 1;
#X obj 107 227 hsl 128 15 0 127 0 0 \$0-macro3-value-s \$0-macro3-value-r
'3 127 8 0 10 -262130 -1 -1 0 1;
#X obj 107 264 hsl 128 15 0 127 0 0 \$0-macro4-value-s \$0-macro4-value-r
'4 127 8 0 10 -262130 -1 -1 0 1;
#X obj 10 50 state_saving_module macro-control \$0 \$1;
#X obj 50 10 savestate;
#X obj 144 107 cnv 5 5 5 empty empty VC2 0 0 0 8 -262144 -66577 0;
#X obj 184 107 cnv 5 5 5 empty empty VC3 0 0 0 8 -262144 -66577 0;
#X obj 224 107 cnv 5 5 5 empty empty VC4 0 0 0 8 -262144 -66577 0;
#X obj 144 287 cnv 5 5 5 empty empty V2 0 0 0 8 -262144 -66577 0;
#X obj 184 287 cnv 5 5 5 empty empty V3 0 0 0 8 -262144 -66577 0;
#X obj 224 287 cnv 5 5 5 empty empty V4 0 0 0 8 -262144 -66577 0;
#X obj 221 137 tgl 16 0 \$0-midi_map1-s \$0-midi_map1-r lnk 1 6 0 8
-261234 -1 -1 0 1;
#X obj 176 556 delay 10;
#X obj 185 637 s MIDI_LEARN;
#X msg 177 585 1;
#X obj 193 479 select 1 0;
#X msg 728 418 1;
#X msg 781 441 2;
#X msg 827 466 3;
#X msg 885 488 4;
#X obj 295 435 r MIDI_LEARN_OK;
#X msg 359 485 set 0;
#X obj 284 486 spigot;
#X obj 264 533 t b b;
#X msg 249 586 0;
#X obj 1166 236 r \$0-macro1-value-s;
#X obj 1332 239 r \$0-macro2-value-s;
#X obj 1509 240 r \$0-macro3-value-s;
#X obj 1661 244 r \$0-macro4-value-s;
#X msg 1339 332 2 \$1;
#X msg 1199 334 1 \$1;
#X msg 1632 336 4 \$1;
#X msg 1494 334 3 \$1;
#X obj 278 157 state_saving_module/macro_dispatch macro-control \$0
\$1 0 127 macro4-value-s macro4-value-r '4 #FFFFC6 #000000 #000000
;
#X obj 278 192 state_saving_module/macro_dispatch macro-control \$0
\$1 0 127 macro3-value-s macro3-value-r '3 #FFFFC6 #000000 #000000
;
#X obj 278 228 state_saving_module/macro_dispatch macro-control \$0
\$1 0 127 macro2-value-s macro2-value-r '2 #FFFFC6 #000000 #000000
;
#X obj 278 264 state_saving_module/macro_dispatch macro-control \$0
\$1 0 127 macro1-value-s macro1-value-r '1 #FFFFC6 #000000 #000000
;
#X symbolatom 104 173 19 0 0 0 - #0-macro2-name-r #0-macro2-name-s
;
#X obj 221 174 tgl 16 0 \$0-midi_map2-s \$0-midi_map2-r lnk 1 6 0 8
-261234 -1 -1 0 1;
#X symbolatom 104 210 19 0 0 0 - #0-macro3-name-r #0-macro3-name-s
;
#X obj 221 211 tgl 16 0 \$0-midi_map3-s \$0-midi_map3-r lnk 1 6 0 8
-261234 -1 -1 0 1;
#X symbolatom 104 247 19 0 0 0 - #0-macro4-name-r #0-macro4-name-s
;
#X obj 221 248 tgl 16 0 \$0-midi_map4-s \$0-midi_map4-r lnk 1 6 0 8
-261234 -1 -1 0 1;
#X obj 740 368 r \$0-midi_map1-s;
#X obj 790 391 r \$0-midi_map2-s;
#X obj 840 415 r \$0-midi_map3-s;
#X obj 893 436 r \$0-midi_map4-s;
#X obj 494 552 s \$0-midi_map1-r;
#X obj 495 572 s \$0-midi_map2-r;
#X obj 495 591 s \$0-midi_map3-r;
#X obj 495 610 s \$0-midi_map4-r;
#X msg 587 471 set 0;
#X msg 604 499 set 0;
#X msg 623 527 set 0;
#X msg 640 555 set 0;
#X obj 58 364 r \$0-midi_map1-s;
#X obj 61 386 r \$0-midi_map2-s;
#X obj 62 408 r \$0-midi_map3-s;
#X obj 63 430 r \$0-midi_map4-s;
#X obj 332 721 r MIDI_LEARN;
#X obj 332 744 select 0;
#X obj 327 795 s \$0-midi_learn-s;
#X msg 332 767 0;
#X obj 730 391 select 1;
#X obj 780 414 select 1;
#X obj 830 438 select 1;
#X obj 883 459 select 1;
#X obj 182 387 t f f;
#X obj 197 729 s \$0-midi_learn-s;
#X msg 167 691 1;
#X obj 888 591 pipe f 20;
#X obj 902 721 s MACRO_MAP;
#X obj 903 680 pack f f;
#X obj 923 646 f \$1;
#X obj 888 614 t f b;
#X obj 1215 369 / 127;
#X obj 1338 370 / 127;
#X obj 1463 371 / 127;
#X obj 1588 371 / 127;
#X msg 1215 461 \$1 20;
#X msg 1338 462 \$1 20;
#X msg 1463 463 \$1 20;
#X msg 1588 463 \$1 20;
#X obj 1215 483 line~;
#X obj 1338 484 line~;
#X obj 1463 485 line~;
#X obj 1588 485 line~;
#X obj 1215 505 outlet~;
#X obj 1338 506 outlet~;
#X obj 1463 507 outlet~;
#X obj 1588 507 outlet~;
#X obj 1206 164 snapshot~;
#X obj 1264 83 loadbang;
#X obj 1264 123 metro 20;
#X obj 1267 108 tgl 15 0 empty empty empty 17 7 0 10 -262144 -1 -1
1 1;
#X obj 1203 73 inlet~;
#X obj 1206 187 change;
#X obj 1396 164 snapshot~;
#X obj 1393 73 inlet~;
#X obj 1396 187 change;
#X obj 1556 164 snapshot~;
#X obj 1553 73 inlet~;
#X obj 1556 187 change;
#X obj 1726 164 snapshot~;
#X obj 1723 73 inlet~;
#X obj 1726 187 change;
#X obj 1206 209 * 127;
#X obj 1397 218 * 127;
#X obj 1557 218 * 127;
#X obj 1727 218 * 127;
#X obj 1199 311 clip 0 127;
#X obj 1201 284 +;
#X obj 1203 262 t b f;
#X obj 1379 311 clip 0 127;
#X obj 1381 284 +;
#X obj 1383 262 t b f;
#X obj 1549 321 clip 0 127;
#X obj 1551 294 +;
#X obj 1553 272 t b f;
#X obj 1717 318 clip 0 127;
#X obj 1719 291 +;
#X obj 1721 269 t b f;
#X obj 1382 430 s MACRO-\$1;
#X connect 2 0 3 0;
#X connect 3 0 1 0;
#X connect 5 0 2 0;
#X connect 13 0 14 0;
#X connect 14 0 13 0;
#X connect 14 1 13 1;
#X connect 22 0 24 0;
#X connect 24 0 23 0;
#X connect 25 0 22 0;
#X connect 25 0 79 0;
#X connect 25 1 34 0;
#X connect 26 0 80 0;
#X connect 27 0 80 0;
#X connect 28 0 80 0;
#X connect 29 0 80 0;
#X connect 30 0 32 0;
#X connect 31 0 57 0;
#X connect 31 0 60 0;
#X connect 31 0 59 0;
#X connect 31 0 58 0;
#X connect 32 0 33 0;
#X connect 33 0 34 0;
#X connect 33 1 31 0;
#X connect 34 0 23 0;
#X connect 35 0 121 0;
#X connect 36 0 124 0;
#X connect 37 0 127 0;
#X connect 39 0 132 0;
#X connect 40 0 132 0;
#X connect 41 0 132 0;
#X connect 42 0 132 0;
#X connect 53 0 73 0;
#X connect 54 0 74 0;
#X connect 55 0 75 0;
#X connect 56 0 76 0;
#X connect 61 0 58 0;
#X connect 61 0 60 0;
#X connect 61 0 59 0;
#X connect 62 0 57 0;
#X connect 62 0 60 0;
#X connect 62 0 59 0;
#X connect 63 0 57 0;
#X connect 63 0 58 0;
#X connect 63 0 60 0;
#X connect 64 0 57 0;
#X connect 64 0 59 0;
#X connect 64 0 58 0;
#X connect 65 0 77 0;
#X connect 66 0 77 0;
#X connect 67 0 77 0;
#X connect 68 0 77 0;
#X connect 69 0 70 0;
#X connect 70 0 31 0;
#X connect 70 0 72 0;
#X connect 72 0 71 0;
#X connect 73 0 61 0;
#X connect 73 0 26 0;
#X connect 74 0 62 0;
#X connect 74 0 27 0;
#X connect 75 0 63 0;
#X connect 75 0 28 0;
#X connect 76 0 64 0;
#X connect 76 0 29 0;
#X connect 77 0 25 0;
#X connect 77 1 32 1;
#X connect 79 0 78 0;
#X connect 80 0 84 0;
#X connect 82 0 81 0;
#X connect 83 0 82 1;
#X connect 84 0 82 0;
#X connect 84 1 83 0;
#X connect 85 0 89 0;
#X connect 86 0 90 0;
#X connect 87 0 91 0;
#X connect 88 0 92 0;
#X connect 89 0 93 0;
#X connect 90 0 94 0;
#X connect 91 0 95 0;
#X connect 92 0 96 0;
#X connect 93 0 97 0;
#X connect 94 0 98 0;
#X connect 95 0 99 0;
#X connect 96 0 100 0;
#X connect 101 0 106 0;
#X connect 102 0 104 0;
#X connect 103 0 101 0;
#X connect 103 0 107 0;
#X connect 103 0 113 0;
#X connect 103 0 110 0;
#X connect 104 0 103 0;
#X connect 105 0 101 0;
#X connect 106 0 116 0;
#X connect 107 0 109 0;
#X connect 108 0 107 0;
#X connect 109 0 117 0;
#X connect 110 0 112 0;
#X connect 111 0 110 0;
#X connect 112 0 118 0;
#X connect 113 0 115 0;
#X connect 114 0 113 0;
#X connect 115 0 119 0;
#X connect 116 0 122 0;
#X connect 117 0 125 0;
#X connect 118 0 128 0;
#X connect 119 0 131 0;
#X connect 120 0 40 0;
#X connect 120 0 85 0;
#X connect 121 0 120 0;
#X connect 122 0 121 0;
#X connect 122 1 121 1;
#X connect 123 0 39 0;
#X connect 123 0 86 0;
#X connect 124 0 123 0;
#X connect 125 0 124 0;
#X connect 125 1 124 1;
#X connect 126 0 42 0;
#X connect 126 0 87 0;
#X connect 127 0 126 0;
#X connect 128 0 127 0;
#X connect 128 1 127 1;
#X connect 129 0 41 0;
#X connect 129 0 88 0;
#X connect 130 0 129 0;
#X connect 131 0 130 0;
#X connect 131 1 130 1;
#X coords 0 -1 1 1 150 200 2 100 100;
