#N canvas 0 57 1920 1023 10;
#X obj 301 102 s \$0-instance-num;
#X obj 301 54 makefilename %d;
#X msg 301 79 label \$1;
#N canvas 21 22 593 735 instance-number 0;
#X obj 215 28 loadbang;
#X obj 281 216 outlet;
#X text 277 236 INSTANCE NUMBER;
#X obj 242 92 f \$1;
#X connect 0 0 3 0;
#X connect 3 0 1 0;
#X restore 301 20 pd instance-number;
#X obj 480 81 reloaded macro-control \$0 \$1;
#X obj 520 41 savestate;
#X obj 1182 305 r \$0-macro1-value-s;
#X obj 1333 305 r \$0-macro2-value-s;
#X obj 1479 302 r \$0-macro3-value-s;
#X obj 1614 300 r \$0-macro4-value-s;
#X msg 1370 361 2 \$1;
#X msg 1211 356 1 \$1;
#X msg 1632 366 4 \$1;
#X msg 1494 364 3 \$1;
#X obj 1215 399 / 127;
#X obj 1338 400 / 127;
#X obj 1463 401 / 127;
#X obj 1588 401 / 127;
#X msg 1215 461 \$1 20;
#X msg 1338 462 \$1 20;
#X msg 1463 463 \$1 20;
#X msg 1588 463 \$1 20;
#X obj 1215 483 line~;
#X obj 1338 484 line~;
#X obj 1463 485 line~;
#X obj 1588 485 line~;
#X obj 1215 615 outlet~;
#X obj 1338 616 outlet~;
#X obj 1463 617 outlet~;
#X obj 1588 617 outlet~;
#X obj 1382 430 s MACRO-\$1;
#N canvas 146 239 1211 630 savestate(labels) 1;
#X obj 502 168 savestate;
#X obj 70 373 route -macro1-name -macro2-name -macro3-name -macro4-name;
#X obj 67 405 symbol;
#X msg 96 452 set \$1;
#X obj 95 475 s \$0-macro1-name-r;
#X obj 65 495 s \$0-macro1-name-s;
#X obj 237 405 symbol;
#X msg 266 452 set \$1;
#X obj 407 405 symbol;
#X msg 436 452 set \$1;
#X obj 577 405 symbol;
#X msg 606 452 set \$1;
#X obj 265 475 s \$0-macro2-name-r;
#X obj 235 495 s \$0-macro2-name-s;
#X obj 435 475 s \$0-macro3-name-r;
#X obj 405 495 s \$0-macro3-name-s;
#X obj 605 475 s \$0-macro4-name-r;
#X obj 575 495 s \$0-macro4-name-s;
#X obj 808 208 pack s s s s, f 29;
#X obj 806 12 r \$0-macro1-name-s;
#X obj 807 180 symbol;
#X obj 833 100 t b s;
#X obj 894 130 t b s;
#X obj 937 140 t b s;
#N canvas 431 93 412 465 default_values 0;
#X obj 63 439 outlet;
#X obj 340 48 inlet;
#X obj 217 52 loadbang;
#X obj 210 119 spigot 1;
#X msg 338 96 0;
#X obj 201 285 +;
#X obj 296 220 f \$1;
#X obj 296 243 - 1;
#X obj 296 266 * 4;
#X obj 169 226 t f f;
#X obj 160 351 list append;
#X msg 160 374 -macro\$1-name \$2;
#X obj 206 145 t b b;
#X obj 213 86 delay 100;
#X msg 202 170 4 \, 3 \, 2 \, 1;
#X obj 340 71 t b;
#X obj 138 144 bng 18 250 50 0 empty empty empty 0 -9 0 10 #fcfcfc #000000 #000000;
#X msg 198 322 symbol param\$1;
#X connect 1 0 15 0;
#X connect 2 0 13 0;
#X connect 3 0 12 0;
#X connect 4 0 3 1;
#X connect 5 0 17 0;
#X connect 6 0 7 0;
#X connect 7 0 8 0;
#X connect 8 0 5 1;
#X connect 9 0 10 0;
#X connect 9 1 5 0;
#X connect 10 0 11 0;
#X connect 11 0 0 0;
#X connect 12 0 14 0;
#X connect 12 1 6 0;
#X connect 13 0 3 0;
#X connect 14 0 9 0;
#X connect 15 0 4 0;
#X connect 16 0 12 0;
#X connect 17 0 10 1;
#X restore 97 333 pd default_values;
#X msg 70 245 -macro1-name \$1 \, -macro2-name \$2 \, -macro3-name \$3 \, -macro4-name \$4;
#X obj 474 339 s \$0-macro-names;
#X obj 71 215 r \$0-macro-names;
#X obj 829 355 s \$0-macro-names;
#X obj 70 293 t a b;
#X text 112 316 bypass;
#X obj 67 427 t s s;
#X obj 237 427 t s s;
#X obj 407 427 t s s;
#X obj 577 427 t s s;
#X obj 836 32 r \$0-macro2-name-s;
#X obj 866 52 r \$0-macro3-name-s;
#X obj 896 72 r \$0-macro4-name-s;
#X obj 560 253 list prepend -macro-names;
#X obj 472 200 list trim;
#X obj 478 273 route -macro-names;
#X obj 820 250 reloaded/daw_storage macro-control-\$1.macro-names;
#X obj 560 230 list append;
#X obj 476 306 list;
#X connect 0 0 39 0;
#X connect 0 1 42 0;
#X connect 1 0 2 0;
#X connect 1 1 6 0;
#X connect 1 2 8 0;
#X connect 1 3 10 0;
#X connect 2 0 31 0;
#X connect 3 0 4 0;
#X connect 6 0 32 0;
#X connect 7 0 12 0;
#X connect 8 0 33 0;
#X connect 9 0 14 0;
#X connect 10 0 34 0;
#X connect 11 0 16 0;
#X connect 18 0 41 0;
#X connect 18 0 42 1;
#X connect 19 0 20 0;
#X connect 20 0 18 0;
#X connect 21 0 20 0;
#X connect 21 1 18 1;
#X connect 22 0 20 0;
#X connect 22 1 18 2;
#X connect 23 0 20 0;
#X connect 23 1 18 3;
#X connect 24 0 1 0;
#X connect 25 0 29 0;
#X connect 27 0 25 0;
#X connect 29 0 1 0;
#X connect 29 1 24 0;
#X connect 31 0 5 0;
#X connect 31 1 3 0;
#X connect 32 0 13 0;
#X connect 32 1 7 0;
#X connect 33 0 15 0;
#X connect 33 1 9 0;
#X connect 34 0 17 0;
#X connect 34 1 11 0;
#X connect 35 0 21 0;
#X connect 36 0 22 0;
#X connect 37 0 23 0;
#X connect 38 0 0 0;
#X connect 39 0 40 0;
#X connect 40 0 43 0;
#X connect 41 0 28 0;
#X connect 42 0 38 0;
#X connect 43 0 26 0;
#X restore 756 65 pd savestate(labels);
#N canvas 190 147 1290 648 macro-mapping 0;
#X obj 186 316 delay 10;
#X msg 187 345 1;
#X obj 203 239 select 1 0;
#X msg 768 108 1;
#X msg 821 131 2;
#X msg 867 156 3;
#X msg 925 178 4;
#X obj 305 195 r MIDI_LEARN_OK;
#X obj 294 246 spigot;
#X obj 303 287 t b b;
#X msg 259 346 0;
#X obj 780 28 r \$0-midi_map1-s;
#X obj 830 51 r \$0-midi_map2-s;
#X obj 880 75 r \$0-midi_map3-s;
#X obj 933 96 r \$0-midi_map4-s;
#X obj 456 172 s \$0-midi_map1-r;
#X obj 456 224 s \$0-midi_map2-r;
#X obj 456 269 s \$0-midi_map3-r;
#X obj 456 320 s \$0-midi_map4-r;
#X obj 394 403 select 0;
#X obj 367 485 s \$0-midi_learn-s;
#X msg 372 457 0;
#X obj 219 200 t f f;
#X obj 81 445 s \$0-midi_learn-s;
#X msg 51 407 1;
#X obj 942 461 s MACRO_MAP;
#X obj 943 420 pack f f;
#X obj 963 386 f \$1;
#X obj 928 354 t f b;
#X obj 398 358 reloaded/r_ MIDI_LEARN;
#X obj 195 397 reloaded/s_ MIDI_LEARN;
#X obj 1039 271 s MACRO_MAP_ID;
#X obj 925 321 pipe f 20;
#X obj 928 281 t f f;
#X obj 1039 213 +;
#X obj 1091 151 loadbang;
#X obj 1091 197 * 4;
#X obj 217 4 r MACRO_MAP_ID;
#X obj 1091 174 f \$1;
#X obj 215 101 -;
#X obj 453 19 loadbang;
#X obj 453 65 * 4;
#X obj 453 42 f \$1;
#X obj 215 124 select 1 2 3 4;
#X msg 228 162 1;
#X msg 263 161 0;
#X msg 95 403 0;
#X msg 345 254 color 14 14 -1;
#X msg 627 161 color 14 14 -1;
#X msg 644 189 color 14 14 -1;
#X msg 663 217 color 14 14 -1;
#X msg 680 245 color 14 14 -1;
#X msg 604 86 color 13 13 -1;
#X msg 682 340 color 13 13 -1;
#X msg 682 370 color 13 13 -1;
#X msg 682 410 color 13 13 -1;
#X obj 216 33 t f f;
#X obj 215 67 select;
#X obj 352 113 t b b b;
#X msg 335 42 -1;
#X obj 363 78 delay 1;
#X obj 748 60 t b b b;
#X obj 812 77 t b b b;
#X obj 869 104 t b b b;
#X obj 950 125 t b b b;
#X text 151 573 un peu chaotique mais tant que ca marche....;
#X text 337 581 ';
#X connect 0 0 1 0;
#X connect 1 0 30 0;
#X connect 2 0 0 0;
#X connect 2 0 24 0;
#X connect 2 1 46 0;
#X connect 2 1 47 0;
#X connect 3 0 33 0;
#X connect 4 0 33 0;
#X connect 5 0 33 0;
#X connect 6 0 33 0;
#X connect 7 0 8 0;
#X connect 8 0 9 0;
#X connect 9 0 10 0;
#X connect 9 1 47 0;
#X connect 10 0 30 0;
#X connect 11 0 61 0;
#X connect 12 0 62 0;
#X connect 13 0 63 0;
#X connect 14 0 64 0;
#X connect 19 0 47 0;
#X connect 19 0 21 0;
#X connect 21 0 20 0;
#X connect 22 0 2 0;
#X connect 22 1 8 1;
#X connect 24 0 23 0;
#X connect 26 0 25 0;
#X connect 27 0 26 1;
#X connect 28 0 26 0;
#X connect 28 1 27 0;
#X connect 29 0 19 0;
#X connect 32 0 28 0;
#X connect 33 0 32 0;
#X connect 33 1 34 0;
#X connect 34 0 31 0;
#X connect 35 0 38 0;
#X connect 36 0 34 1;
#X connect 37 0 56 0;
#X connect 38 0 36 0;
#X connect 39 0 43 0;
#X connect 40 0 42 0;
#X connect 41 0 39 1;
#X connect 42 0 41 0;
#X connect 43 0 44 0;
#X connect 43 1 44 0;
#X connect 43 2 44 0;
#X connect 43 3 44 0;
#X connect 43 4 45 0;
#X connect 44 0 22 0;
#X connect 45 0 22 0;
#X connect 46 0 23 0;
#X connect 47 0 15 0;
#X connect 47 0 18 0;
#X connect 47 0 17 0;
#X connect 47 0 16 0;
#X connect 48 0 16 0;
#X connect 48 0 18 0;
#X connect 48 0 17 0;
#X connect 49 0 15 0;
#X connect 49 0 18 0;
#X connect 49 0 17 0;
#X connect 50 0 15 0;
#X connect 50 0 16 0;
#X connect 50 0 18 0;
#X connect 51 0 15 0;
#X connect 51 0 17 0;
#X connect 51 0 16 0;
#X connect 52 0 15 0;
#X connect 53 0 16 0;
#X connect 54 0 17 0;
#X connect 55 0 18 0;
#X connect 56 0 57 1;
#X connect 56 1 57 0;
#X connect 57 0 58 0;
#X connect 57 1 39 0;
#X connect 58 0 10 0;
#X connect 58 1 45 0;
#X connect 58 2 60 0;
#X connect 59 0 57 1;
#X connect 60 0 59 0;
#X connect 61 0 3 0;
#X connect 61 1 48 0;
#X connect 61 2 52 0;
#X connect 62 0 4 0;
#X connect 62 1 49 0;
#X connect 62 2 53 0;
#X connect 63 0 5 0;
#X connect 63 1 50 0;
#X connect 63 2 54 0;
#X connect 64 0 6 0;
#X connect 64 1 51 0;
#X connect 64 2 55 0;
#X restore 481 143 pd macro-mapping;
#N canvas 1468 87 450 300 labels(numbers) 0;
#X obj 152 63 f \$1;
#X obj 150 111 * 4;
#X obj 151 87 - 1;
#X obj 152 39 loadbang;
#X obj 150 133 t f f f f;
#X obj 203 157 + 1;
#X obj 193 187 + 2;
#X obj 163 217 + 3;
#X obj 153 247 + 4;
#X obj 155 339 s \$0-slotD-rcv;
#X obj 175 299 s \$0-slotC-rcv;
#X obj 205 259 s \$0-slotB-rcv;
#X obj 225 219 s \$0-slotA-rcv;
#X msg 226 198 label \$1';
#X msg 206 238 label \$1';
#X msg 176 278 label \$1';
#X msg 156 318 label \$1';
#X obj 117 73 bng 15 250 50 0 empty empty empty 17 7 0 10 #fcfcfc #000000 #000000;
#X connect 0 0 2 0;
#X connect 1 0 4 0;
#X connect 2 0 1 0;
#X connect 3 0 0 0;
#X connect 4 0 8 0;
#X connect 4 1 7 0;
#X connect 4 2 6 0;
#X connect 4 3 5 0;
#X connect 5 0 13 0;
#X connect 6 0 14 0;
#X connect 7 0 15 0;
#X connect 8 0 16 0;
#X connect 13 0 12 0;
#X connect 14 0 11 0;
#X connect 15 0 10 0;
#X connect 16 0 9 0;
#X connect 17 0 0 0;
#X restore 757 41 pd labels(numbers);
#N canvas 0 57 1920 1023 \$0-gui_listeners 0;
#X obj 38 47 reloaded/macro_dispatch macro-control \$0 \$1 0 127 macro4-value-s macro4-value-r macro:\$1:4 #EEEECC #000000 #000000;
#X obj 38 102 reloaded/macro_dispatch macro-control \$0 \$1 0 127 macro3-value-s macro3-value-r macro:\$1:3 #EEEECC #000000 #000000;
#X obj 43 159 reloaded/macro_dispatch macro-control \$0 \$1 0 127 macro2-value-s macro2-value-r macro:\$1:2 #EEEECC #000000 #000000;
#X obj 38 214 reloaded/macro_dispatch macro-control \$0 \$1 0 127 macro1-value-s macro1-value-r macro:\$1:1 #EEEECC #000000 #000000;
#X restore 480 111 pd \$0-gui_listeners;
#X obj 101 118 cnv 15 168 170 empty \$0-plugin_name-r plugdata 15 14 0 26 #fcfcc4 #e0c4fc 0;
#X obj 111 122 cnv 5 5 5 empty empty MACRO-CONTROL 0 0 0 12 #fcfcfc #404040 0;
#X obj 218 122 cnv 5 5 5 empty \$0-instance-num 1 0 0 0 12 #fcfcfc #404040 0;
#X obj 105 161 hsl 128 15 0 127 0 0 \$0-macro1-value-gui-s \$0-macro1-value-gui-r macro:1:1 1 8 0 10 #eeeecc #000000 #000000 0 1;
#X symbolatom 102 144 19 0 0 0 - \$0-macro1-name-r \$0-macro1-name-s 0;
#X obj 104 295 cnv 5 5 5 empty empty V1 0 0 0 8 #fcfcfc #404040 0;
#X obj 104 107 cnv 5 5 5 empty empty VC1 0 0 0 8 #fcfcfc #404040 0;
#X obj 105 198 hsl 128 15 0 127 0 0 \$0-macro2-value-gui-s \$0-macro2-value-gui-r macro:1:2 1 8 0 10 #eeeecc #000000 #000000 0 1;
#X obj 105 235 hsl 128 15 0 127 0 0 \$0-macro3-value-gui-s \$0-macro3-value-gui-r macro:1:3 1 8 0 10 #eeeecc #000000 #000000 0 1;
#X obj 105 272 hsl 128 15 0 127 0 0 \$0-macro4-value-gui-s \$0-macro4-value-gui-r macro:1:4 1 8 0 10 #eeeecc #000000 #000000 0 1;
#X obj 144 107 cnv 5 5 5 empty empty VC2 0 0 0 8 #fcfcfc #404040 0;
#X obj 184 107 cnv 5 5 5 empty empty VC3 0 0 0 8 #fcfcfc #404040 0;
#X obj 224 107 cnv 5 5 5 empty empty VC4 0 0 0 8 #fcfcfc #404040 0;
#X obj 144 295 cnv 5 5 5 empty empty V2 0 0 0 8 #fcfcfc #404040 0;
#X obj 184 295 cnv 5 5 5 empty empty V3 0 0 0 8 #fcfcfc #404040 0;
#X obj 224 295 cnv 5 5 5 empty empty V4 0 0 0 8 #fcfcfc #404040 0;
#X obj 219 145 tgl 16 0 \$0-midi_map1-s \$0-midi_map1-r map 1 6 0 8 #fcac44 #fcac44 #000000 0 1;
#X symbolatom 102 181 19 0 0 0 - \$0-macro2-name-r \$0-macro2-name-s 0;
#X obj 219 182 tgl 16 0 \$0-midi_map2-s \$0-midi_map2-r map 1 6 0 8 #fcac44 #fcac44 #000000 0 1;
#X symbolatom 102 218 19 0 0 0 - \$0-macro3-name-r \$0-macro3-name-s 0;
#X obj 219 219 tgl 16 0 \$0-midi_map3-s \$0-midi_map3-r map 1 6 0 8 #fcac44 #fcac44 #000000 0 1;
#X symbolatom 102 255 19 0 0 0 - \$0-macro4-name-r \$0-macro4-name-s 0;
#X obj 219 256 tgl 16 0 \$0-midi_map4-s \$0-midi_map4-r map 1 6 0 8 #fcac44 #fcac44 #000000 0 1;
#X obj 236 161 cnv 13 1 1 empty \$0-slotA-rcv 1' 1 8 0 14 #fcfcfc #404040 0;
#X obj 236 197 cnv 13 1 1 empty \$0-slotB-rcv 2' 1 8 0 14 #fcfcfc #404040 0;
#X obj 236 235 cnv 13 1 1 empty \$0-slotC-rcv 3' 1 8 0 14 #fcfcfc #404040 0;
#X obj 236 271 cnv 13 1 1 empty \$0-slotD-rcv 4' 1 8 0 14 #fcfcfc #404040 0;
#N canvas 1060 345 729 544 camomile_plugin_support 0;
#N canvas 254 299 434 300 param.set 0;
#X obj 26 288 s camomile;
#X obj 23 89 t f b;
#X obj 120 229 s camo.param.change;
#X msg 26 264 param set \$2 \$1;
#X obj 53 192 + 1;
#X obj 51 114 f \$1;
#X obj 51 130 - 1;
#X obj 52 162 * 4;
#X obj 26 240 pack f f;
#X obj 23 64 / 127;
#X obj 24 41 spigot 1;
#X obj 236 53 == 0;
#X obj 234 27 r \$0-plugin_type-s;
#X obj 23 18 receive \$0-macro1-value-gui-s;
#X connect 1 0 8 0;
#X connect 1 1 5 0;
#X connect 3 0 0 0;
#X connect 4 0 2 0;
#X connect 4 0 8 1;
#X connect 5 0 6 0;
#X connect 6 0 7 0;
#X connect 7 0 4 0;
#X connect 8 0 3 0;
#X connect 9 0 1 0;
#X connect 10 0 9 0;
#X connect 11 0 10 1;
#X connect 12 0 11 0;
#X connect 13 0 10 0;
#X restore 164 39 pd param.set \$0-macro1-value-s;
#N canvas 1268 521 453 464 param.get 0;
#X obj 6 185 t f f;
#X obj 6 19 receive param;
#X obj 6 113 change -1e+37;
#X obj 6 91 route 1;
#X obj 11 285 send \$0-macro1-value-s;
#X msg 37 215 set \$1;
#X obj 252 119 - 1;
#X obj 252 142 * 4;
#X obj 252 165 + 1;
#X obj 248 71 loadbang;
#X obj 250 96 f \$1;
#X obj 6 149 * 127;
#X obj 18 56 spigot 1;
#X obj 121 32 == 0;
#X obj 119 6 r \$0-plugin_type-s;
#X obj 38 246 s \$0-macro1-value-gui-r;
#X connect 0 0 4 0;
#X connect 0 1 5 0;
#X connect 1 0 12 0;
#X connect 2 0 11 0;
#X connect 3 0 2 0;
#X connect 5 0 15 0;
#X connect 6 0 7 0;
#X connect 7 0 8 0;
#X connect 8 0 3 1;
#X connect 9 0 10 0;
#X connect 10 0 6 0;
#X connect 11 0 0 0;
#X connect 12 0 3 0;
#X connect 13 0 12 1;
#X connect 14 0 13 0;
#X restore 365 39 pd param.get \$0-macro1-value-s;
#N canvas 238 299 450 300 param.set 0;
#X obj 26 288 s camomile;
#X obj 23 89 t f b;
#X obj 120 229 s camo.param.change;
#X msg 26 264 param set \$2 \$1;
#X obj 51 114 f \$1;
#X obj 51 132 - 1;
#X obj 52 162 * 4;
#X obj 26 240 pack f f;
#X obj 53 192 + 2;
#X obj 23 62 / 127;
#X obj 35 41 spigot 1;
#X obj 236 53 == 0;
#X obj 234 27 r \$0-plugin_type-s;
#X obj 21 11 receive \$0-macro2-value-gui-s;
#X connect 1 0 7 0;
#X connect 1 1 4 0;
#X connect 3 0 0 0;
#X connect 4 0 5 0;
#X connect 5 0 6 0;
#X connect 6 0 8 0;
#X connect 7 0 3 0;
#X connect 8 0 2 0;
#X connect 8 0 7 1;
#X connect 9 0 1 0;
#X connect 10 0 9 0;
#X connect 11 0 10 1;
#X connect 12 0 11 0;
#X connect 13 0 10 0;
#X restore 164 99 pd param.set \$0-macro2-value-s;
#N canvas 649 352 450 300 param.get 0;
#X obj 6 165 t f f;
#X obj 6 19 receive param;
#X obj 6 113 change -1e+37;
#X msg 37 195 set \$1;
#X obj 252 119 - 1;
#X obj 252 142 * 4;
#X obj 248 71 loadbang;
#X obj 250 96 f \$1;
#X obj 252 165 + 2;
#X obj 6 91 route 2;
#X obj 11 265 send \$0-macro2-value-s;
#X obj 6 140 * 127;
#X obj 6 53 spigot 1;
#X obj 113 39 == 0;
#X obj 111 13 r \$0-plugin_type-s;
#X obj 38 226 s \$0-macro2-value-gui-r;
#X connect 0 0 10 0;
#X connect 0 1 3 0;
#X connect 1 0 12 0;
#X connect 2 0 11 0;
#X connect 3 0 15 0;
#X connect 4 0 5 0;
#X connect 5 0 8 0;
#X connect 6 0 7 0;
#X connect 7 0 4 0;
#X connect 8 0 9 1;
#X connect 9 0 2 0;
#X connect 11 0 0 0;
#X connect 12 0 9 0;
#X connect 13 0 12 1;
#X connect 14 0 13 0;
#X restore 365 99 pd param.get \$0-macro2-value-s;
#N canvas 238 299 450 300 param.set 0;
#X obj 26 288 s camomile;
#X obj 23 89 t f b;
#X obj 120 229 s camo.param.change;
#X msg 26 264 param set \$2 \$1;
#X obj 51 114 f \$1;
#X obj 51 130 - 1;
#X obj 52 162 * 4;
#X obj 26 240 pack f f;
#X obj 53 192 + 3;
#X obj 23 64 / 127;
#X obj 24 41 spigot 1;
#X obj 236 53 == 0;
#X obj 234 27 r \$0-plugin_type-s;
#X obj 23 4 receive \$0-macro3-value-gui-s;
#X connect 1 0 7 0;
#X connect 1 1 4 0;
#X connect 3 0 0 0;
#X connect 4 0 5 0;
#X connect 5 0 6 0;
#X connect 6 0 8 0;
#X connect 7 0 3 0;
#X connect 8 0 2 0;
#X connect 8 0 7 1;
#X connect 9 0 1 0;
#X connect 10 0 9 0;
#X connect 11 0 10 1;
#X connect 12 0 11 0;
#X connect 13 0 10 0;
#X restore 164 159 pd param.set \$0-macro3-value-s;
#N canvas 606 419 450 300 param.get 0;
#X obj 6 165 t f f;
#X obj 6 19 receive param;
#X obj 6 113 change -1e+37;
#X msg 37 195 set \$1;
#X obj 252 119 - 1;
#X obj 252 142 * 4;
#X obj 248 71 loadbang;
#X obj 250 96 f \$1;
#X obj 6 91 route 3;
#X obj 252 165 + 3;
#X obj 11 265 send \$0-macro3-value-s;
#X obj 6 140 * 127;
#X obj 6 53 spigot 1;
#X obj 113 39 == 0;
#X obj 111 13 r \$0-plugin_type-s;
#X obj 38 226 s \$0-macro3-value-gui-r;
#X connect 0 0 10 0;
#X connect 0 1 3 0;
#X connect 1 0 12 0;
#X connect 2 0 11 0;
#X connect 3 0 15 0;
#X connect 4 0 5 0;
#X connect 5 0 9 0;
#X connect 6 0 7 0;
#X connect 7 0 4 0;
#X connect 8 0 2 0;
#X connect 9 0 8 1;
#X connect 11 0 0 0;
#X connect 12 0 8 0;
#X connect 13 0 12 1;
#X connect 14 0 13 0;
#X restore 365 159 pd param.get \$0-macro3-value-s;
#N canvas 238 299 450 300 param.set 0;
#X obj 26 288 s camomile;
#X obj 23 89 t f b;
#X obj 120 229 s camo.param.change;
#X msg 26 264 param set \$2 \$1;
#X obj 51 114 f \$1;
#X obj 51 130 - 1;
#X obj 52 162 * 4;
#X obj 26 240 pack f f;
#X obj 53 192 + 4;
#X obj 23 62 / 127;
#X obj 24 41 spigot 1;
#X obj 236 53 == 0;
#X obj 234 27 r \$0-plugin_type-s;
#X obj 23 13 receive \$0-macro4-value-gui-s;
#X connect 1 0 7 0;
#X connect 1 1 4 0;
#X connect 3 0 0 0;
#X connect 4 0 5 0;
#X connect 5 0 6 0;
#X connect 6 0 8 0;
#X connect 7 0 3 0;
#X connect 8 0 2 0;
#X connect 8 0 7 1;
#X connect 9 0 1 0;
#X connect 10 0 9 0;
#X connect 11 0 10 1;
#X connect 12 0 11 0;
#X connect 13 0 10 0;
#X restore 164 219 pd param.set \$0-macro4-value-s;
#N canvas 602 409 450 300 param.get 0;
#X obj 6 165 t f f;
#X obj 6 19 receive param;
#X obj 6 113 change -1e+37;
#X msg 37 195 set \$1;
#X obj 252 69 - 1;
#X obj 252 92 * 4;
#X obj 248 21 loadbang;
#X obj 250 46 f \$1;
#X obj 252 115 + 4;
#X obj 6 91 route 4;
#X obj 11 265 send \$0-macro4-value-s;
#X obj 6 140 * 127;
#X obj 6 53 spigot 1;
#X obj 113 39 == 0;
#X obj 111 13 r \$0-plugin_type-s;
#X obj 38 226 s \$0-macro4-value-gui-r;
#X connect 0 0 10 0;
#X connect 0 1 3 0;
#X connect 1 0 12 0;
#X connect 2 0 11 0;
#X connect 3 0 15 0;
#X connect 4 0 5 0;
#X connect 5 0 8 0;
#X connect 6 0 7 0;
#X connect 7 0 4 0;
#X connect 8 0 9 1;
#X connect 9 0 2 0;
#X connect 11 0 0 0;
#X connect 12 0 9 0;
#X connect 13 0 12 1;
#X connect 14 0 13 0;
#X restore 365 219 pd param.get \$0-macro4-value-s;
#X restore 568 238 pd camomile_plugin_support;
#X obj 605 107 namecanvas \$0-this;
#X obj 535 242 vradio 14 1 0 2 \$0-plugin_type-s \$0-plugin_type-r empty 0 -9 0 10 #feffc6 #000000 #000000 0;
#X obj 339 204 select 0 1;
#X msg 334 287 label camomile;
#X msg 344 317 label plugdata;
#X obj 334 347 s \$0-plugin_name-r;
#N canvas 672 381 748 368 plugdata_plugin_support 0;
#X obj 19 195 reloaded/macro_param \$1 \$0 1;
#X obj 23 235 reloaded/macro_param \$1 \$0 2;
#X obj 27 275 reloaded/macro_param \$1 \$0 3;
#X obj 31 315 reloaded/macro_param \$1 \$0 4;
#X restore 568 265 pd plugdata_plugin_support;
#X obj 327 235 bng 25 250 50 0 empty empty empty 17 7 0 10 #e4e4e4 #5a5a5a #5a5a5a;
#X obj 388 244 bng 25 250 50 0 empty empty empty 17 7 0 10 #e4e4e4 #5a5a5a #5a5a5a;
#X obj 339 176 r \$0-plugin_type-s;
#X obj 828 206 loadbang;
#X obj 828 229 delay 100;
#X obj 828 252 v IS_CAMOMILE;
#X obj 828 275 == 0;
#X obj 828 298 s \$0-plugin_type-s;
#X text 958 302 0 = camomile;
#X text 958 322 1 = plugdata;
#N canvas 297 27 670 451 parameter-nudging-system 0;
#X obj 52 104 clip 0 127;
#X obj 52 82 reloaded/nudge-parameters;
#X obj 52 59 r \$0-macro1-value-s;
#X obj 52 133 s \$0-macro1-value-r;
#X obj 222 104 clip 0 127;
#X obj 222 82 reloaded/nudge-parameters;
#X obj 52 224 clip 0 127;
#X obj 52 202 reloaded/nudge-parameters;
#X obj 222 224 clip 0 127;
#X obj 222 202 reloaded/nudge-parameters;
#X obj 222 59 r \$0-macro2-value-s;
#X obj 222 133 s \$0-macro2-value-r;
#X obj 52 179 r \$0-macro3-value-s;
#X obj 222 179 r \$0-macro4-value-s;
#X obj 52 253 s \$0-macro3-value-r;
#X obj 222 253 s \$0-macro4-value-r;
#X connect 0 0 3 0;
#X connect 1 0 0 0;
#X connect 2 0 1 0;
#X connect 4 0 11 0;
#X connect 5 0 4 0;
#X connect 6 0 14 0;
#X connect 7 0 6 0;
#X connect 8 0 15 0;
#X connect 9 0 8 0;
#X connect 10 0 5 0;
#X connect 12 0 7 0;
#X connect 13 0 9 0;
#X restore 615 365 pd parameter-nudging-system;
#X obj 1215 549 clip~ -1 1;
#X obj 1338 550 clip~ -1 1;
#X obj 1463 551 clip~ -1 1;
#X obj 1588 551 clip~ -1 1;
#X obj 965 511 inlet~;
#X obj 1014 511 inlet~;
#X obj 1064 511 inlet~;
#X obj 1114 511 inlet~;
#X obj 1186 331 t f f;
#X obj 1339 336 t f f;
#X obj 1478 327 t f f;
#X obj 1619 332 t f f;
#X obj 788 240 bng 18 250 50 0 empty empty empty 0 -9 0 10 #fcfcfc #000000 #000000;
#X obj 755 326 s \$0-plugin_type-r;
#X msg 751 290 set \$1;
#X obj 1155 111 r \$0-macro1-value-s;
#X obj 1306 111 r \$0-macro2-value-s;
#X obj 1452 108 r \$0-macro3-value-s;
#X obj 1587 106 r \$0-macro4-value-s;
#X msg 1155 134 set \$1;
#X msg 1305 134 set \$1;
#X msg 1465 134 set \$1;
#X msg 1615 134 set \$1;
#X obj 1155 165 s \$0-macro1-value-gui-r;
#X obj 1306 165 s \$0-macro2-value-gui-r;
#X obj 1452 162 s \$0-macro3-value-gui-r;
#X obj 1587 160 s \$0-macro4-value-gui-r;
#X obj 1105 71 r \$0-macro1-value-r;
#X obj 1256 71 r \$0-macro2-value-r;
#X obj 1402 68 r \$0-macro3-value-r;
#X obj 1537 66 r \$0-macro4-value-r;
#X obj 1150 233 s \$0-macro1-value-s;
#X obj 1301 233 s \$0-macro2-value-s;
#X obj 1447 230 s \$0-macro3-value-s;
#X obj 1618 228 s \$0-macro4-value-s;
#X obj 1150 210 r \$0-macro1-value-gui-s;
#X obj 1301 210 r \$0-macro2-value-gui-s;
#X obj 1447 207 r \$0-macro3-value-gui-s;
#X obj 1618 205 r \$0-macro4-value-gui-s;
#X connect 1 0 2 0;
#X connect 2 0 0 0;
#X connect 3 0 1 0;
#X connect 4 0 5 0;
#X connect 5 0 4 0;
#X connect 5 1 4 1;
#X connect 6 0 89 0;
#X connect 7 0 90 0;
#X connect 8 0 91 0;
#X connect 9 0 92 0;
#X connect 10 0 30 0;
#X connect 11 0 30 0;
#X connect 12 0 30 0;
#X connect 13 0 30 0;
#X connect 14 0 18 0;
#X connect 15 0 19 0;
#X connect 16 0 20 0;
#X connect 17 0 21 0;
#X connect 18 0 22 0;
#X connect 19 0 23 0;
#X connect 20 0 24 0;
#X connect 21 0 25 0;
#X connect 22 0 81 0;
#X connect 23 0 82 0;
#X connect 24 0 83 0;
#X connect 25 0 84 0;
#X connect 65 0 66 0;
#X connect 65 0 70 0;
#X connect 65 1 67 0;
#X connect 65 1 71 0;
#X connect 66 0 68 0;
#X connect 67 0 68 0;
#X connect 72 0 65 0;
#X connect 73 0 74 0;
#X connect 74 0 75 0;
#X connect 75 0 76 0;
#X connect 76 0 77 0;
#X connect 76 0 95 0;
#X connect 81 0 26 0;
#X connect 82 0 27 0;
#X connect 83 0 28 0;
#X connect 84 0 29 0;
#X connect 85 0 81 0;
#X connect 86 0 82 0;
#X connect 87 0 83 0;
#X connect 88 0 84 0;
#X connect 89 0 14 0;
#X connect 89 1 11 0;
#X connect 90 0 15 0;
#X connect 90 1 10 0;
#X connect 91 0 16 0;
#X connect 91 1 13 0;
#X connect 92 0 17 0;
#X connect 92 1 12 0;
#X connect 93 0 75 0;
#X connect 95 0 94 0;
#X connect 96 0 100 0;
#X connect 97 0 101 0;
#X connect 98 0 102 0;
#X connect 99 0 103 0;
#X connect 100 0 104 0;
#X connect 101 0 105 0;
#X connect 102 0 106 0;
#X connect 103 0 107 0;
#X connect 108 0 104 0;
#X connect 109 0 105 0;
#X connect 110 0 106 0;
#X connect 111 0 107 0;
#X connect 116 0 112 0;
#X connect 117 0 113 0;
#X connect 118 0 114 0;
#X connect 119 0 115 0;
#X coords 0 0 -1 1 170 214 1 100 100;
