#N canvas 0 57 1920 1023 10;
#X obj 103 125 cnv 5 5 5 empty empty MACRO-CONTROL 0 0 0 12 -262144
-66577 0;
#X obj 301 102 s \$0-instance-num;
#X obj 301 54 makefilename %d;
#X msg 301 79 label \$1;
#X obj 203 125 cnv 5 5 5 empty \$0-instance-num 1 0 0 0 12 -262144
-66577 0;
#N canvas 21 22 593 735 instance-number 0;
#X obj 215 28 loadbang;
#X obj 281 216 outlet;
#X text 277 236 INSTANCE NUMBER;
#X obj 242 92 f \$1;
#X connect 0 0 3 0;
#X connect 3 0 1 0;
#X restore 301 20 pd instance-number;
#X obj 105 153 hsl 128 15 0 127 0 0 \$0-macro1-value-s \$0-macro1-value-r
macro:\$1:1 1 8 0 10 -262130 -1 -1 0 1;
#X symbolatom 102 136 19 0 0 0 - #0-macro1-name-r #0-macro1-name-s
;
#X obj 104 287 cnv 5 5 5 empty empty V1 0 0 0 8 -262144 -66577 0;
#X obj 104 107 cnv 5 5 5 empty empty VC1 0 0 0 8 -262144 -66577 0;
#X obj 105 190 hsl 128 15 0 127 0 0 \$0-macro2-value-s \$0-macro2-value-r
macro:\$1:2 1 8 0 10 -262130 -1 -1 0 1;
#X obj 105 227 hsl 128 15 0 127 0 0 \$0-macro3-value-s \$0-macro3-value-r
macro:\$1:3 1 8 0 10 -262130 -1 -1 0 1;
#X obj 105 264 hsl 128 15 0 127 0 0 \$0-macro4-value-s \$0-macro4-value-r
macro:\$1:4 1 8 0 10 -262130 -1 -1 0 1;
#X obj 480 81 state_saving_module macro-control \$0 \$1;
#X obj 520 41 savestate;
#X obj 144 107 cnv 5 5 5 empty empty VC2 0 0 0 8 -262144 -66577 0;
#X obj 184 107 cnv 5 5 5 empty empty VC3 0 0 0 8 -262144 -66577 0;
#X obj 224 107 cnv 5 5 5 empty empty VC4 0 0 0 8 -262144 -66577 0;
#X obj 144 287 cnv 5 5 5 empty empty V2 0 0 0 8 -262144 -66577 0;
#X obj 184 287 cnv 5 5 5 empty empty V3 0 0 0 8 -262144 -66577 0;
#X obj 224 287 cnv 5 5 5 empty empty V4 0 0 0 8 -262144 -66577 0;
#X obj 219 137 tgl 16 0 \$0-midi_map1-s \$0-midi_map1-r lnk 1 6 0 8
-261234 -1 -1 0 1;
#X obj 1166 236 r \$0-macro1-value-s;
#X obj 1332 239 r \$0-macro2-value-s;
#X obj 1509 240 r \$0-macro3-value-s;
#X obj 1661 244 r \$0-macro4-value-s;
#X msg 1339 332 2 \$1;
#X msg 1199 334 1 \$1;
#X msg 1632 336 4 \$1;
#X msg 1494 334 3 \$1;
#X symbolatom 102 173 19 0 0 0 - #0-macro2-name-r #0-macro2-name-s
;
#X obj 219 174 tgl 16 0 \$0-midi_map2-s \$0-midi_map2-r lnk 1 6 0 8
-261234 -1 -1 0 1;
#X symbolatom 102 210 19 0 0 0 - #0-macro3-name-r #0-macro3-name-s
;
#X obj 219 211 tgl 16 0 \$0-midi_map3-s \$0-midi_map3-r lnk 1 6 0 8
-261234 -1 -1 0 1;
#X symbolatom 102 247 19 0 0 0 - #0-macro4-name-r #0-macro4-name-s
;
#X obj 219 248 tgl 16 0 \$0-midi_map4-s \$0-midi_map4-r lnk 1 6 0 8
-261234 -1 -1 0 1;
#X obj 1215 369 / 127;
#X obj 1338 370 / 127;
#X obj 1463 371 / 127;
#X obj 1588 371 / 127;
#X msg 1215 461 \$1 20;
#X msg 1338 462 \$1 20;
#X msg 1463 463 \$1 20;
#X msg 1588 463 \$1 20;
#X obj 1215 483 line~;
#X obj 1338 484 line~;
#X obj 1463 485 line~;
#X obj 1588 485 line~;
#X obj 1215 505 outlet~;
#X obj 1338 506 outlet~;
#X obj 1463 507 outlet~;
#X obj 1588 507 outlet~;
#X obj 1206 164 snapshot~;
#X obj 1264 83 loadbang;
#X obj 1264 123 metro 20;
#X obj 1267 108 tgl 15 0 empty empty empty 17 7 0 10 -262144 -1 -1
1 1;
#X obj 1203 73 inlet~;
#X obj 1206 187 change;
#X obj 1396 164 snapshot~;
#X obj 1393 73 inlet~;
#X obj 1396 187 change;
#X obj 1556 164 snapshot~;
#X obj 1553 73 inlet~;
#X obj 1556 187 change;
#X obj 1726 164 snapshot~;
#X obj 1723 73 inlet~;
#X obj 1726 187 change;
#X obj 1206 209 * 127;
#X obj 1397 218 * 127;
#X obj 1557 218 * 127;
#X obj 1727 218 * 127;
#X obj 1199 311 clip 0 127;
#X obj 1201 284 +;
#X obj 1203 262 t b f;
#X obj 1379 311 clip 0 127;
#X obj 1381 284 +;
#X obj 1383 262 t b f;
#X obj 1549 321 clip 0 127;
#X obj 1551 294 +;
#X obj 1553 272 t b f;
#X obj 1717 318 clip 0 127;
#X obj 1719 291 +;
#X obj 1721 269 t b f;
#X obj 1382 430 s MACRO-\$1;
#X obj 236 153 cnv 13 1 1 empty \$0-slotA-rcv 1' 1 8 0 14 -262144 -66577
0;
#X obj 236 189 cnv 13 1 1 empty \$0-slotB-rcv 2' 1 8 0 14 -262144 -66577
0;
#X obj 236 227 cnv 13 1 1 empty \$0-slotC-rcv 3' 1 8 0 14 -262144 -66577
0;
#X obj 236 263 cnv 13 1 1 empty \$0-slotD-rcv 4' 1 8 0 14 -262144 -66577
0;
#N canvas 0 50 1211 1026 savestate(labels) 0;
#X obj 158 13 savestate;
#X obj 110 232 list;
#X obj 72 335 list trim;
#X obj 336 86 symbol;
#X msg 336 109 -macro4-name \$1;
#X obj 372 60 r \$0-macro4-name-s;
#X obj 336 162 symbol;
#X obj 336 236 symbol;
#X obj 336 312 symbol;
#X obj 372 136 r \$0-macro3-name-s;
#X msg 336 185 -macro3-name \$1;
#X obj 372 210 r \$0-macro2-name-s;
#X msg 336 259 -macro2-name \$1;
#X obj 372 286 r \$0-macro1-name-s;
#X msg 336 335 -macro1-name \$1;
#X obj 70 373 route -macro1-name -macro2-name -macro3-name -macro4-name
;
#X obj 67 405 symbol;
#X obj 67 427 t s s;
#X msg 96 452 set \$1;
#X obj 95 475 s \$0-macro1-name-r;
#X obj 65 495 s \$0-macro1-name-s;
#X obj 237 405 symbol;
#X obj 237 427 t s s;
#X msg 266 452 set \$1;
#X obj 407 405 symbol;
#X obj 407 427 t s s;
#X msg 436 452 set \$1;
#X obj 577 405 symbol;
#X obj 577 427 t s s;
#X msg 606 452 set \$1;
#X obj 265 475 s \$0-macro2-name-r;
#X obj 235 495 s \$0-macro2-name-s;
#X obj 435 475 s \$0-macro3-name-r;
#X obj 405 495 s \$0-macro3-name-s;
#X obj 605 475 s \$0-macro4-name-r;
#X obj 575 495 s \$0-macro4-name-s;
#X obj 276 37 t b b b b;
#X connect 0 0 2 0;
#X connect 0 1 36 0;
#X connect 1 0 0 0;
#X connect 2 0 15 0;
#X connect 3 0 4 0;
#X connect 4 0 1 0;
#X connect 5 0 3 1;
#X connect 6 0 10 0;
#X connect 7 0 12 0;
#X connect 8 0 14 0;
#X connect 9 0 6 1;
#X connect 10 0 1 0;
#X connect 11 0 7 1;
#X connect 12 0 1 0;
#X connect 13 0 8 1;
#X connect 14 0 1 0;
#X connect 15 0 16 0;
#X connect 15 1 21 0;
#X connect 15 2 24 0;
#X connect 15 3 27 0;
#X connect 16 0 17 0;
#X connect 17 0 20 0;
#X connect 17 1 18 0;
#X connect 18 0 19 0;
#X connect 21 0 22 0;
#X connect 22 0 31 0;
#X connect 22 1 23 0;
#X connect 23 0 30 0;
#X connect 24 0 25 0;
#X connect 25 0 33 0;
#X connect 25 1 26 0;
#X connect 26 0 32 0;
#X connect 27 0 28 0;
#X connect 28 0 35 0;
#X connect 28 1 29 0;
#X connect 29 0 34 0;
#X connect 36 0 8 0;
#X connect 36 1 7 0;
#X connect 36 2 6 0;
#X connect 36 3 3 0;
#X restore 756 65 pd savestate(labels);
#X text 1190 34 inlets / outlets;
#N canvas 0 50 450 300 macro-mapping 0;
#X obj 216 246 delay 10;
#X obj 225 327 s MIDI_LEARN;
#X msg 217 275 1;
#X obj 233 169 select 1 0;
#X msg 768 108 1;
#X msg 821 131 2;
#X msg 867 156 3;
#X msg 925 178 4;
#X obj 335 125 r MIDI_LEARN_OK;
#X msg 399 175 set 0;
#X obj 324 176 spigot;
#X obj 304 223 t b b;
#X msg 289 276 0;
#X obj 780 58 r \$0-midi_map1-s;
#X obj 830 81 r \$0-midi_map2-s;
#X obj 880 105 r \$0-midi_map3-s;
#X obj 933 126 r \$0-midi_map4-s;
#X obj 534 242 s \$0-midi_map1-r;
#X obj 535 262 s \$0-midi_map2-r;
#X obj 535 281 s \$0-midi_map3-r;
#X obj 535 300 s \$0-midi_map4-r;
#X msg 627 161 set 0;
#X msg 644 189 set 0;
#X msg 663 217 set 0;
#X msg 680 245 set 0;
#X obj 98 54 r \$0-midi_map1-s;
#X obj 101 76 r \$0-midi_map2-s;
#X obj 102 98 r \$0-midi_map3-s;
#X obj 103 120 r \$0-midi_map4-s;
#X obj 372 411 r MIDI_LEARN;
#X obj 372 434 select 0;
#X obj 367 485 s \$0-midi_learn-s;
#X msg 372 457 0;
#X obj 770 81 select 1;
#X obj 820 104 select 1;
#X obj 870 128 select 1;
#X obj 923 149 select 1;
#X obj 222 77 t f f;
#X obj 237 419 s \$0-midi_learn-s;
#X msg 207 381 1;
#X obj 928 281 pipe f 20;
#X obj 942 411 s MACRO_MAP;
#X obj 943 370 pack f f;
#X obj 963 336 f \$1;
#X obj 928 304 t f b;
#X connect 0 0 2 0;
#X connect 2 0 1 0;
#X connect 3 0 0 0;
#X connect 3 0 39 0;
#X connect 3 1 12 0;
#X connect 4 0 40 0;
#X connect 5 0 40 0;
#X connect 6 0 40 0;
#X connect 7 0 40 0;
#X connect 8 0 10 0;
#X connect 9 0 17 0;
#X connect 9 0 20 0;
#X connect 9 0 19 0;
#X connect 9 0 18 0;
#X connect 10 0 11 0;
#X connect 11 0 12 0;
#X connect 11 1 9 0;
#X connect 12 0 1 0;
#X connect 13 0 33 0;
#X connect 14 0 34 0;
#X connect 15 0 35 0;
#X connect 16 0 36 0;
#X connect 21 0 18 0;
#X connect 21 0 20 0;
#X connect 21 0 19 0;
#X connect 22 0 17 0;
#X connect 22 0 20 0;
#X connect 22 0 19 0;
#X connect 23 0 17 0;
#X connect 23 0 18 0;
#X connect 23 0 20 0;
#X connect 24 0 17 0;
#X connect 24 0 19 0;
#X connect 24 0 18 0;
#X connect 25 0 37 0;
#X connect 26 0 37 0;
#X connect 27 0 37 0;
#X connect 28 0 37 0;
#X connect 29 0 30 0;
#X connect 30 0 9 0;
#X connect 30 0 32 0;
#X connect 32 0 31 0;
#X connect 33 0 21 0;
#X connect 33 0 4 0;
#X connect 34 0 22 0;
#X connect 34 0 5 0;
#X connect 35 0 23 0;
#X connect 35 0 6 0;
#X connect 36 0 24 0;
#X connect 36 0 7 0;
#X connect 37 0 3 0;
#X connect 37 1 10 1;
#X connect 39 0 38 0;
#X connect 40 0 44 0;
#X connect 42 0 41 0;
#X connect 43 0 42 1;
#X connect 44 0 42 0;
#X connect 44 1 43 0;
#X restore 481 143 pd macro-mapping;
#N canvas 0 50 450 300 labels(numbers) 0;
#X obj 152 63 f \$1;
#X obj 150 111 * 4;
#X obj 151 87 - 1;
#X obj 152 39 loadbang;
#X obj 150 133 t f f f f;
#X obj 203 157 + 1;
#X obj 193 187 + 2;
#X obj 163 217 + 3;
#X obj 153 247 + 4;
#X obj 155 339 s \$0-slotD-rcv;
#X obj 175 299 s \$0-slotC-rcv;
#X obj 205 259 s \$0-slotB-rcv;
#X obj 225 219 s \$0-slotA-rcv;
#X msg 226 198 label \$1';
#X msg 206 238 label \$1';
#X msg 176 278 label \$1';
#X msg 156 318 label \$1';
#X obj 117 73 bng 15 250 50 0 empty empty empty 17 7 0 10 -262144 -1
-1;
#X connect 0 0 2 0;
#X connect 1 0 4 0;
#X connect 2 0 1 0;
#X connect 3 0 0 0;
#X connect 4 0 8 0;
#X connect 4 1 7 0;
#X connect 4 2 6 0;
#X connect 4 3 5 0;
#X connect 5 0 13 0;
#X connect 6 0 14 0;
#X connect 7 0 15 0;
#X connect 8 0 16 0;
#X connect 13 0 12 0;
#X connect 14 0 11 0;
#X connect 15 0 10 0;
#X connect 16 0 9 0;
#X connect 17 0 0 0;
#X restore 757 41 pd labels(numbers);
#N canvas 0 50 450 300 \$0-gui_listeners 0;
#X obj 38 47 state_saving_module/macro_dispatch macro-control \$0 \$1
0 127 macro4-value-s macro4-value-r macro:\\\$1:4 #FFFFC6 #000000 #000000
;
#X obj 38 102 state_saving_module/macro_dispatch macro-control \$0
\$1 0 127 macro3-value-s macro3-value-r macro:\\\$1:3 #FFFFC6 #000000
#000000;
#X obj 43 159 state_saving_module/macro_dispatch macro-control \$0
\$1 0 127 macro2-value-s macro2-value-r macro:\\\$1:2 #FFFFC6 #000000
#000000;
#X obj 38 214 state_saving_module/macro_dispatch macro-control \$0
\$1 0 127 macro1-value-s macro1-value-r macro:\\\$1:1 #FFFFC6 #000000
#000000;
#X restore 480 111 pd \$0-gui_listeners;
#N canvas 0 50 729 544 camomille_support 0;
#N canvas 238 299 450 300 param.set 0;
#X obj 26 288 s camomile;
#X obj 23 89 t f b;
#X obj 120 229 s camo.param.change;
#X msg 26 264 param set \$2 \$1;
#X obj 25 43 receive \$0-macro1-value-s;
#X obj 53 192 + 1;
#X obj 51 114 f \$1;
#X obj 51 130 - 1;
#X obj 52 162 * 4;
#X obj 26 240 pack f f;
#X connect 1 0 9 0;
#X connect 1 1 6 0;
#X connect 3 0 0 0;
#X connect 4 0 1 0;
#X connect 5 0 2 0;
#X connect 5 0 9 1;
#X connect 6 0 7 0;
#X connect 7 0 8 0;
#X connect 8 0 5 0;
#X connect 9 0 3 0;
#X restore 164 39 pd param.set \$0-macro1-value-s;
#N canvas 0 50 450 300 param.get 0;
#X obj 6 85 t f f;
#X obj 6 19 receive param;
#X obj 6 63 change -1e+37;
#X obj 6 41 route 1;
#X obj 11 185 send \$0-macro1-value-s;
#X msg 37 115 set \$1;
#X obj 38 146 s \$0-macro1-value-r;
#X obj 252 69 - 1;
#X obj 252 92 * 4;
#X obj 252 115 + 1;
#X obj 248 21 loadbang;
#X obj 250 46 f \$1;
#X connect 0 0 4 0;
#X connect 0 1 5 0;
#X connect 1 0 3 0;
#X connect 2 0 0 0;
#X connect 3 0 2 0;
#X connect 5 0 6 0;
#X connect 7 0 8 0;
#X connect 8 0 9 0;
#X connect 9 0 3 1;
#X connect 10 0 11 0;
#X connect 11 0 7 0;
#X restore 365 39 pd param.get \$0-macro1-value-s;
#N canvas 238 299 450 300 param.set 0;
#X obj 26 288 s camomile;
#X obj 23 89 t f b;
#X obj 120 229 s camo.param.change;
#X msg 26 264 param set \$2 \$1;
#X obj 51 114 f \$1;
#X obj 51 132 - 1;
#X obj 52 162 * 4;
#X obj 26 240 pack f f;
#X obj 25 43 receive \$0-macro2-value-s;
#X obj 53 192 + 2;
#X connect 1 0 7 0;
#X connect 1 1 4 0;
#X connect 3 0 0 0;
#X connect 4 0 5 0;
#X connect 5 0 6 0;
#X connect 6 0 9 0;
#X connect 7 0 3 0;
#X connect 8 0 1 0;
#X connect 9 0 2 0;
#X connect 9 0 7 1;
#X restore 164 99 pd param.set \$0-macro2-value-s;
#N canvas 0 50 450 300 param.get 0;
#X obj 6 85 t f f;
#X obj 6 19 receive param;
#X obj 6 63 change -1e+37;
#X msg 37 115 set \$1;
#X obj 252 69 - 1;
#X obj 252 92 * 4;
#X obj 248 21 loadbang;
#X obj 250 46 f \$1;
#X obj 252 115 + 2;
#X obj 6 41 route 2;
#X obj 38 146 s \$0-macro2-value-r;
#X obj 11 185 send \$0-macro2-value-s;
#X connect 0 0 11 0;
#X connect 0 1 3 0;
#X connect 1 0 9 0;
#X connect 2 0 0 0;
#X connect 3 0 10 0;
#X connect 4 0 5 0;
#X connect 5 0 8 0;
#X connect 6 0 7 0;
#X connect 7 0 4 0;
#X connect 8 0 9 1;
#X connect 9 0 2 0;
#X restore 365 99 pd param.get \$0-macro2-value-s;
#N canvas 238 299 450 300 param.set 0;
#X obj 26 288 s camomile;
#X obj 23 89 t f b;
#X obj 120 229 s camo.param.change;
#X msg 26 264 param set \$2 \$1;
#X obj 51 114 f \$1;
#X obj 51 130 - 1;
#X obj 52 162 * 4;
#X obj 26 240 pack f f;
#X obj 25 43 receive \$0-macro3-value-s;
#X obj 53 192 + 3;
#X connect 1 0 7 0;
#X connect 1 1 4 0;
#X connect 3 0 0 0;
#X connect 4 0 5 0;
#X connect 5 0 6 0;
#X connect 6 0 9 0;
#X connect 7 0 3 0;
#X connect 8 0 1 0;
#X connect 9 0 2 0;
#X connect 9 0 7 1;
#X restore 164 159 pd param.set \$0-macro3-value-s;
#N canvas 0 50 450 300 param.get 0;
#X obj 6 85 t f f;
#X obj 6 19 receive param;
#X obj 6 63 change -1e+37;
#X msg 37 115 set \$1;
#X obj 252 69 - 1;
#X obj 252 92 * 4;
#X obj 248 21 loadbang;
#X obj 250 46 f \$1;
#X obj 6 41 route 3;
#X obj 252 115 + 3;
#X obj 38 146 s \$0-macro3-value-r;
#X obj 11 185 send \$0-macro3-value-s;
#X connect 0 0 11 0;
#X connect 0 1 3 0;
#X connect 1 0 8 0;
#X connect 2 0 0 0;
#X connect 3 0 10 0;
#X connect 4 0 5 0;
#X connect 5 0 9 0;
#X connect 6 0 7 0;
#X connect 7 0 4 0;
#X connect 8 0 2 0;
#X connect 9 0 8 1;
#X restore 365 159 pd param.get \$0-macro3-value-s;
#N canvas 238 299 450 300 param.set 0;
#X obj 26 288 s camomile;
#X obj 23 89 t f b;
#X obj 120 229 s camo.param.change;
#X msg 26 264 param set \$2 \$1;
#X obj 51 114 f \$1;
#X obj 51 130 - 1;
#X obj 52 162 * 4;
#X obj 26 240 pack f f;
#X obj 25 43 receive \$0-macro4-value-s;
#X obj 53 192 + 4;
#X connect 1 0 7 0;
#X connect 1 1 4 0;
#X connect 3 0 0 0;
#X connect 4 0 5 0;
#X connect 5 0 6 0;
#X connect 6 0 9 0;
#X connect 7 0 3 0;
#X connect 8 0 1 0;
#X connect 9 0 2 0;
#X connect 9 0 7 1;
#X restore 164 219 pd param.set \$0-macro4-value-s;
#N canvas 0 50 450 300 param.get 0;
#X obj 6 85 t f f;
#X obj 6 19 receive param;
#X obj 6 63 change -1e+37;
#X msg 37 115 set \$1;
#X obj 252 69 - 1;
#X obj 252 92 * 4;
#X obj 248 21 loadbang;
#X obj 250 46 f \$1;
#X obj 252 115 + 4;
#X obj 6 41 route 4;
#X obj 38 146 s \$0-macro4-value-r;
#X obj 11 185 send \$0-macro4-value-s;
#X connect 0 0 11 0;
#X connect 0 1 3 0;
#X connect 1 0 9 0;
#X connect 2 0 0 0;
#X connect 3 0 10 0;
#X connect 4 0 5 0;
#X connect 5 0 8 0;
#X connect 6 0 7 0;
#X connect 7 0 4 0;
#X connect 8 0 9 1;
#X connect 9 0 2 0;
#X restore 365 219 pd param.get \$0-macro4-value-s;
#X restore 482 217 pd camomille_support;
#X connect 2 0 3 0;
#X connect 3 0 1 0;
#X connect 5 0 2 0;
#X connect 13 0 14 0;
#X connect 14 0 13 0;
#X connect 14 1 13 1;
#X connect 22 0 72 0;
#X connect 23 0 75 0;
#X connect 24 0 78 0;
#X connect 26 0 83 0;
#X connect 27 0 83 0;
#X connect 28 0 83 0;
#X connect 29 0 83 0;
#X connect 36 0 40 0;
#X connect 37 0 41 0;
#X connect 38 0 42 0;
#X connect 39 0 43 0;
#X connect 40 0 44 0;
#X connect 41 0 45 0;
#X connect 42 0 46 0;
#X connect 43 0 47 0;
#X connect 44 0 48 0;
#X connect 45 0 49 0;
#X connect 46 0 50 0;
#X connect 47 0 51 0;
#X connect 52 0 57 0;
#X connect 53 0 55 0;
#X connect 54 0 52 0;
#X connect 54 0 58 0;
#X connect 54 0 64 0;
#X connect 54 0 61 0;
#X connect 55 0 54 0;
#X connect 56 0 52 0;
#X connect 57 0 67 0;
#X connect 58 0 60 0;
#X connect 59 0 58 0;
#X connect 60 0 68 0;
#X connect 61 0 63 0;
#X connect 62 0 61 0;
#X connect 63 0 69 0;
#X connect 64 0 66 0;
#X connect 65 0 64 0;
#X connect 66 0 70 0;
#X connect 67 0 73 0;
#X connect 68 0 76 0;
#X connect 69 0 79 0;
#X connect 70 0 82 0;
#X connect 71 0 27 0;
#X connect 71 0 36 0;
#X connect 72 0 71 0;
#X connect 73 0 72 0;
#X connect 73 1 72 1;
#X connect 74 0 26 0;
#X connect 74 0 37 0;
#X connect 75 0 74 0;
#X connect 76 0 75 0;
#X connect 76 1 75 1;
#X connect 77 0 29 0;
#X connect 77 0 38 0;
#X connect 78 0 77 0;
#X connect 79 0 78 0;
#X connect 79 1 78 1;
#X connect 80 0 28 0;
#X connect 80 0 39 0;
#X connect 81 0 80 0;
#X connect 82 0 81 0;
#X connect 82 1 81 1;
#X coords 0 -1 1 1 150 200 2 100 100;
