#N canvas 0 57 1920 1023 10;
#X obj 301 102 s \$0-instance-num;
#X obj 301 54 makefilename %d;
#X msg 301 79 label \$1;
#N canvas 21 22 593 735 instance-number 0;
#X obj 215 28 loadbang;
#X obj 281 216 outlet;
#X text 277 236 INSTANCE NUMBER;
#X obj 242 92 f \$1;
#X connect 0 0 3 0;
#X connect 3 0 1 0;
#X restore 301 20 pd instance-number;
#X obj 480 81 state_saving_module macro-control \$0 \$1;
#X obj 520 41 savestate;
#X obj 1166 236 r \$0-macro1-value-s;
#X obj 1332 239 r \$0-macro2-value-s;
#X obj 1509 240 r \$0-macro3-value-s;
#X obj 1661 244 r \$0-macro4-value-s;
#X msg 1339 332 2 \$1;
#X msg 1199 334 1 \$1;
#X msg 1632 336 4 \$1;
#X msg 1494 334 3 \$1;
#X obj 1215 369 / 127;
#X obj 1338 370 / 127;
#X obj 1463 371 / 127;
#X obj 1588 371 / 127;
#X msg 1215 461 \$1 20;
#X msg 1338 462 \$1 20;
#X msg 1463 463 \$1 20;
#X msg 1588 463 \$1 20;
#X obj 1215 483 line~;
#X obj 1338 484 line~;
#X obj 1463 485 line~;
#X obj 1588 485 line~;
#X obj 1215 505 outlet~;
#X obj 1338 506 outlet~;
#X obj 1463 507 outlet~;
#X obj 1588 507 outlet~;
#X obj 1206 164 snapshot~;
#X obj 1264 83 loadbang;
#X obj 1264 123 metro 20;
#X obj 1267 108 tgl 15 0 empty empty empty 17 7 0 10 #fcfcfc #000000 #000000 0 1;
#X obj 1203 73 inlet~;
#X obj 1206 187 change;
#X obj 1396 164 snapshot~;
#X obj 1393 73 inlet~;
#X obj 1396 187 change;
#X obj 1556 164 snapshot~;
#X obj 1553 73 inlet~;
#X obj 1556 187 change;
#X obj 1726 164 snapshot~;
#X obj 1723 73 inlet~;
#X obj 1726 187 change;
#X obj 1206 209 * 127;
#X obj 1397 218 * 127;
#X obj 1557 218 * 127;
#X obj 1727 218 * 127;
#X obj 1199 311 clip 0 127;
#X obj 1201 284 +;
#X obj 1203 262 t b f;
#X obj 1379 311 clip 0 127;
#X obj 1381 284 +;
#X obj 1383 262 t b f;
#X obj 1549 321 clip 0 127;
#X obj 1551 294 +;
#X obj 1553 272 t b f;
#X obj 1717 318 clip 0 127;
#X obj 1719 291 +;
#X obj 1721 269 t b f;
#X obj 1382 430 s MACRO-\$1;
#N canvas 2 87 1211 991 savestate(labels) 0;
#X obj 158 13 savestate;
#X obj 110 232 list;
#X obj 72 335 list trim;
#X obj 336 86 symbol;
#X msg 336 109 -macro4-name \$1;
#X obj 372 60 r \$0-macro4-name-s;
#X obj 336 162 symbol;
#X obj 336 236 symbol;
#X obj 336 312 symbol;
#X obj 372 136 r \$0-macro3-name-s;
#X msg 336 185 -macro3-name \$1;
#X obj 372 210 r \$0-macro2-name-s;
#X msg 336 259 -macro2-name \$1;
#X obj 372 286 r \$0-macro1-name-s;
#X msg 336 335 -macro1-name \$1;
#X obj 70 373 route -macro1-name -macro2-name -macro3-name -macro4-name;
#X obj 67 405 symbol;
#X obj 67 427 t s s;
#X msg 96 452 set \$1;
#X obj 95 475 s \$0-macro1-name-r;
#X obj 65 495 s \$0-macro1-name-s;
#X obj 237 405 symbol;
#X obj 237 427 t s s;
#X msg 266 452 set \$1;
#X obj 407 405 symbol;
#X obj 407 427 t s s;
#X msg 436 452 set \$1;
#X obj 577 405 symbol;
#X obj 577 427 t s s;
#X msg 606 452 set \$1;
#X obj 265 475 s \$0-macro2-name-r;
#X obj 235 495 s \$0-macro2-name-s;
#X obj 435 475 s \$0-macro3-name-r;
#X obj 405 495 s \$0-macro3-name-s;
#X obj 605 475 s \$0-macro4-name-r;
#X obj 575 495 s \$0-macro4-name-s;
#X obj 276 37 t b b b b;
#X connect 0 0 2 0;
#X connect 0 1 36 0;
#X connect 1 0 0 0;
#X connect 2 0 15 0;
#X connect 3 0 4 0;
#X connect 4 0 1 0;
#X connect 5 0 3 1;
#X connect 6 0 10 0;
#X connect 7 0 12 0;
#X connect 8 0 14 0;
#X connect 9 0 6 1;
#X connect 10 0 1 0;
#X connect 11 0 7 1;
#X connect 12 0 1 0;
#X connect 13 0 8 1;
#X connect 14 0 1 0;
#X connect 15 0 16 0;
#X connect 15 1 21 0;
#X connect 15 2 24 0;
#X connect 15 3 27 0;
#X connect 16 0 17 0;
#X connect 17 0 20 0;
#X connect 17 1 18 0;
#X connect 18 0 19 0;
#X connect 21 0 22 0;
#X connect 22 0 31 0;
#X connect 22 1 23 0;
#X connect 23 0 30 0;
#X connect 24 0 25 0;
#X connect 25 0 33 0;
#X connect 25 1 26 0;
#X connect 26 0 32 0;
#X connect 27 0 28 0;
#X connect 28 0 35 0;
#X connect 28 1 29 0;
#X connect 29 0 34 0;
#X connect 36 0 8 0;
#X connect 36 1 7 0;
#X connect 36 2 6 0;
#X connect 36 3 3 0;
#X restore 756 65 pd savestate(labels);
#X text 1190 34 inlets / outlets;
#N canvas 1468 87 450 300 macro-mapping 0;
#X obj 216 246 delay 10;
#X obj 225 327 s MIDI_LEARN;
#X msg 217 275 1;
#X obj 233 169 select 1 0;
#X msg 768 108 1;
#X msg 821 131 2;
#X msg 867 156 3;
#X msg 925 178 4;
#X obj 335 125 r MIDI_LEARN_OK;
#X msg 399 175 set 0;
#X obj 324 176 spigot;
#X obj 304 223 t b b;
#X msg 289 276 0;
#X obj 780 58 r \$0-midi_map1-s;
#X obj 830 81 r \$0-midi_map2-s;
#X obj 880 105 r \$0-midi_map3-s;
#X obj 933 126 r \$0-midi_map4-s;
#X obj 534 242 s \$0-midi_map1-r;
#X obj 535 262 s \$0-midi_map2-r;
#X obj 535 281 s \$0-midi_map3-r;
#X obj 535 300 s \$0-midi_map4-r;
#X msg 627 161 set 0;
#X msg 644 189 set 0;
#X msg 663 217 set 0;
#X msg 680 245 set 0;
#X obj 98 54 r \$0-midi_map1-s;
#X obj 101 76 r \$0-midi_map2-s;
#X obj 102 98 r \$0-midi_map3-s;
#X obj 103 120 r \$0-midi_map4-s;
#X obj 372 411 r MIDI_LEARN;
#X obj 372 434 select 0;
#X obj 367 485 s \$0-midi_learn-s;
#X msg 372 457 0;
#X obj 770 81 select 1;
#X obj 820 104 select 1;
#X obj 870 128 select 1;
#X obj 923 149 select 1;
#X obj 222 77 t f f;
#X obj 237 419 s \$0-midi_learn-s;
#X msg 207 381 1;
#X obj 928 281 pipe f 20;
#X obj 942 411 s MACRO_MAP;
#X obj 943 370 pack f f;
#X obj 963 336 f \$1;
#X obj 928 304 t f b;
#X connect 0 0 2 0;
#X connect 2 0 1 0;
#X connect 3 0 0 0;
#X connect 3 0 39 0;
#X connect 3 1 12 0;
#X connect 4 0 40 0;
#X connect 5 0 40 0;
#X connect 6 0 40 0;
#X connect 7 0 40 0;
#X connect 8 0 10 0;
#X connect 9 0 17 0;
#X connect 9 0 20 0;
#X connect 9 0 19 0;
#X connect 9 0 18 0;
#X connect 10 0 11 0;
#X connect 11 0 12 0;
#X connect 11 1 9 0;
#X connect 12 0 1 0;
#X connect 13 0 33 0;
#X connect 14 0 34 0;
#X connect 15 0 35 0;
#X connect 16 0 36 0;
#X connect 21 0 18 0;
#X connect 21 0 20 0;
#X connect 21 0 19 0;
#X connect 22 0 17 0;
#X connect 22 0 20 0;
#X connect 22 0 19 0;
#X connect 23 0 17 0;
#X connect 23 0 18 0;
#X connect 23 0 20 0;
#X connect 24 0 17 0;
#X connect 24 0 19 0;
#X connect 24 0 18 0;
#X connect 25 0 37 0;
#X connect 26 0 37 0;
#X connect 27 0 37 0;
#X connect 28 0 37 0;
#X connect 29 0 30 0;
#X connect 30 0 9 0;
#X connect 30 0 32 0;
#X connect 32 0 31 0;
#X connect 33 0 21 0;
#X connect 33 0 4 0;
#X connect 34 0 22 0;
#X connect 34 0 5 0;
#X connect 35 0 23 0;
#X connect 35 0 6 0;
#X connect 36 0 24 0;
#X connect 36 0 7 0;
#X connect 37 0 3 0;
#X connect 37 1 10 1;
#X connect 39 0 38 0;
#X connect 40 0 44 0;
#X connect 42 0 41 0;
#X connect 43 0 42 1;
#X connect 44 0 42 0;
#X connect 44 1 43 0;
#X restore 481 143 pd macro-mapping;
#N canvas 1468 87 450 300 labels(numbers) 0;
#X obj 152 63 f \$1;
#X obj 150 111 * 4;
#X obj 151 87 - 1;
#X obj 152 39 loadbang;
#X obj 150 133 t f f f f;
#X obj 203 157 + 1;
#X obj 193 187 + 2;
#X obj 163 217 + 3;
#X obj 153 247 + 4;
#X obj 155 339 s \$0-slotD-rcv;
#X obj 175 299 s \$0-slotC-rcv;
#X obj 205 259 s \$0-slotB-rcv;
#X obj 225 219 s \$0-slotA-rcv;
#X msg 226 198 label \$1';
#X msg 206 238 label \$1';
#X msg 176 278 label \$1';
#X msg 156 318 label \$1';
#X obj 117 73 bng 15 250 50 0 empty empty empty 17 7 0 10 #fcfcfc #000000 #000000;
#X connect 0 0 2 0;
#X connect 1 0 4 0;
#X connect 2 0 1 0;
#X connect 3 0 0 0;
#X connect 4 0 8 0;
#X connect 4 1 7 0;
#X connect 4 2 6 0;
#X connect 4 3 5 0;
#X connect 5 0 13 0;
#X connect 6 0 14 0;
#X connect 7 0 15 0;
#X connect 8 0 16 0;
#X connect 13 0 12 0;
#X connect 14 0 11 0;
#X connect 15 0 10 0;
#X connect 16 0 9 0;
#X connect 17 0 0 0;
#X restore 757 41 pd labels(numbers);
#N canvas 0 57 1920 1023 \$0-gui_listeners 0;
#X obj 38 47 state_saving_module/macro_dispatch macro-control \$0 \$1 0 127 macro4-value-s macro4-value-r macro:\\\$1:4 #EEEECC #000000 #000000;
#X obj 38 102 state_saving_module/macro_dispatch macro-control \$0 \$1 0 127 macro3-value-s macro3-value-r macro:\\\$1:3 #EEEECC #000000 #000000;
#X obj 43 159 state_saving_module/macro_dispatch macro-control \$0 \$1 0 127 macro2-value-s macro2-value-r macro:\\\$1:2 #EEEECC #000000 #000000;
#X obj 38 214 state_saving_module/macro_dispatch macro-control \$0 \$1 0 127 macro1-value-s macro1-value-r macro:\\\$1:1 #EEEECC #000000 #000000;
#X restore 480 111 pd \$0-gui_listeners;
#X obj 101 118 cnv 15 168 170 empty \$0-plugin_name-r camomile 15 14 0 26 #fcfcc4 #e0c4fc 0;
#X obj 111 122 cnv 5 5 5 empty empty MACRO-CONTROL 0 0 0 12 #fcfcfc #404040 0;
#X obj 218 122 cnv 5 5 5 empty \$0-instance-num 1 0 0 0 12 #fcfcfc #404040 0;
#X obj 105 161 hsl 128 15 0 127 0 0 \$0-macro1-value-s \$0-macro1-value-r macro:1:1 1 8 0 10 #ececcc #000000 #000000 0 1;
#X symbolatom 102 144 19 0 0 0 - \$0-macro1-name-r \$0-macro1-name-s 0;
#X obj 104 295 cnv 5 5 5 empty empty V1 0 0 0 8 #fcfcfc #404040 0;
#X obj 104 107 cnv 5 5 5 empty empty VC1 0 0 0 8 #fcfcfc #404040 0;
#X obj 105 198 hsl 128 15 0 127 0 0 \$0-macro2-value-s \$0-macro2-value-r macro:1:2 1 8 0 10 #ececcc #000000 #000000 0 1;
#X obj 105 235 hsl 128 15 0 127 0 0 \$0-macro3-value-s \$0-macro3-value-r macro:1:3 1 8 0 10 #ececcc #000000 #000000 0 1;
#X obj 105 272 hsl 128 15 0 127 0 0 \$0-macro4-value-s \$0-macro4-value-r macro:1:4 1 8 0 10 #ececcc #000000 #000000 0 1;
#X obj 144 107 cnv 5 5 5 empty empty VC2 0 0 0 8 #fcfcfc #404040 0;
#X obj 184 107 cnv 5 5 5 empty empty VC3 0 0 0 8 #fcfcfc #404040 0;
#X obj 224 107 cnv 5 5 5 empty empty VC4 0 0 0 8 #fcfcfc #404040 0;
#X obj 144 295 cnv 5 5 5 empty empty V2 0 0 0 8 #fcfcfc #404040 0;
#X obj 184 295 cnv 5 5 5 empty empty V3 0 0 0 8 #fcfcfc #404040 0;
#X obj 224 295 cnv 5 5 5 empty empty V4 0 0 0 8 #fcfcfc #404040 0;
#X obj 219 145 tgl 16 0 \$0-midi_map1-s \$0-midi_map1-r lnk 1 6 0 8 #fcc4c4 #000000 #000000 0 1;
#X symbolatom 102 181 19 0 0 0 - \$0-macro2-name-r \$0-macro2-name-s 0;
#X obj 219 182 tgl 16 0 \$0-midi_map2-s \$0-midi_map2-r lnk 1 6 0 8 #fcc4c4 #000000 #000000 0 1;
#X symbolatom 102 218 19 0 0 0 - \$0-macro3-name-r \$0-macro3-name-s 0;
#X obj 219 219 tgl 16 0 \$0-midi_map3-s \$0-midi_map3-r lnk 1 6 0 8 #fcc4c4 #000000 #000000 0 1;
#X symbolatom 102 255 19 0 0 0 - \$0-macro4-name-r \$0-macro4-name-s 0;
#X obj 219 256 tgl 16 0 \$0-midi_map4-s \$0-midi_map4-r lnk 1 6 0 8 #fcc4c4 #000000 #000000 0 1;
#X obj 236 161 cnv 13 1 1 empty \$0-slotA-rcv 1' 1 8 0 14 #fcfcfc #404040 0;
#X obj 236 197 cnv 13 1 1 empty \$0-slotB-rcv 2' 1 8 0 14 #fcfcfc #404040 0;
#X obj 236 235 cnv 13 1 1 empty \$0-slotC-rcv 3' 1 8 0 14 #fcfcfc #404040 0;
#X obj 236 271 cnv 13 1 1 empty \$0-slotD-rcv 4' 1 8 0 14 #fcfcfc #404040 0;
#N canvas 1060 345 729 544 camomile_plugin_support 0;
#N canvas 254 299 434 300 param.set 0;
#X obj 26 288 s camomile;
#X obj 23 89 t f b;
#X obj 120 229 s camo.param.change;
#X msg 26 264 param set \$2 \$1;
#X obj 23 18 receive \$0-macro1-value-s;
#X obj 53 192 + 1;
#X obj 51 114 f \$1;
#X obj 51 130 - 1;
#X obj 52 162 * 4;
#X obj 26 240 pack f f;
#X obj 23 64 / 127;
#X obj 24 41 spigot 1;
#X obj 236 53 == 0;
#X obj 234 27 r \$0-plugin_type-s;
#X connect 1 0 9 0;
#X connect 1 1 6 0;
#X connect 3 0 0 0;
#X connect 4 0 11 0;
#X connect 5 0 2 0;
#X connect 5 0 9 1;
#X connect 6 0 7 0;
#X connect 7 0 8 0;
#X connect 8 0 5 0;
#X connect 9 0 3 0;
#X connect 10 0 1 0;
#X connect 11 0 10 0;
#X connect 12 0 11 1;
#X connect 13 0 12 0;
#X restore 164 39 pd param.set \$0-macro1-value-s;
#N canvas 1268 521 453 464 param.get 0;
#X obj 6 185 t f f;
#X obj 6 19 receive param;
#X obj 6 113 change -1e+37;
#X obj 6 91 route 1;
#X obj 11 285 send \$0-macro1-value-s;
#X msg 37 215 set \$1;
#X obj 38 246 s \$0-macro1-value-r;
#X obj 252 119 - 1;
#X obj 252 142 * 4;
#X obj 252 165 + 1;
#X obj 248 71 loadbang;
#X obj 250 96 f \$1;
#X obj 6 149 * 127;
#X obj 18 56 spigot 1;
#X obj 121 32 == 0;
#X obj 119 6 r \$0-plugin_type-s;
#X connect 0 0 4 0;
#X connect 0 1 5 0;
#X connect 1 0 13 0;
#X connect 2 0 12 0;
#X connect 3 0 2 0;
#X connect 5 0 6 0;
#X connect 7 0 8 0;
#X connect 8 0 9 0;
#X connect 9 0 3 1;
#X connect 10 0 11 0;
#X connect 11 0 7 0;
#X connect 12 0 0 0;
#X connect 13 0 3 0;
#X connect 14 0 13 1;
#X connect 15 0 14 0;
#X restore 365 39 pd param.get \$0-macro1-value-s;
#N canvas 238 299 450 300 param.set 0;
#X obj 26 288 s camomile;
#X obj 23 89 t f b;
#X obj 120 229 s camo.param.change;
#X msg 26 264 param set \$2 \$1;
#X obj 51 114 f \$1;
#X obj 51 132 - 1;
#X obj 52 162 * 4;
#X obj 26 240 pack f f;
#X obj 21 11 receive \$0-macro2-value-s;
#X obj 53 192 + 2;
#X obj 23 62 / 127;
#X obj 35 41 spigot 1;
#X obj 236 53 == 0;
#X obj 234 27 r \$0-plugin_type-s;
#X connect 1 0 7 0;
#X connect 1 1 4 0;
#X connect 3 0 0 0;
#X connect 4 0 5 0;
#X connect 5 0 6 0;
#X connect 6 0 9 0;
#X connect 7 0 3 0;
#X connect 8 0 11 0;
#X connect 9 0 2 0;
#X connect 9 0 7 1;
#X connect 10 0 1 0;
#X connect 11 0 10 0;
#X connect 12 0 11 1;
#X connect 13 0 12 0;
#X restore 164 99 pd param.set \$0-macro2-value-s;
#N canvas 649 352 450 300 param.get 0;
#X obj 6 165 t f f;
#X obj 6 19 receive param;
#X obj 6 113 change -1e+37;
#X msg 37 195 set \$1;
#X obj 252 119 - 1;
#X obj 252 142 * 4;
#X obj 248 71 loadbang;
#X obj 250 96 f \$1;
#X obj 252 165 + 2;
#X obj 6 91 route 2;
#X obj 38 226 s \$0-macro2-value-r;
#X obj 11 265 send \$0-macro2-value-s;
#X obj 6 140 * 127;
#X obj 6 53 spigot 1;
#X obj 113 39 == 0;
#X obj 111 13 r \$0-plugin_type-s;
#X connect 0 0 11 0;
#X connect 0 1 3 0;
#X connect 1 0 13 0;
#X connect 2 0 12 0;
#X connect 3 0 10 0;
#X connect 4 0 5 0;
#X connect 5 0 8 0;
#X connect 6 0 7 0;
#X connect 7 0 4 0;
#X connect 8 0 9 1;
#X connect 9 0 2 0;
#X connect 12 0 0 0;
#X connect 13 0 9 0;
#X connect 14 0 13 1;
#X connect 15 0 14 0;
#X restore 365 99 pd param.get \$0-macro2-value-s;
#N canvas 238 299 450 300 param.set 0;
#X obj 26 288 s camomile;
#X obj 23 89 t f b;
#X obj 120 229 s camo.param.change;
#X msg 26 264 param set \$2 \$1;
#X obj 51 114 f \$1;
#X obj 51 130 - 1;
#X obj 52 162 * 4;
#X obj 26 240 pack f f;
#X obj 23 4 receive \$0-macro3-value-s;
#X obj 53 192 + 3;
#X obj 23 64 / 127;
#X obj 24 41 spigot 1;
#X obj 236 53 == 0;
#X obj 234 27 r \$0-plugin_type-s;
#X connect 1 0 7 0;
#X connect 1 1 4 0;
#X connect 3 0 0 0;
#X connect 4 0 5 0;
#X connect 5 0 6 0;
#X connect 6 0 9 0;
#X connect 7 0 3 0;
#X connect 8 0 11 0;
#X connect 9 0 2 0;
#X connect 9 0 7 1;
#X connect 10 0 1 0;
#X connect 11 0 10 0;
#X connect 12 0 11 1;
#X connect 13 0 12 0;
#X restore 164 159 pd param.set \$0-macro3-value-s;
#N canvas 606 419 450 300 param.get 0;
#X obj 6 165 t f f;
#X obj 6 19 receive param;
#X obj 6 113 change -1e+37;
#X msg 37 195 set \$1;
#X obj 252 119 - 1;
#X obj 252 142 * 4;
#X obj 248 71 loadbang;
#X obj 250 96 f \$1;
#X obj 6 91 route 3;
#X obj 252 165 + 3;
#X obj 38 226 s \$0-macro3-value-r;
#X obj 11 265 send \$0-macro3-value-s;
#X obj 6 140 * 127;
#X obj 6 53 spigot 1;
#X obj 113 39 == 0;
#X obj 111 13 r \$0-plugin_type-s;
#X connect 0 0 11 0;
#X connect 0 1 3 0;
#X connect 1 0 13 0;
#X connect 2 0 12 0;
#X connect 3 0 10 0;
#X connect 4 0 5 0;
#X connect 5 0 9 0;
#X connect 6 0 7 0;
#X connect 7 0 4 0;
#X connect 8 0 2 0;
#X connect 9 0 8 1;
#X connect 12 0 0 0;
#X connect 13 0 8 0;
#X connect 14 0 13 1;
#X connect 15 0 14 0;
#X restore 365 159 pd param.get \$0-macro3-value-s;
#N canvas 238 299 450 300 param.set 0;
#X obj 26 288 s camomile;
#X obj 23 89 t f b;
#X obj 120 229 s camo.param.change;
#X msg 26 264 param set \$2 \$1;
#X obj 51 114 f \$1;
#X obj 51 130 - 1;
#X obj 52 162 * 4;
#X obj 26 240 pack f f;
#X obj 23 13 receive \$0-macro4-value-s;
#X obj 53 192 + 4;
#X obj 23 62 / 127;
#X obj 24 41 spigot 1;
#X obj 236 53 == 0;
#X obj 234 27 r \$0-plugin_type-s;
#X connect 1 0 7 0;
#X connect 1 1 4 0;
#X connect 3 0 0 0;
#X connect 4 0 5 0;
#X connect 5 0 6 0;
#X connect 6 0 9 0;
#X connect 7 0 3 0;
#X connect 8 0 11 0;
#X connect 9 0 2 0;
#X connect 9 0 7 1;
#X connect 10 0 1 0;
#X connect 11 0 10 0;
#X connect 12 0 11 1;
#X connect 13 0 12 0;
#X restore 164 219 pd param.set \$0-macro4-value-s;
#N canvas 602 409 450 300 param.get 0;
#X obj 6 165 t f f;
#X obj 6 19 receive param;
#X obj 6 113 change -1e+37;
#X msg 37 195 set \$1;
#X obj 252 69 - 1;
#X obj 252 92 * 4;
#X obj 248 21 loadbang;
#X obj 250 46 f \$1;
#X obj 252 115 + 4;
#X obj 6 91 route 4;
#X obj 38 226 s \$0-macro4-value-r;
#X obj 11 265 send \$0-macro4-value-s;
#X obj 6 140 * 127;
#X obj 6 53 spigot 1;
#X obj 113 39 == 0;
#X obj 111 13 r \$0-plugin_type-s;
#X connect 0 0 11 0;
#X connect 0 1 3 0;
#X connect 1 0 13 0;
#X connect 2 0 12 0;
#X connect 3 0 10 0;
#X connect 4 0 5 0;
#X connect 5 0 8 0;
#X connect 6 0 7 0;
#X connect 7 0 4 0;
#X connect 8 0 9 1;
#X connect 9 0 2 0;
#X connect 12 0 0 0;
#X connect 13 0 9 0;
#X connect 14 0 13 1;
#X connect 15 0 14 0;
#X restore 365 219 pd param.get \$0-macro4-value-s;
#X restore 568 238 pd camomile_plugin_support;
#X obj 605 107 namecanvas \$0-this;
#X obj 535 242 vradio 14 1 0 2 \$0-plugin_type-s \$0-plugin_type-r empty 0 -9 0 10 #feffc6 #000000 #000000 0;
#X obj 339 204 select 0 1;
#X msg 334 287 label camomile;
#X msg 344 317 label plugdata;
#X obj 334 347 s \$0-plugin_name-r;
#N canvas 672 381 748 368 plugdata_plugin_support 0;
#N canvas 254 299 682 427 param.set 0;
#X obj 23 89 t f b;
#X obj 23 18 receive \$0-macro1-value-s;
#X obj 53 192 + 1;
#X obj 51 114 f \$1;
#X obj 51 130 - 1;
#X obj 52 162 * 4;
#X obj 26 240 pack f f;
#X obj 23 64 / 127;
#X obj 234 27 r \$0-plugin_type-s;
#X obj 26 305 s param;
#X obj 24 41 spigot;
#X obj 145 34 == 1;
#X msg 26 281 list param\$2 \$1;
#X connect 0 0 6 0;
#X connect 0 1 3 0;
#X connect 1 0 10 0;
#X connect 2 0 6 1;
#X connect 3 0 4 0;
#X connect 4 0 5 0;
#X connect 5 0 2 0;
#X connect 6 0 12 0;
#X connect 7 0 0 0;
#X connect 8 0 11 0;
#X connect 10 0 7 0;
#X connect 11 0 10 1;
#X connect 12 0 9 0;
#X restore 38 36 pd param.set \$0-macro1-value-s;
#N canvas 254 299 682 427 param.set 0;
#X obj 23 89 t f b;
#X obj 51 114 f \$1;
#X obj 51 130 - 1;
#X obj 52 162 * 4;
#X obj 26 240 pack f f;
#X obj 23 64 / 127;
#X obj 234 27 r \$0-plugin_type-s;
#X obj 46 370 s param;
#X obj 24 41 spigot;
#X obj 53 192 + 2;
#X obj 145 34 == 1;
#X obj 23 18 receive \$0-macro2-value-s;
#X msg 26 293 list param\$2 \$1;
#X connect 0 0 4 0;
#X connect 0 1 1 0;
#X connect 1 0 2 0;
#X connect 2 0 3 0;
#X connect 3 0 9 0;
#X connect 4 0 12 0;
#X connect 5 0 0 0;
#X connect 6 0 10 0;
#X connect 8 0 5 0;
#X connect 9 0 4 1;
#X connect 10 0 8 1;
#X connect 11 0 8 0;
#X connect 12 0 7 0;
#X restore 38 66 pd param.set \$0-macro2-value-s;
#N canvas 254 299 682 427 param.set 0;
#X obj 23 89 t f b;
#X obj 51 114 f \$1;
#X obj 51 130 - 1;
#X obj 52 162 * 4;
#X obj 23 228 pack f f;
#X obj 23 64 / 127;
#X obj 234 27 r \$0-plugin_type-s;
#X obj 24 41 spigot;
#X obj 53 192 + 3;
#X obj 145 34 == 1;
#X obj 23 18 receive \$0-macro3-value-s;
#X obj 20 328 s param;
#X msg 20 304 list param\$2 \$1;
#X connect 0 0 4 0;
#X connect 0 1 1 0;
#X connect 1 0 2 0;
#X connect 2 0 3 0;
#X connect 3 0 8 0;
#X connect 4 0 12 0;
#X connect 5 0 0 0;
#X connect 6 0 9 0;
#X connect 7 0 5 0;
#X connect 8 0 4 1;
#X connect 9 0 7 1;
#X connect 10 0 7 0;
#X connect 12 0 11 0;
#X restore 38 96 pd param.set \$0-macro3-value-s;
#N canvas 254 299 682 427 param.set 0;
#X obj 23 89 t f b;
#X obj 51 114 f \$1;
#X obj 51 130 - 1;
#X obj 52 162 * 4;
#X obj 26 240 pack f f;
#X obj 23 64 / 127;
#X obj 234 27 r \$0-plugin_type-s;
#X obj 24 41 spigot;
#X obj 53 192 + 4;
#X obj 145 34 == 1;
#X obj 23 18 receive \$0-macro4-value-s;
#X obj 32 331 s param;
#X msg 32 307 list param\$2 \$1;
#X connect 0 0 4 0;
#X connect 0 1 1 0;
#X connect 1 0 2 0;
#X connect 2 0 3 0;
#X connect 3 0 8 0;
#X connect 4 0 12 0;
#X connect 5 0 0 0;
#X connect 6 0 9 0;
#X connect 7 0 5 0;
#X connect 8 0 4 1;
#X connect 9 0 7 1;
#X connect 10 0 7 0;
#X connect 12 0 11 0;
#X restore 38 126 pd param.set \$0-macro4-value-s;
#N canvas 254 299 682 427 param.get 0;
#X obj 365 263 t f f;
#X obj 369 142 change -1e+37;
#X obj 370 363 send \$0-macro1-value-s;
#X msg 396 293 set \$1;
#X obj 397 324 s \$0-macro1-value-r;
#X obj 23 104 - 1;
#X obj 23 127 * 4;
#X obj 23 150 + 1;
#X obj 19 56 loadbang;
#X obj 21 81 f \$1;
#X obj 373 176 * 127;
#X obj 470 59 r \$0-plugin_type-s;
#N canvas 0 0 450 300 \$0-r_param1 0;
#X obj 10 10 r param1;
#X obj 10 40 s 1329-param1;
#X connect 0 0 1 0;
#X restore 357 39 pd \$0-r_param1;
#X obj 362 71 r \$0-param1;
#X obj 25 187 pack f \$0;
#X obj 32 257 s pd-\$0-r_param1;
#X msg 28 212 clear \, obj 10 10 r param\$1 \, obj 10 40 s \$2-param1 \, connect 0 0 1 0;
#X obj 472 85 == 1;
#X obj 369 109 spigot;
#X floatatom 285 107 11 0 0 0 - - - 10;
#X connect 0 0 2 0;
#X connect 0 1 3 0;
#X connect 1 0 10 0;
#X connect 3 0 4 0;
#X connect 5 0 6 0;
#X connect 6 0 7 0;
#X connect 7 0 14 0;
#X connect 8 0 9 0;
#X connect 9 0 5 0;
#X connect 10 0 0 0;
#X connect 11 0 17 0;
#X connect 13 0 18 0;
#X connect 14 0 16 0;
#X connect 16 0 15 0;
#X connect 17 0 18 1;
#X connect 18 0 1 0;
#X connect 18 0 19 0;
#X restore 268 41 pd param.get \$0-macro1-value-s;
#N canvas 254 299 682 427 param.get 0;
#X obj 365 263 t f f;
#X obj 369 142 change -1e+37;
#X msg 396 293 set \$1;
#X obj 23 104 - 1;
#X obj 23 127 * 4;
#X obj 19 56 loadbang;
#X obj 21 81 f \$1;
#X obj 373 176 * 127;
#X obj 470 59 r \$0-plugin_type-s;
#X obj 25 187 pack f \$0;
#X obj 472 85 == 1;
#X obj 369 109 spigot;
#X obj 23 150 + 2;
#X obj 32 257 s pd-\$0-r_param2;
#X msg 28 212 clear \, obj 10 10 r param\$1 \, obj 10 40 s \$2-param2 \, connect 0 0 1 0;
#N canvas 0 0 450 300 \$0-r_param2 0;
#X obj 10 10 r param2;
#X obj 10 40 s 1329-param2;
#X connect 0 0 1 0;
#X restore 357 39 pd \$0-r_param2;
#X msg 136 181 clear;
#X obj 362 71 r \$0-param2;
#X obj 397 324 s \$0-macro2-value-r;
#X obj 370 363 send \$0-macro2-value-s;
#X connect 0 0 19 0;
#X connect 0 1 2 0;
#X connect 1 0 7 0;
#X connect 2 0 18 0;
#X connect 3 0 4 0;
#X connect 4 0 12 0;
#X connect 5 0 6 0;
#X connect 6 0 3 0;
#X connect 7 0 0 0;
#X connect 8 0 10 0;
#X connect 9 0 14 0;
#X connect 10 0 11 1;
#X connect 11 0 1 0;
#X connect 12 0 9 0;
#X connect 14 0 13 0;
#X connect 16 0 13 0;
#X connect 17 0 11 0;
#X restore 268 71 pd param.get \$0-macro2-value-s;
#N canvas 254 299 682 427 param.get 0;
#X obj 365 263 t f f;
#X obj 369 142 change -1e+37;
#X msg 396 293 set \$1;
#X obj 23 104 - 1;
#X obj 23 127 * 4;
#X obj 19 56 loadbang;
#X obj 21 81 f \$1;
#X obj 373 176 * 127;
#X obj 470 59 r \$0-plugin_type-s;
#X obj 25 187 pack f \$0;
#X obj 472 85 == 1;
#X obj 369 109 spigot;
#X obj 23 150 + 3;
#X msg 28 212 clear \, obj 10 10 r param\$1 \, obj 10 40 s \$2-param3 \, connect 0 0 1 0;
#X obj 32 257 s pd-\$0-r_param3;
#N canvas 0 0 450 300 \$0-r_param3 0;
#X obj 10 10 r param3;
#X obj 10 40 s 1329-param3;
#X connect 0 0 1 0;
#X restore 357 39 pd \$0-r_param3;
#X obj 362 71 r \$0-param3;
#X obj 397 324 s \$0-macro3-value-r;
#X obj 370 363 send \$0-macro3-value-s;
#X connect 0 0 18 0;
#X connect 0 1 2 0;
#X connect 1 0 7 0;
#X connect 2 0 17 0;
#X connect 3 0 4 0;
#X connect 4 0 12 0;
#X connect 5 0 6 0;
#X connect 6 0 3 0;
#X connect 7 0 0 0;
#X connect 8 0 10 0;
#X connect 9 0 13 0;
#X connect 10 0 11 1;
#X connect 11 0 1 0;
#X connect 12 0 9 0;
#X connect 13 0 14 0;
#X connect 16 0 11 0;
#X restore 268 101 pd param.get \$0-macro3-value-s;
#N canvas 254 299 682 427 param.get 0;
#X obj 365 263 t f f;
#X obj 369 142 change -1e+37;
#X msg 396 293 set \$1;
#X obj 23 104 - 1;
#X obj 23 127 * 4;
#X obj 19 56 loadbang;
#X obj 21 81 f \$1;
#X obj 373 176 * 127;
#X obj 470 59 r \$0-plugin_type-s;
#X obj 25 187 pack f \$0;
#X obj 472 85 == 1;
#X obj 369 109 spigot;
#X obj 23 150 + 4;
#X msg 28 212 clear \, obj 10 10 r param\$1 \, obj 10 40 s \$2-param4 \, connect 0 0 1 0;
#X obj 32 257 s pd-\$0-r_param4;
#N canvas 0 0 450 300 \$0-r_param4 0;
#X obj 10 10 r param4;
#X obj 10 40 s 1329-param4;
#X connect 0 0 1 0;
#X restore 357 39 pd \$0-r_param4;
#X obj 362 71 r \$0-param4;
#X obj 397 324 s \$0-macro4-value-r;
#X obj 370 363 send \$0-macro4-value-s;
#X connect 0 0 18 0;
#X connect 0 1 2 0;
#X connect 1 0 7 0;
#X connect 2 0 17 0;
#X connect 3 0 4 0;
#X connect 4 0 12 0;
#X connect 5 0 6 0;
#X connect 6 0 3 0;
#X connect 7 0 0 0;
#X connect 8 0 10 0;
#X connect 9 0 13 0;
#X connect 10 0 11 1;
#X connect 11 0 1 0;
#X connect 12 0 9 0;
#X connect 13 0 14 0;
#X connect 16 0 11 0;
#X restore 268 131 pd param.get \$0-macro4-value-s;
#X restore 568 265 pd plugdata_plugin_support;
#X obj 327 235 bng 25 250 50 0 empty empty empty 17 7 0 10 #e4e4e4 #5a5a5a #5a5a5a;
#X obj 388 244 bng 25 250 50 0 empty empty empty 17 7 0 10 #e4e4e4 #5a5a5a #5a5a5a;
#X obj 339 176 r \$0-plugin_type-s;
#X obj 828 206 loadbang;
#X obj 828 229 delay 100;
#X obj 828 252 v IS_CAMOMILE;
#X obj 828 275 == 0;
#X obj 828 298 s \$0-plugin_type-s;
#X text 958 302 0 = camomile;
#X text 958 322 1 = plugdata;
#X connect 1 0 2 0;
#X connect 2 0 0 0;
#X connect 3 0 1 0;
#X connect 4 0 5 0;
#X connect 5 0 4 0;
#X connect 5 1 4 1;
#X connect 6 0 50 0;
#X connect 7 0 53 0;
#X connect 8 0 56 0;
#X connect 9 0 59 0;
#X connect 10 0 61 0;
#X connect 11 0 61 0;
#X connect 12 0 61 0;
#X connect 13 0 61 0;
#X connect 14 0 18 0;
#X connect 15 0 19 0;
#X connect 16 0 20 0;
#X connect 17 0 21 0;
#X connect 18 0 22 0;
#X connect 19 0 23 0;
#X connect 20 0 24 0;
#X connect 21 0 25 0;
#X connect 22 0 26 0;
#X connect 23 0 27 0;
#X connect 24 0 28 0;
#X connect 25 0 29 0;
#X connect 30 0 35 0;
#X connect 31 0 33 0;
#X connect 32 0 30 0;
#X connect 32 0 36 0;
#X connect 32 0 42 0;
#X connect 32 0 39 0;
#X connect 33 0 32 0;
#X connect 34 0 30 0;
#X connect 35 0 45 0;
#X connect 36 0 38 0;
#X connect 37 0 36 0;
#X connect 38 0 46 0;
#X connect 39 0 41 0;
#X connect 40 0 39 0;
#X connect 41 0 47 0;
#X connect 42 0 44 0;
#X connect 43 0 42 0;
#X connect 44 0 48 0;
#X connect 45 0 51 0;
#X connect 46 0 54 0;
#X connect 47 0 57 0;
#X connect 48 0 60 0;
#X connect 49 0 11 0;
#X connect 49 0 14 0;
#X connect 50 0 49 0;
#X connect 51 0 50 0;
#X connect 51 1 50 1;
#X connect 52 0 10 0;
#X connect 52 0 15 0;
#X connect 53 0 52 0;
#X connect 54 0 53 0;
#X connect 54 1 53 1;
#X connect 55 0 13 0;
#X connect 55 0 16 0;
#X connect 56 0 55 0;
#X connect 57 0 56 0;
#X connect 57 1 56 1;
#X connect 58 0 12 0;
#X connect 58 0 17 0;
#X connect 59 0 58 0;
#X connect 60 0 59 0;
#X connect 60 1 59 1;
#X connect 97 0 98 0;
#X connect 97 0 102 0;
#X connect 97 1 99 0;
#X connect 97 1 103 0;
#X connect 98 0 100 0;
#X connect 99 0 100 0;
#X connect 104 0 97 0;
#X connect 105 0 106 0;
#X connect 106 0 107 0;
#X connect 107 0 108 0;
#X connect 108 0 109 0;
#X coords 0 0 -1 1 170 214 1 100 100;
