#N canvas 0 23 669 484 10;
#X obj 207 130 bng 30 250 50 0 \$0-manual-trig3!-s \$0-manual-trig3!-r
empty 17 7 0 10 -262144 -226533 -1;
#X obj 102 130 bng 30 250 50 0 \$0-manual-trig1!-s \$0-manual-trig1!-r
empty 17 7 0 10 -262144 -226533 -1;
#X obj 156 130 bng 30 250 50 0 \$0-manual-trig2!-s \$0-manual-trig2!-r
empty 17 7 0 10 -262144 -226533 -1;
#X msg 119 191 1 0 \, 0 1 1;
#X obj 119 213 vline~;
#X obj 119 235 outlet~;
#X msg 189 191 1 0 \, 0 1 1;
#X obj 189 213 vline~;
#X obj 189 235 outlet~;
#X msg 269 192 1 0 \, 0 1 1;
#X obj 269 214 vline~;
#X obj 269 236 outlet~;
#X obj 104 109 cnv 5 5 5 empty empty MANUAL-TRIGGERS 0 0 0 12 -262144
-66577 0;
#X obj 207 124 cnv 5 5 5 empty empty T3 0 0 0 8 -262144 -226533 0;
#X obj 102 124 cnv 5 5 5 empty empty T1 0 0 0 8 -262144 -226533 0;
#X obj 156 124 cnv 5 5 5 empty empty T2 0 0 0 8 -262144 -226533 0;
#N canvas 632 73 749 752 external-messages 0;
#X floatatom 186 706 5 0 0 0 - - -, f 5;
#X obj 185 328 spigot;
#X obj 218 288 tgl 15 0 empty empty empty 17 7 0 10 -262144 -1 -1 0
1;
#X obj 254 272 ==;
#X obj 269 248 f \$1;
#X obj 269 224 loadbang;
#X msg 185 202 \$1 \$2;
#X msg 185 156 symbol \$1;
#X obj 185 180 pack s f;
#X obj 186 685 f;
#X obj 186 633 t b f;
#X obj 186 656 spigot;
#X obj 185 62 unpack s f f;
#X symbolatom 185 94 10 0 0 0 - - -, f 10;
#X obj 218 308 t f f;
#X obj 245 332 s \$0-msg-spigot;
#X obj 234 640 r \$0-msg-spigot;
#X floatatom 223 594 5 0 0 0 - - -, f 5;
#X obj 223 573 f;
#X obj 223 521 t b f;
#X obj 223 544 spigot;
#X obj 271 528 r \$0-msg-spigot;
#X floatatom 387 639 5 0 0 0 - - -, f 5;
#X obj 387 618 f;
#X obj 387 566 t b f;
#X obj 387 589 spigot;
#X obj 435 573 r \$0-msg-spigot;
#X obj 185 14 r manual-triggers;
#X obj 185 380 route T1 T2 T3;
#X obj 186 726 s \$0-manual-trig1!-r;
#X obj 223 614 s \$0-manual-trig2!-r;
#X obj 387 659 s \$0-manual-trig3!-r;
#X connect 0 0 29 0;
#X connect 1 0 28 0;
#X connect 2 0 14 0;
#X connect 3 0 2 0;
#X connect 4 0 3 1;
#X connect 5 0 4 0;
#X connect 6 0 1 0;
#X connect 7 0 8 0;
#X connect 8 0 6 0;
#X connect 9 0 0 0;
#X connect 10 0 11 0;
#X connect 10 1 9 1;
#X connect 11 0 9 0;
#X connect 12 0 13 0;
#X connect 12 1 8 1;
#X connect 12 2 3 0;
#X connect 13 0 7 0;
#X connect 14 0 1 1;
#X connect 14 1 15 0;
#X connect 16 0 11 1;
#X connect 17 0 30 0;
#X connect 18 0 17 0;
#X connect 19 0 20 0;
#X connect 19 1 18 1;
#X connect 20 0 18 0;
#X connect 21 0 20 1;
#X connect 22 0 31 0;
#X connect 23 0 22 0;
#X connect 24 0 25 0;
#X connect 24 1 23 1;
#X connect 25 0 23 0;
#X connect 26 0 25 1;
#X connect 27 0 12 0;
#X connect 28 0 10 0;
#X connect 28 1 19 0;
#X connect 28 2 24 0;
#X restore 102 306 pd external-messages;
#X connect 0 0 9 0;
#X connect 1 0 3 0;
#X connect 2 0 6 0;
#X connect 3 0 4 0;
#X connect 4 0 5 0;
#X connect 6 0 7 0;
#X connect 7 0 8 0;
#X connect 9 0 10 0;
#X connect 10 0 11 0;
#X coords 0 -1 1 1 140 65 2 100 100;
