#N canvas 0 22 741 454 10;
#X obj 25 234 cnv 15 400 30 empty empty OUTPUTS: 20 12 0 14 #9898dc #fcfcfc 0;
#X obj 24 101 cnv 15 400 30 empty empty CONTROLS: 20 12 0 14 #9898dc #fcfcfc 0;
#X obj 25 176 cnv 15 400 30 empty empty INPUTS: 20 12 0 14 #9898dc #fcfcfc 0;
#X obj 20 17 cnv 15 400 30 empty empty MANUAL-TRIGGERS: 20 12 0 14 #90d4b0 #fcfcfc 0;
#X text 24 207 /none/;
#X obj 476 30 manual-toggle;
#A saved dispatch manualtoggle 0;
#X text 24 50 The MANUAL-TOGGLE module simply outputs a gate signal according to the state of the Toggle buttons.;
#X text 25 136 clicable toggle;
#X text 25 274 gate output;
