#N canvas 0 23 1168 751 10;
#X obj 787 552 line~;
#X obj 734 347 pack 0 50;
#X obj 109 176 hsl 128 15 0 127 0 1 \$0-megaverb-dry/wet-s \$0-megaverb-dry/wet-r
DRY/WET 135 7 0 10 -262144 -1 -1 8800 1;
#X obj 787 457 r \$0-megaverb-dry/wet-s;
#X obj 787 479 / 127;
#X obj 787 526 pack 0 50;
#X obj 885 629 r~ \$0-megaverb-dry;
#X obj 885 663 *~;
#X obj 1005 536 r \$0-megaverb-dry/wet-s;
#X msg 1005 558 127 \$1;
#X obj 1005 580 -;
#X obj 1005 602 / 127;
#X obj 1005 624 pack 0 50;
#X obj 1005 646 line~;
#X obj 109 132 hsl 128 15 0 127 0 1 \$0-megaverb-room-s \$0-megaverb-room-r
SIZE 135 7 0 10 -262144 -1 -1 7900 1;
#X obj 538 113 r \$0-megaverb-room-s;
#X obj 538 135 / 127;
#X obj 734 369 line~;
#X obj 109 146 hsl 128 15 0 127 0 1 \$0-megaverb-damping-s \$0-megaverb-damping-r
DAMPING 135 7 0 10 -262144 -1 -1 12700 1;
#X obj 735 285 / 127;
#X obj 735 262 r \$0-megaverb-damping-s;
#X obj 734 391 +~;
#X obj 190 651 +~;
#X obj 213 550 *~;
#X obj 515 555 *~;
#X obj 314 555 *~;
#X obj 416 555 *~;
#X obj 472 689 -~;
#X obj 393 688 -~;
#X obj 268 691 +~;
#X obj 190 688 +~;
#X obj 191 587 +~;
#X obj 291 583 +~;
#X obj 493 644 -~;
#X obj 416 642 +~;
#X obj 268 654 -~;
#X obj 45 264 delread~ \$0-del1 58.6435;
#X obj 123 286 delread~ \$0-del2 69.4325;
#X obj 205 308 delread~ \$0-del3 74.5234;
#X obj 287 332 delread~ \$0-del4 86.1244;
#X obj 701 765 *~;
#X obj 770 766 *~;
#X obj 190 795 delwrite~ \$0-del1 58.6435;
#X obj 269 771 delwrite~ \$0-del2 69.4325;
#X obj 394 738 delwrite~ \$0-del3 74.5234;
#X obj 473 716 delwrite~ \$0-del4 86.1244;
#X obj 38 533 inlet~;
#N canvas 341 84 355 597 early-reflect 0;
#X obj 84 119 -~;
#X obj 49 119 +~;
#X obj 50 195 +~;
#X obj 85 196 -~;
#X obj 84 275 -~;
#X obj 49 274 +~;
#X obj 82 349 -~;
#X obj 48 350 +~;
#X obj 83 428 -~;
#X obj 49 428 +~;
#X obj 65 7 inlet~;
#X obj 49 508 outlet~;
#X obj 119 505 outlet~;
#X obj 110 66 delwrite~ \$0-ref1 43.5337;
#X obj 110 90 delread~ \$0-ref1 43.5337;
#X obj 107 145 delwrite~ \$0-ref2 25.796;
#X obj 107 169 delread~ \$0-ref2 25.796;
#X obj 106 223 delwrite~ \$0-ref3 19.392;
#X obj 106 247 delread~ \$0-ref3 19.392;
#X obj 102 300 delwrite~ \$0-ref4 16.364;
#X obj 102 324 delread~ \$0-ref4 16.364;
#X obj 119 452 delwrite~ \$0-ref6 4.2546;
#X obj 119 475 delread~ \$0-ref6 4.2546;
#X obj 106 376 delwrite~ \$0-ref5 7.645;
#X obj 106 400 delread~ \$0-ref5 7.645;
#X connect 0 0 15 0;
#X connect 1 0 3 0;
#X connect 1 0 2 0;
#X connect 2 0 5 0;
#X connect 2 0 4 0;
#X connect 3 0 17 0;
#X connect 4 0 19 0;
#X connect 5 0 7 0;
#X connect 5 0 6 0;
#X connect 6 0 23 0;
#X connect 7 0 9 0;
#X connect 7 0 8 0;
#X connect 8 0 21 0;
#X connect 9 0 11 0;
#X connect 10 0 1 0;
#X connect 10 0 0 0;
#X connect 10 0 13 0;
#X connect 14 0 1 1;
#X connect 14 0 0 1;
#X connect 16 0 2 1;
#X connect 16 0 3 1;
#X connect 18 0 5 1;
#X connect 18 0 4 1;
#X connect 20 0 7 1;
#X connect 20 0 6 1;
#X connect 22 0 12 0;
#X connect 24 0 9 1;
#X connect 24 0 8 1;
#X restore 38 559 pd early-reflect;
#X obj 58 412 -~;
#X obj 57 443 *~;
#X obj 45 474 +~;
#X obj 135 417 -~;
#X obj 134 452 *~;
#X obj 124 476 +~;
#X obj 217 416 -~;
#X obj 216 457 *~;
#X obj 205 482 +~;
#X obj 310 417 -~;
#X obj 310 461 *~;
#X obj 287 485 +~;
#X obj 787 576 clip~ 0 0.125;
#X obj 538 210 + 0.25;
#X obj 538 263 pack 0 50;
#X obj 538 285 line~;
#X obj 538 309 +~;
#X obj 538 517 clip~ 0.25 0.5;
#X obj 63 632 s~ \$0-megaverb-dry;
#X obj 703 848 outlet~ LEFT;
#X obj 782 848 outlet~ RIGHT;
#X obj 787 503 * 0.1;
#X obj 538 188 * 0.25;
#X obj 538 236 clip 0.25 0.49;
#X obj 109 161 hsl 128 15 0 127 0 1 \$0-megaverb-lowpass-s \$0-megaverb-lowpass-r
LOWPASS 133 7 0 10 -262144 -1 -1 12700 1;
#X obj 951 702 / 127;
#X obj 951 768 + 50;
#X obj 951 790 pack 0 50;
#X obj 951 724 +;
#X obj 686 136 *~ 0.5;
#X obj 686 92 inlet~ SIZE-CV;
#X obj 337 392 lop~ 3000;
#X obj 243 388 lop~ 3000;
#X obj 161 383 lop~ 3000;
#X obj 81 379 lop~ 3000;
#X obj 1011 235 inlet~ LOWPASS;
#X obj 698 716 lop~;
#X obj 698 686 lop~;
#X obj 752 720 lop~;
#X obj 752 690 lop~;
#X obj 952 816 line;
#X obj 1011 257 snapshot~;
#X obj 1011 279 t b f;
#X obj 1069 292 env~;
#X floatatom 1069 336 5 0 0 0 - - -, f 5;
#X obj 1069 314 > 0;
#X obj 1069 355 sel 1;
#X msg 1069 377 0;
#X obj 1072 194 tgl 15 0 empty empty empty 17 7 0 10 -262144 -1 -1
1 1;
#X obj 1072 214 metro 10;
#X obj 1072 167 loadbang;
#X floatatom 1008 715 5 0 0 0 - - -, f 5;
#X floatatom 663 383 5 0 0 0 - - -, f 5;
#X obj 734 430 clip~ 0 0.75;
#X obj 735 307 * 0.75;
#X obj 190 110 cnv 5 5 5 empty empty SIZE 0 0 0 8 -262144 -66577 0
;
#X obj 105 125 cnv 5 5 5 empty empty MEGAVERB 0 0 0 12 -262144 -66577
0;
#X obj 104 111 cnv 5 5 5 empty empty IN 0 0 0 8 -262144 -66577 0;
#X obj 168 125 cnv 5 5 5 empty \$0-instance-num 1 0 0 0 12 -262144
-66577 0;
#X obj 273 111 cnv 5 5 5 empty empty LPASS 0 0 0 8 -262144 -66577 0
;
#N canvas 100 22 593 735 state-saving-multiple-instances 0;
#X obj 164 26 loadbang;
#X obj 210 479 textfile;
#X msg 491 462 rewind;
#X msg 448 462 bang;
#X obj 88 707 textfile;
#X obj 448 421 t b b;
#X obj 88 355 f;
#X obj 101 578 f;
#X obj 27 402 t b b b;
#X msg 163 573 clear;
#X obj 230 235 outlet;
#X text 272 237 INSTANCE NUMBER;
#X obj 191 200 t f f f;
#X obj 191 164 f \$1;
#X obj 164 59 t b b;
#X obj 27 378 bng 15 250 50 0 empty empty empty 17 7 0 10 -262144 -1
-1;
#X obj 27 234 r SAVE-S;
#X msg 88 436 set \$1 \$2 \$3 \$4;
#X obj 88 398 pack f f f f;
#X obj 210 501 unpack f f f f;
#X msg 210 454 read statesave/\$1-megaverb-ss.txt;
#X msg 101 682 write statesave/\$1-megaverb-ss.txt;
#X obj 172 360 r \$0-megaverb-dry/wet-s;
#X obj 302 558 s \$0-megaverb-dry/wet-r;
#X obj 142 324 r \$0-megaverb-lowpass-s;
#X obj 279 602 s \$0-megaverb-lowpass-r;
#X obj 113 296 r \$0-megaverb-damping-s;
#X obj 244 624 s \$0-megaverb-damping-r;
#X obj 100 258 r \$0-megaverb-room-s;
#X obj 210 650 s \$0-megaverb-room-r;
#X connect 0 0 14 0;
#X connect 1 0 19 0;
#X connect 2 0 1 0;
#X connect 3 0 1 0;
#X connect 5 0 3 0;
#X connect 5 1 2 0;
#X connect 6 0 18 0;
#X connect 7 0 21 0;
#X connect 8 0 7 0;
#X connect 8 1 6 0;
#X connect 8 2 9 0;
#X connect 9 0 4 0;
#X connect 12 0 7 1;
#X connect 12 1 20 0;
#X connect 12 2 10 0;
#X connect 13 0 12 0;
#X connect 14 0 5 0;
#X connect 14 1 13 0;
#X connect 15 0 8 0;
#X connect 16 0 15 0;
#X connect 17 0 4 0;
#X connect 18 0 17 0;
#X connect 19 0 29 0;
#X connect 19 1 27 0;
#X connect 19 2 25 0;
#X connect 19 3 23 0;
#X connect 20 0 1 0;
#X connect 21 0 4 0;
#X connect 22 0 18 3;
#X connect 24 0 18 2;
#X connect 26 0 18 1;
#X connect 28 0 6 1;
#X restore 309 75 pd state-saving-multiple-instances;
#X obj 309 152 s \$0-instance-num;
#X obj 309 104 makefilename %d;
#X msg 309 129 label \$1;
#N canvas 81 22 1117 745 state-saving-via-preset-manager-module 0;
#X obj 477 349 textfile;
#X msg 755 332 rewind;
#X msg 712 332 bang;
#X obj 243 690 textfile;
#X obj 712 293 t b b;
#X obj 244 356 f;
#X obj 257 579 f;
#X obj 190 474 t b b b;
#X msg 373 621 clear;
#X obj 244 180 delay 5;
#X obj 190 529 delay 10;
#X msg 190 314 bang;
#X obj 190 155 r STORE-S!;
#X obj 477 250 f;
#X obj 450 207 t b b;
#X obj 465 171 t b f;
#X obj 522 268 f \$1;
#X obj 477 295 pack f f;
#X obj 522 218 loadbang;
#X obj 257 609 pack f f;
#X obj 302 562 loadbang;
#X obj 302 584 f \$1;
#X obj 465 148 r preset-manager-scan;
#X obj 272 540 r preset-manager-store-slot;
#X msg 243 490 set \$1 \$2 \$3 \$4;
#X obj 244 423 pack f f f f;
#X obj 477 371 unpack f f f f;
#X msg 256 650 write statesave/\$1-\$2-megaverb-ss.txt;
#X msg 477 324 read statesave/\$1-\$2-megaverb-ss.txt;
#X obj 259 308 r \$0-megaverb-room-s;
#X obj 477 713 s \$0-megaverb-room-r;
#X obj 267 330 r \$0-megaverb-damping-s;
#X obj 504 615 s \$0-megaverb-damping-r;
#X obj 290 352 r \$0-megaverb-lowpass-s;
#X obj 531 518 s \$0-megaverb-lowpass-r;
#X obj 313 374 r \$0-megaverb-dry/wet-s;
#X obj 731 435 s \$0-megaverb-dry/wet-r;
#N canvas 0 22 1069 747 morph-parameters 0;
#X obj 176 94 inlet;
#X obj 176 236 pack f f;
#X obj 176 261 line;
#X obj 209 117 r preset-manager-morph-s;
#X msg 72 244 stop;
#X obj 72 214 r STOP-MORPH!;
#X obj 209 206 spigot;
#X obj 398 137 t f f;
#X obj 455 154 == 0;
#X obj 221 176 f;
#X floatatom 455 222 5 0 0 0 - - -, f 5;
#X obj 398 159 t b f;
#X floatatom 425 192 5 0 0 0 - - -, f 5;
#X obj 209 139 t f f;
#X obj 398 102 r parameters-s;
#X obj 176 288 outlet;
#X connect 0 0 1 0;
#X connect 1 0 2 0;
#X connect 2 0 15 0;
#X connect 3 0 13 0;
#X connect 4 0 2 0;
#X connect 5 0 4 0;
#X connect 6 0 1 1;
#X connect 7 0 11 0;
#X connect 7 1 8 0;
#X connect 8 0 10 0;
#X connect 9 0 6 0;
#X connect 10 0 1 1;
#X connect 11 0 9 0;
#X connect 11 1 12 0;
#X connect 12 0 6 1;
#X connect 13 0 6 0;
#X connect 13 1 9 1;
#X connect 14 0 7 0;
#X restore 730 409 pd morph-parameters;
#N canvas 0 22 1069 747 morph-parameters 0;
#X obj 176 94 inlet;
#X obj 176 236 pack f f;
#X obj 176 261 line;
#X obj 209 117 r preset-manager-morph-s;
#X msg 72 244 stop;
#X obj 72 214 r STOP-MORPH!;
#X obj 209 206 spigot;
#X obj 398 137 t f f;
#X obj 455 154 == 0;
#X obj 221 176 f;
#X floatatom 455 222 5 0 0 0 - - -, f 5;
#X obj 398 159 t b f;
#X floatatom 425 192 5 0 0 0 - - -, f 5;
#X obj 209 139 t f f;
#X obj 398 102 r parameters-s;
#X obj 176 288 outlet;
#X connect 0 0 1 0;
#X connect 1 0 2 0;
#X connect 2 0 15 0;
#X connect 3 0 13 0;
#X connect 4 0 2 0;
#X connect 5 0 4 0;
#X connect 6 0 1 1;
#X connect 7 0 11 0;
#X connect 7 1 8 0;
#X connect 8 0 10 0;
#X connect 9 0 6 0;
#X connect 10 0 1 1;
#X connect 11 0 9 0;
#X connect 11 1 12 0;
#X connect 12 0 6 1;
#X connect 13 0 6 0;
#X connect 13 1 9 1;
#X connect 14 0 7 0;
#X restore 476 689 pd morph-parameters;
#N canvas 0 22 1069 747 morph-parameters 0;
#X obj 176 94 inlet;
#X obj 176 236 pack f f;
#X obj 176 261 line;
#X obj 209 117 r preset-manager-morph-s;
#X msg 72 244 stop;
#X obj 72 214 r STOP-MORPH!;
#X obj 209 206 spigot;
#X obj 398 137 t f f;
#X obj 455 154 == 0;
#X obj 221 176 f;
#X floatatom 455 222 5 0 0 0 - - -, f 5;
#X obj 398 159 t b f;
#X floatatom 425 192 5 0 0 0 - - -, f 5;
#X obj 209 139 t f f;
#X obj 398 102 r parameters-s;
#X obj 176 288 outlet;
#X connect 0 0 1 0;
#X connect 1 0 2 0;
#X connect 2 0 15 0;
#X connect 3 0 13 0;
#X connect 4 0 2 0;
#X connect 5 0 4 0;
#X connect 6 0 1 1;
#X connect 7 0 11 0;
#X connect 7 1 8 0;
#X connect 8 0 10 0;
#X connect 9 0 6 0;
#X connect 10 0 1 1;
#X connect 11 0 9 0;
#X connect 11 1 12 0;
#X connect 12 0 6 1;
#X connect 13 0 6 0;
#X connect 13 1 9 1;
#X connect 14 0 7 0;
#X restore 503 588 pd morph-parameters;
#N canvas 0 22 1069 747 morph-parameters 0;
#X obj 176 94 inlet;
#X obj 176 236 pack f f;
#X obj 176 261 line;
#X obj 209 117 r preset-manager-morph-s;
#X msg 72 244 stop;
#X obj 72 214 r STOP-MORPH!;
#X obj 209 206 spigot;
#X obj 398 137 t f f;
#X obj 455 154 == 0;
#X obj 221 176 f;
#X floatatom 455 222 5 0 0 0 - - -, f 5;
#X obj 398 159 t b f;
#X floatatom 425 192 5 0 0 0 - - -, f 5;
#X obj 209 139 t f f;
#X obj 398 102 r parameters-s;
#X obj 176 288 outlet;
#X connect 0 0 1 0;
#X connect 1 0 2 0;
#X connect 2 0 15 0;
#X connect 3 0 13 0;
#X connect 4 0 2 0;
#X connect 5 0 4 0;
#X connect 6 0 1 1;
#X connect 7 0 11 0;
#X connect 7 1 8 0;
#X connect 8 0 10 0;
#X connect 9 0 6 0;
#X connect 10 0 1 1;
#X connect 11 0 9 0;
#X connect 11 1 12 0;
#X connect 12 0 6 1;
#X connect 13 0 6 0;
#X connect 13 1 9 1;
#X connect 14 0 7 0;
#X restore 533 491 pd morph-parameters;
#X connect 0 0 26 0;
#X connect 1 0 0 0;
#X connect 2 0 0 0;
#X connect 4 0 2 0;
#X connect 4 1 1 0;
#X connect 5 0 25 0;
#X connect 6 0 19 0;
#X connect 7 0 10 0;
#X connect 7 1 9 0;
#X connect 7 2 8 0;
#X connect 8 0 3 0;
#X connect 9 0 5 0;
#X connect 10 0 6 0;
#X connect 11 0 7 0;
#X connect 12 0 11 0;
#X connect 13 0 17 0;
#X connect 14 0 4 0;
#X connect 14 1 13 0;
#X connect 15 0 14 0;
#X connect 15 1 13 1;
#X connect 16 0 17 1;
#X connect 17 0 28 0;
#X connect 18 0 16 0;
#X connect 19 0 27 0;
#X connect 20 0 21 0;
#X connect 21 0 19 1;
#X connect 22 0 15 0;
#X connect 23 0 6 1;
#X connect 24 0 3 0;
#X connect 25 0 24 0;
#X connect 26 0 38 0;
#X connect 26 1 39 0;
#X connect 26 2 40 0;
#X connect 26 3 37 0;
#X connect 27 0 3 0;
#X connect 28 0 0 0;
#X connect 29 0 5 1;
#X connect 31 0 25 1;
#X connect 33 0 25 2;
#X connect 35 0 25 3;
#X connect 37 0 36 0;
#X connect 38 0 30 0;
#X connect 39 0 32 0;
#X connect 40 0 34 0;
#X restore 309 49 pd state-saving-via-preset-manager-module;
#N canvas 297 27 518 295 parameter-nudging-system 0;
#X obj 21 171 clip 0 127;
#X obj 23 67 clip 0 127;
#X obj 188 67 clip 0 127;
#X obj 359 68 clip 0 127;
#X obj 23 22 r \$0-megaverb-room-s;
#X obj 23 95 s \$0-megaverb-room-r;
#X obj 188 22 r \$0-megaverb-damping-s;
#X obj 188 95 s \$0-megaverb-damping-r;
#X obj 21 126 r \$0-megaverb-dry/wet-s;
#X obj 21 198 s \$0-megaverb-dry/wet-r;
#X obj 359 21 r \$0-megaverb-lowpass-s;
#X obj 359 94 s \$0-megaverb-lowpass-r;
#N canvas 0 22 484 497 nudge-parameters 0;
#X obj 124 234 random;
#X obj 232 335 f;
#X obj 232 368 +;
#X obj 257 166 random 2;
#X obj 124 275 t f f;
#X obj 124 351 t b f;
#X obj 124 297 *;
#X obj 257 188 sel 0 1;
#X msg 257 280 -1;
#X msg 335 280 1;
#X obj 124 149 t b b b;
#X obj 124 74 r NUDGE!;
#X obj 157 193 r NUDGE-RANGE;
#X obj 247 308 inlet;
#X obj 232 397 outlet;
#X obj 124 96 spigot;
#X obj 185 79 r parameters2-s;
#X connect 0 0 4 0;
#X connect 1 0 2 0;
#X connect 2 0 14 0;
#X connect 3 0 7 0;
#X connect 4 0 6 0;
#X connect 5 0 2 0;
#X connect 5 1 2 1;
#X connect 6 0 5 0;
#X connect 7 0 8 0;
#X connect 7 1 9 0;
#X connect 8 0 6 1;
#X connect 9 0 6 1;
#X connect 10 0 0 0;
#X connect 10 1 1 0;
#X connect 10 2 3 0;
#X connect 11 0 15 0;
#X connect 12 0 0 1;
#X connect 13 0 1 1;
#X connect 15 0 10 0;
#X connect 16 0 15 1;
#X restore 358 45 pd nudge-parameters;
#N canvas 0 22 484 497 nudge-parameters 0;
#X obj 124 234 random;
#X obj 232 335 f;
#X obj 232 368 +;
#X obj 257 166 random 2;
#X obj 124 275 t f f;
#X obj 124 351 t b f;
#X obj 124 297 *;
#X obj 257 188 sel 0 1;
#X msg 257 280 -1;
#X msg 335 280 1;
#X obj 124 149 t b b b;
#X obj 124 74 r NUDGE!;
#X obj 157 193 r NUDGE-RANGE;
#X obj 247 308 inlet;
#X obj 232 397 outlet;
#X obj 124 96 spigot;
#X obj 185 79 r parameters2-s;
#X connect 0 0 4 0;
#X connect 1 0 2 0;
#X connect 2 0 14 0;
#X connect 3 0 7 0;
#X connect 4 0 6 0;
#X connect 5 0 2 0;
#X connect 5 1 2 1;
#X connect 6 0 5 0;
#X connect 7 0 8 0;
#X connect 7 1 9 0;
#X connect 8 0 6 1;
#X connect 9 0 6 1;
#X connect 10 0 0 0;
#X connect 10 1 1 0;
#X connect 10 2 3 0;
#X connect 11 0 15 0;
#X connect 12 0 0 1;
#X connect 13 0 1 1;
#X connect 15 0 10 0;
#X connect 16 0 15 1;
#X restore 22 148 pd nudge-parameters;
#N canvas 0 22 484 497 nudge-parameters 0;
#X obj 124 234 random;
#X obj 232 335 f;
#X obj 232 368 +;
#X obj 257 166 random 2;
#X obj 124 275 t f f;
#X obj 124 351 t b f;
#X obj 124 297 *;
#X obj 257 188 sel 0 1;
#X msg 257 280 -1;
#X msg 335 280 1;
#X obj 124 149 t b b b;
#X obj 124 74 r NUDGE!;
#X obj 157 193 r NUDGE-RANGE;
#X obj 247 308 inlet;
#X obj 232 397 outlet;
#X obj 124 96 spigot;
#X obj 185 79 r parameters2-s;
#X connect 0 0 4 0;
#X connect 1 0 2 0;
#X connect 2 0 14 0;
#X connect 3 0 7 0;
#X connect 4 0 6 0;
#X connect 5 0 2 0;
#X connect 5 1 2 1;
#X connect 6 0 5 0;
#X connect 7 0 8 0;
#X connect 7 1 9 0;
#X connect 8 0 6 1;
#X connect 9 0 6 1;
#X connect 10 0 0 0;
#X connect 10 1 1 0;
#X connect 10 2 3 0;
#X connect 11 0 15 0;
#X connect 12 0 0 1;
#X connect 13 0 1 1;
#X connect 15 0 10 0;
#X connect 16 0 15 1;
#X restore 183 43 pd nudge-parameters;
#N canvas 0 22 484 497 nudge-parameters 0;
#X obj 124 234 random;
#X obj 232 335 f;
#X obj 232 368 +;
#X obj 257 166 random 2;
#X obj 124 275 t f f;
#X obj 124 351 t b f;
#X obj 124 297 *;
#X obj 257 188 sel 0 1;
#X msg 257 280 -1;
#X msg 335 280 1;
#X obj 124 149 t b b b;
#X obj 124 74 r NUDGE!;
#X obj 157 193 r NUDGE-RANGE;
#X obj 247 308 inlet;
#X obj 232 397 outlet;
#X obj 124 96 spigot;
#X obj 185 79 r parameters2-s;
#X connect 0 0 4 0;
#X connect 1 0 2 0;
#X connect 2 0 14 0;
#X connect 3 0 7 0;
#X connect 4 0 6 0;
#X connect 5 0 2 0;
#X connect 5 1 2 1;
#X connect 6 0 5 0;
#X connect 7 0 8 0;
#X connect 7 1 9 0;
#X connect 8 0 6 1;
#X connect 9 0 6 1;
#X connect 10 0 0 0;
#X connect 10 1 1 0;
#X connect 10 2 3 0;
#X connect 11 0 15 0;
#X connect 12 0 0 1;
#X connect 13 0 1 1;
#X connect 15 0 10 0;
#X connect 16 0 15 1;
#X restore 23 44 pd nudge-parameters;
#X connect 0 0 9 0;
#X connect 1 0 5 0;
#X connect 2 0 7 0;
#X connect 3 0 11 0;
#X connect 4 0 15 0;
#X connect 6 0 14 0;
#X connect 8 0 13 0;
#X connect 10 0 12 0;
#X connect 12 0 3 0;
#X connect 13 0 0 0;
#X connect 14 0 2 0;
#X connect 15 0 1 0;
#X restore 309 24 pd parameter-nudging-system;
#X obj 951 746 * 9950;
#X obj 701 809 *~ 1;
#X obj 770 810 *~ 1;
#N canvas 632 73 749 752 external-messages 0;
#X floatatom 186 706 5 0 0 0 - - -, f 5;
#X obj 185 328 spigot;
#X obj 218 288 tgl 15 0 empty empty empty 17 7 0 10 -262144 -1 -1 0
1;
#X obj 254 272 ==;
#X obj 269 248 f \$1;
#X obj 269 224 loadbang;
#X msg 185 202 \$1 \$2;
#X msg 185 156 symbol \$1;
#X obj 185 180 pack s f;
#X obj 186 685 f;
#X obj 186 633 t b f;
#X obj 186 656 spigot;
#X obj 185 62 unpack s f f;
#X symbolatom 185 94 10 0 0 0 - - -, f 10;
#X obj 218 308 t f f;
#X obj 245 332 s \$0-msg-spigot;
#X obj 234 640 r \$0-msg-spigot;
#X floatatom 223 594 5 0 0 0 - - -, f 5;
#X obj 223 573 f;
#X obj 223 521 t b f;
#X obj 223 544 spigot;
#X obj 271 528 r \$0-msg-spigot;
#X floatatom 387 639 5 0 0 0 - - -, f 5;
#X obj 387 618 f;
#X obj 387 566 t b f;
#X obj 387 589 spigot;
#X obj 435 573 r \$0-msg-spigot;
#X floatatom 424 527 5 0 0 0 - - -, f 5;
#X obj 424 506 f;
#X obj 424 454 t b f;
#X obj 424 477 spigot;
#X obj 472 461 r \$0-msg-spigot;
#X obj 185 14 r megaverb;
#X obj 185 380 route SIZE DAMPING LOWPASS DRY/WET;
#X obj 186 726 s \$0-megaverb-room-r;
#X obj 223 614 s \$0-megaverb-damping-r;
#X obj 387 659 s \$0-megaverb-lowpass-r;
#X obj 424 547 s \$0-megaverb-dry/wet-r;
#X connect 0 0 34 0;
#X connect 1 0 33 0;
#X connect 2 0 14 0;
#X connect 3 0 2 0;
#X connect 4 0 3 1;
#X connect 5 0 4 0;
#X connect 6 0 1 0;
#X connect 7 0 8 0;
#X connect 8 0 6 0;
#X connect 9 0 0 0;
#X connect 10 0 11 0;
#X connect 10 1 9 1;
#X connect 11 0 9 0;
#X connect 12 0 13 0;
#X connect 12 1 8 1;
#X connect 12 2 3 0;
#X connect 13 0 7 0;
#X connect 14 0 1 1;
#X connect 14 1 15 0;
#X connect 16 0 11 1;
#X connect 17 0 35 0;
#X connect 18 0 17 0;
#X connect 19 0 20 0;
#X connect 19 1 18 1;
#X connect 20 0 18 0;
#X connect 21 0 20 1;
#X connect 22 0 36 0;
#X connect 23 0 22 0;
#X connect 24 0 25 0;
#X connect 24 1 23 1;
#X connect 25 0 23 0;
#X connect 26 0 25 1;
#X connect 27 0 37 0;
#X connect 28 0 27 0;
#X connect 29 0 30 0;
#X connect 29 1 28 1;
#X connect 30 0 28 0;
#X connect 31 0 30 1;
#X connect 32 0 12 0;
#X connect 33 0 10 0;
#X connect 33 1 19 0;
#X connect 33 2 24 0;
#X connect 33 3 29 0;
#X restore 316 179 pd external-messages;
#X connect 0 0 60 0;
#X connect 1 0 17 0;
#X connect 3 0 4 0;
#X connect 4 0 69 0;
#X connect 5 0 0 0;
#X connect 6 0 7 0;
#X connect 7 0 115 0;
#X connect 7 0 116 0;
#X connect 8 0 9 0;
#X connect 9 0 10 0;
#X connect 10 0 11 0;
#X connect 11 0 12 0;
#X connect 12 0 13 0;
#X connect 13 0 7 1;
#X connect 15 0 16 0;
#X connect 16 0 70 0;
#X connect 17 0 21 0;
#X connect 19 0 102 0;
#X connect 20 0 19 0;
#X connect 21 0 101 0;
#X connect 22 0 30 0;
#X connect 22 0 28 0;
#X connect 23 0 31 1;
#X connect 24 0 33 1;
#X connect 24 0 34 1;
#X connect 25 0 32 1;
#X connect 26 0 34 0;
#X connect 26 0 33 0;
#X connect 27 0 45 0;
#X connect 28 0 44 0;
#X connect 29 0 43 0;
#X connect 30 0 42 0;
#X connect 31 0 35 0;
#X connect 31 0 22 0;
#X connect 31 0 85 0;
#X connect 32 0 22 1;
#X connect 32 0 35 1;
#X connect 32 0 87 0;
#X connect 33 0 29 1;
#X connect 33 0 27 1;
#X connect 34 0 30 1;
#X connect 34 0 28 1;
#X connect 35 0 29 0;
#X connect 35 0 27 0;
#X connect 36 0 48 1;
#X connect 36 0 50 0;
#X connect 36 0 82 0;
#X connect 37 0 51 1;
#X connect 37 0 53 0;
#X connect 37 0 81 0;
#X connect 38 0 56 0;
#X connect 38 0 54 1;
#X connect 38 0 80 0;
#X connect 39 0 59 0;
#X connect 39 0 57 1;
#X connect 39 0 79 0;
#X connect 40 0 115 0;
#X connect 41 0 116 0;
#X connect 46 0 47 0;
#X connect 46 0 66 0;
#X connect 47 0 31 0;
#X connect 47 1 32 0;
#X connect 48 0 49 0;
#X connect 49 0 50 1;
#X connect 50 0 23 0;
#X connect 51 0 52 0;
#X connect 52 0 53 1;
#X connect 53 0 25 0;
#X connect 54 0 55 0;
#X connect 55 0 56 1;
#X connect 56 0 26 0;
#X connect 57 0 58 0;
#X connect 58 0 59 1;
#X connect 59 0 24 0;
#X connect 60 0 40 1;
#X connect 60 0 41 1;
#X connect 61 0 71 0;
#X connect 62 0 63 0;
#X connect 63 0 64 0;
#X connect 64 0 65 0;
#X connect 65 0 25 1;
#X connect 65 0 23 1;
#X connect 65 0 26 1;
#X connect 65 0 24 1;
#X connect 69 0 5 0;
#X connect 70 0 61 0;
#X connect 71 0 62 0;
#X connect 72 0 73 0;
#X connect 73 0 76 0;
#X connect 74 0 75 0;
#X connect 74 0 99 0;
#X connect 75 0 88 0;
#X connect 76 0 114 0;
#X connect 77 0 64 1;
#X connect 78 0 77 0;
#X connect 79 0 57 0;
#X connect 80 0 54 0;
#X connect 81 0 51 0;
#X connect 82 0 48 0;
#X connect 83 0 89 0;
#X connect 83 0 91 0;
#X connect 84 0 40 0;
#X connect 85 0 84 0;
#X connect 86 0 41 0;
#X connect 87 0 86 0;
#X connect 88 0 87 1;
#X connect 88 0 86 1;
#X connect 88 0 84 1;
#X connect 88 0 85 1;
#X connect 89 0 90 0;
#X connect 90 0 76 0;
#X connect 90 1 76 1;
#X connect 91 0 93 0;
#X connect 92 0 94 0;
#X connect 93 0 92 0;
#X connect 94 0 95 0;
#X connect 95 0 76 1;
#X connect 96 0 97 0;
#X connect 97 0 89 0;
#X connect 98 0 96 0;
#X connect 101 0 49 1;
#X connect 101 0 52 1;
#X connect 101 0 55 1;
#X connect 101 0 58 1;
#X connect 102 0 1 0;
#X connect 102 0 100 0;
#X connect 108 0 110 0;
#X connect 110 0 111 0;
#X connect 111 0 109 0;
#X connect 114 0 74 0;
#X connect 115 0 67 0;
#X connect 116 0 68 0;
#X coords 0 -1 1 1 200 100 2 100 100;
