#N canvas 734 151 1266 729 10;
#X obj 144 457 / 127;
#X obj 145 522 sig~;
#X obj 266 471 / 127;
#X obj 149 652 outlet~ PITCH;
#X obj 268 649 outlet~ VELOCITY;
#X obj 149 360 t f f;
#X floatatom 215 156 5 0 0 2 - - - 0;
#X floatatom 156 156 5 0 0 2 - - - 0;
#X obj 163 178 cnv 5 5 5 empty empty NOTE 0 0 0 8 #fcfcfc #404040 0;
#X obj 231 178 cnv 5 5 5 empty empty VEL 0 0 0 8 #fcfcfc #000000 0;
#X obj 146 110 cnv 5 5 5 empty empty MIDI-polyIN 0 0 0 12 #fcfcfc #404040 0;
#X obj 106 134 hsl 128 15 0 127 0 0 \$0-midiin-channel-s \$0-midiin-channel-r MIDI-CHANNEL -2 -8 0 10 #fcfcfc #000000 #000000 0 1;
#X obj 708 93 r \$0-midiin-channel-s;
#X obj 708 115 / 127;
#X obj 708 137 * 15;
#X obj 708 159 + 1;
#X obj 708 181 i;
#X obj 708 372 s \$0-midiin-channel-gui-r;
#X floatatom 204 120 5 0 0 0 - \$0-midiin-channel-gui-r - 0;
#N canvas 531 165 1223 774 state-saving-multiple-instances 0;
#X obj 215 28 loadbang;
#X obj 261 480 state_saving_module/textfile \$0;
#X msg 556 463 rewind;
#X msg 513 463 bang;
#X obj 119 690 state_saving_module/textfile \$0;
#X obj 513 424 t b b;
#X obj 120 356 f;
#X obj 133 579 f;
#X obj 66 422 t b b b;
#X msg 196 579 clear;
#X obj 281 216 outlet;
#X text 277 236 INSTANCE NUMBER;
#X obj 242 92 f \$1;
#X obj 242 128 t f f f;
#X obj 215 61 t b b;
#X obj 66 331 bng 15 250 50 0 empty empty empty 17 7 0 10 #fcfcfc #000000 #000000;
#X obj 66 235 r SAVE-S;
#X msg 120 438 set \$1;
#X obj 120 399 pack f;
#X obj 261 502 unpack f;
#X obj 261 604 s \$0-midiin-channel-r;
#X msg 262 455 read statesave/\$1-midi-polyin-ss.txt;
#X msg 132 648 write statesave/\$1-midi-polyin-ss.txt;
#X obj 135 307 r \$0-midiin-channel-s;
#X connect 0 0 14 0;
#X connect 1 0 19 0;
#X connect 2 0 1 0;
#X connect 3 0 1 0;
#X connect 5 0 3 0;
#X connect 5 1 2 0;
#X connect 6 0 18 0;
#X connect 7 0 22 0;
#X connect 8 0 7 0;
#X connect 8 1 6 0;
#X connect 8 2 9 0;
#X connect 9 0 4 0;
#X connect 12 0 13 0;
#X connect 13 0 7 1;
#X connect 13 1 21 0;
#X connect 13 2 10 0;
#X connect 14 0 5 0;
#X connect 14 1 12 0;
#X connect 15 0 8 0;
#X connect 16 0 15 0;
#X connect 17 0 4 0;
#X connect 18 0 17 0;
#X connect 19 0 20 0;
#X connect 21 0 1 0;
#X connect 22 0 4 0;
#X connect 23 0 6 1;
#X restore 279 100 pd state-saving-multiple-instances;
#X obj 279 182 s \$0-instance-num;
#X obj 279 134 makefilename %d;
#X msg 279 159 label \$1;
#N canvas 81 22 1117 745 state-saving-via-preset-manager-module 0;
#X obj 477 349 state_saving_module/textfile \$0;
#X msg 755 332 rewind;
#X msg 712 332 bang;
#X obj 243 690 state_saving_module/textfile \$0;
#X obj 712 293 t b b;
#X obj 244 356 f;
#X obj 257 579 f;
#X obj 190 422 t b b b;
#X msg 320 579 clear;
#X obj 244 264 delay 5;
#X obj 190 484 delay 10;
#X msg 190 314 bang;
#X obj 190 147 r STORE-S!;
#X obj 477 250 f;
#X obj 450 207 t b b;
#X obj 465 171 t b f;
#X obj 522 268 f \$1;
#X obj 477 295 pack f f;
#X obj 522 218 loadbang;
#X obj 257 609 pack f f;
#X obj 302 467 loadbang;
#X obj 302 489 f \$1;
#X obj 476 566 pack f f;
#X obj 476 590 line;
#X obj 521 541 r preset-manager-morph-s;
#X obj 465 148 r preset-manager-scan;
#X obj 279 148 r preset-manager-store-slot;
#X msg 928 577 stop;
#X obj 928 542 r STOP-MORPH!;
#X msg 244 438 set \$1;
#X obj 259 308 r \$0-midiin-channel-s;
#X obj 476 615 s \$0-midiin-channel-r;
#X msg 256 650 write statesave/\$1-\$2-midi-polyin-ss.txt;
#X msg 477 324 read statesave/\$1-\$2-midi-polyin-ss.txt;
#X connect 0 0 22 0;
#X connect 1 0 0 0;
#X connect 2 0 0 0;
#X connect 4 0 2 0;
#X connect 4 1 1 0;
#X connect 5 0 29 0;
#X connect 6 0 19 0;
#X connect 7 0 10 0;
#X connect 7 1 9 0;
#X connect 7 2 8 0;
#X connect 8 0 3 0;
#X connect 9 0 5 0;
#X connect 10 0 6 0;
#X connect 11 0 7 0;
#X connect 12 0 11 0;
#X connect 13 0 17 0;
#X connect 14 0 4 0;
#X connect 14 1 13 0;
#X connect 15 0 14 0;
#X connect 15 1 13 1;
#X connect 16 0 17 1;
#X connect 17 0 33 0;
#X connect 18 0 16 0;
#X connect 19 0 32 0;
#X connect 20 0 21 0;
#X connect 21 0 19 1;
#X connect 22 0 23 0;
#X connect 23 0 31 0;
#X connect 24 0 22 1;
#X connect 25 0 15 0;
#X connect 26 0 6 1;
#X connect 27 0 23 0;
#X connect 28 0 27 0;
#X connect 29 0 3 0;
#X connect 30 0 5 1;
#X connect 32 0 3 0;
#X connect 33 0 0 0;
#X restore 278 74 pd state-saving-via-preset-manager-module;
#N canvas 297 27 748 331 parameter-nudging-system 0;
#N canvas 0 22 484 497 param-nudge 0;
#X obj 124 234 random;
#X obj 232 335 f;
#X obj 232 368 +;
#X obj 257 166 random 2;
#X obj 124 275 t f f;
#X obj 124 351 t b f;
#X obj 124 297 *;
#X obj 257 188 sel 0 1;
#X msg 257 280 -1;
#X msg 335 280 1;
#X obj 124 149 t b b b;
#X obj 124 123 r NUDGE!;
#X obj 157 193 r NUDGE-RANGE;
#X obj 247 308 inlet;
#X obj 232 397 outlet;
#X floatatom 316 396 5 0 0 0 - - - 0;
#X connect 0 0 4 0;
#X connect 1 0 2 0;
#X connect 2 0 14 0;
#X connect 2 0 15 0;
#X connect 3 0 7 0;
#X connect 4 0 6 0;
#X connect 5 0 2 0;
#X connect 5 1 2 1;
#X connect 6 0 5 0;
#X connect 7 0 8 0;
#X connect 7 1 9 0;
#X connect 8 0 6 1;
#X connect 9 0 6 1;
#X connect 10 0 0 0;
#X connect 10 1 1 0;
#X connect 10 2 3 0;
#X connect 11 0 10 0;
#X connect 12 0 0 1;
#X connect 13 0 1 1;
#X restore 23 45 pd param-nudge;
#X obj 23 67 clip 0 127;
#X obj 23 22 r \$0-midiin-channel-s;
#X obj 23 95 s \$0-midiin-channel-r;
#X connect 0 0 1 0;
#X connect 1 0 3 0;
#X connect 2 0 0 0;
#X restore 280 209 pd parameter-nudging-system;
#X obj 239 110 cnv 5 5 5 empty \$0-instance-num 0 0 0 0 12 #fcfcfc #404040 0;
#X obj 890 27 inlet~;
#X floatatom 708 203 5 0 0 0 - - - 0;
#X obj 708 291 +;
#X obj 891 146 snapshot~;
#X obj 891 173 * 16;
#X obj 891 274 t b f;
#X obj 1006 174 env~;
#X obj 1006 196 == 0;
#X msg 1006 287 0;
#X obj 1006 312 t b f;
#X obj 891 218 change;
#X obj 105 109 cnv 5 5 5 empty empty CHAN.-CV 0 0 0 8 #fcfcfc #404040 0;
#X floatatom 1006 240 5 0 0 0 - - - 0;
#X obj 1006 259 sel 1;
#X obj 1006 218 change;
#X obj 833 46 tgl 15 0 empty empty empty 17 7 0 10 #fcfcfc #000000 #000000 0 1;
#X obj 833 66 metro 20;
#X obj 708 313 i;
#X obj 708 335 clip 1 16;
#X obj 833 21 loadbang;
#X obj 50 10 savestate;
#N canvas 0 50 450 300 \$0-gui_listeners 0;
#X obj 10 0 state_saving_module/hsl_dispatch midi-polyin \$0 \$1 0 127 midiin-channel-s midiin-channel-r MIDI-CHANNEL #FFFFFF #000000 #000000;
#X restore 10 80 pd \$0-gui_listeners;
#X obj 10 50 state_saving_module midi-polyin \$0 \$1;
#X obj 3 271 unpack f f;
#X obj 25 487 s \$0-midi-gate-r;
#X obj 104 156 bng 15 50 50 0 empty \$0-midi-gate-r empty 17 7 0 10 #fcfcfc #9c00fc #000000;
#X obj -2 358 t b f f;
#X obj -2 411 t b b;
#X obj -5 585 vline~;
#X msg -5 563 1 0 \, 0 1 1;
#X obj 268 525 *~;
#X obj 268 556 *~;
#X obj 268 585 lop~ 10;
#X obj 267 614 clip~ 0 0.6;
#X obj 264 497 sig~;
#X obj 103 178 cnv 5 5 5 empty empty TRIGGER 0 0 0 8 #fcfcfc #dc4c90 0;
#N canvas 747 360 535 550 note_&_fifo 0;
#X obj 99 87 notein;
#X obj 99 184 pack f f;
#X msg 103 210 \$2 \$1;
#X obj 103 233 route 0;
#X obj 222 203 text define \$0-notes;
#X obj 172 310 text insert \$0-notes;
#X msg 216 281 1e+33;
#X obj 143 468 text delete \$0-notes;
#X obj 175 414 text get \$0-notes;
#X obj 215 259 loadbang;
#X msg 175 392 0;
#X obj 121 494 text size \$0-notes;
#X msg 244 130 clear;
#X obj 123 517 > 0;
#X obj 118 564 select 1;
#X obj 143 262 t b l;
#X obj 136 367 t b b b;
#X obj 172 124 == 1;
#X obj 190 27 r \$0-midiin-channel-gui-r;
#X obj 99 152 spigot 1;
#X msg 144 397 0;
#X obj 119 541 t f f;
#X obj 136 343 spigot 1;
#X obj 212 342 == 0;
#X obj 142 285 delay 1;
#X obj 18 561 delay 10;
#X obj 175 436 s \$0-fifo;
#X connect 0 0 19 0;
#X connect 0 1 1 1;
#X connect 0 2 17 0;
#X connect 1 0 2 0;
#X connect 2 0 3 0;
#X connect 3 1 15 0;
#X connect 6 0 5 1;
#X connect 8 0 26 0;
#X connect 9 0 6 0;
#X connect 10 0 8 0;
#X connect 11 0 13 0;
#X connect 12 0 4 0;
#X connect 13 0 21 0;
#X connect 14 0 25 0;
#X connect 15 0 24 0;
#X connect 15 1 5 0;
#X connect 16 0 11 0;
#X connect 16 1 20 0;
#X connect 16 2 10 0;
#X connect 17 0 19 1;
#X connect 18 0 17 1;
#X connect 19 0 1 0;
#X connect 20 0 7 0;
#X connect 21 0 14 0;
#X connect 21 1 23 0;
#X connect 22 0 16 0;
#X connect 23 0 22 1;
#X connect 24 0 22 0;
#X connect 25 0 16 0;
#X restore 279 269 pd note_&_fifo;
#X obj -2 615 outlet~ TRIGGER;
#X obj 4 246 r \$0-fifo;
#X obj 135 77 namecanvas \$0-this;
#X connect 0 0 1 0;
#X connect 1 0 3 0;
#X connect 2 0 60 0;
#X connect 5 0 0 0;
#X connect 5 1 7 0;
#X connect 12 0 13 0;
#X connect 13 0 14 0;
#X connect 14 0 15 0;
#X connect 15 0 16 0;
#X connect 16 0 27 0;
#X connect 19 0 21 0;
#X connect 21 0 22 0;
#X connect 22 0 20 0;
#X connect 26 0 29 0;
#X connect 26 0 32 0;
#X connect 27 0 28 0;
#X connect 28 0 43 0;
#X connect 29 0 30 0;
#X connect 30 0 36 0;
#X connect 31 0 28 0;
#X connect 31 1 28 1;
#X connect 32 0 33 0;
#X connect 33 0 40 0;
#X connect 34 0 35 0;
#X connect 35 0 28 0;
#X connect 35 1 28 1;
#X connect 36 0 31 0;
#X connect 38 0 39 0;
#X connect 39 0 34 0;
#X connect 40 0 38 0;
#X connect 41 0 42 0;
#X connect 42 0 29 0;
#X connect 43 0 44 0;
#X connect 44 0 17 0;
#X connect 45 0 41 0;
#X connect 46 0 48 0;
#X connect 46 1 48 1;
#X connect 48 0 46 0;
#X connect 49 0 52 0;
#X connect 49 1 5 0;
#X connect 52 0 53 0;
#X connect 52 1 2 0;
#X connect 52 2 6 0;
#X connect 53 0 55 0;
#X connect 53 1 50 0;
#X connect 54 0 63 0;
#X connect 55 0 54 0;
#X connect 56 0 57 0;
#X connect 56 0 57 1;
#X connect 57 0 58 0;
#X connect 58 0 59 0;
#X connect 59 0 4 0;
#X connect 60 0 56 0;
#X connect 60 0 56 1;
#X connect 64 0 49 0;
#X coords 0 -1 1 1 150 85 2 100 100;
