#N canvas 14 26 1266 729 10;
#X obj 79 608 / 127;
#X obj 79 630 sig~;
#X obj 158 380 > 0;
#X obj 158 571 pack 0 10;
#X obj 158 593 line~;
#X obj 257 375 / 127;
#X obj 257 397 sig~;
#X obj 79 652 outlet~ PITCH;
#X obj 158 615 outlet~ GATE;
#X obj 257 419 outlet~ VELOCITY;
#X obj 167 156 cnv 15 15 15 empty \$0-midi-gui-r empty 20 12 0 14 -258699
-262144 0;
#X obj 185 432 + 12;
#X msg 185 454 color \$1;
#X obj 185 487 s \$0-midi-gui-r;
#X obj 158 411 t f f;
#X obj 79 360 t f f;
#X floatatom 215 156 5 0 0 2 - - -, f 5;
#X floatatom 103 156 5 0 0 2 - - -, f 5;
#X obj 103 178 cnv 5 5 5 empty empty NOTE 0 0 0 8 -262144 -66577 0
;
#X obj 165 178 cnv 5 5 5 empty empty GATE 0 0 0 8 -262144 -66577 0
;
#X obj 231 178 cnv 5 5 5 empty empty VEL 0 0 0 8 -262144 -1 0;
#X obj 175 110 cnv 5 5 5 empty empty MIDI-IN 0 0 0 12 -262144 -66577
0;
#X obj 158 358 t f f f;
#X obj 106 134 hsl 128 15 0 127 0 0 \$0-midiin-channel-s \$0-midiin-channel-r
MIDI-CHANNEL -2 -8 0 10 -262144 -1 -1 0 1;
#X obj 708 93 r \$0-midiin-channel-s;
#X obj 708 115 / 127;
#X obj 708 137 * 15;
#X obj 708 159 + 1;
#X obj 708 181 i;
#X obj 708 372 s \$0-midiin-channel-gui-r;
#X floatatom 204 120 5 0 0 0 - #0-midiin-channel-gui-r -, f 5;
#N canvas 0 22 935 606 channels-1to16 0;
#X obj 10 108 notein 1;
#X obj 99 47 r \$0-midiin-channel-gui-r;
#X obj 99 75 == 1;
#X obj 10 133 spigot;
#X obj 55 133 spigot;
#X floatatom 99 97 5 0 0 0 - - -, f 5;
#X obj 99 116 t f f;
#X obj 272 43 r \$0-midiin-channel-gui-r;
#X obj 183 129 spigot;
#X obj 228 129 spigot;
#X floatatom 272 93 5 0 0 0 - - -, f 5;
#X obj 272 112 t f f;
#X obj 183 104 notein 2;
#X obj 272 71 == 2;
#X obj 441 35 r \$0-midiin-channel-gui-r;
#X obj 352 121 spigot;
#X obj 397 121 spigot;
#X floatatom 441 85 5 0 0 0 - - -, f 5;
#X obj 441 104 t f f;
#X obj 352 96 notein 3;
#X obj 68 565 outlet;
#X obj 127 565 outlet;
#X obj 441 63 == 3;
#X obj 624 35 r \$0-midiin-channel-gui-r;
#X obj 535 121 spigot;
#X obj 580 121 spigot;
#X floatatom 624 85 5 0 0 0 - - -, f 5;
#X obj 624 104 t f f;
#X obj 535 96 notein 4;
#X obj 624 63 == 4;
#X obj 192 169 r \$0-midiin-channel-gui-r;
#X obj 103 255 spigot;
#X obj 148 255 spigot;
#X floatatom 192 219 5 0 0 0 - - -, f 5;
#X obj 192 238 t f f;
#X obj 365 165 r \$0-midiin-channel-gui-r;
#X obj 276 251 spigot;
#X obj 321 251 spigot;
#X floatatom 365 215 5 0 0 0 - - -, f 5;
#X obj 365 234 t f f;
#X obj 534 157 r \$0-midiin-channel-gui-r;
#X obj 445 243 spigot;
#X obj 490 243 spigot;
#X floatatom 534 207 5 0 0 0 - - -, f 5;
#X obj 534 226 t f f;
#X obj 717 157 r \$0-midiin-channel-gui-r;
#X obj 628 243 spigot;
#X obj 673 243 spigot;
#X floatatom 717 207 5 0 0 0 - - -, f 5;
#X obj 717 226 t f f;
#X obj 103 230 notein 5;
#X obj 192 197 == 5;
#X obj 365 193 == 6;
#X obj 276 226 notein 6;
#X obj 445 218 notein 7;
#X obj 534 185 == 7;
#X obj 717 185 == 8;
#X obj 628 218 notein 8;
#X obj 244 294 r \$0-midiin-channel-gui-r;
#X obj 155 380 spigot;
#X obj 200 380 spigot;
#X floatatom 244 344 5 0 0 0 - - -, f 5;
#X obj 244 363 t f f;
#X obj 417 290 r \$0-midiin-channel-gui-r;
#X obj 328 376 spigot;
#X obj 373 376 spigot;
#X floatatom 417 340 5 0 0 0 - - -, f 5;
#X obj 417 359 t f f;
#X obj 586 282 r \$0-midiin-channel-gui-r;
#X obj 497 368 spigot;
#X obj 542 368 spigot;
#X floatatom 586 332 5 0 0 0 - - -, f 5;
#X obj 586 351 t f f;
#X obj 769 282 r \$0-midiin-channel-gui-r;
#X obj 680 368 spigot;
#X obj 725 368 spigot;
#X floatatom 769 332 5 0 0 0 - - -, f 5;
#X obj 769 351 t f f;
#X obj 337 416 r \$0-midiin-channel-gui-r;
#X obj 248 502 spigot;
#X obj 293 502 spigot;
#X floatatom 337 466 5 0 0 0 - - -, f 5;
#X obj 337 485 t f f;
#X obj 510 412 r \$0-midiin-channel-gui-r;
#X obj 421 498 spigot;
#X obj 466 498 spigot;
#X floatatom 510 462 5 0 0 0 - - -, f 5;
#X obj 510 481 t f f;
#X obj 679 404 r \$0-midiin-channel-gui-r;
#X obj 590 490 spigot;
#X obj 635 490 spigot;
#X floatatom 679 454 5 0 0 0 - - -, f 5;
#X obj 679 473 t f f;
#X obj 862 404 r \$0-midiin-channel-gui-r;
#X obj 773 490 spigot;
#X obj 818 490 spigot;
#X floatatom 862 454 5 0 0 0 - - -, f 5;
#X obj 862 473 t f f;
#X obj 155 355 notein 9;
#X obj 244 322 == 9;
#X obj 417 318 == 10;
#X obj 328 351 notein 10;
#X obj 497 343 notein 11;
#X obj 586 310 == 11;
#X obj 680 343 notein 12;
#X obj 769 310 == 12;
#X obj 248 477 notein 13;
#X obj 337 444 == 13;
#X obj 510 440 == 14;
#X obj 421 473 notein 14;
#X obj 590 465 notein 15;
#X obj 679 432 == 15;
#X obj 773 465 notein 16;
#X obj 862 432 == 16;
#X connect 0 0 3 0;
#X connect 0 1 4 0;
#X connect 1 0 2 0;
#X connect 2 0 5 0;
#X connect 3 0 20 0;
#X connect 4 0 21 0;
#X connect 5 0 6 0;
#X connect 6 0 4 1;
#X connect 6 1 3 1;
#X connect 7 0 13 0;
#X connect 8 0 20 0;
#X connect 9 0 21 0;
#X connect 10 0 11 0;
#X connect 11 0 9 1;
#X connect 11 1 8 1;
#X connect 12 0 8 0;
#X connect 12 1 9 0;
#X connect 13 0 10 0;
#X connect 14 0 22 0;
#X connect 15 0 20 0;
#X connect 16 0 21 0;
#X connect 17 0 18 0;
#X connect 18 0 16 1;
#X connect 18 1 15 1;
#X connect 19 0 15 0;
#X connect 19 1 16 0;
#X connect 22 0 17 0;
#X connect 23 0 29 0;
#X connect 24 0 20 0;
#X connect 25 0 21 0;
#X connect 26 0 27 0;
#X connect 27 0 25 1;
#X connect 27 1 24 1;
#X connect 28 0 24 0;
#X connect 28 1 25 0;
#X connect 29 0 26 0;
#X connect 30 0 51 0;
#X connect 31 0 20 0;
#X connect 32 0 21 0;
#X connect 33 0 34 0;
#X connect 34 0 32 1;
#X connect 34 1 31 1;
#X connect 35 0 52 0;
#X connect 36 0 20 0;
#X connect 37 0 21 0;
#X connect 38 0 39 0;
#X connect 39 0 37 1;
#X connect 39 1 36 1;
#X connect 40 0 55 0;
#X connect 41 0 20 0;
#X connect 42 0 21 0;
#X connect 43 0 44 0;
#X connect 44 0 42 1;
#X connect 44 1 41 1;
#X connect 45 0 56 0;
#X connect 46 0 20 0;
#X connect 47 0 21 0;
#X connect 48 0 49 0;
#X connect 49 0 47 1;
#X connect 49 1 46 1;
#X connect 50 0 31 0;
#X connect 50 1 32 0;
#X connect 51 0 33 0;
#X connect 52 0 38 0;
#X connect 53 0 36 0;
#X connect 53 1 37 0;
#X connect 54 0 41 0;
#X connect 54 1 42 0;
#X connect 55 0 43 0;
#X connect 56 0 48 0;
#X connect 57 0 46 0;
#X connect 57 1 47 0;
#X connect 58 0 99 0;
#X connect 59 0 20 0;
#X connect 60 0 21 0;
#X connect 61 0 62 0;
#X connect 62 0 60 1;
#X connect 62 1 59 1;
#X connect 63 0 100 0;
#X connect 64 0 20 0;
#X connect 65 0 21 0;
#X connect 66 0 67 0;
#X connect 67 0 65 1;
#X connect 67 1 64 1;
#X connect 68 0 103 0;
#X connect 69 0 20 0;
#X connect 70 0 21 0;
#X connect 71 0 72 0;
#X connect 72 0 70 1;
#X connect 72 1 69 1;
#X connect 73 0 105 0;
#X connect 74 0 20 0;
#X connect 75 0 21 0;
#X connect 76 0 77 0;
#X connect 77 0 75 1;
#X connect 77 1 74 1;
#X connect 78 0 107 0;
#X connect 79 0 20 0;
#X connect 80 0 21 0;
#X connect 81 0 82 0;
#X connect 82 0 80 1;
#X connect 82 1 79 1;
#X connect 83 0 108 0;
#X connect 84 0 20 0;
#X connect 85 0 21 0;
#X connect 86 0 87 0;
#X connect 87 0 85 1;
#X connect 87 1 84 1;
#X connect 88 0 111 0;
#X connect 89 0 20 0;
#X connect 90 0 21 0;
#X connect 91 0 92 0;
#X connect 92 0 90 1;
#X connect 92 1 89 1;
#X connect 93 0 113 0;
#X connect 94 0 20 0;
#X connect 95 0 21 0;
#X connect 96 0 97 0;
#X connect 97 0 95 1;
#X connect 97 1 94 1;
#X connect 98 0 59 0;
#X connect 98 1 60 0;
#X connect 99 0 61 0;
#X connect 100 0 66 0;
#X connect 101 0 64 0;
#X connect 101 1 65 0;
#X connect 102 0 69 0;
#X connect 102 1 70 0;
#X connect 103 0 71 0;
#X connect 104 0 74 0;
#X connect 104 1 75 0;
#X connect 105 0 76 0;
#X connect 106 0 79 0;
#X connect 106 1 80 0;
#X connect 107 0 81 0;
#X connect 108 0 86 0;
#X connect 109 0 84 0;
#X connect 109 1 85 0;
#X connect 110 0 89 0;
#X connect 110 1 90 0;
#X connect 111 0 91 0;
#X connect 112 0 94 0;
#X connect 112 1 95 0;
#X connect 113 0 96 0;
#X restore 79 227 pd channels-1to16;
#N canvas 21 22 593 735 state-saving-multiple-instances 0;
#X obj 215 28 loadbang;
#X obj 261 480 textfile;
#X msg 556 463 rewind;
#X msg 513 463 bang;
#X obj 119 690 textfile;
#X obj 513 424 t b b;
#X obj 120 356 f;
#X obj 133 579 f;
#X obj 66 422 t b b b;
#X msg 196 579 clear;
#X obj 281 216 outlet;
#X text 277 236 INSTANCE NUMBER;
#X obj 242 92 f \$1;
#X obj 242 128 t f f f;
#X obj 215 61 t b b;
#X obj 66 331 bng 15 250 50 0 empty empty empty 17 7 0 10 -262144 -1
-1;
#X obj 66 235 r SAVE-S;
#X msg 120 438 set \$1;
#X obj 120 399 pack f;
#X obj 261 502 unpack f;
#X obj 135 307 r \$0-midiin-channel-s;
#X obj 261 604 s \$0-midiin-channel-r;
#X msg 262 455 read statesave/\$1-midi-in-ss.txt;
#X msg 132 648 write statesave/\$1-midi-in-ss.txt;
#X connect 0 0 14 0;
#X connect 1 0 19 0;
#X connect 2 0 1 0;
#X connect 3 0 1 0;
#X connect 5 0 3 0;
#X connect 5 1 2 0;
#X connect 6 0 18 0;
#X connect 7 0 23 0;
#X connect 8 0 7 0;
#X connect 8 1 6 0;
#X connect 8 2 9 0;
#X connect 9 0 4 0;
#X connect 12 0 13 0;
#X connect 13 0 7 1;
#X connect 13 1 22 0;
#X connect 13 2 10 0;
#X connect 14 0 5 0;
#X connect 14 1 12 0;
#X connect 15 0 8 0;
#X connect 16 0 15 0;
#X connect 17 0 4 0;
#X connect 18 0 17 0;
#X connect 19 0 21 0;
#X connect 20 0 6 1;
#X connect 22 0 1 0;
#X connect 23 0 4 0;
#X restore 279 100 pd state-saving-multiple-instances;
#X obj 279 182 s \$0-instance-num;
#X obj 279 134 makefilename %d;
#X msg 279 159 label \$1;
#N canvas 81 22 1117 745 state-saving-via-preset-manager-module 0;
#X obj 477 349 textfile;
#X msg 755 332 rewind;
#X msg 712 332 bang;
#X obj 243 690 textfile;
#X obj 712 293 t b b;
#X obj 244 356 f;
#X obj 257 579 f;
#X obj 190 422 t b b b;
#X msg 320 579 clear;
#X obj 244 264 delay 5;
#X obj 190 484 delay 10;
#X msg 190 314 bang;
#X obj 190 147 r STORE-S!;
#X obj 477 250 f;
#X obj 450 207 t b b;
#X obj 465 171 t b f;
#X obj 522 268 f \$1;
#X obj 477 295 pack f f;
#X obj 522 218 loadbang;
#X obj 257 609 pack f f;
#X obj 302 467 loadbang;
#X obj 302 489 f \$1;
#X obj 476 566 pack f f;
#X obj 476 590 line;
#X obj 521 541 r preset-manager-morph-s;
#X obj 465 148 r preset-manager-scan;
#X obj 279 148 r preset-manager-store-slot;
#X msg 928 577 stop;
#X obj 928 542 r STOP-MORPH!;
#X msg 244 438 set \$1;
#X obj 259 308 r \$0-midiin-channel-s;
#X obj 476 615 s \$0-midiin-channel-r;
#X msg 256 650 write statesave/\$1-\$2-midi-in-ss.txt;
#X msg 477 324 read statesave/\$1-\$2-midi-in-ss.txt;
#X connect 0 0 22 0;
#X connect 1 0 0 0;
#X connect 2 0 0 0;
#X connect 4 0 2 0;
#X connect 4 1 1 0;
#X connect 5 0 29 0;
#X connect 6 0 19 0;
#X connect 7 0 10 0;
#X connect 7 1 9 0;
#X connect 7 2 8 0;
#X connect 8 0 3 0;
#X connect 9 0 5 0;
#X connect 10 0 6 0;
#X connect 11 0 7 0;
#X connect 12 0 11 0;
#X connect 13 0 17 0;
#X connect 14 0 4 0;
#X connect 14 1 13 0;
#X connect 15 0 14 0;
#X connect 15 1 13 1;
#X connect 16 0 17 1;
#X connect 17 0 33 0;
#X connect 18 0 16 0;
#X connect 19 0 32 0;
#X connect 20 0 21 0;
#X connect 21 0 19 1;
#X connect 22 0 23 0;
#X connect 23 0 31 0;
#X connect 24 0 22 1;
#X connect 25 0 15 0;
#X connect 26 0 6 1;
#X connect 27 0 23 0;
#X connect 28 0 27 0;
#X connect 29 0 3 0;
#X connect 30 0 5 1;
#X connect 32 0 3 0;
#X connect 33 0 0 0;
#X restore 278 74 pd state-saving-via-preset-manager-module;
#N canvas 297 27 748 331 parameter-nudging-system 0;
#N canvas 0 22 484 497 param-nudge 0;
#X obj 124 234 random;
#X obj 232 335 f;
#X obj 232 368 +;
#X obj 257 166 random 2;
#X obj 124 275 t f f;
#X obj 124 351 t b f;
#X obj 124 297 *;
#X obj 257 188 sel 0 1;
#X msg 257 280 -1;
#X msg 335 280 1;
#X obj 124 149 t b b b;
#X obj 124 123 r NUDGE!;
#X obj 157 193 r NUDGE-RANGE;
#X obj 247 308 inlet;
#X obj 232 397 outlet;
#X floatatom 316 396 5 0 0 0 - - -, f 5;
#X connect 0 0 4 0;
#X connect 1 0 2 0;
#X connect 2 0 14 0;
#X connect 2 0 15 0;
#X connect 3 0 7 0;
#X connect 4 0 6 0;
#X connect 5 0 2 0;
#X connect 5 1 2 1;
#X connect 6 0 5 0;
#X connect 7 0 8 0;
#X connect 7 1 9 0;
#X connect 8 0 6 1;
#X connect 9 0 6 1;
#X connect 10 0 0 0;
#X connect 10 1 1 0;
#X connect 10 2 3 0;
#X connect 11 0 10 0;
#X connect 12 0 0 1;
#X connect 13 0 1 1;
#X restore 23 45 pd param-nudge;
#X obj 23 67 clip 0 127;
#X obj 23 22 r \$0-midiin-channel-s;
#X obj 23 95 s \$0-midiin-channel-r;
#X connect 0 0 1 0;
#X connect 1 0 3 0;
#X connect 2 0 0 0;
#X restore 280 209 pd parameter-nudging-system;
#X obj 230 110 cnv 5 5 5 empty \$0-instance-num 1 0 0 0 12 -262144
-66577 0;
#X obj 890 27 inlet~;
#X floatatom 708 203 5 0 0 0 - - -, f 5;
#X obj 708 291 +;
#X obj 891 146 snapshot~;
#X obj 891 173 * 16;
#X obj 891 274 t b f;
#X obj 1006 174 env~;
#X obj 1006 196 == 0;
#X msg 1006 287 0;
#X obj 1006 312 t b f;
#X obj 891 218 change;
#X obj 105 109 cnv 5 5 5 empty empty CHANNEL-CV 0 0 0 8 -262144 -66577
0;
#X floatatom 1006 240 5 0 0 0 - - -, f 5;
#X obj 1006 259 sel 1;
#X obj 1006 218 change;
#X obj 833 46 tgl 15 0 empty empty empty 17 7 0 10 -262144 -1 -1 1
1;
#X obj 833 66 metro 20;
#X obj 708 313 i;
#X obj 708 335 clip 1 16;
#X obj 833 21 loadbang;
#X connect 0 0 1 0;
#X connect 1 0 7 0;
#X connect 2 0 14 0;
#X connect 3 0 4 0;
#X connect 4 0 8 0;
#X connect 5 0 6 0;
#X connect 6 0 9 0;
#X connect 11 0 12 0;
#X connect 12 0 13 0;
#X connect 14 0 3 0;
#X connect 14 1 11 0;
#X connect 15 0 0 0;
#X connect 15 1 17 0;
#X connect 22 0 2 0;
#X connect 22 1 5 0;
#X connect 22 2 16 0;
#X connect 24 0 25 0;
#X connect 25 0 26 0;
#X connect 26 0 27 0;
#X connect 27 0 28 0;
#X connect 28 0 40 0;
#X connect 31 0 15 0;
#X connect 31 1 22 0;
#X connect 32 0 34 0;
#X connect 34 0 35 0;
#X connect 35 0 33 0;
#X connect 39 0 42 0;
#X connect 39 0 45 0;
#X connect 40 0 41 0;
#X connect 41 0 56 0;
#X connect 42 0 43 0;
#X connect 43 0 49 0;
#X connect 44 0 41 0;
#X connect 44 1 41 1;
#X connect 45 0 46 0;
#X connect 46 0 53 0;
#X connect 47 0 48 0;
#X connect 48 0 41 0;
#X connect 48 1 41 1;
#X connect 49 0 44 0;
#X connect 51 0 52 0;
#X connect 52 0 47 0;
#X connect 53 0 51 0;
#X connect 54 0 55 0;
#X connect 55 0 42 0;
#X connect 56 0 57 0;
#X connect 57 0 29 0;
#X connect 58 0 54 0;
#X coords 0 -1 1 1 150 85 2 100 100;
