#N canvas 0 23 780 489 10;
#X obj 348 84 inlet~;
#X obj 348 195 *~;
#X obj 348 364 outlet~;
#X obj 108 134 hsl 128 15 0 127 0 1 \$0-mixer-channel1-s \$0-mixer-channel1-r
CH1 133 7 0 10 -262144 -1 -1 12700 1;
#X obj 363 129 / 127;
#X obj 363 151 pack 0 50;
#X obj 363 173 line~;
#X obj 444 80 inlet~;
#X obj 444 191 *~;
#X obj 459 125 / 127;
#X obj 459 147 pack 0 50;
#X obj 459 169 line~;
#X obj 540 81 inlet~;
#X obj 540 192 *~;
#X obj 555 126 / 127;
#X obj 555 148 pack 0 50;
#X obj 555 170 line~;
#X obj 629 81 inlet~;
#X obj 629 192 *~;
#X obj 644 126 / 127;
#X obj 644 148 pack 0 50;
#X obj 644 170 line~;
#X obj 108 149 hsl 128 15 0 127 0 1 \$0-mixer-channel2-s \$0-mixer-channel2-r
CH2 133 7 0 10 -262144 -1 -1 12700 1;
#X obj 108 164 hsl 128 15 0 127 0 1 \$0-mixer-channel3-s \$0-mixer-channel3-r
CH3 133 7 0 10 -262144 -1 -1 12700 1;
#X obj 108 179 hsl 128 15 0 127 0 1 \$0-mixer-channel4-s \$0-mixer-channel4-r
CH4 133 7 0 10 -262144 -1 -1 12700 1;
#X obj 152 125 cnv 5 5 5 empty empty MIXER4 0 0 0 12 -262144 -66577
0;
#X obj 246 203 cnv 5 5 5 empty empty UNITY 0 0 0 8 -262144 -66577 0
;
#X obj 255 111 cnv 5 5 5 empty empty CH4 0 0 0 8 -262144 -66577 0;
#X obj 103 111 cnv 5 5 5 empty empty CH1 0 0 0 8 -262144 -66577 0;
#X obj 153 111 cnv 5 5 5 empty empty CH2 0 0 0 8 -262144 -66577 0;
#X obj 208 111 cnv 5 5 5 empty empty CH3 0 0 0 8 -262144 -66577 0;
#N canvas 0 22 593 735 state-saving-multiple-instances 0;
#X obj 220 27 loadbang;
#X obj 266 480 textfile;
#X obj 220 60 t b b;
#X obj 266 502 unpack f f f f;
#X msg 523 463 rewind;
#X msg 480 463 bang;
#X obj 124 690 textfile;
#X obj 480 424 t b b;
#X obj 125 399 pack f f f f;
#X obj 125 356 f;
#X obj 138 579 f;
#X obj 63 402 t b b b;
#X msg 201 579 clear;
#X msg 125 437 set \$1 \$2 \$3 \$4;
#X obj 286 216 outlet;
#X text 282 236 INSTANCE NUMBER;
#X obj 247 151 f \$1;
#X obj 247 187 t f f f;
#X obj 63 377 bng 15 250 50 0 empty empty empty 17 7 0 10 -262144 -1
-1;
#X obj 63 273 r SAVE-S;
#X obj 140 308 r \$0-mixer-channel1-s;
#X obj 148 332 r \$0-mixer-channel2-s;
#X obj 171 352 r \$0-mixer-channel3-s;
#X obj 194 373 r \$0-mixer-channel4-s;
#X obj 347 537 s \$0-mixer-channel4-r;
#X obj 320 567 s \$0-mixer-channel3-r;
#X obj 293 593 s \$0-mixer-channel2-r;
#X obj 266 616 s \$0-mixer-channel1-r;
#X msg 137 650 write statesave/\$1-mixer4-ss.txt;
#X msg 266 455 read statesave/\$1-mixer4-ss.txt;
#X connect 0 0 2 0;
#X connect 1 0 3 0;
#X connect 2 0 7 0;
#X connect 2 1 16 0;
#X connect 3 0 27 0;
#X connect 3 1 26 0;
#X connect 3 2 25 0;
#X connect 3 3 24 0;
#X connect 4 0 1 0;
#X connect 5 0 1 0;
#X connect 7 0 5 0;
#X connect 7 1 4 0;
#X connect 8 0 13 0;
#X connect 9 0 8 0;
#X connect 10 0 28 0;
#X connect 11 0 10 0;
#X connect 11 1 9 0;
#X connect 11 2 12 0;
#X connect 12 0 6 0;
#X connect 13 0 6 0;
#X connect 16 0 17 0;
#X connect 17 0 10 1;
#X connect 17 1 29 0;
#X connect 17 2 14 0;
#X connect 18 0 11 0;
#X connect 19 0 18 0;
#X connect 20 0 9 1;
#X connect 21 0 8 1;
#X connect 22 0 8 2;
#X connect 23 0 8 3;
#X connect 28 0 6 0;
#X connect 29 0 1 0;
#X restore 40 316 pd state-saving-multiple-instances;
#X obj 348 332 *~ 0.25;
#X obj 40 388 s \$0-instance-num;
#X obj 40 340 makefilename %d;
#X obj 207 125 cnv 5 5 5 empty \$0-instance-num 1 0 0 0 12 -262144
-66577 0;
#X msg 40 365 label \$1;
#N canvas 81 22 1117 745 state-saving-via-preset-manager-module 0;
#X obj 477 349 textfile;
#X msg 755 332 rewind;
#X msg 712 332 bang;
#X obj 243 690 textfile;
#X obj 712 293 t b b;
#X obj 244 356 f;
#X obj 257 579 f;
#X obj 190 474 t b b b;
#X msg 373 621 clear;
#X obj 244 180 delay 5;
#X obj 190 529 delay 10;
#X msg 190 314 bang;
#X obj 190 155 r STORE-S!;
#X obj 477 250 f;
#X obj 450 207 t b b;
#X obj 465 171 t b f;
#X obj 522 268 f \$1;
#X obj 477 295 pack f f;
#X obj 522 218 loadbang;
#X obj 257 609 pack f f;
#X obj 302 562 loadbang;
#X obj 302 584 f \$1;
#X obj 465 107 r preset-manager-scan;
#X obj 272 540 r preset-manager-store-slot;
#X msg 243 490 set \$1 \$2 \$3 \$4;
#X obj 244 423 pack f f f f;
#X obj 477 371 unpack f f f f;
#X obj 465 129 i;
#X msg 256 650 write statesave/\$1-\$2-mixer4-ss.txt;
#X msg 477 324 read statesave/\$1-\$2-mixer4-ss.txt;
#X obj 259 308 r \$0-mixer-channel1-s;
#X obj 477 713 s \$0-mixer-channel1-r;
#X obj 267 330 r \$0-mixer-channel2-s;
#X obj 504 615 s \$0-mixer-channel2-r;
#X obj 290 352 r \$0-mixer-channel3-s;
#X obj 531 518 s \$0-mixer-channel3-r;
#X obj 313 374 r \$0-mixer-channel4-s;
#X obj 558 467 s \$0-mixer-channel4-r;
#N canvas 0 22 1069 747 morph-parameters 0;
#X obj 176 94 inlet;
#X obj 176 236 pack f f;
#X obj 176 261 line;
#X obj 209 117 r preset-manager-morph-s;
#X msg 72 244 stop;
#X obj 72 214 r STOP-MORPH!;
#X obj 209 206 spigot;
#X obj 398 137 t f f;
#X obj 455 154 == 0;
#X obj 221 176 f;
#X floatatom 455 222 5 0 0 0 - - -, f 5;
#X obj 398 159 t b f;
#X floatatom 425 192 5 0 0 0 - - -, f 5;
#X obj 209 139 t f f;
#X obj 398 102 r parameters-s;
#X obj 176 288 outlet;
#X connect 0 0 1 0;
#X connect 1 0 2 0;
#X connect 2 0 15 0;
#X connect 3 0 13 0;
#X connect 4 0 2 0;
#X connect 5 0 4 0;
#X connect 6 0 1 1;
#X connect 7 0 11 0;
#X connect 7 1 8 0;
#X connect 8 0 10 0;
#X connect 9 0 6 0;
#X connect 10 0 1 1;
#X connect 11 0 9 0;
#X connect 11 1 12 0;
#X connect 12 0 6 1;
#X connect 13 0 6 0;
#X connect 13 1 9 1;
#X connect 14 0 7 0;
#X restore 504 588 pd morph-parameters;
#N canvas 0 22 1069 747 morph-parameters 0;
#X obj 176 94 inlet;
#X obj 176 236 pack f f;
#X obj 176 261 line;
#X obj 209 117 r preset-manager-morph-s;
#X msg 72 244 stop;
#X obj 72 214 r STOP-MORPH!;
#X obj 209 206 spigot;
#X obj 398 137 t f f;
#X obj 455 154 == 0;
#X obj 221 176 f;
#X floatatom 455 222 5 0 0 0 - - -, f 5;
#X obj 398 159 t b f;
#X floatatom 425 192 5 0 0 0 - - -, f 5;
#X obj 209 139 t f f;
#X obj 398 102 r parameters-s;
#X obj 176 288 outlet;
#X connect 0 0 1 0;
#X connect 1 0 2 0;
#X connect 2 0 15 0;
#X connect 3 0 13 0;
#X connect 4 0 2 0;
#X connect 5 0 4 0;
#X connect 6 0 1 1;
#X connect 7 0 11 0;
#X connect 7 1 8 0;
#X connect 8 0 10 0;
#X connect 9 0 6 0;
#X connect 10 0 1 1;
#X connect 11 0 9 0;
#X connect 11 1 12 0;
#X connect 12 0 6 1;
#X connect 13 0 6 0;
#X connect 13 1 9 1;
#X connect 14 0 7 0;
#X restore 477 688 pd morph-parameters;
#N canvas 0 22 1069 747 morph-parameters 0;
#X obj 176 94 inlet;
#X obj 176 236 pack f f;
#X obj 176 261 line;
#X obj 209 117 r preset-manager-morph-s;
#X msg 72 244 stop;
#X obj 72 214 r STOP-MORPH!;
#X obj 209 206 spigot;
#X obj 398 137 t f f;
#X obj 455 154 == 0;
#X obj 221 176 f;
#X floatatom 455 222 5 0 0 0 - - -, f 5;
#X obj 398 159 t b f;
#X floatatom 425 192 5 0 0 0 - - -, f 5;
#X obj 209 139 t f f;
#X obj 398 102 r parameters-s;
#X obj 176 288 outlet;
#X connect 0 0 1 0;
#X connect 1 0 2 0;
#X connect 2 0 15 0;
#X connect 3 0 13 0;
#X connect 4 0 2 0;
#X connect 5 0 4 0;
#X connect 6 0 1 1;
#X connect 7 0 11 0;
#X connect 7 1 8 0;
#X connect 8 0 10 0;
#X connect 9 0 6 0;
#X connect 10 0 1 1;
#X connect 11 0 9 0;
#X connect 11 1 12 0;
#X connect 12 0 6 1;
#X connect 13 0 6 0;
#X connect 13 1 9 1;
#X connect 14 0 7 0;
#X restore 531 494 pd morph-parameters;
#N canvas 0 22 1069 747 morph-parameters 0;
#X obj 176 94 inlet;
#X obj 176 236 pack f f;
#X obj 176 261 line;
#X obj 209 117 r preset-manager-morph-s;
#X msg 72 244 stop;
#X obj 72 214 r STOP-MORPH!;
#X obj 209 206 spigot;
#X obj 398 137 t f f;
#X obj 455 154 == 0;
#X obj 221 176 f;
#X floatatom 455 222 5 0 0 0 - - -, f 5;
#X obj 398 159 t b f;
#X floatatom 425 192 5 0 0 0 - - -, f 5;
#X obj 209 139 t f f;
#X obj 398 102 r parameters-s;
#X obj 176 288 outlet;
#X connect 0 0 1 0;
#X connect 1 0 2 0;
#X connect 2 0 15 0;
#X connect 3 0 13 0;
#X connect 4 0 2 0;
#X connect 5 0 4 0;
#X connect 6 0 1 1;
#X connect 7 0 11 0;
#X connect 7 1 8 0;
#X connect 8 0 10 0;
#X connect 9 0 6 0;
#X connect 10 0 1 1;
#X connect 11 0 9 0;
#X connect 11 1 12 0;
#X connect 12 0 6 1;
#X connect 13 0 6 0;
#X connect 13 1 9 1;
#X connect 14 0 7 0;
#X restore 558 442 pd morph-parameters;
#X connect 0 0 26 0;
#X connect 1 0 0 0;
#X connect 2 0 0 0;
#X connect 4 0 2 0;
#X connect 4 1 1 0;
#X connect 5 0 25 0;
#X connect 6 0 19 0;
#X connect 7 0 10 0;
#X connect 7 1 9 0;
#X connect 7 2 8 0;
#X connect 8 0 3 0;
#X connect 9 0 5 0;
#X connect 10 0 6 0;
#X connect 11 0 7 0;
#X connect 12 0 11 0;
#X connect 13 0 17 0;
#X connect 14 0 4 0;
#X connect 14 1 13 0;
#X connect 15 0 14 0;
#X connect 15 1 13 1;
#X connect 16 0 17 1;
#X connect 17 0 29 0;
#X connect 18 0 16 0;
#X connect 19 0 28 0;
#X connect 20 0 21 0;
#X connect 21 0 19 1;
#X connect 22 0 27 0;
#X connect 23 0 6 1;
#X connect 24 0 3 0;
#X connect 25 0 24 0;
#X connect 26 0 39 0;
#X connect 26 1 38 0;
#X connect 26 2 40 0;
#X connect 26 3 41 0;
#X connect 27 0 15 0;
#X connect 28 0 3 0;
#X connect 29 0 0 0;
#X connect 30 0 5 1;
#X connect 32 0 25 1;
#X connect 34 0 25 2;
#X connect 36 0 25 3;
#X connect 38 0 33 0;
#X connect 39 0 31 0;
#X connect 40 0 35 0;
#X connect 41 0 37 0;
#X restore 40 295 pd state-saving-via-preset-manager-module;
#X obj 542 352 outlet~ UNITY;
#X obj 103 203 cnv 5 5 5 empty empty OUT 0 0 0 8 -262144 -66577 0;
#N canvas 297 27 748 331 parameter-nudging-system 0;
#X obj 451 64 clip 0 127;
#X obj 23 67 clip 0 127;
#X obj 171 67 clip 0 127;
#X obj 312 68 clip 0 127;
#X obj 23 22 r \$0-mixer-channel1-s;
#X obj 23 95 s \$0-mixer-channel1-r;
#X obj 171 22 r \$0-mixer-channel2-s;
#X obj 171 95 s \$0-mixer-channel2-r;
#X obj 312 21 r \$0-mixer-channel3-s;
#X obj 312 94 s \$0-mixer-channel3-r;
#X obj 451 18 r \$0-mixer-channel4-s;
#X obj 451 90 s \$0-mixer-channel4-r;
#N canvas 0 22 484 497 nudge-parameters 0;
#X obj 124 234 random;
#X obj 232 335 f;
#X obj 232 368 +;
#X obj 257 166 random 2;
#X obj 124 275 t f f;
#X obj 124 351 t b f;
#X obj 124 297 *;
#X obj 257 188 sel 0 1;
#X msg 257 280 -1;
#X msg 335 280 1;
#X obj 124 149 t b b b;
#X obj 124 74 r NUDGE!;
#X obj 157 193 r NUDGE-RANGE;
#X obj 247 308 inlet;
#X obj 232 397 outlet;
#X obj 124 96 spigot;
#X obj 185 79 r parameters2-s;
#X connect 0 0 4 0;
#X connect 1 0 2 0;
#X connect 2 0 14 0;
#X connect 3 0 7 0;
#X connect 4 0 6 0;
#X connect 5 0 2 0;
#X connect 5 1 2 1;
#X connect 6 0 5 0;
#X connect 7 0 8 0;
#X connect 7 1 9 0;
#X connect 8 0 6 1;
#X connect 9 0 6 1;
#X connect 10 0 0 0;
#X connect 10 1 1 0;
#X connect 10 2 3 0;
#X connect 11 0 15 0;
#X connect 12 0 0 1;
#X connect 13 0 1 1;
#X connect 15 0 10 0;
#X connect 16 0 15 1;
#X restore 171 45 pd nudge-parameters;
#N canvas 0 22 484 497 nudge-parameters 0;
#X obj 124 234 random;
#X obj 232 335 f;
#X obj 232 368 +;
#X obj 257 166 random 2;
#X obj 124 275 t f f;
#X obj 124 351 t b f;
#X obj 124 297 *;
#X obj 257 188 sel 0 1;
#X msg 257 280 -1;
#X msg 335 280 1;
#X obj 124 149 t b b b;
#X obj 124 74 r NUDGE!;
#X obj 157 193 r NUDGE-RANGE;
#X obj 247 308 inlet;
#X obj 232 397 outlet;
#X obj 124 96 spigot;
#X obj 185 79 r parameters2-s;
#X connect 0 0 4 0;
#X connect 1 0 2 0;
#X connect 2 0 14 0;
#X connect 3 0 7 0;
#X connect 4 0 6 0;
#X connect 5 0 2 0;
#X connect 5 1 2 1;
#X connect 6 0 5 0;
#X connect 7 0 8 0;
#X connect 7 1 9 0;
#X connect 8 0 6 1;
#X connect 9 0 6 1;
#X connect 10 0 0 0;
#X connect 10 1 1 0;
#X connect 10 2 3 0;
#X connect 11 0 15 0;
#X connect 12 0 0 1;
#X connect 13 0 1 1;
#X connect 15 0 10 0;
#X connect 16 0 15 1;
#X restore 23 45 pd nudge-parameters;
#N canvas 0 22 484 497 nudge-parameters 0;
#X obj 124 234 random;
#X obj 232 335 f;
#X obj 232 368 +;
#X obj 257 166 random 2;
#X obj 124 275 t f f;
#X obj 124 351 t b f;
#X obj 124 297 *;
#X obj 257 188 sel 0 1;
#X msg 257 280 -1;
#X msg 335 280 1;
#X obj 124 149 t b b b;
#X obj 124 74 r NUDGE!;
#X obj 157 193 r NUDGE-RANGE;
#X obj 247 308 inlet;
#X obj 232 397 outlet;
#X obj 124 96 spigot;
#X obj 185 79 r parameters2-s;
#X connect 0 0 4 0;
#X connect 1 0 2 0;
#X connect 2 0 14 0;
#X connect 3 0 7 0;
#X connect 4 0 6 0;
#X connect 5 0 2 0;
#X connect 5 1 2 1;
#X connect 6 0 5 0;
#X connect 7 0 8 0;
#X connect 7 1 9 0;
#X connect 8 0 6 1;
#X connect 9 0 6 1;
#X connect 10 0 0 0;
#X connect 10 1 1 0;
#X connect 10 2 3 0;
#X connect 11 0 15 0;
#X connect 12 0 0 1;
#X connect 13 0 1 1;
#X connect 15 0 10 0;
#X connect 16 0 15 1;
#X restore 451 40 pd nudge-parameters;
#N canvas 0 22 484 497 nudge-parameters 0;
#X obj 124 234 random;
#X obj 232 335 f;
#X obj 232 368 +;
#X obj 257 166 random 2;
#X obj 124 275 t f f;
#X obj 124 351 t b f;
#X obj 124 297 *;
#X obj 257 188 sel 0 1;
#X msg 257 280 -1;
#X msg 335 280 1;
#X obj 124 149 t b b b;
#X obj 124 74 r NUDGE!;
#X obj 157 193 r NUDGE-RANGE;
#X obj 247 308 inlet;
#X obj 232 397 outlet;
#X obj 124 96 spigot;
#X obj 185 79 r parameters2-s;
#X connect 0 0 4 0;
#X connect 1 0 2 0;
#X connect 2 0 14 0;
#X connect 3 0 7 0;
#X connect 4 0 6 0;
#X connect 5 0 2 0;
#X connect 5 1 2 1;
#X connect 6 0 5 0;
#X connect 7 0 8 0;
#X connect 7 1 9 0;
#X connect 8 0 6 1;
#X connect 9 0 6 1;
#X connect 10 0 0 0;
#X connect 10 1 1 0;
#X connect 10 2 3 0;
#X connect 11 0 15 0;
#X connect 12 0 0 1;
#X connect 13 0 1 1;
#X connect 15 0 10 0;
#X connect 16 0 15 1;
#X restore 312 45 pd nudge-parameters;
#X connect 0 0 11 0;
#X connect 1 0 5 0;
#X connect 2 0 7 0;
#X connect 3 0 9 0;
#X connect 4 0 13 0;
#X connect 6 0 12 0;
#X connect 8 0 15 0;
#X connect 10 0 14 0;
#X connect 12 0 2 0;
#X connect 13 0 1 0;
#X connect 14 0 0 0;
#X connect 15 0 3 0;
#X restore 39 274 pd parameter-nudging-system;
#N canvas 632 73 749 752 external-messages 0;
#X floatatom 186 706 5 0 0 0 - - -, f 5;
#X obj 185 328 spigot;
#X obj 218 288 tgl 15 0 empty empty empty 17 7 0 10 -262144 -1 -1 0
1;
#X obj 254 272 ==;
#X obj 269 248 f \$1;
#X obj 269 224 loadbang;
#X msg 185 202 \$1 \$2;
#X msg 185 156 symbol \$1;
#X obj 185 180 pack s f;
#X obj 186 685 f;
#X obj 186 633 t b f;
#X obj 186 656 spigot;
#X obj 185 62 unpack s f f;
#X symbolatom 185 94 10 0 0 0 - - -, f 10;
#X obj 218 308 t f f;
#X obj 245 332 s \$0-msg-spigot;
#X obj 234 640 r \$0-msg-spigot;
#X floatatom 223 594 5 0 0 0 - - -, f 5;
#X obj 223 573 f;
#X obj 223 521 t b f;
#X obj 223 544 spigot;
#X obj 271 528 r \$0-msg-spigot;
#X floatatom 387 639 5 0 0 0 - - -, f 5;
#X obj 387 618 f;
#X obj 387 566 t b f;
#X obj 387 589 spigot;
#X obj 435 573 r \$0-msg-spigot;
#X floatatom 424 527 5 0 0 0 - - -, f 5;
#X obj 424 506 f;
#X obj 424 454 t b f;
#X obj 424 477 spigot;
#X obj 472 461 r \$0-msg-spigot;
#X obj 185 14 r mixer4;
#X obj 185 380 route CH1 CH2 CH3 CH4;
#X obj 186 726 s \$0-mixer-channel1-r;
#X obj 223 614 s \$0-mixer-channel2-r;
#X obj 387 659 s \$0-mixer-channel3-r;
#X obj 424 547 s \$0-mixer-channel4-r;
#X connect 0 0 34 0;
#X connect 1 0 33 0;
#X connect 2 0 14 0;
#X connect 3 0 2 0;
#X connect 4 0 3 1;
#X connect 5 0 4 0;
#X connect 6 0 1 0;
#X connect 7 0 8 0;
#X connect 8 0 6 0;
#X connect 9 0 0 0;
#X connect 10 0 11 0;
#X connect 10 1 9 1;
#X connect 11 0 9 0;
#X connect 12 0 13 0;
#X connect 12 1 8 1;
#X connect 12 2 3 0;
#X connect 13 0 7 0;
#X connect 14 0 1 1;
#X connect 14 1 15 0;
#X connect 16 0 11 1;
#X connect 17 0 35 0;
#X connect 18 0 17 0;
#X connect 19 0 20 0;
#X connect 19 1 18 1;
#X connect 20 0 18 0;
#X connect 21 0 20 1;
#X connect 22 0 36 0;
#X connect 23 0 22 0;
#X connect 24 0 25 0;
#X connect 24 1 23 1;
#X connect 25 0 23 0;
#X connect 26 0 25 1;
#X connect 27 0 37 0;
#X connect 28 0 27 0;
#X connect 29 0 30 0;
#X connect 29 1 28 1;
#X connect 30 0 28 0;
#X connect 31 0 30 1;
#X connect 32 0 12 0;
#X connect 33 0 10 0;
#X connect 33 1 19 0;
#X connect 33 2 24 0;
#X connect 33 3 29 0;
#X restore 45 252 pd external-messages;
#X connect 0 0 1 0;
#X connect 1 0 32 0;
#X connect 1 0 38 0;
#X connect 3 0 4 0;
#X connect 4 0 5 0;
#X connect 5 0 6 0;
#X connect 6 0 1 1;
#X connect 7 0 8 0;
#X connect 8 0 32 0;
#X connect 8 0 38 0;
#X connect 9 0 10 0;
#X connect 10 0 11 0;
#X connect 11 0 8 1;
#X connect 12 0 13 0;
#X connect 13 0 32 0;
#X connect 13 0 38 0;
#X connect 14 0 15 0;
#X connect 15 0 16 0;
#X connect 16 0 13 1;
#X connect 17 0 18 0;
#X connect 18 0 32 0;
#X connect 18 0 38 0;
#X connect 19 0 20 0;
#X connect 20 0 21 0;
#X connect 21 0 18 1;
#X connect 22 0 9 0;
#X connect 23 0 14 0;
#X connect 24 0 19 0;
#X connect 31 0 34 0;
#X connect 32 0 2 0;
#X connect 34 0 36 0;
#X connect 36 0 33 0;
#X coords 0 -1 1 1 175 110 2 100 100;
