#N canvas 0 22 1280 709 10;
#X obj 823 61 t b b;
#X obj 105 137 tgl 15 0 rec/stop-s rec/stop-r REC/STOP 17 7 0 10 -150893
-1 -1 0 1;
#X obj 850 84 f;
#X obj 878 85 + 1;
#X obj 850 106 + 1;
#X floatatom 178 137 5 0 0 1 TAKE - -, f 5;
#X msg 804 207 stop;
#X obj 804 38 sel 0 1;
#X obj 823 153 delay 100;
#X msg 823 175 start;
#X obj 104 125 cnv 5 5 5 empty empty MULTITRACK-RECORDER 0 0 0 12 -262144
-66577 0;
#X obj 148 109 cnv 5 5 5 empty empty CH2 0 0 0 8 -262144 -66577 0;
#X obj 448 109 cnv 5 5 5 empty empty CH8 0 0 0 8 -262144 -66577 0;
#X obj 850 128 t f f;
#X obj 108 230 hsl 128 15 0 127 0 1 \$0-rec-level-s \$0-rec-level-r
LEVEL 133 7 0 10 -158136 -1 -1 12700 1;
#N canvas 0 22 450 278 (subpatch) 0;
#X array \$0-ch2 512 float 0;
#X coords 0 1 511 -1 40 30 1 0 0;
#X restore 150 192 graph;
#X obj 242 137 bng 15 250 50 0 rec-reset-s rec-reset-r RST 17 7 0 10
-262144 -1 -1;
#X obj 931 16 r \$0-rec-takenumber-s;
#X obj 916 51 f;
#X obj 916 -28 loadbang;
#X obj 916 -6 delay 100;
#X obj 95 471 *~;
#X obj 182 486 *~;
#X obj 197 388 r \$0-rec-level-s;
#X obj 197 410 * 0.00787402;
#X obj 197 432 pack 0 50;
#X obj 197 454 line~;
#N canvas 0 22 450 278 (subpatch) 0;
#X array \$0-ch1 512 float 0;
#X coords 0 1 511 -1 40 30 1 0 0;
#X restore 105 192 graph;
#X obj 617 144 hsl 128 15 0 127 0 1 empty empty empty -2 -8 0 10 -262144
-1 -1 100 1;
#X obj 614 192 t f f;
#X obj 641 218 s \$0-rec-takenumber-s;
#X msg 92 636 menusave;
#X obj 92 658 s pd-audio-recorder.pd;
#X obj 92 613 r SAVE-S;
#X msg 955 67 0;
#X obj 254 599 tgl 15 0 empty empty empty 17 7 0 10 -262144 -1 -1 1
1;
#X obj 254 619 metro 10000;
#X obj 254 575 loadbang;
#X obj 259 116 bng 15 250 50 0 empty empty empty 17 7 0 10 -1 -226533
-1;
#X obj 259 10 tgl 15 0 empty empty empty 17 7 0 10 -262144 -1 -1 1
1;
#X obj 259 30 metro 500;
#X obj 259 73 spigot;
#X obj 259 -15 loadbang;
#X obj 95 361 inlet~ CH1;
#X obj 182 347 inlet~ CH2;
#X obj 823 260 s \$0-start;
#X obj 804 234 s \$0-stop;
#X obj 95 493 s~ \$0-ch1;
#X obj 182 508 s~ \$0-ch2;
#X obj 877 301 s \$0-takenumber;
#X obj 150 157 tgl 15 1 \$0-multi-ch2-s \$0-multi-ch2-r CH2 17 7 0
10 -262144 -226533 -1 1 1;
#X obj 105 157 tgl 15 1 \$0-multi-ch1-s \$0-multi-ch1-r CH1 17 7 0
10 -262144 -226533 -1 1 1;
#N canvas 0 22 450 278 (subpatch) 0;
#X array \$0-ch4 512 float 0;
#X coords 0 1 511 -1 40 30 1 0 0;
#X restore 240 192 graph;
#N canvas 0 22 450 278 (subpatch) 0;
#X array \$0-ch3 512 float 0;
#X coords 0 1 511 -1 40 30 1 0 0;
#X restore 195 192 graph;
#X obj 242 157 tgl 15 1 \$0-multi-ch4-s \$0-multi-ch4-r CH4 17 7 0
10 -262144 -226533 -1 1 1;
#X obj 195 157 tgl 15 1 \$0-multi-ch3-s \$0-multi-ch3-r CH3 17 7 0
10 -262144 -226533 -1 1 1;
#N canvas 0 22 814 649 oscilloscopes-ch1-ch8 0;
#X obj 87 177 loadbang;
#X obj 87 225 metro 200;
#X msg 87 202 1;
#X obj 87 381 tabwrite~ \$0-ch1;
#X obj 107 310 r~ \$0-ch1;
#X obj 107 354 *~;
#X obj 122 331 r \$0-multi-ch1-s;
#X obj 253 354 *~;
#X obj 253 310 r~ \$0-ch2;
#X obj 268 331 r \$0-multi-ch2-s;
#X obj 233 381 tabwrite~ \$0-ch2;
#X obj 392 356 *~;
#X obj 538 356 *~;
#X obj 392 312 r~ \$0-ch3;
#X obj 407 333 r \$0-multi-ch3-s;
#X obj 372 383 tabwrite~ \$0-ch3;
#X obj 518 383 tabwrite~ \$0-ch4;
#X obj 553 333 r \$0-multi-ch4-s;
#X obj 538 311 r~ \$0-ch4;
#X obj 107 472 *~;
#X obj 253 472 *~;
#X obj 392 474 *~;
#X obj 538 474 *~;
#X obj 107 428 r~ \$0-ch5;
#X obj 122 449 r \$0-multi-ch5-s;
#X obj 87 499 tabwrite~ \$0-ch5;
#X obj 253 428 r~ \$0-ch6;
#X obj 268 449 r \$0-multi-ch6-s;
#X obj 233 499 tabwrite~ \$0-ch6;
#X obj 392 430 r~ \$0-ch7;
#X obj 407 451 r \$0-multi-ch7-s;
#X obj 372 501 tabwrite~ \$0-ch7;
#X obj 538 429 r~ \$0-ch8;
#X obj 553 451 r \$0-multi-ch8-s;
#X obj 518 501 tabwrite~ \$0-ch8;
#X connect 0 0 2 0;
#X connect 1 0 3 0;
#X connect 1 0 10 0;
#X connect 1 0 15 0;
#X connect 1 0 16 0;
#X connect 1 0 25 0;
#X connect 1 0 28 0;
#X connect 1 0 31 0;
#X connect 1 0 34 0;
#X connect 2 0 1 0;
#X connect 4 0 5 0;
#X connect 5 0 3 0;
#X connect 6 0 5 1;
#X connect 7 0 10 0;
#X connect 8 0 7 0;
#X connect 9 0 7 1;
#X connect 11 0 15 0;
#X connect 12 0 16 0;
#X connect 13 0 11 0;
#X connect 14 0 11 1;
#X connect 17 0 12 1;
#X connect 18 0 12 0;
#X connect 19 0 25 0;
#X connect 20 0 28 0;
#X connect 21 0 31 0;
#X connect 22 0 34 0;
#X connect 23 0 19 0;
#X connect 24 0 19 1;
#X connect 26 0 20 0;
#X connect 27 0 20 1;
#X connect 29 0 21 0;
#X connect 30 0 21 1;
#X connect 32 0 22 0;
#X connect 33 0 22 1;
#X restore 98 257 pd oscilloscopes-ch1-ch8;
#N canvas 0 22 450 278 (subpatch) 0;
#X array \$0-ch6 512 float 0;
#X coords 0 1 511 -1 40 30 1 0 0;
#X restore 330 192 graph;
#N canvas 0 22 450 278 (subpatch) 0;
#X array \$0-ch5 512 float 0;
#X coords 0 1 511 -1 40 30 1 0 0;
#X restore 285 192 graph;
#X obj 330 157 tgl 15 1 \$0-multi-ch6-s \$0-multi-ch6-r CH6 17 7 0
10 -262144 -226533 -1 1 1;
#X obj 285 157 tgl 15 1 \$0-multi-ch5-s \$0-multi-ch5-r CH5 17 7 0
10 -262144 -226533 -1 1 1;
#N canvas 0 22 450 278 (subpatch) 0;
#X array \$0-ch8 512 float 0;
#X coords 0 1 511 -1 40 30 1 0 0;
#X restore 420 192 graph;
#N canvas 0 22 450 278 (subpatch) 0;
#X array \$0-ch7 512 float 0;
#X coords 0 1 511 -1 40 30 1 0 0;
#X restore 375 192 graph;
#X obj 422 157 tgl 15 1 \$0-multi-ch8-s \$0-multi-ch8-r CH8 17 7 0
10 -262144 -226533 -1 1 1;
#X obj 375 157 tgl 15 1 \$0-multi-ch7-s \$0-multi-ch7-r CH7 17 7 0
10 -262144 -226533 -1 1 1;
#N canvas 0 22 1250 693 record-stems 0;
#X obj 135 201 writesf~;
#X obj 136 18 r~ \$0-ch1;
#X obj 204 18 r \$0-takenumber;
#X obj 22 22 r \$0-start;
#X obj 69 87 r \$0-stop;
#X obj 22 88 spigot;
#X obj 55 46 r \$0-multi-ch1-s;
#X obj 151 146 spigot;
#X obj 184 117 r \$0-multi-ch1-s;
#X obj 577 198 writesf~;
#X obj 464 19 r \$0-start;
#X obj 511 84 r \$0-stop;
#X obj 464 85 spigot;
#X obj 593 143 spigot;
#X obj 497 43 r \$0-multi-ch2-s;
#X obj 577 67 r~ \$0-ch2;
#X obj 626 114 r \$0-multi-ch2-s;
#X obj 135 389 writesf~;
#X obj 22 210 r \$0-start;
#X obj 69 275 r \$0-stop;
#X obj 22 276 spigot;
#X obj 151 334 spigot;
#X obj 55 234 r \$0-multi-ch3-s;
#X obj 135 258 r~ \$0-ch3;
#X obj 184 305 r \$0-multi-ch3-s;
#X obj 613 401 writesf~;
#X obj 500 222 r \$0-start;
#X obj 547 287 r \$0-stop;
#X obj 500 288 spigot;
#X obj 629 346 spigot;
#X obj 533 246 r \$0-multi-ch4-s;
#X obj 613 270 r~ \$0-ch4;
#X obj 662 317 r \$0-multi-ch4-s;
#X obj 153 594 writesf~;
#X obj 40 415 r \$0-start;
#X obj 87 480 r \$0-stop;
#X obj 40 481 spigot;
#X obj 169 539 spigot;
#X obj 73 439 r \$0-multi-ch5-s;
#X obj 153 463 r~ \$0-ch5;
#X obj 202 510 r \$0-multi-ch5-s;
#X obj 724 613 writesf~;
#X obj 611 434 r \$0-start;
#X obj 658 499 r \$0-stop;
#X obj 611 500 spigot;
#X obj 740 558 spigot;
#X obj 644 458 r \$0-multi-ch6-s;
#X obj 724 482 r~ \$0-ch6;
#X obj 773 529 r \$0-multi-ch6-s;
#X obj 158 778 writesf~;
#X obj 45 599 r \$0-start;
#X obj 92 664 r \$0-stop;
#X obj 45 665 spigot;
#X obj 174 723 spigot;
#X obj 78 623 r \$0-multi-ch7-s;
#X obj 158 647 r~ \$0-ch7;
#X obj 207 694 r \$0-multi-ch7-s;
#X obj 699 789 writesf~;
#X obj 586 610 r \$0-start;
#X obj 633 675 r \$0-stop;
#X obj 586 676 spigot;
#X obj 715 734 spigot;
#X obj 619 634 r \$0-multi-ch8-s;
#X obj 699 658 r~ \$0-ch8;
#X obj 748 705 r \$0-multi-ch8-s;
#X obj 231 63 f \$1;
#X obj 204 40 t f b;
#X obj 204 85 pack f f;
#X obj 640 24 r \$0-takenumber;
#X obj 667 69 f \$1;
#X obj 640 46 t f b;
#X obj 640 91 pack f f;
#X obj 202 213 r \$0-takenumber;
#X obj 229 258 f \$1;
#X obj 202 235 t f b;
#X obj 202 280 pack f f;
#X obj 687 215 r \$0-takenumber;
#X obj 714 260 f \$1;
#X obj 687 237 t f b;
#X obj 687 282 pack f f;
#X obj 222 410 r \$0-takenumber;
#X obj 249 455 f \$1;
#X obj 222 432 t f b;
#X obj 222 477 pack f f;
#X obj 799 425 r \$0-takenumber;
#X obj 826 470 f \$1;
#X obj 799 447 t f b;
#X obj 799 492 pack f f;
#X obj 234 588 r \$0-takenumber;
#X obj 261 633 f \$1;
#X obj 234 610 t f b;
#X obj 234 655 pack f f;
#X obj 801 611 r \$0-takenumber;
#X obj 828 656 f \$1;
#X obj 801 633 t f b;
#X obj 801 678 pack f f;
#X msg 151 168 open -bytes 3 ../recorded_wavs/multitrack/multitracker\$2_CH1_take\$1.wav
;
#X msg 151 356 open -bytes 3 ../recorded_wavs/multitrack/multitracker\$2_CH3_take\$1.wav
;
#X msg 593 165 open -bytes 3 ../recorded_wavs/multitrack/multitracker\$2_CH2_take\$1.wav
;
#X msg 629 368 open -bytes 3 ../recorded_wavs/multitrack/multitracker\$2_CH4_take\$1.wav
;
#X msg 169 561 open -bytes 3 ../recorded_wavs/multitrack/multitracker\$2_CH5_take\$1.wav
;
#X msg 740 580 open -bytes 3 ../recorded_wavs/multitrack/multitracker\$2_CH6_take\$1.wav
;
#X msg 174 745 open -bytes 3 ../recorded_wavs/multitrack/multitracker\$2_CH7_take\$1.wav
;
#X msg 715 756 open -bytes 3 ../recorded_wavs/multitrack/multitracker\$2_CH8_take\$1.wav
;
#X connect 1 0 0 0;
#X connect 2 0 66 0;
#X connect 3 0 5 0;
#X connect 4 0 0 0;
#X connect 5 0 0 0;
#X connect 6 0 5 1;
#X connect 7 0 96 0;
#X connect 8 0 7 1;
#X connect 10 0 12 0;
#X connect 11 0 9 0;
#X connect 12 0 9 0;
#X connect 13 0 98 0;
#X connect 14 0 12 1;
#X connect 15 0 9 0;
#X connect 16 0 13 1;
#X connect 18 0 20 0;
#X connect 19 0 17 0;
#X connect 20 0 17 0;
#X connect 21 0 97 0;
#X connect 22 0 20 1;
#X connect 23 0 17 0;
#X connect 24 0 21 1;
#X connect 26 0 28 0;
#X connect 27 0 25 0;
#X connect 28 0 25 0;
#X connect 29 0 99 0;
#X connect 30 0 28 1;
#X connect 31 0 25 0;
#X connect 32 0 29 1;
#X connect 34 0 36 0;
#X connect 35 0 33 0;
#X connect 36 0 33 0;
#X connect 37 0 100 0;
#X connect 38 0 36 1;
#X connect 39 0 33 0;
#X connect 40 0 37 1;
#X connect 42 0 44 0;
#X connect 43 0 41 0;
#X connect 44 0 41 0;
#X connect 45 0 101 0;
#X connect 46 0 44 1;
#X connect 47 0 41 0;
#X connect 48 0 45 1;
#X connect 50 0 52 0;
#X connect 51 0 49 0;
#X connect 52 0 49 0;
#X connect 53 0 102 0;
#X connect 54 0 52 1;
#X connect 55 0 49 0;
#X connect 56 0 53 1;
#X connect 58 0 60 0;
#X connect 59 0 57 0;
#X connect 60 0 57 0;
#X connect 61 0 103 0;
#X connect 62 0 60 1;
#X connect 63 0 57 0;
#X connect 64 0 61 1;
#X connect 65 0 67 1;
#X connect 66 0 67 0;
#X connect 66 1 65 0;
#X connect 67 0 7 0;
#X connect 68 0 70 0;
#X connect 69 0 71 1;
#X connect 70 0 71 0;
#X connect 70 1 69 0;
#X connect 71 0 13 0;
#X connect 72 0 74 0;
#X connect 73 0 75 1;
#X connect 74 0 75 0;
#X connect 74 1 73 0;
#X connect 75 0 21 0;
#X connect 76 0 78 0;
#X connect 77 0 79 1;
#X connect 78 0 79 0;
#X connect 78 1 77 0;
#X connect 79 0 29 0;
#X connect 80 0 82 0;
#X connect 81 0 83 1;
#X connect 82 0 83 0;
#X connect 82 1 81 0;
#X connect 83 0 37 0;
#X connect 84 0 86 0;
#X connect 85 0 87 1;
#X connect 86 0 87 0;
#X connect 86 1 85 0;
#X connect 87 0 45 0;
#X connect 88 0 90 0;
#X connect 89 0 91 1;
#X connect 90 0 91 0;
#X connect 90 1 89 0;
#X connect 91 0 53 0;
#X connect 92 0 94 0;
#X connect 93 0 95 1;
#X connect 94 0 95 0;
#X connect 94 1 93 0;
#X connect 95 0 61 0;
#X connect 96 0 0 0;
#X connect 97 0 17 0;
#X connect 98 0 9 0;
#X connect 99 0 25 0;
#X connect 100 0 33 0;
#X connect 101 0 41 0;
#X connect 102 0 49 0;
#X connect 103 0 57 0;
#X restore 98 279 pd record-stems;
#X obj 314 467 *~;
#X obj 401 482 *~;
#X obj 416 384 r \$0-rec-level-s;
#X obj 416 406 * 0.00787402;
#X obj 416 428 pack 0 50;
#X obj 416 450 line~;
#X obj 314 357 inlet~ CH3;
#X obj 401 338 inlet~ CH4;
#X obj 314 489 s~ \$0-ch3;
#X obj 401 504 s~ \$0-ch4;
#X obj 533 460 *~;
#X obj 620 475 *~;
#X obj 635 377 r \$0-rec-level-s;
#X obj 635 399 * 0.00787402;
#X obj 635 421 pack 0 50;
#X obj 635 443 line~;
#X obj 533 350 inlet~ CH5;
#X obj 620 325 inlet~ CH6;
#X obj 533 482 s~ \$0-ch5;
#X obj 620 497 s~ \$0-ch6;
#X obj 764 494 *~;
#X obj 851 509 *~;
#X obj 866 411 r \$0-rec-level-s;
#X obj 866 433 * 0.00787402;
#X obj 866 455 pack 0 50;
#X obj 866 477 line~;
#X obj 764 384 inlet~ CH7;
#X obj 851 369 inlet~ CH8;
#X obj 764 516 s~ \$0-ch7;
#X obj 851 531 s~ \$0-ch8;
#X obj 103 109 cnv 5 5 5 empty empty CH1 0 0 0 8 -262144 -66577 0;
#X obj 251 109 cnv 5 5 5 empty empty CH4 0 0 0 8 -262144 -66577 0;
#X obj 199 109 cnv 5 5 5 empty empty CH3 0 0 0 8 -262144 -66577 0;
#X obj 301 109 cnv 5 5 5 empty empty CH5 0 0 0 8 -262144 -66577 0;
#X obj 402 109 cnv 5 5 5 empty empty CH7 0 0 0 8 -262144 -66577 0;
#X obj 352 109 cnv 5 5 5 empty empty CH6 0 0 0 8 -262144 -66577 0;
#X obj 95 383 *~ 1;
#X obj 182 369 *~ 1;
#X obj 314 379 *~ 1;
#X obj 401 360 *~ 1;
#X obj 533 372 *~ 1;
#X obj 620 347 *~ 1;
#X obj 764 406 *~ 1;
#X obj 851 391 *~ 1;
#X obj 804 9 r rec/stop-s;
#X obj 291 50 r rec/stop-s;
#X obj 955 45 r rec-reset-s;
#X obj 244 124 cnv 5 5 5 empty \$0-instance-num 1 0 0 0 12 -262144
-66577 0;
#X obj 481 195 s \$0-instance-num;
#X obj 481 147 makefilename %d;
#X msg 481 172 label \$1;
#X obj 481 100 loadbang;
#X obj 481 122 f \$1;
#X connect 0 0 8 0;
#X connect 0 1 2 0;
#X connect 2 0 3 0;
#X connect 2 0 4 0;
#X connect 3 0 2 1;
#X connect 4 0 13 0;
#X connect 6 0 46 0;
#X connect 7 0 6 0;
#X connect 7 1 0 0;
#X connect 8 0 9 0;
#X connect 9 0 45 0;
#X connect 13 0 28 0;
#X connect 13 1 49 0;
#X connect 17 0 18 1;
#X connect 18 0 2 1;
#X connect 19 0 20 0;
#X connect 20 0 18 0;
#X connect 21 0 47 0;
#X connect 22 0 48 0;
#X connect 23 0 24 0;
#X connect 24 0 25 0;
#X connect 25 0 26 0;
#X connect 26 0 22 1;
#X connect 26 0 21 1;
#X connect 28 0 29 0;
#X connect 29 0 5 0;
#X connect 29 1 30 0;
#X connect 31 0 32 0;
#X connect 33 0 31 0;
#X connect 34 0 2 1;
#X connect 34 0 28 0;
#X connect 35 0 36 0;
#X connect 37 0 35 0;
#X connect 39 0 40 0;
#X connect 40 0 41 0;
#X connect 41 0 38 0;
#X connect 42 0 39 0;
#X connect 43 0 102 0;
#X connect 44 0 103 0;
#X connect 66 0 74 0;
#X connect 67 0 75 0;
#X connect 68 0 69 0;
#X connect 69 0 70 0;
#X connect 70 0 71 0;
#X connect 71 0 67 1;
#X connect 71 0 66 1;
#X connect 72 0 104 0;
#X connect 73 0 105 0;
#X connect 76 0 84 0;
#X connect 77 0 85 0;
#X connect 78 0 79 0;
#X connect 79 0 80 0;
#X connect 80 0 81 0;
#X connect 81 0 77 1;
#X connect 81 0 76 1;
#X connect 82 0 106 0;
#X connect 83 0 107 0;
#X connect 86 0 94 0;
#X connect 87 0 95 0;
#X connect 88 0 89 0;
#X connect 89 0 90 0;
#X connect 90 0 91 0;
#X connect 91 0 87 1;
#X connect 91 0 86 1;
#X connect 92 0 108 0;
#X connect 93 0 109 0;
#X connect 102 0 21 0;
#X connect 103 0 22 0;
#X connect 104 0 66 0;
#X connect 105 0 67 0;
#X connect 106 0 76 0;
#X connect 107 0 77 0;
#X connect 108 0 86 0;
#X connect 109 0 87 0;
#X connect 110 0 7 0;
#X connect 111 0 41 1;
#X connect 112 0 34 0;
#X connect 115 0 116 0;
#X connect 116 0 114 0;
#X connect 117 0 118 0;
#X connect 118 0 115 0;
#X coords 0 -1 1 1 365 150 2 100 100;
