#N canvas 0 22 884 610 10;
#X obj 22 452 cnv 15 400 30 empty empty OUTPUTS: 20 12 0 14 -158136
-262144 0;
#X obj 22 210 cnv 15 400 30 empty empty CONTROLS: 20 12 0 14 -158136
-262144 0;
#X obj 22 372 cnv 15 400 30 empty empty INPUTS: 20 12 0 14 -158136
-262144 0;
#X obj 20 17 cnv 15 400 30 empty empty MULTITRACK-RECORDER: 20 12 0
14 -150893 -262144 0;
#X text 23 245 REC/STOP - Start and stop recording;
#X text 23 270 RST - reset the recording number;
#X text 22 492 /none/;
#X obj 442 19 multitrack-recorder;
#X text 25 60 The MULTITRACK-RECORDER module takes maximum of 8 inputs
and records 24bit .wav files to the folder ../recorder_wavs/multitrack/
;
#X text 28 109 You can toggle channels on or off if you for example
only want to record 4 stems. There is a LEVEL slider for the global
recording volume. It starts recording when you press the REC toggle
and automatically labels your files as "multitracker\$1_CH\$1_take\$1.wav".
Press the RST button to reset the counter \, but previous recordings
will be overdubbed.;
#X text 23 296 LEVEL - set the overall gain of the incoming signals
;
#X text 23 326 CH1-8 ON/OFF TOGGLES - turn recording on or off for
each channel;
#X text 22 420 CH1-CH8 - 8 channel inputs;
