#N canvas 0 22 892 556 10;
#X obj 344 56 r knob1;
#X obj 400 127 r knob2;
#X obj 453 205 r knob3;
#X obj 507 286 r knob4;
#X obj 400 367 sig~;
#X obj 453 367 sig~;
#X obj 507 367 sig~;
#X obj 346 367 sig~;
#X floatatom 104 155 5 0 0 2 KNOB1 - -, f 5;
#X floatatom 153 155 5 0 0 2 KNOB2 - -, f 5;
#X floatatom 215 155 5 0 0 2 KNOB3 - -, f 5;
#X floatatom 266 155 5 0 0 2 KNOB4 - -, f 5;
#X obj 211 126 cnv 5 5 5 empty empty KNOBS 0 0 0 12 -262144 -66577
0;
#X obj 145 126 cnv 5 5 5 empty empty ORGANELLE 0 0 0 12 -262144 -66577
0;
#X obj 346 475 lop~ 10;
#X obj 346 497 outlet~;
#X obj 400 474 lop~ 10;
#X obj 400 496 outlet~;
#X obj 453 473 lop~ 10;
#X obj 453 495 outlet~;
#X obj 507 475 lop~ 10;
#X obj 507 497 outlet~;
#X obj 344 78 t f f f;
#X obj 400 149 t f f f;
#X obj 453 229 t f f f;
#X obj 507 314 t f f f;
#X connect 0 0 22 0;
#X connect 1 0 23 0;
#X connect 2 0 24 0;
#X connect 3 0 25 0;
#X connect 4 0 16 0;
#X connect 5 0 18 0;
#X connect 6 0 20 0;
#X connect 7 0 14 0;
#X connect 14 0 15 0;
#X connect 16 0 17 0;
#X connect 18 0 19 0;
#X connect 20 0 21 0;
#X connect 22 0 7 0;
#X connect 22 1 8 0;
#X connect 23 0 4 0;
#X connect 23 1 9 0;
#X connect 24 0 5 0;
#X connect 24 1 10 0;
#X connect 25 0 6 0;
#X connect 25 1 11 0;
#X coords 0 -1 1 1 200 75 2 100 100;
