#N canvas 135 53 934 711 10;
#X obj 303 45 inlet~;
#X obj 302 373 *~;
#X obj 302 463 clip~ -1 1;
#X obj 302 662 outlet~;
#X obj 108 147 hsl 128 15 0 127 0 1 \$0-overdrive-tone-s \$0-overdrive-tone-r
TONE 135 7 0 10 -262144 -1 -1 3500 1;
#X obj 317 305 pack 0 50;
#X obj 317 327 line~;
#X obj 317 349 +~;
#X obj 382 310 inlet~ DRIVE-CV;
#X obj 108 132 hsl 128 15 0 127 0 1 \$0-overdrive-drive-s \$0-overdrive-drive-r
DRIVE 135 7 0 10 -262144 -1 -1 4100 1;
#X obj 604 243 * 0.00787402;
#X obj 604 267 * 9900;
#X obj 604 289 + 100;
#X obj 317 217 r \$0-overdrive-drive-s;
#X obj 317 239 * 0.00787402;
#X obj 302 417 lop~;
#X obj 302 439 lop~;
#X obj 302 515 lop~;
#X obj 302 537 lop~;
#X obj 604 333 line;
#X obj 604 400 t f f f f;
#N canvas 21 22 593 735 state-saving-multiple-instances 0;
#X obj 215 28 loadbang;
#X obj 261 480 textfile;
#X msg 523 463 rewind;
#X msg 480 463 bang;
#X obj 119 690 textfile;
#X obj 480 424 t b b;
#X obj 120 356 f;
#X obj 133 579 f;
#X obj 66 422 t b b b;
#X msg 196 579 clear;
#X obj 281 216 outlet;
#X text 277 236 INSTANCE NUMBER;
#X obj 242 92 f \$1;
#X obj 242 128 t f f f;
#X obj 215 61 t b b;
#X obj 66 331 bng 15 250 50 0 empty empty empty 17 7 0 10 -262144 -1
-1;
#X obj 66 235 r SAVE-S;
#X obj 120 399 pack f f;
#X msg 120 438 set \$1 \$2;
#X obj 261 502 unpack f f;
#X msg 132 650 write statesave/\$1-overdrive-ss.txt;
#X msg 261 455 read statesave/\$1-overdrive-ss.txt;
#X obj 135 308 r \$0-overdrive-drive-s;
#X obj 261 604 s \$0-overdrive-drive-r;
#X obj 165 355 r \$0-overdrive-tone-s;
#X obj 318 530 s \$0-overdrive-tone-r;
#X connect 0 0 14 0;
#X connect 1 0 19 0;
#X connect 2 0 1 0;
#X connect 3 0 1 0;
#X connect 5 0 3 0;
#X connect 5 1 2 0;
#X connect 6 0 17 0;
#X connect 7 0 20 0;
#X connect 8 0 7 0;
#X connect 8 1 6 0;
#X connect 8 2 9 0;
#X connect 9 0 4 0;
#X connect 12 0 13 0;
#X connect 13 0 7 1;
#X connect 13 1 21 0;
#X connect 13 2 10 0;
#X connect 14 0 5 0;
#X connect 14 1 12 0;
#X connect 15 0 8 0;
#X connect 16 0 15 0;
#X connect 17 0 18 0;
#X connect 18 0 4 0;
#X connect 19 0 23 0;
#X connect 19 1 25 0;
#X connect 20 0 4 0;
#X connect 21 0 1 0;
#X connect 22 0 6 1;
#X connect 24 0 17 1;
#X restore 22 382 pd state-saving-multiple-instances;
#X obj 105 123 cnv 5 5 5 empty empty OVERDRIVE 0 0 0 12 -262144 -66577
0;
#X obj 176 109 cnv 5 5 5 empty empty DRIVE 0 0 0 8 -262144 -66577 0
;
#X obj 104 109 cnv 5 5 5 empty empty IN 0 0 0 8 -262144 -66577 0;
#X obj 252 108 cnv 5 5 5 empty empty TONE 0 0 0 8 -262144 -66577 0
;
#X obj 22 456 s \$0-instance-num;
#X obj 22 408 makefilename %d;
#X obj 177 123 cnv 5 5 5 empty \$0-instance-num 1 0 0 0 12 -262144
-66577 0;
#X msg 22 433 label \$1;
#N canvas 225 22 1117 745 state-saving-via-preset-manager-module 0
;
#X obj 477 349 textfile;
#X msg 734 332 rewind;
#X msg 691 332 bang;
#X obj 243 690 textfile;
#X obj 691 293 t b b;
#X obj 244 356 f;
#X obj 257 579 f;
#X obj 190 422 t b b b;
#X msg 320 579 clear;
#X obj 244 399 pack f f;
#X msg 244 438 set \$1 \$2;
#X obj 477 371 unpack f f;
#X floatatom 325 391 5 0 0 0 - - -, f 5;
#X obj 244 264 delay 5;
#X obj 190 484 delay 10;
#X msg 190 314 bang;
#X obj 190 147 r STORE-S!;
#X obj 477 250 f;
#X obj 450 227 t b b;
#X obj 465 171 t b f;
#X obj 522 268 f \$1;
#X obj 477 295 pack f f;
#X obj 522 218 loadbang;
#X obj 257 609 pack f f;
#X obj 302 467 loadbang;
#X obj 302 489 f \$1;
#X obj 465 148 r preset-manager-scan;
#X obj 279 148 r preset-manager-store-slot;
#X msg 256 650 write statesave/\$1-\$2-overdrive-ss.txt;
#X msg 477 324 read statesave/\$1-\$2-overdrive-ss.txt;
#X obj 259 308 r \$0-overdrive-drive-s;
#X obj 477 615 s \$0-overdrive-drive-r;
#X obj 289 355 r \$0-overdrive-tone-s;
#X obj 534 517 s \$0-overdrive-tone-r;
#N canvas 0 22 1069 747 morph-parameters 0;
#X obj 176 94 inlet;
#X obj 176 236 pack f f;
#X obj 176 261 line;
#X obj 209 117 r preset-manager-morph-s;
#X msg 72 244 stop;
#X obj 72 214 r STOP-MORPH!;
#X obj 209 206 spigot;
#X obj 398 137 t f f;
#X obj 455 154 == 0;
#X obj 221 176 f;
#X floatatom 455 222 5 0 0 0 - - -, f 5;
#X obj 398 159 t b f;
#X floatatom 425 192 5 0 0 0 - - -, f 5;
#X obj 209 139 t f f;
#X obj 398 102 r parameters-s;
#X obj 176 288 outlet;
#X connect 0 0 1 0;
#X connect 1 0 2 0;
#X connect 2 0 15 0;
#X connect 3 0 13 0;
#X connect 4 0 2 0;
#X connect 5 0 4 0;
#X connect 6 0 1 1;
#X connect 7 0 11 0;
#X connect 7 1 8 0;
#X connect 8 0 10 0;
#X connect 9 0 6 0;
#X connect 10 0 1 1;
#X connect 11 0 9 0;
#X connect 11 1 12 0;
#X connect 12 0 6 1;
#X connect 13 0 6 0;
#X connect 13 1 9 1;
#X connect 14 0 7 0;
#X restore 534 493 pd morph-parameters;
#N canvas 0 22 1069 747 morph-parameters 0;
#X obj 176 94 inlet;
#X obj 176 236 pack f f;
#X obj 176 261 line;
#X obj 209 117 r preset-manager-morph-s;
#X msg 72 244 stop;
#X obj 72 214 r STOP-MORPH!;
#X obj 209 206 spigot;
#X obj 398 137 t f f;
#X obj 455 154 == 0;
#X obj 221 176 f;
#X floatatom 455 222 5 0 0 0 - - -, f 5;
#X obj 398 159 t b f;
#X floatatom 425 192 5 0 0 0 - - -, f 5;
#X obj 209 139 t f f;
#X obj 398 102 r parameters-s;
#X obj 176 288 outlet;
#X connect 0 0 1 0;
#X connect 1 0 2 0;
#X connect 2 0 15 0;
#X connect 3 0 13 0;
#X connect 4 0 2 0;
#X connect 5 0 4 0;
#X connect 6 0 1 1;
#X connect 7 0 11 0;
#X connect 7 1 8 0;
#X connect 8 0 10 0;
#X connect 9 0 6 0;
#X connect 10 0 1 1;
#X connect 11 0 9 0;
#X connect 11 1 12 0;
#X connect 12 0 6 1;
#X connect 13 0 6 0;
#X connect 13 1 9 1;
#X connect 14 0 7 0;
#X restore 477 591 pd morph-parameters;
#X connect 0 0 11 0;
#X connect 1 0 0 0;
#X connect 2 0 0 0;
#X connect 4 0 2 0;
#X connect 4 1 1 0;
#X connect 5 0 9 0;
#X connect 6 0 23 0;
#X connect 7 0 14 0;
#X connect 7 1 13 0;
#X connect 7 2 8 0;
#X connect 8 0 3 0;
#X connect 9 0 10 0;
#X connect 10 0 3 0;
#X connect 11 0 35 0;
#X connect 11 1 34 0;
#X connect 13 0 5 0;
#X connect 14 0 6 0;
#X connect 15 0 7 0;
#X connect 16 0 15 0;
#X connect 17 0 21 0;
#X connect 18 0 4 0;
#X connect 18 1 17 0;
#X connect 19 0 18 0;
#X connect 19 1 17 1;
#X connect 20 0 21 1;
#X connect 21 0 29 0;
#X connect 22 0 20 0;
#X connect 23 0 28 0;
#X connect 24 0 25 0;
#X connect 25 0 23 1;
#X connect 26 0 19 0;
#X connect 27 0 6 1;
#X connect 28 0 3 0;
#X connect 29 0 0 0;
#X connect 30 0 5 1;
#X connect 32 0 9 1;
#X connect 32 0 12 0;
#X connect 34 0 33 0;
#X connect 35 0 31 0;
#X restore 22 338 pd state-saving-via-preset-manager-module;
#N canvas 297 27 518 295 parameter-nudging-system 0;
#X obj 23 67 clip 0 127;
#X obj 171 67 clip 0 127;
#X obj 171 22 r \$0-overdrive-tone-s;
#X obj 171 95 s \$0-overdrive-tone-r;
#X obj 23 22 r \$0-overdrive-drive-s;
#X obj 23 95 s \$0-overdrive-drive-r;
#N canvas 0 22 484 497 nudge-parameters 0;
#X obj 124 234 random;
#X obj 232 335 f;
#X obj 232 368 +;
#X obj 257 166 random 2;
#X obj 124 275 t f f;
#X obj 124 351 t b f;
#X obj 124 297 *;
#X obj 257 188 sel 0 1;
#X msg 257 280 -1;
#X msg 335 280 1;
#X obj 124 149 t b b b;
#X obj 124 74 r NUDGE!;
#X obj 157 193 r NUDGE-RANGE;
#X obj 247 308 inlet;
#X obj 232 397 outlet;
#X obj 124 96 spigot;
#X obj 185 79 r parameters2-s;
#X connect 0 0 4 0;
#X connect 1 0 2 0;
#X connect 2 0 14 0;
#X connect 3 0 7 0;
#X connect 4 0 6 0;
#X connect 5 0 2 0;
#X connect 5 1 2 1;
#X connect 6 0 5 0;
#X connect 7 0 8 0;
#X connect 7 1 9 0;
#X connect 8 0 6 1;
#X connect 9 0 6 1;
#X connect 10 0 0 0;
#X connect 10 1 1 0;
#X connect 10 2 3 0;
#X connect 11 0 15 0;
#X connect 12 0 0 1;
#X connect 13 0 1 1;
#X connect 15 0 10 0;
#X connect 16 0 15 1;
#X restore 172 45 pd nudge-parameters;
#N canvas 0 22 484 497 nudge-parameters 0;
#X obj 124 234 random;
#X obj 232 335 f;
#X obj 232 368 +;
#X obj 257 166 random 2;
#X obj 124 275 t f f;
#X obj 124 351 t b f;
#X obj 124 297 *;
#X obj 257 188 sel 0 1;
#X msg 257 280 -1;
#X msg 335 280 1;
#X obj 124 149 t b b b;
#X obj 124 74 r NUDGE!;
#X obj 157 193 r NUDGE-RANGE;
#X obj 247 308 inlet;
#X obj 232 397 outlet;
#X obj 124 96 spigot;
#X obj 185 79 r parameters2-s;
#X connect 0 0 4 0;
#X connect 1 0 2 0;
#X connect 2 0 14 0;
#X connect 3 0 7 0;
#X connect 4 0 6 0;
#X connect 5 0 2 0;
#X connect 5 1 2 1;
#X connect 6 0 5 0;
#X connect 7 0 8 0;
#X connect 7 1 9 0;
#X connect 8 0 6 1;
#X connect 9 0 6 1;
#X connect 10 0 0 0;
#X connect 10 1 1 0;
#X connect 10 2 3 0;
#X connect 11 0 15 0;
#X connect 12 0 0 1;
#X connect 13 0 1 1;
#X connect 15 0 10 0;
#X connect 16 0 15 1;
#X restore 23 45 pd nudge-parameters;
#X connect 0 0 5 0;
#X connect 1 0 3 0;
#X connect 2 0 6 0;
#X connect 4 0 7 0;
#X connect 6 0 1 0;
#X connect 7 0 0 0;
#X restore 22 360 pd parameter-nudging-system;
#X obj 725 56 inlet~ TONE-CV;
#X obj 725 166 snapshot~;
#X obj 604 355 +;
#X obj 604 377 clip 100 10000;
#X obj 833 105 env~;
#X obj 833 127 change;
#X obj 833 149 t b;
#X obj 604 218 r \$0-overdrive-tone-s;
#X obj 303 195 hip~;
#X obj 369 46 / 127;
#X obj 369 68 * 450;
#X obj 369 90 + 50;
#X obj 302 492 expr~ $v1-pow($v1 \, 3)/3;
#X obj 302 615 biquad~ 1.923 -0.92564 0.985317 -1.923 0.940323;
#X obj 369 20 r \$0-overdrive-tone-s;
#X obj 369 134 line;
#X obj 369 156 +;
#X obj 369 178 clip 50 500;
#X obj 674 433 / 127;
#X obj 674 455 * 480;
#X obj 674 477 + 20;
#X obj 725 188 s \$0-overdrive-tone-cv;
#X obj 673 265 r \$0-overdrive-tone-cv;
#X obj 673 288 * 9900;
#X obj 673 338 t b f;
#X obj 436 73 r \$0-overdrive-tone-cv;
#X obj 436 95 * 450;
#X obj 436 139 t b f;
#X obj 674 543 +;
#X obj 674 565 t f f;
#X obj 674 408 r \$0-overdrive-tone-s;
#X obj 746 482 r \$0-overdrive-tone-cv;
#X obj 746 504 * 480;
#X obj 746 526 t b f;
#X obj 302 640 clip~ -1 1;
#X obj 317 283 + 2;
#X obj 369 112 pack 0 50;
#X obj 604 311 pack 0 50;
#X obj 674 499 pack 0 50;
#X obj 302 565 hip~;
#X obj 302 587 hip~;
#X obj 674 521 t f f;
#X obj 674 587 sig~;
#X obj 674 609 lop~ 10;
#X obj 674 631 snapshot~;
#X obj 674 653 t f f;
#X obj 769 614 bang~;
#X msg 871 213 0;
#X obj 871 187 sel 0;
#X obj 871 235 s \$0-cv-rst;
#X obj 719 289 r \$0-cv-rst;
#X obj 796 539 r \$0-cv-rst;
#X obj 479 95 r \$0-cv-rst;
#X obj 725 78 lop~ 100;
#X obj 317 261 * 499;
#X obj 382 332 *~ 499;
#X obj 302 395 +~ 0.1;
#N canvas 632 73 749 752 external-messages 0;
#X floatatom 186 706 5 0 0 0 - - -, f 5;
#X obj 185 328 spigot;
#X obj 218 288 tgl 15 0 empty empty empty 17 7 0 10 -262144 -1 -1 0
1;
#X obj 254 272 ==;
#X obj 269 248 f \$1;
#X obj 269 224 loadbang;
#X msg 185 202 \$1 \$2;
#X msg 185 156 symbol \$1;
#X obj 185 180 pack s f;
#X obj 186 685 f;
#X obj 186 633 t b f;
#X obj 186 656 spigot;
#X obj 185 62 unpack s f f;
#X symbolatom 185 94 10 0 0 0 - - -, f 10;
#X obj 218 308 t f f;
#X obj 245 332 s \$0-msg-spigot;
#X obj 234 640 r \$0-msg-spigot;
#X floatatom 223 594 5 0 0 0 - - -, f 5;
#X obj 223 573 f;
#X obj 223 521 t b f;
#X obj 223 544 spigot;
#X obj 271 528 r \$0-msg-spigot;
#X obj 185 14 r overdrive;
#X obj 185 380 route DRIVE TONE;
#X obj 186 726 s \$0-overdrive-drive-r;
#X obj 223 614 s \$0-overdrive-tone-r;
#X connect 0 0 24 0;
#X connect 1 0 23 0;
#X connect 2 0 14 0;
#X connect 3 0 2 0;
#X connect 4 0 3 1;
#X connect 5 0 4 0;
#X connect 6 0 1 0;
#X connect 7 0 8 0;
#X connect 8 0 6 0;
#X connect 9 0 0 0;
#X connect 10 0 11 0;
#X connect 10 1 9 1;
#X connect 11 0 9 0;
#X connect 12 0 13 0;
#X connect 12 1 8 1;
#X connect 12 2 3 0;
#X connect 13 0 7 0;
#X connect 14 0 1 1;
#X connect 14 1 15 0;
#X connect 16 0 11 1;
#X connect 17 0 25 0;
#X connect 18 0 17 0;
#X connect 19 0 20 0;
#X connect 19 1 18 1;
#X connect 20 0 18 0;
#X connect 21 0 20 1;
#X connect 22 0 12 0;
#X connect 23 0 10 0;
#X connect 23 1 19 0;
#X restore 25 312 pd external-messages;
#X connect 0 0 40 0;
#X connect 1 0 88 0;
#X connect 2 0 44 0;
#X connect 5 0 6 0;
#X connect 6 0 7 0;
#X connect 7 0 1 1;
#X connect 8 0 87 0;
#X connect 10 0 11 0;
#X connect 11 0 12 0;
#X connect 12 0 69 0;
#X connect 13 0 14 0;
#X connect 14 0 86 0;
#X connect 15 0 16 0;
#X connect 16 0 2 0;
#X connect 17 0 18 0;
#X connect 18 0 71 0;
#X connect 19 0 34 0;
#X connect 20 0 15 1;
#X connect 20 1 16 1;
#X connect 20 2 17 1;
#X connect 20 3 18 1;
#X connect 21 0 27 0;
#X connect 27 0 29 0;
#X connect 29 0 26 0;
#X connect 32 0 36 0;
#X connect 32 0 85 0;
#X connect 33 0 53 0;
#X connect 34 0 35 0;
#X connect 35 0 20 0;
#X connect 36 0 37 0;
#X connect 37 0 38 0;
#X connect 37 0 80 0;
#X connect 38 0 33 0;
#X connect 39 0 10 0;
#X connect 40 0 1 0;
#X connect 41 0 42 0;
#X connect 42 0 43 0;
#X connect 43 0 68 0;
#X connect 44 0 17 0;
#X connect 45 0 66 0;
#X connect 46 0 41 0;
#X connect 47 0 48 0;
#X connect 48 0 49 0;
#X connect 49 0 40 1;
#X connect 50 0 51 0;
#X connect 51 0 52 0;
#X connect 52 0 70 0;
#X connect 54 0 55 0;
#X connect 55 0 56 0;
#X connect 56 0 34 0;
#X connect 56 1 34 1;
#X connect 57 0 58 0;
#X connect 58 0 59 0;
#X connect 59 0 48 0;
#X connect 59 1 48 1;
#X connect 60 0 61 0;
#X connect 61 0 74 0;
#X connect 62 0 50 0;
#X connect 63 0 64 0;
#X connect 64 0 65 0;
#X connect 65 0 60 0;
#X connect 65 1 60 1;
#X connect 66 0 3 0;
#X connect 67 0 5 0;
#X connect 68 0 47 0;
#X connect 69 0 19 0;
#X connect 70 0 73 0;
#X connect 71 0 72 0;
#X connect 72 0 45 0;
#X connect 73 0 60 0;
#X connect 74 0 75 0;
#X connect 75 0 76 0;
#X connect 76 0 77 0;
#X connect 77 0 71 1;
#X connect 77 1 72 1;
#X connect 78 0 76 0;
#X connect 79 0 81 0;
#X connect 80 0 79 0;
#X connect 82 0 56 0;
#X connect 83 0 65 0;
#X connect 84 0 59 0;
#X connect 85 0 33 0;
#X connect 86 0 67 0;
#X connect 87 0 7 1;
#X connect 88 0 15 0;
#X coords 0 -1 1 1 175 75 2 100 100;
