#N canvas 74 82 691 378 10;
#X obj 106 133 hsl 128 15 0 127 0 1 empty empty -/+RANGE 135 7 0 10 #fcfcfc #000000 #000000 5900 1;
#X obj 221 278 s NUDGE-RANGE;
#X obj 268 102 bng 30 250 50 0 empty empty NUDGE! -36 5 0 10 #9c00ff #e3c6ff #9c00ff;
#X obj 206 315 s NUDGE!;
#X floatatom 204 117 5 0 0 0 - - - 0;
#X obj 104 122 cnv 5 5 5 empty empty PARAM-NUDGE! 0 0 0 12 #fcfcfc #404040 0;
#X obj 240 52 inlet~;
#X obj 240 74 threshold~ 0.9 0 0.9 0;
#X obj 105 109 cnv 5 5 5 empty empty NUDGE 0 0 0 8 #fcfcfc #404040 0;
#X obj 221 250 f;
#X obj 103 180 tgl 15 1 a2-s attenuators2-r ATTENUATORS 17 7 0 10 #fcfcfc #000000 #000000 1 1;
#X obj 103 150 tgl 15 1 f2-s frequencies2-r FREQUENCIES 17 7 0 10 #fcfcfc #000000 #000000 1 1;
#X obj 103 165 tgl 15 1 p2-s parameters2-r PARAMETERS 17 7 0 10 #fcfcfc #000000 #000000 1 1;
#X obj 325 118 r f2-s;
#X obj 438 123 r p2-s;
#X obj 578 215 r a2-s;
#X obj 310 147 f;
#X obj 310 169 s frequencies2-s;
#X obj 563 241 f;
#X obj 423 149 f;
#X obj 423 171 s parameters2-s;
#X obj 563 263 s attenuators2-s;
#X obj 10 50 state_saving_module param-nudge \$0 \$1;
#X obj 50 10 savestate;
#N canvas 0 50 450 300 \$0-gui_listeners 0;
#X restore 10 80 pd \$0-gui_listeners;
#X obj 240 167 vradio 15 1 0 2 \$0-scope-s \$0-scope-r SCOPE 0 -8 0 10 #f8fc00 #000000 #000000 0;
#X text 257 165 GLOBAL;
#X text 257 179 LOCAL;
#X obj 354 297 f;
#X obj 357 350 s ACTIVE_DOLLARZERO;
#X text 487 318 implementation of pseudo patch-level scope;
#X obj 423 298 r \$0-scope-s;
#X obj 206 224 t b b b b b b;
#X obj 135 77 namecanvas \$0-this;
#N canvas 977 664 450 300 vanilla_get_parent_dollarzero 0;
#X obj 111 198 outlet;
#X obj 109 150 v ACTIVE_DOLLARZERO;
#X obj 109 112 loadbang;
#X connect 1 0 0 0;
#X connect 2 0 1 0;
#X restore 371 239 pd vanilla_get_parent_dollarzero;
#X obj 367 324 * 0;
#X connect 0 0 4 0;
#X connect 0 0 9 1;
#X connect 2 0 32 0;
#X connect 6 0 7 0;
#X connect 7 0 2 0;
#X connect 9 0 1 0;
#X connect 13 0 16 1;
#X connect 14 0 19 1;
#X connect 15 0 18 1;
#X connect 16 0 17 0;
#X connect 18 0 21 0;
#X connect 19 0 20 0;
#X connect 22 0 23 0;
#X connect 23 0 22 0;
#X connect 23 1 22 1;
#X connect 28 0 35 0;
#X connect 31 0 35 1;
#X connect 32 0 3 0;
#X connect 32 1 9 0;
#X connect 32 2 16 0;
#X connect 32 3 19 0;
#X connect 32 4 18 0;
#X connect 32 5 28 0;
#X connect 34 0 28 1;
#X connect 35 0 29 0;
#X coords 0 -1 1 1 200 100 2 100 100;
