#N canvas 841 162 1060 640 10;
#X obj 106 133 hsl 128 15 0 127 0 0 \$0-nudge-range-s \$0-nudge-range-r -/+RANGE 135 7 0 10 #fcfcfc #000000 #000000 0 1;
#X obj 191 318 s NUDGE-RANGE;
#X obj 268 102 bng 30 250 50 0 empty empty NUDGE! -36 5 0 10 #9c00ff #e3c6ff #9c00ff;
#X obj 90 315 s NUDGE!;
#X floatatom 204 117 5 0 0 0 - - - 0;
#X obj 104 122 cnv 5 5 5 empty empty PARAM-NUDGE! 0 0 0 12 #fcfcfc #404040 0;
#X obj 283 33 inlet~;
#X obj 283 55 threshold~ 0.9 0 0.9 0;
#X obj 105 109 cnv 5 5 5 empty empty NUDGE 0 0 0 8 #fcfcfc #404040 0;
#X obj 191 290 f;
#X obj 103 180 tgl 15 0 \$0-a2-s \$0-a2-r ATTENUATORS 17 7 0 10 #fcfcfc #000000 #000000 0 1;
#X obj 103 150 tgl 15 0 \$0-f2-s \$0-f2-r FREQUENCIES 17 7 0 10 #fcfcfc #000000 #000000 0 1;
#X obj 103 165 tgl 15 0 \$0-p2-s \$0-p2-r PARAMETERS 17 7 0 10 #fcfcfc #000000 #000000 0 1;
#X obj 340 267 f;
#X obj 320 312 s frequencies2-s;
#X obj 553 267 f;
#X obj 453 269 f;
#X obj 453 317 s parameters2-s;
#X obj 564 321 s attenuators2-s;
#X obj 10 50 reloaded param-nudge \$0 \$1;
#X obj 50 10 savestate;
#N canvas 32 32 450 276 \$0-gui_listeners 0;
#X restore 10 80 pd \$0-gui_listeners;
#X obj 240 167 vradio 15 1 0 2 \$0-scope-s \$0-scope-r SCOPE 0 -8 0 10 #f8fc00 #000000 #000000 0;
#X text 257 165 GLOBAL;
#X text 257 179 LOCAL;
#X obj 688 321 s ACTIVE_DOLLARZERO;
#X text 699 235 implementation of pseudo patch-level scope;
#X obj 754 269 r \$0-scope-s;
#X obj 378 181 t b b b b b b;
#X obj 135 77 namecanvas \$0-this;
#X obj 698 295 * 0;
#X obj 685 268 f \$2;
#X obj 210 267 r \$0-nudge-range-s;
#X obj 355 238 r \$0-f2-s;
#X obj 468 243 r \$0-p2-s;
#X obj 568 241 r \$0-a2-s;
#X text 828 328 <- *** GLOBAL VARIABLES ! ****;
#N canvas 64 64 535 324 savestate-params 0;
#X obj 90 113 savestate;
#X obj 70 136 list trim;
#X obj 240 128 pack f f f f f;
#X obj 237 85 f;
#X obj 333 101 r \$0-scope-s;
#X obj 257 31 r \$0-nudge-range-s;
#X obj 268 62 r \$0-f2-s;
#X obj 331 57 r \$0-p2-s;
#X obj 431 55 r \$0-a2-s;
#X obj 240 149 list prepend -params;
#X obj 70 159 route -params;
#X obj 25 182 unpack f f f f f;
#X obj 25 223 s \$0-nudge-range-r;
#X obj 139 222 s \$0-f2-r;
#X obj 206 216 s \$0-p2-r;
#X obj 279 215 s \$0-a2-r;
#X obj 358 217 s \$0-scope-r;
#X connect 0 0 1 0;
#X connect 0 1 3 0;
#X connect 1 0 10 0;
#X connect 2 0 9 0;
#X connect 3 0 2 0;
#X connect 4 0 2 4;
#X connect 5 0 3 1;
#X connect 6 0 2 1;
#X connect 7 0 2 2;
#X connect 8 0 2 3;
#X connect 9 0 0 0;
#X connect 10 0 11 0;
#X connect 11 0 12 0;
#X connect 11 1 13 0;
#X connect 11 2 14 0;
#X connect 11 3 15 0;
#X connect 11 4 16 0;
#X restore 666 430 pd savestate-params;
#X connect 0 0 4 0;
#X connect 2 0 28 0;
#X connect 6 0 7 0;
#X connect 7 0 2 0;
#X connect 9 0 1 0;
#X connect 13 0 14 0;
#X connect 15 0 18 0;
#X connect 16 0 17 0;
#X connect 19 0 20 0;
#X connect 20 0 19 0;
#X connect 20 1 19 1;
#X connect 27 0 30 1;
#X connect 28 0 3 0;
#X connect 28 1 9 0;
#X connect 28 2 13 0;
#X connect 28 3 16 0;
#X connect 28 4 15 0;
#X connect 28 5 31 0;
#X connect 30 0 25 0;
#X connect 31 0 30 0;
#X connect 32 0 9 1;
#X connect 33 0 13 1;
#X connect 34 0 16 1;
#X connect 35 0 15 1;
#X coords 0 -1 1 1 200 100 2 100 100;
