#N canvas 0 22 765 620 10;
#X obj 23 413 cnv 15 400 30 empty empty OUTPUTS: 20 12 0 14 #9898dc #fcfcfc 0;
#X obj 25 169 cnv 15 400 30 empty empty CONTROLS: 20 12 0 14 #9898dc #fcfcfc 0;
#X obj 23 348 cnv 15 400 30 empty empty INPUTS: 20 12 0 14 #9898dc #fcfcfc 0;
#X obj 20 17 cnv 15 400 30 empty empty PARAM-NUDGE: 20 12 0 14 #90d4b0 #fcfcfc 0;
#X obj 426 17 param-nudge;
#X text 22 382 NUDGE - trigger/gate input to nudge parameters;
#X text 23 453 /none;
#X text 26 204 NUDGE - click button o nudge all parameters.;
#X text 26 235 RANGE - set nudge range;
#X text 26 262 FREQUENCIES \, PARAMETERS \, ATTENUATORS(toggles): select what type of system parameters will be affected my the nudge;
#X text 24 49 The "PARAM-NUDGE" module is an experimental tool made for mapping out interesting musical spaces. It allows you to nudge all parameters in a patch to search for new intersting sounds. Set how much you want the parameters to be moved with the -/+ RANGE slider and click the NUDGE! button to nudge all parameters. PARAM-NUDGE is a good partner to the preset-manager module when trying to make interesting presets. (For practical reasons \, the MAESTRO4 module is not affected by the PARAM-NUDGE module);
#X text 26 317 SCOPE - specifies if the preset-manager controls only current patch (LOCAL) or all opened patches (GLOBAL);
#X obj 22 298 cnv 15 60 20 empty empty empty 20 12 0 14 #f8fc00 #404040 0;
#X text 28 298 NEW !;
