#N canvas 74 82 691 378 10;
#X obj 106 130 hsl 128 15 0 127 0 1 empty empty -/+RANGE 135 7 0 10
-262144 -1 -1 1700 1;
#X obj 221 278 s NUDGE-RANGE;
#X obj 206 150 bng 30 250 50 0 empty empty NUDGE! 36 16 0 10 -262144
-226533 -1;
#X obj 206 297 s NUDGE!;
#X floatatom 204 116 5 0 0 0 - - -, f 5;
#X obj 104 122 cnv 5 5 5 empty empty PARAM-NUDGE! 0 0 0 12 -262144
-66577 0;
#X obj 240 52 inlet~;
#X obj 240 74 threshold~ 0.9 0 0.9 0;
#X obj 105 109 cnv 5 5 5 empty empty NUDGE 0 0 0 8 -262144 -66577 0
;
#X obj 221 250 f;
#X obj 103 180 tgl 15 1 a2-s attenuators2-r ATTENUATORS 17 7 0 10 -262144
-1 -1 1 1;
#X obj 103 150 tgl 15 1 f2-s frequencies2-r FREQUENCIES 17 7 0 10 -262144
-1 -1 1 1;
#X obj 103 165 tgl 15 1 p2-s parameters2-r PARAMETERS 17 7 0 10 -262144
-1 -1 1 1;
#X obj 325 118 r f2-s;
#X obj 438 123 r p2-s;
#X obj 578 215 r a2-s;
#X obj 310 147 f;
#X obj 206 224 t b b b b b;
#X obj 310 169 s frequencies2-s;
#X obj 563 241 f;
#X obj 423 149 f;
#X obj 423 171 s parameters2-s;
#X obj 563 263 s attenuators2-s;
#X connect 0 0 4 0;
#X connect 0 0 9 1;
#X connect 2 0 17 0;
#X connect 6 0 7 0;
#X connect 7 0 2 0;
#X connect 9 0 1 0;
#X connect 13 0 16 1;
#X connect 14 0 20 1;
#X connect 15 0 19 1;
#X connect 16 0 18 0;
#X connect 17 0 3 0;
#X connect 17 1 9 0;
#X connect 17 2 16 0;
#X connect 17 3 20 0;
#X connect 17 4 19 0;
#X connect 19 0 22 0;
#X connect 20 0 21 0;
#X coords 0 -1 1 1 200 100 2 100 100;
