#N canvas 47 23 1229 752 10;
#X obj 107 148 hsl 128 15 1.27 127 1 1 \$0-acid-cutoff-s \$0-acid-cutoff-r
CUTOFF 135 7 0 10 -262144 -1 -1 800 1;
#X obj 107 133 hsl 128 15 0 127 0 1 \$0-acid-xpose-s \$0-acid-xpose-r
TRANSPOSE 135 7 0 10 -150893 -1 -1 6600 1;
#X obj 107 177 hsl 128 15 0 127 0 1 \$0-acid-envmod-s \$0-acid-envmod-r
ENVMOD 135 7 0 10 -158136 -262144 -1 3400 1;
#X obj 107 162 hsl 128 15 0 127 0 1 \$0-acid-res-s \$0-acid-res-r RES
135 7 0 10 -262144 -1 -1 0 1;
#X obj 107 192 hsl 128 15 0 127 0 1 \$0-acid-accent-s \$0-acid-accent-r
ACCENT 135 7 0 10 -158136 -262144 -1 12700 1;
#X obj 107 237 hsl 128 15 0 127 0 1 \$0-acid-scale-s \$0-acid-scale-r
SCALE 135 7 0 10 -262144 -1 -1 2100 1;
#X obj 524 239 tgl 15 1 \$0-acid-a16-s \$0-acid-a16-r ACCENT 17 7 0
10 -262144 -1 -1 0 1;
#X floatatom 205 118 5 0 0 0 - #0-acid-xpose-gui-r #0-acid-xpose-gui-s
, f 5;
#X obj 104 125 cnv 5 5 5 empty empty PD-303 0 0 0 12 -262144 -66577
0;
#X obj 152 125 cnv 5 5 5 empty \$0-instance-num 2 0 0 0 12 -262144
-66577 0;
#N canvas 0 22 1102 686 wavetables 0;
#X obj 43 441 loadbang;
#X obj 43 463 f \$0;
#X obj 43 494 t f f;
#X text 101 445 SAW WAVE;
#X msg 42 598 \; \$1-saw normalize 1;
#X obj 40 638 table \$0-saw;
#X obj 46 163 loadbang;
#X text 91 186 SQUAREWAVE;
#X obj 47 279 t f f;
#X obj 46 185 f \$0;
#X msg 47 366 \; \$1-square normalize 1;
#X obj 45 406 table \$0-square;
#X msg 70 521 \; \$1-saw sinesum 512 1 0.5 0.33 0.25 0.2 0.16 0.14
0.125 0.111111 0.1 0.090909 0.083333 0.076923 0.0714285 0.066666 0.0625
0.058823 0.055555 0.052631 0.05 0.047619 0.045454 0.043478 0.041666
;
#X msg 115 295 \; \$1-square sinesum 512 1 0 0.33 0 0.2 0 0.142857
0 0.111111 0 0.090909 0 0.076923 0 0.066666 0 0.058823 0 0.0526315
0 0.047619 0 0.04347 0 0.04 0;
#X connect 0 0 1 0;
#X connect 1 0 2 0;
#X connect 2 0 4 0;
#X connect 2 1 12 0;
#X connect 6 0 9 0;
#X connect 8 0 10 0;
#X connect 8 1 13 0;
#X connect 9 0 8 0;
#X restore 101 76 pd wavetables;
#X obj 314 224 tgl 15 1 \$0-acid-g2-s \$0-acid-g2-r empty 17 7 0 10
-262144 -1 -1 1 1;
#X obj 299 224 tgl 15 1 \$0-acid-g1-s \$0-acid-g1-r empty 17 7 0 10
-150893 -1 -1 0 1;
#X obj 344 224 tgl 15 1 \$0-acid-g4-s \$0-acid-g4-r empty 17 7 0 10
-262144 -1 -1 0 1;
#X obj 329 224 tgl 15 1 \$0-acid-g3-s \$0-acid-g3-r empty 17 7 0 10
-262144 -1 -1 1 1;
#X obj 374 224 tgl 15 1 \$0-acid-g6-s \$0-acid-g6-r empty 17 7 0 10
-262144 -1 -1 1 1;
#X obj 359 224 tgl 15 1 \$0-acid-g5-s \$0-acid-g5-r empty 17 7 0 10
-150893 -1 -1 0 1;
#X obj 524 224 tgl 15 1 \$0-acid-g16-s \$0-acid-g16-r SLIDE 17 7 0
10 -262144 -1 -1 0 1;
#X obj 1083 582 *~;
#N canvas 0 22 450 300 next-previous 0;
#X obj 542 56 bng 15 250 50 0 empty empty NEXT 17 7 0 10 -262144 -1
-1;
#X obj 638 59 bng 15 250 50 0 empty empty PREV. 17 7 0 10 -262144 -1
-1;
#X floatatom 543 327 5 0 0 0 - - -, f 5;
#X obj 574 214 + 1;
#X obj 543 215 f;
#X msg 657 140 -1;
#X msg 589 170 1;
#X obj 678 274 f;
#X obj 678 296 - 1;
#X obj 638 79 t b b b;
#X obj 543 257 t f f f;
#X obj 747 176 f;
#X obj 747 198 + 1;
#X obj 542 76 t b b b;
#X connect 0 0 13 0;
#X connect 1 0 9 0;
#X connect 3 0 4 1;
#X connect 4 0 3 0;
#X connect 4 0 10 0;
#X connect 5 0 3 1;
#X connect 6 0 3 1;
#X connect 7 0 8 0;
#X connect 8 0 4 1;
#X connect 9 0 4 0;
#X connect 9 1 5 0;
#X connect 9 2 7 0;
#X connect 10 0 2 0;
#X connect 10 1 7 1;
#X connect 10 2 11 1;
#X connect 11 0 12 0;
#X connect 12 0 4 1;
#X connect 13 0 4 0;
#X connect 13 1 6 0;
#X connect 13 2 11 0;
#X restore 645 335 pd next-previous;
#X obj 738 87 timer;
#X floatatom 738 109 5 0 0 0 - - -, f 5;
#X obj 738 128 t f f;
#X obj 1079 45 mtof~;
#X obj 1079 71 lop~;
#X obj 1145 32 * 200;
#X obj 1145 11 == 0;
#X obj 314 239 tgl 15 1 \$0-acid-a2-s \$0-acid-a2-r empty 17 7 0 10
-262144 -1 -1 0 1;
#X obj 299 239 tgl 15 1 \$0-acid-a1-s \$0-acid-a1-r empty 17 7 0 10
-150893 -1 -1 1 1;
#X obj 344 239 tgl 15 1 \$0-acid-a4-s \$0-acid-a4-r empty 17 7 0 10
-262144 -1 -1 1 1;
#X obj 329 239 tgl 15 1 \$0-acid-a3-s \$0-acid-a3-r empty 17 7 0 10
-262144 -1 -1 0 1;
#X obj 374 239 tgl 15 0 \$0-acid-a6-s \$0-acid-a6-r empty 17 7 0 10
-262144 -1 -1 0 1;
#X obj 359 239 tgl 15 0 \$0-acid-a5-s \$0-acid-a5-r empty 17 7 0 10
-150893 -1 -1 0 1;
#X obj 404 224 tgl 15 1 \$0-acid-g8-s \$0-acid-g8-r empty 17 7 0 10
-262144 -1 -1 0 1;
#X obj 389 224 tgl 15 1 \$0-acid-g7-s \$0-acid-g7-r empty 17 7 0 10
-262144 -1 -1 0 1;
#X obj 404 239 tgl 15 1 \$0-acid-a8-s \$0-acid-a8-r empty 17 7 0 10
-262144 -1 -1 1 1;
#X obj 389 239 tgl 15 1 \$0-acid-a7-s \$0-acid-a7-r empty 17 7 0 10
-262144 -1 -1 0 1;
#X obj 434 224 tgl 15 1 \$0-acid-g10-s \$0-acid-g10-r empty 17 7 0
10 -262144 -1 -1 0 1;
#X obj 419 224 tgl 15 1 \$0-acid-g9-s \$0-acid-g9-r empty 17 7 0 10
-150893 -1 -1 1 1;
#X obj 434 239 tgl 15 1 \$0-acid-a10-s \$0-acid-a10-r empty 17 7 0
10 -262144 -1 -1 1 1;
#X obj 419 239 tgl 15 1 \$0-acid-a9-s \$0-acid-a9-r empty 17 7 0 10
-150893 -1 -1 0 1;
#X obj 464 224 tgl 15 1 \$0-acid-g12-s \$0-acid-g12-r empty 17 7 0
10 -262144 -1 -1 0 1;
#X obj 449 224 tgl 15 1 \$0-acid-g11-s \$0-acid-g11-r empty 17 7 0
10 -262144 -1 -1 0 1;
#X obj 464 239 tgl 15 1 \$0-acid-a12-s \$0-acid-a12-r empty 17 7 0
10 -262144 -1 -1 0 1;
#X obj 449 239 tgl 15 1 \$0-acid-a11-s \$0-acid-a11-r empty 17 7 0
10 -262144 -1 -1 0 1;
#X obj 494 224 tgl 15 1 \$0-acid-g14-s \$0-acid-g14-r empty 17 7 0
10 -262144 -1 -1 1 1;
#X obj 479 224 tgl 15 1 \$0-acid-g13-s \$0-acid-g13-r empty 17 7 0
10 -150893 -1 -1 1 1;
#X obj 494 239 tgl 15 1 \$0-acid-a14-s \$0-acid-a14-r empty 17 7 0
10 -262144 -1 -1 0 1;
#X obj 479 239 tgl 15 1 \$0-acid-a13-s \$0-acid-a13-r empty 17 7 0
10 -150893 -1 -1 1 1;
#X obj 509 224 tgl 15 1 \$0-acid-g15-s \$0-acid-g15-r empty 17 7 0
10 -262144 -1 -1 0 1;
#X obj 509 239 tgl 15 1 \$0-acid-a15-s \$0-acid-a15-r empty 17 7 0
10 -262144 -1 -1 1 1;
#X obj 738 172 s \$0-acid-gatelength;
#X obj 1098 514 r~ \$0-acid-amp-eg;
#N canvas 0 22 1255 677 16step-short-gate-and-long-gate-eg 0;
#X obj 128 -52 inlet;
#X obj 128 -25 f;
#X obj 161 -25 + 1;
#X floatatom 128 19 5 0 0 0 - - -, f 5;
#X obj 129 548 spigot;
#X obj 129 511 t b b;
#X obj 202 528 spigot;
#X obj 208 429 r \$0-acid-g1-s;
#X obj 208 473 == 0;
#X obj 257 551 spigot;
#X obj 257 514 t b b;
#X obj 330 531 spigot;
#X obj 397 541 spigot;
#X obj 397 504 t b b;
#X obj 470 521 spigot;
#X obj 525 544 spigot;
#X obj 525 507 t b b;
#X obj 598 524 spigot;
#X obj 208 451 t f f;
#X obj 336 457 == 0;
#X obj 336 435 t f f;
#X obj 336 413 r \$0-acid-g2-s;
#X obj 476 420 == 0;
#X obj 476 398 t f f;
#X obj 476 376 r \$0-acid-g3-s;
#X obj 558 471 == 0;
#X obj 558 449 t f f;
#X obj 558 427 r \$0-acid-g4-s;
#X obj 130 581 s \$0-acid-short-gate;
#X obj 257 581 s \$0-acid-short-gate;
#X obj 397 581 s \$0-acid-short-gate;
#X obj 525 581 s \$0-acid-short-gate;
#X obj 202 610 s \$0-acid-long-gate;
#X obj 330 610 s \$0-acid-long-gate;
#X obj 470 610 s \$0-acid-long-gate;
#X obj 598 610 s \$0-acid-long-gate;
#X obj 127 71 sel 0 1 2 3 4 5 6 7 8 9 10 11 12 13 14 15, f 170;
#X obj 359 277 spigot;
#X obj 359 240 t b b;
#X obj 432 257 spigot;
#X obj 438 202 == 0;
#X obj 487 280 spigot;
#X obj 487 243 t b b;
#X obj 560 260 spigot;
#X obj 627 270 spigot;
#X obj 627 233 t b b;
#X obj 700 250 spigot;
#X obj 755 273 spigot;
#X obj 755 236 t b b;
#X obj 828 253 spigot;
#X obj 438 180 t f f;
#X obj 566 186 == 0;
#X obj 566 164 t f f;
#X obj 706 149 == 0;
#X obj 706 127 t f f;
#X obj 788 200 == 0;
#X obj 788 178 t f f;
#X obj 360 310 s \$0-acid-short-gate;
#X obj 487 310 s \$0-acid-short-gate;
#X obj 627 310 s \$0-acid-short-gate;
#X obj 755 310 s \$0-acid-short-gate;
#X obj 432 339 s \$0-acid-long-gate;
#X obj 560 339 s \$0-acid-long-gate;
#X obj 700 339 s \$0-acid-long-gate;
#X obj 828 339 s \$0-acid-long-gate;
#X obj 718 536 spigot;
#X obj 718 499 t b b;
#X obj 791 516 spigot;
#X obj 797 461 == 0;
#X obj 846 539 spigot;
#X obj 846 502 t b b;
#X obj 919 519 spigot;
#X obj 986 529 spigot;
#X obj 986 492 t b b;
#X obj 1059 509 spigot;
#X obj 1114 532 spigot;
#X obj 1114 495 t b b;
#X obj 1187 512 spigot;
#X obj 797 439 t f f;
#X obj 925 445 == 0;
#X obj 925 423 t f f;
#X obj 1065 408 == 0;
#X obj 1065 386 t f f;
#X obj 1147 459 == 0;
#X obj 1147 437 t f f;
#X obj 719 569 s \$0-acid-short-gate;
#X obj 846 569 s \$0-acid-short-gate;
#X obj 986 569 s \$0-acid-short-gate;
#X obj 1114 569 s \$0-acid-short-gate;
#X obj 791 598 s \$0-acid-long-gate;
#X obj 919 598 s \$0-acid-long-gate;
#X obj 1059 598 s \$0-acid-long-gate;
#X obj 1187 598 s \$0-acid-long-gate;
#X obj 943 267 spigot;
#X obj 943 230 t b b;
#X obj 1016 247 spigot;
#X obj 1022 192 == 0;
#X obj 1071 270 spigot;
#X obj 1071 233 t b b;
#X obj 1144 250 spigot;
#X obj 1211 260 spigot;
#X obj 1211 223 t b b;
#X obj 1284 240 spigot;
#X obj 1339 263 spigot;
#X obj 1339 226 t b b;
#X obj 1412 243 spigot;
#X obj 1022 170 t f f;
#X obj 1150 176 == 0;
#X obj 1150 154 t f f;
#X obj 1290 139 == 0;
#X obj 1290 117 t f f;
#X obj 1372 190 == 0;
#X obj 1372 168 t f f;
#X obj 944 300 s \$0-acid-short-gate;
#X obj 1071 300 s \$0-acid-short-gate;
#X obj 1211 300 s \$0-acid-short-gate;
#X obj 1339 300 s \$0-acid-short-gate;
#X obj 1016 329 s \$0-acid-long-gate;
#X obj 1144 329 s \$0-acid-long-gate;
#X obj 1284 329 s \$0-acid-long-gate;
#X obj 1412 329 s \$0-acid-long-gate;
#X obj 438 158 r \$0-acid-g5-s;
#X obj 566 142 r \$0-acid-g6-s;
#X obj 706 105 r \$0-acid-g7-s;
#X obj 788 156 r \$0-acid-g8-s;
#X obj 797 417 r \$0-acid-g9-s;
#X obj 925 401 r \$0-acid-g10-s;
#X obj 1065 364 r \$0-acid-g11-s;
#X obj 1147 415 r \$0-acid-g12-s;
#X obj 1022 148 r \$0-acid-g13-s;
#X obj 1150 132 r \$0-acid-g14-s;
#X obj 1290 95 r \$0-acid-g15-s;
#X obj 1372 146 r \$0-acid-g16-s;
#X obj 128 38 t f f;
#X obj 171 35 s \$0-acid-active-step;
#X obj 128 -3 % 16;
#X obj 225 -64 r \$0-acid-reset-s;
#X msg 225 -42 0;
#X connect 0 0 1 0;
#X connect 1 0 2 0;
#X connect 1 0 135 0;
#X connect 2 0 1 1;
#X connect 3 0 133 0;
#X connect 4 0 28 0;
#X connect 5 0 4 0;
#X connect 5 1 6 0;
#X connect 6 0 32 0;
#X connect 7 0 18 0;
#X connect 8 0 4 1;
#X connect 9 0 29 0;
#X connect 10 0 9 0;
#X connect 10 1 11 0;
#X connect 11 0 33 0;
#X connect 12 0 30 0;
#X connect 13 0 12 0;
#X connect 13 1 14 0;
#X connect 14 0 34 0;
#X connect 15 0 31 0;
#X connect 16 0 15 0;
#X connect 16 1 17 0;
#X connect 17 0 35 0;
#X connect 18 0 8 0;
#X connect 18 1 6 1;
#X connect 19 0 9 1;
#X connect 20 0 19 0;
#X connect 20 1 11 1;
#X connect 21 0 20 0;
#X connect 22 0 12 1;
#X connect 23 0 22 0;
#X connect 23 1 14 1;
#X connect 24 0 23 0;
#X connect 25 0 15 1;
#X connect 26 0 25 0;
#X connect 26 1 17 1;
#X connect 27 0 26 0;
#X connect 36 0 5 0;
#X connect 36 1 10 0;
#X connect 36 2 13 0;
#X connect 36 3 16 0;
#X connect 36 4 38 0;
#X connect 36 5 42 0;
#X connect 36 6 45 0;
#X connect 36 7 48 0;
#X connect 36 8 66 0;
#X connect 36 9 70 0;
#X connect 36 10 73 0;
#X connect 36 11 76 0;
#X connect 36 12 94 0;
#X connect 36 13 98 0;
#X connect 36 14 101 0;
#X connect 36 15 104 0;
#X connect 37 0 57 0;
#X connect 38 0 37 0;
#X connect 38 1 39 0;
#X connect 39 0 61 0;
#X connect 40 0 37 1;
#X connect 41 0 58 0;
#X connect 42 0 41 0;
#X connect 42 1 43 0;
#X connect 43 0 62 0;
#X connect 44 0 59 0;
#X connect 45 0 44 0;
#X connect 45 1 46 0;
#X connect 46 0 63 0;
#X connect 47 0 60 0;
#X connect 48 0 47 0;
#X connect 48 1 49 0;
#X connect 49 0 64 0;
#X connect 50 0 40 0;
#X connect 50 1 39 1;
#X connect 51 0 41 1;
#X connect 52 0 51 0;
#X connect 52 1 43 1;
#X connect 53 0 44 1;
#X connect 54 0 53 0;
#X connect 54 1 46 1;
#X connect 55 0 47 1;
#X connect 56 0 55 0;
#X connect 56 1 49 1;
#X connect 65 0 85 0;
#X connect 66 0 65 0;
#X connect 66 1 67 0;
#X connect 67 0 89 0;
#X connect 68 0 65 1;
#X connect 69 0 86 0;
#X connect 70 0 69 0;
#X connect 70 1 71 0;
#X connect 71 0 90 0;
#X connect 72 0 87 0;
#X connect 73 0 72 0;
#X connect 73 1 74 0;
#X connect 74 0 91 0;
#X connect 75 0 88 0;
#X connect 76 0 75 0;
#X connect 76 1 77 0;
#X connect 77 0 92 0;
#X connect 78 0 68 0;
#X connect 78 1 67 1;
#X connect 79 0 69 1;
#X connect 80 0 79 0;
#X connect 80 1 71 1;
#X connect 81 0 72 1;
#X connect 82 0 81 0;
#X connect 82 1 74 1;
#X connect 83 0 75 1;
#X connect 84 0 83 0;
#X connect 84 1 77 1;
#X connect 93 0 113 0;
#X connect 94 0 93 0;
#X connect 94 1 95 0;
#X connect 95 0 117 0;
#X connect 96 0 93 1;
#X connect 97 0 114 0;
#X connect 98 0 97 0;
#X connect 98 1 99 0;
#X connect 99 0 118 0;
#X connect 100 0 115 0;
#X connect 101 0 100 0;
#X connect 101 1 102 0;
#X connect 102 0 119 0;
#X connect 103 0 116 0;
#X connect 104 0 103 0;
#X connect 104 1 105 0;
#X connect 105 0 120 0;
#X connect 106 0 96 0;
#X connect 106 1 95 1;
#X connect 107 0 97 1;
#X connect 108 0 107 0;
#X connect 108 1 99 1;
#X connect 109 0 100 1;
#X connect 110 0 109 0;
#X connect 110 1 102 1;
#X connect 111 0 103 1;
#X connect 112 0 111 0;
#X connect 112 1 105 1;
#X connect 121 0 50 0;
#X connect 122 0 52 0;
#X connect 123 0 54 0;
#X connect 124 0 56 0;
#X connect 125 0 78 0;
#X connect 126 0 80 0;
#X connect 127 0 82 0;
#X connect 128 0 84 0;
#X connect 129 0 106 0;
#X connect 130 0 108 0;
#X connect 131 0 110 0;
#X connect 132 0 112 0;
#X connect 133 0 36 0;
#X connect 133 1 134 0;
#X connect 135 0 3 0;
#X connect 136 0 137 0;
#X connect 137 0 1 0;
#X restore 646 201 pd 16step-short-gate-and-long-gate-eg;
#X obj 203 70 t b b b b;
#X obj 1145 -14 r \$0-acid-slide-to-lop;
#N canvas 0 22 1050 690 16step-pitch-sequencer 0;
#X obj 108 -1 r \$0-acid-active-step;
#X obj 108 35 sel 0 1 2 3 4 5 6 7 8 9 10 11 12 13 14 15, f 102;
#X obj 123 590 r \$0-acid-s1-s;
#X obj 108 618 f;
#X obj 108 640 s \$0-acid-pitch-to-mtof;
#X obj 123 543 f;
#X obj 123 565 s \$0-acid-pitch-to-mtof;
#X obj 138 515 r \$0-acid-s2-s;
#X obj 138 466 f;
#X obj 138 488 s \$0-acid-pitch-to-mtof;
#X obj 153 391 f;
#X obj 153 413 s \$0-acid-pitch-to-mtof;
#X obj 153 438 r \$0-acid-s3-s;
#X obj 168 363 r \$0-acid-s4-s;
#X obj 283 613 f;
#X obj 283 635 s \$0-acid-pitch-to-mtof;
#X obj 298 538 f;
#X obj 298 560 s \$0-acid-pitch-to-mtof;
#X obj 313 461 f;
#X obj 313 483 s \$0-acid-pitch-to-mtof;
#X obj 328 386 f;
#X obj 328 408 s \$0-acid-pitch-to-mtof;
#X obj 298 585 r \$0-acid-s5-s;
#X obj 313 510 r \$0-acid-s6-s;
#X obj 328 433 r \$0-acid-s7-s;
#X obj 343 358 r \$0-acid-s8-s;
#X obj 444 612 f;
#X obj 444 634 s \$0-acid-pitch-to-mtof;
#X obj 459 537 f;
#X obj 459 559 s \$0-acid-pitch-to-mtof;
#X obj 474 460 f;
#X obj 474 482 s \$0-acid-pitch-to-mtof;
#X obj 489 385 f;
#X obj 489 407 s \$0-acid-pitch-to-mtof;
#X obj 619 607 f;
#X obj 619 629 s \$0-acid-pitch-to-mtof;
#X obj 634 532 f;
#X obj 634 554 s \$0-acid-pitch-to-mtof;
#X obj 649 455 f;
#X obj 649 477 s \$0-acid-pitch-to-mtof;
#X obj 664 380 f;
#X obj 664 402 s \$0-acid-pitch-to-mtof;
#X obj 459 584 r \$0-acid-s9-s;
#X obj 474 509 r \$0-acid-s10-s;
#X obj 489 432 r \$0-acid-s11-s;
#X obj 504 357 r \$0-acid-s12-s;
#X obj 634 579 r \$0-acid-s13-s;
#X obj 649 504 r \$0-acid-s14-s;
#X obj 664 427 r \$0-acid-s15-s;
#X obj 679 352 r \$0-acid-s16-s;
#X connect 1 0 3 0;
#X connect 1 1 5 0;
#X connect 1 2 8 0;
#X connect 1 3 10 0;
#X connect 1 4 14 0;
#X connect 1 5 16 0;
#X connect 1 6 18 0;
#X connect 1 7 20 0;
#X connect 1 8 26 0;
#X connect 1 9 28 0;
#X connect 1 10 30 0;
#X connect 1 11 32 0;
#X connect 1 12 34 0;
#X connect 1 13 36 0;
#X connect 1 14 38 0;
#X connect 1 15 40 0;
#X connect 2 0 3 1;
#X connect 3 0 4 0;
#X connect 5 0 6 0;
#X connect 7 0 5 1;
#X connect 8 0 9 0;
#X connect 10 0 11 0;
#X connect 12 0 8 1;
#X connect 13 0 10 1;
#X connect 14 0 15 0;
#X connect 16 0 17 0;
#X connect 18 0 19 0;
#X connect 20 0 21 0;
#X connect 22 0 14 1;
#X connect 23 0 16 1;
#X connect 24 0 18 1;
#X connect 25 0 20 1;
#X connect 26 0 27 0;
#X connect 28 0 29 0;
#X connect 30 0 31 0;
#X connect 32 0 33 0;
#X connect 34 0 35 0;
#X connect 36 0 37 0;
#X connect 38 0 39 0;
#X connect 40 0 41 0;
#X connect 42 0 26 1;
#X connect 43 0 28 1;
#X connect 44 0 30 1;
#X connect 45 0 32 1;
#X connect 46 0 34 1;
#X connect 47 0 36 1;
#X connect 48 0 38 1;
#X connect 49 0 40 1;
#X restore 646 246 pd 16step-pitch-sequencer;
#N canvas 0 22 1143 749 ladder-filter 0;
#X obj 536 155 pack 0 10;
#X obj 536 177 line~;
#X obj 536 133 / 127;
#X obj 536 199 +~;
#X obj 375 19 / 127;
#X obj 333 128 pack 0 50;
#X obj 333 150 line~;
#X obj 333 106 * 0.99;
#X obj 501 643 clip~ -1 1;
#X obj 536 243 lop~ 10;
#X obj 407 114 * 2;
#X obj 536 275 s~ \$0-ladder-cutoff;
#X obj 246 18 inlet~;
#X obj 333 85 t f f;
#X obj 501 709 outlet~;
#X obj 407 160 s \$0-ladder-q-mess;
#X obj 780 53 inlet~ FREQ CV INPUT;
#X obj 303 336 vcf~ 1;
#X obj 318 232 *~;
#X obj 303 264 +~;
#X obj 319 287 r~ \$0-ladder-cutoff;
#X obj 318 210 r~ \$0-ladder-Q;
#X obj 336 309 r \$0-ladder-q-mess;
#X obj 336 380 vcf~ 1;
#X obj 352 331 r~ \$0-ladder-cutoff;
#X obj 369 353 r \$0-ladder-q-mess;
#X obj 369 427 vcf~ 1;
#X obj 385 378 r~ \$0-ladder-cutoff;
#X obj 402 400 r \$0-ladder-q-mess;
#X obj 402 471 vcf~ 1;
#X obj 418 422 r~ \$0-ladder-cutoff;
#X obj 435 444 r \$0-ladder-q-mess;
#X obj 435 515 vcf~ 1;
#X obj 451 466 r~ \$0-ladder-cutoff;
#X obj 468 488 r \$0-ladder-q-mess;
#X obj 468 559 vcf~ 1;
#X obj 484 510 r~ \$0-ladder-cutoff;
#X obj 501 532 r \$0-ladder-q-mess;
#X obj 577 638 s~ \$0-ladder-Q;
#X obj 577 576 *~ 2;
#X obj 501 591 *~ 2;
#X obj 536 44 t f f;
#X obj 839 178 / 127;
#X obj 839 200 * 3;
#X obj 839 222 + 1;
#X floatatom 839 244 5 0 0 0 - - -, f 5;
#X obj 501 613 *~;
#X obj 839 263 pack 0 50;
#X obj 839 285 line~;
#X obj 536 221 *~ 5000;
#X obj 577 598 *~ -1;
#X obj 680 377 vcf~ 1;
#X obj 713 350 r \$0-ladder-q-mess;
#X obj 713 421 vcf~ 1;
#X obj 746 394 r \$0-ladder-q-mess;
#X obj 746 468 vcf~ 1;
#X obj 779 441 r \$0-ladder-q-mess;
#X obj 779 512 vcf~ 1;
#X obj 812 485 r \$0-ladder-q-mess;
#X obj 812 556 vcf~ 1;
#X obj 845 529 r \$0-ladder-q-mess;
#X obj 845 600 vcf~ 1;
#X obj 878 573 r \$0-ladder-q-mess;
#X obj 696 328 r~ \$0-ladder-cutoff2;
#X obj 729 372 r~ \$0-ladder-cutoff2;
#X obj 762 419 r~ \$0-ladder-cutoff2;
#X obj 795 463 r~ \$0-ladder-cutoff2;
#X obj 828 507 r~ \$0-ladder-cutoff2;
#X obj 861 551 r~ \$0-ladder-cutoff2;
#X obj 691 283 s~ \$0-ladder-cutoff2;
#X obj 878 670 clip~ -1 1;
#X obj 878 624 *~ 2;
#X obj 878 646 *~;
#X obj 501 688 clip~ -1 1;
#X obj 691 261 +~ 10;
#X obj 780 141 *~;
#X obj 929 38 / 127;
#X obj 929 104 pack 0 50;
#X obj 929 126 line~;
#X obj 501 666 *~ 1;
#X obj 246 70 clip~ -1 1;
#X obj 536 22 r \$0-acid-cutoff-s;
#X obj 375 -4 r \$0-acid-res-s;
#X obj 929 14 r \$0-acid-envmod-s;
#X obj 246 40 *~ 10;
#X obj 375 41 * 100;
#X obj 375 63 + 27;
#X obj 375 85 / 127;
#X obj 407 136 + 2;
#X connect 0 0 1 0;
#X connect 1 0 3 0;
#X connect 2 0 0 0;
#X connect 3 0 49 0;
#X connect 4 0 85 0;
#X connect 5 0 6 0;
#X connect 6 0 18 1;
#X connect 7 0 5 0;
#X connect 8 0 79 0;
#X connect 9 0 11 0;
#X connect 9 0 74 0;
#X connect 10 0 88 0;
#X connect 12 0 84 0;
#X connect 13 0 7 0;
#X connect 13 1 10 0;
#X connect 16 0 75 0;
#X connect 17 1 23 0;
#X connect 18 0 17 0;
#X connect 19 0 17 0;
#X connect 19 0 51 0;
#X connect 20 0 17 1;
#X connect 21 0 18 0;
#X connect 22 0 17 2;
#X connect 23 1 26 0;
#X connect 24 0 23 1;
#X connect 25 0 23 2;
#X connect 26 1 29 0;
#X connect 27 0 26 1;
#X connect 28 0 26 2;
#X connect 29 1 32 0;
#X connect 30 0 29 1;
#X connect 31 0 29 2;
#X connect 32 1 35 0;
#X connect 33 0 32 1;
#X connect 34 0 32 2;
#X connect 35 1 39 0;
#X connect 35 1 40 0;
#X connect 36 0 35 1;
#X connect 37 0 35 2;
#X connect 39 0 50 0;
#X connect 40 0 46 0;
#X connect 41 0 2 0;
#X connect 41 1 42 0;
#X connect 42 0 43 0;
#X connect 43 0 44 0;
#X connect 44 0 45 0;
#X connect 45 0 47 0;
#X connect 46 0 8 0;
#X connect 47 0 48 0;
#X connect 48 0 46 1;
#X connect 49 0 9 0;
#X connect 50 0 38 0;
#X connect 51 1 53 0;
#X connect 52 0 51 2;
#X connect 53 1 55 0;
#X connect 54 0 53 2;
#X connect 55 1 57 0;
#X connect 56 0 55 2;
#X connect 57 1 59 0;
#X connect 58 0 57 2;
#X connect 59 1 61 0;
#X connect 60 0 59 2;
#X connect 61 1 71 0;
#X connect 62 0 61 2;
#X connect 63 0 51 1;
#X connect 64 0 53 1;
#X connect 65 0 55 1;
#X connect 66 0 57 1;
#X connect 67 0 59 1;
#X connect 68 0 61 1;
#X connect 70 0 79 0;
#X connect 71 0 72 0;
#X connect 72 0 70 0;
#X connect 73 0 14 0;
#X connect 74 0 69 0;
#X connect 75 0 3 1;
#X connect 76 0 77 0;
#X connect 77 0 78 0;
#X connect 78 0 75 1;
#X connect 79 0 73 0;
#X connect 80 0 19 0;
#X connect 81 0 41 0;
#X connect 82 0 4 0;
#X connect 83 0 76 0;
#X connect 84 0 80 0;
#X connect 85 0 86 0;
#X connect 86 0 87 0;
#X connect 87 0 13 0;
#X connect 88 0 15 0;
#X restore 1079 456 pd ladder-filter;
#X obj 1211 421 r~ \$0-acid-accent-eg;
#N canvas 0 22 778 669 16step-slide-sequencer 0;
#X obj 108 82 r \$0-acid-active-step;
#X obj 108 104 sel 0 1 2 3 4 5 6 7 8 9 10 11 12 13 14 15;
#X obj 123 569 r \$0-acid-g1-s;
#X obj 108 607 f;
#X obj 108 633 s \$0-acid-slide-to-lop;
#X obj 123 515 f;
#X obj 123 541 s \$0-acid-slide-to-lop;
#X obj 138 477 r \$0-acid-g2-s;
#X obj 138 421 f;
#X obj 138 447 s \$0-acid-slide-to-lop;
#X obj 153 329 f;
#X obj 153 355 s \$0-acid-slide-to-lop;
#X obj 168 291 r \$0-acid-g4-s;
#X obj 153 383 r \$0-acid-g3-s;
#X obj 278 603 f;
#X obj 278 629 s \$0-acid-slide-to-lop;
#X obj 293 511 f;
#X obj 293 537 s \$0-acid-slide-to-lop;
#X obj 308 417 f;
#X obj 308 443 s \$0-acid-slide-to-lop;
#X obj 323 325 f;
#X obj 323 351 s \$0-acid-slide-to-lop;
#X obj 293 565 r \$0-acid-g5-s;
#X obj 308 473 r \$0-acid-g6-s;
#X obj 323 379 r \$0-acid-g7-s;
#X obj 338 287 r \$0-acid-g8-s;
#X obj 454 597 f;
#X obj 454 623 s \$0-acid-slide-to-lop;
#X obj 469 505 f;
#X obj 469 531 s \$0-acid-slide-to-lop;
#X obj 484 411 f;
#X obj 484 437 s \$0-acid-slide-to-lop;
#X obj 499 319 f;
#X obj 499 345 s \$0-acid-slide-to-lop;
#X obj 469 559 r \$0-acid-g9-s;
#X obj 484 467 r \$0-acid-g10-s;
#X obj 499 373 r \$0-acid-g11-s;
#X obj 514 281 r \$0-acid-g12-s;
#X obj 618 594 f;
#X obj 618 620 s \$0-acid-slide-to-lop;
#X obj 633 502 f;
#X obj 633 528 s \$0-acid-slide-to-lop;
#X obj 648 408 f;
#X obj 648 434 s \$0-acid-slide-to-lop;
#X obj 663 316 f;
#X obj 663 342 s \$0-acid-slide-to-lop;
#X obj 633 556 r \$0-acid-g13-s;
#X obj 648 464 r \$0-acid-g14-s;
#X obj 663 370 r \$0-acid-g15-s;
#X obj 678 278 r \$0-acid-g16-s;
#X connect 0 0 1 0;
#X connect 1 0 3 0;
#X connect 1 1 5 0;
#X connect 1 2 8 0;
#X connect 1 3 10 0;
#X connect 1 4 14 0;
#X connect 1 5 16 0;
#X connect 1 6 18 0;
#X connect 1 7 20 0;
#X connect 1 8 26 0;
#X connect 1 9 28 0;
#X connect 1 10 30 0;
#X connect 1 11 32 0;
#X connect 1 12 38 0;
#X connect 1 13 40 0;
#X connect 1 14 42 0;
#X connect 1 15 44 0;
#X connect 2 0 3 1;
#X connect 3 0 4 0;
#X connect 5 0 6 0;
#X connect 7 0 5 1;
#X connect 8 0 9 0;
#X connect 10 0 11 0;
#X connect 12 0 10 1;
#X connect 13 0 8 1;
#X connect 14 0 15 0;
#X connect 16 0 17 0;
#X connect 18 0 19 0;
#X connect 20 0 21 0;
#X connect 22 0 14 1;
#X connect 23 0 16 1;
#X connect 24 0 18 1;
#X connect 25 0 20 1;
#X connect 26 0 27 0;
#X connect 28 0 29 0;
#X connect 30 0 31 0;
#X connect 32 0 33 0;
#X connect 34 0 26 1;
#X connect 35 0 28 1;
#X connect 36 0 30 1;
#X connect 37 0 32 1;
#X connect 38 0 39 0;
#X connect 40 0 41 0;
#X connect 42 0 43 0;
#X connect 44 0 45 0;
#X connect 46 0 38 1;
#X connect 47 0 40 1;
#X connect 48 0 42 1;
#X connect 49 0 44 1;
#X restore 646 224 pd 16step-slide-sequencer;
#X obj 1226 445 r \$0-acid-accent-on/off;
#X obj 1226 489 line~;
#X obj 1211 514 *~;
#X obj 1226 468 pack 0 10;
#X obj 1211 536 *~;
#X obj 1374 430 r \$0-acid-accent-s;
#X obj 1374 452 / 127;
#X obj 1374 496 pack 0 50;
#X obj 1374 518 line~;
#X obj 1211 558 s~ \$0-acid-accent-to-filter;
#X obj 1171 255 r~ \$0-acid-accent-to-filter;
#X obj 1172 409 *~;
#X obj 1227 280 r \$0-acid-envmod-s;
#X obj 1227 302 / 127;
#X obj 1227 326 pack 0 50;
#X obj 1227 348 line~;
#X obj 1227 370 +~;
#X obj 999 145 / 1000;
#X msg 999 172 1 \$1;
#X obj 998 195 -;
#X obj 998 243 + 1;
#X obj 203 37 threshold~ 0.9 0 0.9 0;
#N canvas 0 22 909 642 envelope-generators 0;
#X obj 113 350 vline~;
#X msg 31 235 1 1 \, 0 \$1 1;
#X obj 31 210 f;
#X msg 113 301 1 1;
#X obj 46 173 r \$0-acid-gatelength;
#X obj 31 31 r \$0-acid-short-gate;
#X obj 113 204 r \$0-acid-long-gate;
#X obj 113 586 s~ \$0-acid-amp-eg;
#X obj 113 388 *~;
#X text 146 299 AMP EG:;
#X obj 350 385 vline~;
#X obj 262 299 f;
#X msg 350 355 1 1;
#X obj 277 152 r \$0-acid-gatelength;
#X obj 262 10 r \$0-acid-short-gate;
#X obj 350 244 r \$0-acid-long-gate;
#X obj 350 423 *~;
#X obj 277 272 *;
#X obj 292 180 r \$0-acid-decay-s;
#X obj 292 202 / 127;
#X obj 292 246 + 0.1;
#X obj 349 586 s~ \$0-acid-filter-eg;
#X text 397 382 FILTER EG:;
#X obj 614 407 vline~;
#X obj 526 302 f;
#X msg 614 358 1 1;
#X obj 541 155 r \$0-acid-gatelength;
#X obj 527 13 r \$0-acid-short-gate;
#X obj 614 266 r \$0-acid-long-gate;
#X obj 614 445 *~;
#X msg 526 327 1 20 \, 0 \$1 20;
#X obj 614 583 s~ \$0-acid-accent-eg;
#X obj 541 275 *;
#X obj 556 183 r \$0-acid-decay-s;
#X obj 556 205 / 127;
#X obj 556 249 + 0.1;
#X text 661 414 ACCENT EG:;
#X msg 262 324 1 1 \, 0 \$1 1;
#X obj 292 224 * 1.9;
#X obj 556 227 * 1.9;
#X connect 0 0 8 0;
#X connect 0 0 8 1;
#X connect 1 0 0 0;
#X connect 2 0 1 0;
#X connect 3 0 0 0;
#X connect 4 0 2 1;
#X connect 5 0 2 0;
#X connect 6 0 3 0;
#X connect 8 0 7 0;
#X connect 10 0 16 0;
#X connect 10 0 16 1;
#X connect 11 0 37 0;
#X connect 12 0 10 0;
#X connect 13 0 17 0;
#X connect 14 0 11 0;
#X connect 15 0 12 0;
#X connect 16 0 21 0;
#X connect 17 0 11 1;
#X connect 18 0 19 0;
#X connect 19 0 38 0;
#X connect 20 0 17 1;
#X connect 23 0 29 0;
#X connect 23 0 29 1;
#X connect 24 0 30 0;
#X connect 25 0 23 0;
#X connect 26 0 32 0;
#X connect 27 0 24 0;
#X connect 28 0 25 0;
#X connect 29 0 31 0;
#X connect 30 0 23 0;
#X connect 32 0 24 1;
#X connect 33 0 34 0;
#X connect 34 0 39 0;
#X connect 35 0 32 1;
#X connect 37 0 10 0;
#X connect 38 0 20 0;
#X connect 39 0 35 0;
#X restore 646 289 pd envelope-generators;
#N canvas 0 22 487 510 active-step-gui 0;
#X obj 43 32 r \$0-acid-active-step;
#X obj 40 457 s \$0-acid-gui1-r;
#X obj 55 434 s \$0-acid-gui2-r;
#X obj 70 409 s \$0-acid-gui3-r;
#X obj 86 386 s \$0-acid-gui4-r;
#X obj 102 358 s \$0-acid-gui5-r;
#X obj 117 335 s \$0-acid-gui6-r;
#X obj 132 310 s \$0-acid-gui7-r;
#X obj 148 287 s \$0-acid-gui8-r;
#X obj 43 54 sel 0 1 2 3 4 5 6 7 8 9 10 11 12 13 14 15;
#X obj 166 259 s \$0-acid-gui9-r;
#X obj 181 236 s \$0-acid-gui10-r;
#X obj 196 211 s \$0-acid-gui11-r;
#X obj 212 188 s \$0-acid-gui12-r;
#X obj 228 160 s \$0-acid-gui13-r;
#X obj 243 137 s \$0-acid-gui14-r;
#X obj 258 112 s \$0-acid-gui15-r;
#X obj 271 89 s \$0-acid-gui16-r;
#X connect 0 0 9 0;
#X connect 9 0 1 0;
#X connect 9 1 2 0;
#X connect 9 2 3 0;
#X connect 9 3 4 0;
#X connect 9 4 5 0;
#X connect 9 5 6 0;
#X connect 9 6 7 0;
#X connect 9 7 8 0;
#X connect 9 8 10 0;
#X connect 9 9 11 0;
#X connect 9 10 12 0;
#X connect 9 11 13 0;
#X connect 9 12 14 0;
#X connect 9 13 15 0;
#X connect 9 14 16 0;
#X connect 9 15 17 0;
#X restore 646 311 pd active-step-gui;
#X obj 206 282 hradio 15 1 1 2 \$0-acid-sq/saw-s \$0-acid-sq/saw-r
SQ/SAW 33 7 0 10 -262144 -1 -1 1;
#X obj 1083 705 outlet~;
#X obj 177 267 hradio 15 1 1 4 \$0-acid-load-s \$0-acid-load-r LOAD
63 8 0 10 -262144 -1 -1 0;
#X obj 177 252 hradio 15 1 1 4 \$0-acid-write-s \$0-acid-write-r WRITE
63 8 0 10 -262144 -1 -1 0;
#X obj 1388 26 r \$0-acid-sq/saw-s;
#N canvas 0 22 450 278 (subpatch) 0;
#X array \$0-acid-table 16 float 3;
#A 0 0.220472 0.905512 0.11811 0.181102 0.88189 0.188976 0.314961 0.716535
0.299213 0.598425 0.283465 0.858268 0.015748 0.76378 0.795276 0.307087
;
#X coords 0 1 16 0 240 75 2 0 0;
#X restore 299 149 graph;
#X obj 822 256 tabread \$0-acid-table;
#X obj 822 230 r \$0-acid-active-step;
#X obj 89 522 s \$0-acid-gui-r;
#X obj 89 498 r \$0-acid-active-step;
#X obj 299 134 hradio 15 1 0 16 \$0-acid-gui-s \$0-acid-gui-r empty
0 -8 0 10 -262144 -226533 -1 6;
#N canvas 0 22 1204 721 scales-tables 0;
#X obj 11 17 loadbang;
#X obj 10 156 loadbang;
#X obj 15 269 loadbang;
#X obj 17 383 loadbang;
#X obj 18 503 loadbang;
#X obj 427 3 loadbang;
#X obj 429 98 loadbang;
#X obj 430 197 loadbang;
#X obj 431 294 loadbang;
#X obj 430 421 loadbang;
#X obj 20 598 loadbang;
#X obj 433 534 loadbang;
#X obj 822 12 loadbang;
#X obj 823 149 loadbang;
#X obj 818 293 loadbang;
#X obj 11 131 table \$0-ionian;
#X obj 8 248 table \$0-aeolian;
#X obj 16 361 table \$0-dorian;
#X obj 17 479 table \$0-phrygian;
#X obj 18 692 table \$0-lyd-minor;
#X obj 459 24 table \$0-chromatic;
#X obj 462 119 table \$0-ancient;
#X obj 464 218 table \$0-tetra;
#X obj 466 315 table \$0-indian;
#X obj 468 441 table \$0-siga;
#X obj 433 653 table \$0-harm-major;
#X obj 864 35 table \$0-pelog;
#X obj 823 267 table \$0-slendro;
#X obj 817 395 table \$0-whole;
#X msg 11 81 \; \$1-ionian 0 0 2 4 5 7 9 11 12 14 16 17 19 21 23 24
26 28 29 31 33 35 36 38 40 41 43 45 47 48;
#X msg 10 201 \; \$1-aeolian 0 0 2 3 5 7 8 10 12 14 15 17 19 20 22
24 26 27 29 31 32 34 36 38 39 41 43 44 46 48;
#X msg 16 312 \; \$1-dorian 0 0 2 3 5 7 9 10 12 14 15 17 19 21 22 24
26 27 29 31 33 34 36 38 39 41 43 45 46 48;
#X msg 17 432 \; \$1-phrygian 0 0 1 3 5 7 8 10 12 13 15 17 19 20 22
24 25 27 29 31 32 34 36 37 39 41 43 44 46 48;
#X msg 18 549 \; \$1-lydian 0 0 2 4 6 7 9 11 12 14 16 18 19 21 23 24
26 28 30 31 33 35 36 38 40 42 43 45 47 48;
#X msg 19 643 \; \$1-lyd-minor 0 0 2 3 6 7 9 11 12 14 15 18 19 21 23
24 26 27 30 31 33 35 36 38 39 42 43 45 47 48;
#X msg 427 50 \; \$1-chromatic 0 0 1 2 3 4 5 6 7 8 9 10 11 12 13 14
15 16 17 18 19 20 21 22 23 24 25 26 27 28;
#X msg 428 151 \; \$1-ancient 0 0 0.5 1 5 7 7.5 8 12 12.5 13 17 19
19.5 20 24 24.5 25 29 31 31.5 32 36 36.5 37 41 43 43.5 44 48;
#X msg 430 248 \; \$1-tetra 0 0 1 1.75 2 3 3.75 4 5 12 13 13.75 14
15 15.75 16 17 24 25 25.75 26 27 27.75 28 29 36 37 37.75 38 39;
#X msg 431 350 \; \$1-indian 0 0 0.9 1.14 1.8 2.04 2.94 3.18 3.84 4.08
4.9 5.22 5.88 6.12 7.02 7.92 8.16 8.82 9.06 9.96 10.2 10.86 11.1 12
12.9 13.14 13.8 14.04 14.94 15.18;
#X msg 430 468 \; \$1-siga 0 0 1.5 3.5 5.5 7 8.5 10.5 12 13.5 15.5
17.5 19 20.5 22.5 24 25.5 27.5 29.5 31 32.5 34.5 36 37.5 39.5 41.5
43 44.5 46.5 48.5;
#X msg 433 601 \; \$1-harm-major 0 0 2 4 5 7 8 11 12 14 16 17 19 20
23 24 26 28 29 31 32 35 36 38 40 41 43 44 47 48;
#X msg 822 73 \; \$1-pelog 0 0 1.5 2.5 3.5 7 8 10.5 12 13.5 14.5 15.5
19 20 22.5 24 25.5 26.5 27.5 31 32 34.5 36 37.5 38.5 39.5 42.5 43.5
45 46.5;
#X msg 823 218 \; \$1-slendro 0 0 2.5 5 7 9.5 12 14.5 17 19 21.5 24
26.5 29 31 33.5 36 38.5 41 43 45.5 47 49.5 52 54 56.5 59 61.5 64 66.5
;
#X msg 818 346 \; \$1-whole 0 0 2 4 6 8 10 12 14 16 18 20 22 24 26
28 30 32 34 36 38 40 42 44 46 48 50 52 54 56;
#X obj 11 39 f \$0;
#X obj 10 178 f \$0;
#X obj 15 291 f \$0;
#X obj 17 405 f \$0;
#X obj 18 525 f \$0;
#X obj 20 620 f \$0;
#X obj 427 25 f \$0;
#X obj 429 120 f \$0;
#X obj 430 219 f \$0;
#X obj 431 316 f \$0;
#X obj 430 443 f \$0;
#X obj 433 556 f \$0;
#X obj 822 34 f \$0;
#X obj 823 171 f \$0;
#X obj 818 315 f \$0;
#X obj 49 524 table \$0-lydian;
#X connect 0 0 44 0;
#X connect 1 0 45 0;
#X connect 2 0 46 0;
#X connect 3 0 47 0;
#X connect 4 0 48 0;
#X connect 5 0 50 0;
#X connect 6 0 51 0;
#X connect 7 0 52 0;
#X connect 8 0 53 0;
#X connect 9 0 54 0;
#X connect 10 0 49 0;
#X connect 11 0 55 0;
#X connect 12 0 56 0;
#X connect 13 0 57 0;
#X connect 14 0 58 0;
#X connect 44 0 29 0;
#X connect 45 0 30 0;
#X connect 46 0 31 0;
#X connect 47 0 32 0;
#X connect 48 0 33 0;
#X connect 49 0 34 0;
#X connect 50 0 35 0;
#X connect 51 0 36 0;
#X connect 52 0 37 0;
#X connect 53 0 38 0;
#X connect 54 0 39 0;
#X connect 55 0 40 0;
#X connect 56 0 41 0;
#X connect 57 0 42 0;
#X connect 58 0 43 0;
#X restore 88 550 pd scales-tables;
#N canvas 0 22 930 592 quantizer 0;
#X floatatom 105 211 5 0 0 0 - - -, f 5;
#X obj 105 374 +;
#X obj 147 357 t f f;
#X obj 105 188 * 28;
#X obj 105 253 i;
#X obj 105 294 tabread ionian;
#N canvas 120 22 1142 609 choose-scale 0;
#X obj 396 470 outlet;
#X obj 439 53 / 127;
#X obj 439 119 i;
#X obj 439 74 * 13;
#X obj 439 178 sel 0 1 2 3 4 5 6 7 8 9 10 11 12 13;
#X obj 439 31 inlet;
#X msg -1 273 set ionian;
#X msg 92 274 set dorian;
#X msg 177 276 set phrygian;
#X msg 277 277 set lydian;
#X msg 364 278 set aeolian;
#X msg 442 307 set whole;
#X msg 537 311 set chromatic;
#X msg 650 316 set harm-major;
#X msg 677 365 set lyd-minor;
#X msg 764 409 set ancient;
#X msg 902 423 set pelog;
#X msg 940 380 set tetra;
#X msg 968 309 set indian;
#X msg 1035 260 set slendro;
#X connect 1 0 3 0;
#X connect 2 0 4 0;
#X connect 3 0 2 0;
#X connect 4 0 6 0;
#X connect 4 1 7 0;
#X connect 4 2 8 0;
#X connect 4 3 9 0;
#X connect 4 4 10 0;
#X connect 4 5 11 0;
#X connect 4 6 12 0;
#X connect 4 7 13 0;
#X connect 4 8 14 0;
#X connect 4 9 15 0;
#X connect 4 10 17 0;
#X connect 4 11 18 0;
#X connect 4 12 16 0;
#X connect 4 13 19 0;
#X connect 5 0 1 0;
#X connect 6 0 0 0;
#X connect 7 0 0 0;
#X connect 8 0 0 0;
#X connect 9 0 0 0;
#X connect 10 0 0 0;
#X connect 11 0 0 0;
#X connect 12 0 0 0;
#X connect 13 0 0 0;
#X connect 14 0 0 0;
#X connect 15 0 0 0;
#X connect 16 0 0 0;
#X connect 17 0 0 0;
#X connect 18 0 0 0;
#X connect 19 0 0 0;
#X restore 270 253 pd choose-scale;
#X obj 270 205 t f f;
#N canvas 120 22 1142 609 choose-scale 0;
#X obj 438 475 outlet;
#X obj 81 37 / 127;
#X obj 81 103 i;
#X obj 81 58 * 13;
#X obj 81 15 inlet;
#X msg 80 566 set \$1-ionian;
#X obj 24 150 loadbang;
#X msg 90 464 set \$1-dorian;
#X msg 110 340 set \$1-phrygian;
#X msg 125 238 set \$1-lydian;
#X msg 220 239 set \$1-aeolian;
#X msg 317 239 set \$1-whole;
#X msg 404 236 set \$1-chromatic;
#X msg 512 234 set \$1-harm-major;
#X msg 559 311 set \$1-lyd-minor;
#X msg 588 363 set \$1-ancient;
#X msg 827 283 set \$1-pelog;
#X msg 642 445 set \$1-tetra;
#X msg 817 455 set \$1-indian;
#X msg 989 300 set \$1-slendro;
#X obj 24 171 f \$0;
#X obj 81 125 sel 0 1 2 3 4 5 6 7 8 9 10 11 12 13;
#X obj 80 536 f;
#X obj 90 435 f;
#X obj 110 318 f;
#X obj 125 210 f;
#X obj 24 193 t f f f f;
#X obj 216 45 loadbang;
#X obj 216 66 f \$0;
#X obj 216 88 t f f f f;
#X obj 220 215 f;
#X obj 317 213 f;
#X obj 404 214 f;
#X obj 512 210 f;
#X obj 559 285 f;
#X obj 589 339 f;
#X obj 661 404 f;
#X obj 807 412 f;
#X obj 552 51 loadbang;
#X obj 552 72 f \$0;
#X obj 830 246 f;
#X obj 1000 257 f;
#X obj 552 94 t f f f f f f;
#X connect 1 0 3 0;
#X connect 2 0 21 0;
#X connect 3 0 2 0;
#X connect 4 0 1 0;
#X connect 5 0 0 0;
#X connect 6 0 20 0;
#X connect 7 0 0 0;
#X connect 8 0 0 0;
#X connect 9 0 0 0;
#X connect 10 0 0 0;
#X connect 11 0 0 0;
#X connect 12 0 0 0;
#X connect 13 0 0 0;
#X connect 14 0 0 0;
#X connect 15 0 0 0;
#X connect 16 0 0 0;
#X connect 17 0 0 0;
#X connect 18 0 0 0;
#X connect 19 0 0 0;
#X connect 20 0 26 0;
#X connect 21 0 22 0;
#X connect 21 1 23 0;
#X connect 21 2 24 0;
#X connect 21 3 25 0;
#X connect 21 4 30 0;
#X connect 21 5 31 0;
#X connect 21 6 32 0;
#X connect 21 7 33 0;
#X connect 21 8 34 0;
#X connect 21 9 35 0;
#X connect 21 10 36 0;
#X connect 21 11 37 0;
#X connect 21 12 40 0;
#X connect 21 13 41 0;
#X connect 22 0 5 0;
#X connect 23 0 7 0;
#X connect 24 0 8 0;
#X connect 25 0 9 0;
#X connect 26 0 22 1;
#X connect 26 1 23 1;
#X connect 26 2 24 1;
#X connect 26 3 25 1;
#X connect 27 0 28 0;
#X connect 28 0 29 0;
#X connect 29 0 30 1;
#X connect 29 1 31 1;
#X connect 29 2 32 1;
#X connect 29 3 33 1;
#X connect 30 0 10 0;
#X connect 31 0 11 0;
#X connect 32 0 12 0;
#X connect 33 0 13 0;
#X connect 34 0 14 0;
#X connect 35 0 15 0;
#X connect 36 0 17 0;
#X connect 37 0 18 0;
#X connect 38 0 39 0;
#X connect 39 0 42 0;
#X connect 40 0 16 0;
#X connect 41 0 19 0;
#X connect 42 0 34 1;
#X connect 42 1 35 1;
#X connect 42 2 36 1;
#X connect 42 3 37 1;
#X connect 42 4 40 1;
#X connect 42 5 41 1;
#X restore 297 277 pd choose-scale;
#X obj 105 230 t f f;
#X text 160 458 QUANTIZED PITCH OUT;
#X obj 105 134 inlet;
#X obj 270 174 r \$0-acid-scale-s;
#X obj 270 319 s \$0-acid-scale-gui-r;
#N canvas 229 22 289 201 xpose 0;
#X obj 86 60 / 127;
#X obj 86 151 outlet;
#X obj 86 82 * 48;
#X obj 86 104 - 24;
#X obj 86 126 i;
#X obj 86 38 r \$0-acid-xpose-s;
#X connect 0 0 2 0;
#X connect 2 0 3 0;
#X connect 3 0 4 0;
#X connect 4 0 1 0;
#X connect 5 0 0 0;
#X restore 147 335 pd xpose;
#X obj 174 383 s \$0-acid-xpose-gui-r;
#X obj 105 456 outlet;
#X connect 0 0 9 0;
#X connect 1 0 16 0;
#X connect 2 0 1 1;
#X connect 2 1 15 0;
#X connect 3 0 0 0;
#X connect 4 0 5 0;
#X connect 5 0 1 0;
#X connect 6 0 13 0;
#X connect 7 0 6 0;
#X connect 7 1 8 0;
#X connect 8 0 5 0;
#X connect 9 0 4 0;
#X connect 11 0 3 0;
#X connect 12 0 7 0;
#X connect 14 0 2 0;
#X restore 822 283 pd quantizer;
#X obj 107 207 hsl 128 15 0 127 0 1 \$0-acid-decay-s \$0-acid-decay-r
DECAY 135 7 0 10 -262144 -1 -1 3300 1;
#X symbolatom 104 252 10 0 0 0 - #0-acid-scale-gui-r #0-acid-scale-gui-s
, f 10;
#X obj 822 305 + 12;
#X obj 1171 284 *~ 0.5;
#X obj 1171 379 *~ 0.5;
#X obj 365 109 cnv 5 5 5 empty empty RANDOMIZE 0 0 0 8 -262144 -226533
0;
#X obj 462 109 cnv 5 5 5 empty empty LOAD(1-4) 0 0 0 8 -262144 -226533
0;
#X obj 552 109 cnv 5 5 5 empty empty RESET 0 0 0 8 -262144 -226533
0;
#X obj 555 115 bng 15 100 50 0 empty empty empty 17 7 0 10 -262144
-226533 -1;
#X obj 377 115 bng 15 100 50 0 empty empty empty 17 7 0 10 -262144
-226533 -1;
#X obj 473 115 bng 15 100 50 0 empty empty empty 17 7 0 10 -262144
-226533 -1;
#X obj 87 592 r \$0-acid-write-s;
#X obj 204 590 r \$0-acid-load-s;
#X obj 105 271 bng 15 250 50 0 \$0-acid-rdm!-s \$0-acid-rdm!-r RDM!
17 7 0 10 -262144 -226533 -1;
#N canvas 0 22 406 426 randomize-picthes 0;
#X msg 38 62 bang;
#X obj 38 91 until;
#X obj 38 119 f;
#X obj 69 119 + 1;
#X obj 96 192 sel 0;
#X obj 69 143 mod 16;
#X obj 38 207 t b f;
#X obj 69 165 t f f;
#X obj 38 245 random 127;
#X obj 38 267 / 127;
#X obj 38 35 r \$0-acid-rdm!-s;
#X obj 38 317 tabwrite \$0-acid-table;
#X connect 0 0 1 0;
#X connect 1 0 2 0;
#X connect 2 0 3 0;
#X connect 2 0 6 0;
#X connect 3 0 5 0;
#X connect 4 0 1 1;
#X connect 5 0 7 0;
#X connect 6 0 8 0;
#X connect 6 1 11 1;
#X connect 7 0 2 1;
#X connect 7 1 4 0;
#X connect 8 0 9 0;
#X connect 9 0 11 0;
#X connect 10 0 0 0;
#X restore 87 639 pd randomize-picthes;
#N canvas 360 317 696 427 randomize-accent-and-slides 0;
#X obj 32 16 r \$0-acid-rdm!-s;
#X obj 51 225 f \$0;
#X obj 51 247 pack f f;
#X msg 32 44 bang;
#X obj 32 73 until;
#X obj 32 101 f;
#X obj 63 101 + 1;
#X obj 90 174 sel 0;
#X obj 63 125 mod 16;
#X obj 63 147 t f f;
#X obj 32 308 random 2;
#X obj 32 123 + 1;
#X obj 32 189 t b b f;
#X obj 32 346 s;
#X msg 51 273 symbol \$1-acid-g\$2-r;
#X obj 205 18 r \$0-acid-rdm!-s;
#X obj 224 227 f \$0;
#X obj 224 249 pack f f;
#X msg 205 46 bang;
#X obj 205 75 until;
#X obj 205 103 f;
#X obj 236 103 + 1;
#X obj 263 176 sel 0;
#X obj 236 127 mod 16;
#X obj 236 149 t f f;
#X obj 205 310 random 2;
#X obj 205 125 + 1;
#X obj 205 191 t b b f;
#X obj 205 348 s;
#X msg 224 275 symbol \$1-acid-a\$2-r;
#X connect 0 0 3 0;
#X connect 1 0 2 0;
#X connect 2 0 14 0;
#X connect 3 0 4 0;
#X connect 4 0 5 0;
#X connect 5 0 6 0;
#X connect 5 0 11 0;
#X connect 6 0 8 0;
#X connect 7 0 4 1;
#X connect 8 0 9 0;
#X connect 9 0 5 1;
#X connect 9 1 7 0;
#X connect 10 0 13 0;
#X connect 11 0 12 0;
#X connect 12 0 10 0;
#X connect 12 1 1 0;
#X connect 12 2 2 1;
#X connect 14 0 13 1;
#X connect 15 0 18 0;
#X connect 16 0 17 0;
#X connect 17 0 29 0;
#X connect 18 0 19 0;
#X connect 19 0 20 0;
#X connect 20 0 21 0;
#X connect 20 0 26 0;
#X connect 21 0 23 0;
#X connect 22 0 19 1;
#X connect 23 0 24 0;
#X connect 24 0 20 1;
#X connect 24 1 22 0;
#X connect 25 0 28 0;
#X connect 26 0 27 0;
#X connect 27 0 25 0;
#X connect 27 1 16 0;
#X connect 27 2 17 1;
#X connect 29 0 28 1;
#X restore 87 662 pd randomize-accent-and-slides;
#X obj 494 34 inlet~ ENVMOD-CV;
#X obj 362 35 inlet~ CUTOFF-CV;
#X obj 1083 608 clip~ -1 1;
#X obj 738 150 * 0.66;
#X floatatom 998 265 5 0 0 0 - - -, f 5;
#X obj 1138 705 outlet~ SEQUENCER-OUT;
#X obj 1277 705 outlet~ EG-OUT;
#X obj 822 349 / 127;
#X obj 822 371 sig~;
#X obj 822 393 lop~;
#X obj 908 354 * 200;
#X obj 908 326 == 0;
#X obj 907 301 r \$0-acid-slide-to-lop;
#X obj 908 376 + 2.5;
#X obj 1277 604 r~ \$0-acid-amp-eg;
#X obj 1294 631 r~ \$0-acid-accent-to-filter;
#X obj 1277 678 *~ 0.5;
#X obj 1293 655 *~ 0.5;
#X obj 998 221 * 3;
#X obj 1374 474 * 4;
#X obj 1079 483 *~ 0.5;
#X obj 1083 684 clip~ -1 1;
#X obj 1098 546 *~ 1;
#X obj 1145 54 + 10;
#X obj 107 222 hsl 128 15 0 127 0 1 \$0-acid-slide-s \$0-acid-slide-r
SLIDE 135 7 0 10 -262144 -1 -1 8400 1;
#X obj 1288 -7 / 127;
#X obj 1288 15 * 9;
#X obj 1288 37 + 1;
#X msg 1288 -55 127 \$1;
#X obj 1288 -33 -;
#X obj 1288 -81 r \$0-acid-slide-s;
#N canvas 127 22 1088 712 statesave-pitches 0;
#X obj 552 138 loadbang;
#X obj 686 203 f;
#X obj 686 234 pack f f;
#X obj 406 276 delay 10;
#X obj 686 159 t b f;
#X text 446 112 WRITE;
#X obj 406 114 inlet;
#X obj 686 86 inlet;
#X obj 406 338 f;
#X obj 406 424 pack f f;
#X obj 552 186 t f f;
#X obj 552 164 f \$1;
#X msg 39 343 bang;
#X msg 39 390 set \$1 \$2 \$3 \$4 \$5 \$6 \$7 \$8 \$9 \$10 \$11 \$12
\$13 \$14 \$15 \$16;
#X obj 406 561 textfile;
#X msg 457 494 clear;
#X obj 406 145 t b f b b;
#X obj 39 368 array get \$0-acid-table;
#X msg 406 462 write statesave/acid-patterns/acid-synth-\$1-pattern\$2.txt
;
#X msg 686 262 read statesave/acid-patterns/acid-synth-\$1-pattern\$2.txt
;
#X obj 686 286 s \$0-acid-table;
#X connect 0 0 11 0;
#X connect 1 0 2 0;
#X connect 2 0 19 0;
#X connect 3 0 8 0;
#X connect 4 0 1 0;
#X connect 4 1 2 1;
#X connect 6 0 16 0;
#X connect 7 0 4 0;
#X connect 8 0 9 0;
#X connect 9 0 18 0;
#X connect 10 0 8 1;
#X connect 10 1 1 1;
#X connect 11 0 10 0;
#X connect 12 0 17 0;
#X connect 13 0 14 0;
#X connect 15 0 14 0;
#X connect 16 0 3 0;
#X connect 16 1 9 1;
#X connect 16 2 12 0;
#X connect 16 3 15 0;
#X connect 17 0 13 0;
#X connect 18 0 14 0;
#X connect 19 0 20 0;
#X restore 87 616 pd statesave-pitches;
#X obj 90 432 r \$0-acid-write-s;
#X obj 947 46 t b b;
#X obj 623 59 t b b;
#X obj 791 46 t b b;
#X obj 791 68 f;
#X obj 824 66 + 1;
#X obj 791 90 % 4;
#X obj 203 15 inlet~ CLOCK;
#X obj 362 57 s~ \$0-acid-cutoff-cv;
#X obj 1094 318 r~ \$0-acid-cutoff-cv;
#X obj 494 56 s~ \$0-acid-envmod-cv;
#X obj 1291 353 r~ \$0-acid-envmod-cv;
#X obj 105 112 cnv 5 5 5 empty empty CLOCK 0 0 0 8 -262144 -226533
0;
#X obj 562 293 cnv 5 5 5 empty empty ENV 0 0 0 8 -262144 -1 0;
#X obj 279 111 cnv 5 5 5 empty empty ENVMOD 0 0 0 8 -262144 -1 0;
#X obj 623 131 s \$0-acid-rdm!-r;
#X obj 623 37 threshold~ 0.9 0 0.9 0;
#X obj 623 14 inlet~ RANDOMIZE;
#X obj 791 112 s \$0-acid-load-r;
#X obj 791 24 threshold~ 0.9 0 0.9 0;
#X obj 791 2 inlet~ LOAD(1-4);
#X obj 947 2 inlet~ RESET;
#X obj 947 24 threshold~ 0.9 0 0.9 0;
#X obj 947 71 s \$0-acid-reset-s;
#X obj 1126 229 r~ \$0-acid-filter-eg;
#X obj 1083 664 *~ 2;
#X obj 472 663 s \$0-instance-num;
#X obj 472 615 makefilename %d;
#X msg 472 640 label \$1;
#N canvas 0 22 778 669 16step-accent-sequencer 0;
#X obj 108 82 r \$0-acid-active-step;
#X obj 108 104 sel 0 1 2 3 4 5 6 7 8 9 10 11 12 13 14 15;
#X obj 108 607 f;
#X obj 123 569 r \$0-acid-a1-s;
#X obj 108 633 s \$0-acid-accent-on/off;
#X obj 123 512 f;
#X obj 123 538 s \$0-acid-accent-on/off;
#X obj 138 474 r \$0-acid-a2-s;
#X obj 138 419 f;
#X obj 138 445 s \$0-acid-accent-on/off;
#X obj 153 324 f;
#X obj 153 350 s \$0-acid-accent-on/off;
#X obj 153 381 r \$0-acid-a3-s;
#X obj 168 286 r \$0-acid-a4-s;
#X obj 277 605 f;
#X obj 277 631 s \$0-acid-accent-on/off;
#X obj 292 510 f;
#X obj 292 536 s \$0-acid-accent-on/off;
#X obj 307 417 f;
#X obj 307 443 s \$0-acid-accent-on/off;
#X obj 322 322 f;
#X obj 322 348 s \$0-acid-accent-on/off;
#X obj 292 567 r \$0-acid-a5-s;
#X obj 307 472 r \$0-acid-a6-s;
#X obj 322 379 r \$0-acid-a7-s;
#X obj 337 284 r \$0-acid-a8-s;
#X obj 456 607 f;
#X obj 456 633 s \$0-acid-accent-on/off;
#X obj 471 512 f;
#X obj 471 538 s \$0-acid-accent-on/off;
#X obj 486 419 f;
#X obj 486 445 s \$0-acid-accent-on/off;
#X obj 501 324 f;
#X obj 501 350 s \$0-acid-accent-on/off;
#X obj 471 569 r \$0-acid-a9-s;
#X obj 486 474 r \$0-acid-a10-s;
#X obj 501 381 r \$0-acid-a11-s;
#X obj 516 286 r \$0-acid-a12-s;
#X obj 630 602 f;
#X obj 630 628 s \$0-acid-accent-on/off;
#X obj 645 507 f;
#X obj 645 533 s \$0-acid-accent-on/off;
#X obj 660 414 f;
#X obj 660 440 s \$0-acid-accent-on/off;
#X obj 675 319 f;
#X obj 675 345 s \$0-acid-accent-on/off;
#X obj 645 564 r \$0-acid-a13-s;
#X obj 660 469 r \$0-acid-a14-s;
#X obj 675 376 r \$0-acid-a15-s;
#X obj 690 281 r \$0-acid-a16-s;
#X connect 0 0 1 0;
#X connect 1 0 2 0;
#X connect 1 1 5 0;
#X connect 1 2 8 0;
#X connect 1 3 10 0;
#X connect 1 4 14 0;
#X connect 1 5 16 0;
#X connect 1 6 18 0;
#X connect 1 7 20 0;
#X connect 1 8 26 0;
#X connect 1 9 28 0;
#X connect 1 10 30 0;
#X connect 1 11 32 0;
#X connect 1 12 38 0;
#X connect 1 13 40 0;
#X connect 1 14 42 0;
#X connect 1 15 44 0;
#X connect 2 0 4 0;
#X connect 3 0 2 1;
#X connect 5 0 6 0;
#X connect 7 0 5 1;
#X connect 8 0 9 0;
#X connect 10 0 11 0;
#X connect 12 0 8 1;
#X connect 13 0 10 1;
#X connect 14 0 15 0;
#X connect 16 0 17 0;
#X connect 18 0 19 0;
#X connect 20 0 21 0;
#X connect 22 0 14 1;
#X connect 23 0 16 1;
#X connect 24 0 18 1;
#X connect 25 0 20 1;
#X connect 26 0 27 0;
#X connect 28 0 29 0;
#X connect 30 0 31 0;
#X connect 32 0 33 0;
#X connect 34 0 26 1;
#X connect 35 0 28 1;
#X connect 36 0 30 1;
#X connect 37 0 32 1;
#X connect 38 0 39 0;
#X connect 40 0 41 0;
#X connect 42 0 43 0;
#X connect 44 0 45 0;
#X connect 46 0 38 1;
#X connect 47 0 40 1;
#X connect 48 0 42 1;
#X connect 49 0 44 1;
#X restore 646 267 pd 16step-accent-sequencer;
#X obj 184 111 cnv 5 5 5 empty empty CUTOFF 0 0 0 8 -262144 -1 0;
#X obj 104 293 cnv 5 5 5 empty empty OUT 0 0 0 8 -262144 -1 0;
#X obj 319 293 cnv 5 5 5 empty empty PITCH-CV 0 0 0 8 -262144 -1 0
;
#X obj 320 641 f;
#X obj 320 580 r SAVE-S;
#X obj 320 663 s \$0-acid-write-r;
#X obj 335 612 r \$0-acid-load-s;
#N canvas 315 35 593 735 state-saving-multiple-instances 0;
#X obj 137 29 loadbang;
#X obj 250 451 textfile;
#X msg 532 434 rewind;
#X msg 489 434 bang;
#X obj 42 691 textfile;
#X obj 489 395 t b b;
#X obj 43 357 f;
#X obj 56 580 f;
#X obj -16 401 t b b b;
#X msg 119 580 clear;
#X obj 204 159 outlet;
#X text 246 163 INSTANCE NUMBER;
#X obj 165 95 f \$1;
#X obj 165 131 t f f f;
#X obj 138 62 t b b;
#X obj -16 378 bng 15 250 50 0 empty empty empty 17 7 0 10 -262144
-1 -1;
#X obj -16 234 r SAVE-S;
#X msg 55 651 write statesave/\$1-pd-303-ss.txt;
#X msg 250 426 read statesave/\$1-pd-303-ss.txt;
#X obj 52 187 r \$0-acid-cutoff-s;
#X obj 258 698 s \$0-acid-cutoff-r;
#X obj 60 210 r \$0-acid-res-s;
#X obj 291 677 s \$0-acid-res-r;
#X obj 74 231 r \$0-acid-envmod-s;
#X obj 312 653 s \$0-acid-envmod-r;
#X obj 92 256 r \$0-acid-accent-s;
#X obj 333 629 s \$0-acid-accent-r;
#X obj 112 281 r \$0-acid-decay-s;
#X obj 361 603 s \$0-acid-decay-r;
#X obj 134 317 r \$0-acid-slide-s;
#X obj 437 582 s \$0-acid-slide-r;
#X obj 154 342 r \$0-acid-sq/saw-s;
#X obj 453 558 s \$0-acid-sq/saw-r;
#X msg 43 438 set \$1 \$2 \$3 \$4 \$5 \$6 \$7 \$8;
#X obj 250 473 unpack f f f f f f f f;
#X obj 461 519 s \$0-acid-load-r;
#X obj 43 400 pack f f f f f f f f;
#X obj 201 366 r \$0-acid-load-s;
#X obj 222 45 r \$0-reload!;
#X connect 0 0 14 0;
#X connect 1 0 34 0;
#X connect 2 0 1 0;
#X connect 3 0 1 0;
#X connect 5 0 3 0;
#X connect 5 1 2 0;
#X connect 6 0 36 0;
#X connect 7 0 17 0;
#X connect 8 0 7 0;
#X connect 8 1 6 0;
#X connect 8 2 9 0;
#X connect 9 0 4 0;
#X connect 12 0 13 0;
#X connect 13 0 7 1;
#X connect 13 1 18 0;
#X connect 13 2 10 0;
#X connect 14 0 5 0;
#X connect 14 1 12 0;
#X connect 15 0 8 0;
#X connect 16 0 15 0;
#X connect 17 0 4 0;
#X connect 18 0 1 0;
#X connect 19 0 6 1;
#X connect 21 0 36 1;
#X connect 23 0 36 2;
#X connect 25 0 36 3;
#X connect 27 0 36 4;
#X connect 29 0 36 5;
#X connect 31 0 36 6;
#X connect 33 0 4 0;
#X connect 34 0 20 0;
#X connect 34 1 22 0;
#X connect 34 2 24 0;
#X connect 34 3 26 0;
#X connect 34 4 28 0;
#X connect 34 5 30 0;
#X connect 34 6 32 0;
#X connect 34 7 35 0;
#X connect 36 0 33 0;
#X connect 37 0 36 7;
#X connect 38 0 14 0;
#X restore 472 593 pd state-saving-multiple-instances;
#N canvas 81 22 1117 745 state-saving-via-preset-manager-module 0;
#X obj 412 227 textfile;
#X msg 791 210 rewind;
#X msg 748 210 bang;
#X obj 106 568 textfile;
#X obj 748 171 t b b;
#X obj 107 234 f;
#X obj 120 457 f;
#X obj 53 352 t b b b;
#X msg 236 499 clear;
#X obj 107 56 delay 5;
#X obj 53 407 delay 10;
#X msg 53 192 bang;
#X obj 53 26 r STORE-S!;
#X obj 412 128 f;
#X obj 385 85 t b b;
#X obj 400 49 t b f;
#X obj 457 146 f \$1;
#X obj 412 173 pack f f;
#X obj 457 96 loadbang;
#X obj 120 487 pack f f;
#X obj 165 440 loadbang;
#X obj 165 462 f \$1;
#X obj 400 26 r preset-manager-scan;
#X obj 135 418 r preset-manager-store-slot;
#X msg 106 368 set \$1 \$2 \$3 \$4 \$5 \$6 \$7;
#X obj 107 301 pack f f f f f f f;
#X msg 119 528 write statesave/\$1-\$2-pd-303-ss.txt;
#X msg 412 202 read statesave/\$1-\$2-pd-303-ss.txt;
#X obj 123 78 r \$0-acid-cutoff-s;
#X obj 345 714 s \$0-acid-cutoff-r;
#X obj 136 107 r \$0-acid-res-s;
#X obj 366 616 s \$0-acid-res-r;
#X obj 146 146 r \$0-acid-envmod-s;
#X obj 397 532 s \$0-acid-envmod-r;
#X obj 169 173 r \$0-acid-accent-s;
#X obj 561 697 s \$0-acid-accent-r;
#X obj 183 196 r \$0-acid-decay-s;
#X obj 616 596 s \$0-acid-decay-r;
#X obj 408 263 unpack f f f f f f f;
#X obj 211 229 r \$0-acid-slide-s;
#X obj 617 474 s \$0-acid-slide-r;
#X obj 225 252 r \$0-acid-sq/saw-s;
#X obj 672 373 s \$0-acid-sq/saw-r;
#N canvas 0 22 1069 747 morph-parameters 0;
#X obj 176 94 inlet;
#X obj 176 236 pack f f;
#X obj 176 261 line;
#X obj 209 117 r preset-manager-morph-s;
#X msg 72 244 stop;
#X obj 72 214 r STOP-MORPH!;
#X obj 209 206 spigot;
#X obj 398 137 t f f;
#X obj 455 154 == 0;
#X obj 221 176 f;
#X floatatom 455 222 5 0 0 0 - - -, f 5;
#X obj 398 159 t b f;
#X floatatom 425 192 5 0 0 0 - - -, f 5;
#X obj 209 139 t f f;
#X obj 398 102 r parameters-s;
#X obj 176 288 outlet;
#X connect 0 0 1 0;
#X connect 1 0 2 0;
#X connect 2 0 15 0;
#X connect 3 0 13 0;
#X connect 4 0 2 0;
#X connect 5 0 4 0;
#X connect 6 0 1 1;
#X connect 7 0 11 0;
#X connect 7 1 8 0;
#X connect 8 0 10 0;
#X connect 9 0 6 0;
#X connect 10 0 1 1;
#X connect 11 0 9 0;
#X connect 11 1 12 0;
#X connect 12 0 6 1;
#X connect 13 0 6 0;
#X connect 13 1 9 1;
#X connect 14 0 7 0;
#X restore 345 690 pd morph-parameters;
#N canvas 0 22 1069 747 morph-attenuators 0;
#X obj 176 94 inlet;
#X obj 176 236 pack f f;
#X obj 176 261 line;
#X obj 209 117 r preset-manager-morph-s;
#X msg 72 244 stop;
#X obj 72 214 r STOP-MORPH!;
#X obj 209 206 spigot;
#X obj 398 137 t f f;
#X obj 455 154 == 0;
#X obj 221 176 f;
#X floatatom 455 222 5 0 0 0 - - -, f 5;
#X obj 398 159 t b f;
#X floatatom 425 192 5 0 0 0 - - -, f 5;
#X obj 209 139 t f f;
#X obj 398 102 r attenuators-s;
#X obj 176 288 outlet;
#X connect 0 0 1 0;
#X connect 1 0 2 0;
#X connect 2 0 15 0;
#X connect 3 0 13 0;
#X connect 4 0 2 0;
#X connect 5 0 4 0;
#X connect 6 0 1 1;
#X connect 7 0 11 0;
#X connect 7 1 8 0;
#X connect 8 0 10 0;
#X connect 9 0 6 0;
#X connect 10 0 1 1;
#X connect 11 0 9 0;
#X connect 11 1 12 0;
#X connect 12 0 6 1;
#X connect 13 0 6 0;
#X connect 13 1 9 1;
#X connect 14 0 7 0;
#X restore 399 508 pd morph-attenuators;
#N canvas 0 22 1069 747 morph-parameters 0;
#X obj 176 94 inlet;
#X obj 176 236 pack f f;
#X obj 176 261 line;
#X obj 209 117 r preset-manager-morph-s;
#X msg 72 244 stop;
#X obj 72 214 r STOP-MORPH!;
#X obj 209 206 spigot;
#X obj 398 137 t f f;
#X obj 455 154 == 0;
#X obj 221 176 f;
#X floatatom 455 222 5 0 0 0 - - -, f 5;
#X obj 398 159 t b f;
#X floatatom 425 192 5 0 0 0 - - -, f 5;
#X obj 209 139 t f f;
#X obj 398 102 r parameters-s;
#X obj 176 288 outlet;
#X connect 0 0 1 0;
#X connect 1 0 2 0;
#X connect 2 0 15 0;
#X connect 3 0 13 0;
#X connect 4 0 2 0;
#X connect 5 0 4 0;
#X connect 6 0 1 1;
#X connect 7 0 11 0;
#X connect 7 1 8 0;
#X connect 8 0 10 0;
#X connect 9 0 6 0;
#X connect 10 0 1 1;
#X connect 11 0 9 0;
#X connect 11 1 12 0;
#X connect 12 0 6 1;
#X connect 13 0 6 0;
#X connect 13 1 9 1;
#X connect 14 0 7 0;
#X restore 367 592 pd morph-parameters;
#N canvas 0 22 1069 747 morph-parameters 0;
#X obj 176 94 inlet;
#X obj 176 236 pack f f;
#X obj 176 261 line;
#X obj 209 117 r preset-manager-morph-s;
#X msg 72 244 stop;
#X obj 72 214 r STOP-MORPH!;
#X obj 209 206 spigot;
#X obj 398 137 t f f;
#X obj 455 154 == 0;
#X obj 221 176 f;
#X floatatom 455 222 5 0 0 0 - - -, f 5;
#X obj 398 159 t b f;
#X floatatom 425 192 5 0 0 0 - - -, f 5;
#X obj 209 139 t f f;
#X obj 398 102 r parameters-s;
#X obj 176 288 outlet;
#X connect 0 0 1 0;
#X connect 1 0 2 0;
#X connect 2 0 15 0;
#X connect 3 0 13 0;
#X connect 4 0 2 0;
#X connect 5 0 4 0;
#X connect 6 0 1 1;
#X connect 7 0 11 0;
#X connect 7 1 8 0;
#X connect 8 0 10 0;
#X connect 9 0 6 0;
#X connect 10 0 1 1;
#X connect 11 0 9 0;
#X connect 11 1 12 0;
#X connect 12 0 6 1;
#X connect 13 0 6 0;
#X connect 13 1 9 1;
#X connect 14 0 7 0;
#X restore 615 571 pd morph-parameters;
#N canvas 0 22 1069 747 morph-attenuators 0;
#X obj 176 94 inlet;
#X obj 176 236 pack f f;
#X obj 176 261 line;
#X obj 209 117 r preset-manager-morph-s;
#X msg 72 244 stop;
#X obj 72 214 r STOP-MORPH!;
#X obj 209 206 spigot;
#X obj 398 137 t f f;
#X obj 455 154 == 0;
#X obj 221 176 f;
#X floatatom 455 222 5 0 0 0 - - -, f 5;
#X obj 398 159 t b f;
#X floatatom 425 192 5 0 0 0 - - -, f 5;
#X obj 209 139 t f f;
#X obj 398 102 r attenuators-s;
#X obj 176 288 outlet;
#X connect 0 0 1 0;
#X connect 1 0 2 0;
#X connect 2 0 15 0;
#X connect 3 0 13 0;
#X connect 4 0 2 0;
#X connect 5 0 4 0;
#X connect 6 0 1 1;
#X connect 7 0 11 0;
#X connect 7 1 8 0;
#X connect 8 0 10 0;
#X connect 9 0 6 0;
#X connect 10 0 1 1;
#X connect 11 0 9 0;
#X connect 11 1 12 0;
#X connect 12 0 6 1;
#X connect 13 0 6 0;
#X connect 13 1 9 1;
#X connect 14 0 7 0;
#X restore 559 670 pd morph-attenuators;
#N canvas 0 22 1069 747 morph-parameters 0;
#X obj 176 94 inlet;
#X obj 176 236 pack f f;
#X obj 176 261 line;
#X obj 209 117 r preset-manager-morph-s;
#X msg 72 244 stop;
#X obj 72 214 r STOP-MORPH!;
#X obj 209 206 spigot;
#X obj 398 137 t f f;
#X obj 455 154 == 0;
#X obj 221 176 f;
#X floatatom 455 222 5 0 0 0 - - -, f 5;
#X obj 398 159 t b f;
#X floatatom 425 192 5 0 0 0 - - -, f 5;
#X obj 209 139 t f f;
#X obj 398 102 r parameters-s;
#X obj 176 288 outlet;
#X connect 0 0 1 0;
#X connect 1 0 2 0;
#X connect 2 0 15 0;
#X connect 3 0 13 0;
#X connect 4 0 2 0;
#X connect 5 0 4 0;
#X connect 6 0 1 1;
#X connect 7 0 11 0;
#X connect 7 1 8 0;
#X connect 8 0 10 0;
#X connect 9 0 6 0;
#X connect 10 0 1 1;
#X connect 11 0 9 0;
#X connect 11 1 12 0;
#X connect 12 0 6 1;
#X connect 13 0 6 0;
#X connect 13 1 9 1;
#X connect 14 0 7 0;
#X restore 619 451 pd morph-parameters;
#X connect 0 0 38 0;
#X connect 1 0 0 0;
#X connect 2 0 0 0;
#X connect 4 0 2 0;
#X connect 4 1 1 0;
#X connect 5 0 25 0;
#X connect 6 0 19 0;
#X connect 7 0 10 0;
#X connect 7 1 9 0;
#X connect 7 2 8 0;
#X connect 8 0 3 0;
#X connect 9 0 5 0;
#X connect 10 0 6 0;
#X connect 11 0 7 0;
#X connect 12 0 11 0;
#X connect 13 0 17 0;
#X connect 14 0 4 0;
#X connect 14 1 13 0;
#X connect 15 0 14 0;
#X connect 15 1 13 1;
#X connect 16 0 17 1;
#X connect 17 0 27 0;
#X connect 18 0 16 0;
#X connect 19 0 26 0;
#X connect 20 0 21 0;
#X connect 21 0 19 1;
#X connect 22 0 15 0;
#X connect 23 0 6 1;
#X connect 24 0 3 0;
#X connect 25 0 24 0;
#X connect 26 0 3 0;
#X connect 27 0 0 0;
#X connect 28 0 5 1;
#X connect 30 0 25 1;
#X connect 32 0 25 2;
#X connect 34 0 25 3;
#X connect 36 0 25 4;
#X connect 38 0 43 0;
#X connect 38 1 45 0;
#X connect 38 2 44 0;
#X connect 38 3 47 0;
#X connect 38 4 46 0;
#X connect 38 5 48 0;
#X connect 38 6 42 0;
#X connect 39 0 25 5;
#X connect 41 0 25 6;
#X connect 43 0 29 0;
#X connect 44 0 33 0;
#X connect 45 0 31 0;
#X connect 46 0 37 0;
#X connect 47 0 35 0;
#X connect 48 0 40 0;
#X restore 472 571 pd state-saving-via-preset-manager-module;
#N canvas 232 38 689 287 parameter-nudging-system 0;
#X obj 21 171 clip 0 127;
#X obj 213 173 clip 0 127;
#X obj 23 67 clip 0 127;
#X obj 214 69 clip 0 127;
#X obj 407 71 clip 0 127;
#X obj 405 174 clip 0 127;
#X obj 23 22 r \$0-acid-cutoff-s;
#X obj 23 95 s \$0-acid-cutoff-r;
#X obj 214 24 r \$0-acid-res-s;
#X obj 214 97 s \$0-acid-res-r;
#X obj 407 24 r \$0-acid-envmod-s;
#X obj 407 97 s \$0-acid-envmod-r;
#X obj 21 126 r \$0-acid-accent-s;
#X obj 21 198 s \$0-acid-accent-r;
#X obj 213 128 r \$0-acid-decay-s;
#X obj 213 199 s \$0-acid-decay-r;
#X obj 405 129 r \$0-acid-slide-s;
#X obj 405 200 s \$0-acid-slide-r;
#N canvas 0 22 484 497 nudge-parameters 0;
#X obj 124 234 random;
#X obj 232 335 f;
#X obj 232 368 +;
#X obj 257 166 random 2;
#X obj 124 275 t f f;
#X obj 124 351 t b f;
#X obj 124 297 *;
#X obj 257 188 sel 0 1;
#X msg 257 280 -1;
#X msg 335 280 1;
#X obj 124 149 t b b b;
#X obj 124 74 r NUDGE!;
#X obj 157 193 r NUDGE-RANGE;
#X obj 247 308 inlet;
#X obj 232 397 outlet;
#X obj 124 96 spigot;
#X obj 185 79 r parameters2-s;
#X connect 0 0 4 0;
#X connect 1 0 2 0;
#X connect 2 0 14 0;
#X connect 3 0 7 0;
#X connect 4 0 6 0;
#X connect 5 0 2 0;
#X connect 5 1 2 1;
#X connect 6 0 5 0;
#X connect 7 0 8 0;
#X connect 7 1 9 0;
#X connect 8 0 6 1;
#X connect 9 0 6 1;
#X connect 10 0 0 0;
#X connect 10 1 1 0;
#X connect 10 2 3 0;
#X connect 11 0 15 0;
#X connect 12 0 0 1;
#X connect 13 0 1 1;
#X connect 15 0 10 0;
#X connect 16 0 15 1;
#X restore 23 44 pd nudge-parameters;
#N canvas 0 22 484 497 nudge-attenuators 0;
#X obj 124 234 random;
#X obj 232 335 f;
#X obj 232 368 +;
#X obj 257 166 random 2;
#X obj 124 275 t f f;
#X obj 124 351 t b f;
#X obj 124 297 *;
#X obj 257 188 sel 0 1;
#X msg 257 280 -1;
#X msg 335 280 1;
#X obj 124 149 t b b b;
#X obj 124 71 r NUDGE!;
#X obj 157 193 r NUDGE-RANGE;
#X obj 247 308 inlet;
#X obj 232 397 outlet;
#X obj 124 93 spigot;
#X obj 201 76 r attenuators2-s;
#X connect 0 0 4 0;
#X connect 1 0 2 0;
#X connect 2 0 14 0;
#X connect 3 0 7 0;
#X connect 4 0 6 0;
#X connect 5 0 2 0;
#X connect 5 1 2 1;
#X connect 6 0 5 0;
#X connect 7 0 8 0;
#X connect 7 1 9 0;
#X connect 8 0 6 1;
#X connect 9 0 6 1;
#X connect 10 0 0 0;
#X connect 10 1 1 0;
#X connect 10 2 3 0;
#X connect 11 0 15 0;
#X connect 12 0 0 1;
#X connect 13 0 1 1;
#X connect 15 0 10 0;
#X connect 16 0 15 1;
#X restore 404 47 pd nudge-attenuators;
#N canvas 0 22 484 497 nudge-parameters 0;
#X obj 124 234 random;
#X obj 232 335 f;
#X obj 232 368 +;
#X obj 257 166 random 2;
#X obj 124 275 t f f;
#X obj 124 351 t b f;
#X obj 124 297 *;
#X obj 257 188 sel 0 1;
#X msg 257 280 -1;
#X msg 335 280 1;
#X obj 124 149 t b b b;
#X obj 124 74 r NUDGE!;
#X obj 157 193 r NUDGE-RANGE;
#X obj 247 308 inlet;
#X obj 232 397 outlet;
#X obj 124 96 spigot;
#X obj 185 79 r parameters2-s;
#X connect 0 0 4 0;
#X connect 1 0 2 0;
#X connect 2 0 14 0;
#X connect 3 0 7 0;
#X connect 4 0 6 0;
#X connect 5 0 2 0;
#X connect 5 1 2 1;
#X connect 6 0 5 0;
#X connect 7 0 8 0;
#X connect 7 1 9 0;
#X connect 8 0 6 1;
#X connect 9 0 6 1;
#X connect 10 0 0 0;
#X connect 10 1 1 0;
#X connect 10 2 3 0;
#X connect 11 0 15 0;
#X connect 12 0 0 1;
#X connect 13 0 1 1;
#X connect 15 0 10 0;
#X connect 16 0 15 1;
#X restore 214 46 pd nudge-parameters;
#N canvas 0 22 484 497 nudge-parameters 0;
#X obj 124 234 random;
#X obj 232 335 f;
#X obj 232 368 +;
#X obj 257 166 random 2;
#X obj 124 275 t f f;
#X obj 124 351 t b f;
#X obj 124 297 *;
#X obj 257 188 sel 0 1;
#X msg 257 280 -1;
#X msg 335 280 1;
#X obj 124 149 t b b b;
#X obj 124 74 r NUDGE!;
#X obj 157 193 r NUDGE-RANGE;
#X obj 247 308 inlet;
#X obj 232 397 outlet;
#X obj 124 96 spigot;
#X obj 185 79 r parameters2-s;
#X connect 0 0 4 0;
#X connect 1 0 2 0;
#X connect 2 0 14 0;
#X connect 3 0 7 0;
#X connect 4 0 6 0;
#X connect 5 0 2 0;
#X connect 5 1 2 1;
#X connect 6 0 5 0;
#X connect 7 0 8 0;
#X connect 7 1 9 0;
#X connect 8 0 6 1;
#X connect 9 0 6 1;
#X connect 10 0 0 0;
#X connect 10 1 1 0;
#X connect 10 2 3 0;
#X connect 11 0 15 0;
#X connect 12 0 0 1;
#X connect 13 0 1 1;
#X connect 15 0 10 0;
#X connect 16 0 15 1;
#X restore 214 151 pd nudge-parameters;
#N canvas 0 22 484 497 nudge-attenuators 0;
#X obj 124 234 random;
#X obj 232 335 f;
#X obj 232 368 +;
#X obj 257 166 random 2;
#X obj 124 275 t f f;
#X obj 124 351 t b f;
#X obj 124 297 *;
#X obj 257 188 sel 0 1;
#X msg 257 280 -1;
#X msg 335 280 1;
#X obj 124 149 t b b b;
#X obj 124 71 r NUDGE!;
#X obj 157 193 r NUDGE-RANGE;
#X obj 247 308 inlet;
#X obj 232 397 outlet;
#X obj 124 93 spigot;
#X obj 201 76 r attenuators2-s;
#X connect 0 0 4 0;
#X connect 1 0 2 0;
#X connect 2 0 14 0;
#X connect 3 0 7 0;
#X connect 4 0 6 0;
#X connect 5 0 2 0;
#X connect 5 1 2 1;
#X connect 6 0 5 0;
#X connect 7 0 8 0;
#X connect 7 1 9 0;
#X connect 8 0 6 1;
#X connect 9 0 6 1;
#X connect 10 0 0 0;
#X connect 10 1 1 0;
#X connect 10 2 3 0;
#X connect 11 0 15 0;
#X connect 12 0 0 1;
#X connect 13 0 1 1;
#X connect 15 0 10 0;
#X connect 16 0 15 1;
#X restore 21 148 pd nudge-attenuators;
#N canvas 0 22 484 497 nudge-parameters 0;
#X obj 124 234 random;
#X obj 232 335 f;
#X obj 232 368 +;
#X obj 257 166 random 2;
#X obj 124 275 t f f;
#X obj 124 351 t b f;
#X obj 124 297 *;
#X obj 257 188 sel 0 1;
#X msg 257 280 -1;
#X msg 335 280 1;
#X obj 124 149 t b b b;
#X obj 124 74 r NUDGE!;
#X obj 157 193 r NUDGE-RANGE;
#X obj 247 308 inlet;
#X obj 232 397 outlet;
#X obj 124 96 spigot;
#X obj 185 79 r parameters2-s;
#X connect 0 0 4 0;
#X connect 1 0 2 0;
#X connect 2 0 14 0;
#X connect 3 0 7 0;
#X connect 4 0 6 0;
#X connect 5 0 2 0;
#X connect 5 1 2 1;
#X connect 6 0 5 0;
#X connect 7 0 8 0;
#X connect 7 1 9 0;
#X connect 8 0 6 1;
#X connect 9 0 6 1;
#X connect 10 0 0 0;
#X connect 10 1 1 0;
#X connect 10 2 3 0;
#X connect 11 0 15 0;
#X connect 12 0 0 1;
#X connect 13 0 1 1;
#X connect 15 0 10 0;
#X connect 16 0 15 1;
#X restore 405 151 pd nudge-parameters;
#X connect 0 0 13 0;
#X connect 1 0 15 0;
#X connect 2 0 7 0;
#X connect 3 0 9 0;
#X connect 4 0 11 0;
#X connect 5 0 17 0;
#X connect 6 0 18 0;
#X connect 8 0 20 0;
#X connect 10 0 19 0;
#X connect 12 0 22 0;
#X connect 14 0 21 0;
#X connect 16 0 23 0;
#X connect 18 0 2 0;
#X connect 19 0 4 0;
#X connect 20 0 3 0;
#X connect 21 0 1 0;
#X connect 22 0 0 0;
#X connect 23 0 5 0;
#X restore 472 549 pd parameter-nudging-system;
#N canvas 371 36 1008 752 statesave-transpose-scale-and-toggles+load
0;
#X obj 394 204 pack f f;
#X obj 409 125 loadbang;
#X obj 409 147 f \$1;
#X obj 394 176 f;
#X obj 396 445 textfile;
#X msg 579 428 rewind;
#X obj 111 -244 loadbang;
#X obj 19 -162 delay 10;
#X text 59 -255 WRITE;
#X obj 19 -253 inlet;
#X obj 19 -128 f;
#X obj 19 -89 pack f f;
#X obj 111 -196 t f f;
#X obj 111 -218 f \$1;
#X msg -279 13 bang;
#X obj -375 723 textfile;
#X msg 97 -100 clear;
#X obj 19 -218 t b f b b;
#X obj 412 13 inlet;
#X text 457 11 LOAD;
#X msg 503 407 bang;
#X obj 516 367 t b b;
#X obj 412 35 t b f;
#X obj 394 82 t b b;
#X obj -412 344 f;
#N canvas 0 22 1084 659 unpack-values 0;
#X obj 182 32 inlet;
#X obj 414 207 s \$0-acid-scale-r;
#X obj 431 181 s \$0-acid-xpose-r;
#X obj 181 578 s \$0-acid-g1-r;
#X obj 194 557 s \$0-acid-g2-r;
#X obj 211 531 s \$0-acid-g3-r;
#X obj 224 510 s \$0-acid-g4-r;
#X obj 238 485 s \$0-acid-g5-r;
#X obj 251 464 s \$0-acid-g6-r;
#X obj 268 438 s \$0-acid-g7-r;
#X obj 281 417 s \$0-acid-g8-r;
#X obj 298 394 s \$0-acid-g9-r;
#X obj 311 373 s \$0-acid-g10-r;
#X obj 328 347 s \$0-acid-g11-r;
#X obj 341 326 s \$0-acid-g12-r;
#X obj 355 301 s \$0-acid-g13-r;
#X obj 368 280 s \$0-acid-g14-r;
#X obj 385 254 s \$0-acid-g15-r;
#X obj 398 233 s \$0-acid-g16-r;
#X obj 466 571 s \$0-acid-a1-r;
#X obj 479 550 s \$0-acid-a2-r;
#X obj 496 524 s \$0-acid-a3-r;
#X obj 509 503 s \$0-acid-a4-r;
#X obj 523 478 s \$0-acid-a5-r;
#X obj 536 457 s \$0-acid-a6-r;
#X obj 553 431 s \$0-acid-a7-r;
#X obj 566 410 s \$0-acid-a8-r;
#X obj 583 387 s \$0-acid-a9-r;
#X obj 627 364 s \$0-acid-a10-r;
#X obj 658 339 s \$0-acid-a11-r;
#X obj 678 318 s \$0-acid-a12-r;
#X obj 685 293 s \$0-acid-a13-r;
#X obj 719 272 s \$0-acid-a14-r;
#X obj 741 246 s \$0-acid-a15-r;
#X obj 797 218 s \$0-acid-a16-r;
#X obj 182 59 unpack f f f f f f f f f f f f f f f f f f f f f f f
f f f f f f f f f f f f, f 114;
#X obj 885 182 s \$0-acid-load-r;
#X connect 0 0 35 0;
#X connect 35 0 3 0;
#X connect 35 1 4 0;
#X connect 35 2 5 0;
#X connect 35 3 6 0;
#X connect 35 4 7 0;
#X connect 35 5 8 0;
#X connect 35 6 9 0;
#X connect 35 7 10 0;
#X connect 35 8 11 0;
#X connect 35 9 12 0;
#X connect 35 10 13 0;
#X connect 35 11 14 0;
#X connect 35 12 15 0;
#X connect 35 13 16 0;
#X connect 35 14 17 0;
#X connect 35 15 18 0;
#X connect 35 16 1 0;
#X connect 35 17 2 0;
#X connect 35 18 19 0;
#X connect 35 19 20 0;
#X connect 35 20 21 0;
#X connect 35 21 22 0;
#X connect 35 22 23 0;
#X connect 35 23 24 0;
#X connect 35 24 25 0;
#X connect 35 25 26 0;
#X connect 35 26 27 0;
#X connect 35 27 28 0;
#X connect 35 28 29 0;
#X connect 35 29 30 0;
#X connect 35 30 31 0;
#X connect 35 31 32 0;
#X connect 35 32 33 0;
#X connect 35 33 34 0;
#X restore 396 471 pd unpack-values;
#X msg 19 -63 write statesave/\$1-acid-synth-\$2-ss.txt;
#X msg 395 289 read statesave/\$1-acid-synth-\$2-ss.txt;
#X obj -101 380 r \$0-acid-xpose-s;
#X obj -132 357 r \$0-acid-scale-s;
#X obj -400 14 r \$0-acid-g1-s;
#X obj -387 44 r \$0-acid-g2-s;
#X obj -371 64 r \$0-acid-g3-s;
#X obj -355 84 r \$0-acid-g4-s;
#X obj -337 103 r \$0-acid-g5-s;
#X obj -321 123 r \$0-acid-g6-s;
#X obj -305 143 r \$0-acid-g7-s;
#X obj -284 166 r \$0-acid-g8-s;
#X obj -264 195 r \$0-acid-g9-s;
#X obj -248 215 r \$0-acid-g10-s;
#X obj -232 235 r \$0-acid-g11-s;
#X obj -216 255 r \$0-acid-g12-s;
#X obj -198 274 r \$0-acid-g13-s;
#X obj -182 294 r \$0-acid-g14-s;
#X obj -166 314 r \$0-acid-g15-s;
#X obj -150 334 r \$0-acid-g16-s;
#X obj -148 13 r \$0-acid-a1-s;
#X obj -135 43 r \$0-acid-a2-s;
#X obj -119 63 r \$0-acid-a3-s;
#X obj -103 83 r \$0-acid-a4-s;
#X obj -85 102 r \$0-acid-a5-s;
#X obj -69 122 r \$0-acid-a6-s;
#X obj -53 142 r \$0-acid-a7-s;
#X obj -32 165 r \$0-acid-a8-s;
#X obj -2 185 r \$0-acid-a9-s;
#X obj 41 212 r \$0-acid-a10-s;
#X obj 57 232 r \$0-acid-a11-s;
#X obj 73 252 r \$0-acid-a12-s;
#X obj 97 271 r \$0-acid-a13-s;
#X obj 154 291 r \$0-acid-a14-s;
#X obj 170 311 r \$0-acid-a15-s;
#X obj 212 331 r \$0-acid-a16-s;
#X obj -377 481 pack f f f f f f f f f f f f f f f f f f f f f f f
f f f f f f f f f f f f, f 119;
#X obj 276 378 r \$0-acid-load-s;
#X msg -379 657 set \$1 \$2 \$3 \$4 \$5 \$6 \$7 \$8 \$9 \$10 \$11 \$12
\$13 \$14 \$15 \$16 \$17 \$18 \$19 \$20 \$21 \$22 \$23 \$24 \$25 \$26
\$27 \$28 \$29 \$30 \$31 \$32 \$33 \$34;
#X connect 0 0 27 0;
#X connect 1 0 2 0;
#X connect 2 0 3 1;
#X connect 3 0 0 0;
#X connect 4 0 25 0;
#X connect 5 0 4 0;
#X connect 6 0 13 0;
#X connect 7 0 10 0;
#X connect 9 0 17 0;
#X connect 10 0 11 0;
#X connect 11 0 26 0;
#X connect 12 0 10 1;
#X connect 13 0 12 0;
#X connect 14 0 24 0;
#X connect 16 0 15 0;
#X connect 17 0 7 0;
#X connect 17 1 11 1;
#X connect 17 2 14 0;
#X connect 17 3 16 0;
#X connect 18 0 22 0;
#X connect 20 0 4 0;
#X connect 21 0 20 0;
#X connect 21 1 5 0;
#X connect 22 0 23 0;
#X connect 22 1 0 1;
#X connect 23 0 21 0;
#X connect 23 1 3 0;
#X connect 24 0 62 0;
#X connect 26 0 15 0;
#X connect 27 0 4 0;
#X connect 28 0 62 17;
#X connect 29 0 62 16;
#X connect 30 0 24 1;
#X connect 31 0 62 1;
#X connect 32 0 62 2;
#X connect 33 0 62 3;
#X connect 34 0 62 4;
#X connect 35 0 62 5;
#X connect 36 0 62 6;
#X connect 37 0 62 7;
#X connect 38 0 62 8;
#X connect 39 0 62 9;
#X connect 40 0 62 10;
#X connect 41 0 62 11;
#X connect 42 0 62 12;
#X connect 43 0 62 13;
#X connect 44 0 62 14;
#X connect 45 0 62 15;
#X connect 46 0 62 18;
#X connect 47 0 62 19;
#X connect 48 0 62 20;
#X connect 49 0 62 21;
#X connect 50 0 62 22;
#X connect 51 0 62 23;
#X connect 52 0 62 24;
#X connect 53 0 62 25;
#X connect 54 0 62 26;
#X connect 55 0 62 27;
#X connect 56 0 62 28;
#X connect 57 0 62 29;
#X connect 58 0 62 30;
#X connect 59 0 62 31;
#X connect 60 0 62 32;
#X connect 61 0 62 33;
#X connect 62 0 64 0;
#X connect 64 0 15 0;
#X restore 90 461 pd statesave-transpose-scale-and-toggles+load;
#X obj 357 433 r \$0-acid-load-s;
#X obj 1081 381 clip~ -1 1;
#X obj 852 589 r \$0-acid-envmod-s;
#X obj 852 611 / 127;
#X obj 852 633 * 2;
#X obj 852 677 pack 0 50;
#X obj 852 699 line~;
#X obj 1083 630 *~;
#X obj 852 655 + 1;
#X obj 1214 89 phasor~;
#X obj 1214 111 *~ 2;
#X obj 1214 133 -~ 1;
#X obj 822 327 t f f f;
#X obj 1079 166 tabosc4~ \$0-square;
#X obj 1079 188 *~;
#X obj 1388 49 tgl 15 0 empty empty empty 17 7 0 10 -262144 -1 -1 1
1;
#X obj 1388 69 t f f;
#X obj 1388 91 pack 0 10;
#X obj 1388 137 line~;
#X obj 1214 155 *~;
#X obj 1451 86 == 0;
#X obj 1451 108 pack 0 10;
#X obj 1451 169 line~;
#N canvas 243 23 1197 804 external-messages 0;
#X floatatom 38 523 5 0 0 0 - - -, f 5;
#X obj 185 328 spigot;
#X obj 218 288 tgl 15 0 empty empty empty 17 7 0 10 -262144 -1 -1 0
1;
#X obj 254 272 ==;
#X obj 269 248 f \$1;
#X obj 269 224 loadbang;
#X msg 185 202 \$1 \$2;
#X msg 185 156 symbol \$1;
#X obj 185 180 pack s f;
#X obj 38 502 f;
#X obj 38 450 t b f;
#X obj 38 473 spigot;
#X obj 185 62 unpack s f f;
#X symbolatom 185 94 10 0 0 0 - - -, f 10;
#X obj 218 308 t f f;
#X obj 245 332 s \$0-msg-spigot;
#X obj 86 457 r \$0-msg-spigot;
#X floatatom 80 652 5 0 0 0 - - -, f 5;
#X obj 80 631 f;
#X obj 80 579 t b f;
#X obj 80 602 spigot;
#X obj 128 586 r \$0-msg-spigot;
#X floatatom 206 529 5 0 0 0 - - -, f 5;
#X obj 206 508 f;
#X obj 206 456 t b f;
#X obj 206 479 spigot;
#X obj 254 463 r \$0-msg-spigot;
#X floatatom 270 656 5 0 0 0 - - -, f 5;
#X obj 270 635 f;
#X obj 270 583 t b f;
#X obj 270 606 spigot;
#X obj 318 590 r \$0-msg-spigot;
#X floatatom 365 529 5 0 0 0 - - -, f 5;
#X obj 365 508 f;
#X obj 365 456 t b f;
#X obj 365 479 spigot;
#X obj 413 463 r \$0-msg-spigot;
#X floatatom 443 649 5 0 0 0 - - -, f 5;
#X obj 443 628 f;
#X obj 443 576 t b f;
#X obj 443 599 spigot;
#X obj 491 583 r \$0-msg-spigot;
#X floatatom 521 517 5 0 0 0 - - -, f 5;
#X obj 521 496 f;
#X obj 521 444 t b f;
#X obj 521 467 spigot;
#X obj 569 451 r \$0-msg-spigot;
#X floatatom 706 511 5 0 0 0 - - -, f 5;
#X obj 706 490 f;
#X obj 706 438 t b f;
#X obj 706 461 spigot;
#X obj 754 445 r \$0-msg-spigot;
#X obj 185 14 r pd-303;
#X obj 185 356 route TRANSPOSE CUTOFF RES ENVMOD ACCENT DECAY SLIDE
SCALE;
#X obj 80 672 s \$0-acid-cutoff-r;
#X obj 38 543 s \$0-acid-xpose-r;
#X obj 206 549 s \$0-acid-res-r;
#X obj 270 676 s \$0-acid-envmod-r;
#X obj 365 549 s \$0-acid-accent-r;
#X obj 443 669 s \$0-acid-decay-r;
#X obj 521 537 s \$0-acid-slide-r;
#X obj 706 531 s \$0-acid-scale-r;
#X connect 0 0 55 0;
#X connect 1 0 53 0;
#X connect 2 0 14 0;
#X connect 3 0 2 0;
#X connect 4 0 3 1;
#X connect 5 0 4 0;
#X connect 6 0 1 0;
#X connect 7 0 8 0;
#X connect 8 0 6 0;
#X connect 9 0 0 0;
#X connect 10 0 11 0;
#X connect 10 1 9 1;
#X connect 11 0 9 0;
#X connect 12 0 13 0;
#X connect 12 1 8 1;
#X connect 12 2 3 0;
#X connect 13 0 7 0;
#X connect 14 0 1 1;
#X connect 14 1 15 0;
#X connect 16 0 11 1;
#X connect 17 0 54 0;
#X connect 18 0 17 0;
#X connect 19 0 20 0;
#X connect 19 1 18 1;
#X connect 20 0 18 0;
#X connect 21 0 20 1;
#X connect 22 0 56 0;
#X connect 23 0 22 0;
#X connect 24 0 25 0;
#X connect 24 1 23 1;
#X connect 25 0 23 0;
#X connect 26 0 25 1;
#X connect 27 0 57 0;
#X connect 28 0 27 0;
#X connect 29 0 30 0;
#X connect 29 1 28 1;
#X connect 30 0 28 0;
#X connect 31 0 30 1;
#X connect 32 0 58 0;
#X connect 33 0 32 0;
#X connect 34 0 35 0;
#X connect 34 1 33 1;
#X connect 35 0 33 0;
#X connect 36 0 35 1;
#X connect 37 0 59 0;
#X connect 38 0 37 0;
#X connect 39 0 40 0;
#X connect 39 1 38 1;
#X connect 40 0 38 0;
#X connect 41 0 40 1;
#X connect 42 0 60 0;
#X connect 43 0 42 0;
#X connect 44 0 45 0;
#X connect 44 1 43 1;
#X connect 45 0 43 0;
#X connect 46 0 45 1;
#X connect 47 0 61 0;
#X connect 48 0 47 0;
#X connect 49 0 50 0;
#X connect 49 1 48 1;
#X connect 50 0 48 0;
#X connect 51 0 50 1;
#X connect 52 0 12 0;
#X connect 53 0 10 0;
#X connect 53 1 19 0;
#X connect 53 2 24 0;
#X connect 53 3 29 0;
#X connect 53 4 34 0;
#X connect 53 5 39 0;
#X connect 53 6 44 0;
#X connect 53 7 49 0;
#X restore 472 525 pd external-messages;
#X connect 18 0 115 0;
#X connect 20 0 21 0;
#X connect 21 0 22 0;
#X connect 22 0 116 0;
#X connect 22 1 77 0;
#X connect 23 0 24 0;
#X connect 24 0 195 0;
#X connect 24 0 199 0;
#X connect 25 0 136 0;
#X connect 26 0 25 0;
#X connect 52 0 135 0;
#X connect 54 0 20 0;
#X connect 54 1 20 1;
#X connect 54 2 53 0;
#X connect 55 0 26 0;
#X connect 57 0 133 0;
#X connect 58 0 62 0;
#X connect 60 0 63 0;
#X connect 61 0 62 1;
#X connect 62 0 64 0;
#X connect 63 0 61 0;
#X connect 64 0 18 1;
#X connect 64 0 69 0;
#X connect 65 0 66 0;
#X connect 66 0 132 0;
#X connect 67 0 68 0;
#X connect 68 0 64 1;
#X connect 70 0 100 0;
#X connect 71 0 57 1;
#X connect 72 0 73 0;
#X connect 73 0 74 0;
#X connect 74 0 75 0;
#X connect 75 0 76 0;
#X connect 76 0 71 1;
#X connect 77 0 78 0;
#X connect 78 0 79 0;
#X connect 79 0 131 0;
#X connect 80 0 117 0;
#X connect 81 0 54 0;
#X connect 88 0 201 0;
#X connect 90 0 96 0;
#X connect 91 0 90 0;
#X connect 93 0 92 0;
#X connect 96 0 99 0;
#X connect 99 0 198 0;
#X connect 100 0 101 0;
#X connect 101 0 71 0;
#X connect 108 0 144 0;
#X connect 109 0 144 1;
#X connect 113 0 155 0;
#X connect 114 0 153 0;
#X connect 115 0 193 0;
#X connect 116 0 51 0;
#X connect 117 0 126 1;
#X connect 120 0 121 0;
#X connect 121 0 122 0;
#X connect 122 0 118 0;
#X connect 123 0 126 0;
#X connect 124 0 123 0;
#X connect 125 0 124 0;
#X connect 126 0 122 1;
#X connect 127 0 129 0;
#X connect 128 0 130 0;
#X connect 129 0 119 0;
#X connect 130 0 129 0;
#X connect 131 0 80 0;
#X connect 132 0 67 0;
#X connect 133 0 18 0;
#X connect 134 0 85 0;
#X connect 135 0 18 1;
#X connect 136 0 24 1;
#X connect 138 0 139 0;
#X connect 139 0 140 0;
#X connect 140 0 136 1;
#X connect 141 0 142 0;
#X connect 142 0 138 0;
#X connect 143 0 141 0;
#X connect 145 0 185 0;
#X connect 146 0 168 0;
#X connect 147 0 160 0;
#X connect 148 0 149 0;
#X connect 149 0 150 0;
#X connect 149 0 151 0;
#X connect 150 0 149 1;
#X connect 151 0 163 0;
#X connect 152 0 81 0;
#X connect 154 0 57 1;
#X connect 156 0 76 1;
#X connect 161 0 147 0;
#X connect 162 0 161 0;
#X connect 164 0 148 0;
#X connect 165 0 164 0;
#X connect 166 0 167 0;
#X connect 167 0 146 0;
#X connect 169 0 71 0;
#X connect 170 0 134 0;
#X connect 172 0 173 0;
#X connect 173 0 171 0;
#X connect 178 0 180 0;
#X connect 179 0 178 0;
#X connect 181 0 178 1;
#X connect 182 0 172 0;
#X connect 186 0 185 1;
#X connect 187 0 57 0;
#X connect 188 0 189 0;
#X connect 189 0 190 0;
#X connect 190 0 194 0;
#X connect 191 0 192 0;
#X connect 192 0 193 1;
#X connect 193 0 170 0;
#X connect 194 0 191 0;
#X connect 195 0 196 0;
#X connect 196 0 197 0;
#X connect 197 0 205 0;
#X connect 198 0 120 0;
#X connect 198 1 23 0;
#X connect 199 0 200 0;
#X connect 200 0 187 0;
#X connect 201 0 202 0;
#X connect 202 0 203 0;
#X connect 202 1 206 0;
#X connect 203 0 204 0;
#X connect 204 0 205 1;
#X connect 205 0 187 0;
#X connect 206 0 207 0;
#X connect 207 0 208 0;
#X connect 208 0 200 1;
#X coords 0 -1 1 1 480 200 2 100 100;
