#N canvas 0 23 1255 697 10;
#X obj 67 75 s \$0-trig!;
#X obj 67 8 inlet~;
#X obj 67 30 threshold~ 0.9 0 0.9 0;
#X obj 67 52 t b b;
#N canvas 0 22 864 595 flam-code 0;
#X obj 406 349 t b b b;
#X obj 406 425 delay;
#X obj 426 400 delay;
#X obj 433 258 / 127;
#X obj 445 376 delay;
#X obj 101 447 spigot;
#X floatatom 134 368 5 0 0 0 - - -, f 5;
#X obj 134 346 < 1;
#X obj 134 387 == 0;
#X floatatom 134 409 5 0 0 0 - - -, f 5;
#X obj 433 302 + 1;
#X obj 433 324 t f f f;
#X obj 433 280 * 99;
#X obj 433 234 r \$0-flam-s;
#X obj 134 324 r \$0-flam-s;
#X obj 101 500 s \$0-trig!;
#X obj 409 110 random 127;
#X floatatom 409 132 5 0 0 0 - - -, f 5;
#X obj 409 151 moses;
#X obj 409 197 t b b;
#X obj 409 173 change;
#X obj 492 185 s \$0-flam-prob-gui-r;
#X obj 516 124 r \$0-flam-prob-s;
#X obj 417 43 inlet;
#X connect 0 0 1 0;
#X connect 0 1 2 0;
#X connect 0 2 4 0;
#X connect 1 0 5 0;
#X connect 2 0 5 0;
#X connect 3 0 12 0;
#X connect 4 0 5 0;
#X connect 5 0 15 0;
#X connect 6 0 8 0;
#X connect 7 0 6 0;
#X connect 8 0 9 0;
#X connect 9 0 5 1;
#X connect 10 0 11 0;
#X connect 11 0 1 1;
#X connect 11 1 2 1;
#X connect 11 2 4 1;
#X connect 12 0 10 0;
#X connect 13 0 3 0;
#X connect 14 0 7 0;
#X connect 16 0 17 0;
#X connect 17 0 18 0;
#X connect 18 0 20 0;
#X connect 19 0 0 0;
#X connect 19 1 21 0;
#X connect 20 0 19 0;
#X connect 22 0 18 1;
#X connect 23 0 16 0;
#X restore 141 69 pd flam-code;
#X obj 1265 40 inlet~ RDM-LOAD;
#X obj 1118 77 threshold~ 0.9 0 0.9 0;
#X obj 1118 99 f;
#X obj 1147 99 + 1;
#X obj 1118 121 % 8;
#X floatatom 1118 143 5 0 0 0 - - -, f 5;
#X obj 1118 162 s \$0-load-r;
#X obj 1063 29 loadbang;
#X obj 1265 62 threshold~ 0.9 0 0.9 0;
#X obj 1265 84 random 8;
#X obj 1265 106 s \$0-load-r;
#X obj 105 242 hsl 128 15 0 127 0 1 \$0-index2-s \$0-index2-r INDEX
135 7 0 10 -158136 -1 -1 6900 1;
#X obj 455 178 r \$0-op1-s;
#X obj 455 200 mtof;
#X obj 455 222 pack 0 50;
#X obj 455 244 line~;
#X obj 455 266 +~;
#X obj 455 297 phasor~;
#X obj 455 319 +~;
#X obj 455 341 cos~;
#X obj 105 227 hsl 128 15 0 127 0 1 \$0-decay2-s \$0-decay2-r DECAY2
135 7 0 10 -262144 -1 -1 3900 1;
#X obj 455 363 *~;
#X obj 515 346 r~ \$0-EG1;
#X obj 105 132 hsl 128 15 0 127 0 1 \$0-op1-s \$0-op1-r OP1(CARRIER)
135 7 0 10 -262144 -1 -1 6100 1;
#X obj 684 298 +~;
#X obj 684 329 phasor~;
#X obj 684 351 +~;
#X obj 684 373 cos~;
#X obj 684 395 *~;
#X obj 744 378 r~ \$0-EG2;
#X obj 105 212 hsl 128 15 0 127 0 1 \$0-op2-s \$0-op2-r OP2(MOD) 135
7 0 10 -262144 -1 -1 3700 1;
#X obj 105 162 hsl 128 15 0 127 0 1 \$0-decay4-s \$0-decay4-r P-DECAY
135 7 0 10 -262144 -1 -1 1400 1;
#X obj 699 22 r \$0-op2-s;
#X obj 105 277 hsl 128 15 0 127 0 1 \$0-decay3-s \$0-decay3-r DECAY3
135 7 0 10 -262144 -1 -1 9200 1;
#X obj 105 262 hsl 128 15 0 127 0 1 \$0-op3-s \$0-op3-r OP3(MOD) 135
7 0 10 -262144 -1 -1 5100 1;
#X obj 844 359 +~;
#X obj 844 390 phasor~;
#X obj 844 412 +~;
#X obj 844 434 cos~;
#X obj 844 456 *~;
#X obj 1080 225 r~ \$0-EG3;
#N canvas 0 22 601 507 EG2 0;
#X obj 135 55 r \$0-trig!;
#X obj 135 132 f;
#X obj 210 71 / 127;
#X obj 210 115 + 5;
#X obj 210 93 * 995;
#X msg 135 154 1 1 \, 0 \$1 1;
#X obj 135 176 vline~;
#X obj 135 198 *~;
#X obj 135 220 *~;
#X obj 223 159 r \$0-index2-s;
#X obj 223 181 / 127;
#X obj 223 203 pack 0 50;
#X obj 223 225 line~;
#X obj 135 264 *~;
#X obj 135 297 s~ \$0-EG2;
#X obj 210 49 r \$0-decay2-s;
#X obj 223 247 +~;
#X obj 223 269 clip~ -1 1;
#X obj 318 231 r~ \$0-INDEX-CV;
#X connect 0 0 1 0;
#X connect 1 0 5 0;
#X connect 2 0 4 0;
#X connect 3 0 1 1;
#X connect 4 0 3 0;
#X connect 5 0 6 0;
#X connect 6 0 7 0;
#X connect 6 0 7 1;
#X connect 7 0 8 0;
#X connect 7 0 8 1;
#X connect 8 0 13 0;
#X connect 9 0 10 0;
#X connect 10 0 11 0;
#X connect 11 0 12 0;
#X connect 12 0 16 0;
#X connect 13 0 14 0;
#X connect 15 0 2 0;
#X connect 16 0 17 0;
#X connect 17 0 13 1;
#X connect 18 0 16 1;
#X restore 356 43 pd EG2;
#X obj 684 417 throw~ \$0-MODULATORS;
#X obj 844 478 throw~ \$0-MODULATORS;
#X obj 526 280 catch~ \$0-MODULATORS;
#X obj 684 266 *~;
#X obj 844 283 *~;
#X obj 699 88 / 127;
#X obj 699 110 * 9;
#X obj 699 132 + 1;
#X obj 699 154 i;
#X obj 699 176 pack 0 50;
#X obj 699 198 line~;
#X obj 859 112 / 127;
#X obj 859 134 * 9;
#X obj 859 156 + 1;
#X obj 859 178 i;
#X obj 859 200 pack 0 50;
#X obj 859 222 line~;
#X obj 859 56 r \$0-op3-s;
#X obj 105 292 hsl 128 15 0 127 0 1 \$0-index3-s \$0-index3-r INDEX
135 7 0 10 -158136 -1 -1 9800 1;
#X obj 290 259 tgl 15 1 \$0-t2-s \$0-t2-r FREE 17 7 0 10 -262144 -1
-1 0 1;
#X obj 290 212 tgl 15 1 \$0-t1-s \$0-t1-r FREE 17 7 0 10 -262144 -1
-1 0 1;
#X obj 699 220 *~;
#X obj 859 244 *~;
#X obj 615 137 r \$0-t1-s;
#X obj 614 159 == 0;
#X obj 615 181 pack 0 50;
#X obj 615 203 line~;
#X obj 927 183 == 0;
#X obj 927 205 pack 0 50;
#X obj 927 227 line~;
#X obj 927 161 r \$0-t2-s;
#X obj 772 109 mtof;
#X obj 699 44 t f f;
#X obj 772 131 spigot;
#X obj 772 153 pack 0 50;
#X obj 772 175 line~;
#X obj 804 15 r \$0-t1-s;
#X obj 1001 95 mtof;
#X obj 1001 206 spigot;
#X obj 1001 228 pack 0 50;
#X obj 1001 250 line~;
#X obj 1034 184 r \$0-t2-s;
#X obj 859 78 t f f;
#X obj 515 420 *~;
#X obj 584 337 r \$0-envmod-s;
#X obj 584 359 / 127;
#X obj 584 381 pack 0 50;
#X obj 584 403 line~;
#X obj 105 177 hsl 128 15 0 127 0 1 \$0-envmod-s \$0-envmod-r ENVMOD
135 7 0 10 -158136 -1 -1 900 1;
#X obj 515 442 *~ 2000;
#X obj 1080 320 *~;
#X obj 1152 259 / 127;
#X obj 1152 281 pack 0 50;
#X obj 1152 303 line~;
#X obj 1080 342 *~ 2000;
#X obj 1152 236 r \$0-envmod3-s;
#X obj 526 302 *~ 1;
#X obj 105 192 hsl 128 15 0 127 0 1 \$0-feedback-s \$0-feedback-r FEEDBACK
135 7 0 10 -158136 -1 -1 0 1;
#X obj 454 644 outlet~;
#N canvas 0 22 450 300 EG3 0;
#X obj 135 55 r \$0-trig!;
#X obj 135 132 f;
#X obj 210 71 / 127;
#X obj 210 115 + 5;
#X obj 210 93 * 995;
#X msg 135 154 1 1 \, 0 \$1 1;
#X obj 135 176 vline~;
#X obj 135 198 *~;
#X obj 135 220 *~;
#X obj 223 181 / 127;
#X obj 223 203 pack 0 50;
#X obj 223 225 line~;
#X obj 135 242 *~;
#X obj 210 49 r \$0-decay3-s;
#X obj 223 159 r \$0-index3-s;
#X obj 135 275 s~ \$0-EG3;
#X obj 222 270 clip~ -1 1;
#X obj 223 247 +~;
#X obj 318 231 r~ \$0-INDEX-CV;
#X connect 0 0 1 0;
#X connect 1 0 5 0;
#X connect 2 0 4 0;
#X connect 3 0 1 1;
#X connect 4 0 3 0;
#X connect 5 0 6 0;
#X connect 6 0 7 0;
#X connect 6 0 7 1;
#X connect 7 0 8 0;
#X connect 7 0 8 1;
#X connect 8 0 12 0;
#X connect 9 0 10 0;
#X connect 10 0 11 0;
#X connect 11 0 17 0;
#X connect 12 0 15 0;
#X connect 13 0 2 0;
#X connect 14 0 9 0;
#X connect 16 0 12 1;
#X connect 17 0 16 0;
#X connect 18 0 17 1;
#X restore 356 68 pd EG3;
#N canvas 0 22 450 300 EG4 0;
#X obj 135 55 r \$0-trig!;
#X obj 135 132 f;
#X obj 210 71 / 127;
#X obj 210 115 + 5;
#X obj 210 93 * 995;
#X msg 135 154 1 1 \, 0 \$1 1;
#X obj 135 176 vline~;
#X obj 135 198 *~;
#X obj 135 220 *~;
#X obj 223 181 / 127;
#X obj 223 203 pack 0 50;
#X obj 223 225 line~;
#X obj 135 242 *~;
#X obj 210 49 r \$0-decay4-s;
#X obj 135 275 s~ \$0-EG4;
#X obj 223 159 r \$0-envmod-s;
#X connect 0 0 1 0;
#X connect 1 0 5 0;
#X connect 2 0 4 0;
#X connect 3 0 1 1;
#X connect 4 0 3 0;
#X connect 5 0 6 0;
#X connect 6 0 7 0;
#X connect 6 0 7 1;
#X connect 7 0 8 0;
#X connect 7 0 8 1;
#X connect 8 0 12 0;
#X connect 9 0 10 0;
#X connect 10 0 11 0;
#X connect 11 0 12 1;
#X connect 12 0 14 0;
#X connect 13 0 2 0;
#X connect 15 0 9 0;
#X restore 355 95 pd EG4;
#X obj 105 147 hsl 128 15 0 127 0 1 \$0-decay1-s \$0-decay1-r DECAY1
135 7 0 10 -262144 -1 -1 2000 1;
#X obj 515 383 r~ \$0-EG4;
#X obj 470 45 *~ 127;
#X obj 470 67 mtof~;
#X obj 470 23 inlet~ OP1-FREQ;
#X obj 364 489 s~ \$0-FEEDBACK;
#X obj 366 139 r~ \$0-FEEDBACK;
#X obj 366 161 *~;
#X obj 530 78 r \$0-feedback-s;
#X obj 530 100 / 127;
#X obj 530 122 pack 0 50;
#X obj 530 144 line~;
#X obj 105 342 hsl 128 15 0 127 0 1 \$0-acc-prob-s \$0-acc-prob-r ACC-PROB
133 7 0 10 -262144 -1 -1 0 1;
#X obj 105 327 hsl 128 15 0 127 0 1 \$0-flam-prob-s \$0-flam-prob-r
FLAM-PROB 133 7 0 10 -262144 -1 -1 0 1;
#X obj 105 312 hsl 128 15 0 127 0 1 \$0-flam-s \$0-flam-r FLAM 133
7 0 10 -262144 -1 -1 0 1;
#X obj 115 372 hradio 15 1 1 8 \$0-load-s \$0-load-r LOAD 125 7 0 10
-262144 -150893 -1 1;
#X obj 115 357 hradio 15 1 0 8 \$0-write-s \$0-write-r STORE 125 7
0 10 -262144 -226533 -1 1;
#X obj 294 325 bng 15 250 50 0 \$0-flam-prob-gui-r \$0-flam-prob-gui-r
empty 17 7 0 10 -1 -226533 -1;
#X obj 294 340 bng 15 250 50 0 \$0-acc-prob-gui-s \$0-acc-prob-gui-r
empty 17 7 0 10 -1 -226533 -1;
#X obj 732 498 random 127;
#X floatatom 732 520 5 0 0 0 - - -, f 5;
#X obj 732 539 moses;
#X floatatom 815 556 5 0 0 0 - - -, f 5;
#X obj 732 561 t b b;
#X obj 732 611 s \$0-acc-prob-gui-r;
#X obj 732 476 r \$0-trig!;
#X obj 801 522 r \$0-acc-prob-s;
#N canvas 0 22 450 300 EG1 0;
#X obj 135 55 r \$0-trig!;
#X obj 135 132 f;
#X obj 210 49 r \$0-decay1-s;
#X obj 210 71 / 127;
#X obj 210 115 + 5;
#X obj 210 93 * 995;
#X msg 135 154 1 1 \, 0 \$1 1;
#X obj 135 176 vline~;
#X obj 135 198 *~;
#X obj 135 220 *~;
#X obj 135 242 s~ \$0-EG1;
#X connect 0 0 1 0;
#X connect 1 0 6 0;
#X connect 2 0 3 0;
#X connect 3 0 5 0;
#X connect 4 0 1 1;
#X connect 5 0 4 0;
#X connect 6 0 7 0;
#X connect 7 0 8 0;
#X connect 7 0 8 1;
#X connect 8 0 9 0;
#X connect 8 0 9 1;
#X connect 9 0 10 0;
#X restore 356 18 pd EG1;
#N canvas 0 22 450 300 EGACCENT 0;
#X obj 135 132 f;
#X obj 210 49 r \$0-decay1-s;
#X obj 210 71 / 127;
#X obj 210 115 + 5;
#X obj 210 93 * 995;
#X msg 135 154 1 1 \, 0 \$1 1;
#X obj 135 176 vline~;
#X obj 135 198 *~;
#X obj 135 220 *~;
#X obj 135 242 s~ \$0-ACCENT;
#X obj 135 55 inlet;
#X connect 0 0 5 0;
#X connect 1 0 2 0;
#X connect 2 0 4 0;
#X connect 3 0 0 1;
#X connect 4 0 3 0;
#X connect 5 0 6 0;
#X connect 6 0 7 0;
#X connect 6 0 7 1;
#X connect 7 0 8 0;
#X connect 7 0 8 1;
#X connect 8 0 9 0;
#X connect 10 0 0 0;
#X restore 759 588 pd EGACCENT;
#X obj 532 487 r~ \$0-ACCENT;
#X obj 456 489 *~ 0.5;
#X floatatom 203 118 5 0 0 0 - #0-op1-s -, f 5;
#X obj 103 123 cnv 5 5 5 empty empty PERCUSSION 0 0 0 12 -262144 -66577
0;
#X obj 176 123 cnv 5 5 5 empty \$0-instance-num 2 0 0 0 12 -262144
-66577 0;
#X obj 318 107 cnv 5 5 5 empty empty R-LOAD 0 0 0 8 -262144 -226533
0;
#X obj 103 109 cnv 5 5 5 empty empty TRIG 0 0 0 8 -262144 -226533 0
;
#X obj 156 108 cnv 5 5 5 empty empty OP1 0 0 0 8 -262144 -1 0;
#X obj 213 108 cnv 5 5 5 empty empty INDEX 0 0 0 8 -262144 -1 0;
#X obj 276 108 cnv 5 5 5 empty empty LOAD 0 0 0 8 -262144 -226533 0
;
#N canvas 267 22 992 752 state-saving-multiple-instances 0;
#X obj 461 15 loadbang;
#X obj 536 276 textfile;
#X obj 461 48 t b b;
#X msg 816 260 rewind;
#X msg 773 260 bang;
#X obj 74 758 textfile;
#X obj 773 221 t b b;
#X obj 74 517 f;
#X obj 88 647 f;
#X obj 12 563 t b b b;
#X msg 151 647 clear;
#X obj 527 204 outlet;
#X text 523 224 INSTANCE NUMBER;
#X obj 488 139 f \$1;
#X obj 488 175 t f f f;
#X obj 12 538 bng 15 250 50 0 empty empty empty 17 7 0 10 -262144 -1
-1;
#X obj 12 479 r SAVE-S;
#X msg 74 598 set \$1 \$2 \$3 \$4 \$5 \$6 \$7 \$8 \$9 \$10 \$11 \$12
\$13 \$14 \$15 \$16 \$17;
#X obj 74 560 pack f f f f f f f f f f f f f f f f f;
#X obj 404 502 r \$0-load-s;
#X obj 342 486 r \$0-t2-s;
#X msg 87 718 write statesave/\$1-percussion-ss.txt;
#X msg 535 251 read statesave/\$1-percussion-ss.txt;
#X obj 79 4 r \$0-op1-s;
#X obj 102 32 r \$0-decay1-s;
#X obj 129 64 r \$0-decay4-s;
#X obj 139 91 r \$0-envmod-s;
#X obj 173 127 r \$0-feedback-s;
#X obj 197 157 r \$0-op2-s;
#X obj 215 188 r \$0-decay2-s;
#X obj 231 214 r \$0-index2-s;
#X obj 256 242 r \$0-op3-s;
#X obj 262 270 r \$0-decay3-s;
#X obj 266 307 r \$0-index3-s;
#X obj 283 337 r \$0-flam-s;
#X obj 322 385 r \$0-flam-prob-s;
#X obj 328 413 r \$0-acc-prob-s;
#X obj 332 450 r \$0-t1-s;
#X obj 541 318 unpack f f f f f f f f f f f f f f f f f;
#X obj 432 743 s \$0-op1-r;
#X obj 459 720 s \$0-decay1-r;
#X obj 486 694 s \$0-decay4-r;
#X obj 513 664 s \$0-envmod-r;
#X obj 534 636 s \$0-feedback-r;
#X obj 549 598 s \$0-op2-r;
#X obj 593 570 s \$0-decay2-r;
#X obj 641 540 s \$0-index2-r;
#X obj 682 510 s \$0-op3-r;
#X obj 713 485 s \$0-decay3-r;
#X obj 739 456 s \$0-index3-r;
#X obj 760 428 s \$0-flam-r;
#X obj 742 580 s \$0-flam-prob-r;
#X obj 783 550 s \$0-acc-prob-r;
#X obj 814 525 s \$0-t1-r;
#X obj 840 496 s \$0-t2-r;
#X obj 861 468 s \$0-load-r;
#X obj 536 24 r \$0-reload!;
#X connect 0 0 2 0;
#X connect 1 0 38 0;
#X connect 2 0 6 0;
#X connect 2 1 13 0;
#X connect 3 0 1 0;
#X connect 4 0 1 0;
#X connect 6 0 4 0;
#X connect 6 1 3 0;
#X connect 7 0 18 0;
#X connect 8 0 21 0;
#X connect 9 0 8 0;
#X connect 9 1 7 0;
#X connect 9 2 10 0;
#X connect 10 0 5 0;
#X connect 13 0 14 0;
#X connect 14 0 8 1;
#X connect 14 1 22 0;
#X connect 14 2 11 0;
#X connect 15 0 9 0;
#X connect 16 0 15 0;
#X connect 17 0 5 0;
#X connect 18 0 17 0;
#X connect 19 0 18 16;
#X connect 20 0 18 15;
#X connect 21 0 5 0;
#X connect 22 0 1 0;
#X connect 23 0 7 1;
#X connect 24 0 18 1;
#X connect 25 0 18 2;
#X connect 26 0 18 3;
#X connect 27 0 18 4;
#X connect 28 0 18 5;
#X connect 29 0 18 6;
#X connect 30 0 18 7;
#X connect 31 0 18 8;
#X connect 32 0 18 9;
#X connect 33 0 18 10;
#X connect 34 0 18 11;
#X connect 35 0 18 12;
#X connect 36 0 18 13;
#X connect 37 0 18 14;
#X connect 38 0 39 0;
#X connect 38 1 40 0;
#X connect 38 2 41 0;
#X connect 38 3 42 0;
#X connect 38 4 43 0;
#X connect 38 5 44 0;
#X connect 38 6 45 0;
#X connect 38 7 46 0;
#X connect 38 8 47 0;
#X connect 38 9 48 0;
#X connect 38 10 49 0;
#X connect 38 11 50 0;
#X connect 38 12 51 0;
#X connect 38 13 52 0;
#X connect 38 14 53 0;
#X connect 38 15 54 0;
#X connect 38 16 55 0;
#X connect 56 0 2 0;
#X restore 99 456 pd state-saving-multiple-instances;
#X obj 99 528 s \$0-instance-num;
#X obj 99 480 makefilename %d;
#X msg 99 505 label \$1;
#N canvas 366 22 1117 745 state-saving-via-preset-manager-module 0
;
#X obj 478 210 textfile;
#X msg 756 193 rewind;
#X msg 713 193 bang;
#X obj 182 818 textfile;
#X obj 713 154 t b b;
#X obj 116 230 f;
#X obj 196 707 f;
#X obj 129 602 t b b b;
#X msg 312 749 clear;
#X obj 116 54 delay 5;
#X obj 129 657 delay 10;
#X msg 62 188 bang;
#X obj 62 29 r STORE-S!;
#X obj 478 111 f;
#X obj 451 68 t b b;
#X obj 466 32 t b f;
#X obj 523 129 f \$1;
#X obj 478 156 pack f f;
#X obj 523 79 loadbang;
#X obj 196 737 pack f f;
#X obj 241 690 loadbang;
#X obj 241 712 f \$1;
#X obj 466 -32 r preset-manager-scan;
#X obj 211 668 r preset-manager-store-slot;
#X obj 466 -10 i;
#N canvas 0 22 1069 747 morph-parameters 0;
#X obj 176 94 inlet;
#X obj 176 236 pack f f;
#X obj 176 261 line;
#X obj 209 117 r preset-manager-morph-s;
#X msg 72 244 stop;
#X obj 72 214 r STOP-MORPH!;
#X obj 209 206 spigot;
#X obj 398 137 t f f;
#X obj 455 154 == 0;
#X obj 221 176 f;
#X floatatom 455 222 5 0 0 0 - - -, f 5;
#X obj 398 159 t b f;
#X floatatom 425 192 5 0 0 0 - - -, f 5;
#X obj 209 139 t f f;
#X obj 398 102 r parameters-s;
#X obj 176 288 outlet;
#X connect 0 0 1 0;
#X connect 1 0 2 0;
#X connect 2 0 15 0;
#X connect 3 0 13 0;
#X connect 4 0 2 0;
#X connect 5 0 4 0;
#X connect 6 0 1 1;
#X connect 7 0 11 0;
#X connect 7 1 8 0;
#X connect 8 0 10 0;
#X connect 9 0 6 0;
#X connect 10 0 1 1;
#X connect 11 0 9 0;
#X connect 11 1 12 0;
#X connect 12 0 6 1;
#X connect 13 0 6 0;
#X connect 13 1 9 1;
#X connect 14 0 7 0;
#X restore 502 762 pd morph-parameters;
#N canvas 0 22 1069 747 morph-parameters 0;
#X obj 176 94 inlet;
#X obj 176 236 pack f f;
#X obj 176 261 line;
#X obj 209 117 r preset-manager-morph-s;
#X msg 72 244 stop;
#X obj 72 214 r STOP-MORPH!;
#X obj 209 206 spigot;
#X obj 398 137 t f f;
#X obj 455 154 == 0;
#X obj 221 176 f;
#X floatatom 455 222 5 0 0 0 - - -, f 5;
#X obj 398 159 t b f;
#X floatatom 425 192 5 0 0 0 - - -, f 5;
#X obj 209 139 t f f;
#X obj 398 102 r parameters-s;
#X obj 176 288 outlet;
#X connect 0 0 1 0;
#X connect 1 0 2 0;
#X connect 2 0 15 0;
#X connect 3 0 13 0;
#X connect 4 0 2 0;
#X connect 5 0 4 0;
#X connect 6 0 1 1;
#X connect 7 0 11 0;
#X connect 7 1 8 0;
#X connect 8 0 10 0;
#X connect 9 0 6 0;
#X connect 10 0 1 1;
#X connect 11 0 9 0;
#X connect 11 1 12 0;
#X connect 12 0 6 1;
#X connect 13 0 6 0;
#X connect 13 1 9 1;
#X connect 14 0 7 0;
#X restore 521 712 pd morph-parameters;
#N canvas 0 22 1069 747 morph-frequencies 0;
#X obj 176 94 inlet;
#X obj 176 236 pack f f;
#X obj 176 261 line;
#X obj 209 117 r preset-manager-morph-s;
#X msg 72 244 stop;
#X obj 72 214 r STOP-MORPH!;
#X obj 398 102 r frequencies-s;
#X obj 209 206 spigot;
#X obj 398 137 t f f;
#X obj 455 154 == 0;
#X obj 221 176 f;
#X floatatom 455 222 5 0 0 0 - - -, f 5;
#X obj 398 159 t b f;
#X floatatom 425 192 5 0 0 0 - - -, f 5;
#X obj 209 139 t f f;
#X obj 176 283 outlet;
#X connect 0 0 1 0;
#X connect 1 0 2 0;
#X connect 2 0 15 0;
#X connect 3 0 14 0;
#X connect 4 0 2 0;
#X connect 5 0 4 0;
#X connect 6 0 8 0;
#X connect 7 0 1 1;
#X connect 8 0 12 0;
#X connect 8 1 9 0;
#X connect 9 0 11 0;
#X connect 10 0 7 0;
#X connect 11 0 1 1;
#X connect 12 0 10 0;
#X connect 12 1 13 0;
#X connect 13 0 7 1;
#X connect 14 0 7 0;
#X connect 14 1 10 1;
#X restore 483 813 pd morph-frequencies;
#X obj 956 352 s \$0-load-r;
#X msg 187 603 set \$1 \$2 \$3 \$4 \$5 \$6 \$7 \$8 \$9 \$10 \$11 \$12
\$13 \$14 \$15 \$16 \$17;
#X msg 195 778 write statesave/\$1-\$2-percussion-ss.txt;
#X msg 478 185 read statesave/\$1-\$2-percussion-ss.txt;
#X obj 185 573 pack f f f f f f f f f f f f f f f f f;
#X obj 480 254 unpack f f f f f f f f f f f f f f f f f;
#X obj 205 -8 r \$0-op1-s;
#X obj 213 15 r \$0-decay1-s;
#X obj 236 36 r \$0-decay4-s;
#X obj 308 104 r \$0-op2-s;
#X obj 321 128 r \$0-decay2-s;
#X obj 332 155 r \$0-index2-s;
#X obj 345 183 r \$0-op3-s;
#X obj 362 211 r \$0-decay3-s;
#X obj 379 245 r \$0-index3-s;
#X obj 385 278 r \$0-flam-s;
#X obj 391 313 r \$0-flam-prob-s;
#X obj 408 341 r \$0-acc-prob-s;
#X obj 425 375 r \$0-t1-s;
#X obj 426 422 r \$0-t2-s;
#X obj 431 485 r \$0-load-s;
#X obj 483 836 s \$0-op1-r;
#X obj 502 785 s \$0-decay1-r;
#X obj 521 735 s \$0-decay4-r;
#N canvas 0 22 1069 747 morph-attenuators 0;
#X obj 176 94 inlet;
#X obj 176 236 pack f f;
#X obj 176 261 line;
#X obj 209 117 r preset-manager-morph-s;
#X msg 72 244 stop;
#X obj 72 214 r STOP-MORPH!;
#X obj 209 206 spigot;
#X obj 398 137 t f f;
#X obj 455 154 == 0;
#X obj 221 176 f;
#X floatatom 455 222 5 0 0 0 - - -, f 5;
#X obj 398 159 t b f;
#X floatatom 425 192 5 0 0 0 - - -, f 5;
#X obj 209 139 t f f;
#X obj 398 102 r attenuators-s;
#X obj 176 288 outlet;
#X connect 0 0 1 0;
#X connect 1 0 2 0;
#X connect 2 0 15 0;
#X connect 3 0 13 0;
#X connect 4 0 2 0;
#X connect 5 0 4 0;
#X connect 6 0 1 1;
#X connect 7 0 11 0;
#X connect 7 1 8 0;
#X connect 8 0 10 0;
#X connect 9 0 6 0;
#X connect 10 0 1 1;
#X connect 11 0 9 0;
#X connect 11 1 12 0;
#X connect 12 0 6 1;
#X connect 13 0 6 0;
#X connect 13 1 9 1;
#X connect 14 0 7 0;
#X restore 545 656 pd morph-attenuators;
#X obj 259 57 r \$0-envmod-s;
#X obj 300 81 r \$0-feedback-s;
#X obj 543 684 s \$0-envmod-r;
#N canvas 0 22 1069 747 morph-attenuators 0;
#X obj 176 94 inlet;
#X obj 176 236 pack f f;
#X obj 176 261 line;
#X obj 209 117 r preset-manager-morph-s;
#X msg 72 244 stop;
#X obj 72 214 r STOP-MORPH!;
#X obj 209 206 spigot;
#X obj 398 137 t f f;
#X obj 455 154 == 0;
#X obj 221 176 f;
#X floatatom 455 222 5 0 0 0 - - -, f 5;
#X obj 398 159 t b f;
#X floatatom 425 192 5 0 0 0 - - -, f 5;
#X obj 209 139 t f f;
#X obj 398 102 r attenuators-s;
#X obj 176 288 outlet;
#X connect 0 0 1 0;
#X connect 1 0 2 0;
#X connect 2 0 15 0;
#X connect 3 0 13 0;
#X connect 4 0 2 0;
#X connect 5 0 4 0;
#X connect 6 0 1 1;
#X connect 7 0 11 0;
#X connect 7 1 8 0;
#X connect 8 0 10 0;
#X connect 9 0 6 0;
#X connect 10 0 1 1;
#X connect 11 0 9 0;
#X connect 11 1 12 0;
#X connect 12 0 6 1;
#X connect 13 0 6 0;
#X connect 13 1 9 1;
#X connect 14 0 7 0;
#X restore 564 612 pd morph-attenuators;
#X obj 563 634 s \$0-feedback-r;
#N canvas 0 22 1069 747 morph-parameters 0;
#X obj 176 94 inlet;
#X obj 176 236 pack f f;
#X obj 176 261 line;
#X obj 209 117 r preset-manager-morph-s;
#X msg 72 244 stop;
#X obj 72 214 r STOP-MORPH!;
#X obj 209 206 spigot;
#X obj 398 137 t f f;
#X obj 455 154 == 0;
#X obj 221 176 f;
#X floatatom 455 222 5 0 0 0 - - -, f 5;
#X obj 398 159 t b f;
#X floatatom 425 192 5 0 0 0 - - -, f 5;
#X obj 209 139 t f f;
#X obj 398 102 r parameters-s;
#X obj 176 288 outlet;
#X connect 0 0 1 0;
#X connect 1 0 2 0;
#X connect 2 0 15 0;
#X connect 3 0 13 0;
#X connect 4 0 2 0;
#X connect 5 0 4 0;
#X connect 6 0 1 1;
#X connect 7 0 11 0;
#X connect 7 1 8 0;
#X connect 8 0 10 0;
#X connect 9 0 6 0;
#X connect 10 0 1 1;
#X connect 11 0 9 0;
#X connect 11 1 12 0;
#X connect 12 0 6 1;
#X connect 13 0 6 0;
#X connect 13 1 9 1;
#X connect 14 0 7 0;
#X restore 601 512 pd morph-parameters;
#X obj 582 585 s \$0-op2-r;
#X obj 601 535 s \$0-decay2-r;
#N canvas 0 22 1069 747 morph-attenuators 0;
#X obj 176 94 inlet;
#X obj 176 236 pack f f;
#X obj 176 261 line;
#X obj 209 117 r preset-manager-morph-s;
#X msg 72 244 stop;
#X obj 72 214 r STOP-MORPH!;
#X obj 209 206 spigot;
#X obj 398 137 t f f;
#X obj 455 154 == 0;
#X obj 221 176 f;
#X floatatom 455 222 5 0 0 0 - - -, f 5;
#X obj 398 159 t b f;
#X floatatom 425 192 5 0 0 0 - - -, f 5;
#X obj 209 139 t f f;
#X obj 398 102 r attenuators-s;
#X obj 176 288 outlet;
#X connect 0 0 1 0;
#X connect 1 0 2 0;
#X connect 2 0 15 0;
#X connect 3 0 13 0;
#X connect 4 0 2 0;
#X connect 5 0 4 0;
#X connect 6 0 1 1;
#X connect 7 0 11 0;
#X connect 7 1 8 0;
#X connect 8 0 10 0;
#X connect 9 0 6 0;
#X connect 10 0 1 1;
#X connect 11 0 9 0;
#X connect 11 1 12 0;
#X connect 12 0 6 1;
#X connect 13 0 6 0;
#X connect 13 1 9 1;
#X connect 14 0 7 0;
#X restore 613 466 pd morph-attenuators;
#X obj 612 488 s \$0-index2-r;
#N canvas 0 22 1069 747 morph-parameters 0;
#X obj 176 94 inlet;
#X obj 176 236 pack f f;
#X obj 176 261 line;
#X obj 209 117 r preset-manager-morph-s;
#X msg 72 244 stop;
#X obj 72 214 r STOP-MORPH!;
#X obj 209 206 spigot;
#X obj 398 137 t f f;
#X obj 455 154 == 0;
#X obj 221 176 f;
#X floatatom 455 222 5 0 0 0 - - -, f 5;
#X obj 398 159 t b f;
#X floatatom 425 192 5 0 0 0 - - -, f 5;
#X obj 209 139 t f f;
#X obj 398 102 r parameters-s;
#X obj 176 288 outlet;
#X connect 0 0 1 0;
#X connect 1 0 2 0;
#X connect 2 0 15 0;
#X connect 3 0 13 0;
#X connect 4 0 2 0;
#X connect 5 0 4 0;
#X connect 6 0 1 1;
#X connect 7 0 11 0;
#X connect 7 1 8 0;
#X connect 8 0 10 0;
#X connect 9 0 6 0;
#X connect 10 0 1 1;
#X connect 11 0 9 0;
#X connect 11 1 12 0;
#X connect 12 0 6 1;
#X connect 13 0 6 0;
#X connect 13 1 9 1;
#X connect 14 0 7 0;
#X restore 644 371 pd morph-parameters;
#N canvas 0 22 1069 747 morph-attenuators 0;
#X obj 176 94 inlet;
#X obj 176 236 pack f f;
#X obj 176 261 line;
#X obj 209 117 r preset-manager-morph-s;
#X msg 72 244 stop;
#X obj 72 214 r STOP-MORPH!;
#X obj 209 206 spigot;
#X obj 398 137 t f f;
#X obj 455 154 == 0;
#X obj 221 176 f;
#X floatatom 455 222 5 0 0 0 - - -, f 5;
#X obj 398 159 t b f;
#X floatatom 425 192 5 0 0 0 - - -, f 5;
#X obj 209 139 t f f;
#X obj 398 102 r attenuators-s;
#X obj 176 288 outlet;
#X connect 0 0 1 0;
#X connect 1 0 2 0;
#X connect 2 0 15 0;
#X connect 3 0 13 0;
#X connect 4 0 2 0;
#X connect 5 0 4 0;
#X connect 6 0 1 1;
#X connect 7 0 11 0;
#X connect 7 1 8 0;
#X connect 8 0 10 0;
#X connect 9 0 6 0;
#X connect 10 0 1 1;
#X connect 11 0 9 0;
#X connect 11 1 12 0;
#X connect 12 0 6 1;
#X connect 13 0 6 0;
#X connect 13 1 9 1;
#X connect 14 0 7 0;
#X restore 652 325 pd morph-attenuators;
#X obj 624 443 s \$0-op3-r;
#X obj 644 394 s \$0-decay3-r;
#X obj 651 347 s \$0-index3-r;
#N canvas 0 22 1069 747 morph-frequencies 0;
#X obj 176 94 inlet;
#X obj 176 236 pack f f;
#X obj 176 261 line;
#X obj 209 117 r preset-manager-morph-s;
#X msg 72 244 stop;
#X obj 72 214 r STOP-MORPH!;
#X obj 398 102 r frequencies-s;
#X obj 209 206 spigot;
#X obj 398 137 t f f;
#X obj 455 154 == 0;
#X obj 221 176 f;
#X floatatom 455 222 5 0 0 0 - - -, f 5;
#X obj 398 159 t b f;
#X floatatom 425 192 5 0 0 0 - - -, f 5;
#X obj 209 139 t f f;
#X obj 176 283 outlet;
#X connect 0 0 1 0;
#X connect 1 0 2 0;
#X connect 2 0 15 0;
#X connect 3 0 14 0;
#X connect 4 0 2 0;
#X connect 5 0 4 0;
#X connect 6 0 8 0;
#X connect 7 0 1 1;
#X connect 8 0 12 0;
#X connect 8 1 9 0;
#X connect 9 0 11 0;
#X connect 10 0 7 0;
#X connect 11 0 1 1;
#X connect 12 0 10 0;
#X connect 12 1 13 0;
#X connect 13 0 7 1;
#X connect 14 0 7 0;
#X connect 14 1 10 1;
#X restore 582 563 pd morph-frequencies;
#N canvas 0 22 1069 747 morph-frequencies 0;
#X obj 176 94 inlet;
#X obj 176 236 pack f f;
#X obj 176 261 line;
#X obj 209 117 r preset-manager-morph-s;
#X msg 72 244 stop;
#X obj 72 214 r STOP-MORPH!;
#X obj 398 102 r frequencies-s;
#X obj 209 206 spigot;
#X obj 398 137 t f f;
#X obj 455 154 == 0;
#X obj 221 176 f;
#X floatatom 455 222 5 0 0 0 - - -, f 5;
#X obj 398 159 t b f;
#X floatatom 425 192 5 0 0 0 - - -, f 5;
#X obj 209 139 t f f;
#X obj 176 283 outlet;
#X connect 0 0 1 0;
#X connect 1 0 2 0;
#X connect 2 0 15 0;
#X connect 3 0 14 0;
#X connect 4 0 2 0;
#X connect 5 0 4 0;
#X connect 6 0 8 0;
#X connect 7 0 1 1;
#X connect 8 0 12 0;
#X connect 8 1 9 0;
#X connect 9 0 11 0;
#X connect 10 0 7 0;
#X connect 11 0 1 1;
#X connect 12 0 10 0;
#X connect 12 1 13 0;
#X connect 13 0 7 1;
#X connect 14 0 7 0;
#X connect 14 1 10 1;
#X restore 624 420 pd morph-frequencies;
#N canvas 0 22 1069 747 morph-parameters 0;
#X obj 176 94 inlet;
#X obj 176 236 pack f f;
#X obj 176 261 line;
#X obj 209 117 r preset-manager-morph-s;
#X msg 72 244 stop;
#X obj 72 214 r STOP-MORPH!;
#X obj 209 206 spigot;
#X obj 398 137 t f f;
#X obj 455 154 == 0;
#X obj 221 176 f;
#X floatatom 455 222 5 0 0 0 - - -, f 5;
#X obj 398 159 t b f;
#X floatatom 425 192 5 0 0 0 - - -, f 5;
#X obj 209 139 t f f;
#X obj 398 102 r parameters-s;
#X obj 176 288 outlet;
#X connect 0 0 1 0;
#X connect 1 0 2 0;
#X connect 2 0 15 0;
#X connect 3 0 13 0;
#X connect 4 0 2 0;
#X connect 5 0 4 0;
#X connect 6 0 1 1;
#X connect 7 0 11 0;
#X connect 7 1 8 0;
#X connect 8 0 10 0;
#X connect 9 0 6 0;
#X connect 10 0 1 1;
#X connect 11 0 9 0;
#X connect 11 1 12 0;
#X connect 12 0 6 1;
#X connect 13 0 6 0;
#X connect 13 1 9 1;
#X connect 14 0 7 0;
#X restore 753 608 pd morph-parameters;
#N canvas 0 22 1069 747 morph-parameters 0;
#X obj 176 94 inlet;
#X obj 176 236 pack f f;
#X obj 176 261 line;
#X obj 209 117 r preset-manager-morph-s;
#X msg 72 244 stop;
#X obj 72 214 r STOP-MORPH!;
#X obj 209 206 spigot;
#X obj 398 137 t f f;
#X obj 455 154 == 0;
#X obj 221 176 f;
#X floatatom 455 222 5 0 0 0 - - -, f 5;
#X obj 398 159 t b f;
#X floatatom 425 192 5 0 0 0 - - -, f 5;
#X obj 209 139 t f f;
#X obj 398 102 r parameters-s;
#X obj 176 288 outlet;
#X connect 0 0 1 0;
#X connect 1 0 2 0;
#X connect 2 0 15 0;
#X connect 3 0 13 0;
#X connect 4 0 2 0;
#X connect 5 0 4 0;
#X connect 6 0 1 1;
#X connect 7 0 11 0;
#X connect 7 1 8 0;
#X connect 8 0 10 0;
#X connect 9 0 6 0;
#X connect 10 0 1 1;
#X connect 11 0 9 0;
#X connect 11 1 12 0;
#X connect 12 0 6 1;
#X connect 13 0 6 0;
#X connect 13 1 9 1;
#X connect 14 0 7 0;
#X restore 771 560 pd morph-parameters;
#N canvas 0 22 1069 747 morph-parameters 0;
#X obj 176 94 inlet;
#X obj 176 236 pack f f;
#X obj 176 261 line;
#X obj 209 117 r preset-manager-morph-s;
#X msg 72 244 stop;
#X obj 72 214 r STOP-MORPH!;
#X obj 209 206 spigot;
#X obj 398 137 t f f;
#X obj 455 154 == 0;
#X obj 221 176 f;
#X floatatom 455 222 5 0 0 0 - - -, f 5;
#X obj 398 159 t b f;
#X floatatom 425 192 5 0 0 0 - - -, f 5;
#X obj 209 139 t f f;
#X obj 398 102 r parameters-s;
#X obj 176 288 outlet;
#X connect 0 0 1 0;
#X connect 1 0 2 0;
#X connect 2 0 15 0;
#X connect 3 0 13 0;
#X connect 4 0 2 0;
#X connect 5 0 4 0;
#X connect 6 0 1 1;
#X connect 7 0 11 0;
#X connect 7 1 8 0;
#X connect 8 0 10 0;
#X connect 9 0 6 0;
#X connect 10 0 1 1;
#X connect 11 0 9 0;
#X connect 11 1 12 0;
#X connect 12 0 6 1;
#X connect 13 0 6 0;
#X connect 13 1 9 1;
#X connect 14 0 7 0;
#X restore 792 502 pd morph-parameters;
#X obj 753 631 s \$0-flam-r;
#X obj 771 583 s \$0-flam-prob-r;
#X obj 792 525 s \$0-acc-prob-r;
#X obj 796 443 s \$0-t1-r;
#X obj 814 395 s \$0-t2-r;
#X connect 0 0 33 0;
#X connect 1 0 0 0;
#X connect 2 0 0 0;
#X connect 4 0 2 0;
#X connect 4 1 1 0;
#X connect 5 0 32 0;
#X connect 6 0 19 0;
#X connect 7 0 10 0;
#X connect 7 1 9 0;
#X connect 7 2 8 0;
#X connect 8 0 3 0;
#X connect 9 0 5 0;
#X connect 10 0 6 0;
#X connect 11 0 7 0;
#X connect 12 0 11 0;
#X connect 13 0 17 0;
#X connect 14 0 4 0;
#X connect 14 1 13 0;
#X connect 15 0 14 0;
#X connect 15 1 13 1;
#X connect 16 0 17 1;
#X connect 17 0 31 0;
#X connect 18 0 16 0;
#X connect 19 0 30 0;
#X connect 20 0 21 0;
#X connect 21 0 19 1;
#X connect 22 0 24 0;
#X connect 23 0 6 1;
#X connect 24 0 15 0;
#X connect 25 0 50 0;
#X connect 26 0 51 0;
#X connect 27 0 49 0;
#X connect 29 0 3 0;
#X connect 30 0 3 0;
#X connect 31 0 0 0;
#X connect 32 0 29 0;
#X connect 33 0 27 0;
#X connect 33 1 25 0;
#X connect 33 2 26 0;
#X connect 33 3 52 0;
#X connect 33 4 56 0;
#X connect 33 5 68 0;
#X connect 33 6 58 0;
#X connect 33 7 61 0;
#X connect 33 8 69 0;
#X connect 33 9 63 0;
#X connect 33 10 64 0;
#X connect 33 11 70 0;
#X connect 33 12 71 0;
#X connect 33 13 72 0;
#X connect 33 14 76 0;
#X connect 33 15 77 0;
#X connect 33 16 28 0;
#X connect 34 0 5 1;
#X connect 35 0 32 1;
#X connect 36 0 32 2;
#X connect 37 0 32 5;
#X connect 38 0 32 6;
#X connect 39 0 32 7;
#X connect 40 0 32 8;
#X connect 41 0 32 9;
#X connect 42 0 32 10;
#X connect 43 0 32 11;
#X connect 44 0 32 12;
#X connect 45 0 32 13;
#X connect 46 0 32 14;
#X connect 47 0 32 15;
#X connect 48 0 32 16;
#X connect 52 0 55 0;
#X connect 53 0 32 3;
#X connect 54 0 32 4;
#X connect 56 0 57 0;
#X connect 58 0 60 0;
#X connect 61 0 62 0;
#X connect 63 0 66 0;
#X connect 64 0 67 0;
#X connect 68 0 59 0;
#X connect 69 0 65 0;
#X connect 70 0 73 0;
#X connect 71 0 74 0;
#X connect 72 0 75 0;
#X restore 99 431 pd state-saving-via-preset-manager-module;
#N canvas 327 22 708 706 parameter-nudging-system 0;
#X obj 23 70 clip 0 127;
#X obj 122 67 clip 0 127;
#N canvas 0 22 484 497 nudge-freq 0;
#X obj 124 234 random;
#X obj 232 335 f;
#X obj 232 368 +;
#X obj 257 166 random 2;
#X obj 124 275 t f f;
#X obj 124 351 t b f;
#X obj 124 297 *;
#X obj 257 188 sel 0 1;
#X msg 257 280 -1;
#X msg 335 280 1;
#X obj 124 149 t b b b;
#X obj 124 51 r NUDGE!;
#X obj 157 193 r NUDGE-RANGE;
#X obj 247 308 inlet;
#X obj 232 397 outlet;
#X obj 124 73 spigot;
#X obj 185 56 r frequencies2-s;
#X connect 0 0 4 0;
#X connect 1 0 2 0;
#X connect 2 0 14 0;
#X connect 3 0 7 0;
#X connect 4 0 6 0;
#X connect 5 0 2 0;
#X connect 5 1 2 1;
#X connect 6 0 5 0;
#X connect 7 0 8 0;
#X connect 7 1 9 0;
#X connect 8 0 6 1;
#X connect 9 0 6 1;
#X connect 10 0 0 0;
#X connect 10 1 1 0;
#X connect 10 2 3 0;
#X connect 11 0 15 0;
#X connect 12 0 0 1;
#X connect 13 0 1 1;
#X connect 15 0 10 0;
#X connect 16 0 15 1;
#X restore 23 48 pd nudge-freq;
#N canvas 0 22 484 497 nudge-parameters 0;
#X obj 124 234 random;
#X obj 232 335 f;
#X obj 232 368 +;
#X obj 257 166 random 2;
#X obj 124 275 t f f;
#X obj 124 351 t b f;
#X obj 124 297 *;
#X obj 257 188 sel 0 1;
#X msg 257 280 -1;
#X msg 335 280 1;
#X obj 124 149 t b b b;
#X obj 124 74 r NUDGE!;
#X obj 157 193 r NUDGE-RANGE;
#X obj 247 308 inlet;
#X obj 232 397 outlet;
#X obj 124 96 spigot;
#X obj 185 79 r parameters2-s;
#X connect 0 0 4 0;
#X connect 1 0 2 0;
#X connect 2 0 14 0;
#X connect 3 0 7 0;
#X connect 4 0 6 0;
#X connect 5 0 2 0;
#X connect 5 1 2 1;
#X connect 6 0 5 0;
#X connect 7 0 8 0;
#X connect 7 1 9 0;
#X connect 8 0 6 1;
#X connect 9 0 6 1;
#X connect 10 0 0 0;
#X connect 10 1 1 0;
#X connect 10 2 3 0;
#X connect 11 0 15 0;
#X connect 12 0 0 1;
#X connect 13 0 1 1;
#X connect 15 0 10 0;
#X connect 16 0 15 1;
#X restore 122 45 pd nudge-parameters;
#N canvas 0 22 484 497 nudge-attenuators 0;
#X obj 124 234 random;
#X obj 232 335 f;
#X obj 232 368 +;
#X obj 257 166 random 2;
#X obj 124 275 t f f;
#X obj 124 351 t b f;
#X obj 124 297 *;
#X obj 257 188 sel 0 1;
#X msg 257 280 -1;
#X msg 335 280 1;
#X obj 124 149 t b b b;
#X obj 124 71 r NUDGE!;
#X obj 157 193 r NUDGE-RANGE;
#X obj 247 308 inlet;
#X obj 232 397 outlet;
#X obj 124 93 spigot;
#X obj 201 76 r attenuators2-s;
#X connect 0 0 4 0;
#X connect 1 0 2 0;
#X connect 2 0 14 0;
#X connect 3 0 7 0;
#X connect 4 0 6 0;
#X connect 5 0 2 0;
#X connect 5 1 2 1;
#X connect 6 0 5 0;
#X connect 7 0 8 0;
#X connect 7 1 9 0;
#X connect 8 0 6 1;
#X connect 9 0 6 1;
#X connect 10 0 0 0;
#X connect 10 1 1 0;
#X connect 10 2 3 0;
#X connect 11 0 15 0;
#X connect 12 0 0 1;
#X connect 13 0 1 1;
#X connect 15 0 10 0;
#X connect 16 0 15 1;
#X restore 23 154 pd nudge-attenuators;
#X obj 24 179 clip 0 127;
#X obj 23 22 r \$0-op1-s;
#X obj 23 102 s \$0-op1-r;
#X obj 122 22 r \$0-decay1-s;
#X obj 122 99 s \$0-decay1-r;
#X obj 253 64 clip 0 127;
#N canvas 0 22 484 497 nudge-parameters 0;
#X obj 124 234 random;
#X obj 232 335 f;
#X obj 232 368 +;
#X obj 257 166 random 2;
#X obj 124 275 t f f;
#X obj 124 351 t b f;
#X obj 124 297 *;
#X obj 257 188 sel 0 1;
#X msg 257 280 -1;
#X msg 335 280 1;
#X obj 124 149 t b b b;
#X obj 124 74 r NUDGE!;
#X obj 157 193 r NUDGE-RANGE;
#X obj 247 308 inlet;
#X obj 232 397 outlet;
#X obj 124 96 spigot;
#X obj 185 79 r parameters2-s;
#X connect 0 0 4 0;
#X connect 1 0 2 0;
#X connect 2 0 14 0;
#X connect 3 0 7 0;
#X connect 4 0 6 0;
#X connect 5 0 2 0;
#X connect 5 1 2 1;
#X connect 6 0 5 0;
#X connect 7 0 8 0;
#X connect 7 1 9 0;
#X connect 8 0 6 1;
#X connect 9 0 6 1;
#X connect 10 0 0 0;
#X connect 10 1 1 0;
#X connect 10 2 3 0;
#X connect 11 0 15 0;
#X connect 12 0 0 1;
#X connect 13 0 1 1;
#X connect 15 0 10 0;
#X connect 16 0 15 1;
#X restore 253 42 pd nudge-parameters;
#X obj 253 19 r \$0-decay4-s;
#X obj 253 96 s \$0-decay4-r;
#X obj 23 128 r \$0-envmod-s;
#X obj 24 205 s \$0-envmod-r;
#N canvas 0 22 484 497 nudge-attenuators 0;
#X obj 124 234 random;
#X obj 232 335 f;
#X obj 232 368 +;
#X obj 257 166 random 2;
#X obj 124 275 t f f;
#X obj 124 351 t b f;
#X obj 124 297 *;
#X obj 257 188 sel 0 1;
#X msg 257 280 -1;
#X msg 335 280 1;
#X obj 124 149 t b b b;
#X obj 124 71 r NUDGE!;
#X obj 157 193 r NUDGE-RANGE;
#X obj 247 308 inlet;
#X obj 232 397 outlet;
#X obj 124 93 spigot;
#X obj 201 76 r attenuators2-s;
#X connect 0 0 4 0;
#X connect 1 0 2 0;
#X connect 2 0 14 0;
#X connect 3 0 7 0;
#X connect 4 0 6 0;
#X connect 5 0 2 0;
#X connect 5 1 2 1;
#X connect 6 0 5 0;
#X connect 7 0 8 0;
#X connect 7 1 9 0;
#X connect 8 0 6 1;
#X connect 9 0 6 1;
#X connect 10 0 0 0;
#X connect 10 1 1 0;
#X connect 10 2 3 0;
#X connect 11 0 15 0;
#X connect 12 0 0 1;
#X connect 13 0 1 1;
#X connect 15 0 10 0;
#X connect 16 0 15 1;
#X restore 166 154 pd nudge-attenuators;
#X obj 167 179 clip 0 127;
#X obj 166 128 r \$0-feedback-s;
#X obj 167 205 s \$0-feedback-r;
#X obj 23 284 clip 0 127;
#X obj 122 281 clip 0 127;
#N canvas 0 22 484 497 nudge-freq 0;
#X obj 124 234 random;
#X obj 232 335 f;
#X obj 232 368 +;
#X obj 257 166 random 2;
#X obj 124 275 t f f;
#X obj 124 351 t b f;
#X obj 124 297 *;
#X obj 257 188 sel 0 1;
#X msg 257 280 -1;
#X msg 335 280 1;
#X obj 124 149 t b b b;
#X obj 124 51 r NUDGE!;
#X obj 157 193 r NUDGE-RANGE;
#X obj 247 308 inlet;
#X obj 232 397 outlet;
#X obj 124 73 spigot;
#X obj 185 56 r frequencies2-s;
#X connect 0 0 4 0;
#X connect 1 0 2 0;
#X connect 2 0 14 0;
#X connect 3 0 7 0;
#X connect 4 0 6 0;
#X connect 5 0 2 0;
#X connect 5 1 2 1;
#X connect 6 0 5 0;
#X connect 7 0 8 0;
#X connect 7 1 9 0;
#X connect 8 0 6 1;
#X connect 9 0 6 1;
#X connect 10 0 0 0;
#X connect 10 1 1 0;
#X connect 10 2 3 0;
#X connect 11 0 15 0;
#X connect 12 0 0 1;
#X connect 13 0 1 1;
#X connect 15 0 10 0;
#X connect 16 0 15 1;
#X restore 23 262 pd nudge-freq;
#N canvas 0 22 484 497 nudge-parameters 0;
#X obj 124 234 random;
#X obj 232 335 f;
#X obj 232 368 +;
#X obj 257 166 random 2;
#X obj 124 275 t f f;
#X obj 124 351 t b f;
#X obj 124 297 *;
#X obj 257 188 sel 0 1;
#X msg 257 280 -1;
#X msg 335 280 1;
#X obj 124 149 t b b b;
#X obj 124 74 r NUDGE!;
#X obj 157 193 r NUDGE-RANGE;
#X obj 247 308 inlet;
#X obj 232 397 outlet;
#X obj 124 96 spigot;
#X obj 185 79 r parameters2-s;
#X connect 0 0 4 0;
#X connect 1 0 2 0;
#X connect 2 0 14 0;
#X connect 3 0 7 0;
#X connect 4 0 6 0;
#X connect 5 0 2 0;
#X connect 5 1 2 1;
#X connect 6 0 5 0;
#X connect 7 0 8 0;
#X connect 7 1 9 0;
#X connect 8 0 6 1;
#X connect 9 0 6 1;
#X connect 10 0 0 0;
#X connect 10 1 1 0;
#X connect 10 2 3 0;
#X connect 11 0 15 0;
#X connect 12 0 0 1;
#X connect 13 0 1 1;
#X connect 15 0 10 0;
#X connect 16 0 15 1;
#X restore 122 259 pd nudge-parameters;
#X obj 23 236 r \$0-op2-s;
#X obj 23 316 s \$0-op2-r;
#X obj 122 236 r \$0-decay2-s;
#X obj 122 313 s \$0-decay2-r;
#N canvas 0 22 484 497 nudge-attenuators 0;
#X obj 124 234 random;
#X obj 232 335 f;
#X obj 232 368 +;
#X obj 257 166 random 2;
#X obj 124 275 t f f;
#X obj 124 351 t b f;
#X obj 124 297 *;
#X obj 257 188 sel 0 1;
#X msg 257 280 -1;
#X msg 335 280 1;
#X obj 124 149 t b b b;
#X obj 124 71 r NUDGE!;
#X obj 157 193 r NUDGE-RANGE;
#X obj 247 308 inlet;
#X obj 232 397 outlet;
#X obj 124 93 spigot;
#X obj 201 76 r attenuators2-s;
#X connect 0 0 4 0;
#X connect 1 0 2 0;
#X connect 2 0 14 0;
#X connect 3 0 7 0;
#X connect 4 0 6 0;
#X connect 5 0 2 0;
#X connect 5 1 2 1;
#X connect 6 0 5 0;
#X connect 7 0 8 0;
#X connect 7 1 9 0;
#X connect 8 0 6 1;
#X connect 9 0 6 1;
#X connect 10 0 0 0;
#X connect 10 1 1 0;
#X connect 10 2 3 0;
#X connect 11 0 15 0;
#X connect 12 0 0 1;
#X connect 13 0 1 1;
#X connect 15 0 10 0;
#X connect 16 0 15 1;
#X restore 257 264 pd nudge-attenuators;
#X obj 258 289 clip 0 127;
#X obj 257 238 r \$0-index2-s;
#X obj 258 315 s \$0-index2-r;
#X obj 23 399 clip 0 127;
#X obj 122 396 clip 0 127;
#N canvas 0 22 484 497 nudge-freq 0;
#X obj 124 234 random;
#X obj 232 335 f;
#X obj 232 368 +;
#X obj 257 166 random 2;
#X obj 124 275 t f f;
#X obj 124 351 t b f;
#X obj 124 297 *;
#X obj 257 188 sel 0 1;
#X msg 257 280 -1;
#X msg 335 280 1;
#X obj 124 149 t b b b;
#X obj 124 51 r NUDGE!;
#X obj 157 193 r NUDGE-RANGE;
#X obj 247 308 inlet;
#X obj 232 397 outlet;
#X obj 124 73 spigot;
#X obj 185 56 r frequencies2-s;
#X connect 0 0 4 0;
#X connect 1 0 2 0;
#X connect 2 0 14 0;
#X connect 3 0 7 0;
#X connect 4 0 6 0;
#X connect 5 0 2 0;
#X connect 5 1 2 1;
#X connect 6 0 5 0;
#X connect 7 0 8 0;
#X connect 7 1 9 0;
#X connect 8 0 6 1;
#X connect 9 0 6 1;
#X connect 10 0 0 0;
#X connect 10 1 1 0;
#X connect 10 2 3 0;
#X connect 11 0 15 0;
#X connect 12 0 0 1;
#X connect 13 0 1 1;
#X connect 15 0 10 0;
#X connect 16 0 15 1;
#X restore 23 377 pd nudge-freq;
#N canvas 0 22 484 497 nudge-parameters 0;
#X obj 124 234 random;
#X obj 232 335 f;
#X obj 232 368 +;
#X obj 257 166 random 2;
#X obj 124 275 t f f;
#X obj 124 351 t b f;
#X obj 124 297 *;
#X obj 257 188 sel 0 1;
#X msg 257 280 -1;
#X msg 335 280 1;
#X obj 124 149 t b b b;
#X obj 124 74 r NUDGE!;
#X obj 157 193 r NUDGE-RANGE;
#X obj 247 308 inlet;
#X obj 232 397 outlet;
#X obj 124 96 spigot;
#X obj 185 79 r parameters2-s;
#X connect 0 0 4 0;
#X connect 1 0 2 0;
#X connect 2 0 14 0;
#X connect 3 0 7 0;
#X connect 4 0 6 0;
#X connect 5 0 2 0;
#X connect 5 1 2 1;
#X connect 6 0 5 0;
#X connect 7 0 8 0;
#X connect 7 1 9 0;
#X connect 8 0 6 1;
#X connect 9 0 6 1;
#X connect 10 0 0 0;
#X connect 10 1 1 0;
#X connect 10 2 3 0;
#X connect 11 0 15 0;
#X connect 12 0 0 1;
#X connect 13 0 1 1;
#X connect 15 0 10 0;
#X connect 16 0 15 1;
#X restore 122 374 pd nudge-parameters;
#N canvas 0 22 484 497 nudge-attenuators 0;
#X obj 124 234 random;
#X obj 232 335 f;
#X obj 232 368 +;
#X obj 257 166 random 2;
#X obj 124 275 t f f;
#X obj 124 351 t b f;
#X obj 124 297 *;
#X obj 257 188 sel 0 1;
#X msg 257 280 -1;
#X msg 335 280 1;
#X obj 124 149 t b b b;
#X obj 124 71 r NUDGE!;
#X obj 157 193 r NUDGE-RANGE;
#X obj 247 308 inlet;
#X obj 232 397 outlet;
#X obj 124 93 spigot;
#X obj 201 76 r attenuators2-s;
#X connect 0 0 4 0;
#X connect 1 0 2 0;
#X connect 2 0 14 0;
#X connect 3 0 7 0;
#X connect 4 0 6 0;
#X connect 5 0 2 0;
#X connect 5 1 2 1;
#X connect 6 0 5 0;
#X connect 7 0 8 0;
#X connect 7 1 9 0;
#X connect 8 0 6 1;
#X connect 9 0 6 1;
#X connect 10 0 0 0;
#X connect 10 1 1 0;
#X connect 10 2 3 0;
#X connect 11 0 15 0;
#X connect 12 0 0 1;
#X connect 13 0 1 1;
#X connect 15 0 10 0;
#X connect 16 0 15 1;
#X restore 257 379 pd nudge-attenuators;
#X obj 258 404 clip 0 127;
#X obj 23 351 r \$0-op3-s;
#X obj 23 431 s \$0-op3-r;
#X obj 122 351 r \$0-decay3-s;
#X obj 122 428 s \$0-decay3-r;
#X obj 257 353 r \$0-index3-s;
#X obj 258 430 s \$0-index3-r;
#X obj 27 503 clip 0 127;
#N canvas 0 22 484 497 nudge-parameters 0;
#X obj 124 234 random;
#X obj 232 335 f;
#X obj 232 368 +;
#X obj 257 166 random 2;
#X obj 124 275 t f f;
#X obj 124 351 t b f;
#X obj 124 297 *;
#X obj 257 188 sel 0 1;
#X msg 257 280 -1;
#X msg 335 280 1;
#X obj 124 149 t b b b;
#X obj 124 74 r NUDGE!;
#X obj 157 193 r NUDGE-RANGE;
#X obj 247 308 inlet;
#X obj 232 397 outlet;
#X obj 124 96 spigot;
#X obj 185 79 r parameters2-s;
#X connect 0 0 4 0;
#X connect 1 0 2 0;
#X connect 2 0 14 0;
#X connect 3 0 7 0;
#X connect 4 0 6 0;
#X connect 5 0 2 0;
#X connect 5 1 2 1;
#X connect 6 0 5 0;
#X connect 7 0 8 0;
#X connect 7 1 9 0;
#X connect 8 0 6 1;
#X connect 9 0 6 1;
#X connect 10 0 0 0;
#X connect 10 1 1 0;
#X connect 10 2 3 0;
#X connect 11 0 15 0;
#X connect 12 0 0 1;
#X connect 13 0 1 1;
#X connect 15 0 10 0;
#X connect 16 0 15 1;
#X restore 27 481 pd nudge-parameters;
#X obj 158 504 clip 0 127;
#N canvas 0 22 484 497 nudge-parameters 0;
#X obj 124 234 random;
#X obj 232 335 f;
#X obj 232 368 +;
#X obj 257 166 random 2;
#X obj 124 275 t f f;
#X obj 124 351 t b f;
#X obj 124 297 *;
#X obj 257 188 sel 0 1;
#X msg 257 280 -1;
#X msg 335 280 1;
#X obj 124 149 t b b b;
#X obj 124 74 r NUDGE!;
#X obj 157 193 r NUDGE-RANGE;
#X obj 247 308 inlet;
#X obj 232 397 outlet;
#X obj 124 96 spigot;
#X obj 185 79 r parameters2-s;
#X connect 0 0 4 0;
#X connect 1 0 2 0;
#X connect 2 0 14 0;
#X connect 3 0 7 0;
#X connect 4 0 6 0;
#X connect 5 0 2 0;
#X connect 5 1 2 1;
#X connect 6 0 5 0;
#X connect 7 0 8 0;
#X connect 7 1 9 0;
#X connect 8 0 6 1;
#X connect 9 0 6 1;
#X connect 10 0 0 0;
#X connect 10 1 1 0;
#X connect 10 2 3 0;
#X connect 11 0 15 0;
#X connect 12 0 0 1;
#X connect 13 0 1 1;
#X connect 15 0 10 0;
#X connect 16 0 15 1;
#X restore 158 482 pd nudge-parameters;
#X obj 294 504 clip 0 127;
#N canvas 0 22 484 497 nudge-parameters 0;
#X obj 124 234 random;
#X obj 232 335 f;
#X obj 232 368 +;
#X obj 257 166 random 2;
#X obj 124 275 t f f;
#X obj 124 351 t b f;
#X obj 124 297 *;
#X obj 257 188 sel 0 1;
#X msg 257 280 -1;
#X msg 335 280 1;
#X obj 124 149 t b b b;
#X obj 124 74 r NUDGE!;
#X obj 157 193 r NUDGE-RANGE;
#X obj 247 308 inlet;
#X obj 232 397 outlet;
#X obj 124 96 spigot;
#X obj 185 79 r parameters2-s;
#X connect 0 0 4 0;
#X connect 1 0 2 0;
#X connect 2 0 14 0;
#X connect 3 0 7 0;
#X connect 4 0 6 0;
#X connect 5 0 2 0;
#X connect 5 1 2 1;
#X connect 6 0 5 0;
#X connect 7 0 8 0;
#X connect 7 1 9 0;
#X connect 8 0 6 1;
#X connect 9 0 6 1;
#X connect 10 0 0 0;
#X connect 10 1 1 0;
#X connect 10 2 3 0;
#X connect 11 0 15 0;
#X connect 12 0 0 1;
#X connect 13 0 1 1;
#X connect 15 0 10 0;
#X connect 16 0 15 1;
#X restore 294 482 pd nudge-parameters;
#X obj 27 458 r \$0-flam-s;
#X obj 27 535 s \$0-flam-r;
#X obj 158 459 r \$0-flam-prob-s;
#X obj 158 536 s \$0-flam-prob-r;
#X obj 294 459 r \$0-acc-prob-s;
#X obj 294 536 s \$0-acc-prob-r;
#X connect 0 0 7 0;
#X connect 1 0 9 0;
#X connect 2 0 0 0;
#X connect 3 0 1 0;
#X connect 4 0 5 0;
#X connect 5 0 15 0;
#X connect 6 0 2 0;
#X connect 8 0 3 0;
#X connect 10 0 13 0;
#X connect 11 0 10 0;
#X connect 12 0 11 0;
#X connect 14 0 4 0;
#X connect 16 0 17 0;
#X connect 17 0 19 0;
#X connect 18 0 16 0;
#X connect 20 0 25 0;
#X connect 21 0 27 0;
#X connect 22 0 20 0;
#X connect 23 0 21 0;
#X connect 24 0 22 0;
#X connect 26 0 23 0;
#X connect 28 0 29 0;
#X connect 29 0 31 0;
#X connect 30 0 28 0;
#X connect 32 0 39 0;
#X connect 33 0 41 0;
#X connect 34 0 32 0;
#X connect 35 0 33 0;
#X connect 36 0 37 0;
#X connect 37 0 43 0;
#X connect 38 0 34 0;
#X connect 40 0 35 0;
#X connect 42 0 36 0;
#X connect 44 0 51 0;
#X connect 45 0 44 0;
#X connect 46 0 53 0;
#X connect 47 0 46 0;
#X connect 48 0 55 0;
#X connect 49 0 48 0;
#X connect 50 0 45 0;
#X connect 52 0 47 0;
#X connect 54 0 49 0;
#X restore 99 407 pd parameter-nudging-system;
#N canvas 302 65 1008 752 savetest 0;
#X obj 821 219 pack f f;
#X obj 836 140 loadbang;
#X obj 836 162 f \$1;
#X obj 821 191 f;
#X obj 823 460 textfile;
#X msg 1006 443 rewind;
#X obj 696 85 loadbang;
#X obj 550 181 delay 10;
#X text 590 59 WRITE;
#X obj 550 61 inlet;
#X obj 550 215 f;
#X obj 550 254 pack f f;
#X obj 696 133 t f f;
#X obj 696 111 f \$1;
#X msg 338 104 bang;
#X obj 622 618 textfile;
#X msg 628 243 clear;
#X obj 550 125 t b f b b;
#X obj 839 28 inlet;
#X text 884 26 LOAD;
#X msg 930 422 bang;
#X obj 943 382 t b b;
#X obj 839 50 t b f;
#X obj 821 97 t b b;
#X obj 119 351 f;
#N canvas 0 22 1084 659 unpack-values 0;
#X obj 182 32 inlet;
#X obj 182 59 unpack f f f f f f f f f f f f f f f f;
#X obj 181 462 s \$0-op1-r;
#X obj 196 436 s \$0-decay1-r;
#X obj 211 409 s \$0-decay4-r;
#X obj 227 385 s \$0-envmod-r;
#X obj 242 355 s \$0-feedback-r;
#X obj 257 328 s \$0-op2-r;
#X obj 272 304 s \$0-decay2-r;
#X obj 287 279 s \$0-index2-r;
#X obj 302 259 s \$0-op3-r;
#X obj 317 234 s \$0-decay3-r;
#X obj 332 210 s \$0-index3-r;
#X obj 347 184 s \$0-flam-r;
#X obj 362 163 s \$0-flam-prob-r;
#X obj 377 140 s \$0-acc-prob-r;
#X obj 392 119 s \$0-t1-r;
#X obj 407 90 s \$0-t2-r;
#X connect 0 0 1 0;
#X connect 1 0 2 0;
#X connect 1 1 3 0;
#X connect 1 2 4 0;
#X connect 1 3 5 0;
#X connect 1 4 6 0;
#X connect 1 5 7 0;
#X connect 1 6 8 0;
#X connect 1 7 9 0;
#X connect 1 8 10 0;
#X connect 1 9 11 0;
#X connect 1 10 12 0;
#X connect 1 11 13 0;
#X connect 1 12 14 0;
#X connect 1 13 15 0;
#X connect 1 14 16 0;
#X connect 1 15 17 0;
#X restore 823 486 pd unpack-values;
#X obj 942 92 f;
#X obj 942 31 r SAVE-S;
#X obj 957 63 r \$0-load-s;
#X obj 942 114 s \$0-write-r;
#X msg 153 529 set \$1 \$2 \$3 \$4 \$5 \$6 \$7 \$8 \$9 \$10 \$11 \$12
\$13 \$14 \$15 \$16;
#X obj 154 488 pack f f f f f f f f f f f f f f f f;
#X msg 550 336 write statesave/\$1-percussionpreset-\$2-ss.txt;
#X msg 822 304 read statesave/\$1-percussionpreset-\$2-ss.txt;
#X obj 131 29 r \$0-op1-s;
#X obj 144 51 r \$0-decay1-s;
#X obj 160 71 r \$0-decay4-s;
#X obj 176 91 r \$0-envmod-s;
#X obj 194 110 r \$0-feedback-s;
#X obj 210 130 r \$0-op2-s;
#X obj 226 150 r \$0-decay2-s;
#X obj 247 173 r \$0-index2-s;
#X obj 267 202 r \$0-op3-s;
#X obj 283 222 r \$0-decay3-s;
#X obj 299 242 r \$0-index3-s;
#X obj 323 267 r \$0-flam-s;
#X obj 344 290 r \$0-flam-prob-s;
#X obj 364 319 r \$0-acc-prob-s;
#X obj 380 339 r \$0-t1-s;
#X obj 396 359 r \$0-t2-s;
#X connect 0 0 33 0;
#X connect 1 0 2 0;
#X connect 2 0 3 1;
#X connect 3 0 0 0;
#X connect 4 0 25 0;
#X connect 5 0 4 0;
#X connect 6 0 13 0;
#X connect 7 0 10 0;
#X connect 9 0 17 0;
#X connect 10 0 11 0;
#X connect 11 0 32 0;
#X connect 12 0 10 1;
#X connect 13 0 12 0;
#X connect 14 0 24 0;
#X connect 16 0 15 0;
#X connect 17 0 7 0;
#X connect 17 1 11 1;
#X connect 17 2 14 0;
#X connect 17 3 16 0;
#X connect 18 0 22 0;
#X connect 20 0 4 0;
#X connect 21 0 20 0;
#X connect 21 1 5 0;
#X connect 22 0 23 0;
#X connect 22 1 0 1;
#X connect 23 0 21 0;
#X connect 23 1 3 0;
#X connect 24 0 31 0;
#X connect 26 0 29 0;
#X connect 27 0 26 0;
#X connect 28 0 26 1;
#X connect 30 0 15 0;
#X connect 31 0 30 0;
#X connect 32 0 15 0;
#X connect 33 0 4 0;
#X connect 34 0 24 1;
#X connect 35 0 31 1;
#X connect 36 0 31 2;
#X connect 37 0 31 3;
#X connect 38 0 31 4;
#X connect 39 0 31 5;
#X connect 40 0 31 6;
#X connect 41 0 31 7;
#X connect 42 0 31 8;
#X connect 43 0 31 9;
#X connect 44 0 31 10;
#X connect 45 0 31 11;
#X connect 46 0 31 12;
#X connect 47 0 31 13;
#X connect 48 0 31 14;
#X connect 49 0 31 15;
#X restore 99 597 pd savetest;
#X obj 99 551 r \$0-write-s;
#X obj 162 574 r \$0-load-s;
#X obj 1118 55 inlet~ LOAD;
#X obj 945 19 inlet~ INDEX;
#X obj 945 41 s~ \$0-INDEX-CV;
#N canvas 307 23 1280 809 external-messages 0;
#X floatatom -71 513 5 0 0 0 - - -, f 5;
#X obj 43 328 spigot;
#X obj 76 288 tgl 15 0 empty empty empty 17 7 0 10 -262144 -1 -1 0
1;
#X obj 112 272 ==;
#X obj 127 248 f \$1;
#X obj 127 224 loadbang;
#X msg 43 202 \$1 \$2;
#X msg 43 156 symbol \$1;
#X obj 43 180 pack s f;
#X obj -71 492 f;
#X obj -71 440 t b f;
#X obj -71 463 spigot;
#X obj 43 62 unpack s f f;
#X symbolatom 43 94 10 0 0 0 - - -, f 10;
#X obj 76 308 t f f;
#X obj 103 332 s \$0-msg-spigot;
#X obj -23 447 r \$0-msg-spigot;
#X floatatom -45 657 5 0 0 0 - - -, f 5;
#X obj -45 636 f;
#X obj -45 584 t b f;
#X obj -45 607 spigot;
#X obj 3 591 r \$0-msg-spigot;
#X floatatom 106 549 5 0 0 0 - - -, f 5;
#X obj 106 528 f;
#X obj 106 476 t b f;
#X obj 106 499 spigot;
#X obj 154 483 r \$0-msg-spigot;
#X floatatom 145 687 5 0 0 0 - - -, f 5;
#X obj 145 666 f;
#X obj 145 614 t b f;
#X obj 145 637 spigot;
#X obj 193 621 r \$0-msg-spigot;
#X floatatom 270 523 5 0 0 0 - - -, f 5;
#X obj 270 502 f;
#X obj 270 450 t b f;
#X obj 270 473 spigot;
#X obj 318 457 r \$0-msg-spigot;
#X floatatom 315 690 5 0 0 0 - - -, f 5;
#X obj 315 669 f;
#X obj 315 617 t b f;
#X obj 315 640 spigot;
#X obj 363 624 r \$0-msg-spigot;
#X floatatom 442 535 5 0 0 0 - - -, f 5;
#X obj 442 514 f;
#X obj 442 462 t b f;
#X obj 442 485 spigot;
#X obj 490 469 r \$0-msg-spigot;
#X floatatom 479 685 5 0 0 0 - - -, f 5;
#X obj 479 664 f;
#X obj 479 612 t b f;
#X obj 479 635 spigot;
#X obj 527 619 r \$0-msg-spigot;
#X floatatom 622 527 5 0 0 0 - - -, f 5;
#X obj 622 506 f;
#X obj 622 454 t b f;
#X obj 622 477 spigot;
#X obj 670 461 r \$0-msg-spigot;
#X floatatom 654 680 5 0 0 0 - - -, f 5;
#X obj 654 659 f;
#X obj 654 607 t b f;
#X obj 654 630 spigot;
#X obj 702 614 r \$0-msg-spigot;
#X floatatom 784 516 5 0 0 0 - - -, f 5;
#X obj 784 495 f;
#X obj 784 443 t b f;
#X obj 784 466 spigot;
#X obj 832 450 r \$0-msg-spigot;
#X floatatom 816 707 5 0 0 0 - - -, f 5;
#X obj 816 686 f;
#X obj 816 634 t b f;
#X obj 816 657 spigot;
#X obj 864 641 r \$0-msg-spigot;
#X obj 43 14 r percussion;
#X obj 223 62 route OP1(CARRIER) DECAY1 P-DECAY ENVMOD FEEDBACK OP2(MOD)
DECAY2 INDEX OP3(MOD) DECAY3 INDEX3 FLAM FLAM-PROB ACC-PROB;
#X floatatom 824 386 5 0 0 0 - - -, f 5;
#X obj 824 365 f;
#X obj 824 313 t b f;
#X obj 824 336 spigot;
#X obj 872 320 r \$0-msg-spigot;
#X floatatom 967 569 5 0 0 0 - - -, f 5;
#X obj 967 548 f;
#X obj 967 496 t b f;
#X obj 967 519 spigot;
#X obj 1015 503 r \$0-msg-spigot;
#X obj -71 533 s \$0-op1-r;
#X obj -45 677 s \$0-decay1-r;
#X obj 106 569 s \$0-decay4-r;
#X obj 145 707 s \$0-envmod-r;
#X obj 270 543 s \$0-feedback-r;
#X obj 315 710 s \$0-op2-r;
#X obj 442 555 s \$0-decay2-r;
#X obj 479 705 s \$0-index2-r;
#X obj 622 547 s \$0-op3-r;
#X obj 654 700 s \$0-decay3-r;
#X obj 784 536 s \$0-index3-r;
#X obj 816 727 s \$0-flam-r;
#X obj 824 406 s \$0-flam-prob-r;
#X obj 967 589 s \$0-acc-prob-r;
#X connect 0 0 84 0;
#X connect 1 0 73 0;
#X connect 2 0 14 0;
#X connect 3 0 2 0;
#X connect 4 0 3 1;
#X connect 5 0 4 0;
#X connect 6 0 1 0;
#X connect 7 0 8 0;
#X connect 8 0 6 0;
#X connect 9 0 0 0;
#X connect 10 0 11 0;
#X connect 10 1 9 1;
#X connect 11 0 9 0;
#X connect 12 0 13 0;
#X connect 12 1 8 1;
#X connect 12 2 3 0;
#X connect 13 0 7 0;
#X connect 14 0 1 1;
#X connect 14 1 15 0;
#X connect 16 0 11 1;
#X connect 17 0 85 0;
#X connect 18 0 17 0;
#X connect 19 0 20 0;
#X connect 19 1 18 1;
#X connect 20 0 18 0;
#X connect 21 0 20 1;
#X connect 22 0 86 0;
#X connect 23 0 22 0;
#X connect 24 0 25 0;
#X connect 24 1 23 1;
#X connect 25 0 23 0;
#X connect 26 0 25 1;
#X connect 27 0 87 0;
#X connect 28 0 27 0;
#X connect 29 0 30 0;
#X connect 29 1 28 1;
#X connect 30 0 28 0;
#X connect 31 0 30 1;
#X connect 32 0 88 0;
#X connect 33 0 32 0;
#X connect 34 0 35 0;
#X connect 34 1 33 1;
#X connect 35 0 33 0;
#X connect 36 0 35 1;
#X connect 37 0 89 0;
#X connect 38 0 37 0;
#X connect 39 0 40 0;
#X connect 39 1 38 1;
#X connect 40 0 38 0;
#X connect 41 0 40 1;
#X connect 42 0 90 0;
#X connect 43 0 42 0;
#X connect 44 0 45 0;
#X connect 44 1 43 1;
#X connect 45 0 43 0;
#X connect 46 0 45 1;
#X connect 47 0 91 0;
#X connect 48 0 47 0;
#X connect 49 0 50 0;
#X connect 49 1 48 1;
#X connect 50 0 48 0;
#X connect 51 0 50 1;
#X connect 52 0 92 0;
#X connect 53 0 52 0;
#X connect 54 0 55 0;
#X connect 54 1 53 1;
#X connect 55 0 53 0;
#X connect 56 0 55 1;
#X connect 57 0 93 0;
#X connect 58 0 57 0;
#X connect 59 0 60 0;
#X connect 59 1 58 1;
#X connect 60 0 58 0;
#X connect 61 0 60 1;
#X connect 62 0 94 0;
#X connect 63 0 62 0;
#X connect 64 0 65 0;
#X connect 64 1 63 1;
#X connect 65 0 63 0;
#X connect 66 0 65 1;
#X connect 67 0 95 0;
#X connect 68 0 67 0;
#X connect 69 0 70 0;
#X connect 69 1 68 1;
#X connect 70 0 68 0;
#X connect 71 0 70 1;
#X connect 72 0 12 0;
#X connect 73 0 10 0;
#X connect 73 1 19 0;
#X connect 73 2 24 0;
#X connect 73 3 29 0;
#X connect 73 4 34 0;
#X connect 73 5 39 0;
#X connect 73 6 44 0;
#X connect 73 7 49 0;
#X connect 73 8 54 0;
#X connect 73 9 59 0;
#X connect 73 10 64 0;
#X connect 73 11 69 0;
#X connect 73 12 76 0;
#X connect 73 13 81 0;
#X connect 74 0 96 0;
#X connect 75 0 74 0;
#X connect 76 0 77 0;
#X connect 76 1 75 1;
#X connect 77 0 75 0;
#X connect 78 0 77 1;
#X connect 79 0 97 0;
#X connect 80 0 79 0;
#X connect 81 0 82 0;
#X connect 81 1 80 1;
#X connect 82 0 80 0;
#X connect 83 0 82 1;
#X restore 102 627 pd external-messages;
#X connect 1 0 2 0;
#X connect 2 0 3 0;
#X connect 3 0 0 0;
#X connect 3 1 4 0;
#X connect 5 0 13 0;
#X connect 6 0 7 0;
#X connect 7 0 8 0;
#X connect 7 0 9 0;
#X connect 8 0 7 1;
#X connect 9 0 10 0;
#X connect 10 0 11 0;
#X connect 12 0 7 0;
#X connect 13 0 14 0;
#X connect 14 0 15 0;
#X connect 17 0 18 0;
#X connect 18 0 19 0;
#X connect 19 0 20 0;
#X connect 20 0 21 0;
#X connect 21 0 22 0;
#X connect 21 0 50 0;
#X connect 21 0 51 0;
#X connect 22 0 23 0;
#X connect 23 0 24 0;
#X connect 24 0 26 0;
#X connect 26 0 113 0;
#X connect 26 0 138 0;
#X connect 27 0 26 1;
#X connect 29 0 30 0;
#X connect 30 0 31 0;
#X connect 31 0 32 0;
#X connect 32 0 33 0;
#X connect 33 0 47 0;
#X connect 34 0 33 1;
#X connect 37 0 79 0;
#X connect 40 0 41 0;
#X connect 41 0 42 0;
#X connect 42 0 43 0;
#X connect 43 0 44 0;
#X connect 44 0 48 0;
#X connect 45 0 44 1;
#X connect 45 0 97 0;
#X connect 49 0 103 0;
#X connect 50 0 29 0;
#X connect 51 0 40 0;
#X connect 52 0 53 0;
#X connect 53 0 54 0;
#X connect 54 0 55 0;
#X connect 55 0 56 0;
#X connect 56 0 57 0;
#X connect 57 0 68 0;
#X connect 58 0 59 0;
#X connect 59 0 60 0;
#X connect 60 0 61 0;
#X connect 61 0 62 0;
#X connect 62 0 63 0;
#X connect 63 0 69 0;
#X connect 64 0 89 0;
#X connect 68 0 50 1;
#X connect 69 0 51 1;
#X connect 70 0 71 0;
#X connect 71 0 72 0;
#X connect 72 0 73 0;
#X connect 73 0 68 1;
#X connect 74 0 75 0;
#X connect 75 0 76 0;
#X connect 76 0 69 1;
#X connect 77 0 74 0;
#X connect 78 0 80 0;
#X connect 79 0 52 0;
#X connect 79 1 78 0;
#X connect 80 0 81 0;
#X connect 81 0 82 0;
#X connect 82 0 29 1;
#X connect 83 0 80 1;
#X connect 84 0 85 0;
#X connect 85 0 86 0;
#X connect 86 0 87 0;
#X connect 87 0 40 1;
#X connect 88 0 85 1;
#X connect 89 0 58 0;
#X connect 89 1 84 0;
#X connect 90 0 96 0;
#X connect 91 0 92 0;
#X connect 92 0 93 0;
#X connect 93 0 94 0;
#X connect 94 0 90 1;
#X connect 96 0 21 1;
#X connect 97 0 101 0;
#X connect 98 0 99 0;
#X connect 99 0 100 0;
#X connect 100 0 97 1;
#X connect 101 0 40 1;
#X connect 102 0 98 0;
#X connect 103 0 23 1;
#X connect 109 0 90 0;
#X connect 110 0 111 0;
#X connect 111 0 21 1;
#X connect 112 0 110 0;
#X connect 114 0 115 0;
#X connect 115 0 47 0;
#X connect 116 0 117 0;
#X connect 117 0 118 0;
#X connect 118 0 119 0;
#X connect 119 0 115 1;
#X connect 127 0 128 0;
#X connect 128 0 129 0;
#X connect 129 0 131 0;
#X connect 129 1 130 0;
#X connect 131 0 132 0;
#X connect 131 1 136 0;
#X connect 133 0 127 0;
#X connect 134 0 129 1;
#X connect 137 0 26 1;
#X connect 138 0 105 0;
#X connect 147 0 149 0;
#X connect 149 0 150 0;
#X connect 150 0 148 0;
#X connect 154 0 153 0;
#X connect 155 0 153 1;
#X connect 156 0 6 0;
#X connect 157 0 158 0;
#X coords 0 -1 1 1 250 300 2 100 100;
