#N canvas 0 23 1168 643 10;
#X obj 318 67 inlet~;
#X obj 320 338 +~;
#X obj 346 154 rzero_rev~;
#X obj 346 176 rpole~;
#X obj 346 198 rzero_rev~;
#X obj 346 220 rpole~;
#X obj 346 245 rzero_rev~;
#X obj 346 267 rpole~;
#X obj 346 289 rzero_rev~;
#X obj 346 311 rpole~;
#X obj 453 69 phasor~ 0.3;
#X obj 453 91 expr~ abs ($v1-0.5);
#X obj 453 113 expr~ 0.97 - 0.6*$v1*$v1;
#X obj 320 508 outlet~;
#X obj 106 128 hsl 128 15 0 127 0 1 \$0-phasor-phasor-s \$0-phasor-phasor-r
PHASOR 133 7 0 10 -262144 -1 -1 3800 1;
#X obj 123 490 mtof~;
#X obj 641 392 inlet~;
#X obj 123 458 +~;
#X obj 641 414 *~ 127;
#X obj 122 224 t f f;
#X obj 122 246 sig~;
#X obj 122 268 lop~ 10;
#X obj 320 360 *~ 0.5;
#X obj 318 89 hip~ 10;
#X obj 320 382 hip~ 5;
#X obj 320 404 max~ -1;
#X obj 320 426 min~ 1;
#X obj 122 203 - 96;
#X text 635 373 PHASOR CV IN;
#X obj 244 108 cnv 5 5 5 empty empty PHASOR 0 0 0 8 -262144 -120682
0;
#X obj 103 108 cnv 5 5 5 empty empty IN 0 0 0 8 -262144 -66577 0;
#X obj 103 167 cnv 5 5 5 empty empty LEFT 0 0 0 8 -262144 -66577 0
;
#X obj 532 494 *~ -1;
#X obj 532 516 outlet~;
#X obj 532 333 +~;
#X obj 558 149 rzero_rev~;
#X obj 558 171 rpole~;
#X obj 558 193 rzero_rev~;
#X obj 558 215 rpole~;
#X obj 558 240 rzero_rev~;
#X obj 558 262 rpole~;
#X obj 558 284 rzero_rev~;
#X obj 558 306 rpole~;
#X obj 665 64 phasor~ 0.3;
#X obj 665 86 expr~ abs ($v1-0.5);
#X obj 665 108 expr~ 0.97 - 0.6*$v1*$v1;
#X obj 532 357 *~ 0.5;
#X obj 532 379 hip~ 5;
#X obj 532 401 max~ -1;
#X obj 532 423 min~ 1;
#X obj 665 35 +~ 0.1;
#X obj 249 167 cnv 5 5 5 empty empty RIGHT 0 0 0 8 -262144 -66577 0
;
#X obj 106 143 hsl 128 15 0 127 0 1 \$0-phasor-cv-att-s \$0-phasor-cv-att-r
CV 133 7 0 10 -158136 -262144 -1 12700 1;
#X obj 215 259 / 127;
#X obj 641 448 *~;
#X obj 215 281 pack 0 50;
#X obj 215 303 line~;
#X obj 104 119 cnv 5 5 5 empty empty STEREO-PHASOR 0 0 0 12 -262144
-66577 0;
#N canvas 21 22 593 735 state-saving-multiple-instances 0;
#X obj 215 28 loadbang;
#X obj 261 480 textfile;
#X msg 518 463 rewind;
#X msg 475 463 bang;
#X obj 119 690 textfile;
#X obj 475 424 t b b;
#X obj 120 356 f;
#X obj 133 579 f;
#X obj 66 422 t b b b;
#X msg 196 579 clear;
#X obj 281 216 outlet;
#X text 277 236 INSTANCE NUMBER;
#X obj 242 92 f \$1;
#X obj 242 128 t f f f;
#X obj 215 61 t b b;
#X obj 66 331 bng 15 250 50 0 empty empty empty 17 7 0 10 -262144 -1
-1;
#X obj 66 235 r SAVE-S;
#X obj 120 399 pack f f;
#X msg 120 438 set \$1 \$2;
#X obj 261 502 unpack f f;
#X msg 132 650 write statesave/\$1-phasor-ss.txt;
#X msg 261 455 read statesave/\$1-phasor-ss.txt;
#X obj 135 308 r \$0-phasor-phasor-s;
#X obj 261 604 s \$0-phasor-phasor-r;
#X obj 165 355 r \$0-phasor-cv-att-s;
#X obj 318 530 s \$0-phasor-cv-att-r;
#X connect 0 0 14 0;
#X connect 1 0 19 0;
#X connect 2 0 1 0;
#X connect 3 0 1 0;
#X connect 5 0 3 0;
#X connect 5 1 2 0;
#X connect 6 0 17 0;
#X connect 7 0 20 0;
#X connect 8 0 7 0;
#X connect 8 1 6 0;
#X connect 8 2 9 0;
#X connect 9 0 4 0;
#X connect 12 0 13 0;
#X connect 13 0 7 1;
#X connect 13 1 21 0;
#X connect 13 2 10 0;
#X connect 14 0 5 0;
#X connect 14 1 12 0;
#X connect 15 0 8 0;
#X connect 16 0 15 0;
#X connect 17 0 18 0;
#X connect 18 0 4 0;
#X connect 19 0 23 0;
#X connect 19 1 25 0;
#X connect 20 0 4 0;
#X connect 21 0 1 0;
#X connect 22 0 6 1;
#X connect 24 0 17 1;
#X restore 766 207 pd state-saving-multiple-instances;
#X obj 766 282 s \$0-instance-num;
#X obj 766 234 makefilename %d;
#X obj 198 119 cnv 5 5 5 empty \$0-instance-num 1 0 0 0 12 -262144
-66577 0;
#X msg 766 259 label \$1;
#N canvas 81 22 1117 745 state-saving-via-preset-manager-module 0;
#X obj 477 349 textfile;
#X msg 734 332 rewind;
#X msg 691 332 bang;
#X obj 243 690 textfile;
#X obj 691 293 t b b;
#X obj 244 356 f;
#X obj 257 579 f;
#X obj 190 422 t b b b;
#X msg 320 579 clear;
#X obj 244 399 pack f f;
#X msg 244 438 set \$1 \$2;
#X obj 477 371 unpack f f;
#X floatatom 325 391 5 0 0 0 - - -, f 5;
#X obj 244 264 delay 5;
#X obj 190 484 delay 10;
#X msg 190 314 bang;
#X obj 190 147 r STORE-S!;
#X obj 477 250 f;
#X obj 450 227 t b b;
#X obj 465 171 t b f;
#X obj 522 268 f \$1;
#X obj 477 295 pack f f;
#X obj 522 218 loadbang;
#X obj 257 609 pack f f;
#X obj 302 467 loadbang;
#X obj 302 489 f \$1;
#X obj 465 148 r preset-manager-scan;
#X obj 279 148 r preset-manager-store-slot;
#X msg 256 651 write statesave/\$1-\$2-phasor-ss.txt;
#X msg 477 324 read statesave/\$1-\$2-phasor-ss.txt;
#X obj 259 308 r \$0-phasor-phasor-s;
#X obj 477 473 s \$0-phasor-phasor-r;
#X obj 289 355 r \$0-phasor-cv-att-s;
#X obj 534 423 s \$0-phasor-cv-att-r;
#N canvas 0 22 1069 747 morph-parameters 0;
#X obj 176 94 inlet;
#X obj 176 236 pack f f;
#X obj 176 261 line;
#X obj 209 117 r preset-manager-morph-s;
#X msg 72 244 stop;
#X obj 72 214 r STOP-MORPH!;
#X obj 209 206 spigot;
#X obj 398 137 t f f;
#X obj 455 154 == 0;
#X obj 221 176 f;
#X floatatom 455 222 5 0 0 0 - - -, f 5;
#X obj 398 159 t b f;
#X floatatom 425 192 5 0 0 0 - - -, f 5;
#X obj 209 139 t f f;
#X obj 398 102 r parameters-s;
#X obj 176 288 outlet;
#X connect 0 0 1 0;
#X connect 1 0 2 0;
#X connect 2 0 15 0;
#X connect 3 0 13 0;
#X connect 4 0 2 0;
#X connect 5 0 4 0;
#X connect 6 0 1 1;
#X connect 7 0 11 0;
#X connect 7 1 8 0;
#X connect 8 0 10 0;
#X connect 9 0 6 0;
#X connect 10 0 1 1;
#X connect 11 0 9 0;
#X connect 11 1 12 0;
#X connect 12 0 6 1;
#X connect 13 0 6 0;
#X connect 13 1 9 1;
#X connect 14 0 7 0;
#X restore 477 447 pd morph-parameters;
#N canvas 0 22 1069 747 morph-attenuators 0;
#X obj 176 94 inlet;
#X obj 176 236 pack f f;
#X obj 176 261 line;
#X obj 209 117 r preset-manager-morph-s;
#X msg 72 244 stop;
#X obj 72 214 r STOP-MORPH!;
#X obj 209 206 spigot;
#X obj 398 137 t f f;
#X obj 455 154 == 0;
#X obj 221 176 f;
#X floatatom 455 222 5 0 0 0 - - -, f 5;
#X obj 398 159 t b f;
#X floatatom 425 192 5 0 0 0 - - -, f 5;
#X obj 209 139 t f f;
#X obj 398 102 r attenuators-s;
#X obj 176 288 outlet;
#X connect 0 0 1 0;
#X connect 1 0 2 0;
#X connect 2 0 15 0;
#X connect 3 0 13 0;
#X connect 4 0 2 0;
#X connect 5 0 4 0;
#X connect 6 0 1 1;
#X connect 7 0 11 0;
#X connect 7 1 8 0;
#X connect 8 0 10 0;
#X connect 9 0 6 0;
#X connect 10 0 1 1;
#X connect 11 0 9 0;
#X connect 11 1 12 0;
#X connect 12 0 6 1;
#X connect 13 0 6 0;
#X connect 13 1 9 1;
#X connect 14 0 7 0;
#X restore 534 399 pd morph-attenuators;
#X connect 0 0 11 0;
#X connect 1 0 0 0;
#X connect 2 0 0 0;
#X connect 4 0 2 0;
#X connect 4 1 1 0;
#X connect 5 0 9 0;
#X connect 6 0 23 0;
#X connect 7 0 14 0;
#X connect 7 1 13 0;
#X connect 7 2 8 0;
#X connect 8 0 3 0;
#X connect 9 0 10 0;
#X connect 10 0 3 0;
#X connect 11 0 34 0;
#X connect 11 1 35 0;
#X connect 13 0 5 0;
#X connect 14 0 6 0;
#X connect 15 0 7 0;
#X connect 16 0 15 0;
#X connect 17 0 21 0;
#X connect 18 0 4 0;
#X connect 18 1 17 0;
#X connect 19 0 18 0;
#X connect 19 1 17 1;
#X connect 20 0 21 1;
#X connect 21 0 29 0;
#X connect 22 0 20 0;
#X connect 23 0 28 0;
#X connect 24 0 25 0;
#X connect 25 0 23 1;
#X connect 26 0 19 0;
#X connect 27 0 6 1;
#X connect 28 0 3 0;
#X connect 29 0 0 0;
#X connect 30 0 5 1;
#X connect 32 0 9 1;
#X connect 32 0 12 0;
#X connect 34 0 31 0;
#X connect 35 0 33 0;
#X restore 765 186 pd state-saving-via-preset-manager-module;
#N canvas 297 27 518 295 parameter-nudging-system 0;
#X obj 23 67 clip 0 127;
#X obj 171 67 clip 0 127;
#X obj 23 22 r \$0-phasor-phasor-s;
#X obj 23 95 s \$0-phasor-phasor-r;
#X obj 171 22 r \$0-phasor-cv-att-s;
#X obj 171 95 s \$0-phasor-cv-att-r;
#N canvas 0 22 484 497 nudge-parameters 0;
#X obj 124 234 random;
#X obj 232 335 f;
#X obj 232 368 +;
#X obj 257 166 random 2;
#X obj 124 275 t f f;
#X obj 124 351 t b f;
#X obj 124 297 *;
#X obj 257 188 sel 0 1;
#X msg 257 280 -1;
#X msg 335 280 1;
#X obj 124 149 t b b b;
#X obj 124 74 r NUDGE!;
#X obj 157 193 r NUDGE-RANGE;
#X obj 247 308 inlet;
#X obj 232 397 outlet;
#X obj 124 96 spigot;
#X obj 185 79 r parameters2-s;
#X connect 0 0 4 0;
#X connect 1 0 2 0;
#X connect 2 0 14 0;
#X connect 3 0 7 0;
#X connect 4 0 6 0;
#X connect 5 0 2 0;
#X connect 5 1 2 1;
#X connect 6 0 5 0;
#X connect 7 0 8 0;
#X connect 7 1 9 0;
#X connect 8 0 6 1;
#X connect 9 0 6 1;
#X connect 10 0 0 0;
#X connect 10 1 1 0;
#X connect 10 2 3 0;
#X connect 11 0 15 0;
#X connect 12 0 0 1;
#X connect 13 0 1 1;
#X connect 15 0 10 0;
#X connect 16 0 15 1;
#X restore 23 45 pd nudge-parameters;
#N canvas 0 23 484 497 nudge-attenuators 0;
#X obj 124 234 random;
#X obj 232 335 f;
#X obj 232 368 +;
#X obj 257 166 random 2;
#X obj 124 275 t f f;
#X obj 124 351 t b f;
#X obj 124 297 *;
#X obj 257 188 sel 0 1;
#X msg 257 280 -1;
#X msg 335 280 1;
#X obj 124 149 t b b b;
#X obj 124 71 r NUDGE!;
#X obj 157 193 r NUDGE-RANGE;
#X obj 247 308 inlet;
#X obj 232 397 outlet;
#X obj 124 93 spigot;
#X obj 201 76 r attenuators2-s;
#X connect 0 0 4 0;
#X connect 1 0 2 0;
#X connect 2 0 14 0;
#X connect 3 0 7 0;
#X connect 4 0 6 0;
#X connect 5 0 2 0;
#X connect 5 1 2 1;
#X connect 6 0 5 0;
#X connect 7 0 8 0;
#X connect 7 1 9 0;
#X connect 8 0 6 1;
#X connect 9 0 6 1;
#X connect 10 0 0 0;
#X connect 10 1 1 0;
#X connect 10 2 3 0;
#X connect 11 0 15 0;
#X connect 12 0 0 1;
#X connect 13 0 1 1;
#X connect 15 0 10 0;
#X connect 16 0 15 1;
#X restore 171 44 pd nudge-attenuators;
#X connect 0 0 3 0;
#X connect 1 0 5 0;
#X connect 2 0 6 0;
#X connect 4 0 7 0;
#X connect 6 0 0 0;
#X connect 7 0 1 0;
#X restore 765 164 pd parameter-nudging-system;
#N canvas 632 73 749 752 external-messages 0;
#X floatatom 186 706 5 0 0 0 - - -, f 5;
#X obj 185 328 spigot;
#X obj 218 288 tgl 15 0 empty empty empty 17 7 0 10 -262144 -1 -1 0
1;
#X obj 254 272 ==;
#X obj 269 248 f \$1;
#X obj 269 224 loadbang;
#X msg 185 202 \$1 \$2;
#X msg 185 156 symbol \$1;
#X obj 185 180 pack s f;
#X obj 186 685 f;
#X obj 186 633 t b f;
#X obj 186 656 spigot;
#X obj 185 62 unpack s f f;
#X symbolatom 185 94 10 0 0 0 - - -, f 10;
#X obj 218 308 t f f;
#X obj 245 332 s \$0-msg-spigot;
#X obj 234 640 r \$0-msg-spigot;
#X floatatom 223 594 5 0 0 0 - - -, f 5;
#X obj 223 573 f;
#X obj 223 521 t b f;
#X obj 223 544 spigot;
#X obj 271 528 r \$0-msg-spigot;
#X obj 185 14 r stereo-phasor;
#X obj 185 380 route PHASOR CV;
#X obj 186 726 s \$0-phasor-phasor-r;
#X obj 223 614 s \$0-phasor-cv-att-r;
#X connect 0 0 24 0;
#X connect 1 0 23 0;
#X connect 2 0 14 0;
#X connect 3 0 2 0;
#X connect 4 0 3 1;
#X connect 5 0 4 0;
#X connect 6 0 1 0;
#X connect 7 0 8 0;
#X connect 8 0 6 0;
#X connect 9 0 0 0;
#X connect 10 0 11 0;
#X connect 10 1 9 1;
#X connect 11 0 9 0;
#X connect 12 0 13 0;
#X connect 12 1 8 1;
#X connect 12 2 3 0;
#X connect 13 0 7 0;
#X connect 14 0 1 1;
#X connect 14 1 15 0;
#X connect 16 0 11 1;
#X connect 17 0 25 0;
#X connect 18 0 17 0;
#X connect 19 0 20 0;
#X connect 19 1 18 1;
#X connect 20 0 18 0;
#X connect 21 0 20 1;
#X connect 22 0 12 0;
#X connect 23 0 10 0;
#X connect 23 1 19 0;
#X restore 766 304 pd external-messages;
#X connect 0 0 23 0;
#X connect 1 0 22 0;
#X connect 2 0 3 0;
#X connect 3 0 4 0;
#X connect 4 0 5 0;
#X connect 5 0 6 0;
#X connect 6 0 7 0;
#X connect 7 0 8 0;
#X connect 8 0 9 0;
#X connect 9 0 1 1;
#X connect 10 0 11 0;
#X connect 11 0 12 0;
#X connect 12 0 2 1;
#X connect 12 0 4 1;
#X connect 12 0 6 1;
#X connect 12 0 8 1;
#X connect 12 0 3 1;
#X connect 12 0 5 1;
#X connect 12 0 7 1;
#X connect 12 0 9 1;
#X connect 14 0 27 0;
#X connect 15 0 10 0;
#X connect 15 0 50 0;
#X connect 16 0 18 0;
#X connect 17 0 15 0;
#X connect 18 0 54 0;
#X connect 19 0 20 0;
#X connect 20 0 21 0;
#X connect 21 0 17 0;
#X connect 22 0 24 0;
#X connect 23 0 2 0;
#X connect 23 0 1 0;
#X connect 23 0 35 0;
#X connect 23 0 34 0;
#X connect 24 0 25 0;
#X connect 25 0 26 0;
#X connect 26 0 13 0;
#X connect 27 0 19 0;
#X connect 32 0 33 0;
#X connect 34 0 46 0;
#X connect 35 0 36 0;
#X connect 36 0 37 0;
#X connect 37 0 38 0;
#X connect 38 0 39 0;
#X connect 39 0 40 0;
#X connect 40 0 41 0;
#X connect 41 0 42 0;
#X connect 42 0 34 1;
#X connect 43 0 44 0;
#X connect 44 0 45 0;
#X connect 45 0 35 1;
#X connect 45 0 37 1;
#X connect 45 0 39 1;
#X connect 45 0 41 1;
#X connect 45 0 36 1;
#X connect 45 0 38 1;
#X connect 45 0 40 1;
#X connect 45 0 42 1;
#X connect 46 0 47 0;
#X connect 47 0 48 0;
#X connect 48 0 49 0;
#X connect 49 0 32 0;
#X connect 50 0 43 0;
#X connect 52 0 53 0;
#X connect 53 0 55 0;
#X connect 54 0 17 1;
#X connect 55 0 56 0;
#X connect 56 0 54 1;
#X connect 58 0 60 0;
#X connect 60 0 62 0;
#X connect 62 0 59 0;
#X coords 0 -1 1 1 175 75 2 100 100;
