#N canvas 0 23 982 752 10;
#X floatatom 424 236 0 0 0 0 - - -;
#X obj 487 507 *~;
#X obj 672 444 line~;
#X text 473 158 PITCH SHIFTER;
#X obj 672 418 pack 0 200;
#X obj 424 292 exp;
#X floatatom 424 318 6 0 0 0 - - -, f 6;
#X obj 424 408 /;
#X obj 551 338 * 0.001;
#X obj 781 514 line~;
#X obj 781 489 pack 0 200;
#X floatatom 781 438 0 0 0 0 - - -;
#X obj 487 533 +~;
#X obj 424 559 cos~;
#X obj 424 586 *~;
#X obj 424 615 +~;
#X obj 511 466 wrap~;
#X obj 718 509 *~;
#X obj 718 542 +~;
#X obj 655 569 cos~;
#X obj 655 596 *~;
#X obj 551 365 t b f;
#X floatatom 424 434 6 0 0 0 - - -, f 6;
#X obj 511 439 +~ 0.5;
#X obj 424 507 -~ 0.5;
#X obj 424 533 *~ 0.5;
#X obj 655 508 -~ 0.5;
#X obj 655 541 *~ 0.5;
#X obj 424 345 - 1;
#X obj 424 266 * 0.05776;
#X obj 424 371 * -1;
#X text 458 235 <-- transposition;
#X text 357 197 (halftones);
#X text 493 309 speed;
#X text 486 326 change;
#X text 686 260 <--window (msec);
#X text 459 401 tape head;
#X obj 424 465 phasor~;
#X obj 781 465 max 1.5;
#X obj 642 288 max 1;
#X text 460 414 rotation freq;
#X obj 68 3 inlet~;
#X obj 424 722 outlet~;
#X obj 324 101 / 127;
#X obj 324 175 * 48;
#X obj 324 197 - 24;
#X floatatom 642 310 5 0 0 0 - - -, f 5;
#X obj 324 219 i;
#X floatatom 324 241 5 0 0 0 - - -, f 5;
#X obj 641 238 loadbang;
#X msg 641 260 100;
#X obj 781 392 loadbang;
#X msg 781 414 0;
#X obj 108 163 hsl 128 15 0 127 0 1 \$0-pitchshifter-dry/wet-s \$0-pitchshifter-dry/wet-r
DRY/WET 135 7 0 10 -262144 -1 -1 12700 1;
#X obj 324 69 r \$0-pitchshifter-pitch-/+-s;
#X obj 324 123 +;
#X obj 68 30 delwrite~ \$0-pitchshifter-INPUT 5000;
#X obj 487 559 vd~ \$0-pitchshifter-INPUT;
#X obj 548 18 inlet~ PITCH-/+-CV;
#X obj 548 92 snapshot~;
#X obj 680 69 env~;
#X obj 680 91 change;
#X obj 680 113 t b;
#X obj 679 165 bng 15 250 50 0 empty empty empty 17 7 0 10 -262144
-1 -1;
#X obj 548 114 t b f;
#X floatatom 738 122 5 0 0 0 - - -, f 5;
#X obj 738 96 == 0;
#X obj 738 141 sel 1;
#X msg 738 163 0;
#X floatatom 206 119 5 0 0 0 - - -, f 5;
#X obj 285 109 cnv 5 5 5 empty empty CV 0 0 0 8 -262144 -120682 0;
#X obj 105 109 cnv 5 5 5 empty empty IN 0 0 0 8 -262144 -66577 0;
#X obj 105 125 cnv 5 5 5 empty empty PITCHSHIFTER 0 0 0 12 -262144
-66577 0;
#X obj 108 148 hsl 128 15 0 127 0 1 \$0-pitchshifter-cv-att-s \$0-pitchshifter-cv-att-r
CV 135 7 0 10 -158136 -1 -1 0 1;
#X obj 775 13 r \$0-pitchshifter-cv-att-s;
#X obj 718 571 vd~ \$0-pitchshifter-INPUT;
#X obj 548 40 *~;
#X obj 775 35 / 127;
#X obj 775 57 pack 0 50;
#X obj 775 79 line~;
#X obj 108 133 hsl 128 15 0 127 0 1 \$0-pitchshifter-pitch-/+-s \$0-pitchshifter-pitch-/+-r
PITCH-/+ 135 7 0 10 -262144 -1 -1 3000 1;
#X obj 87 435 r \$0-pitchshifter-dry/wet-s;
#X obj 424 637 *~;
#X obj 87 457 / 127;
#X obj 87 479 t f f;
#X obj 152 507 pack 0 50;
#X obj 152 529 line~;
#X obj 68 627 *~;
#X msg 87 501 1 \$1;
#X obj 87 523 -;
#X obj 87 545 pack 0 50;
#X obj 87 567 line~;
#X obj 196 125 cnv 5 5 5 empty \$0-instance-num 1 0 0 0 12 -262144
-66577 0;
#N canvas 100 22 593 735 state-saving-multiple-instances 0;
#X obj 164 26 loadbang;
#X obj 210 479 textfile;
#X msg 491 462 rewind;
#X msg 448 462 bang;
#X obj 88 657 textfile;
#X obj 448 421 t b b;
#X obj 88 355 f;
#X obj 101 578 f;
#X obj 27 402 t b b b;
#X msg 163 573 clear;
#X obj 230 235 outlet;
#X text 272 237 INSTANCE NUMBER;
#X obj 88 398 pack f f f;
#X msg 88 436 set \$1 \$2 \$3;
#X obj 210 501 unpack f f f;
#X obj 191 200 t f f f;
#X obj 191 164 f \$1;
#X obj 164 59 t b b;
#X obj 27 378 bng 15 250 50 0 empty empty empty 17 7 0 10 -262144 -1
-1;
#X obj 27 234 r SAVE-S;
#X obj 103 307 r \$0-pitchshifter-pitch-/+-s;
#X obj 210 573 s \$0-pitchshifter-pitch-/+-r;
#X msg 101 605 write statesave/\$1-pitchshifter-ss.txt;
#X msg 210 454 read statesave/\$1-pitchshifter-ss.txt;
#X obj 116 345 r \$0-pitchshifter-cv-att-s;
#X obj 244 547 s \$0-pitchshifter-cv-att-r;
#X obj 145 373 r \$0-pitchshifter-dry/wet-s;
#X obj 279 525 s \$0-pitchshifter-dry/wet-r;
#X connect 0 0 17 0;
#X connect 1 0 14 0;
#X connect 2 0 1 0;
#X connect 3 0 1 0;
#X connect 5 0 3 0;
#X connect 5 1 2 0;
#X connect 6 0 12 0;
#X connect 7 0 22 0;
#X connect 8 0 7 0;
#X connect 8 1 6 0;
#X connect 8 2 9 0;
#X connect 9 0 4 0;
#X connect 12 0 13 0;
#X connect 13 0 4 0;
#X connect 14 0 21 0;
#X connect 14 1 25 0;
#X connect 14 2 27 0;
#X connect 15 0 7 1;
#X connect 15 1 23 0;
#X connect 15 2 10 0;
#X connect 16 0 15 0;
#X connect 17 0 5 0;
#X connect 17 1 16 0;
#X connect 18 0 8 0;
#X connect 19 0 18 0;
#X connect 20 0 6 1;
#X connect 22 0 4 0;
#X connect 23 0 1 0;
#X connect 24 0 12 1;
#X connect 26 0 12 2;
#X restore 93 314 pd state-saving-multiple-instances;
#X obj 93 387 s \$0-instance-num;
#X obj 93 339 makefilename %d;
#X msg 93 364 label \$1;
#N canvas 81 22 1117 745 state-saving-via-preset-manager-module 0;
#X obj 477 349 textfile;
#X msg 773 332 rewind;
#X msg 730 332 bang;
#X obj 243 690 textfile;
#X obj 730 293 t b b;
#X obj 244 356 f;
#X obj 257 579 f;
#X obj 190 474 t b b b;
#X msg 373 621 clear;
#X obj 244 180 delay 5;
#X obj 190 529 delay 10;
#X msg 190 314 bang;
#X obj 190 155 r STORE-S!;
#X obj 477 250 f;
#X obj 450 207 t b b;
#X obj 465 171 t b f;
#X obj 522 268 f \$1;
#X obj 477 295 pack f f;
#X obj 522 218 loadbang;
#X obj 257 609 pack f f;
#X obj 302 562 loadbang;
#X obj 302 584 f \$1;
#X obj 465 122 r preset-manager-scan;
#X obj 272 540 r preset-manager-store-slot;
#X msg 243 490 set \$1 \$2 \$3;
#X obj 244 423 pack f f f;
#X obj 477 371 unpack f f f;
#X obj 465 144 i;
#X msg 256 650 write statesave/\$1-\$2-pitchshifter-ss.txt;
#X msg 477 324 read statesave/\$1-\$2-pitchshifter-ss.txt;
#X obj 259 308 r \$0-pitchshifter-pitch-/+-s;
#X obj 477 713 s \$0-pitchshifter-pitch-/+-r;
#X obj 267 330 r \$0-pitchshifter-cv-att-s;
#X obj 511 613 s \$0-pitchshifter-cv-att-r;
#X obj 290 352 r \$0-pitchshifter-dry/wet-s;
#X obj 546 515 s \$0-pitchshifter-dry/wet-r;
#N canvas 0 22 1069 747 morph-frequencies 0;
#X obj 176 94 inlet;
#X obj 176 236 pack f f;
#X obj 176 261 line;
#X obj 209 117 r preset-manager-morph-s;
#X msg 72 244 stop;
#X obj 72 214 r STOP-MORPH!;
#X obj 398 102 r frequencies-s;
#X obj 209 206 spigot;
#X obj 398 137 t f f;
#X obj 455 154 == 0;
#X obj 221 176 f;
#X floatatom 455 222 5 0 0 0 - - -, f 5;
#X obj 398 159 t b f;
#X floatatom 425 192 5 0 0 0 - - -, f 5;
#X obj 209 139 t f f;
#X obj 176 283 outlet;
#X connect 0 0 1 0;
#X connect 1 0 2 0;
#X connect 2 0 15 0;
#X connect 3 0 14 0;
#X connect 4 0 2 0;
#X connect 5 0 4 0;
#X connect 6 0 8 0;
#X connect 7 0 1 1;
#X connect 8 0 12 0;
#X connect 8 1 9 0;
#X connect 9 0 11 0;
#X connect 10 0 7 0;
#X connect 11 0 1 1;
#X connect 12 0 10 0;
#X connect 12 1 13 0;
#X connect 13 0 7 1;
#X connect 14 0 7 0;
#X connect 14 1 10 1;
#X restore 477 685 pd morph-frequencies;
#N canvas 0 22 1069 747 morph-parameters 0;
#X obj 176 94 inlet;
#X obj 176 236 pack f f;
#X obj 176 261 line;
#X obj 209 117 r preset-manager-morph-s;
#X msg 72 244 stop;
#X obj 72 214 r STOP-MORPH!;
#X obj 209 206 spigot;
#X obj 398 137 t f f;
#X obj 455 154 == 0;
#X obj 221 176 f;
#X floatatom 455 222 5 0 0 0 - - -, f 5;
#X obj 398 159 t b f;
#X floatatom 425 192 5 0 0 0 - - -, f 5;
#X obj 209 139 t f f;
#X obj 398 102 r parameters-s;
#X obj 176 288 outlet;
#X connect 0 0 1 0;
#X connect 1 0 2 0;
#X connect 2 0 15 0;
#X connect 3 0 13 0;
#X connect 4 0 2 0;
#X connect 5 0 4 0;
#X connect 6 0 1 1;
#X connect 7 0 11 0;
#X connect 7 1 8 0;
#X connect 8 0 10 0;
#X connect 9 0 6 0;
#X connect 10 0 1 1;
#X connect 11 0 9 0;
#X connect 11 1 12 0;
#X connect 12 0 6 1;
#X connect 13 0 6 0;
#X connect 13 1 9 1;
#X connect 14 0 7 0;
#X restore 546 491 pd morph-parameters;
#N canvas 0 22 1069 747 morph-attenuators 0;
#X obj 176 94 inlet;
#X obj 176 236 pack f f;
#X obj 176 261 line;
#X obj 209 117 r preset-manager-morph-s;
#X msg 72 244 stop;
#X obj 72 214 r STOP-MORPH!;
#X obj 209 206 spigot;
#X obj 398 137 t f f;
#X obj 455 154 == 0;
#X obj 221 176 f;
#X floatatom 455 222 5 0 0 0 - - -, f 5;
#X obj 398 159 t b f;
#X floatatom 425 192 5 0 0 0 - - -, f 5;
#X obj 209 139 t f f;
#X obj 398 102 r attenuators-s;
#X obj 176 288 outlet;
#X connect 0 0 1 0;
#X connect 1 0 2 0;
#X connect 2 0 15 0;
#X connect 3 0 13 0;
#X connect 4 0 2 0;
#X connect 5 0 4 0;
#X connect 6 0 1 1;
#X connect 7 0 11 0;
#X connect 7 1 8 0;
#X connect 8 0 10 0;
#X connect 9 0 6 0;
#X connect 10 0 1 1;
#X connect 11 0 9 0;
#X connect 11 1 12 0;
#X connect 12 0 6 1;
#X connect 13 0 6 0;
#X connect 13 1 9 1;
#X connect 14 0 7 0;
#X restore 511 587 pd morph-attenuators;
#X connect 0 0 26 0;
#X connect 1 0 0 0;
#X connect 2 0 0 0;
#X connect 4 0 2 0;
#X connect 4 1 1 0;
#X connect 5 0 25 0;
#X connect 6 0 19 0;
#X connect 7 0 10 0;
#X connect 7 1 9 0;
#X connect 7 2 8 0;
#X connect 8 0 3 0;
#X connect 9 0 5 0;
#X connect 10 0 6 0;
#X connect 11 0 7 0;
#X connect 12 0 11 0;
#X connect 13 0 17 0;
#X connect 14 0 4 0;
#X connect 14 1 13 0;
#X connect 15 0 14 0;
#X connect 15 1 13 1;
#X connect 16 0 17 1;
#X connect 17 0 29 0;
#X connect 18 0 16 0;
#X connect 19 0 28 0;
#X connect 20 0 21 0;
#X connect 21 0 19 1;
#X connect 22 0 27 0;
#X connect 23 0 6 1;
#X connect 24 0 3 0;
#X connect 25 0 24 0;
#X connect 26 0 36 0;
#X connect 26 1 38 0;
#X connect 26 2 37 0;
#X connect 27 0 15 0;
#X connect 28 0 3 0;
#X connect 29 0 0 0;
#X connect 30 0 5 1;
#X connect 32 0 25 1;
#X connect 34 0 25 2;
#X connect 36 0 31 0;
#X connect 37 0 35 0;
#X connect 38 0 33 0;
#X restore 94 290 pd state-saving-via-preset-manager-module;
#N canvas 297 27 518 295 parameter-nudging-system 0;
#X obj 23 67 clip 0 127;
#X obj 27 169 clip 0 127;
#X obj 235 208 clip 0 127;
#X obj 23 22 r \$0-pitchshifter-pitch-/+-s;
#X obj 23 95 s \$0-pitchshifter-pitch-/+-r;
#X obj 27 124 r \$0-pitchshifter-cv-att-s;
#X obj 27 197 s \$0-pitchshifter-cv-att-r;
#X obj 235 161 r \$0-pitchshifter-dry/wet-s;
#X obj 235 234 s \$0-pitchshifter-dry/wet-r;
#N canvas 0 22 484 497 nudge-freq 0;
#X obj 124 234 random;
#X obj 232 335 f;
#X obj 232 368 +;
#X obj 257 166 random 2;
#X obj 124 275 t f f;
#X obj 124 351 t b f;
#X obj 124 297 *;
#X obj 257 188 sel 0 1;
#X msg 257 280 -1;
#X msg 335 280 1;
#X obj 124 149 t b b b;
#X obj 124 51 r NUDGE!;
#X obj 157 193 r NUDGE-RANGE;
#X obj 247 308 inlet;
#X obj 232 397 outlet;
#X obj 124 73 spigot;
#X obj 185 56 r frequencies2-s;
#X connect 0 0 4 0;
#X connect 1 0 2 0;
#X connect 2 0 14 0;
#X connect 3 0 7 0;
#X connect 4 0 6 0;
#X connect 5 0 2 0;
#X connect 5 1 2 1;
#X connect 6 0 5 0;
#X connect 7 0 8 0;
#X connect 7 1 9 0;
#X connect 8 0 6 1;
#X connect 9 0 6 1;
#X connect 10 0 0 0;
#X connect 10 1 1 0;
#X connect 10 2 3 0;
#X connect 11 0 15 0;
#X connect 12 0 0 1;
#X connect 13 0 1 1;
#X connect 15 0 10 0;
#X connect 16 0 15 1;
#X restore 22 44 pd nudge-freq;
#N canvas 0 22 484 497 nudge-parameters 0;
#X obj 124 234 random;
#X obj 232 335 f;
#X obj 232 368 +;
#X obj 257 166 random 2;
#X obj 124 275 t f f;
#X obj 124 351 t b f;
#X obj 124 297 *;
#X obj 257 188 sel 0 1;
#X msg 257 280 -1;
#X msg 335 280 1;
#X obj 124 149 t b b b;
#X obj 124 74 r NUDGE!;
#X obj 157 193 r NUDGE-RANGE;
#X obj 247 308 inlet;
#X obj 232 397 outlet;
#X obj 124 96 spigot;
#X obj 185 79 r parameters2-s;
#X connect 0 0 4 0;
#X connect 1 0 2 0;
#X connect 2 0 14 0;
#X connect 3 0 7 0;
#X connect 4 0 6 0;
#X connect 5 0 2 0;
#X connect 5 1 2 1;
#X connect 6 0 5 0;
#X connect 7 0 8 0;
#X connect 7 1 9 0;
#X connect 8 0 6 1;
#X connect 9 0 6 1;
#X connect 10 0 0 0;
#X connect 10 1 1 0;
#X connect 10 2 3 0;
#X connect 11 0 15 0;
#X connect 12 0 0 1;
#X connect 13 0 1 1;
#X connect 15 0 10 0;
#X connect 16 0 15 1;
#X restore 234 186 pd nudge-parameters;
#N canvas 0 22 484 497 nudge-attenuators 0;
#X obj 124 234 random;
#X obj 232 335 f;
#X obj 232 368 +;
#X obj 257 166 random 2;
#X obj 124 275 t f f;
#X obj 124 351 t b f;
#X obj 124 297 *;
#X obj 257 188 sel 0 1;
#X msg 257 280 -1;
#X msg 335 280 1;
#X obj 124 149 t b b b;
#X obj 124 71 r NUDGE!;
#X obj 157 193 r NUDGE-RANGE;
#X obj 247 308 inlet;
#X obj 232 397 outlet;
#X obj 124 93 spigot;
#X obj 201 76 r attenuators2-s;
#X connect 0 0 4 0;
#X connect 1 0 2 0;
#X connect 2 0 14 0;
#X connect 3 0 7 0;
#X connect 4 0 6 0;
#X connect 5 0 2 0;
#X connect 5 1 2 1;
#X connect 6 0 5 0;
#X connect 7 0 8 0;
#X connect 7 1 9 0;
#X connect 8 0 6 1;
#X connect 9 0 6 1;
#X connect 10 0 0 0;
#X connect 10 1 1 0;
#X connect 10 2 3 0;
#X connect 11 0 15 0;
#X connect 12 0 0 1;
#X connect 13 0 1 1;
#X connect 15 0 10 0;
#X connect 16 0 15 1;
#X restore 26 146 pd nudge-attenuators;
#X connect 0 0 4 0;
#X connect 1 0 6 0;
#X connect 2 0 8 0;
#X connect 3 0 9 0;
#X connect 5 0 11 0;
#X connect 7 0 10 0;
#X connect 9 0 0 0;
#X connect 10 0 2 0;
#X connect 11 0 1 0;
#X restore 95 265 pd parameter-nudging-system;
#X obj 252 195 * 48;
#X obj 252 217 - 24;
#X obj 252 239 i;
#N canvas 632 73 749 752 external-messages 0;
#X floatatom 186 706 5 0 0 0 - - -, f 5;
#X obj 185 328 spigot;
#X obj 218 288 tgl 15 0 empty empty empty 17 7 0 10 -262144 -1 -1 0
1;
#X obj 254 272 ==;
#X obj 269 248 f \$1;
#X obj 269 224 loadbang;
#X msg 185 202 \$1 \$2;
#X msg 185 156 symbol \$1;
#X obj 185 180 pack s f;
#X obj 186 685 f;
#X obj 186 633 t b f;
#X obj 186 656 spigot;
#X obj 185 62 unpack s f f;
#X symbolatom 185 94 10 0 0 0 - - -, f 10;
#X obj 218 308 t f f;
#X obj 245 332 s \$0-msg-spigot;
#X obj 234 640 r \$0-msg-spigot;
#X floatatom 223 594 5 0 0 0 - - -, f 5;
#X obj 223 573 f;
#X obj 223 521 t b f;
#X obj 223 544 spigot;
#X obj 271 528 r \$0-msg-spigot;
#X floatatom 387 639 5 0 0 0 - - -, f 5;
#X obj 387 618 f;
#X obj 387 566 t b f;
#X obj 387 589 spigot;
#X obj 435 573 r \$0-msg-spigot;
#X obj 185 14 r pitchshifter;
#X obj 185 380 route PITCH-/+ CV DRY/WET;
#X obj 186 726 s \$0-pitchshifter-pitch-/+-r;
#X obj 223 614 s \$0-pitchshifter-cv-att-r;
#X obj 387 659 s \$0-pitchshifter-dry/wet-r;
#X connect 0 0 29 0;
#X connect 1 0 28 0;
#X connect 2 0 14 0;
#X connect 3 0 2 0;
#X connect 4 0 3 1;
#X connect 5 0 4 0;
#X connect 6 0 1 0;
#X connect 7 0 8 0;
#X connect 8 0 6 0;
#X connect 9 0 0 0;
#X connect 10 0 11 0;
#X connect 10 1 9 1;
#X connect 11 0 9 0;
#X connect 12 0 13 0;
#X connect 12 1 8 1;
#X connect 12 2 3 0;
#X connect 13 0 7 0;
#X connect 14 0 1 1;
#X connect 14 1 15 0;
#X connect 16 0 11 1;
#X connect 17 0 30 0;
#X connect 18 0 17 0;
#X connect 19 0 20 0;
#X connect 19 1 18 1;
#X connect 20 0 18 0;
#X connect 21 0 20 1;
#X connect 22 0 31 0;
#X connect 23 0 22 0;
#X connect 24 0 25 0;
#X connect 24 1 23 1;
#X connect 25 0 23 0;
#X connect 26 0 25 1;
#X connect 27 0 12 0;
#X connect 28 0 10 0;
#X connect 28 1 19 0;
#X connect 28 2 24 0;
#X restore 97 239 pd external-messages;
#X connect 0 0 29 0;
#X connect 1 0 12 0;
#X connect 2 0 1 1;
#X connect 2 0 17 1;
#X connect 4 0 2 0;
#X connect 5 0 6 0;
#X connect 6 0 28 0;
#X connect 7 0 22 0;
#X connect 8 0 21 0;
#X connect 9 0 12 1;
#X connect 9 0 18 1;
#X connect 10 0 9 0;
#X connect 11 0 38 0;
#X connect 12 0 57 0;
#X connect 13 0 14 0;
#X connect 14 0 15 0;
#X connect 15 0 82 0;
#X connect 16 0 17 0;
#X connect 16 0 26 0;
#X connect 17 0 18 0;
#X connect 18 0 75 0;
#X connect 19 0 20 0;
#X connect 20 0 15 1;
#X connect 21 0 7 0;
#X connect 21 1 7 1;
#X connect 22 0 37 0;
#X connect 23 0 16 0;
#X connect 24 0 25 0;
#X connect 25 0 13 0;
#X connect 26 0 27 0;
#X connect 27 0 19 0;
#X connect 28 0 30 0;
#X connect 29 0 5 0;
#X connect 30 0 7 0;
#X connect 37 0 1 0;
#X connect 37 0 24 0;
#X connect 37 0 23 0;
#X connect 38 0 10 0;
#X connect 39 0 8 0;
#X connect 39 0 4 0;
#X connect 39 0 46 0;
#X connect 41 0 56 0;
#X connect 41 0 87 0;
#X connect 43 0 55 0;
#X connect 43 0 99 0;
#X connect 44 0 45 0;
#X connect 45 0 47 0;
#X connect 47 0 48 0;
#X connect 47 0 0 0;
#X connect 49 0 50 0;
#X connect 50 0 39 0;
#X connect 51 0 52 0;
#X connect 52 0 11 0;
#X connect 54 0 43 0;
#X connect 55 0 44 0;
#X connect 57 0 14 1;
#X connect 58 0 76 0;
#X connect 59 0 64 0;
#X connect 60 0 61 0;
#X connect 60 0 66 0;
#X connect 61 0 62 0;
#X connect 62 0 63 0;
#X connect 62 0 59 0;
#X connect 64 0 55 0;
#X connect 64 1 55 1;
#X connect 65 0 67 0;
#X connect 66 0 65 0;
#X connect 67 0 68 0;
#X connect 68 0 55 1;
#X connect 74 0 77 0;
#X connect 75 0 20 1;
#X connect 76 0 60 0;
#X connect 76 0 59 0;
#X connect 77 0 78 0;
#X connect 78 0 79 0;
#X connect 79 0 76 1;
#X connect 81 0 83 0;
#X connect 82 0 42 0;
#X connect 83 0 84 0;
#X connect 84 0 88 0;
#X connect 84 1 85 0;
#X connect 85 0 86 0;
#X connect 86 0 82 1;
#X connect 87 0 42 0;
#X connect 88 0 89 0;
#X connect 89 0 90 0;
#X connect 90 0 91 0;
#X connect 91 0 87 1;
#X connect 93 0 95 0;
#X connect 95 0 96 0;
#X connect 96 0 94 0;
#X connect 99 0 100 0;
#X connect 100 0 101 0;
#X connect 101 0 69 0;
#X coords 0 -1 1 1 200 85 2 100 100;
