#N canvas 0 22 772 488 10;
#X obj 24 343 cnv 15 400 30 empty empty OUTPUTS: 20 12 0 14 -158136
-262144 0;
#X obj 21 126 cnv 15 400 30 empty empty CONTROLS: 20 12 0 14 -158136
-262144 0;
#X obj 21 255 cnv 15 400 30 empty empty INPUTS: 20 12 0 14 -158136
-262144 0;
#X obj 20 17 cnv 15 400 30 empty empty PITCHSHIFTER: 20 12 0 14 -150893
-262144 0;
#X text 26 385 OUT - output;
#X text 25 291 IN - signal input;
#X obj 433 19 pitchshifter;
#X text 24 58 The PITCHSHIFTER module is an adaptation of the code
in the Pure Data examples (G09.pitchshift.pd) for the Automatonism
signal flow. It takes a signal and shifts the pitch with a range of
down two octaves to up two octaves.;
#X text 25 164 PITCH-/+ - shift the pitch of the input signal;
#X text 25 195 CV - attenuator for incoming CV at the PITCH-/+ cv-input
;
#X text 26 222 DTY/WET - dry/wet control;
#X text 25 314 CV - input for cv-control over the PITCH-/+ parameter.
;
