#N canvas 246 154 1554 904 10;
#X obj 289 754 outlet~;
#X obj 130 275 r playhead;
#X obj 96 398 unpack f f f;
#X obj 87 515 int;
#X obj 87 537 change;
#X msg 87 686 1 0 \, 0 1 1;
#X obj 87 708 vline~;
#X obj 87 730 outlet~;
#X obj 632 769 outlet~;
#X obj 87 559 t b b;
#X obj 205 486 inlet~;
#X obj 175 818 threshold~ 0.99 0 0.99 0;
#X obj 229 518 *~ 1;
#N canvas 0 50 775 448 calc-bpm 0;
#X obj 224 -1 inlet;
#X obj 218 149 timer;
#X obj 234 194 /;
#X msg 235 173 60000 \$1;
#X obj 333 220 outlet;
#X obj 265 125 spigot 1;
#X obj 275 29 t b b b;
#X msg 342 89 0;
#X msg 293 61 1;
#X obj 342 66 delay 2000;
#X obj 358 166 s \$0-playing-rcv;
#X obj 493 163 s \$0-reset;
#X obj 417 115 delay 1;
#X obj 283 208 / 4;
#X connect 0 0 6 0;
#X connect 1 0 3 0;
#X connect 2 0 13 0;
#X connect 3 0 2 0;
#X connect 5 0 1 1;
#X connect 6 0 1 0;
#X connect 6 0 8 0;
#X connect 6 1 5 0;
#X connect 6 2 9 0;
#X connect 7 0 5 1;
#X connect 7 0 10 0;
#X connect 8 0 5 1;
#X connect 8 0 10 0;
#X connect 9 0 7 0;
#X connect 9 0 12 0;
#X connect 12 0 11 0;
#X connect 13 0 4 0;
#X restore 178 848 pd calc-bpm;
#X obj 94 369 t l b;
#X obj 273 397 delay 2000;
#X msg 272 421 1;
#X msg 312 423 0;
#X obj 224 368 s \$0-bpm-r;
#X obj 291 730 sig~;
#X obj 631 622 ftom;
#X obj 631 567 * 440;
#X obj 631 595 / 120;
#X obj 628 685 / 127;
#X obj 629 654 - 69;
#X obj 628 718 clip -1 1;
#X obj 640 742 lop~ 0.5;
#X obj 159 331 s \$0-playing-rcv;
#X obj 288 706 r \$0-playing-rcv;
#X obj 86 481 * 4;
#X obj 289 315 unpack f f;
#X obj 130 298 route position playing bpm timesig;
#X msg 488 719 1 0 \, 0 1 1;
#X obj 488 741 vline~;
#X obj 488 763 outlet~;
#X obj 305 578 int;
#X obj 305 501 / 4;
#X obj 305 526 * 4;
#X obj 305 551 / 4;
#X obj 340 526 r \$0-numerator-s;
#X obj 336 493 r \$0-denumerator-s;
#X obj 749 167 s \$0-numerator-r;
#X obj 871 175 s \$0-denumerator-r;
#X obj 744 104 r \$0-numerator-s;
#X obj 871 97 r \$0-denumerator-s;
#X msg 744 126 set \$1;
#X msg 871 119 set \$1;
#X obj 287 338 s \$0-numerator-s;
#X obj 394 340 s \$0-denumerator-s;
#X obj 129 437 r \$0-denumerator-s;
#X obj 489 694 r \$0-reset;
#N canvas 487 405 630 527 synchro-cycles-gui 0;
#X obj 96 12 r \$0-cycle-s;
#X obj 125 61 - 1;
#X msg 125 83 set \$1;
#X obj 125 105 s \$0-mes-r;
#X obj 188 18 r \$0-mes-s;
#X obj 188 40 + 1;
#X obj 188 64 s \$0-cycle-s;
#X obj 27 73 s \$0-cycle-r;
#X msg 24 42 set \$1;
#X obj 59 157 > 6;
#X obj 59 201 select 0 1;
#X obj 63 246 s \$0-mes-r;
#X obj 59 179 change -1;
#X msg 63 224 color 64 44 -1;
#X msg 181 214 color 64 64 -1;
#X connect 0 0 1 0;
#X connect 0 0 8 0;
#X connect 0 0 9 0;
#X connect 1 0 2 0;
#X connect 2 0 3 0;
#X connect 4 0 5 0;
#X connect 5 0 6 0;
#X connect 8 0 7 0;
#X connect 9 0 12 0;
#X connect 10 0 13 0;
#X connect 10 1 14 0;
#X connect 12 0 10 0;
#X connect 13 0 11 0;
#X connect 14 0 11 0;
#X restore 367 80 pd synchro-cycles-gui;
#X obj 308 601 change;
#X obj 312 624 mod 1;
#X obj 366 599 r \$0-cycle-s;
#X obj 312 646 select 0;
#X obj 112 591 s \$0-clk-out-r;
#X obj 268 848 s \$0-clk-out-r;
#X obj 624 529 r \$0-bpm-r;
#X obj 179 871 s \$0-bpm-r;
#X obj 312 669 s \$0-reset;
#N canvas 0 50 630 527 beat-mult-gui 0;
#X obj 59 157 > 6;
#X obj 59 201 select 0 1;
#X obj 59 179 change -1;
#X obj 59 9 r \$0-beat-mult-s;
#X msg 210 65 set \$1;
#X msg 24 42 set \$1;
#X obj 4 80 s \$0-beat-mult-r;
#X obj 208 18 r \$0-beat-mult-s;
#X obj 208 40 - 1;
#X obj 208 87 s \$0-beat-mult-radio-r;
#X obj 63 246 s \$0-beat-mult-radio-r;
#X obj 149 119 r \$0-beat-mult-radio-s;
#X obj 149 141 + 1;
#X obj 151 165 s \$0-beat-mult-s;
#X floatatom 306 168 5 0 0 0 - - -;
#X msg 63 224 color 64 44 -1;
#X msg 181 214 color 64 64 -1;
#X connect 0 0 2 0;
#X connect 1 0 15 0;
#X connect 1 1 16 0;
#X connect 2 0 1 0;
#X connect 3 0 5 0;
#X connect 4 0 9 0;
#X connect 5 0 6 0;
#X connect 7 0 8 0;
#X connect 7 0 0 0;
#X connect 8 0 4 0;
#X connect 11 0 12 0;
#X connect 12 0 13 0;
#X connect 14 0 16 0;
#X connect 15 0 10 0;
#X connect 16 0 10 0;
#X restore 371 52 pd beat-mult-gui;
#X obj 91 420 / 4;
#X obj 52 458 * 1;
#X obj 108 234 r \$0-beat-mult-s;
#X obj 195 157 cnv 15 50 35 empty empty empty 20 12 0 14 -262130 -66577
0;
#X obj 102 121 cnv 5 5 5 empty empty PLAYHEAD 0 0 0 12 -262144 -66577
0;
#X obj 103 187 cnv 5 5 5 empty empty CLK-OUT 0 0 0 8 -262144 -226533
0;
#X obj 152 187 cnv 5 5 5 empty empty PLAYING 0 0 0 8 -262144 -226533
0;
#X obj 270 187 cnv 5 5 5 empty empty BPM-RATE -20 0 0 8 -262144 -226533
0;
#X obj 104 165 bng 15 50 50 0 empty \$0-clk-out-r empty 17 7 0 10 -262144
-226533 -1;
#X obj 103 107 cnv 5 5 5 empty empty CLOCK-IN 0 0 0 8 -262144 -226533
0;
#X obj 162 165 tgl 15 0 empty \$0-playing-rcv empty 0 7 0 10 -262144
-1 -1 0 1;
#X obj 202 187 cnv 5 5 5 empty empty RESET 0 0 0 8 -262130 -226533
0;
#X obj 216 165 bng 15 50 50 0 empty \$0-reset empty 17 7 0 10 -262144
-226533 -1;
#X floatatom 265 164 5 0 0 0 BPM #0-bpm-r -;
#X obj 167 102 cnv 15 130 60 empty empty camomile 2 12 0 26 -262130
-232576 0;
#X obj 169 147 hradio 15 1 0 6 \$0-mes-s \$0-mes-r synchro(bar) 2 7
0 10 -261681 -260818 -1 0;
#X floatatom 262 146 5 1 999 2 - #0-cycle-r #0-cycle-s;
#X obj 169 128 hradio 15 1 0 6 \$0-beat-mult-radio-s \$0-beat-mult-radio-r
beat-multiply 2 7 0 10 -261681 -260818 -1 3;
#X floatatom 262 127 5 0.125 999 2 - #0-beat-mult-r #0-beat-mult-s
;
#N canvas 0 57 1920 1023 state-saving-multiple-instances 0;
#X obj 215 28 loadbang;
#X msg 518 463 rewind;
#X msg 475 463 bang;
#X obj 475 424 t b b;
#X obj 120 356 f;
#X obj 133 579 f;
#X obj 66 422 t b b b;
#X msg 196 579 clear;
#X obj 281 216 outlet;
#X text 277 236 INSTANCE NUMBER;
#X obj 242 92 f \$1;
#X obj 242 128 t f f f;
#X obj 215 61 t b b;
#X obj 66 331 bng 15 250 50 0 empty empty empty 17 7 0 10 -262144 -1
-1;
#X obj 66 235 r SAVE-S;
#X obj 120 399 pack f f;
#X msg 120 438 set \$1 \$2;
#X obj 261 502 unpack f f;
#X obj 261 480 state_saving_module/textfile \$0;
#X obj 119 690 state_saving_module/textfile \$0;
#X obj 165 367 r \$0-cycle-s;
#X obj 135 317 r \$0-beat-mult-s;
#X msg 132 650 write statesave/\$1-playhead-ss.txt;
#X msg 261 455 read statesave/\$1-playhead-ss.txt;
#X obj 261 604 s \$0-beat-mult-s;
#X obj 318 530 s \$0-\$0-cycle-s;
#X connect 0 0 12 0;
#X connect 1 0 18 0;
#X connect 2 0 18 0;
#X connect 3 0 2 0;
#X connect 3 1 1 0;
#X connect 4 0 15 0;
#X connect 5 0 22 0;
#X connect 6 0 5 0;
#X connect 6 1 4 0;
#X connect 6 2 7 0;
#X connect 7 0 19 0;
#X connect 10 0 11 0;
#X connect 11 0 5 1;
#X connect 11 1 23 0;
#X connect 11 2 8 0;
#X connect 12 0 3 0;
#X connect 12 1 10 0;
#X connect 13 0 6 0;
#X connect 14 0 13 0;
#X connect 15 0 16 0;
#X connect 16 0 19 0;
#X connect 17 0 24 0;
#X connect 17 1 25 0;
#X connect 18 0 17 0;
#X connect 20 0 15 1;
#X connect 21 0 4 1;
#X connect 22 0 19 0;
#X connect 23 0 18 0;
#X restore 594 355 pd state-saving-multiple-instances;
#X obj 599 436 s \$0-instance-num;
#X obj 599 388 makefilename %d;
#X obj 162 121 cnv 5 5 5 empty \$0-instance-num 1 0 0 0 12 -262144
-66577 0;
#X msg 599 413 label \$1;
#X obj 10 50 state_saving_module playhead \$0 \$1;
#X obj 50 10 savestate;
#N canvas -1 24 958 423 \$0-gui_listeners 1;
#X obj 10 0 state_saving_module/hradio_dispatch playhead \$0 \$1 0
5 beat-mult-radio-s beat-mult-radio-r beat-multiply #FFE2C2 #FFAE44
#000000;
#X obj 10 60 state_saving_module/hradio_dispatch playhead \$0 \$1 0
5;
#X restore 10 80 pd \$0-gui_listeners;
#X connect 1 0 31 0;
#X connect 2 0 36 0;
#X connect 2 0 62 0;
#X connect 3 0 4 0;
#X connect 4 0 9 0;
#X connect 5 0 6 0;
#X connect 6 0 7 0;
#X connect 9 0 5 0;
#X connect 9 1 56 0;
#X connect 10 0 12 0;
#X connect 11 0 13 0;
#X connect 11 0 57 0;
#X connect 12 0 11 0;
#X connect 12 0 7 0;
#X connect 13 0 59 0;
#X connect 14 0 2 0;
#X connect 14 1 15 0;
#X connect 14 1 17 0;
#X connect 15 0 16 0;
#X connect 16 0 12 1;
#X connect 17 0 12 1;
#X connect 19 0 0 0;
#X connect 20 0 24 0;
#X connect 21 0 22 0;
#X connect 22 0 20 0;
#X connect 23 0 25 0;
#X connect 24 0 23 0;
#X connect 25 0 26 0;
#X connect 26 0 8 0;
#X connect 28 0 19 0;
#X connect 29 0 3 0;
#X connect 30 0 47 0;
#X connect 30 1 48 0;
#X connect 31 0 14 0;
#X connect 31 1 27 0;
#X connect 31 2 18 0;
#X connect 31 3 30 0;
#X connect 32 0 33 0;
#X connect 33 0 34 0;
#X connect 35 0 52 0;
#X connect 36 0 37 0;
#X connect 37 0 38 0;
#X connect 38 0 35 0;
#X connect 39 0 38 1;
#X connect 40 0 37 1;
#X connect 43 0 45 0;
#X connect 44 0 46 0;
#X connect 45 0 41 0;
#X connect 46 0 42 0;
#X connect 49 0 29 1;
#X connect 50 0 32 0;
#X connect 52 0 53 0;
#X connect 53 0 55 0;
#X connect 54 0 53 1;
#X connect 55 0 60 0;
#X connect 58 0 21 0;
#X connect 62 0 63 0;
#X connect 63 0 29 0;
#X connect 64 0 63 1;
#X connect 81 0 83 0;
#X connect 83 0 85 0;
#X connect 85 0 82 0;
#X connect 86 0 87 0;
#X connect 87 0 86 0;
#X connect 87 1 86 1;
#X coords 0 -1 1 1 200 95 2 100 100;
