#N canvas 370 114 1554 904 10;
#X obj 304 769 outlet~;
#X obj 96 398 unpack f f f;
#X obj 87 515 int;
#X obj 87 537 change;
#X msg 67 632 1 0 \, 0 1 1;
#X obj 43 666 vline~;
#X obj 61 764 outlet~;
#X obj 632 769 outlet~;
#X obj 87 559 t b b;
#X obj 94 369 t l b;
#X obj 273 397 delay 2000;
#X obj 306 745 sig~;
#X obj 631 622 ftom;
#X obj 631 567 * 440;
#X obj 631 595 / 120;
#X obj 628 685 / 127;
#X obj 629 654 - 69;
#X obj 628 718 clip -1 1;
#X obj 640 742 lop~ 0.5;
#X obj 153 366 s \$0-playing-rcv;
#X obj 303 721 r \$0-playing-rcv;
#X obj 86 481 * 4;
#X obj 289 315 unpack f f;
#X msg 488 719 1 0 \, 0 1 1;
#X obj 488 741 vline~;
#X obj 488 763 outlet~;
#X obj 410 550 int;
#X obj 410 473 / 4;
#X obj 410 498 * 4;
#X obj 410 523 / 4;
#X obj 445 498 r \$0-numerator-s;
#X obj 441 465 r \$0-denumerator-s;
#X obj 287 338 s \$0-numerator-s;
#X obj 394 340 s \$0-denumerator-s;
#X obj 129 437 r \$0-denumerator-s;
#X obj 489 694 r \$0-reset;
#N canvas 487 405 630 527 synchro-cycles-gui 0;
#X obj 96 12 r \$0-cycle-s;
#X obj 125 61 - 1;
#X msg 125 83 set \$1;
#X obj 125 105 s \$0-mes-r;
#X obj 188 18 r \$0-mes-s;
#X obj 256 112 + 1;
#X obj 256 136 s \$0-cycle-s;
#X obj 27 73 s \$0-cycle-r;
#X msg 24 42 set \$1;
#X obj 59 157 > 6;
#X obj 59 201 select 0 1;
#X obj 63 246 s \$0-mes-r;
#X obj 59 179 change -1;
#X msg 63 224 color 64 44 -1;
#X msg 181 214 color 64 64 -1;
#X obj 293 43 v \$0-mes-s;
#X obj 303 17 loadbang;
#X connect 0 0 1 0;
#X connect 0 0 8 0;
#X connect 0 0 9 0;
#X connect 1 0 2 0;
#X connect 2 0 3 0;
#X connect 4 0 5 0;
#X connect 5 0 6 0;
#X connect 8 0 7 0;
#X connect 9 0 12 0;
#X connect 10 0 13 0;
#X connect 10 1 14 0;
#X connect 12 0 10 0;
#X connect 13 0 11 0;
#X connect 14 0 11 0;
#X connect 15 0 5 0;
#X connect 16 0 15 0;
#X restore 367 80 pd synchro-cycles-gui;
#X obj 413 573 change;
#X obj 417 596 mod 1;
#X obj 471 571 r \$0-cycle-s;
#X obj 417 618 select 0;
#X obj 87 586 s \$0-clk-out-r;
#X obj 417 641 s \$0-reset;
#N canvas 2 455 630 527 beat-mult-gui 0;
#X obj 59 157 > 6;
#X obj 59 201 select 0 1;
#X obj 59 179 change -1;
#X obj 59 9 r \$0-beat-mult-s;
#X msg 210 65 set \$1;
#X msg 24 42 set \$1;
#X obj 4 80 s \$0-beat-mult-r;
#X obj 208 18 r \$0-beat-mult-s;
#X obj 208 40 - 1;
#X obj 208 87 s \$0-beat-mult-radio-r;
#X obj 63 246 s \$0-beat-mult-radio-r;
#X obj 357 15 r \$0-beat-mult-radio-s;
#X obj 357 126 + 1;
#X obj 359 150 s \$0-beat-mult-s;
#X floatatom 306 168 5 0 0 0 - - - 0;
#X msg 63 224 color 64 44 -1;
#X msg 181 214 color 64 64 -1;
#X obj 471 49 loadbang;
#X obj 469 126 + 1;
#X obj 471 150 s \$0-beat-mult-s;
#X obj 471 72 spigot 1;
#X obj 472 100 v \$0-beat-mult-radio-s;
#X obj 357 71 t f b;
#X msg 402 95 0;
#X connect 0 0 2 0;
#X connect 1 0 15 0;
#X connect 1 1 16 0;
#X connect 2 0 1 0;
#X connect 3 0 5 0;
#X connect 4 0 9 0;
#X connect 5 0 6 0;
#X connect 7 0 8 0;
#X connect 7 0 0 0;
#X connect 8 0 4 0;
#X connect 11 0 22 0;
#X connect 12 0 13 0;
#X connect 14 0 16 0;
#X connect 15 0 10 0;
#X connect 16 0 10 0;
#X connect 17 0 20 0;
#X connect 18 0 19 0;
#X connect 20 0 21 0;
#X connect 21 0 18 0;
#X connect 22 0 12 0;
#X connect 22 1 23 0;
#X connect 23 0 20 1;
#X restore 371 52 pd beat-mult-gui;
#X obj 91 420 / 4;
#X obj 52 458 * 1;
#X obj 108 234 r \$0-beat-mult-s;
#X obj 195 157 cnv 15 50 35 empty empty empty 20 12 0 14 #fcfcc4 #404040 0;
#X obj 102 121 cnv 5 5 5 empty empty PLAYHEAD 0 0 0 12 #fcfcfc #404040 0;
#X obj 103 187 cnv 5 5 5 empty empty CLK-OUT 0 0 0 8 #fcfcfc #dc4c90 0;
#X obj 152 187 cnv 5 5 5 empty empty PLAYING 0 0 0 8 #fcfcfc #dc4c90 0;
#X obj 270 187 cnv 5 5 5 empty empty BPM-RATE -20 0 0 8 #fcfcfc #dc4c90 0;
#X obj 104 165 bng 15 50 50 0 empty \$0-clk-out-r empty 17 7 0 10 #fcfcfc #dc4c90 #000000;
#X obj 103 107 cnv 5 5 5 empty empty CLOCK-IN 0 0 0 8 #fcfcfc #dc4c90 0;
#X obj 162 165 tgl 15 0 empty \$0-playing-rcv empty 0 7 0 10 #fcfcfc #000000 #000000 0 1;
#X obj 202 187 cnv 5 5 5 empty empty SYNCHRO 0 0 0 8 #fcfcc4 #dc4c90 0;
#X obj 216 165 bng 15 50 50 0 empty \$0-reset empty 17 7 0 10 #fcfcfc #dc4c90 #000000;
#X floatatom 265 164 5 0 0 0 BPM \$0-bpm-r \$0-bpm-s 0;
#X obj 167 102 cnv 15 130 60 empty \$0-plugin_name-r empty 2 12 0 26 #fcfcc4 #e0c4fc 0;
#X obj 172 146 hradio 15 1 0 6 \$0-mes-s \$0-mes-r synchro(bar) 2 7 0 10 #fce0c0 #fcac44 #000000 0;
#X floatatom 265 145 5 1 999 2 - \$0-cycle-r \$0-cycle-s 0;
#X obj 172 127 hradio 15 1 0 6 \$0-beat-mult-radio-s \$0-beat-mult-radio-r beat-multiply 2 7 0 10 #fce0c0 #fcac44 #000000 0;
#X floatatom 265 126 5 0.125 999 2 - \$0-beat-mult-r \$0-beat-mult-s 0;
#N canvas 0 7 1920 1023 state-saving-multiple-instances 0;
#X obj 215 28 loadbang;
#X msg 518 463 rewind;
#X msg 475 463 bang;
#X obj 475 424 t b b;
#X obj 120 356 f;
#X obj 133 579 f;
#X obj 66 422 t b b b;
#X msg 196 579 clear;
#X obj 281 216 outlet;
#X text 277 236 INSTANCE NUMBER;
#X obj 242 92 f \$1;
#X obj 242 128 t f f f;
#X obj 215 61 t b b;
#X obj 66 331 bng 15 250 50 0 empty \$0-save-s empty 17 7 0 10 #fcfcfc #000000 #000000;
#X obj 66 235 r SAVE-S;
#X obj 119 690 reloaded/textfile \$0;
#X obj 165 337 r \$0-cycle-s;
#X obj 135 317 r \$0-beat-mult-s;
#X msg 132 650 write statesave/\$1-playhead-ss.txt;
#X msg 261 455 read statesave/\$1-playhead-ss.txt;
#X obj 120 399 pack f f f;
#X msg 120 438 set \$1 \$2 \$3;
#X obj 203 369 r \$0-bpm-s;
#X obj 261 502 unpack f f f;
#X obj 261 480 reloaded/textfile \$0 init;
#X obj 338 530 s \$0-bpm-r;
#X obj 318 570 s \$0-cycle-r;
#X obj 261 604 s \$0-beat-mult-r;
#X connect 0 0 12 0;
#X connect 1 0 24 0;
#X connect 2 0 24 0;
#X connect 3 0 2 0;
#X connect 3 1 1 0;
#X connect 4 0 20 0;
#X connect 5 0 18 0;
#X connect 6 0 5 0;
#X connect 6 1 4 0;
#X connect 6 2 7 0;
#X connect 7 0 15 0;
#X connect 10 0 11 0;
#X connect 11 0 5 1;
#X connect 11 1 19 0;
#X connect 11 2 8 0;
#X connect 12 0 3 0;
#X connect 12 1 10 0;
#X connect 13 0 6 0;
#X connect 14 0 13 0;
#X connect 16 0 20 1;
#X connect 17 0 4 1;
#X connect 18 0 15 0;
#X connect 19 0 24 0;
#X connect 20 0 21 0;
#X connect 21 0 15 0;
#X connect 22 0 20 2;
#X connect 23 0 27 0;
#X connect 23 1 26 0;
#X connect 23 2 25 0;
#X connect 24 0 23 0;
#X restore 594 355 pd state-saving-multiple-instances;
#X obj 599 436 s \$0-instance-num;
#X obj 599 388 makefilename %d;
#X obj 162 121 cnv 5 5 5 empty \$0-instance-num 3 0 0 0 12 #fcfcfc #404040 0;
#X msg 599 413 label \$1;
#X obj 10 50 reloaded playhead \$0 \$1;
#X obj 50 10 savestate;
#N canvas 2 682 450 228 \$0-gui_listeners 0;
#X obj 10 0 reloaded/hradio_dispatch playhead \$0 \$1 0 5 beat-mult-radio-s beat-mult-radio-r beat-multiply #FFE2C2 #FFAE44 #000000;
#X obj 10 60 reloaded/hradio_dispatch playhead \$0 \$1 0 5 mes-s mes-r synchro(bar) #FFE2C2 #FFAE44 #000000;
#X restore 10 80 pd \$0-gui_listeners;
#X obj 105 144 tgl 15 0 \$0-int_clock \$0-int_clock-rcv clock 17 7 0 10 #ffffff #000000 #000000 0 1;
#X obj 280 366 s \$0-bpm-s;
#X obj 624 529 r \$0-bpm-s;
#N canvas 229 461 680 400 bpm-gui 0;
#X obj 67 25 r \$0-bpm-s;
#X msg 67 246 set \$1;
#X obj 67 268 s \$0-bpm-r;
#X obj 67 198 int;
#X obj 67 162 + 0.5;
#X obj 162 25 loadbang;
#X obj 162 48 spigot 1;
#X obj 67 121 t f b;
#X msg 163 215 0;
#X msg 158 131 120;
#X obj 158 154 s \$0-bpm-s;
#X obj 67 71 change;
#X obj 353 98 savestate;
#X obj 347 71 list prepend -bpm;
#X obj 338 45 f;
#X obj 393 13 r \$0-bpm-s;
#X obj 353 119 list trim;
#X obj 353 140 route -bpm;
#X obj 353 161 s \$0-bpm-s;
#X connect 0 0 11 0;
#X connect 1 0 2 0;
#X connect 3 0 1 0;
#X connect 4 0 3 0;
#X connect 5 0 6 0;
#X connect 6 0 9 0;
#X connect 7 0 4 0;
#X connect 7 1 8 0;
#X connect 8 0 6 1;
#X connect 9 0 10 0;
#X connect 11 0 7 0;
#X connect 12 0 16 0;
#X connect 12 1 14 0;
#X connect 13 0 12 0;
#X connect 14 0 13 0;
#X connect 15 0 14 1;
#X connect 16 0 17 0;
#X connect 17 0 18 0;
#X restore 366 113 pd bpm-gui;
#X obj 434 425 s \$0-playhead_inactive;
#X msg 272 421 1;
#X msg 312 423 0;
#N canvas 0 282 866 630 internal_clock 0;
#X obj 205 65 r \$0-bpm-s;
#X msg 205 87 tempo \$1 permin;
#X obj 325 99 /;
#X msg 325 74 1 \$1;
#X text 356 100 beat length;
#X obj 326 54 r \$0-beat-mult-s;
#X obj 131 27 r \$0-playhead_inactive;
#X obj 133 59 t b f;
#X obj 108 92 * 1;
#X obj 24 42 r \$0-int_clock;
#X obj 358 166 r \$0-playing-rcv;
#X obj 358 189 select 0;
#X msg 358 212 0;
#X obj 584 263 r \$0-playhead_inactive;
#X obj 471 263 r \$0-int_clock;
#X obj 557 312 f;
#X obj 584 286 t b f;
#X obj 563 371 s \$0-playing-rcv;
#X obj 544 338 spigot 1;
#X obj 207 115 metro;
#X obj 199 239 outlet;
#X obj 108 115 t f;
#X connect 0 0 1 0;
#X connect 1 0 19 0;
#X connect 2 0 19 1;
#X connect 3 0 2 0;
#X connect 5 0 3 0;
#X connect 6 0 7 0;
#X connect 7 0 8 0;
#X connect 7 1 8 1;
#X connect 8 0 21 0;
#X connect 9 0 8 0;
#X connect 10 0 11 0;
#X connect 11 0 12 0;
#X connect 13 0 16 0;
#X connect 14 0 15 0;
#X connect 15 0 18 0;
#X connect 16 0 15 0;
#X connect 16 1 18 1;
#X connect 18 0 17 0;
#X connect 19 0 20 0;
#X connect 21 0 19 0;
#X restore 152 516 pd internal_clock;
#X text 103 128 internal;
#X obj 426 393 change -1;
#N canvas 0 0 557 482 gui-update 0;
#X obj 59 167 s \$0-numerator-r;
#X obj 181 175 s \$0-denumerator-r;
#X obj 54 104 r \$0-numerator-s;
#X obj 181 97 r \$0-denumerator-s;
#X msg 54 126 set \$1;
#X msg 181 119 set \$1;
#X msg 321 129 set \$1;
#X obj 321 107 r \$0-bpm-s;
#X obj 321 185 s \$0-bpm-r;
#X obj 162 323 r \$0-playhead_inactive;
#X obj 162 346 select 0 1;
#X msg 161 392 color #888888 #888888 #000000;
#X msg 365 385 color #FFFFFF #000000 #000000;
#X obj 262 428 s \$0-int_clock-rcv;
#X connect 2 0 4 0;
#X connect 3 0 5 0;
#X connect 4 0 0 0;
#X connect 5 0 1 0;
#X connect 6 0 8 0;
#X connect 7 0 6 0;
#X connect 9 0 10 0;
#X connect 10 0 11 0;
#X connect 10 1 12 0;
#X connect 11 0 13 0;
#X connect 12 0 13 0;
#X restore 674 48 pd gui-update;
#X obj 135 77 namecanvas \$0-this;
#X obj 165 330 change;
#X obj 516 361 loadbang;
#X msg 516 390 1;
#X obj 365 157 r _playhead;
#X text 456 179 new plugdata versions;
#X text 448 156 old plugdata versions;
#X obj 365 180 r __playhead;
#X obj 130 298 route position;
#X obj 237 264 route playing bpm timesig;
#X floatatom 471 592 5 0 0 0 - - - 0;
#X obj 211 613 f;
#X obj 211 634 + 1;
#X obj 211 666 mod 4;
#X obj 264 451 r \$0-cycle-s;
#X obj 312 523 r \$0-numerator-s;
#X obj 276 493 r \$0-denumerator-s;
#X obj 264 470 * 4;
#X obj 274 589 * 4;
#X obj 268 540 / 4;
#X symbolatom 261 107 5 0 0 0 metrics \$0-metrics-r \$0-metrics-s 0;
#X obj 312 549 t b f;
#X obj 274 517 t b f;
#X obj 251 642 *;
#X obj 305 596 r \$0-beat-mult-s;
#X obj 269 623 t b f;
#N canvas 96 96 450 453 affichage_barre_de_mesure 0;
#X obj 111 26 list fromsymbol;
#X obj 216 98 list length;
#X obj 260 228 route 47;
#X obj 166 130 list prepend 3;
#X msg 195 187 \$2 2 \, \$3 3;
#X obj 166 151 route 3 4 5;
#X msg 275 187 \$2 2 \, \$3 3 \, \$4 4;
#X msg 206 252 1;
#X obj 148 302 list split;
#X obj 181 341 list split 1;
#X obj 112 0 r \$0-metrics-s;
#X obj 104 424 s \$0-numerator-s;
#X obj 277 423 s \$0-denumerator-s;
#X obj 412 449 r \$0-denumerator-s;
#X obj 130 449 r \$0-numerator-s;
#X obj 61 335 list tosymbol;
#X obj 246 382 list tosymbol;
#X obj 102 399 float;
#X obj 261 403 float;
#X obj 130 545 int;
#X obj 130 605 list append;
#X obj 130 649 s \$0-metrics-r;
#X msg 130 627 set \$1/\$2;
#X obj 237 547 int;
#X obj 277 605 loadbang;
#X obj 298 654 spigot 1;
#X msg 298 680 4 4;
#X obj 381 596 t b;
#X msg 381 622 0;
#X obj 325 469 change;
#X obj 130 495 change;
#X obj 482 208 savestate;
#X obj 461 170 list prepend -metrics;
#X obj 497 55 r \$0-metrics-s;
#X obj 424 131 symbol;
#X obj 482 234 list trim;
#X obj 482 260 route -metrics;
#X obj 482 306 s \$0-metrics-s;
#X obj 482 283 symbol;
#X obj 109 57 t l l;
#X obj 93 109 t l l;
#X obj 101 83 spigot;
#X connect 0 0 39 0;
#X connect 1 0 3 1;
#X connect 1 0 41 1;
#X connect 2 0 8 1;
#X connect 3 0 5 0;
#X connect 4 0 2 0;
#X connect 5 0 7 0;
#X connect 5 1 4 0;
#X connect 5 2 6 0;
#X connect 6 0 2 0;
#X connect 7 0 8 1;
#X connect 8 0 15 0;
#X connect 8 1 9 0;
#X connect 9 1 16 0;
#X connect 10 0 0 0;
#X connect 13 0 29 0;
#X connect 14 0 30 0;
#X connect 15 0 17 0;
#X connect 16 0 18 0;
#X connect 17 0 11 0;
#X connect 18 0 12 0;
#X connect 19 0 20 0;
#X connect 20 0 22 0;
#X connect 22 0 21 0;
#X connect 23 0 20 1;
#X connect 24 0 25 0;
#X connect 25 0 26 0;
#X connect 26 0 22 0;
#X connect 27 0 28 0;
#X connect 28 0 25 1;
#X connect 29 0 23 0;
#X connect 29 0 27 0;
#X connect 30 0 19 0;
#X connect 30 0 27 0;
#X connect 31 0 35 0;
#X connect 31 1 34 0;
#X connect 32 0 31 0;
#X connect 33 0 34 1;
#X connect 34 0 32 0;
#X connect 35 0 36 0;
#X connect 36 0 38 0;
#X connect 38 0 37 0;
#X connect 39 0 41 0;
#X connect 39 1 1 0;
#X connect 40 0 8 0;
#X connect 40 1 3 0;
#X connect 41 0 40 0;
#X restore 672 86 pd affichage_barre_de_mesure;
#X connect 1 0 27 0;
#X connect 1 0 44 0;
#X connect 2 0 3 0;
#X connect 3 0 8 0;
#X connect 4 0 5 0;
#X connect 5 0 6 0;
#X connect 8 0 4 0;
#X connect 8 1 41 0;
#X connect 9 0 1 0;
#X connect 9 1 10 0;
#X connect 9 1 77 0;
#X connect 10 0 76 0;
#X connect 11 0 0 0;
#X connect 12 0 16 0;
#X connect 13 0 14 0;
#X connect 14 0 12 0;
#X connect 15 0 17 0;
#X connect 16 0 15 0;
#X connect 17 0 18 0;
#X connect 18 0 7 0;
#X connect 20 0 11 0;
#X connect 21 0 2 0;
#X connect 22 0 32 0;
#X connect 22 1 33 0;
#X connect 23 0 24 0;
#X connect 24 0 25 0;
#X connect 26 0 37 0;
#X connect 27 0 28 0;
#X connect 28 0 29 0;
#X connect 29 0 26 0;
#X connect 30 0 29 1;
#X connect 31 0 28 1;
#X connect 34 0 21 1;
#X connect 35 0 23 0;
#X connect 37 0 38 0;
#X connect 38 0 40 0;
#X connect 39 0 38 1;
#X connect 39 0 92 0;
#X connect 40 0 42 0;
#X connect 44 0 45 0;
#X connect 45 0 21 0;
#X connect 46 0 45 1;
#X connect 63 0 65 0;
#X connect 65 0 67 0;
#X connect 67 0 64 0;
#X connect 68 0 69 0;
#X connect 69 0 68 0;
#X connect 69 1 68 1;
#X connect 73 0 13 0;
#X connect 76 0 80 0;
#X connect 77 0 80 0;
#X connect 78 0 8 0;
#X connect 78 0 93 0;
#X connect 80 0 75 0;
#X connect 83 0 19 0;
#X connect 84 0 85 0;
#X connect 85 0 75 0;
#X connect 86 0 90 0;
#X connect 89 0 90 0;
#X connect 90 0 9 0;
#X connect 90 1 91 0;
#X connect 91 0 83 0;
#X connect 91 1 72 0;
#X connect 91 2 22 0;
#X connect 93 0 94 0;
#X connect 94 0 95 0;
#X connect 95 0 93 1;
#X connect 95 0 40 0;
#X connect 96 0 99 0;
#X connect 97 0 103 0;
#X connect 98 0 104 0;
#X connect 99 0 101 0;
#X connect 100 0 105 0;
#X connect 101 0 100 0;
#X connect 103 0 100 0;
#X connect 103 1 100 1;
#X connect 104 0 101 0;
#X connect 104 1 101 1;
#X connect 105 0 95 1;
#X connect 106 0 107 0;
#X connect 107 0 105 0;
#X connect 107 1 105 1;
#X coords 0 -1 1 1 200 95 2 100 100;
