#N canvas 56 171 865 551 10;
#X obj 357 534 outlet~;
#X obj 133 125 cnv 5 5 5 empty empty PLAYHEAD 0 0 0 12 -262144 -66577
0;
#X obj 327 111 r playhead;
#X floatatom 211 137 5 0 0 0 BPM #0-bpm-r -;
#X obj 103 167 cnv 5 5 5 empty empty CLK-OUT 0 0 0 8 -262144 -226533
0;
#X obj 255 275 unpack f f f;
#X obj 255 297 int;
#X obj 255 319 change;
#X msg 267 490 1 0 \, 0 1 1;
#X obj 267 512 vline~;
#X obj 267 534 outlet~;
#X obj 152 167 cnv 5 5 5 empty empty PLAYING 0 0 0 8 -262144 -226533
0;
#X obj 227 167 cnv 5 5 5 empty empty CLK-RATE -20 0 0 8 -262144 -226533
0;
#X obj 497 544 outlet~;
#X obj 255 341 t b b;
#X obj 525 256 inlet~;
#X obj 523 352 threshold~ 0.99 0 0.99 0;
#X obj 104 138 bng 15 50 50 0 empty empty empty 17 7 0 10 -262144 -226533
-1;
#X obj 103 107 cnv 5 5 5 empty empty CLOCK-IN 0 0 0 8 -262144 -226533
0;
#X obj 524 326 *~ 1;
#N canvas 0 50 775 448 calc-bpm 0;
#X obj 224 -1 inlet;
#X obj 237 219 s \$0-bpm-r;
#X obj 213 107 timer;
#X obj 234 194 /;
#X msg 235 173 60000 \$1;
#X obj 333 220 outlet;
#X obj 262 83 spigot 1;
#X obj 275 29 t b b b;
#X msg 342 89 0;
#X msg 293 61 1;
#X obj 342 66 delay 2000;
#X obj 358 166 s \$0-playing-rcv;
#X connect 0 0 7 0;
#X connect 2 0 4 0;
#X connect 3 0 1 0;
#X connect 3 0 5 0;
#X connect 4 0 3 0;
#X connect 6 0 2 1;
#X connect 7 0 2 0;
#X connect 7 0 9 0;
#X connect 7 1 6 0;
#X connect 7 2 10 0;
#X connect 8 0 6 1;
#X connect 8 0 11 0;
#X connect 9 0 6 1;
#X connect 9 0 11 0;
#X connect 10 0 8 0;
#X restore 727 312 pd calc-bpm;
#X obj 291 205 t l b;
#X obj 448 201 delay 2000;
#X msg 448 224 1;
#X msg 487 227 0;
#X obj 428 163 s \$0-bpm-r;
#X obj 327 134 route position playing bpm;
#X obj 358 492 sig~;
#X obj 123 138 tgl 15 0 empty \$0-playing-rcv playing 17 7 0 10 -262144
-1 -1 1 1;
#X obj 729 392 ftom;
#X obj 729 337 * 440;
#X obj 729 365 / 120;
#X obj 726 455 / 127;
#X obj 727 424 - 69;
#X obj 726 488 clip -1 1;
#X obj 635 530 lop~ 0.5;
#X obj 358 166 s \$0-playing-rcv;
#X obj 462 415 r \$0-playing-rcv;
#X connect 2 0 26 0;
#X connect 5 0 6 0;
#X connect 6 0 7 0;
#X connect 7 0 14 0;
#X connect 8 0 9 0;
#X connect 9 0 10 0;
#X connect 14 0 8 0;
#X connect 14 1 17 0;
#X connect 15 0 19 0;
#X connect 16 0 17 0;
#X connect 16 0 20 0;
#X connect 19 0 16 0;
#X connect 19 0 10 0;
#X connect 20 0 30 0;
#X connect 21 0 5 0;
#X connect 21 1 22 0;
#X connect 21 1 24 0;
#X connect 22 0 23 0;
#X connect 23 0 19 1;
#X connect 24 0 19 1;
#X connect 26 0 21 0;
#X connect 26 1 36 0;
#X connect 26 2 25 0;
#X connect 27 0 0 0;
#X connect 29 0 33 0;
#X connect 30 0 31 0;
#X connect 31 0 29 0;
#X connect 32 0 34 0;
#X connect 33 0 32 0;
#X connect 34 0 35 0;
#X connect 35 0 13 0;
#X connect 37 0 27 0;
#X coords 0 -1 1 1 150 75 2 100 100;
