#N canvas 678 114 1554 904 10;
#X obj 304 769 outlet~;
#X obj 130 275 r playhead;
#X obj 96 398 unpack f f f;
#X obj 87 515 int;
#X obj 87 537 change;
#X msg 67 632 1 0 \, 0 1 1;
#X obj 43 666 vline~;
#X obj 61 764 outlet~;
#X obj 632 769 outlet~;
#X obj 87 559 t b b;
#X obj 171 611 inlet~;
#X obj 175 818 threshold~ 0.99 0 0.99 0;
#X obj 173 652 *~ 1;
#N canvas 1143 87 775 448 calc-bpm 0;
#X obj 224 -1 inlet;
#X obj 218 149 timer;
#X obj 234 194 /;
#X msg 235 173 60000 \$1;
#X obj 236 227 outlet;
#X obj 265 125 spigot 1;
#X obj 275 29 t b b b;
#X msg 342 89 0;
#X msg 293 61 1;
#X obj 342 66 delay 2000;
#X obj 358 166 s \$0-playing-rcv;
#X obj 493 163 s \$0-reset;
#X obj 417 115 delay 1;
#X connect 0 0 6 0;
#X connect 1 0 3 0;
#X connect 2 0 4 0;
#X connect 3 0 2 0;
#X connect 5 0 1 1;
#X connect 6 0 1 0;
#X connect 6 0 8 0;
#X connect 6 1 5 0;
#X connect 6 2 9 0;
#X connect 7 0 5 1;
#X connect 7 0 10 0;
#X connect 8 0 5 1;
#X connect 8 0 10 0;
#X connect 9 0 7 0;
#X connect 9 0 12 0;
#X connect 12 0 11 0;
#X restore 178 848 pd calc-bpm;
#X obj 94 369 t l b;
#X obj 273 397 delay 2000;
#X obj 306 745 sig~;
#X obj 631 622 ftom;
#X obj 631 567 * 440;
#X obj 631 595 / 120;
#X obj 628 685 / 127;
#X obj 629 654 - 69;
#X obj 628 718 clip -1 1;
#X obj 640 742 lop~ 0.5;
#X obj 153 366 s \$0-playing-rcv;
#X obj 303 721 r \$0-playing-rcv;
#X obj 86 481 * 4;
#X obj 289 315 unpack f f;
#X obj 130 298 route position playing bpm timesig;
#X msg 488 719 1 0 \, 0 1 1;
#X obj 488 741 vline~;
#X obj 488 763 outlet~;
#X obj 305 578 int;
#X obj 305 501 / 4;
#X obj 305 526 * 4;
#X obj 305 551 / 4;
#X obj 340 526 r \$0-numerator-s;
#X obj 336 493 r \$0-denumerator-s;
#X obj 287 338 s \$0-numerator-s;
#X obj 394 340 s \$0-denumerator-s;
#X obj 129 437 r \$0-denumerator-s;
#X obj 489 694 r \$0-reset;
#N canvas 487 405 630 527 synchro-cycles-gui 0;
#X obj 96 12 r \$0-cycle-s;
#X obj 125 61 - 1;
#X msg 125 83 set \$1;
#X obj 125 105 s \$0-mes-r;
#X obj 188 18 r \$0-mes-s;
#X obj 188 40 + 1;
#X obj 188 64 s \$0-cycle-s;
#X obj 27 73 s \$0-cycle-r;
#X msg 24 42 set \$1;
#X obj 59 157 > 6;
#X obj 59 201 select 0 1;
#X obj 63 246 s \$0-mes-r;
#X obj 59 179 change -1;
#X msg 63 224 color 64 44 -1;
#X msg 181 214 color 64 64 -1;
#X connect 0 0 1 0;
#X connect 0 0 8 0;
#X connect 0 0 9 0;
#X connect 1 0 2 0;
#X connect 2 0 3 0;
#X connect 4 0 5 0;
#X connect 5 0 6 0;
#X connect 8 0 7 0;
#X connect 9 0 12 0;
#X connect 10 0 13 0;
#X connect 10 1 14 0;
#X connect 12 0 10 0;
#X connect 13 0 11 0;
#X connect 14 0 11 0;
#X restore 367 80 pd synchro-cycles-gui;
#X obj 308 601 change;
#X obj 312 624 mod 1;
#X obj 366 599 r \$0-cycle-s;
#X obj 312 646 select 0;
#X obj 114 584 s \$0-clk-out-r;
#X obj 268 848 s \$0-clk-out-r;
#X obj 312 669 s \$0-reset;
#N canvas 2 455 630 527 beat-mult-gui 0;
#X obj 59 157 > 6;
#X obj 59 201 select 0 1;
#X obj 59 179 change -1;
#X obj 59 9 r \$0-beat-mult-s;
#X msg 210 65 set \$1;
#X msg 24 42 set \$1;
#X obj 4 80 s \$0-beat-mult-r;
#X obj 208 18 r \$0-beat-mult-s;
#X obj 208 40 - 1;
#X obj 208 87 s \$0-beat-mult-radio-r;
#X obj 63 246 s \$0-beat-mult-radio-r;
#X obj 149 119 r \$0-beat-mult-radio-s;
#X obj 149 141 + 1;
#X obj 151 165 s \$0-beat-mult-s;
#X floatatom 306 168 5 0 0 0 - - - 0;
#X msg 63 224 color 64 44 -1;
#X msg 181 214 color 64 64 -1;
#X connect 0 0 2 0;
#X connect 1 0 15 0;
#X connect 1 1 16 0;
#X connect 2 0 1 0;
#X connect 3 0 5 0;
#X connect 4 0 9 0;
#X connect 5 0 6 0;
#X connect 7 0 8 0;
#X connect 7 0 0 0;
#X connect 8 0 4 0;
#X connect 11 0 12 0;
#X connect 12 0 13 0;
#X connect 14 0 16 0;
#X connect 15 0 10 0;
#X connect 16 0 10 0;
#X restore 371 52 pd beat-mult-gui;
#X obj 91 420 / 4;
#X obj 52 458 * 1;
#X obj 108 234 r \$0-beat-mult-s;
#X obj 195 157 cnv 15 50 35 empty empty empty 20 12 0 14 #fcfcc4 #404040 0;
#X obj 102 121 cnv 5 5 5 empty empty PLAYHEAD 0 0 0 12 #fcfcfc #404040 0;
#X obj 103 187 cnv 5 5 5 empty empty CLK-OUT 0 0 0 8 #fcfcfc #dc4c90 0;
#X obj 152 187 cnv 5 5 5 empty empty PLAYING 0 0 0 8 #fcfcfc #dc4c90 0;
#X obj 270 187 cnv 5 5 5 empty empty BPM-RATE -20 0 0 8 #fcfcfc #dc4c90 0;
#X obj 104 165 bng 15 50 50 0 empty \$0-clk-out-r empty 17 7 0 10 #fcfcfc #dc4c90 #000000;
#X obj 103 107 cnv 5 5 5 empty empty CLOCK-IN 0 0 0 8 #fcfcfc #dc4c90 0;
#X obj 162 165 tgl 15 0 empty \$0-playing-rcv empty 0 7 0 10 #fcfcfc #000000 #000000 0 1;
#X obj 202 187 cnv 5 5 5 empty empty RESET 0 0 0 8 #fcfcc4 #dc4c90 0;
#X obj 216 165 bng 15 50 50 0 empty \$0-reset empty 17 7 0 10 #fcfcfc #dc4c90 #000000;
#X floatatom 265 164 5 0 0 0 BPM \$0-bpm-r \$0-bpm-s 0;
#X obj 167 102 cnv 15 130 60 empty \$0-plugin_name-r plugdata 2 12 0 26 #fcfcc4 #e0c4fc 0;
#X obj 172 146 hradio 15 1 0 6 \$0-mes-s \$0-mes-r synchro(bar) 2 7 0 10 #fce0c0 #fcac44 #000000 0;
#X floatatom 265 145 5 1 999 2 - \$0-cycle-r \$0-cycle-s 0;
#X obj 172 127 hradio 15 1 0 6 \$0-beat-mult-radio-s \$0-beat-mult-radio-r beat-multiply 2 7 0 10 #fce0c0 #fcac44 #000000 0;
#X floatatom 265 126 5 0.125 999 2 - \$0-beat-mult-r \$0-beat-mult-s 0;
#N canvas 0 57 1920 1023 state-saving-multiple-instances 1;
#X obj 215 28 loadbang;
#X msg 518 463 rewind;
#X msg 475 463 bang;
#X obj 475 424 t b b;
#X obj 120 356 f;
#X obj 133 579 f;
#X obj 66 422 t b b b;
#X msg 196 579 clear;
#X obj 281 216 outlet;
#X text 277 236 INSTANCE NUMBER;
#X obj 242 92 f \$1;
#X obj 242 128 t f f f;
#X obj 215 61 t b b;
#X obj 66 331 bng 15 250 50 0 empty \$0-save-s empty 17 7 0 10 #fcfcfc #000000 #000000;
#X obj 66 235 r SAVE-S;
#X obj 119 690 reloaded/textfile \$0;
#X obj 165 337 r \$0-cycle-s;
#X obj 135 317 r \$0-beat-mult-s;
#X msg 132 650 write statesave/\$1-playhead-ss.txt;
#X msg 261 455 read statesave/\$1-playhead-ss.txt;
#X obj 261 604 s \$0-beat-mult-s;
#X obj 318 570 s \$0-cycle-s;
#X obj 120 399 pack f f f;
#X msg 120 438 set \$1 \$2 \$3;
#X obj 203 369 r \$0-bpm-s;
#X obj 261 502 unpack f f f;
#X obj 338 530 s \$0-bpm-s;
#X obj 261 480 reloaded/textfile \$0 init;
#X connect 0 0 12 0;
#X connect 1 0 27 0;
#X connect 2 0 27 0;
#X connect 3 0 2 0;
#X connect 3 1 1 0;
#X connect 4 0 22 0;
#X connect 5 0 18 0;
#X connect 6 0 5 0;
#X connect 6 1 4 0;
#X connect 6 2 7 0;
#X connect 7 0 15 0;
#X connect 10 0 11 0;
#X connect 11 0 5 1;
#X connect 11 1 19 0;
#X connect 11 2 8 0;
#X connect 12 0 3 0;
#X connect 12 1 10 0;
#X connect 13 0 6 0;
#X connect 14 0 13 0;
#X connect 16 0 22 1;
#X connect 17 0 4 1;
#X connect 18 0 15 0;
#X connect 19 0 27 0;
#X connect 22 0 23 0;
#X connect 23 0 15 0;
#X connect 24 0 22 2;
#X connect 25 0 20 0;
#X connect 25 1 21 0;
#X connect 25 2 26 0;
#X connect 27 0 25 0;
#X restore 594 355 pd state-saving-multiple-instances;
#X obj 599 436 s \$0-instance-num;
#X obj 599 388 makefilename %d;
#X obj 162 121 cnv 5 5 5 empty \$0-instance-num 1 0 0 0 12 #fcfcfc #404040 0;
#X msg 599 413 label \$1;
#X obj 10 50 reloaded playhead \$0 \$1;
#X obj 50 10 savestate;
#N canvas 2 682 450 300 \$0-gui_listeners 0;
#X obj 10 0 reloaded/hradio_dispatch playhead \$0 \$1 0 5 beat-mult-radio-s beat-mult-radio-r beat-multiply #FFE2C2 #FFAE44 #000000;
#X obj 10 60 reloaded/hradio_dispatch playhead \$0 \$1 0 5 mes-s mes-r synchro(bar) #FFE2C2 #FFAE44 #000000;
#X restore 10 80 pd \$0-gui_listeners;
#X obj 105 144 tgl 15 0 \$0-int_clock \$0-int_clock-rcv clock 17 7 0 10 #888888 #888888 #000000 0 1;
#X obj 280 366 s \$0-bpm-s;
#X obj 624 529 r \$0-bpm-s;
#X obj 179 871 s \$0-bpm-s;
#N canvas 2 682 450 300 bpm-gui 0;
#X obj 67 25 r \$0-bpm-s;
#X msg 67 142 set \$1;
#X obj 67 164 s \$0-bpm-r;
#X obj 67 94 int;
#X obj 67 58 + 0.5;
#X connect 0 0 4 0;
#X connect 1 0 2 0;
#X connect 3 0 1 0;
#X connect 4 0 3 0;
#X restore 366 113 pd bpm-gui;
#X obj 162 513 r \$0-playhead_inactive;
#X obj 434 425 s \$0-playhead_inactive;
#X msg 272 421 1;
#X msg 312 423 0;
#X obj 115 730 clip~ 0 1;
#N canvas 0 282 866 630 internal_clock 0;
#X obj 205 65 r \$0-bpm-s;
#X msg 205 87 tempo \$1 permin;
#X obj 325 99 /;
#X msg 325 74 1 \$1;
#X text 356 100 beat length;
#X obj 326 54 r \$0-beat-mult-s;
#X obj 131 27 r \$0-playhead_inactive;
#X obj 133 59 t b f;
#X obj 108 92 * 1;
#X msg 178 183 1 0 \, 0 1 1;
#X obj 186 223 vline~;
#X obj 184 257 *~ 1;
#X obj 24 42 r \$0-int_clock;
#X obj 184 280 outlet~;
#X obj 28 120 inlet sync;
#X obj 122 140 == 0;
#X obj 85 183 spigot 1;
#X obj 358 166 r \$0-playing-rcv;
#X obj 358 189 select 0;
#X msg 358 212 0;
#X obj 248 149 s \$0-clk-out-r;
#X obj 108 115 t f f f;
#X obj 584 263 r \$0-playhead_inactive;
#X obj 471 263 r \$0-int_clock;
#X obj 557 312 f;
#X obj 584 286 t b f;
#X obj 563 371 s \$0-playing-rcv;
#X obj 544 338 spigot 1;
#X obj 207 115 metro;
#X connect 0 0 1 0;
#X connect 1 0 28 0;
#X connect 2 0 28 1;
#X connect 3 0 2 0;
#X connect 5 0 3 0;
#X connect 6 0 7 0;
#X connect 7 0 8 0;
#X connect 7 1 8 1;
#X connect 7 1 11 1;
#X connect 8 0 21 0;
#X connect 9 0 10 0;
#X connect 10 0 11 0;
#X connect 11 0 13 0;
#X connect 12 0 8 0;
#X connect 14 0 16 0;
#X connect 15 0 16 1;
#X connect 16 0 28 0;
#X connect 17 0 18 0;
#X connect 18 0 19 0;
#X connect 19 0 16 0;
#X connect 21 0 15 0;
#X connect 21 2 28 0;
#X connect 22 0 25 0;
#X connect 23 0 24 0;
#X connect 24 0 27 0;
#X connect 25 0 24 0;
#X connect 25 1 27 1;
#X connect 27 0 26 0;
#X connect 28 0 9 0;
#X connect 28 0 20 0;
#X restore 216 693 pd internal_clock;
#X obj 229 595 r \$0-int_clock;
#X obj 229 618 == 0;
#X obj 144 692 *~ 1;
#X text 103 128 internal;
#X obj 426 393 change -1;
#N canvas 0 0 557 482 gui-update 0;
#X obj 59 167 s \$0-numerator-r;
#X obj 181 175 s \$0-denumerator-r;
#X obj 54 104 r \$0-numerator-s;
#X obj 181 97 r \$0-denumerator-s;
#X msg 54 126 set \$1;
#X msg 181 119 set \$1;
#X msg 321 129 set \$1;
#X obj 321 107 r \$0-bpm-s;
#X obj 321 185 s \$0-bpm-r;
#X obj 162 323 r \$0-playhead_inactive;
#X obj 162 346 select 0 1;
#X msg 161 392 color #888888 #888888 #000000;
#X msg 365 385 color #FFFFFF #000000 #000000;
#X obj 262 428 s \$0-int_clock-rcv;
#X connect 2 0 4 0;
#X connect 3 0 5 0;
#X connect 4 0 0 0;
#X connect 5 0 1 0;
#X connect 6 0 8 0;
#X connect 7 0 6 0;
#X connect 9 0 10 0;
#X connect 10 0 11 0;
#X connect 10 1 12 0;
#X connect 11 0 13 0;
#X connect 12 0 13 0;
#X restore 674 48 pd gui-update;
#X obj 135 77 namecanvas \$0-this;
#X obj 165 330 change;
#N canvas 0 50 450 300 camomile/plugdata_detect 0;
#X obj 253 176 vradio 14 1 0 2 \$0-plugin_type-s \$0-plugin_type-r empty 0 -9 0 10 #feffc6 #000000 #000000 0;
#X obj 57 138 select 0 1;
#X msg 52 221 label camomile;
#X msg 62 251 label plugdata;
#X obj 52 281 s \$0-plugin_name-r;
#X obj 45 169 bng 25 250 50 0 empty empty empty 17 7 0 10 #e4e4e4 #5a5a5a #5a5a5a;
#X obj 106 178 bng 25 250 50 0 empty empty empty 17 7 0 10 #e4e4e4 #5a5a5a #5a5a5a;
#X obj 57 110 r \$0-plugin_type-s;
#X obj 546 140 loadbang;
#X obj 546 163 delay 100;
#X obj 546 186 v IS_CAMOMILE;
#X obj 546 209 == 0;
#X obj 546 232 s \$0-plugin_type-s;
#X text 278 173 0 = camomile;
#X text 278 193 1 = plugdata;
#X connect 1 0 2 0;
#X connect 1 0 5 0;
#X connect 1 1 3 0;
#X connect 1 1 6 0;
#X connect 2 0 4 0;
#X connect 3 0 4 0;
#X connect 7 0 1 0;
#X connect 8 0 9 0;
#X connect 9 0 10 0;
#X connect 10 0 11 0;
#X connect 11 0 12 0;
#X restore 460 173 pd camomile/plugdata_detect;
#X obj 516 361 loadbang;
#X msg 516 390 1;
#X connect 1 0 28 0;
#X connect 2 0 33 0;
#X connect 2 0 51 0;
#X connect 3 0 4 0;
#X connect 4 0 9 0;
#X connect 5 0 6 0;
#X connect 6 0 7 0;
#X connect 9 0 5 0;
#X connect 9 1 47 0;
#X connect 10 0 12 0;
#X connect 11 0 13 0;
#X connect 11 0 48 0;
#X connect 11 0 88 0;
#X connect 12 0 11 0;
#X connect 12 0 91 0;
#X connect 13 0 81 0;
#X connect 14 0 2 0;
#X connect 14 1 15 0;
#X connect 14 1 86 0;
#X connect 15 0 85 0;
#X connect 16 0 0 0;
#X connect 17 0 21 0;
#X connect 18 0 19 0;
#X connect 19 0 17 0;
#X connect 20 0 22 0;
#X connect 21 0 20 0;
#X connect 22 0 23 0;
#X connect 23 0 8 0;
#X connect 25 0 16 0;
#X connect 26 0 3 0;
#X connect 27 0 38 0;
#X connect 27 1 39 0;
#X connect 28 0 14 0;
#X connect 28 1 96 0;
#X connect 28 2 79 0;
#X connect 28 3 27 0;
#X connect 29 0 30 0;
#X connect 30 0 31 0;
#X connect 32 0 43 0;
#X connect 33 0 34 0;
#X connect 34 0 35 0;
#X connect 35 0 32 0;
#X connect 36 0 35 1;
#X connect 37 0 34 1;
#X connect 40 0 26 1;
#X connect 41 0 29 0;
#X connect 43 0 44 0;
#X connect 44 0 46 0;
#X connect 45 0 44 1;
#X connect 46 0 49 0;
#X connect 51 0 52 0;
#X connect 52 0 26 0;
#X connect 53 0 52 1;
#X connect 70 0 72 0;
#X connect 72 0 74 0;
#X connect 74 0 71 0;
#X connect 75 0 76 0;
#X connect 76 0 75 0;
#X connect 76 1 75 1;
#X connect 80 0 18 0;
#X connect 83 0 12 1;
#X connect 85 0 93 0;
#X connect 86 0 93 0;
#X connect 87 0 7 0;
#X connect 88 0 87 0;
#X connect 89 0 90 0;
#X connect 90 0 91 1;
#X connect 91 0 87 0;
#X connect 93 0 84 0;
#X connect 96 0 24 0;
#X connect 98 0 99 0;
#X connect 99 0 84 0;
#X coords 0 -1 1 1 200 95 2 100 100;
