#N canvas 0 23 808 527 10;
#X obj 418 248 *~;
#X obj 106 137 hsl 128 15 0 127 0 1 \$0-polarizer-pol-/+-s \$0-polarizer-pol-/+-r
POL-/+ 133 7 0 10 -150893 -1 -1 6990 1;
#X obj 433 61 / 127;
#X obj 433 83 * 2;
#X obj 433 105 - 1;
#X obj 433 127 t f f;
#X obj 433 149 pack 0 50;
#X obj 433 171 line~;
#X floatatom 204 123 5 0 0 0 - - -, f 5;
#X obj 415 30 inlet~;
#X obj 419 475 outlet~;
#X obj 155 109 cnv 5 5 5 empty empty POLARIZER 0 0 0 12 -262144 -66577
0;
#X obj 103 111 cnv 5 5 5 empty empty IN 0 0 0 8 -262144 -66577 0;
#N canvas 21 22 720 746 state-saving-multiple-instances 0;
#X obj 215 28 loadbang;
#X obj 261 480 textfile;
#X msg 556 463 rewind;
#X msg 513 463 bang;
#X obj 119 690 textfile;
#X obj 513 424 t b b;
#X obj 120 356 f;
#X obj 133 579 f;
#X obj 66 422 t b b b;
#X msg 196 579 clear;
#X obj 281 216 outlet;
#X text 277 236 INSTANCE NUMBER;
#X obj 242 92 f \$1;
#X obj 242 128 t f f f;
#X obj 215 61 t b b;
#X obj 66 331 bng 15 250 50 0 empty empty empty 17 7 0 10 -262144 -1
-1;
#X obj 66 235 r SAVE-S;
#X msg 132 648 write statesave/\$1-polarizer-ss.txt;
#X msg 262 455 read statesave/\$1-polarizer-ss.txt;
#X obj 135 307 r \$0-polarizer-pol-/+-s;
#X obj 261 625 s \$0-polarizer-pol-/+-r;
#X obj 120 399 pack f f;
#X msg 120 438 set \$1 \$2;
#X obj 261 505 unpack f f;
#X obj 318 572 s \$0-polarizer-offset-r;
#X obj 169 361 r \$0-polarizer-offset-s;
#N canvas 0 22 1069 747 morph-parameters 0;
#X obj 176 94 inlet;
#X obj 176 236 pack f f;
#X obj 176 261 line;
#X obj 209 117 r preset-manager-morph-s;
#X msg 72 244 stop;
#X obj 72 214 r STOP-MORPH!;
#X obj 209 206 spigot;
#X obj 398 137 t f f;
#X obj 455 154 == 0;
#X obj 221 176 f;
#X floatatom 455 222 5 0 0 0 - - -, f 5;
#X obj 398 159 t b f;
#X floatatom 425 192 5 0 0 0 - - -, f 5;
#X obj 209 139 t f f;
#X obj 398 102 r parameters-s;
#X obj 176 288 outlet;
#X connect 0 0 1 0;
#X connect 1 0 2 0;
#X connect 2 0 15 0;
#X connect 3 0 13 0;
#X connect 4 0 2 0;
#X connect 5 0 4 0;
#X connect 6 0 1 1;
#X connect 7 0 11 0;
#X connect 7 1 8 0;
#X connect 8 0 10 0;
#X connect 9 0 6 0;
#X connect 10 0 1 1;
#X connect 11 0 9 0;
#X connect 11 1 12 0;
#X connect 12 0 6 1;
#X connect 13 0 6 0;
#X connect 13 1 9 1;
#X connect 14 0 7 0;
#X restore 318 548 pd morph-parameters;
#N canvas 0 22 1069 747 morph-attenuators 0;
#X obj 176 94 inlet;
#X obj 176 236 pack f f;
#X obj 176 261 line;
#X obj 209 117 r preset-manager-morph-s;
#X msg 72 244 stop;
#X obj 72 214 r STOP-MORPH!;
#X obj 209 206 spigot;
#X obj 398 137 t f f;
#X obj 455 154 == 0;
#X obj 221 176 f;
#X floatatom 455 222 5 0 0 0 - - -, f 5;
#X obj 398 159 t b f;
#X floatatom 425 192 5 0 0 0 - - -, f 5;
#X obj 209 139 t f f;
#X obj 398 102 r attenuators-s;
#X obj 176 288 outlet;
#X connect 0 0 1 0;
#X connect 1 0 2 0;
#X connect 2 0 15 0;
#X connect 3 0 13 0;
#X connect 4 0 2 0;
#X connect 5 0 4 0;
#X connect 6 0 1 1;
#X connect 7 0 11 0;
#X connect 7 1 8 0;
#X connect 8 0 10 0;
#X connect 9 0 6 0;
#X connect 10 0 1 1;
#X connect 11 0 9 0;
#X connect 11 1 12 0;
#X connect 12 0 6 1;
#X connect 13 0 6 0;
#X connect 13 1 9 1;
#X connect 14 0 7 0;
#X restore 261 599 pd morph-attenuators;
#X connect 0 0 14 0;
#X connect 1 0 23 0;
#X connect 2 0 1 0;
#X connect 3 0 1 0;
#X connect 5 0 3 0;
#X connect 5 1 2 0;
#X connect 6 0 21 0;
#X connect 7 0 17 0;
#X connect 8 0 7 0;
#X connect 8 1 6 0;
#X connect 8 2 9 0;
#X connect 9 0 4 0;
#X connect 12 0 13 0;
#X connect 13 0 7 1;
#X connect 13 1 18 0;
#X connect 13 2 10 0;
#X connect 14 0 5 0;
#X connect 14 1 12 0;
#X connect 15 0 8 0;
#X connect 16 0 15 0;
#X connect 17 0 4 0;
#X connect 18 0 1 0;
#X connect 19 0 6 1;
#X connect 21 0 22 0;
#X connect 22 0 4 0;
#X connect 23 0 27 0;
#X connect 23 1 26 0;
#X connect 25 0 21 1;
#X connect 26 0 24 0;
#X connect 27 0 20 0;
#X restore 520 371 pd state-saving-multiple-instances;
#X obj 520 445 s \$0-instance-num;
#X obj 520 397 makefilename %d;
#X obj 225 109 cnv 5 5 5 empty \$0-instance-num 1 0 0 0 12 -262144
-66577 0;
#X msg 520 422 label \$1;
#X obj 106 152 hsl 128 15 0 127 0 0 \$0-polarizer-offset-s \$0-polarizer-offset-r
OFFSET 133 7 0 10 -262144 -1 -1 0 1;
#X obj 434 275 / 127;
#X obj 419 412 +~;
#X obj 419 434 clip~ -1 1;
#X obj 434 297 * 2;
#X obj 434 319 - 1;
#X obj 434 341 t f f;
#X obj 434 363 pack 0 50;
#X obj 434 385 line~;
#N canvas 81 22 1117 745 state-saving-via-preset-manager-module 0;
#X obj 477 349 textfile;
#X msg 755 332 rewind;
#X msg 712 332 bang;
#X obj 243 690 textfile;
#X obj 712 293 t b b;
#X obj 244 356 f;
#X obj 257 579 f;
#X obj 190 422 t b b b;
#X msg 320 579 clear;
#X obj 244 399 pack f f;
#X msg 244 438 set \$1 \$2;
#X obj 477 371 unpack f f;
#X floatatom 325 391 5 0 0 0 - - -, f 5;
#X obj 244 264 delay 5;
#X obj 190 484 delay 10;
#X msg 190 314 bang;
#X obj 190 147 r STORE-S!;
#X obj 477 250 f;
#X obj 450 207 t b b;
#X obj 465 171 t b f;
#X obj 522 268 f \$1;
#X obj 477 295 pack f f;
#X obj 522 218 loadbang;
#X obj 257 609 pack f f;
#X obj 302 467 loadbang;
#X obj 302 489 f \$1;
#X obj 476 566 pack f f;
#X obj 476 590 line;
#X obj 521 541 r preset-manager-morph-s;
#X obj 465 148 r preset-manager-scan;
#X obj 534 470 pack f f;
#X obj 534 494 line;
#X obj 579 445 r preset-manager-morph-s;
#X obj 279 148 r preset-manager-store-slot;
#X msg 928 577 stop;
#X obj 928 542 r STOP-MORPH!;
#X msg 256 650 write statesave/\$1-\$2-polarizer-ss.txt;
#X msg 477 324 read statesave/\$1-\$2-polarizer-ss.txt;
#X obj 259 308 r \$0-polarizer-pol-/+-s;
#X obj 476 615 s \$0-polarizer-pol-/+-r;
#X obj 289 355 r \$0-polarizer-offset-s;
#X obj 534 517 s \$0-polarizer-offset-r;
#X connect 0 0 11 0;
#X connect 1 0 0 0;
#X connect 2 0 0 0;
#X connect 4 0 2 0;
#X connect 4 1 1 0;
#X connect 5 0 9 0;
#X connect 6 0 23 0;
#X connect 7 0 14 0;
#X connect 7 1 13 0;
#X connect 7 2 8 0;
#X connect 8 0 3 0;
#X connect 9 0 10 0;
#X connect 10 0 3 0;
#X connect 11 0 26 0;
#X connect 11 1 30 0;
#X connect 13 0 5 0;
#X connect 14 0 6 0;
#X connect 15 0 7 0;
#X connect 16 0 15 0;
#X connect 17 0 21 0;
#X connect 18 0 4 0;
#X connect 18 1 17 0;
#X connect 19 0 18 0;
#X connect 19 1 17 1;
#X connect 20 0 21 1;
#X connect 21 0 37 0;
#X connect 22 0 20 0;
#X connect 23 0 36 0;
#X connect 24 0 25 0;
#X connect 25 0 23 1;
#X connect 26 0 27 0;
#X connect 27 0 39 0;
#X connect 28 0 26 1;
#X connect 29 0 19 0;
#X connect 30 0 31 0;
#X connect 31 0 41 0;
#X connect 32 0 30 1;
#X connect 33 0 6 1;
#X connect 34 0 27 0;
#X connect 34 0 31 0;
#X connect 35 0 34 0;
#X connect 36 0 3 0;
#X connect 37 0 0 0;
#X connect 38 0 5 1;
#X connect 40 0 9 1;
#X connect 40 0 12 0;
#X restore 520 469 pd state-saving-via-preset-manager-module;
#X floatatom 103 167 5 0 0 0 - - -, f 5;
#X obj 553 177 inlet~;
#X obj 433 193 +~;
#X obj 433 215 clip~ -1 1;
#N canvas 297 27 748 331 parameter-nudging-system 0;
#X obj 23 67 clip 0 127;
#X obj 171 67 clip 0 127;
#X obj 23 22 r \$0-polarizer-pol-/+-s;
#X obj 23 95 s \$0-polarizer-pol-/+-r;
#X obj 171 22 r \$0-polarizer-offset-s;
#X obj 171 95 s \$0-polarizer-offset-r;
#N canvas 0 22 484 497 nudge-attenuators 0;
#X obj 124 234 random;
#X obj 232 335 f;
#X obj 232 368 +;
#X obj 257 166 random 2;
#X obj 124 275 t f f;
#X obj 124 351 t b f;
#X obj 124 297 *;
#X obj 257 188 sel 0 1;
#X msg 257 280 -1;
#X msg 335 280 1;
#X obj 124 149 t b b b;
#X obj 124 71 r NUDGE!;
#X obj 157 193 r NUDGE-RANGE;
#X obj 247 308 inlet;
#X obj 232 397 outlet;
#X obj 124 93 spigot;
#X obj 201 76 r attenuators2-s;
#X connect 0 0 4 0;
#X connect 1 0 2 0;
#X connect 2 0 14 0;
#X connect 3 0 7 0;
#X connect 4 0 6 0;
#X connect 5 0 2 0;
#X connect 5 1 2 1;
#X connect 6 0 5 0;
#X connect 7 0 8 0;
#X connect 7 1 9 0;
#X connect 8 0 6 1;
#X connect 9 0 6 1;
#X connect 10 0 0 0;
#X connect 10 1 1 0;
#X connect 10 2 3 0;
#X connect 11 0 15 0;
#X connect 12 0 0 1;
#X connect 13 0 1 1;
#X connect 15 0 10 0;
#X connect 16 0 15 1;
#X restore 23 44 pd nudge-attenuators;
#N canvas 0 22 484 497 nudge-parameters 0;
#X obj 124 234 random;
#X obj 232 335 f;
#X obj 232 368 +;
#X obj 257 166 random 2;
#X obj 124 275 t f f;
#X obj 124 351 t b f;
#X obj 124 297 *;
#X obj 257 188 sel 0 1;
#X msg 257 280 -1;
#X msg 335 280 1;
#X obj 124 149 t b b b;
#X obj 124 74 r NUDGE!;
#X obj 157 193 r NUDGE-RANGE;
#X obj 247 308 inlet;
#X obj 232 397 outlet;
#X obj 124 96 spigot;
#X obj 185 79 r parameters2-s;
#X connect 0 0 4 0;
#X connect 1 0 2 0;
#X connect 2 0 14 0;
#X connect 3 0 7 0;
#X connect 4 0 6 0;
#X connect 5 0 2 0;
#X connect 5 1 2 1;
#X connect 6 0 5 0;
#X connect 7 0 8 0;
#X connect 7 1 9 0;
#X connect 8 0 6 1;
#X connect 9 0 6 1;
#X connect 10 0 0 0;
#X connect 10 1 1 0;
#X connect 10 2 3 0;
#X connect 11 0 15 0;
#X connect 12 0 0 1;
#X connect 13 0 1 1;
#X connect 15 0 10 0;
#X connect 16 0 15 1;
#X restore 171 45 pd nudge-parameters;
#X connect 0 0 3 0;
#X connect 1 0 5 0;
#X connect 2 0 6 0;
#X connect 4 0 7 0;
#X connect 6 0 0 0;
#X connect 7 0 1 0;
#X restore 520 347 pd parameter-nudging-system;
#N canvas 632 73 749 752 external-messages 0;
#X floatatom 195 659 5 0 0 0 - - -, f 5;
#X obj 185 328 spigot;
#X obj 218 288 tgl 15 0 empty empty empty 17 7 0 10 -262144 -1 -1 0
1;
#X obj 254 272 ==;
#X obj 269 248 f \$1;
#X obj 269 224 loadbang;
#X msg 185 202 \$1 \$2;
#X msg 185 156 symbol \$1;
#X obj 185 180 pack s f;
#X obj 195 638 f;
#X obj 195 586 t b f;
#X obj 195 609 spigot;
#X obj 185 62 unpack s f f;
#X symbolatom 185 94 10 0 0 0 - - -, f 10;
#X obj 218 308 t f f;
#X obj 245 332 s \$0-msg-spigot;
#X obj 243 593 r \$0-msg-spigot;
#X floatatom 232 547 5 0 0 0 - - -, f 5;
#X obj 232 526 f;
#X obj 232 474 t b f;
#X obj 232 497 spigot;
#X obj 280 481 r \$0-msg-spigot;
#X obj 185 14 r polarizer;
#X obj 185 380 route POL-/+ OFFSET;
#X obj 195 679 s \$0-polarizer-pol-/+-r;
#X obj 232 567 s \$0-polarizer-offset-r;
#X connect 0 0 24 0;
#X connect 1 0 23 0;
#X connect 2 0 14 0;
#X connect 3 0 2 0;
#X connect 4 0 3 1;
#X connect 5 0 4 0;
#X connect 6 0 1 0;
#X connect 7 0 8 0;
#X connect 8 0 6 0;
#X connect 9 0 0 0;
#X connect 10 0 11 0;
#X connect 10 1 9 1;
#X connect 11 0 9 0;
#X connect 12 0 13 0;
#X connect 12 1 8 1;
#X connect 12 2 3 0;
#X connect 13 0 7 0;
#X connect 14 0 1 1;
#X connect 14 1 15 0;
#X connect 16 0 11 1;
#X connect 17 0 25 0;
#X connect 18 0 17 0;
#X connect 19 0 20 0;
#X connect 19 1 18 1;
#X connect 20 0 18 0;
#X connect 21 0 20 1;
#X connect 22 0 12 0;
#X connect 23 0 10 0;
#X connect 23 1 19 0;
#X restore 518 317 pd external-messages;
#X connect 0 0 20 0;
#X connect 1 0 2 0;
#X connect 2 0 3 0;
#X connect 3 0 4 0;
#X connect 4 0 5 0;
#X connect 5 0 6 0;
#X connect 5 1 8 0;
#X connect 6 0 7 0;
#X connect 7 0 30 0;
#X connect 9 0 0 0;
#X connect 13 0 15 0;
#X connect 15 0 17 0;
#X connect 17 0 14 0;
#X connect 18 0 19 0;
#X connect 19 0 22 0;
#X connect 20 0 21 0;
#X connect 21 0 10 0;
#X connect 22 0 23 0;
#X connect 23 0 24 0;
#X connect 24 0 25 0;
#X connect 24 1 28 0;
#X connect 25 0 26 0;
#X connect 26 0 20 1;
#X connect 29 0 30 1;
#X connect 30 0 31 0;
#X connect 31 0 0 1;
#X coords 0 -1 1 1 180 85 2 100 100;
