#N canvas 0 23 1102 752 10;
#X obj 108 131 hsl 128 15 0 127 0 1 \$0-polyfm-pitch-s \$0-polyfm-pitch-r
PITCH 135 7 0 10 -262144 -1 -1 3200 1;
#X obj 320 467 pack f f f;
#X obj 320 328 f;
#X floatatom 320 350 5 0 0 0 - - -, f 5;
#X msg 365 184 100;
#X obj 320 393 unpack f f;
#X floatatom 320 415 5 0 0 0 - - -, f 5;
#X floatatom 377 417 5 0 0 0 - - -, f 5;
#X obj 320 443 poly 4 1;
#X obj 320 492 route 1 2 3 4;
#X obj 108 161 hsl 128 15 0 127 0 1 \$0-polyfm-ratio-s \$0-polyfm-ratio-r
RATIO 135 7 0 10 -262144 -1 -1 1800 1;
#X obj 108 211 hsl 128 15 1.27 127 1 1 \$0-polyfm-attack-s \$0-polyfm-attack-r
ATTACK 135 7 0 10 -262144 -1 -1 0 1;
#X obj 108 226 hsl 128 15 0 127 0 1 \$0-polyfm-hold-s \$0-polyfm-hold-r
HOLD 135 7 0 10 -262144 -1 -1 2200 1;
#X obj 108 240 hsl 128 15 0 127 0 1 \$0-polyfm-release-s \$0-polyfm-release-r
RELEASE 135 7 0 10 -262144 -1 -1 3300 1;
#X obj 320 371 pack f f;
#X obj 320 83 threshold~ 0.9 0 0.9 0;
#X floatatom 206 116 5 0 0 0 - - -, f 5;
#X obj 471 15 inlet~ PITCH CV;
#X obj 320 61 inlet~ TRIG;
#X obj 320 152 t b b b;
#X obj 471 152 snapshot~;
#X obj 471 174 * 127;
#X obj 335 225 +;
#X obj 335 247 clip 0 127;
#X obj 471 208 t b f;
#X obj 320 632 *~ 0.25;
#X obj 591 91 env~;
#X obj 591 113 change;
#X obj 591 135 t b;
#X floatatom 416 294 5 0 0 0 - - -, f 5;
#X obj 678 697 outlet~ EG OUT;
#X obj 678 655 *~ 0.25;
#X obj 108 146 hsl 128 15 0 127 0 1 \$0-polyfm-index-s \$0-polyfm-index-r
INDEX 135 7 0 10 -262144 -1 -1 9800 1;
#N canvas 224 22 962 575 voice1-ahr 0;
#X obj 43 6 inlet;
#X obj 43 28 unpack f f;
#X obj 100 51 sel 0;
#X obj 43 149 +~;
#X obj 43 179 mtof~;
#X obj 43 495 *~;
#X obj 43 517 outlet~;
#X obj 609 145 * 0.00787402;
#X obj 608 189 + 1;
#X obj 609 121 - 1.27;
#X obj 593 385 vline~;
#X obj 781 265 * 0.00787402;
#X obj 781 309 + 1;
#X obj 781 241 - 1.27;
#X obj 593 434 *~;
#X obj 593 478 *~;
#X obj 593 219 f;
#X obj 43 50 sig~;
#X obj 609 167 * 1999;
#X obj 654 210 * 0.00787402;
#X obj 654 232 * 999;
#X obj 654 254 + 1;
#X msg 593 353 1 \$1 \, 0 \$3 \$2;
#X obj 593 241 t f f;
#X obj 593 326 pack f f f;
#X obj 620 293 +;
#X obj 781 287 * 3999;
#X obj 43 210 phasor~;
#X obj 43 328 +~;
#X obj 43 350 cos~;
#X obj 255 60 r \$0-polyfm-ratio-s;
#X obj 240 196 *~;
#X obj 255 82 * 0.00787402;
#X obj 255 104 * 7;
#X obj 255 126 + 1;
#X obj 255 148 pack 0 50;
#X obj 255 170 line~;
#X obj 240 218 osc~;
#X obj 240 240 *~;
#X obj 384 91 r \$0-polyfm-index-s;
#X obj 384 113 * 0.00787402;
#X obj 384 157 pack 0 50;
#X obj 384 179 line~;
#X obj 609 99 r \$0-polyfm-attack-s;
#X obj 654 188 r \$0-polyfm-hold-s;
#X obj 781 217 r \$0-polyfm-release-s;
#X obj 593 508 throw~ \$0-polyfm-eg;
#X obj 384 135 * 1;
#N canvas 0 22 942 604 eg2 0;
#X obj 246 99 * 0.00787402;
#X obj 245 143 + 1;
#X obj 246 75 - 1.27;
#X obj 230 339 vline~;
#X obj 418 219 * 0.00787402;
#X obj 418 263 + 1;
#X obj 418 195 - 1.27;
#X obj 230 388 *~;
#X obj 230 432 *~;
#X obj 230 173 f;
#X obj 246 121 * 1999;
#X obj 291 164 * 0.00787402;
#X obj 291 186 * 999;
#X obj 291 208 + 1;
#X msg 230 307 1 \$1 \, 0 \$3 \$2;
#X obj 230 195 t f f;
#X obj 230 280 pack f f f;
#X obj 257 247 +;
#X obj 418 241 * 3999;
#X obj 246 53 r \$0-polyfm-attack2-s;
#X obj 291 142 r \$0-polyfm-hold2-s;
#X obj 418 171 r \$0-polyfm-release2-s;
#X obj 230 18 inlet;
#X obj 230 454 outlet~;
#X connect 0 0 10 0;
#X connect 1 0 9 1;
#X connect 2 0 0 0;
#X connect 3 0 7 0;
#X connect 3 0 7 1;
#X connect 4 0 18 0;
#X connect 5 0 16 2;
#X connect 6 0 4 0;
#X connect 7 0 8 0;
#X connect 7 0 8 1;
#X connect 8 0 23 0;
#X connect 9 0 15 0;
#X connect 10 0 1 0;
#X connect 11 0 12 0;
#X connect 12 0 13 0;
#X connect 13 0 17 1;
#X connect 14 0 3 0;
#X connect 15 0 16 0;
#X connect 15 1 17 0;
#X connect 16 0 14 0;
#X connect 17 0 16 1;
#X connect 18 0 5 0;
#X connect 19 0 2 0;
#X connect 20 0 11 0;
#X connect 21 0 6 0;
#X connect 22 0 9 0;
#X restore 154 156 pd eg2;
#X obj 127 74 t b b;
#X obj 139 276 *~;
#X obj 384 201 +~;
#X obj 384 223 clip~ 0 1;
#X obj 450 184 r~ \$0-polyfm-index-cv;
#X connect 0 0 1 0;
#X connect 1 0 17 0;
#X connect 1 1 2 0;
#X connect 2 1 49 0;
#X connect 3 0 4 0;
#X connect 4 0 27 0;
#X connect 4 0 31 0;
#X connect 5 0 6 0;
#X connect 7 0 18 0;
#X connect 8 0 16 1;
#X connect 9 0 7 0;
#X connect 10 0 14 0;
#X connect 10 0 14 1;
#X connect 11 0 26 0;
#X connect 12 0 24 2;
#X connect 13 0 11 0;
#X connect 14 0 15 0;
#X connect 14 0 15 1;
#X connect 15 0 5 1;
#X connect 15 0 46 0;
#X connect 16 0 23 0;
#X connect 17 0 3 0;
#X connect 18 0 8 0;
#X connect 19 0 20 0;
#X connect 20 0 21 0;
#X connect 21 0 25 1;
#X connect 22 0 10 0;
#X connect 23 0 24 0;
#X connect 23 1 25 0;
#X connect 24 0 22 0;
#X connect 25 0 24 1;
#X connect 26 0 12 0;
#X connect 27 0 28 0;
#X connect 28 0 29 0;
#X connect 29 0 5 0;
#X connect 30 0 32 0;
#X connect 31 0 37 0;
#X connect 32 0 33 0;
#X connect 33 0 34 0;
#X connect 34 0 35 0;
#X connect 35 0 36 0;
#X connect 36 0 31 1;
#X connect 37 0 38 0;
#X connect 38 0 50 0;
#X connect 39 0 40 0;
#X connect 40 0 47 0;
#X connect 41 0 42 0;
#X connect 42 0 51 0;
#X connect 43 0 9 0;
#X connect 44 0 19 0;
#X connect 45 0 13 0;
#X connect 47 0 41 0;
#X connect 48 0 50 1;
#X connect 49 0 16 0;
#X connect 49 1 48 0;
#X connect 50 0 28 1;
#X connect 51 0 52 0;
#X connect 52 0 38 1;
#X connect 53 0 51 1;
#X restore 320 518 pd voice1-ahr;
#X obj 103 108 cnv 5 5 5 empty empty TRIG 0 0 0 8 -262144 -226533 0
;
#X obj 105 265 cnv 5 5 5 empty empty modulator-EG 0 0 0 12 -262144
-66577 0;
#X obj 178 121 cnv 5 5 5 empty \$0-instance-num 1 0 0 0 12 -262144
-66577 0;
#X obj 106 113 bng 15 50 50 0 empty empty empty 17 7 0 10 -262144 -226533
-1;
#N canvas 315 35 593 735 state-saving-multiple-instances 0;
#X obj 137 29 loadbang;
#X obj 294 447 textfile;
#X msg 576 430 rewind;
#X msg 533 430 bang;
#X obj 42 691 textfile;
#X obj 533 391 t b b;
#X obj 43 357 f;
#X obj 56 580 f;
#X obj -16 401 t b b b;
#X msg 119 580 clear;
#X obj 204 147 outlet;
#X text 246 151 INSTANCE NUMBER;
#X obj 165 83 f \$1;
#X obj 165 119 t f f f;
#X obj 138 62 t b b;
#X obj -16 378 bng 15 250 50 0 empty empty empty 17 7 0 10 -262144
-1 -1;
#X obj -16 234 r SAVE-S;
#X msg 43 438 set \$1 \$2 \$3 \$4 \$5 \$6 \$7 \$8 \$9;
#X msg 55 651 write statesave/\$1-polyfm-ss.txt;
#X msg 294 422 read statesave/\$1-polyfm-ss.txt;
#X obj 43 400 pack f f f f f f f f f;
#X obj 294 469 unpack f f f f f f f f f;
#X obj 50 156 r \$0-polyfm-pitch-s;
#X obj 285 698 s \$0-polyfm-pitch-r;
#X obj 58 179 r \$0-polyfm-index-s;
#X obj 306 674 s \$0-polyfm-index-r;
#X obj 72 200 r \$0-polyfm-ratio-s;
#X obj 327 650 s \$0-polyfm-ratio-r;
#X obj 90 225 r \$0-polyfm-attack-s;
#X obj 348 626 s \$0-polyfm-attack-r;
#X obj 115 254 r \$0-polyfm-hold-s;
#X obj 376 600 s \$0-polyfm-hold-r;
#X obj 136 277 r \$0-polyfm-release-s;
#X obj 391 570 s \$0-polyfm-release-r;
#X obj 148 305 r \$0-polyfm-attack2-s;
#X obj 407 542 s \$0-polyfm-attack2-r;
#X obj 173 334 r \$0-polyfm-hold2-s;
#X obj 435 516 s \$0-polyfm-hold2-r;
#X obj 194 357 r \$0-polyfm-release2-s;
#X obj 450 486 s \$0-polyfm-release2-r;
#X connect 0 0 14 0;
#X connect 1 0 21 0;
#X connect 2 0 1 0;
#X connect 3 0 1 0;
#X connect 5 0 3 0;
#X connect 5 1 2 0;
#X connect 6 0 20 0;
#X connect 7 0 18 0;
#X connect 8 0 7 0;
#X connect 8 1 6 0;
#X connect 8 2 9 0;
#X connect 9 0 4 0;
#X connect 12 0 13 0;
#X connect 13 0 7 1;
#X connect 13 1 19 0;
#X connect 13 2 10 0;
#X connect 14 0 5 0;
#X connect 14 1 12 0;
#X connect 15 0 8 0;
#X connect 16 0 15 0;
#X connect 17 0 4 0;
#X connect 18 0 4 0;
#X connect 19 0 1 0;
#X connect 20 0 17 0;
#X connect 21 0 23 0;
#X connect 21 1 25 0;
#X connect 21 2 27 0;
#X connect 21 3 29 0;
#X connect 21 4 31 0;
#X connect 21 5 33 0;
#X connect 21 6 35 0;
#X connect 21 7 37 0;
#X connect 21 8 39 0;
#X connect 22 0 6 1;
#X connect 24 0 20 1;
#X connect 26 0 20 2;
#X connect 28 0 20 3;
#X connect 30 0 20 4;
#X connect 32 0 20 5;
#X connect 34 0 20 6;
#X connect 36 0 20 7;
#X connect 38 0 20 8;
#X restore 52 482 pd state-saving-multiple-instances;
#X obj 52 556 s \$0-instance-num;
#X obj 52 508 makefilename %d;
#X msg 52 533 label \$1;
#N canvas 81 22 1117 745 state-saving-via-preset-manager-module 0;
#X obj 340 227 textfile;
#X msg 719 210 rewind;
#X msg 676 210 bang;
#X obj 106 568 textfile;
#X obj 676 171 t b b;
#X obj 107 234 f;
#X obj 120 457 f;
#X obj 53 352 t b b b;
#X msg 236 499 clear;
#X obj 99 5 delay 5;
#X obj 53 407 delay 10;
#X msg 53 192 bang;
#X obj 53 26 r STORE-S!;
#X obj 340 128 f;
#X obj 313 85 t b b;
#X obj 328 49 t b f;
#X obj 385 146 f \$1;
#X obj 340 173 pack f f;
#X obj 385 96 loadbang;
#X obj 120 487 pack f f;
#X obj 165 440 loadbang;
#X obj 165 462 f \$1;
#X obj 345 665 pack f f;
#X obj 345 689 line;
#X obj 390 640 r preset-manager-morph-s;
#X obj 328 26 r preset-manager-scan;
#X obj 366 570 pack f f;
#X obj 366 594 line;
#X obj 411 545 r preset-manager-morph-s;
#X obj 135 418 r preset-manager-store-slot;
#X obj 384 494 line;
#X obj 429 443 r preset-manager-morph-s;
#X msg 43 669 stop;
#X obj 43 602 r STOP-MORPH!;
#X obj 384 470 pack f f;
#X obj 561 650 pack f f;
#X obj 561 674 line;
#X obj 606 625 r preset-manager-morph-s;
#X obj 616 573 line;
#X obj 661 522 r preset-manager-morph-s;
#X obj 616 549 pack f f;
#X obj 633 476 line;
#X obj 678 425 r preset-manager-morph-s;
#X obj 633 452 pack f f;
#X msg 106 368 set \$1 \$2 \$3 \$4 \$5 \$6 \$7 \$8 \$9;
#X obj 107 301 pack f f f f f f f f f;
#X obj 340 249 unpack f f f f f f f f f;
#X obj 835 520 line;
#X obj 880 469 r preset-manager-morph-s;
#X obj 835 496 pack f f;
#X obj 852 423 line;
#X obj 897 372 r preset-manager-morph-s;
#X obj 852 399 pack f f;
#X obj 863 304 line;
#X obj 908 253 r preset-manager-morph-s;
#X obj 863 280 pack f f;
#X msg 340 202 read statesave/\$1-\$2-polyfm-ss.txt;
#X msg 119 528 write statesave/\$1-\$2-polyfm-ss.txt;
#X obj 115 27 r \$0-polyfm-pitch-s;
#X obj 345 714 s \$0-polyfm-pitch-r;
#X obj 128 56 r \$0-polyfm-index-s;
#X obj 366 616 s \$0-polyfm-index-r;
#X obj 138 95 r \$0-polyfm-ratio-s;
#X obj 384 517 s \$0-polyfm-ratio-r;
#X obj 161 122 r \$0-polyfm-attack-s;
#X obj 561 697 s \$0-polyfm-attack-r;
#X obj 175 145 r \$0-polyfm-hold-s;
#X obj 616 596 s \$0-polyfm-hold-r;
#X obj 187 167 r \$0-polyfm-release-s;
#X obj 633 499 s \$0-polyfm-release-r;
#X obj 193 188 r \$0-polyfm-attack2-s;
#X obj 835 543 s \$0-polyfm-attack2-r;
#X obj 207 211 r \$0-polyfm-hold2-s;
#X obj 852 446 s \$0-polyfm-hold2-r;
#X obj 219 233 r \$0-polyfm-release2-s;
#X obj 863 327 s \$0-polyfm-release2-r;
#X connect 0 0 46 0;
#X connect 1 0 0 0;
#X connect 2 0 0 0;
#X connect 4 0 2 0;
#X connect 4 1 1 0;
#X connect 5 0 45 0;
#X connect 6 0 19 0;
#X connect 7 0 10 0;
#X connect 7 1 9 0;
#X connect 7 2 8 0;
#X connect 8 0 3 0;
#X connect 9 0 5 0;
#X connect 10 0 6 0;
#X connect 11 0 7 0;
#X connect 12 0 11 0;
#X connect 13 0 17 0;
#X connect 14 0 4 0;
#X connect 14 1 13 0;
#X connect 15 0 14 0;
#X connect 15 1 13 1;
#X connect 16 0 17 1;
#X connect 17 0 56 0;
#X connect 18 0 16 0;
#X connect 19 0 57 0;
#X connect 20 0 21 0;
#X connect 21 0 19 1;
#X connect 22 0 23 0;
#X connect 23 0 59 0;
#X connect 24 0 22 1;
#X connect 25 0 15 0;
#X connect 26 0 27 0;
#X connect 27 0 61 0;
#X connect 28 0 26 1;
#X connect 29 0 6 1;
#X connect 30 0 63 0;
#X connect 31 0 34 1;
#X connect 32 0 23 0;
#X connect 32 0 27 0;
#X connect 32 0 30 0;
#X connect 32 0 36 0;
#X connect 32 0 38 0;
#X connect 32 0 41 0;
#X connect 32 0 47 0;
#X connect 32 0 50 0;
#X connect 32 0 53 0;
#X connect 33 0 32 0;
#X connect 34 0 30 0;
#X connect 35 0 36 0;
#X connect 36 0 65 0;
#X connect 37 0 35 1;
#X connect 38 0 67 0;
#X connect 39 0 40 1;
#X connect 40 0 38 0;
#X connect 41 0 69 0;
#X connect 42 0 43 1;
#X connect 43 0 41 0;
#X connect 44 0 3 0;
#X connect 45 0 44 0;
#X connect 46 0 22 0;
#X connect 46 1 26 0;
#X connect 46 2 34 0;
#X connect 46 3 35 0;
#X connect 46 4 40 0;
#X connect 46 5 43 0;
#X connect 46 6 49 0;
#X connect 46 7 52 0;
#X connect 46 8 55 0;
#X connect 47 0 71 0;
#X connect 48 0 49 1;
#X connect 49 0 47 0;
#X connect 50 0 73 0;
#X connect 51 0 52 1;
#X connect 52 0 50 0;
#X connect 53 0 75 0;
#X connect 54 0 55 1;
#X connect 55 0 53 0;
#X connect 56 0 0 0;
#X connect 57 0 3 0;
#X connect 58 0 5 1;
#X connect 60 0 45 1;
#X connect 62 0 45 2;
#X connect 64 0 45 3;
#X connect 66 0 45 4;
#X connect 68 0 45 5;
#X connect 70 0 45 6;
#X connect 72 0 45 7;
#X connect 74 0 45 8;
#X restore 52 460 pd state-saving-via-preset-manager-module;
#N canvas 297 27 723 391 parameter-nudging-system 0;
#N canvas 0 22 484 497 param-nudge 0;
#X obj 124 234 random;
#X obj 232 335 f;
#X obj 232 368 +;
#X obj 257 166 random 2;
#X obj 124 275 t f f;
#X obj 124 351 t b f;
#X obj 124 297 *;
#X obj 257 188 sel 0 1;
#X msg 257 280 -1;
#X msg 335 280 1;
#X obj 124 149 t b b b;
#X obj 124 123 r NUDGE!;
#X obj 157 193 r NUDGE-RANGE;
#X obj 247 308 inlet;
#X obj 232 397 outlet;
#X floatatom 316 396 5 0 0 0 - - -, f 5;
#X connect 0 0 4 0;
#X connect 1 0 2 0;
#X connect 2 0 14 0;
#X connect 2 0 15 0;
#X connect 3 0 7 0;
#X connect 4 0 6 0;
#X connect 5 0 2 0;
#X connect 5 1 2 1;
#X connect 6 0 5 0;
#X connect 7 0 8 0;
#X connect 7 1 9 0;
#X connect 8 0 6 1;
#X connect 9 0 6 1;
#X connect 10 0 0 0;
#X connect 10 1 1 0;
#X connect 10 2 3 0;
#X connect 11 0 10 0;
#X connect 12 0 0 1;
#X connect 13 0 1 1;
#X restore 23 45 pd param-nudge;
#N canvas 0 22 484 497 param-nudge 0;
#X obj 124 234 random;
#X obj 232 335 f;
#X obj 232 368 +;
#X obj 257 166 random 2;
#X obj 124 275 t f f;
#X obj 124 351 t b f;
#X obj 124 297 *;
#X obj 257 188 sel 0 1;
#X msg 257 280 -1;
#X msg 335 280 1;
#X obj 124 149 t b b b;
#X obj 124 123 r NUDGE!;
#X obj 157 193 r NUDGE-RANGE;
#X obj 247 308 inlet;
#X obj 232 397 outlet;
#X connect 0 0 4 0;
#X connect 1 0 2 0;
#X connect 2 0 14 0;
#X connect 3 0 7 0;
#X connect 4 0 6 0;
#X connect 5 0 2 0;
#X connect 5 1 2 1;
#X connect 6 0 5 0;
#X connect 7 0 8 0;
#X connect 7 1 9 0;
#X connect 8 0 6 1;
#X connect 9 0 6 1;
#X connect 10 0 0 0;
#X connect 10 1 1 0;
#X connect 10 2 3 0;
#X connect 11 0 10 0;
#X connect 12 0 0 1;
#X connect 13 0 1 1;
#X restore 214 47 pd param-nudge;
#N canvas 0 22 484 497 param-nudge 0;
#X obj 124 234 random;
#X obj 232 335 f;
#X obj 232 368 +;
#X obj 257 166 random 2;
#X obj 124 275 t f f;
#X obj 124 351 t b f;
#X obj 124 297 *;
#X obj 257 188 sel 0 1;
#X msg 257 280 -1;
#X msg 335 280 1;
#X obj 124 149 t b b b;
#X obj 124 123 r NUDGE!;
#X obj 157 193 r NUDGE-RANGE;
#X obj 247 308 inlet;
#X obj 232 397 outlet;
#X connect 0 0 4 0;
#X connect 1 0 2 0;
#X connect 2 0 14 0;
#X connect 3 0 7 0;
#X connect 4 0 6 0;
#X connect 5 0 2 0;
#X connect 5 1 2 1;
#X connect 6 0 5 0;
#X connect 7 0 8 0;
#X connect 7 1 9 0;
#X connect 8 0 6 1;
#X connect 9 0 6 1;
#X connect 10 0 0 0;
#X connect 10 1 1 0;
#X connect 10 2 3 0;
#X connect 11 0 10 0;
#X connect 12 0 0 1;
#X connect 13 0 1 1;
#X restore 407 47 pd param-nudge;
#N canvas 0 22 484 497 param-nudge 0;
#X obj 124 234 random;
#X obj 232 335 f;
#X obj 232 368 +;
#X obj 257 166 random 2;
#X obj 124 275 t f f;
#X obj 124 351 t b f;
#X obj 124 297 *;
#X obj 257 188 sel 0 1;
#X msg 257 280 -1;
#X msg 335 280 1;
#X obj 124 149 t b b b;
#X obj 124 123 r NUDGE!;
#X obj 157 193 r NUDGE-RANGE;
#X obj 247 308 inlet;
#X obj 232 397 outlet;
#X connect 0 0 4 0;
#X connect 1 0 2 0;
#X connect 2 0 14 0;
#X connect 3 0 7 0;
#X connect 4 0 6 0;
#X connect 5 0 2 0;
#X connect 5 1 2 1;
#X connect 6 0 5 0;
#X connect 7 0 8 0;
#X connect 7 1 9 0;
#X connect 8 0 6 1;
#X connect 9 0 6 1;
#X connect 10 0 0 0;
#X connect 10 1 1 0;
#X connect 10 2 3 0;
#X connect 11 0 10 0;
#X connect 12 0 0 1;
#X connect 13 0 1 1;
#X restore 21 149 pd param-nudge;
#N canvas 0 22 484 497 param-nudge 0;
#X obj 124 234 random;
#X obj 232 335 f;
#X obj 232 368 +;
#X obj 257 166 random 2;
#X obj 124 275 t f f;
#X obj 124 351 t b f;
#X obj 124 297 *;
#X obj 257 188 sel 0 1;
#X msg 257 280 -1;
#X msg 335 280 1;
#X obj 124 149 t b b b;
#X obj 124 123 r NUDGE!;
#X obj 157 193 r NUDGE-RANGE;
#X obj 247 308 inlet;
#X obj 232 397 outlet;
#X connect 0 0 4 0;
#X connect 1 0 2 0;
#X connect 2 0 14 0;
#X connect 3 0 7 0;
#X connect 4 0 6 0;
#X connect 5 0 2 0;
#X connect 5 1 2 1;
#X connect 6 0 5 0;
#X connect 7 0 8 0;
#X connect 7 1 9 0;
#X connect 8 0 6 1;
#X connect 9 0 6 1;
#X connect 10 0 0 0;
#X connect 10 1 1 0;
#X connect 10 2 3 0;
#X connect 11 0 10 0;
#X connect 12 0 0 1;
#X connect 13 0 1 1;
#X restore 213 151 pd param-nudge;
#X obj 21 171 clip 0 127;
#X obj 213 173 clip 0 127;
#X obj 23 67 clip 0 127;
#X obj 214 69 clip 0 127;
#X obj 407 71 clip 0 127;
#N canvas 0 22 484 497 param-nudge 0;
#X obj 124 234 random;
#X obj 232 335 f;
#X obj 232 368 +;
#X obj 257 166 random 2;
#X obj 124 275 t f f;
#X obj 124 351 t b f;
#X obj 124 297 *;
#X obj 257 188 sel 0 1;
#X msg 257 280 -1;
#X msg 335 280 1;
#X obj 124 149 t b b b;
#X obj 124 123 r NUDGE!;
#X obj 157 193 r NUDGE-RANGE;
#X obj 247 308 inlet;
#X obj 232 397 outlet;
#X connect 0 0 4 0;
#X connect 1 0 2 0;
#X connect 2 0 14 0;
#X connect 3 0 7 0;
#X connect 4 0 6 0;
#X connect 5 0 2 0;
#X connect 5 1 2 1;
#X connect 6 0 5 0;
#X connect 7 0 8 0;
#X connect 7 1 9 0;
#X connect 8 0 6 1;
#X connect 9 0 6 1;
#X connect 10 0 0 0;
#X connect 10 1 1 0;
#X connect 10 2 3 0;
#X connect 11 0 10 0;
#X connect 12 0 0 1;
#X connect 13 0 1 1;
#X restore 409 151 pd param-nudge;
#X obj 409 173 clip 0 127;
#N canvas 0 22 484 497 param-nudge 0;
#X obj 124 234 random;
#X obj 232 335 f;
#X obj 232 368 +;
#X obj 257 166 random 2;
#X obj 124 275 t f f;
#X obj 124 351 t b f;
#X obj 124 297 *;
#X obj 257 188 sel 0 1;
#X msg 257 280 -1;
#X msg 335 280 1;
#X obj 124 149 t b b b;
#X obj 124 123 r NUDGE!;
#X obj 157 193 r NUDGE-RANGE;
#X obj 247 308 inlet;
#X obj 232 397 outlet;
#X connect 0 0 4 0;
#X connect 1 0 2 0;
#X connect 2 0 14 0;
#X connect 3 0 7 0;
#X connect 4 0 6 0;
#X connect 5 0 2 0;
#X connect 5 1 2 1;
#X connect 6 0 5 0;
#X connect 7 0 8 0;
#X connect 7 1 9 0;
#X connect 8 0 6 1;
#X connect 9 0 6 1;
#X connect 10 0 0 0;
#X connect 10 1 1 0;
#X connect 10 2 3 0;
#X connect 11 0 10 0;
#X connect 12 0 0 1;
#X connect 13 0 1 1;
#X restore 25 264 pd param-nudge;
#N canvas 0 22 484 497 param-nudge 0;
#X obj 124 234 random;
#X obj 232 335 f;
#X obj 232 368 +;
#X obj 257 166 random 2;
#X obj 124 275 t f f;
#X obj 124 351 t b f;
#X obj 124 297 *;
#X obj 257 188 sel 0 1;
#X msg 257 280 -1;
#X msg 335 280 1;
#X obj 124 149 t b b b;
#X obj 124 123 r NUDGE!;
#X obj 157 193 r NUDGE-RANGE;
#X obj 247 308 inlet;
#X obj 232 397 outlet;
#X connect 0 0 4 0;
#X connect 1 0 2 0;
#X connect 2 0 14 0;
#X connect 3 0 7 0;
#X connect 4 0 6 0;
#X connect 5 0 2 0;
#X connect 5 1 2 1;
#X connect 6 0 5 0;
#X connect 7 0 8 0;
#X connect 7 1 9 0;
#X connect 8 0 6 1;
#X connect 9 0 6 1;
#X connect 10 0 0 0;
#X connect 10 1 1 0;
#X connect 10 2 3 0;
#X connect 11 0 10 0;
#X connect 12 0 0 1;
#X connect 13 0 1 1;
#X restore 217 266 pd param-nudge;
#X obj 25 286 clip 0 127;
#X obj 217 288 clip 0 127;
#N canvas 0 22 484 497 param-nudge 0;
#X obj 124 234 random;
#X obj 232 335 f;
#X obj 232 368 +;
#X obj 257 166 random 2;
#X obj 124 275 t f f;
#X obj 124 351 t b f;
#X obj 124 297 *;
#X obj 257 188 sel 0 1;
#X msg 257 280 -1;
#X msg 335 280 1;
#X obj 124 149 t b b b;
#X obj 124 123 r NUDGE!;
#X obj 157 193 r NUDGE-RANGE;
#X obj 247 308 inlet;
#X obj 232 397 outlet;
#X connect 0 0 4 0;
#X connect 1 0 2 0;
#X connect 2 0 14 0;
#X connect 3 0 7 0;
#X connect 4 0 6 0;
#X connect 5 0 2 0;
#X connect 5 1 2 1;
#X connect 6 0 5 0;
#X connect 7 0 8 0;
#X connect 7 1 9 0;
#X connect 8 0 6 1;
#X connect 9 0 6 1;
#X connect 10 0 0 0;
#X connect 10 1 1 0;
#X connect 10 2 3 0;
#X connect 11 0 10 0;
#X connect 12 0 0 1;
#X connect 13 0 1 1;
#X restore 413 266 pd param-nudge;
#X obj 413 288 clip 0 127;
#X obj 23 22 r \$0-polyfm-pitch-s;
#X obj 23 95 s \$0-polyfm-pitch-r;
#X obj 214 24 r \$0-polyfm-index-s;
#X obj 214 97 s \$0-polyfm-index-r;
#X obj 407 24 r \$0-polyfm-ratio-s;
#X obj 407 97 s \$0-polyfm-ratio-r;
#X obj 21 126 r \$0-polyfm-attack-s;
#X obj 21 198 s \$0-polyfm-attack-r;
#X obj 213 128 r \$0-polyfm-hold-s;
#X obj 213 199 s \$0-polyfm-hold-r;
#X obj 409 128 r \$0-polyfm-release-s;
#X obj 409 199 s \$0-polyfm-release-r;
#X obj 25 241 r \$0-polyfm-attack2-s;
#X obj 25 313 s \$0-polyfm-attack2-r;
#X obj 217 243 r \$0-polyfm-hold2-s;
#X obj 217 314 s \$0-polyfm-hold2-r;
#X obj 413 243 r \$0-polyfm-release2-s;
#X obj 413 314 s \$0-polyfm-release2-r;
#X connect 0 0 7 0;
#X connect 1 0 8 0;
#X connect 2 0 9 0;
#X connect 3 0 5 0;
#X connect 4 0 6 0;
#X connect 5 0 25 0;
#X connect 6 0 27 0;
#X connect 7 0 19 0;
#X connect 8 0 21 0;
#X connect 9 0 23 0;
#X connect 10 0 11 0;
#X connect 11 0 29 0;
#X connect 12 0 14 0;
#X connect 13 0 15 0;
#X connect 14 0 31 0;
#X connect 15 0 33 0;
#X connect 16 0 17 0;
#X connect 17 0 35 0;
#X connect 18 0 0 0;
#X connect 20 0 1 0;
#X connect 22 0 2 0;
#X connect 24 0 3 0;
#X connect 26 0 4 0;
#X connect 28 0 10 0;
#X connect 30 0 12 0;
#X connect 32 0 13 0;
#X connect 34 0 16 0;
#X restore 52 438 pd parameter-nudging-system;
#X obj 270 330 cnv 5 5 5 empty empty ENV 0 0 0 8 -262144 -1 0;
#X obj 104 330 cnv 5 5 5 empty empty LEFT 0 0 0 8 -262144 -1 0;
#X obj 184 330 cnv 5 5 5 empty empty RIGHT 0 0 0 8 -262144 -1 0;
#X obj 261 108 cnv 5 5 5 empty empty INDEX 0 0 0 8 -262144 -66577 0
;
#X obj 320 707 outlet~ LEFT;
#X obj 678 633 catch~ \$0-polyfm-eg;
#X obj 335 203 r \$0-polyfm-pitch-s;
#X obj 108 274 hsl 128 15 1.27 127 1 1 \$0-polyfm-attack2-s \$0-polyfm-attack2-r
ATTACK 135 7 0 10 -262144 -1 -1 0 1;
#X obj 108 289 hsl 128 15 0 127 0 1 \$0-polyfm-hold2-s \$0-polyfm-hold2-r
HOLD 135 7 0 10 -262144 -1 -1 200 1;
#X obj 108 303 hsl 128 15 0 127 0 1 \$0-polyfm-release2-s \$0-polyfm-release2-r
RELEASE 135 7 0 10 -262144 -1 -1 500 1;
#X obj 128 121 cnv 5 5 5 empty empty polyFM 0 0 0 12 -262144 -66577
0;
#X obj 105 202 cnv 5 5 5 empty empty carrier-EG 0 0 0 12 -262144 -66577
0;
#X obj 651 18 inlet~ INDEX CV;
#X obj 651 40 s~ \$0-polyfm-index-cv;
#N canvas 224 22 962 575 voice2-ahr 0;
#X obj 43 6 inlet;
#X obj 43 28 unpack f f;
#X obj 100 51 sel 0;
#X obj 43 149 +~;
#X obj 43 179 mtof~;
#X obj 43 495 *~;
#X obj 43 517 outlet~;
#X obj 609 145 * 0.00787402;
#X obj 608 189 + 1;
#X obj 609 121 - 1.27;
#X obj 593 385 vline~;
#X obj 781 265 * 0.00787402;
#X obj 781 309 + 1;
#X obj 781 241 - 1.27;
#X obj 593 434 *~;
#X obj 593 478 *~;
#X obj 593 219 f;
#X obj 43 50 sig~;
#X obj 609 167 * 1999;
#X obj 654 210 * 0.00787402;
#X obj 654 232 * 999;
#X obj 654 254 + 1;
#X msg 593 353 1 \$1 \, 0 \$3 \$2;
#X obj 593 241 t f f;
#X obj 593 326 pack f f f;
#X obj 620 293 +;
#X obj 781 287 * 3999;
#X obj 43 210 phasor~;
#X obj 43 328 +~;
#X obj 43 350 cos~;
#X obj 255 60 r \$0-polyfm-ratio-s;
#X obj 240 196 *~;
#X obj 255 82 * 0.00787402;
#X obj 255 104 * 7;
#X obj 255 126 + 1;
#X obj 255 148 pack 0 50;
#X obj 255 170 line~;
#X obj 240 218 osc~;
#X obj 240 240 *~;
#X obj 384 91 r \$0-polyfm-index-s;
#X obj 384 113 * 0.00787402;
#X obj 384 157 pack 0 50;
#X obj 384 179 line~;
#X obj 609 99 r \$0-polyfm-attack-s;
#X obj 654 188 r \$0-polyfm-hold-s;
#X obj 781 217 r \$0-polyfm-release-s;
#X obj 593 508 throw~ \$0-polyfm-eg;
#X obj 384 135 * 1;
#N canvas 0 22 942 604 eg2 0;
#X obj 246 99 * 0.00787402;
#X obj 245 143 + 1;
#X obj 246 75 - 1.27;
#X obj 230 339 vline~;
#X obj 418 219 * 0.00787402;
#X obj 418 263 + 1;
#X obj 418 195 - 1.27;
#X obj 230 388 *~;
#X obj 230 432 *~;
#X obj 230 173 f;
#X obj 246 121 * 1999;
#X obj 291 164 * 0.00787402;
#X obj 291 186 * 999;
#X obj 291 208 + 1;
#X msg 230 307 1 \$1 \, 0 \$3 \$2;
#X obj 230 195 t f f;
#X obj 230 280 pack f f f;
#X obj 257 247 +;
#X obj 418 241 * 3999;
#X obj 246 53 r \$0-polyfm-attack2-s;
#X obj 291 142 r \$0-polyfm-hold2-s;
#X obj 418 171 r \$0-polyfm-release2-s;
#X obj 230 18 inlet;
#X obj 230 454 outlet~;
#X connect 0 0 10 0;
#X connect 1 0 9 1;
#X connect 2 0 0 0;
#X connect 3 0 7 0;
#X connect 3 0 7 1;
#X connect 4 0 18 0;
#X connect 5 0 16 2;
#X connect 6 0 4 0;
#X connect 7 0 8 0;
#X connect 7 0 8 1;
#X connect 8 0 23 0;
#X connect 9 0 15 0;
#X connect 10 0 1 0;
#X connect 11 0 12 0;
#X connect 12 0 13 0;
#X connect 13 0 17 1;
#X connect 14 0 3 0;
#X connect 15 0 16 0;
#X connect 15 1 17 0;
#X connect 16 0 14 0;
#X connect 17 0 16 1;
#X connect 18 0 5 0;
#X connect 19 0 2 0;
#X connect 20 0 11 0;
#X connect 21 0 6 0;
#X connect 22 0 9 0;
#X restore 154 156 pd eg2;
#X obj 127 74 t b b;
#X obj 139 276 *~;
#X obj 384 201 +~;
#X obj 384 223 clip~ 0 1;
#X obj 450 184 r~ \$0-polyfm-index-cv;
#X connect 0 0 1 0;
#X connect 1 0 17 0;
#X connect 1 1 2 0;
#X connect 2 1 49 0;
#X connect 3 0 4 0;
#X connect 4 0 27 0;
#X connect 4 0 31 0;
#X connect 5 0 6 0;
#X connect 7 0 18 0;
#X connect 8 0 16 1;
#X connect 9 0 7 0;
#X connect 10 0 14 0;
#X connect 10 0 14 1;
#X connect 11 0 26 0;
#X connect 12 0 24 2;
#X connect 13 0 11 0;
#X connect 14 0 15 0;
#X connect 14 0 15 1;
#X connect 15 0 5 1;
#X connect 15 0 46 0;
#X connect 16 0 23 0;
#X connect 17 0 3 0;
#X connect 18 0 8 0;
#X connect 19 0 20 0;
#X connect 20 0 21 0;
#X connect 21 0 25 1;
#X connect 22 0 10 0;
#X connect 23 0 24 0;
#X connect 23 1 25 0;
#X connect 24 0 22 0;
#X connect 25 0 24 1;
#X connect 26 0 12 0;
#X connect 27 0 28 0;
#X connect 28 0 29 0;
#X connect 29 0 5 0;
#X connect 30 0 32 0;
#X connect 31 0 37 0;
#X connect 32 0 33 0;
#X connect 33 0 34 0;
#X connect 34 0 35 0;
#X connect 35 0 36 0;
#X connect 36 0 31 1;
#X connect 37 0 38 0;
#X connect 38 0 50 0;
#X connect 39 0 40 0;
#X connect 40 0 47 0;
#X connect 41 0 42 0;
#X connect 42 0 51 0;
#X connect 43 0 9 0;
#X connect 44 0 19 0;
#X connect 45 0 13 0;
#X connect 47 0 41 0;
#X connect 48 0 50 1;
#X connect 49 0 16 0;
#X connect 49 1 48 0;
#X connect 50 0 28 1;
#X connect 51 0 52 0;
#X connect 52 0 38 1;
#X connect 53 0 51 1;
#X restore 338 545 pd voice2-ahr;
#N canvas 224 22 962 575 voice3-ahr 0;
#X obj 43 6 inlet;
#X obj 43 28 unpack f f;
#X obj 100 51 sel 0;
#X obj 43 149 +~;
#X obj 43 179 mtof~;
#X obj 43 495 *~;
#X obj 43 517 outlet~;
#X obj 609 145 * 0.00787402;
#X obj 608 189 + 1;
#X obj 609 121 - 1.27;
#X obj 593 385 vline~;
#X obj 781 265 * 0.00787402;
#X obj 781 309 + 1;
#X obj 781 241 - 1.27;
#X obj 593 434 *~;
#X obj 593 478 *~;
#X obj 593 219 f;
#X obj 43 50 sig~;
#X obj 609 167 * 1999;
#X obj 654 210 * 0.00787402;
#X obj 654 232 * 999;
#X obj 654 254 + 1;
#X msg 593 353 1 \$1 \, 0 \$3 \$2;
#X obj 593 241 t f f;
#X obj 593 326 pack f f f;
#X obj 620 293 +;
#X obj 781 287 * 3999;
#X obj 43 210 phasor~;
#X obj 43 328 +~;
#X obj 43 350 cos~;
#X obj 255 60 r \$0-polyfm-ratio-s;
#X obj 240 196 *~;
#X obj 255 82 * 0.00787402;
#X obj 255 104 * 7;
#X obj 255 126 + 1;
#X obj 255 148 pack 0 50;
#X obj 255 170 line~;
#X obj 240 218 osc~;
#X obj 240 240 *~;
#X obj 384 91 r \$0-polyfm-index-s;
#X obj 384 113 * 0.00787402;
#X obj 384 157 pack 0 50;
#X obj 384 179 line~;
#X obj 609 99 r \$0-polyfm-attack-s;
#X obj 654 188 r \$0-polyfm-hold-s;
#X obj 781 217 r \$0-polyfm-release-s;
#X obj 593 508 throw~ \$0-polyfm-eg;
#X obj 384 135 * 1;
#N canvas 0 22 942 604 eg2 0;
#X obj 246 99 * 0.00787402;
#X obj 245 143 + 1;
#X obj 246 75 - 1.27;
#X obj 230 339 vline~;
#X obj 418 219 * 0.00787402;
#X obj 418 263 + 1;
#X obj 418 195 - 1.27;
#X obj 230 388 *~;
#X obj 230 432 *~;
#X obj 230 173 f;
#X obj 246 121 * 1999;
#X obj 291 164 * 0.00787402;
#X obj 291 186 * 999;
#X obj 291 208 + 1;
#X msg 230 307 1 \$1 \, 0 \$3 \$2;
#X obj 230 195 t f f;
#X obj 230 280 pack f f f;
#X obj 257 247 +;
#X obj 418 241 * 3999;
#X obj 246 53 r \$0-polyfm-attack2-s;
#X obj 291 142 r \$0-polyfm-hold2-s;
#X obj 418 171 r \$0-polyfm-release2-s;
#X obj 230 18 inlet;
#X obj 230 454 outlet~;
#X connect 0 0 10 0;
#X connect 1 0 9 1;
#X connect 2 0 0 0;
#X connect 3 0 7 0;
#X connect 3 0 7 1;
#X connect 4 0 18 0;
#X connect 5 0 16 2;
#X connect 6 0 4 0;
#X connect 7 0 8 0;
#X connect 7 0 8 1;
#X connect 8 0 23 0;
#X connect 9 0 15 0;
#X connect 10 0 1 0;
#X connect 11 0 12 0;
#X connect 12 0 13 0;
#X connect 13 0 17 1;
#X connect 14 0 3 0;
#X connect 15 0 16 0;
#X connect 15 1 17 0;
#X connect 16 0 14 0;
#X connect 17 0 16 1;
#X connect 18 0 5 0;
#X connect 19 0 2 0;
#X connect 20 0 11 0;
#X connect 21 0 6 0;
#X connect 22 0 9 0;
#X restore 154 156 pd eg2;
#X obj 127 74 t b b;
#X obj 139 276 *~;
#X obj 384 201 +~;
#X obj 384 223 clip~ 0 1;
#X obj 450 184 r~ \$0-polyfm-index-cv;
#X connect 0 0 1 0;
#X connect 1 0 17 0;
#X connect 1 1 2 0;
#X connect 2 1 49 0;
#X connect 3 0 4 0;
#X connect 4 0 27 0;
#X connect 4 0 31 0;
#X connect 5 0 6 0;
#X connect 7 0 18 0;
#X connect 8 0 16 1;
#X connect 9 0 7 0;
#X connect 10 0 14 0;
#X connect 10 0 14 1;
#X connect 11 0 26 0;
#X connect 12 0 24 2;
#X connect 13 0 11 0;
#X connect 14 0 15 0;
#X connect 14 0 15 1;
#X connect 15 0 5 1;
#X connect 15 0 46 0;
#X connect 16 0 23 0;
#X connect 17 0 3 0;
#X connect 18 0 8 0;
#X connect 19 0 20 0;
#X connect 20 0 21 0;
#X connect 21 0 25 1;
#X connect 22 0 10 0;
#X connect 23 0 24 0;
#X connect 23 1 25 0;
#X connect 24 0 22 0;
#X connect 25 0 24 1;
#X connect 26 0 12 0;
#X connect 27 0 28 0;
#X connect 28 0 29 0;
#X connect 29 0 5 0;
#X connect 30 0 32 0;
#X connect 31 0 37 0;
#X connect 32 0 33 0;
#X connect 33 0 34 0;
#X connect 34 0 35 0;
#X connect 35 0 36 0;
#X connect 36 0 31 1;
#X connect 37 0 38 0;
#X connect 38 0 50 0;
#X connect 39 0 40 0;
#X connect 40 0 47 0;
#X connect 41 0 42 0;
#X connect 42 0 51 0;
#X connect 43 0 9 0;
#X connect 44 0 19 0;
#X connect 45 0 13 0;
#X connect 47 0 41 0;
#X connect 48 0 50 1;
#X connect 49 0 16 0;
#X connect 49 1 48 0;
#X connect 50 0 28 1;
#X connect 51 0 52 0;
#X connect 52 0 38 1;
#X connect 53 0 51 1;
#X restore 357 574 pd voice3-ahr;
#N canvas 224 22 962 575 voice4-ahr 0;
#X obj 43 6 inlet;
#X obj 43 28 unpack f f;
#X obj 100 51 sel 0;
#X obj 43 149 +~;
#X obj 43 179 mtof~;
#X obj 43 495 *~;
#X obj 43 517 outlet~;
#X obj 609 145 * 0.00787402;
#X obj 608 189 + 1;
#X obj 609 121 - 1.27;
#X obj 593 385 vline~;
#X obj 781 265 * 0.00787402;
#X obj 781 309 + 1;
#X obj 781 241 - 1.27;
#X obj 593 434 *~;
#X obj 593 478 *~;
#X obj 593 219 f;
#X obj 43 50 sig~;
#X obj 609 167 * 1999;
#X obj 654 210 * 0.00787402;
#X obj 654 232 * 999;
#X obj 654 254 + 1;
#X msg 593 353 1 \$1 \, 0 \$3 \$2;
#X obj 593 241 t f f;
#X obj 593 326 pack f f f;
#X obj 620 293 +;
#X obj 781 287 * 3999;
#X obj 43 210 phasor~;
#X obj 43 328 +~;
#X obj 43 350 cos~;
#X obj 255 60 r \$0-polyfm-ratio-s;
#X obj 240 196 *~;
#X obj 255 82 * 0.00787402;
#X obj 255 104 * 7;
#X obj 255 126 + 1;
#X obj 255 148 pack 0 50;
#X obj 255 170 line~;
#X obj 240 218 osc~;
#X obj 240 240 *~;
#X obj 384 91 r \$0-polyfm-index-s;
#X obj 384 113 * 0.00787402;
#X obj 384 157 pack 0 50;
#X obj 384 179 line~;
#X obj 609 99 r \$0-polyfm-attack-s;
#X obj 654 188 r \$0-polyfm-hold-s;
#X obj 781 217 r \$0-polyfm-release-s;
#X obj 593 508 throw~ \$0-polyfm-eg;
#X obj 384 135 * 1;
#N canvas 0 22 942 604 eg2 0;
#X obj 246 99 * 0.00787402;
#X obj 245 143 + 1;
#X obj 246 75 - 1.27;
#X obj 230 339 vline~;
#X obj 418 219 * 0.00787402;
#X obj 418 263 + 1;
#X obj 418 195 - 1.27;
#X obj 230 388 *~;
#X obj 230 432 *~;
#X obj 230 173 f;
#X obj 246 121 * 1999;
#X obj 291 164 * 0.00787402;
#X obj 291 186 * 999;
#X obj 291 208 + 1;
#X msg 230 307 1 \$1 \, 0 \$3 \$2;
#X obj 230 195 t f f;
#X obj 230 280 pack f f f;
#X obj 257 247 +;
#X obj 418 241 * 3999;
#X obj 246 53 r \$0-polyfm-attack2-s;
#X obj 291 142 r \$0-polyfm-hold2-s;
#X obj 418 171 r \$0-polyfm-release2-s;
#X obj 230 18 inlet;
#X obj 230 454 outlet~;
#X connect 0 0 10 0;
#X connect 1 0 9 1;
#X connect 2 0 0 0;
#X connect 3 0 7 0;
#X connect 3 0 7 1;
#X connect 4 0 18 0;
#X connect 5 0 16 2;
#X connect 6 0 4 0;
#X connect 7 0 8 0;
#X connect 7 0 8 1;
#X connect 8 0 23 0;
#X connect 9 0 15 0;
#X connect 10 0 1 0;
#X connect 11 0 12 0;
#X connect 12 0 13 0;
#X connect 13 0 17 1;
#X connect 14 0 3 0;
#X connect 15 0 16 0;
#X connect 15 1 17 0;
#X connect 16 0 14 0;
#X connect 17 0 16 1;
#X connect 18 0 5 0;
#X connect 19 0 2 0;
#X connect 20 0 11 0;
#X connect 21 0 6 0;
#X connect 22 0 9 0;
#X restore 154 156 pd eg2;
#X obj 127 74 t b b;
#X obj 139 276 *~;
#X obj 384 201 +~;
#X obj 384 223 clip~ 0 1;
#X obj 450 184 r~ \$0-polyfm-index-cv;
#X connect 0 0 1 0;
#X connect 1 0 17 0;
#X connect 1 1 2 0;
#X connect 2 1 49 0;
#X connect 3 0 4 0;
#X connect 4 0 27 0;
#X connect 4 0 31 0;
#X connect 5 0 6 0;
#X connect 7 0 18 0;
#X connect 8 0 16 1;
#X connect 9 0 7 0;
#X connect 10 0 14 0;
#X connect 10 0 14 1;
#X connect 11 0 26 0;
#X connect 12 0 24 2;
#X connect 13 0 11 0;
#X connect 14 0 15 0;
#X connect 14 0 15 1;
#X connect 15 0 5 1;
#X connect 15 0 46 0;
#X connect 16 0 23 0;
#X connect 17 0 3 0;
#X connect 18 0 8 0;
#X connect 19 0 20 0;
#X connect 20 0 21 0;
#X connect 21 0 25 1;
#X connect 22 0 10 0;
#X connect 23 0 24 0;
#X connect 23 1 25 0;
#X connect 24 0 22 0;
#X connect 25 0 24 1;
#X connect 26 0 12 0;
#X connect 27 0 28 0;
#X connect 28 0 29 0;
#X connect 29 0 5 0;
#X connect 30 0 32 0;
#X connect 31 0 37 0;
#X connect 32 0 33 0;
#X connect 33 0 34 0;
#X connect 34 0 35 0;
#X connect 35 0 36 0;
#X connect 36 0 31 1;
#X connect 37 0 38 0;
#X connect 38 0 50 0;
#X connect 39 0 40 0;
#X connect 40 0 47 0;
#X connect 41 0 42 0;
#X connect 42 0 51 0;
#X connect 43 0 9 0;
#X connect 44 0 19 0;
#X connect 45 0 13 0;
#X connect 47 0 41 0;
#X connect 48 0 50 1;
#X connect 49 0 16 0;
#X connect 49 1 48 0;
#X connect 50 0 28 1;
#X connect 51 0 52 0;
#X connect 52 0 38 1;
#X connect 53 0 51 1;
#X restore 376 601 pd voice4-ahr;
#X obj 431 708 outlet~ RIGHT;
#X obj 320 674 *~ 0.33;
#X obj 431 675 *~ 0.33;
#X obj 258 630 *~ 0.5;
#X obj 482 610 *~ 0.5;
#X floatatom 105 176 5 0 0 0 - #0-polyfm-ratio-gui-r -, f 5;
#X obj 530 290 r \$0-polyfm-ratio-s;
#X obj 530 312 / 127;
#X obj 530 334 * 7;
#X obj 530 356 + 1;
#X obj 530 400 s \$0-polyfm-ratio-gui-r;
#X obj 185 108 cnv 5 5 5 empty empty PITCH 0 0 0 8 -262144 -66577 0
;
#N canvas 457 23 983 799 external-messages 0;
#X floatatom 27 553 5 0 0 0 - - -, f 5;
#X obj 185 328 spigot;
#X obj 218 288 tgl 15 0 empty empty empty 17 7 0 10 -262144 -1 -1 0
1;
#X obj 254 272 ==;
#X obj 269 248 f \$1;
#X obj 269 224 loadbang;
#X msg 185 202 \$1 \$2;
#X msg 185 156 symbol \$1;
#X obj 185 180 pack s f;
#X obj 27 532 f;
#X obj 27 480 t b f;
#X obj 27 503 spigot;
#X obj 185 62 unpack s f f;
#X symbolatom 185 94 10 0 0 0 - - -, f 10;
#X obj 218 308 t f f;
#X obj 245 332 s \$0-msg-spigot;
#X obj 75 487 r \$0-msg-spigot;
#X floatatom 97 680 5 0 0 0 - - -, f 5;
#X obj 97 659 f;
#X obj 97 607 t b f;
#X obj 97 630 spigot;
#X obj 145 614 r \$0-msg-spigot;
#X floatatom 205 556 5 0 0 0 - - -, f 5;
#X obj 205 535 f;
#X obj 205 483 t b f;
#X obj 205 506 spigot;
#X obj 253 490 r \$0-msg-spigot;
#X floatatom 292 712 5 0 0 0 - - -, f 5;
#X obj 292 691 f;
#X obj 292 639 t b f;
#X obj 292 662 spigot;
#X obj 340 646 r \$0-msg-spigot;
#X floatatom 360 591 5 0 0 0 - - -, f 5;
#X obj 360 570 f;
#X obj 360 518 t b f;
#X obj 360 541 spigot;
#X obj 408 525 r \$0-msg-spigot;
#X obj 185 14 r polyfm;
#X obj 185 380 route PITCH INDEX RATIO ATTACK HOLD RELEASE ATTACK2
HOLD2 RELEASE2;
#X floatatom 522 604 5 0 0 0 - - -, f 5;
#X obj 522 583 f;
#X obj 522 531 t b f;
#X obj 522 554 spigot;
#X obj 570 538 r \$0-msg-spigot;
#X floatatom 559 726 5 0 0 0 - - -, f 5;
#X obj 559 705 f;
#X obj 559 653 t b f;
#X obj 559 676 spigot;
#X obj 607 660 r \$0-msg-spigot;
#X floatatom 741 669 5 0 0 0 - - -, f 5;
#X obj 741 648 f;
#X obj 741 596 t b f;
#X obj 741 619 spigot;
#X obj 789 603 r \$0-msg-spigot;
#X floatatom 755 530 5 0 0 0 - - -, f 5;
#X obj 755 509 f;
#X obj 755 457 t b f;
#X obj 755 480 spigot;
#X obj 803 464 r \$0-msg-spigot;
#X obj 27 573 s \$0-polyfm-pitch-r;
#X obj 97 700 s \$0-polyfm-index-r;
#X obj 205 576 s \$0-polyfm-ratio-r;
#X obj 292 732 s \$0-polyfm-attack-r;
#X obj 360 611 s \$0-polyfm-hold-r;
#X obj 522 624 s \$0-polyfm-release-r;
#X obj 559 746 s \$0-polyfm-attack2-r;
#X obj 741 689 s \$0-polyfm-hold2-r;
#X obj 755 550 s \$0-polyfm-release2-r;
#X connect 0 0 59 0;
#X connect 1 0 38 0;
#X connect 2 0 14 0;
#X connect 3 0 2 0;
#X connect 4 0 3 1;
#X connect 5 0 4 0;
#X connect 6 0 1 0;
#X connect 7 0 8 0;
#X connect 8 0 6 0;
#X connect 9 0 0 0;
#X connect 10 0 11 0;
#X connect 10 1 9 1;
#X connect 11 0 9 0;
#X connect 12 0 13 0;
#X connect 12 1 8 1;
#X connect 12 2 3 0;
#X connect 13 0 7 0;
#X connect 14 0 1 1;
#X connect 14 1 15 0;
#X connect 16 0 11 1;
#X connect 17 0 60 0;
#X connect 18 0 17 0;
#X connect 19 0 20 0;
#X connect 19 1 18 1;
#X connect 20 0 18 0;
#X connect 21 0 20 1;
#X connect 22 0 61 0;
#X connect 23 0 22 0;
#X connect 24 0 25 0;
#X connect 24 1 23 1;
#X connect 25 0 23 0;
#X connect 26 0 25 1;
#X connect 27 0 62 0;
#X connect 28 0 27 0;
#X connect 29 0 30 0;
#X connect 29 1 28 1;
#X connect 30 0 28 0;
#X connect 31 0 30 1;
#X connect 32 0 63 0;
#X connect 33 0 32 0;
#X connect 34 0 35 0;
#X connect 34 1 33 1;
#X connect 35 0 33 0;
#X connect 36 0 35 1;
#X connect 37 0 12 0;
#X connect 38 0 10 0;
#X connect 38 1 19 0;
#X connect 38 2 24 0;
#X connect 38 3 29 0;
#X connect 38 4 34 0;
#X connect 38 5 41 0;
#X connect 38 6 46 0;
#X connect 38 7 51 0;
#X connect 38 8 56 0;
#X connect 39 0 64 0;
#X connect 40 0 39 0;
#X connect 41 0 42 0;
#X connect 41 1 40 1;
#X connect 42 0 40 0;
#X connect 43 0 42 1;
#X connect 44 0 65 0;
#X connect 45 0 44 0;
#X connect 46 0 47 0;
#X connect 46 1 45 1;
#X connect 47 0 45 0;
#X connect 48 0 47 1;
#X connect 49 0 66 0;
#X connect 50 0 49 0;
#X connect 51 0 52 0;
#X connect 51 1 50 1;
#X connect 52 0 50 0;
#X connect 53 0 52 1;
#X connect 54 0 67 0;
#X connect 55 0 54 0;
#X connect 56 0 57 0;
#X connect 56 1 55 1;
#X connect 57 0 55 0;
#X connect 58 0 57 1;
#X restore 51 413 pd external-messages;
#X connect 0 0 16 0;
#X connect 1 0 9 0;
#X connect 2 0 3 0;
#X connect 3 0 14 0;
#X connect 4 0 14 1;
#X connect 5 0 6 0;
#X connect 5 1 7 0;
#X connect 6 0 8 0;
#X connect 7 0 8 1;
#X connect 8 0 1 0;
#X connect 8 1 1 1;
#X connect 8 2 1 2;
#X connect 9 0 33 0;
#X connect 9 1 58 0;
#X connect 9 2 59 0;
#X connect 9 3 60 0;
#X connect 14 0 5 0;
#X connect 15 0 19 0;
#X connect 17 0 20 0;
#X connect 17 0 26 0;
#X connect 18 0 15 0;
#X connect 19 0 2 0;
#X connect 19 1 4 0;
#X connect 20 0 21 0;
#X connect 21 0 24 0;
#X connect 22 0 23 0;
#X connect 23 0 2 1;
#X connect 23 0 29 0;
#X connect 24 0 22 0;
#X connect 24 1 22 1;
#X connect 25 0 62 0;
#X connect 25 0 63 0;
#X connect 26 0 27 0;
#X connect 27 0 28 0;
#X connect 28 0 20 0;
#X connect 31 0 30 0;
#X connect 33 0 25 0;
#X connect 33 0 64 0;
#X connect 38 0 40 0;
#X connect 40 0 41 0;
#X connect 41 0 39 0;
#X connect 49 0 31 0;
#X connect 50 0 22 0;
#X connect 56 0 57 0;
#X connect 58 0 25 0;
#X connect 58 0 65 0;
#X connect 59 0 25 0;
#X connect 59 0 64 0;
#X connect 60 0 25 0;
#X connect 60 0 65 0;
#X connect 62 0 48 0;
#X connect 63 0 61 0;
#X connect 64 0 62 0;
#X connect 65 0 63 0;
#X connect 67 0 68 0;
#X connect 68 0 69 0;
#X connect 69 0 70 0;
#X connect 70 0 71 0;
#X coords 0 -1 1 1 190 240 2 100 100;
