#N canvas 0 23 1102 752 10;
#X obj 108 146 hsl 128 15 0 127 0 1 \$0-polysaw-pitch-s \$0-polysaw-pitch-r
PITCH 135 7 0 10 -262144 -1 -1 0 1;
#X obj 320 467 pack f f f;
#X obj 320 303 f;
#X floatatom 320 325 5 0 0 0 - - -, f 5;
#X msg 365 174 100;
#X obj 320 370 unpack f f;
#X floatatom 320 392 5 0 0 0 - - -, f 5;
#X floatatom 377 394 5 0 0 0 - - -, f 5;
#X obj 320 443 poly 4 1;
#X obj 320 492 route 1 2 3 4;
#X obj 108 161 hsl 128 15 0 127 0 1 \$0-polysaw-saw->pulse-s \$0-polysaw-saw->pulse-r
SAW->PULSE 135 7 0 10 -262144 -1 -1 0 1;
#X obj 108 196 hsl 128 15 1.27 127 1 1 \$0-polysaw-attack-s \$0-polysaw-attack-r
ATTACK 135 7 0 10 -262144 -1 -1 0 1;
#X obj 108 211 hsl 128 15 0 127 0 1 \$0-polysaw-hold-s \$0-polysaw-hold-r
HOLD 135 7 0 10 -262144 -1 -1 12700 1;
#X obj 108 225 hsl 128 15 0 127 0 1 \$0-polysaw-release-s \$0-polysaw-release-r
RELEASE 135 7 0 10 -262144 -1 -1 12700 1;
#X obj 320 346 pack f f;
#X obj 335 203 r \$0-polysaw-pitch-s;
#X obj 320 83 threshold~ 0.9 0 0.9 0;
#X floatatom 206 131 5 0 0 0 - - -, f 5;
#X obj 471 15 inlet~ PITCH CV;
#X obj 320 47 inlet~ TRIG;
#X obj 320 121 t b b b;
#X obj 471 152 snapshot~;
#X obj 471 174 * 127;
#X obj 335 225 +;
#X obj 335 247 clip 0 127;
#X obj 471 208 t b f;
#X obj 320 632 *~ 0.25;
#X obj 591 91 env~;
#X obj 591 113 change;
#X obj 591 135 t b;
#X floatatom 416 294 5 0 0 0 - - -, f 5;
#X obj 677 585 catch~ \$0-polysaw-eg;
#X obj 677 649 outlet~ EG OUT;
#X obj 677 607 *~ 0.25;
#X obj 108 176 hsl 128 15 0 127 0 1 \$0-polysaw-dtune-s \$0-polysaw-dtune-r
DTUNE 135 7 0 10 -262144 -1 -1 0 1;
#N canvas 224 22 962 575 voice2-ahr 0;
#X obj 43 6 inlet;
#X obj 43 28 unpack f f;
#X obj 100 51 sel 0;
#X obj 43 117 +~;
#X obj 43 147 mtof~;
#X obj 43 178 tabosc4~ \$0-saw;
#X obj 43 495 *~;
#X obj 43 517 outlet~;
#X obj 609 145 * 0.00787402;
#X obj 608 189 + 1;
#X obj 609 121 - 1.27;
#X obj 593 385 vline~;
#X obj 781 217 r \$0-polysaw-release-s;
#X obj 781 265 * 0.00787402;
#X obj 781 309 + 1;
#X obj 781 241 - 1.27;
#X obj 593 434 *~;
#X obj 593 478 *~;
#X obj 609 99 r \$0-polysaw-attack-s;
#X obj 593 219 f;
#X obj 43 50 sig~;
#X obj 609 167 * 1999;
#X obj 127 74 t b;
#X obj 654 188 r \$0-polysaw-hold-s;
#X obj 654 210 * 0.00787402;
#X obj 654 232 * 999;
#X obj 654 254 + 1;
#X msg 593 353 1 \$1 \, 0 \$3 \$2;
#X obj 593 241 t f f;
#X obj 593 326 pack f f f;
#X obj 620 293 +;
#X obj 593 508 throw~ \$0-polysaw-eg;
#X obj 155 164 tabosc4~ \$0-square;
#X obj 155 463 *~;
#X obj 43 464 *~;
#X obj 58 218 r \$0-polysaw-saw->pulse-s;
#X obj 58 240 / 127;
#X obj 58 262 t f f;
#X obj 170 327 pack 0 50;
#X obj 170 349 line~;
#X msg 58 284 1 \$1;
#X obj 58 306 -;
#X obj 58 328 pack 0 50;
#X obj 58 350 line~;
#X obj 376 12 r \$0-polysaw-dtune-s;
#X obj 376 34 * 0.00787402;
#X obj 376 78 pack 0 50;
#X obj 376 100 line~;
#X obj 376 56 * 0.33;
#X obj 58 372 +~;
#X obj 170 371 +~;
#X obj 170 393 clip~ 0 1;
#X obj 58 394 clip~ 0 1;
#X obj 378 192 inlet~;
#X obj 378 353 *~ -1;
#X obj 781 287 * 3999;
#X connect 0 0 1 0;
#X connect 1 0 20 0;
#X connect 1 1 2 0;
#X connect 2 1 22 0;
#X connect 3 0 4 0;
#X connect 4 0 5 0;
#X connect 4 0 32 0;
#X connect 5 0 34 0;
#X connect 6 0 7 0;
#X connect 8 0 21 0;
#X connect 9 0 19 1;
#X connect 10 0 8 0;
#X connect 11 0 16 0;
#X connect 11 0 16 1;
#X connect 12 0 15 0;
#X connect 13 0 55 0;
#X connect 14 0 29 2;
#X connect 15 0 13 0;
#X connect 16 0 17 0;
#X connect 16 0 17 1;
#X connect 17 0 6 1;
#X connect 17 0 31 0;
#X connect 18 0 10 0;
#X connect 19 0 28 0;
#X connect 20 0 3 0;
#X connect 21 0 9 0;
#X connect 22 0 19 0;
#X connect 23 0 24 0;
#X connect 24 0 25 0;
#X connect 25 0 26 0;
#X connect 26 0 30 1;
#X connect 27 0 11 0;
#X connect 28 0 29 0;
#X connect 28 1 30 0;
#X connect 29 0 27 0;
#X connect 30 0 29 1;
#X connect 32 0 33 0;
#X connect 33 0 6 0;
#X connect 34 0 6 0;
#X connect 35 0 36 0;
#X connect 36 0 37 0;
#X connect 37 0 40 0;
#X connect 37 1 38 0;
#X connect 38 0 39 0;
#X connect 39 0 50 0;
#X connect 40 0 41 0;
#X connect 41 0 42 0;
#X connect 42 0 43 0;
#X connect 43 0 49 0;
#X connect 44 0 45 0;
#X connect 45 0 48 0;
#X connect 46 0 47 0;
#X connect 47 0 3 1;
#X connect 48 0 46 0;
#X connect 49 0 52 0;
#X connect 50 0 51 0;
#X connect 51 0 33 1;
#X connect 52 0 34 1;
#X connect 53 0 50 1;
#X connect 53 0 54 0;
#X connect 54 0 49 1;
#X connect 55 0 14 0;
#X restore 338 547 pd voice2-ahr;
#N canvas 0 22 599 463 wavetables 0;
#X obj 44 36 loadbang;
#X obj 44 58 f \$0;
#X obj 44 89 t f f;
#X text 102 40 SAW WAVE;
#X msg 43 193 \; \$1-saw normalize 1;
#X obj 41 233 table \$0-saw;
#X msg 71 116 \; \$1-saw sinesum 512 1 0.5 0.33 0.25 0.2 0.16 0.14
0.125 0.111111 0.1 0.090909 0.083333 0.076923 0.0714285 0.066666 0.0625
0.058823 0.055555 0.052631 0.05 0.047619 0.045454 0.043478 0.041666
;
#X obj 42 263 loadbang;
#X obj 43 379 t f f;
#X obj 42 285 f \$0;
#X msg 43 466 \; \$1-square normalize 1;
#X obj 41 506 table \$0-square;
#X obj 95 345 bng 15 250 50 0 empty empty empty 17 7 0 10 -262144 -1
-1;
#X msg 111 395 \; \$1-square sinesum 512 1 0 0.33 0 0.2 0 0.142857
0 0.111111 0 0.090909 0 0.076923 0 0.066666 0 0.058823 0 0.0526315
0 0.047619 0 0.04347 0 0.04 0;
#X connect 0 0 1 0;
#X connect 1 0 2 0;
#X connect 2 0 4 0;
#X connect 2 1 6 0;
#X connect 7 0 9 0;
#X connect 8 0 10 0;
#X connect 8 1 13 0;
#X connect 9 0 8 0;
#X connect 12 0 9 0;
#X restore 52 281 pd wavetables;
#N canvas 224 23 962 575 voice1-ahr 0;
#X obj 43 6 inlet;
#X obj 43 28 unpack f f;
#X obj 100 51 sel 0;
#X obj 43 149 +~;
#X obj 43 179 mtof~;
#X obj 43 210 tabosc4~ \$0-saw;
#X obj 43 495 *~;
#X obj 43 517 outlet~;
#X obj 609 145 * 0.00787402;
#X obj 608 189 + 1;
#X obj 609 121 - 1.27;
#X obj 593 385 vline~;
#X obj 781 217 r \$0-polysaw-release-s;
#X obj 781 265 * 0.00787402;
#X obj 781 309 + 1;
#X obj 781 241 - 1.27;
#X obj 593 434 *~;
#X obj 593 478 *~;
#X obj 609 99 r \$0-polysaw-attack-s;
#X obj 593 219 f;
#X obj 43 50 sig~;
#X obj 609 167 * 1999;
#X obj 127 74 t b;
#X obj 654 188 r \$0-polysaw-hold-s;
#X obj 654 210 * 0.00787402;
#X obj 654 232 * 999;
#X obj 654 254 + 1;
#X msg 593 353 1 \$1 \, 0 \$3 \$2;
#X obj 593 241 t f f;
#X obj 593 326 pack f f f;
#X obj 620 293 +;
#X obj 593 508 throw~ \$0-polysaw-eg;
#X obj 155 196 tabosc4~ \$0-square;
#X obj 155 463 *~;
#X obj 43 464 *~;
#X obj 58 235 r \$0-polysaw-saw->pulse-s;
#X obj 58 257 / 127;
#X obj 58 279 t f f;
#X obj 170 344 pack 0 50;
#X obj 170 366 line~;
#X msg 58 301 1 \$1;
#X obj 58 323 -;
#X obj 58 345 pack 0 50;
#X obj 58 367 line~;
#X obj 361 69 inlet~;
#X obj 58 389 +~;
#X obj 170 388 +~;
#X obj 170 410 clip~ 0 1;
#X obj 58 411 clip~ 0 1;
#X obj 361 190 *~ -1;
#X obj 781 287 * 3999;
#X connect 0 0 1 0;
#X connect 1 0 20 0;
#X connect 1 1 2 0;
#X connect 2 1 22 0;
#X connect 3 0 4 0;
#X connect 4 0 5 0;
#X connect 4 0 32 0;
#X connect 5 0 34 0;
#X connect 6 0 7 0;
#X connect 8 0 21 0;
#X connect 9 0 19 1;
#X connect 10 0 8 0;
#X connect 11 0 16 0;
#X connect 11 0 16 1;
#X connect 12 0 15 0;
#X connect 13 0 50 0;
#X connect 14 0 29 2;
#X connect 15 0 13 0;
#X connect 16 0 17 0;
#X connect 16 0 17 1;
#X connect 17 0 6 1;
#X connect 17 0 31 0;
#X connect 18 0 10 0;
#X connect 19 0 28 0;
#X connect 20 0 3 0;
#X connect 21 0 9 0;
#X connect 22 0 19 0;
#X connect 23 0 24 0;
#X connect 24 0 25 0;
#X connect 25 0 26 0;
#X connect 26 0 30 1;
#X connect 27 0 11 0;
#X connect 28 0 29 0;
#X connect 28 1 30 0;
#X connect 29 0 27 0;
#X connect 30 0 29 1;
#X connect 32 0 33 0;
#X connect 33 0 6 0;
#X connect 34 0 6 0;
#X connect 35 0 36 0;
#X connect 36 0 37 0;
#X connect 37 0 40 0;
#X connect 37 1 38 0;
#X connect 38 0 39 0;
#X connect 39 0 46 0;
#X connect 40 0 41 0;
#X connect 41 0 42 0;
#X connect 42 0 43 0;
#X connect 43 0 45 0;
#X connect 44 0 46 1;
#X connect 44 0 49 0;
#X connect 45 0 48 0;
#X connect 46 0 47 0;
#X connect 47 0 33 1;
#X connect 48 0 34 1;
#X connect 49 0 45 1;
#X connect 50 0 14 0;
#X restore 320 522 pd voice1-ahr;
#X obj 215 629 *~ 0.5;
#X obj 103 108 cnv 5 5 5 empty empty TRIG 0 0 0 8 -262144 -226533 0
;
#X obj 106 137 cnv 5 5 5 empty empty POLYSYNTH 0 0 0 12 -262144 -66577
0;
#X obj 175 137 cnv 5 5 5 empty \$0-instance-num 1 0 0 0 12 -262144
-66577 0;
#X obj 106 113 bng 15 50 50 0 empty empty empty 17 7 0 10 -262144 -226533
-1;
#X obj 281 109 cnv 5 5 5 empty empty S->P 0 0 0 8 -262144 -66577 0
;
#N canvas 315 35 593 735 state-saving-multiple-instances 0;
#X obj 137 29 loadbang;
#X obj 184 452 textfile;
#X msg 466 435 rewind;
#X msg 423 435 bang;
#X obj 42 691 textfile;
#X obj 423 396 t b b;
#X obj 43 357 f;
#X obj 56 580 f;
#X obj -16 401 t b b b;
#X msg 119 580 clear;
#X obj 204 217 outlet;
#X text 246 221 INSTANCE NUMBER;
#X obj 165 153 f \$1;
#X obj 165 189 t f f f;
#X obj 138 62 t b b;
#X obj -16 378 bng 15 250 50 0 empty empty empty 17 7 0 10 -262144
-1 -1;
#X obj -16 234 r SAVE-S;
#X msg 43 438 set \$1 \$2 \$3 \$4 \$5 \$6;
#X obj 184 474 unpack f f f f f f;
#X obj 43 400 pack f f f f f f;
#X msg 55 651 write statesave/\$1-polysynth-ss.txt;
#X msg 184 427 read statesave/\$1-polysynth-ss.txt;
#X obj 58 254 r \$0-polysaw-pitch-s;
#X obj 184 627 s \$0-polysaw-pitch-r;
#X obj 66 277 r \$0-polysaw-saw->pulse-s;
#X obj 205 603 s \$0-polysaw-saw->pulse-r;
#X obj 80 298 r \$0-polysaw-dtune-s;
#X obj 226 579 s \$0-polysaw-dtune-r;
#X obj 98 323 r \$0-polysaw-attack-s;
#X obj 247 555 s \$0-polysaw-attack-r;
#X obj 123 352 r \$0-polysaw-hold-s;
#X obj 275 529 s \$0-polysaw-hold-r;
#X obj 144 375 r \$0-polysaw-release-s;
#X obj 290 499 s \$0-polysaw-release-r;
#X obj 222 45 r \$0-reload!;
#X connect 0 0 14 0;
#X connect 1 0 18 0;
#X connect 2 0 1 0;
#X connect 3 0 1 0;
#X connect 5 0 3 0;
#X connect 5 1 2 0;
#X connect 6 0 19 0;
#X connect 7 0 20 0;
#X connect 8 0 7 0;
#X connect 8 1 6 0;
#X connect 8 2 9 0;
#X connect 9 0 4 0;
#X connect 12 0 13 0;
#X connect 13 0 7 1;
#X connect 13 1 21 0;
#X connect 13 2 10 0;
#X connect 14 0 5 0;
#X connect 14 1 12 0;
#X connect 15 0 8 0;
#X connect 16 0 15 0;
#X connect 17 0 4 0;
#X connect 18 0 23 0;
#X connect 18 1 25 0;
#X connect 18 2 27 0;
#X connect 18 3 29 0;
#X connect 18 4 31 0;
#X connect 18 5 33 0;
#X connect 19 0 17 0;
#X connect 20 0 4 0;
#X connect 21 0 1 0;
#X connect 22 0 6 1;
#X connect 24 0 19 1;
#X connect 26 0 19 2;
#X connect 28 0 19 3;
#X connect 30 0 19 4;
#X connect 32 0 19 5;
#X connect 34 0 14 0;
#X restore 52 350 pd state-saving-multiple-instances;
#X obj 52 424 s \$0-instance-num;
#X obj 52 376 makefilename %d;
#X msg 52 401 label \$1;
#N canvas 81 22 1117 745 state-saving-via-preset-manager-module 0;
#X obj 340 227 textfile;
#X msg 719 210 rewind;
#X msg 676 210 bang;
#X obj 106 568 textfile;
#X obj 676 171 t b b;
#X obj 107 234 f;
#X obj 120 457 f;
#X obj 53 352 t b b b;
#X msg 236 499 clear;
#X obj 107 56 delay 5;
#X obj 53 407 delay 10;
#X msg 53 192 bang;
#X obj 53 26 r STORE-S!;
#X obj 340 128 f;
#X obj 313 85 t b b;
#X obj 328 49 t b f;
#X obj 385 146 f \$1;
#X obj 340 173 pack f f;
#X obj 385 96 loadbang;
#X obj 120 487 pack f f;
#X obj 165 440 loadbang;
#X obj 165 462 f \$1;
#X obj 328 26 r preset-manager-scan;
#X obj 135 418 r preset-manager-store-slot;
#X msg 106 368 set \$1 \$2 \$3 \$4 \$5 \$6;
#X obj 107 301 pack f f f f f f;
#X obj 340 249 unpack f f f f f f;
#X msg 340 202 read statesave/\$1-\$2-polysynth-ss.txt;
#X msg 119 528 write statesave/\$1-\$2-polysynth-ss.txt;
#X obj 123 78 r \$0-polysaw-pitch-s;
#X obj 345 714 s \$0-polysaw-pitch-r;
#X obj 136 107 r \$0-polysaw-saw->pulse-s;
#X obj 366 616 s \$0-polysaw-saw->pulse-r;
#X obj 146 146 r \$0-polysaw-dtune-s;
#X obj 384 517 s \$0-polysaw-dtune-r;
#X obj 169 173 r \$0-polysaw-attack-s;
#X obj 561 697 s \$0-polysaw-attack-r;
#X obj 183 196 r \$0-polysaw-hold-s;
#X obj 616 596 s \$0-polysaw-hold-r;
#X obj 195 236 r \$0-polysaw-release-s;
#X obj 618 406 s \$0-polysaw-release-r;
#N canvas 0 22 1069 747 morph-frequencies 0;
#X obj 176 94 inlet;
#X obj 176 236 pack f f;
#X obj 176 261 line;
#X obj 209 117 r preset-manager-morph-s;
#X msg 72 244 stop;
#X obj 72 214 r STOP-MORPH!;
#X obj 398 102 r frequencies-s;
#X obj 209 206 spigot;
#X obj 398 137 t f f;
#X obj 455 154 == 0;
#X obj 221 176 f;
#X floatatom 455 222 5 0 0 0 - - -, f 5;
#X obj 398 159 t b f;
#X floatatom 425 192 5 0 0 0 - - -, f 5;
#X obj 209 139 t f f;
#X obj 176 283 outlet;
#X connect 0 0 1 0;
#X connect 1 0 2 0;
#X connect 2 0 15 0;
#X connect 3 0 14 0;
#X connect 4 0 2 0;
#X connect 5 0 4 0;
#X connect 6 0 8 0;
#X connect 7 0 1 1;
#X connect 8 0 12 0;
#X connect 8 1 9 0;
#X connect 9 0 11 0;
#X connect 10 0 7 0;
#X connect 11 0 1 1;
#X connect 12 0 10 0;
#X connect 12 1 13 0;
#X connect 13 0 7 1;
#X connect 14 0 7 0;
#X connect 14 1 10 1;
#X restore 345 690 pd morph-frequencies;
#N canvas 0 22 1069 747 morph-parameters 0;
#X obj 176 94 inlet;
#X obj 176 236 pack f f;
#X obj 176 261 line;
#X obj 209 117 r preset-manager-morph-s;
#X msg 72 244 stop;
#X obj 72 214 r STOP-MORPH!;
#X obj 209 206 spigot;
#X obj 398 137 t f f;
#X obj 455 154 == 0;
#X obj 221 176 f;
#X floatatom 455 222 5 0 0 0 - - -, f 5;
#X obj 398 159 t b f;
#X floatatom 425 192 5 0 0 0 - - -, f 5;
#X obj 209 139 t f f;
#X obj 398 102 r parameters-s;
#X obj 176 288 outlet;
#X connect 0 0 1 0;
#X connect 1 0 2 0;
#X connect 2 0 15 0;
#X connect 3 0 13 0;
#X connect 4 0 2 0;
#X connect 5 0 4 0;
#X connect 6 0 1 1;
#X connect 7 0 11 0;
#X connect 7 1 8 0;
#X connect 8 0 10 0;
#X connect 9 0 6 0;
#X connect 10 0 1 1;
#X connect 11 0 9 0;
#X connect 11 1 12 0;
#X connect 12 0 6 1;
#X connect 13 0 6 0;
#X connect 13 1 9 1;
#X connect 14 0 7 0;
#X restore 368 591 pd morph-parameters;
#N canvas 0 22 1069 747 morph-parameters 0;
#X obj 176 94 inlet;
#X obj 176 236 pack f f;
#X obj 176 261 line;
#X obj 209 117 r preset-manager-morph-s;
#X msg 72 244 stop;
#X obj 72 214 r STOP-MORPH!;
#X obj 209 206 spigot;
#X obj 398 137 t f f;
#X obj 455 154 == 0;
#X obj 221 176 f;
#X floatatom 455 222 5 0 0 0 - - -, f 5;
#X obj 398 159 t b f;
#X floatatom 425 192 5 0 0 0 - - -, f 5;
#X obj 209 139 t f f;
#X obj 398 102 r parameters-s;
#X obj 176 288 outlet;
#X connect 0 0 1 0;
#X connect 1 0 2 0;
#X connect 2 0 15 0;
#X connect 3 0 13 0;
#X connect 4 0 2 0;
#X connect 5 0 4 0;
#X connect 6 0 1 1;
#X connect 7 0 11 0;
#X connect 7 1 8 0;
#X connect 8 0 10 0;
#X connect 9 0 6 0;
#X connect 10 0 1 1;
#X connect 11 0 9 0;
#X connect 11 1 12 0;
#X connect 12 0 6 1;
#X connect 13 0 6 0;
#X connect 13 1 9 1;
#X connect 14 0 7 0;
#X restore 383 493 pd morph-parameters;
#N canvas 0 22 1069 747 morph-parameters 0;
#X obj 176 94 inlet;
#X obj 176 236 pack f f;
#X obj 176 261 line;
#X obj 209 117 r preset-manager-morph-s;
#X msg 72 244 stop;
#X obj 72 214 r STOP-MORPH!;
#X obj 209 206 spigot;
#X obj 398 137 t f f;
#X obj 455 154 == 0;
#X obj 221 176 f;
#X floatatom 455 222 5 0 0 0 - - -, f 5;
#X obj 398 159 t b f;
#X floatatom 425 192 5 0 0 0 - - -, f 5;
#X obj 209 139 t f f;
#X obj 398 102 r parameters-s;
#X obj 176 288 outlet;
#X connect 0 0 1 0;
#X connect 1 0 2 0;
#X connect 2 0 15 0;
#X connect 3 0 13 0;
#X connect 4 0 2 0;
#X connect 5 0 4 0;
#X connect 6 0 1 1;
#X connect 7 0 11 0;
#X connect 7 1 8 0;
#X connect 8 0 10 0;
#X connect 9 0 6 0;
#X connect 10 0 1 1;
#X connect 11 0 9 0;
#X connect 11 1 12 0;
#X connect 12 0 6 1;
#X connect 13 0 6 0;
#X connect 13 1 9 1;
#X connect 14 0 7 0;
#X restore 560 671 pd morph-parameters;
#N canvas 0 22 1069 747 morph-parameters 0;
#X obj 176 94 inlet;
#X obj 176 236 pack f f;
#X obj 176 261 line;
#X obj 209 117 r preset-manager-morph-s;
#X msg 72 244 stop;
#X obj 72 214 r STOP-MORPH!;
#X obj 209 206 spigot;
#X obj 398 137 t f f;
#X obj 455 154 == 0;
#X obj 221 176 f;
#X floatatom 455 222 5 0 0 0 - - -, f 5;
#X obj 398 159 t b f;
#X floatatom 425 192 5 0 0 0 - - -, f 5;
#X obj 209 139 t f f;
#X obj 398 102 r parameters-s;
#X obj 176 288 outlet;
#X connect 0 0 1 0;
#X connect 1 0 2 0;
#X connect 2 0 15 0;
#X connect 3 0 13 0;
#X connect 4 0 2 0;
#X connect 5 0 4 0;
#X connect 6 0 1 1;
#X connect 7 0 11 0;
#X connect 7 1 8 0;
#X connect 8 0 10 0;
#X connect 9 0 6 0;
#X connect 10 0 1 1;
#X connect 11 0 9 0;
#X connect 11 1 12 0;
#X connect 12 0 6 1;
#X connect 13 0 6 0;
#X connect 13 1 9 1;
#X connect 14 0 7 0;
#X restore 616 572 pd morph-parameters;
#N canvas 0 22 1069 747 morph-parameters 0;
#X obj 176 94 inlet;
#X obj 176 236 pack f f;
#X obj 176 261 line;
#X obj 209 117 r preset-manager-morph-s;
#X msg 72 244 stop;
#X obj 72 214 r STOP-MORPH!;
#X obj 209 206 spigot;
#X obj 398 137 t f f;
#X obj 455 154 == 0;
#X obj 221 176 f;
#X floatatom 455 222 5 0 0 0 - - -, f 5;
#X obj 398 159 t b f;
#X floatatom 425 192 5 0 0 0 - - -, f 5;
#X obj 209 139 t f f;
#X obj 398 102 r parameters-s;
#X obj 176 288 outlet;
#X connect 0 0 1 0;
#X connect 1 0 2 0;
#X connect 2 0 15 0;
#X connect 3 0 13 0;
#X connect 4 0 2 0;
#X connect 5 0 4 0;
#X connect 6 0 1 1;
#X connect 7 0 11 0;
#X connect 7 1 8 0;
#X connect 8 0 10 0;
#X connect 9 0 6 0;
#X connect 10 0 1 1;
#X connect 11 0 9 0;
#X connect 11 1 12 0;
#X connect 12 0 6 1;
#X connect 13 0 6 0;
#X connect 13 1 9 1;
#X connect 14 0 7 0;
#X restore 619 380 pd morph-parameters;
#X connect 0 0 26 0;
#X connect 1 0 0 0;
#X connect 2 0 0 0;
#X connect 4 0 2 0;
#X connect 4 1 1 0;
#X connect 5 0 25 0;
#X connect 6 0 19 0;
#X connect 7 0 10 0;
#X connect 7 1 9 0;
#X connect 7 2 8 0;
#X connect 8 0 3 0;
#X connect 9 0 5 0;
#X connect 10 0 6 0;
#X connect 11 0 7 0;
#X connect 12 0 11 0;
#X connect 13 0 17 0;
#X connect 14 0 4 0;
#X connect 14 1 13 0;
#X connect 15 0 14 0;
#X connect 15 1 13 1;
#X connect 16 0 17 1;
#X connect 17 0 27 0;
#X connect 18 0 16 0;
#X connect 19 0 28 0;
#X connect 20 0 21 0;
#X connect 21 0 19 1;
#X connect 22 0 15 0;
#X connect 23 0 6 1;
#X connect 24 0 3 0;
#X connect 25 0 24 0;
#X connect 26 0 41 0;
#X connect 26 1 42 0;
#X connect 26 2 43 0;
#X connect 26 3 44 0;
#X connect 26 4 45 0;
#X connect 26 5 46 0;
#X connect 27 0 0 0;
#X connect 28 0 3 0;
#X connect 29 0 5 1;
#X connect 31 0 25 1;
#X connect 33 0 25 2;
#X connect 35 0 25 3;
#X connect 37 0 25 4;
#X connect 39 0 25 5;
#X connect 41 0 30 0;
#X connect 42 0 32 0;
#X connect 43 0 34 0;
#X connect 44 0 36 0;
#X connect 45 0 38 0;
#X connect 46 0 40 0;
#X restore 52 328 pd state-saving-via-preset-manager-module;
#N canvas 297 27 612 275 parameter-nudging-system 0;
#X obj 21 171 clip 0 127;
#X obj 213 173 clip 0 127;
#X obj 23 67 clip 0 127;
#X obj 214 69 clip 0 127;
#X obj 407 71 clip 0 127;
#X obj 23 22 r \$0-polysaw-pitch-s;
#X obj 23 95 s \$0-polysaw-pitch-r;
#X obj 214 24 r \$0-polysaw-saw->pulse-s;
#X obj 214 97 s \$0-polysaw-saw->pulse-r;
#X obj 407 24 r \$0-polysaw-dtune-s;
#X obj 407 97 s \$0-polysaw-dtune-r;
#X obj 21 126 r \$0-polysaw-attack-s;
#X obj 21 198 s \$0-polysaw-attack-r;
#X obj 213 128 r \$0-polysaw-hold-s;
#X obj 213 199 s \$0-polysaw-hold-r;
#X obj 409 173 clip 0 127;
#X obj 409 128 r \$0-polysaw-release-s;
#X obj 409 199 s \$0-polysaw-release-r;
#N canvas 0 22 484 497 nudge-freq 0;
#X obj 124 234 random;
#X obj 232 335 f;
#X obj 232 368 +;
#X obj 257 166 random 2;
#X obj 124 275 t f f;
#X obj 124 351 t b f;
#X obj 124 297 *;
#X obj 257 188 sel 0 1;
#X msg 257 280 -1;
#X msg 335 280 1;
#X obj 124 149 t b b b;
#X obj 124 51 r NUDGE!;
#X obj 157 193 r NUDGE-RANGE;
#X obj 247 308 inlet;
#X obj 232 397 outlet;
#X obj 124 73 spigot;
#X obj 185 56 r frequencies2-s;
#X connect 0 0 4 0;
#X connect 1 0 2 0;
#X connect 2 0 14 0;
#X connect 3 0 7 0;
#X connect 4 0 6 0;
#X connect 5 0 2 0;
#X connect 5 1 2 1;
#X connect 6 0 5 0;
#X connect 7 0 8 0;
#X connect 7 1 9 0;
#X connect 8 0 6 1;
#X connect 9 0 6 1;
#X connect 10 0 0 0;
#X connect 10 1 1 0;
#X connect 10 2 3 0;
#X connect 11 0 15 0;
#X connect 12 0 0 1;
#X connect 13 0 1 1;
#X connect 15 0 10 0;
#X connect 16 0 15 1;
#X restore 23 44 pd nudge-freq;
#N canvas 0 22 484 497 nudge-parameters 0;
#X obj 124 234 random;
#X obj 232 335 f;
#X obj 232 368 +;
#X obj 257 166 random 2;
#X obj 124 275 t f f;
#X obj 124 351 t b f;
#X obj 124 297 *;
#X obj 257 188 sel 0 1;
#X msg 257 280 -1;
#X msg 335 280 1;
#X obj 124 149 t b b b;
#X obj 124 74 r NUDGE!;
#X obj 157 193 r NUDGE-RANGE;
#X obj 247 308 inlet;
#X obj 232 397 outlet;
#X obj 124 96 spigot;
#X obj 185 79 r parameters2-s;
#X connect 0 0 4 0;
#X connect 1 0 2 0;
#X connect 2 0 14 0;
#X connect 3 0 7 0;
#X connect 4 0 6 0;
#X connect 5 0 2 0;
#X connect 5 1 2 1;
#X connect 6 0 5 0;
#X connect 7 0 8 0;
#X connect 7 1 9 0;
#X connect 8 0 6 1;
#X connect 9 0 6 1;
#X connect 10 0 0 0;
#X connect 10 1 1 0;
#X connect 10 2 3 0;
#X connect 11 0 15 0;
#X connect 12 0 0 1;
#X connect 13 0 1 1;
#X connect 15 0 10 0;
#X connect 16 0 15 1;
#X restore 214 47 pd nudge-parameters;
#N canvas 0 22 484 497 nudge-parameters 0;
#X obj 124 234 random;
#X obj 232 335 f;
#X obj 232 368 +;
#X obj 257 166 random 2;
#X obj 124 275 t f f;
#X obj 124 351 t b f;
#X obj 124 297 *;
#X obj 257 188 sel 0 1;
#X msg 257 280 -1;
#X msg 335 280 1;
#X obj 124 149 t b b b;
#X obj 124 74 r NUDGE!;
#X obj 157 193 r NUDGE-RANGE;
#X obj 247 308 inlet;
#X obj 232 397 outlet;
#X obj 124 96 spigot;
#X obj 185 79 r parameters2-s;
#X connect 0 0 4 0;
#X connect 1 0 2 0;
#X connect 2 0 14 0;
#X connect 3 0 7 0;
#X connect 4 0 6 0;
#X connect 5 0 2 0;
#X connect 5 1 2 1;
#X connect 6 0 5 0;
#X connect 7 0 8 0;
#X connect 7 1 9 0;
#X connect 8 0 6 1;
#X connect 9 0 6 1;
#X connect 10 0 0 0;
#X connect 10 1 1 0;
#X connect 10 2 3 0;
#X connect 11 0 15 0;
#X connect 12 0 0 1;
#X connect 13 0 1 1;
#X connect 15 0 10 0;
#X connect 16 0 15 1;
#X restore 407 48 pd nudge-parameters;
#N canvas 0 22 484 497 nudge-parameters 0;
#X obj 124 234 random;
#X obj 232 335 f;
#X obj 232 368 +;
#X obj 257 166 random 2;
#X obj 124 275 t f f;
#X obj 124 351 t b f;
#X obj 124 297 *;
#X obj 257 188 sel 0 1;
#X msg 257 280 -1;
#X msg 335 280 1;
#X obj 124 149 t b b b;
#X obj 124 74 r NUDGE!;
#X obj 157 193 r NUDGE-RANGE;
#X obj 247 308 inlet;
#X obj 232 397 outlet;
#X obj 124 96 spigot;
#X obj 185 79 r parameters2-s;
#X connect 0 0 4 0;
#X connect 1 0 2 0;
#X connect 2 0 14 0;
#X connect 3 0 7 0;
#X connect 4 0 6 0;
#X connect 5 0 2 0;
#X connect 5 1 2 1;
#X connect 6 0 5 0;
#X connect 7 0 8 0;
#X connect 7 1 9 0;
#X connect 8 0 6 1;
#X connect 9 0 6 1;
#X connect 10 0 0 0;
#X connect 10 1 1 0;
#X connect 10 2 3 0;
#X connect 11 0 15 0;
#X connect 12 0 0 1;
#X connect 13 0 1 1;
#X connect 15 0 10 0;
#X connect 16 0 15 1;
#X restore 20 148 pd nudge-parameters;
#N canvas 0 22 484 497 nudge-parameters 0;
#X obj 124 234 random;
#X obj 232 335 f;
#X obj 232 368 +;
#X obj 257 166 random 2;
#X obj 124 275 t f f;
#X obj 124 351 t b f;
#X obj 124 297 *;
#X obj 257 188 sel 0 1;
#X msg 257 280 -1;
#X msg 335 280 1;
#X obj 124 149 t b b b;
#X obj 124 74 r NUDGE!;
#X obj 157 193 r NUDGE-RANGE;
#X obj 247 308 inlet;
#X obj 232 397 outlet;
#X obj 124 96 spigot;
#X obj 185 79 r parameters2-s;
#X connect 0 0 4 0;
#X connect 1 0 2 0;
#X connect 2 0 14 0;
#X connect 3 0 7 0;
#X connect 4 0 6 0;
#X connect 5 0 2 0;
#X connect 5 1 2 1;
#X connect 6 0 5 0;
#X connect 7 0 8 0;
#X connect 7 1 9 0;
#X connect 8 0 6 1;
#X connect 9 0 6 1;
#X connect 10 0 0 0;
#X connect 10 1 1 0;
#X connect 10 2 3 0;
#X connect 11 0 15 0;
#X connect 12 0 0 1;
#X connect 13 0 1 1;
#X connect 15 0 10 0;
#X connect 16 0 15 1;
#X restore 214 149 pd nudge-parameters;
#N canvas 0 22 484 497 nudge-parameters 0;
#X obj 124 234 random;
#X obj 232 335 f;
#X obj 232 368 +;
#X obj 257 166 random 2;
#X obj 124 275 t f f;
#X obj 124 351 t b f;
#X obj 124 297 *;
#X obj 257 188 sel 0 1;
#X msg 257 280 -1;
#X msg 335 280 1;
#X obj 124 149 t b b b;
#X obj 124 74 r NUDGE!;
#X obj 157 193 r NUDGE-RANGE;
#X obj 247 308 inlet;
#X obj 232 397 outlet;
#X obj 124 96 spigot;
#X obj 185 79 r parameters2-s;
#X connect 0 0 4 0;
#X connect 1 0 2 0;
#X connect 2 0 14 0;
#X connect 3 0 7 0;
#X connect 4 0 6 0;
#X connect 5 0 2 0;
#X connect 5 1 2 1;
#X connect 6 0 5 0;
#X connect 7 0 8 0;
#X connect 7 1 9 0;
#X connect 8 0 6 1;
#X connect 9 0 6 1;
#X connect 10 0 0 0;
#X connect 10 1 1 0;
#X connect 10 2 3 0;
#X connect 11 0 15 0;
#X connect 12 0 0 1;
#X connect 13 0 1 1;
#X connect 15 0 10 0;
#X connect 16 0 15 1;
#X restore 407 150 pd nudge-parameters;
#X connect 0 0 12 0;
#X connect 1 0 14 0;
#X connect 2 0 6 0;
#X connect 3 0 8 0;
#X connect 4 0 10 0;
#X connect 5 0 18 0;
#X connect 7 0 19 0;
#X connect 9 0 20 0;
#X connect 11 0 21 0;
#X connect 13 0 22 0;
#X connect 15 0 17 0;
#X connect 16 0 23 0;
#X connect 18 0 2 0;
#X connect 19 0 3 0;
#X connect 20 0 4 0;
#X connect 21 0 0 0;
#X connect 22 0 1 0;
#X connect 23 0 15 0;
#X restore 52 306 pd parameter-nudging-system;
#X obj 286 257 cnv 5 5 5 empty empty ENV 0 0 0 8 -262144 -1 0;
#X obj 105 257 cnv 5 5 5 empty empty LEFT 0 0 0 8 -262144 -1 0;
#X obj 188 257 cnv 5 5 5 empty empty RIGHT 0 0 0 8 -262144 -1 0;
#X obj 548 410 inlet~ SAW-PULSE;
#N canvas 224 22 962 575 voice3-ahr 0;
#X obj 43 6 inlet;
#X obj 43 28 unpack f f;
#X obj 100 51 sel 0;
#X obj 43 117 +~;
#X obj 43 147 mtof~;
#X obj 43 178 tabosc4~ \$0-saw;
#X obj 43 495 *~;
#X obj 43 517 outlet~;
#X obj 609 145 * 0.00787402;
#X obj 608 189 + 1;
#X obj 609 121 - 1.27;
#X obj 593 385 vline~;
#X obj 781 217 r \$0-polysaw-release-s;
#X obj 781 265 * 0.00787402;
#X obj 781 309 + 1;
#X obj 781 241 - 1.27;
#X obj 593 434 *~;
#X obj 593 478 *~;
#X obj 609 99 r \$0-polysaw-attack-s;
#X obj 593 219 f;
#X obj 43 50 sig~;
#X obj 609 167 * 1999;
#X obj 127 74 t b;
#X obj 654 188 r \$0-polysaw-hold-s;
#X obj 654 210 * 0.00787402;
#X obj 654 232 * 999;
#X obj 654 254 + 1;
#X msg 593 353 1 \$1 \, 0 \$3 \$2;
#X obj 593 241 t f f;
#X obj 593 326 pack f f f;
#X obj 620 293 +;
#X obj 593 508 throw~ \$0-polysaw-eg;
#X obj 155 164 tabosc4~ \$0-square;
#X obj 155 463 *~;
#X obj 43 464 *~;
#X obj 58 218 r \$0-polysaw-saw->pulse-s;
#X obj 58 240 / 127;
#X obj 58 262 t f f;
#X obj 170 327 pack 0 50;
#X obj 170 349 line~;
#X msg 58 284 1 \$1;
#X obj 58 306 -;
#X obj 58 328 pack 0 50;
#X obj 58 350 line~;
#X obj 376 12 r \$0-polysaw-dtune-s;
#X obj 376 34 * 0.00787402;
#X obj 376 78 pack 0 50;
#X obj 376 100 line~;
#X obj 58 372 +~;
#X obj 170 371 +~;
#X obj 170 393 clip~ 0 1;
#X obj 58 394 clip~ 0 1;
#X obj 378 192 inlet~;
#X obj 378 353 *~ -1;
#X obj 376 56 * 0.166;
#X obj 781 287 * 3999;
#X connect 0 0 1 0;
#X connect 1 0 20 0;
#X connect 1 1 2 0;
#X connect 2 1 22 0;
#X connect 3 0 4 0;
#X connect 4 0 5 0;
#X connect 4 0 32 0;
#X connect 5 0 34 0;
#X connect 6 0 7 0;
#X connect 8 0 21 0;
#X connect 9 0 19 1;
#X connect 10 0 8 0;
#X connect 11 0 16 0;
#X connect 11 0 16 1;
#X connect 12 0 15 0;
#X connect 13 0 55 0;
#X connect 14 0 29 2;
#X connect 15 0 13 0;
#X connect 16 0 17 0;
#X connect 16 0 17 1;
#X connect 17 0 6 1;
#X connect 17 0 31 0;
#X connect 18 0 10 0;
#X connect 19 0 28 0;
#X connect 20 0 3 0;
#X connect 21 0 9 0;
#X connect 22 0 19 0;
#X connect 23 0 24 0;
#X connect 24 0 25 0;
#X connect 25 0 26 0;
#X connect 26 0 30 1;
#X connect 27 0 11 0;
#X connect 28 0 29 0;
#X connect 28 1 30 0;
#X connect 29 0 27 0;
#X connect 30 0 29 1;
#X connect 32 0 33 0;
#X connect 33 0 6 0;
#X connect 34 0 6 0;
#X connect 35 0 36 0;
#X connect 36 0 37 0;
#X connect 37 0 40 0;
#X connect 37 1 38 0;
#X connect 38 0 39 0;
#X connect 39 0 49 0;
#X connect 40 0 41 0;
#X connect 41 0 42 0;
#X connect 42 0 43 0;
#X connect 43 0 48 0;
#X connect 44 0 45 0;
#X connect 45 0 54 0;
#X connect 46 0 47 0;
#X connect 47 0 3 1;
#X connect 48 0 51 0;
#X connect 49 0 50 0;
#X connect 50 0 33 1;
#X connect 51 0 34 1;
#X connect 52 0 49 1;
#X connect 52 0 53 0;
#X connect 53 0 48 1;
#X connect 54 0 46 0;
#X connect 55 0 14 0;
#X restore 357 573 pd voice3-ahr;
#N canvas 224 22 962 575 voice4-ahr 0;
#X obj 43 6 inlet;
#X obj 43 28 unpack f f;
#X obj 100 51 sel 0;
#X obj 43 147 mtof~;
#X obj 43 178 tabosc4~ \$0-saw;
#X obj 43 495 *~;
#X obj 43 517 outlet~;
#X obj 609 145 * 0.00787402;
#X obj 608 189 + 1;
#X obj 609 121 - 1.27;
#X obj 593 385 vline~;
#X obj 781 217 r \$0-polysaw-release-s;
#X obj 781 265 * 0.00787402;
#X obj 781 309 + 1;
#X obj 781 241 - 1.27;
#X obj 593 434 *~;
#X obj 593 478 *~;
#X obj 609 99 r \$0-polysaw-attack-s;
#X obj 593 219 f;
#X obj 43 50 sig~;
#X obj 609 167 * 1999;
#X obj 127 74 t b;
#X obj 654 188 r \$0-polysaw-hold-s;
#X obj 654 210 * 0.00787402;
#X obj 654 232 * 999;
#X obj 654 254 + 1;
#X msg 593 353 1 \$1 \, 0 \$3 \$2;
#X obj 593 241 t f f;
#X obj 593 326 pack f f f;
#X obj 620 293 +;
#X obj 593 508 throw~ \$0-polysaw-eg;
#X obj 155 164 tabosc4~ \$0-square;
#X obj 155 463 *~;
#X obj 43 464 *~;
#X obj 58 218 r \$0-polysaw-saw->pulse-s;
#X obj 58 240 / 127;
#X obj 58 262 t f f;
#X obj 170 327 pack 0 50;
#X obj 170 349 line~;
#X msg 58 284 1 \$1;
#X obj 58 306 -;
#X obj 58 328 pack 0 50;
#X obj 58 350 line~;
#X obj 376 12 r \$0-polysaw-dtune-s;
#X obj 376 34 * 0.00787402;
#X obj 376 78 pack 0 50;
#X obj 376 100 line~;
#X obj 58 372 +~;
#X obj 170 371 +~;
#X obj 170 393 clip~ 0 1;
#X obj 58 394 clip~ 0 1;
#X obj 378 192 inlet~;
#X obj 378 353 *~ -1;
#X obj 376 56 * 0.166;
#X obj 43 117 -~;
#X obj 781 287 * 3999;
#X connect 0 0 1 0;
#X connect 1 0 19 0;
#X connect 1 1 2 0;
#X connect 2 1 21 0;
#X connect 3 0 4 0;
#X connect 3 0 31 0;
#X connect 4 0 33 0;
#X connect 5 0 6 0;
#X connect 7 0 20 0;
#X connect 8 0 18 1;
#X connect 9 0 7 0;
#X connect 10 0 15 0;
#X connect 10 0 15 1;
#X connect 11 0 14 0;
#X connect 12 0 55 0;
#X connect 13 0 28 2;
#X connect 14 0 12 0;
#X connect 15 0 16 0;
#X connect 15 0 16 1;
#X connect 16 0 5 1;
#X connect 16 0 30 0;
#X connect 17 0 9 0;
#X connect 18 0 27 0;
#X connect 19 0 54 0;
#X connect 20 0 8 0;
#X connect 21 0 18 0;
#X connect 22 0 23 0;
#X connect 23 0 24 0;
#X connect 24 0 25 0;
#X connect 25 0 29 1;
#X connect 26 0 10 0;
#X connect 27 0 28 0;
#X connect 27 1 29 0;
#X connect 28 0 26 0;
#X connect 29 0 28 1;
#X connect 31 0 32 0;
#X connect 32 0 5 0;
#X connect 33 0 5 0;
#X connect 34 0 35 0;
#X connect 35 0 36 0;
#X connect 36 0 39 0;
#X connect 36 1 37 0;
#X connect 37 0 38 0;
#X connect 38 0 48 0;
#X connect 39 0 40 0;
#X connect 40 0 41 0;
#X connect 41 0 42 0;
#X connect 42 0 47 0;
#X connect 43 0 44 0;
#X connect 44 0 53 0;
#X connect 45 0 46 0;
#X connect 46 0 54 1;
#X connect 47 0 50 0;
#X connect 48 0 49 0;
#X connect 49 0 32 1;
#X connect 50 0 33 1;
#X connect 51 0 48 1;
#X connect 51 0 52 0;
#X connect 52 0 47 1;
#X connect 53 0 45 0;
#X connect 54 0 3 0;
#X connect 55 0 13 0;
#X restore 376 601 pd voice4-ahr;
#X obj 190 108 cnv 5 5 5 empty empty PITCH 0 0 0 8 -262144 -66577 0
;
#X obj 321 707 outlet~ LEFT;
#X obj 488 703 outlet~ RIGHT;
#X obj 320 674 *~ 0.33;
#X obj 488 677 *~ 0.33;
#X obj 488 640 *~ 0.5;
#N canvas 460 23 967 752 external-messages 0;
#X floatatom 186 706 5 0 0 0 - - -, f 5;
#X obj 185 328 spigot;
#X obj 218 288 tgl 15 0 empty empty empty 17 7 0 10 -262144 -1 -1 0
1;
#X obj 254 272 ==;
#X obj 269 248 f \$1;
#X obj 269 224 loadbang;
#X msg 185 202 \$1 \$2;
#X msg 185 156 symbol \$1;
#X obj 185 180 pack s f;
#X obj 186 685 f;
#X obj 186 633 t b f;
#X obj 186 656 spigot;
#X obj 185 62 unpack s f f;
#X symbolatom 185 94 10 0 0 0 - - -, f 10;
#X obj 218 308 t f f;
#X obj 245 332 s \$0-msg-spigot;
#X obj 234 640 r \$0-msg-spigot;
#X floatatom 223 594 5 0 0 0 - - -, f 5;
#X obj 223 573 f;
#X obj 223 521 t b f;
#X obj 223 544 spigot;
#X obj 271 528 r \$0-msg-spigot;
#X floatatom 387 639 5 0 0 0 - - -, f 5;
#X obj 387 618 f;
#X obj 387 566 t b f;
#X obj 387 589 spigot;
#X obj 435 573 r \$0-msg-spigot;
#X floatatom 424 527 5 0 0 0 - - -, f 5;
#X obj 424 506 f;
#X obj 424 454 t b f;
#X obj 424 477 spigot;
#X obj 472 461 r \$0-msg-spigot;
#X floatatom 608 537 5 0 0 0 - - -, f 5;
#X obj 608 516 f;
#X obj 608 464 t b f;
#X obj 608 487 spigot;
#X obj 656 471 r \$0-msg-spigot;
#X obj 185 14 r polysynth;
#X obj 185 380 route PITCH SAW->PULSE DTUNE ATTACK HOLD RELEASE;
#X floatatom 781 524 5 0 0 0 - - -, f 5;
#X obj 781 503 f;
#X obj 781 451 t b f;
#X obj 781 474 spigot;
#X obj 829 458 r \$0-msg-spigot;
#X obj 186 726 s \$0-polysaw-pitch-r;
#X obj 223 614 s \$0-polysaw-saw->pulse-r;
#X obj 387 659 s \$0-polysaw-dtune-r;
#X obj 424 547 s \$0-polysaw-attack-r;
#X obj 608 557 s \$0-polysaw-hold-r;
#X obj 781 544 s \$0-polysaw-release-r;
#X connect 0 0 44 0;
#X connect 1 0 38 0;
#X connect 2 0 14 0;
#X connect 3 0 2 0;
#X connect 4 0 3 1;
#X connect 5 0 4 0;
#X connect 6 0 1 0;
#X connect 7 0 8 0;
#X connect 8 0 6 0;
#X connect 9 0 0 0;
#X connect 10 0 11 0;
#X connect 10 1 9 1;
#X connect 11 0 9 0;
#X connect 12 0 13 0;
#X connect 12 1 8 1;
#X connect 12 2 3 0;
#X connect 13 0 7 0;
#X connect 14 0 1 1;
#X connect 14 1 15 0;
#X connect 16 0 11 1;
#X connect 17 0 45 0;
#X connect 18 0 17 0;
#X connect 19 0 20 0;
#X connect 19 1 18 1;
#X connect 20 0 18 0;
#X connect 21 0 20 1;
#X connect 22 0 46 0;
#X connect 23 0 22 0;
#X connect 24 0 25 0;
#X connect 24 1 23 1;
#X connect 25 0 23 0;
#X connect 26 0 25 1;
#X connect 27 0 47 0;
#X connect 28 0 27 0;
#X connect 29 0 30 0;
#X connect 29 1 28 1;
#X connect 30 0 28 0;
#X connect 31 0 30 1;
#X connect 32 0 48 0;
#X connect 33 0 32 0;
#X connect 34 0 35 0;
#X connect 34 1 33 1;
#X connect 35 0 33 0;
#X connect 36 0 35 1;
#X connect 37 0 12 0;
#X connect 38 0 10 0;
#X connect 38 1 19 0;
#X connect 38 2 24 0;
#X connect 38 3 29 0;
#X connect 38 4 34 0;
#X connect 38 5 41 0;
#X connect 39 0 49 0;
#X connect 40 0 39 0;
#X connect 41 0 42 0;
#X connect 41 1 40 1;
#X connect 42 0 40 0;
#X connect 43 0 42 1;
#X restore 54 449 pd external-messages;
#X connect 0 0 17 0;
#X connect 1 0 9 0;
#X connect 2 0 3 0;
#X connect 3 0 14 0;
#X connect 4 0 14 1;
#X connect 5 0 6 0;
#X connect 5 1 7 0;
#X connect 6 0 8 0;
#X connect 7 0 8 1;
#X connect 8 0 1 0;
#X connect 8 1 1 1;
#X connect 8 2 1 2;
#X connect 9 0 37 0;
#X connect 9 1 35 0;
#X connect 9 2 54 0;
#X connect 9 3 55 0;
#X connect 14 0 5 0;
#X connect 15 0 23 0;
#X connect 16 0 20 0;
#X connect 18 0 21 0;
#X connect 18 0 27 0;
#X connect 19 0 16 0;
#X connect 20 0 2 0;
#X connect 20 1 4 0;
#X connect 21 0 22 0;
#X connect 22 0 25 0;
#X connect 23 0 24 0;
#X connect 24 0 2 1;
#X connect 24 0 30 0;
#X connect 25 0 23 0;
#X connect 25 1 23 1;
#X connect 26 0 59 0;
#X connect 26 0 60 0;
#X connect 27 0 28 0;
#X connect 28 0 29 0;
#X connect 29 0 21 0;
#X connect 31 0 33 0;
#X connect 33 0 32 0;
#X connect 35 0 26 0;
#X connect 35 0 61 0;
#X connect 37 0 26 0;
#X connect 37 0 38 0;
#X connect 38 0 59 0;
#X connect 44 0 46 0;
#X connect 46 0 47 0;
#X connect 47 0 45 0;
#X connect 53 0 37 1;
#X connect 53 0 35 1;
#X connect 53 0 54 1;
#X connect 53 0 55 1;
#X connect 54 0 26 0;
#X connect 54 0 38 0;
#X connect 55 0 26 0;
#X connect 55 0 61 0;
#X connect 59 0 57 0;
#X connect 60 0 58 0;
#X connect 61 0 60 0;
#X coords 0 -1 1 1 205 165 2 100 100;
