#N canvas 188 81 1678 917 10;
#X obj 350 149 bng 15 250 50 0 \$0-STORE-S! empty STORE 17 7 0 10 -261234
-258113 -1;
#X floatatom 313 136 5 0 0 0 - #0-store-slot-r -;
#X floatatom 313 168 5 0 0 0 - #0-recall-slot-r -;
#X obj 109 261 hsl 115 15 0 127 0 1 \$0-morph-slider-s \$0-morph-slider-r
MORPH -2 -8 0 10 -262144 -1 -1 22800 1;
#X floatatom 194 247 5 0 0 0 (ms) #0-morph-time-r -;
#X obj 106 571 / 127;
#X obj 106 593 * 9999;
#X obj 106 637 i;
#X obj 276 649 + 1;
#X obj 276 671 i;
#X text 272 600 CHOOSE SLOT LOCATION AND STORE!;
#X obj 494 895 s preset-manager-scan;
#X obj 106 659 t f f;
#X obj 108 196 hsl 115 15 0 127 0 1 \$0-scan-cv-att-s empty RECALL-CV
120 7 0 10 -158136 -1 -1 0 1;
#X obj 357 413 + 1;
#X obj 357 435 i;
#X obj 303 765 s preset-manager-store-slot;
#X obj 154 127 cnv 5 5 5 empty empty MANAGER 0 0 0 12 -262144 -66577
0;
#X obj 105 127 cnv 5 5 5 empty empty PRESET 0 0 0 12 -262144 -66577
0;
#X obj 573 100 inlet~;
#X text 570 83 SCAN CV IN;
#X obj 1096 128 inlet~;
#X text 1093 112 SEQ. STEP TRIG IN;
#X obj 573 275 snapshot~;
#X obj 641 211 loadbang;
#X obj 760 212 env~;
#X obj 573 320 spigot;
#X obj 572 465 t b f;
#X obj 760 234 > 0;
#X obj 573 183 *~;
#X obj 682 122 / 127;
#X obj 682 144 pack 0 50;
#X obj 682 166 line~;
#X msg 1096 172 bang;
#X obj 1096 194 f;
#X obj 1128 194 + 1;
#X obj 376 118 bng 15 250 50 0 STEP-S! empty empty 17 7 0 10 -262144
-226533 -1;
#X obj 781 111 r STEP-S!;
#X obj 103 111 cnv 5 5 5 empty empty RECALL(CV) 0 0 0 8 -262144 -158136
0;
#X obj 373 111 cnv 5 5 5 empty empty STEP! 0 0 0 8 -262144 -226533
0;
#X obj 231 261 hradio 15 1 1 3 \$0-morph-scale-s \$0-morph-scale-r
empty 0 -8 0 10 -262144 -1 -1 0;
#X text 230 247 10;
#X text 245 247 30;
#X text 260 247 60;
#X obj 244 359 sel 0 1 2;
#X msg 244 389 9999;
#X obj 244 576 t b f;
#X msg 261 419 29999;
#X msg 278 450 59999;
#X obj 105 149 hradio 15 1 0 16 \$0-store-location-s \$0-store-location-r
STORE 0 -8 0 10 -261234 -1 -1 2;
#X obj 105 181 hradio 15 1 0 16 \$0-recall-location-s \$0-recall-location-r
RECALL 0 -8 0 10 -204786 -13381 -1 0;
#X obj 106 279 bng 15 250 50 0 STOP-MORPH! empty STOP! 17 7 0 10 -262144
-1 -1;
#X obj 778 472 f;
#X obj 715 498 delay 500;
#X obj 778 520 + 1;
#X obj 763 542 f;
#X obj 357 477 t f f;
#X obj 495 543 i;
#X floatatom 572 422 5 0 0 0 - - -;
#X obj 573 393 i;
#X obj 641 245 metro 100;
#X obj 35 74 hsl 128 15 0 127 0 0 empty \$0-scan-avoid-clicks-r SCAN
133 7 0 10 -262144 -1 -1 0 1;
#X obj 31 252 / 127;
#X obj 31 318 i;
#X floatatom 31 340 5 0 0 0 - - -;
#X obj 778 494 t f f;
#X obj 891 459 delay 500;
#X obj 850 511 f;
#X obj 573 368 + 1;
#X obj 573 297 + 0;
#X obj 572 441 change 1;
#X obj 1243 360 f;
#X floatatom 1243 382 5 0 0 0 - - -;
#X obj 1229 284 loadbang;
#X obj 1229 306 delay 250;
#X obj 31 359 spigot;
#X obj 122 352 loadbang;
#X obj 118 381 t b b;
#X obj 122 411 delay 500;
#X msg 122 433 1;
#X msg 154 434 0;
#X obj 1022 474 loadbang;
#X obj 1022 496 t b b;
#X msg 1022 540 1;
#X msg 1054 541 0;
#X obj 850 533 spigot;
#X obj 1309 205 loadbang;
#X obj 1309 227 t b b;
#X obj 1309 249 delay 500;
#X msg 1309 272 1;
#X msg 1341 272 0;
#X obj 1243 401 spigot;
#X obj 1096 262 spigot;
#X obj 495 610 spigot;
#X obj 572 529 loadbang;
#X obj 572 551 t b b;
#X obj 572 573 delay 500;
#X msg 572 593 1;
#X msg 641 568 0;
#X obj 641 593 t b f;
#X obj 1022 518 delay 700;
#X obj 495 517 +;
#X obj 484 391 loadbang;
#X obj 484 413 delay 600;
#X obj 760 256 t f f;
#X obj 635 401 sel 0;
#X msg 635 478 0;
#X obj 635 500 t b f;
#X obj 671 362 change;
#X obj 105 537 spigot;
#X obj 171 481 loadbang;
#X obj 171 525 delay 500;
#X msg 171 569 1;
#X msg 203 548 0;
#X obj 105 508 t f f;
#X obj 58 547 f;
#X obj 171 503 t b b b;
#X obj 292 540 delay 1000;
#N canvas 518 73 450 300 start-up-avoid-load-_textfile-cliks 0;
#X obj 151 81 loadbang;
#X obj 152 193 line;
#X obj 151 103 t b b;
#X msg 152 160 127 100;
#X msg 214 163 0 100;
#X obj 178 128 delay 110;
#X obj 67 73 bng 15 250 50 0 empty empty empty 17 7 0 10 -262144 -1
-1;
#X obj 152 215 s \$0-scan-avoid-clicks-r;
#X connect 0 0 2 0;
#X connect 1 0 7 0;
#X connect 2 0 3 0;
#X connect 2 1 5 0;
#X connect 3 0 1 0;
#X connect 4 0 1 0;
#X connect 5 0 4 0;
#X connect 6 0 2 0;
#X restore 37 32 pd start-up-avoid-load-_textfile-cliks;
#X obj 1096 150 threshold~ 0.9 0 0.9 0;
#X obj 1096 240 % 16;
#X obj 763 567 mod 16;
#X obj 573 346 * 15;
#X obj 495 565 clip 1 16;
#X obj 31 274 * 15;
#X obj 291 276 tgl 15 0 \$0-attenuators-s \$0-attenuators-r ATTENUATORS
17 7 0 10 -262144 -1 -1 0 1;
#X obj 291 246 tgl 15 0 \$0-frequencies-s \$0-frequencies-r FREQUENCIES
17 7 0 10 -262144 -1 -1 0 1;
#X obj 291 261 tgl 15 0 \$0-parameters-s \$0-parameters-r PARAMETERS
17 7 0 10 -262144 -1 -1 0 1;
#X text 290 230 MORPH-SELECTOR:;
#X obj 105 220 cnv 5 290 5 empty empty empty 20 12 0 14 -233017 -66577
0;
#X obj 1096 216 + 1;
#X obj 212 127 cnv 5 5 5 empty \$0-instance-num \$1 0 0 0 12 -262144
-66577 0;
#N canvas 0 50 450 300 get_parent_dollarzero 0;
#X msg 192 124 0;
#X obj 151 82 loadbang;
#X msg 153 106 1;
#X obj 114 132 spigot;
#X obj 111 175 t f b;
#X obj 111 198 outlet;
#X obj 119 44 r ACTIVE_DOLLARZERO;
#X connect 0 0 3 1;
#X connect 1 0 2 0;
#X connect 2 0 3 1;
#X connect 3 0 4 0;
#X connect 4 0 5 0;
#X connect 4 1 0 0;
#X connect 6 0 3 0;
#X restore 551 638 pd get_parent_dollarzero;
#X obj 536 671 f;
#X obj 539 724 s ACTIVE_DOLLARZERO;
#X obj 357 394 r \$0-recall-location-s;
#X obj 357 571 s \$0-recall-slot-r;
#X obj -7 442 s \$0-recall-location-r;
#X obj 494 643 t f b;
#X obj 850 572 s \$0-recall-location-r;
#X obj 1096 281 s \$0-recall-location-r;
#X obj 1243 440 s \$0-recall-location-r;
#X obj 1258 328 r \$0-recall-location-s;
#X text 669 692 implementation of pseudo patch-level scope;
#X obj 276 623 r \$0-store-location-s;
#X obj 763 610 s \$0-store-location-r;
#X obj 793 420 r \$0-store-location-s;
#X obj 276 802 s \$0-store-slot-r;
#X obj 644 799 v \$0-frequencies-s;
#X obj 767 801 v \$0-parameters-s;
#X obj 888 798 v \$0-attenuators-s;
#X obj 647 822 s frequencies-s;
#X obj 767 826 s parameters-s;
#X obj 889 819 s attenuators-s;
#X obj 751 282 r \$0-STORE-S!;
#X obj 682 100 r \$0-scan-cv-att-s;
#X obj 150 676 s \$0-morph-time-r;
#X obj 106 700 s \$0-preset-manager-morph-s;
#X obj 1016 826 s preset-manager-morph-s;
#X obj 1019 801 v \$0-preset-manager-morph-s;
#X obj 494 753 t f b b b b, f 54;
#X obj 250 332 r \$0-morph-scale-s;
#X msg 1440 247 loadbang;
#X obj 1441 222 spigot 1;
#X msg 1506 198 0;
#X obj 1517 172 loadbang;
#X obj 1507 289 namecanvas \$0-this;
#X obj 1433 308 s \$0-this;
#X obj 23 476 r \$0-morph-slider-s;
#N canvas 0 50 1211 811 savestate 0;
#X obj 198 334 v \$0-frequencies-s;
#X obj 219 291 v \$0-parameters-s;
#X obj 238 248 v \$0-attenuators-s;
#X obj 158 53 savestate;
#X obj 251 204 v \$0-morph-scale-s;
#X obj 260 145 v \$0-morph-slider-s;
#X msg 198 357 -frequencies \$1;
#X msg 219 314 -parameters \$1;
#X msg 238 271 -attenuators \$1;
#X msg 251 227 -morph-scale \$1;
#X msg 260 168 -morph-slider \$1;
#X obj 110 272 list;
#X obj 72 375 list trim;
#X obj 204 112 t b b b b b b;
#X obj 410 145 v \$0-scope-s;
#X msg 410 168 -scope \$1;
#X obj 66 398 route -frequencies -parameters -attenuators -morph-scale
-morph-slider -scope;
#X msg 58 555 set \$1;
#X obj 30 532 t f f;
#X obj 79 459 t f f;
#X obj 205 530 t f f;
#X obj 234 433 t f f;
#X obj 387 464 t f f;
#X obj 516 472 t f f;
#X obj 512 551 s \$0-scope-s;
#X obj 391 539 s \$0-morph-slider-s;
#X obj 243 509 s \$0-morph-scale-s;
#X obj 206 595 s \$0-attenuators-s;
#X obj 86 530 s \$0-parameters-s;
#X obj 67 602 s \$0-frequencies-s;
#X msg 114 483 set \$1;
#X msg 237 553 set \$1;
#X obj 246 575 s \$0-attenuators-r;
#X obj 77 582 s \$0-frequencies-r;
#X obj 105 504 s \$0-parameters-r;
#X msg 542 497 set \$1;
#X obj 532 521 s \$0-scope-r;
#X obj 401 509 s \$0-morph-slider-r;
#X msg 412 485 set \$1;
#X msg 278 462 set \$1;
#X obj 267 486 s \$0-morph-scale-r;
#X connect 0 0 6 0;
#X connect 1 0 7 0;
#X connect 2 0 8 0;
#X connect 3 0 12 0;
#X connect 3 1 13 0;
#X connect 4 0 9 0;
#X connect 5 0 10 0;
#X connect 6 0 11 0;
#X connect 7 0 11 0;
#X connect 8 0 11 0;
#X connect 9 0 11 0;
#X connect 10 0 11 0;
#X connect 11 0 3 0;
#X connect 12 0 16 0;
#X connect 13 0 0 0;
#X connect 13 1 1 0;
#X connect 13 2 2 0;
#X connect 13 3 4 0;
#X connect 13 4 5 0;
#X connect 13 5 14 0;
#X connect 14 0 15 0;
#X connect 15 0 11 0;
#X connect 16 0 18 0;
#X connect 16 1 19 0;
#X connect 16 2 20 0;
#X connect 16 3 21 0;
#X connect 16 4 22 0;
#X connect 16 5 23 0;
#X connect 17 0 33 0;
#X connect 18 0 29 0;
#X connect 18 1 17 0;
#X connect 19 0 28 0;
#X connect 19 1 30 0;
#X connect 20 0 27 0;
#X connect 20 1 31 0;
#X connect 21 0 26 0;
#X connect 21 1 39 0;
#X connect 22 0 25 0;
#X connect 22 1 38 0;
#X connect 23 0 24 0;
#X connect 23 1 35 0;
#X connect 30 0 34 0;
#X connect 31 0 32 0;
#X connect 35 0 36 0;
#X connect 38 0 37 0;
#X connect 39 0 40 0;
#X restore 1430 344 pd savestate;
#N canvas 0 50 450 300 get_parent_dollarzero 0;
#X msg 192 124 0;
#X obj 151 82 loadbang;
#X msg 153 106 1;
#X obj 114 132 spigot;
#X obj 111 175 t f b;
#X obj 111 198 outlet;
#X obj 119 44 r ACTIVE_DOLLARZERO;
#X connect 0 0 3 1;
#X connect 1 0 2 0;
#X connect 2 0 3 1;
#X connect 3 0 4 0;
#X connect 4 0 5 0;
#X connect 4 1 0 0;
#X connect 6 0 3 0;
#X restore 862 310 pd get_parent_dollarzero;
#X obj 847 332 f;
#X obj 846 373 s ACTIVE_DOLLARZERO;
#X obj 800 396 s STORE-S!;
#X obj 276 743 t f f;
#X obj 882 210 v preset-manager-store-slot;
#X obj 751 315 t b b b b b b;
#X obj 879 298 s preset-manager-store-slot;
#X obj 846 353 * 1;
#X obj 549 698 * 1;
#X obj 251 115 vradio 15 1 0 2 \$0-scope-s \$0-scope-r SCOPE 0 -8 0
10 -257985 -1 -1 1;
#X text 268 113 GLOBAL;
#X text 268 127 LOCAL;
#X obj 605 672 r \$0-scope-s;
#X obj 884 330 r \$0-scope-s;
#N canvas 0 50 450 300 check-module-ID 0;
#X obj 105 44 inlet;
#X obj 96 192 moses;
#X obj 107 87 t b b;
#X obj 96 139 f \$1;
#X obj 168 137 v preset-manager-ID;
#X obj 154 235 v preset-manager-ID;
#X connect 0 0 2 0;
#X connect 1 1 5 0;
#X connect 2 0 3 0;
#X connect 2 1 4 0;
#X connect 3 0 1 0;
#X connect 4 0 1 1;
#X restore 1395 526 pd check-module-ID;
#X obj 1398 496 loadbang;
#X obj 1440 153 r preset-manager-\$1-loadbang;
#X obj 414 445 f \$1;
#X obj 412 488 * 16;
#X obj 413 424 loadbang;
#X obj 413 467 - 1;
#X obj 493 854 +;
#X obj 554 809 f \$1;
#X obj 552 852 * 16;
#X obj 553 788 loadbang;
#X obj 553 831 - 1;
#X obj 276 704 +;
#X obj 357 524 +;
#X connect 5 0 6 0;
#X connect 6 0 7 0;
#X connect 7 0 12 0;
#X connect 8 0 9 0;
#X connect 9 0 197 0;
#X connect 12 0 157 0;
#X connect 12 1 156 0;
#X connect 14 0 15 0;
#X connect 15 0 56 0;
#X connect 19 0 25 0;
#X connect 19 0 29 0;
#X connect 21 0 119 0;
#X connect 23 0 69 0;
#X connect 24 0 60 0;
#X connect 25 0 28 0;
#X connect 26 0 122 0;
#X connect 27 0 101 0;
#X connect 27 1 101 1;
#X connect 28 0 104 0;
#X connect 29 0 23 0;
#X connect 30 0 31 0;
#X connect 31 0 32 0;
#X connect 32 0 29 1;
#X connect 33 0 34 0;
#X connect 34 0 35 0;
#X connect 34 0 130 0;
#X connect 35 0 34 1;
#X connect 37 0 33 0;
#X connect 44 0 45 0;
#X connect 44 1 47 0;
#X connect 44 2 48 0;
#X connect 45 0 46 0;
#X connect 46 0 6 0;
#X connect 46 1 6 1;
#X connect 47 0 46 0;
#X connect 48 0 46 0;
#X connect 52 0 65 0;
#X connect 53 0 55 0;
#X connect 54 0 55 1;
#X connect 55 0 121 0;
#X connect 56 0 198 0;
#X connect 56 1 101 0;
#X connect 57 0 123 0;
#X connect 58 0 70 0;
#X connect 59 0 58 0;
#X connect 60 0 23 0;
#X connect 61 0 62 0;
#X connect 62 0 124 0;
#X connect 63 0 64 0;
#X connect 64 0 75 0;
#X connect 65 0 54 0;
#X connect 65 1 67 1;
#X connect 66 0 67 0;
#X connect 67 0 85 0;
#X connect 68 0 59 0;
#X connect 69 0 26 0;
#X connect 70 0 27 0;
#X connect 71 0 72 0;
#X connect 72 0 91 0;
#X connect 73 0 74 0;
#X connect 74 0 71 0;
#X connect 75 0 137 0;
#X connect 76 0 77 0;
#X connect 77 0 78 0;
#X connect 77 1 80 0;
#X connect 78 0 79 0;
#X connect 79 0 75 1;
#X connect 80 0 75 1;
#X connect 81 0 82 0;
#X connect 82 0 100 0;
#X connect 82 1 84 0;
#X connect 83 0 85 1;
#X connect 84 0 85 1;
#X connect 85 0 139 0;
#X connect 86 0 87 0;
#X connect 87 0 88 0;
#X connect 87 1 90 0;
#X connect 88 0 89 0;
#X connect 89 0 91 1;
#X connect 89 0 92 1;
#X connect 90 0 91 1;
#X connect 90 0 92 1;
#X connect 91 0 141 0;
#X connect 92 0 140 0;
#X connect 93 0 138 0;
#X connect 94 0 95 0;
#X connect 95 0 96 0;
#X connect 95 1 98 0;
#X connect 96 0 97 0;
#X connect 97 0 93 1;
#X connect 98 0 99 0;
#X connect 99 1 93 1;
#X connect 100 0 83 0;
#X connect 101 0 57 0;
#X connect 102 0 103 0;
#X connect 104 0 26 1;
#X connect 104 1 108 0;
#X connect 105 0 106 0;
#X connect 106 0 107 0;
#X connect 107 0 101 0;
#X connect 107 1 101 1;
#X connect 108 0 105 0;
#X connect 109 0 5 0;
#X connect 110 0 116 0;
#X connect 111 0 112 0;
#X connect 112 0 109 1;
#X connect 113 0 109 1;
#X connect 114 0 115 1;
#X connect 114 1 109 0;
#X connect 115 0 5 0;
#X connect 116 0 111 0;
#X connect 116 1 113 0;
#X connect 116 2 117 0;
#X connect 117 0 115 0;
#X connect 119 0 33 0;
#X connect 120 0 92 0;
#X connect 121 0 145 0;
#X connect 122 0 68 0;
#X connect 123 0 93 0;
#X connect 124 0 63 0;
#X connect 130 0 120 0;
#X connect 132 0 133 1;
#X connect 133 0 179 0;
#X connect 135 0 14 0;
#X connect 138 0 160 0;
#X connect 138 1 133 0;
#X connect 142 0 71 1;
#X connect 144 0 8 0;
#X connect 146 0 52 1;
#X connect 148 0 151 0;
#X connect 149 0 152 0;
#X connect 150 0 153 0;
#X connect 154 0 176 0;
#X connect 155 0 30 0;
#X connect 159 0 158 0;
#X connect 160 0 192 0;
#X connect 160 1 148 0;
#X connect 160 2 149 0;
#X connect 160 3 150 0;
#X connect 160 4 159 0;
#X connect 161 0 44 0;
#X connect 162 0 167 0;
#X connect 163 0 162 0;
#X connect 164 0 163 1;
#X connect 165 0 164 0;
#X connect 168 0 114 0;
#X connect 170 0 171 1;
#X connect 171 0 178 0;
#X connect 174 0 147 0;
#X connect 174 1 16 0;
#X connect 175 0 177 0;
#X connect 176 0 53 0;
#X connect 176 1 52 0;
#X connect 176 2 66 0;
#X connect 176 3 173 0;
#X connect 176 4 175 0;
#X connect 176 5 171 0;
#X connect 178 0 172 0;
#X connect 179 0 134 0;
#X connect 183 0 179 1;
#X connect 184 0 178 1;
#X connect 186 0 185 0;
#X connect 187 0 163 0;
#X connect 188 0 191 0;
#X connect 189 0 197 1;
#X connect 189 0 198 1;
#X connect 190 0 188 0;
#X connect 191 0 189 0;
#X connect 192 0 11 0;
#X connect 193 0 196 0;
#X connect 194 0 192 1;
#X connect 195 0 193 0;
#X connect 196 0 194 0;
#X connect 197 0 174 0;
#X connect 198 0 136 0;
#X coords 0 -1 1 1 300 200 2 100 100;
