#N canvas 0 32 1920 1023 10;
#X obj 350 134 bng 15 250 50 0 \$0-STORE-S! empty STORE 17 7 0 10 #fcc4c4 #fc0400 #000000;
#X floatatom 313 136 5 1 16 0 - \$0-store-slot-r - 0;
#X floatatom 313 168 5 0 0 0 - \$0-recall-slot-r - 0;
#X obj 109 261 hsl 115 15 0 127 0 0 \$0-morph-slider-s \$0-morph-slider-r MORPH -2 -8 0 10 #fcfcfc #000000 #000000 0 1;
#X floatatom 184 245 6 0 0 0 (ms) \$0-morph-time-r - 0;
#X obj 106 571 / 127;
#X obj 106 593 * 9999;
#X obj 106 637 i;
#X obj 276 649 + 1;
#X obj 276 671 i;
#X text 272 600 CHOOSE SLOT LOCATION AND STORE!;
#X obj 494 895 s preset-manager-scan;
#X obj 106 659 t f f;
#X obj 108 196 hsl 115 15 0 127 0 0 \$0-scan-cv-att-s \$0-scan-cv-att-r RECALL-CV 120 7 0 10 #9898dc #000000 #000000 0 1;
#X obj 357 413 + 1;
#X obj 357 435 i;
#X obj 303 765 s preset-manager-store-slot;
#X obj 154 127 cnv 5 5 5 empty empty MANAGER 0 0 0 12 #fcfcfc #404040 0;
#X obj 105 127 cnv 5 5 5 empty empty PRESET 0 0 0 12 #fcfcfc #404040 0;
#X obj 535 33 inlet~;
#X text 532 16 SCAN CV IN;
#X obj 1096 128 inlet~;
#X text 1093 112 SEQ. STEP TRIG IN;
#X obj 535 128 snapshot~;
#X obj 603 64 loadbang;
#X obj 605 211 / 127;
#X msg 1096 172 bang;
#X obj 1096 194 f;
#X obj 1128 194 + 1;
#X obj 376 118 bng 15 250 50 0 \$0-STEP-S! empty empty 17 7 0 10 #fcfcfc #dc4c90 #000000;
#X obj 103 111 cnv 5 5 5 empty empty RECALL(CV) 0 0 0 8 #fcfcfc #9898dc 0;
#X obj 373 111 cnv 5 5 5 empty empty STEP! 0 0 0 8 #fcfcfc #dc4c90 0;
#X obj 231 261 hradio 15 1 0 3 \$0-morph-scale-s \$0-morph-scale-r empty 0 -8 0 10 #fcfcfc #000000 #000000 0;
#X text 230 247 10;
#X text 245 247 30;
#X text 260 247 60;
#X obj 244 359 sel 0 1 2;
#X msg 244 389 9999;
#X obj 244 576 t b f;
#X msg 261 419 29999;
#X msg 278 450 59999;
#X obj 105 149 hradio 15 1 0 16 \$0-store-location-s \$0-store-location-r STORE 0 -8 0 10 #fcc4c4 #000000 #000000 0;
#X obj 105 181 hradio 15 1 0 16 \$0-recall-location-s \$0-recall-location-r RECALL 0 -8 0 10 #c4fcc4 #0c4410 #000000 0;
#X obj 106 279 bng 15 250 50 0 STOP-MORPH! empty STOP! 17 7 0 10 #fcfcfc #000000 #000000;
#X obj 715 498 delay 500;
#X obj 778 520 + 1;
#X obj 763 542 f;
#X obj 603 98 metro 100;
#X obj 35 74 hsl 128 15 0 127 0 0 empty \$0-scan-avoid-clicks-r SCAN 133 7 0 10 #fcfcfc #000000 #000000 0 1;
#X obj 31 252 / 127;
#X obj 31 318 i;
#X floatatom 31 340 5 0 0 0 - - - 0;
#X obj 786 462 t f f;
#X obj 891 459 delay 500;
#X obj 850 511 f;
#X obj 1243 360 f;
#X floatatom 1243 382 5 0 0 0 - - - 0;
#X obj 1229 284 loadbang;
#X obj 1229 306 delay 250;
#X obj 31 359 spigot;
#X obj 122 352 loadbang;
#X obj 118 381 t b b;
#X obj 122 411 delay 500;
#X msg 122 433 1;
#X msg 154 434 0;
#X obj 1022 474 loadbang;
#X obj 1022 496 t b b;
#X msg 1022 540 1;
#X msg 1054 541 0;
#X obj 850 540 spigot;
#X obj 1309 205 loadbang;
#X obj 1309 227 t b b;
#X obj 1309 249 delay 500;
#X msg 1309 272 1;
#X msg 1341 272 0;
#X obj 1243 401 spigot;
#X obj 1096 262 spigot;
#X obj 495 610 spigot;
#X obj 572 529 loadbang;
#X obj 572 551 t b b;
#X obj 572 573 delay 500;
#X msg 572 593 1;
#X msg 641 568 0;
#X obj 641 593 t b f;
#X obj 1022 518 delay 700;
#X obj 105 537 spigot;
#X obj 171 481 loadbang;
#X obj 171 525 delay 500;
#X msg 171 569 1;
#X msg 203 548 0;
#X obj 105 508 t f f;
#X obj 58 547 f;
#X obj 171 503 t b b b;
#X obj 267 542 delay 1000;
#N canvas 518 73 450 300 start-up-avoid-load-_textfile-cliks 0;
#X obj 148 48 loadbang;
#X obj 152 193 line;
#X obj 151 103 t b b;
#X msg 152 160 127 100;
#X msg 214 163 0 100;
#X obj 178 128 delay 110;
#X obj 67 73 bng 15 250 50 0 empty empty empty 17 7 0 10 #fcfcfc #000000 #000000;
#X obj 152 215 s \$0-scan-avoid-clicks-r;
#X text 147 77 disabled \, as we don't use anymore HDD;
#X connect 1 0 7 0;
#X connect 2 0 3 0;
#X connect 2 1 5 0;
#X connect 3 0 1 0;
#X connect 4 0 1 0;
#X connect 5 0 4 0;
#X connect 6 0 2 0;
#X restore 37 32 pd start-up-avoid-load-_textfile-cliks;
#X obj 1096 150 threshold~ 0.9 0 0.9 0;
#X obj 1096 240 % 16;
#X obj 763 567 mod 16;
#X obj 495 565 clip 1 16;
#X obj 31 274 * 15;
#X obj 291 276 tgl 15 0 \$0-attenuators-s \$0-attenuators-r ATTENUATORS 17 7 0 10 #fcfcfc #000000 #000000 0 1;
#X obj 291 246 tgl 15 0 \$0-frequencies-s \$0-frequencies-r FREQUENCIES 17 7 0 10 #fcfcfc #000000 #000000 0 1;
#X obj 291 261 tgl 15 0 \$0-parameters-s \$0-parameters-r PARAMETERS 17 7 0 10 #fcfcfc #000000 #000000 0 1;
#X text 290 230 MORPH-SELECTOR:;
#X obj 105 220 cnv 5 290 5 empty empty empty 20 12 0 14 #e0e0e0 #404040 0;
#X obj 1096 216 + 1;
#X obj 212 127 cnv 5 5 5 empty \$0-instance-num \$1 0 0 0 12 #fcfcfc #404040 0;
#X obj 536 671 f;
#X obj 539 724 s ACTIVE_DOLLARZERO;
#X obj 357 377 r \$0-recall-location-s;
#X obj 342 909 s \$0-recall-slot-r;
#X obj -7 442 s \$0-recall-location-r;
#X obj 494 643 t f b;
#X obj 852 589 s \$0-recall-location-r;
#X obj 1096 281 s \$0-recall-location-r;
#X obj 1243 440 s \$0-recall-location-r;
#X obj 1258 328 r \$0-recall-location-s;
#X text 669 692 implementation of pseudo patch-level scope;
#X obj 276 623 r \$0-store-location-s;
#X obj 763 610 s \$0-store-location-r;
#X obj 276 802 s \$0-store-slot-r;
#X obj 644 799 v \$0-frequencies-s;
#X obj 767 801 v \$0-parameters-s;
#X obj 888 798 v \$0-attenuators-s;
#X obj 647 822 s frequencies-s;
#X obj 767 826 s parameters-s;
#X obj 889 819 s attenuators-s;
#X obj 740 190 r \$0-STORE-S!;
#X obj 605 189 r \$0-scan-cv-att-s;
#X obj 150 676 s \$0-morph-time-r;
#X obj 106 700 s \$0-preset-manager-morph-s;
#X obj 1016 826 s preset-manager-morph-s;
#X obj 1019 801 v \$0-preset-manager-morph-s;
#X obj 494 753 t f b b b b, f 54;
#X obj 250 332 r \$0-morph-scale-s;
#X msg 1440 247 loadbang;
#X obj 1441 222 spigot 1;
#X msg 1506 198 0;
#X obj 1517 172 loadbang;
#X obj 1507 289 namecanvas \$0-this;
#X obj 1433 308 s \$0-this;
#X obj 23 476 r \$0-morph-slider-s;
#X obj 893 311 f;
#X obj 892 352 s ACTIVE_DOLLARZERO;
#X obj 800 348 s STORE-S!;
#X obj 276 743 t f f;
#X obj 842 147 v preset-manager-store-slot;
#X obj 740 223 t b b b b b b;
#X obj 842 194 s preset-manager-store-slot;
#X obj 251 115 vradio 15 1 0 2 \$0-scope-s \$0-scope-r SCOPE 0 -8 0 10 #f8fc00 #000000 #000000 0;
#X text 268 113 GLOBAL;
#X text 268 127 LOCAL;
#X obj 605 672 r \$0-scope-s;
#X obj 930 309 r \$0-scope-s;
#N canvas 1468 599 450 300 check-module-ID 0;
#X obj 105 44 inlet;
#X obj 96 192 moses;
#X obj 107 87 t b b;
#X obj 96 139 f \$1;
#X obj 168 137 v preset-manager-ID;
#X obj 154 235 v preset-manager-ID;
#X connect 0 0 2 0;
#X connect 1 1 5 0;
#X connect 2 0 3 0;
#X connect 2 1 4 0;
#X connect 3 0 1 0;
#X connect 4 0 1 1;
#X restore 1395 526 pd check-module-ID;
#X obj 1398 496 loadbang;
#X obj 1440 153 r preset-manager-\$1-loadbang;
#X obj 322 668 f \$1;
#X obj 320 711 * 16;
#X obj 321 647 loadbang;
#X obj 321 690 - 1;
#X obj 493 854 +;
#X obj 554 809 f \$1;
#X obj 552 852 * 16;
#X obj 553 788 loadbang;
#X obj 553 831 - 1;
#X obj 276 704 +;
#N canvas 0 57 1920 1023 state-saving-multiple-instances 0;
#X obj 205 1 loadbang;
#X msg 587 297 rewind;
#X msg 544 297 bang;
#X obj 110 663 reloaded/textfile \$0;
#X obj 544 258 t b b;
#X obj 111 329 f;
#X obj 124 552 f;
#X obj 52 373 t b b b;
#X msg 187 552 clear;
#X obj 272 189 outlet;
#X text 314 193 INSTANCE NUMBER;
#X obj 233 125 f \$1;
#X obj 233 161 t f f f;
#X obj 206 34 t b b;
#X obj 52 350 bng 15 250 50 0 empty \$0-save-s empty 17 7 0 10 #fcfcfc #000000 #000000;
#X obj 52 206 r SAVE-S;
#X obj 369 105 bng 15 250 50 0 empty empty empty 17 7 0 10 #fcfcfc #000000 #000000;
#X obj 82 136 r \$0-frequencies-s;
#X obj 98 159 r \$0-parameters-s;
#X obj 120 184 r \$0-attenuators-s;
#X obj 138 209 r \$0-morph-scale-s;
#X obj 158 234 r \$0-morph-slider-s;
#X obj 176 255 r \$0-scope-s;
#X msg 123 623 write statesave/\$1-preset-manager-ss.txt;
#X msg 317 399 read statesave/\$1-preset-manager-ss.txt;
#X obj 317 696 s \$0-frequencies-r;
#X obj 338 672 s \$0-parameters-r;
#X obj 359 648 s \$0-attenuators-r;
#X obj 380 624 s \$0-morph-scale-r;
#X obj 401 598 s \$0-morph-slider-r;
#X obj 422 574 s \$0-scope-r;
#X obj 196 276 r \$0-scan-cv-att-s;
#X obj 111 372 pack f f f f f f f;
#X msg 111 410 set \$1 \$2 \$3 \$4 \$5 \$6 \$7;
#X obj 313 455 unpack f f f f f f f;
#X obj 437 538 s \$0-scan-cv-att-r;
#X obj 317 424 reloaded/textfile \$0 init;
#X connect 0 0 13 0;
#X connect 1 0 36 0;
#X connect 2 0 36 0;
#X connect 4 0 2 0;
#X connect 4 1 1 0;
#X connect 5 0 32 0;
#X connect 6 0 23 0;
#X connect 7 0 6 0;
#X connect 7 1 5 0;
#X connect 7 2 8 0;
#X connect 8 0 3 0;
#X connect 11 0 12 0;
#X connect 12 0 6 1;
#X connect 12 1 24 0;
#X connect 12 2 9 0;
#X connect 13 0 4 0;
#X connect 13 1 11 0;
#X connect 14 0 7 0;
#X connect 15 0 14 0;
#X connect 16 0 11 0;
#X connect 17 0 5 1;
#X connect 18 0 32 1;
#X connect 19 0 32 2;
#X connect 20 0 32 3;
#X connect 21 0 32 4;
#X connect 22 0 32 5;
#X connect 23 0 3 0;
#X connect 24 0 36 0;
#X connect 31 0 32 6;
#X connect 32 0 33 0;
#X connect 33 0 3 0;
#X connect 34 0 25 0;
#X connect 34 1 26 0;
#X connect 34 2 27 0;
#X connect 34 3 28 0;
#X connect 34 4 29 0;
#X connect 34 5 30 0;
#X connect 34 6 35 0;
#X connect 36 0 34 0;
#X restore 1330 579 pd state-saving-multiple-instances;
#X obj 1336 699 reloaded preset-manager \$0 \$1;
#X obj 1376 659 savestate;
#X obj 769 377 v \$0-store-location-s;
#X obj 795 427 s \$0-store-location-s;
#X obj 766 401 t f f;
#X msg 851 564 set \$1;
#X obj 573 340 int;
#X obj 572 391 change 0;
#X obj 570 423 s \$0-recall-location-r;
#X obj 535 150 * 127;
#X obj 535 172 int;
#X obj 573 264 *;
#X obj 535 218 / 127;
#X floatatom 605 233 5 0 0 0 - - - 0;
#X floatatom 535 240 5 0 0 0 - - - 0;
#X floatatom 573 362 5 0 0 0 - - - 0;
#X obj 535 194 change -1;
#X floatatom 485 154 5 0 0 0 - - - 0;
#X obj 573 296 * 16;
#X obj 781 111 r \$0-STEP-S!;
#X obj 1136 490 r preset-manager-scan;
#X obj 1174 547 f \$1;
#X obj 1172 590 * 16;
#X obj 1173 526 loadbang;
#X obj 1173 569 - 1;
#X obj 1113 592 -;
#X obj 1238 528 bng 15 250 50 0 empty empty empty 17 7 0 10 #fcfcfc #000000 #000000;
#X obj 1103 651 moses 0;
#X obj 1117 676 moses 16;
#X msg 1104 738 set \$1;
#X obj 1104 761 s \$0-recall-location-r;
#X obj 1120 711 t f f;
#X obj 1201 709 +;
#X msg 1256 742 set \$1;
#X obj 1256 765 s \$0-recall-slot-r;
#X obj 1108 622 - 1;
#X obj 1194 650 + 1;
#X obj 1481 673 namecanvas \$0-this;
#N canvas 977 664 450 300 vanilla_get_parent_dollarzero 0;
#X obj 111 198 outlet;
#X obj 109 150 v ACTIVE_DOLLARZERO;
#X obj 109 112 loadbang;
#X connect 1 0 0 0;
#X connect 2 0 1 0;
#X restore 891 259 pd vanilla_get_parent_dollarzero;
#N canvas 977 664 450 300 vanilla_get_parent_dollarzero 0;
#X obj 111 198 outlet;
#X obj 109 150 v ACTIVE_DOLLARZERO;
#X obj 109 112 loadbang;
#X connect 1 0 0 0;
#X connect 2 0 1 0;
#X restore 548 636 pd vanilla_get_parent_dollarzero;
#X obj 549 698 * 0;
#X obj 892 332 * 0;
#X obj 493 804 pipe f 2;
#X obj 792 286 delay 2;
#X connect 5 0 6 0;
#X connect 6 0 7 0;
#X connect 7 0 12 0;
#X connect 8 0 9 0;
#X connect 9 0 166 0;
#X connect 12 0 130 0;
#X connect 12 1 129 0;
#X connect 14 0 15 0;
#X connect 15 0 98 0;
#X connect 19 0 23 0;
#X connect 21 0 95 0;
#X connect 23 0 177 0;
#X connect 23 0 185 0;
#X connect 24 0 47 0;
#X connect 25 0 179 1;
#X connect 25 0 181 0;
#X connect 26 0 27 0;
#X connect 27 0 28 0;
#X connect 27 0 105 0;
#X connect 28 0 27 1;
#X connect 36 0 37 0;
#X connect 36 1 39 0;
#X connect 36 2 40 0;
#X connect 37 0 38 0;
#X connect 38 0 6 0;
#X connect 38 1 6 1;
#X connect 39 0 38 0;
#X connect 40 0 38 0;
#X connect 44 0 46 0;
#X connect 45 0 46 1;
#X connect 46 0 97 0;
#X connect 47 0 23 0;
#X connect 48 0 49 0;
#X connect 49 0 99 0;
#X connect 50 0 51 0;
#X connect 51 0 59 0;
#X connect 52 0 45 0;
#X connect 52 1 54 1;
#X connect 53 0 54 0;
#X connect 54 0 69 0;
#X connect 55 0 56 0;
#X connect 56 0 75 0;
#X connect 57 0 58 0;
#X connect 58 0 55 0;
#X connect 59 0 111 0;
#X connect 60 0 61 0;
#X connect 61 0 62 0;
#X connect 61 1 64 0;
#X connect 62 0 63 0;
#X connect 63 0 59 1;
#X connect 64 0 59 1;
#X connect 65 0 66 0;
#X connect 66 0 84 0;
#X connect 66 1 68 0;
#X connect 67 0 69 1;
#X connect 68 0 69 1;
#X connect 69 0 173 0;
#X connect 70 0 71 0;
#X connect 71 0 72 0;
#X connect 71 1 74 0;
#X connect 72 0 73 0;
#X connect 73 0 75 1;
#X connect 73 0 76 1;
#X connect 74 0 75 1;
#X connect 74 0 76 1;
#X connect 75 0 115 0;
#X connect 76 0 114 0;
#X connect 77 0 112 0;
#X connect 78 0 79 0;
#X connect 79 0 80 0;
#X connect 79 1 82 0;
#X connect 80 0 81 0;
#X connect 81 0 77 1;
#X connect 82 0 83 0;
#X connect 83 1 77 1;
#X connect 84 0 67 0;
#X connect 85 0 5 0;
#X connect 86 0 92 0;
#X connect 87 0 88 0;
#X connect 88 0 85 1;
#X connect 89 0 85 1;
#X connect 90 0 91 1;
#X connect 90 1 85 0;
#X connect 91 0 5 0;
#X connect 92 0 87 0;
#X connect 92 1 89 0;
#X connect 92 2 93 0;
#X connect 93 0 91 0;
#X connect 95 0 26 0;
#X connect 96 0 76 0;
#X connect 97 0 119 0;
#X connect 98 0 77 0;
#X connect 99 0 50 0;
#X connect 105 0 96 0;
#X connect 107 0 208 0;
#X connect 109 0 14 0;
#X connect 112 0 133 0;
#X connect 112 1 107 0;
#X connect 116 0 55 1;
#X connect 118 0 8 0;
#X connect 121 0 124 0;
#X connect 122 0 125 0;
#X connect 123 0 126 0;
#X connect 127 0 147 0;
#X connect 128 0 25 0;
#X connect 132 0 131 0;
#X connect 133 0 210 0;
#X connect 133 1 121 0;
#X connect 133 2 122 0;
#X connect 133 3 123 0;
#X connect 133 4 132 0;
#X connect 134 0 36 0;
#X connect 135 0 140 0;
#X connect 136 0 135 0;
#X connect 137 0 136 1;
#X connect 138 0 137 0;
#X connect 141 0 90 0;
#X connect 142 0 209 0;
#X connect 145 0 120 0;
#X connect 145 1 16 0;
#X connect 146 0 148 0;
#X connect 147 0 44 0;
#X connect 147 1 170 0;
#X connect 147 2 53 0;
#X connect 147 3 211 0;
#X connect 147 4 146 0;
#X connect 147 5 142 0;
#X connect 152 0 208 1;
#X connect 153 0 209 1;
#X connect 155 0 154 0;
#X connect 156 0 136 0;
#X connect 157 0 160 0;
#X connect 158 0 166 1;
#X connect 159 0 157 0;
#X connect 160 0 158 0;
#X connect 161 0 11 0;
#X connect 161 0 110 0;
#X connect 162 0 165 0;
#X connect 163 0 161 1;
#X connect 164 0 162 0;
#X connect 165 0 163 0;
#X connect 166 0 145 0;
#X connect 168 0 169 0;
#X connect 169 0 168 0;
#X connect 169 1 168 1;
#X connect 170 0 172 0;
#X connect 172 0 52 0;
#X connect 172 1 171 0;
#X connect 173 0 113 0;
#X connect 174 0 175 0;
#X connect 174 0 183 0;
#X connect 175 0 176 0;
#X connect 177 0 178 0;
#X connect 178 0 184 0;
#X connect 179 0 186 0;
#X connect 180 0 179 0;
#X connect 180 0 182 0;
#X connect 184 0 180 0;
#X connect 186 0 174 0;
#X connect 187 0 26 0;
#X connect 189 0 192 0;
#X connect 190 0 193 1;
#X connect 190 0 204 0;
#X connect 191 0 189 0;
#X connect 192 0 190 0;
#X connect 193 0 203 0;
#X connect 194 0 189 0;
#X connect 195 1 196 0;
#X connect 196 0 199 0;
#X connect 197 0 198 0;
#X connect 199 0 197 0;
#X connect 199 1 200 0;
#X connect 200 0 201 0;
#X connect 201 0 202 0;
#X connect 203 0 195 0;
#X connect 204 0 200 1;
#X connect 206 0 142 1;
#X connect 207 0 107 1;
#X connect 208 0 108 0;
#X connect 209 0 143 0;
#X connect 210 0 161 0;
#X connect 211 0 144 0;
#X coords 0 -1 1 1 300 200 2 100 100;
