#N canvas 47 23 1191 720 10;
#X obj 350 149 bng 15 250 50 0 STORE-S! empty STORE 17 7 0 10 -262144
-226533 -1;
#X floatatom 313 136 5 0 0 0 - store-slot-r -, f 5;
#X floatatom 313 168 5 0 0 0 - recall-slot-r -, f 5;
#X obj 109 261 hsl 115 15 0 127 0 1 morph-slider-s empty MORPH -2 -8
0 10 -262144 -1 -1 9700 1;
#X floatatom 194 247 5 0 0 0 (ms) morph-time-r -, f 5;
#X obj 106 571 / 127;
#X obj 106 593 * 9999;
#X obj 106 637 i;
#X obj 276 649 + 1;
#X obj 276 671 i;
#X obj 276 752 s store-slot-r;
#X text 272 600 CHOOSE SLOT LOCATION AND STORE!;
#X obj 276 623 r store-location-s;
#X obj 495 644 s preset-manager-scan;
#X obj 468 486 t f f;
#X obj 106 700 s preset-manager-morph-s;
#X obj 106 659 t f f;
#X obj 150 676 s morph-time-r;
#X obj 108 196 hsl 115 15 0 127 0 1 scan-cv-att-s empty RECALL-CV 120
7 0 10 -158136 -1 -1 11400 1;
#X obj 357 394 r recall-location-s;
#X obj 357 503 + 1;
#X obj 357 525 i;
#X obj 357 571 s recall-slot-r;
#X obj 303 727 s preset-manager-store-slot;
#X obj 154 127 cnv 5 5 5 empty empty MANAGER 0 0 0 12 -262144 -66577
0;
#X obj 105 127 cnv 5 5 5 empty empty PRESET 0 0 0 12 -262144 -66577
0;
#X obj 573 100 inlet~;
#X text 570 83 SCAN CV IN;
#X obj 846 128 inlet~;
#X text 843 112 SEQ. STEP TRIG IN;
#X obj 573 275 snapshot~;
#X obj 641 211 loadbang;
#X obj 760 212 env~;
#X obj 573 320 spigot;
#X obj 572 465 t b f;
#X obj 760 234 > 0;
#X obj 573 183 *~;
#X obj 682 100 r scan-cv-att-s;
#X obj 682 122 / 127;
#X obj 682 144 pack 0 50;
#X obj 682 166 line~;
#X msg 846 172 bang;
#X obj 846 194 f;
#X obj 878 194 + 1;
#X obj 376 118 bng 15 250 50 0 STEP-S! empty empty 17 7 0 10 -262144
-226533 -1;
#X obj 781 111 r STEP-S!;
#X obj 103 111 cnv 5 5 5 empty empty RECALL(CV) 0 0 0 8 -262144 -158136
0;
#X obj 373 111 cnv 5 5 5 empty empty STEP! 0 0 0 8 -262144 -226533
0;
#X obj 231 261 hradio 15 1 1 3 empty empty empty 0 -8 0 10 -262144
-1 -1 0;
#X text 230 247 10;
#X text 245 247 30;
#X text 260 247 60;
#X obj 244 359 sel 0 1 2;
#X msg 244 389 9999;
#X obj 244 576 t b f;
#X msg 261 419 29999;
#X msg 278 450 59999;
#X obj 105 149 hradio 15 1 0 16 store-location-s store-location-r STORE
0 -8 0 10 -262144 -1 -1 2;
#X obj 105 181 hradio 15 1 0 16 recall-location-s recall-location-r
RECALL 0 -8 0 10 -262144 -1 -1 0;
#X obj 793 420 r store-location-s;
#X obj 751 353 r STORE-S!;
#X obj 763 610 s store-location-r;
#X obj 106 279 bng 15 250 50 0 STOP-MORPH! empty STOP! 17 7 0 10 -262144
-1 -1;
#X obj 468 576 i;
#X obj 778 472 f;
#X obj 715 498 delay 500;
#X obj 778 520 + 1;
#X obj 763 542 f;
#X obj 357 547 t f f;
#X obj 495 543 i;
#X obj 468 675 s recall-slot-r;
#X floatatom 572 422 5 0 0 0 - - -, f 5;
#X obj 573 393 i;
#X obj 641 245 metro 100;
#X obj 35 74 hsl 128 15 0 127 0 0 empty scan-avoid-clicks-r SCAN 133
7 0 10 -262144 -1 -1 0 1;
#X obj 31 252 / 127;
#X obj 31 318 i;
#X floatatom 31 340 5 0 0 0 - - -, f 5;
#X obj 28 475 s recall-location-r;
#X obj 778 494 t f f;
#X obj 850 572 s recall-location-r;
#X obj 891 459 delay 500;
#X obj 751 375 t b b b;
#X obj 850 511 f;
#X obj 573 368 + 1;
#X obj 573 297 + 0;
#X obj 572 441 change 1;
#X obj 276 693 t f f;
#X obj 1008 328 r recall-location-s;
#X obj 993 360 f;
#X floatatom 993 382 5 0 0 0 - - -, f 5;
#X obj 979 284 loadbang;
#X obj 846 281 s recall-location-r;
#X obj 993 440 s recall-location-r;
#X obj 979 306 delay 250;
#X obj 31 359 spigot;
#X obj 122 352 loadbang;
#X obj 122 389 t b b;
#X obj 122 411 delay 500;
#X msg 122 433 1;
#X msg 154 434 0;
#X obj 1022 474 loadbang;
#X obj 1022 496 t b b;
#X msg 1022 540 1;
#X msg 1054 541 0;
#X obj 850 533 spigot;
#X obj 1059 205 loadbang;
#X obj 1059 227 t b b;
#X obj 1059 249 delay 500;
#X msg 1059 272 1;
#X msg 1091 272 0;
#X obj 993 401 spigot;
#X obj 846 262 spigot;
#X obj 495 610 spigot;
#X obj 572 529 loadbang;
#X obj 572 551 t b b;
#X obj 572 573 delay 500;
#X msg 572 593 1;
#X msg 641 568 0;
#X obj 641 593 t b f;
#X obj 1022 518 delay 700;
#X obj 495 517 +;
#X obj 357 416 t f f;
#X obj 391 464 f;
#X obj 484 391 loadbang;
#X obj 484 413 delay 600;
#X obj 760 256 t f f;
#X obj 635 401 sel 0;
#X msg 635 478 0;
#X obj 635 500 t b f;
#X obj 671 362 change;
#X obj 105 537 spigot;
#X obj 171 481 loadbang;
#X obj 171 525 delay 500;
#X msg 171 569 1;
#X msg 203 548 0;
#X obj 105 508 t f f;
#X obj 58 547 f;
#X obj 171 503 t b b b;
#X obj 292 540 delay 1000;
#N canvas 0 22 450 300 start-up-avoid-load-textfile-cliks 0;
#X obj 151 81 loadbang;
#X obj 152 193 line;
#X obj 151 103 t b b;
#X msg 152 160 127 100;
#X msg 214 163 0 100;
#X obj 178 128 delay 110;
#X obj 152 215 s scan-avoid-clicks-r;
#X connect 0 0 2 0;
#X connect 1 0 6 0;
#X connect 2 0 3 0;
#X connect 2 1 5 0;
#X connect 3 0 1 0;
#X connect 4 0 1 0;
#X connect 5 0 4 0;
#X restore 37 32 pd start-up-avoid-load-textfile-cliks;
#X obj 846 150 threshold~ 0.9 0 0.9 0;
#X obj 846 240 % 16;
#X obj 763 567 mod 16;
#X obj 573 346 * 15;
#X obj 495 565 clip 1 16;
#X obj 31 274 * 15;
#X obj 291 276 tgl 15 0 attenuators-s attenuators-r ATTENUATORS 17
7 0 10 -262144 -1 -1 0 1;
#X obj 291 246 tgl 15 0 frequencies-s frequencies-r FREQUENCIES 17
7 0 10 -262144 -1 -1 0 1;
#X obj 291 261 tgl 15 0 parameters-s parameters-r PARAMETERS 17 7 0
10 -262144 -1 -1 0 1;
#X text 290 230 MORPH-SELECTOR:;
#X obj 105 220 cnv 5 290 5 empty empty empty 20 12 0 14 -233017 -66577
0;
#X obj 846 216 + 1;
#X connect 3 0 136 0;
#X connect 5 0 6 0;
#X connect 6 0 7 0;
#X connect 7 0 16 0;
#X connect 8 0 9 0;
#X connect 9 0 87 0;
#X connect 12 0 8 0;
#X connect 14 0 63 0;
#X connect 14 1 121 0;
#X connect 16 0 15 0;
#X connect 16 1 17 0;
#X connect 19 0 122 0;
#X connect 20 0 21 0;
#X connect 21 0 68 0;
#X connect 26 0 32 0;
#X connect 26 0 36 0;
#X connect 28 0 141 0;
#X connect 30 0 85 0;
#X connect 31 0 73 0;
#X connect 32 0 35 0;
#X connect 33 0 144 0;
#X connect 34 0 121 0;
#X connect 34 1 121 1;
#X connect 35 0 126 0;
#X connect 36 0 30 0;
#X connect 37 0 38 0;
#X connect 38 0 39 0;
#X connect 39 0 40 0;
#X connect 40 0 36 1;
#X connect 41 0 42 0;
#X connect 42 0 43 0;
#X connect 42 0 152 0;
#X connect 43 0 42 1;
#X connect 45 0 41 0;
#X connect 48 0 52 0;
#X connect 52 0 53 0;
#X connect 52 1 55 0;
#X connect 52 2 56 0;
#X connect 53 0 54 0;
#X connect 54 0 6 0;
#X connect 54 1 6 1;
#X connect 55 0 54 0;
#X connect 56 0 54 0;
#X connect 59 0 64 1;
#X connect 60 0 82 0;
#X connect 63 0 70 0;
#X connect 64 0 79 0;
#X connect 65 0 67 0;
#X connect 66 0 67 1;
#X connect 67 0 143 0;
#X connect 68 0 22 0;
#X connect 68 1 14 0;
#X connect 69 0 145 0;
#X connect 71 0 86 0;
#X connect 72 0 71 0;
#X connect 73 0 30 0;
#X connect 74 0 75 0;
#X connect 75 0 146 0;
#X connect 76 0 77 0;
#X connect 77 0 95 0;
#X connect 79 0 66 0;
#X connect 79 1 83 1;
#X connect 81 0 83 0;
#X connect 82 0 65 0;
#X connect 82 1 64 0;
#X connect 82 2 81 0;
#X connect 83 0 105 0;
#X connect 84 0 72 0;
#X connect 85 0 33 0;
#X connect 86 0 34 0;
#X connect 87 0 10 0;
#X connect 87 1 23 0;
#X connect 88 0 89 1;
#X connect 89 0 90 0;
#X connect 90 0 111 0;
#X connect 91 0 94 0;
#X connect 94 0 89 0;
#X connect 95 0 78 0;
#X connect 96 0 97 0;
#X connect 97 0 98 0;
#X connect 97 1 100 0;
#X connect 98 0 99 0;
#X connect 99 0 95 1;
#X connect 100 0 95 1;
#X connect 101 0 102 0;
#X connect 102 0 120 0;
#X connect 102 1 104 0;
#X connect 103 0 105 1;
#X connect 104 0 105 1;
#X connect 105 0 80 0;
#X connect 106 0 107 0;
#X connect 107 0 108 0;
#X connect 107 1 110 0;
#X connect 108 0 109 0;
#X connect 109 0 111 1;
#X connect 109 0 112 1;
#X connect 110 0 111 1;
#X connect 110 0 112 1;
#X connect 111 0 93 0;
#X connect 112 0 92 0;
#X connect 113 0 13 0;
#X connect 114 0 115 0;
#X connect 115 0 116 0;
#X connect 115 1 118 0;
#X connect 116 0 117 0;
#X connect 117 0 113 1;
#X connect 118 0 119 0;
#X connect 119 1 113 1;
#X connect 120 0 103 0;
#X connect 121 0 69 0;
#X connect 122 0 20 0;
#X connect 122 1 123 1;
#X connect 123 0 20 0;
#X connect 124 0 125 0;
#X connect 126 0 33 1;
#X connect 126 1 130 0;
#X connect 127 0 128 0;
#X connect 128 0 129 0;
#X connect 129 0 121 0;
#X connect 129 1 121 1;
#X connect 130 0 127 0;
#X connect 131 0 5 0;
#X connect 132 0 138 0;
#X connect 133 0 134 0;
#X connect 134 0 131 1;
#X connect 135 0 131 1;
#X connect 136 0 137 1;
#X connect 136 1 131 0;
#X connect 137 0 5 0;
#X connect 138 0 133 0;
#X connect 138 1 135 0;
#X connect 138 2 139 0;
#X connect 139 0 137 0;
#X connect 141 0 41 0;
#X connect 142 0 112 0;
#X connect 143 0 61 0;
#X connect 144 0 84 0;
#X connect 145 0 113 0;
#X connect 146 0 76 0;
#X connect 152 0 142 0;
#X coords 0 -1 1 1 300 200 2 100 100;
