#N canvas 0 57 1920 1023 10;
#X obj 350 149 bng 15 250 50 0 \$0-STORE-S! empty STORE 17 7 0 10 -261234
-258113 -1;
#X floatatom 313 136 5 1 16 0 - #0-store-slot-r -;
#X floatatom 313 168 5 0 0 0 - #0-recall-slot-r -;
#X obj 109 261 hsl 115 15 0 127 0 0 \$0-morph-slider-s \$0-morph-slider-r
MORPH -2 -8 0 10 -262144 -1 -1 0 1;
#X floatatom 184 245 6 0 0 0 (ms) #0-morph-time-r -;
#X obj 106 571 / 127;
#X obj 106 593 * 9999;
#X obj 106 637 i;
#X obj 276 649 + 1;
#X obj 276 671 i;
#X text 272 600 CHOOSE SLOT LOCATION AND STORE!;
#X obj 494 895 s preset-manager-scan;
#X obj 106 659 t f f;
#X obj 108 196 hsl 115 15 0 127 0 1 \$0-scan-cv-att-s \$0-scan-cv-att-r
RECALL-CV 120 7 0 10 -158136 -1 -1 6900 1;
#X obj 357 413 + 1;
#X obj 357 435 i;
#X obj 303 765 s preset-manager-store-slot;
#X obj 154 127 cnv 5 5 5 empty empty MANAGER 0 0 0 12 -262144 -66577
0;
#X obj 105 127 cnv 5 5 5 empty empty PRESET 0 0 0 12 -262144 -66577
0;
#X obj 535 33 inlet~;
#X text 532 16 SCAN CV IN;
#X obj 1096 128 inlet~;
#X text 1093 112 SEQ. STEP TRIG IN;
#X obj 535 128 snapshot~;
#X obj 603 64 loadbang;
#X obj 605 211 / 127;
#X msg 1096 172 bang;
#X obj 1096 194 f;
#X obj 1128 194 + 1;
#X obj 376 118 bng 15 250 50 0 \$0-STEP-S! empty empty 17 7 0 10 -262144
-226533 -1;
#X obj 103 111 cnv 5 5 5 empty empty RECALL(CV) 0 0 0 8 -262144 -158136
0;
#X obj 373 111 cnv 5 5 5 empty empty STEP! 0 0 0 8 -262144 -226533
0;
#X obj 231 261 hradio 15 1 1 3 \$0-morph-scale-s \$0-morph-scale-r
empty 0 -8 0 10 -262144 -1 -1 0;
#X text 230 247 10;
#X text 245 247 30;
#X text 260 247 60;
#X obj 244 359 sel 0 1 2;
#X msg 244 389 9999;
#X obj 244 576 t b f;
#X msg 261 419 29999;
#X msg 278 450 59999;
#X obj 105 149 hradio 15 1 0 16 \$0-store-location-s \$0-store-location-r
STORE 0 -8 0 10 -261234 -1 -1 1;
#X obj 105 181 hradio 15 1 0 16 \$0-recall-location-s \$0-recall-location-r
RECALL 0 -8 0 10 -204786 -13381 -1 5;
#X obj 106 279 bng 15 250 50 0 STOP-MORPH! empty STOP! 17 7 0 10 -262144
-1 -1;
#X obj 715 498 delay 500;
#X obj 778 520 + 1;
#X obj 763 542 f;
#X obj 603 98 metro 100;
#X obj 35 74 hsl 128 15 0 127 0 0 empty \$0-scan-avoid-clicks-r SCAN
133 7 0 10 -262144 -1 -1 0 1;
#X obj 31 252 / 127;
#X obj 31 318 i;
#X floatatom 31 340 5 0 0 0 - - -;
#X obj 786 462 t f f;
#X obj 891 459 delay 500;
#X obj 850 511 f;
#X obj 1243 360 f;
#X floatatom 1243 382 5 0 0 0 - - -;
#X obj 1229 284 loadbang;
#X obj 1229 306 delay 250;
#X obj 31 359 spigot;
#X obj 122 352 loadbang;
#X obj 118 381 t b b;
#X obj 122 411 delay 500;
#X msg 122 433 1;
#X msg 154 434 0;
#X obj 1022 474 loadbang;
#X obj 1022 496 t b b;
#X msg 1022 540 1;
#X msg 1054 541 0;
#X obj 850 540 spigot;
#X obj 1309 205 loadbang;
#X obj 1309 227 t b b;
#X obj 1309 249 delay 500;
#X msg 1309 272 1;
#X msg 1341 272 0;
#X obj 1243 401 spigot;
#X obj 1096 262 spigot;
#X obj 495 610 spigot;
#X obj 572 529 loadbang;
#X obj 572 551 t b b;
#X obj 572 573 delay 500;
#X msg 572 593 1;
#X msg 641 568 0;
#X obj 641 593 t b f;
#X obj 1022 518 delay 700;
#X obj 105 537 spigot;
#X obj 171 481 loadbang;
#X obj 171 525 delay 500;
#X msg 171 569 1;
#X msg 203 548 0;
#X obj 105 508 t f f;
#X obj 58 547 f;
#X obj 171 503 t b b b;
#X obj 267 542 delay 1000;
#N canvas 518 73 450 300 start-up-avoid-load-_textfile-cliks 0;
#X obj 151 81 loadbang;
#X obj 152 193 line;
#X obj 151 103 t b b;
#X msg 152 160 127 100;
#X msg 214 163 0 100;
#X obj 178 128 delay 110;
#X obj 67 73 bng 15 250 50 0 empty empty empty 17 7 0 10 -262144 -1
-1;
#X obj 152 215 s \$0-scan-avoid-clicks-r;
#X connect 0 0 2 0;
#X connect 1 0 7 0;
#X connect 2 0 3 0;
#X connect 2 1 5 0;
#X connect 3 0 1 0;
#X connect 4 0 1 0;
#X connect 5 0 4 0;
#X connect 6 0 2 0;
#X restore 37 32 pd start-up-avoid-load-_textfile-cliks;
#X obj 1096 150 threshold~ 0.9 0 0.9 0;
#X obj 1096 240 % 16;
#X obj 763 567 mod 16;
#X obj 495 565 clip 1 16;
#X obj 31 274 * 15;
#X obj 291 276 tgl 15 0 \$0-attenuators-s \$0-attenuators-r ATTENUATORS
17 7 0 10 -262144 -1 -1 1 1;
#X obj 291 246 tgl 15 0 \$0-frequencies-s \$0-frequencies-r FREQUENCIES
17 7 0 10 -262144 -1 -1 1 1;
#X obj 291 261 tgl 15 0 \$0-parameters-s \$0-parameters-r PARAMETERS
17 7 0 10 -262144 -1 -1 1 1;
#X text 290 230 MORPH-SELECTOR:;
#X obj 105 220 cnv 5 290 5 empty empty empty 20 12 0 14 -233017 -66577
0;
#X obj 1096 216 + 1;
#X obj 212 127 cnv 5 5 5 empty \$0-instance-num \$1 0 0 0 12 -262144
-66577 0;
#N canvas 0 50 450 300 get_parent_dollarzero 0;
#X msg 192 124 0;
#X obj 151 82 loadbang;
#X msg 153 106 1;
#X obj 114 132 spigot;
#X obj 111 175 t f b;
#X obj 111 198 outlet;
#X obj 119 44 r ACTIVE_DOLLARZERO;
#X connect 0 0 3 1;
#X connect 1 0 2 0;
#X connect 2 0 3 1;
#X connect 3 0 4 0;
#X connect 4 0 5 0;
#X connect 4 1 0 0;
#X connect 6 0 3 0;
#X restore 551 638 pd get_parent_dollarzero;
#X obj 536 671 f;
#X obj 539 724 s ACTIVE_DOLLARZERO;
#X obj 357 377 r \$0-recall-location-s;
#X obj 342 909 s \$0-recall-slot-r;
#X obj -7 442 s \$0-recall-location-r;
#X obj 494 643 t f b;
#X obj 852 589 s \$0-recall-location-r;
#X obj 1096 281 s \$0-recall-location-r;
#X obj 1243 440 s \$0-recall-location-r;
#X obj 1258 328 r \$0-recall-location-s;
#X text 669 692 implementation of pseudo patch-level scope;
#X obj 276 623 r \$0-store-location-s;
#X obj 763 610 s \$0-store-location-r;
#X obj 276 802 s \$0-store-slot-r;
#X obj 644 799 v \$0-frequencies-s;
#X obj 767 801 v \$0-parameters-s;
#X obj 888 798 v \$0-attenuators-s;
#X obj 647 822 s frequencies-s;
#X obj 767 826 s parameters-s;
#X obj 889 819 s attenuators-s;
#X obj 751 282 r \$0-STORE-S!;
#X obj 605 189 r \$0-scan-cv-att-s;
#X obj 150 676 s \$0-morph-time-r;
#X obj 106 700 s \$0-preset-manager-morph-s;
#X obj 1016 826 s preset-manager-morph-s;
#X obj 1019 801 v \$0-preset-manager-morph-s;
#X obj 494 753 t f b b b b, f 54;
#X obj 250 332 r \$0-morph-scale-s;
#X msg 1440 247 loadbang;
#X obj 1441 222 spigot 1;
#X msg 1506 198 0;
#X obj 1517 172 loadbang;
#X obj 1507 289 namecanvas \$0-this;
#X obj 1433 308 s \$0-this;
#X obj 23 476 r \$0-morph-slider-s;
#N canvas 0 50 450 300 get_parent_dollarzero 0;
#X msg 192 124 0;
#X obj 151 82 loadbang;
#X msg 153 106 1;
#X obj 114 132 spigot;
#X obj 111 175 t f b;
#X obj 111 198 outlet;
#X obj 119 44 r ACTIVE_DOLLARZERO;
#X connect 0 0 3 1;
#X connect 1 0 2 0;
#X connect 2 0 3 1;
#X connect 3 0 4 0;
#X connect 4 0 5 0;
#X connect 4 1 0 0;
#X connect 6 0 3 0;
#X restore 908 289 pd get_parent_dollarzero;
#X obj 893 311 f;
#X obj 892 352 s ACTIVE_DOLLARZERO;
#X obj 800 348 s STORE-S!;
#X obj 276 743 t f f;
#X obj 882 210 v preset-manager-store-slot;
#X obj 751 315 t b b b b b b;
#X obj 881 235 s preset-manager-store-slot;
#X obj 892 332 * 1;
#X obj 549 698 * 1;
#X obj 251 115 vradio 15 1 0 2 \$0-scope-s \$0-scope-r SCOPE 0 -8 0
10 -257985 -1 -1 0;
#X text 268 113 GLOBAL;
#X text 268 127 LOCAL;
#X obj 605 672 r \$0-scope-s;
#X obj 930 309 r \$0-scope-s;
#N canvas 0 50 450 300 check-module-ID 0;
#X obj 105 44 inlet;
#X obj 96 192 moses;
#X obj 107 87 t b b;
#X obj 96 139 f \$1;
#X obj 168 137 v preset-manager-ID;
#X obj 154 235 v preset-manager-ID;
#X connect 0 0 2 0;
#X connect 1 1 5 0;
#X connect 2 0 3 0;
#X connect 2 1 4 0;
#X connect 3 0 1 0;
#X connect 4 0 1 1;
#X restore 1395 526 pd check-module-ID;
#X obj 1398 496 loadbang;
#X obj 1440 153 r preset-manager-\$1-loadbang;
#X obj 322 668 f \$1;
#X obj 320 711 * 16;
#X obj 321 647 loadbang;
#X obj 321 690 - 1;
#X obj 493 854 +;
#X obj 554 809 f \$1;
#X obj 552 852 * 16;
#X obj 553 788 loadbang;
#X obj 553 831 - 1;
#X obj 276 704 +;
#N canvas 0 57 1920 1023 state-saving-multiple-instances 0;
#X obj 205 1 loadbang;
#X obj 317 424 state_saving_module/textfile \$0;
#X msg 587 297 rewind;
#X msg 544 297 bang;
#X obj 110 663 state_saving_module/textfile \$0;
#X obj 544 258 t b b;
#X obj 111 329 f;
#X obj 124 552 f;
#X obj 52 373 t b b b;
#X msg 187 552 clear;
#X obj 272 189 outlet;
#X text 314 193 INSTANCE NUMBER;
#X obj 233 125 f \$1;
#X obj 233 161 t f f f;
#X obj 206 34 t b b;
#X obj 52 350 bng 15 250 50 0 empty empty empty 17 7 0 10 -262144 -1
-1;
#X obj 52 206 r SAVE-S;
#X obj 369 105 bng 15 250 50 0 empty empty empty 17 7 0 10 -262144
-1 -1;
#X obj 82 136 r \$0-frequencies-s;
#X obj 98 159 r \$0-parameters-s;
#X obj 120 184 r \$0-attenuators-s;
#X obj 138 209 r \$0-morph-scale-s;
#X obj 158 234 r \$0-morph-slider-s;
#X obj 176 255 r \$0-scope-s;
#X msg 123 623 write statesave/\$1-preset-manager-ss.txt;
#X msg 317 399 read statesave/\$1-preset-manager-ss.txt;
#X obj 317 696 s \$0-frequencies-r;
#X obj 338 672 s \$0-parameters-r;
#X obj 359 648 s \$0-attenuators-r;
#X obj 380 624 s \$0-morph-scale-r;
#X obj 401 598 s \$0-morph-slider-r;
#X obj 422 574 s \$0-scope-r;
#X obj 196 276 r \$0-scan-cv-att-s;
#X obj 111 372 pack f f f f f f f;
#X msg 111 410 set \$1 \$2 \$3 \$4 \$5 \$6 \$7;
#X obj 313 455 unpack f f f f f f f;
#X obj 437 538 s \$0-scan-cv-att-r;
#X connect 0 0 14 0;
#X connect 1 0 35 0;
#X connect 2 0 1 0;
#X connect 3 0 1 0;
#X connect 5 0 3 0;
#X connect 5 1 2 0;
#X connect 6 0 33 0;
#X connect 7 0 24 0;
#X connect 8 0 7 0;
#X connect 8 1 6 0;
#X connect 8 2 9 0;
#X connect 9 0 4 0;
#X connect 12 0 13 0;
#X connect 13 0 7 1;
#X connect 13 1 25 0;
#X connect 13 2 10 0;
#X connect 14 0 5 0;
#X connect 14 1 12 0;
#X connect 15 0 8 0;
#X connect 16 0 15 0;
#X connect 17 0 12 0;
#X connect 18 0 6 1;
#X connect 19 0 33 1;
#X connect 20 0 33 2;
#X connect 21 0 33 3;
#X connect 22 0 33 4;
#X connect 23 0 33 5;
#X connect 24 0 4 0;
#X connect 25 0 1 0;
#X connect 32 0 33 6;
#X connect 33 0 34 0;
#X connect 34 0 4 0;
#X connect 35 0 26 0;
#X connect 35 1 27 0;
#X connect 35 2 28 0;
#X connect 35 3 29 0;
#X connect 35 4 30 0;
#X connect 35 5 31 0;
#X connect 35 6 36 0;
#X restore 1330 579 pd state-saving-multiple-instances;
#X obj 1336 699 state_saving_module preset-manager \$0 \$1;
#X obj 1376 659 savestate;
#N canvas 1056 94 1211 811 savestate_#OBSOLETE# 0;
#X obj 198 334 v \$0-frequencies-s;
#X obj 219 291 v \$0-parameters-s;
#X obj 238 248 v \$0-attenuators-s;
#X obj 251 204 v \$0-morph-scale-s;
#X obj 260 145 v \$0-morph-slider-s;
#X msg 198 357 -frequencies \$1;
#X msg 219 314 -parameters \$1;
#X msg 238 271 -attenuators \$1;
#X msg 251 227 -morph-scale \$1;
#X msg 260 168 -morph-slider \$1;
#X obj 110 272 list;
#X obj 72 375 list trim;
#X obj 204 112 t b b b b b b;
#X obj 410 145 v \$0-scope-s;
#X msg 410 168 -scope \$1;
#X obj 66 398 route -frequencies -parameters -attenuators -morph-scale
-morph-slider -scope;
#X msg 58 555 set \$1;
#X obj 30 532 t f f;
#X obj 79 459 t f f;
#X obj 205 530 t f f;
#X obj 234 433 t f f;
#X obj 387 464 t f f;
#X obj 516 472 t f f;
#X obj 512 551 s \$0-scope-s;
#X obj 391 539 s \$0-morph-slider-s;
#X obj 243 509 s \$0-morph-scale-s;
#X obj 206 595 s \$0-attenuators-s;
#X obj 86 530 s \$0-parameters-s;
#X obj 67 602 s \$0-frequencies-s;
#X msg 114 483 set \$1;
#X msg 237 553 set \$1;
#X obj 246 575 s \$0-attenuators-r;
#X obj 77 582 s \$0-frequencies-r;
#X obj 105 504 s \$0-parameters-r;
#X msg 542 497 set \$1;
#X obj 532 521 s \$0-scope-r;
#X obj 401 509 s \$0-morph-slider-r;
#X msg 412 485 set \$1;
#X msg 278 462 set \$1;
#X obj 267 486 s \$0-morph-scale-r;
#X text 89 83 OBSOLETE;
#X connect 0 0 5 0;
#X connect 1 0 6 0;
#X connect 2 0 7 0;
#X connect 3 0 8 0;
#X connect 4 0 9 0;
#X connect 5 0 10 0;
#X connect 6 0 10 0;
#X connect 7 0 10 0;
#X connect 8 0 10 0;
#X connect 9 0 10 0;
#X connect 11 0 15 0;
#X connect 12 0 0 0;
#X connect 12 1 1 0;
#X connect 12 2 2 0;
#X connect 12 3 3 0;
#X connect 12 4 4 0;
#X connect 12 5 13 0;
#X connect 13 0 14 0;
#X connect 14 0 10 0;
#X connect 15 0 17 0;
#X connect 15 1 18 0;
#X connect 15 2 19 0;
#X connect 15 3 20 0;
#X connect 15 4 21 0;
#X connect 15 5 22 0;
#X connect 16 0 32 0;
#X connect 17 0 28 0;
#X connect 17 1 16 0;
#X connect 18 0 27 0;
#X connect 18 1 29 0;
#X connect 19 0 26 0;
#X connect 19 1 30 0;
#X connect 20 0 25 0;
#X connect 20 1 38 0;
#X connect 21 0 24 0;
#X connect 21 1 37 0;
#X connect 22 0 23 0;
#X connect 22 1 34 0;
#X connect 29 0 33 0;
#X connect 30 0 31 0;
#X connect 34 0 35 0;
#X connect 37 0 36 0;
#X connect 38 0 39 0;
#X restore 1430 344 pd savestate_#OBSOLETE#;
#X obj 769 377 v \$0-store-location-s;
#X obj 795 427 s \$0-store-location-s;
#X obj 766 401 t f f;
#X msg 851 564 set \$1;
#X obj 573 340 int;
#X obj 572 391 change 0;
#X obj 570 423 s \$0-recall-location-r;
#X obj 535 150 * 127;
#X obj 535 172 int;
#X obj 573 264 *;
#X obj 535 218 / 127;
#X floatatom 605 233 5 0 0 0 - - -;
#X floatatom 535 240 5 0 0 0 - - -;
#X floatatom 573 362 5 0 0 0 - - -;
#X obj 535 194 change -1;
#X floatatom 485 154 5 0 0 0 - - -;
#X obj 573 296 * 16;
#X obj 781 111 r \$0-STEP-S!;
#X connect 5 0 6 0;
#X connect 6 0 7 0;
#X connect 7 0 12 0;
#X connect 8 0 9 0;
#X connect 9 0 170 0;
#X connect 12 0 131 0;
#X connect 12 1 130 0;
#X connect 14 0 15 0;
#X connect 15 0 98 0;
#X connect 19 0 23 0;
#X connect 21 0 95 0;
#X connect 23 0 182 0;
#X connect 23 0 190 0;
#X connect 24 0 47 0;
#X connect 25 0 184 1;
#X connect 25 0 186 0;
#X connect 26 0 27 0;
#X connect 27 0 28 0;
#X connect 27 0 105 0;
#X connect 28 0 27 1;
#X connect 36 0 37 0;
#X connect 36 1 39 0;
#X connect 36 2 40 0;
#X connect 37 0 38 0;
#X connect 38 0 6 0;
#X connect 38 1 6 1;
#X connect 39 0 38 0;
#X connect 40 0 38 0;
#X connect 44 0 46 0;
#X connect 45 0 46 1;
#X connect 46 0 97 0;
#X connect 47 0 23 0;
#X connect 48 0 49 0;
#X connect 49 0 99 0;
#X connect 50 0 51 0;
#X connect 51 0 59 0;
#X connect 52 0 45 0;
#X connect 52 1 54 1;
#X connect 53 0 54 0;
#X connect 54 0 69 0;
#X connect 55 0 56 0;
#X connect 56 0 75 0;
#X connect 57 0 58 0;
#X connect 58 0 55 0;
#X connect 59 0 112 0;
#X connect 60 0 61 0;
#X connect 61 0 62 0;
#X connect 61 1 64 0;
#X connect 62 0 63 0;
#X connect 63 0 59 1;
#X connect 64 0 59 1;
#X connect 65 0 66 0;
#X connect 66 0 84 0;
#X connect 66 1 68 0;
#X connect 67 0 69 1;
#X connect 68 0 69 1;
#X connect 69 0 178 0;
#X connect 70 0 71 0;
#X connect 71 0 72 0;
#X connect 71 1 74 0;
#X connect 72 0 73 0;
#X connect 73 0 75 1;
#X connect 73 0 76 1;
#X connect 74 0 75 1;
#X connect 74 0 76 1;
#X connect 75 0 116 0;
#X connect 76 0 115 0;
#X connect 77 0 113 0;
#X connect 78 0 79 0;
#X connect 79 0 80 0;
#X connect 79 1 82 0;
#X connect 80 0 81 0;
#X connect 81 0 77 1;
#X connect 82 0 83 0;
#X connect 83 1 77 1;
#X connect 84 0 67 0;
#X connect 85 0 5 0;
#X connect 86 0 92 0;
#X connect 87 0 88 0;
#X connect 88 0 85 1;
#X connect 89 0 85 1;
#X connect 90 0 91 1;
#X connect 90 1 85 0;
#X connect 91 0 5 0;
#X connect 92 0 87 0;
#X connect 92 1 89 0;
#X connect 92 2 93 0;
#X connect 93 0 91 0;
#X connect 95 0 26 0;
#X connect 96 0 76 0;
#X connect 97 0 120 0;
#X connect 98 0 77 0;
#X connect 99 0 50 0;
#X connect 105 0 96 0;
#X connect 107 0 108 1;
#X connect 108 0 152 0;
#X connect 110 0 14 0;
#X connect 113 0 134 0;
#X connect 113 1 108 0;
#X connect 117 0 55 1;
#X connect 119 0 8 0;
#X connect 122 0 125 0;
#X connect 123 0 126 0;
#X connect 124 0 127 0;
#X connect 128 0 149 0;
#X connect 129 0 25 0;
#X connect 133 0 132 0;
#X connect 134 0 165 0;
#X connect 134 1 122 0;
#X connect 134 2 123 0;
#X connect 134 3 124 0;
#X connect 134 4 133 0;
#X connect 135 0 36 0;
#X connect 136 0 141 0;
#X connect 137 0 136 0;
#X connect 138 0 137 1;
#X connect 139 0 138 0;
#X connect 142 0 90 0;
#X connect 143 0 144 1;
#X connect 144 0 151 0;
#X connect 147 0 121 0;
#X connect 147 1 16 0;
#X connect 148 0 150 0;
#X connect 149 0 44 0;
#X connect 149 1 175 0;
#X connect 149 2 53 0;
#X connect 149 3 146 0;
#X connect 149 4 148 0;
#X connect 149 5 144 0;
#X connect 151 0 145 0;
#X connect 152 0 109 0;
#X connect 156 0 152 1;
#X connect 157 0 151 1;
#X connect 159 0 158 0;
#X connect 160 0 137 0;
#X connect 161 0 164 0;
#X connect 162 0 170 1;
#X connect 163 0 161 0;
#X connect 164 0 162 0;
#X connect 165 0 11 0;
#X connect 165 0 111 0;
#X connect 166 0 169 0;
#X connect 167 0 165 1;
#X connect 168 0 166 0;
#X connect 169 0 167 0;
#X connect 170 0 147 0;
#X connect 172 0 173 0;
#X connect 173 0 172 0;
#X connect 173 1 172 1;
#X connect 175 0 177 0;
#X connect 177 0 52 0;
#X connect 177 1 176 0;
#X connect 178 0 114 0;
#X connect 179 0 180 0;
#X connect 179 0 188 0;
#X connect 180 0 181 0;
#X connect 182 0 183 0;
#X connect 183 0 189 0;
#X connect 184 0 191 0;
#X connect 185 0 184 0;
#X connect 185 0 187 0;
#X connect 189 0 185 0;
#X connect 191 0 179 0;
#X connect 192 0 26 0;
#X coords 0 -1 1 1 300 200 2 100 100;
