#N canvas 247 43 1189 752 10;
#N canvas 0 22 617 379 sync 0;
#X obj 106 45 inlet;
#X obj 317 76 threshold~ 0.9 0 0.9 0;
#X msg 106 67 bang;
#X obj 284 173 spigot;
#X msg 106 89 1;
#X obj 317 98 t b b;
#X obj 317 120 delay 1;
#X msg 317 149 0;
#X msg 284 195 1 0 \, 0 1 1;
#X obj 284 217 vline~;
#X obj 284 239 outlet~;
#X obj 317 54 r~ \$0-rtm-sync!;
#X connect 0 0 2 0;
#X connect 1 0 5 0;
#X connect 2 0 4 0;
#X connect 3 0 8 0;
#X connect 4 0 3 1;
#X connect 5 0 6 0;
#X connect 5 1 3 0;
#X connect 6 0 7 0;
#X connect 7 0 3 1;
#X connect 8 0 9 0;
#X connect 9 0 10 0;
#X connect 11 0 1 0;
#X restore 578 513 pd sync;
#X msg 578 318 bang;
#X obj 578 91 tgl 15 0 empty empty empty 17 7 0 10 -262144 -1 -1 1
1;
#X obj 578 111 metro 1000;
#X obj 578 133 f;
#X obj 608 133 + 1;
#X floatatom 677 158 5 0 0 0 - - -, f 5;
#X msg 578 205 bang;
#X obj 578 11 loadbang;
#X msg 578 69 1;
#X floatatom 724 360 5 0 0 0 - - -, f 5;
#X obj 724 403 - 1;
#X obj 581 280 t b b b;
#X msg 666 80 0;
#X obj 578 155 % 60;
#X obj 578 177 sel 59;
#X floatatom 103 393 5 0 0 0 - - -, f 5;
#X text 81 392 MIN;
#X obj 103 262 r \$0-rtm-offset-s;
#X obj 103 286 / 127;
#X obj 103 352 i;
#X obj 216 263 r \$0-rtm-time-s;
#X obj 216 285 / 127;
#X obj 216 329 + 1;
#X obj 216 351 i;
#X floatatom 216 381 5 0 0 0 - - -, f 5;
#X obj 343 49 inlet~ SYNC;
#X obj 677 202 s \$0-rtm-counter-gui-r;
#X floatatom 724 425 5 0 0 0 - - -, f 5;
#X obj 724 292 random;
#X obj 724 336 +;
#X obj 782 492 s \$0-rtm-reset-gui-r;
#X obj 216 307 * 119;
#X obj 216 414 t f f;
#X obj 345 431 +;
#X obj 356 393 t b f;
#X floatatom 345 453 5 0 0 0 - - -, f 5;
#X obj 103 476 s \$0-rtm-offset-gui-r;
#X obj 216 450 s \$0-rtm-time-gui-r;
#X obj 345 479 s \$0-rtm-max-r;
#X obj 724 379 t f f f;
#X obj 821 396 s \$0-rtm-active-value;
#X obj 677 177 + 1;
#X obj 578 389 t b b;
#X obj 605 430 s \$0-rtm-b!;
#X obj 343 71 s~ \$0-rtm-sync!;
#X obj 578 631 outlet~ TRIG;
#X obj 103 308 * 59;
#X obj 103 330 + 1;
#X obj 578 610 *~;
#X obj 593 564 r \$0-rtm-on/off-s;
#X obj 593 586 sig~;
#X obj 893 53 inlet~ ON/OFF;
#X obj 893 75 threshold~ 0.9 0 0.9 0;
#X obj 893 97 t b;
#X obj 893 119 s \$0-rtm-on/off-r;
#X obj 650 41 r \$0-rtm-on/off-s;
#X obj 714 94 r \$0-rtm-time-s;
#X obj 714 116 t b;
#X obj 761 120 r \$0-rtm-offset-s;
#X obj 761 142 t b;
#X obj 104 192 cnv 15 175 15 empty empty empty 20 12 0 14 -233017 -66577
0;
#X obj 137 161 hsl 128 15 0 127 0 1 \$0-rtm-offset-s \$0-rtm-offset-r
OFFSET 135 7 0 10 -262144 -1 -1 0 1;
#X obj 137 146 hsl 128 15 0 127 0 1 \$0-rtm-time-s \$0-rtm-time-r TIME
135 7 0 10 -262144 -1 -1 500 1;
#X floatatom 235 131 5 0 0 0 SECONDS #0-rtm-time-gui-r #0-rtm-time-gui-s
, f 5;
#X floatatom 134 176 5 0 0 1 SECONDS #0-rtm-offset-gui-r #0-rtm-offset-gui-s
, f 5;
#X floatatom 134 210 5 0 0 1 COUNTER #0-rtm-counter-gui-r #0-rtm-counter-gui-s
, f 5;
#X obj 104 124 cnv 5 5 5 empty empty RANDOM-TIME-MANAGER 0 0 0 12 -262144
-66577 0;
#X obj 243 124 cnv 5 5 5 empty \$0-instance-num 2 0 0 0 12 -262144
-66577 0;
#X obj 107 242 cnv 5 5 5 empty empty TRIG 0 0 0 8 -262144 -226533 0
;
#X obj 166 200 cnv 3 48 3 empty empty empty 20 12 0 14 -150893 -66577
0;
#X floatatom 134 193 5 0 0 0 MIN #0-rtm-offset-gui-r #0-rtm-min-s,
f 5;
#X floatatom 214 193 5 0 0 1 MAX #0-rtm-max-r #0-rtm-max-s, f 5;
#X obj 108 217 bng 15 250 50 0 empty \$0-rtm-b! empty 17 7 0 10 -1
-226533 -1;
#X floatatom 215 211 5 0 0 1 RANDOM-VALUE #0-rtm-active-value #0-rtm-active-value-s
, f 5;
#X obj 292 109 cnv 5 5 5 empty empty ON/OFF 0 0 0 8 -262144 -226533
0;
#X obj 215 228 tgl 15 1 \$0-rtm-on/off-s \$0-rtm-on/off-r ON/OFF 17
7 0 10 -262144 -1 -1 1 1;
#X obj 105 109 cnv 5 5 5 empty empty SYNC 0 0 0 8 -262144 -226533 0
;
#X obj 356 313 r \$0-rtm-offset-gui-s;
#X obj 794 275 r \$0-rtm-time-gui-r;
#X obj 802 309 r \$0-rtm-offset-gui-r;
#N canvas 267 22 926 752 state-saving-multiple-instances 0;
#X obj 461 15 loadbang;
#X obj 536 276 textfile;
#X obj 461 48 t b b;
#X msg 793 259 rewind;
#X msg 750 259 bang;
#X obj 109 691 textfile;
#X obj 750 220 t b b;
#X obj 110 357 f;
#X obj 123 580 f;
#X obj 48 403 t b b b;
#X msg 186 580 clear;
#X obj 527 204 outlet;
#X text 523 224 INSTANCE NUMBER;
#X obj 488 139 f \$1;
#X obj 488 175 t f f f;
#X obj 48 378 bng 15 250 50 0 empty empty empty 17 7 0 10 -262144 -1
-1;
#X obj 48 274 r SAVE-S;
#X msg 110 438 set \$1 \$2 \$3;
#X msg 122 651 write statesave/\$1-random-time-manager-ss.txt;
#X msg 535 251 read statesave/\$1-random-time-manager-ss.txt;
#X obj 541 318 unpack f f f;
#X obj 110 400 pack f f f;
#X obj 116 51 r \$0-rtm-time-s;
#X obj 358 706 s \$0-rtm-time-r;
#X obj 124 74 r \$0-rtm-offset-s;
#X obj 385 683 s \$0-rtm-offset-r;
#X obj 147 95 r \$0-rtm-on/off-s;
#X obj 412 657 s \$0-rtm-on/off-r;
#X connect 0 0 2 0;
#X connect 1 0 20 0;
#X connect 2 0 6 0;
#X connect 2 1 13 0;
#X connect 3 0 1 0;
#X connect 4 0 1 0;
#X connect 6 0 4 0;
#X connect 6 1 3 0;
#X connect 7 0 21 0;
#X connect 8 0 18 0;
#X connect 9 0 8 0;
#X connect 9 1 7 0;
#X connect 9 2 10 0;
#X connect 10 0 5 0;
#X connect 13 0 14 0;
#X connect 14 0 8 1;
#X connect 14 1 19 0;
#X connect 14 2 11 0;
#X connect 15 0 9 0;
#X connect 16 0 15 0;
#X connect 17 0 5 0;
#X connect 18 0 5 0;
#X connect 19 0 1 0;
#X connect 20 0 23 0;
#X connect 20 1 25 0;
#X connect 20 2 27 0;
#X connect 21 0 17 0;
#X connect 22 0 7 1;
#X connect 24 0 21 1;
#X connect 26 0 21 2;
#X restore 99 551 pd state-saving-multiple-instances;
#X obj 99 623 s \$0-instance-num;
#X obj 99 575 makefilename %d;
#X msg 99 600 label \$1;
#N canvas 297 27 595 563 parameter-nudging-system 0;
#X obj 23 70 clip 0 127;
#N canvas 0 22 484 497 nudge-parameters 0;
#X obj 124 234 random;
#X obj 232 335 f;
#X obj 232 368 +;
#X obj 257 166 random 2;
#X obj 124 275 t f f;
#X obj 124 351 t b f;
#X obj 124 297 *;
#X obj 257 188 sel 0 1;
#X msg 257 280 -1;
#X msg 335 280 1;
#X obj 124 149 t b b b;
#X obj 124 74 r NUDGE!;
#X obj 157 193 r NUDGE-RANGE;
#X obj 247 308 inlet;
#X obj 232 397 outlet;
#X obj 124 96 spigot;
#X obj 185 79 r parameters2-s;
#X connect 0 0 4 0;
#X connect 1 0 2 0;
#X connect 2 0 14 0;
#X connect 3 0 7 0;
#X connect 4 0 6 0;
#X connect 5 0 2 0;
#X connect 5 1 2 1;
#X connect 6 0 5 0;
#X connect 7 0 8 0;
#X connect 7 1 9 0;
#X connect 8 0 6 1;
#X connect 9 0 6 1;
#X connect 10 0 0 0;
#X connect 10 1 1 0;
#X connect 10 2 3 0;
#X connect 11 0 15 0;
#X connect 12 0 0 1;
#X connect 13 0 1 1;
#X connect 15 0 10 0;
#X connect 16 0 15 1;
#X restore 22 45 pd nudge-parameters;
#X obj 164 70 clip 0 127;
#N canvas 0 22 484 497 nudge-parameters 0;
#X obj 124 234 random;
#X obj 232 335 f;
#X obj 232 368 +;
#X obj 257 166 random 2;
#X obj 124 275 t f f;
#X obj 124 351 t b f;
#X obj 124 297 *;
#X obj 257 188 sel 0 1;
#X msg 257 280 -1;
#X msg 335 280 1;
#X obj 124 149 t b b b;
#X obj 124 74 r NUDGE!;
#X obj 157 193 r NUDGE-RANGE;
#X obj 247 308 inlet;
#X obj 232 397 outlet;
#X obj 124 96 spigot;
#X obj 185 79 r parameters2-s;
#X connect 0 0 4 0;
#X connect 1 0 2 0;
#X connect 2 0 14 0;
#X connect 3 0 7 0;
#X connect 4 0 6 0;
#X connect 5 0 2 0;
#X connect 5 1 2 1;
#X connect 6 0 5 0;
#X connect 7 0 8 0;
#X connect 7 1 9 0;
#X connect 8 0 6 1;
#X connect 9 0 6 1;
#X connect 10 0 0 0;
#X connect 10 1 1 0;
#X connect 10 2 3 0;
#X connect 11 0 15 0;
#X connect 12 0 0 1;
#X connect 13 0 1 1;
#X connect 15 0 10 0;
#X connect 16 0 15 1;
#X restore 163 45 pd nudge-parameters;
#X obj 23 22 r \$0-rtm-time-s;
#X obj 23 102 s \$0-rtm-time-r;
#X obj 164 22 r \$0-rtm-offset-s;
#X obj 164 102 s \$0-rtm-offset-r;
#X connect 0 0 5 0;
#X connect 1 0 0 0;
#X connect 2 0 7 0;
#X connect 3 0 2 0;
#X connect 4 0 1 0;
#X connect 6 0 3 0;
#X restore 98 527 pd parameter-nudging-system;
#X obj 578 32 t b b;
#X connect 0 0 49 0;
#X connect 1 0 43 0;
#X connect 2 0 3 0;
#X connect 3 0 4 0;
#X connect 4 0 5 0;
#X connect 4 0 14 0;
#X connect 5 0 4 1;
#X connect 6 0 42 0;
#X connect 7 0 12 0;
#X connect 8 0 86 0;
#X connect 9 0 2 0;
#X connect 10 0 40 0;
#X connect 11 0 15 1;
#X connect 11 0 28 0;
#X connect 12 0 1 0;
#X connect 12 1 29 0;
#X connect 12 2 13 0;
#X connect 13 0 4 1;
#X connect 14 0 15 0;
#X connect 14 0 6 0;
#X connect 15 0 7 0;
#X connect 16 0 37 0;
#X connect 18 0 19 0;
#X connect 19 0 47 0;
#X connect 20 0 16 0;
#X connect 21 0 22 0;
#X connect 22 0 32 0;
#X connect 23 0 24 0;
#X connect 24 0 25 0;
#X connect 25 0 33 0;
#X connect 26 0 45 0;
#X connect 28 0 31 0;
#X connect 29 0 30 0;
#X connect 30 0 10 0;
#X connect 32 0 23 0;
#X connect 33 0 38 0;
#X connect 33 1 34 0;
#X connect 34 0 36 0;
#X connect 35 0 34 0;
#X connect 35 1 34 1;
#X connect 36 0 39 0;
#X connect 40 0 11 0;
#X connect 40 1 14 1;
#X connect 40 2 41 0;
#X connect 42 0 27 0;
#X connect 43 0 0 0;
#X connect 43 1 44 0;
#X connect 47 0 48 0;
#X connect 48 0 20 0;
#X connect 49 0 46 0;
#X connect 50 0 51 0;
#X connect 51 0 49 1;
#X connect 52 0 53 0;
#X connect 53 0 54 0;
#X connect 54 0 55 0;
#X connect 57 0 58 0;
#X connect 58 0 13 0;
#X connect 59 0 60 0;
#X connect 60 0 13 0;
#X connect 78 0 35 0;
#X connect 79 0 29 1;
#X connect 80 0 30 1;
#X connect 81 0 83 0;
#X connect 83 0 84 0;
#X connect 84 0 82 0;
#X connect 86 0 9 0;
#X connect 86 1 7 0;
#X coords 0 -1 1 1 225 150 2 100 100;
