#N canvas 0 22 638 411 10;
#X obj 23 326 cnv 15 400 30 empty empty OUTPUTS: 20 12 0 14 -158136
-262144 0;
#X obj 20 151 cnv 15 400 30 empty empty CONTROLS: 20 12 0 14 -158136
-262144 0;
#X obj 20 257 cnv 15 400 30 empty empty INPUTS: 20 12 0 14 -158136
-262144 0;
#X obj 20 17 cnv 15 400 30 empty empty RANDOM-VOLTAGES 20 12 0 14 -150893
-262144 0;
#X text 24 189 RANDOM - attenuates the range of randomness;
#X text 24 225 SLEW - applies a slew to the output;
#X text 24 293 CLOCK-IN - trigger/gate input;
#X obj 437 20 random-voltages;
#X text 24 61 The "RANDOM-VOLTAGES" module is a random voltages generator.
When a trigger/gate signal is received at the CLOCK-IN input it will
produce a random voltage. Range can be set with the RANDOM slider.
In addition you can add a slew to the voltage with the SLEW slider.
The module outputs both a BI-POLAR voltage and a UNI-POLAR voltage.
;
#X text 26 360 BI-P - bi-polar random voltage;
#X text 26 377 UNI-P - uni-polar random voltage;
