#N canvas 0 23 1278 747 10;
#X obj 643 135 f;
#X obj 672 136 + 1;
#X floatatom 643 179 5 0 0 0 - - -, f 5;
#X obj 706 97 timer;
#X obj 706 74 t b b;
#X obj 643 57 t b b;
#X floatatom 706 119 5 0 0 0 - - -, f 5;
#X obj 706 138 s \$0-tempo;
#X obj 147 147 vradio 15 1 1 5 \$0-s2-ratchet-gui-s \$0-s2-ratchet-gui-r
empty 0 -8 0 10 -262144 -226533 -1 1;
#X text 110 162 x 2;
#X text 110 148 x 1;
#X text 110 177 x 3;
#X text 110 192 x 4;
#X obj 132 147 vradio 15 1 1 5 \$0-s1-ratchet-gui-s \$0-s1-ratchet-gui-r
empty 0 -8 0 10 -228856 -226533 -1 1;
#X obj 177 147 vradio 15 1 1 5 \$0-s4-ratchet-gui-s \$0-s4-ratchet-gui-r
empty 0 -8 0 10 -262144 -226533 -1 3;
#X obj 162 147 vradio 15 1 1 5 \$0-s3-ratchet-gui-s \$0-s3-ratchet-gui-r
empty 0 -8 0 10 -262144 -226533 -1 1;
#X obj 641 684 vline~;
#X obj 147 225 tgl 15 1 \$0-t2-s \$0-t2-r empty 17 7 0 10 -262144 -1
-1 1 1;
#X obj 132 225 tgl 15 1 \$0-t1-s \$0-t1-r empty 17 7 0 10 -228856 -1
-1 0 1;
#X obj 177 225 tgl 15 1 \$0-t4-s \$0-t4-r empty 17 7 0 10 -262144 -1
-1 0 1;
#X obj 162 225 tgl 15 1 \$0-t3-s \$0-t3-r empty 17 7 0 10 -262144 -1
-1 1 1;
#N canvas 0 22 1155 725 ratcheting-step2 0;
#X obj 179 151 r \$0-tempo;
#X floatatom 179 195 5 0 0 0 - - -, f 5;
#X obj 179 173 / 2;
#X obj 152 219 delay;
#X obj 125 196 t b b;
#X obj 125 279 bng 15 250 50 0 empty empty empty 17 7 0 10 -262144
-1 -1;
#X obj 338 82 r \$0-tempo;
#X floatatom 338 126 5 0 0 0 - - -, f 5;
#X obj 311 178 delay;
#X obj 284 155 t b b;
#X obj 283 282 bng 15 250 50 0 empty empty empty 17 7 0 10 -262144
-1 -1;
#X obj 311 200 t b b;
#X obj 338 236 delay;
#X obj 338 149 t f f;
#X obj 338 104 / 3;
#X obj 125 322 spigot;
#X obj 283 302 spigot;
#X floatatom 924 377 5 0 0 0 - - -, f 5;
#X obj 924 396 t f f f f;
#X obj 924 418 == 1;
#X floatatom 924 440 5 0 0 0 - - -, f 5;
#X obj 964 434 == 2;
#X floatatom 964 456 5 0 0 0 - - -, f 5;
#X obj 483 49 r \$0-tempo;
#X floatatom 483 93 5 0 0 0 - - -, f 5;
#X obj 456 145 delay;
#X obj 429 122 t b b;
#X obj 428 263 bng 15 250 50 0 empty empty empty 17 7 0 10 -262144
-1 -1;
#X obj 456 167 t b b;
#X obj 483 203 delay;
#X obj 483 71 / 4;
#X obj 483 225 t b b;
#X obj 510 258 delay;
#X obj 483 116 t f f f;
#X obj 428 283 spigot;
#X obj 1009 457 == 3;
#X floatatom 1009 479 5 0 0 0 - - -, f 5;
#X obj 125 174 r \$0-s2!;
#X obj 284 129 r \$0-s2!;
#X obj 429 96 r \$0-s2!;
#X obj 924 355 r \$0-s2-ratchet-gui-s;
#X obj 127 528 s \$0-ratcheting-2;
#X obj 840 32 r \$0-tempo;
#X floatatom 840 76 5 0 0 0 - - -, f 5;
#X obj 813 128 delay;
#X obj 786 105 t b b;
#X obj 788 317 bng 15 250 50 0 empty empty empty 17 7 0 10 -262144
-1 -1;
#X obj 813 150 t b b;
#X obj 841 186 delay;
#X obj 841 208 t b b;
#X obj 868 241 delay;
#X obj 840 54 / 5;
#X obj 868 263 t b b;
#X obj 899 294 delay;
#X obj 840 99 t f f f f;
#X obj 786 79 r \$0-s2!;
#X obj 788 337 spigot;
#X obj 1052 463 == 4;
#X connect 0 0 2 0;
#X connect 1 0 3 1;
#X connect 2 0 1 0;
#X connect 3 0 5 0;
#X connect 4 0 5 0;
#X connect 4 1 3 0;
#X connect 5 0 15 0;
#X connect 6 0 14 0;
#X connect 7 0 13 0;
#X connect 8 0 11 0;
#X connect 9 0 10 0;
#X connect 9 1 8 0;
#X connect 10 0 16 0;
#X connect 11 0 10 0;
#X connect 11 1 12 0;
#X connect 12 0 10 0;
#X connect 13 0 8 1;
#X connect 13 1 12 1;
#X connect 14 0 7 0;
#X connect 15 0 41 0;
#X connect 16 0 41 0;
#X connect 17 0 18 0;
#X connect 18 0 19 0;
#X connect 18 1 21 0;
#X connect 18 2 35 0;
#X connect 18 3 57 0;
#X connect 19 0 20 0;
#X connect 20 0 15 1;
#X connect 21 0 22 0;
#X connect 22 0 16 1;
#X connect 23 0 30 0;
#X connect 24 0 33 0;
#X connect 25 0 28 0;
#X connect 26 0 27 0;
#X connect 26 1 25 0;
#X connect 27 0 34 0;
#X connect 28 0 27 0;
#X connect 28 1 29 0;
#X connect 29 0 31 0;
#X connect 30 0 24 0;
#X connect 31 0 27 0;
#X connect 31 1 32 0;
#X connect 32 0 27 0;
#X connect 33 0 25 1;
#X connect 33 1 29 1;
#X connect 33 2 32 1;
#X connect 34 0 41 0;
#X connect 35 0 36 0;
#X connect 36 0 34 1;
#X connect 37 0 4 0;
#X connect 38 0 9 0;
#X connect 39 0 26 0;
#X connect 40 0 17 0;
#X connect 42 0 51 0;
#X connect 43 0 54 0;
#X connect 44 0 47 0;
#X connect 45 0 46 0;
#X connect 45 1 44 0;
#X connect 46 0 56 0;
#X connect 47 0 46 0;
#X connect 47 1 48 0;
#X connect 48 0 49 0;
#X connect 49 0 46 0;
#X connect 49 1 50 0;
#X connect 50 0 52 0;
#X connect 51 0 43 0;
#X connect 52 0 46 0;
#X connect 52 1 53 0;
#X connect 53 0 46 0;
#X connect 54 0 44 1;
#X connect 54 1 48 1;
#X connect 54 2 50 1;
#X connect 54 3 53 1;
#X connect 55 0 45 0;
#X connect 56 0 41 0;
#X connect 57 0 56 1;
#X restore 102 289 pd ratcheting-step2;
#X obj 641 706 outlet~;
#X obj 641 639 r \$0-trig-out!;
#N canvas 593 59 800 643 steps1-16-code 0;
#X obj 21 91 spigot;
#X obj 36 46 r \$0-ratcheting-1;
#X obj 21 24 r \$0-s1!;
#X obj 54 67 r \$0-t1-s;
#X obj 21 117 s \$0-trig-out!;
#X obj 152 95 spigot;
#X obj 152 121 s \$0-trig-out!;
#X obj 152 28 r \$0-s2!;
#X obj 167 50 r \$0-ratcheting-2;
#X obj 185 71 r \$0-t2-s;
#X obj 290 91 spigot;
#X obj 290 117 s \$0-trig-out!;
#X obj 290 24 r \$0-s3!;
#X obj 305 46 r \$0-ratcheting-3;
#X obj 323 67 r \$0-t3-s;
#X obj 421 90 spigot;
#X obj 421 116 s \$0-trig-out!;
#X obj 421 23 r \$0-s4!;
#X obj 436 45 r \$0-ratcheting-4;
#X obj 454 66 r \$0-t4-s;
#X obj 24 229 spigot;
#X obj 24 255 s \$0-trig-out!;
#X obj 155 233 spigot;
#X obj 155 259 s \$0-trig-out!;
#X obj 293 229 spigot;
#X obj 293 255 s \$0-trig-out!;
#X obj 424 228 spigot;
#X obj 424 254 s \$0-trig-out!;
#X obj 24 162 r \$0-s5!;
#X obj 57 205 r \$0-t5-s;
#X obj 39 184 r \$0-ratcheting-5;
#X obj 155 166 r \$0-s6!;
#X obj 170 188 r \$0-ratcheting-6;
#X obj 188 209 r \$0-t6-s;
#X obj 293 163 r \$0-s7!;
#X obj 308 184 r \$0-ratcheting-7;
#X obj 326 205 r \$0-t7-s;
#X obj 424 161 r \$0-s8!;
#X obj 439 183 r \$0-ratcheting-8;
#X obj 457 204 r \$0-t8-s;
#X obj 26 368 spigot;
#X obj 26 394 s \$0-trig-out!;
#X obj 157 372 spigot;
#X obj 157 398 s \$0-trig-out!;
#X obj 295 368 spigot;
#X obj 295 394 s \$0-trig-out!;
#X obj 426 367 spigot;
#X obj 426 393 s \$0-trig-out!;
#X obj 29 506 spigot;
#X obj 29 532 s \$0-trig-out!;
#X obj 160 510 spigot;
#X obj 160 536 s \$0-trig-out!;
#X obj 298 506 spigot;
#X obj 298 532 s \$0-trig-out!;
#X obj 429 505 spigot;
#X obj 429 531 s \$0-trig-out!;
#X obj 26 301 r \$0-s9!;
#X obj 41 323 r \$0-ratcheting-9;
#X obj 59 344 r \$0-t9-s;
#X obj 157 305 r \$0-s10!;
#X obj 172 327 r \$0-ratcheting-10;
#X obj 190 348 r \$0-t10-s;
#X obj 295 301 r \$0-s11!;
#X obj 310 323 r \$0-ratcheting-11;
#X obj 328 344 r \$0-t11-s;
#X obj 426 300 r \$0-s12!;
#X obj 441 322 r \$0-ratcheting-12;
#X obj 459 343 r \$0-t12-s;
#X obj 29 439 r \$0-s13!;
#X obj 44 461 r \$0-ratcheting-13;
#X obj 62 482 r \$0-t13-s;
#X obj 160 443 r \$0-s14!;
#X obj 175 465 r \$0-ratcheting-14;
#X obj 193 486 r \$0-t14-s;
#X obj 298 440 r \$0-s15!;
#X obj 313 461 r \$0-ratcheting-15;
#X obj 331 482 r \$0-t15-s;
#X obj 429 438 r \$0-s16!;
#X obj 444 460 r \$0-ratcheting-16;
#X obj 462 481 r \$0-t16-s;
#X connect 0 0 4 0;
#X connect 1 0 0 0;
#X connect 2 0 0 0;
#X connect 3 0 0 1;
#X connect 5 0 6 0;
#X connect 7 0 5 0;
#X connect 8 0 5 0;
#X connect 9 0 5 1;
#X connect 10 0 11 0;
#X connect 12 0 10 0;
#X connect 13 0 10 0;
#X connect 14 0 10 1;
#X connect 15 0 16 0;
#X connect 17 0 15 0;
#X connect 18 0 15 0;
#X connect 19 0 15 1;
#X connect 20 0 21 0;
#X connect 22 0 23 0;
#X connect 24 0 25 0;
#X connect 26 0 27 0;
#X connect 28 0 20 0;
#X connect 29 0 20 1;
#X connect 30 0 20 0;
#X connect 31 0 22 0;
#X connect 32 0 22 0;
#X connect 33 0 22 1;
#X connect 34 0 24 0;
#X connect 35 0 24 0;
#X connect 36 0 24 1;
#X connect 37 0 26 0;
#X connect 38 0 26 0;
#X connect 39 0 26 1;
#X connect 40 0 41 0;
#X connect 42 0 43 0;
#X connect 44 0 45 0;
#X connect 46 0 47 0;
#X connect 48 0 49 0;
#X connect 50 0 51 0;
#X connect 52 0 53 0;
#X connect 54 0 55 0;
#X connect 56 0 40 0;
#X connect 57 0 40 0;
#X connect 58 0 40 1;
#X connect 59 0 42 0;
#X connect 60 0 42 0;
#X connect 61 0 42 1;
#X connect 62 0 44 0;
#X connect 63 0 44 0;
#X connect 64 0 44 1;
#X connect 65 0 46 0;
#X connect 66 0 46 0;
#X connect 67 0 46 1;
#X connect 68 0 48 0;
#X connect 69 0 48 0;
#X connect 70 0 48 1;
#X connect 71 0 50 0;
#X connect 72 0 50 0;
#X connect 73 0 50 1;
#X connect 74 0 52 0;
#X connect 75 0 52 0;
#X connect 76 0 52 1;
#X connect 77 0 54 0;
#X connect 78 0 54 0;
#X connect 79 0 54 1;
#X restore 106 70 pd steps1-16-code;
#X obj 132 132 bng 15 100 50 0 a \$0-s1! empty 17 7 0 10 -1 -226533
-1;
#X obj 643 614 s \$0-s1!;
#X obj 147 132 bng 15 100 50 0 a \$0-s2! empty 17 7 0 10 -1 -226533
-1;
#X obj 162 132 bng 15 100 50 0 a \$0-s3! empty 17 7 0 10 -1 -226533
-1;
#X obj 177 132 bng 15 100 50 0 a \$0-s4! empty 17 7 0 10 -1 -226533
-1;
#X obj 643 208 sel 0 1 2 3 4 5 6 7 8 9 10 11 12 13 14 15;
#X obj 658 590 s \$0-s2!;
#X obj 673 564 s \$0-s3!;
#X obj 688 541 s \$0-s4!;
#X obj 703 513 s \$0-s5!;
#X obj 718 489 s \$0-s6!;
#X obj 734 463 s \$0-s7!;
#X obj 749 440 s \$0-s8!;
#X obj 764 412 s \$0-s9!;
#X obj 779 388 s \$0-s10!;
#X obj 794 362 s \$0-s11!;
#X obj 810 339 s \$0-s12!;
#X obj 825 311 s \$0-s13!;
#X obj 840 287 s \$0-s14!;
#X obj 855 261 s \$0-s15!;
#X obj 870 238 s \$0-s16!;
#N canvas 0 22 1155 725 ratcheting-step1 0;
#X obj 179 151 r \$0-tempo;
#X floatatom 179 195 5 0 0 0 - - -, f 5;
#X obj 179 173 / 2;
#X obj 152 219 delay;
#X obj 125 196 t b b;
#X obj 125 279 bng 15 250 50 0 empty empty empty 17 7 0 10 -262144
-1 -1;
#X obj 338 82 r \$0-tempo;
#X floatatom 338 126 5 0 0 0 - - -, f 5;
#X obj 310 178 delay;
#X obj 283 155 t b b;
#X obj 283 282 bng 15 250 50 0 empty empty empty 17 7 0 10 -262144
-1 -1;
#X obj 310 200 t b b;
#X obj 338 236 delay;
#X obj 338 149 t f f;
#X obj 338 104 / 3;
#X obj 125 582 spigot;
#X obj 283 582 spigot;
#X floatatom 883 439 5 0 0 0 - - -, f 5;
#X obj 883 458 t f f f f;
#X obj 883 497 == 1;
#X floatatom 883 519 5 0 0 0 - - -, f 5;
#X obj 923 523 == 2;
#X floatatom 923 545 5 0 0 0 - - -, f 5;
#X obj 482 49 r \$0-tempo;
#X floatatom 482 93 5 0 0 0 - - -, f 5;
#X obj 455 145 delay;
#X obj 428 122 t b b;
#X obj 428 275 bng 15 250 50 0 empty empty empty 17 7 0 10 -262144
-1 -1;
#X obj 455 167 t b b;
#X obj 483 203 delay;
#X obj 482 71 / 4;
#X obj 483 225 t b b;
#X obj 510 258 delay;
#X obj 482 116 t f f f;
#X obj 428 582 spigot;
#X obj 970 547 == 3;
#X floatatom 970 569 5 0 0 0 - - -, f 5;
#X obj 127 691 s \$0-ratcheting-1;
#X obj 883 417 r \$0-s1-ratchet-gui-s;
#X obj 125 174 r \$0-s1!;
#X obj 283 129 r \$0-s1!;
#X obj 428 96 r \$0-s1!;
#X obj 784 65 r \$0-tempo;
#X floatatom 784 109 5 0 0 0 - - -, f 5;
#X obj 757 161 delay;
#X obj 730 138 t b b;
#X obj 732 350 bng 15 250 50 0 empty empty empty 17 7 0 10 -262144
-1 -1;
#X obj 757 183 t b b;
#X obj 785 219 delay;
#X obj 785 241 t b b;
#X obj 812 274 delay;
#X obj 730 112 r \$0-s1!;
#X obj 784 87 / 5;
#X obj 812 296 t b b;
#X obj 843 327 delay;
#X obj 784 132 t f f f f;
#X obj 519 587 spigot;
#X obj 1017 565 == 4;
#X floatatom 1017 587 5 0 0 0 - - -, f 5;
#X connect 0 0 2 0;
#X connect 1 0 3 1;
#X connect 2 0 1 0;
#X connect 3 0 5 0;
#X connect 4 0 5 0;
#X connect 4 1 3 0;
#X connect 5 0 15 0;
#X connect 6 0 14 0;
#X connect 7 0 13 0;
#X connect 8 0 11 0;
#X connect 9 0 10 0;
#X connect 9 1 8 0;
#X connect 10 0 16 0;
#X connect 11 0 10 0;
#X connect 11 1 12 0;
#X connect 12 0 10 0;
#X connect 13 0 8 1;
#X connect 13 1 12 1;
#X connect 14 0 7 0;
#X connect 15 0 37 0;
#X connect 16 0 37 0;
#X connect 17 0 18 0;
#X connect 18 0 19 0;
#X connect 18 1 21 0;
#X connect 18 2 35 0;
#X connect 18 3 57 0;
#X connect 19 0 20 0;
#X connect 20 0 15 1;
#X connect 21 0 22 0;
#X connect 22 0 16 1;
#X connect 23 0 30 0;
#X connect 24 0 33 0;
#X connect 25 0 28 0;
#X connect 26 0 27 0;
#X connect 26 1 25 0;
#X connect 27 0 34 0;
#X connect 28 0 27 0;
#X connect 28 1 29 0;
#X connect 29 0 31 0;
#X connect 30 0 24 0;
#X connect 31 0 27 0;
#X connect 31 1 32 0;
#X connect 32 0 27 0;
#X connect 33 0 25 1;
#X connect 33 1 29 1;
#X connect 33 2 32 1;
#X connect 34 0 37 0;
#X connect 35 0 36 0;
#X connect 36 0 34 1;
#X connect 38 0 17 0;
#X connect 39 0 4 0;
#X connect 40 0 9 0;
#X connect 41 0 26 0;
#X connect 42 0 52 0;
#X connect 43 0 55 0;
#X connect 44 0 47 0;
#X connect 45 0 46 0;
#X connect 45 1 44 0;
#X connect 46 0 56 0;
#X connect 47 0 46 0;
#X connect 47 1 48 0;
#X connect 48 0 49 0;
#X connect 49 0 46 0;
#X connect 49 1 50 0;
#X connect 50 0 53 0;
#X connect 51 0 45 0;
#X connect 52 0 43 0;
#X connect 53 0 46 0;
#X connect 53 1 54 0;
#X connect 54 0 46 0;
#X connect 55 0 44 1;
#X connect 55 1 48 1;
#X connect 55 2 50 1;
#X connect 55 3 54 1;
#X connect 56 0 37 0;
#X connect 57 0 58 0;
#X connect 58 0 56 1;
#X restore 102 263 pd ratcheting-step1;
#X obj 207 147 vradio 15 1 1 5 \$0-s6-ratchet-gui-s \$0-s6-ratchet-gui-r
empty 0 -8 0 10 -262144 -226533 -1 4;
#X obj 192 147 vradio 15 1 1 5 \$0-s5-ratchet-gui-s \$0-s5-ratchet-gui-r
empty 0 -8 0 10 -228856 -226533 -1 0;
#X obj 237 147 vradio 15 1 1 5 \$0-s8-ratchet-gui-s \$0-s8-ratchet-gui-r
empty 0 -8 0 10 -262144 -226533 -1 1;
#X obj 222 147 vradio 15 1 1 5 \$0-s7-ratchet-gui-s \$0-s7-ratchet-gui-r
empty 0 -8 0 10 -262144 -226533 -1 4;
#X obj 207 225 tgl 15 1 \$0-t6-s \$0-t6-r empty 17 7 0 10 -262144 -1
-1 1 1;
#X obj 192 225 tgl 15 1 \$0-t5-s \$0-t5-r empty 17 7 0 10 -228856 -1
-1 0 1;
#X obj 237 225 tgl 15 1 \$0-t8-s \$0-t8-r empty 17 7 0 10 -262144 -1
-1 1 1;
#X obj 222 225 tgl 15 1 \$0-t7-s \$0-t7-r empty 17 7 0 10 -262144 -1
-1 1 1;
#X obj 192 132 bng 15 100 50 0 a \$0-s5! empty 17 7 0 10 -1 -226533
-1;
#X obj 207 132 bng 15 100 50 0 a \$0-s6! empty 17 7 0 10 -1 -226533
-1;
#X obj 222 132 bng 15 100 50 0 a \$0-s7! empty 17 7 0 10 -1 -226533
-1;
#X obj 237 132 bng 15 100 50 0 a \$0-s8! empty 17 7 0 10 -1 -226533
-1;
#X obj 267 147 vradio 15 1 1 5 \$0-s11-ratchet-gui-s \$0-s11-ratchet-gui-r
empty 0 -8 0 10 -262144 -226533 -1 4;
#X obj 252 147 vradio 15 1 1 5 \$0-s9-ratchet-gui-s \$0-s9-ratchet-gui-r
empty 0 -8 0 10 -228856 -226533 -1 3;
#X obj 297 147 vradio 15 1 1 5 \$0-s12-ratchet-gui-s \$0-s12-ratchet-gui-r
empty 0 -8 0 10 -262144 -226533 -1 2;
#X obj 282 147 vradio 15 1 1 5 \$0-s11-ratchet-gui-s \$0-s11-ratchet-gui-r
empty 0 -8 0 10 -262144 -226533 -1 4;
#X obj 267 225 tgl 15 1 \$0-t10-s \$0-t10-r empty 17 7 0 10 -262144
-1 -1 1 1;
#X obj 252 225 tgl 15 1 \$0-t9-s \$0-t9-r empty 17 7 0 10 -228856 -1
-1 0 1;
#X obj 297 225 tgl 15 1 \$0-t12-s \$0-t12-r empty 17 7 0 10 -262144
-1 -1 1 1;
#X obj 282 225 tgl 15 1 \$0-t11-s \$0-t11-r empty 17 7 0 10 -262144
-1 -1 1 1;
#X obj 252 132 bng 15 100 50 0 a \$0-s9! empty 17 7 0 10 -1 -226533
-1;
#X obj 267 132 bng 15 100 50 0 a \$0-s10! empty 17 7 0 10 -1 -226533
-1;
#X obj 282 132 bng 15 100 50 0 a \$0-s11! empty 17 7 0 10 -1 -226533
-1;
#X obj 297 132 bng 15 100 50 0 a \$0-s12! empty 17 7 0 10 -1 -226533
-1;
#X obj 327 147 vradio 15 1 1 5 \$0-s14-ratchet-gui-s \$0-s14-ratchet-gui-r
empty 0 -8 0 10 -262144 -226533 -1 0;
#X obj 312 147 vradio 15 1 1 5 \$0-s13-ratchet-gui-s \$0-s13-ratchet-gui-r
empty 0 -8 0 10 -228856 -226533 -1 3;
#X obj 357 147 vradio 15 1 1 5 \$0-s16-ratchet-gui-s \$0-s16-ratchet-gui-r
empty 0 -8 0 10 -262144 -226533 -1 4;
#X obj 342 147 vradio 15 1 1 5 \$0-s15-ratchet-gui-s \$0-s15-ratchet-gui-r
empty 0 -8 0 10 -262144 -226533 -1 3;
#X obj 327 225 tgl 15 1 \$0-t14-s \$0-t14-r empty 17 7 0 10 -262144
-1 -1 1 1;
#X obj 312 225 tgl 15 1 \$0-t13-s \$0-t13-r empty 17 7 0 10 -228856
-1 -1 1 1;
#X obj 357 225 tgl 15 1 \$0-t16-s \$0-t16-r ON/OFF 19 7 0 10 -262144
-1 -1 0 1;
#X obj 342 225 tgl 15 1 \$0-t15-s \$0-t15-r empty 17 7 0 10 -262144
-1 -1 1 1;
#X obj 312 132 bng 15 100 50 0 a \$0-s13! empty 17 7 0 10 -1 -226533
-1;
#X obj 327 132 bng 15 100 50 0 a \$0-s14! empty 17 7 0 10 -1 -226533
-1;
#X obj 342 132 bng 15 100 50 0 a \$0-s15! empty 17 7 0 10 -1 -226533
-1;
#X obj 357 132 bng 15 100 50 0 a \$0-s16! empty 17 7 0 10 -1 -226533
-1;
#X obj 643 157 % 16;
#X msg 641 662 1 0 \, 0 1 1;
#X text 110 207 x 5;
#N canvas 0 22 1155 725 ratcheting-step3 0;
#X obj 179 151 r \$0-tempo;
#X floatatom 179 195 5 0 0 0 - - -, f 5;
#X obj 179 173 / 2;
#X obj 152 219 delay;
#X obj 125 196 t b b;
#X obj 125 279 bng 15 250 50 0 empty empty empty 17 7 0 10 -262144
-1 -1;
#X obj 338 82 r \$0-tempo;
#X floatatom 338 126 5 0 0 0 - - -, f 5;
#X obj 310 178 delay;
#X obj 283 155 t b b;
#X obj 283 282 bng 15 250 50 0 empty empty empty 17 7 0 10 -262144
-1 -1;
#X obj 310 200 t b b;
#X obj 338 236 delay;
#X obj 338 149 t f f;
#X obj 338 104 / 3;
#X obj 125 582 spigot;
#X obj 283 582 spigot;
#X floatatom 883 439 5 0 0 0 - - -, f 5;
#X obj 883 458 t f f f f;
#X obj 883 497 == 1;
#X floatatom 883 519 5 0 0 0 - - -, f 5;
#X obj 923 523 == 2;
#X floatatom 923 545 5 0 0 0 - - -, f 5;
#X obj 482 49 r \$0-tempo;
#X floatatom 482 93 5 0 0 0 - - -, f 5;
#X obj 455 145 delay;
#X obj 428 122 t b b;
#X obj 428 275 bng 15 250 50 0 empty empty empty 17 7 0 10 -262144
-1 -1;
#X obj 455 167 t b b;
#X obj 483 203 delay;
#X obj 482 71 / 4;
#X obj 483 225 t b b;
#X obj 510 258 delay;
#X obj 482 116 t f f f;
#X obj 428 582 spigot;
#X obj 970 547 == 3;
#X floatatom 970 569 5 0 0 0 - - -, f 5;
#X obj 784 65 r \$0-tempo;
#X floatatom 784 109 5 0 0 0 - - -, f 5;
#X obj 757 161 delay;
#X obj 730 138 t b b;
#X obj 732 350 bng 15 250 50 0 empty empty empty 17 7 0 10 -262144
-1 -1;
#X obj 757 183 t b b;
#X obj 785 219 delay;
#X obj 785 241 t b b;
#X obj 812 274 delay;
#X obj 784 87 / 5;
#X obj 812 296 t b b;
#X obj 843 327 delay;
#X obj 784 132 t f f f f;
#X obj 519 587 spigot;
#X obj 1017 565 == 4;
#X floatatom 1017 587 5 0 0 0 - - -, f 5;
#X obj 125 174 r \$0-s3!;
#X obj 283 129 r \$0-s3!;
#X obj 428 96 r \$0-s3!;
#X obj 730 112 r \$0-s3!;
#X obj 883 417 r \$0-s3-ratchet-gui-s;
#X obj 127 691 s \$0-ratcheting-3;
#X connect 0 0 2 0;
#X connect 1 0 3 1;
#X connect 2 0 1 0;
#X connect 3 0 5 0;
#X connect 4 0 5 0;
#X connect 4 1 3 0;
#X connect 5 0 15 0;
#X connect 6 0 14 0;
#X connect 7 0 13 0;
#X connect 8 0 11 0;
#X connect 9 0 10 0;
#X connect 9 1 8 0;
#X connect 10 0 16 0;
#X connect 11 0 10 0;
#X connect 11 1 12 0;
#X connect 12 0 10 0;
#X connect 13 0 8 1;
#X connect 13 1 12 1;
#X connect 14 0 7 0;
#X connect 15 0 58 0;
#X connect 16 0 58 0;
#X connect 17 0 18 0;
#X connect 18 0 19 0;
#X connect 18 1 21 0;
#X connect 18 2 35 0;
#X connect 18 3 51 0;
#X connect 19 0 20 0;
#X connect 20 0 15 1;
#X connect 21 0 22 0;
#X connect 22 0 16 1;
#X connect 23 0 30 0;
#X connect 24 0 33 0;
#X connect 25 0 28 0;
#X connect 26 0 27 0;
#X connect 26 1 25 0;
#X connect 27 0 34 0;
#X connect 28 0 27 0;
#X connect 28 1 29 0;
#X connect 29 0 31 0;
#X connect 30 0 24 0;
#X connect 31 0 27 0;
#X connect 31 1 32 0;
#X connect 32 0 27 0;
#X connect 33 0 25 1;
#X connect 33 1 29 1;
#X connect 33 2 32 1;
#X connect 34 0 58 0;
#X connect 35 0 36 0;
#X connect 36 0 34 1;
#X connect 37 0 46 0;
#X connect 38 0 49 0;
#X connect 39 0 42 0;
#X connect 40 0 41 0;
#X connect 40 1 39 0;
#X connect 41 0 50 0;
#X connect 42 0 41 0;
#X connect 42 1 43 0;
#X connect 43 0 44 0;
#X connect 44 0 41 0;
#X connect 44 1 45 0;
#X connect 45 0 47 0;
#X connect 46 0 38 0;
#X connect 47 0 41 0;
#X connect 47 1 48 0;
#X connect 48 0 41 0;
#X connect 49 0 39 1;
#X connect 49 1 43 1;
#X connect 49 2 45 1;
#X connect 49 3 48 1;
#X connect 50 0 58 0;
#X connect 51 0 52 0;
#X connect 52 0 50 1;
#X connect 53 0 4 0;
#X connect 54 0 9 0;
#X connect 55 0 26 0;
#X connect 56 0 40 0;
#X connect 57 0 17 0;
#X restore 102 317 pd ratcheting-step3;
#N canvas 0 22 1155 725 ratcheting-step4 0;
#X obj 179 151 r \$0-tempo;
#X floatatom 179 195 5 0 0 0 - - -, f 5;
#X obj 179 173 / 2;
#X obj 152 219 delay;
#X obj 125 196 t b b;
#X obj 125 279 bng 15 250 50 0 empty empty empty 17 7 0 10 -262144
-1 -1;
#X obj 338 82 r \$0-tempo;
#X floatatom 338 126 5 0 0 0 - - -, f 5;
#X obj 311 178 delay;
#X obj 284 155 t b b;
#X obj 283 282 bng 15 250 50 0 empty empty empty 17 7 0 10 -262144
-1 -1;
#X obj 311 200 t b b;
#X obj 338 236 delay;
#X obj 338 149 t f f;
#X obj 338 104 / 3;
#X obj 125 322 spigot;
#X obj 283 302 spigot;
#X floatatom 924 377 5 0 0 0 - - -, f 5;
#X obj 924 396 t f f f f;
#X obj 924 418 == 1;
#X floatatom 924 440 5 0 0 0 - - -, f 5;
#X obj 964 434 == 2;
#X floatatom 964 456 5 0 0 0 - - -, f 5;
#X obj 483 49 r \$0-tempo;
#X floatatom 483 93 5 0 0 0 - - -, f 5;
#X obj 456 145 delay;
#X obj 429 122 t b b;
#X obj 428 263 bng 15 250 50 0 empty empty empty 17 7 0 10 -262144
-1 -1;
#X obj 456 167 t b b;
#X obj 483 203 delay;
#X obj 483 71 / 4;
#X obj 483 225 t b b;
#X obj 510 258 delay;
#X obj 483 116 t f f f;
#X obj 428 283 spigot;
#X obj 1009 457 == 3;
#X floatatom 1009 479 5 0 0 0 - - -, f 5;
#X obj 840 32 r \$0-tempo;
#X floatatom 840 76 5 0 0 0 - - -, f 5;
#X obj 813 128 delay;
#X obj 786 105 t b b;
#X obj 788 317 bng 15 250 50 0 empty empty empty 17 7 0 10 -262144
-1 -1;
#X obj 813 150 t b b;
#X obj 841 186 delay;
#X obj 841 208 t b b;
#X obj 868 241 delay;
#X obj 840 54 / 5;
#X obj 868 263 t b b;
#X obj 899 294 delay;
#X obj 840 99 t f f f f;
#X obj 788 337 spigot;
#X obj 1052 463 == 4;
#X obj 125 174 r \$0-s4!;
#X obj 284 129 r \$0-s4!;
#X obj 429 96 r \$0-s4!;
#X obj 786 79 r \$0-s4!;
#X obj 924 355 r \$0-s4-ratchet-gui-s;
#X obj 127 528 s \$0-ratcheting-4;
#X connect 0 0 2 0;
#X connect 1 0 3 1;
#X connect 2 0 1 0;
#X connect 3 0 5 0;
#X connect 4 0 5 0;
#X connect 4 1 3 0;
#X connect 5 0 15 0;
#X connect 6 0 14 0;
#X connect 7 0 13 0;
#X connect 8 0 11 0;
#X connect 9 0 10 0;
#X connect 9 1 8 0;
#X connect 10 0 16 0;
#X connect 11 0 10 0;
#X connect 11 1 12 0;
#X connect 12 0 10 0;
#X connect 13 0 8 1;
#X connect 13 1 12 1;
#X connect 14 0 7 0;
#X connect 15 0 57 0;
#X connect 16 0 57 0;
#X connect 17 0 18 0;
#X connect 18 0 19 0;
#X connect 18 1 21 0;
#X connect 18 2 35 0;
#X connect 18 3 51 0;
#X connect 19 0 20 0;
#X connect 20 0 15 1;
#X connect 21 0 22 0;
#X connect 22 0 16 1;
#X connect 23 0 30 0;
#X connect 24 0 33 0;
#X connect 25 0 28 0;
#X connect 26 0 27 0;
#X connect 26 1 25 0;
#X connect 27 0 34 0;
#X connect 28 0 27 0;
#X connect 28 1 29 0;
#X connect 29 0 31 0;
#X connect 30 0 24 0;
#X connect 31 0 27 0;
#X connect 31 1 32 0;
#X connect 32 0 27 0;
#X connect 33 0 25 1;
#X connect 33 1 29 1;
#X connect 33 2 32 1;
#X connect 34 0 57 0;
#X connect 35 0 36 0;
#X connect 36 0 34 1;
#X connect 37 0 46 0;
#X connect 38 0 49 0;
#X connect 39 0 42 0;
#X connect 40 0 41 0;
#X connect 40 1 39 0;
#X connect 41 0 50 0;
#X connect 42 0 41 0;
#X connect 42 1 43 0;
#X connect 43 0 44 0;
#X connect 44 0 41 0;
#X connect 44 1 45 0;
#X connect 45 0 47 0;
#X connect 46 0 38 0;
#X connect 47 0 41 0;
#X connect 47 1 48 0;
#X connect 48 0 41 0;
#X connect 49 0 39 1;
#X connect 49 1 43 1;
#X connect 49 2 45 1;
#X connect 49 3 48 1;
#X connect 50 0 57 0;
#X connect 51 0 50 1;
#X connect 52 0 4 0;
#X connect 53 0 9 0;
#X connect 54 0 26 0;
#X connect 55 0 40 0;
#X connect 56 0 17 0;
#X restore 102 343 pd ratcheting-step4;
#N canvas 0 22 1155 725 ratcheting-step5 0;
#X obj 179 151 r \$0-tempo;
#X floatatom 179 195 5 0 0 0 - - -, f 5;
#X obj 179 173 / 2;
#X obj 152 219 delay;
#X obj 125 196 t b b;
#X obj 125 279 bng 15 250 50 0 empty empty empty 17 7 0 10 -262144
-1 -1;
#X obj 338 82 r \$0-tempo;
#X floatatom 338 126 5 0 0 0 - - -, f 5;
#X obj 310 178 delay;
#X obj 283 155 t b b;
#X obj 283 282 bng 15 250 50 0 empty empty empty 17 7 0 10 -262144
-1 -1;
#X obj 310 200 t b b;
#X obj 338 236 delay;
#X obj 338 149 t f f;
#X obj 338 104 / 3;
#X obj 125 582 spigot;
#X obj 283 582 spigot;
#X floatatom 883 439 5 0 0 0 - - -, f 5;
#X obj 883 458 t f f f f;
#X obj 883 497 == 1;
#X floatatom 883 519 5 0 0 0 - - -, f 5;
#X obj 923 523 == 2;
#X floatatom 923 545 5 0 0 0 - - -, f 5;
#X obj 482 49 r \$0-tempo;
#X floatatom 482 93 5 0 0 0 - - -, f 5;
#X obj 455 145 delay;
#X obj 428 122 t b b;
#X obj 428 275 bng 15 250 50 0 empty empty empty 17 7 0 10 -262144
-1 -1;
#X obj 455 167 t b b;
#X obj 483 203 delay;
#X obj 482 71 / 4;
#X obj 483 225 t b b;
#X obj 510 258 delay;
#X obj 482 116 t f f f;
#X obj 428 582 spigot;
#X obj 970 547 == 3;
#X floatatom 970 569 5 0 0 0 - - -, f 5;
#X obj 784 65 r \$0-tempo;
#X floatatom 784 109 5 0 0 0 - - -, f 5;
#X obj 757 161 delay;
#X obj 730 138 t b b;
#X obj 732 350 bng 15 250 50 0 empty empty empty 17 7 0 10 -262144
-1 -1;
#X obj 757 183 t b b;
#X obj 785 219 delay;
#X obj 785 241 t b b;
#X obj 812 274 delay;
#X obj 784 87 / 5;
#X obj 812 296 t b b;
#X obj 843 327 delay;
#X obj 784 132 t f f f f;
#X obj 519 587 spigot;
#X obj 1017 565 == 4;
#X floatatom 1017 587 5 0 0 0 - - -, f 5;
#X obj 125 174 r \$0-s5!;
#X obj 283 129 r \$0-s5!;
#X obj 428 96 r \$0-s5!;
#X obj 730 112 r \$0-s5!;
#X obj 883 417 r \$0-s5-ratchet-gui-s;
#X obj 127 690 s \$0-ratcheting-5;
#X connect 0 0 2 0;
#X connect 1 0 3 1;
#X connect 2 0 1 0;
#X connect 3 0 5 0;
#X connect 4 0 5 0;
#X connect 4 1 3 0;
#X connect 5 0 15 0;
#X connect 6 0 14 0;
#X connect 7 0 13 0;
#X connect 8 0 11 0;
#X connect 9 0 10 0;
#X connect 9 1 8 0;
#X connect 10 0 16 0;
#X connect 11 0 10 0;
#X connect 11 1 12 0;
#X connect 12 0 10 0;
#X connect 13 0 8 1;
#X connect 13 1 12 1;
#X connect 14 0 7 0;
#X connect 15 0 58 0;
#X connect 16 0 58 0;
#X connect 17 0 18 0;
#X connect 18 0 19 0;
#X connect 18 1 21 0;
#X connect 18 2 35 0;
#X connect 18 3 51 0;
#X connect 19 0 20 0;
#X connect 20 0 15 1;
#X connect 21 0 22 0;
#X connect 22 0 16 1;
#X connect 23 0 30 0;
#X connect 24 0 33 0;
#X connect 25 0 28 0;
#X connect 26 0 27 0;
#X connect 26 1 25 0;
#X connect 27 0 34 0;
#X connect 28 0 27 0;
#X connect 28 1 29 0;
#X connect 29 0 31 0;
#X connect 30 0 24 0;
#X connect 31 0 27 0;
#X connect 31 1 32 0;
#X connect 32 0 27 0;
#X connect 33 0 25 1;
#X connect 33 1 29 1;
#X connect 33 2 32 1;
#X connect 34 0 58 0;
#X connect 35 0 36 0;
#X connect 36 0 34 1;
#X connect 37 0 46 0;
#X connect 38 0 49 0;
#X connect 39 0 42 0;
#X connect 40 0 41 0;
#X connect 40 1 39 0;
#X connect 41 0 50 0;
#X connect 42 0 41 0;
#X connect 42 1 43 0;
#X connect 43 0 44 0;
#X connect 44 0 41 0;
#X connect 44 1 45 0;
#X connect 45 0 47 0;
#X connect 46 0 38 0;
#X connect 47 0 41 0;
#X connect 47 1 48 0;
#X connect 48 0 41 0;
#X connect 49 0 39 1;
#X connect 49 1 43 1;
#X connect 49 2 45 1;
#X connect 49 3 48 1;
#X connect 50 0 58 0;
#X connect 51 0 52 0;
#X connect 52 0 50 1;
#X connect 53 0 4 0;
#X connect 54 0 9 0;
#X connect 55 0 26 0;
#X connect 56 0 40 0;
#X connect 57 0 17 0;
#X restore 102 374 pd ratcheting-step5;
#N canvas 0 22 1155 725 ratcheting-step6 0;
#X obj 179 151 r \$0-tempo;
#X floatatom 179 195 5 0 0 0 - - -, f 5;
#X obj 179 173 / 2;
#X obj 152 219 delay;
#X obj 125 196 t b b;
#X obj 125 279 bng 15 250 50 0 empty empty empty 17 7 0 10 -262144
-1 -1;
#X obj 338 82 r \$0-tempo;
#X floatatom 338 126 5 0 0 0 - - -, f 5;
#X obj 311 178 delay;
#X obj 284 155 t b b;
#X obj 283 282 bng 15 250 50 0 empty empty empty 17 7 0 10 -262144
-1 -1;
#X obj 311 200 t b b;
#X obj 338 236 delay;
#X obj 338 149 t f f;
#X obj 338 104 / 3;
#X obj 125 322 spigot;
#X obj 283 302 spigot;
#X floatatom 924 377 5 0 0 0 - - -, f 5;
#X obj 924 396 t f f f f;
#X obj 924 418 == 1;
#X floatatom 924 440 5 0 0 0 - - -, f 5;
#X obj 964 434 == 2;
#X floatatom 964 456 5 0 0 0 - - -, f 5;
#X obj 483 49 r \$0-tempo;
#X floatatom 483 93 5 0 0 0 - - -, f 5;
#X obj 456 145 delay;
#X obj 429 122 t b b;
#X obj 428 263 bng 15 250 50 0 empty empty empty 17 7 0 10 -262144
-1 -1;
#X obj 456 167 t b b;
#X obj 483 203 delay;
#X obj 483 71 / 4;
#X obj 483 225 t b b;
#X obj 510 258 delay;
#X obj 483 116 t f f f;
#X obj 428 283 spigot;
#X obj 1009 457 == 3;
#X floatatom 1009 479 5 0 0 0 - - -, f 5;
#X obj 840 32 r \$0-tempo;
#X floatatom 840 76 5 0 0 0 - - -, f 5;
#X obj 813 128 delay;
#X obj 786 105 t b b;
#X obj 788 317 bng 15 250 50 0 empty empty empty 17 7 0 10 -262144
-1 -1;
#X obj 813 150 t b b;
#X obj 841 186 delay;
#X obj 841 208 t b b;
#X obj 868 241 delay;
#X obj 840 54 / 5;
#X obj 868 263 t b b;
#X obj 899 294 delay;
#X obj 840 99 t f f f f;
#X obj 788 337 spigot;
#X obj 1052 463 == 4;
#X obj 125 174 r \$0-s6!;
#X obj 284 129 r \$0-s6!;
#X obj 429 96 r \$0-s6!;
#X obj 786 79 r \$0-s6!;
#X obj 924 355 r \$0-s6-ratchet-gui-s;
#X obj 127 528 s \$0-ratcheting-6;
#X connect 0 0 2 0;
#X connect 1 0 3 1;
#X connect 2 0 1 0;
#X connect 3 0 5 0;
#X connect 4 0 5 0;
#X connect 4 1 3 0;
#X connect 5 0 15 0;
#X connect 6 0 14 0;
#X connect 7 0 13 0;
#X connect 8 0 11 0;
#X connect 9 0 10 0;
#X connect 9 1 8 0;
#X connect 10 0 16 0;
#X connect 11 0 10 0;
#X connect 11 1 12 0;
#X connect 12 0 10 0;
#X connect 13 0 8 1;
#X connect 13 1 12 1;
#X connect 14 0 7 0;
#X connect 15 0 57 0;
#X connect 16 0 57 0;
#X connect 17 0 18 0;
#X connect 18 0 19 0;
#X connect 18 1 21 0;
#X connect 18 2 35 0;
#X connect 18 3 51 0;
#X connect 19 0 20 0;
#X connect 20 0 15 1;
#X connect 21 0 22 0;
#X connect 22 0 16 1;
#X connect 23 0 30 0;
#X connect 24 0 33 0;
#X connect 25 0 28 0;
#X connect 26 0 27 0;
#X connect 26 1 25 0;
#X connect 27 0 34 0;
#X connect 28 0 27 0;
#X connect 28 1 29 0;
#X connect 29 0 31 0;
#X connect 30 0 24 0;
#X connect 31 0 27 0;
#X connect 31 1 32 0;
#X connect 32 0 27 0;
#X connect 33 0 25 1;
#X connect 33 1 29 1;
#X connect 33 2 32 1;
#X connect 34 0 57 0;
#X connect 35 0 36 0;
#X connect 36 0 34 1;
#X connect 37 0 46 0;
#X connect 38 0 49 0;
#X connect 39 0 42 0;
#X connect 40 0 41 0;
#X connect 40 1 39 0;
#X connect 41 0 50 0;
#X connect 42 0 41 0;
#X connect 42 1 43 0;
#X connect 43 0 44 0;
#X connect 44 0 41 0;
#X connect 44 1 45 0;
#X connect 45 0 47 0;
#X connect 46 0 38 0;
#X connect 47 0 41 0;
#X connect 47 1 48 0;
#X connect 48 0 41 0;
#X connect 49 0 39 1;
#X connect 49 1 43 1;
#X connect 49 2 45 1;
#X connect 49 3 48 1;
#X connect 50 0 57 0;
#X connect 51 0 50 1;
#X connect 52 0 4 0;
#X connect 53 0 9 0;
#X connect 54 0 26 0;
#X connect 55 0 40 0;
#X connect 56 0 17 0;
#X restore 102 400 pd ratcheting-step6;
#N canvas 0 22 1155 725 ratcheting-step7 0;
#X obj 179 151 r \$0-tempo;
#X floatatom 179 195 5 0 0 0 - - -, f 5;
#X obj 179 173 / 2;
#X obj 152 219 delay;
#X obj 125 196 t b b;
#X obj 125 279 bng 15 250 50 0 empty empty empty 17 7 0 10 -262144
-1 -1;
#X obj 338 82 r \$0-tempo;
#X floatatom 338 126 5 0 0 0 - - -, f 5;
#X obj 310 178 delay;
#X obj 283 155 t b b;
#X obj 283 282 bng 15 250 50 0 empty empty empty 17 7 0 10 -262144
-1 -1;
#X obj 310 200 t b b;
#X obj 338 236 delay;
#X obj 338 149 t f f;
#X obj 338 104 / 3;
#X obj 125 582 spigot;
#X obj 283 582 spigot;
#X floatatom 883 439 5 0 0 0 - - -, f 5;
#X obj 883 458 t f f f f;
#X obj 883 497 == 1;
#X floatatom 883 519 5 0 0 0 - - -, f 5;
#X obj 923 523 == 2;
#X floatatom 923 545 5 0 0 0 - - -, f 5;
#X obj 482 49 r \$0-tempo;
#X floatatom 482 93 5 0 0 0 - - -, f 5;
#X obj 455 145 delay;
#X obj 428 122 t b b;
#X obj 428 275 bng 15 250 50 0 empty empty empty 17 7 0 10 -262144
-1 -1;
#X obj 455 167 t b b;
#X obj 483 203 delay;
#X obj 482 71 / 4;
#X obj 483 225 t b b;
#X obj 510 258 delay;
#X obj 482 116 t f f f;
#X obj 428 582 spigot;
#X obj 970 547 == 3;
#X floatatom 970 569 5 0 0 0 - - -, f 5;
#X obj 784 65 r \$0-tempo;
#X floatatom 784 109 5 0 0 0 - - -, f 5;
#X obj 757 161 delay;
#X obj 730 138 t b b;
#X obj 732 350 bng 15 250 50 0 empty empty empty 17 7 0 10 -262144
-1 -1;
#X obj 757 183 t b b;
#X obj 785 219 delay;
#X obj 785 241 t b b;
#X obj 812 274 delay;
#X obj 784 87 / 5;
#X obj 812 296 t b b;
#X obj 843 327 delay;
#X obj 784 132 t f f f f;
#X obj 519 587 spigot;
#X obj 1017 565 == 4;
#X floatatom 1017 587 5 0 0 0 - - -, f 5;
#X obj 125 174 r \$0-s7!;
#X obj 284 129 r \$0-s7!;
#X obj 428 96 r \$0-s7!;
#X obj 730 112 r \$0-s7!;
#X obj 883 417 r \$0-s7-ratchet-gui-s;
#X obj 127 691 s \$0-ratcheting-7;
#X connect 0 0 2 0;
#X connect 1 0 3 1;
#X connect 2 0 1 0;
#X connect 3 0 5 0;
#X connect 4 0 5 0;
#X connect 4 1 3 0;
#X connect 5 0 15 0;
#X connect 6 0 14 0;
#X connect 7 0 13 0;
#X connect 8 0 11 0;
#X connect 9 0 10 0;
#X connect 9 1 8 0;
#X connect 10 0 16 0;
#X connect 11 0 10 0;
#X connect 11 1 12 0;
#X connect 12 0 10 0;
#X connect 13 0 8 1;
#X connect 13 1 12 1;
#X connect 14 0 7 0;
#X connect 15 0 58 0;
#X connect 16 0 58 0;
#X connect 17 0 18 0;
#X connect 18 0 19 0;
#X connect 18 1 21 0;
#X connect 18 2 35 0;
#X connect 18 3 51 0;
#X connect 19 0 20 0;
#X connect 20 0 15 1;
#X connect 21 0 22 0;
#X connect 22 0 16 1;
#X connect 23 0 30 0;
#X connect 24 0 33 0;
#X connect 25 0 28 0;
#X connect 26 0 27 0;
#X connect 26 1 25 0;
#X connect 27 0 34 0;
#X connect 28 0 27 0;
#X connect 28 1 29 0;
#X connect 29 0 31 0;
#X connect 30 0 24 0;
#X connect 31 0 27 0;
#X connect 31 1 32 0;
#X connect 32 0 27 0;
#X connect 33 0 25 1;
#X connect 33 1 29 1;
#X connect 33 2 32 1;
#X connect 34 0 58 0;
#X connect 35 0 36 0;
#X connect 36 0 34 1;
#X connect 37 0 46 0;
#X connect 38 0 49 0;
#X connect 39 0 42 0;
#X connect 40 0 41 0;
#X connect 40 1 39 0;
#X connect 41 0 50 0;
#X connect 42 0 41 0;
#X connect 42 1 43 0;
#X connect 43 0 44 0;
#X connect 44 0 41 0;
#X connect 44 1 45 0;
#X connect 45 0 47 0;
#X connect 46 0 38 0;
#X connect 47 0 41 0;
#X connect 47 1 48 0;
#X connect 48 0 41 0;
#X connect 49 0 39 1;
#X connect 49 1 43 1;
#X connect 49 2 45 1;
#X connect 49 3 48 1;
#X connect 50 0 58 0;
#X connect 51 0 52 0;
#X connect 52 0 50 1;
#X connect 53 0 4 0;
#X connect 54 0 9 0;
#X connect 55 0 26 0;
#X connect 56 0 40 0;
#X connect 57 0 17 0;
#X restore 102 428 pd ratcheting-step7;
#N canvas 0 22 1155 725 ratcheting-step8 0;
#X obj 179 151 r \$0-tempo;
#X floatatom 179 195 5 0 0 0 - - -, f 5;
#X obj 179 173 / 2;
#X obj 152 219 delay;
#X obj 125 196 t b b;
#X obj 125 279 bng 15 250 50 0 empty empty empty 17 7 0 10 -262144
-1 -1;
#X obj 338 82 r \$0-tempo;
#X floatatom 338 126 5 0 0 0 - - -, f 5;
#X obj 311 178 delay;
#X obj 284 155 t b b;
#X obj 283 282 bng 15 250 50 0 empty empty empty 17 7 0 10 -262144
-1 -1;
#X obj 311 200 t b b;
#X obj 338 236 delay;
#X obj 338 149 t f f;
#X obj 338 104 / 3;
#X obj 125 322 spigot;
#X obj 283 302 spigot;
#X floatatom 924 377 5 0 0 0 - - -, f 5;
#X obj 924 396 t f f f f;
#X obj 924 418 == 1;
#X floatatom 924 440 5 0 0 0 - - -, f 5;
#X obj 964 434 == 2;
#X floatatom 964 456 5 0 0 0 - - -, f 5;
#X obj 483 49 r \$0-tempo;
#X floatatom 483 93 5 0 0 0 - - -, f 5;
#X obj 456 145 delay;
#X obj 429 122 t b b;
#X obj 428 263 bng 15 250 50 0 empty empty empty 17 7 0 10 -262144
-1 -1;
#X obj 456 167 t b b;
#X obj 483 203 delay;
#X obj 483 71 / 4;
#X obj 483 225 t b b;
#X obj 510 258 delay;
#X obj 483 116 t f f f;
#X obj 428 283 spigot;
#X obj 1009 457 == 3;
#X floatatom 1009 479 5 0 0 0 - - -, f 5;
#X obj 840 32 r \$0-tempo;
#X floatatom 840 76 5 0 0 0 - - -, f 5;
#X obj 813 128 delay;
#X obj 786 105 t b b;
#X obj 788 317 bng 15 250 50 0 empty empty empty 17 7 0 10 -262144
-1 -1;
#X obj 813 150 t b b;
#X obj 841 186 delay;
#X obj 841 208 t b b;
#X obj 868 241 delay;
#X obj 840 54 / 5;
#X obj 868 263 t b b;
#X obj 899 294 delay;
#X obj 840 99 t f f f f;
#X obj 788 337 spigot;
#X obj 1052 463 == 4;
#X obj 125 174 r \$0-s8!;
#X obj 284 129 r \$0-s8!;
#X obj 429 96 r \$0-s8!;
#X obj 786 79 r \$0-s8!;
#X obj 924 355 r \$0-s8-ratchet-gui-s;
#X obj 127 528 s \$0-ratcheting-8;
#X connect 0 0 2 0;
#X connect 1 0 3 1;
#X connect 2 0 1 0;
#X connect 3 0 5 0;
#X connect 4 0 5 0;
#X connect 4 1 3 0;
#X connect 5 0 15 0;
#X connect 6 0 14 0;
#X connect 7 0 13 0;
#X connect 8 0 11 0;
#X connect 9 0 10 0;
#X connect 9 1 8 0;
#X connect 10 0 16 0;
#X connect 11 0 10 0;
#X connect 11 1 12 0;
#X connect 12 0 10 0;
#X connect 13 0 8 1;
#X connect 13 1 12 1;
#X connect 14 0 7 0;
#X connect 15 0 57 0;
#X connect 16 0 57 0;
#X connect 17 0 18 0;
#X connect 18 0 19 0;
#X connect 18 1 21 0;
#X connect 18 2 35 0;
#X connect 18 3 51 0;
#X connect 19 0 20 0;
#X connect 20 0 15 1;
#X connect 21 0 22 0;
#X connect 22 0 16 1;
#X connect 23 0 30 0;
#X connect 24 0 33 0;
#X connect 25 0 28 0;
#X connect 26 0 27 0;
#X connect 26 1 25 0;
#X connect 27 0 34 0;
#X connect 28 0 27 0;
#X connect 28 1 29 0;
#X connect 29 0 31 0;
#X connect 30 0 24 0;
#X connect 31 0 27 0;
#X connect 31 1 32 0;
#X connect 32 0 27 0;
#X connect 33 0 25 1;
#X connect 33 1 29 1;
#X connect 33 2 32 1;
#X connect 34 0 57 0;
#X connect 35 0 36 0;
#X connect 36 0 34 1;
#X connect 37 0 46 0;
#X connect 38 0 49 0;
#X connect 39 0 42 0;
#X connect 40 0 41 0;
#X connect 40 1 39 0;
#X connect 41 0 50 0;
#X connect 42 0 41 0;
#X connect 42 1 43 0;
#X connect 43 0 44 0;
#X connect 44 0 41 0;
#X connect 44 1 45 0;
#X connect 45 0 47 0;
#X connect 46 0 38 0;
#X connect 47 0 41 0;
#X connect 47 1 48 0;
#X connect 48 0 41 0;
#X connect 49 0 39 1;
#X connect 49 1 43 1;
#X connect 49 2 45 1;
#X connect 49 3 48 1;
#X connect 50 0 57 0;
#X connect 51 0 50 1;
#X connect 52 0 4 0;
#X connect 53 0 9 0;
#X connect 54 0 26 0;
#X connect 55 0 40 0;
#X connect 56 0 17 0;
#X restore 102 454 pd ratcheting-step8;
#N canvas 0 22 1155 725 ratcheting-step9 0;
#X obj 179 151 r \$0-tempo;
#X floatatom 179 195 5 0 0 0 - - -, f 5;
#X obj 179 173 / 2;
#X obj 152 219 delay;
#X obj 125 196 t b b;
#X obj 125 279 bng 15 250 50 0 empty empty empty 17 7 0 10 -262144
-1 -1;
#X obj 338 82 r \$0-tempo;
#X floatatom 338 126 5 0 0 0 - - -, f 5;
#X obj 310 178 delay;
#X obj 283 155 t b b;
#X obj 283 282 bng 15 250 50 0 empty empty empty 17 7 0 10 -262144
-1 -1;
#X obj 310 200 t b b;
#X obj 338 236 delay;
#X obj 338 149 t f f;
#X obj 338 104 / 3;
#X obj 125 582 spigot;
#X obj 283 582 spigot;
#X floatatom 883 439 5 0 0 0 - - -, f 5;
#X obj 883 458 t f f f f;
#X obj 883 497 == 1;
#X floatatom 883 519 5 0 0 0 - - -, f 5;
#X obj 923 523 == 2;
#X floatatom 923 545 5 0 0 0 - - -, f 5;
#X obj 482 49 r \$0-tempo;
#X floatatom 482 93 5 0 0 0 - - -, f 5;
#X obj 455 145 delay;
#X obj 428 122 t b b;
#X obj 428 275 bng 15 250 50 0 empty empty empty 17 7 0 10 -262144
-1 -1;
#X obj 455 167 t b b;
#X obj 483 203 delay;
#X obj 482 71 / 4;
#X obj 483 225 t b b;
#X obj 510 258 delay;
#X obj 482 116 t f f f;
#X obj 428 582 spigot;
#X obj 970 547 == 3;
#X floatatom 970 569 5 0 0 0 - - -, f 5;
#X obj 784 65 r \$0-tempo;
#X floatatom 784 109 5 0 0 0 - - -, f 5;
#X obj 757 161 delay;
#X obj 730 138 t b b;
#X obj 732 350 bng 15 250 50 0 empty empty empty 17 7 0 10 -262144
-1 -1;
#X obj 757 183 t b b;
#X obj 785 219 delay;
#X obj 785 241 t b b;
#X obj 812 274 delay;
#X obj 784 87 / 5;
#X obj 812 296 t b b;
#X obj 843 327 delay;
#X obj 784 132 t f f f f;
#X obj 519 587 spigot;
#X obj 1017 565 == 4;
#X floatatom 1017 587 5 0 0 0 - - -, f 5;
#X obj 125 174 r \$0-s9!;
#X obj 283 129 r \$0-s9!;
#X obj 428 96 r \$0-s9!;
#X obj 730 112 r \$0-s9!;
#X obj 883 417 r \$0-s9-ratchet-gui-s;
#X obj 127 691 s \$0-ratcheting-9;
#X connect 0 0 2 0;
#X connect 1 0 3 1;
#X connect 2 0 1 0;
#X connect 3 0 5 0;
#X connect 4 0 5 0;
#X connect 4 1 3 0;
#X connect 5 0 15 0;
#X connect 6 0 14 0;
#X connect 7 0 13 0;
#X connect 8 0 11 0;
#X connect 9 0 10 0;
#X connect 9 1 8 0;
#X connect 10 0 16 0;
#X connect 11 0 10 0;
#X connect 11 1 12 0;
#X connect 12 0 10 0;
#X connect 13 0 8 1;
#X connect 13 1 12 1;
#X connect 14 0 7 0;
#X connect 15 0 58 0;
#X connect 16 0 58 0;
#X connect 17 0 18 0;
#X connect 18 0 19 0;
#X connect 18 1 21 0;
#X connect 18 2 35 0;
#X connect 18 3 51 0;
#X connect 19 0 20 0;
#X connect 20 0 15 1;
#X connect 21 0 22 0;
#X connect 22 0 16 1;
#X connect 23 0 30 0;
#X connect 24 0 33 0;
#X connect 25 0 28 0;
#X connect 26 0 27 0;
#X connect 26 1 25 0;
#X connect 27 0 34 0;
#X connect 28 0 27 0;
#X connect 28 1 29 0;
#X connect 29 0 31 0;
#X connect 30 0 24 0;
#X connect 31 0 27 0;
#X connect 31 1 32 0;
#X connect 32 0 27 0;
#X connect 33 0 25 1;
#X connect 33 1 29 1;
#X connect 33 2 32 1;
#X connect 34 0 58 0;
#X connect 35 0 36 0;
#X connect 36 0 34 1;
#X connect 37 0 46 0;
#X connect 38 0 49 0;
#X connect 39 0 42 0;
#X connect 40 0 41 0;
#X connect 40 1 39 0;
#X connect 41 0 50 0;
#X connect 42 0 41 0;
#X connect 42 1 43 0;
#X connect 43 0 44 0;
#X connect 44 0 41 0;
#X connect 44 1 45 0;
#X connect 45 0 47 0;
#X connect 46 0 38 0;
#X connect 47 0 41 0;
#X connect 47 1 48 0;
#X connect 48 0 41 0;
#X connect 49 0 39 1;
#X connect 49 1 43 1;
#X connect 49 2 45 1;
#X connect 49 3 48 1;
#X connect 50 0 58 0;
#X connect 51 0 52 0;
#X connect 52 0 50 1;
#X connect 53 0 4 0;
#X connect 54 0 9 0;
#X connect 55 0 26 0;
#X connect 56 0 40 0;
#X connect 57 0 17 0;
#X restore 248 264 pd ratcheting-step9;
#N canvas 0 22 1155 725 ratcheting-step10 0;
#X obj 179 151 r \$0-tempo;
#X floatatom 179 195 5 0 0 0 - - -, f 5;
#X obj 179 173 / 2;
#X obj 152 219 delay;
#X obj 125 196 t b b;
#X obj 125 279 bng 15 250 50 0 empty empty empty 17 7 0 10 -262144
-1 -1;
#X obj 338 82 r \$0-tempo;
#X floatatom 338 126 5 0 0 0 - - -, f 5;
#X obj 311 178 delay;
#X obj 284 155 t b b;
#X obj 283 282 bng 15 250 50 0 empty empty empty 17 7 0 10 -262144
-1 -1;
#X obj 311 200 t b b;
#X obj 338 236 delay;
#X obj 338 149 t f f;
#X obj 338 104 / 3;
#X obj 125 322 spigot;
#X obj 283 302 spigot;
#X floatatom 924 377 5 0 0 0 - - -, f 5;
#X obj 924 396 t f f f f;
#X obj 924 418 == 1;
#X floatatom 924 440 5 0 0 0 - - -, f 5;
#X obj 964 434 == 2;
#X floatatom 964 456 5 0 0 0 - - -, f 5;
#X obj 483 49 r \$0-tempo;
#X floatatom 483 93 5 0 0 0 - - -, f 5;
#X obj 456 145 delay;
#X obj 429 122 t b b;
#X obj 428 263 bng 15 250 50 0 empty empty empty 17 7 0 10 -262144
-1 -1;
#X obj 456 167 t b b;
#X obj 483 203 delay;
#X obj 483 71 / 4;
#X obj 483 225 t b b;
#X obj 510 258 delay;
#X obj 483 116 t f f f;
#X obj 428 283 spigot;
#X obj 1009 457 == 3;
#X floatatom 1009 479 5 0 0 0 - - -, f 5;
#X obj 840 32 r \$0-tempo;
#X floatatom 840 76 5 0 0 0 - - -, f 5;
#X obj 813 128 delay;
#X obj 786 105 t b b;
#X obj 788 317 bng 15 250 50 0 empty empty empty 17 7 0 10 -262144
-1 -1;
#X obj 813 150 t b b;
#X obj 841 186 delay;
#X obj 841 208 t b b;
#X obj 868 241 delay;
#X obj 840 54 / 5;
#X obj 868 263 t b b;
#X obj 899 294 delay;
#X obj 840 99 t f f f f;
#X obj 788 337 spigot;
#X obj 1052 463 == 4;
#X obj 125 174 r \$0-s10!;
#X obj 284 129 r \$0-s10!;
#X obj 429 96 r \$0-s10!;
#X obj 786 79 r \$0-s10!;
#X obj 924 355 r \$0-s10-ratchet-gui-s;
#X obj 127 528 s \$0-ratcheting-10;
#X connect 0 0 2 0;
#X connect 1 0 3 1;
#X connect 2 0 1 0;
#X connect 3 0 5 0;
#X connect 4 0 5 0;
#X connect 4 1 3 0;
#X connect 5 0 15 0;
#X connect 6 0 14 0;
#X connect 7 0 13 0;
#X connect 8 0 11 0;
#X connect 9 0 10 0;
#X connect 9 1 8 0;
#X connect 10 0 16 0;
#X connect 11 0 10 0;
#X connect 11 1 12 0;
#X connect 12 0 10 0;
#X connect 13 0 8 1;
#X connect 13 1 12 1;
#X connect 14 0 7 0;
#X connect 15 0 57 0;
#X connect 16 0 57 0;
#X connect 17 0 18 0;
#X connect 18 0 19 0;
#X connect 18 1 21 0;
#X connect 18 2 35 0;
#X connect 18 3 51 0;
#X connect 19 0 20 0;
#X connect 20 0 15 1;
#X connect 21 0 22 0;
#X connect 22 0 16 1;
#X connect 23 0 30 0;
#X connect 24 0 33 0;
#X connect 25 0 28 0;
#X connect 26 0 27 0;
#X connect 26 1 25 0;
#X connect 27 0 34 0;
#X connect 28 0 27 0;
#X connect 28 1 29 0;
#X connect 29 0 31 0;
#X connect 30 0 24 0;
#X connect 31 0 27 0;
#X connect 31 1 32 0;
#X connect 32 0 27 0;
#X connect 33 0 25 1;
#X connect 33 1 29 1;
#X connect 33 2 32 1;
#X connect 34 0 57 0;
#X connect 35 0 36 0;
#X connect 36 0 34 1;
#X connect 37 0 46 0;
#X connect 38 0 49 0;
#X connect 39 0 42 0;
#X connect 40 0 41 0;
#X connect 40 1 39 0;
#X connect 41 0 50 0;
#X connect 42 0 41 0;
#X connect 42 1 43 0;
#X connect 43 0 44 0;
#X connect 44 0 41 0;
#X connect 44 1 45 0;
#X connect 45 0 47 0;
#X connect 46 0 38 0;
#X connect 47 0 41 0;
#X connect 47 1 48 0;
#X connect 48 0 41 0;
#X connect 49 0 39 1;
#X connect 49 1 43 1;
#X connect 49 2 45 1;
#X connect 49 3 48 1;
#X connect 50 0 57 0;
#X connect 51 0 50 1;
#X connect 52 0 4 0;
#X connect 53 0 9 0;
#X connect 54 0 26 0;
#X connect 55 0 40 0;
#X connect 56 0 17 0;
#X restore 248 290 pd ratcheting-step10;
#N canvas 0 22 1155 725 ratcheting-step11 0;
#X obj 179 151 r \$0-tempo;
#X floatatom 179 195 5 0 0 0 - - -, f 5;
#X obj 179 173 / 2;
#X obj 152 219 delay;
#X obj 125 196 t b b;
#X obj 125 279 bng 15 250 50 0 empty empty empty 17 7 0 10 -262144
-1 -1;
#X obj 338 82 r \$0-tempo;
#X floatatom 338 126 5 0 0 0 - - -, f 5;
#X obj 310 178 delay;
#X obj 283 155 t b b;
#X obj 283 282 bng 15 250 50 0 empty empty empty 17 7 0 10 -262144
-1 -1;
#X obj 310 200 t b b;
#X obj 338 236 delay;
#X obj 338 149 t f f;
#X obj 338 104 / 3;
#X obj 125 582 spigot;
#X obj 283 582 spigot;
#X floatatom 883 439 5 0 0 0 - - -, f 5;
#X obj 883 458 t f f f f;
#X obj 883 497 == 1;
#X floatatom 883 519 5 0 0 0 - - -, f 5;
#X obj 923 523 == 2;
#X floatatom 923 545 5 0 0 0 - - -, f 5;
#X obj 482 49 r \$0-tempo;
#X floatatom 482 93 5 0 0 0 - - -, f 5;
#X obj 455 145 delay;
#X obj 428 122 t b b;
#X obj 428 275 bng 15 250 50 0 empty empty empty 17 7 0 10 -262144
-1 -1;
#X obj 455 167 t b b;
#X obj 483 203 delay;
#X obj 482 71 / 4;
#X obj 483 225 t b b;
#X obj 510 258 delay;
#X obj 482 116 t f f f;
#X obj 428 582 spigot;
#X obj 970 547 == 3;
#X floatatom 970 569 5 0 0 0 - - -, f 5;
#X obj 784 65 r \$0-tempo;
#X floatatom 784 109 5 0 0 0 - - -, f 5;
#X obj 757 161 delay;
#X obj 730 138 t b b;
#X obj 732 350 bng 15 250 50 0 empty empty empty 17 7 0 10 -262144
-1 -1;
#X obj 757 183 t b b;
#X obj 785 219 delay;
#X obj 785 241 t b b;
#X obj 812 274 delay;
#X obj 784 87 / 5;
#X obj 812 296 t b b;
#X obj 843 327 delay;
#X obj 784 132 t f f f f;
#X obj 519 587 spigot;
#X obj 1017 565 == 4;
#X floatatom 1017 587 5 0 0 0 - - -, f 5;
#X obj 125 174 r \$0-s11!;
#X obj 283 129 r \$0-s11!;
#X obj 428 96 r \$0-s11!;
#X obj 730 112 r \$0-s11!;
#X obj 883 417 r \$0-s11-ratchet-gui-s;
#X obj 127 691 s \$0-ratcheting-11;
#X connect 0 0 2 0;
#X connect 1 0 3 1;
#X connect 2 0 1 0;
#X connect 3 0 5 0;
#X connect 4 0 5 0;
#X connect 4 1 3 0;
#X connect 5 0 15 0;
#X connect 6 0 14 0;
#X connect 7 0 13 0;
#X connect 8 0 11 0;
#X connect 9 0 10 0;
#X connect 9 1 8 0;
#X connect 10 0 16 0;
#X connect 11 0 10 0;
#X connect 11 1 12 0;
#X connect 12 0 10 0;
#X connect 13 0 8 1;
#X connect 13 1 12 1;
#X connect 14 0 7 0;
#X connect 15 0 58 0;
#X connect 16 0 58 0;
#X connect 17 0 18 0;
#X connect 18 0 19 0;
#X connect 18 1 21 0;
#X connect 18 2 35 0;
#X connect 18 3 51 0;
#X connect 19 0 20 0;
#X connect 20 0 15 1;
#X connect 21 0 22 0;
#X connect 22 0 16 1;
#X connect 23 0 30 0;
#X connect 24 0 33 0;
#X connect 25 0 28 0;
#X connect 26 0 27 0;
#X connect 26 1 25 0;
#X connect 27 0 34 0;
#X connect 28 0 27 0;
#X connect 28 1 29 0;
#X connect 29 0 31 0;
#X connect 30 0 24 0;
#X connect 31 0 27 0;
#X connect 31 1 32 0;
#X connect 32 0 27 0;
#X connect 33 0 25 1;
#X connect 33 1 29 1;
#X connect 33 2 32 1;
#X connect 34 0 58 0;
#X connect 35 0 36 0;
#X connect 36 0 34 1;
#X connect 37 0 46 0;
#X connect 38 0 49 0;
#X connect 39 0 42 0;
#X connect 40 0 41 0;
#X connect 40 1 39 0;
#X connect 41 0 50 0;
#X connect 42 0 41 0;
#X connect 42 1 43 0;
#X connect 43 0 44 0;
#X connect 44 0 41 0;
#X connect 44 1 45 0;
#X connect 45 0 47 0;
#X connect 46 0 38 0;
#X connect 47 0 41 0;
#X connect 47 1 48 0;
#X connect 48 0 41 0;
#X connect 49 0 39 1;
#X connect 49 1 43 1;
#X connect 49 2 45 1;
#X connect 49 3 48 1;
#X connect 50 0 58 0;
#X connect 51 0 52 0;
#X connect 52 0 50 1;
#X connect 53 0 4 0;
#X connect 54 0 9 0;
#X connect 55 0 26 0;
#X connect 56 0 40 0;
#X connect 57 0 17 0;
#X restore 248 318 pd ratcheting-step11;
#N canvas 0 22 1155 725 ratcheting-step12 0;
#X obj 179 151 r \$0-tempo;
#X floatatom 179 195 5 0 0 0 - - -, f 5;
#X obj 179 173 / 2;
#X obj 152 219 delay;
#X obj 125 196 t b b;
#X obj 125 279 bng 15 250 50 0 empty empty empty 17 7 0 10 -262144
-1 -1;
#X obj 338 82 r \$0-tempo;
#X floatatom 338 126 5 0 0 0 - - -, f 5;
#X obj 311 178 delay;
#X obj 284 155 t b b;
#X obj 283 282 bng 15 250 50 0 empty empty empty 17 7 0 10 -262144
-1 -1;
#X obj 311 200 t b b;
#X obj 338 236 delay;
#X obj 338 149 t f f;
#X obj 338 104 / 3;
#X obj 125 322 spigot;
#X obj 283 302 spigot;
#X floatatom 924 377 5 0 0 0 - - -, f 5;
#X obj 924 396 t f f f f;
#X obj 924 418 == 1;
#X floatatom 924 440 5 0 0 0 - - -, f 5;
#X obj 964 434 == 2;
#X floatatom 964 456 5 0 0 0 - - -, f 5;
#X obj 483 49 r \$0-tempo;
#X floatatom 483 93 5 0 0 0 - - -, f 5;
#X obj 456 145 delay;
#X obj 429 122 t b b;
#X obj 428 263 bng 15 250 50 0 empty empty empty 17 7 0 10 -262144
-1 -1;
#X obj 456 167 t b b;
#X obj 483 203 delay;
#X obj 483 71 / 4;
#X obj 483 225 t b b;
#X obj 510 258 delay;
#X obj 483 116 t f f f;
#X obj 428 283 spigot;
#X obj 1009 457 == 3;
#X floatatom 1009 479 5 0 0 0 - - -, f 5;
#X obj 840 32 r \$0-tempo;
#X floatatom 840 76 5 0 0 0 - - -, f 5;
#X obj 813 128 delay;
#X obj 786 105 t b b;
#X obj 788 317 bng 15 250 50 0 empty empty empty 17 7 0 10 -262144
-1 -1;
#X obj 813 150 t b b;
#X obj 841 186 delay;
#X obj 841 208 t b b;
#X obj 868 241 delay;
#X obj 840 54 / 5;
#X obj 868 263 t b b;
#X obj 899 294 delay;
#X obj 840 99 t f f f f;
#X obj 788 337 spigot;
#X obj 1052 463 == 4;
#X obj 125 174 r \$0-s12!;
#X obj 284 129 r \$0-s12!;
#X obj 429 96 r \$0-s12!;
#X obj 786 79 r \$0-s12!;
#X obj 924 355 r \$0-s12-ratchet-gui-s;
#X obj 127 528 s \$0-ratcheting-12;
#X connect 0 0 2 0;
#X connect 1 0 3 1;
#X connect 2 0 1 0;
#X connect 3 0 5 0;
#X connect 4 0 5 0;
#X connect 4 1 3 0;
#X connect 5 0 15 0;
#X connect 6 0 14 0;
#X connect 7 0 13 0;
#X connect 8 0 11 0;
#X connect 9 0 10 0;
#X connect 9 1 8 0;
#X connect 10 0 16 0;
#X connect 11 0 10 0;
#X connect 11 1 12 0;
#X connect 12 0 10 0;
#X connect 13 0 8 1;
#X connect 13 1 12 1;
#X connect 14 0 7 0;
#X connect 15 0 57 0;
#X connect 16 0 57 0;
#X connect 17 0 18 0;
#X connect 18 0 19 0;
#X connect 18 1 21 0;
#X connect 18 2 35 0;
#X connect 18 3 51 0;
#X connect 19 0 20 0;
#X connect 20 0 15 1;
#X connect 21 0 22 0;
#X connect 22 0 16 1;
#X connect 23 0 30 0;
#X connect 24 0 33 0;
#X connect 25 0 28 0;
#X connect 26 0 27 0;
#X connect 26 1 25 0;
#X connect 27 0 34 0;
#X connect 28 0 27 0;
#X connect 28 1 29 0;
#X connect 29 0 31 0;
#X connect 30 0 24 0;
#X connect 31 0 27 0;
#X connect 31 1 32 0;
#X connect 32 0 27 0;
#X connect 33 0 25 1;
#X connect 33 1 29 1;
#X connect 33 2 32 1;
#X connect 34 0 57 0;
#X connect 35 0 36 0;
#X connect 36 0 34 1;
#X connect 37 0 46 0;
#X connect 38 0 49 0;
#X connect 39 0 42 0;
#X connect 40 0 41 0;
#X connect 40 1 39 0;
#X connect 41 0 50 0;
#X connect 42 0 41 0;
#X connect 42 1 43 0;
#X connect 43 0 44 0;
#X connect 44 0 41 0;
#X connect 44 1 45 0;
#X connect 45 0 47 0;
#X connect 46 0 38 0;
#X connect 47 0 41 0;
#X connect 47 1 48 0;
#X connect 48 0 41 0;
#X connect 49 0 39 1;
#X connect 49 1 43 1;
#X connect 49 2 45 1;
#X connect 49 3 48 1;
#X connect 50 0 57 0;
#X connect 51 0 50 1;
#X connect 52 0 4 0;
#X connect 53 0 9 0;
#X connect 54 0 26 0;
#X connect 55 0 40 0;
#X connect 56 0 17 0;
#X restore 248 344 pd ratcheting-step12;
#N canvas 0 22 1155 725 ratcheting-step13 0;
#X obj 179 151 r \$0-tempo;
#X floatatom 179 195 5 0 0 0 - - -, f 5;
#X obj 179 173 / 2;
#X obj 152 219 delay;
#X obj 125 196 t b b;
#X obj 125 279 bng 15 250 50 0 empty empty empty 17 7 0 10 -262144
-1 -1;
#X obj 338 82 r \$0-tempo;
#X floatatom 338 126 5 0 0 0 - - -, f 5;
#X obj 310 178 delay;
#X obj 283 155 t b b;
#X obj 283 282 bng 15 250 50 0 empty empty empty 17 7 0 10 -262144
-1 -1;
#X obj 310 200 t b b;
#X obj 338 236 delay;
#X obj 338 149 t f f;
#X obj 338 104 / 3;
#X obj 125 582 spigot;
#X obj 283 582 spigot;
#X floatatom 883 439 5 0 0 0 - - -, f 5;
#X obj 883 458 t f f f f;
#X obj 883 497 == 1;
#X floatatom 883 519 5 0 0 0 - - -, f 5;
#X obj 923 523 == 2;
#X floatatom 923 545 5 0 0 0 - - -, f 5;
#X obj 482 49 r \$0-tempo;
#X floatatom 482 93 5 0 0 0 - - -, f 5;
#X obj 455 145 delay;
#X obj 428 122 t b b;
#X obj 428 275 bng 15 250 50 0 empty empty empty 17 7 0 10 -262144
-1 -1;
#X obj 455 167 t b b;
#X obj 483 203 delay;
#X obj 482 71 / 4;
#X obj 483 225 t b b;
#X obj 510 258 delay;
#X obj 482 116 t f f f;
#X obj 428 582 spigot;
#X obj 970 547 == 3;
#X floatatom 970 569 5 0 0 0 - - -, f 5;
#X obj 784 65 r \$0-tempo;
#X floatatom 784 109 5 0 0 0 - - -, f 5;
#X obj 757 161 delay;
#X obj 730 138 t b b;
#X obj 732 350 bng 15 250 50 0 empty empty empty 17 7 0 10 -262144
-1 -1;
#X obj 757 183 t b b;
#X obj 785 219 delay;
#X obj 785 241 t b b;
#X obj 812 274 delay;
#X obj 784 87 / 5;
#X obj 812 296 t b b;
#X obj 843 327 delay;
#X obj 784 132 t f f f f;
#X obj 519 587 spigot;
#X obj 1017 565 == 4;
#X floatatom 1017 587 5 0 0 0 - - -, f 5;
#X obj 125 174 r \$0-s13!;
#X obj 283 129 r \$0-s13!;
#X obj 428 96 r \$0-s13!;
#X obj 730 112 r \$0-s13!;
#X obj 883 417 r \$0-s13-ratchet-gui-s;
#X obj 127 690 s \$0-ratcheting-13;
#X connect 0 0 2 0;
#X connect 1 0 3 1;
#X connect 2 0 1 0;
#X connect 3 0 5 0;
#X connect 4 0 5 0;
#X connect 4 1 3 0;
#X connect 5 0 15 0;
#X connect 6 0 14 0;
#X connect 7 0 13 0;
#X connect 8 0 11 0;
#X connect 9 0 10 0;
#X connect 9 1 8 0;
#X connect 10 0 16 0;
#X connect 11 0 10 0;
#X connect 11 1 12 0;
#X connect 12 0 10 0;
#X connect 13 0 8 1;
#X connect 13 1 12 1;
#X connect 14 0 7 0;
#X connect 15 0 58 0;
#X connect 16 0 58 0;
#X connect 17 0 18 0;
#X connect 18 0 19 0;
#X connect 18 1 21 0;
#X connect 18 2 35 0;
#X connect 18 3 51 0;
#X connect 19 0 20 0;
#X connect 20 0 15 1;
#X connect 21 0 22 0;
#X connect 22 0 16 1;
#X connect 23 0 30 0;
#X connect 24 0 33 0;
#X connect 25 0 28 0;
#X connect 26 0 27 0;
#X connect 26 1 25 0;
#X connect 27 0 34 0;
#X connect 28 0 27 0;
#X connect 28 1 29 0;
#X connect 29 0 31 0;
#X connect 30 0 24 0;
#X connect 31 0 27 0;
#X connect 31 1 32 0;
#X connect 32 0 27 0;
#X connect 33 0 25 1;
#X connect 33 1 29 1;
#X connect 33 2 32 1;
#X connect 34 0 58 0;
#X connect 35 0 36 0;
#X connect 36 0 34 1;
#X connect 37 0 46 0;
#X connect 38 0 49 0;
#X connect 39 0 42 0;
#X connect 40 0 41 0;
#X connect 40 1 39 0;
#X connect 41 0 50 0;
#X connect 42 0 41 0;
#X connect 42 1 43 0;
#X connect 43 0 44 0;
#X connect 44 0 41 0;
#X connect 44 1 45 0;
#X connect 45 0 47 0;
#X connect 46 0 38 0;
#X connect 47 0 41 0;
#X connect 47 1 48 0;
#X connect 48 0 41 0;
#X connect 49 0 39 1;
#X connect 49 1 43 1;
#X connect 49 2 45 1;
#X connect 49 3 48 1;
#X connect 50 0 58 0;
#X connect 51 0 52 0;
#X connect 52 0 50 1;
#X connect 53 0 4 0;
#X connect 54 0 9 0;
#X connect 55 0 26 0;
#X connect 56 0 40 0;
#X connect 57 0 17 0;
#X restore 248 371 pd ratcheting-step13;
#N canvas 0 22 1155 725 ratcheting-step14 0;
#X obj 179 151 r \$0-tempo;
#X floatatom 179 195 5 0 0 0 - - -, f 5;
#X obj 179 173 / 2;
#X obj 152 219 delay;
#X obj 125 196 t b b;
#X obj 125 279 bng 15 250 50 0 empty empty empty 17 7 0 10 -262144
-1 -1;
#X obj 338 82 r \$0-tempo;
#X floatatom 338 126 5 0 0 0 - - -, f 5;
#X obj 311 178 delay;
#X obj 284 155 t b b;
#X obj 283 282 bng 15 250 50 0 empty empty empty 17 7 0 10 -262144
-1 -1;
#X obj 311 200 t b b;
#X obj 338 236 delay;
#X obj 338 149 t f f;
#X obj 338 104 / 3;
#X obj 125 322 spigot;
#X obj 283 302 spigot;
#X floatatom 924 377 5 0 0 0 - - -, f 5;
#X obj 924 396 t f f f f;
#X obj 924 418 == 1;
#X floatatom 924 440 5 0 0 0 - - -, f 5;
#X obj 964 434 == 2;
#X floatatom 964 456 5 0 0 0 - - -, f 5;
#X obj 483 49 r \$0-tempo;
#X floatatom 483 93 5 0 0 0 - - -, f 5;
#X obj 456 145 delay;
#X obj 429 122 t b b;
#X obj 428 263 bng 15 250 50 0 empty empty empty 17 7 0 10 -262144
-1 -1;
#X obj 456 167 t b b;
#X obj 483 203 delay;
#X obj 483 71 / 4;
#X obj 483 225 t b b;
#X obj 510 258 delay;
#X obj 483 116 t f f f;
#X obj 428 283 spigot;
#X obj 1009 457 == 3;
#X floatatom 1009 479 5 0 0 0 - - -, f 5;
#X obj 840 32 r \$0-tempo;
#X floatatom 840 76 5 0 0 0 - - -, f 5;
#X obj 813 128 delay;
#X obj 786 105 t b b;
#X obj 788 317 bng 15 250 50 0 empty empty empty 17 7 0 10 -262144
-1 -1;
#X obj 813 150 t b b;
#X obj 841 186 delay;
#X obj 841 208 t b b;
#X obj 868 241 delay;
#X obj 840 54 / 5;
#X obj 868 263 t b b;
#X obj 899 294 delay;
#X obj 840 99 t f f f f;
#X obj 788 337 spigot;
#X obj 1052 463 == 4;
#X obj 125 174 r \$0-s14!;
#X obj 284 129 r \$0-s14!;
#X obj 429 96 r \$0-s14!;
#X obj 786 79 r \$0-s14!;
#X obj 924 355 r \$0-s14-ratchet-gui-s;
#X obj 127 528 s \$0-ratcheting-14;
#X connect 0 0 2 0;
#X connect 1 0 3 1;
#X connect 2 0 1 0;
#X connect 3 0 5 0;
#X connect 4 0 5 0;
#X connect 4 1 3 0;
#X connect 5 0 15 0;
#X connect 6 0 14 0;
#X connect 7 0 13 0;
#X connect 8 0 11 0;
#X connect 9 0 10 0;
#X connect 9 1 8 0;
#X connect 10 0 16 0;
#X connect 11 0 10 0;
#X connect 11 1 12 0;
#X connect 12 0 10 0;
#X connect 13 0 8 1;
#X connect 13 1 12 1;
#X connect 14 0 7 0;
#X connect 15 0 57 0;
#X connect 16 0 57 0;
#X connect 17 0 18 0;
#X connect 18 0 19 0;
#X connect 18 1 21 0;
#X connect 18 2 35 0;
#X connect 18 3 51 0;
#X connect 19 0 20 0;
#X connect 20 0 15 1;
#X connect 21 0 22 0;
#X connect 22 0 16 1;
#X connect 23 0 30 0;
#X connect 24 0 33 0;
#X connect 25 0 28 0;
#X connect 26 0 27 0;
#X connect 26 1 25 0;
#X connect 27 0 34 0;
#X connect 28 0 27 0;
#X connect 28 1 29 0;
#X connect 29 0 31 0;
#X connect 30 0 24 0;
#X connect 31 0 27 0;
#X connect 31 1 32 0;
#X connect 32 0 27 0;
#X connect 33 0 25 1;
#X connect 33 1 29 1;
#X connect 33 2 32 1;
#X connect 34 0 57 0;
#X connect 35 0 36 0;
#X connect 36 0 34 1;
#X connect 37 0 46 0;
#X connect 38 0 49 0;
#X connect 39 0 42 0;
#X connect 40 0 41 0;
#X connect 40 1 39 0;
#X connect 41 0 50 0;
#X connect 42 0 41 0;
#X connect 42 1 43 0;
#X connect 43 0 44 0;
#X connect 44 0 41 0;
#X connect 44 1 45 0;
#X connect 45 0 47 0;
#X connect 46 0 38 0;
#X connect 47 0 41 0;
#X connect 47 1 48 0;
#X connect 48 0 41 0;
#X connect 49 0 39 1;
#X connect 49 1 43 1;
#X connect 49 2 45 1;
#X connect 49 3 48 1;
#X connect 50 0 57 0;
#X connect 51 0 50 1;
#X connect 52 0 4 0;
#X connect 53 0 9 0;
#X connect 54 0 26 0;
#X connect 55 0 40 0;
#X connect 56 0 17 0;
#X restore 248 401 pd ratcheting-step14;
#N canvas 0 22 1155 725 ratcheting-step15 0;
#X obj 179 151 r \$0-tempo;
#X floatatom 179 195 5 0 0 0 - - -, f 5;
#X obj 179 173 / 2;
#X obj 152 219 delay;
#X obj 125 196 t b b;
#X obj 125 279 bng 15 250 50 0 empty empty empty 17 7 0 10 -262144
-1 -1;
#X obj 338 82 r \$0-tempo;
#X floatatom 338 126 5 0 0 0 - - -, f 5;
#X obj 310 178 delay;
#X obj 283 155 t b b;
#X obj 283 282 bng 15 250 50 0 empty empty empty 17 7 0 10 -262144
-1 -1;
#X obj 310 200 t b b;
#X obj 338 236 delay;
#X obj 338 149 t f f;
#X obj 338 104 / 3;
#X obj 125 582 spigot;
#X obj 283 582 spigot;
#X floatatom 883 439 5 0 0 0 - - -, f 5;
#X obj 883 458 t f f f f;
#X obj 883 497 == 1;
#X floatatom 883 519 5 0 0 0 - - -, f 5;
#X obj 923 523 == 2;
#X floatatom 923 545 5 0 0 0 - - -, f 5;
#X obj 482 49 r \$0-tempo;
#X floatatom 482 93 5 0 0 0 - - -, f 5;
#X obj 455 145 delay;
#X obj 428 122 t b b;
#X obj 428 275 bng 15 250 50 0 empty empty empty 17 7 0 10 -262144
-1 -1;
#X obj 455 167 t b b;
#X obj 483 203 delay;
#X obj 482 71 / 4;
#X obj 483 225 t b b;
#X obj 510 258 delay;
#X obj 482 116 t f f f;
#X obj 428 582 spigot;
#X obj 970 547 == 3;
#X floatatom 970 569 5 0 0 0 - - -, f 5;
#X obj 784 65 r \$0-tempo;
#X floatatom 784 109 5 0 0 0 - - -, f 5;
#X obj 757 161 delay;
#X obj 730 138 t b b;
#X obj 732 350 bng 15 250 50 0 empty empty empty 17 7 0 10 -262144
-1 -1;
#X obj 757 183 t b b;
#X obj 785 219 delay;
#X obj 785 241 t b b;
#X obj 812 274 delay;
#X obj 784 87 / 5;
#X obj 812 296 t b b;
#X obj 843 327 delay;
#X obj 784 132 t f f f f;
#X obj 519 587 spigot;
#X obj 1017 565 == 4;
#X floatatom 1017 587 5 0 0 0 - - -, f 5;
#X obj 125 174 r \$0-s15!;
#X obj 284 129 r \$0-s15!;
#X obj 428 96 r \$0-s15!;
#X obj 730 112 r \$0-s15!;
#X obj 883 417 r \$0-s15-ratchet-gui-s;
#X obj 127 691 s \$0-ratcheting-15;
#X connect 0 0 2 0;
#X connect 1 0 3 1;
#X connect 2 0 1 0;
#X connect 3 0 5 0;
#X connect 4 0 5 0;
#X connect 4 1 3 0;
#X connect 5 0 15 0;
#X connect 6 0 14 0;
#X connect 7 0 13 0;
#X connect 8 0 11 0;
#X connect 9 0 10 0;
#X connect 9 1 8 0;
#X connect 10 0 16 0;
#X connect 11 0 10 0;
#X connect 11 1 12 0;
#X connect 12 0 10 0;
#X connect 13 0 8 1;
#X connect 13 1 12 1;
#X connect 14 0 7 0;
#X connect 15 0 58 0;
#X connect 16 0 58 0;
#X connect 17 0 18 0;
#X connect 18 0 19 0;
#X connect 18 1 21 0;
#X connect 18 2 35 0;
#X connect 18 3 51 0;
#X connect 19 0 20 0;
#X connect 20 0 15 1;
#X connect 21 0 22 0;
#X connect 22 0 16 1;
#X connect 23 0 30 0;
#X connect 24 0 33 0;
#X connect 25 0 28 0;
#X connect 26 0 27 0;
#X connect 26 1 25 0;
#X connect 27 0 34 0;
#X connect 28 0 27 0;
#X connect 28 1 29 0;
#X connect 29 0 31 0;
#X connect 30 0 24 0;
#X connect 31 0 27 0;
#X connect 31 1 32 0;
#X connect 32 0 27 0;
#X connect 33 0 25 1;
#X connect 33 1 29 1;
#X connect 33 2 32 1;
#X connect 34 0 58 0;
#X connect 35 0 36 0;
#X connect 36 0 34 1;
#X connect 37 0 46 0;
#X connect 38 0 49 0;
#X connect 39 0 42 0;
#X connect 40 0 41 0;
#X connect 40 1 39 0;
#X connect 41 0 50 0;
#X connect 42 0 41 0;
#X connect 42 1 43 0;
#X connect 43 0 44 0;
#X connect 44 0 41 0;
#X connect 44 1 45 0;
#X connect 45 0 47 0;
#X connect 46 0 38 0;
#X connect 47 0 41 0;
#X connect 47 1 48 0;
#X connect 48 0 41 0;
#X connect 49 0 39 1;
#X connect 49 1 43 1;
#X connect 49 2 45 1;
#X connect 49 3 48 1;
#X connect 50 0 58 0;
#X connect 51 0 52 0;
#X connect 52 0 50 1;
#X connect 53 0 4 0;
#X connect 54 0 9 0;
#X connect 55 0 26 0;
#X connect 56 0 40 0;
#X connect 57 0 17 0;
#X restore 248 429 pd ratcheting-step15;
#N canvas 0 22 1155 725 ratcheting-step16 0;
#X obj 179 151 r \$0-tempo;
#X floatatom 179 195 5 0 0 0 - - -, f 5;
#X obj 179 173 / 2;
#X obj 152 219 delay;
#X obj 125 196 t b b;
#X obj 125 279 bng 15 250 50 0 empty empty empty 17 7 0 10 -262144
-1 -1;
#X obj 338 82 r \$0-tempo;
#X floatatom 338 126 5 0 0 0 - - -, f 5;
#X obj 311 178 delay;
#X obj 284 155 t b b;
#X obj 283 282 bng 15 250 50 0 empty empty empty 17 7 0 10 -262144
-1 -1;
#X obj 311 200 t b b;
#X obj 338 236 delay;
#X obj 338 149 t f f;
#X obj 338 104 / 3;
#X obj 125 322 spigot;
#X obj 283 302 spigot;
#X floatatom 924 377 5 0 0 0 - - -, f 5;
#X obj 924 396 t f f f f;
#X obj 924 418 == 1;
#X floatatom 924 440 5 0 0 0 - - -, f 5;
#X obj 964 434 == 2;
#X floatatom 964 456 5 0 0 0 - - -, f 5;
#X obj 483 49 r \$0-tempo;
#X floatatom 483 93 5 0 0 0 - - -, f 5;
#X obj 456 145 delay;
#X obj 429 122 t b b;
#X obj 428 263 bng 15 250 50 0 empty empty empty 17 7 0 10 -262144
-1 -1;
#X obj 456 167 t b b;
#X obj 483 203 delay;
#X obj 483 71 / 4;
#X obj 483 225 t b b;
#X obj 510 258 delay;
#X obj 483 116 t f f f;
#X obj 428 283 spigot;
#X obj 1009 457 == 3;
#X floatatom 1009 479 5 0 0 0 - - -, f 5;
#X obj 840 32 r \$0-tempo;
#X floatatom 840 76 5 0 0 0 - - -, f 5;
#X obj 813 128 delay;
#X obj 786 105 t b b;
#X obj 788 317 bng 15 250 50 0 empty empty empty 17 7 0 10 -262144
-1 -1;
#X obj 813 150 t b b;
#X obj 841 186 delay;
#X obj 841 208 t b b;
#X obj 868 241 delay;
#X obj 840 54 / 5;
#X obj 868 263 t b b;
#X obj 899 294 delay;
#X obj 840 99 t f f f f;
#X obj 788 337 spigot;
#X obj 1052 463 == 4;
#X obj 125 174 r \$0-s16!;
#X obj 284 129 r \$0-s16!;
#X obj 429 96 r \$0-s16!;
#X obj 786 79 r \$0-s16!;
#X obj 924 355 r \$0-s16-ratchet-gui-s;
#X obj 127 528 s \$0-ratcheting-16;
#X connect 0 0 2 0;
#X connect 1 0 3 1;
#X connect 2 0 1 0;
#X connect 3 0 5 0;
#X connect 4 0 5 0;
#X connect 4 1 3 0;
#X connect 5 0 15 0;
#X connect 6 0 14 0;
#X connect 7 0 13 0;
#X connect 8 0 11 0;
#X connect 9 0 10 0;
#X connect 9 1 8 0;
#X connect 10 0 16 0;
#X connect 11 0 10 0;
#X connect 11 1 12 0;
#X connect 12 0 10 0;
#X connect 13 0 8 1;
#X connect 13 1 12 1;
#X connect 14 0 7 0;
#X connect 15 0 57 0;
#X connect 16 0 57 0;
#X connect 17 0 18 0;
#X connect 18 0 19 0;
#X connect 18 1 21 0;
#X connect 18 2 35 0;
#X connect 18 3 51 0;
#X connect 19 0 20 0;
#X connect 20 0 15 1;
#X connect 21 0 22 0;
#X connect 22 0 16 1;
#X connect 23 0 30 0;
#X connect 24 0 33 0;
#X connect 25 0 28 0;
#X connect 26 0 27 0;
#X connect 26 1 25 0;
#X connect 27 0 34 0;
#X connect 28 0 27 0;
#X connect 28 1 29 0;
#X connect 29 0 31 0;
#X connect 30 0 24 0;
#X connect 31 0 27 0;
#X connect 31 1 32 0;
#X connect 32 0 27 0;
#X connect 33 0 25 1;
#X connect 33 1 29 1;
#X connect 33 2 32 1;
#X connect 34 0 57 0;
#X connect 35 0 36 0;
#X connect 36 0 34 1;
#X connect 37 0 46 0;
#X connect 38 0 49 0;
#X connect 39 0 42 0;
#X connect 40 0 41 0;
#X connect 40 1 39 0;
#X connect 41 0 50 0;
#X connect 42 0 41 0;
#X connect 42 1 43 0;
#X connect 43 0 44 0;
#X connect 44 0 41 0;
#X connect 44 1 45 0;
#X connect 45 0 47 0;
#X connect 46 0 38 0;
#X connect 47 0 41 0;
#X connect 47 1 48 0;
#X connect 48 0 41 0;
#X connect 49 0 39 1;
#X connect 49 1 43 1;
#X connect 49 2 45 1;
#X connect 49 3 48 1;
#X connect 50 0 57 0;
#X connect 51 0 50 1;
#X connect 52 0 4 0;
#X connect 53 0 9 0;
#X connect 54 0 26 0;
#X connect 55 0 40 0;
#X connect 56 0 17 0;
#X restore 248 455 pd ratcheting-step16;
#X obj 643 -14 inlet~ TRIG;
#X obj 643 8 threshold~ 0.9 0 0.9 0;
#X msg 643 30 bang;
#X obj 377 192 hradio 15 1 1 4 \$0-ratchet-load-s \$0-ratchet-load-r
LOAD 0 25 0 10 -262144 -1 -1 0;
#X obj 377 177 hradio 15 1 0 4 \$0-ratchet-store-s \$0-ratchet-store-r
STORE 0 -8 0 10 -262144 -1 -1 0;
#X obj 474 108 cnv 5 5 5 empty empty RESET 0 0 0 8 -262144 -226533
0;
#X obj 477 114 bng 15 100 50 0 empty empty empty 17 7 0 10 -262144
-226533 -1;
#X obj 227 108 cnv 5 5 5 empty empty RDM! 0 0 0 8 -262144 -226533 0
;
#X obj 107 114 bng 15 100 50 0 empty empty empty 17 7 0 10 -262144
-226533 -1;
#X obj 342 108 cnv 5 5 5 empty empty LOAD(1-4) 0 0 0 8 -262144 -226533
0;
#X obj 355 114 bng 15 100 50 0 empty empty empty 17 7 0 10 -262144
-226533 -1;
#X obj 105 108 cnv 5 5 5 empty empty TRIG 0 0 0 8 -262144 -226533 0
;
#X obj 132 124 cnv 5 5 5 empty empty RATCHET-SEQ 0 0 0 12 -262144 -66577
0;
#X obj 214 124 cnv 5 5 5 empty \$0-instance-num 2 0 0 0 12 -262144
-66577 0;
#X obj 378 132 bng 15 250 50 0 \$0-ratchet-random-s! \$0-ratchet-random-r!
RANDOM! 17 7 0 10 -262144 -1 -1;
#N canvas 1 97 708 480 randomize-all-multiplication-radios 0;
#X obj 13 13 r \$0-ratchet-random-s!;
#X floatatom 13 60 5 0 0 0 - - -, f 5;
#X obj 13 38 random 5;
#X obj 13 79 s \$0-s1-ratchet-gui-r;
#X obj 161 14 r \$0-ratchet-random-s!;
#X floatatom 161 61 5 0 0 0 - - -, f 5;
#X obj 161 39 random 5;
#X obj 161 80 s \$0-s2-ratchet-gui-r;
#X obj 309 12 r \$0-ratchet-random-s!;
#X floatatom 309 59 5 0 0 0 - - -, f 5;
#X obj 309 37 random 5;
#X obj 457 13 r \$0-ratchet-random-s!;
#X floatatom 457 60 5 0 0 0 - - -, f 5;
#X obj 457 38 random 5;
#X obj 309 78 s \$0-s3-ratchet-gui-r;
#X obj 457 79 s \$0-s4-ratchet-gui-r;
#X obj 10 111 r \$0-ratchet-random-s!;
#X floatatom 10 158 5 0 0 0 - - -, f 5;
#X obj 10 136 random 5;
#X obj 158 112 r \$0-ratchet-random-s!;
#X floatatom 158 159 5 0 0 0 - - -, f 5;
#X obj 158 137 random 5;
#X obj 306 110 r \$0-ratchet-random-s!;
#X floatatom 306 157 5 0 0 0 - - -, f 5;
#X obj 306 135 random 5;
#X obj 454 111 r \$0-ratchet-random-s!;
#X floatatom 454 158 5 0 0 0 - - -, f 5;
#X obj 454 136 random 5;
#X obj 10 177 s \$0-s5-ratchet-gui-r;
#X obj 158 178 s \$0-s6-ratchet-gui-r;
#X obj 306 176 s \$0-s7-ratchet-gui-r;
#X obj 454 177 s \$0-s8-ratchet-gui-r;
#X obj 13 205 r \$0-ratchet-random-s!;
#X floatatom 13 252 5 0 0 0 - - -, f 5;
#X obj 13 230 random 5;
#X obj 161 206 r \$0-ratchet-random-s!;
#X floatatom 161 253 5 0 0 0 - - -, f 5;
#X obj 161 231 random 5;
#X obj 309 204 r \$0-ratchet-random-s!;
#X floatatom 309 251 5 0 0 0 - - -, f 5;
#X obj 309 229 random 5;
#X obj 457 205 r \$0-ratchet-random-s!;
#X floatatom 457 252 5 0 0 0 - - -, f 5;
#X obj 457 230 random 5;
#X obj 10 303 r \$0-ratchet-random-s!;
#X floatatom 10 350 5 0 0 0 - - -, f 5;
#X obj 10 328 random 5;
#X obj 158 304 r \$0-ratchet-random-s!;
#X floatatom 158 351 5 0 0 0 - - -, f 5;
#X obj 158 329 random 5;
#X obj 306 302 r \$0-ratchet-random-s!;
#X floatatom 306 349 5 0 0 0 - - -, f 5;
#X obj 306 327 random 5;
#X obj 454 303 r \$0-ratchet-random-s!;
#X floatatom 454 350 5 0 0 0 - - -, f 5;
#X obj 454 328 random 5;
#X obj 13 271 s \$0-s9-ratchet-gui-r;
#X obj 161 272 s \$0-s10-ratchet-gui-r;
#X obj 309 270 s \$0-s11-ratchet-gui-r;
#X obj 457 270 s \$0-s12-ratchet-gui-r;
#X obj 10 369 s \$0-s13-ratchet-gui-r;
#X obj 158 370 s \$0-s14-ratchet-gui-r;
#X obj 306 368 s \$0-s15-ratchet-gui-r;
#X obj 454 369 s \$0-s16-ratchet-gui-r;
#X connect 0 0 2 0;
#X connect 1 0 3 0;
#X connect 2 0 1 0;
#X connect 4 0 6 0;
#X connect 5 0 7 0;
#X connect 6 0 5 0;
#X connect 8 0 10 0;
#X connect 9 0 14 0;
#X connect 10 0 9 0;
#X connect 11 0 13 0;
#X connect 12 0 15 0;
#X connect 13 0 12 0;
#X connect 16 0 18 0;
#X connect 17 0 28 0;
#X connect 18 0 17 0;
#X connect 19 0 21 0;
#X connect 20 0 29 0;
#X connect 21 0 20 0;
#X connect 22 0 24 0;
#X connect 23 0 30 0;
#X connect 24 0 23 0;
#X connect 25 0 27 0;
#X connect 26 0 31 0;
#X connect 27 0 26 0;
#X connect 32 0 34 0;
#X connect 33 0 56 0;
#X connect 34 0 33 0;
#X connect 35 0 37 0;
#X connect 36 0 57 0;
#X connect 37 0 36 0;
#X connect 38 0 40 0;
#X connect 39 0 58 0;
#X connect 40 0 39 0;
#X connect 41 0 43 0;
#X connect 42 0 59 0;
#X connect 43 0 42 0;
#X connect 44 0 46 0;
#X connect 45 0 60 0;
#X connect 46 0 45 0;
#X connect 47 0 49 0;
#X connect 48 0 61 0;
#X connect 49 0 48 0;
#X connect 50 0 52 0;
#X connect 51 0 62 0;
#X connect 52 0 51 0;
#X connect 53 0 55 0;
#X connect 54 0 63 0;
#X connect 55 0 54 0;
#X restore 887 154 pd randomize-all-multiplication-radios;
#N canvas 0 22 750 435 randomize-all-toggles 0;
#X obj 14 15 r \$0-ratchet-random-s!;
#X obj 14 37 random 2;
#X floatatom 14 59 5 0 0 0 - - -, f 5;
#X obj 14 78 s \$0-t1-r;
#X obj 157 13 r \$0-ratchet-random-s!;
#X obj 157 35 random 2;
#X floatatom 157 57 5 0 0 0 - - -, f 5;
#X obj 157 76 s \$0-t2-r;
#X obj 301 11 r \$0-ratchet-random-s!;
#X obj 301 33 random 2;
#X floatatom 301 55 5 0 0 0 - - -, f 5;
#X obj 444 9 r \$0-ratchet-random-s!;
#X obj 444 31 random 2;
#X floatatom 444 53 5 0 0 0 - - -, f 5;
#X obj 301 74 s \$0-t3-r;
#X obj 444 72 s \$0-t4-r;
#X obj 14 104 r \$0-ratchet-random-s!;
#X obj 14 126 random 2;
#X floatatom 14 148 5 0 0 0 - - -, f 5;
#X obj 157 102 r \$0-ratchet-random-s!;
#X obj 157 124 random 2;
#X floatatom 157 146 5 0 0 0 - - -, f 5;
#X obj 301 100 r \$0-ratchet-random-s!;
#X obj 301 122 random 2;
#X floatatom 301 144 5 0 0 0 - - -, f 5;
#X obj 444 98 r \$0-ratchet-random-s!;
#X obj 444 120 random 2;
#X floatatom 444 142 5 0 0 0 - - -, f 5;
#X obj 14 167 s \$0-t5-r;
#X obj 157 165 s \$0-t6-r;
#X obj 301 163 s \$0-t7-r;
#X obj 444 161 s \$0-t8-r;
#X obj 14 201 r \$0-ratchet-random-s!;
#X obj 14 223 random 2;
#X floatatom 14 245 5 0 0 0 - - -, f 5;
#X obj 157 199 r \$0-ratchet-random-s!;
#X obj 157 221 random 2;
#X floatatom 157 243 5 0 0 0 - - -, f 5;
#X obj 301 197 r \$0-ratchet-random-s!;
#X obj 301 219 random 2;
#X floatatom 301 241 5 0 0 0 - - -, f 5;
#X obj 444 195 r \$0-ratchet-random-s!;
#X obj 444 217 random 2;
#X floatatom 444 239 5 0 0 0 - - -, f 5;
#X obj 14 290 r \$0-ratchet-random-s!;
#X obj 14 312 random 2;
#X floatatom 14 334 5 0 0 0 - - -, f 5;
#X obj 157 288 r \$0-ratchet-random-s!;
#X obj 157 310 random 2;
#X floatatom 157 332 5 0 0 0 - - -, f 5;
#X obj 301 286 r \$0-ratchet-random-s!;
#X obj 301 308 random 2;
#X floatatom 301 330 5 0 0 0 - - -, f 5;
#X obj 444 284 r \$0-ratchet-random-s!;
#X obj 444 306 random 2;
#X floatatom 444 328 5 0 0 0 - - -, f 5;
#X obj 14 264 s \$0-t9-r;
#X obj 157 262 s \$0-t10-r;
#X obj 301 260 s \$0-t11-r;
#X obj 444 258 s \$0-t12-r;
#X obj 14 353 s \$0-t13-r;
#X obj 157 351 s \$0-t14-r;
#X obj 301 349 s \$0-t15-r;
#X obj 444 347 s \$0-t16-r;
#X connect 0 0 1 0;
#X connect 1 0 2 0;
#X connect 2 0 3 0;
#X connect 4 0 5 0;
#X connect 5 0 6 0;
#X connect 6 0 7 0;
#X connect 8 0 9 0;
#X connect 9 0 10 0;
#X connect 10 0 14 0;
#X connect 11 0 12 0;
#X connect 12 0 13 0;
#X connect 13 0 15 0;
#X connect 16 0 17 0;
#X connect 17 0 18 0;
#X connect 18 0 28 0;
#X connect 19 0 20 0;
#X connect 20 0 21 0;
#X connect 21 0 29 0;
#X connect 22 0 23 0;
#X connect 23 0 24 0;
#X connect 24 0 30 0;
#X connect 25 0 26 0;
#X connect 26 0 27 0;
#X connect 27 0 31 0;
#X connect 32 0 33 0;
#X connect 33 0 34 0;
#X connect 34 0 56 0;
#X connect 35 0 36 0;
#X connect 36 0 37 0;
#X connect 37 0 57 0;
#X connect 38 0 39 0;
#X connect 39 0 40 0;
#X connect 40 0 58 0;
#X connect 41 0 42 0;
#X connect 42 0 43 0;
#X connect 43 0 59 0;
#X connect 44 0 45 0;
#X connect 45 0 46 0;
#X connect 46 0 60 0;
#X connect 47 0 48 0;
#X connect 48 0 49 0;
#X connect 49 0 61 0;
#X connect 50 0 51 0;
#X connect 51 0 52 0;
#X connect 52 0 62 0;
#X connect 53 0 54 0;
#X connect 54 0 55 0;
#X connect 55 0 63 0;
#X restore 888 129 pd randomize-all-toggles;
#X obj 888 -5 inlet~ RDM!;
#X obj 888 17 threshold~ 0.9 0 0.9 0;
#X msg 888 39 bang;
#X obj 888 105 s \$0-ratchet-random-s!;
#X obj 888 61 t b b;
#X obj 935 78 s \$0-ratchet-rdm!-gui-r;
#N canvas 120 22 1008 752 store/load 0;
#X obj 290 212 pack f f;
#X obj 305 133 loadbang;
#X obj 305 155 f \$1;
#X obj 290 184 f;
#X obj 292 453 textfile;
#X msg 475 436 rewind;
#X obj 165 78 loadbang;
#X obj 19 174 delay 10;
#X text 59 52 WRITE;
#X obj 19 54 inlet;
#X obj 19 208 f;
#X obj 19 247 pack f f;
#X obj 165 126 t f f;
#X obj 165 104 f \$1;
#X msg -193 97 bang;
#X obj 25 969 textfile;
#X msg 97 236 clear;
#X obj 19 118 t b f b b;
#X obj 308 21 inlet;
#X text 353 19 LOAD;
#X msg 399 415 bang;
#X obj 412 375 t b b;
#X obj 308 43 t b f;
#X obj 290 90 t b b;
#X obj -412 344 f;
#N canvas 0 22 1084 659 unpack-values 0;
#X obj 182 32 inlet;
#X obj 182 59 unpack f f f f f f f f f f f f f f f f f f f f f f f
f f f f f f f f f f;
#X obj 148 696 s \$0-s1-ratchet-gui-r;
#X obj 161 675 s \$0-s2-ratchet-gui-r;
#X obj 178 649 s \$0-s3-ratchet-gui-r;
#X obj 191 628 s \$0-s4-ratchet-gui-r;
#X obj 205 603 s \$0-s5-ratchet-gui-r;
#X obj 218 582 s \$0-s6-ratchet-gui-r;
#X obj 235 556 s \$0-s7-ratchet-gui-r;
#X obj 248 535 s \$0-s8-ratchet-gui-r;
#X obj 265 512 s \$0-s9-ratchet-gui-r;
#X obj 278 491 s \$0-s10-ratchet-gui-r;
#X obj 295 465 s \$0-s11-ratchet-gui-r;
#X obj 308 444 s \$0-s12-ratchet-gui-r;
#X obj 322 419 s \$0-s13-ratchet-gui-r;
#X obj 335 398 s \$0-s14-ratchet-gui-r;
#X obj 352 372 s \$0-s15-ratchet-gui-r;
#X obj 365 351 s \$0-s16-ratchet-gui-r;
#X obj 444 526 s \$0-t1-r;
#X obj 457 505 s \$0-t2-r;
#X obj 474 479 s \$0-t3-r;
#X obj 487 458 s \$0-t4-r;
#X obj 501 433 s \$0-t5-r;
#X obj 514 412 s \$0-t6-r;
#X obj 531 386 s \$0-t7-r;
#X obj 544 365 s \$0-t8-r;
#X obj 561 342 s \$0-t9-r;
#X obj 574 321 s \$0-t10-r;
#X obj 591 295 s \$0-t11-r;
#X obj 604 274 s \$0-t12-r;
#X obj 618 249 s \$0-t13-r;
#X obj 631 228 s \$0-t14-r;
#X obj 648 202 s \$0-t15-r;
#X obj 661 181 s \$0-t16-r;
#X obj 667 144 s \$0-ratchet-load-r;
#X connect 0 0 1 0;
#X connect 1 0 2 0;
#X connect 1 1 3 0;
#X connect 1 2 4 0;
#X connect 1 3 5 0;
#X connect 1 4 6 0;
#X connect 1 5 7 0;
#X connect 1 6 8 0;
#X connect 1 7 9 0;
#X connect 1 8 10 0;
#X connect 1 9 11 0;
#X connect 1 10 12 0;
#X connect 1 11 13 0;
#X connect 1 12 14 0;
#X connect 1 13 15 0;
#X connect 1 14 16 0;
#X connect 1 15 17 0;
#X connect 1 16 18 0;
#X connect 1 17 19 0;
#X connect 1 18 20 0;
#X connect 1 19 21 0;
#X connect 1 20 22 0;
#X connect 1 21 23 0;
#X connect 1 22 24 0;
#X connect 1 23 25 0;
#X connect 1 24 26 0;
#X connect 1 25 27 0;
#X connect 1 26 28 0;
#X connect 1 27 29 0;
#X connect 1 28 30 0;
#X connect 1 29 31 0;
#X connect 1 30 32 0;
#X connect 1 31 33 0;
#X restore 292 479 pd unpack-values;
#X obj 308 67 delay 100;
#X msg -375 894 set \$1 \$2 \$3 \$4 \$5 \$6 \$7 \$8 \$9 \$10 \$11 \$12
\$13 \$14 \$15 \$16 \$17 \$18 \$19 \$20 \$21 \$22 \$23 \$24 \$25 \$26
\$27 \$28 \$29 \$30 \$31 \$32 \$33;
#X obj -374 853 pack f f f f f f f f f f f f f f f f f f f f f f f
f f f f f f f f f f;
#X msg 19 329 write statesave/\$1-ratchet-seq-\$2-ss.txt;
#X msg 291 297 read statesave/\$1-ratchet-seq-\$2-ss.txt;
#X obj -400 14 r \$0-s1-ratchet-gui-s;
#X obj -387 44 r \$0-s2-ratchet-gui-s;
#X obj -371 64 r \$0-s3-ratchet-gui-s;
#X obj -355 84 r \$0-s4-ratchet-gui-s;
#X obj -337 103 r \$0-s5-ratchet-gui-s;
#X obj -321 123 r \$0-s6-ratchet-gui-s;
#X obj -305 143 r \$0-s7-ratchet-gui-s;
#X obj -284 166 r \$0-s8-ratchet-gui-s;
#X obj -264 195 r \$0-s9-ratchet-gui-s;
#X obj -248 215 r \$0-s10-ratchet-gui-s;
#X obj -232 235 r \$0-s11-ratchet-gui-s;
#X obj -216 255 r \$0-s12-ratchet-gui-s;
#X obj -198 274 r \$0-s13-ratchet-gui-s;
#X obj -182 294 r \$0-s14-ratchet-gui-s;
#X obj -166 314 r \$0-s15-ratchet-gui-s;
#X obj -150 334 r \$0-s16-ratchet-gui-s;
#X obj -132 357 r \$0-t1-s;
#X obj -121 381 r \$0-t2-s;
#X obj -103 411 r \$0-t3-s;
#X obj -92 435 r \$0-t4-s;
#X obj -79 459 r \$0-t5-s;
#X obj -68 483 r \$0-t6-s;
#X obj -50 513 r \$0-t7-s;
#X obj -39 537 r \$0-t8-s;
#X obj 75 813 r \$0-ratchet-load-s;
#X obj -18 567 r \$0-t9-s;
#X obj -7 591 r \$0-t10-s;
#X obj 11 621 r \$0-t11-s;
#X obj 22 645 r \$0-t12-s;
#X obj 35 669 r \$0-t13-s;
#X obj 46 693 r \$0-t14-s;
#X obj 64 723 r \$0-t15-s;
#X obj 76 772 r \$0-t16-s;
#X connect 0 0 30 0;
#X connect 1 0 2 0;
#X connect 2 0 3 1;
#X connect 3 0 0 0;
#X connect 4 0 25 0;
#X connect 5 0 4 0;
#X connect 6 0 13 0;
#X connect 7 0 10 0;
#X connect 9 0 17 0;
#X connect 10 0 11 0;
#X connect 11 0 29 0;
#X connect 12 0 10 1;
#X connect 13 0 12 0;
#X connect 14 0 24 0;
#X connect 16 0 15 0;
#X connect 17 0 7 0;
#X connect 17 1 11 1;
#X connect 17 2 14 0;
#X connect 17 3 16 0;
#X connect 18 0 22 0;
#X connect 20 0 4 0;
#X connect 21 0 20 0;
#X connect 21 1 5 0;
#X connect 22 0 26 0;
#X connect 22 1 0 1;
#X connect 23 0 21 0;
#X connect 23 1 3 0;
#X connect 24 0 28 0;
#X connect 26 0 23 0;
#X connect 27 0 15 0;
#X connect 28 0 27 0;
#X connect 29 0 15 0;
#X connect 30 0 4 0;
#X connect 31 0 24 1;
#X connect 32 0 28 1;
#X connect 33 0 28 2;
#X connect 34 0 28 3;
#X connect 35 0 28 4;
#X connect 36 0 28 5;
#X connect 37 0 28 6;
#X connect 38 0 28 7;
#X connect 39 0 28 8;
#X connect 40 0 28 9;
#X connect 41 0 28 10;
#X connect 42 0 28 11;
#X connect 43 0 28 12;
#X connect 44 0 28 13;
#X connect 45 0 28 14;
#X connect 46 0 28 15;
#X connect 47 0 28 16;
#X connect 48 0 28 17;
#X connect 49 0 28 18;
#X connect 50 0 28 19;
#X connect 51 0 28 20;
#X connect 52 0 28 21;
#X connect 53 0 28 22;
#X connect 54 0 28 23;
#X connect 55 0 28 32;
#X connect 56 0 28 24;
#X connect 57 0 28 25;
#X connect 58 0 28 26;
#X connect 59 0 28 27;
#X connect 60 0 28 28;
#X connect 61 0 28 29;
#X connect 62 0 28 30;
#X connect 63 0 28 31;
#X restore 108 560 pd store/load;
#X obj 108 508 r \$0-ratchet-store-s;
#X obj 183 532 r \$0-ratchet-load-s;
#N canvas 297 144 447 447 avoid-load-textfile-clicks 0;
#X obj 159 135 loadbang;
#X obj 159 157 t b b;
#X msg 159 179 127 100;
#X obj 159 226 line;
#X obj 236 174 delay 110;
#X msg 236 198 0 100;
#X obj 162 250 hsl 128 15 0 127 0 0 empty empty empty -2 -8 0 10 -262144
-1 -1 0 1;
#X obj 159 270 / 127;
#X obj 159 292 * 4;
#X obj 159 314 i;
#X obj 159 336 s \$0-trigger-seq-load-r;
#X connect 0 0 1 0;
#X connect 1 0 2 0;
#X connect 1 1 4 0;
#X connect 2 0 3 0;
#X connect 3 0 6 0;
#X connect 4 0 5 0;
#X connect 5 0 3 0;
#X connect 6 0 7 0;
#X connect 7 0 8 0;
#X connect 8 0 9 0;
#X connect 9 0 10 0;
#X restore 109 589 pd avoid-load-textfile-clicks;
#X obj 394 457 s \$0-instance-num;
#X obj 394 409 makefilename %d;
#X msg 394 434 label \$1;
#X obj 394 365 f \$1;
#X obj 394 325 loadbang;
#X obj 112 682 f;
#X obj 112 620 r SAVE-S;
#X obj 127 650 r \$0-ratchet-load-s;
#X obj 112 704 s \$0-ratchet-store-r;
#X obj 971 197 inlet~ LOAD;
#X obj 1130 41 inlet~ RESET;
#X obj 971 219 threshold~ 0.9 0 0.9 0;
#X msg 971 241 bang;
#X obj 971 268 f;
#X obj 1005 268 + 1;
#X obj 971 297 mod 4;
#X floatatom 1030 314 5 0 0 0 - - -, f 5;
#X obj 971 343 s \$0-ratchet-load-r;
#X obj 1130 88 t b b;
#X msg 1129 118 0;
#X obj 1185 101 loadbang;
#X obj 1130 63 threshold~ 0.9 0 0.9 0;
#X obj 227 114 bng 15 100 50 0 empty \$0-ratchet-rdm!-gui-r empty 17
7 0 10 -262144 -226533 -1;
#N canvas 632 73 749 752 external-messages 0;
#X floatatom 186 706 5 0 0 0 - - -, f 5;
#X obj 185 328 spigot;
#X obj 218 288 tgl 15 0 empty empty empty 17 7 0 10 -262144 -1 -1 0
1;
#X obj 254 272 ==;
#X obj 269 248 f \$1;
#X obj 269 224 loadbang;
#X msg 185 202 \$1 \$2;
#X msg 185 156 symbol \$1;
#X obj 185 180 pack s f;
#X obj 186 685 f;
#X obj 186 633 t b f;
#X obj 186 656 spigot;
#X obj 185 62 unpack s f f;
#X symbolatom 185 94 10 0 0 0 - - -, f 10;
#X obj 218 308 t f f;
#X obj 245 332 s \$0-msg-spigot;
#X obj 234 640 r \$0-msg-spigot;
#X obj 185 14 r ratchet-seq;
#X obj 185 380 route RANDOM!;
#X obj 186 726 s \$0-ratchet-random-r!;
#X connect 0 0 19 0;
#X connect 1 0 18 0;
#X connect 2 0 14 0;
#X connect 3 0 2 0;
#X connect 4 0 3 1;
#X connect 5 0 4 0;
#X connect 6 0 1 0;
#X connect 7 0 8 0;
#X connect 8 0 6 0;
#X connect 9 0 0 0;
#X connect 10 0 11 0;
#X connect 10 1 9 1;
#X connect 11 0 9 0;
#X connect 12 0 13 0;
#X connect 12 1 8 1;
#X connect 12 2 3 0;
#X connect 13 0 7 0;
#X connect 14 0 1 1;
#X connect 14 1 15 0;
#X connect 16 0 11 1;
#X connect 17 0 12 0;
#X connect 18 0 10 0;
#X restore 106 43 pd external-messages;
#X connect 0 0 1 0;
#X connect 0 0 83 0;
#X connect 1 0 0 1;
#X connect 2 0 30 0;
#X connect 3 0 6 0;
#X connect 4 0 3 0;
#X connect 4 1 3 1;
#X connect 5 0 0 0;
#X connect 5 1 4 0;
#X connect 6 0 7 0;
#X connect 16 0 22 0;
#X connect 23 0 84 0;
#X connect 30 0 26 0;
#X connect 30 1 31 0;
#X connect 30 2 32 0;
#X connect 30 3 33 0;
#X connect 30 4 34 0;
#X connect 30 5 35 0;
#X connect 30 6 36 0;
#X connect 30 7 37 0;
#X connect 30 8 38 0;
#X connect 30 9 39 0;
#X connect 30 10 40 0;
#X connect 30 11 41 0;
#X connect 30 12 42 0;
#X connect 30 13 43 0;
#X connect 30 14 44 0;
#X connect 30 15 45 0;
#X connect 83 0 2 0;
#X connect 84 0 16 0;
#X connect 100 0 101 0;
#X connect 101 0 102 0;
#X connect 102 0 5 0;
#X connect 102 0 108 0;
#X connect 117 0 118 0;
#X connect 118 0 119 0;
#X connect 119 0 121 0;
#X connect 121 0 120 0;
#X connect 121 1 122 0;
#X connect 124 0 123 0;
#X connect 125 0 123 1;
#X connect 128 0 129 0;
#X connect 129 0 127 0;
#X connect 130 0 128 0;
#X connect 131 0 130 0;
#X connect 132 0 135 0;
#X connect 133 0 132 0;
#X connect 134 0 132 1;
#X connect 136 0 138 0;
#X connect 137 0 148 0;
#X connect 138 0 139 0;
#X connect 139 0 140 0;
#X connect 139 0 110 0;
#X connect 140 0 141 0;
#X connect 140 0 142 0;
#X connect 141 0 140 1;
#X connect 142 0 143 0;
#X connect 142 0 144 0;
#X connect 145 0 146 0;
#X connect 145 1 106 0;
#X connect 146 0 0 1;
#X connect 147 0 146 0;
#X connect 148 0 145 0;
#X coords 0 -1 1 1 400 150 2 100 100;
