#N canvas 0 57 1920 1023 10;
#X obj 108 149 hsl 128 15 0 127 0 1 \$0-sample-player-file-s \$0-sample-player-file-r FILE 133 7 0 10 #fcfcfc #000000 #000000 0 1;
#X obj 108 179 hsl 128 15 0 127 0 1 \$0-sample-player-pitch-cv-att-s \$0-sample-player-pitch-cv-att-r P.CV 133 7 0 10 #9898dc #000000 #000000 0 1;
#X obj 590 342 phasor~;
#X obj 590 394 *~;
#X obj 605 365 r \$0-samplesize;
#X obj 223 194 tgl 15 1 \$0-sample-player-loop-s \$0-sample-player-loop-r LOOP 17 7 0 10 #fcfcfc #000000 #000000 0 1;
#X obj 590 176 r \$0-frequencyHz;
#X obj 590 264 sig~;
#X obj 590 288 +~;
#X obj 701 271 *~;
#X obj 601 69 s~ \$0-PITCH-CV;
#X obj 700 -35 inlet~ PITCH-CV-IN;
#X obj 105 18 inlet~;
#N canvas 0 0 1920 1021 select-sample 0;
#X obj 40 5 r \$0-sample-player-file-s;
#X obj 40 56 / 127;
#X obj 40 100 + 1;
#X obj 40 168 i;
#X floatatom 40 197 5 0 0 0 - - - 0;
#X obj 85 199 f \$0;
#X obj 85 174 loadbang;
#X obj 40 230 pack f f;
#X msg 40 256 set \$2-sample\$1;
#X obj 40 278 s \$0-select-table;
#X obj 40 122 +;
#X obj 200 15 r~ \$0-sampler-file-cv;
#X obj 200 61 snapshot~;
#X obj 200 105 t b f;
#X obj 347 126 tgl 15 0 empty empty empty 17 7 0 10 #fcfcfc #000000 #000000 0 1;
#X obj 347 168 spigot;
#X obj 347 31 env~;
#X obj 347 53 > 0;
#X obj 347 75 change;
#X obj 347 146 metro 1;
#X obj 347 97 t f f;
#X msg 229 216 0;
#X obj 229 194 sel 0 1;
#X msg 3 318 set sample\$1;
#X obj 3 352 s \$0-sampler-symbol-gui-r;
#X obj 40 78 * 7;
#X obj 200 83 * 8;
#X obj 40 144 clip 1 8;
#X obj 250 314 s \$0-sampler-reload-table;
#X obj 2 287 i;
#X msg 450 249 set \$2-crown\$1;
#X obj 450 279 s \$0-select-crown;
#X msg 247 267 set \$2-sample\$1R;
#X obj 247 289 s \$0-select-tableR;
#X obj 476 65 v \$0-sample-player-file-s;
#X obj 468 21 loadbang;
#X obj 468 43 delay 2;
#X connect 0 0 1 0;
#X connect 1 0 25 0;
#X connect 2 0 10 0;
#X connect 2 0 29 0;
#X connect 3 0 4 0;
#X connect 3 0 28 0;
#X connect 4 0 7 0;
#X connect 5 0 7 1;
#X connect 6 0 5 0;
#X connect 7 0 8 0;
#X connect 7 0 30 0;
#X connect 7 0 32 0;
#X connect 8 0 9 0;
#X connect 10 0 27 0;
#X connect 11 0 12 0;
#X connect 11 0 16 0;
#X connect 12 0 26 0;
#X connect 13 0 10 0;
#X connect 13 1 10 1;
#X connect 14 0 19 0;
#X connect 15 0 12 0;
#X connect 16 0 17 0;
#X connect 17 0 18 0;
#X connect 18 0 20 0;
#X connect 18 0 22 0;
#X connect 19 0 15 0;
#X connect 20 0 14 0;
#X connect 20 1 15 1;
#X connect 22 0 21 0;
#X connect 23 0 24 0;
#X connect 25 0 2 0;
#X connect 26 0 13 0;
#X connect 27 0 3 0;
#X connect 29 0 23 0;
#X connect 30 0 31 0;
#X connect 32 0 33 0;
#X connect 34 0 1 0;
#X connect 35 0 36 0;
#X connect 36 0 34 0;
#X restore 358 36 pd select-sample;
#X obj 105 115 bng 15 50 50 0 empty empty empty 17 7 0 10 #fcfcfc #dc4c90 #000000;
#X obj 629 222 r \$0-sample-player-loop-s;
#X obj 629 293 line~;
#X obj 132 744 *~;
#X obj 147 653 r \$0-sample-player-loop-s;
#X obj 147 676 == 0;
#X obj 664 554 r \$0-select-table;
#X obj 589 629 tabread4~;
#X obj 147 720 line~;
#X obj 132 629 vline~;
#X obj 105 40 threshold~ 0.9 0 0.9 0;
#X obj 857 218 r \$0-sample-player-loop-s;
#X obj 857 240 sel 1;
#X msg 857 262 0;
#X obj 106 141 cnv 5 5 5 empty empty SAMPLER 0 0 0 12 #fcfcfc #404040 0;
#X obj 147 109 cnv 5 5 5 empty empty PITCH 0 0 0 8 #fcfcfc #404040 0;
#X obj 104 109 cnv 5 5 5 empty empty TRIG 0 0 0 8 #fcfcfc #dc4c90 0;
#X obj 252 108 cnv 5 5 5 empty empty LOOP 0 0 0 8 #fcfcfc #dc4c90 0;
#X obj 163 141 cnv 5 5 5 empty \$0-instance-num 0 0 0 0 12 #fcfcfc #404040 0;
#N canvas 0 57 1920 1023 load-samples 0;
#X obj 26 7 loadbang;
#X obj 19 376 soundfiler;
#X obj 19 486 44100;
#X obj 19 508 /;
#X floatatom 19 530 5 0 0 0 - - - 0;
#X obj 19 549 t f f;
#X obj 199 461 soundfiler;
#X obj 199 507 44100;
#X obj 199 529 /;
#X floatatom 199 551 5 0 0 0 - - - 0;
#X obj 199 570 t f f;
#X obj 199 483 t b f f;
#X obj 401 107 table \$0-sample1;
#X obj 614 374 soundfiler;
#X obj 614 420 44100;
#X obj 614 442 /;
#X floatatom 614 464 5 0 0 0 - - - 0;
#X obj 614 483 t f f;
#X obj 614 396 t b f f;
#X obj 787 481 soundfiler;
#X obj 787 527 44100;
#X obj 787 549 /;
#X floatatom 787 571 5 0 0 0 - - - 0;
#X obj 787 590 t f f;
#X obj 787 503 t b f f;
#X obj 40 714 soundfiler;
#X obj 40 760 44100;
#X obj 40 782 /;
#X floatatom 40 804 5 0 0 0 - - - 0;
#X obj 40 823 t f f;
#X obj 40 736 t b f f;
#X obj 218 810 soundfiler;
#X obj 218 856 44100;
#X obj 218 878 /;
#X floatatom 218 900 5 0 0 0 - - - 0;
#X obj 218 919 t f f;
#X obj 218 832 t b f f;
#X obj 633 723 soundfiler;
#X obj 633 769 44100;
#X obj 633 791 /;
#X floatatom 633 813 5 0 0 0 - - - 0;
#X obj 633 832 t f f;
#X obj 633 745 t b f f;
#X obj 806 830 soundfiler;
#X obj 806 876 44100;
#X obj 806 898 /;
#X floatatom 806 920 5 0 0 0 - - - 0;
#X obj 806 939 t f f;
#X obj 806 852 t b f f;
#X obj 58 486 s \$0-samplesize1;
#X obj 46 572 s \$0-frequencyHz1;
#X obj 238 513 s \$0-samplesize2;
#X obj 226 593 s \$0-frequencyHz2;
#X obj 653 420 s \$0-samplesize3;
#X obj 641 506 s \$0-frequencyHz3;
#X obj 826 527 s \$0-samplesize4;
#X obj 814 613 s \$0-frequencyHz4;
#X obj 79 760 s \$0-samplesize5;
#X obj 67 846 s \$0-frequencyHz5;
#X obj 257 862 s \$0-samplesize6;
#X obj 245 942 s \$0-frequencyHz6;
#X obj 672 769 s \$0-samplesize7;
#X obj 660 855 s \$0-frequencyHz7;
#X obj 845 876 s \$0-samplesize8;
#X obj 833 962 s \$0-frequencyHz8;
#X obj 401 128 table \$0-sample1R;
#X obj 689 632 table \$0-sample7;
#X obj 689 653 table \$0-sample7R;
#X obj 316 371 table \$0-sample2;
#X obj 316 391 table \$0-sample2R;
#X obj 670 283 table \$0-sample3;
#X obj 670 303 table \$0-sample3R;
#X obj 843 390 table \$0-sample4;
#X obj 843 410 table \$0-sample4R;
#X obj 97 624 table \$0-sample5;
#X obj 95 645 table \$0-sample5R;
#X obj 275 720 table \$0-sample6;
#X obj 275 743 table \$0-sample6R;
#X obj 862 738 table \$0-sample8;
#X obj 862 760 table \$0-sample8R;
#X obj 20 399 select 0;
#X obj 25 47 pdcontrol;
#X msg 27 26 dir 2;
#X obj 21 232 pack s \$0;
#X msg 20 353 read -resize \$1/samples/sample1.wav \$2-sample1 \$2-sample1R, f 61;
#X obj 199 386 r \$0-dir;
#X msg 199 413 read -resize \$1/samples/sample2.wav \$2-sample2 \$2-sample2R, f 61;
#X msg 614 326 read -resize \$1/samples/sample3.wav \$2-sample3 \$2-sample3R, f 61;
#X msg 787 433 read -resize \$1/samples/sample4.wav \$2-sample4 \$2-sample4R, f 61;
#X msg 40 666 read -resize \$1/samples/sample5.wav \$2-sample5 \$2-sample5R, f 61;
#X msg 218 762 read -resize \$1/samples/sample6.wav \$2-sample6 \$2-sample6R, f 61;
#X msg 633 675 read -resize \$1/samples/sample7.wav \$2-sample7 \$2-sample7R, f 61;
#X msg 806 782 read -resize \$1/samples/sample8.wav \$2-sample8 \$2-sample8R, f 61;
#X obj 95 441 list append;
#X obj 20 327 t l l;
#X obj 19 432 t b f f b;
#X obj 95 463 s \$0-dir;
#X obj 614 305 r \$0-dir;
#X obj 787 412 r \$0-dir;
#X obj 633 654 r \$0-dir;
#X obj 40 645 r \$0-dir;
#X obj 218 741 r \$0-dir;
#X obj 806 761 r \$0-dir;
#X obj 241 151 pdcontrol;
#X msg 241 127 dir 0;
#X obj 272 203 pack s s;
#N canvas 0 0 592 466 Does_\$1/samples/sample1.wav_exist? 0;
#X obj 33 11 inlet;
#X obj 33 208 outlet;
#X obj 125 101 file stat;
#X obj 32 182 spigot 1;
#X msg 83 150 0;
#X text 159 145 file not found;
#X obj 33 35 t s s;
#X msg 82 60 symbol \$1/samples/sample1.wav;
#X obj 135 210 outlet;
#X obj 129 126 t b b;
#X connect 0 0 6 0;
#X connect 2 1 9 0;
#X connect 3 0 1 0;
#X connect 4 0 3 1;
#X connect 6 0 3 0;
#X connect 6 1 7 0;
#X connect 7 0 2 0;
#X connect 9 0 4 0;
#X connect 9 1 8 0;
#X restore 22 100 pd Does_\$1/samples/sample1.wav_exist?;
#X text 27 117 yes;
#X text 212 119 no;
#X obj 26 70 t s s, f 52;
#X msg 53 199 symbol \$1/..;
#X obj 231 173 t s s;
#X obj 269 263 print Automatonism/sampler-\$1;
#X msg 271 228 no local samples folder found in \$2. Using Automatonism default samples folder instead (\$1/../samples);
#X connect 0 0 82 0;
#X connect 1 0 80 0;
#X connect 2 0 3 0;
#X connect 3 0 4 0;
#X connect 4 0 5 0;
#X connect 5 1 50 0;
#X connect 6 0 11 0;
#X connect 7 0 8 0;
#X connect 8 0 9 0;
#X connect 9 0 10 0;
#X connect 10 1 52 0;
#X connect 11 0 7 0;
#X connect 11 1 8 1;
#X connect 11 2 51 0;
#X connect 13 0 18 0;
#X connect 14 0 15 0;
#X connect 15 0 16 0;
#X connect 16 0 17 0;
#X connect 17 1 54 0;
#X connect 18 0 14 0;
#X connect 18 1 15 1;
#X connect 18 2 53 0;
#X connect 19 0 24 0;
#X connect 20 0 21 0;
#X connect 21 0 22 0;
#X connect 22 0 23 0;
#X connect 23 1 56 0;
#X connect 24 0 20 0;
#X connect 24 1 21 1;
#X connect 24 2 55 0;
#X connect 25 0 30 0;
#X connect 26 0 27 0;
#X connect 27 0 28 0;
#X connect 28 0 29 0;
#X connect 29 1 58 0;
#X connect 30 0 26 0;
#X connect 30 1 27 1;
#X connect 30 2 57 0;
#X connect 31 0 36 0;
#X connect 32 0 33 0;
#X connect 33 0 34 0;
#X connect 34 0 35 0;
#X connect 35 1 60 0;
#X connect 36 0 32 0;
#X connect 36 1 33 1;
#X connect 36 2 59 0;
#X connect 37 0 42 0;
#X connect 38 0 39 0;
#X connect 39 0 40 0;
#X connect 40 0 41 0;
#X connect 41 1 62 0;
#X connect 42 0 38 0;
#X connect 42 1 39 1;
#X connect 42 2 61 0;
#X connect 43 0 48 0;
#X connect 44 0 45 0;
#X connect 45 0 46 0;
#X connect 46 0 47 0;
#X connect 47 1 64 0;
#X connect 48 0 44 0;
#X connect 48 1 45 1;
#X connect 48 2 63 0;
#X connect 80 1 95 0;
#X connect 81 0 109 0;
#X connect 82 0 81 0;
#X connect 83 0 94 0;
#X connect 84 0 1 0;
#X connect 85 0 86 0;
#X connect 86 0 6 0;
#X connect 87 0 13 0;
#X connect 88 0 19 0;
#X connect 89 0 25 0;
#X connect 90 0 31 0;
#X connect 91 0 37 0;
#X connect 92 0 43 0;
#X connect 93 0 96 0;
#X connect 94 0 84 0;
#X connect 94 1 93 1;
#X connect 95 0 2 0;
#X connect 95 1 3 1;
#X connect 95 2 49 0;
#X connect 95 3 93 0;
#X connect 97 0 87 0;
#X connect 98 0 88 0;
#X connect 99 0 91 0;
#X connect 100 0 89 0;
#X connect 101 0 90 0;
#X connect 102 0 92 0;
#X connect 103 0 111 0;
#X connect 104 0 103 0;
#X connect 105 0 113 0;
#X connect 106 0 83 0;
#X connect 106 1 104 0;
#X connect 109 0 106 0;
#X connect 109 1 105 1;
#X connect 110 0 83 0;
#X connect 111 0 110 0;
#X connect 111 1 105 0;
#X connect 113 0 112 0;
#X restore 359 14 pd load-samples;
#X obj 838 25 inlet~ FILE-CV;
#X obj 981 7 inlet~ LOOP;
#X obj 838 47 s~ \$0-sampler-file-cv;
#X obj 981 29 threshold~ 0.9 0 0.9 0;
#X obj 981 51 s \$0-sample-player-loop-r;
#X obj 207 109 cnv 5 5 5 empty empty FILE 0 0 0 8 #fcfcfc #404040 0;
#X symbolatom 176 135 10 0 0 0 - \$0-sampler-symbol-gui-r - 0;
#N canvas 100 22 593 735 state-saving-multiple-instances 0;
#X obj 164 26 loadbang;
#X obj 210 479 state_saving_module/textfile \$0;
#X msg 491 462 rewind;
#X msg 448 462 bang;
#X obj 88 702 state_saving_module/textfile \$0;
#X obj 448 421 t b b;
#X obj 88 355 f;
#X obj 101 578 f;
#X obj 27 402 t b b b;
#X msg 163 573 clear;
#X obj 230 235 outlet;
#X text 272 237 INSTANCE NUMBER;
#X obj 191 200 t f f f;
#X obj 191 164 f \$1;
#X obj 164 59 t b b;
#X obj 27 378 bng 15 250 50 0 empty empty empty 17 7 0 10 #fcfcfc #000000 #000000;
#X obj 27 234 r SAVE-S;
#X msg 101 650 write statesave/\$1-sampler-ss.txt;
#X msg 210 454 read statesave/\$1-sampler-ss.txt;
#X obj 116 313 r \$0-sample-player-pitch-s;
#X obj 244 592 s \$0-sample-player-pitch-r;
#X obj 103 275 r \$0-sample-player-file-s;
#X obj 210 618 s \$0-sample-player-file-r;
#X obj 145 341 r \$0-sample-player-loop-s;
#X obj 279 570 s \$0-sample-player-loop-r;
#X msg 88 436 set \$1 \$2 \$3 \$4;
#X obj 88 398 pack f f f f;
#X obj 178 373 r \$0-sample-player-pitch-cv-att-s;
#X obj 210 501 unpack f f f f;
#X obj 311 538 s \$0-sample-player-pitch-cv-att-r;
#X obj 222 45 r \$0-reload!;
#X connect 0 0 14 0;
#X connect 1 0 28 0;
#X connect 2 0 1 0;
#X connect 3 0 1 0;
#X connect 5 0 3 0;
#X connect 5 1 2 0;
#X connect 6 0 26 0;
#X connect 7 0 17 0;
#X connect 8 0 7 0;
#X connect 8 1 6 0;
#X connect 8 2 9 0;
#X connect 9 0 4 0;
#X connect 12 0 7 1;
#X connect 12 1 18 0;
#X connect 12 2 10 0;
#X connect 13 0 12 0;
#X connect 14 0 5 0;
#X connect 14 1 13 0;
#X connect 15 0 8 0;
#X connect 16 0 15 0;
#X connect 17 0 4 0;
#X connect 18 0 1 0;
#X connect 19 0 26 1;
#X connect 21 0 6 1;
#X connect 23 0 26 2;
#X connect 25 0 4 0;
#X connect 26 0 25 0;
#X connect 27 0 26 3;
#X connect 28 0 22 0;
#X connect 28 1 20 0;
#X connect 28 2 24 0;
#X connect 28 3 29 0;
#X connect 30 0 14 0;
#X restore -108 259 pd state-saving-multiple-instances;
#X obj -108 332 s \$0-instance-num;
#X obj -108 284 makefilename %d;
#X msg -108 309 label \$1;
#N canvas 81 22 1117 745 state-saving-via-preset-manager-module 0;
#X obj 477 349 state_saving_module/textfile \$0;
#X msg 755 332 rewind;
#X msg 712 332 bang;
#X obj 243 690 state_saving_module/textfile \$0;
#X obj 712 293 t b b;
#X obj 244 356 f;
#X obj 257 579 f;
#X obj 190 474 t b b b;
#X msg 373 621 clear;
#X obj 244 180 delay 5;
#X obj 190 529 delay 10;
#X msg 190 314 bang;
#X obj 190 155 r STORE-S!;
#X obj 477 250 f;
#X obj 450 207 t b b;
#X obj 465 171 t b f;
#X obj 522 268 f \$1;
#X obj 477 295 pack f f;
#X obj 522 218 loadbang;
#X obj 257 609 pack f f;
#X obj 302 562 loadbang;
#X obj 302 584 f \$1;
#X obj 465 122 r preset-manager-scan;
#X obj 272 540 r preset-manager-store-slot;
#X obj 465 144 i;
#X msg 256 650 write statesave/\$1-\$2-sampler-ss.txt;
#X msg 477 324 read statesave/\$1-\$2-sampler-ss.txt;
#X obj 290 352 r \$0-sample-player-loop-s;
#X obj 531 518 s \$0-sample-player-loop-r;
#X obj 259 308 r \$0-sample-player-file-s;
#X obj 477 619 s \$0-sample-player-file-r;
#X obj 267 330 r \$0-sample-player-pitch-s;
#X obj 504 567 s \$0-sample-player-pitch-r;
#X obj 244 423 pack f f f f;
#X msg 243 490 set \$1 \$2 \$3 \$4;
#X obj 326 399 r \$0-sample-player-pitch-cv-att-s;
#X obj 477 371 unpack f f f f;
#X obj 558 491 s \$0-sample-player-pitch-cv-att-r;
#N canvas 0 22 1069 747 morph-attenuators 0;
#X obj 176 94 inlet;
#X obj 176 236 pack f f;
#X obj 176 261 line;
#X obj 209 117 r preset-manager-morph-s;
#X msg 72 244 stop;
#X obj 72 214 r STOP-MORPH!;
#X obj 209 206 spigot;
#X obj 398 137 t f f;
#X obj 455 154 == 0;
#X obj 221 176 f;
#X floatatom 455 222 5 0 0 0 - - - 0;
#X obj 398 159 t b f;
#X floatatom 425 192 5 0 0 0 - - - 0;
#X obj 209 139 t f f;
#X obj 398 102 r attenuators-s;
#X obj 176 288 outlet;
#X connect 0 0 1 0;
#X connect 1 0 2 0;
#X connect 2 0 15 0;
#X connect 3 0 13 0;
#X connect 4 0 2 0;
#X connect 5 0 4 0;
#X connect 6 0 1 1;
#X connect 7 0 11 0;
#X connect 7 1 8 0;
#X connect 8 0 10 0;
#X connect 9 0 6 0;
#X connect 10 0 1 1;
#X connect 11 0 9 0;
#X connect 11 1 12 0;
#X connect 12 0 6 1;
#X connect 13 0 6 0;
#X connect 13 1 9 1;
#X connect 14 0 7 0;
#X restore 558 468 pd morph-attenuators;
#N canvas 0 22 1069 747 morph-parameters 0;
#X obj 176 94 inlet;
#X obj 176 236 pack f f;
#X obj 176 261 line;
#X obj 209 117 r preset-manager-morph-s;
#X msg 72 244 stop;
#X obj 72 214 r STOP-MORPH!;
#X obj 209 206 spigot;
#X obj 398 137 t f f;
#X obj 455 154 == 0;
#X obj 221 176 f;
#X floatatom 455 222 5 0 0 0 - - - 0;
#X obj 398 159 t b f;
#X floatatom 425 192 5 0 0 0 - - - 0;
#X obj 209 139 t f f;
#X obj 398 102 r parameters-s;
#X obj 176 288 outlet;
#X connect 0 0 1 0;
#X connect 1 0 2 0;
#X connect 2 0 15 0;
#X connect 3 0 13 0;
#X connect 4 0 2 0;
#X connect 5 0 4 0;
#X connect 6 0 1 1;
#X connect 7 0 11 0;
#X connect 7 1 8 0;
#X connect 8 0 10 0;
#X connect 9 0 6 0;
#X connect 10 0 1 1;
#X connect 11 0 9 0;
#X connect 11 1 12 0;
#X connect 12 0 6 1;
#X connect 13 0 6 0;
#X connect 13 1 9 1;
#X connect 14 0 7 0;
#X restore 477 594 pd morph-parameters;
#N canvas 0 22 1069 747 morph-frequencies 0;
#X obj 176 94 inlet;
#X obj 176 236 pack f f;
#X obj 176 261 line;
#X obj 209 117 r preset-manager-morph-s;
#X msg 72 244 stop;
#X obj 72 214 r STOP-MORPH!;
#X obj 398 102 r frequencies-s;
#X obj 209 206 spigot;
#X obj 398 137 t f f;
#X obj 455 154 == 0;
#X obj 221 176 f;
#X floatatom 455 222 5 0 0 0 - - - 0;
#X obj 398 159 t b f;
#X floatatom 425 192 5 0 0 0 - - - 0;
#X obj 209 139 t f f;
#X obj 176 283 outlet;
#X connect 0 0 1 0;
#X connect 1 0 2 0;
#X connect 2 0 15 0;
#X connect 3 0 14 0;
#X connect 4 0 2 0;
#X connect 5 0 4 0;
#X connect 6 0 8 0;
#X connect 7 0 1 1;
#X connect 8 0 12 0;
#X connect 8 1 9 0;
#X connect 9 0 11 0;
#X connect 10 0 7 0;
#X connect 11 0 1 1;
#X connect 12 0 10 0;
#X connect 12 1 13 0;
#X connect 13 0 7 1;
#X connect 14 0 7 0;
#X connect 14 1 10 1;
#X restore 504 542 pd morph-frequencies;
#X connect 0 0 36 0;
#X connect 1 0 0 0;
#X connect 2 0 0 0;
#X connect 4 0 2 0;
#X connect 4 1 1 0;
#X connect 5 0 33 0;
#X connect 6 0 19 0;
#X connect 7 0 10 0;
#X connect 7 1 9 0;
#X connect 7 2 8 0;
#X connect 8 0 3 0;
#X connect 9 0 5 0;
#X connect 10 0 6 0;
#X connect 11 0 7 0;
#X connect 12 0 11 0;
#X connect 13 0 17 0;
#X connect 14 0 4 0;
#X connect 14 1 13 0;
#X connect 15 0 14 0;
#X connect 15 1 13 1;
#X connect 16 0 17 1;
#X connect 17 0 26 0;
#X connect 18 0 16 0;
#X connect 19 0 25 0;
#X connect 20 0 21 0;
#X connect 21 0 19 1;
#X connect 22 0 24 0;
#X connect 23 0 6 1;
#X connect 24 0 15 0;
#X connect 25 0 3 0;
#X connect 26 0 0 0;
#X connect 27 0 33 2;
#X connect 29 0 5 1;
#X connect 31 0 33 1;
#X connect 33 0 34 0;
#X connect 34 0 3 0;
#X connect 35 0 33 3;
#X connect 36 0 39 0;
#X connect 36 1 40 0;
#X connect 36 2 28 0;
#X connect 36 3 38 0;
#X connect 38 0 37 0;
#X connect 39 0 30 0;
#X connect 40 0 32 0;
#X restore -107 235 pd state-saving-via-preset-manager-module;
#N canvas 297 27 563 235 parameter-nudging-system 0;
#X obj 23 67 clip 0 127;
#X obj 182 67 clip 0 127;
#X obj 351 69 clip 0 127;
#X obj 23 22 r \$0-sample-player-file-s;
#X obj 23 95 s \$0-sample-player-file-r;
#X obj 182 22 r \$0-sample-player-pitch-s;
#X obj 182 95 s \$0-sample-player-pitch-r;
#X obj 351 22 r \$0-sample-player-loop-s;
#X obj 351 95 s \$0-sample-player-loop-r;
#N canvas 0 22 484 497 param-nudge 0;
#X obj 124 234 random;
#X obj 232 335 f;
#X obj 232 368 +;
#X obj 257 166 random 2;
#X obj 124 275 t f f;
#X obj 124 351 t b f;
#X obj 124 297 *;
#X obj 257 188 sel 0 1;
#X msg 257 280 -1;
#X msg 335 280 1;
#X obj 124 149 t b b b;
#X obj 124 123 r NUDGE!;
#X obj 157 193 r NUDGE-RANGE;
#X obj 247 308 inlet;
#X obj 232 397 outlet;
#X floatatom 316 396 5 0 0 0 - - - 0;
#X connect 0 0 4 0;
#X connect 1 0 2 0;
#X connect 2 0 14 0;
#X connect 2 0 15 0;
#X connect 3 0 7 0;
#X connect 4 0 6 0;
#X connect 5 0 2 0;
#X connect 5 1 2 1;
#X connect 6 0 5 0;
#X connect 7 0 8 0;
#X connect 7 1 9 0;
#X connect 8 0 6 1;
#X connect 9 0 6 1;
#X connect 10 0 0 0;
#X connect 10 1 1 0;
#X connect 10 2 3 0;
#X connect 11 0 10 0;
#X connect 12 0 0 1;
#X connect 13 0 1 1;
#X restore 23 144 pd param-nudge;
#X obj 23 166 clip 0 127;
#X obj 23 121 r \$0-sample-player-pitch-cv-att-s;
#X obj 23 194 s \$0-sample-player-pitch-cv-att-r;
#N canvas 0 22 484 497 nudge-freq 0;
#X obj 124 234 random;
#X obj 232 335 f;
#X obj 232 368 +;
#X obj 257 166 random 2;
#X obj 124 275 t f f;
#X obj 124 351 t b f;
#X obj 124 297 *;
#X obj 257 188 sel 0 1;
#X msg 257 280 -1;
#X msg 335 280 1;
#X obj 124 149 t b b b;
#X obj 124 51 r NUDGE!;
#X obj 157 193 r NUDGE-RANGE;
#X obj 247 308 inlet;
#X obj 232 397 outlet;
#X obj 124 73 spigot;
#X obj 185 56 r frequencies2-s;
#X connect 0 0 4 0;
#X connect 1 0 2 0;
#X connect 2 0 14 0;
#X connect 3 0 7 0;
#X connect 4 0 6 0;
#X connect 5 0 2 0;
#X connect 5 1 2 1;
#X connect 6 0 5 0;
#X connect 7 0 8 0;
#X connect 7 1 9 0;
#X connect 8 0 6 1;
#X connect 9 0 6 1;
#X connect 10 0 0 0;
#X connect 10 1 1 0;
#X connect 10 2 3 0;
#X connect 11 0 15 0;
#X connect 12 0 0 1;
#X connect 13 0 1 1;
#X connect 15 0 10 0;
#X connect 16 0 15 1;
#X restore 182 44 pd nudge-freq;
#N canvas 0 22 484 497 nudge-parameters 0;
#X obj 124 234 random;
#X obj 232 335 f;
#X obj 232 368 +;
#X obj 257 166 random 2;
#X obj 124 275 t f f;
#X obj 124 351 t b f;
#X obj 124 297 *;
#X obj 257 188 sel 0 1;
#X msg 257 280 -1;
#X msg 335 280 1;
#X obj 124 149 t b b b;
#X obj 124 74 r NUDGE!;
#X obj 157 193 r NUDGE-RANGE;
#X obj 247 308 inlet;
#X obj 232 397 outlet;
#X obj 124 96 spigot;
#X obj 185 79 r parameters2-s;
#X connect 0 0 4 0;
#X connect 1 0 2 0;
#X connect 2 0 14 0;
#X connect 3 0 7 0;
#X connect 4 0 6 0;
#X connect 5 0 2 0;
#X connect 5 1 2 1;
#X connect 6 0 5 0;
#X connect 7 0 8 0;
#X connect 7 1 9 0;
#X connect 8 0 6 1;
#X connect 9 0 6 1;
#X connect 10 0 0 0;
#X connect 10 1 1 0;
#X connect 10 2 3 0;
#X connect 11 0 15 0;
#X connect 12 0 0 1;
#X connect 13 0 1 1;
#X connect 15 0 10 0;
#X connect 16 0 15 1;
#X restore 23 44 pd nudge-parameters;
#N canvas 0 22 484 497 nudge-attenuators 0;
#X obj 124 234 random;
#X obj 232 335 f;
#X obj 232 368 +;
#X obj 257 166 random 2;
#X obj 124 275 t f f;
#X obj 124 351 t b f;
#X obj 124 297 *;
#X obj 257 188 sel 0 1;
#X msg 257 280 -1;
#X msg 335 280 1;
#X obj 124 149 t b b b;
#X obj 124 71 r NUDGE!;
#X obj 157 193 r NUDGE-RANGE;
#X obj 247 308 inlet;
#X obj 232 397 outlet;
#X obj 124 93 spigot;
#X obj 201 76 r attenuators2-s;
#X connect 0 0 4 0;
#X connect 1 0 2 0;
#X connect 2 0 14 0;
#X connect 3 0 7 0;
#X connect 4 0 6 0;
#X connect 5 0 2 0;
#X connect 5 1 2 1;
#X connect 6 0 5 0;
#X connect 7 0 8 0;
#X connect 7 1 9 0;
#X connect 8 0 6 1;
#X connect 9 0 6 1;
#X connect 10 0 0 0;
#X connect 10 1 1 0;
#X connect 10 2 3 0;
#X connect 11 0 15 0;
#X connect 12 0 0 1;
#X connect 13 0 1 1;
#X connect 15 0 10 0;
#X connect 16 0 15 1;
#X restore 351 45 pd nudge-attenuators;
#X connect 0 0 4 0;
#X connect 1 0 6 0;
#X connect 2 0 8 0;
#X connect 3 0 14 0;
#X connect 5 0 13 0;
#X connect 7 0 15 0;
#X connect 9 0 10 0;
#X connect 10 0 12 0;
#X connect 11 0 9 0;
#X connect 13 0 1 0;
#X connect 14 0 0 0;
#X connect 15 0 2 0;
#X restore -106 210 pd parameter-nudging-system;
#X obj 629 270 pack 0 50;
#X obj 147 698 pack 0 50;
#X obj 590 310 *~;
#X floatatom 629 244 5 0 0 0 - - - 0;
#N canvas 494 98 732 555 change-samplesize+frequency 0;
#X obj 92 38 r \$0-sampler-reload-table;
#X floatatom 92 60 5 0 0 0 - - - 0;
#X obj 107 109 r \$0-samplesize1;
#X obj 92 137 f;
#X obj 92 79 sel 1 2 3 4 5 6 7 8;
#X obj 92 462 s \$0-samplesize;
#X obj 125 163 f;
#X obj 140 135 r \$0-samplesize2;
#X obj 145 191 f;
#X obj 178 217 f;
#X obj 160 163 r \$0-samplesize3;
#X obj 193 189 r \$0-samplesize4;
#X obj 205 248 f;
#X obj 238 274 f;
#X obj 258 302 f;
#X obj 291 328 f;
#X obj 220 220 r \$0-samplesize5;
#X obj 253 246 r \$0-samplesize6;
#X obj 273 274 r \$0-samplesize7;
#X obj 306 300 r \$0-samplesize8;
#X obj 393 45 r \$0-sampler-reload-table;
#X floatatom 393 67 5 0 0 0 - - - 0;
#X obj 393 144 f;
#X obj 393 86 sel 1 2 3 4 5 6 7 8;
#X obj 426 170 f;
#X obj 446 198 f;
#X obj 479 224 f;
#X obj 506 255 f;
#X obj 539 281 f;
#X obj 559 309 f;
#X obj 592 335 f;
#X obj 408 116 r \$0-frequencyHz1;
#X obj 441 142 r \$0-frequencyHz2;
#X obj 461 170 r \$0-frequencyHz3;
#X obj 494 196 r \$0-frequencyHz4;
#X obj 521 227 r \$0-frequencyHz5;
#X obj 554 253 r \$0-frequencyHz6;
#X obj 574 281 r \$0-frequencyHz7;
#X obj 607 307 r \$0-frequencyHz8;
#X obj 419 456 s \$0-frequencyHz;
#X connect 0 0 1 0;
#X connect 1 0 4 0;
#X connect 2 0 3 1;
#X connect 3 0 5 0;
#X connect 4 0 3 0;
#X connect 4 1 6 0;
#X connect 4 2 8 0;
#X connect 4 3 9 0;
#X connect 4 4 12 0;
#X connect 4 5 13 0;
#X connect 4 6 14 0;
#X connect 4 7 15 0;
#X connect 6 0 5 0;
#X connect 7 0 6 1;
#X connect 8 0 5 0;
#X connect 9 0 5 0;
#X connect 10 0 8 1;
#X connect 11 0 9 1;
#X connect 12 0 5 0;
#X connect 13 0 5 0;
#X connect 14 0 5 0;
#X connect 15 0 5 0;
#X connect 16 0 12 1;
#X connect 17 0 13 1;
#X connect 18 0 14 1;
#X connect 19 0 15 1;
#X connect 20 0 21 0;
#X connect 21 0 23 0;
#X connect 22 0 39 0;
#X connect 23 0 22 0;
#X connect 23 1 24 0;
#X connect 23 2 25 0;
#X connect 23 3 26 0;
#X connect 23 4 27 0;
#X connect 23 5 28 0;
#X connect 23 6 29 0;
#X connect 23 7 30 0;
#X connect 24 0 39 0;
#X connect 25 0 39 0;
#X connect 26 0 39 0;
#X connect 27 0 39 0;
#X connect 28 0 39 0;
#X connect 29 0 39 0;
#X connect 30 0 39 0;
#X connect 31 0 22 1;
#X connect 32 0 24 1;
#X connect 33 0 25 1;
#X connect 34 0 26 1;
#X connect 35 0 27 1;
#X connect 36 0 28 1;
#X connect 37 0 29 1;
#X connect 38 0 30 1;
#X restore 358 61 pd change-samplesize+frequency;
#N canvas 355 22 690 662 write-crowns 0;
#N canvas 0 22 514 566 crown1 0;
#X obj 145 455 clip~ 0 1;
#X obj 146 325 vline~;
#X obj 146 349 cos~;
#X msg 146 302 -0.25 \, 0.25 \$1;
#X floatatom 113 250 20 0 0 0 - - - 0;
#X obj 113 269 t b f, f 6;
#X msg 274 297 resize \$1;
#X obj 113 206 f;
#X obj 113 156 t b f;
#X obj 113 182 delay 100;
#X obj 113 228 / 44.1;
#X obj 116 63 f;
#X obj 116 -6 loadbang;
#X obj 116 85 t f f;
#X obj 274 253 f;
#X obj 229 158 t b f;
#X obj 229 195 delay 250;
#X obj 145 431 *~ 64;
#X obj 42 -2 loadbang;
#X obj 42 24 delay 7500;
#X msg 42 46 bang;
#X obj 131 38 r \$0-samplesize1;
#X obj 113 127 r \$0-samplesize1;
#X obj 229 136 r \$0-samplesize1;
#X obj 274 321 s \$0-crown1;
#X obj 145 512 table \$0-crown1;
#X obj 145 490 tabwrite~ \$0-crown1;
#X connect 0 0 26 0;
#X connect 1 0 2 0;
#X connect 2 0 17 0;
#X connect 3 0 1 0;
#X connect 4 0 5 0;
#X connect 5 0 26 0;
#X connect 5 1 3 0;
#X connect 6 0 24 0;
#X connect 7 0 10 0;
#X connect 8 0 9 0;
#X connect 8 1 7 1;
#X connect 9 0 7 0;
#X connect 10 0 4 0;
#X connect 11 0 13 0;
#X connect 12 0 11 0;
#X connect 13 0 8 0;
#X connect 13 1 15 0;
#X connect 14 0 6 0;
#X connect 14 0 8 0;
#X connect 15 0 16 0;
#X connect 15 1 14 1;
#X connect 16 0 14 0;
#X connect 17 0 0 0;
#X connect 18 0 19 0;
#X connect 19 0 20 0;
#X connect 20 0 11 0;
#X connect 21 0 11 1;
#X connect 22 0 8 0;
#X connect 23 0 15 0;
#X restore 23 25 pd crown1;
#N canvas 0 22 514 566 crown2 0;
#X obj 145 455 clip~ 0 1;
#X obj 146 325 vline~;
#X obj 146 349 cos~;
#X msg 146 302 -0.25 \, 0.25 \$1;
#X floatatom 113 250 20 0 0 0 - - - 0;
#X obj 113 269 t b f, f 6;
#X msg 274 297 resize \$1;
#X obj 113 206 f;
#X obj 113 156 t b f;
#X obj 113 182 delay 100;
#X obj 113 228 / 44.1;
#X obj 116 63 f;
#X obj 116 -6 loadbang;
#X obj 116 85 t f f;
#X obj 274 253 f;
#X obj 229 158 t b f;
#X obj 229 195 delay 250;
#X obj 145 431 *~ 64;
#X obj 42 -2 loadbang;
#X obj 42 24 delay 7500;
#X msg 42 46 bang;
#X obj 131 38 r \$0-samplesize2;
#X obj 113 127 r \$0-samplesize2;
#X obj 229 136 r \$0-samplesize2;
#X obj 274 321 s \$0-crown2;
#X obj 145 490 tabwrite~ \$0-crown2;
#X obj 145 512 table \$0-crown2;
#X connect 0 0 25 0;
#X connect 1 0 2 0;
#X connect 2 0 17 0;
#X connect 3 0 1 0;
#X connect 4 0 5 0;
#X connect 5 0 25 0;
#X connect 5 1 3 0;
#X connect 6 0 24 0;
#X connect 7 0 10 0;
#X connect 8 0 9 0;
#X connect 8 1 7 1;
#X connect 9 0 7 0;
#X connect 10 0 4 0;
#X connect 11 0 13 0;
#X connect 12 0 11 0;
#X connect 13 0 8 0;
#X connect 13 1 15 0;
#X connect 14 0 6 0;
#X connect 14 0 8 0;
#X connect 15 0 16 0;
#X connect 15 1 14 1;
#X connect 16 0 14 0;
#X connect 17 0 0 0;
#X connect 18 0 19 0;
#X connect 19 0 20 0;
#X connect 20 0 11 0;
#X connect 21 0 11 1;
#X connect 22 0 8 0;
#X connect 23 0 15 0;
#X restore 23 50 pd crown2;
#N canvas 0 22 514 566 crown3 0;
#X obj 145 455 clip~ 0 1;
#X obj 146 325 vline~;
#X obj 146 349 cos~;
#X msg 146 302 -0.25 \, 0.25 \$1;
#X floatatom 113 250 20 0 0 0 - - - 0;
#X obj 113 269 t b f, f 6;
#X msg 274 297 resize \$1;
#X obj 113 206 f;
#X obj 113 156 t b f;
#X obj 113 182 delay 100;
#X obj 113 228 / 44.1;
#X obj 116 63 f;
#X obj 116 -6 loadbang;
#X obj 116 85 t f f;
#X obj 274 253 f;
#X obj 229 158 t b f;
#X obj 229 195 delay 250;
#X obj 145 431 *~ 64;
#X obj 42 -2 loadbang;
#X obj 42 24 delay 7500;
#X msg 42 46 bang;
#X obj 131 38 r \$0-samplesize3;
#X obj 113 127 r \$0-samplesize3;
#X obj 229 136 r \$0-samplesize3;
#X obj 274 321 s \$0-crown3;
#X obj 145 490 tabwrite~ \$0-crown3;
#X obj 145 512 table \$0-crown3;
#X floatatom 236 80 20 0 0 0 - - - 0;
#X connect 0 0 25 0;
#X connect 1 0 2 0;
#X connect 2 0 17 0;
#X connect 3 0 1 0;
#X connect 4 0 5 0;
#X connect 5 0 25 0;
#X connect 5 1 3 0;
#X connect 6 0 24 0;
#X connect 7 0 10 0;
#X connect 8 0 9 0;
#X connect 8 1 7 1;
#X connect 9 0 7 0;
#X connect 10 0 4 0;
#X connect 11 0 13 0;
#X connect 12 0 11 0;
#X connect 13 0 8 0;
#X connect 13 1 15 0;
#X connect 14 0 6 0;
#X connect 14 0 8 0;
#X connect 15 0 16 0;
#X connect 15 1 14 1;
#X connect 16 0 14 0;
#X connect 17 0 0 0;
#X connect 18 0 19 0;
#X connect 19 0 20 0;
#X connect 20 0 11 0;
#X connect 21 0 11 1;
#X connect 21 0 27 0;
#X connect 22 0 8 0;
#X connect 23 0 15 0;
#X restore 23 78 pd crown3;
#N canvas 0 22 514 566 crown4 0;
#X obj 145 455 clip~ 0 1;
#X obj 146 325 vline~;
#X obj 146 349 cos~;
#X msg 146 302 -0.25 \, 0.25 \$1;
#X floatatom 113 250 20 0 0 0 - - - 0;
#X obj 113 269 t b f, f 6;
#X msg 274 297 resize \$1;
#X obj 113 206 f;
#X obj 113 156 t b f;
#X obj 113 182 delay 100;
#X obj 113 228 / 44.1;
#X obj 116 63 f;
#X obj 116 -6 loadbang;
#X obj 116 85 t f f;
#X obj 274 253 f;
#X obj 229 158 t b f;
#X obj 229 195 delay 250;
#X obj 145 431 *~ 64;
#X obj 42 -2 loadbang;
#X obj 42 24 delay 7500;
#X msg 42 46 bang;
#X obj 113 127 r \$0-samplesize4;
#X obj 229 136 r \$0-samplesize4;
#X obj 274 321 s \$0-crown4;
#X obj 145 490 tabwrite~ \$0-crown4;
#X obj 145 513 table \$0-crown4;
#X obj 131 38 r \$0-samplesize4;
#X connect 0 0 24 0;
#X connect 1 0 2 0;
#X connect 2 0 17 0;
#X connect 3 0 1 0;
#X connect 4 0 5 0;
#X connect 5 0 24 0;
#X connect 5 1 3 0;
#X connect 6 0 23 0;
#X connect 7 0 10 0;
#X connect 8 0 9 0;
#X connect 8 1 7 1;
#X connect 9 0 7 0;
#X connect 10 0 4 0;
#X connect 11 0 13 0;
#X connect 12 0 11 0;
#X connect 13 0 8 0;
#X connect 13 1 15 0;
#X connect 14 0 6 0;
#X connect 14 0 8 0;
#X connect 15 0 16 0;
#X connect 15 1 14 1;
#X connect 16 0 14 0;
#X connect 17 0 0 0;
#X connect 18 0 19 0;
#X connect 19 0 20 0;
#X connect 20 0 11 0;
#X connect 21 0 8 0;
#X connect 22 0 15 0;
#X connect 26 0 11 1;
#X restore 23 103 pd crown4;
#N canvas 0 22 514 566 crown5 0;
#X obj 145 455 clip~ 0 1;
#X obj 146 325 vline~;
#X obj 146 349 cos~;
#X msg 146 302 -0.25 \, 0.25 \$1;
#X floatatom 113 250 20 0 0 0 - - - 0;
#X obj 113 269 t b f, f 6;
#X msg 274 297 resize \$1;
#X obj 113 206 f;
#X obj 113 156 t b f;
#X obj 113 182 delay 100;
#X obj 113 228 / 44.1;
#X obj 116 63 f;
#X obj 116 -6 loadbang;
#X obj 116 85 t f f;
#X obj 274 253 f;
#X obj 229 158 t b f;
#X obj 229 195 delay 250;
#X obj 145 431 *~ 64;
#X obj 42 -2 loadbang;
#X obj 42 24 delay 7500;
#X msg 42 46 bang;
#X obj 131 38 r \$0-samplesize5;
#X obj 113 127 r \$0-samplesize5;
#X obj 229 136 r \$0-samplesize5;
#X obj 274 321 s \$0-crown5;
#X obj 145 490 tabwrite~ \$0-crown5;
#X obj 145 513 table \$0-crown5;
#X connect 0 0 25 0;
#X connect 1 0 2 0;
#X connect 2 0 17 0;
#X connect 3 0 1 0;
#X connect 4 0 5 0;
#X connect 5 0 25 0;
#X connect 5 1 3 0;
#X connect 6 0 24 0;
#X connect 7 0 10 0;
#X connect 8 0 9 0;
#X connect 8 1 7 1;
#X connect 9 0 7 0;
#X connect 10 0 4 0;
#X connect 11 0 13 0;
#X connect 12 0 11 0;
#X connect 13 0 8 0;
#X connect 13 1 15 0;
#X connect 14 0 6 0;
#X connect 14 0 8 0;
#X connect 15 0 16 0;
#X connect 15 1 14 1;
#X connect 16 0 14 0;
#X connect 17 0 0 0;
#X connect 18 0 19 0;
#X connect 19 0 20 0;
#X connect 20 0 11 0;
#X connect 21 0 11 1;
#X connect 22 0 8 0;
#X connect 23 0 15 0;
#X restore 23 129 pd crown5;
#N canvas 0 22 514 566 crown6 0;
#X obj 145 455 clip~ 0 1;
#X obj 146 325 vline~;
#X obj 146 349 cos~;
#X msg 146 302 -0.25 \, 0.25 \$1;
#X floatatom 113 250 20 0 0 0 - - - 0;
#X obj 113 269 t b f, f 6;
#X msg 274 297 resize \$1;
#X obj 113 206 f;
#X obj 113 156 t b f;
#X obj 113 182 delay 100;
#X obj 113 228 / 44.1;
#X obj 116 63 f;
#X obj 116 -6 loadbang;
#X obj 116 85 t f f;
#X obj 274 253 f;
#X obj 229 158 t b f;
#X obj 229 195 delay 250;
#X obj 145 431 *~ 64;
#X obj 42 -2 loadbang;
#X obj 42 24 delay 7500;
#X msg 42 46 bang;
#X obj 131 38 r \$0-samplesize6;
#X obj 113 127 r \$0-samplesize6;
#X obj 229 136 r \$0-samplesize6;
#X obj 274 321 s \$0-crown6;
#X obj 145 490 tabwrite~ \$0-crown6;
#X obj 145 513 table \$0-crown6;
#X connect 0 0 25 0;
#X connect 1 0 2 0;
#X connect 2 0 17 0;
#X connect 3 0 1 0;
#X connect 4 0 5 0;
#X connect 5 0 25 0;
#X connect 5 1 3 0;
#X connect 6 0 24 0;
#X connect 7 0 10 0;
#X connect 8 0 9 0;
#X connect 8 1 7 1;
#X connect 9 0 7 0;
#X connect 10 0 4 0;
#X connect 11 0 13 0;
#X connect 12 0 11 0;
#X connect 13 0 8 0;
#X connect 13 1 15 0;
#X connect 14 0 6 0;
#X connect 14 0 8 0;
#X connect 15 0 16 0;
#X connect 15 1 14 1;
#X connect 16 0 14 0;
#X connect 17 0 0 0;
#X connect 18 0 19 0;
#X connect 19 0 20 0;
#X connect 20 0 11 0;
#X connect 21 0 11 1;
#X connect 22 0 8 0;
#X connect 23 0 15 0;
#X restore 23 154 pd crown6;
#N canvas 0 22 514 566 crown7 0;
#X obj 145 455 clip~ 0 1;
#X obj 146 325 vline~;
#X obj 146 349 cos~;
#X msg 146 302 -0.25 \, 0.25 \$1;
#X floatatom 113 250 20 0 0 0 - - - 0;
#X obj 113 269 t b f, f 6;
#X msg 274 297 resize \$1;
#X obj 113 206 f;
#X obj 113 156 t b f;
#X obj 113 182 delay 100;
#X obj 113 228 / 44.1;
#X obj 116 63 f;
#X obj 116 -6 loadbang;
#X obj 116 85 t f f;
#X obj 274 253 f;
#X obj 229 158 t b f;
#X obj 229 195 delay 250;
#X obj 42 -2 loadbang;
#X obj 42 24 delay 7500;
#X msg 42 46 bang;
#X obj 131 38 r \$0-samplesize7;
#X obj 113 127 r \$0-samplesize7;
#X obj 229 136 r \$0-samplesize7;
#X obj 145 490 tabwrite~ \$0-crown7;
#X obj 145 513 table \$0-crown7;
#X obj 274 321 s \$0-crown7;
#X obj 145 431 *~ 64;
#X connect 0 0 23 0;
#X connect 1 0 2 0;
#X connect 2 0 26 0;
#X connect 3 0 1 0;
#X connect 4 0 5 0;
#X connect 5 0 23 0;
#X connect 5 1 3 0;
#X connect 6 0 25 0;
#X connect 7 0 10 0;
#X connect 8 0 9 0;
#X connect 8 1 7 1;
#X connect 9 0 7 0;
#X connect 10 0 4 0;
#X connect 11 0 13 0;
#X connect 12 0 11 0;
#X connect 13 0 8 0;
#X connect 13 1 15 0;
#X connect 14 0 6 0;
#X connect 14 0 8 0;
#X connect 15 0 16 0;
#X connect 15 1 14 1;
#X connect 16 0 14 0;
#X connect 17 0 18 0;
#X connect 18 0 19 0;
#X connect 19 0 11 0;
#X connect 20 0 11 1;
#X connect 21 0 8 0;
#X connect 22 0 15 0;
#X connect 26 0 0 0;
#X restore 23 184 pd crown7;
#N canvas 0 22 514 566 crown8 0;
#X obj 145 455 clip~ 0 1;
#X obj 146 325 vline~;
#X obj 146 349 cos~;
#X msg 146 302 -0.25 \, 0.25 \$1;
#X floatatom 113 250 20 0 0 0 - - - 0;
#X obj 113 269 t b f, f 6;
#X msg 274 297 resize \$1;
#X obj 113 206 f;
#X obj 113 156 t b f;
#X obj 113 182 delay 100;
#X obj 113 228 / 44.1;
#X obj 116 63 f;
#X obj 116 -6 loadbang;
#X obj 116 85 t f f;
#X obj 274 253 f;
#X obj 229 158 t b f;
#X obj 229 195 delay 250;
#X obj 145 431 *~ 64;
#X obj 42 -2 loadbang;
#X obj 42 24 delay 7500;
#X msg 42 46 bang;
#X obj 131 38 r \$0-samplesize8;
#X obj 113 127 r \$0-samplesize8;
#X obj 229 136 r \$0-samplesize8;
#X obj 274 321 s \$0-crown8;
#X obj 145 490 tabwrite~ \$0-crown8;
#X obj 145 513 table \$0-crown8;
#X connect 0 0 25 0;
#X connect 1 0 2 0;
#X connect 2 0 17 0;
#X connect 3 0 1 0;
#X connect 4 0 5 0;
#X connect 5 0 25 0;
#X connect 5 1 3 0;
#X connect 6 0 24 0;
#X connect 7 0 10 0;
#X connect 8 0 9 0;
#X connect 8 1 7 1;
#X connect 9 0 7 0;
#X connect 10 0 4 0;
#X connect 11 0 13 0;
#X connect 12 0 11 0;
#X connect 13 0 8 0;
#X connect 13 1 15 0;
#X connect 14 0 6 0;
#X connect 14 0 8 0;
#X connect 15 0 16 0;
#X connect 15 1 14 1;
#X connect 16 0 14 0;
#X connect 17 0 0 0;
#X connect 18 0 19 0;
#X connect 19 0 20 0;
#X connect 20 0 11 0;
#X connect 21 0 11 1;
#X connect 22 0 8 0;
#X connect 23 0 15 0;
#X restore 23 210 pd crown8;
#X restore 359 85 pd write-crowns;
#X obj 666 628 tabread4~;
#X obj 666 593 r \$0-select-crown;
#X floatatom 665 450 20 0 0 0 - - - 0;
#X obj 407 479 r \$0-select-table;
#X obj 407 513 tabread4~;
#X obj 856 283 r \$0-sampler-reload-table;
#X obj 856 305 change;
#X msg 857 325 0;
#X obj 147 303 / 127;
#X obj 132 546 f;
#X obj 311 274 f 1;
#X obj 323 299 /;
#X obj 311 247 t b f;
#X floatatom 323 343 20 0 0 0 - - - 0;
#X obj 147 379 *;
#X obj 323 362 t b f;
#X obj 323 321 * 2000;
#X obj 132 583 pack f f;
#X msg 147 260 127 \$1;
#X obj 147 282 -;
#X obj 147 231 r \$0-sample-player-pitch-s;
#X floatatom 206 586 5 0 0 0 - - - 0;
#X floatatom 466 318 5 0 0 0 - - - 0;
#X obj 311 220 r \$0-frequencyHz;
#X obj 177 561 r \$0-samplesize;
#X obj 714 104 r \$0-sample-player-pitch-s;
#X floatatom 714 153 5 0 0 0 - - - 0;
#X obj 714 194 t b f;
#N canvas 375 75 488 529 scale-(0-127)-(-1-2_with_1_in_middle) 0;
#X obj 137 62 / 127;
#X obj 137 200 clip 0 0.5;
#X floatatom 137 222 5 0 0 0 - - - 0;
#X obj 137 121 t f f;
#X obj 224 138 clip 0.5 1;
#X floatatom 224 160 5 0 0 0 - - - 0;
#X floatatom 137 285 5 0 0 0 - - - 0;
#X floatatom 224 245 5 0 0 0 - - - 0;
#X obj 137 387 spigot;
#X obj 224 339 spigot;
#X obj 293 243 > 0.5;
#X floatatom 293 265 5 0 0 0 - - - 0;
#X obj 137 84 t f f;
#X obj 293 284 t f f;
#X obj 320 338 == 0;
#X floatatom 137 459 5 0 0 0 - - - 0;
#X obj 138 24 inlet;
#X obj 137 478 outlet;
#X obj 243 40 hsl 128 15 0 127 0 0 empty empty empty -2 -8 0 10 #fcfcfc #000000 #000000 0 1;
#X floatatom 222 82 5 0 0 0 - - - 0;
#X obj 137 263 - 1;
#X obj 137 241 * 4;
#X obj 224 201 - 1;
#X obj 224 179 * 4;
#X connect 0 0 12 0;
#X connect 1 0 2 0;
#X connect 2 0 21 0;
#X connect 3 0 1 0;
#X connect 3 1 4 0;
#X connect 4 0 5 0;
#X connect 5 0 23 0;
#X connect 6 0 8 0;
#X connect 7 0 9 0;
#X connect 8 0 15 0;
#X connect 9 0 15 0;
#X connect 10 0 11 0;
#X connect 11 0 13 0;
#X connect 12 0 3 0;
#X connect 12 1 10 0;
#X connect 13 0 9 1;
#X connect 13 1 14 0;
#X connect 14 0 8 1;
#X connect 15 0 17 0;
#X connect 16 0 0 0;
#X connect 18 0 0 0;
#X connect 18 0 19 0;
#X connect 20 0 6 0;
#X connect 21 0 20 0;
#X connect 22 0 7 0;
#X connect 23 0 22 0;
#X restore 714 129 pd scale-(0-127)-(-1-2_with_1_in_middle);
#X obj 590 211 *;
#X floatatom 524 228 5 0 0 0 - - - 0;
#X obj 714 172 t f f;
#X obj 808 211 line~;
#X obj 808 189 pack 0 10;
#X obj 451 340 *~;
#X obj 147 401 +;
#X obj 451 362 snapshot~;
#X obj 534 325 tgl 15 0 empty empty empty 17 7 0 10 #fcfcfc #000000 #000000 0 1;
#X obj 451 384 t b f;
#X obj 451 244 r~ \$0-PITCH-CV;
#X obj 534 345 metro 20;
#X obj 451 293 *~ -1;
#X obj 534 298 loadbang;
#X obj 765 167 s \$0-sampler-gui-pitch-r;
#X obj 320 416 env~;
#X obj 320 438 == 0;
#X obj 320 460 sel 1;
#X msg 320 482 0;
#X obj 176 120 bng 15 250 50 0 \$0-sampler-original-s \$0-sampler-original-r ORIGINAL 17 7 0 10 #fcfcfc #000000 #000000;
#X obj 356 110 r \$0-sampler-original-s;
#X msg 356 132 63.5;
#X obj 356 154 s \$0-sample-player-pitch-r;
#X obj 589 748 outlet~ LEFT;
#X obj 910 359 *~;
#X obj 925 330 r \$0-samplesize;
#X obj 909 626 tabread4~;
#X obj 909 705 *~;
#X obj 986 625 tabread4~;
#X obj 986 590 r \$0-select-crown;
#X obj 793 699 tabread4~;
#X obj 909 745 outlet~ RIGHT;
#X obj 793 620 r \$0-select-tableR;
#X obj 984 551 r \$0-select-tableR;
#X obj 174 218 cnv 5 5 5 empty empty RIGHT 0 0 0 8 #fcfcfc #404040 0;
#X obj 103 217 cnv 5 5 5 empty empty LEFT 0 0 0 8 #fcfcfc #404040 0;
#X obj 589 708 *~;
#X obj 408 612 *~;
#X obj 423 585 vline~;
#X obj 105 62 t b b b;
#X msg 132 606 1 0 \, \$2 \$1 1;
#X obj 132 494 delay 1;
#X msg 423 558 0 1 \, 0.5 10 1;
#X text 435 542 ANTI POP EG;
#X obj 811 523 r \$0-sample-player-loop-s;
#X obj 811 594 line~;
#X obj 811 545 == 0;
#X obj 793 721 *~;
#X obj 408 634 *~;
#X obj 528 477 r \$0-sample-player-loop-s;
#X obj 528 548 line~;
#X obj 528 499 == 0;
#X obj 528 525 pack 0 10;
#X obj 811 571 pack 0 10;
#X obj 451 266 *~ 8;
#X obj 1052 342 snapshot~;
#X floatatom 1052 364 5 0 0 0 - - - 0;
#X obj 1053 294 tgl 15 0 empty empty empty 17 7 0 10 #fcfcfc #000000 #000000 0 1;
#X obj 1053 314 metro 20;
#X obj 1052 383 < 0.1;
#X floatatom 1052 405 5 0 0 0 - - - 0;
#X obj 1052 446 sel 1;
#X msg 1052 468 1 0 \, 0 1 1;
#X obj 1052 490 vline~;
#X obj 1052 512 outlet~ EOS;
#X obj 1052 424 change;
#X obj 258 218 cnv 5 5 5 empty empty SOS 0 0 0 8 #fcfcfc #dc4c90 0;
#X obj 108 164 hsl 128 15 0 127 0 1 \$0-sample-player-pitch-s \$0-sample-player-pitch-r PITCH 133 7 0 10 #90d4b0 #000000 #000000 0 1;
#X obj 757 -1 r \$0-sample-player-pitch-cv-att-s;
#X obj 757 21 / 127;
#X obj 757 43 pack 0 50;
#X obj 757 65 line~;
#X obj 701 39 *~;
#X obj 626 48 *~;
#X obj 1053 267 loadbang;
#X obj 701 17 *~ 16;
#N canvas 632 73 749 752 external-messages 0;
#X floatatom 43 604 5 0 0 0 - - - 0;
#X obj 185 328 spigot;
#X obj 218 288 tgl 15 0 empty empty empty 17 7 0 10 #fcfcfc #000000 #000000 0 1;
#X obj 254 272 ==;
#X obj 269 248 f \$1;
#X obj 269 224 loadbang;
#X msg 185 202 \$1 \$2;
#X msg 185 156 symbol \$1;
#X obj 185 180 pack s f;
#X obj 43 583 f;
#X obj 43 531 t b f;
#X obj 43 554 spigot;
#X obj 185 62 unpack s f f;
#X symbolatom 185 94 10 0 0 0 - - - 0;
#X obj 218 308 t f f;
#X obj 245 332 s \$0-msg-spigot;
#X obj 91 538 r \$0-msg-spigot;
#X floatatom 223 594 5 0 0 0 - - - 0;
#X obj 223 573 f;
#X obj 223 521 t b f;
#X obj 223 544 spigot;
#X obj 271 528 r \$0-msg-spigot;
#X floatatom 387 639 5 0 0 0 - - - 0;
#X obj 387 618 f;
#X obj 387 566 t b f;
#X obj 387 589 spigot;
#X obj 435 573 r \$0-msg-spigot;
#X floatatom 424 527 5 0 0 0 - - - 0;
#X obj 424 506 f;
#X obj 424 454 t b f;
#X obj 424 477 spigot;
#X obj 472 461 r \$0-msg-spigot;
#X floatatom 572 635 5 0 0 0 - - - 0;
#X obj 572 614 f;
#X obj 572 562 t b f;
#X obj 572 585 spigot;
#X obj 620 569 r \$0-msg-spigot;
#X obj 185 14 r sampler;
#X floatatom 588 486 5 0 0 0 - - - 0;
#X obj 588 465 f;
#X obj 588 413 t b f;
#X obj 588 436 spigot;
#X obj 636 420 r \$0-msg-spigot;
#X obj 43 624 s \$0-sample-player-file-r;
#X obj 223 614 s \$0-sample-player-pitch-r;
#X obj 387 659 s \$0-sample-player-pitch-cv-att-r;
#X obj 424 547 s \$0-sample-player-loop-r;
#X obj 185 380 route FILE PITCH P.CV LOOP ORIGINAL TRIG;
#X obj 572 655 s \$0-sampler-original-r;
#X obj 588 506 s \$0-sampler-triggui-r;
#X connect 0 0 43 0;
#X connect 1 0 47 0;
#X connect 2 0 14 0;
#X connect 3 0 2 0;
#X connect 4 0 3 1;
#X connect 5 0 4 0;
#X connect 6 0 1 0;
#X connect 7 0 8 0;
#X connect 8 0 6 0;
#X connect 9 0 0 0;
#X connect 10 0 11 0;
#X connect 10 1 9 1;
#X connect 11 0 9 0;
#X connect 12 0 13 0;
#X connect 12 1 8 1;
#X connect 12 2 3 0;
#X connect 13 0 7 0;
#X connect 14 0 1 1;
#X connect 14 1 15 0;
#X connect 16 0 11 1;
#X connect 17 0 44 0;
#X connect 18 0 17 0;
#X connect 19 0 20 0;
#X connect 19 1 18 1;
#X connect 20 0 18 0;
#X connect 21 0 20 1;
#X connect 22 0 45 0;
#X connect 23 0 22 0;
#X connect 24 0 25 0;
#X connect 24 1 23 1;
#X connect 25 0 23 0;
#X connect 26 0 25 1;
#X connect 27 0 46 0;
#X connect 28 0 27 0;
#X connect 29 0 30 0;
#X connect 29 1 28 1;
#X connect 30 0 28 0;
#X connect 31 0 30 1;
#X connect 32 0 48 0;
#X connect 33 0 32 0;
#X connect 34 0 35 0;
#X connect 34 1 33 1;
#X connect 35 0 33 0;
#X connect 36 0 35 1;
#X connect 37 0 12 0;
#X connect 38 0 49 0;
#X connect 39 0 38 0;
#X connect 40 0 41 0;
#X connect 40 1 39 1;
#X connect 41 0 39 0;
#X connect 42 0 41 1;
#X connect 47 0 10 0;
#X connect 47 1 19 0;
#X connect 47 2 24 0;
#X connect 47 3 29 0;
#X connect 47 4 34 0;
#X connect 47 5 40 0;
#X restore 357 180 pd external-messages;
#X obj 38 71 bng 15 250 50 0 \$0-sampler-triggui-s \$0-sampler-triggui-r empty 17 7 0 10 #fcfcfc #000000 #000000;
#X obj 269 799 state_saving_module sampler \$0 \$1;
#X obj 309 759 savestate;
#N canvas 0 50 450 300 \$0-gui_listeners 0;
#X obj 10 0 state_saving_module/bng_dispatch sampler \$0 \$1 250 50 sampler-triggui-s sampler-triggui-r empty #FFFFFF #000000 #000000;
#X obj 10 60 state_saving_module/hsl_dispatch sampler \$0 \$1 0 127 sample-player-pitch-s sample-player-pitch-r PITCH #91D6B2 #000000 #000000;
#X obj 10 120 state_saving_module/bng_dispatch sampler \$0 \$1 250 50 sampler-original-s sampler-original-r ORIGINAL #FFFFFF #000000 #000000;
#X obj 10 180 state_saving_module/tgl_dispatch sampler \$0 \$1 0 1 sample-player-loop-s sample-player-loop-r LOOP #FFFFFF #000000 #000000;
#X obj 10 240 state_saving_module/hsl_dispatch sampler \$0 \$1 0 127 sample-player-pitch-cv-att-s sample-player-pitch-cv-att-r P.CV #9999DE #000000 #000000;
#X obj 10 300 state_saving_module/hsl_dispatch sampler \$0 \$1 0 127 sample-player-file-s sample-player-file-r FILE #FFFFFF #000000 #000000;
#X restore 269 829 pd \$0-gui_listeners;
#X obj 387 828 namecanvas \$0-this;
#X connect 2 0 3 0;
#X connect 2 0 106 0;
#X connect 2 0 137 0;
#X connect 3 0 21 0;
#X connect 3 0 53 0;
#X connect 4 0 3 1;
#X connect 4 0 55 0;
#X connect 6 0 82 0;
#X connect 7 0 8 0;
#X connect 8 0 49 0;
#X connect 9 0 8 1;
#X connect 11 0 155 0;
#X connect 11 0 157 0;
#X connect 12 0 24 0;
#X connect 15 0 50 0;
#X connect 16 0 49 1;
#X connect 17 0 57 0;
#X connect 17 0 112 0;
#X connect 18 0 19 0;
#X connect 19 0 48 0;
#X connect 20 0 21 0;
#X connect 21 0 118 0;
#X connect 22 0 17 1;
#X connect 23 0 17 0;
#X connect 24 0 121 0;
#X connect 25 0 26 0;
#X connect 26 0 27 0;
#X connect 27 0 2 1;
#X connect 34 0 36 0;
#X connect 35 0 37 0;
#X connect 37 0 38 0;
#X connect 41 0 43 0;
#X connect 43 0 44 0;
#X connect 44 0 42 0;
#X connect 47 0 16 0;
#X connect 48 0 22 0;
#X connect 49 0 2 0;
#X connect 50 0 47 0;
#X connect 53 0 118 1;
#X connect 54 0 53 0;
#X connect 56 0 57 0;
#X connect 57 0 119 0;
#X connect 58 0 59 0;
#X connect 59 0 60 0;
#X connect 60 0 2 1;
#X connect 61 0 67 0;
#X connect 62 0 70 0;
#X connect 63 0 64 0;
#X connect 64 0 69 0;
#X connect 65 0 63 0;
#X connect 65 1 64 1;
#X connect 66 0 68 0;
#X connect 67 0 75 0;
#X connect 67 0 88 0;
#X connect 68 0 67 0;
#X connect 68 1 67 1;
#X connect 69 0 66 0;
#X connect 70 0 122 0;
#X connect 71 0 72 0;
#X connect 72 0 61 0;
#X connect 73 0 71 0;
#X connect 75 0 87 1;
#X connect 76 0 65 0;
#X connect 77 0 70 1;
#X connect 77 0 74 0;
#X connect 78 0 81 0;
#X connect 79 0 84 0;
#X connect 79 0 96 0;
#X connect 80 0 82 0;
#X connect 80 1 82 1;
#X connect 81 0 79 0;
#X connect 82 0 7 0;
#X connect 82 0 83 0;
#X connect 84 0 80 0;
#X connect 84 1 86 0;
#X connect 85 0 9 1;
#X connect 86 0 85 0;
#X connect 87 0 89 0;
#X connect 88 0 62 1;
#X connect 89 0 91 0;
#X connect 90 0 93 0;
#X connect 91 0 88 0;
#X connect 91 1 88 1;
#X connect 92 0 97 0;
#X connect 92 0 136 0;
#X connect 93 0 89 0;
#X connect 94 0 87 0;
#X connect 95 0 90 0;
#X connect 97 0 98 0;
#X connect 98 0 99 0;
#X connect 99 0 100 0;
#X connect 100 0 88 1;
#X connect 102 0 103 0;
#X connect 103 0 104 0;
#X connect 106 0 108 0;
#X connect 106 0 110 0;
#X connect 107 0 106 1;
#X connect 108 0 109 0;
#X connect 109 0 113 0;
#X connect 110 0 109 1;
#X connect 111 0 110 0;
#X connect 112 0 129 0;
#X connect 114 0 112 0;
#X connect 115 0 108 0;
#X connect 118 0 105 0;
#X connect 119 0 130 0;
#X connect 120 0 119 1;
#X connect 121 0 14 0;
#X connect 121 1 123 0;
#X connect 121 2 124 0;
#X connect 122 0 23 0;
#X connect 123 0 62 0;
#X connect 124 0 120 0;
#X connect 126 0 128 0;
#X connect 127 0 129 1;
#X connect 128 0 135 0;
#X connect 129 0 113 0;
#X connect 130 0 105 0;
#X connect 131 0 133 0;
#X connect 132 0 130 1;
#X connect 133 0 134 0;
#X connect 134 0 132 0;
#X connect 135 0 127 0;
#X connect 136 0 94 0;
#X connect 137 0 138 0;
#X connect 138 0 141 0;
#X connect 139 0 140 0;
#X connect 140 0 137 0;
#X connect 141 0 142 0;
#X connect 142 0 147 0;
#X connect 143 0 144 0;
#X connect 144 0 145 0;
#X connect 145 0 146 0;
#X connect 147 0 143 0;
#X connect 150 0 151 0;
#X connect 151 0 152 0;
#X connect 152 0 153 0;
#X connect 153 0 154 1;
#X connect 153 0 155 1;
#X connect 154 0 9 0;
#X connect 155 0 10 0;
#X connect 156 0 139 0;
#X connect 157 0 154 0;
#X connect 159 0 14 0;
#X connect 159 0 121 0;
#X connect 160 0 161 0;
#X connect 161 0 160 0;
#X connect 161 1 160 1;
#X coords 0 -1 1 1 175 125 2 100 100;
