#N canvas 481 48 735 477 10;
#X obj 148 145 t b f;
#X obj 148 170 f;
#X obj 180 170 + 1;
#X obj 148 194 % 5;
#X floatatom 148 216 5 0 0 0 - - -, f 5;
#X obj 148 259 == 0;
#X obj 148 281 == 0;
#X floatatom 148 303 5 0 0 0 - - -, f 5;
#X obj 352 346 t f f;
#X msg 352 489 color \$1 \$1 \$1;
#X floatatom 352 252 5 0 0 0 - - -, f 5;
#X obj 148 235 t f f;
#X obj 379 369 - 1;
#X floatatom 352 293 5 0 0 0 - - -, f 5;
#X floatatom 405 313 5 0 0 0 - - -, f 5;
#X obj 352 271 moses 1;
#X obj 405 288 + 3;
#X obj 148 470 s;
#X obj 201 301 pack f f;
#X obj 148 123 inlet;
#X obj 352 567 s;
#X obj 201 263 f \$1;
#X obj 201 227 loadbang;
#X obj 379 464 s;
#X msg 394 437 symbol \$2-seq1-r\$1-r;
#X msg 367 531 symbol \$2-t\$1-r;
#X msg 201 411 symbol \$2-seq1-t\$1-r;
#X obj 201 433 print;
#X obj 246 265 inlet;
#X connect 0 0 1 0;
#X connect 1 0 2 0;
#X connect 1 0 3 0;
#X connect 2 0 1 1;
#X connect 3 0 4 0;
#X connect 4 0 11 0;
#X connect 5 0 6 0;
#X connect 6 0 7 0;
#X connect 7 0 17 0;
#X connect 8 0 9 0;
#X connect 8 1 12 0;
#X connect 9 0 20 0;
#X connect 10 0 15 0;
#X connect 11 0 5 0;
#X connect 11 1 10 0;
#X connect 12 0 23 0;
#X connect 13 0 8 0;
#X connect 14 0 8 0;
#X connect 15 0 13 0;
#X connect 15 1 16 0;
#X connect 16 0 14 0;
#X connect 18 0 26 0;
#X connect 18 0 25 0;
#X connect 18 0 24 0;
#X connect 19 0 0 0;
#X connect 21 0 18 0;
#X connect 22 0 21 0;
#X connect 24 0 23 1;
#X connect 25 0 20 1;
#X connect 26 0 17 1;
#X connect 26 0 27 0;
#X connect 28 0 18 1;
