#N canvas -18 128 1851 994 10;
#X obj 443 13 inlet~;
#X text 441 -6 CLOCK IN;
#X obj 442 187 f;
#X obj 517 284 + 1;
#X obj 135 128 cnv 5 5 5 empty empty SEQTABLE 0 0 0 12 #fcfcfc #404040 0;
#X msg 852 101 0;
#X text 849 5 RESET IN;
#X obj 103 110 cnv 5 5 5 empty empty CLOCK-IN 0 0 0 8 #fcfcfc #dc4c90 0;
#X obj 291 111 cnv 5 5 5 empty empty RESET 0 0 0 8 #fcfcfc #dc4c90 0;
#X obj 299 116 bng 12 50 50 0 empty empty empty 17 7 0 10 #fcfcfc #fc0400 #000000;
#X obj 852 70 t b b;
#X obj 892 76 loadbang;
#X obj 105 115 bng 12 50 50 0 empty empty empty 17 7 0 10 #fcfcfc #dc4c90 #000000;
#X obj 197 128 cnv 5 5 5 empty \$0-instance-num 0 0 0 0 12 #fcfcfc #404040 0;
#X obj 852 48 threshold~ 0.99 0 1 0;
#X obj 443 35 threshold~ 0.9 0 0.9 0;
#X obj 135 77 namecanvas \$0-this;
#N canvas 1368 87 450 250 (subpatch) 0;
#X array \$0-seqtable 8 float 2;
#X coords 0 1 8 0 220 74 1 0 0;
#X restore 102 156 graph;
#X obj 486 186 r \$0-array_size-s;
#X obj 163 110 cnv 5 5 5 empty empty OFFSET 0 0 0 8 #fcfcfc #000000 0;
#X obj 618 21 inlet~;
#X obj 1156 171 loadbang;
#X obj 1156 194 array size \$0-seqtable;
#X obj 1183 225 s \$0-array_size-s;
#X msg 1185 287 set \$1;
#X obj 1185 310 s \$0-array_size-r;
#X obj 1130 151 bng 18 250 50 0 empty empty empty 0 -9 0 10 #fcfcfc #000000 #000000;
#N canvas 479 142 836 871 function_generator 0;
#X obj -32 143 cnv 5 5 5 empty empty S1 0 0 0 8 #fcfcfc #dc4c90 0;
#N canvas 0 0 450 300 \$0-expr 0;
#X obj 10 10 r \$0-expr-r;
#X obj 10 90 s \$0-expr-s;
#X obj 10 40 expr $f1;
#X connect 0 0 2 0;
#X connect 2 0 1 0;
#X restore 565 225 pd \$0-expr;
#X obj 373 818 s pd-\$0-expr;
#X obj 269 678 list trim;
#X obj 269 655 list prepend obj 10 40 expr;
#X msg 460 756 clear \, obj 10 10 r \$1;
#X msg 277 783 obj 10 90 s \$1 \, connect 0 0 1 0 \, connect 1 0 2 0;
#X obj 279 128 list fromsymbol;
#X obj 272 182 list length;
#X obj 272 205 until;
#X obj 324 237 list append;
#X obj 324 260 list split 1;
#X obj 317 327 select 120;
#X msg 417 422 36 102 49;
#X obj 305 448 list prepend;
#X obj 305 471 t l l;
#X obj 268 501 list append;
#X obj 268 524 list tosymbol;
#X obj 30 321 f;
#X obj 24 381 until;
#X obj 27 443 f;
#X obj 76 445 + 1;
#X obj 13 504 /;
#X obj 30 344 t f b f;
#X msg 50 410 0;
#X obj 17 466 t f f f;
#X obj -43 530 s \$0-expr-r;
#X obj -9 556 r \$0-expr-s;
#X obj -18 616 tabwrite \$0-seqtable;
#X msg 51 65 resize \$1;
#X obj 321 296 t f f b, f 29;
#X obj 415 333 f;
#X msg 426 182 0;
#X obj 316 356 f;
#X obj 315 390 select 97 101;
#X msg 303 419 120;
#X text 410 364 si x est précédé de 'a' ou 'e' (comme dans 'max' ou 'exp') \, ne pas le substituer par $f1;
#X msg 681 264 set \$1;
#X obj 688 284 s \$0-function_gui-r;
#X obj 342 11 r \$0-function_gui-s;
#X obj 269 701 t b a b;
#X obj 28 258 spigot;
#N canvas 1214 87 450 300 check_syntax_error 0;
#X obj 48 28 inlet;
#X obj 44 279 outlet;
#X obj 57 68 t b b b;
#X obj 67 121 s \$0-expr-r;
#X obj 65 147 r \$0-expr-s;
#X obj 39 200 f;
#X obj 39 243 t f f;
#X obj 144 274 s \$0-syntax_highlight;
#X msg 186 208 color #dddddd #dddddd;
#X msg 89 94 1;
#X msg 141 88 0;
#X msg 65 170 1;
#X obj 163 167 select 0 1;
#X msg 141 238 color #ff8888 #ff8888;
#X connect 0 0 2 0;
#X connect 2 0 5 0;
#X connect 2 1 9 0;
#X connect 2 2 10 0;
#X connect 4 0 11 0;
#X connect 5 0 6 0;
#X connect 6 0 1 0;
#X connect 6 1 12 0;
#X connect 8 0 7 0;
#X connect 9 0 3 0;
#X connect 10 0 5 1;
#X connect 11 0 5 1;
#X connect 12 0 13 0;
#X connect 12 1 8 0;
#X connect 13 0 7 0;
#X restore 116 231 pd check_syntax_error;
#X obj 135 199 loadbang;
#X obj 279 151 t b b l l b b;
#X obj 84 200 t b b;
#X obj 29 17 r \$0-array_size-s;
#X obj 29 164 spigot 1;
#X obj 160 39 r \$0-mode-s;
#X obj 29 41 t f f;
#X obj 46 122 t b f;
#X obj 277 760 symbol \\\$0-expr-s;
#X obj 458 728 symbol \\\$0-expr-r;
#X obj 141 114 == 5;
#X obj 554 12 r \$0-mode-s;
#X obj 520 180 s \$0-mode-r;
#X msg 752 56 5;
#X obj 342 34 t s s b;
#X obj 372 102 s \$0-function;
#X obj 681 241 r \$0-function;
#X obj 268 547 s \$0-coded_expr;
#X obj 268 577 r \$0-coded_expr;
#X obj 47 90 s \$0-seqtable;
#X obj 727 15 r \$0-f(x)_mode-s;
#X msg 520 142 color 0 0 -1;
#X msg 661 144 color 0 -1 -1;
#X obj 661 182 s \$0-f(x)_mode-r;
#X obj 748 84 s \$0-mode-s;
#X obj 400 79 s \$0-mode-r;
#X obj 554 35 select 4 5;
#X obj 542 71 t b;
#X msg 543 109 color 0 -1 -1;
#X msg 683 112 color 0 0 -1;
#X obj 268 616 select symbol;
#X obj 47 708 s \$0-function_gui-r;
#X msg 138 656 symbol x;
#X msg 388 54 5;
#X connect 3 0 40 0;
#X connect 4 0 3 0;
#X connect 5 0 2 0;
#X connect 6 0 2 0;
#X connect 7 0 44 0;
#X connect 8 0 9 0;
#X connect 9 0 10 0;
#X connect 10 0 11 0;
#X connect 11 0 30 0;
#X connect 11 1 10 1;
#X connect 12 0 33 0;
#X connect 12 1 14 0;
#X connect 13 0 14 0;
#X connect 14 0 15 0;
#X connect 15 0 16 1;
#X connect 15 1 14 1;
#X connect 16 0 17 0;
#X connect 17 0 60 0;
#X connect 18 0 23 0;
#X connect 19 0 20 0;
#X connect 20 0 25 0;
#X connect 21 0 20 1;
#X connect 22 0 26 0;
#X connect 23 0 19 0;
#X connect 23 1 24 0;
#X connect 23 2 22 1;
#X connect 24 0 20 1;
#X connect 25 0 22 0;
#X connect 25 1 21 0;
#X connect 25 2 28 1;
#X connect 27 0 28 0;
#X connect 29 0 62 0;
#X connect 30 0 12 0;
#X connect 30 1 31 1;
#X connect 30 2 31 0;
#X connect 31 0 33 1;
#X connect 32 0 31 1;
#X connect 33 0 34 0;
#X connect 34 0 35 0;
#X connect 34 1 35 0;
#X connect 34 2 13 0;
#X connect 35 0 14 0;
#X connect 37 0 38 0;
#X connect 39 0 57 0;
#X connect 40 0 51 0;
#X connect 40 1 2 0;
#X connect 40 2 52 0;
#X connect 41 0 18 0;
#X connect 42 0 41 1;
#X connect 43 0 42 0;
#X connect 44 0 45 0;
#X connect 44 1 16 0;
#X connect 44 2 8 0;
#X connect 44 3 10 1;
#X connect 44 4 14 1;
#X connect 44 5 32 0;
#X connect 45 0 41 0;
#X connect 45 1 42 0;
#X connect 46 0 49 0;
#X connect 47 0 41 0;
#X connect 48 0 53 0;
#X connect 49 0 50 0;
#X connect 49 1 29 0;
#X connect 50 0 47 0;
#X connect 50 1 18 1;
#X connect 51 0 6 0;
#X connect 52 0 5 0;
#X connect 53 0 47 1;
#X connect 54 0 69 0;
#X connect 56 0 67 0;
#X connect 57 0 7 0;
#X connect 57 1 58 0;
#X connect 57 2 76 0;
#X connect 59 0 37 0;
#X connect 61 0 73 0;
#X connect 63 0 56 0;
#X connect 64 0 55 0;
#X connect 65 0 66 0;
#X connect 69 0 70 0;
#X connect 69 1 70 0;
#X connect 69 2 71 0;
#X connect 69 2 72 0;
#X connect 70 0 64 0;
#X connect 70 0 65 0;
#X connect 71 0 55 0;
#X connect 72 0 66 0;
#X connect 73 0 75 0;
#X connect 73 1 4 0;
#X connect 75 0 74 0;
#X connect 76 0 68 0;
#X restore 119 471 pd function_generator;
#X obj 568 617 tabread~ \$0-seqtable;
#X obj 119 385 cnv 15 175 15 empty \$0-syntax_highlight empty 20 12 0 10 #dddddd #404040 0;
#X symbolatom 119 386 32 0 0 0 y= \$0-function_gui-r \$0-function_gui-s 0;
#X obj 1193 255 r \$0-array_size-s;
#X obj 835 706 outlet~;
#X obj 1407 185 select 1 0;
#X obj 443 146 spigot 0;
#X obj 494 118 == 1;
#X floatatom 283 139 5 0 0 0 INDEX \$0-index_gui-r \$0-index_gui-s 0;
#X obj 412 250 mod 8;
#X obj 105 230 hsl 214 15 0 1 0 0 \$0-index_slider_gui-s \$0-index_slider_gui-r empty -2 -9 0 10 #feffc6 #000000 #000000 0 0;
#N canvas 0 32 1920 994 arpeggiator 0;
#X obj 603 648 outlet;
#X obj 643 108 notein;
#X obj 614 161 pack f f;
#X obj 1048 91 text define \$0-notes;
#X obj 887 269 text search \$0-notes;
#X msg 918 244 \$1;
#X obj 887 292 select -1;
#X obj 940 317 text delete \$0-notes;
#X obj 886 590 text insert \$0-notes;
#X obj 804 302 spigot;
#X msg 851 266 \$2;
#X obj 614 184 t b l l l;
#X obj 415 418 text sequence \$0-notes;
#X msg 576 378 line 0 \, bang;
#X obj 508 287 text size \$0-notes;
#X obj 509 311 select 0;
#X obj 452 475 f;
#X obj 483 475 + 1;
#X obj 415 649 tabwrite \$0-seqtable;
#X obj 390 444 unpack f f;
#X obj 776 97 r \$0-mode-s;
#X obj 776 120 == 1;
#X obj 617 414 s \$0-array_size-s;
#X obj 584 356 t f f b;
#X msg 534 460 0;
#X msg 935 550 1e+30;
#X msg 1143 788 0;
#X msg 1172 787 1;
#X obj 661 258 spigot;
#X obj 775 150 t f f;
#X obj 754 178 select 1;
#X obj 569 324 * 1;
#X obj 596 307 r \$0-oct-s;
#X obj 173 433 list prepend 1;
#X obj 261 396 r \$0-oct-s;
#X obj 173 456 route 1 2 3;
#X msg 167 491 \$1 0;
#X msg 206 488 \$1 0 \, \$1 12;
#X msg 296 483 \$1 0 \, \$1 12 \, \$1 24;
#X obj 303 517 +;
#X obj 303 540 t f b;
#X obj 1169 751 t b;
#X obj 1181 274 r \$0-oct_gui-s;
#X obj 1181 297 + 1;
#X obj 1181 320 s \$0-oct-s;
#X obj 1296 329 r \$0-oct-s;
#X obj 1296 352 - 1;
#X msg 1296 375 set \$1;
#X obj 1296 398 s \$0-oct_gui-r;
#X obj 798 375 list prepend 0;
#X obj 870 346 r \$0-order-s;
#X obj 877 502 t l b;
#X obj 1043 514 text search \$0-notes > 0;
#X msg 1026 475 \$1;
#X obj 999 441 t l l;
#X obj 1055 543 select -1;
#X msg 1203 472 \$1;
#X obj 1176 438 t l l;
#X obj 1220 511 text search \$0-notes < 0;
#X obj 876 403 route 0 1 2, f 47;
#X obj 359 595 / 127;
#X obj 676 658 notein;
#X obj 700 708 r \$0-mode-s;
#X obj 700 731 == 2;
#X obj 646 757 spigot;
#X obj 662 908 tabwrite \$0-seqtable;
#X obj 671 816 / 127;
#X obj 630 688 poly 1 1;
#X obj 1240 742 select;
#X obj 1240 765 f;
#X obj 1232 708 t f f f;
#X obj 1240 788 select 0 2;
#X obj 1232 685 r \$0-mode-s;
#X obj 573 730 t b f;
#X obj 634 716 spigot;
#X obj 448 842 == 0;
#X obj 488 871 r \$0-mode-s;
#X obj 488 894 == 2;
#X obj 379 866 spigot;
#X obj 379 889 spigot;
#X obj 379 935 s \$0-index_gui-s;
#X obj 1212 847 f;
#X obj 1242 847 == 0;
#X obj 379 912 v \$0-index_gui-s;
#X obj 818 778 inlet~;
#X obj 773 857 snapshot~;
#X obj 657 783 t f b;
#X obj 1121 702 r \$0-seq_on-s;
#X obj 448 819 r \$0-seq_on-s;
#X obj 1206 882 s \$0-arp_trig;
#X obj 601 619 r \$0-arp_trig;
#X obj 1237 818 r \$0-arp_trig;
#X obj 1397 748 r \$0-arp_trig;
#X msg 1370 824 set \$1;
#X obj 1377 859 s \$0-mute-r;
#X obj 1383 786 == 0;
#X obj 1470 804 == 0;
#X obj 1491 830 s \$0-arp_trig;
#X obj 1470 781 r \$0-mute-s;
#X text 1275 649 SEQ MUTE;
#X connect 1 0 2 0;
#X connect 1 1 2 1;
#X connect 2 0 11 0;
#X connect 4 0 6 0;
#X connect 5 0 4 0;
#X connect 6 1 7 0;
#X connect 9 0 49 0;
#X connect 10 0 9 1;
#X connect 11 0 28 0;
#X connect 11 1 9 0;
#X connect 11 2 10 0;
#X connect 11 3 5 0;
#X connect 12 0 19 0;
#X connect 13 0 12 0;
#X connect 14 0 15 0;
#X connect 15 0 26 0;
#X connect 15 1 31 0;
#X connect 16 0 17 0;
#X connect 16 0 18 1;
#X connect 17 0 16 1;
#X connect 19 0 33 0;
#X connect 20 0 21 0;
#X connect 21 0 29 0;
#X connect 23 0 13 0;
#X connect 23 1 22 0;
#X connect 23 2 24 0;
#X connect 23 2 27 0;
#X connect 24 0 16 1;
#X connect 25 0 8 1;
#X connect 26 0 81 0;
#X connect 27 0 81 0;
#X connect 28 0 14 0;
#X connect 29 0 30 0;
#X connect 29 1 28 1;
#X connect 30 0 28 0;
#X connect 31 0 23 0;
#X connect 32 0 31 1;
#X connect 33 0 35 0;
#X connect 34 0 33 1;
#X connect 35 0 36 0;
#X connect 35 1 37 0;
#X connect 35 2 38 0;
#X connect 36 0 39 0;
#X connect 37 0 39 0;
#X connect 38 0 39 0;
#X connect 39 0 40 0;
#X connect 40 0 60 0;
#X connect 40 1 16 0;
#X connect 41 0 27 0;
#X connect 42 0 43 0;
#X connect 43 0 44 0;
#X connect 45 0 46 0;
#X connect 46 0 47 0;
#X connect 47 0 48 0;
#X connect 49 0 59 0;
#X connect 50 0 49 1;
#X connect 51 0 8 0;
#X connect 51 1 25 0;
#X connect 52 0 55 0;
#X connect 53 0 52 0;
#X connect 54 0 8 0;
#X connect 54 1 53 0;
#X connect 55 0 25 0;
#X connect 55 1 8 1;
#X connect 56 0 58 0;
#X connect 57 0 8 0;
#X connect 57 1 56 0;
#X connect 58 0 55 0;
#X connect 59 0 51 0;
#X connect 59 1 54 0;
#X connect 59 2 57 0;
#X connect 60 0 18 0;
#X connect 61 0 67 0;
#X connect 61 1 67 1;
#X connect 62 0 63 0;
#X connect 63 0 64 1;
#X connect 64 0 86 0;
#X connect 66 0 65 0;
#X connect 67 1 74 0;
#X connect 67 2 74 1;
#X connect 68 0 69 0;
#X connect 69 0 71 0;
#X connect 70 0 68 1;
#X connect 70 1 68 0;
#X connect 70 2 69 1;
#X connect 71 0 81 0;
#X connect 71 1 81 0;
#X connect 72 0 70 0;
#X connect 73 0 78 0;
#X connect 73 1 64 0;
#X connect 74 0 73 0;
#X connect 75 0 78 1;
#X connect 76 0 77 0;
#X connect 77 0 79 1;
#X connect 78 0 79 0;
#X connect 79 0 83 0;
#X connect 81 0 82 0;
#X connect 81 0 89 0;
#X connect 82 0 81 1;
#X connect 83 0 80 0;
#X connect 84 0 85 0;
#X connect 85 0 65 1;
#X connect 86 0 66 0;
#X connect 86 1 85 0;
#X connect 88 0 75 0;
#X connect 90 0 0 0;
#X connect 91 0 82 0;
#X connect 92 0 95 0;
#X connect 93 0 94 0;
#X connect 95 0 93 0;
#X connect 96 0 97 0;
#X connect 98 0 96 0;
#X restore 908 592 pd arpeggiator;
#X obj 571 652 clip~ 0 1;
#X obj 714 715 outlet~;
#N canvas 1368 87 450 300 round~ 0;
#X obj 48 56 inlet~;
#X obj 59 220 outlet~;
#X obj 66 97 *~ 127;
#X obj 66 120 +~ 0.5;
#X obj 91 140 wrap~;
#X obj 64 157 -~;
#X obj 64 180 /~ 127;
#X connect 0 0 2 0;
#X connect 2 0 3 0;
#X connect 3 0 4 0;
#X connect 3 0 5 0;
#X connect 4 0 5 1;
#X connect 5 0 6 0;
#X connect 6 0 1 0;
#X restore 557 687 pd round~;
#X obj 107 424 cnv 5 5 5 empty empty Q-OUT 0 0 0 8 #fcfcfc #404040 0;
#X obj 163 425 cnv 5 5 5 empty empty OUT2 0 0 0 8 #fcfcfc #000000 0;
#X obj 561 715 outlet~;
#X msg 412 316 set \$1;
#X obj 413 340 s \$0-index_gui-r;
#X obj 404 223 r \$0-index_gui-s;
#X obj 569 494 +~ 0;
#X obj 602 459 / 1;
#X obj 569 521 wrap~;
#X obj 569 573 *~;
#X obj 620 550 r \$0-array_size-s;
#X obj 387 401 loadbang;
#X obj 374 481 snapshot~;
#X obj 102 248 tgl 18 0 \$0-seq_on-s \$0-seq_on-r COUNTER\ OFF 21 9 0 10 #fcfcfc #fcfcfc #000000 0 1;
#X obj 359 384 bng 18 250 50 0 empty empty empty 0 -9 0 10 #fcfcfc #000000 #000000;
#X obj 607 412 t b f;
#X obj 462 391 delay 20;
#X obj 387 425 metro 200;
#X obj 104 329 vradio 12 1 0 3 \$0-mode-s \$0-mode-r PATTERN 0 -8 0 10 #fcfcfc #000000 #000000 0;
#X obj 419 638 s \$0-index-s;
#X obj 230 425 cnv 5 5 5 empty empty CLOCK-OUT 0 0 0 8 #fcfcfc #dc4c90 0;
#X obj 838 546 vline~;
#X msg 839 517 1 0 \, 0 1 1;
#X text 614 4 OFFSET;
#X obj 592 275 *~ 0.999999;
#N canvas 0 0 462 523 update 0;
#X text 51 11 update index_gui when index_slider_gui is moved;
#X obj 50 70 inlet~;
#X text 35 46 from OFFSET;
#X obj 86 210 r \$0-array_size-s;
#X obj 37 428 s \$0-index_gui-r;
#X obj 53 242 * 1;
#X obj 60 120 r \$0-index_slider_gui-s;
#X obj 59 144 t f b;
#X obj 113 173 snapshot~;
#X obj 146 237 r \$0-array_size-s;
#X obj 123 267 *;
#X obj 53 306 -;
#X obj 102 379 mod;
#X obj 95 287 int;
#X obj 22 337 moses 0;
#X obj 22 360 - 0.99;
#X connect 1 0 8 0;
#X connect 3 0 5 1;
#X connect 5 0 11 0;
#X connect 6 0 7 0;
#X connect 7 0 5 0;
#X connect 7 1 8 0;
#X connect 8 0 10 0;
#X connect 9 0 10 1;
#X connect 9 0 12 1;
#X connect 10 0 13 0;
#X connect 11 0 14 0;
#X connect 12 0 4 0;
#X connect 13 0 11 1;
#X connect 14 0 15 0;
#X connect 14 1 12 0;
#X connect 15 0 12 0;
#X restore 616 318 pd update index_gui when index_slider_gui is moved;
#X f 25;
#N canvas 0 0 450 300 update 0;
#X obj 33 32 inlet;
#X text 36 10 update index_slider_gui;
#X msg 50 193 set \$1;
#X obj 48 216 s \$0-index_slider_gui-r;
#X obj 92 32 r \$0-array_size-s;
#X obj 47 111 int;
#X obj 48 165 / 1;
#X obj 44 60 * 1;
#X obj 47 136 + 0.5;
#X obj 48 87 - 1e-09;
#X connect 0 0 7 0;
#X connect 2 0 3 0;
#X connect 4 0 6 1;
#X connect 4 0 7 1;
#X connect 5 0 8 0;
#X connect 6 0 2 0;
#X connect 7 0 9 0;
#X connect 8 0 6 0;
#X connect 9 0 5 0;
#X restore 370 779 pd update index_slider_gui;
#X obj 414 284 t f b b f f;
#X obj 1413 286 s \$0-seq_on-r;
#X obj 1398 77 r \$0-seq_on-s;
#X obj 494 95 r \$0-seq_on-s;
#X obj 200 140 nbx 4 16 1 2048 0 0 \$0-array_size-s \$0-array_size-r SIZE -26 7 0 10 #fcfcfc #000000 #000000 0 256;
#X obj 10 50 reloaded seqtable \$0 \$1;
#X obj 50 10 savestate;
#N canvas 848 547 450 300 \$0-gui_listeners 0;
#X obj 10 0 reloaded/nbx_dispatch seqtable \$0 \$1 1 2048 array_size-s array_size-r SIZE #fcfcfc #000000 #000000;
#X obj 10 180 reloaded/hsl_dispatch seqtable \$0 \$1 0 1 index_slider_gui-s index_slider_gui-r empty #feffc6 #000000 #000000 lin;
#X obj 10 240 reloaded/vradio_dispatch seqtable \$0 \$1 0 2 order-s order-r empty #fcfcfc #000000 #000000;
#X obj 10 300 reloaded/vradio_dispatch seqtable \$0 \$1 0 2 oct_gui-s oct_gui-r empty #fcfcfc #000000 #000000;
#X obj 10 120 reloaded/tgl_dispatch seqtable \$0 \$1 0 1 seq_on-s seq_on-r COUNTER #fcfcfc #000000 #000000;
#X obj 10 60 reloaded/vradio_dispatch seqtable \$0 \$1 0 3 mode-s mode-r PATTERN #fcfcfc #000000 #000000;
#X restore 10 80 pd \$0-gui_listeners;
#N canvas 449 61 1136 929 state-saving-multiple-instances 0;
#X obj 137 29 loadbang;
#X msg 654 435 rewind;
#X msg 611 435 bang;
#X obj 42 691 reloaded/textfile \$0;
#X obj 611 396 t b b;
#X obj 43 357 f;
#X obj 56 580 f;
#X obj -16 401 t b b b;
#X msg 119 580 clear;
#X obj 204 217 outlet;
#X text 246 221 INSTANCE NUMBER;
#X obj 165 153 f \$1;
#X obj 165 189 t f f f;
#X obj 138 62 t b b;
#X obj -16 378 bng 15 250 50 0 empty \$0-save-s empty 17 7 0 10 #fcfcfc #000000 #000000;
#X obj -16 234 r SAVE-S;
#X obj 384 452 reloaded/textfile \$0 init;
#X obj 80 278 r \$0-mode-s;
#X obj 98 303 r \$0-oct_gui-s;
#X obj 118 328 r \$0-order-s;
#X obj 427 817 s \$0-mode-r;
#X obj 448 795 s \$0-oct_gui-r;
#X obj 470 773 s \$0-order-r;
#X obj 136 349 r \$0-function;
#X obj 492 751 s \$0-function;
#X obj 146 372 r \$0-coded_expr;
#X obj 513 727 s \$0-coded_expr;
#X msg 55 651 write statesave/\$1-seqtable-ss.txt;
#X msg 384 427 read statesave/\$1-seqtable-ss.txt;
#X obj 43 478 t a b;
#X obj 117 504 array get \$0-seqtable;
#X obj 43 528 list append;
#X obj 45 551 list trim;
#X obj 421 612 array set \$0-seqtable;
#X obj 256 375 r \$0-seq_on-s;
#X obj 524 705 s \$0-seq_on-r;
#X obj 66 257 r \$0-array_size-s;
#X obj 58 234 r \$0-arp_trig;
#X obj 384 861 s \$0-arp_trig;
#X obj 406 839 s \$0-array_size-r;
#X msg 43 438 set \$1 \$2 \$3 \$4 \$5 \$6 \$7 \$8 \$9, f 15;
#X obj 235 406 r \$0-st-maxstep;
#X obj 43 400 pack f f f f f s s f f;
#X obj 384 578 list split 9;
#X obj 384 644 unpack f f f f f s s f f;
#X obj 537 677 s \$0-st-maxstep;
#X obj 3 270 print SAVE-S;
#X connect 0 0 13 0;
#X connect 1 0 16 0;
#X connect 2 0 16 0;
#X connect 4 0 2 0;
#X connect 4 1 1 0;
#X connect 5 0 42 0;
#X connect 6 0 27 0;
#X connect 7 0 6 0;
#X connect 7 1 5 0;
#X connect 7 2 8 0;
#X connect 8 0 3 0;
#X connect 11 0 12 0;
#X connect 12 0 6 1;
#X connect 12 1 28 0;
#X connect 12 2 9 0;
#X connect 13 0 4 0;
#X connect 13 1 11 0;
#X connect 14 0 7 0;
#X connect 15 0 14 0;
#X connect 15 0 46 0;
#X connect 16 0 43 0;
#X connect 17 0 42 2;
#X connect 18 0 42 3;
#X connect 19 0 42 4;
#X connect 23 0 42 5;
#X connect 25 0 42 6;
#X connect 27 0 3 0;
#X connect 28 0 16 0;
#X connect 29 0 31 0;
#X connect 29 1 30 0;
#X connect 30 0 31 1;
#X connect 31 0 32 0;
#X connect 32 0 3 0;
#X connect 34 0 42 7;
#X connect 36 0 42 1;
#X connect 37 0 5 1;
#X connect 40 0 29 0;
#X connect 41 0 42 8;
#X connect 42 0 40 0;
#X connect 43 0 44 0;
#X connect 43 1 33 0;
#X connect 44 0 38 0;
#X connect 44 1 39 0;
#X connect 44 2 20 0;
#X connect 44 3 21 0;
#X connect 44 4 22 0;
#X connect 44 5 24 0;
#X connect 44 6 26 0;
#X connect 44 7 35 0;
#X connect 44 8 45 0;
#X restore 1190 458 pd state-saving-multiple-instances;
#X obj 1190 541 s \$0-instance-num;
#X obj 1190 493 makefilename %d;
#X msg 1190 518 label \$1;
#X obj 347 439 tgl 12 0 \$0-mute-s \$0-mute-r MUTE -24 7 0 8 #ffffff #000000 #000000 0 1;
#X obj 102 273 hradio 15 1 0 10 \$0-st-write-s \$0-st-write-r WRITE-1 156 7 0 10 #fcc4c4 #fc0400 #000000 0;
#X obj 102 293 hradio 15 1 0 10 \$0-st-load-s \$0-st-load-r LOAD-1/1 156 7 0 10 #c4fcc4 #0c4410 #000000 0;
#N canvas 762 83 1088 712 statesave-patterns-1-16 0;
#X obj 684 324 pack f f;
#X obj 406 234 delay 10;
#X text 446 112 WRITE;
#X obj 406 114 inlet;
#X obj 684 176 inlet;
#X obj 406 307 pack f f;
#X msg 39 343 bang;
#X obj 406 561 reloaded/textfile \$0;
#X msg 484 296 clear;
#X obj 726 557 reloaded/textfile \$0;
#X obj 726 469 t b b a;
#X msg 744 509 rewind;
#X obj 406 268 f \$1;
#X obj 684 293 f \$1;
#X obj 406 178 t b f b b b;
#X obj 684 249 t b f b;
#X obj 406 146 f;
#X obj 550 155 f;
#X obj 573 116 v ACTIVE_DOLLARZERO;
#X obj 586 77 loadbang;
#X obj 549 176 s ACTIVE_DOLLARZERO;
#X msg 406 389 write statesave/seqtable_patterns/seqtable-\$1-pattern\$2.txt;
#X msg 726 446 read statesave/seqtable_patterns/seqtable-\$1-pattern\$2.txt;
#X obj 718 586 list split 1;
#X obj 689 652 list append;
#X obj 708 694 array set \$0-seqtable;
#X obj 713 618 t b f;
#X obj 39 368 array get \$0-seqtable;
#X obj 44 457 list prepend set 1;
#X msg 146 429 list set \$1;
#X obj 866 666 s \$0-array_size-r;
#X obj 147 398 r \$0-array_size-s;
#X obj 44 480 list trim;
#X connect 0 0 22 0;
#X connect 1 0 12 0;
#X connect 3 0 16 0;
#X connect 4 0 15 0;
#X connect 5 0 21 0;
#X connect 6 0 27 0;
#X connect 8 0 7 0;
#X connect 9 0 23 0;
#X connect 10 0 9 0;
#X connect 10 1 11 0;
#X connect 10 2 9 0;
#X connect 11 0 9 0;
#X connect 12 0 5 0;
#X connect 13 0 0 0;
#X connect 14 0 1 0;
#X connect 14 1 5 1;
#X connect 14 2 6 0;
#X connect 14 3 8 0;
#X connect 14 4 17 0;
#X connect 15 0 13 0;
#X connect 15 1 0 1;
#X connect 15 2 17 0;
#X connect 16 0 14 0;
#X connect 17 0 20 0;
#X connect 18 0 17 1;
#X connect 19 0 18 0;
#X connect 21 0 7 0;
#X connect 22 0 10 0;
#X connect 23 0 26 0;
#X connect 23 1 24 1;
#X connect 24 0 25 0;
#X connect 26 0 24 0;
#X connect 26 1 30 0;
#X connect 27 0 28 0;
#X connect 28 0 32 0;
#X connect 29 0 28 1;
#X connect 31 0 29 0;
#X connect 32 0 7 0;
#X restore 94 663 pd statesave-patterns-1-16;
#X floatatom 1070 715 5 0 0 0 - - - 0;
#X obj 1070 741 + 1;
#X msg 1062 864 label WRITE-\$1;
#X obj 1326 672 + 1;
#X obj 1070 694 r \$0-st-write-s;
#X obj 1340 579 r \$0-st-load-s;
#X obj 1062 885 s \$0-st-write-r;
#X obj 1302 886 s \$0-st-load-r;
#X obj 94 635 r \$0-st-write-s;
#X obj 254 613 r \$0-st-load-s;
#X obj 244 639 t f b;
#X obj 285 707 s \$0-mode-r;
#X obj 292 425 cnv 5 5 5 empty empty GATE 0 0 0 8 #fcfcfc #dc4c90 0;
#X obj 943 709 outlet~;
#X obj 216 417 bng 12 50 50 0 empty empty empty 17 7 0 10 #fcfcfc #dc4c90 #000000;
#X obj 920 352 wrap~;
#X obj 887 398 samphold~;
#X obj 831 292 r~ \$0-fb;
#X obj 835 359 +~ 1;
#X obj 835 336 *~ -1;
#X obj 958 435 s~ \$0-fb;
#X obj 988 481 fexpr~ abs($x1[0]-$x1[-1]);
#X obj 775 796 threshold~ 0.99 0 1 0;
#X obj 429 65 t b b;
#X obj 852 26 inlet~ fwd;
#X obj 968 79 route bang;
#X obj 104 372 vradio 12 1 0 1 \$0-f(x)_mode-s \$0-f(x)_mode-r empty 0 -9 0 10 #fcfcfc #fcfcfc #000000 0;
#X obj 220 111 cnv 5 5 5 empty empty LOAD(1..n) 0 0 0 8 #fcfcfc #dc4c90 0;
#X obj 238 116 bng 12 50 50 0 empty empty empty 17 7 0 10 #fcfcfc #fc0400 #000000;
#X obj 719 21 inlet~ fwd;
#X text 714 1 LOAD;
#X obj 719 48 threshold~ 1 0 1 0;
#X obj 719 70 t b b;
#X obj 719 92 f;
#X obj 752 90 + 1;
#X obj 719 113 % 10;
#X obj 753 185 s \$0-st-load-r;
#X obj 781 71 route bang;
#X text 25 462 BYPASS;
#X obj 1473 692 select;
#X obj 1473 715 timer;
#X obj 1473 738 < 200;
#X obj 1473 761 select 1;
#X obj 1338 616 t f f f b f, f 50;
#X obj 1473 784 f;
#X text 1591 711 double click to set max;
#X obj 1499 807 + 1;
#X obj 1302 838 pack f 1;
#X msg 1302 865 label LOAD-\$1/\$2;
#X obj 1495 846 s \$0-st-maxstep;
#X obj 752 118 r \$0-st-maxstep;
#X obj 1063 769 t f f;
#X obj 1088 796 moses;
#X obj 1117 766 r \$0-st-maxstep;
#X obj 1111 817 s \$0-st-maxstep;
#X obj 1342 755 r \$0-st-maxstep;
#X obj 1315 699 moses;
#X obj 1354 680 r \$0-st-maxstep;
#X obj 1343 722 s \$0-st-maxstep;
#X obj 1303 813 f 1;
#X msg 746 154 set \$1;
#X obj 239 584 r \$0-st-load;
#X obj 716 214 s \$0-st-load;
#X obj 1177 595 r \$0-st-load;
#X obj 1176 634 + 1;
#X obj 1329 783 t f f;
#X obj 204 325 cnv 18 120 44 empty empty empty 20 12 0 10 #c6feff #404040 0;
#X obj 207 329 vradio 12 1 0 3 \$0-oct_gui-s \$0-oct_gui-r empty 0 -9 0 10 #fcfcfc #000000 #000000 0;
#X obj 261 329 vradio 12 1 0 3 \$0-order-s \$0-order-r empty 0 -9 0 10 #fcfcfc #000000 #000000 0;
#X text 273 326 ORDER;
#X text 273 338 UP;
#X text 273 350 DOWN;
#X text 218 327 OCT.0;
#X text 218 339 OCT.1;
#X text 218 351 OCT.2;
#X obj 117 339 cnv 14 88 14 empty empty empty 20 12 0 10 #c6feff #404040 0;
#X obj 1645 39 r \$0-mode-s;
#X obj 1641 171 select 0 1 2 5;
#X obj 1647 315 s \$0-mode-r;
#X obj 839 648 *~ 1;
#X obj 939 642 tgl 18 0 empty empty empty 0 -9 0 10 #fcfcfc #000000 #000000 0 1;
#X text 14 368 f(x) mode;
#X msg 1410 217 label COUNTER\ ON \, color 16 16 -1;
#X msg 1466 251 label COUNTER\ OFF \, color 0 0 -1;
#X text 116 351 -NOTE @INDEX;
#X text 117 370 -FUNCTION GENERATOR : y = f(x);
#X msg 1638 270 label PATTERN;
#X msg 1541 388 label SET\ PATTERN\ WITH:;
#X text 116 338 -ARPEGGIATOR;
#X msg 1638 346 label ARPEGGIATOR\ MODE;
#X text 116 326 -LOCK;
#X msg 275 674 0;
#X obj 1402 131 f;
#X obj 1517 43 r MIDI_LEARN;
#X obj 1502 84 select 0;
#X obj 1643 105 f;
#X obj 1492 107 delay 10;
#X connect 0 0 15 0;
#X connect 2 0 37 0;
#X connect 3 0 2 1;
#X connect 5 0 2 1;
#X connect 10 0 9 0;
#X connect 10 1 5 0;
#X connect 11 0 5 0;
#X connect 14 0 10 0;
#X connect 15 0 109 0;
#X connect 18 0 37 1;
#X connect 18 0 58 0;
#X connect 20 0 67 0;
#X connect 20 0 68 0;
#X connect 21 0 22 0;
#X connect 22 0 23 0;
#X connect 24 0 25 0;
#X connect 26 0 22 0;
#X connect 28 0 40 0;
#X connect 28 0 41 0;
#X connect 31 0 24 0;
#X connect 33 0 168 0;
#X connect 33 1 169 0;
#X connect 34 0 2 0;
#X connect 35 0 34 1;
#X connect 37 0 70 0;
#X connect 39 0 99 0;
#X connect 39 0 166 0;
#X connect 40 0 42 0;
#X connect 42 0 45 0;
#X connect 46 0 47 0;
#X connect 48 0 37 0;
#X connect 49 0 51 0;
#X connect 50 0 49 1;
#X connect 51 0 52 0;
#X connect 51 0 55 0;
#X connect 52 0 28 0;
#X connect 52 0 39 0;
#X connect 52 0 101 0;
#X connect 53 0 52 1;
#X connect 54 0 60 0;
#X connect 55 0 69 0;
#X connect 57 0 60 0;
#X connect 58 0 50 0;
#X connect 58 1 50 1;
#X connect 59 0 55 0;
#X connect 60 0 55 0;
#X connect 64 0 165 0;
#X connect 65 0 64 0;
#X connect 67 0 49 0;
#X connect 70 0 46 0;
#X connect 70 1 59 0;
#X connect 70 2 65 0;
#X connect 70 3 50 0;
#X connect 70 4 3 0;
#X connect 72 0 178 0;
#X connect 73 0 35 0;
#X connect 75 0 76 0;
#X connect 76 0 75 0;
#X connect 76 1 75 1;
#X connect 78 0 80 0;
#X connect 80 0 81 0;
#X connect 81 0 79 0;
#X connect 86 0 87 0;
#X connect 87 0 137 0;
#X connect 88 0 92 0;
#X connect 89 0 142 0;
#X connect 90 0 86 0;
#X connect 91 0 129 0;
#X connect 94 0 85 0;
#X connect 95 0 96 0;
#X connect 96 0 85 1;
#X connect 96 1 177 0;
#X connect 101 0 102 1;
#X connect 102 0 106 0;
#X connect 102 0 107 0;
#X connect 103 0 105 0;
#X connect 104 0 102 0;
#X connect 105 0 104 0;
#X connect 107 0 165 0;
#X connect 108 0 100 0;
#X connect 109 0 34 0;
#X connect 109 1 12 0;
#X connect 110 0 14 0;
#X connect 110 1 111 0;
#X connect 111 0 10 0;
#X connect 115 0 117 0;
#X connect 115 1 123 0;
#X connect 117 0 118 0;
#X connect 118 0 119 0;
#X connect 118 1 114 0;
#X connect 119 0 120 0;
#X connect 119 0 121 0;
#X connect 120 0 119 1;
#X connect 121 0 146 0;
#X connect 121 0 148 0;
#X connect 123 0 118 0;
#X connect 125 0 126 0;
#X connect 126 0 127 0;
#X connect 127 0 128 0;
#X connect 128 0 130 0;
#X connect 129 0 89 0;
#X connect 129 1 125 1;
#X connect 129 2 125 0;
#X connect 129 3 126 1;
#X connect 129 4 130 1;
#X connect 130 0 132 0;
#X connect 132 0 135 0;
#X connect 133 0 134 0;
#X connect 134 0 93 0;
#X connect 136 0 121 1;
#X connect 137 0 88 0;
#X connect 137 1 138 0;
#X connect 138 1 140 0;
#X connect 139 0 138 1;
#X connect 141 0 151 0;
#X connect 142 0 145 0;
#X connect 142 1 144 0;
#X connect 143 0 142 1;
#X connect 145 0 133 0;
#X connect 146 0 122 0;
#X connect 147 0 96 0;
#X connect 149 0 150 0;
#X connect 150 0 145 0;
#X connect 151 0 145 0;
#X connect 151 1 133 1;
#X connect 162 0 181 0;
#X connect 163 0 172 0;
#X connect 163 1 175 0;
#X connect 163 2 173 0;
#X connect 163 3 173 0;
#X connect 165 0 32 0;
#X connect 165 0 108 0;
#X connect 168 0 71 0;
#X connect 169 0 71 0;
#X connect 172 0 164 0;
#X connect 173 0 164 0;
#X connect 175 0 164 0;
#X connect 177 0 97 0;
#X connect 178 0 33 0;
#X connect 179 0 180 0;
#X connect 180 0 182 0;
#X connect 181 0 163 0;
#X connect 182 0 181 0;
#X connect 182 0 178 0;
#X coords 0 -1 1 1 225 333 2 100 98;
