#N canvas 0 57 1920 1023 10;
#X obj 443 13 inlet~;
#X text 441 -6 CLOCK IN;
#X obj 442 187 f;
#X obj 517 284 + 1;
#X obj 135 128 cnv 5 5 5 empty empty SEQTABLE 0 0 0 12 #fcfcfc #404040 0;
#X obj 762 26 inlet~;
#X msg 762 101 0;
#X text 759 5 RESET IN;
#X obj 103 111 cnv 5 5 5 empty empty CLOCK-IN 0 0 0 8 #fcfcfc #dc4c90 0;
#X obj 273 111 cnv 5 5 5 empty empty RESET 0 0 0 8 #fcfcfc #dc4c90 0;
#X obj 278 123 bng 15 50 50 0 empty empty empty 17 7 0 10 #fcfcfc #fc0400 #000000;
#X obj 762 70 t b b;
#X obj 802 76 loadbang;
#X obj 456 73 t b b;
#X obj 106 123 bng 15 50 50 0 empty empty empty 17 7 0 10 #fcfcfc #dc4c90 #000000;
#X obj 197 128 cnv 5 5 5 empty \$0-instance-num 0 0 0 0 12 #fcfcfc #404040 0;
#X obj 762 48 threshold~ 0.99 0 1 0;
#X obj 443 35 threshold~ 0.9 0 0.9 0;
#X obj 50 10 savestate;
#X obj 135 77 namecanvas \$0-this;
#X obj 10 50 reloaded seqtable \$0 \$1;
#N canvas 1368 87 450 250 (subpatch) 0;
#X array \$0-seqtable 45 float 2;
#X coords 0 1 45 0 196 80 1 0 0;
#X restore 102 170 graph;
#X floatatom 242 121 5 1 44100 0 SIZE \$0-array_size-r \$0-array_size-s 0;
#X obj 486 186 r \$0-array_size-s;
#X obj 193 111 cnv 5 5 5 empty empty OFFSET 0 0 0 8 #fcfcfc #000000 0;
#X obj 618 21 inlet~;
#X obj 1156 171 loadbang;
#X obj 1156 194 array size \$0-seqtable;
#X obj 1183 225 s \$0-array_size-s;
#X msg 1185 287 set \$1;
#X obj 1185 310 s \$0-array_size-r;
#X obj 1130 151 bng 18 250 50 0 empty empty empty 0 -9 0 10 #fcfcfc #000000 #000000;
#N canvas 480 56 836 871 function_generator 1;
#X obj -32 143 cnv 5 5 5 empty empty S1 0 0 0 8 #fcfcfc #dc4c90 0;
#N canvas 0 0 450 300 \$0-expr 0;
#X obj 10 10 r \$0-expr-r;
#X obj 10 40 expr $f1;
#X obj 10 90 s \$0-expr-s;
#X connect 0 0 1 0;
#X connect 1 0 2 0;
#X restore 565 225 pd \$0-expr;
#X obj 383 718 s pd-\$0-expr;
#X obj 279 578 list trim;
#X obj 279 555 list prepend obj 10 40 expr;
#X msg 470 656 clear \, obj 10 10 r \$1;
#X msg 287 683 obj 10 90 s \$1 \, connect 0 0 1 0 \, connect 1 0 2 0;
#X obj 279 128 list fromsymbol;
#X obj 272 182 list length;
#X obj 272 205 until;
#X obj 324 237 list append;
#X obj 324 260 list split 1;
#X obj 317 327 select 120;
#X msg 417 422 36 102 49;
#X obj 305 448 list prepend;
#X obj 305 471 t l l;
#X obj 268 501 list append;
#X obj 268 524 list tosymbol;
#X obj 30 321 f;
#X obj 24 381 until;
#X obj 27 443 f;
#X obj 76 445 + 1;
#X obj 13 504 /;
#X obj 30 344 t f b f;
#X msg 50 410 0;
#X obj 17 466 t f f f;
#X obj -43 530 s \$0-expr-r;
#X obj -9 556 r \$0-expr-s;
#X obj -18 616 tabwrite \$0-seqtable;
#X obj 47 90 s \$0-seqtable resize;
#X msg 51 65 resize \$1;
#X obj 321 296 t f f b, f 29;
#X obj 415 333 f;
#X msg 426 182 0;
#X obj 316 356 f;
#X obj 315 390 select 97 101;
#X msg 303 419 120;
#X text 410 364 si x est précédé de 'a' ou 'e' (comme dans 'max' ou 'exp') \, ne pas le substituer par $f1;
#X obj 342 74 t s s;
#X msg 521 81 set \$1;
#X obj 372 102 s \$0-function-s;
#X obj 521 58 r \$0-function-s;
#X obj 528 101 s \$0-function_gui-r;
#X obj 342 51 r \$0-function_gui-s;
#X obj 279 601 t b a b;
#X obj 28 258 spigot;
#N canvas 1214 87 450 300 check_syntax_error 0;
#X obj 48 28 inlet;
#X obj 44 279 outlet;
#X obj 57 68 t b b b;
#X obj 67 121 s \$0-expr-r;
#X obj 65 147 r \$0-expr-s;
#X obj 39 200 f;
#X obj 39 243 t f f;
#X obj 144 274 s \$0-syntax_highlight;
#X msg 186 208 color #dddddd #dddddd;
#X msg 89 94 1;
#X msg 141 88 0;
#X msg 65 170 1;
#X obj 163 167 select 0 1;
#X msg 141 238 color #ff8888 #ff8888;
#X connect 0 0 2 0;
#X connect 2 0 5 0;
#X connect 2 1 9 0;
#X connect 2 2 10 0;
#X connect 4 0 11 0;
#X connect 5 0 6 0;
#X connect 6 0 1 0;
#X connect 6 1 12 0;
#X connect 8 0 7 0;
#X connect 9 0 3 0;
#X connect 10 0 5 1;
#X connect 11 0 5 1;
#X connect 12 0 13 0;
#X connect 12 1 8 0;
#X connect 13 0 7 0;
#X restore 116 231 pd check_syntax_error;
#X obj 135 199 loadbang;
#X obj 279 151 t b b l l b b;
#X obj 84 200 t b b;
#X obj 29 17 r \$0-array_size-s;
#X obj 29 164 spigot 1;
#X obj 140 112 r \$0-arpeggiator-s;
#X obj 29 41 t f f;
#X obj 46 122 t b f;
#X obj 287 660 symbol \\\$0-expr-s;
#X obj 468 628 symbol \\\$0-expr-r;
#X obj 140 135 == 3;
#X connect 3 0 44 0;
#X connect 4 0 3 0;
#X connect 5 0 2 0;
#X connect 6 0 2 0;
#X connect 7 0 48 0;
#X connect 8 0 9 0;
#X connect 9 0 10 0;
#X connect 10 0 11 0;
#X connect 11 0 31 0;
#X connect 11 1 10 1;
#X connect 12 0 34 0;
#X connect 12 1 14 0;
#X connect 13 0 14 0;
#X connect 14 0 15 0;
#X connect 15 0 16 1;
#X connect 15 1 14 1;
#X connect 16 0 17 0;
#X connect 17 0 4 0;
#X connect 18 0 23 0;
#X connect 19 0 20 0;
#X connect 20 0 25 0;
#X connect 21 0 20 1;
#X connect 22 0 26 0;
#X connect 23 0 19 0;
#X connect 23 1 24 0;
#X connect 23 2 22 1;
#X connect 24 0 20 1;
#X connect 25 0 22 0;
#X connect 25 1 21 0;
#X connect 25 2 28 1;
#X connect 27 0 28 0;
#X connect 30 0 29 0;
#X connect 31 0 12 0;
#X connect 31 1 32 1;
#X connect 31 2 32 0;
#X connect 32 0 34 1;
#X connect 33 0 32 1;
#X connect 34 0 35 0;
#X connect 35 0 36 0;
#X connect 35 1 36 0;
#X connect 35 2 13 0;
#X connect 36 0 14 0;
#X connect 38 0 7 0;
#X connect 38 1 40 0;
#X connect 39 0 42 0;
#X connect 41 0 39 0;
#X connect 43 0 38 0;
#X connect 44 0 55 0;
#X connect 44 1 2 0;
#X connect 44 2 56 0;
#X connect 45 0 18 0;
#X connect 46 0 45 1;
#X connect 47 0 46 0;
#X connect 48 0 49 0;
#X connect 48 1 16 0;
#X connect 48 2 8 0;
#X connect 48 3 10 1;
#X connect 48 4 14 1;
#X connect 48 5 33 0;
#X connect 49 0 45 0;
#X connect 49 1 46 0;
#X connect 50 0 53 0;
#X connect 51 0 45 0;
#X connect 52 0 57 0;
#X connect 53 0 54 0;
#X connect 53 1 30 0;
#X connect 54 0 51 0;
#X connect 54 1 18 1;
#X connect 55 0 6 0;
#X connect 56 0 5 0;
#X connect 57 0 51 1;
#X restore 119 471 pd function_generator;
#X obj 568 617 tabread~ \$0-seqtable;
#X obj 119 356 cnv 15 175 15 empty \$0-syntax_highlight empty 20 12 0 10 #dddddd #404040 0;
#X symbolatom 119 356 29 0 0 0 y= \$0-function_gui-r \$0-function_gui-s 0;
#X text 116 337 FUNCTION GENERATOR : y = f(x);
#X obj 189 300 vradio 12 1 0 3 \$0-oct_gui-s \$0-oct_gui-r empty 0 -9 0 10 #fcfcfc #000000 #000000 0;
#X text 201 309 OCT 1;
#X text 201 321 OCT 2;
#X text 201 297 OCT 0;
#X obj 237 300 vradio 12 1 0 3 \$0-order-s \$0-order-r empty 0 -9 0 10 #fcfcfc #000000 #000000 0;
#X text 249 297 ORDER;
#X text 249 309 UP;
#X text 249 321 DOWN;
#X obj 1193 255 r \$0-array_size-s;
#X obj 841 672 outlet~;
#X obj 1407 185 select 1 0;
#X msg 1450 263 label SEQ.OFF;
#X msg 1410 217 label SEQ.ON;
#X obj 443 146 spigot 0;
#X obj 494 118 == 1;
#X floatatom 176 153 5 0 0 2 STEP \$0-index_gui-r \$0-index_gui-s 0;
#X obj 412 250 mod 8;
#X obj 105 250 hsl 191 20 0 1 0 0 \$0-index_slider_gui-s \$0-index_slider_gui-r empty -2 -9 0 10 #feffc6 #000000 #000000 0 0;
#N canvas 0 32 1920 994 arpeggiator 0;
#X obj 621 631 outlet;
#X obj 643 108 notein;
#X obj 614 161 pack f f;
#X obj 1048 91 text define \$0-notes;
#X obj 887 269 text search \$0-notes;
#X msg 918 244 \$1;
#X obj 887 292 select -1;
#X obj 940 317 text delete \$0-notes;
#X obj 886 590 text insert \$0-notes;
#X obj 804 302 spigot;
#X msg 851 266 \$2;
#X obj 614 184 t b l l l;
#X obj 415 418 text sequence \$0-notes;
#X msg 576 378 line 0 \, bang;
#X obj 508 287 text size \$0-notes;
#X obj 509 311 select 0;
#X obj 452 475 f;
#X obj 483 475 + 1;
#X obj 415 649 tabwrite \$0-seqtable;
#X obj 390 444 unpack f f;
#X obj 776 97 r \$0-arpeggiator-s;
#X obj 776 120 == 1;
#X obj 617 414 s \$0-array_size-s;
#X obj 584 356 t f f b;
#X msg 534 460 0;
#X msg 935 550 1e+30;
#X msg 629 548 0;
#X msg 658 547 1;
#X obj 661 258 spigot;
#X obj 775 150 t f f;
#X obj 754 178 select 1;
#X obj 569 324 * 1;
#X obj 596 307 r \$0-oct-s;
#X obj 173 433 list prepend 1;
#X obj 261 396 r \$0-oct-s;
#X obj 173 456 route 1 2 3;
#X msg 167 491 \$1 0;
#X msg 206 488 \$1 0 \, \$1 12;
#X msg 296 483 \$1 0 \, \$1 12 \, \$1 24;
#X obj 303 517 +;
#X obj 303 540 t f b;
#X obj 675 527 t b;
#X obj 1181 274 r \$0-oct_gui-s;
#X obj 1181 297 + 1;
#X obj 1181 320 s \$0-oct-s;
#X obj 1296 329 r \$0-oct-s;
#X obj 1296 352 - 1;
#X msg 1296 375 set \$1;
#X obj 1296 398 s \$0-oct_gui-r;
#X obj 798 375 list prepend 0;
#X obj 870 346 r \$0-order-s;
#X obj 877 502 t l b;
#X obj 1043 514 text search \$0-notes > 0;
#X msg 1026 475 \$1;
#X obj 999 441 t l l;
#X obj 1055 543 select -1;
#X msg 1203 472 \$1;
#X obj 1176 438 t l l;
#X obj 1220 511 text search \$0-notes < 0;
#X obj 876 403 route 0 1 2, f 47;
#X obj 359 595 / 127;
#X obj 676 658 notein;
#X obj 700 708 r \$0-arpeggiator-s;
#X obj 700 731 == 2;
#X obj 646 757 spigot;
#X obj 662 908 tabwrite \$0-seqtable;
#X obj 671 816 / 127;
#X obj 630 688 poly 1 1;
#X obj 726 502 select;
#X obj 726 525 f;
#X obj 718 468 t f f f;
#X obj 726 548 select 0 2;
#X obj 718 445 r \$0-arpeggiator-s;
#X obj 573 730 t b f;
#X obj 634 716 spigot;
#X obj 448 842 == 0;
#X obj 488 871 r \$0-arpeggiator-s;
#X obj 488 894 == 2;
#X obj 379 866 spigot;
#X obj 379 889 spigot;
#X obj 379 935 s \$0-index_gui-s;
#X obj 651 594 f;
#X obj 681 594 == 0;
#X obj 379 912 v \$0-index_gui-s;
#X obj 818 778 inlet~;
#X obj 773 857 snapshot~;
#X obj 657 783 t f b;
#X obj 607 462 r \$0-seq_on-s;
#X obj 448 819 r \$0-seq_on-s;
#X connect 1 0 2 0;
#X connect 1 1 2 1;
#X connect 2 0 11 0;
#X connect 4 0 6 0;
#X connect 5 0 4 0;
#X connect 6 1 7 0;
#X connect 9 0 49 0;
#X connect 10 0 9 1;
#X connect 11 0 28 0;
#X connect 11 1 9 0;
#X connect 11 2 10 0;
#X connect 11 3 5 0;
#X connect 12 0 19 0;
#X connect 13 0 12 0;
#X connect 14 0 15 0;
#X connect 15 0 26 0;
#X connect 15 1 31 0;
#X connect 16 0 17 0;
#X connect 16 0 18 1;
#X connect 17 0 16 1;
#X connect 19 0 33 0;
#X connect 20 0 21 0;
#X connect 21 0 29 0;
#X connect 23 0 13 0;
#X connect 23 1 22 0;
#X connect 23 2 24 0;
#X connect 23 2 27 0;
#X connect 24 0 16 1;
#X connect 25 0 8 1;
#X connect 26 0 81 0;
#X connect 27 0 81 0;
#X connect 28 0 14 0;
#X connect 29 0 30 0;
#X connect 29 1 28 1;
#X connect 30 0 28 0;
#X connect 31 0 23 0;
#X connect 32 0 31 1;
#X connect 33 0 35 0;
#X connect 34 0 33 1;
#X connect 35 0 36 0;
#X connect 35 1 37 0;
#X connect 35 2 38 0;
#X connect 36 0 39 0;
#X connect 37 0 39 0;
#X connect 38 0 39 0;
#X connect 39 0 40 0;
#X connect 40 0 60 0;
#X connect 40 1 16 0;
#X connect 41 0 27 0;
#X connect 42 0 43 0;
#X connect 43 0 44 0;
#X connect 45 0 46 0;
#X connect 46 0 47 0;
#X connect 47 0 48 0;
#X connect 49 0 59 0;
#X connect 50 0 49 1;
#X connect 51 0 8 0;
#X connect 51 1 25 0;
#X connect 52 0 55 0;
#X connect 53 0 52 0;
#X connect 54 0 8 0;
#X connect 54 1 53 0;
#X connect 55 0 25 0;
#X connect 55 1 8 1;
#X connect 56 0 58 0;
#X connect 57 0 8 0;
#X connect 57 1 56 0;
#X connect 58 0 55 0;
#X connect 59 0 51 0;
#X connect 59 1 54 0;
#X connect 59 2 57 0;
#X connect 60 0 18 0;
#X connect 61 0 67 0;
#X connect 61 1 67 1;
#X connect 62 0 63 0;
#X connect 63 0 64 1;
#X connect 64 0 86 0;
#X connect 66 0 65 0;
#X connect 67 1 74 0;
#X connect 67 2 74 1;
#X connect 68 0 69 0;
#X connect 69 0 71 0;
#X connect 70 0 68 1;
#X connect 70 1 68 0;
#X connect 70 2 69 1;
#X connect 71 0 81 0;
#X connect 71 1 81 0;
#X connect 72 0 70 0;
#X connect 73 0 78 0;
#X connect 73 1 64 0;
#X connect 74 0 73 0;
#X connect 75 0 78 1;
#X connect 76 0 77 0;
#X connect 77 0 79 1;
#X connect 78 0 79 0;
#X connect 79 0 83 0;
#X connect 81 0 0 0;
#X connect 81 0 82 0;
#X connect 82 0 81 1;
#X connect 83 0 80 0;
#X connect 84 0 85 0;
#X connect 85 0 65 1;
#X connect 86 0 66 0;
#X connect 86 1 85 0;
#X connect 87 0 41 0;
#X connect 88 0 75 0;
#X restore 908 592 pd arpeggiator;
#X obj 571 652 clip~ 0 1;
#X obj 714 715 outlet~;
#N canvas 1368 87 450 300 round~ 0;
#X obj 48 56 inlet~;
#X obj 59 220 outlet~;
#X obj 66 97 *~ 127;
#X obj 66 120 +~ 0.5;
#X obj 91 140 wrap~;
#X obj 64 157 -~;
#X obj 64 180 /~ 127;
#X connect 0 0 2 0;
#X connect 2 0 3 0;
#X connect 3 0 4 0;
#X connect 3 0 5 0;
#X connect 4 0 5 1;
#X connect 5 0 6 0;
#X connect 6 0 1 0;
#X restore 557 687 pd round~;
#X obj 107 389 cnv 5 5 5 empty empty Q-OUT 0 0 0 8 #fcfcfc #404040 0;
#X obj 192 390 cnv 5 5 5 empty empty OUT2 0 0 0 8 #fcfcfc #000000 0;
#X obj 561 715 outlet~;
#X obj 363 63 bng 18 250 50 0 empty empty empty 0 -9 0 10 #fcfcfc #000000 #000000;
#X msg 412 316 set \$1;
#X obj 413 340 s \$0-index_gui-r;
#X obj 335 145 r \$0-index_gui-s;
#X obj 569 494 +~ 0;
#X obj 602 459 / 1;
#X obj 569 521 wrap~;
#X obj 569 573 *~;
#X obj 620 550 r \$0-array_size-s;
#X obj 387 401 loadbang;
#X obj 374 481 snapshot~;
#X obj 106 140 tgl 15 0 \$0-seq_on-s \$0-seq_on-r SEQ.OFF 16 8 0 10 #fcfcfc #000000 #000000 0 1;
#X obj 359 384 bng 18 250 50 0 empty empty empty 0 -9 0 10 #fcfcfc #000000 #000000;
#X obj 607 412 t b f;
#X obj 462 391 delay 20;
#X obj 387 425 metro 200;
#X obj 104 303 vradio 12 1 0 4 \$0-arpeggiator-s \$0-arpeggiator-r NOTE.IN->ARPEGGIATOR 0 -9 0 10 #fcfcfc #000000 #000000 0;
#X text 116 299 OFF/HOLD;
#X text 116 312 ON;
#X text 116 325 SET NOTE;
#X obj 419 638 s \$0-index-s;
#X obj 253 390 cnv 5 5 5 empty empty ARP.TRIG. 0 0 0 8 #fcfcfc #dc4c90 0;
#X obj 839 648 *~ 1;
#X obj 838 546 vline~;
#X msg 839 517 1 0 \, 0 1 1;
#X text 614 4 OFFSET;
#X obj 614 205 *~ 0.999999;
#N canvas 0 0 462 523 update 0;
#X text 51 11 update index_gui when index_slider_gui is moved;
#X obj 50 70 inlet~;
#X text 35 46 from OFFSET;
#X obj 86 210 r \$0-array_size-s;
#X obj 37 428 s \$0-index_gui-r;
#X obj 53 242 * 1;
#X obj 60 120 r \$0-index_slider_gui-s;
#X obj 59 144 t f b;
#X obj 113 173 snapshot~;
#X obj 146 237 r \$0-array_size-s;
#X obj 123 267 *;
#X obj 53 306 -;
#X obj 102 379 mod;
#X obj 95 287 int;
#X obj 22 337 moses 0;
#X obj 22 360 - 0.99;
#X connect 1 0 8 0;
#X connect 3 0 5 1;
#X connect 5 0 11 0;
#X connect 6 0 7 0;
#X connect 7 0 5 0;
#X connect 7 1 8 0;
#X connect 8 0 10 0;
#X connect 9 0 10 1;
#X connect 9 0 12 1;
#X connect 10 0 13 0;
#X connect 11 0 14 0;
#X connect 12 0 4 0;
#X connect 13 0 11 1;
#X connect 14 0 15 0;
#X connect 14 1 12 0;
#X connect 15 0 12 0;
#X restore 706 167 pd update index_gui when index_slider_gui is moved;
#X f 25;
#N canvas 0 0 450 300 update 0;
#X obj 33 32 inlet;
#X text 36 10 update index_slider_gui;
#X msg 50 193 set \$1;
#X obj 48 216 s \$0-index_slider_gui-r;
#X obj 92 32 r \$0-array_size-s;
#X obj 47 111 int;
#X obj 48 165 / 1;
#X obj 44 60 * 1;
#X obj 47 136 + 0.5;
#X obj 48 87 - 1e-09;
#X connect 0 0 7 0;
#X connect 2 0 3 0;
#X connect 4 0 6 1;
#X connect 4 0 7 1;
#X connect 5 0 8 0;
#X connect 6 0 2 0;
#X connect 7 0 9 0;
#X connect 8 0 6 0;
#X connect 9 0 5 0;
#X restore 370 779 pd update index_slider_gui;
#X obj 414 284 t f b b f f;
#X obj 1413 286 s \$0-seq_on-r;
#X obj 1405 159 r \$0-seq_on-s;
#X obj 494 95 r \$0-seq_on-s;
#X connect 0 0 17 0;
#X connect 2 0 53 0;
#X connect 3 0 2 1;
#X connect 5 0 16 0;
#X connect 6 0 2 1;
#X connect 11 0 10 0;
#X connect 11 1 6 0;
#X connect 12 0 6 0;
#X connect 13 0 50 0;
#X connect 13 1 14 0;
#X connect 16 0 11 0;
#X connect 17 0 13 0;
#X connect 18 0 20 0;
#X connect 18 1 20 1;
#X connect 20 0 18 0;
#X connect 23 0 53 1;
#X connect 23 0 75 0;
#X connect 25 0 88 0;
#X connect 25 0 89 0;
#X connect 26 0 27 0;
#X connect 27 0 28 0;
#X connect 29 0 30 0;
#X connect 31 0 27 0;
#X connect 33 0 56 0;
#X connect 45 0 29 0;
#X connect 47 0 49 0;
#X connect 47 1 48 0;
#X connect 48 0 92 0;
#X connect 49 0 92 0;
#X connect 50 0 2 0;
#X connect 51 0 50 1;
#X connect 53 0 91 0;
#X connect 55 0 84 1;
#X connect 56 0 57 0;
#X connect 56 0 58 0;
#X connect 58 0 61 0;
#X connect 62 0 13 0;
#X connect 63 0 64 0;
#X connect 65 0 53 0;
#X connect 66 0 68 0;
#X connect 67 0 66 1;
#X connect 68 0 69 0;
#X connect 68 0 72 0;
#X connect 69 0 33 0;
#X connect 69 0 55 0;
#X connect 70 0 69 1;
#X connect 71 0 77 0;
#X connect 72 0 90 0;
#X connect 74 0 77 0;
#X connect 75 0 67 0;
#X connect 75 1 67 1;
#X connect 76 0 72 0;
#X connect 77 0 72 0;
#X connect 84 0 46 0;
#X connect 85 0 84 0;
#X connect 86 0 85 0;
#X connect 88 0 66 0;
#X connect 91 0 63 0;
#X connect 91 1 76 0;
#X connect 91 2 86 0;
#X connect 91 3 67 0;
#X connect 91 4 3 0;
#X connect 93 0 47 0;
#X connect 94 0 51 0;
#X coords 0 -1 1 1 200 300 2 100 100;
