#N canvas 207 131 700 705 10;
#X obj 26 533 cnv 15 400 30 empty empty OUTPUTS: 20 12 0 14 #9898dc #fcfcfc 0;
#X obj 23 114 cnv 15 400 30 empty empty CONTROLS: 20 12 0 14 #9898dc #fcfcfc 0;
#X obj 26 406 cnv 15 400 30 empty empty INPUTS: 20 12 0 14 #9898dc #fcfcfc 0;
#X obj 20 17 cnv 15 400 30 empty empty SEQTABLE 20 12 0 14 #90d4b0 #fcfcfc 0;
#X text 25 440 CLOCK-IN- trigger/gate/clock input;
#X text 27 512 RESET - trigger/gate input to force reset the sequencer to step 1, f 67;
#X text 23 52 The "SEQTABLE" module is a table lookup / sequencer with arpeggiator and generator functions. SEQTABLE requires a trigger/gate/clock signal at the CLOCK-IN input to step forward \, or/plus a voltage at the OFFSET input.;
#X text 25 460 OFFSET- CV input;
#X text 25 669 GATE - 0V when arpeggiator is muted \, 1V when unmuted, f 65;
#N canvas 1005 412 450 300 about_FUNCTION_GENERATOR 0;
#X text 36 56 ramp x;
#X text 36 76 inverse ramp 1-x;
#X restore 212 381 pd about_FUNCTION_GENERATOR;
#X text 27 480 LOAD(1-n) - trigger/gate input to step through stored pattern 1-n sequentially., f 66;
#X text 25 206 PATTERN SETTINGS;
#X text 39 326 - NOTE@INDEX : midi notein changes value at the current index, f 63;
#X text 37 227 - LOCK : midi notein is inactive;
#X text 26 349 - FUNCTION GENERATOR : type a function (with x as variable \, from 0 to 1) to draw the corresponding curve in the table., f 63;
#X text 25 649 CLOCK-OUT - sends trigger whenever STEP changes, f 65;
#X text 25 170 WRITE / LOAD : Presets for storing up to 10 patterns;
#X text 24 149 SIZE - size of the sequencer table (i.e. sequencer pattern);
#X obj 466 181 seqtable 0;
#A saved preset statesave/0-seqtable-ss.txt 0 27 5 2 0 0.5*cos(2*pi*x)+0.5 0.5*cos(2*pi*$f1)+0.5 0 4 1 0.986522 0.946816 0.883022 0.79858 0.69804 0.586825 0.470928 0.356599 0.250001 0.15688 0.0822566 0.0301541 0.00338095 0.00338066 0.0301532 0.0822552 0.156878 0.249999 0.356597 0.470926 0.586822 0.698038 0.798578 0.883021 0.946815 0.986522;
#X text 37 248 - ARPEGGIATOR : midi notein chords fill the table elements and adjust the table size with the number of notes in the chord., f 64;
#X text 64 277 * OCT 0 / OCT 1 / OCT 2 : add octaves in ARPEGGIATOR mode, f 63;
#X text 64 294 * ORDER \, UP \, DOWN : sorts incoming midi notein events according to their order \, or from lowest / highest note, f 59;
#N canvas 853 532 413 130 How 0;
#X text 15 45 Triple-click the LOAD pattern selector \, at the position you want to set as the end of the cycle.;
#X restore 171 188 pd How to change the max nb of presets;
#X f 40;
#X text 26 573 Q-OUT - quantized output (full chromatic pitch voltage);
#X text 26 592 OUT2 - un-quantized output that outputs the full voltage range. Useful to modulate other parameters than pitch.;
#X obj 466 3 clock 1 \$0;
#A saved preset statesave/1-clock-ss.txt 88 1;
#X connect 25 0 18 0;
