#N canvas 369 102 1133 727 10;
#X msg 344 531 1 \$1 \, 0 \$2 \$1;
#X obj 344 553 vline~;
#X obj 344 484 f;
#X obj 344 508 pack f f;
#X obj 359 226 / 127;
#X obj 404 234 / 127;
#X obj 359 287 * 1999;
#X obj 404 287 * 1999;
#X obj 448 330 t f f;
#X obj 474 499 delay;
#X obj 624 396 +;
#X obj 624 371 t b f;
#X obj 247 369 bng 15 250 50 0 empty empty empty 17 7 0 10 -262144
-1 -1;
#X obj 475 580 spigot;
#X text 582 579 CYCLE ON/OFF;
#X obj 294 196 tgl 15 1 \$0-slope-cycle-s \$0-slope-cycle-r CYCLE 17
7 0 10 -262144 -1 -1 0 1;
#X obj 344 35 inlet~;
#X obj 106 115 bng 15 100 50 0 empty empty empty 17 7 0 10 -262144
-226533 -1;
#X obj 344 704 outlet~;
#X obj 508 557 t f f;
#X obj 535 579 sel 1;
#X obj 535 604 t b;
#X obj 165 125 cnv 5 5 5 empty empty GENERATOR 0 0 0 12 -262144 -66577
0;
#X obj 104 109 cnv 5 5 5 empty empty TRIG 0 0 0 8 -262144 -226533 0
;
#X obj 294 136 vradio 15 1 1 3 \$0-slope-fast-med-slow-s \$0-slope-fast-med-slow-r
empty 0 -8 0 10 -262144 -1 -1 0;
#X obj 311 176 cnv 5 5 5 empty empty SLOW 0 0 0 8 -262144 -1 0;
#X obj 258 231 cnv 5 5 5 empty empty EOR 0 0 0 8 -262144 -226533 0
;
#X obj 312 144 cnv 5 5 5 empty empty FAST 0 0 0 8 -262144 -1 0;
#X obj 312 160 cnv 5 5 5 empty empty MEDIUM 0 0 0 8 -262144 -1 0;
#X obj 585 171 sel 0 1 2;
#X msg 585 247 1999;
#X obj 585 270 t b b f f;
#X msg 602 223 4999;
#X msg 619 196 9999;
#X obj 718 26 inlet~;
#X obj 107 165 hsl 128 15 1.27 127 1 1 \$0-slope-fall-s \$0-slope-fall-r
FALL 133 7 0 10 -262144 -1 -1 0 1;
#X obj 107 133 hsl 128 15 1.27 127 1 1 \$0-slope-rise-s \$0-slope-rise-r
RISE 133 7 0 10 -262144 -1 -1 0 1;
#X obj 107 196 hsl 128 15 0 127 0 1 \$0-slope-depth-s \$0-slope-depth-r
DEPTH-/+ 133 7 0 10 -150893 -1 -1 0 1;
#X obj 107 149 hsl 128 15 0 127 0 1 \$0-slope-rise-cv-att-s \$0-slope-rise-cv-att-r
RISE(CV) 133 7 0 10 -158136 -1 -1 0 1;
#X obj 107 181 hsl 128 15 0 127 0 1 \$0-slope-fall-cv-att-s \$0-slope-fall-cv-att-r
FALL(CV) 133 7 0 10 -158136 -1 -1 0 1;
#X obj 126 125 cnv 5 5 5 empty empty SLOPE 0 0 0 12 -262144 -66577
0;
#X obj 717 185 snapshot~;
#X obj 717 238 t b f;
#X obj 717 157 *~;
#X obj 732 83 / 127;
#X obj 732 105 pack 0 50;
#X obj 732 127 line~;
#X obj 359 255 +;
#X obj 853 27 inlet~;
#X obj 852 206 snapshot~;
#X obj 852 238 t b f;
#X obj 852 178 *~;
#X obj 867 104 / 127;
#X obj 867 126 pack 0 50;
#X obj 867 148 line~;
#X text 715 6 RISE CV;
#X text 852 6 FALL CV;
#X obj 404 255 +;
#X obj 218 109 cnv 5 5 5 empty empty RISE 0 0 0 8 -262144 -158136 0
;
#X obj 325 109 cnv 5 5 5 empty empty FALL 0 0 0 8 -262144 -158136 0
;
#X obj 105 232 cnv 5 5 5 empty empty UNI-P 0 0 0 8 -262144 -1 0;
#X obj 330 232 cnv 5 5 5 empty empty EOC 0 0 0 8 -262144 -226533 0
;
#X obj 344 683 *~;
#X obj 743 501 * 2;
#X obj 743 523 - 1;
#X obj 743 569 pack 0 50;
#X obj 743 591 line~;
#X floatatom 104 211 5 0 0 0 - - -, f 5;
#X obj 743 474 / 127;
#X obj 743 545 t f f;
#X obj 558 150 t b f;
#X obj 836 512 delay;
#X obj 359 335 t f f f;
#X msg 836 534 1 0 \, 0 1 1;
#X obj 836 556 vline~;
#X obj 836 641 outlet~;
#X text 827 659 END OF RISE;
#X obj 473 521 t b b;
#X obj 927 610 vline~;
#X obj 927 683 outlet~;
#X text 982 682 END OF CYCLE;
#X obj 294 181 tgl 15 1 \$0-slope-curve-s \$0-slope-curve-r CURVE 17
7 0 10 -262144 -1 -1 0 1;
#X obj 128 563 t f f;
#X obj 192 539 == 0;
#X obj 128 622 line~;
#X obj 128 585 pack 0 10;
#X obj 192 586 line~;
#X obj 192 564 pack 0 10;
#X obj 344 639 *~;
#X obj 419 603 *~;
#X obj 344 585 *~;
#X obj 359 187 r \$0-slope-rise-s;
#X obj 732 50 r \$0-slope-rise-cv-att-s;
#X obj 404 210 r \$0-slope-fall-s;
#X obj 867 78 r \$0-slope-fall-cv-att-s;
#X obj 743 395 r \$0-slope-depth-s;
#X obj 558 123 r \$0-slope-fast-med-slow-s;
#X obj 128 494 r \$0-slope-curve-s;
#X obj 508 535 r \$0-slope-cycle-s;
#N canvas 315 35 593 735 state-saving-multiple-instances 0;
#X obj 137 29 loadbang;
#X obj 262 450 textfile;
#X msg 516 433 rewind;
#X msg 473 433 bang;
#X obj 42 691 textfile;
#X obj 473 394 t b b;
#X obj 43 357 f;
#X obj 56 580 f;
#X obj -16 401 t b b b;
#X msg 119 580 clear;
#X obj 204 204 outlet;
#X text 246 221 INSTANCE NUMBER;
#X obj 165 153 f \$1;
#X obj 165 176 t f f f;
#X obj 138 62 t b b;
#X obj -16 378 bng 15 250 50 0 empty empty empty 17 7 0 10 -262144
-1 -1;
#X obj -16 234 r SAVE-S;
#X obj 43 400 pack f f f f f f f f;
#X obj 262 472 unpack f f f f f f f f;
#X msg 43 438 set \$1 \$2 \$3 \$4 \$5 \$6 \$7 \$8;
#X obj 58 214 r \$0-slope-rise-s;
#X obj 262 691 s \$0-slope-rise-r;
#X msg 55 668 write statesave/\$1-slope-ss.txt;
#X msg 262 425 read statesave/\$1-slope-ss.txt;
#X obj 66 235 r \$0-slope-rise-cv-att-s;
#X obj 280 667 s \$0-slope-rise-cv-att-r;
#X obj 76 258 r \$0-slope-fall-s;
#X obj 298 643 s \$0-slope-fall-r;
#X obj 93 283 r \$0-slope-fall-cv-att-s;
#X obj 317 619 s \$0-slope-fall-cv-att-r;
#X obj 109 308 r \$0-slope-depth-s;
#X obj 335 597 s \$0-slope-depth-r;
#X obj 128 331 r \$0-slope-fast-med-slow-s;
#X obj 354 574 s \$0-slope-fast-med-slow-r;
#X obj 143 352 r \$0-slope-curve-s;
#X obj 372 548 s \$0-slope-curve-r;
#X obj 175 375 r \$0-slope-cycle-s;
#X obj 391 521 s \$0-slope-cycle-r;
#X connect 0 0 14 0;
#X connect 1 0 18 0;
#X connect 2 0 1 0;
#X connect 3 0 1 0;
#X connect 5 0 3 0;
#X connect 5 1 2 0;
#X connect 6 0 17 0;
#X connect 7 0 22 0;
#X connect 8 0 7 0;
#X connect 8 1 6 0;
#X connect 8 2 9 0;
#X connect 9 0 4 0;
#X connect 12 0 13 0;
#X connect 13 0 7 1;
#X connect 13 1 23 0;
#X connect 13 2 10 0;
#X connect 14 0 5 0;
#X connect 14 1 12 0;
#X connect 15 0 8 0;
#X connect 16 0 15 0;
#X connect 17 0 19 0;
#X connect 18 0 21 0;
#X connect 18 1 25 0;
#X connect 18 2 27 0;
#X connect 18 3 29 0;
#X connect 18 4 31 0;
#X connect 18 5 33 0;
#X connect 18 6 35 0;
#X connect 18 7 37 0;
#X connect 19 0 4 0;
#X connect 20 0 6 1;
#X connect 22 0 4 0;
#X connect 23 0 1 0;
#X connect 24 0 17 1;
#X connect 26 0 17 2;
#X connect 28 0 17 3;
#X connect 30 0 17 4;
#X connect 32 0 17 5;
#X connect 34 0 17 6;
#X connect 36 0 17 7;
#X restore 864 313 pd state-saving-multiple-instances;
#X obj 344 607 *~;
#X obj 864 384 s \$0-instance-num;
#X obj 864 336 makefilename %d;
#X obj 232 125 cnv 5 5 5 empty \$0-instance-num 1 0 0 0 12 -262144
-66577 0;
#X msg 864 361 label \$1;
#X obj 359 313 - 18;
#X obj 404 313 - 18;
#X obj 344 57 threshold~ 0.99 0 1 0;
#X msg 927 588 1 0 \, 0 1 1;
#X obj 836 578 *~ 2;
#X obj 836 600 -~ 1;
#N canvas 240 33 1117 745 state-saving-via-preset-manager-module 0
;
#X obj 340 227 textfile;
#X msg 618 210 rewind;
#X msg 575 210 bang;
#X obj 106 568 textfile;
#X obj 575 171 t b b;
#X obj 107 234 f;
#X obj 120 457 f;
#X obj 53 352 t b b b;
#X msg 236 499 clear;
#X obj 107 56 delay 5;
#X obj 53 407 delay 10;
#X msg 53 192 bang;
#X obj 53 26 r STORE-S!;
#X obj 340 128 f;
#X obj 313 85 t b b;
#X obj 328 49 t b f;
#X obj 385 146 f \$1;
#X obj 340 173 pack f f;
#X obj 385 96 loadbang;
#X obj 120 487 pack f f;
#X obj 165 440 loadbang;
#X obj 165 462 f \$1;
#X obj 328 26 r preset-manager-scan;
#X obj 135 418 r preset-manager-store-slot;
#X msg 106 368 set \$1 \$2 \$3 \$4 \$5 \$6 \$7 \$8;
#X obj 107 301 pack f f f f f f f f;
#X obj 340 249 unpack f f f f f f f f;
#X msg 119 528 write statesave/\$1-\$2-slope-ss.txt;
#X msg 340 202 read statesave/\$1-\$2-slope-ss.txt;
#X obj 123 78 r \$0-slope-rise-s;
#X obj 345 714 s \$0-slope-rise-r;
#X obj 136 107 r \$0-slope-rise-cv-att-s;
#X obj 366 617 s \$0-slope-rise-cv-att-r;
#X obj 146 146 r \$0-slope-fall-s;
#X obj 384 517 s \$0-slope-fall-r;
#X obj 169 173 r \$0-slope-fall-cv-att-s;
#X obj 400 414 s \$0-slope-fall-cv-att-r;
#X obj 183 196 r \$0-slope-depth-s;
#X obj 561 697 s \$0-slope-depth-r;
#X obj 189 217 r \$0-slope-fast-med-slow-s;
#X obj 616 596 s \$0-slope-fast-med-slow-r;
#X obj 223 271 r \$0-slope-cycle-s;
#X obj 652 398 s \$0-slope-cycle-r;
#X obj 206 243 r \$0-slope-curve-s;
#X obj 619 477 s \$0-slope-curve-r;
#N canvas 0 22 1069 747 morph-frequencies 0;
#X obj 176 94 inlet;
#X obj 176 236 pack f f;
#X obj 176 261 line;
#X obj 209 117 r preset-manager-morph-s;
#X msg 72 244 stop;
#X obj 72 214 r STOP-MORPH!;
#X obj 398 102 r frequencies-s;
#X obj 209 206 spigot;
#X obj 398 137 t f f;
#X obj 455 154 == 0;
#X obj 221 176 f;
#X floatatom 455 222 5 0 0 0 - - -, f 5;
#X obj 398 159 t b f;
#X floatatom 425 192 5 0 0 0 - - -, f 5;
#X obj 209 139 t f f;
#X obj 176 283 outlet;
#X connect 0 0 1 0;
#X connect 1 0 2 0;
#X connect 2 0 15 0;
#X connect 3 0 14 0;
#X connect 4 0 2 0;
#X connect 5 0 4 0;
#X connect 6 0 8 0;
#X connect 7 0 1 1;
#X connect 8 0 12 0;
#X connect 8 1 9 0;
#X connect 9 0 11 0;
#X connect 10 0 7 0;
#X connect 11 0 1 1;
#X connect 12 0 10 0;
#X connect 12 1 13 0;
#X connect 13 0 7 1;
#X connect 14 0 7 0;
#X connect 14 1 10 1;
#X restore 111 688 pd morph-frequencies;
#N canvas 0 22 1069 747 morph-parameters 0;
#X obj 176 94 inlet;
#X obj 176 236 pack f f;
#X obj 176 261 line;
#X obj 209 117 r preset-manager-morph-s;
#X msg 72 244 stop;
#X obj 72 214 r STOP-MORPH!;
#X obj 209 206 spigot;
#X obj 398 137 t f f;
#X obj 455 154 == 0;
#X obj 221 176 f;
#X floatatom 455 222 5 0 0 0 - - -, f 5;
#X obj 398 159 t b f;
#X floatatom 425 192 5 0 0 0 - - -, f 5;
#X obj 209 139 t f f;
#X obj 398 102 r parameters-s;
#X obj 176 288 outlet;
#X connect 0 0 1 0;
#X connect 1 0 2 0;
#X connect 2 0 15 0;
#X connect 3 0 13 0;
#X connect 4 0 2 0;
#X connect 5 0 4 0;
#X connect 6 0 1 1;
#X connect 7 0 11 0;
#X connect 7 1 8 0;
#X connect 8 0 10 0;
#X connect 9 0 6 0;
#X connect 10 0 1 1;
#X connect 11 0 9 0;
#X connect 11 1 12 0;
#X connect 12 0 6 1;
#X connect 13 0 6 0;
#X connect 13 1 9 1;
#X connect 14 0 7 0;
#X restore 340 689 pd morph-parameters;
#N canvas 0 22 1069 747 morph-attenuators 0;
#X obj 176 94 inlet;
#X obj 176 236 pack f f;
#X obj 176 261 line;
#X obj 209 117 r preset-manager-morph-s;
#X msg 72 244 stop;
#X obj 72 214 r STOP-MORPH!;
#X obj 209 206 spigot;
#X obj 398 137 t f f;
#X obj 455 154 == 0;
#X obj 221 176 f;
#X floatatom 455 222 5 0 0 0 - - -, f 5;
#X obj 398 159 t b f;
#X floatatom 425 192 5 0 0 0 - - -, f 5;
#X obj 209 139 t f f;
#X obj 398 102 r attenuators-s;
#X obj 176 288 outlet;
#X connect 0 0 1 0;
#X connect 1 0 2 0;
#X connect 2 0 15 0;
#X connect 3 0 13 0;
#X connect 4 0 2 0;
#X connect 5 0 4 0;
#X connect 6 0 1 1;
#X connect 7 0 11 0;
#X connect 7 1 8 0;
#X connect 8 0 10 0;
#X connect 9 0 6 0;
#X connect 10 0 1 1;
#X connect 11 0 9 0;
#X connect 11 1 12 0;
#X connect 12 0 6 1;
#X connect 13 0 6 0;
#X connect 13 1 9 1;
#X connect 14 0 7 0;
#X restore 367 593 pd morph-attenuators;
#N canvas 0 22 1069 747 morph-parameters 0;
#X obj 176 94 inlet;
#X obj 176 236 pack f f;
#X obj 176 261 line;
#X obj 209 117 r preset-manager-morph-s;
#X msg 72 244 stop;
#X obj 72 214 r STOP-MORPH!;
#X obj 209 206 spigot;
#X obj 398 137 t f f;
#X obj 455 154 == 0;
#X obj 221 176 f;
#X floatatom 455 222 5 0 0 0 - - -, f 5;
#X obj 398 159 t b f;
#X floatatom 425 192 5 0 0 0 - - -, f 5;
#X obj 209 139 t f f;
#X obj 398 102 r parameters-s;
#X obj 176 288 outlet;
#X connect 0 0 1 0;
#X connect 1 0 2 0;
#X connect 2 0 15 0;
#X connect 3 0 13 0;
#X connect 4 0 2 0;
#X connect 5 0 4 0;
#X connect 6 0 1 1;
#X connect 7 0 11 0;
#X connect 7 1 8 0;
#X connect 8 0 10 0;
#X connect 9 0 6 0;
#X connect 10 0 1 1;
#X connect 11 0 9 0;
#X connect 11 1 12 0;
#X connect 12 0 6 1;
#X connect 13 0 6 0;
#X connect 13 1 9 1;
#X connect 14 0 7 0;
#X restore 385 489 pd morph-parameters;
#N canvas 0 22 1069 747 morph-attenuators 0;
#X obj 176 94 inlet;
#X obj 176 236 pack f f;
#X obj 176 261 line;
#X obj 209 117 r preset-manager-morph-s;
#X msg 72 244 stop;
#X obj 72 214 r STOP-MORPH!;
#X obj 209 206 spigot;
#X obj 398 137 t f f;
#X obj 455 154 == 0;
#X obj 221 176 f;
#X floatatom 455 222 5 0 0 0 - - -, f 5;
#X obj 398 159 t b f;
#X floatatom 425 192 5 0 0 0 - - -, f 5;
#X obj 209 139 t f f;
#X obj 398 102 r attenuators-s;
#X obj 176 288 outlet;
#X connect 0 0 1 0;
#X connect 1 0 2 0;
#X connect 2 0 15 0;
#X connect 3 0 13 0;
#X connect 4 0 2 0;
#X connect 5 0 4 0;
#X connect 6 0 1 1;
#X connect 7 0 11 0;
#X connect 7 1 8 0;
#X connect 8 0 10 0;
#X connect 9 0 6 0;
#X connect 10 0 1 1;
#X connect 11 0 9 0;
#X connect 11 1 12 0;
#X connect 12 0 6 1;
#X connect 13 0 6 0;
#X connect 13 1 9 1;
#X connect 14 0 7 0;
#X restore 400 391 pd morph-attenuators;
#N canvas 0 22 1069 747 morph-parameters 0;
#X obj 176 94 inlet;
#X obj 176 236 pack f f;
#X obj 176 261 line;
#X obj 209 117 r preset-manager-morph-s;
#X msg 72 244 stop;
#X obj 72 214 r STOP-MORPH!;
#X obj 209 206 spigot;
#X obj 398 137 t f f;
#X obj 455 154 == 0;
#X obj 221 176 f;
#X floatatom 455 222 5 0 0 0 - - -, f 5;
#X obj 398 159 t b f;
#X floatatom 425 192 5 0 0 0 - - -, f 5;
#X obj 209 139 t f f;
#X obj 398 102 r parameters-s;
#X obj 176 288 outlet;
#X connect 0 0 1 0;
#X connect 1 0 2 0;
#X connect 2 0 15 0;
#X connect 3 0 13 0;
#X connect 4 0 2 0;
#X connect 5 0 4 0;
#X connect 6 0 1 1;
#X connect 7 0 11 0;
#X connect 7 1 8 0;
#X connect 8 0 10 0;
#X connect 9 0 6 0;
#X connect 10 0 1 1;
#X connect 11 0 9 0;
#X connect 11 1 12 0;
#X connect 12 0 6 1;
#X connect 13 0 6 0;
#X connect 13 1 9 1;
#X connect 14 0 7 0;
#X restore 134 642 pd morph-parameters;
#N canvas 0 22 1069 747 morph-attenuators 0;
#X obj 176 94 inlet;
#X obj 176 236 pack f f;
#X obj 176 261 line;
#X obj 209 117 r preset-manager-morph-s;
#X msg 72 244 stop;
#X obj 72 214 r STOP-MORPH!;
#X obj 209 206 spigot;
#X obj 398 137 t f f;
#X obj 455 154 == 0;
#X obj 221 176 f;
#X floatatom 455 222 5 0 0 0 - - -, f 5;
#X obj 398 159 t b f;
#X floatatom 425 192 5 0 0 0 - - -, f 5;
#X obj 209 139 t f f;
#X obj 398 102 r attenuators-s;
#X obj 176 288 outlet;
#X connect 0 0 1 0;
#X connect 1 0 2 0;
#X connect 2 0 15 0;
#X connect 3 0 13 0;
#X connect 4 0 2 0;
#X connect 5 0 4 0;
#X connect 6 0 1 1;
#X connect 7 0 11 0;
#X connect 7 1 8 0;
#X connect 8 0 10 0;
#X connect 9 0 6 0;
#X connect 10 0 1 1;
#X connect 11 0 9 0;
#X connect 11 1 12 0;
#X connect 12 0 6 1;
#X connect 13 0 6 0;
#X connect 13 1 9 1;
#X connect 14 0 7 0;
#X restore 560 668 pd morph-attenuators;
#N canvas 0 22 1069 747 morph-attenuators 0;
#X obj 176 94 inlet;
#X obj 176 236 pack f f;
#X obj 176 261 line;
#X obj 209 117 r preset-manager-morph-s;
#X msg 72 244 stop;
#X obj 72 214 r STOP-MORPH!;
#X obj 209 206 spigot;
#X obj 398 137 t f f;
#X obj 455 154 == 0;
#X obj 221 176 f;
#X floatatom 455 222 5 0 0 0 - - -, f 5;
#X obj 398 159 t b f;
#X floatatom 425 192 5 0 0 0 - - -, f 5;
#X obj 209 139 t f f;
#X obj 398 102 r attenuators-s;
#X obj 176 288 outlet;
#X connect 0 0 1 0;
#X connect 1 0 2 0;
#X connect 2 0 15 0;
#X connect 3 0 13 0;
#X connect 4 0 2 0;
#X connect 5 0 4 0;
#X connect 6 0 1 1;
#X connect 7 0 11 0;
#X connect 7 1 8 0;
#X connect 8 0 10 0;
#X connect 9 0 6 0;
#X connect 10 0 1 1;
#X connect 11 0 9 0;
#X connect 11 1 12 0;
#X connect 12 0 6 1;
#X connect 13 0 6 0;
#X connect 13 1 9 1;
#X connect 14 0 7 0;
#X restore 157 594 pd morph-attenuators;
#X connect 0 0 26 0;
#X connect 1 0 0 0;
#X connect 2 0 0 0;
#X connect 4 0 2 0;
#X connect 4 1 1 0;
#X connect 5 0 25 0;
#X connect 6 0 19 0;
#X connect 7 0 10 0;
#X connect 7 1 9 0;
#X connect 7 2 8 0;
#X connect 8 0 3 0;
#X connect 9 0 5 0;
#X connect 10 0 6 0;
#X connect 11 0 7 0;
#X connect 12 0 11 0;
#X connect 13 0 17 0;
#X connect 14 0 4 0;
#X connect 14 1 13 0;
#X connect 15 0 14 0;
#X connect 15 1 13 1;
#X connect 16 0 17 1;
#X connect 17 0 28 0;
#X connect 18 0 16 0;
#X connect 19 0 27 0;
#X connect 20 0 21 0;
#X connect 21 0 19 1;
#X connect 22 0 15 0;
#X connect 23 0 6 1;
#X connect 24 0 3 0;
#X connect 25 0 24 0;
#X connect 26 0 46 0;
#X connect 26 1 47 0;
#X connect 26 2 48 0;
#X connect 26 3 49 0;
#X connect 26 4 51 0;
#X connect 26 5 40 0;
#X connect 26 6 44 0;
#X connect 26 7 42 0;
#X connect 27 0 3 0;
#X connect 28 0 0 0;
#X connect 29 0 5 1;
#X connect 31 0 25 1;
#X connect 33 0 25 2;
#X connect 35 0 25 3;
#X connect 37 0 25 4;
#X connect 39 0 25 5;
#X connect 41 0 25 7;
#X connect 43 0 25 6;
#X connect 46 0 30 0;
#X connect 47 0 32 0;
#X connect 48 0 34 0;
#X connect 49 0 36 0;
#X connect 51 0 38 0;
#X restore 865 289 pd state-saving-via-preset-manager-module;
#X obj 344 384 t b b b b b;
#X obj 796 151 tgl 15 0 empty empty empty 17 7 0 10 -262144 -1 -1 0
1;
#X obj 796 77 env~;
#X obj 796 99 > 0;
#X obj 796 121 change;
#X obj 796 169 metro 5;
#X obj 174 232 cnv 5 5 5 empty empty BI-P 0 0 0 8 -262144 -1 0;
#X obj 529 653 *~ 2;
#X obj 529 675 -~ 1;
#X obj 529 697 outlet~;
#X obj 863 465 clip 1 9999;
#X obj 624 419 clip 1 9999;
#X obj 624 347 clip 1 9999;
#X obj 503 362 clip 1 9999;
#X obj 449 462 clip 1 9999;
#X obj 166 410 clip 1 9999;
#N canvas 297 27 748 331 parameter-nudging-system 0;
#X obj 457 68 clip 0 127;
#X obj 23 67 clip 0 127;
#X obj 171 67 clip 0 127;
#X obj 330 69 clip 0 127;
#X obj 50 142 r NUDGE!;
#X obj 50 164 random 2;
#X obj 188 141 r NUDGE!;
#X obj 188 163 random 2;
#X obj 23 22 r \$0-slope-rise-s;
#X obj 23 95 s \$0-slope-rise-r;
#X obj 171 22 r \$0-slope-rise-cv-att-s;
#X obj 171 95 s \$0-slope-rise-cv-att-r;
#X obj 330 22 r \$0-slope-fall-s;
#X obj 330 95 s \$0-slope-fall-r;
#X obj 457 23 r \$0-slope-fall-cv-att-s;
#X obj 457 95 s \$0-slope-fall-cv-att-r;
#X obj 615 67 clip 0 127;
#X obj 615 22 r \$0-slope-depth-s;
#X obj 615 94 s \$0-slope-depth-r;
#X obj 50 186 s \$0-slope-curve-r;
#X obj 188 184 s \$0-slope-cycle-r;
#N canvas 0 22 484 497 nudge-parameters 0;
#X obj 124 234 random;
#X obj 232 335 f;
#X obj 232 368 +;
#X obj 257 166 random 2;
#X obj 124 275 t f f;
#X obj 124 351 t b f;
#X obj 124 297 *;
#X obj 257 188 sel 0 1;
#X msg 257 280 -1;
#X msg 335 280 1;
#X obj 124 149 t b b b;
#X obj 124 74 r NUDGE!;
#X obj 157 193 r NUDGE-RANGE;
#X obj 247 308 inlet;
#X obj 232 397 outlet;
#X obj 124 96 spigot;
#X obj 185 79 r parameters2-s;
#X connect 0 0 4 0;
#X connect 1 0 2 0;
#X connect 2 0 14 0;
#X connect 3 0 7 0;
#X connect 4 0 6 0;
#X connect 5 0 2 0;
#X connect 5 1 2 1;
#X connect 6 0 5 0;
#X connect 7 0 8 0;
#X connect 7 1 9 0;
#X connect 8 0 6 1;
#X connect 9 0 6 1;
#X connect 10 0 0 0;
#X connect 10 1 1 0;
#X connect 10 2 3 0;
#X connect 11 0 15 0;
#X connect 12 0 0 1;
#X connect 13 0 1 1;
#X connect 15 0 10 0;
#X connect 16 0 15 1;
#X restore 23 47 pd nudge-parameters;
#N canvas 0 22 484 497 nudge-attenuators 0;
#X obj 124 234 random;
#X obj 232 335 f;
#X obj 232 368 +;
#X obj 257 166 random 2;
#X obj 124 275 t f f;
#X obj 124 351 t b f;
#X obj 124 297 *;
#X obj 257 188 sel 0 1;
#X msg 257 280 -1;
#X msg 335 280 1;
#X obj 124 149 t b b b;
#X obj 124 71 r NUDGE!;
#X obj 157 193 r NUDGE-RANGE;
#X obj 247 308 inlet;
#X obj 232 397 outlet;
#X obj 124 93 spigot;
#X obj 201 76 r attenuators2-s;
#X connect 0 0 4 0;
#X connect 1 0 2 0;
#X connect 2 0 14 0;
#X connect 3 0 7 0;
#X connect 4 0 6 0;
#X connect 5 0 2 0;
#X connect 5 1 2 1;
#X connect 6 0 5 0;
#X connect 7 0 8 0;
#X connect 7 1 9 0;
#X connect 8 0 6 1;
#X connect 9 0 6 1;
#X connect 10 0 0 0;
#X connect 10 1 1 0;
#X connect 10 2 3 0;
#X connect 11 0 15 0;
#X connect 12 0 0 1;
#X connect 13 0 1 1;
#X connect 15 0 10 0;
#X connect 16 0 15 1;
#X restore 171 44 pd nudge-attenuators;
#N canvas 0 22 484 497 nudge-parameters 0;
#X obj 124 234 random;
#X obj 232 335 f;
#X obj 232 368 +;
#X obj 257 166 random 2;
#X obj 124 275 t f f;
#X obj 124 351 t b f;
#X obj 124 297 *;
#X obj 257 188 sel 0 1;
#X msg 257 280 -1;
#X msg 335 280 1;
#X obj 124 149 t b b b;
#X obj 124 74 r NUDGE!;
#X obj 157 193 r NUDGE-RANGE;
#X obj 247 308 inlet;
#X obj 232 397 outlet;
#X obj 124 96 spigot;
#X obj 185 79 r parameters2-s;
#X connect 0 0 4 0;
#X connect 1 0 2 0;
#X connect 2 0 14 0;
#X connect 3 0 7 0;
#X connect 4 0 6 0;
#X connect 5 0 2 0;
#X connect 5 1 2 1;
#X connect 6 0 5 0;
#X connect 7 0 8 0;
#X connect 7 1 9 0;
#X connect 8 0 6 1;
#X connect 9 0 6 1;
#X connect 10 0 0 0;
#X connect 10 1 1 0;
#X connect 10 2 3 0;
#X connect 11 0 15 0;
#X connect 12 0 0 1;
#X connect 13 0 1 1;
#X connect 15 0 10 0;
#X connect 16 0 15 1;
#X restore 330 44 pd nudge-parameters;
#N canvas 0 22 484 497 nudge-attenuators 0;
#X obj 124 234 random;
#X obj 232 335 f;
#X obj 232 368 +;
#X obj 257 166 random 2;
#X obj 124 275 t f f;
#X obj 124 351 t b f;
#X obj 124 297 *;
#X obj 257 188 sel 0 1;
#X msg 257 280 -1;
#X msg 335 280 1;
#X obj 124 149 t b b b;
#X obj 124 71 r NUDGE!;
#X obj 157 193 r NUDGE-RANGE;
#X obj 247 308 inlet;
#X obj 232 397 outlet;
#X obj 124 93 spigot;
#X obj 201 76 r attenuators2-s;
#X connect 0 0 4 0;
#X connect 1 0 2 0;
#X connect 2 0 14 0;
#X connect 3 0 7 0;
#X connect 4 0 6 0;
#X connect 5 0 2 0;
#X connect 5 1 2 1;
#X connect 6 0 5 0;
#X connect 7 0 8 0;
#X connect 7 1 9 0;
#X connect 8 0 6 1;
#X connect 9 0 6 1;
#X connect 10 0 0 0;
#X connect 10 1 1 0;
#X connect 10 2 3 0;
#X connect 11 0 15 0;
#X connect 12 0 0 1;
#X connect 13 0 1 1;
#X connect 15 0 10 0;
#X connect 16 0 15 1;
#X restore 457 46 pd nudge-attenuators;
#N canvas 0 22 484 497 nudge-attenuators 0;
#X obj 124 234 random;
#X obj 232 335 f;
#X obj 232 368 +;
#X obj 257 166 random 2;
#X obj 124 275 t f f;
#X obj 124 351 t b f;
#X obj 124 297 *;
#X obj 257 188 sel 0 1;
#X msg 257 280 -1;
#X msg 335 280 1;
#X obj 124 149 t b b b;
#X obj 124 71 r NUDGE!;
#X obj 157 193 r NUDGE-RANGE;
#X obj 247 308 inlet;
#X obj 232 397 outlet;
#X obj 124 93 spigot;
#X obj 201 76 r attenuators2-s;
#X connect 0 0 4 0;
#X connect 1 0 2 0;
#X connect 2 0 14 0;
#X connect 3 0 7 0;
#X connect 4 0 6 0;
#X connect 5 0 2 0;
#X connect 5 1 2 1;
#X connect 6 0 5 0;
#X connect 7 0 8 0;
#X connect 7 1 9 0;
#X connect 8 0 6 1;
#X connect 9 0 6 1;
#X connect 10 0 0 0;
#X connect 10 1 1 0;
#X connect 10 2 3 0;
#X connect 11 0 15 0;
#X connect 12 0 0 1;
#X connect 13 0 1 1;
#X connect 15 0 10 0;
#X connect 16 0 15 1;
#X restore 615 45 pd nudge-attenuators;
#X connect 0 0 15 0;
#X connect 1 0 9 0;
#X connect 2 0 11 0;
#X connect 3 0 13 0;
#X connect 4 0 5 0;
#X connect 5 0 19 0;
#X connect 6 0 7 0;
#X connect 7 0 20 0;
#X connect 8 0 21 0;
#X connect 10 0 22 0;
#X connect 12 0 23 0;
#X connect 14 0 24 0;
#X connect 16 0 18 0;
#X connect 17 0 25 0;
#X connect 21 0 1 0;
#X connect 22 0 2 0;
#X connect 23 0 3 0;
#X connect 24 0 0 0;
#X connect 25 0 16 0;
#X restore 864 268 pd parameter-nudging-system;
#X msg 408 413 0 1;
#N canvas 723 23 1039 812 external-messages 0;
#X floatatom 22 705 5 0 0 0 - - -, f 5;
#X obj 21 327 spigot;
#X obj 54 287 tgl 15 0 empty empty empty 17 7 0 10 -262144 -1 -1 0
1;
#X obj 90 271 ==;
#X obj 105 247 f \$1;
#X obj 105 223 loadbang;
#X msg 21 201 \$1 \$2;
#X msg 21 155 symbol \$1;
#X obj 21 179 pack s f;
#X obj 22 684 f;
#X obj 22 632 t b f;
#X obj 22 655 spigot;
#X obj 21 61 unpack s f f;
#X symbolatom 21 93 10 0 0 0 - - -, f 10;
#X obj 54 307 t f f;
#X obj 81 331 s \$0-msg-spigot;
#X obj 70 639 r \$0-msg-spigot;
#X floatatom 59 593 5 0 0 0 - - -, f 5;
#X obj 59 572 f;
#X obj 59 520 t b f;
#X obj 59 543 spigot;
#X obj 107 527 r \$0-msg-spigot;
#X floatatom 194 739 5 0 0 0 - - -, f 5;
#X obj 194 718 f;
#X obj 194 666 t b f;
#X obj 194 689 spigot;
#X obj 242 673 r \$0-msg-spigot;
#X floatatom 224 611 5 0 0 0 - - -, f 5;
#X obj 224 590 f;
#X obj 224 538 t b f;
#X obj 224 561 spigot;
#X obj 272 545 r \$0-msg-spigot;
#X floatatom 367 735 5 0 0 0 - - -, f 5;
#X obj 367 714 f;
#X obj 367 662 t b f;
#X obj 367 685 spigot;
#X obj 415 669 r \$0-msg-spigot;
#X obj 21 13 r slope;
#X obj 21 362 route RISE RISE(CV) FALL FALL(CV) DEPTH-/+ CURVE CYCLE
RADIO TRIG;
#X floatatom 391 586 5 0 0 0 - - -, f 5;
#X obj 391 565 f;
#X obj 391 513 t b f;
#X obj 391 536 spigot;
#X obj 439 520 r \$0-msg-spigot;
#X floatatom 546 708 5 0 0 0 - - -, f 5;
#X obj 546 687 f;
#X obj 546 635 t b f;
#X obj 546 658 spigot;
#X obj 594 642 r \$0-msg-spigot;
#X floatatom 572 575 5 0 0 0 - - -, f 5;
#X obj 572 554 f;
#X obj 572 502 t b f;
#X obj 572 525 spigot;
#X obj 620 509 r \$0-msg-spigot;
#X floatatom 635 448 5 0 0 0 - - -, f 5;
#X obj 635 427 f;
#X obj 635 375 t b f;
#X obj 635 398 spigot;
#X obj 683 382 r \$0-msg-spigot;
#X obj 22 725 s \$0-slope-rise-r;
#X obj 59 613 s \$0-slope-rise-cv-att-r;
#X obj 194 759 s \$0-slope-fall-r;
#X obj 224 631 s \$0-slope-fall-cv-att-r;
#X obj 367 755 s \$0-slope-depth-r;
#X obj 391 606 s \$0-slope-curve-r;
#X obj 546 728 s \$0-slope-cycle-r;
#X obj 572 595 s \$0-slope-fast-med-slow-r;
#X obj 635 468 s \$0-slope-trig-gui!-r;
#X connect 0 0 59 0;
#X connect 1 0 38 0;
#X connect 2 0 14 0;
#X connect 3 0 2 0;
#X connect 4 0 3 1;
#X connect 5 0 4 0;
#X connect 6 0 1 0;
#X connect 7 0 8 0;
#X connect 8 0 6 0;
#X connect 9 0 0 0;
#X connect 10 0 11 0;
#X connect 10 1 9 1;
#X connect 11 0 9 0;
#X connect 12 0 13 0;
#X connect 12 1 8 1;
#X connect 12 2 3 0;
#X connect 13 0 7 0;
#X connect 14 0 1 1;
#X connect 14 1 15 0;
#X connect 16 0 11 1;
#X connect 17 0 60 0;
#X connect 18 0 17 0;
#X connect 19 0 20 0;
#X connect 19 1 18 1;
#X connect 20 0 18 0;
#X connect 21 0 20 1;
#X connect 22 0 61 0;
#X connect 23 0 22 0;
#X connect 24 0 25 0;
#X connect 24 1 23 1;
#X connect 25 0 23 0;
#X connect 26 0 25 1;
#X connect 27 0 62 0;
#X connect 28 0 27 0;
#X connect 29 0 30 0;
#X connect 29 1 28 1;
#X connect 30 0 28 0;
#X connect 31 0 30 1;
#X connect 32 0 63 0;
#X connect 33 0 32 0;
#X connect 34 0 35 0;
#X connect 34 1 33 1;
#X connect 35 0 33 0;
#X connect 36 0 35 1;
#X connect 37 0 12 0;
#X connect 38 0 10 0;
#X connect 38 1 19 0;
#X connect 38 2 24 0;
#X connect 38 3 29 0;
#X connect 38 4 34 0;
#X connect 38 5 41 0;
#X connect 38 6 46 0;
#X connect 38 7 51 0;
#X connect 38 8 56 0;
#X connect 39 0 64 0;
#X connect 40 0 39 0;
#X connect 41 0 42 0;
#X connect 41 1 40 1;
#X connect 42 0 40 0;
#X connect 43 0 42 1;
#X connect 44 0 65 0;
#X connect 45 0 44 0;
#X connect 46 0 47 0;
#X connect 46 1 45 1;
#X connect 47 0 45 0;
#X connect 48 0 47 1;
#X connect 49 0 66 0;
#X connect 50 0 49 0;
#X connect 51 0 52 0;
#X connect 51 1 50 1;
#X connect 52 0 50 0;
#X connect 53 0 52 1;
#X connect 54 0 67 0;
#X connect 55 0 54 0;
#X connect 56 0 57 0;
#X connect 56 1 55 1;
#X connect 57 0 55 0;
#X connect 58 0 57 1;
#X restore 863 406 pd external-messages;
#X obj 414 91 bng 15 250 50 0 \$0-slope-trig-gui!-s \$0-slope-trig-gui!-r
empty 17 7 0 10 -262144 -1 -1;
#X connect 0 0 1 0;
#X connect 1 0 89 0;
#X connect 1 0 90 0;
#X connect 1 0 90 1;
#X connect 2 0 3 0;
#X connect 3 0 0 0;
#X connect 4 0 47 0;
#X connect 5 0 57 0;
#X connect 6 0 105 0;
#X connect 7 0 106 0;
#X connect 8 0 126 0;
#X connect 8 1 124 0;
#X connect 9 0 77 0;
#X connect 10 0 123 0;
#X connect 11 0 10 0;
#X connect 11 1 10 1;
#X connect 12 0 112 0;
#X connect 13 0 12 0;
#X connect 16 0 107 0;
#X connect 19 0 13 1;
#X connect 19 1 20 0;
#X connect 20 0 21 0;
#X connect 21 0 12 0;
#X connect 29 0 30 0;
#X connect 29 1 32 0;
#X connect 29 2 33 0;
#X connect 30 0 31 0;
#X connect 31 0 6 0;
#X connect 31 1 7 0;
#X connect 31 2 6 1;
#X connect 31 3 7 1;
#X connect 32 0 31 0;
#X connect 33 0 31 0;
#X connect 34 0 43 0;
#X connect 34 0 114 0;
#X connect 41 0 42 0;
#X connect 42 0 47 0;
#X connect 42 1 47 1;
#X connect 43 0 41 0;
#X connect 44 0 45 0;
#X connect 45 0 46 0;
#X connect 46 0 43 1;
#X connect 47 0 6 0;
#X connect 48 0 51 0;
#X connect 48 0 114 0;
#X connect 49 0 50 0;
#X connect 50 0 57 0;
#X connect 50 1 57 1;
#X connect 51 0 49 0;
#X connect 52 0 53 0;
#X connect 53 0 54 0;
#X connect 54 0 51 1;
#X connect 57 0 7 0;
#X connect 62 0 18 0;
#X connect 62 0 119 0;
#X connect 63 0 64 0;
#X connect 64 0 69 0;
#X connect 65 0 66 0;
#X connect 66 0 62 1;
#X connect 68 0 63 0;
#X connect 69 0 65 0;
#X connect 69 1 67 0;
#X connect 70 0 112 0;
#X connect 70 1 29 0;
#X connect 71 0 73 0;
#X connect 72 0 127 0;
#X connect 72 1 125 0;
#X connect 72 2 122 0;
#X connect 73 0 74 0;
#X connect 74 0 109 0;
#X connect 77 0 13 0;
#X connect 77 1 108 0;
#X connect 78 0 79 0;
#X connect 82 0 85 0;
#X connect 82 1 83 0;
#X connect 83 0 87 0;
#X connect 84 0 88 1;
#X connect 85 0 84 0;
#X connect 86 0 89 1;
#X connect 87 0 86 0;
#X connect 88 0 62 0;
#X connect 89 0 62 0;
#X connect 90 0 100 0;
#X connect 90 0 100 1;
#X connect 91 0 4 0;
#X connect 92 0 44 0;
#X connect 93 0 5 0;
#X connect 94 0 52 0;
#X connect 95 0 68 0;
#X connect 96 0 70 0;
#X connect 97 0 82 0;
#X connect 98 0 19 0;
#X connect 99 0 102 0;
#X connect 100 0 88 0;
#X connect 102 0 104 0;
#X connect 104 0 101 0;
#X connect 105 0 72 0;
#X connect 106 0 8 0;
#X connect 107 0 112 0;
#X connect 107 0 131 0;
#X connect 108 0 78 0;
#X connect 109 0 110 0;
#X connect 110 0 75 0;
#X connect 112 0 2 0;
#X connect 112 1 9 0;
#X connect 112 2 17 0;
#X connect 112 3 71 0;
#X connect 112 4 129 0;
#X connect 113 0 117 0;
#X connect 114 0 115 0;
#X connect 115 0 116 0;
#X connect 116 0 113 0;
#X connect 117 0 41 0;
#X connect 117 0 49 0;
#X connect 119 0 120 0;
#X connect 120 0 121 0;
#X connect 122 0 71 1;
#X connect 123 0 9 1;
#X connect 124 0 11 0;
#X connect 125 0 10 0;
#X connect 126 0 3 1;
#X connect 127 0 2 1;
#X connect 129 0 1 0;
#X connect 131 0 112 0;
#X coords 0 -1 1 1 250 140 2 100 100;
