#N canvas 166 23 1080 707 10;
#X obj 761 249 noise~;
#X obj 761 296 *~;
#X obj 437 402 vline~;
#X obj 422 476 *~;
#X obj 497 267 / 127;
#X obj 497 337 moses 10;
#X obj 437 354 f;
#X msg 437 380 1 1 \, 0 \$1 1;
#X obj 437 424 *~;
#X obj 833 254 vline~;
#X obj 109 164 hsl 128 15 1.27 127 1 1 \$0-snare-noise-s \$0-snare-noise-r
NOISE 133 7 0 10 -262144 -1 -1 0 1;
#X obj 804 93 / 127;
#X obj 804 170 moses 10;
#X obj 833 206 f;
#X msg 833 232 1 1 \, 0 \$1 1;
#X obj 833 276 *~;
#X obj 109 239 hsl 128 15 1.27 127 1 1 \$0-envmod-s \$0-envmod-r ENVMOD
133 7 0 10 -158136 -1 -1 0 1;
#X obj 497 312 * 500;
#X obj 804 148 * 500;
#X obj 761 342 hip~;
#X obj 109 224 hsl 128 15 0 127 0 1 \$0-snare-acc-prob-s \$0-snare-acc-prob-r
ACC-PROB 133 7 0 10 -262144 -1 -1 0 1;
#X obj 929 229 / 127;
#X obj 929 306 + 50;
#X obj 929 284 * 9950;
#X floatatom 929 328 5 0 0 0 - - -, f 5;
#X obj 109 134 hsl 128 15 0 127 0 1 \$0-frequency-s \$0-frequency-r
PITCH 133 7 0 10 -262144 -1 -1 0 1;
#X obj 833 309 *~;
#X obj 437 446 *~;
#X msg 437 280 bang;
#X obj 437 302 t b b;
#X obj 497 245 r \$0-snare-decay-s;
#X obj 804 67 r \$0-snare-noise-s;
#X obj 928 202 r \$0-snare-color-s;
#X obj 297 926 outlet~;
#X obj 372 5 inlet~;
#X obj 539 54 *~ 400;
#X obj 551 88 inlet~;
#X obj 551 127 snapshot~;
#X obj 551 149 t b f;
#X obj 497 289 +;
#X obj 372 73 s \$0-snare-trig!;
#X obj 600 87 r \$0-snare-trig!;
#X obj 804 115 +;
#X obj 636 110 inlet~;
#X obj 637 157 snapshot~;
#X obj 637 179 t b f;
#X obj 686 117 r \$0-snare-trig!;
#X obj 851 389 inlet~;
#X obj 851 428 snapshot~;
#X obj 851 450 t b f;
#X obj 900 388 r \$0-snare-trig!;
#X obj 929 251 +;
#X obj 354 224 r \$0-snare-trig!;
#X obj 105 124 cnv 5 5 5 empty empty SNARE 0 0 0 12 -262144 -66577
0;
#X obj 236 109 cnv 5 5 5 empty empty COLOR 0 0 0 8 -262144 -1 0;
#X obj 306 108 cnv 5 5 5 empty empty RDM 0 0 0 8 -262144 -226533 0
;
#X obj 165 109 cnv 5 5 5 empty empty DECAY 0 0 0 8 -262144 -1 0;
#X obj 148 124 cnv 5 5 5 empty \$0-instance-num 2 0 0 0 12 -262144
-66577 0;
#X obj 129 109 cnv 5 5 5 empty empty PITCH 0 0 0 8 -262144 -1 0;
#X obj 200 109 cnv 5 5 5 empty empty NOISE 0 0 0 8 -262144 -1 0;
#N canvas 267 22 921 741 state-saving-multiple-instances 0;
#X obj 380 -42 loadbang;
#X obj 413 264 textfile;
#X obj 380 -9 t b b;
#X msg 670 247 rewind;
#X msg 627 247 bang;
#X obj 109 691 textfile;
#X obj 627 208 t b b;
#X obj 110 357 f;
#X obj 123 580 f;
#X obj 48 403 t b b b;
#X msg 186 580 clear;
#X obj 446 147 outlet;
#X text 442 167 INSTANCE NUMBER;
#X obj 407 82 f \$1;
#X obj 407 118 t f f f;
#X obj 48 378 bng 15 250 50 0 empty empty empty 17 7 0 10 -262144 -1
-1;
#X obj 48 274 r SAVE-S;
#X obj 87 -3 r \$0-snare-decay-s;
#X obj 430 603 s \$0-snare-decay-r;
#X obj 110 18 r \$0-snare-noise-s;
#X obj 457 577 s \$0-snare-noise-r;
#X obj 133 39 r \$0-snare-color-s;
#X obj 484 547 s \$0-snare-color-r;
#X msg 122 651 write statesave/\$1-snare-ss.txt;
#X msg 413 239 read statesave/\$1-snare-ss.txt;
#X obj 79 -26 r \$0-frequency-s;
#X obj 403 626 s \$0-frequency-r;
#X msg 110 430 set \$1 \$2 \$3 \$4 \$5 \$6 \$7 \$8 \$9;
#X obj 110 400 pack f f f f f f f f f;
#X obj 162 67 r \$0-snare-flam-s;
#X obj 179 92 r \$0-snare-flam-prob-s;
#X obj 225 113 r \$0-snare-acc-prob-s;
#X obj 251 163 r \$0-load-s;
#X obj 242 137 r \$0-envmod-s;
#X obj 413 286 unpack f f f f f f f f f;
#X obj 504 510 s \$0-snare-flam-r;
#X obj 531 487 s \$0-snare-flam-prob-r;
#X obj 558 461 s \$0-snare-acc-prob-r;
#X obj 585 431 s \$0-envmod-r;
#X obj 592 403 s \$0-load-r;
#X obj 491 15 r \$0-reload!;
#X connect 0 0 2 0;
#X connect 1 0 34 0;
#X connect 2 0 6 0;
#X connect 2 1 13 0;
#X connect 3 0 1 0;
#X connect 4 0 1 0;
#X connect 6 0 4 0;
#X connect 6 1 3 0;
#X connect 7 0 28 0;
#X connect 8 0 23 0;
#X connect 9 0 8 0;
#X connect 9 1 7 0;
#X connect 9 2 10 0;
#X connect 10 0 5 0;
#X connect 13 0 14 0;
#X connect 14 0 8 1;
#X connect 14 1 24 0;
#X connect 14 2 11 0;
#X connect 15 0 9 0;
#X connect 16 0 15 0;
#X connect 17 0 28 1;
#X connect 19 0 28 2;
#X connect 21 0 28 3;
#X connect 23 0 5 0;
#X connect 24 0 1 0;
#X connect 25 0 7 1;
#X connect 27 0 5 0;
#X connect 28 0 27 0;
#X connect 29 0 28 4;
#X connect 30 0 28 5;
#X connect 31 0 28 6;
#X connect 32 0 28 8;
#X connect 33 0 28 7;
#X connect 34 0 26 0;
#X connect 34 1 18 0;
#X connect 34 2 20 0;
#X connect 34 3 22 0;
#X connect 34 4 35 0;
#X connect 34 5 36 0;
#X connect 34 6 37 0;
#X connect 34 7 38 0;
#X connect 34 8 39 0;
#X connect 40 0 2 0;
#X restore 29 365 pd state-saving-multiple-instances;
#X obj 29 439 s \$0-instance-num;
#X obj 29 391 makefilename %d;
#X msg 29 416 label \$1;
#N canvas 81 22 1117 745 state-saving-via-preset-manager-module 0;
#X obj 477 158 textfile;
#X msg 755 141 rewind;
#X msg 712 141 bang;
#X obj 243 690 textfile;
#X obj 712 102 t b b;
#X obj 194 252 f;
#X obj 257 579 f;
#X obj 139 122 t b b b;
#X msg 373 621 clear;
#X obj 194 76 delay 5;
#X obj 190 529 delay 10;
#X msg 140 83 bang;
#X obj 140 51 r STORE-S!;
#X obj 477 59 f;
#X obj 450 16 t b b;
#X obj 465 -20 t b f;
#X obj 522 77 f \$1;
#X obj 477 104 pack f f;
#X obj 522 27 loadbang;
#X obj 257 609 pack f f;
#X obj 302 562 loadbang;
#X obj 302 584 f \$1;
#X obj 465 -84 r preset-manager-scan;
#X obj 272 540 r preset-manager-store-slot;
#X obj 465 -62 i;
#X obj 219 125 r \$0-snare-decay-s;
#X obj 242 147 r \$0-snare-noise-s;
#X obj 264 169 r \$0-snare-color-s;
#X msg 256 650 write statesave/\$1-\$2-snare-ss.txt;
#X msg 477 133 read statesave/\$1-\$2-snare-ss.txt;
#X obj 211 103 r \$0-frequency-s;
#X obj 194 319 pack f f f f f f f f f;
#X msg 243 490 set \$1 \$2 \$3 \$4 \$5 \$6 \$7 \$8 \$9;
#X obj 256 200 r \$0-snare-flam-s;
#X obj 273 225 r \$0-snare-flam-prob-s;
#X obj 319 246 r \$0-snare-acc-prob-s;
#X obj 345 296 r \$0-load-s;
#X obj 336 270 r \$0-envmod-s;
#X obj 477 181 unpack f f f f f f f f f;
#N canvas 0 22 1069 747 morph-parameters 0;
#X obj 176 94 inlet;
#X obj 176 236 pack f f;
#X obj 176 261 line;
#X obj 209 117 r preset-manager-morph-s;
#X msg 72 244 stop;
#X obj 72 214 r STOP-MORPH!;
#X obj 209 206 spigot;
#X obj 398 137 t f f;
#X obj 455 154 == 0;
#X obj 221 176 f;
#X floatatom 455 222 5 0 0 0 - - -, f 5;
#X obj 398 159 t b f;
#X floatatom 425 192 5 0 0 0 - - -, f 5;
#X obj 209 139 t f f;
#X obj 398 102 r parameters-s;
#X obj 176 288 outlet;
#X connect 0 0 1 0;
#X connect 1 0 2 0;
#X connect 2 0 15 0;
#X connect 3 0 13 0;
#X connect 4 0 2 0;
#X connect 5 0 4 0;
#X connect 6 0 1 1;
#X connect 7 0 11 0;
#X connect 7 1 8 0;
#X connect 8 0 10 0;
#X connect 9 0 6 0;
#X connect 10 0 1 1;
#X connect 11 0 9 0;
#X connect 11 1 12 0;
#X connect 12 0 6 1;
#X connect 13 0 6 0;
#X connect 13 1 9 1;
#X connect 14 0 7 0;
#X restore 522 620 pd morph-parameters;
#N canvas 0 22 1069 747 morph-attenuators 0;
#X obj 176 94 inlet;
#X obj 176 236 pack f f;
#X obj 176 261 line;
#X obj 209 117 r preset-manager-morph-s;
#X msg 72 244 stop;
#X obj 72 214 r STOP-MORPH!;
#X obj 209 206 spigot;
#X obj 398 137 t f f;
#X obj 455 154 == 0;
#X obj 221 176 f;
#X floatatom 455 222 5 0 0 0 - - -, f 5;
#X obj 398 159 t b f;
#X floatatom 425 192 5 0 0 0 - - -, f 5;
#X obj 209 139 t f f;
#X obj 398 102 r attenuators-s;
#X obj 176 288 outlet;
#X connect 0 0 1 0;
#X connect 1 0 2 0;
#X connect 2 0 15 0;
#X connect 3 0 13 0;
#X connect 4 0 2 0;
#X connect 5 0 4 0;
#X connect 6 0 1 1;
#X connect 7 0 11 0;
#X connect 7 1 8 0;
#X connect 8 0 10 0;
#X connect 9 0 6 0;
#X connect 10 0 1 1;
#X connect 11 0 9 0;
#X connect 11 1 12 0;
#X connect 12 0 6 1;
#X connect 13 0 6 0;
#X connect 13 1 9 1;
#X connect 14 0 7 0;
#X restore 617 302 pd morph-attenuators;
#N canvas 0 22 1069 747 morph-frequencies 0;
#X obj 176 94 inlet;
#X obj 176 236 pack f f;
#X obj 176 261 line;
#X obj 209 117 r preset-manager-morph-s;
#X msg 72 244 stop;
#X obj 72 214 r STOP-MORPH!;
#X obj 398 102 r frequencies-s;
#X obj 209 206 spigot;
#X obj 398 137 t f f;
#X obj 455 154 == 0;
#X obj 221 176 f;
#X floatatom 455 222 5 0 0 0 - - -, f 5;
#X obj 398 159 t b f;
#X floatatom 425 192 5 0 0 0 - - -, f 5;
#X obj 209 139 t f f;
#X obj 176 283 outlet;
#X connect 0 0 1 0;
#X connect 1 0 2 0;
#X connect 2 0 15 0;
#X connect 3 0 14 0;
#X connect 4 0 2 0;
#X connect 5 0 4 0;
#X connect 6 0 8 0;
#X connect 7 0 1 1;
#X connect 8 0 12 0;
#X connect 8 1 9 0;
#X connect 9 0 11 0;
#X connect 10 0 7 0;
#X connect 11 0 1 1;
#X connect 12 0 10 0;
#X connect 12 1 13 0;
#X connect 13 0 7 1;
#X connect 14 0 7 0;
#X connect 14 1 10 1;
#X restore 502 671 pd morph-frequencies;
#X obj 502 694 s \$0-frequency-r;
#X obj 522 643 s \$0-snare-decay-r;
#N canvas 0 22 1069 747 morph-parameters 0;
#X obj 176 94 inlet;
#X obj 176 236 pack f f;
#X obj 176 261 line;
#X obj 209 117 r preset-manager-morph-s;
#X msg 72 244 stop;
#X obj 72 214 r STOP-MORPH!;
#X obj 209 206 spigot;
#X obj 398 137 t f f;
#X obj 455 154 == 0;
#X obj 221 176 f;
#X floatatom 455 222 5 0 0 0 - - -, f 5;
#X obj 398 159 t b f;
#X floatatom 425 192 5 0 0 0 - - -, f 5;
#X obj 209 139 t f f;
#X obj 398 102 r parameters-s;
#X obj 176 288 outlet;
#X connect 0 0 1 0;
#X connect 1 0 2 0;
#X connect 2 0 15 0;
#X connect 3 0 13 0;
#X connect 4 0 2 0;
#X connect 5 0 4 0;
#X connect 6 0 1 1;
#X connect 7 0 11 0;
#X connect 7 1 8 0;
#X connect 8 0 10 0;
#X connect 9 0 6 0;
#X connect 10 0 1 1;
#X connect 11 0 9 0;
#X connect 11 1 12 0;
#X connect 12 0 6 1;
#X connect 13 0 6 0;
#X connect 13 1 9 1;
#X connect 14 0 7 0;
#X restore 541 565 pd morph-parameters;
#X obj 541 588 s \$0-snare-noise-r;
#N canvas 0 22 1069 747 morph-parameters 0;
#X obj 176 94 inlet;
#X obj 176 236 pack f f;
#X obj 176 261 line;
#X obj 209 117 r preset-manager-morph-s;
#X msg 72 244 stop;
#X obj 72 214 r STOP-MORPH!;
#X obj 209 206 spigot;
#X obj 398 137 t f f;
#X obj 455 154 == 0;
#X obj 221 176 f;
#X floatatom 455 222 5 0 0 0 - - -, f 5;
#X obj 398 159 t b f;
#X floatatom 425 192 5 0 0 0 - - -, f 5;
#X obj 209 139 t f f;
#X obj 398 102 r parameters-s;
#X obj 176 288 outlet;
#X connect 0 0 1 0;
#X connect 1 0 2 0;
#X connect 2 0 15 0;
#X connect 3 0 13 0;
#X connect 4 0 2 0;
#X connect 5 0 4 0;
#X connect 6 0 1 1;
#X connect 7 0 11 0;
#X connect 7 1 8 0;
#X connect 8 0 10 0;
#X connect 9 0 6 0;
#X connect 10 0 1 1;
#X connect 11 0 9 0;
#X connect 11 1 12 0;
#X connect 12 0 6 1;
#X connect 13 0 6 0;
#X connect 13 1 9 1;
#X connect 14 0 7 0;
#X restore 559 519 pd morph-parameters;
#X obj 559 542 s \$0-snare-color-r;
#N canvas 0 22 1069 747 morph-parameters 0;
#X obj 176 94 inlet;
#X obj 176 236 pack f f;
#X obj 176 261 line;
#X obj 209 117 r preset-manager-morph-s;
#X msg 72 244 stop;
#X obj 72 214 r STOP-MORPH!;
#X obj 209 206 spigot;
#X obj 398 137 t f f;
#X obj 455 154 == 0;
#X obj 221 176 f;
#X floatatom 455 222 5 0 0 0 - - -, f 5;
#X obj 398 159 t b f;
#X floatatom 425 192 5 0 0 0 - - -, f 5;
#X obj 209 139 t f f;
#X obj 398 102 r parameters-s;
#X obj 176 288 outlet;
#X connect 0 0 1 0;
#X connect 1 0 2 0;
#X connect 2 0 15 0;
#X connect 3 0 13 0;
#X connect 4 0 2 0;
#X connect 5 0 4 0;
#X connect 6 0 1 1;
#X connect 7 0 11 0;
#X connect 7 1 8 0;
#X connect 8 0 10 0;
#X connect 9 0 6 0;
#X connect 10 0 1 1;
#X connect 11 0 9 0;
#X connect 11 1 12 0;
#X connect 12 0 6 1;
#X connect 13 0 6 0;
#X connect 13 1 9 1;
#X connect 14 0 7 0;
#X restore 577 465 pd morph-parameters;
#X obj 577 488 s \$0-snare-flam-r;
#N canvas 0 22 1069 747 morph-parameters 0;
#X obj 176 94 inlet;
#X obj 176 236 pack f f;
#X obj 176 261 line;
#X obj 209 117 r preset-manager-morph-s;
#X msg 72 244 stop;
#X obj 72 214 r STOP-MORPH!;
#X obj 209 206 spigot;
#X obj 398 137 t f f;
#X obj 455 154 == 0;
#X obj 221 176 f;
#X floatatom 455 222 5 0 0 0 - - -, f 5;
#X obj 398 159 t b f;
#X floatatom 425 192 5 0 0 0 - - -, f 5;
#X obj 209 139 t f f;
#X obj 398 102 r parameters-s;
#X obj 176 288 outlet;
#X connect 0 0 1 0;
#X connect 1 0 2 0;
#X connect 2 0 15 0;
#X connect 3 0 13 0;
#X connect 4 0 2 0;
#X connect 5 0 4 0;
#X connect 6 0 1 1;
#X connect 7 0 11 0;
#X connect 7 1 8 0;
#X connect 8 0 10 0;
#X connect 9 0 6 0;
#X connect 10 0 1 1;
#X connect 11 0 9 0;
#X connect 11 1 12 0;
#X connect 12 0 6 1;
#X connect 13 0 6 0;
#X connect 13 1 9 1;
#X connect 14 0 7 0;
#X restore 597 409 pd morph-parameters;
#X obj 597 432 s \$0-snare-flam-prob-r;
#N canvas 0 22 1069 747 morph-parameters 0;
#X obj 176 94 inlet;
#X obj 176 236 pack f f;
#X obj 176 261 line;
#X obj 209 117 r preset-manager-morph-s;
#X msg 72 244 stop;
#X obj 72 214 r STOP-MORPH!;
#X obj 209 206 spigot;
#X obj 398 137 t f f;
#X obj 455 154 == 0;
#X obj 221 176 f;
#X floatatom 455 222 5 0 0 0 - - -, f 5;
#X obj 398 159 t b f;
#X floatatom 425 192 5 0 0 0 - - -, f 5;
#X obj 209 139 t f f;
#X obj 398 102 r parameters-s;
#X obj 176 288 outlet;
#X connect 0 0 1 0;
#X connect 1 0 2 0;
#X connect 2 0 15 0;
#X connect 3 0 13 0;
#X connect 4 0 2 0;
#X connect 5 0 4 0;
#X connect 6 0 1 1;
#X connect 7 0 11 0;
#X connect 7 1 8 0;
#X connect 8 0 10 0;
#X connect 9 0 6 0;
#X connect 10 0 1 1;
#X connect 11 0 9 0;
#X connect 11 1 12 0;
#X connect 12 0 6 1;
#X connect 13 0 6 0;
#X connect 13 1 9 1;
#X connect 14 0 7 0;
#X restore 607 362 pd morph-parameters;
#X obj 607 385 s \$0-snare-acc-prob-r;
#X obj 617 323 s \$0-envmod-r;
#X obj 631 272 s \$0-load-r;
#X connect 0 0 38 0;
#X connect 1 0 0 0;
#X connect 2 0 0 0;
#X connect 4 0 2 0;
#X connect 4 1 1 0;
#X connect 5 0 31 0;
#X connect 6 0 19 0;
#X connect 7 0 10 0;
#X connect 7 1 9 0;
#X connect 7 2 8 0;
#X connect 8 0 3 0;
#X connect 9 0 5 0;
#X connect 10 0 6 0;
#X connect 11 0 7 0;
#X connect 12 0 11 0;
#X connect 13 0 17 0;
#X connect 14 0 4 0;
#X connect 14 1 13 0;
#X connect 15 0 14 0;
#X connect 15 1 13 1;
#X connect 16 0 17 1;
#X connect 17 0 29 0;
#X connect 18 0 16 0;
#X connect 19 0 28 0;
#X connect 20 0 21 0;
#X connect 21 0 19 1;
#X connect 22 0 24 0;
#X connect 23 0 6 1;
#X connect 24 0 15 0;
#X connect 25 0 31 1;
#X connect 26 0 31 2;
#X connect 27 0 31 3;
#X connect 28 0 3 0;
#X connect 29 0 0 0;
#X connect 30 0 5 1;
#X connect 31 0 32 0;
#X connect 32 0 3 0;
#X connect 33 0 31 4;
#X connect 34 0 31 5;
#X connect 35 0 31 6;
#X connect 36 0 31 8;
#X connect 37 0 31 7;
#X connect 38 0 41 0;
#X connect 38 1 39 0;
#X connect 38 2 44 0;
#X connect 38 3 46 0;
#X connect 38 4 48 0;
#X connect 38 5 50 0;
#X connect 38 6 52 0;
#X connect 38 7 40 0;
#X connect 38 8 55 0;
#X connect 39 0 43 0;
#X connect 40 0 54 0;
#X connect 41 0 42 0;
#X connect 44 0 45 0;
#X connect 46 0 47 0;
#X connect 48 0 49 0;
#X connect 50 0 51 0;
#X connect 52 0 53 0;
#X restore 29 343 pd state-saving-via-preset-manager-module;
#N canvas 297 27 867 616 parameter-nudging-system 0;
#X obj 171 22 r \$0-snare-decay-s;
#X obj 171 95 s \$0-snare-decay-r;
#X obj 319 22 r \$0-snare-noise-s;
#X obj 319 95 s \$0-snare-noise-r;
#X obj 20 121 r \$0-snare-color-s;
#X obj 20 197 s \$0-snare-color-r;
#X obj 23 22 r \$0-frequency-s;
#X obj 23 95 s \$0-frequency-r;
#X obj 25 70 clip 0 127;
#X obj 171 70 clip 0 127;
#N canvas 0 22 484 497 nudge-freq 0;
#X obj 124 234 random;
#X obj 232 335 f;
#X obj 232 368 +;
#X obj 257 166 random 2;
#X obj 124 275 t f f;
#X obj 124 351 t b f;
#X obj 124 297 *;
#X obj 257 188 sel 0 1;
#X msg 257 280 -1;
#X msg 335 280 1;
#X obj 124 149 t b b b;
#X obj 124 51 r NUDGE!;
#X obj 157 193 r NUDGE-RANGE;
#X obj 247 308 inlet;
#X obj 232 397 outlet;
#X obj 124 73 spigot;
#X obj 185 56 r frequencies2-s;
#X connect 0 0 4 0;
#X connect 1 0 2 0;
#X connect 2 0 14 0;
#X connect 3 0 7 0;
#X connect 4 0 6 0;
#X connect 5 0 2 0;
#X connect 5 1 2 1;
#X connect 6 0 5 0;
#X connect 7 0 8 0;
#X connect 7 1 9 0;
#X connect 8 0 6 1;
#X connect 9 0 6 1;
#X connect 10 0 0 0;
#X connect 10 1 1 0;
#X connect 10 2 3 0;
#X connect 11 0 15 0;
#X connect 12 0 0 1;
#X connect 13 0 1 1;
#X connect 15 0 10 0;
#X connect 16 0 15 1;
#X restore 25 48 pd nudge-freq;
#N canvas 0 22 484 497 nudge-parameters 0;
#X obj 124 234 random;
#X obj 232 335 f;
#X obj 232 368 +;
#X obj 257 166 random 2;
#X obj 124 275 t f f;
#X obj 124 351 t b f;
#X obj 124 297 *;
#X obj 257 188 sel 0 1;
#X msg 257 280 -1;
#X msg 335 280 1;
#X obj 124 149 t b b b;
#X obj 124 74 r NUDGE!;
#X obj 157 193 r NUDGE-RANGE;
#X obj 247 308 inlet;
#X obj 232 397 outlet;
#X obj 124 96 spigot;
#X obj 185 79 r parameters2-s;
#X connect 0 0 4 0;
#X connect 1 0 2 0;
#X connect 2 0 14 0;
#X connect 3 0 7 0;
#X connect 4 0 6 0;
#X connect 5 0 2 0;
#X connect 5 1 2 1;
#X connect 6 0 5 0;
#X connect 7 0 8 0;
#X connect 7 1 9 0;
#X connect 8 0 6 1;
#X connect 9 0 6 1;
#X connect 10 0 0 0;
#X connect 10 1 1 0;
#X connect 10 2 3 0;
#X connect 11 0 15 0;
#X connect 12 0 0 1;
#X connect 13 0 1 1;
#X connect 15 0 10 0;
#X connect 16 0 15 1;
#X restore 171 48 pd nudge-parameters;
#X obj 319 69 clip 0 127;
#N canvas 0 22 484 497 nudge-parameters 0;
#X obj 124 234 random;
#X obj 232 335 f;
#X obj 232 368 +;
#X obj 257 166 random 2;
#X obj 124 275 t f f;
#X obj 124 351 t b f;
#X obj 124 297 *;
#X obj 257 188 sel 0 1;
#X msg 257 280 -1;
#X msg 335 280 1;
#X obj 124 149 t b b b;
#X obj 124 74 r NUDGE!;
#X obj 157 193 r NUDGE-RANGE;
#X obj 247 308 inlet;
#X obj 232 397 outlet;
#X obj 124 96 spigot;
#X obj 185 79 r parameters2-s;
#X connect 0 0 4 0;
#X connect 1 0 2 0;
#X connect 2 0 14 0;
#X connect 3 0 7 0;
#X connect 4 0 6 0;
#X connect 5 0 2 0;
#X connect 5 1 2 1;
#X connect 6 0 5 0;
#X connect 7 0 8 0;
#X connect 7 1 9 0;
#X connect 8 0 6 1;
#X connect 9 0 6 1;
#X connect 10 0 0 0;
#X connect 10 1 1 0;
#X connect 10 2 3 0;
#X connect 11 0 15 0;
#X connect 12 0 0 1;
#X connect 13 0 1 1;
#X connect 15 0 10 0;
#X connect 16 0 15 1;
#X restore 319 47 pd nudge-parameters;
#X obj 21 171 clip 0 127;
#N canvas 0 22 484 497 nudge-parameters 0;
#X obj 124 234 random;
#X obj 232 335 f;
#X obj 232 368 +;
#X obj 257 166 random 2;
#X obj 124 275 t f f;
#X obj 124 351 t b f;
#X obj 124 297 *;
#X obj 257 188 sel 0 1;
#X msg 257 280 -1;
#X msg 335 280 1;
#X obj 124 149 t b b b;
#X obj 124 74 r NUDGE!;
#X obj 157 193 r NUDGE-RANGE;
#X obj 247 308 inlet;
#X obj 232 397 outlet;
#X obj 124 96 spigot;
#X obj 185 79 r parameters2-s;
#X connect 0 0 4 0;
#X connect 1 0 2 0;
#X connect 2 0 14 0;
#X connect 3 0 7 0;
#X connect 4 0 6 0;
#X connect 5 0 2 0;
#X connect 5 1 2 1;
#X connect 6 0 5 0;
#X connect 7 0 8 0;
#X connect 7 1 9 0;
#X connect 8 0 6 1;
#X connect 9 0 6 1;
#X connect 10 0 0 0;
#X connect 10 1 1 0;
#X connect 10 2 3 0;
#X connect 11 0 15 0;
#X connect 12 0 0 1;
#X connect 13 0 1 1;
#X connect 15 0 10 0;
#X connect 16 0 15 1;
#X restore 21 149 pd nudge-parameters;
#X obj 205 229 r \$0-envmod-s;
#X obj 172 171 clip 0 127;
#N canvas 0 22 484 497 nudge-parameters 0;
#X obj 124 234 random;
#X obj 232 335 f;
#X obj 232 368 +;
#X obj 257 166 random 2;
#X obj 124 275 t f f;
#X obj 124 351 t b f;
#X obj 124 297 *;
#X obj 257 188 sel 0 1;
#X msg 257 280 -1;
#X msg 335 280 1;
#X obj 124 149 t b b b;
#X obj 124 74 r NUDGE!;
#X obj 157 193 r NUDGE-RANGE;
#X obj 247 308 inlet;
#X obj 232 397 outlet;
#X obj 124 96 spigot;
#X obj 185 79 r parameters2-s;
#X connect 0 0 4 0;
#X connect 1 0 2 0;
#X connect 2 0 14 0;
#X connect 3 0 7 0;
#X connect 4 0 6 0;
#X connect 5 0 2 0;
#X connect 5 1 2 1;
#X connect 6 0 5 0;
#X connect 7 0 8 0;
#X connect 7 1 9 0;
#X connect 8 0 6 1;
#X connect 9 0 6 1;
#X connect 10 0 0 0;
#X connect 10 1 1 0;
#X connect 10 2 3 0;
#X connect 11 0 15 0;
#X connect 12 0 0 1;
#X connect 13 0 1 1;
#X connect 15 0 10 0;
#X connect 16 0 15 1;
#X restore 172 149 pd nudge-parameters;
#X obj 171 121 r \$0-snare-flam-s;
#X obj 171 197 s \$0-snare-flam-r;
#X obj 328 169 clip 0 127;
#N canvas 0 22 484 497 nudge-parameters 0;
#X obj 124 234 random;
#X obj 232 335 f;
#X obj 232 368 +;
#X obj 257 166 random 2;
#X obj 124 275 t f f;
#X obj 124 351 t b f;
#X obj 124 297 *;
#X obj 257 188 sel 0 1;
#X msg 257 280 -1;
#X msg 335 280 1;
#X obj 124 149 t b b b;
#X obj 124 74 r NUDGE!;
#X obj 157 193 r NUDGE-RANGE;
#X obj 247 308 inlet;
#X obj 232 397 outlet;
#X obj 124 96 spigot;
#X obj 185 79 r parameters2-s;
#X connect 0 0 4 0;
#X connect 1 0 2 0;
#X connect 2 0 14 0;
#X connect 3 0 7 0;
#X connect 4 0 6 0;
#X connect 5 0 2 0;
#X connect 5 1 2 1;
#X connect 6 0 5 0;
#X connect 7 0 8 0;
#X connect 7 1 9 0;
#X connect 8 0 6 1;
#X connect 9 0 6 1;
#X connect 10 0 0 0;
#X connect 10 1 1 0;
#X connect 10 2 3 0;
#X connect 11 0 15 0;
#X connect 12 0 0 1;
#X connect 13 0 1 1;
#X connect 15 0 10 0;
#X connect 16 0 15 1;
#X restore 328 147 pd nudge-parameters;
#X obj 327 119 r \$0-snare-flam-prob-s;
#X obj 327 195 s \$0-snare-flam-prob-r;
#X obj 28 279 clip 0 127;
#N canvas 0 22 484 497 nudge-parameters 0;
#X obj 124 234 random;
#X obj 232 335 f;
#X obj 232 368 +;
#X obj 257 166 random 2;
#X obj 124 275 t f f;
#X obj 124 351 t b f;
#X obj 124 297 *;
#X obj 257 188 sel 0 1;
#X msg 257 280 -1;
#X msg 335 280 1;
#X obj 124 149 t b b b;
#X obj 124 74 r NUDGE!;
#X obj 157 193 r NUDGE-RANGE;
#X obj 247 308 inlet;
#X obj 232 397 outlet;
#X obj 124 96 spigot;
#X obj 185 79 r parameters2-s;
#X connect 0 0 4 0;
#X connect 1 0 2 0;
#X connect 2 0 14 0;
#X connect 3 0 7 0;
#X connect 4 0 6 0;
#X connect 5 0 2 0;
#X connect 5 1 2 1;
#X connect 6 0 5 0;
#X connect 7 0 8 0;
#X connect 7 1 9 0;
#X connect 8 0 6 1;
#X connect 9 0 6 1;
#X connect 10 0 0 0;
#X connect 10 1 1 0;
#X connect 10 2 3 0;
#X connect 11 0 15 0;
#X connect 12 0 0 1;
#X connect 13 0 1 1;
#X connect 15 0 10 0;
#X connect 16 0 15 1;
#X restore 28 257 pd nudge-parameters;
#X obj 27 229 r \$0-snare-acc-prob-s;
#X obj 27 305 s \$0-snare-acc-prob-r;
#N canvas 0 22 484 497 nudge-attenuators 0;
#X obj 124 234 random;
#X obj 232 335 f;
#X obj 232 368 +;
#X obj 257 166 random 2;
#X obj 124 275 t f f;
#X obj 124 351 t b f;
#X obj 124 297 *;
#X obj 257 188 sel 0 1;
#X msg 257 280 -1;
#X msg 335 280 1;
#X obj 124 149 t b b b;
#X obj 124 71 r NUDGE!;
#X obj 157 193 r NUDGE-RANGE;
#X obj 247 308 inlet;
#X obj 232 397 outlet;
#X obj 124 93 spigot;
#X obj 201 76 r attenuators2-s;
#X connect 0 0 4 0;
#X connect 1 0 2 0;
#X connect 2 0 14 0;
#X connect 3 0 7 0;
#X connect 4 0 6 0;
#X connect 5 0 2 0;
#X connect 5 1 2 1;
#X connect 6 0 5 0;
#X connect 7 0 8 0;
#X connect 7 1 9 0;
#X connect 8 0 6 1;
#X connect 9 0 6 1;
#X connect 10 0 0 0;
#X connect 10 1 1 0;
#X connect 10 2 3 0;
#X connect 11 0 15 0;
#X connect 12 0 0 1;
#X connect 13 0 1 1;
#X connect 15 0 10 0;
#X connect 16 0 15 1;
#X restore 206 255 pd nudge-attenuators;
#X obj 207 280 clip 0 127;
#X obj 207 302 s \$0-envmod-r;
#X connect 0 0 11 0;
#X connect 2 0 13 0;
#X connect 4 0 15 0;
#X connect 6 0 10 0;
#X connect 8 0 7 0;
#X connect 9 0 1 0;
#X connect 10 0 8 0;
#X connect 11 0 9 0;
#X connect 12 0 3 0;
#X connect 13 0 12 0;
#X connect 14 0 5 0;
#X connect 15 0 14 0;
#X connect 16 0 29 0;
#X connect 17 0 20 0;
#X connect 18 0 17 0;
#X connect 19 0 18 0;
#X connect 21 0 24 0;
#X connect 22 0 21 0;
#X connect 23 0 22 0;
#X connect 25 0 28 0;
#X connect 26 0 25 0;
#X connect 27 0 26 0;
#X connect 29 0 30 0;
#X connect 30 0 31 0;
#X restore 29 320 pd parameter-nudging-system;
#X obj 372 27 threshold~ 0.9 0 0.9 0;
#N canvas 0 22 954 587 oscillators 0;
#N canvas 0 22 531 392 triangle111 0;
#X obj 90 222 min~;
#X obj 111 176 *~ -1;
#X obj 111 198 +~ 1;
#X obj 90 244 *~ 4;
#X obj 90 266 -~ 1;
#X obj 90 134 phasor~ 111;
#X obj 90 288 outlet~;
#X obj 90 10 r \$0-frequency-s;
#X obj 90 60 pack 0 50;
#X obj 90 82 line~;
#X obj 90 104 +~;
#X obj 90 32 + 111;
#X obj 234 33 inlet~;
#X connect 0 0 3 0;
#X connect 1 0 2 0;
#X connect 2 0 0 1;
#X connect 3 0 4 0;
#X connect 4 0 6 0;
#X connect 5 0 0 0;
#X connect 5 0 1 0;
#X connect 7 0 11 0;
#X connect 8 0 9 0;
#X connect 9 0 10 0;
#X connect 10 0 5 0;
#X connect 11 0 8 0;
#X connect 12 0 10 1;
#X restore 506 351 pd triangle111;
#N canvas 0 22 531 392 triangle335 0;
#X obj 90 222 min~;
#X obj 111 176 *~ -1;
#X obj 111 198 +~ 1;
#X obj 90 244 *~ 4;
#X obj 90 266 -~ 1;
#X obj 90 288 outlet~;
#X obj 90 134 phasor~ 335;
#X obj 90 10 r \$0-frequency-s;
#X obj 90 60 pack 0 50;
#X obj 90 82 line~;
#X obj 90 104 +~;
#X obj 90 32 + 335;
#X obj 298 112 inlet~;
#X connect 0 0 3 0;
#X connect 1 0 2 0;
#X connect 2 0 0 1;
#X connect 3 0 4 0;
#X connect 4 0 5 0;
#X connect 6 0 0 0;
#X connect 6 0 1 0;
#X connect 7 0 11 0;
#X connect 8 0 9 0;
#X connect 9 0 10 0;
#X connect 10 0 6 0;
#X connect 11 0 8 0;
#X connect 12 0 10 1;
#X restore 529 375 pd triangle335;
#N canvas 0 22 531 392 triangle286 0;
#X obj 90 222 min~;
#X obj 111 176 *~ -1;
#X obj 111 198 +~ 1;
#X obj 90 244 *~ 4;
#X obj 90 266 -~ 1;
#X obj 90 288 outlet~;
#X obj 90 134 phasor~ 286;
#X obj 90 10 r \$0-frequency-s;
#X obj 90 60 pack 0 50;
#X obj 90 82 line~;
#X obj 90 104 +~;
#X obj 90 32 + 286;
#X obj 296 101 inlet~;
#X connect 0 0 3 0;
#X connect 1 0 2 0;
#X connect 2 0 0 1;
#X connect 3 0 4 0;
#X connect 4 0 5 0;
#X connect 6 0 0 0;
#X connect 6 0 1 0;
#X connect 7 0 11 0;
#X connect 8 0 9 0;
#X connect 9 0 10 0;
#X connect 10 0 6 0;
#X connect 11 0 8 0;
#X connect 12 0 10 1;
#X restore 540 402 pd triangle286;
#X obj 506 442 *~ 0.33;
#X obj 506 484 *~;
#X obj 694 436 *~ 0.5;
#X obj 694 484 *~;
#X obj 550 467 r~ \$0-EG2;
#X obj 709 459 r~ \$0-EG2;
#X obj 694 249 r \$0-frequency-s;
#X obj 694 299 pack 0 50;
#X obj 694 321 line~;
#X obj 694 343 +~;
#X obj 694 271 + 380;
#X obj 782 293 r \$0-frequency-s;
#X obj 782 343 pack 0 50;
#X obj 782 365 line~;
#X obj 782 387 +~;
#X obj 782 315 + 180;
#X obj 506 551 outlet~;
#X obj 521 113 inlet~;
#X obj 309 409 scope;
#X obj 694 374 osc~ 330;
#X obj 711 404 osc~ 180;
#X connect 0 0 3 0;
#X connect 1 0 3 0;
#X connect 2 0 3 0;
#X connect 3 0 4 0;
#X connect 4 0 19 0;
#X connect 4 0 21 0;
#X connect 5 0 6 0;
#X connect 6 0 19 0;
#X connect 7 0 4 1;
#X connect 8 0 6 1;
#X connect 9 0 13 0;
#X connect 10 0 11 0;
#X connect 11 0 12 0;
#X connect 12 0 22 0;
#X connect 13 0 10 0;
#X connect 14 0 18 0;
#X connect 15 0 16 0;
#X connect 16 0 17 0;
#X connect 17 0 23 0;
#X connect 18 0 15 0;
#X connect 20 0 0 0;
#X connect 20 0 1 0;
#X connect 20 0 2 0;
#X connect 20 0 12 1;
#X connect 20 0 17 1;
#X connect 22 0 5 0;
#X connect 23 0 5 0;
#X restore 558 218 pd oscillators;
#X obj 592 360 s~ \$0-EG2;
#X obj 539 3 inlet~ PITCH;
#X obj 422 256 *~ 1;
#X obj 109 149 hsl 128 15 1.27 127 1 1 \$0-snare-decay-s \$0-snare-decay-r
DECAY 133 7 0 10 -262144 -1 -1 0 1;
#X obj 707 9 r \$0-envmod-s;
#X obj 707 31 / 127;
#X obj 707 53 pack 0 50;
#X obj 707 75 line~;
#X obj 627 48 *~;
#X obj 833 331 s~ \$0-EG1;
#X obj 627 8 r~ \$0-EG2;
#X obj 301 487 t b b b;
#X obj 301 563 delay;
#X obj 321 538 delay;
#X obj 109 179 hsl 128 15 0 127 0 1 \$0-snare-color-s \$0-snare-color-r
COLOR 133 7 0 10 -262144 -1 -1 0 1;
#X obj 328 372 r \$0-snare-flam-s;
#X obj 328 396 / 127;
#X obj 340 514 delay;
#X obj -4 585 spigot;
#X obj -4 638 s \$0-snare-trig!;
#X obj 29 462 r \$0-snare-flam-s;
#X floatatom 29 506 5 0 0 0 - - -, f 5;
#X obj 29 484 < 1;
#X obj 29 525 == 0;
#X floatatom 29 547 5 0 0 0 - - -, f 5;
#X obj 328 440 + 1;
#X obj 328 462 t f f f;
#X obj 372 49 t b b;
#X obj 109 209 hsl 128 15 0 127 0 1 \$0-snare-flam-prob-s \$0-snare-flam-prob-r
FLAM-PROB 133 7 0 10 -262144 -1 -1 0 1;
#X obj 543 503 throw~ \$0-ACCENT;
#X obj 544 415 vline~;
#X msg 544 393 1 1 \, 0 \$1 1;
#X obj 544 437 *~;
#X obj 544 459 *~;
#X obj 670 402 vline~;
#X msg 670 380 1 1 \, 0 \$1 1;
#X obj 670 424 *~;
#X obj 670 457 *~;
#X obj 672 338 f;
#X obj 548 364 f;
#X obj 606 551 r \$0-snare-trig!;
#X obj 606 573 random 127;
#X floatatom 606 595 5 0 0 0 - - -, f 5;
#X obj 606 614 moses;
#X obj 724 597 r \$0-snare-acc-prob-s;
#X floatatom 670 641 5 0 0 0 - - -, f 5;
#X obj 606 636 t b b;
#X obj 469 557 catch~ \$0-ACCENT;
#X obj 109 194 hsl 128 15 0 127 0 1 \$0-snare-flam-s \$0-snare-flam-r
FLAM 133 7 0 10 -262144 -1 -1 0 1;
#X obj 988 500 r \$0-snare-flam-prob-s;
#X obj 905 563 random 127;
#X floatatom 905 585 5 0 0 0 - - -, f 5;
#X obj 905 604 moses;
#X obj 905 650 t b b;
#X obj 905 626 change;
#X obj 328 418 * 99;
#X obj 422 630 *~ 0.33;
#X obj 119 269 hradio 15 1 1 8 \$0-load-s \$0-load-r LOAD-1 125 7 0
10 -262144 -150893 -1 0;
#X obj 119 254 hradio 15 1 0 8 \$0-write-s \$0-write-r STORE-1 125
7 0 10 -262144 -226533 -1 0;
#X obj 298 207 bng 15 250 50 0 \$0-flam-prob-gui-r \$0-flam-prob-gui-r
empty 17 7 0 10 -1 -226533 -1;
#X obj 298 222 bng 15 250 50 0 \$0-acc-prob-gui-s \$0-acc-prob-gui-r
empty 17 7 0 10 -1 -226533 -1;
#X obj 988 638 s \$0-flam-prob-gui-r;
#X obj 606 658 s \$0-acc-prob-gui-r;
#X obj 166 594 r \$0-write-s;
#X obj 241 627 r \$0-load-s;
#N canvas 164 31 1008 752 store/load 0;
#X obj 290 212 pack f f;
#X obj 305 133 loadbang;
#X obj 305 155 f \$1;
#X obj 290 184 f;
#X obj 292 453 textfile;
#X msg 475 436 rewind;
#X obj 165 78 loadbang;
#X obj 19 174 delay 10;
#X text 59 52 WRITE;
#X obj 19 54 inlet;
#X obj 19 208 f;
#X obj 19 247 pack f f;
#X obj 165 126 t f f;
#X obj 165 104 f \$1;
#X msg -193 97 bang;
#X obj 22 597 textfile;
#X msg 97 236 clear;
#X obj 19 118 t b f b b;
#X obj 308 21 inlet;
#X text 353 19 LOAD;
#X msg 399 415 bang;
#X obj 412 375 t b b;
#X obj 308 43 t b f;
#X obj 290 90 t b b;
#X obj -412 344 f;
#N canvas 0 22 1084 659 unpack-values 0;
#X obj 182 32 inlet;
#X obj 182 59 unpack f f f f f f f f;
#X obj 181 578 s \$0-frequency-r;
#X obj 194 557 s \$0-snare-decay-r;
#X obj 211 531 s \$0-snare-noise-r;
#X obj 224 510 s \$0-snare-color-r;
#X obj 238 485 s \$0-snare-flam-r;
#X obj 251 464 s \$0-snare-flam-prob-r;
#X obj 268 438 s \$0-snare-acc-prob-r;
#X obj 281 417 s \$0-envmod-r;
#X connect 0 0 1 0;
#X connect 1 0 2 0;
#X connect 1 1 3 0;
#X connect 1 2 4 0;
#X connect 1 3 5 0;
#X connect 1 4 6 0;
#X connect 1 5 7 0;
#X connect 1 6 8 0;
#X connect 1 7 9 0;
#X restore 292 479 pd unpack-values;
#X obj 308 67 delay 100;
#X obj -374 13 r \$0-frequency-s;
#X obj -387 44 r \$0-snare-decay-s;
#X obj -371 64 r \$0-snare-noise-s;
#X obj -355 84 r \$0-snare-color-s;
#X obj -337 103 r \$0-snare-flam-s;
#X obj -321 123 r \$0-snare-flam-prob-s;
#X obj -305 143 r \$0-snare-acc-prob-s;
#X obj -284 166 r \$0-envmod-s;
#X obj -377 481 pack f f f f f f f f;
#X obj 411 85 f;
#X obj 411 24 r SAVE-S;
#X obj 426 56 r \$0-load-s;
#X obj 411 107 s \$0-write-r;
#X msg -378 522 set \$1 \$2 \$3 \$4 \$5 \$6 \$7 \$8;
#X msg 19 329 write statesave/\$1-complex-snarepreset-\$2-ss.txt;
#X msg 291 297 read statesave/\$1-complex-snarepreset-\$2-ss.txt;
#X connect 0 0 42 0;
#X connect 1 0 2 0;
#X connect 2 0 3 1;
#X connect 3 0 0 0;
#X connect 4 0 25 0;
#X connect 5 0 4 0;
#X connect 6 0 13 0;
#X connect 7 0 10 0;
#X connect 9 0 17 0;
#X connect 10 0 11 0;
#X connect 11 0 41 0;
#X connect 12 0 10 1;
#X connect 13 0 12 0;
#X connect 14 0 24 0;
#X connect 16 0 15 0;
#X connect 17 0 7 0;
#X connect 17 1 11 1;
#X connect 17 2 14 0;
#X connect 17 3 16 0;
#X connect 18 0 22 0;
#X connect 20 0 4 0;
#X connect 21 0 20 0;
#X connect 21 1 5 0;
#X connect 22 0 26 0;
#X connect 22 1 0 1;
#X connect 23 0 21 0;
#X connect 23 1 3 0;
#X connect 24 0 35 0;
#X connect 26 0 23 0;
#X connect 27 0 24 1;
#X connect 28 0 35 1;
#X connect 29 0 35 2;
#X connect 30 0 35 3;
#X connect 31 0 35 4;
#X connect 32 0 35 5;
#X connect 33 0 35 6;
#X connect 34 0 35 7;
#X connect 35 0 40 0;
#X connect 36 0 39 0;
#X connect 37 0 36 0;
#X connect 38 0 36 1;
#X connect 40 0 15 0;
#X connect 41 0 15 0;
#X connect 42 0 4 0;
#X restore 166 662 pd store/load;
#X obj 988 11 inlet~ STEP;
#X obj 1111 63 inlet~ RDM-LOAD;
#X obj 103 109 cnv 5 5 5 empty empty TRIG 0 0 0 8 -262144 -226533 0
;
#X obj 275 108 cnv 5 5 5 empty empty LOAD 0 0 0 8 -262144 -226533 0
;
#X obj 988 33 threshold~ 0.9 0 0.9 0;
#X obj 988 55 f;
#X obj 1017 55 + 1;
#X obj 988 77 % 8;
#X floatatom 988 99 5 0 0 0 - - -, f 5;
#X obj 988 118 s \$0-load-r;
#X obj 882 12 loadbang;
#X obj 1111 85 threshold~ 0.9 0 0.9 0;
#X obj 1111 107 random 8;
#X obj 1111 129 s \$0-load-r;
#X obj 22 873 makefilename %d;
#X obj 22 921 s \$0-write-r;
#X floatatom 22 853 5 0 0 0 - - -, f 5;
#X obj 22 792 r \$0-write-s;
#X msg 22 898 label STORE-\$1;
#X obj 139 873 makefilename %d;
#X floatatom 139 853 5 0 0 0 - - -, f 5;
#X obj 139 792 r \$0-load-s;
#X obj 139 921 s \$0-load-r;
#X msg 139 898 label LOAD-\$1;
#X obj 22 814 + 1;
#X obj 139 814 + 1;
#X obj 21 730 loadbang;
#X msg 21 752 0;
#N canvas 496 23 1280 809 external-messages 0;
#X floatatom -71 513 5 0 0 0 - - -, f 5;
#X obj 43 328 spigot;
#X obj 76 288 tgl 15 0 empty empty empty 17 7 0 10 -262144 -1 -1 0
1;
#X obj 112 272 ==;
#X obj 127 248 f \$1;
#X obj 127 224 loadbang;
#X msg 43 202 \$1 \$2;
#X msg 43 156 symbol \$1;
#X obj 43 180 pack s f;
#X obj -71 492 f;
#X obj -71 440 t b f;
#X obj -71 463 spigot;
#X obj 43 62 unpack s f f;
#X symbolatom 43 94 10 0 0 0 - - -, f 10;
#X obj 76 308 t f f;
#X obj 103 332 s \$0-msg-spigot;
#X obj -23 447 r \$0-msg-spigot;
#X floatatom -45 657 5 0 0 0 - - -, f 5;
#X obj -45 636 f;
#X obj -45 584 t b f;
#X obj -45 607 spigot;
#X obj 3 591 r \$0-msg-spigot;
#X floatatom 106 549 5 0 0 0 - - -, f 5;
#X obj 106 528 f;
#X obj 106 476 t b f;
#X obj 106 499 spigot;
#X obj 154 483 r \$0-msg-spigot;
#X floatatom 145 687 5 0 0 0 - - -, f 5;
#X obj 145 666 f;
#X obj 145 614 t b f;
#X obj 145 637 spigot;
#X obj 193 621 r \$0-msg-spigot;
#X floatatom 270 523 5 0 0 0 - - -, f 5;
#X obj 270 502 f;
#X obj 270 450 t b f;
#X obj 270 473 spigot;
#X obj 318 457 r \$0-msg-spigot;
#X floatatom 315 690 5 0 0 0 - - -, f 5;
#X obj 315 669 f;
#X obj 315 617 t b f;
#X obj 315 640 spigot;
#X obj 363 624 r \$0-msg-spigot;
#X floatatom 442 535 5 0 0 0 - - -, f 5;
#X obj 442 514 f;
#X obj 442 462 t b f;
#X obj 442 485 spigot;
#X obj 490 469 r \$0-msg-spigot;
#X floatatom 479 685 5 0 0 0 - - -, f 5;
#X obj 479 664 f;
#X obj 479 612 t b f;
#X obj 479 635 spigot;
#X obj 527 619 r \$0-msg-spigot;
#X obj 43 14 r snare;
#X obj 43 380 route PITCH DECAY NOISE COLOR FLAM FLAM-PROB ACC-PROB
ENVMOD;
#X obj -71 533 s \$0-frequency-r;
#X obj -45 677 s \$0-snare-decay-r;
#X obj 106 569 s \$0-snare-noise-r;
#X obj 145 707 s \$0-snare-color-r;
#X obj 270 543 s \$0-snare-flam-r;
#X obj 315 710 s \$0-snare-flam-prob-r;
#X obj 442 555 s \$0-snare-acc-prob-r;
#X obj 479 705 s \$0-envmod-r;
#X connect 0 0 54 0;
#X connect 1 0 53 0;
#X connect 2 0 14 0;
#X connect 3 0 2 0;
#X connect 4 0 3 1;
#X connect 5 0 4 0;
#X connect 6 0 1 0;
#X connect 7 0 8 0;
#X connect 8 0 6 0;
#X connect 9 0 0 0;
#X connect 10 0 11 0;
#X connect 10 1 9 1;
#X connect 11 0 9 0;
#X connect 12 0 13 0;
#X connect 12 1 8 1;
#X connect 12 2 3 0;
#X connect 13 0 7 0;
#X connect 14 0 1 1;
#X connect 14 1 15 0;
#X connect 16 0 11 1;
#X connect 17 0 55 0;
#X connect 18 0 17 0;
#X connect 19 0 20 0;
#X connect 19 1 18 1;
#X connect 20 0 18 0;
#X connect 21 0 20 1;
#X connect 22 0 56 0;
#X connect 23 0 22 0;
#X connect 24 0 25 0;
#X connect 24 1 23 1;
#X connect 25 0 23 0;
#X connect 26 0 25 1;
#X connect 27 0 57 0;
#X connect 28 0 27 0;
#X connect 29 0 30 0;
#X connect 29 1 28 1;
#X connect 30 0 28 0;
#X connect 31 0 30 1;
#X connect 32 0 58 0;
#X connect 33 0 32 0;
#X connect 34 0 35 0;
#X connect 34 1 33 1;
#X connect 35 0 33 0;
#X connect 36 0 35 1;
#X connect 37 0 59 0;
#X connect 38 0 37 0;
#X connect 39 0 40 0;
#X connect 39 1 38 1;
#X connect 40 0 38 0;
#X connect 41 0 40 1;
#X connect 42 0 60 0;
#X connect 43 0 42 0;
#X connect 44 0 45 0;
#X connect 44 1 43 1;
#X connect 45 0 43 0;
#X connect 46 0 45 1;
#X connect 47 0 61 0;
#X connect 48 0 47 0;
#X connect 49 0 50 0;
#X connect 49 1 48 1;
#X connect 50 0 48 0;
#X connect 51 0 50 1;
#X connect 52 0 12 0;
#X connect 53 0 10 0;
#X connect 53 1 19 0;
#X connect 53 2 24 0;
#X connect 53 3 29 0;
#X connect 53 4 34 0;
#X connect 53 5 39 0;
#X connect 53 6 44 0;
#X connect 53 7 49 0;
#X restore 31 59 pd external-messages;
#X connect 0 0 1 0;
#X connect 1 0 19 0;
#X connect 2 0 8 0;
#X connect 2 0 8 1;
#X connect 3 0 124 0;
#X connect 4 0 39 0;
#X connect 5 1 6 1;
#X connect 6 0 7 0;
#X connect 6 0 107 1;
#X connect 7 0 2 0;
#X connect 8 0 27 0;
#X connect 8 0 27 1;
#X connect 9 0 15 0;
#X connect 9 0 15 1;
#X connect 11 0 42 0;
#X connect 12 1 13 1;
#X connect 13 0 14 0;
#X connect 13 0 106 1;
#X connect 14 0 9 0;
#X connect 15 0 26 0;
#X connect 15 0 26 1;
#X connect 17 0 5 0;
#X connect 18 0 12 0;
#X connect 19 0 124 0;
#X connect 21 0 51 0;
#X connect 22 0 24 0;
#X connect 23 0 22 0;
#X connect 24 0 19 1;
#X connect 26 0 1 1;
#X connect 26 0 77 0;
#X connect 27 0 3 1;
#X connect 27 0 68 0;
#X connect 28 0 29 0;
#X connect 29 0 6 0;
#X connect 29 1 13 0;
#X connect 30 0 4 0;
#X connect 31 0 11 0;
#X connect 32 0 21 0;
#X connect 34 0 66 0;
#X connect 35 0 67 0;
#X connect 36 0 37 0;
#X connect 37 0 38 0;
#X connect 38 0 39 0;
#X connect 38 1 39 1;
#X connect 39 0 17 0;
#X connect 41 0 37 0;
#X connect 42 0 18 0;
#X connect 43 0 44 0;
#X connect 44 0 45 0;
#X connect 45 0 42 0;
#X connect 45 1 42 1;
#X connect 46 0 44 0;
#X connect 47 0 48 0;
#X connect 48 0 49 0;
#X connect 49 0 51 0;
#X connect 49 1 51 1;
#X connect 50 0 48 0;
#X connect 51 0 23 0;
#X connect 52 0 28 0;
#X connect 60 0 62 0;
#X connect 62 0 63 0;
#X connect 63 0 61 0;
#X connect 66 0 95 0;
#X connect 67 0 70 0;
#X connect 69 0 35 0;
#X connect 70 0 3 0;
#X connect 72 0 73 0;
#X connect 73 0 74 0;
#X connect 74 0 75 0;
#X connect 75 0 76 1;
#X connect 76 0 35 0;
#X connect 78 0 76 0;
#X connect 79 0 80 0;
#X connect 79 1 81 0;
#X connect 79 2 85 0;
#X connect 80 0 86 0;
#X connect 81 0 86 0;
#X connect 83 0 84 0;
#X connect 84 0 123 0;
#X connect 85 0 86 0;
#X connect 86 0 87 0;
#X connect 88 0 90 0;
#X connect 89 0 91 0;
#X connect 90 0 89 0;
#X connect 91 0 92 0;
#X connect 92 0 86 1;
#X connect 93 0 94 0;
#X connect 94 0 80 1;
#X connect 94 1 81 1;
#X connect 94 2 85 1;
#X connect 95 0 40 0;
#X connect 95 1 118 0;
#X connect 98 0 100 0;
#X connect 98 0 100 1;
#X connect 99 0 98 0;
#X connect 100 0 101 0;
#X connect 100 0 101 1;
#X connect 101 0 97 0;
#X connect 102 0 104 0;
#X connect 102 0 104 1;
#X connect 103 0 102 0;
#X connect 104 0 105 0;
#X connect 104 0 105 1;
#X connect 105 0 97 0;
#X connect 106 0 103 0;
#X connect 107 0 99 0;
#X connect 108 0 109 0;
#X connect 109 0 110 0;
#X connect 110 0 111 0;
#X connect 111 0 114 0;
#X connect 111 1 113 0;
#X connect 112 0 111 1;
#X connect 114 0 107 0;
#X connect 114 0 130 0;
#X connect 114 1 106 0;
#X connect 115 0 3 1;
#X connect 115 0 1 1;
#X connect 117 0 120 1;
#X connect 118 0 119 0;
#X connect 119 0 120 0;
#X connect 120 0 122 0;
#X connect 121 0 79 0;
#X connect 121 1 129 0;
#X connect 122 0 121 0;
#X connect 123 0 93 0;
#X connect 124 0 33 0;
#X connect 131 0 133 0;
#X connect 132 0 133 1;
#X connect 134 0 138 0;
#X connect 135 0 145 0;
#X connect 138 0 139 0;
#X connect 139 0 140 0;
#X connect 139 0 141 0;
#X connect 140 0 139 1;
#X connect 141 0 142 0;
#X connect 142 0 143 0;
#X connect 144 0 139 0;
#X connect 145 0 146 0;
#X connect 146 0 147 0;
#X connect 148 0 152 0;
#X connect 150 0 148 0;
#X connect 151 0 158 0;
#X connect 152 0 149 0;
#X connect 153 0 157 0;
#X connect 154 0 153 0;
#X connect 155 0 159 0;
#X connect 157 0 156 0;
#X connect 158 0 150 0;
#X connect 159 0 154 0;
#X connect 160 0 161 0;
#X connect 161 0 158 0;
#X coords 0 -1 1 1 225 200 2 100 100;
