#N canvas 117 23 1256 715 10;
#X obj 104 225 cnv 15 225 90 empty empty empty 20 12 0 14 -137270 -66577
0;
#X obj 344 225 cnv 15 225 90 empty empty empty 20 12 0 14 -130281 -66577
0;
#X obj 344 134 cnv 15 225 90 empty empty empty 20 12 0 14 -213792 -66577
0;
#X obj 104 134 cnv 15 225 90 empty empty empty 20 12 0 14 -213792 -66577
0;
#X obj -106 2 inlet~;
#X obj 112 157 hsl 128 15 0 127 0 1 \$0-gt-delay-s \$0-gt-delay-r DELAY1(2)ms
133 7 0 10 -262144 -1 -262144 0 1;
#X obj 112 171 hsl 128 15 0 127 0 1 \$0-gt-pitch-s \$0-gt-pitch-r PITCH1
133 7 0 10 -130281 -1 -262144 0 1;
#X obj 375 658 outlet~ LEFT;
#X obj 462 653 outlet~ RIGHT;
#X floatatom 285 172 5 0 0 0 - #0-gt-pitch-gui-r #0-gt-pitch-gui-s
, f 5;
#X obj 112 186 hsl 128 15 0 127 0 1 \$0-dly1-fb-s \$0-dly1-fb-r FEEDBACK1
133 7 0 10 -262144 -1 -262144 0 1;
#X floatatom -87 522 5 0 0 0 - - -, f 5;
#X obj -90 542 makefilename %d;
#X obj -90 587 s \$0-gt-delay-r;
#X obj -91 497 r \$0-gt-delay-gui-r;
#X msg -90 565 label DELAY1(\$1)ms;
#X obj 112 201 hsl 128 15 0 127 0 1 \$0-dly1-level-s \$0-dly1-level-r
DLY1-MIX 133 7 0 10 -262144 -1 -262144 0 1;
#X obj 351 158 hsl 128 15 0 127 0 1 \$0-gt-delay2-s \$0-gt-delay2-r
DELAY2(2)ms 133 7 0 10 -262144 -1 -262144 0 1;
#X obj 351 172 hsl 128 15 0 127 0 1 \$0-gt-pitch2-s \$0-gt-pitch2-r
PITCH2 133 7 0 10 -130281 -1 -262144 0 1;
#X floatatom 524 173 5 0 0 0 - #0-gt-pitch2-gui-r #0-gt-pitch2-gui-s
, f 5;
#X obj 351 187 hsl 128 15 0 127 0 1 \$0-dly1-fb2-s \$0-dly1-fb2-r FEEDBACK2
133 7 0 10 -262144 -1 -262144 0 1;
#X obj 351 202 hsl 128 15 0 127 0 1 \$0-dly2-level-s \$0-dly2-level-r
DLY2-MIX 133 7 0 10 -262144 -1 -262144 0 1;
#N canvas 514 29 926 727 pitch-delay1 0;
#X obj 187 33 hsl 128 15 0 127 0 0 empty empty empty -2 -8 0 10 -262144
-1 -1 0 1;
#X obj 185 56 / 127;
#X floatatom 185 146 10 0 0 0 - - -, f 10;
#X obj 185 213 t b f;
#X obj 454 57 hsl 128 15 0 127 0 0 empty empty empty -2 -8 0 10 -262144
-1 -1 0 1;
#X obj 451 77 / 127;
#X obj 451 160 * 72;
#X obj 451 181 - 36;
#X floatatom 374 213 5 0 0 0 - - -, f 5;
#X obj 373 247 t b f;
#X floatatom 262 279 5 0 0 0 - - -, f 5;
#X obj 262 299 expr (pow(2 \, ($f2/12)) - 1) * (44100/$f1);
#X floatatom 262 319 5 0 0 0 - - -, f 5;
#X obj 262 340 phasor~;
#X obj 449 383 / 44.1;
#X floatatom 449 404 5 0 0 0 - - -, f 5;
#X obj 262 405 *~ -1;
#X obj 262 426 +~ 1;
#X obj 263 456 *~;
#X obj 321 419 sig~;
#X obj 321 440 samphold~;
#X obj 376 496 cos~;
#X obj 323 490 sig~ 1;
#X obj 323 511 -~;
#X obj 323 532 *~ 0.5;
#X obj 263 548 *~;
#X obj 5 66 inlet~;
#X obj 265 672 outlet~;
#X obj 605 410 *~ -1;
#X obj 605 431 +~ 1;
#X obj 606 461 *~;
#X obj 664 424 sig~;
#X obj 664 445 samphold~;
#X obj 768 476 cos~;
#X obj 682 486 sig~ 1;
#X obj 682 507 -~;
#X obj 682 528 *~ 0.5;
#X obj 606 553 *~;
#X obj 613 347 +~ 0.5;
#X obj 613 368 wrap~;
#X obj 605 661 outlet~;
#X floatatom 443 212 5 0 0 0 - - -, f 5;
#X obj 185 98 + 50;
#X obj 185 77 * 88150;
#X obj 449 433 s \$0-gt-delay-gui-r;
#X obj 443 232 s \$0-gt-pitch-gui-r;
#X obj 36 386 delwrite~ \$0-dly 5000;
#X obj 263 477 vd~ \$0-dly;
#X obj 606 482 vd~ \$0-dly;
#X obj 185 9 r \$0-gt-delay-s;
#X obj 451 35 r \$0-gt-pitch-s;
#X obj 265 632 *~;
#X obj 412 465 r \$0-dly1-level-s;
#X obj 412 487 / 127;
#X obj 412 514 pack 0 10;
#X obj 605 636 *~;
#X obj 55 113 r \$0-dly1-fb-s;
#X obj 352 647 s~ \$0-dly1-fb;
#X obj 36 91 r~ \$0-dly1-fb;
#X obj 37 340 *~;
#X obj 55 134 / 127;
#X obj 55 223 pack 0 10;
#X obj 55 244 line~;
#X floatatom 55 197 5 0 0 0 - - -, f 5;
#X obj 55 155 * 0.95;
#X obj 55 176 clip 0 0.95;
#X obj 256 67 r~ \$0-D1-CV;
#X obj 256 88 *~ 88150;
#X obj 256 109 +~ 50;
#X obj 256 130 snapshot~;
#X obj 333 144 loadbang;
#X obj 333 163 tgl 15 0 empty empty empty 17 7 0 10 -262144 -1 -1 1
1;
#X obj 333 183 metro 20;
#X obj 185 167 +;
#X obj 256 151 t b f;
#X obj 185 188 clip 0 88200;
#X obj 598 11 r~ \$0-P1-CV;
#X obj 451 101 +;
#X obj 451 122 clip 0 1;
#X obj 598 57 snapshot~;
#X obj 598 86 t b f;
#X obj 673 -18 env~;
#X floatatom 673 3 5 0 0 0 - - -, f 5;
#X obj 673 59 sel 0;
#X msg 673 80 bang;
#X msg 673 101 0;
#X obj 673 122 t b f;
#X obj 730 36 loadbang;
#X obj 730 55 tgl 15 0 empty empty empty 17 7 0 10 -262144 -1 -1 1
1;
#X obj 730 75 metro 20;
#X obj 335 -8 env~;
#X obj 334 115 t b f;
#X obj 102 248 r~ \$0-F1-CV;
#X obj 55 265 +~;
#X obj 55 286 clip~ 0 0.95;
#X obj 481 515 r~ \$0-MIX1-CV;
#X obj 412 535 line~;
#X obj 409 585 clip~ 0 1;
#X obj 412 556 +~;
#X floatatom 335 34 5 0 0 0 - - -, f 5;
#X obj 335 54 change;
#X obj 335 13 > 0;
#X obj 673 23 change;
#X obj 335 75 sel 0;
#X msg 335 96 0;
#X connect 0 0 1 0;
#X connect 1 0 43 0;
#X connect 2 0 73 0;
#X connect 3 0 8 0;
#X connect 3 1 10 0;
#X connect 4 0 5 0;
#X connect 5 0 77 0;
#X connect 6 0 7 0;
#X connect 7 0 8 0;
#X connect 7 0 41 0;
#X connect 8 0 9 0;
#X connect 9 0 10 0;
#X connect 9 1 11 1;
#X connect 10 0 11 0;
#X connect 10 0 14 0;
#X connect 11 0 12 0;
#X connect 12 0 13 0;
#X connect 13 0 16 0;
#X connect 13 0 20 1;
#X connect 13 0 21 0;
#X connect 13 0 38 0;
#X connect 14 0 15 0;
#X connect 15 0 19 0;
#X connect 15 0 31 0;
#X connect 15 0 44 0;
#X connect 16 0 17 0;
#X connect 17 0 18 0;
#X connect 18 0 47 0;
#X connect 19 0 20 0;
#X connect 20 0 18 1;
#X connect 21 0 23 1;
#X connect 22 0 23 0;
#X connect 23 0 24 0;
#X connect 24 0 25 1;
#X connect 25 0 51 0;
#X connect 26 0 46 0;
#X connect 28 0 29 0;
#X connect 29 0 30 0;
#X connect 30 0 48 0;
#X connect 31 0 32 0;
#X connect 32 0 30 1;
#X connect 33 0 35 1;
#X connect 34 0 35 0;
#X connect 35 0 36 0;
#X connect 36 0 37 1;
#X connect 37 0 55 0;
#X connect 38 0 39 0;
#X connect 39 0 28 0;
#X connect 39 0 32 1;
#X connect 39 0 33 0;
#X connect 41 0 45 0;
#X connect 42 0 2 0;
#X connect 43 0 42 0;
#X connect 47 0 25 0;
#X connect 48 0 37 0;
#X connect 49 0 0 0;
#X connect 50 0 4 0;
#X connect 51 0 27 0;
#X connect 51 0 57 0;
#X connect 52 0 53 0;
#X connect 53 0 54 0;
#X connect 54 0 96 0;
#X connect 55 0 40 0;
#X connect 56 0 60 0;
#X connect 58 0 59 0;
#X connect 59 0 46 0;
#X connect 60 0 64 0;
#X connect 61 0 62 0;
#X connect 62 0 93 0;
#X connect 63 0 61 0;
#X connect 64 0 65 0;
#X connect 65 0 63 0;
#X connect 66 0 67 0;
#X connect 66 0 90 0;
#X connect 67 0 68 0;
#X connect 68 0 69 0;
#X connect 69 0 74 0;
#X connect 70 0 71 0;
#X connect 71 0 72 0;
#X connect 72 0 69 0;
#X connect 73 0 75 0;
#X connect 74 0 73 0;
#X connect 74 1 73 1;
#X connect 75 0 3 0;
#X connect 76 0 79 0;
#X connect 76 0 81 0;
#X connect 77 0 78 0;
#X connect 78 0 6 0;
#X connect 79 0 80 0;
#X connect 80 0 77 0;
#X connect 80 1 77 1;
#X connect 81 0 82 0;
#X connect 82 0 102 0;
#X connect 83 0 84 0;
#X connect 84 0 85 0;
#X connect 85 0 86 0;
#X connect 86 0 77 0;
#X connect 86 1 77 1;
#X connect 87 0 88 0;
#X connect 88 0 89 0;
#X connect 89 0 79 0;
#X connect 90 0 101 0;
#X connect 91 0 73 0;
#X connect 91 1 73 1;
#X connect 92 0 93 1;
#X connect 93 0 94 0;
#X connect 94 0 59 1;
#X connect 95 0 98 1;
#X connect 96 0 98 0;
#X connect 97 0 51 1;
#X connect 97 0 55 1;
#X connect 98 0 97 0;
#X connect 99 0 100 0;
#X connect 100 0 103 0;
#X connect 101 0 99 0;
#X connect 102 0 83 0;
#X connect 103 0 104 0;
#X connect 104 0 91 0;
#X restore -105 139 pd pitch-delay1;
#N canvas 0 23 845 720 pitch-delay 0;
#X obj 187 67 hsl 128 15 0 127 0 0 empty empty empty -2 -8 0 10 -262144
-1 -1 0 1;
#X obj 185 90 / 127;
#X floatatom 185 153 10 0 0 0 - - -, f 10;
#X obj 185 228 t b f;
#X obj 585 75 hsl 128 15 0 127 0 0 empty empty empty -2 -8 0 10 -262144
-1 -1 0 1;
#X obj 582 95 / 127;
#X obj 582 165 * 72;
#X obj 582 186 - 36;
#X floatatom 582 212 5 0 0 0 - - -, f 5;
#X obj 581 246 t b f;
#X floatatom 262 279 5 0 0 0 - - -, f 5;
#X obj 262 299 expr (pow(2 \, ($f2/12)) - 1) * (44100/$f1);
#X floatatom 262 319 5 0 0 0 - - -, f 5;
#X obj 262 340 phasor~;
#X obj 449 383 / 44.1;
#X floatatom 449 404 5 0 0 0 - - -, f 5;
#X obj 262 405 *~ -1;
#X obj 262 426 +~ 1;
#X obj 263 456 *~;
#X obj 321 419 sig~;
#X obj 321 440 samphold~;
#X obj 376 496 cos~;
#X obj 323 490 sig~ 1;
#X obj 323 511 -~;
#X obj 323 532 *~ 0.5;
#X obj 263 548 *~;
#X obj 5 66 inlet~;
#X obj 265 672 outlet~;
#X obj 605 410 *~ -1;
#X obj 605 431 +~ 1;
#X obj 606 461 *~;
#X obj 664 424 sig~;
#X obj 664 445 samphold~;
#X obj 768 476 cos~;
#X obj 682 486 sig~ 1;
#X obj 682 507 -~;
#X obj 682 528 *~ 0.5;
#X obj 606 553 *~;
#X obj 613 347 +~ 0.5;
#X obj 613 368 wrap~;
#X obj 605 661 outlet~;
#X floatatom 651 211 5 0 0 0 - - -, f 5;
#X obj 185 132 + 50;
#X obj 185 111 * 88150;
#X obj 265 632 *~;
#X obj 412 511 / 127;
#X obj 412 532 pack 0 10;
#X obj 412 553 line~;
#X obj 605 636 *~;
#X obj 37 350 *~;
#X obj 78 174 / 127;
#X obj 78 263 pack 0 10;
#X obj 78 284 line~;
#X floatatom 78 237 5 0 0 0 - - -, f 5;
#X obj 78 195 * 0.95;
#X obj 78 216 clip 0 0.95;
#X obj 185 43 r \$0-gt-delay2-s;
#X obj 582 53 r \$0-gt-pitch2-s;
#X obj 651 231 s \$0-gt-pitch2-gui-r;
#X obj 36 386 delwrite~ \$0-dly2 5000;
#X obj 38 133 r~ \$0-dly2-fb;
#X obj 78 153 r \$0-dly2-fb-s;
#X obj 352 647 s~ \$0-dly2-fb;
#X obj 412 490 r \$0-dly2-level-s;
#X obj 263 477 vd~ \$0-dly2;
#X obj 451 433 s \$0-gt-delay2-gui-r;
#X obj 606 482 vd~ \$0-dly2;
#X obj 370 90 *~ 88150;
#X obj 370 111 +~ 50;
#X obj 370 132 snapshot~;
#X obj 447 146 loadbang;
#X obj 447 165 tgl 15 0 empty empty empty 17 7 0 10 -262144 -1 -1 1
1;
#X obj 447 185 metro 20;
#X obj 370 153 t b f;
#X obj 449 -6 env~;
#X obj 448 117 t b f;
#X floatatom 449 36 5 0 0 0 - - -, f 5;
#X obj 449 56 change;
#X obj 449 15 > 0;
#X obj 449 77 sel 0;
#X msg 449 98 0;
#X obj 370 69 r~ \$0-D2-CV;
#X obj 185 173 +;
#X obj 185 194 clip 0 88200;
#X obj 116 317 +~;
#X obj 116 338 clip~ 0 0.95;
#X obj 163 300 r~ \$0-F2-CV;
#X obj 411 607 clip~ 0 1;
#X obj 413 582 +~;
#X obj 503 556 r~ \$0-MIX2-CV;
#X obj 582 116 +;
#X obj 582 137 clip 0 1;
#X obj 718 126 snapshot~;
#X obj 718 155 t b f;
#X obj 793 51 env~;
#X floatatom 793 72 5 0 0 0 - - -, f 5;
#X obj 793 128 sel 0;
#X msg 793 149 bang;
#X msg 793 170 0;
#X obj 793 191 t b f;
#X obj 850 105 loadbang;
#X obj 850 124 tgl 15 0 empty empty empty 17 7 0 10 -262144 -1 -1 1
1;
#X obj 850 144 metro 20;
#X obj 793 92 change;
#X obj 718 80 r~ \$0-P2-CV;
#X connect 0 0 1 0;
#X connect 1 0 43 0;
#X connect 2 0 82 0;
#X connect 3 0 8 0;
#X connect 3 1 10 0;
#X connect 4 0 5 0;
#X connect 5 0 90 0;
#X connect 6 0 7 0;
#X connect 7 0 8 0;
#X connect 7 0 41 0;
#X connect 8 0 9 0;
#X connect 9 0 10 0;
#X connect 9 1 11 1;
#X connect 10 0 11 0;
#X connect 10 0 14 0;
#X connect 11 0 12 0;
#X connect 12 0 13 0;
#X connect 13 0 16 0;
#X connect 13 0 20 1;
#X connect 13 0 21 0;
#X connect 13 0 38 0;
#X connect 14 0 15 0;
#X connect 15 0 19 0;
#X connect 15 0 31 0;
#X connect 15 0 65 0;
#X connect 16 0 17 0;
#X connect 17 0 18 0;
#X connect 18 0 64 0;
#X connect 19 0 20 0;
#X connect 20 0 18 1;
#X connect 21 0 23 1;
#X connect 22 0 23 0;
#X connect 23 0 24 0;
#X connect 24 0 25 1;
#X connect 25 0 44 0;
#X connect 26 0 59 0;
#X connect 28 0 29 0;
#X connect 29 0 30 0;
#X connect 30 0 66 0;
#X connect 31 0 32 0;
#X connect 32 0 30 1;
#X connect 33 0 35 1;
#X connect 34 0 35 0;
#X connect 35 0 36 0;
#X connect 36 0 37 1;
#X connect 37 0 48 0;
#X connect 38 0 39 0;
#X connect 39 0 28 0;
#X connect 39 0 32 1;
#X connect 39 0 33 0;
#X connect 41 0 58 0;
#X connect 42 0 2 0;
#X connect 43 0 42 0;
#X connect 44 0 27 0;
#X connect 44 0 62 0;
#X connect 45 0 46 0;
#X connect 46 0 47 0;
#X connect 47 0 88 0;
#X connect 48 0 40 0;
#X connect 49 0 59 0;
#X connect 50 0 54 0;
#X connect 51 0 52 0;
#X connect 52 0 84 0;
#X connect 53 0 51 0;
#X connect 54 0 55 0;
#X connect 55 0 53 0;
#X connect 56 0 0 0;
#X connect 57 0 4 0;
#X connect 60 0 49 0;
#X connect 61 0 50 0;
#X connect 63 0 45 0;
#X connect 64 0 25 0;
#X connect 66 0 37 0;
#X connect 67 0 68 0;
#X connect 68 0 69 0;
#X connect 69 0 73 0;
#X connect 70 0 71 0;
#X connect 71 0 72 0;
#X connect 72 0 69 0;
#X connect 73 0 82 0;
#X connect 73 1 82 1;
#X connect 74 0 78 0;
#X connect 75 0 82 0;
#X connect 75 1 82 1;
#X connect 76 0 77 0;
#X connect 77 0 79 0;
#X connect 78 0 76 0;
#X connect 79 0 80 0;
#X connect 80 0 75 0;
#X connect 81 0 67 0;
#X connect 81 0 74 0;
#X connect 82 0 83 0;
#X connect 83 0 3 0;
#X connect 84 0 85 0;
#X connect 85 0 49 1;
#X connect 86 0 84 1;
#X connect 87 0 44 1;
#X connect 87 0 48 1;
#X connect 88 0 87 0;
#X connect 89 0 88 1;
#X connect 90 0 91 0;
#X connect 91 0 6 0;
#X connect 92 0 93 0;
#X connect 93 0 90 0;
#X connect 93 1 90 1;
#X connect 94 0 95 0;
#X connect 95 0 103 0;
#X connect 96 0 97 0;
#X connect 97 0 98 0;
#X connect 98 0 99 0;
#X connect 99 0 90 0;
#X connect 99 1 90 1;
#X connect 100 0 101 0;
#X connect 101 0 102 0;
#X connect 102 0 92 0;
#X connect 103 0 96 0;
#X connect 104 0 92 0;
#X connect 104 0 94 0;
#X restore -104 241 pd pitch-delay 2;
#X obj -105 182 throw~ \$0-LEFT;
#X obj -18 162 throw~ \$0-RIGHT;
#X obj -106 80 s~ \$0-INPUT;
#X obj -105 111 r~ \$0-INPUT;
#X obj -104 215 r~ \$0-INPUT;
#X obj -104 282 throw~ \$0-LEFT;
#X obj -11 267 throw~ \$0-RIGHT;
#X floatatom 49 521 5 0 0 0 - - -, f 5;
#X obj 49 541 makefilename %d;
#X obj 48 496 r \$0-gt-delay2-gui-r;
#X msg 49 564 label DELAY2(\$1)ms;
#X obj 49 586 s \$0-gt-delay2-r;
#N canvas 62 23 1174 729 reverse-delay 0;
#X obj 617 411 r \$0-gt-rev-revmix-s;
#X obj 617 432 / 127;
#X obj 617 453 pack 0 10;
#X floatatom 137 204 5 0 0 0 - - -, f 5;
#X obj 138 173 / 2;
#X obj 481 132 phasor~;
#X obj 424 259 *~;
#X obj 576 131 phasor~;
#X msg 520 109 0;
#X msg 615 105 0.5;
#X obj 576 274 *~;
#X obj 138 262 s \$0-t;
#X obj 137 236 expr (60000/$f1)/60;
#X obj 481 17 r \$0-t;
#X obj 441 351 cos~;
#X obj 576 376 *~;
#X obj 424 444 *~;
#X obj 658 299 cos~;
#X obj 658 333 +~ 1;
#X obj 658 360 /~ 2;
#X obj 441 378 +~ 1;
#X obj 441 405 /~ 2;
#X obj 591 201 r \$0-length;
#X obj 520 61 loadbang;
#X obj 321 608 s~ \$0-fb;
#X obj 27 386 inlet~;
#X text 1147 247 gör egen feedback. strunta i mode 0 och använd bara
mode 1;
#X obj 576 439 *~ 1;
#X obj 141 17 hsl 128 15 0 127 0 0 empty empty empty -2 -8 0 10 -262144
-1 -1 0 1;
#X obj 138 37 / 127;
#X obj 138 104 * 3999;
#X obj 138 125 + 1;
#X floatatom 138 146 5 0 0 0 - - -, f 5;
#X obj 190 161 s \$0-length;
#X obj 76 383 r~ \$0-fb;
#X obj 138 289 r \$0-gt-rev-feedback-s;
#X obj 138 310 / 127;
#X obj 138 373 pack 0 10;
#X obj 80 457 *~;
#X obj 138 331 * 0.95;
#X obj 138 352 clip 0 0.95;
#X obj 26 530 delwrite~ \$0-del3 4000;
#X obj 424 307 vd~ \$0-del3;
#X obj 576 316 vd~ \$0-del3;
#X obj 138 -6 r \$0-gt-rev-delay-s;
#X obj 32 219 s \$0-rev-gui-s;
#X obj 481 40 pack 0 10;
#X obj 481 61 line~;
#X obj 591 222 pack 0 10;
#X obj 591 243 line~;
#X obj 420 604 *~;
#X obj 572 604 *~;
#X obj 572 625 outlet~;
#X obj 420 625 outlet~;
#X obj 298 19 r~ \$0-D3-CV;
#X obj 220 385 r~ \$0-F3-CV;
#X obj 675 510 r~ \$0-MIX3-CV;
#X obj 587 571 clip~ 0 1;
#X obj 617 474 line~;
#X obj 659 538 +~;
#X obj 134 440 clip~ 0 0.95;
#X obj 138 394 line~;
#X obj 138 415 +~;
#X obj 138 58 +;
#X obj 138 79 clip 0 1;
#X obj 298 71 snapshot~;
#X obj 380 12 loadbang;
#X obj 380 35 tgl 15 0 empty empty empty 17 7 0 10 -262144 -1 -1 1
1;
#X obj 380 55 metro 20;
#X floatatom 298 92 5 0 0 0 - - -, f 5;
#X obj 298 112 t b f;
#X obj 351 114 > 0;
#X floatatom 351 135 5 0 0 0 - - -, f 5;
#X obj 351 155 change;
#X obj 351 176 sel 0;
#X msg 351 197 0;
#X obj 351 218 t b f;
#X connect 0 0 1 0;
#X connect 1 0 2 0;
#X connect 2 0 58 0;
#X connect 3 0 12 0;
#X connect 3 0 45 0;
#X connect 4 0 3 0;
#X connect 5 0 6 0;
#X connect 5 0 17 0;
#X connect 6 0 42 0;
#X connect 7 0 10 0;
#X connect 7 0 14 0;
#X connect 8 0 5 1;
#X connect 9 0 7 1;
#X connect 10 0 43 0;
#X connect 12 0 11 0;
#X connect 13 0 46 0;
#X connect 14 0 20 0;
#X connect 15 0 27 0;
#X connect 16 0 24 0;
#X connect 16 0 50 0;
#X connect 17 0 18 0;
#X connect 18 0 19 0;
#X connect 19 0 15 1;
#X connect 20 0 21 0;
#X connect 21 0 16 1;
#X connect 22 0 48 0;
#X connect 23 0 8 0;
#X connect 23 0 9 0;
#X connect 25 0 41 0;
#X connect 27 0 24 0;
#X connect 27 0 51 0;
#X connect 28 0 29 0;
#X connect 29 0 63 0;
#X connect 30 0 31 0;
#X connect 31 0 32 0;
#X connect 32 0 33 0;
#X connect 32 0 4 0;
#X connect 34 0 38 0;
#X connect 35 0 36 0;
#X connect 36 0 39 0;
#X connect 37 0 61 0;
#X connect 38 0 41 0;
#X connect 39 0 40 0;
#X connect 40 0 37 0;
#X connect 42 0 16 0;
#X connect 43 0 15 0;
#X connect 44 0 28 0;
#X connect 46 0 47 0;
#X connect 47 0 5 0;
#X connect 47 0 7 0;
#X connect 48 0 49 0;
#X connect 49 0 6 1;
#X connect 49 0 10 1;
#X connect 50 0 53 0;
#X connect 51 0 52 0;
#X connect 54 0 65 0;
#X connect 55 0 62 1;
#X connect 56 0 59 1;
#X connect 57 0 51 1;
#X connect 57 0 50 1;
#X connect 58 0 59 0;
#X connect 59 0 57 0;
#X connect 60 0 38 1;
#X connect 61 0 62 0;
#X connect 62 0 60 0;
#X connect 63 0 64 0;
#X connect 64 0 30 0;
#X connect 65 0 69 0;
#X connect 65 0 71 0;
#X connect 66 0 67 0;
#X connect 67 0 68 0;
#X connect 68 0 65 0;
#X connect 69 0 70 0;
#X connect 70 0 63 0;
#X connect 70 1 63 1;
#X connect 71 0 72 0;
#X connect 72 0 73 0;
#X connect 73 0 74 0;
#X connect 74 0 75 0;
#X connect 75 0 76 0;
#X connect 76 0 63 0;
#X connect 76 1 63 1;
#X restore -102 343 pd reverse-delay;
#X obj -101 317 r~ \$0-INPUT;
#X obj -102 381 throw~ \$0-LEFT;
#X obj -9 381 throw~ \$0-RIGHT;
#X obj 112 273 hsl 128 15 0 127 0 1 \$0-gt-rev-revmix-s \$0-gt-rev-revmix-r
REVERSE-MIX 133 7 0 10 -262144 -1 -1 0 1;
#X obj 112 243 hsl 128 15 0 127 0 1 \$0-gt-rev-delay-s \$0-gt-rev-delay-r
REVDLY(0)ms 133 7 0 10 -262144 -1 -1 0 1;
#X obj 112 258 hsl 128 15 0 127 0 1 \$0-gt-rev-feedback-s \$0-gt-rev-feedback-r
FEEDBACK 133 7 0 10 -262144 -1 -1 0 1;
#X obj 187 501 r \$0-rev-gui-s;
#X floatatom 187 523 5 0 0 0 - - -, f 5;
#X obj 187 543 makefilename %d;
#X obj 187 588 s \$0-gt-rev-delay-r;
#X obj 351 273 hsl 128 15 0 127 0 1 \$0-gt-roomsize-s \$0-gt-roomsize-r
ROOMSIZE 133 7 0 10 -262144 -1 -1 0 1;
#X obj 351 243 hsl 128 15 0 127 0 1 \$0-gt-lofi-output-s \$0-gt-lofi-output-r
LOFI-FREQ 133 7 0 10 -262144 -1 -1 0 1;
#X obj 376 370 catch~ \$0-LEFT;
#X obj 463 401 catch~ \$0-RIGHT;
#N canvas 218 23 878 637 lo-fi-OUTPUT 0;
#X obj 179 332 samphold~;
#X obj 230 302 phasor~;
#X floatatom 230 232 5 0 0 0 - - -, f 5;
#X obj 266 6 loadbang;
#X obj 266 27 t b b;
#X msg 267 48 0;
#X msg 300 53 0.5;
#X obj 462 289 phasor~;
#X obj 411 333 samphold~;
#X obj 230 252 pack 0 10;
#X obj 230 273 line~;
#X obj 231 110 / 127;
#X obj 230 187 * 1940;
#X obj 230 208 + 60;
#X obj 178 472 *~;
#X obj 411 480 *~;
#X obj 286 349 pack 0 10;
#X obj 286 325 / 127;
#X obj 231 89 r \$0-gt-lofi-output-s;
#X obj 286 304 r \$0-gt-output-mix-s;
#X obj 175 17 inlet~;
#X obj 179 531 outlet~;
#X obj 411 531 outlet~;
#X obj 404 30 inlet~;
#X obj 45 477 *~;
#X obj 559 474 *~;
#X obj 592 203 r \$0-gt-output-mix-s;
#X obj 592 241 / 127;
#X obj 592 262 t f f;
#X msg 592 285 1 \$1;
#X obj 592 306 -;
#X floatatom 592 327 5 0 0 0 - - -, f 5;
#X obj 592 347 pack 0 10;
#X obj 592 368 line~;
#X obj 71 185 r \$0-gt-output-mix-s;
#X obj 71 223 / 127;
#X obj 71 244 t f f;
#X msg 71 267 1 \$1;
#X obj 71 288 -;
#X floatatom 71 309 5 0 0 0 - - -, f 5;
#X obj 71 329 pack 0 10;
#X obj 71 350 line~;
#X obj 509 77 r notes;
#X floatatom 509 98 5 0 0 0 - - -, f 5;
#X obj 509 118 mtof;
#X floatatom 509 139 5 0 0 0 - - -, f 5;
#X obj 699 4 r~ \$0-LFREQ-CV;
#X obj 436 376 r~ \$0-LMIX-CV;
#X obj 592 425 +~;
#X obj 592 450 clip~ 0 1;
#X obj 297 460 clip~ 0 1;
#X obj 286 370 line~;
#X obj 287 435 +~;
#X obj 71 405 +~;
#X obj 71 434 clip~ 0 1;
#X obj 231 131 +;
#X obj 231 152 clip 0 1;
#X obj 700 83 snapshot~;
#X obj 782 24 loadbang;
#X obj 782 47 tgl 15 0 empty empty empty 17 7 0 10 -262144 -1 -1 1
1;
#X obj 782 67 metro 20;
#X floatatom 700 104 5 0 0 0 - - -, f 5;
#X obj 700 124 t b f;
#X obj 753 126 > 0;
#X floatatom 753 147 5 0 0 0 - - -, f 5;
#X obj 753 167 change;
#X obj 753 188 sel 0;
#X msg 753 209 0;
#X obj 753 230 t b f;
#X obj 436 397 *~ -1;
#X obj 436 418 +~ 1;
#X connect 0 0 14 0;
#X connect 1 0 0 1;
#X connect 2 0 9 0;
#X connect 3 0 4 0;
#X connect 4 0 5 0;
#X connect 4 1 6 0;
#X connect 5 0 1 1;
#X connect 6 0 7 1;
#X connect 7 0 8 1;
#X connect 8 0 15 0;
#X connect 9 0 10 0;
#X connect 10 0 1 0;
#X connect 10 0 7 0;
#X connect 11 0 55 0;
#X connect 12 0 13 0;
#X connect 13 0 2 0;
#X connect 14 0 21 0;
#X connect 15 0 22 0;
#X connect 16 0 51 0;
#X connect 17 0 16 0;
#X connect 18 0 11 0;
#X connect 19 0 17 0;
#X connect 20 0 0 0;
#X connect 20 0 24 0;
#X connect 23 0 8 0;
#X connect 23 0 25 0;
#X connect 24 0 21 0;
#X connect 25 0 22 0;
#X connect 26 0 27 0;
#X connect 27 0 28 0;
#X connect 28 0 29 0;
#X connect 29 0 30 0;
#X connect 30 0 31 0;
#X connect 31 0 32 0;
#X connect 32 0 33 0;
#X connect 33 0 48 0;
#X connect 34 0 35 0;
#X connect 35 0 36 0;
#X connect 36 0 37 0;
#X connect 37 0 38 0;
#X connect 38 0 39 0;
#X connect 39 0 40 0;
#X connect 40 0 41 0;
#X connect 41 0 53 0;
#X connect 42 0 43 0;
#X connect 43 0 44 0;
#X connect 44 0 45 0;
#X connect 45 0 9 0;
#X connect 46 0 57 0;
#X connect 47 0 52 1;
#X connect 47 0 69 0;
#X connect 48 0 49 0;
#X connect 49 0 25 1;
#X connect 50 0 14 1;
#X connect 50 0 15 1;
#X connect 51 0 52 0;
#X connect 52 0 50 0;
#X connect 53 0 54 0;
#X connect 54 0 24 1;
#X connect 55 0 56 0;
#X connect 56 0 12 0;
#X connect 57 0 61 0;
#X connect 57 0 63 0;
#X connect 58 0 59 0;
#X connect 59 0 60 0;
#X connect 60 0 57 0;
#X connect 61 0 62 0;
#X connect 62 0 55 0;
#X connect 62 1 55 1;
#X connect 63 0 64 0;
#X connect 64 0 65 0;
#X connect 65 0 66 0;
#X connect 66 0 67 0;
#X connect 67 0 68 0;
#X connect 68 0 55 0;
#X connect 68 1 55 1;
#X connect 69 0 70 0;
#X connect 70 0 48 1;
#X connect 70 0 53 1;
#X restore 376 462 pd lo-fi-OUTPUT;
#X obj 351 258 hsl 128 15 0 127 0 1 \$0-gt-output-mix-s \$0-gt-output-mix-r
LOFI-MIX 133 7 0 10 -262144 -1 -1 0 1;
#N canvas 0 23 945 540 ambience 0;
#X obj 132 55 inlet~;
#X obj 132 327 outlet~;
#X obj 187 328 outlet~;
#X obj 184 55 inlet~;
#X obj 370 -1 / 127;
#X obj 370 20 t f f;
#X msg 370 43 1 \$1;
#X obj 370 64 -;
#X floatatom 370 85 5 0 0 0 - - -, f 5;
#X obj 361 104 pack 0 10;
#X obj 370 -39 r \$0-gt-ambience-s;
#X obj 41 230 *~;
#X obj 340 208 *~;
#X obj 421 210 pack 0 10;
#X obj 197 176 *~;
#X obj 137 176 *~;
#X obj 289 213 *~;
#X obj 229 213 *~;
#X obj 248 -7 r \$0-gt-roomsize-s;
#X obj 248 14 / 127;
#X obj 252 111 + 1;
#X obj 252 90 * 99;
#X obj 132 131 rev3~ 100 95 2200 90;
#X obj 485 6 r~ \$0-RSIZE-CV;
#X obj 434 41 r~ \$0-MIX4-CV;
#X obj 248 35 +;
#X obj 248 56 clip 0 1;
#X obj 493 143 snapshot~;
#X obj 575 84 loadbang;
#X obj 575 107 tgl 15 0 empty empty empty 17 7 0 10 -262144 -1 -1 1
1;
#X obj 575 127 metro 20;
#X floatatom 493 164 5 0 0 0 - - -, f 5;
#X obj 493 184 t b f;
#X obj 546 186 > 0;
#X floatatom 546 207 5 0 0 0 - - -, f 5;
#X obj 546 227 change;
#X obj 546 248 sel 0;
#X msg 546 269 0;
#X obj 546 290 t b f;
#X obj 353 175 clip~ 0 1;
#X obj 353 128 line~;
#X obj 356 155 +~;
#X obj 409 276 clip~ 0 1;
#X obj 421 231 line~;
#X obj 408 252 +~;
#X obj 634 331 scope;
#X obj 776 206 *~ -1;
#X obj 776 227 +~ 1;
#X connect 0 0 11 0;
#X connect 0 0 22 0;
#X connect 3 0 12 0;
#X connect 3 0 22 1;
#X connect 4 0 5 0;
#X connect 5 0 6 0;
#X connect 5 1 13 0;
#X connect 6 0 7 0;
#X connect 7 0 8 0;
#X connect 8 0 9 0;
#X connect 9 0 40 0;
#X connect 10 0 4 0;
#X connect 11 0 1 0;
#X connect 12 0 2 0;
#X connect 13 0 43 0;
#X connect 14 0 2 0;
#X connect 15 0 1 0;
#X connect 16 0 2 0;
#X connect 17 0 1 0;
#X connect 18 0 19 0;
#X connect 19 0 25 0;
#X connect 20 0 22 3;
#X connect 21 0 20 0;
#X connect 22 0 15 0;
#X connect 22 1 14 0;
#X connect 22 2 17 0;
#X connect 22 3 16 0;
#X connect 23 0 27 0;
#X connect 24 0 44 1;
#X connect 24 0 46 0;
#X connect 25 0 26 0;
#X connect 26 0 21 0;
#X connect 27 0 31 0;
#X connect 27 0 33 0;
#X connect 28 0 29 0;
#X connect 29 0 30 0;
#X connect 30 0 27 0;
#X connect 31 0 32 0;
#X connect 32 0 25 0;
#X connect 32 1 25 1;
#X connect 33 0 34 0;
#X connect 34 0 35 0;
#X connect 35 0 36 0;
#X connect 36 0 37 0;
#X connect 37 0 38 0;
#X connect 38 0 25 0;
#X connect 38 1 25 1;
#X connect 39 0 12 1;
#X connect 39 0 11 1;
#X connect 40 0 41 0;
#X connect 41 0 39 0;
#X connect 42 0 16 1;
#X connect 42 0 17 1;
#X connect 42 0 14 1;
#X connect 42 0 15 1;
#X connect 43 0 44 0;
#X connect 44 0 42 0;
#X connect 46 0 47 0;
#X connect 47 0 41 1;
#X restore 383 513 pd ambience;
#X obj 272 323 hsl 127 20 0 127 0 1 \$0-gt-dry/wet-s \$0-gt-dry/wet-r
DRY/WET 133 7 0 10 -137270 -1 -1 0 1;
#X obj 351 288 hsl 128 15 0 127 0 1 \$0-gt-ambience-s \$0-gt-ambience-r
LOFI+VERB-MIX 133 7 0 10 -262144 -1 -1 0 1;
#X obj 751 309 r \$0-gt-dry/wet-s;
#X obj -17 80 s~ \$0-DRY;
#X obj 675 482 r~ \$0-DRY;
#X obj 675 510 *~;
#X obj 751 330 / 127;
#X obj 751 351 t f f;
#X msg 751 372 1 \$1;
#X obj 751 393 -;
#X obj 751 414 pack 0 10;
#X obj 387 569 *~;
#X obj 442 572 *~;
#X obj 502 433 r \$0-gt-dry/wet-s;
#X obj 502 454 / 127;
#X obj 502 478 pack 0 10;
#X obj 184 416 r~ \$0-DRY;
#X obj 184 444 *~;
#X obj 260 383 / 127;
#X obj 260 407 pack 0 10;
#X obj 260 428 line~;
#X obj 260 362 r \$0-gt-ambience-s;
#X obj 257 456 *~;
#X obj 998 353 r \$0-dly1-level-s;
#X obj 1123 360 r \$0-dly2-level-s;
#X obj 1113 470 r \$0-gt-rev-revmix-s;
#X obj 1026 465 +;
#X obj 1123 381 t b f;
#X obj 1025 516 +;
#X obj 1113 491 t b f;
#X floatatom 1025 537 5 0 0 0 - - -, f 5;
#X obj 1025 557 == 0;
#X floatatom 1025 578 5 0 0 0 - - -, f 5;
#X obj 1025 598 pack 0 10;
#X obj 1025 619 line~;
#X obj 106 124 cnv 5 5 5 empty empty STARLIGHT 0 0 0 12 -262144 -66577
0;
#X obj 110 150 cnv 5 5 5 empty empty DLY1 0 0 0 12 -213792 -262144
0;
#X obj 552 343 cnv 5 5 5 empty empty RIGHT 0 0 0 8 -262144 -66577 0
;
#X obj 105 342 cnv 5 5 5 empty empty LEFT 0 0 0 8 -262144 -66577 0
;
#X obj 105 109 cnv 5 5 5 empty empty IN 0 0 0 8 -262144 -66577 0;
#X obj 180 124 cnv 5 5 5 empty \$0-instance-num 4 0 0 0 12 -262144
-66577 0;
#X obj 349 152 cnv 5 5 5 empty empty DLY2 0 0 0 12 -213792 -262144
0;
#X obj 110 237 cnv 5 5 5 empty empty REVERSE-3 0 0 0 12 -137270 -262144
0;
#X obj 348 236 cnv 5 5 5 empty empty LOFI+VERB-4 0 0 0 12 -130281 -262144
0;
#X obj 67 34 s~ \$0-D1-CV;
#X obj 135 54 s~ \$0-P1-CV;
#X obj 202 31 s~ \$0-F1-CV;
#X obj 271 57 s~ \$0-MIX1-CV;
#X obj 355 33 s~ \$0-D2-CV;
#X obj 423 59 s~ \$0-P2-CV;
#X obj 490 39 s~ \$0-F2-CV;
#X obj 559 61 s~ \$0-MIX2-CV;
#X obj 643 36 s~ \$0-D3-CV;
#X obj 709 62 s~ \$0-F3-CV;
#X obj 774 36 s~ \$0-MIX3-CV;
#X obj 853 63 s~ \$0-LFREQ-CV;
#X obj 938 36 s~ \$0-LMIX-CV;
#X obj 1018 61 s~ \$0-RSIZE-CV;
#X obj 1099 33 s~ \$0-MIX4-CV;
#X obj 1180 64 s~ \$0-D/W-CV;
#N canvas 100 23 1296 806 state-saving-multiple-instances 0;
#X obj 164 26 loadbang;
#X obj 879 375 textfile;
#X msg 1160 358 rewind;
#X msg 1117 358 bang;
#X obj 88 707 textfile;
#X obj 1117 317 t b b;
#X obj 88 355 f;
#X obj 100 647 f;
#X obj 27 402 t b b b;
#X msg 162 642 clear;
#X obj 230 235 outlet;
#X text 272 237 INSTANCE NUMBER;
#X obj 191 200 t f f f;
#X obj 191 164 f \$1;
#X obj 164 59 t b b;
#X obj 27 378 bng 15 250 50 0 empty empty empty 17 7 0 10 -262144 -1
-1;
#X obj 27 234 r SAVE-S;
#X msg 91 587 set \$1 \$2 \$3 \$4 \$5 \$6 \$7 \$8 \$9 \$10 \$11 \$12
\$13 \$14 \$15 \$16;
#X msg 101 682 write statesave/\$1-starlight-ss.txt;
#X msg 880 350 read statesave/\$1-starlight-ss.txt;
#X obj 88 558 pack f f f f f f f f f f f f f f f f;
#X obj 100 227 r \$0-gt-delay-s;
#X obj 113 256 r \$0-gt-pitch-s;
#X obj 142 284 r \$0-dly1-fb-s;
#X obj 170 309 r \$0-dly1-level-s;
#X obj 179 336 r \$0-gt-delay2-s;
#X obj 192 365 r \$0-gt-pitch2-s;
#X obj 221 393 r \$0-dly1-fb2-s;
#X obj 249 418 r \$0-dly2-level-s;
#X obj 283 451 r \$0-gt-rev-delay-s;
#X obj 296 480 r \$0-gt-rev-feedback-s;
#X obj 325 508 r \$0-gt-rev-revmix-s;
#X obj 387 305 r \$0-gt-lofi-output-s;
#X obj 421 338 r \$0-gt-output-mix-s;
#X obj 434 367 r \$0-gt-roomsize-s;
#X obj 467 421 r \$0-gt-ambience-s;
#X obj 463 472 r \$0-gt-dry/wet-s;
#X obj 879 397 unpack f f f f f f f f f f f f f f f f;
#X obj 782 757 s \$0-gt-delay-r;
#X obj 816 731 s \$0-gt-pitch-r;
#X obj 851 701 s \$0-dly1-fb-r;
#X obj 879 667 s \$0-dly1-level-r;
#X obj 901 764 s \$0-gt-delay2-r;
#X obj 935 738 s \$0-gt-pitch2-r;
#X obj 970 708 s \$0-dly1-fb2-r;
#X obj 998 674 s \$0-dly2-level-r;
#X obj 1059 632 s \$0-gt-rev-delay-r;
#X obj 1094 602 s \$0-gt-rev-feedback-r;
#X obj 1122 568 s \$0-gt-rev-revmix-r;
#X obj 1119 749 s \$0-gt-lofi-output-r;
#X obj 1153 723 s \$0-gt-output-mix-r;
#X obj 1188 693 s \$0-gt-roomsize-r;
#X obj 1211 612 s \$0-gt-ambience-r;
#X obj 1200 510 s \$0-gt-dry/wet-r;
#X connect 0 0 14 0;
#X connect 1 0 37 0;
#X connect 2 0 1 0;
#X connect 3 0 1 0;
#X connect 5 0 3 0;
#X connect 5 1 2 0;
#X connect 6 0 20 0;
#X connect 7 0 18 0;
#X connect 8 0 7 0;
#X connect 8 1 6 0;
#X connect 8 2 9 0;
#X connect 9 0 4 0;
#X connect 12 0 7 1;
#X connect 12 1 19 0;
#X connect 12 2 10 0;
#X connect 13 0 12 0;
#X connect 14 0 5 0;
#X connect 14 1 13 0;
#X connect 15 0 8 0;
#X connect 16 0 15 0;
#X connect 17 0 4 0;
#X connect 18 0 4 0;
#X connect 19 0 1 0;
#X connect 20 0 17 0;
#X connect 21 0 6 1;
#X connect 22 0 20 1;
#X connect 23 0 20 2;
#X connect 24 0 20 3;
#X connect 25 0 20 4;
#X connect 26 0 20 5;
#X connect 27 0 20 6;
#X connect 28 0 20 7;
#X connect 29 0 20 8;
#X connect 30 0 20 9;
#X connect 31 0 20 10;
#X connect 32 0 20 11;
#X connect 33 0 20 12;
#X connect 34 0 20 13;
#X connect 35 0 20 14;
#X connect 36 0 20 15;
#X connect 37 0 38 0;
#X connect 37 1 39 0;
#X connect 37 2 40 0;
#X connect 37 3 41 0;
#X connect 37 4 42 0;
#X connect 37 5 43 0;
#X connect 37 6 44 0;
#X connect 37 7 45 0;
#X connect 37 8 46 0;
#X connect 37 9 47 0;
#X connect 37 10 48 0;
#X connect 37 11 49 0;
#X connect 37 12 50 0;
#X connect 37 13 51 0;
#X connect 37 14 52 0;
#X connect 37 15 53 0;
#X restore 1039 177 pd state-saving-multiple-instances;
#X obj 1039 254 s \$0-instance-num;
#X obj 1039 206 makefilename %d;
#X msg 1039 231 label \$1;
#N canvas 323 23 1117 745 state-saving-via-preset-manager-module 0
;
#X obj 814 284 textfile;
#X msg 1134 267 rewind;
#X msg 1091 267 bang;
#X obj 243 690 textfile;
#X obj 1091 228 t b b;
#X obj 244 229 f;
#X obj 257 579 f;
#X obj 190 474 t b b b;
#X msg 373 621 clear;
#X obj 244 180 delay 5;
#X obj 190 529 delay 10;
#X msg 190 314 bang;
#X obj 190 155 r STORE-S!;
#X obj 814 185 f;
#X obj 787 142 t b b;
#X obj 802 106 t b f;
#X obj 859 203 f \$1;
#X obj 814 230 pack f f;
#X obj 859 153 loadbang;
#X obj 257 609 pack f f;
#X obj 302 562 loadbang;
#X obj 302 584 f \$1;
#X obj 802 68 r preset-manager-scan;
#X obj 272 540 r preset-manager-store-slot;
#N canvas 0 22 1069 747 morph-parameters 0;
#X obj 176 94 inlet;
#X obj 176 236 pack f f;
#X obj 176 261 line;
#X obj 209 117 r preset-manager-morph-s;
#X msg 72 244 stop;
#X obj 72 214 r STOP-MORPH!;
#X obj 209 206 spigot;
#X obj 398 137 t f f;
#X obj 455 154 == 0;
#X obj 221 176 f;
#X floatatom 455 222 5 0 0 0 - - -, f 5;
#X obj 398 159 t b f;
#X floatatom 425 192 5 0 0 0 - - -, f 5;
#X obj 209 139 t f f;
#X obj 398 102 r parameters-s;
#X obj 176 288 outlet;
#X connect 0 0 1 0;
#X connect 1 0 2 0;
#X connect 2 0 15 0;
#X connect 3 0 13 0;
#X connect 4 0 2 0;
#X connect 5 0 4 0;
#X connect 6 0 1 1;
#X connect 7 0 11 0;
#X connect 7 1 8 0;
#X connect 8 0 10 0;
#X connect 9 0 6 0;
#X connect 10 0 1 1;
#X connect 11 0 9 0;
#X connect 11 1 12 0;
#X connect 12 0 6 1;
#X connect 13 0 6 0;
#X connect 13 1 9 1;
#X connect 14 0 7 0;
#X restore 605 604 pd morph-parameters;
#X msg 243 490 set \$1 \$2 \$3 \$4 \$5 \$6 \$7 \$8 \$9 \$10 \$11 \$12
\$13 \$14 \$15 \$16;
#X msg 256 650 write statesave/\$1-\$2-starlight-ss.txt;
#X msg 814 259 read statesave/\$1-\$2-starlight-ss.txt;
#N canvas 0 22 1069 747 morph-attenuators 0;
#X obj 176 94 inlet;
#X obj 176 236 pack f f;
#X obj 176 261 line;
#X obj 209 117 r preset-manager-morph-s;
#X msg 72 244 stop;
#X obj 72 214 r STOP-MORPH!;
#X obj 209 206 spigot;
#X obj 398 137 t f f;
#X obj 455 154 == 0;
#X obj 221 176 f;
#X floatatom 455 222 5 0 0 0 - - -, f 5;
#X obj 398 159 t b f;
#X floatatom 425 192 5 0 0 0 - - -, f 5;
#X obj 209 139 t f f;
#X obj 398 102 r attenuators-s;
#X obj 176 288 outlet;
#X connect 0 0 1 0;
#X connect 1 0 2 0;
#X connect 2 0 15 0;
#X connect 3 0 13 0;
#X connect 4 0 2 0;
#X connect 5 0 4 0;
#X connect 6 0 1 1;
#X connect 7 0 11 0;
#X connect 7 1 8 0;
#X connect 8 0 10 0;
#X connect 9 0 6 0;
#X connect 10 0 1 1;
#X connect 11 0 9 0;
#X connect 11 1 12 0;
#X connect 12 0 6 1;
#X connect 13 0 6 0;
#X connect 13 1 9 1;
#X connect 14 0 7 0;
#X restore 1190 322 pd morph-attenuators;
#X obj 244 423 pack f f f f f f f f f f f f f f f f;
#X obj 259 204 r \$0-gt-delay-s;
#X obj 272 231 r \$0-gt-pitch-s;
#X obj 285 253 r \$0-dly1-fb-s;
#X obj 299 276 r \$0-dly1-level-s;
#X obj 312 303 r \$0-gt-delay2-s;
#X obj 325 325 r \$0-gt-pitch2-s;
#X obj 378 154 r \$0-dly1-fb2-s;
#X obj 391 181 r \$0-dly2-level-s;
#X obj 403 242 r \$0-gt-rev-delay-s;
#X obj 417 265 r \$0-gt-rev-feedback-s;
#X obj 430 292 r \$0-gt-rev-revmix-s;
#X obj 443 314 r \$0-gt-lofi-output-s;
#X obj 614 303 r \$0-gt-output-mix-s;
#X obj 627 330 r \$0-gt-roomsize-s;
#X obj 640 352 r \$0-gt-ambience-s;
#X obj 654 375 r \$0-gt-dry/wet-s;
#X obj 815 306 unpack f f f f f f f f f f f f f f f f;
#X obj 605 629 s \$0-gt-delay-r;
#N canvas 0 22 1069 747 morph-frequencies 0;
#X obj 176 94 inlet;
#X obj 176 236 pack f f;
#X obj 176 261 line;
#X obj 209 117 r preset-manager-morph-s;
#X msg 72 244 stop;
#X obj 72 214 r STOP-MORPH!;
#X obj 398 102 r frequencies-s;
#X obj 209 206 spigot;
#X obj 398 137 t f f;
#X obj 455 154 == 0;
#X obj 221 176 f;
#X floatatom 455 222 5 0 0 0 - - -, f 5;
#X obj 398 159 t b f;
#X floatatom 425 192 5 0 0 0 - - -, f 5;
#X obj 209 139 t f f;
#X obj 176 283 outlet;
#X connect 0 0 1 0;
#X connect 1 0 2 0;
#X connect 2 0 15 0;
#X connect 3 0 14 0;
#X connect 4 0 2 0;
#X connect 5 0 4 0;
#X connect 6 0 8 0;
#X connect 7 0 1 1;
#X connect 8 0 12 0;
#X connect 8 1 9 0;
#X connect 9 0 11 0;
#X connect 10 0 7 0;
#X connect 11 0 1 1;
#X connect 12 0 10 0;
#X connect 12 1 13 0;
#X connect 13 0 7 1;
#X connect 14 0 7 0;
#X connect 14 1 10 1;
#X restore 677 559 pd morph-frequencies;
#X obj 677 582 s \$0-gt-pitch-r;
#N canvas 0 22 1069 747 morph-parameters 0;
#X obj 176 94 inlet;
#X obj 176 236 pack f f;
#X obj 176 261 line;
#X obj 209 117 r preset-manager-morph-s;
#X msg 72 244 stop;
#X obj 72 214 r STOP-MORPH!;
#X obj 209 206 spigot;
#X obj 398 137 t f f;
#X obj 455 154 == 0;
#X obj 221 176 f;
#X floatatom 455 222 5 0 0 0 - - -, f 5;
#X obj 398 159 t b f;
#X floatatom 425 192 5 0 0 0 - - -, f 5;
#X obj 209 139 t f f;
#X obj 398 102 r parameters-s;
#X obj 176 288 outlet;
#X connect 0 0 1 0;
#X connect 1 0 2 0;
#X connect 2 0 15 0;
#X connect 3 0 13 0;
#X connect 4 0 2 0;
#X connect 5 0 4 0;
#X connect 6 0 1 1;
#X connect 7 0 11 0;
#X connect 7 1 8 0;
#X connect 8 0 10 0;
#X connect 9 0 6 0;
#X connect 10 0 1 1;
#X connect 11 0 9 0;
#X connect 11 1 12 0;
#X connect 12 0 6 1;
#X connect 13 0 6 0;
#X connect 13 1 9 1;
#X connect 14 0 7 0;
#X restore 738 505 pd morph-parameters;
#X obj 738 530 s \$0-dly1-fb-r;
#N canvas 0 22 1069 747 morph-parameters 0;
#X obj 176 94 inlet;
#X obj 176 236 pack f f;
#X obj 176 261 line;
#X obj 209 117 r preset-manager-morph-s;
#X msg 72 244 stop;
#X obj 72 214 r STOP-MORPH!;
#X obj 209 206 spigot;
#X obj 398 137 t f f;
#X obj 455 154 == 0;
#X obj 221 176 f;
#X floatatom 455 222 5 0 0 0 - - -, f 5;
#X obj 398 159 t b f;
#X floatatom 425 192 5 0 0 0 - - -, f 5;
#X obj 209 139 t f f;
#X obj 398 102 r parameters-s;
#X obj 176 288 outlet;
#X connect 0 0 1 0;
#X connect 1 0 2 0;
#X connect 2 0 15 0;
#X connect 3 0 13 0;
#X connect 4 0 2 0;
#X connect 5 0 4 0;
#X connect 6 0 1 1;
#X connect 7 0 11 0;
#X connect 7 1 8 0;
#X connect 8 0 10 0;
#X connect 9 0 6 0;
#X connect 10 0 1 1;
#X connect 11 0 9 0;
#X connect 11 1 12 0;
#X connect 12 0 6 1;
#X connect 13 0 6 0;
#X connect 13 1 9 1;
#X connect 14 0 7 0;
#X restore 787 458 pd morph-parameters;
#X obj 787 483 s \$0-dly1-level-r;
#N canvas 0 22 1069 747 morph-parameters 0;
#X obj 176 94 inlet;
#X obj 176 236 pack f f;
#X obj 176 261 line;
#X obj 209 117 r preset-manager-morph-s;
#X msg 72 244 stop;
#X obj 72 214 r STOP-MORPH!;
#X obj 209 206 spigot;
#X obj 398 137 t f f;
#X obj 455 154 == 0;
#X obj 221 176 f;
#X floatatom 455 222 5 0 0 0 - - -, f 5;
#X obj 398 159 t b f;
#X floatatom 425 192 5 0 0 0 - - -, f 5;
#X obj 209 139 t f f;
#X obj 398 102 r parameters-s;
#X obj 176 288 outlet;
#X connect 0 0 1 0;
#X connect 1 0 2 0;
#X connect 2 0 15 0;
#X connect 3 0 13 0;
#X connect 4 0 2 0;
#X connect 5 0 4 0;
#X connect 6 0 1 1;
#X connect 7 0 11 0;
#X connect 7 1 8 0;
#X connect 8 0 10 0;
#X connect 9 0 6 0;
#X connect 10 0 1 1;
#X connect 11 0 9 0;
#X connect 11 1 12 0;
#X connect 12 0 6 1;
#X connect 13 0 6 0;
#X connect 13 1 9 1;
#X connect 14 0 7 0;
#X restore 793 601 pd morph-parameters;
#N canvas 0 22 1069 747 morph-frequencies 0;
#X obj 176 94 inlet;
#X obj 176 236 pack f f;
#X obj 176 261 line;
#X obj 209 117 r preset-manager-morph-s;
#X msg 72 244 stop;
#X obj 72 214 r STOP-MORPH!;
#X obj 398 102 r frequencies-s;
#X obj 209 206 spigot;
#X obj 398 137 t f f;
#X obj 455 154 == 0;
#X obj 221 176 f;
#X floatatom 455 222 5 0 0 0 - - -, f 5;
#X obj 398 159 t b f;
#X floatatom 425 192 5 0 0 0 - - -, f 5;
#X obj 209 139 t f f;
#X obj 176 283 outlet;
#X connect 0 0 1 0;
#X connect 1 0 2 0;
#X connect 2 0 15 0;
#X connect 3 0 14 0;
#X connect 4 0 2 0;
#X connect 5 0 4 0;
#X connect 6 0 8 0;
#X connect 7 0 1 1;
#X connect 8 0 12 0;
#X connect 8 1 9 0;
#X connect 9 0 11 0;
#X connect 10 0 7 0;
#X connect 11 0 1 1;
#X connect 12 0 10 0;
#X connect 12 1 13 0;
#X connect 13 0 7 1;
#X connect 14 0 7 0;
#X connect 14 1 10 1;
#X restore 865 556 pd morph-frequencies;
#N canvas 0 22 1069 747 morph-parameters 0;
#X obj 176 94 inlet;
#X obj 176 236 pack f f;
#X obj 176 261 line;
#X obj 209 117 r preset-manager-morph-s;
#X msg 72 244 stop;
#X obj 72 214 r STOP-MORPH!;
#X obj 209 206 spigot;
#X obj 398 137 t f f;
#X obj 455 154 == 0;
#X obj 221 176 f;
#X floatatom 455 222 5 0 0 0 - - -, f 5;
#X obj 398 159 t b f;
#X floatatom 425 192 5 0 0 0 - - -, f 5;
#X obj 209 139 t f f;
#X obj 398 102 r parameters-s;
#X obj 176 288 outlet;
#X connect 0 0 1 0;
#X connect 1 0 2 0;
#X connect 2 0 15 0;
#X connect 3 0 13 0;
#X connect 4 0 2 0;
#X connect 5 0 4 0;
#X connect 6 0 1 1;
#X connect 7 0 11 0;
#X connect 7 1 8 0;
#X connect 8 0 10 0;
#X connect 9 0 6 0;
#X connect 10 0 1 1;
#X connect 11 0 9 0;
#X connect 11 1 12 0;
#X connect 12 0 6 1;
#X connect 13 0 6 0;
#X connect 13 1 9 1;
#X connect 14 0 7 0;
#X restore 926 502 pd morph-parameters;
#N canvas 0 22 1069 747 morph-parameters 0;
#X obj 176 94 inlet;
#X obj 176 236 pack f f;
#X obj 176 261 line;
#X obj 209 117 r preset-manager-morph-s;
#X msg 72 244 stop;
#X obj 72 214 r STOP-MORPH!;
#X obj 209 206 spigot;
#X obj 398 137 t f f;
#X obj 455 154 == 0;
#X obj 221 176 f;
#X floatatom 455 222 5 0 0 0 - - -, f 5;
#X obj 398 159 t b f;
#X floatatom 425 192 5 0 0 0 - - -, f 5;
#X obj 209 139 t f f;
#X obj 398 102 r parameters-s;
#X obj 176 288 outlet;
#X connect 0 0 1 0;
#X connect 1 0 2 0;
#X connect 2 0 15 0;
#X connect 3 0 13 0;
#X connect 4 0 2 0;
#X connect 5 0 4 0;
#X connect 6 0 1 1;
#X connect 7 0 11 0;
#X connect 7 1 8 0;
#X connect 8 0 10 0;
#X connect 9 0 6 0;
#X connect 10 0 1 1;
#X connect 11 0 9 0;
#X connect 11 1 12 0;
#X connect 12 0 6 1;
#X connect 13 0 6 0;
#X connect 13 1 9 1;
#X connect 14 0 7 0;
#X restore 975 455 pd morph-parameters;
#X obj 793 626 s \$0-gt-delay2-r;
#X obj 865 579 s \$0-gt-pitch2-r;
#X obj 926 527 s \$0-dly1-fb2-r;
#X obj 975 480 s \$0-dly2-level-r;
#N canvas 0 22 1069 747 morph-parameters 0;
#X obj 176 94 inlet;
#X obj 176 236 pack f f;
#X obj 176 261 line;
#X obj 209 117 r preset-manager-morph-s;
#X msg 72 244 stop;
#X obj 72 214 r STOP-MORPH!;
#X obj 209 206 spigot;
#X obj 398 137 t f f;
#X obj 455 154 == 0;
#X obj 221 176 f;
#X floatatom 455 222 5 0 0 0 - - -, f 5;
#X obj 398 159 t b f;
#X floatatom 425 192 5 0 0 0 - - -, f 5;
#X obj 209 139 t f f;
#X obj 398 102 r parameters-s;
#X obj 176 288 outlet;
#X connect 0 0 1 0;
#X connect 1 0 2 0;
#X connect 2 0 15 0;
#X connect 3 0 13 0;
#X connect 4 0 2 0;
#X connect 5 0 4 0;
#X connect 6 0 1 1;
#X connect 7 0 11 0;
#X connect 7 1 8 0;
#X connect 8 0 10 0;
#X connect 9 0 6 0;
#X connect 10 0 1 1;
#X connect 11 0 9 0;
#X connect 11 1 12 0;
#X connect 12 0 6 1;
#X connect 13 0 6 0;
#X connect 13 1 9 1;
#X connect 14 0 7 0;
#X restore 1007 610 pd morph-parameters;
#N canvas 0 22 1069 747 morph-parameters 0;
#X obj 176 94 inlet;
#X obj 176 236 pack f f;
#X obj 176 261 line;
#X obj 209 117 r preset-manager-morph-s;
#X msg 72 244 stop;
#X obj 72 214 r STOP-MORPH!;
#X obj 209 206 spigot;
#X obj 398 137 t f f;
#X obj 455 154 == 0;
#X obj 221 176 f;
#X floatatom 455 222 5 0 0 0 - - -, f 5;
#X obj 398 159 t b f;
#X floatatom 425 192 5 0 0 0 - - -, f 5;
#X obj 209 139 t f f;
#X obj 398 102 r parameters-s;
#X obj 176 288 outlet;
#X connect 0 0 1 0;
#X connect 1 0 2 0;
#X connect 2 0 15 0;
#X connect 3 0 13 0;
#X connect 4 0 2 0;
#X connect 5 0 4 0;
#X connect 6 0 1 1;
#X connect 7 0 11 0;
#X connect 7 1 8 0;
#X connect 8 0 10 0;
#X connect 9 0 6 0;
#X connect 10 0 1 1;
#X connect 11 0 9 0;
#X connect 11 1 12 0;
#X connect 12 0 6 1;
#X connect 13 0 6 0;
#X connect 13 1 9 1;
#X connect 14 0 7 0;
#X restore 1056 563 pd morph-parameters;
#X obj 1007 635 s \$0-gt-rev-delay-r;
#X obj 1056 588 s \$0-gt-rev-feedback-r;
#N canvas 0 22 1069 747 morph-parameters 0;
#X obj 176 94 inlet;
#X obj 176 236 pack f f;
#X obj 176 261 line;
#X obj 209 117 r preset-manager-morph-s;
#X msg 72 244 stop;
#X obj 72 214 r STOP-MORPH!;
#X obj 209 206 spigot;
#X obj 398 137 t f f;
#X obj 455 154 == 0;
#X obj 221 176 f;
#X floatatom 455 222 5 0 0 0 - - -, f 5;
#X obj 398 159 t b f;
#X floatatom 425 192 5 0 0 0 - - -, f 5;
#X obj 209 139 t f f;
#X obj 398 102 r parameters-s;
#X obj 176 288 outlet;
#X connect 0 0 1 0;
#X connect 1 0 2 0;
#X connect 2 0 15 0;
#X connect 3 0 13 0;
#X connect 4 0 2 0;
#X connect 5 0 4 0;
#X connect 6 0 1 1;
#X connect 7 0 11 0;
#X connect 7 1 8 0;
#X connect 8 0 10 0;
#X connect 9 0 6 0;
#X connect 10 0 1 1;
#X connect 11 0 9 0;
#X connect 11 1 12 0;
#X connect 12 0 6 1;
#X connect 13 0 6 0;
#X connect 13 1 9 1;
#X connect 14 0 7 0;
#X restore 1015 391 pd morph-parameters;
#N canvas 0 22 1069 747 morph-parameters 0;
#X obj 176 94 inlet;
#X obj 176 236 pack f f;
#X obj 176 261 line;
#X obj 209 117 r preset-manager-morph-s;
#X msg 72 244 stop;
#X obj 72 214 r STOP-MORPH!;
#X obj 209 206 spigot;
#X obj 398 137 t f f;
#X obj 455 154 == 0;
#X obj 221 176 f;
#X floatatom 455 222 5 0 0 0 - - -, f 5;
#X obj 398 159 t b f;
#X floatatom 425 192 5 0 0 0 - - -, f 5;
#X obj 209 139 t f f;
#X obj 398 102 r parameters-s;
#X obj 176 288 outlet;
#X connect 0 0 1 0;
#X connect 1 0 2 0;
#X connect 2 0 15 0;
#X connect 3 0 13 0;
#X connect 4 0 2 0;
#X connect 5 0 4 0;
#X connect 6 0 1 1;
#X connect 7 0 11 0;
#X connect 7 1 8 0;
#X connect 8 0 10 0;
#X connect 9 0 6 0;
#X connect 10 0 1 1;
#X connect 11 0 9 0;
#X connect 11 1 12 0;
#X connect 12 0 6 1;
#X connect 13 0 6 0;
#X connect 13 1 9 1;
#X connect 14 0 7 0;
#X restore 1064 344 pd morph-parameters;
#X obj 1015 416 s \$0-gt-rev-revmix-r;
#X obj 1064 369 s \$0-gt-lofi-output-r;
#N canvas 0 22 1069 747 morph-parameters 0;
#X obj 176 94 inlet;
#X obj 176 236 pack f f;
#X obj 176 261 line;
#X obj 209 117 r preset-manager-morph-s;
#X msg 72 244 stop;
#X obj 72 214 r STOP-MORPH!;
#X obj 209 206 spigot;
#X obj 398 137 t f f;
#X obj 455 154 == 0;
#X obj 221 176 f;
#X floatatom 455 222 5 0 0 0 - - -, f 5;
#X obj 398 159 t b f;
#X floatatom 425 192 5 0 0 0 - - -, f 5;
#X obj 209 139 t f f;
#X obj 398 102 r parameters-s;
#X obj 176 288 outlet;
#X connect 0 0 1 0;
#X connect 1 0 2 0;
#X connect 2 0 15 0;
#X connect 3 0 13 0;
#X connect 4 0 2 0;
#X connect 5 0 4 0;
#X connect 6 0 1 1;
#X connect 7 0 11 0;
#X connect 7 1 8 0;
#X connect 8 0 10 0;
#X connect 9 0 6 0;
#X connect 10 0 1 1;
#X connect 11 0 9 0;
#X connect 11 1 12 0;
#X connect 12 0 6 1;
#X connect 13 0 6 0;
#X connect 13 1 9 1;
#X connect 14 0 7 0;
#X restore 1089 507 pd morph-parameters;
#N canvas 0 22 1069 747 morph-parameters 0;
#X obj 176 94 inlet;
#X obj 176 236 pack f f;
#X obj 176 261 line;
#X obj 209 117 r preset-manager-morph-s;
#X msg 72 244 stop;
#X obj 72 214 r STOP-MORPH!;
#X obj 209 206 spigot;
#X obj 398 137 t f f;
#X obj 455 154 == 0;
#X obj 221 176 f;
#X floatatom 455 222 5 0 0 0 - - -, f 5;
#X obj 398 159 t b f;
#X floatatom 425 192 5 0 0 0 - - -, f 5;
#X obj 209 139 t f f;
#X obj 398 102 r parameters-s;
#X obj 176 288 outlet;
#X connect 0 0 1 0;
#X connect 1 0 2 0;
#X connect 2 0 15 0;
#X connect 3 0 13 0;
#X connect 4 0 2 0;
#X connect 5 0 4 0;
#X connect 6 0 1 1;
#X connect 7 0 11 0;
#X connect 7 1 8 0;
#X connect 8 0 10 0;
#X connect 9 0 6 0;
#X connect 10 0 1 1;
#X connect 11 0 9 0;
#X connect 11 1 12 0;
#X connect 12 0 6 1;
#X connect 13 0 6 0;
#X connect 13 1 9 1;
#X connect 14 0 7 0;
#X restore 1129 443 pd morph-parameters;
#N canvas 0 22 1069 747 morph-parameters 0;
#X obj 176 94 inlet;
#X obj 176 236 pack f f;
#X obj 176 261 line;
#X obj 209 117 r preset-manager-morph-s;
#X msg 72 244 stop;
#X obj 72 214 r STOP-MORPH!;
#X obj 209 206 spigot;
#X obj 398 137 t f f;
#X obj 455 154 == 0;
#X obj 221 176 f;
#X floatatom 455 222 5 0 0 0 - - -, f 5;
#X obj 398 159 t b f;
#X floatatom 425 192 5 0 0 0 - - -, f 5;
#X obj 209 139 t f f;
#X obj 398 102 r parameters-s;
#X obj 176 288 outlet;
#X connect 0 0 1 0;
#X connect 1 0 2 0;
#X connect 2 0 15 0;
#X connect 3 0 13 0;
#X connect 4 0 2 0;
#X connect 5 0 4 0;
#X connect 6 0 1 1;
#X connect 7 0 11 0;
#X connect 7 1 8 0;
#X connect 8 0 10 0;
#X connect 9 0 6 0;
#X connect 10 0 1 1;
#X connect 11 0 9 0;
#X connect 11 1 12 0;
#X connect 12 0 6 1;
#X connect 13 0 6 0;
#X connect 13 1 9 1;
#X connect 14 0 7 0;
#X restore 1178 396 pd morph-parameters;
#X obj 1089 532 s \$0-gt-output-mix-r;
#X obj 1129 468 s \$0-gt-roomsize-r;
#X obj 1178 421 s \$0-gt-ambience-r;
#X obj 1190 343 s \$0-gt-dry/wet-r;
#X connect 0 0 46 0;
#X connect 1 0 0 0;
#X connect 2 0 0 0;
#X connect 4 0 2 0;
#X connect 4 1 1 0;
#X connect 5 0 29 0;
#X connect 6 0 19 0;
#X connect 7 0 10 0;
#X connect 7 1 9 0;
#X connect 7 2 8 0;
#X connect 8 0 3 0;
#X connect 9 0 5 0;
#X connect 10 0 6 0;
#X connect 11 0 7 0;
#X connect 12 0 11 0;
#X connect 13 0 17 0;
#X connect 14 0 4 0;
#X connect 14 1 13 0;
#X connect 15 0 14 0;
#X connect 15 1 13 1;
#X connect 16 0 17 1;
#X connect 17 0 27 0;
#X connect 18 0 16 0;
#X connect 19 0 26 0;
#X connect 20 0 21 0;
#X connect 21 0 19 1;
#X connect 22 0 15 0;
#X connect 23 0 6 1;
#X connect 24 0 47 0;
#X connect 25 0 3 0;
#X connect 26 0 3 0;
#X connect 27 0 0 0;
#X connect 28 0 76 0;
#X connect 29 0 25 0;
#X connect 30 0 5 1;
#X connect 31 0 29 1;
#X connect 32 0 29 2;
#X connect 33 0 29 3;
#X connect 34 0 29 4;
#X connect 35 0 29 5;
#X connect 36 0 29 6;
#X connect 37 0 29 7;
#X connect 38 0 29 8;
#X connect 39 0 29 9;
#X connect 40 0 29 10;
#X connect 41 0 29 11;
#X connect 42 0 29 12;
#X connect 43 0 29 13;
#X connect 44 0 29 14;
#X connect 45 0 29 15;
#X connect 46 0 24 0;
#X connect 46 1 48 0;
#X connect 46 2 50 0;
#X connect 46 3 52 0;
#X connect 46 4 54 0;
#X connect 46 5 55 0;
#X connect 46 6 56 0;
#X connect 46 7 57 0;
#X connect 46 8 62 0;
#X connect 46 9 63 0;
#X connect 46 10 66 0;
#X connect 46 11 67 0;
#X connect 46 12 70 0;
#X connect 46 13 71 0;
#X connect 46 14 72 0;
#X connect 46 15 28 0;
#X connect 48 0 49 0;
#X connect 50 0 51 0;
#X connect 52 0 53 0;
#X connect 54 0 58 0;
#X connect 55 0 59 0;
#X connect 56 0 60 0;
#X connect 57 0 61 0;
#X connect 62 0 64 0;
#X connect 63 0 65 0;
#X connect 66 0 68 0;
#X connect 67 0 69 0;
#X connect 70 0 73 0;
#X connect 71 0 74 0;
#X connect 72 0 75 0;
#X restore 1039 148 pd state-saving-via-preset-manager-module;
#N canvas 521 82 886 577 parameter-nudging-system 0;
#X obj 23 67 clip 0 127;
#X obj 28 500 clip 0 127;
#N canvas 0 23 484 497 nudge-parameters 0;
#X obj 124 234 random;
#X obj 232 335 f;
#X obj 232 368 +;
#X obj 257 166 random 2;
#X obj 124 275 t f f;
#X obj 124 351 t b f;
#X obj 124 297 *;
#X obj 257 188 sel 0 1;
#X msg 257 280 -1;
#X msg 335 280 1;
#X obj 124 149 t b b b;
#X obj 124 74 r NUDGE!;
#X obj 157 193 r NUDGE-RANGE;
#X obj 247 308 inlet;
#X obj 232 397 outlet;
#X obj 124 96 spigot;
#X obj 185 79 r parameters2-s;
#X connect 0 0 4 0;
#X connect 1 0 2 0;
#X connect 2 0 14 0;
#X connect 3 0 7 0;
#X connect 4 0 6 0;
#X connect 5 0 2 0;
#X connect 5 1 2 1;
#X connect 6 0 5 0;
#X connect 7 0 8 0;
#X connect 7 1 9 0;
#X connect 8 0 6 1;
#X connect 9 0 6 1;
#X connect 10 0 0 0;
#X connect 10 1 1 0;
#X connect 10 2 3 0;
#X connect 11 0 15 0;
#X connect 12 0 0 1;
#X connect 13 0 1 1;
#X connect 15 0 10 0;
#X connect 16 0 15 1;
#X restore 23 44 pd nudge-parameters;
#N canvas 0 23 484 497 nudge-attenuators 0;
#X obj 124 234 random;
#X obj 232 335 f;
#X obj 232 368 +;
#X obj 257 166 random 2;
#X obj 124 275 t f f;
#X obj 124 351 t b f;
#X obj 124 297 *;
#X obj 257 188 sel 0 1;
#X msg 257 280 -1;
#X msg 335 280 1;
#X obj 124 149 t b b b;
#X obj 124 71 r NUDGE!;
#X obj 157 193 r NUDGE-RANGE;
#X obj 247 308 inlet;
#X obj 232 397 outlet;
#X obj 124 93 spigot;
#X obj 201 76 r attenuators2-s;
#X connect 0 0 4 0;
#X connect 1 0 2 0;
#X connect 2 0 14 0;
#X connect 3 0 7 0;
#X connect 4 0 6 0;
#X connect 5 0 2 0;
#X connect 5 1 2 1;
#X connect 6 0 5 0;
#X connect 7 0 8 0;
#X connect 7 1 9 0;
#X connect 8 0 6 1;
#X connect 9 0 6 1;
#X connect 10 0 0 0;
#X connect 10 1 1 0;
#X connect 10 2 3 0;
#X connect 11 0 15 0;
#X connect 12 0 0 1;
#X connect 13 0 1 1;
#X connect 15 0 10 0;
#X connect 16 0 15 1;
#X restore 28 477 pd nudge-attenuators;
#X obj 415 66 clip 0 127;
#N canvas 0 23 484 497 nudge-parameters 0;
#X obj 124 234 random;
#X obj 232 335 f;
#X obj 232 368 +;
#X obj 257 166 random 2;
#X obj 124 275 t f f;
#X obj 124 351 t b f;
#X obj 124 297 *;
#X obj 257 188 sel 0 1;
#X msg 257 280 -1;
#X msg 335 280 1;
#X obj 124 149 t b b b;
#X obj 124 74 r NUDGE!;
#X obj 157 193 r NUDGE-RANGE;
#X obj 247 308 inlet;
#X obj 232 397 outlet;
#X obj 124 96 spigot;
#X obj 185 79 r parameters2-s;
#X connect 0 0 4 0;
#X connect 1 0 2 0;
#X connect 2 0 14 0;
#X connect 3 0 7 0;
#X connect 4 0 6 0;
#X connect 5 0 2 0;
#X connect 5 1 2 1;
#X connect 6 0 5 0;
#X connect 7 0 8 0;
#X connect 7 1 9 0;
#X connect 8 0 6 1;
#X connect 9 0 6 1;
#X connect 10 0 0 0;
#X connect 10 1 1 0;
#X connect 10 2 3 0;
#X connect 11 0 15 0;
#X connect 12 0 0 1;
#X connect 13 0 1 1;
#X connect 15 0 10 0;
#X connect 16 0 15 1;
#X restore 415 43 pd nudge-parameters;
#X obj 23 95 s \$0-gt-delay-r;
#X obj 163 67 clip 0 127;
#N canvas 0 22 484 497 nudge-freq 0;
#X obj 124 234 random;
#X obj 232 335 f;
#X obj 232 368 +;
#X obj 257 166 random 2;
#X obj 124 275 t f f;
#X obj 124 351 t b f;
#X obj 124 297 *;
#X obj 257 188 sel 0 1;
#X msg 257 280 -1;
#X msg 335 280 1;
#X obj 124 149 t b b b;
#X obj 124 51 r NUDGE!;
#X obj 157 193 r NUDGE-RANGE;
#X obj 247 308 inlet;
#X obj 232 397 outlet;
#X obj 124 73 spigot;
#X obj 185 56 r frequencies2-s;
#X connect 0 0 4 0;
#X connect 1 0 2 0;
#X connect 2 0 14 0;
#X connect 3 0 7 0;
#X connect 4 0 6 0;
#X connect 5 0 2 0;
#X connect 5 1 2 1;
#X connect 6 0 5 0;
#X connect 7 0 8 0;
#X connect 7 1 9 0;
#X connect 8 0 6 1;
#X connect 9 0 6 1;
#X connect 10 0 0 0;
#X connect 10 1 1 0;
#X connect 10 2 3 0;
#X connect 11 0 15 0;
#X connect 12 0 0 1;
#X connect 13 0 1 1;
#X connect 15 0 10 0;
#X connect 16 0 15 1;
#X restore 163 45 pd nudge-freq;
#X obj 23 22 r \$0-gt-delay-s;
#X obj 163 19 r \$0-gt-pitch-s;
#X obj 163 99 s \$0-gt-pitch-r;
#X obj 280 64 clip 0 127;
#N canvas 0 23 484 497 nudge-parameters 0;
#X obj 124 234 random;
#X obj 232 335 f;
#X obj 232 368 +;
#X obj 257 166 random 2;
#X obj 124 275 t f f;
#X obj 124 351 t b f;
#X obj 124 297 *;
#X obj 257 188 sel 0 1;
#X msg 257 280 -1;
#X msg 335 280 1;
#X obj 124 149 t b b b;
#X obj 124 74 r NUDGE!;
#X obj 157 193 r NUDGE-RANGE;
#X obj 247 308 inlet;
#X obj 232 397 outlet;
#X obj 124 96 spigot;
#X obj 185 79 r parameters2-s;
#X connect 0 0 4 0;
#X connect 1 0 2 0;
#X connect 2 0 14 0;
#X connect 3 0 7 0;
#X connect 4 0 6 0;
#X connect 5 0 2 0;
#X connect 5 1 2 1;
#X connect 6 0 5 0;
#X connect 7 0 8 0;
#X connect 7 1 9 0;
#X connect 8 0 6 1;
#X connect 9 0 6 1;
#X connect 10 0 0 0;
#X connect 10 1 1 0;
#X connect 10 2 3 0;
#X connect 11 0 15 0;
#X connect 12 0 0 1;
#X connect 13 0 1 1;
#X connect 15 0 10 0;
#X connect 16 0 15 1;
#X restore 280 41 pd nudge-parameters;
#X obj 280 19 r \$0-dly1-fb-s;
#X obj 280 92 s \$0-dly1-fb-r;
#X obj 415 21 r \$0-dly1-level-s;
#X obj 415 94 s \$0-dly1-level-r;
#X obj 24 174 clip 0 127;
#N canvas 0 23 484 497 nudge-parameters 0;
#X obj 124 234 random;
#X obj 232 335 f;
#X obj 232 368 +;
#X obj 257 166 random 2;
#X obj 124 275 t f f;
#X obj 124 351 t b f;
#X obj 124 297 *;
#X obj 257 188 sel 0 1;
#X msg 257 280 -1;
#X msg 335 280 1;
#X obj 124 149 t b b b;
#X obj 124 74 r NUDGE!;
#X obj 157 193 r NUDGE-RANGE;
#X obj 247 308 inlet;
#X obj 232 397 outlet;
#X obj 124 96 spigot;
#X obj 185 79 r parameters2-s;
#X connect 0 0 4 0;
#X connect 1 0 2 0;
#X connect 2 0 14 0;
#X connect 3 0 7 0;
#X connect 4 0 6 0;
#X connect 5 0 2 0;
#X connect 5 1 2 1;
#X connect 6 0 5 0;
#X connect 7 0 8 0;
#X connect 7 1 9 0;
#X connect 8 0 6 1;
#X connect 9 0 6 1;
#X connect 10 0 0 0;
#X connect 10 1 1 0;
#X connect 10 2 3 0;
#X connect 11 0 15 0;
#X connect 12 0 0 1;
#X connect 13 0 1 1;
#X connect 15 0 10 0;
#X connect 16 0 15 1;
#X restore 24 151 pd nudge-parameters;
#X obj 416 173 clip 0 127;
#N canvas 0 23 484 497 nudge-parameters 0;
#X obj 124 234 random;
#X obj 232 335 f;
#X obj 232 368 +;
#X obj 257 166 random 2;
#X obj 124 275 t f f;
#X obj 124 351 t b f;
#X obj 124 297 *;
#X obj 257 188 sel 0 1;
#X msg 257 280 -1;
#X msg 335 280 1;
#X obj 124 149 t b b b;
#X obj 124 74 r NUDGE!;
#X obj 157 193 r NUDGE-RANGE;
#X obj 247 308 inlet;
#X obj 232 397 outlet;
#X obj 124 96 spigot;
#X obj 185 79 r parameters2-s;
#X connect 0 0 4 0;
#X connect 1 0 2 0;
#X connect 2 0 14 0;
#X connect 3 0 7 0;
#X connect 4 0 6 0;
#X connect 5 0 2 0;
#X connect 5 1 2 1;
#X connect 6 0 5 0;
#X connect 7 0 8 0;
#X connect 7 1 9 0;
#X connect 8 0 6 1;
#X connect 9 0 6 1;
#X connect 10 0 0 0;
#X connect 10 1 1 0;
#X connect 10 2 3 0;
#X connect 11 0 15 0;
#X connect 12 0 0 1;
#X connect 13 0 1 1;
#X connect 15 0 10 0;
#X connect 16 0 15 1;
#X restore 416 150 pd nudge-parameters;
#X obj 164 174 clip 0 127;
#N canvas 0 22 484 497 nudge-freq 0;
#X obj 124 234 random;
#X obj 232 335 f;
#X obj 232 368 +;
#X obj 257 166 random 2;
#X obj 124 275 t f f;
#X obj 124 351 t b f;
#X obj 124 297 *;
#X obj 257 188 sel 0 1;
#X msg 257 280 -1;
#X msg 335 280 1;
#X obj 124 149 t b b b;
#X obj 124 51 r NUDGE!;
#X obj 157 193 r NUDGE-RANGE;
#X obj 247 308 inlet;
#X obj 232 397 outlet;
#X obj 124 73 spigot;
#X obj 185 56 r frequencies2-s;
#X connect 0 0 4 0;
#X connect 1 0 2 0;
#X connect 2 0 14 0;
#X connect 3 0 7 0;
#X connect 4 0 6 0;
#X connect 5 0 2 0;
#X connect 5 1 2 1;
#X connect 6 0 5 0;
#X connect 7 0 8 0;
#X connect 7 1 9 0;
#X connect 8 0 6 1;
#X connect 9 0 6 1;
#X connect 10 0 0 0;
#X connect 10 1 1 0;
#X connect 10 2 3 0;
#X connect 11 0 15 0;
#X connect 12 0 0 1;
#X connect 13 0 1 1;
#X connect 15 0 10 0;
#X connect 16 0 15 1;
#X restore 164 152 pd nudge-freq;
#X obj 281 171 clip 0 127;
#N canvas 0 23 484 497 nudge-parameters 0;
#X obj 124 234 random;
#X obj 232 335 f;
#X obj 232 368 +;
#X obj 257 166 random 2;
#X obj 124 275 t f f;
#X obj 124 351 t b f;
#X obj 124 297 *;
#X obj 257 188 sel 0 1;
#X msg 257 280 -1;
#X msg 335 280 1;
#X obj 124 149 t b b b;
#X obj 124 74 r NUDGE!;
#X obj 157 193 r NUDGE-RANGE;
#X obj 247 308 inlet;
#X obj 232 397 outlet;
#X obj 124 96 spigot;
#X obj 185 79 r parameters2-s;
#X connect 0 0 4 0;
#X connect 1 0 2 0;
#X connect 2 0 14 0;
#X connect 3 0 7 0;
#X connect 4 0 6 0;
#X connect 5 0 2 0;
#X connect 5 1 2 1;
#X connect 6 0 5 0;
#X connect 7 0 8 0;
#X connect 7 1 9 0;
#X connect 8 0 6 1;
#X connect 9 0 6 1;
#X connect 10 0 0 0;
#X connect 10 1 1 0;
#X connect 10 2 3 0;
#X connect 11 0 15 0;
#X connect 12 0 0 1;
#X connect 13 0 1 1;
#X connect 15 0 10 0;
#X connect 16 0 15 1;
#X restore 281 148 pd nudge-parameters;
#X obj 24 129 r \$0-gt-delay2-s;
#X obj 24 202 s \$0-gt-delay2-r;
#X obj 164 126 r \$0-gt-pitch2-s;
#X obj 164 206 s \$0-gt-pitch2-r;
#X obj 281 126 r \$0-dly1-fb2-s;
#X obj 281 199 s \$0-dly1-fb2-r;
#X obj 416 128 r \$0-dly2-level-s;
#X obj 416 201 s \$0-dly2-level-r;
#X obj 25 280 clip 0 127;
#N canvas 0 23 484 497 nudge-parameters 0;
#X obj 124 234 random;
#X obj 232 335 f;
#X obj 232 368 +;
#X obj 257 166 random 2;
#X obj 124 275 t f f;
#X obj 124 351 t b f;
#X obj 124 297 *;
#X obj 257 188 sel 0 1;
#X msg 257 280 -1;
#X msg 335 280 1;
#X obj 124 149 t b b b;
#X obj 124 74 r NUDGE!;
#X obj 157 193 r NUDGE-RANGE;
#X obj 247 308 inlet;
#X obj 232 397 outlet;
#X obj 124 96 spigot;
#X obj 185 79 r parameters2-s;
#X connect 0 0 4 0;
#X connect 1 0 2 0;
#X connect 2 0 14 0;
#X connect 3 0 7 0;
#X connect 4 0 6 0;
#X connect 5 0 2 0;
#X connect 5 1 2 1;
#X connect 6 0 5 0;
#X connect 7 0 8 0;
#X connect 7 1 9 0;
#X connect 8 0 6 1;
#X connect 9 0 6 1;
#X connect 10 0 0 0;
#X connect 10 1 1 0;
#X connect 10 2 3 0;
#X connect 11 0 15 0;
#X connect 12 0 0 1;
#X connect 13 0 1 1;
#X connect 15 0 10 0;
#X connect 16 0 15 1;
#X restore 25 257 pd nudge-parameters;
#X obj 322 282 clip 0 127;
#N canvas 0 23 484 497 nudge-parameters 0;
#X obj 124 234 random;
#X obj 232 335 f;
#X obj 232 368 +;
#X obj 257 166 random 2;
#X obj 124 275 t f f;
#X obj 124 351 t b f;
#X obj 124 297 *;
#X obj 257 188 sel 0 1;
#X msg 257 280 -1;
#X msg 335 280 1;
#X obj 124 149 t b b b;
#X obj 124 74 r NUDGE!;
#X obj 157 193 r NUDGE-RANGE;
#X obj 247 308 inlet;
#X obj 232 397 outlet;
#X obj 124 96 spigot;
#X obj 185 79 r parameters2-s;
#X connect 0 0 4 0;
#X connect 1 0 2 0;
#X connect 2 0 14 0;
#X connect 3 0 7 0;
#X connect 4 0 6 0;
#X connect 5 0 2 0;
#X connect 5 1 2 1;
#X connect 6 0 5 0;
#X connect 7 0 8 0;
#X connect 7 1 9 0;
#X connect 8 0 6 1;
#X connect 9 0 6 1;
#X connect 10 0 0 0;
#X connect 10 1 1 0;
#X connect 10 2 3 0;
#X connect 11 0 15 0;
#X connect 12 0 0 1;
#X connect 13 0 1 1;
#X connect 15 0 10 0;
#X connect 16 0 15 1;
#X restore 322 256 pd nudge-parameters;
#X obj 25 235 r \$0-gt-rev-delay-s;
#X obj 25 308 s \$0-gt-rev-delay-r;
#X obj 160 278 clip 0 127;
#N canvas 0 23 484 497 nudge-parameters 0;
#X obj 124 234 random;
#X obj 232 335 f;
#X obj 232 368 +;
#X obj 257 166 random 2;
#X obj 124 275 t f f;
#X obj 124 351 t b f;
#X obj 124 297 *;
#X obj 257 188 sel 0 1;
#X msg 257 280 -1;
#X msg 335 280 1;
#X obj 124 149 t b b b;
#X obj 124 74 r NUDGE!;
#X obj 157 193 r NUDGE-RANGE;
#X obj 247 308 inlet;
#X obj 232 397 outlet;
#X obj 124 96 spigot;
#X obj 185 79 r parameters2-s;
#X connect 0 0 4 0;
#X connect 1 0 2 0;
#X connect 2 0 14 0;
#X connect 3 0 7 0;
#X connect 4 0 6 0;
#X connect 5 0 2 0;
#X connect 5 1 2 1;
#X connect 6 0 5 0;
#X connect 7 0 8 0;
#X connect 7 1 9 0;
#X connect 8 0 6 1;
#X connect 9 0 6 1;
#X connect 10 0 0 0;
#X connect 10 1 1 0;
#X connect 10 2 3 0;
#X connect 11 0 15 0;
#X connect 12 0 0 1;
#X connect 13 0 1 1;
#X connect 15 0 10 0;
#X connect 16 0 15 1;
#X restore 160 255 pd nudge-parameters;
#X obj 160 233 r \$0-gt-rev-feedback-s;
#X obj 160 306 s \$0-gt-rev-feedback-r;
#X obj 322 234 r \$0-gt-rev-revmix-s;
#X obj 322 307 s \$0-gt-rev-revmix-r;
#X obj 23 395 clip 0 127;
#N canvas 0 23 484 497 nudge-parameters 0;
#X obj 124 234 random;
#X obj 232 335 f;
#X obj 232 368 +;
#X obj 257 166 random 2;
#X obj 124 275 t f f;
#X obj 124 351 t b f;
#X obj 124 297 *;
#X obj 257 188 sel 0 1;
#X msg 257 280 -1;
#X msg 335 280 1;
#X obj 124 149 t b b b;
#X obj 124 74 r NUDGE!;
#X obj 157 193 r NUDGE-RANGE;
#X obj 247 308 inlet;
#X obj 232 397 outlet;
#X obj 124 96 spigot;
#X obj 185 79 r parameters2-s;
#X connect 0 0 4 0;
#X connect 1 0 2 0;
#X connect 2 0 14 0;
#X connect 3 0 7 0;
#X connect 4 0 6 0;
#X connect 5 0 2 0;
#X connect 5 1 2 1;
#X connect 6 0 5 0;
#X connect 7 0 8 0;
#X connect 7 1 9 0;
#X connect 8 0 6 1;
#X connect 9 0 6 1;
#X connect 10 0 0 0;
#X connect 10 1 1 0;
#X connect 10 2 3 0;
#X connect 11 0 15 0;
#X connect 12 0 0 1;
#X connect 13 0 1 1;
#X connect 15 0 10 0;
#X connect 16 0 15 1;
#X restore 23 372 pd nudge-parameters;
#X obj 298 397 clip 0 127;
#N canvas 0 23 484 497 nudge-parameters 0;
#X obj 124 234 random;
#X obj 232 335 f;
#X obj 232 368 +;
#X obj 257 166 random 2;
#X obj 124 275 t f f;
#X obj 124 351 t b f;
#X obj 124 297 *;
#X obj 257 188 sel 0 1;
#X msg 257 280 -1;
#X msg 335 280 1;
#X obj 124 149 t b b b;
#X obj 124 74 r NUDGE!;
#X obj 157 193 r NUDGE-RANGE;
#X obj 247 308 inlet;
#X obj 232 397 outlet;
#X obj 124 96 spigot;
#X obj 185 79 r parameters2-s;
#X connect 0 0 4 0;
#X connect 1 0 2 0;
#X connect 2 0 14 0;
#X connect 3 0 7 0;
#X connect 4 0 6 0;
#X connect 5 0 2 0;
#X connect 5 1 2 1;
#X connect 6 0 5 0;
#X connect 7 0 8 0;
#X connect 7 1 9 0;
#X connect 8 0 6 1;
#X connect 9 0 6 1;
#X connect 10 0 0 0;
#X connect 10 1 1 0;
#X connect 10 2 3 0;
#X connect 11 0 15 0;
#X connect 12 0 0 1;
#X connect 13 0 1 1;
#X connect 15 0 10 0;
#X connect 16 0 15 1;
#X restore 298 371 pd nudge-parameters;
#X obj 158 393 clip 0 127;
#N canvas 0 23 484 497 nudge-parameters 0;
#X obj 124 234 random;
#X obj 232 335 f;
#X obj 232 368 +;
#X obj 257 166 random 2;
#X obj 124 275 t f f;
#X obj 124 351 t b f;
#X obj 124 297 *;
#X obj 257 188 sel 0 1;
#X msg 257 280 -1;
#X msg 335 280 1;
#X obj 124 149 t b b b;
#X obj 124 74 r NUDGE!;
#X obj 157 193 r NUDGE-RANGE;
#X obj 247 308 inlet;
#X obj 232 397 outlet;
#X obj 124 96 spigot;
#X obj 185 79 r parameters2-s;
#X connect 0 0 4 0;
#X connect 1 0 2 0;
#X connect 2 0 14 0;
#X connect 3 0 7 0;
#X connect 4 0 6 0;
#X connect 5 0 2 0;
#X connect 5 1 2 1;
#X connect 6 0 5 0;
#X connect 7 0 8 0;
#X connect 7 1 9 0;
#X connect 8 0 6 1;
#X connect 9 0 6 1;
#X connect 10 0 0 0;
#X connect 10 1 1 0;
#X connect 10 2 3 0;
#X connect 11 0 15 0;
#X connect 12 0 0 1;
#X connect 13 0 1 1;
#X connect 15 0 10 0;
#X connect 16 0 15 1;
#X restore 158 370 pd nudge-parameters;
#X obj 434 397 clip 0 127;
#N canvas 0 23 484 497 nudge-parameters 0;
#X obj 124 234 random;
#X obj 232 335 f;
#X obj 232 368 +;
#X obj 257 166 random 2;
#X obj 124 275 t f f;
#X obj 124 351 t b f;
#X obj 124 297 *;
#X obj 257 188 sel 0 1;
#X msg 257 280 -1;
#X msg 335 280 1;
#X obj 124 149 t b b b;
#X obj 124 74 r NUDGE!;
#X obj 157 193 r NUDGE-RANGE;
#X obj 247 308 inlet;
#X obj 232 397 outlet;
#X obj 124 96 spigot;
#X obj 185 79 r parameters2-s;
#X connect 0 0 4 0;
#X connect 1 0 2 0;
#X connect 2 0 14 0;
#X connect 3 0 7 0;
#X connect 4 0 6 0;
#X connect 5 0 2 0;
#X connect 5 1 2 1;
#X connect 6 0 5 0;
#X connect 7 0 8 0;
#X connect 7 1 9 0;
#X connect 8 0 6 1;
#X connect 9 0 6 1;
#X connect 10 0 0 0;
#X connect 10 1 1 0;
#X connect 10 2 3 0;
#X connect 11 0 15 0;
#X connect 12 0 0 1;
#X connect 13 0 1 1;
#X connect 15 0 10 0;
#X connect 16 0 15 1;
#X restore 434 371 pd nudge-parameters;
#X obj 23 350 r \$0-gt-lofi-output-s;
#X obj 23 423 s \$0-gt-lofi-output-r;
#X obj 158 348 r \$0-gt-output-mix-s;
#X obj 158 421 s \$0-gt-output-mix-r;
#X obj 298 349 r \$0-gt-roomsize-s;
#X obj 298 422 s \$0-gt-roomsize-r;
#X obj 434 349 r \$0-gt-ambience-s;
#X obj 434 422 s \$0-gt-ambience-r;
#X obj 28 455 r \$0-gt-dry/wet-s;
#X obj 28 528 s \$0-gt-dry/wet-r;
#X connect 0 0 6 0;
#X connect 1 0 63 0;
#X connect 2 0 0 0;
#X connect 3 0 1 0;
#X connect 4 0 17 0;
#X connect 5 0 4 0;
#X connect 7 0 11 0;
#X connect 8 0 7 0;
#X connect 9 0 2 0;
#X connect 10 0 8 0;
#X connect 12 0 15 0;
#X connect 13 0 12 0;
#X connect 14 0 13 0;
#X connect 16 0 5 0;
#X connect 18 0 27 0;
#X connect 19 0 18 0;
#X connect 20 0 33 0;
#X connect 21 0 20 0;
#X connect 22 0 29 0;
#X connect 23 0 22 0;
#X connect 24 0 31 0;
#X connect 25 0 24 0;
#X connect 26 0 19 0;
#X connect 28 0 23 0;
#X connect 30 0 25 0;
#X connect 32 0 21 0;
#X connect 34 0 39 0;
#X connect 35 0 34 0;
#X connect 36 0 45 0;
#X connect 37 0 36 0;
#X connect 38 0 35 0;
#X connect 40 0 43 0;
#X connect 41 0 40 0;
#X connect 42 0 41 0;
#X connect 44 0 37 0;
#X connect 46 0 55 0;
#X connect 47 0 46 0;
#X connect 48 0 59 0;
#X connect 49 0 48 0;
#X connect 50 0 57 0;
#X connect 51 0 50 0;
#X connect 52 0 61 0;
#X connect 53 0 52 0;
#X connect 54 0 47 0;
#X connect 56 0 51 0;
#X connect 58 0 49 0;
#X connect 60 0 53 0;
#X connect 62 0 3 0;
#X restore 1039 121 pd parameter-nudging-system;
#N canvas 23 24 1417 806 external-messages 0;
#X floatatom -205 782 5 0 0 0 - - -, f 5;
#X obj 33 335 spigot;
#X obj 66 295 tgl 15 0 empty empty empty 17 7 0 10 -262144 -1 -1 0
1;
#X obj 102 279 ==;
#X obj 117 255 f \$1;
#X obj 117 231 loadbang;
#X msg 33 209 \$1 \$2;
#X msg 33 163 symbol \$1;
#X obj 33 187 pack s f;
#X obj -205 761 f;
#X obj -205 709 t b f;
#X obj -205 732 spigot;
#X obj 33 69 unpack s f f;
#X symbolatom 33 101 10 0 0 0 - - -, f 10;
#X obj 66 315 t f f;
#X obj 93 339 s \$0-msg-spigot;
#X obj -157 716 r \$0-msg-spigot;
#X floatatom -181 663 5 0 0 0 - - -, f 5;
#X obj -181 642 f;
#X obj -181 590 t b f;
#X obj -181 613 spigot;
#X obj -133 597 r \$0-msg-spigot;
#X floatatom -82 817 5 0 0 0 - - -, f 5;
#X obj -82 796 f;
#X obj -82 744 t b f;
#X obj -82 767 spigot;
#X obj -34 751 r \$0-msg-spigot;
#X obj 33 21 r starlight;
#X obj -205 802 s \$0-gt-delay-r;
#X obj -181 683 s \$0-gt-pitch-r;
#X obj -82 837 s \$0-dly1-fb-r;
#X floatatom -46 705 5 0 0 0 - - -, f 5;
#X obj -46 684 f;
#X obj -46 632 t b f;
#X obj -46 655 spigot;
#X obj 2 639 r \$0-msg-spigot;
#X obj -46 725 s \$0-dly1-level-r;
#X floatatom 112 802 5 0 0 0 - - -, f 5;
#X obj 112 781 f;
#X obj 112 729 t b f;
#X obj 112 752 spigot;
#X obj 160 736 r \$0-msg-spigot;
#X floatatom 162 689 5 0 0 0 - - -, f 5;
#X obj 162 668 f;
#X obj 162 616 t b f;
#X obj 162 639 spigot;
#X obj 210 623 r \$0-msg-spigot;
#X floatatom 280 803 5 0 0 0 - - -, f 5;
#X obj 280 782 f;
#X obj 280 730 t b f;
#X obj 280 753 spigot;
#X obj 328 737 r \$0-msg-spigot;
#X floatatom 330 690 5 0 0 0 - - -, f 5;
#X obj 330 669 f;
#X obj 330 617 t b f;
#X obj 330 640 spigot;
#X obj 378 624 r \$0-msg-spigot;
#X obj 112 822 s \$0-gt-delay2-r;
#X obj 162 709 s \$0-gt-pitch2-r;
#X obj 280 823 s \$0-dly1-fb2-r;
#X obj 330 710 s \$0-dly2-level-r;
#X floatatom 465 809 5 0 0 0 - - -, f 5;
#X obj 465 788 f;
#X obj 465 736 t b f;
#X obj 465 759 spigot;
#X obj 513 743 r \$0-msg-spigot;
#X floatatom 515 696 5 0 0 0 - - -, f 5;
#X obj 515 675 f;
#X obj 515 623 t b f;
#X obj 515 646 spigot;
#X obj 563 630 r \$0-msg-spigot;
#X floatatom 556 568 5 0 0 0 - - -, f 5;
#X obj 556 547 f;
#X obj 556 495 t b f;
#X obj 556 518 spigot;
#X obj 604 502 r \$0-msg-spigot;
#X obj 465 829 s \$0-gt-rev-delay-r;
#X obj 515 716 s \$0-gt-rev-feedback-r;
#X obj 556 588 s \$0-gt-rev-revmix-r;
#X floatatom 406 522 5 0 0 0 - - -, f 5;
#X obj 406 501 f;
#X obj 406 449 t b f;
#X obj 406 472 spigot;
#X obj 454 456 r \$0-msg-spigot;
#X floatatom 456 409 5 0 0 0 - - -, f 5;
#X obj 456 388 f;
#X obj 456 336 t b f;
#X obj 456 359 spigot;
#X obj 504 343 r \$0-msg-spigot;
#X floatatom 497 281 5 0 0 0 - - -, f 5;
#X obj 497 260 f;
#X obj 497 208 t b f;
#X obj 497 231 spigot;
#X obj 545 215 r \$0-msg-spigot;
#X floatatom 577 160 5 0 0 0 - - -, f 5;
#X obj 577 139 f;
#X obj 577 87 t b f;
#X obj 577 110 spigot;
#X obj 625 94 r \$0-msg-spigot;
#X obj 406 542 s \$0-gt-lofi-output-r;
#X obj 456 429 s \$0-gt-output-mix-r;
#X obj 497 301 s \$0-gt-roomsize-r;
#X obj 577 180 s \$0-gt-ambience-r;
#X obj 35 364 route DELAY1 PITCH1 FEEDBACK1 DLY1-MIX DELAY2 PITCH2
FEEDBACK2 DLY2-MIX REVDLY FEEDBACK REVERSE-MIX LOFI-FREQ LOFI-MIX ROOMSIZE
REVERB-MIX DRY/WET;
#X floatatom 739 349 5 0 0 0 - - -, f 5;
#X obj 739 328 f;
#X obj 739 276 t b f;
#X obj 739 299 spigot;
#X obj 787 283 r \$0-msg-spigot;
#X obj 739 369 s \$0-gt-dry/wet-r;
#X connect 0 0 28 0;
#X connect 1 0 103 0;
#X connect 2 0 14 0;
#X connect 3 0 2 0;
#X connect 4 0 3 1;
#X connect 5 0 4 0;
#X connect 6 0 1 0;
#X connect 7 0 8 0;
#X connect 8 0 6 0;
#X connect 9 0 0 0;
#X connect 10 0 11 0;
#X connect 10 1 9 1;
#X connect 11 0 9 0;
#X connect 12 0 13 0;
#X connect 12 1 8 1;
#X connect 12 2 3 0;
#X connect 13 0 7 0;
#X connect 14 0 1 1;
#X connect 14 1 15 0;
#X connect 16 0 11 1;
#X connect 17 0 29 0;
#X connect 18 0 17 0;
#X connect 19 0 20 0;
#X connect 19 1 18 1;
#X connect 20 0 18 0;
#X connect 21 0 20 1;
#X connect 22 0 30 0;
#X connect 23 0 22 0;
#X connect 24 0 25 0;
#X connect 24 1 23 1;
#X connect 25 0 23 0;
#X connect 26 0 25 1;
#X connect 27 0 12 0;
#X connect 31 0 36 0;
#X connect 32 0 31 0;
#X connect 33 0 34 0;
#X connect 33 1 32 1;
#X connect 34 0 32 0;
#X connect 35 0 34 1;
#X connect 37 0 57 0;
#X connect 38 0 37 0;
#X connect 39 0 40 0;
#X connect 39 1 38 1;
#X connect 40 0 38 0;
#X connect 41 0 40 1;
#X connect 42 0 58 0;
#X connect 43 0 42 0;
#X connect 44 0 45 0;
#X connect 44 1 43 1;
#X connect 45 0 43 0;
#X connect 46 0 45 1;
#X connect 47 0 59 0;
#X connect 48 0 47 0;
#X connect 49 0 50 0;
#X connect 49 1 48 1;
#X connect 50 0 48 0;
#X connect 51 0 50 1;
#X connect 52 0 60 0;
#X connect 53 0 52 0;
#X connect 54 0 55 0;
#X connect 54 1 53 1;
#X connect 55 0 53 0;
#X connect 56 0 55 1;
#X connect 61 0 76 0;
#X connect 62 0 61 0;
#X connect 63 0 64 0;
#X connect 63 1 62 1;
#X connect 64 0 62 0;
#X connect 65 0 64 1;
#X connect 66 0 77 0;
#X connect 67 0 66 0;
#X connect 68 0 69 0;
#X connect 68 1 67 1;
#X connect 69 0 67 0;
#X connect 70 0 69 1;
#X connect 71 0 78 0;
#X connect 72 0 71 0;
#X connect 73 0 74 0;
#X connect 73 1 72 1;
#X connect 74 0 72 0;
#X connect 75 0 74 1;
#X connect 79 0 99 0;
#X connect 80 0 79 0;
#X connect 81 0 82 0;
#X connect 81 1 80 1;
#X connect 82 0 80 0;
#X connect 83 0 82 1;
#X connect 84 0 100 0;
#X connect 85 0 84 0;
#X connect 86 0 87 0;
#X connect 86 1 85 1;
#X connect 87 0 85 0;
#X connect 88 0 87 1;
#X connect 89 0 101 0;
#X connect 90 0 89 0;
#X connect 91 0 92 0;
#X connect 91 1 90 1;
#X connect 92 0 90 0;
#X connect 93 0 92 1;
#X connect 94 0 102 0;
#X connect 95 0 94 0;
#X connect 96 0 97 0;
#X connect 96 1 95 1;
#X connect 97 0 95 0;
#X connect 98 0 97 1;
#X connect 103 0 10 0;
#X connect 103 1 19 0;
#X connect 103 2 24 0;
#X connect 103 3 33 0;
#X connect 103 4 39 0;
#X connect 103 5 44 0;
#X connect 103 6 49 0;
#X connect 103 7 54 0;
#X connect 103 8 63 0;
#X connect 103 9 68 0;
#X connect 103 10 73 0;
#X connect 103 11 81 0;
#X connect 103 12 86 0;
#X connect 103 13 91 0;
#X connect 103 14 96 0;
#X connect 103 15 106 0;
#X connect 104 0 109 0;
#X connect 105 0 104 0;
#X connect 106 0 107 0;
#X connect 106 1 105 1;
#X connect 107 0 105 0;
#X connect 108 0 107 1;
#X restore 1038 288 pd external-messages;
#X msg 187 566 label REVDLY(\$1)ms;
#X obj 503 549 clip~ 0 1;
#X obj 502 499 line~;
#X obj 502 522 +~;
#X obj 621 589 scope;
#X obj 632 417 r~ \$0-D/W-CV;
#X obj 632 438 *~ -1;
#X obj 632 459 +~ 1;
#X obj 751 493 clip~ 0 1;
#X obj 751 435 line~;
#X obj 751 456 +~;
#X connect 4 0 26 0;
#X connect 4 0 57 0;
#X connect 11 0 12 0;
#X connect 12 0 15 0;
#X connect 14 0 11 0;
#X connect 15 0 13 0;
#X connect 22 0 24 0;
#X connect 22 1 25 0;
#X connect 23 0 29 0;
#X connect 23 1 30 0;
#X connect 27 0 22 0;
#X connect 28 0 23 0;
#X connect 31 0 32 0;
#X connect 32 0 34 0;
#X connect 33 0 31 0;
#X connect 34 0 35 0;
#X connect 36 0 38 0;
#X connect 36 1 39 0;
#X connect 37 0 36 0;
#X connect 43 0 44 0;
#X connect 44 0 45 0;
#X connect 45 0 121 0;
#X connect 49 0 51 0;
#X connect 50 0 51 1;
#X connect 51 0 53 0;
#X connect 51 1 53 1;
#X connect 53 0 65 0;
#X connect 53 1 66 0;
#X connect 56 0 60 0;
#X connect 58 0 59 0;
#X connect 59 0 7 0;
#X connect 59 0 8 0;
#X connect 60 0 61 0;
#X connect 61 0 62 0;
#X connect 62 0 63 0;
#X connect 63 0 64 0;
#X connect 64 0 130 0;
#X connect 65 0 7 0;
#X connect 66 0 8 0;
#X connect 67 0 68 0;
#X connect 68 0 69 0;
#X connect 69 0 123 0;
#X connect 70 0 71 0;
#X connect 71 0 76 0;
#X connect 72 0 73 0;
#X connect 73 0 74 0;
#X connect 74 0 71 1;
#X connect 75 0 72 0;
#X connect 76 0 51 0;
#X connect 76 0 51 1;
#X connect 77 0 80 0;
#X connect 78 0 81 0;
#X connect 79 0 83 0;
#X connect 80 0 82 0;
#X connect 81 0 80 0;
#X connect 81 1 80 1;
#X connect 82 0 84 0;
#X connect 83 0 82 0;
#X connect 83 1 82 1;
#X connect 84 0 85 0;
#X connect 85 0 86 0;
#X connect 86 0 87 0;
#X connect 87 0 88 0;
#X connect 88 0 76 1;
#X connect 114 0 116 0;
#X connect 116 0 117 0;
#X connect 117 0 115 0;
#X connect 121 0 46 0;
#X connect 122 0 66 1;
#X connect 122 0 65 1;
#X connect 123 0 124 0;
#X connect 124 0 122 0;
#X connect 126 0 124 1;
#X connect 126 0 127 0;
#X connect 127 0 128 0;
#X connect 129 0 59 1;
#X connect 130 0 131 0;
#X connect 131 0 129 0;
#X coords 0 -1 1 1 480 250 2 100 100;
