#N canvas 0 23 1127 694 10;
#X obj 106 128 hsl 128 15 0 127 0 1 \$0-stereo-delay-rate-left-s \$0-stereo-delay-rate-left-r
RATE-LEFT 133 7 0 10 -262144 -1 -1 8400 1;
#X obj 106 158 hsl 128 15 0 127 0 1 \$0-stereo-delay-feedback-s \$0-stereo-delay-feedback-r
FEEDBACK 133 7 0 10 -262144 -1 -1 6000 1;
#X obj 438 16 inlet~;
#X obj 438 506 *~ -1;
#X obj 81 486 *~;
#X obj 438 482 *~;
#X obj 106 187 hsl 128 15 0 127 0 1 \$0-stereo-delay-dry/wet-s \$0-stereo-delay-dry/wet-r
DRY/WET 133 7 0 10 -262144 -1 -1 4800 1;
#X obj 96 276 t f f;
#X msg 96 298 127 \$1;
#X obj 96 320 -;
#X obj 96 342 / 127;
#X obj 96 364 pack 0 50;
#X obj 96 386 line~;
#X obj 248 421 / 127;
#X obj 248 443 pack 0 50;
#X obj 248 465 line~;
#X obj 81 516 hip~ 5;
#X obj 439 534 min~ 1;
#X obj 439 556 max~ -1;
#X obj 439 643 outlet~;
#X obj 140 108 cnv 5 5 5 empty empty RATE-L 0 0 0 8 -262144 -66577
0;
#X obj 103 121 cnv 5 5 5 empty empty STEREO-DELAY 0 0 0 12 -262144
-66577 0;
#X obj 102 108 cnv 5 5 5 empty empty IN 0 0 0 8 -262144 -66577 0;
#N canvas 315 35 593 735 state-saving-multiple-instances 0;
#X obj 137 29 loadbang;
#X obj 184 452 textfile;
#X msg 466 435 rewind;
#X msg 423 435 bang;
#X obj 42 691 textfile;
#X obj 423 396 t b b;
#X obj 43 357 f;
#X obj 56 580 f;
#X obj -16 401 t b b b;
#X msg 119 580 clear;
#X obj 204 217 outlet;
#X text 246 221 INSTANCE NUMBER;
#X obj 165 153 f \$1;
#X obj 165 189 t f f f;
#X obj 138 62 t b b;
#X obj -16 378 bng 15 250 50 0 empty empty empty 17 7 0 10 -262144
-1 -1;
#X obj -16 234 r SAVE-S;
#X msg 55 651 write statesave/\$1-stereo-delay-ss.txt;
#X msg 184 427 read statesave/\$1-stereo-delay-ss.txt;
#X obj 43 400 pack f f f f f;
#X obj 184 474 unpack f f f f f;
#X obj 58 254 r \$0-stereo-delay-rate-left-s;
#X obj 184 627 s \$0-stereo-delay-rate-left-r;
#X obj 66 277 r \$0-stereo-delay-rate-right-s;
#X obj 205 603 s \$0-stereo-delay-rate-right-r;
#X obj 80 298 r \$0-stereo-delay-feedback-s;
#X obj 226 579 s \$0-stereo-delay-feedback-r;
#X obj 98 323 r \$0-stereo-delay-lowpass-s;
#X obj 247 555 s \$0-stereo-delay-lowpass-r;
#X obj 118 348 r \$0-stereo-delay-dry/wet-s;
#X obj 275 529 s \$0-stereo-delay-dry/wet-r;
#X msg 43 438 set \$1 \$2 \$3 \$4 \$5;
#X connect 0 0 14 0;
#X connect 1 0 20 0;
#X connect 2 0 1 0;
#X connect 3 0 1 0;
#X connect 5 0 3 0;
#X connect 5 1 2 0;
#X connect 6 0 19 0;
#X connect 7 0 17 0;
#X connect 8 0 7 0;
#X connect 8 1 6 0;
#X connect 8 2 9 0;
#X connect 9 0 4 0;
#X connect 12 0 13 0;
#X connect 13 0 7 1;
#X connect 13 1 18 0;
#X connect 13 2 10 0;
#X connect 14 0 5 0;
#X connect 14 1 12 0;
#X connect 15 0 8 0;
#X connect 16 0 15 0;
#X connect 17 0 4 0;
#X connect 18 0 1 0;
#X connect 19 0 31 0;
#X connect 20 0 22 0;
#X connect 20 1 24 0;
#X connect 20 2 26 0;
#X connect 20 3 28 0;
#X connect 20 4 30 0;
#X connect 21 0 6 1;
#X connect 23 0 19 1;
#X connect 25 0 19 2;
#X connect 27 0 19 3;
#X connect 29 0 19 4;
#X connect 31 0 4 0;
#X restore 839 133 pd state-saving-multiple-instances;
#N canvas 0 22 793 555 delay1 0;
#X obj 195 112 inlet~;
#X obj 365 109 inlet;
#X obj 365 131 / 127;
#X obj 365 197 sig~;
#X obj 365 461 outlet~;
#X obj 456 311 *~;
#X obj 472 113 inlet;
#X obj 472 137 / 127;
#X obj 472 208 pack 0 50;
#X obj 472 230 line~;
#X text 454 96 FEEDBACK;
#X text 365 89 DELAY;
#X text 193 90 SIGNAL IN;
#X obj 472 181 + 0.5;
#X obj 472 159 * 0.48;
#X obj 365 286 vd~ \$0-dly1;
#X obj 365 175 + 10;
#X obj 365 153 * 499;
#X obj 472 282 min~ 0.98;
#X obj 365 219 +~;
#X obj 410 158 inlet~;
#X obj 410 180 *~ 499;
#X obj 410 202 +~ 10;
#X text 415 139 CV IN;
#X obj 472 252 +~;
#X obj 546 235 inlet~;
#X obj 197 465 delwrite~ \$0-dly1 500;
#X obj 365 241 lop~ 1;
#X connect 0 0 26 0;
#X connect 1 0 2 0;
#X connect 2 0 17 0;
#X connect 3 0 19 0;
#X connect 5 0 26 0;
#X connect 6 0 7 0;
#X connect 7 0 14 0;
#X connect 8 0 9 0;
#X connect 9 0 24 0;
#X connect 13 0 8 0;
#X connect 14 0 13 0;
#X connect 15 0 4 0;
#X connect 15 0 5 0;
#X connect 16 0 3 0;
#X connect 17 0 16 0;
#X connect 18 0 5 1;
#X connect 19 0 27 0;
#X connect 20 0 21 0;
#X connect 21 0 22 0;
#X connect 22 0 19 1;
#X connect 24 0 18 0;
#X connect 25 0 24 1;
#X connect 27 0 15 0;
#X restore 438 179 pd delay1;
#X obj 106 143 hsl 128 15 0 127 0 1 \$0-stereo-delay-rate-right-s \$0-stereo-delay-rate-right-r
RATE-RIGHT 133 7 0 10 -262144 -1 -1 8800 1;
#X obj 562 504 *~ -1;
#X obj 562 482 *~;
#X obj 563 532 min~ 1;
#X obj 563 554 max~ -1;
#X obj 563 643 outlet~;
#X obj 188 108 cnv 5 5 5 empty empty RATE-R 0 0 0 8 -262144 -66577
0;
#X obj 234 108 cnv 5 5 5 empty empty FBACK 0 0 0 8 -262144 -66577 0
;
#X obj 105 212 cnv 5 5 5 empty empty LEFT 0 0 0 8 -262144 -66577 0
;
#X obj 272 212 cnv 5 5 5 empty empty RIGHT 0 0 0 8 -262144 -66577 0
;
#X obj 452 44 r \$0-stereo-delay-rate-left-s;
#X obj 476 112 r \$0-stereo-delay-feedback-s;
#X obj 562 430 lop~;
#X obj 562 452 lop~;
#X obj 106 172 hsl 128 15 0 127 0 1 \$0-stereo-delay-lowpass-s \$0-stereo-delay-lowpass-r
LOWPASS 133 7 0 10 -262144 -1 -1 7800 1;
#X obj 803 288 / 127;
#X obj 803 337 * 4950;
#X obj 803 359 + 50;
#X obj 803 381 pack 0 50;
#X obj 803 403 line;
#X obj 803 266 r \$0-stereo-delay-lowpass-s;
#X obj 438 417 lop~;
#X obj 438 439 lop~;
#X obj 803 452 t f f f f;
#X obj 273 108 cnv 5 5 5 empty empty LPASS 0 0 0 8 -262144 -66577 0
;
#X obj 463 85 inlet~;
#X text 460 68 RATE-LEFT CV INPUT;
#X text 657 277 FEEDBACK CV INPUT;
#X obj 600 243 r \$0-stereo-delay-feedback-s;
#X obj 588 216 inlet~;
#X obj 576 175 r \$0-stereo-delay-rate-right-s;
#N canvas 0 22 793 555 delay2 0;
#X obj 195 112 inlet~;
#X obj 365 109 inlet;
#X obj 365 131 / 127;
#X obj 365 197 sig~;
#X obj 365 461 outlet~;
#X obj 456 311 *~;
#X obj 472 113 inlet;
#X obj 472 137 / 127;
#X obj 472 208 pack 0 50;
#X obj 472 230 line~;
#X text 454 96 FEEDBACK;
#X text 365 89 DELAY;
#X text 193 90 SIGNAL IN;
#X obj 472 181 + 0.5;
#X obj 472 159 * 0.48;
#X obj 365 175 + 10;
#X obj 365 153 * 499;
#X obj 472 282 min~ 0.98;
#X obj 365 219 +~;
#X obj 410 158 inlet~;
#X obj 410 180 *~ 499;
#X obj 410 202 +~ 10;
#X text 415 139 CV IN;
#X obj 472 252 +~;
#X obj 546 235 inlet~;
#X obj 365 286 vd~ \$0-dly2;
#X obj 197 465 delwrite~ \$0-dly2 500;
#X obj 365 241 lop~ 1;
#X connect 0 0 26 0;
#X connect 1 0 2 0;
#X connect 2 0 16 0;
#X connect 3 0 18 0;
#X connect 5 0 26 0;
#X connect 6 0 7 0;
#X connect 7 0 14 0;
#X connect 8 0 9 0;
#X connect 9 0 23 0;
#X connect 13 0 8 0;
#X connect 14 0 13 0;
#X connect 15 0 3 0;
#X connect 16 0 15 0;
#X connect 17 0 5 1;
#X connect 18 0 27 0;
#X connect 19 0 20 0;
#X connect 20 0 21 0;
#X connect 21 0 18 1;
#X connect 23 0 17 0;
#X connect 24 0 23 1;
#X connect 25 0 4 0;
#X connect 25 0 5 0;
#X connect 27 0 25 0;
#X restore 562 310 pd delay2;
#X text 585 199 RATE-RIGHT CV INPUT;
#X obj 803 310 +;
#X obj 982 236 inlet~;
#X obj 982 271 snapshot~;
#X obj 982 293 t b f;
#X obj 1026 236 bang~;
#X text 978 218 LPASS CV INPUT;
#X obj 613 278 inlet~;
#X obj 839 207 s \$0-instance-num;
#X obj 839 159 makefilename %d;
#X obj 192 121 cnv 5 5 5 empty \$0-instance-num 1 0 0 0 12 -262144
-66577 0;
#X msg 839 184 label \$1;
#N canvas 81 22 1117 745 state-saving-via-preset-manager-module 0;
#X obj 340 227 textfile;
#X msg 719 210 rewind;
#X msg 676 210 bang;
#X obj 106 568 textfile;
#X obj 676 171 t b b;
#X obj 107 234 f;
#X obj 120 457 f;
#X obj 53 352 t b b b;
#X msg 236 499 clear;
#X obj 107 56 delay 5;
#X obj 53 407 delay 10;
#X msg 53 192 bang;
#X obj 53 26 r STORE-S!;
#X obj 340 128 f;
#X obj 313 85 t b b;
#X obj 328 49 t b f;
#X obj 385 146 f \$1;
#X obj 340 173 pack f f;
#X obj 385 96 loadbang;
#X obj 120 487 pack f f;
#X obj 165 440 loadbang;
#X obj 165 462 f \$1;
#X obj 328 26 r preset-manager-scan;
#X obj 135 418 r preset-manager-store-slot;
#X msg 106 368 set \$1 \$2 \$3 \$4 \$5;
#X obj 107 301 pack f f f f f;
#X obj 340 249 unpack f f f f f;
#X msg 119 528 write statesave/\$1-\$2-stereo-delay-ss.txt;
#X msg 340 202 read statesave/\$1-\$2-stereo-delay-ss.txt;
#X obj 123 78 r \$0-stereo-delay-rate-left-s;
#X obj 345 714 s \$0-stereo-delay-rate-left-r;
#X obj 136 107 r \$0-stereo-delay-rate-right-s;
#X obj 366 616 s \$0-stereo-delay-rate-right-r;
#X obj 146 146 r \$0-stereo-delay-feedback-s;
#X obj 384 517 s \$0-stereo-delay-feedback-r;
#X obj 169 173 r \$0-stereo-delay-lowpass-s;
#X obj 561 697 s \$0-stereo-delay-lowpass-r;
#X obj 183 196 r \$0-stereo-delay-dry/wet-s;
#X obj 616 596 s \$0-stereo-delay-dry/wet-r;
#N canvas 0 22 1069 747 morph-parameters 0;
#X obj 176 94 inlet;
#X obj 176 236 pack f f;
#X obj 176 261 line;
#X obj 209 117 r preset-manager-morph-s;
#X msg 72 244 stop;
#X obj 72 214 r STOP-MORPH!;
#X obj 209 206 spigot;
#X obj 398 137 t f f;
#X obj 455 154 == 0;
#X obj 221 176 f;
#X floatatom 455 222 5 0 0 0 - - -, f 5;
#X obj 398 159 t b f;
#X floatatom 425 192 5 0 0 0 - - -, f 5;
#X obj 209 139 t f f;
#X obj 398 102 r parameters-s;
#X obj 176 288 outlet;
#X connect 0 0 1 0;
#X connect 1 0 2 0;
#X connect 2 0 15 0;
#X connect 3 0 13 0;
#X connect 4 0 2 0;
#X connect 5 0 4 0;
#X connect 6 0 1 1;
#X connect 7 0 11 0;
#X connect 7 1 8 0;
#X connect 8 0 10 0;
#X connect 9 0 6 0;
#X connect 10 0 1 1;
#X connect 11 0 9 0;
#X connect 11 1 12 0;
#X connect 12 0 6 1;
#X connect 13 0 6 0;
#X connect 13 1 9 1;
#X connect 14 0 7 0;
#X restore 384 493 pd morph-parameters;
#N canvas 0 22 1069 747 morph-parameters 0;
#X obj 176 94 inlet;
#X obj 176 236 pack f f;
#X obj 176 261 line;
#X obj 209 117 r preset-manager-morph-s;
#X msg 72 244 stop;
#X obj 72 214 r STOP-MORPH!;
#X obj 209 206 spigot;
#X obj 398 137 t f f;
#X obj 455 154 == 0;
#X obj 221 176 f;
#X floatatom 455 222 5 0 0 0 - - -, f 5;
#X obj 398 159 t b f;
#X floatatom 425 192 5 0 0 0 - - -, f 5;
#X obj 209 139 t f f;
#X obj 398 102 r parameters-s;
#X obj 176 288 outlet;
#X connect 0 0 1 0;
#X connect 1 0 2 0;
#X connect 2 0 15 0;
#X connect 3 0 13 0;
#X connect 4 0 2 0;
#X connect 5 0 4 0;
#X connect 6 0 1 1;
#X connect 7 0 11 0;
#X connect 7 1 8 0;
#X connect 8 0 10 0;
#X connect 9 0 6 0;
#X connect 10 0 1 1;
#X connect 11 0 9 0;
#X connect 11 1 12 0;
#X connect 12 0 6 1;
#X connect 13 0 6 0;
#X connect 13 1 9 1;
#X connect 14 0 7 0;
#X restore 345 684 pd morph-parameters;
#N canvas 0 22 1069 747 morph-parameters 0;
#X obj 176 94 inlet;
#X obj 176 236 pack f f;
#X obj 176 261 line;
#X obj 209 117 r preset-manager-morph-s;
#X msg 72 244 stop;
#X obj 72 214 r STOP-MORPH!;
#X obj 209 206 spigot;
#X obj 398 137 t f f;
#X obj 455 154 == 0;
#X obj 221 176 f;
#X floatatom 455 222 5 0 0 0 - - -, f 5;
#X obj 398 159 t b f;
#X floatatom 425 192 5 0 0 0 - - -, f 5;
#X obj 209 139 t f f;
#X obj 398 102 r parameters-s;
#X obj 176 288 outlet;
#X connect 0 0 1 0;
#X connect 1 0 2 0;
#X connect 2 0 15 0;
#X connect 3 0 13 0;
#X connect 4 0 2 0;
#X connect 5 0 4 0;
#X connect 6 0 1 1;
#X connect 7 0 11 0;
#X connect 7 1 8 0;
#X connect 8 0 10 0;
#X connect 9 0 6 0;
#X connect 10 0 1 1;
#X connect 11 0 9 0;
#X connect 11 1 12 0;
#X connect 12 0 6 1;
#X connect 13 0 6 0;
#X connect 13 1 9 1;
#X connect 14 0 7 0;
#X restore 366 590 pd morph-parameters;
#N canvas 0 22 1069 747 morph-parameters 0;
#X obj 176 94 inlet;
#X obj 176 236 pack f f;
#X obj 176 261 line;
#X obj 209 117 r preset-manager-morph-s;
#X msg 72 244 stop;
#X obj 72 214 r STOP-MORPH!;
#X obj 209 206 spigot;
#X obj 398 137 t f f;
#X obj 455 154 == 0;
#X obj 221 176 f;
#X floatatom 455 222 5 0 0 0 - - -, f 5;
#X obj 398 159 t b f;
#X floatatom 425 192 5 0 0 0 - - -, f 5;
#X obj 209 139 t f f;
#X obj 398 102 r parameters-s;
#X obj 176 288 outlet;
#X connect 0 0 1 0;
#X connect 1 0 2 0;
#X connect 2 0 15 0;
#X connect 3 0 13 0;
#X connect 4 0 2 0;
#X connect 5 0 4 0;
#X connect 6 0 1 1;
#X connect 7 0 11 0;
#X connect 7 1 8 0;
#X connect 8 0 10 0;
#X connect 9 0 6 0;
#X connect 10 0 1 1;
#X connect 11 0 9 0;
#X connect 11 1 12 0;
#X connect 12 0 6 1;
#X connect 13 0 6 0;
#X connect 13 1 9 1;
#X connect 14 0 7 0;
#X restore 561 671 pd morph-parameters;
#N canvas 0 22 1069 747 morph-parameters 0;
#X obj 176 94 inlet;
#X obj 176 236 pack f f;
#X obj 176 261 line;
#X obj 209 117 r preset-manager-morph-s;
#X msg 72 244 stop;
#X obj 72 214 r STOP-MORPH!;
#X obj 209 206 spigot;
#X obj 398 137 t f f;
#X obj 455 154 == 0;
#X obj 221 176 f;
#X floatatom 455 222 5 0 0 0 - - -, f 5;
#X obj 398 159 t b f;
#X floatatom 425 192 5 0 0 0 - - -, f 5;
#X obj 209 139 t f f;
#X obj 398 102 r parameters-s;
#X obj 176 288 outlet;
#X connect 0 0 1 0;
#X connect 1 0 2 0;
#X connect 2 0 15 0;
#X connect 3 0 13 0;
#X connect 4 0 2 0;
#X connect 5 0 4 0;
#X connect 6 0 1 1;
#X connect 7 0 11 0;
#X connect 7 1 8 0;
#X connect 8 0 10 0;
#X connect 9 0 6 0;
#X connect 10 0 1 1;
#X connect 11 0 9 0;
#X connect 11 1 12 0;
#X connect 12 0 6 1;
#X connect 13 0 6 0;
#X connect 13 1 9 1;
#X connect 14 0 7 0;
#X restore 616 570 pd morph-parameters;
#X connect 0 0 26 0;
#X connect 1 0 0 0;
#X connect 2 0 0 0;
#X connect 4 0 2 0;
#X connect 4 1 1 0;
#X connect 5 0 25 0;
#X connect 6 0 19 0;
#X connect 7 0 10 0;
#X connect 7 1 9 0;
#X connect 7 2 8 0;
#X connect 8 0 3 0;
#X connect 9 0 5 0;
#X connect 10 0 6 0;
#X connect 11 0 7 0;
#X connect 12 0 11 0;
#X connect 13 0 17 0;
#X connect 14 0 4 0;
#X connect 14 1 13 0;
#X connect 15 0 14 0;
#X connect 15 1 13 1;
#X connect 16 0 17 1;
#X connect 17 0 28 0;
#X connect 18 0 16 0;
#X connect 19 0 27 0;
#X connect 20 0 21 0;
#X connect 21 0 19 1;
#X connect 22 0 15 0;
#X connect 23 0 6 1;
#X connect 24 0 3 0;
#X connect 25 0 24 0;
#X connect 26 0 40 0;
#X connect 26 1 41 0;
#X connect 26 2 39 0;
#X connect 26 3 42 0;
#X connect 26 4 43 0;
#X connect 27 0 3 0;
#X connect 28 0 0 0;
#X connect 29 0 5 1;
#X connect 31 0 25 1;
#X connect 33 0 25 2;
#X connect 35 0 25 3;
#X connect 37 0 25 4;
#X connect 39 0 34 0;
#X connect 40 0 30 0;
#X connect 41 0 32 0;
#X connect 42 0 36 0;
#X connect 43 0 38 0;
#X restore 839 111 pd state-saving-via-preset-manager-module;
#N canvas 297 27 648 297 parameter-nudging-system 0;
#X obj 21 171 clip 0 127;
#X obj 213 173 clip 0 127;
#X obj 23 67 clip 0 127;
#X obj 214 69 clip 0 127;
#X obj 407 71 clip 0 127;
#X obj 23 22 r \$0-stereo-delay-rate-left-s;
#X obj 23 95 s \$0-stereo-delay-rate-left-r;
#X obj 214 24 r \$0-stereo-delay-rate-right-s;
#X obj 214 97 s \$0-stereo-delay-rate-right-r;
#X obj 407 24 r \$0-stereo-delay-feedback-s;
#X obj 407 97 s \$0-stereo-delay-feedback-r;
#X obj 21 126 r \$0-stereo-delay-lowpass-s;
#X obj 21 198 s \$0-stereo-delay-lowpass-r;
#X obj 213 128 r \$0-stereo-delay-dry/wet-s;
#X obj 213 199 s \$0-stereo-delay-dry/wet-r;
#N canvas 0 22 484 497 nudge-parameters 0;
#X obj 124 234 random;
#X obj 232 335 f;
#X obj 232 368 +;
#X obj 257 166 random 2;
#X obj 124 275 t f f;
#X obj 124 351 t b f;
#X obj 124 297 *;
#X obj 257 188 sel 0 1;
#X msg 257 280 -1;
#X msg 335 280 1;
#X obj 124 149 t b b b;
#X obj 124 74 r NUDGE!;
#X obj 157 193 r NUDGE-RANGE;
#X obj 247 308 inlet;
#X obj 232 397 outlet;
#X obj 124 96 spigot;
#X obj 185 79 r parameters2-s;
#X connect 0 0 4 0;
#X connect 1 0 2 0;
#X connect 2 0 14 0;
#X connect 3 0 7 0;
#X connect 4 0 6 0;
#X connect 5 0 2 0;
#X connect 5 1 2 1;
#X connect 6 0 5 0;
#X connect 7 0 8 0;
#X connect 7 1 9 0;
#X connect 8 0 6 1;
#X connect 9 0 6 1;
#X connect 10 0 0 0;
#X connect 10 1 1 0;
#X connect 10 2 3 0;
#X connect 11 0 15 0;
#X connect 12 0 0 1;
#X connect 13 0 1 1;
#X connect 15 0 10 0;
#X connect 16 0 15 1;
#X restore 395 45 pd nudge-parameters;
#N canvas 0 22 484 497 nudge-parameters 0;
#X obj 124 234 random;
#X obj 232 335 f;
#X obj 232 368 +;
#X obj 257 166 random 2;
#X obj 124 275 t f f;
#X obj 124 351 t b f;
#X obj 124 297 *;
#X obj 257 188 sel 0 1;
#X msg 257 280 -1;
#X msg 335 280 1;
#X obj 124 149 t b b b;
#X obj 124 74 r NUDGE!;
#X obj 157 193 r NUDGE-RANGE;
#X obj 247 308 inlet;
#X obj 232 397 outlet;
#X obj 124 96 spigot;
#X obj 185 79 r parameters2-s;
#X connect 0 0 4 0;
#X connect 1 0 2 0;
#X connect 2 0 14 0;
#X connect 3 0 7 0;
#X connect 4 0 6 0;
#X connect 5 0 2 0;
#X connect 5 1 2 1;
#X connect 6 0 5 0;
#X connect 7 0 8 0;
#X connect 7 1 9 0;
#X connect 8 0 6 1;
#X connect 9 0 6 1;
#X connect 10 0 0 0;
#X connect 10 1 1 0;
#X connect 10 2 3 0;
#X connect 11 0 15 0;
#X connect 12 0 0 1;
#X connect 13 0 1 1;
#X connect 15 0 10 0;
#X connect 16 0 15 1;
#X restore 22 45 pd nudge-parameters;
#N canvas 0 22 484 497 nudge-parameters 0;
#X obj 124 234 random;
#X obj 232 335 f;
#X obj 232 368 +;
#X obj 257 166 random 2;
#X obj 124 275 t f f;
#X obj 124 351 t b f;
#X obj 124 297 *;
#X obj 257 188 sel 0 1;
#X msg 257 280 -1;
#X msg 335 280 1;
#X obj 124 149 t b b b;
#X obj 124 74 r NUDGE!;
#X obj 157 193 r NUDGE-RANGE;
#X obj 247 308 inlet;
#X obj 232 397 outlet;
#X obj 124 96 spigot;
#X obj 185 79 r parameters2-s;
#X connect 0 0 4 0;
#X connect 1 0 2 0;
#X connect 2 0 14 0;
#X connect 3 0 7 0;
#X connect 4 0 6 0;
#X connect 5 0 2 0;
#X connect 5 1 2 1;
#X connect 6 0 5 0;
#X connect 7 0 8 0;
#X connect 7 1 9 0;
#X connect 8 0 6 1;
#X connect 9 0 6 1;
#X connect 10 0 0 0;
#X connect 10 1 1 0;
#X connect 10 2 3 0;
#X connect 11 0 15 0;
#X connect 12 0 0 1;
#X connect 13 0 1 1;
#X connect 15 0 10 0;
#X connect 16 0 15 1;
#X restore 206 46 pd nudge-parameters;
#N canvas 0 22 484 497 nudge-parameters 0;
#X obj 124 234 random;
#X obj 232 335 f;
#X obj 232 368 +;
#X obj 257 166 random 2;
#X obj 124 275 t f f;
#X obj 124 351 t b f;
#X obj 124 297 *;
#X obj 257 188 sel 0 1;
#X msg 257 280 -1;
#X msg 335 280 1;
#X obj 124 149 t b b b;
#X obj 124 74 r NUDGE!;
#X obj 157 193 r NUDGE-RANGE;
#X obj 247 308 inlet;
#X obj 232 397 outlet;
#X obj 124 96 spigot;
#X obj 185 79 r parameters2-s;
#X connect 0 0 4 0;
#X connect 1 0 2 0;
#X connect 2 0 14 0;
#X connect 3 0 7 0;
#X connect 4 0 6 0;
#X connect 5 0 2 0;
#X connect 5 1 2 1;
#X connect 6 0 5 0;
#X connect 7 0 8 0;
#X connect 7 1 9 0;
#X connect 8 0 6 1;
#X connect 9 0 6 1;
#X connect 10 0 0 0;
#X connect 10 1 1 0;
#X connect 10 2 3 0;
#X connect 11 0 15 0;
#X connect 12 0 0 1;
#X connect 13 0 1 1;
#X connect 15 0 10 0;
#X connect 16 0 15 1;
#X restore 26 148 pd nudge-parameters;
#N canvas 0 22 484 497 nudge-parameters 0;
#X obj 124 234 random;
#X obj 232 335 f;
#X obj 232 368 +;
#X obj 257 166 random 2;
#X obj 124 275 t f f;
#X obj 124 351 t b f;
#X obj 124 297 *;
#X obj 257 188 sel 0 1;
#X msg 257 280 -1;
#X msg 335 280 1;
#X obj 124 149 t b b b;
#X obj 124 74 r NUDGE!;
#X obj 157 193 r NUDGE-RANGE;
#X obj 247 308 inlet;
#X obj 232 397 outlet;
#X obj 124 96 spigot;
#X obj 185 79 r parameters2-s;
#X connect 0 0 4 0;
#X connect 1 0 2 0;
#X connect 2 0 14 0;
#X connect 3 0 7 0;
#X connect 4 0 6 0;
#X connect 5 0 2 0;
#X connect 5 1 2 1;
#X connect 6 0 5 0;
#X connect 7 0 8 0;
#X connect 7 1 9 0;
#X connect 8 0 6 1;
#X connect 9 0 6 1;
#X connect 10 0 0 0;
#X connect 10 1 1 0;
#X connect 10 2 3 0;
#X connect 11 0 15 0;
#X connect 12 0 0 1;
#X connect 13 0 1 1;
#X connect 15 0 10 0;
#X connect 16 0 15 1;
#X restore 210 149 pd nudge-parameters;
#X connect 0 0 12 0;
#X connect 1 0 14 0;
#X connect 2 0 6 0;
#X connect 3 0 8 0;
#X connect 4 0 10 0;
#X connect 5 0 16 0;
#X connect 7 0 17 0;
#X connect 9 0 15 0;
#X connect 11 0 18 0;
#X connect 13 0 19 0;
#X connect 15 0 4 0;
#X connect 16 0 2 0;
#X connect 17 0 3 0;
#X connect 18 0 0 0;
#X connect 19 0 1 0;
#X restore 839 89 pd parameter-nudging-system;
#N canvas 632 73 749 752 external-messages 0;
#X floatatom 186 706 5 0 0 0 - - -, f 5;
#X obj 185 328 spigot;
#X obj 218 288 tgl 15 0 empty empty empty 17 7 0 10 -262144 -1 -1 0
1;
#X obj 254 272 ==;
#X obj 269 248 f \$1;
#X obj 269 224 loadbang;
#X msg 185 202 \$1 \$2;
#X msg 185 156 symbol \$1;
#X obj 185 180 pack s f;
#X obj 186 685 f;
#X obj 186 633 t b f;
#X obj 186 656 spigot;
#X obj 185 62 unpack s f f;
#X symbolatom 185 94 10 0 0 0 - - -, f 10;
#X obj 218 308 t f f;
#X obj 245 332 s \$0-msg-spigot;
#X obj 234 640 r \$0-msg-spigot;
#X floatatom 223 594 5 0 0 0 - - -, f 5;
#X obj 223 573 f;
#X obj 223 521 t b f;
#X obj 223 544 spigot;
#X obj 271 528 r \$0-msg-spigot;
#X floatatom 387 639 5 0 0 0 - - -, f 5;
#X obj 387 618 f;
#X obj 387 566 t b f;
#X obj 387 589 spigot;
#X obj 435 573 r \$0-msg-spigot;
#X floatatom 424 527 5 0 0 0 - - -, f 5;
#X obj 424 506 f;
#X obj 424 454 t b f;
#X obj 424 477 spigot;
#X obj 472 461 r \$0-msg-spigot;
#X floatatom 608 537 5 0 0 0 - - -, f 5;
#X obj 608 516 f;
#X obj 608 464 t b f;
#X obj 608 487 spigot;
#X obj 656 471 r \$0-msg-spigot;
#X obj 185 14 r stereo-delay;
#X obj 185 379 route RATE-LEFT RATE-RIGHT FEEDBACK LOWPASS DRY/WET
;
#X obj 186 726 s \$0-stereo-delay-rate-left-r;
#X obj 223 614 s \$0-stereo-delay-rate-right-r;
#X obj 387 659 s \$0-stereo-delay-feedback-r;
#X obj 424 547 s \$0-stereo-delay-lowpass-r;
#X obj 608 557 s \$0-stereo-delay-dry/wet-r;
#X connect 0 0 39 0;
#X connect 1 0 38 0;
#X connect 2 0 14 0;
#X connect 3 0 2 0;
#X connect 4 0 3 1;
#X connect 5 0 4 0;
#X connect 6 0 1 0;
#X connect 7 0 8 0;
#X connect 8 0 6 0;
#X connect 9 0 0 0;
#X connect 10 0 11 0;
#X connect 10 1 9 1;
#X connect 11 0 9 0;
#X connect 12 0 13 0;
#X connect 12 1 8 1;
#X connect 12 2 3 0;
#X connect 13 0 7 0;
#X connect 14 0 1 1;
#X connect 14 1 15 0;
#X connect 16 0 11 1;
#X connect 17 0 40 0;
#X connect 18 0 17 0;
#X connect 19 0 20 0;
#X connect 19 1 18 1;
#X connect 20 0 18 0;
#X connect 21 0 20 1;
#X connect 22 0 41 0;
#X connect 23 0 22 0;
#X connect 24 0 25 0;
#X connect 24 1 23 1;
#X connect 25 0 23 0;
#X connect 26 0 25 1;
#X connect 27 0 42 0;
#X connect 28 0 27 0;
#X connect 29 0 30 0;
#X connect 29 1 28 1;
#X connect 30 0 28 0;
#X connect 31 0 30 1;
#X connect 32 0 43 0;
#X connect 33 0 32 0;
#X connect 34 0 35 0;
#X connect 34 1 33 1;
#X connect 35 0 33 0;
#X connect 36 0 35 1;
#X connect 37 0 12 0;
#X connect 38 0 10 0;
#X connect 38 1 19 0;
#X connect 38 2 24 0;
#X connect 38 3 29 0;
#X connect 38 4 34 0;
#X restore 838 62 pd external-messages;
#X connect 2 0 24 0;
#X connect 2 0 4 0;
#X connect 2 0 56 0;
#X connect 3 0 17 0;
#X connect 4 0 16 0;
#X connect 5 0 3 0;
#X connect 6 0 7 0;
#X connect 7 0 8 0;
#X connect 7 1 13 0;
#X connect 8 0 9 0;
#X connect 9 0 10 0;
#X connect 10 0 11 0;
#X connect 11 0 12 0;
#X connect 12 0 4 1;
#X connect 13 0 14 0;
#X connect 14 0 15 0;
#X connect 15 0 5 1;
#X connect 15 0 27 1;
#X connect 16 0 17 0;
#X connect 16 0 28 0;
#X connect 17 0 18 0;
#X connect 18 0 19 0;
#X connect 23 0 66 0;
#X connect 24 0 46 0;
#X connect 26 0 28 0;
#X connect 27 0 26 0;
#X connect 28 0 29 0;
#X connect 29 0 30 0;
#X connect 35 0 24 1;
#X connect 36 0 24 3;
#X connect 37 0 38 0;
#X connect 38 0 27 0;
#X connect 40 0 58 0;
#X connect 41 0 42 0;
#X connect 42 0 43 0;
#X connect 43 0 44 0;
#X connect 44 0 48 0;
#X connect 45 0 40 0;
#X connect 46 0 47 0;
#X connect 47 0 5 0;
#X connect 48 0 46 1;
#X connect 48 1 47 1;
#X connect 48 2 37 1;
#X connect 48 3 38 1;
#X connect 50 0 24 2;
#X connect 53 0 56 3;
#X connect 54 0 56 2;
#X connect 55 0 56 1;
#X connect 56 0 37 0;
#X connect 58 0 41 0;
#X connect 59 0 60 0;
#X connect 60 0 61 0;
#X connect 61 0 58 0;
#X connect 61 1 58 1;
#X connect 62 0 60 0;
#X connect 64 0 56 4;
#X connect 64 0 24 4;
#X connect 66 0 68 0;
#X connect 68 0 65 0;
#X coords 0 -1 1 1 200 120 2 100 100;
