#N canvas 0 23 1127 694 10;
#X obj 106 128 hsl 128 15 0 127 0 1 \$0-stereo-delay-rate-left-s \$0-stereo-delay-rate-left-r RATE-LEFT 133 7 0 10 #fcfcfc #000000 #000000 9078 1;
#X obj 106 158 hsl 128 15 0 127 0 1 \$0-stereo-delay-feedback-s \$0-stereo-delay-feedback-r FEEDBACK 133 7 0 10 #fcfcfc #000000 #000000 12700 1;
#X obj 438 16 inlet~;
#X obj 438 506 *~ -1;
#X obj 81 486 *~;
#X obj 438 479 *~;
#X obj 106 203 hsl 128 15 0 127 0 1 \$0-stereo-delay-dry/wet-s \$0-stereo-delay-dry/wet-r DRY/WET 133 7 0 10 #fcfcfc #000000 #000000 9300 1;
#X obj 96 276 t f f;
#X msg 96 298 127 \$1;
#X obj 96 320 -;
#X obj 96 342 / 127;
#X obj 96 364 pack 0 50;
#X obj 96 386 line~;
#X obj 248 421 / 127;
#X obj 248 443 pack 0 50;
#X obj 248 465 line~;
#X obj 81 516 hip~ 5;
#X obj 439 534 min~ 1;
#X obj 439 556 max~ -1;
#X obj 439 643 outlet~;
#X obj 135 108 cnv 5 5 5 empty empty RATE-L 0 0 0 8 #fcfcfc #404040 0;
#X obj 103 121 cnv 5 5 5 empty empty STEREO-DELAY 0 0 0 12 #fcfcfc #404040 0;
#X obj 102 108 cnv 5 5 5 empty empty IN 0 0 0 8 #fcfcfc #404040 0;
#N canvas 315 35 593 735 state-saving-multiple-instances 0;
#X obj 137 29 loadbang;
#X msg 466 435 rewind;
#X msg 423 435 bang;
#X obj 42 691 reloaded/textfile \$0;
#X obj 423 396 t b b;
#X obj 43 357 f;
#X obj 56 580 f;
#X obj -16 401 t b b b;
#X msg 119 580 clear;
#X obj 204 217 outlet;
#X text 246 221 INSTANCE NUMBER;
#X obj 165 153 f \$1;
#X obj 165 189 t f f f;
#X obj 138 62 t b b;
#X obj -16 378 bng 15 250 50 0 empty \$0-save-s empty 17 7 0 10 #fcfcfc #000000 #000000;
#X obj -16 234 r SAVE-S;
#X msg 55 651 write statesave/\$1-stereo-delay-ss.txt;
#X msg 184 427 read statesave/\$1-stereo-delay-ss.txt;
#X obj 43 400 pack f f f f f;
#X obj 184 474 unpack f f f f f;
#X obj 58 254 r \$0-stereo-delay-rate-left-s;
#X obj 184 627 s \$0-stereo-delay-rate-left-r;
#X obj 66 277 r \$0-stereo-delay-rate-right-s;
#X obj 205 603 s \$0-stereo-delay-rate-right-r;
#X obj 80 298 r \$0-stereo-delay-feedback-s;
#X obj 226 579 s \$0-stereo-delay-feedback-r;
#X obj 98 323 r \$0-stereo-delay-lowpass-s;
#X obj 247 555 s \$0-stereo-delay-lowpass-r;
#X obj 118 348 r \$0-stereo-delay-dry/wet-s;
#X obj 275 529 s \$0-stereo-delay-dry/wet-r;
#X msg 43 438 set \$1 \$2 \$3 \$4 \$5;
#X obj 184 452 reloaded/textfile \$0 init;
#X connect 0 0 13 0;
#X connect 1 0 31 0;
#X connect 2 0 31 0;
#X connect 4 0 2 0;
#X connect 4 1 1 0;
#X connect 5 0 18 0;
#X connect 6 0 16 0;
#X connect 7 0 6 0;
#X connect 7 1 5 0;
#X connect 7 2 8 0;
#X connect 8 0 3 0;
#X connect 11 0 12 0;
#X connect 12 0 6 1;
#X connect 12 1 17 0;
#X connect 12 2 9 0;
#X connect 13 0 4 0;
#X connect 13 1 11 0;
#X connect 14 0 7 0;
#X connect 15 0 14 0;
#X connect 16 0 3 0;
#X connect 17 0 31 0;
#X connect 18 0 30 0;
#X connect 19 0 21 0;
#X connect 19 1 23 0;
#X connect 19 2 25 0;
#X connect 19 3 27 0;
#X connect 19 4 29 0;
#X connect 20 0 5 1;
#X connect 22 0 18 1;
#X connect 24 0 18 2;
#X connect 26 0 18 3;
#X connect 28 0 18 4;
#X connect 30 0 3 0;
#X connect 31 0 19 0;
#X restore 839 133 pd state-saving-multiple-instances;
#N canvas 0 22 1106 739 delay1 0;
#X obj 195 112 inlet~;
#X obj 365 109 inlet;
#X obj 365 131 / 127;
#X obj 365 197 sig~;
#X obj 365 461 outlet~;
#X obj 442 362 *~;
#X obj 472 113 inlet;
#X obj 472 137 / 127;
#X obj 472 208 pack 0 50;
#X obj 472 230 line~;
#X text 454 96 FEEDBACK;
#X text 365 89 DELAY;
#X text 193 90 SIGNAL IN;
#X obj 472 181 + 0.5;
#X obj 472 159 * 0.48;
#X obj 365 286 vd~ \$0-dly1;
#X obj 472 282 min~ 0.98;
#X obj 365 219 +~;
#X obj 410 158 inlet~;
#X text 415 139 CV IN;
#X obj 472 252 +~;
#X obj 546 235 inlet~;
#X obj 365 266 lop~ 1;
#X obj 365 175 + 10;
#X obj 365 153 * 490;
#X obj 410 180 *~ 490;
#X obj 197 465 delwrite~ \$0-dly1 2500;
#X obj 365 244 clip~ 10 2500;
#X obj 471 311 max~ 0;
#X obj 667 124 inlet;
#X text 665 93 PINGPONG;
#X obj 667 145 == 0;
#X obj 403 324 *~ 1;
#X obj 313 322 *~;
#X obj 273 282 vd~ \$0-dly2;
#X obj 528 364 r \$0-fb-post-lop-s;
#N canvas 192 192 816 659 fbPostEQ 0;
#X obj 123 50 inlet~;
#X obj 286 43 inlet;
#X obj 322 119 switch~;
#X obj 167 208 lop~;
#X obj 167 230 lop~;
#X obj 407 93 / 127;
#X obj 407 142 * 4950;
#X obj 407 164 + 50;
#X obj 407 186 pack 0 50;
#X obj 407 208 line;
#X obj 407 71 r \$0-stereo-delay-lowpass-s;
#X obj 407 115 +;
#X obj 167 251 outlet~;
#X obj 407 257 t f f;
#X connect 0 0 3 0;
#X connect 1 0 2 0;
#X connect 3 0 4 0;
#X connect 4 0 12 0;
#X connect 5 0 11 0;
#X connect 6 0 7 0;
#X connect 7 0 8 0;
#X connect 8 0 9 0;
#X connect 9 0 13 0;
#X connect 10 0 5 0;
#X connect 11 0 6 0;
#X connect 13 0 3 1;
#X connect 13 1 4 1;
#X restore 452 406 pd fbPostEQ;
#N canvas 192 192 816 659 fbpreEQ 0;
#X obj 123 50 inlet~;
#X obj 286 43 inlet;
#X obj 322 119 switch~;
#X obj 167 251 outlet~;
#X obj 304 81 == 0;
#X connect 0 0 3 0;
#X connect 1 0 4 0;
#X connect 4 0 2 0;
#X restore 373 409 pd fbpreEQ;
#X connect 0 0 26 0;
#X connect 1 0 2 0;
#X connect 2 0 24 0;
#X connect 3 0 17 0;
#X connect 5 0 36 0;
#X connect 5 0 37 0;
#X connect 6 0 7 0;
#X connect 7 0 14 0;
#X connect 8 0 9 0;
#X connect 9 0 20 0;
#X connect 13 0 8 0;
#X connect 14 0 13 0;
#X connect 15 0 4 0;
#X connect 15 0 32 0;
#X connect 16 0 28 0;
#X connect 17 0 27 0;
#X connect 18 0 25 0;
#X connect 20 0 16 0;
#X connect 21 0 20 1;
#X connect 22 0 15 0;
#X connect 22 0 34 0;
#X connect 23 0 3 0;
#X connect 24 0 23 0;
#X connect 25 0 17 1;
#X connect 27 0 22 0;
#X connect 28 0 5 1;
#X connect 29 0 31 0;
#X connect 29 0 33 1;
#X connect 31 0 32 1;
#X connect 32 0 5 0;
#X connect 33 0 5 0;
#X connect 34 0 33 0;
#X connect 35 0 36 1;
#X connect 35 0 37 1;
#X connect 36 0 26 0;
#X connect 37 0 26 0;
#X restore 439 334 pd delay1;
#X obj 106 143 hsl 128 15 0 127 0 1 \$0-stereo-delay-rate-right-s \$0-stereo-delay-rate-right-r RATE-RIGHT 133 7 0 10 #fcfcfc #000000 #000000 9078 1;
#X obj 562 504 *~ -1;
#X obj 562 482 *~;
#X obj 563 532 min~ 1;
#X obj 563 554 max~ -1;
#X obj 563 643 outlet~;
#X obj 178 108 cnv 5 5 5 empty empty RATE-R 0 0 0 8 #fcfcfc #404040 0;
#X obj 217 108 cnv 5 5 5 empty empty FBACK 0 0 0 8 #fcfcfc #404040 0;
#X obj 105 227 cnv 5 5 5 empty empty LEFT 0 0 0 8 #fcfcfc #404040 0;
#X obj 272 227 cnv 5 5 5 empty empty RIGHT 0 0 0 8 #fcfcfc #404040 0;
#X obj 452 44 r \$0-stereo-delay-rate-left-s;
#X obj 476 112 r \$0-stereo-delay-feedback-s;
#X obj 562 363 lop~;
#X obj 562 385 lop~;
#X obj 106 173 hsl 128 15 0 127 0 1 \$0-stereo-delay-lowpass-s \$0-stereo-delay-lowpass-r LOWPASS 133 7 0 10 #fcfcfc #000000 #000000 1039 1;
#X obj 803 288 / 127;
#X obj 803 337 * 4950;
#X obj 803 359 + 50;
#X obj 803 381 pack 0 50;
#X obj 803 403 line;
#X obj 803 266 r \$0-stereo-delay-lowpass-s;
#X obj 439 361 lop~;
#X obj 439 383 lop~;
#X obj 803 452 t f f f f;
#X obj 250 108 cnv 5 5 5 empty empty LPASS 0 0 0 8 #fcfcfc #404040 0;
#X obj 463 85 inlet~;
#X text 460 68 RATE-LEFT CV INPUT;
#X text 657 277 FEEDBACK CV INPUT;
#X obj 600 243 r \$0-stereo-delay-feedback-s;
#X obj 588 216 inlet~;
#X obj 576 175 r \$0-stereo-delay-rate-right-s;
#N canvas 0 22 793 555 delay2 0;
#X obj 195 112 inlet~;
#X obj 365 109 inlet;
#X obj 365 131 / 127;
#X obj 365 197 sig~;
#X obj 365 461 outlet~;
#X obj 456 351 *~;
#X obj 472 113 inlet;
#X obj 472 137 / 127;
#X obj 472 208 pack 0 50;
#X obj 472 230 line~;
#X text 454 96 FEEDBACK;
#X text 365 89 DELAY;
#X text 193 90 SIGNAL IN;
#X obj 472 181 + 0.5;
#X obj 472 159 * 0.48;
#X obj 365 175 + 10;
#X obj 472 282 min~ 0.98;
#X obj 365 219 +~;
#X obj 410 158 inlet~;
#X text 415 139 CV IN;
#X obj 472 252 +~;
#X obj 546 235 inlet~;
#X obj 365 286 vd~ \$0-dly2;
#X obj 365 261 lop~ 1;
#X obj 365 153 * 490;
#X obj 410 180 *~ 490;
#X obj 197 465 delwrite~ \$0-dly2 2500;
#X obj 365 240 clip~ 10 2500;
#X obj 471 311 max~ 0;
#X obj 667 124 inlet;
#X text 665 93 PINGPONG;
#X obj 667 145 == 0;
#X obj 403 324 *~ 1;
#X obj 313 322 *~;
#X obj 273 282 vd~ \$0-dly1;
#X obj 196 289 *~ 1;
#X obj 549 75 - 1;
#X obj 549 96 * 0.5;
#X obj 549 117 + 1;
#X obj 572 152 * 1;
#X obj 528 364 r \$0-fb-post-lop-s;
#N canvas 192 192 816 659 fbPostEQ 0;
#X obj 123 50 inlet~;
#X obj 286 43 inlet;
#X obj 322 119 switch~;
#X obj 167 208 lop~;
#X obj 167 230 lop~;
#X obj 407 93 / 127;
#X obj 407 142 * 4950;
#X obj 407 164 + 50;
#X obj 407 186 pack 0 50;
#X obj 407 208 line;
#X obj 407 71 r \$0-stereo-delay-lowpass-s;
#X obj 407 115 +;
#X obj 167 251 outlet~;
#X obj 407 257 t f f;
#X connect 0 0 3 0;
#X connect 1 0 2 0;
#X connect 3 0 4 0;
#X connect 4 0 12 0;
#X connect 5 0 11 0;
#X connect 6 0 7 0;
#X connect 7 0 8 0;
#X connect 8 0 9 0;
#X connect 9 0 13 0;
#X connect 10 0 5 0;
#X connect 11 0 6 0;
#X connect 13 0 3 1;
#X connect 13 1 4 1;
#X restore 452 406 pd fbPostEQ;
#N canvas 192 192 816 659 fbpreEQ 0;
#X obj 123 50 inlet~;
#X obj 286 43 inlet;
#X obj 322 119 switch~;
#X obj 167 251 outlet~;
#X obj 304 81 == 0;
#X connect 0 0 3 0;
#X connect 1 0 4 0;
#X connect 4 0 2 0;
#X restore 373 409 pd fbpreEQ;
#X connect 0 0 35 0;
#X connect 1 0 2 0;
#X connect 2 0 24 0;
#X connect 3 0 17 0;
#X connect 5 0 41 0;
#X connect 5 0 42 0;
#X connect 6 0 7 0;
#X connect 7 0 14 0;
#X connect 8 0 9 0;
#X connect 9 0 20 0;
#X connect 13 0 8 0;
#X connect 13 0 36 0;
#X connect 14 0 13 0;
#X connect 15 0 3 0;
#X connect 16 0 28 0;
#X connect 17 0 27 0;
#X connect 18 0 25 0;
#X connect 20 0 16 0;
#X connect 21 0 20 1;
#X connect 22 0 4 0;
#X connect 22 0 32 0;
#X connect 23 0 22 0;
#X connect 23 0 34 0;
#X connect 24 0 15 0;
#X connect 25 0 17 1;
#X connect 27 0 23 0;
#X connect 28 0 5 1;
#X connect 29 0 31 0;
#X connect 29 0 39 0;
#X connect 31 0 32 1;
#X connect 31 0 35 1;
#X connect 32 0 5 0;
#X connect 33 0 5 0;
#X connect 34 0 33 0;
#X connect 35 0 26 0;
#X connect 36 0 37 0;
#X connect 37 0 38 0;
#X connect 38 0 39 1;
#X connect 39 0 33 1;
#X connect 40 0 41 1;
#X connect 40 0 42 1;
#X connect 41 0 26 0;
#X connect 42 0 26 0;
#X restore 562 330 pd delay2;
#X text 585 199 RATE-RIGHT CV INPUT;
#X obj 803 310 +;
#X obj 982 236 inlet~;
#X obj 982 271 snapshot~;
#X obj 982 293 t b f;
#X obj 1026 236 bang~;
#X text 978 218 LPASS CV INPUT;
#X obj 613 278 inlet~;
#X obj 839 207 s \$0-instance-num;
#X obj 839 159 makefilename %d;
#X obj 192 121 cnv 5 5 5 empty \$0-instance-num 1 0 0 0 12 #fcfcfc #404040 0;
#X msg 839 184 label \$1;
#N canvas 81 22 1117 745 state-saving-via-preset-manager-module 0;
#X obj 340 227 reloaded/textfile \$0;
#X msg 719 210 rewind;
#X msg 676 210 bang;
#X obj 106 568 reloaded/textfile \$0;
#X obj 676 171 t b b;
#X obj 107 234 f;
#X obj 120 457 f;
#X obj 53 352 t b b b;
#X msg 236 499 clear;
#X obj 107 56 delay 5;
#X obj 53 407 delay 10;
#X msg 53 192 bang;
#X obj 53 26 r STORE-S!;
#X obj 340 128 f;
#X obj 313 85 t b b;
#X obj 328 49 t b f;
#X obj 385 146 f \$1;
#X obj 340 173 pack f f;
#X obj 385 96 loadbang;
#X obj 120 487 pack f f;
#X obj 165 440 loadbang;
#X obj 165 462 f \$1;
#X obj 328 26 r preset-manager-scan;
#X obj 135 418 r preset-manager-store-slot;
#X msg 106 368 set \$1 \$2 \$3 \$4 \$5;
#X obj 107 301 pack f f f f f;
#X obj 340 249 unpack f f f f f;
#X msg 119 528 write statesave/\$1-\$2-stereo-delay-ss.txt;
#X msg 340 202 read statesave/\$1-\$2-stereo-delay-ss.txt;
#X obj 123 78 r \$0-stereo-delay-rate-left-s;
#X obj 345 714 s \$0-stereo-delay-rate-left-r;
#X obj 136 107 r \$0-stereo-delay-rate-right-s;
#X obj 366 616 s \$0-stereo-delay-rate-right-r;
#X obj 146 146 r \$0-stereo-delay-feedback-s;
#X obj 384 517 s \$0-stereo-delay-feedback-r;
#X obj 169 173 r \$0-stereo-delay-lowpass-s;
#X obj 561 697 s \$0-stereo-delay-lowpass-r;
#X obj 183 196 r \$0-stereo-delay-dry/wet-s;
#X obj 616 596 s \$0-stereo-delay-dry/wet-r;
#N canvas 0 22 1069 747 morph-parameters 0;
#X obj 176 94 inlet;
#X obj 176 236 pack f f;
#X obj 176 261 line;
#X obj 209 117 r preset-manager-morph-s;
#X msg 72 244 stop;
#X obj 72 214 r STOP-MORPH!;
#X obj 209 206 spigot;
#X obj 398 137 t f f;
#X obj 455 154 == 0;
#X obj 221 176 f;
#X floatatom 455 222 5 0 0 0 - - - 0;
#X obj 398 159 t b f;
#X floatatom 425 192 5 0 0 0 - - - 0;
#X obj 209 139 t f f;
#X obj 398 102 r parameters-s;
#X obj 176 288 outlet;
#X connect 0 0 1 0;
#X connect 1 0 2 0;
#X connect 2 0 15 0;
#X connect 3 0 13 0;
#X connect 4 0 2 0;
#X connect 5 0 4 0;
#X connect 6 0 1 1;
#X connect 7 0 11 0;
#X connect 7 1 8 0;
#X connect 8 0 10 0;
#X connect 9 0 6 0;
#X connect 10 0 1 1;
#X connect 11 0 9 0;
#X connect 11 1 12 0;
#X connect 12 0 6 1;
#X connect 13 0 6 0;
#X connect 13 1 9 1;
#X connect 14 0 7 0;
#X restore 384 493 pd morph-parameters;
#N canvas 0 22 1069 747 morph-parameters 0;
#X obj 176 94 inlet;
#X obj 176 236 pack f f;
#X obj 176 261 line;
#X obj 209 117 r preset-manager-morph-s;
#X msg 72 244 stop;
#X obj 72 214 r STOP-MORPH!;
#X obj 209 206 spigot;
#X obj 398 137 t f f;
#X obj 455 154 == 0;
#X obj 221 176 f;
#X floatatom 455 222 5 0 0 0 - - - 0;
#X obj 398 159 t b f;
#X floatatom 425 192 5 0 0 0 - - - 0;
#X obj 209 139 t f f;
#X obj 398 102 r parameters-s;
#X obj 176 288 outlet;
#X connect 0 0 1 0;
#X connect 1 0 2 0;
#X connect 2 0 15 0;
#X connect 3 0 13 0;
#X connect 4 0 2 0;
#X connect 5 0 4 0;
#X connect 6 0 1 1;
#X connect 7 0 11 0;
#X connect 7 1 8 0;
#X connect 8 0 10 0;
#X connect 9 0 6 0;
#X connect 10 0 1 1;
#X connect 11 0 9 0;
#X connect 11 1 12 0;
#X connect 12 0 6 1;
#X connect 13 0 6 0;
#X connect 13 1 9 1;
#X connect 14 0 7 0;
#X restore 345 684 pd morph-parameters;
#N canvas 0 22 1069 747 morph-parameters 0;
#X obj 176 94 inlet;
#X obj 176 236 pack f f;
#X obj 176 261 line;
#X obj 209 117 r preset-manager-morph-s;
#X msg 72 244 stop;
#X obj 72 214 r STOP-MORPH!;
#X obj 209 206 spigot;
#X obj 398 137 t f f;
#X obj 455 154 == 0;
#X obj 221 176 f;
#X floatatom 455 222 5 0 0 0 - - - 0;
#X obj 398 159 t b f;
#X floatatom 425 192 5 0 0 0 - - - 0;
#X obj 209 139 t f f;
#X obj 398 102 r parameters-s;
#X obj 176 288 outlet;
#X connect 0 0 1 0;
#X connect 1 0 2 0;
#X connect 2 0 15 0;
#X connect 3 0 13 0;
#X connect 4 0 2 0;
#X connect 5 0 4 0;
#X connect 6 0 1 1;
#X connect 7 0 11 0;
#X connect 7 1 8 0;
#X connect 8 0 10 0;
#X connect 9 0 6 0;
#X connect 10 0 1 1;
#X connect 11 0 9 0;
#X connect 11 1 12 0;
#X connect 12 0 6 1;
#X connect 13 0 6 0;
#X connect 13 1 9 1;
#X connect 14 0 7 0;
#X restore 366 590 pd morph-parameters;
#N canvas 0 22 1069 747 morph-parameters 0;
#X obj 176 94 inlet;
#X obj 176 236 pack f f;
#X obj 176 261 line;
#X obj 209 117 r preset-manager-morph-s;
#X msg 72 244 stop;
#X obj 72 214 r STOP-MORPH!;
#X obj 209 206 spigot;
#X obj 398 137 t f f;
#X obj 455 154 == 0;
#X obj 221 176 f;
#X floatatom 455 222 5 0 0 0 - - - 0;
#X obj 398 159 t b f;
#X floatatom 425 192 5 0 0 0 - - - 0;
#X obj 209 139 t f f;
#X obj 398 102 r parameters-s;
#X obj 176 288 outlet;
#X connect 0 0 1 0;
#X connect 1 0 2 0;
#X connect 2 0 15 0;
#X connect 3 0 13 0;
#X connect 4 0 2 0;
#X connect 5 0 4 0;
#X connect 6 0 1 1;
#X connect 7 0 11 0;
#X connect 7 1 8 0;
#X connect 8 0 10 0;
#X connect 9 0 6 0;
#X connect 10 0 1 1;
#X connect 11 0 9 0;
#X connect 11 1 12 0;
#X connect 12 0 6 1;
#X connect 13 0 6 0;
#X connect 13 1 9 1;
#X connect 14 0 7 0;
#X restore 561 671 pd morph-parameters;
#N canvas 0 22 1069 747 morph-parameters 0;
#X obj 176 94 inlet;
#X obj 176 236 pack f f;
#X obj 176 261 line;
#X obj 209 117 r preset-manager-morph-s;
#X msg 72 244 stop;
#X obj 72 214 r STOP-MORPH!;
#X obj 209 206 spigot;
#X obj 398 137 t f f;
#X obj 455 154 == 0;
#X obj 221 176 f;
#X floatatom 455 222 5 0 0 0 - - - 0;
#X obj 398 159 t b f;
#X floatatom 425 192 5 0 0 0 - - - 0;
#X obj 209 139 t f f;
#X obj 398 102 r parameters-s;
#X obj 176 288 outlet;
#X connect 0 0 1 0;
#X connect 1 0 2 0;
#X connect 2 0 15 0;
#X connect 3 0 13 0;
#X connect 4 0 2 0;
#X connect 5 0 4 0;
#X connect 6 0 1 1;
#X connect 7 0 11 0;
#X connect 7 1 8 0;
#X connect 8 0 10 0;
#X connect 9 0 6 0;
#X connect 10 0 1 1;
#X connect 11 0 9 0;
#X connect 11 1 12 0;
#X connect 12 0 6 1;
#X connect 13 0 6 0;
#X connect 13 1 9 1;
#X connect 14 0 7 0;
#X restore 616 570 pd morph-parameters;
#X connect 0 0 26 0;
#X connect 1 0 0 0;
#X connect 2 0 0 0;
#X connect 4 0 2 0;
#X connect 4 1 1 0;
#X connect 5 0 25 0;
#X connect 6 0 19 0;
#X connect 7 0 10 0;
#X connect 7 1 9 0;
#X connect 7 2 8 0;
#X connect 8 0 3 0;
#X connect 9 0 5 0;
#X connect 10 0 6 0;
#X connect 11 0 7 0;
#X connect 12 0 11 0;
#X connect 13 0 17 0;
#X connect 14 0 4 0;
#X connect 14 1 13 0;
#X connect 15 0 14 0;
#X connect 15 1 13 1;
#X connect 16 0 17 1;
#X connect 17 0 28 0;
#X connect 18 0 16 0;
#X connect 19 0 27 0;
#X connect 20 0 21 0;
#X connect 21 0 19 1;
#X connect 22 0 15 0;
#X connect 23 0 6 1;
#X connect 24 0 3 0;
#X connect 25 0 24 0;
#X connect 26 0 40 0;
#X connect 26 1 41 0;
#X connect 26 2 39 0;
#X connect 26 3 42 0;
#X connect 26 4 43 0;
#X connect 27 0 3 0;
#X connect 28 0 0 0;
#X connect 29 0 5 1;
#X connect 31 0 25 1;
#X connect 33 0 25 2;
#X connect 35 0 25 3;
#X connect 37 0 25 4;
#X connect 39 0 34 0;
#X connect 40 0 30 0;
#X connect 41 0 32 0;
#X connect 42 0 36 0;
#X connect 43 0 38 0;
#X restore 839 111 pd state-saving-via-preset-manager-module;
#N canvas 297 27 648 297 parameter-nudging-system 0;
#X obj 21 171 clip 0 127;
#X obj 213 173 clip 0 127;
#X obj 23 67 clip 0 127;
#X obj 214 69 clip 0 127;
#X obj 407 71 clip 0 127;
#X obj 23 22 r \$0-stereo-delay-rate-left-s;
#X obj 23 95 s \$0-stereo-delay-rate-left-r;
#X obj 214 24 r \$0-stereo-delay-rate-right-s;
#X obj 214 97 s \$0-stereo-delay-rate-right-r;
#X obj 407 24 r \$0-stereo-delay-feedback-s;
#X obj 407 97 s \$0-stereo-delay-feedback-r;
#X obj 21 126 r \$0-stereo-delay-lowpass-s;
#X obj 21 198 s \$0-stereo-delay-lowpass-r;
#X obj 213 128 r \$0-stereo-delay-dry/wet-s;
#X obj 213 199 s \$0-stereo-delay-dry/wet-r;
#X obj 22 45 reloaded/nudge-parameters;
#X obj 206 46 reloaded/nudge-parameters;
#X obj 395 45 reloaded/nudge-parameters;
#X obj 26 148 reloaded/nudge-parameters;
#X obj 210 149 reloaded/nudge-parameters;
#X connect 0 0 12 0;
#X connect 1 0 14 0;
#X connect 2 0 6 0;
#X connect 3 0 8 0;
#X connect 4 0 10 0;
#X connect 5 0 15 0;
#X connect 7 0 16 0;
#X connect 9 0 17 0;
#X connect 11 0 18 0;
#X connect 13 0 19 0;
#X connect 15 0 2 0;
#X connect 16 0 3 0;
#X connect 17 0 4 0;
#X connect 18 0 0 0;
#X connect 19 0 1 0;
#X restore 839 89 pd parameter-nudging-system;
#N canvas 632 73 749 752 external-messages 0;
#X floatatom 186 706 5 0 0 0 - - - 0;
#X obj 185 328 spigot;
#X obj 218 288 tgl 15 0 empty empty empty 17 7 0 10 #fcfcfc #000000 #000000 0 1;
#X obj 254 272 ==;
#X obj 269 248 f \$1;
#X obj 269 224 loadbang;
#X msg 185 202 \$1 \$2;
#X msg 185 156 symbol \$1;
#X obj 185 180 pack s f;
#X obj 186 685 f;
#X obj 186 633 t b f;
#X obj 186 656 spigot;
#X obj 185 62 unpack s f f;
#X symbolatom 185 94 10 0 0 0 - - - 0;
#X obj 218 308 t f f;
#X obj 251 355 s \$0-msg-spigot;
#X obj 234 640 r \$0-msg-spigot;
#X floatatom 223 594 5 0 0 0 - - - 0;
#X obj 223 573 f;
#X obj 223 521 t b f;
#X obj 223 544 spigot;
#X obj 271 528 r \$0-msg-spigot;
#X floatatom 387 639 5 0 0 0 - - - 0;
#X obj 387 618 f;
#X obj 387 566 t b f;
#X obj 387 589 spigot;
#X obj 435 573 r \$0-msg-spigot;
#X floatatom 424 527 5 0 0 0 - - - 0;
#X obj 424 506 f;
#X obj 424 454 t b f;
#X obj 424 477 spigot;
#X obj 472 461 r \$0-msg-spigot;
#X floatatom 608 537 5 0 0 0 - - - 0;
#X obj 608 516 f;
#X obj 608 464 t b f;
#X obj 608 487 spigot;
#X obj 656 471 r \$0-msg-spigot;
#X obj 185 14 r stereo-delay;
#X obj 185 379 route RATE-LEFT RATE-RIGHT FEEDBACK LOWPASS DRY/WET;
#X obj 186 726 s \$0-stereo-delay-rate-left-r;
#X obj 223 614 s \$0-stereo-delay-rate-right-r;
#X obj 387 659 s \$0-stereo-delay-feedback-r;
#X obj 424 547 s \$0-stereo-delay-lowpass-r;
#X obj 608 557 s \$0-stereo-delay-dry/wet-r;
#X obj 109 285 inlet;
#X obj 109 306 t a b;
#X msg 143 331 1;
#X text 91 240 direct messaging;
#X connect 0 0 39 0;
#X connect 1 0 38 0;
#X connect 2 0 14 0;
#X connect 3 0 2 0;
#X connect 4 0 3 1;
#X connect 5 0 4 0;
#X connect 6 0 1 0;
#X connect 7 0 8 0;
#X connect 8 0 6 0;
#X connect 9 0 0 0;
#X connect 10 0 11 0;
#X connect 10 1 9 1;
#X connect 11 0 9 0;
#X connect 12 0 13 0;
#X connect 12 1 8 1;
#X connect 12 2 3 0;
#X connect 13 0 7 0;
#X connect 14 0 1 1;
#X connect 14 1 15 0;
#X connect 16 0 11 1;
#X connect 17 0 40 0;
#X connect 18 0 17 0;
#X connect 19 0 20 0;
#X connect 19 1 18 1;
#X connect 20 0 18 0;
#X connect 21 0 20 1;
#X connect 22 0 41 0;
#X connect 23 0 22 0;
#X connect 24 0 25 0;
#X connect 24 1 23 1;
#X connect 25 0 23 0;
#X connect 26 0 25 1;
#X connect 27 0 42 0;
#X connect 28 0 27 0;
#X connect 29 0 30 0;
#X connect 29 1 28 1;
#X connect 30 0 28 0;
#X connect 31 0 30 1;
#X connect 32 0 43 0;
#X connect 33 0 32 0;
#X connect 34 0 35 0;
#X connect 34 1 33 1;
#X connect 35 0 33 0;
#X connect 36 0 35 1;
#X connect 37 0 12 0;
#X connect 38 0 10 0;
#X connect 38 1 19 0;
#X connect 38 2 24 0;
#X connect 38 3 29 0;
#X connect 38 4 34 0;
#X connect 44 0 45 0;
#X connect 45 0 38 0;
#X connect 45 1 46 0;
#X connect 46 0 15 0;
#X restore 838 62 pd external-messages;
#X obj 10 50 reloaded stereo-delay \$0 \$1;
#X obj 50 10 savestate;
#N canvas 0 50 450 300 \$0-gui_listeners 0;
#X obj 10 0 reloaded/hsl_dispatch stereo-delay \$0 \$1 0 127 stereo-delay-lowpass-s stereo-delay-lowpass-r LOWPASS #FFFFFF #000000 #000000;
#X obj 10 60 reloaded/hsl_dispatch stereo-delay \$0 \$1 0 127 stereo-delay-rate-right-s stereo-delay-rate-right-r RATE-RIGHT #FFFFFF #000000 #000000;
#X obj 10 120 reloaded/hsl_dispatch stereo-delay \$0 \$1 0 127 stereo-delay-dry/wet-s stereo-delay-dry/wet-r DRY/WET #FFFFFF #000000 #000000;
#X obj 10 180 reloaded/hsl_dispatch stereo-delay \$0 \$1 0 127 stereo-delay-feedback-s stereo-delay-feedback-r FEEDBACK #FFFFFF #000000 #000000;
#X obj 10 240 reloaded/hsl_dispatch stereo-delay \$0 \$1 0 127 stereo-delay-rate-left-s stereo-delay-rate-left-r RATE-LEFT #FFFFFF #000000 #000000;
#X restore 10 80 pd \$0-gui_listeners;
#X obj 99 251 r \$0-stereo-delay-dry/wet-s;
#X obj 135 77 namecanvas \$0-this;
#X obj 146 188 hradio 15 1 0 2 \$0-tap_mode-s \$0-tap_mode-r SYNC:1/1 -38 8 0 14 #ffaaff #ffaaff #aaaaaa 0;
#X obj 283 108 cnv 5 5 5 empty empty TAP 0 0 0 8 #fcfcfc #9c00ff 0;
#X obj 1036 31 inlet~ TAP;
#N canvas 472 182 1108 764 tap-mode 0;
#X text 447 220 3/4;
#X text 451 200 2/3;
#X text 450 182 1/2;
#X text 453 153 1/3;
#X text 452 131 1/4;
#X text 452 251 5/4;
#X text 447 237 1/1;
#X text 444 265 4/3;
#X obj 282 144 r \$0-tap_mode-s;
#X obj 653 178 r \$0-den;
#X obj 276 223 r \$0-num;
#X obj 278 175 select 0 1;
#X obj 547 327 s \$0-tap_mode-r;
#X msg 234 235 1;
#X obj 234 257 +;
#X obj 234 279 mod 8;
#X obj 246 301 s \$0-num;
#X obj 548 181 r \$0-num;
#X obj 597 212 t b f;
#X obj 547 218 f;
#X obj 547 246 + 1;
#X obj 608 243 + 1;
#X msg 547 296 label SYNC:\$1/\$2;
#X obj 547 274 pack 1 1;
#X msg 314 255 1;
#X obj 314 277 +;
#X obj 356 243 r \$0-den;
#X obj 326 321 s \$0-den;
#X obj 314 299 mod 8;
#X obj 79 528 - 10;
#X obj 78 594 * 127;
#X obj 78 558 / 490;
#X obj 79 445 moses 1500;
#X obj 75 407 / 4;
#X obj 79 430 * 3;
#X text 200 366 divide to get 16th;
#X text 203 398 multiply by desired pattern;
#X text 243 443 filter too big values;
#X text 225 474 convert to internal mapping in st-delay module, f 15;
#X obj 122 404 + 1;
#X obj 96 348 r \$0-den;
#X obj 154 346 r \$0-num;
#X obj 96 370 + 1;
#X obj 76 646 s \$0-stereo-delay-rate-left-r;
#X obj 103 624 s \$0-stereo-delay-rate-right-r;
#X obj 84 48 inlet~;
#X obj 43 134 timer;
#X obj 43 88 threshold~ 0.9 0 0.9 0;
#X obj 769 281 r \$0-pingpong_mode;
#X obj 769 303 select 0 1;
#X obj 105 149 s \$0-tap-bng-r;
#X obj 696 622 savestate;
#X obj 820 494 r \$0-den;
#X obj 715 497 r \$0-num;
#X obj 690 580 pack f f;
#X obj 683 549 f;
#X obj 792 575 list prepend -tapmode;
#X obj 696 643 list trim;
#X obj 696 664 route -tapmode;
#X obj 696 685 unpack f f;
#X obj 659 713 s \$0-num;
#X obj 764 710 s \$0-den;
#X msg 617 388 color #FFAAFF #FFAAFF #AAAAAA;
#X msg 627 418 color #FFAAFF #FFAAFF #000000;
#X obj 79 487 t f b b;
#X msg 319 615 1;
#X obj 331 667 change;
#X obj 331 688 s \$0-pingpong_mode;
#X msg 359 612 0;
#X obj 359 591 delay 4000;
#X obj 43 112 t b b b;
#X connect 8 0 11 0;
#X connect 9 0 18 0;
#X connect 10 0 14 1;
#X connect 11 0 13 0;
#X connect 11 1 24 0;
#X connect 13 0 14 0;
#X connect 14 0 15 0;
#X connect 15 0 16 0;
#X connect 17 0 19 0;
#X connect 18 0 19 0;
#X connect 18 1 21 0;
#X connect 19 0 20 0;
#X connect 20 0 23 0;
#X connect 21 0 23 1;
#X connect 22 0 12 0;
#X connect 23 0 22 0;
#X connect 24 0 25 0;
#X connect 25 0 28 0;
#X connect 26 0 25 1;
#X connect 28 0 27 0;
#X connect 29 0 31 0;
#X connect 30 0 44 0;
#X connect 30 0 43 0;
#X connect 31 0 30 0;
#X connect 32 0 64 0;
#X connect 33 0 34 0;
#X connect 34 0 32 0;
#X connect 39 0 34 1;
#X connect 40 0 42 0;
#X connect 41 0 39 0;
#X connect 42 0 33 1;
#X connect 45 0 47 0;
#X connect 46 0 33 0;
#X connect 47 0 70 0;
#X connect 48 0 49 0;
#X connect 49 0 62 0;
#X connect 49 1 63 0;
#X connect 51 0 57 0;
#X connect 51 1 55 0;
#X connect 52 0 54 1;
#X connect 53 0 55 1;
#X connect 54 0 56 0;
#X connect 55 0 54 0;
#X connect 56 0 51 0;
#X connect 57 0 58 0;
#X connect 58 0 59 0;
#X connect 59 0 60 0;
#X connect 59 1 61 0;
#X connect 62 0 12 0;
#X connect 63 0 12 0;
#X connect 64 0 29 0;
#X connect 64 1 65 0;
#X connect 64 2 69 0;
#X connect 65 0 66 0;
#X connect 66 0 67 0;
#X connect 68 0 66 0;
#X connect 69 0 68 0;
#X connect 70 0 46 0;
#X connect 70 1 46 1;
#X connect 70 2 50 0;
#X restore 1041 61 pd tap-mode;
#X obj 283 113 bng 14 50 50 0 empty \$0-tap-bng-r empty 0 -8 0 10 #e3c6ff #9c00ff #000000;
#X obj 532 140 r \$0-pingpong_mode;
#X obj 639 307 r \$0-pingpong_mode;
#X obj 221 188 tgl 15 0 \$0-fb-post-lop-s \$0-fb-post-lop-r FB-PRE-EQ 16 8 0 10 #999999 #999999 #000000 0 1;
#N canvas 160 160 723 563 FB-pre/post-EQ-gui 0;
#X obj 76 26 r \$0-fb-post-lop-s;
#X obj 56 79 select 0 1;
#X obj 39 180 s \$0-fb-post-lop-r;
#X msg 45 113 color #555555 #555555 #000000 \, label FB-POST-EQ;
#X msg 35 153 color #999999 #999999 #000000 \, label FB-PRE-EQ;
#X obj 382 289 savestate;
#X obj 395 199 r \$0-fb-post-lop-s;
#X obj 379 228 f;
#X obj 379 249 list prepend -fb-post-eq;
#X obj 382 310 list trim;
#X obj 381 345 route -fb-post-eq;
#X obj 381 366 s \$0-fb-post-lop-s;
#X connect 0 0 1 0;
#X connect 1 0 4 0;
#X connect 1 1 3 0;
#X connect 3 0 2 0;
#X connect 4 0 2 0;
#X connect 5 0 9 0;
#X connect 5 1 7 0;
#X connect 6 0 7 1;
#X connect 7 0 8 0;
#X connect 8 0 5 0;
#X connect 9 0 10 0;
#X connect 10 0 11 0;
#X restore 263 32 pd FB-pre/post-EQ-gui;
#X connect 2 0 24 0;
#X connect 2 0 4 0;
#X connect 2 0 56 0;
#X connect 2 1 71 0;
#X connect 3 0 17 0;
#X connect 4 0 16 0;
#X connect 5 0 3 0;
#X connect 7 0 8 0;
#X connect 7 1 13 0;
#X connect 8 0 9 0;
#X connect 9 0 10 0;
#X connect 10 0 11 0;
#X connect 11 0 12 0;
#X connect 12 0 4 1;
#X connect 13 0 14 0;
#X connect 14 0 15 0;
#X connect 15 0 5 1;
#X connect 15 0 27 1;
#X connect 16 0 17 0;
#X connect 16 0 28 0;
#X connect 17 0 18 0;
#X connect 18 0 19 0;
#X connect 23 0 66 0;
#X connect 24 0 46 0;
#X connect 26 0 28 0;
#X connect 27 0 26 0;
#X connect 28 0 29 0;
#X connect 29 0 30 0;
#X connect 35 0 24 1;
#X connect 36 0 24 3;
#X connect 37 0 38 0;
#X connect 38 0 27 0;
#X connect 40 0 58 0;
#X connect 41 0 42 0;
#X connect 42 0 43 0;
#X connect 43 0 44 0;
#X connect 44 0 48 0;
#X connect 45 0 40 0;
#X connect 46 0 47 0;
#X connect 47 0 5 0;
#X connect 48 0 46 1;
#X connect 48 1 47 1;
#X connect 48 2 37 1;
#X connect 48 3 38 1;
#X connect 50 0 24 2;
#X connect 53 0 56 3;
#X connect 54 0 56 2;
#X connect 55 0 56 1;
#X connect 56 0 37 0;
#X connect 58 0 41 0;
#X connect 59 0 60 0;
#X connect 60 0 61 0;
#X connect 61 0 58 0;
#X connect 61 1 58 1;
#X connect 62 0 60 0;
#X connect 64 0 56 4;
#X connect 64 0 24 4;
#X connect 66 0 68 0;
#X connect 68 0 65 0;
#X connect 72 0 73 0;
#X connect 73 0 72 0;
#X connect 73 1 72 1;
#X connect 75 0 7 0;
#X connect 79 0 80 0;
#X connect 82 0 24 5;
#X connect 83 0 56 5;
#X coords 0 -1 1 1 200 135 2 100 100;
