#N canvas 0 23 1450 610 10;
#X obj 385 507 vline~;
#X obj 108 133 hsl 128 15 0 127 0 0 \$0-swing_rate-snd \$0-swing_rate-rcv RATE 133 7 0 10 #fcfcfc #000000 #000000 0 1;
#X obj 160 122 cnv 5 5 5 empty empty SWING 0 0 0 12 #fcfcfc #404040 0;
#X obj 394 542 outlet~;
#X obj 380 194 inlet~;
#X obj 634 227 inlet~;
#N canvas 21 22 593 735 state-saving-multiple-instances 0;
#X obj 215 28 loadbang;
#X msg 518 463 rewind;
#X msg 475 463 bang;
#X obj 475 424 t b b;
#X obj 133 579 f;
#X obj 74 373 t b b b;
#X msg 196 579 clear;
#X obj 281 216 outlet;
#X text 277 236 INSTANCE NUMBER;
#X obj 242 92 f \$1;
#X obj 242 128 t f f f;
#X obj 215 61 t b b;
#X obj 66 331 bng 15 250 50 0 empty \$0-save-s empty 17 7 0 10 #fcfcfc #000000 #000000;
#X obj 66 235 r SAVE-S;
#X obj 119 690 reloaded/textfile \$0;
#X obj 114 445 f;
#X msg 115 471 set \$1;
#X obj 136 376 r \$0-swing_rate-snd;
#X obj 261 502 f;
#X obj 261 604 s \$0-swing_rate-rcv;
#X msg 132 650 write statesave/\$1-swing-ss.txt;
#X msg 261 455 read statesave/\$1-swing-ss.txt;
#X obj 261 480 reloaded/textfile \$0 init;
#X connect 0 0 11 0;
#X connect 1 0 22 0;
#X connect 2 0 22 0;
#X connect 3 0 2 0;
#X connect 3 1 1 0;
#X connect 4 0 20 0;
#X connect 5 0 4 0;
#X connect 5 1 15 0;
#X connect 5 2 6 0;
#X connect 6 0 14 0;
#X connect 9 0 10 0;
#X connect 10 0 4 1;
#X connect 10 1 21 0;
#X connect 10 2 7 0;
#X connect 11 0 3 0;
#X connect 11 1 9 0;
#X connect 12 0 5 0;
#X connect 13 0 12 0;
#X connect 15 0 16 0;
#X connect 16 0 14 0;
#X connect 17 0 15 1;
#X connect 18 0 19 0;
#X connect 20 0 14 0;
#X connect 21 0 22 0;
#X connect 22 0 18 0;
#X restore 654 501 pd state-saving-multiple-instances;
#X obj 654 571 s \$0-instance-num;
#X obj 654 523 makefilename %d;
#X obj 200 122 cnv 5 5 5 empty \$0-instance-num 0 0 0 0 12 #fcfcfc #404040 0;
#X msg 654 548 label \$1;
#X obj 103 167 cnv 5 5 5 empty empty OUT 0 0 0 8 #fcfcfc #dc4c90 0;
#X msg 385 485 1 0 \, 0 1 1;
#N canvas 801 76 1117 745 state-saving-via-preset-manager-module 0;
#X msg 755 332 rewind;
#X msg 712 332 bang;
#X obj 712 293 t b b;
#X obj 244 365 f;
#X obj 257 579 f;
#X obj 190 422 t b b b;
#X msg 320 579 clear;
#X obj 244 264 delay 5;
#X obj 190 484 delay 10;
#X msg 190 314 bang;
#X obj 190 147 r STORE-S!;
#X obj 477 250 f;
#X obj 450 207 t b b;
#X obj 465 171 t b f;
#X obj 522 268 f \$1;
#X obj 477 295 pack f f;
#X obj 522 218 loadbang;
#X obj 257 609 pack f f;
#X obj 302 467 loadbang;
#X obj 302 489 f \$1;
#X obj 465 148 r preset-manager-scan;
#X obj 279 148 r preset-manager-store-slot;
#N canvas 0 22 1069 747 morph-parameters 0;
#X obj 176 94 inlet;
#X obj 176 236 pack f f;
#X obj 176 261 line;
#X obj 209 117 r preset-manager-morph-s;
#X msg 72 244 stop;
#X obj 72 214 r STOP-MORPH!;
#X obj 209 206 spigot;
#X obj 398 137 t f f;
#X obj 455 154 == 0;
#X obj 221 176 f;
#X floatatom 455 222 5 0 0 0 - - - 0;
#X obj 398 159 t b f;
#X floatatom 425 192 5 0 0 0 - - - 0;
#X obj 209 139 t f f;
#X obj 398 102 r parameters-s;
#X obj 176 288 outlet;
#X connect 0 0 1 0;
#X connect 1 0 2 0;
#X connect 2 0 15 0;
#X connect 3 0 13 0;
#X connect 4 0 2 0;
#X connect 5 0 4 0;
#X connect 6 0 1 1;
#X connect 7 0 11 0;
#X connect 7 1 8 0;
#X connect 8 0 10 0;
#X connect 9 0 6 0;
#X connect 10 0 1 1;
#X connect 11 0 9 0;
#X connect 11 1 12 0;
#X connect 12 0 6 1;
#X connect 13 0 6 0;
#X connect 13 1 9 1;
#X connect 14 0 7 0;
#X restore 476 587 pd morph-parameters;
#X obj 477 349 reloaded/textfile \$0;
#X obj 243 690 reloaded/textfile \$0;
#X msg 244 438 set \$1;
#X obj 259 308 r \$0-swing_rate-snd;
#X msg 256 650 write statesave/\$1-\$2-swing-ss.txt;
#X obj 476 615 s \$0-swing_rate-rcv;
#X obj 477 371 f;
#X msg 477 324 read statesave/\$1-\$2-swing-ss.txt;
#X connect 0 0 23 0;
#X connect 1 0 23 0;
#X connect 2 0 1 0;
#X connect 2 1 0 0;
#X connect 3 0 25 0;
#X connect 4 0 17 0;
#X connect 5 0 8 0;
#X connect 5 1 7 0;
#X connect 5 2 6 0;
#X connect 6 0 24 0;
#X connect 7 0 3 0;
#X connect 8 0 4 0;
#X connect 9 0 5 0;
#X connect 10 0 9 0;
#X connect 11 0 15 0;
#X connect 12 0 2 0;
#X connect 12 1 11 0;
#X connect 13 0 12 0;
#X connect 13 1 11 1;
#X connect 14 0 15 1;
#X connect 15 0 30 0;
#X connect 16 0 14 0;
#X connect 17 0 27 0;
#X connect 18 0 19 0;
#X connect 19 0 17 1;
#X connect 20 0 13 0;
#X connect 21 0 4 1;
#X connect 22 0 28 0;
#X connect 23 0 29 0;
#X connect 25 0 24 0;
#X connect 26 0 3 1;
#X connect 27 0 24 0;
#X connect 29 0 22 0;
#X connect 30 0 23 0;
#X restore 654 479 pd state-saving-via-preset-manager-module;
#N canvas 297 27 748 331 parameter-nudging-system 0;
#X obj 23 67 clip 0 127;
#X obj 23 22 r \$0-swing_rate-snd;
#X obj 23 95 s \$0-swing_rate-rcv;
#X obj 23 45 reloaded/nudge-parameters;
#X connect 0 0 2 0;
#X connect 1 0 3 0;
#X connect 3 0 0 0;
#X restore 653 454 pd parameter-nudging-system;
#N canvas 632 73 749 752 external-messages 0;
#X floatatom 186 706 5 0 0 0 - - - 0;
#X obj 185 328 spigot;
#X obj 218 288 tgl 15 0 empty empty empty 17 7 0 10 #fcfcfc #000000 #000000 0 1;
#X obj 254 272 ==;
#X obj 269 248 f \$1;
#X obj 269 224 loadbang;
#X msg 185 202 \$1 \$2;
#X msg 185 156 symbol \$1;
#X obj 185 180 pack s f;
#X obj 186 685 f;
#X obj 186 633 t b f;
#X obj 186 656 spigot;
#X obj 185 62 unpack s f f;
#X symbolatom 185 94 10 0 0 0 - - - 0;
#X obj 218 308 t f f;
#X obj 245 332 s \$0-msg-spigot;
#X obj 239 617 r \$0-msg-spigot;
#X obj 184 380 route RATE;
#X obj 185 14 r swing;
#X obj 186 726 s \$0-swing_rate-rcv;
#X connect 0 0 19 0;
#X connect 1 0 17 0;
#X connect 2 0 14 0;
#X connect 3 0 2 0;
#X connect 4 0 3 1;
#X connect 5 0 4 0;
#X connect 6 0 1 0;
#X connect 7 0 8 0;
#X connect 8 0 6 0;
#X connect 9 0 0 0;
#X connect 10 0 11 0;
#X connect 10 1 9 1;
#X connect 11 0 9 0;
#X connect 12 0 13 0;
#X connect 12 1 8 1;
#X connect 12 2 3 0;
#X connect 13 0 7 0;
#X connect 14 0 1 1;
#X connect 14 1 15 0;
#X connect 16 0 11 1;
#X connect 17 0 10 0;
#X connect 18 0 12 0;
#X restore 650 423 pd external-messages;
#X obj 379 219 threshold~ 0.9 0 0.9 0;
#X text 379 170 CLK INPUT;
#X obj 171 107 cnv 5 5 5 empty empty RATE 0 0 0 8 #fcfcfc #404040 0;
#X obj 379 267 timer;
#X obj 379 243 t b b;
#X obj 351 431 delay;
#X obj 379 311 spigot 1;
#X obj 352 405 * 1.2;
#X obj 372 360 t f b b, f 15;
#X msg 512 313 0;
#X obj 351 453 t b b;
#X msg 518 365 1;
#X obj 379 289 moses 1000;
#X text 637 211 RATE;
#X obj 526 230 r \$0-swing_rate-snd;
#X floatatom 222 151 5 0 0 0 - - - 0;
#X floatatom 436 268 5 0 0 0 - - - 0;
#X obj 441 451 t b;
#X obj 103 107 cnv 5 5 5 empty empty CLOCK-IN 0 0 0 8 #fcfcfc #dc4c90 0;
#X obj 526 252 / 254;
#X obj 634 290 snapshot~;
#X obj 660 269 bang~;
#X obj 634 312 change;
#X obj 634 334 * 0.5;
#X obj 634 356 clip -0.5 0.5;
#X obj 538 323 clip 1 1.5;
#X obj 545 279 +;
#X obj 586 265 t b f;
#X floatatom 634 384 5 0 0 0 - - - 0;
#X obj 541 301 + 1;
#X floatatom 602 551 5 0 0 0 - - - 0;
#X obj 10 50 reloaded swing \$0 \$1;
#X obj 50 10 savestate;
#N canvas 0 0 450 300 \$0-gui_listeners 0;
#X obj 10 0 reloaded/hsl_dispatch swing \$0 \$1 0 127 swing_rate-snd swing_rate-rcv RATE #fcfcfc #000000 #000000;
#X restore 10 80 pd \$0-gui_listeners;
#X obj 235 65 loadbang;
#X obj 243 107 cnv 5 5 5 empty empty RESET 0 0 0 8 #fcfcfc #dc4c90 0;
#X obj 784 267 threshold~ 0.9 0 0.9 0;
#X obj 783 199 inlet~ fwd;
#X obj 847 222 route bang;
#X obj 375 336 f;
#X obj 135 77 namecanvas \$0-this;
#X connect 0 0 3 0;
#X connect 4 0 16 0;
#X connect 5 0 36 0;
#X connect 6 0 8 0;
#X connect 8 0 10 0;
#X connect 8 0 46 0;
#X connect 10 0 7 0;
#X connect 12 0 0 0;
#X connect 16 0 20 0;
#X connect 19 0 28 0;
#X connect 19 0 32 0;
#X connect 20 0 19 0;
#X connect 20 1 19 1;
#X connect 21 0 26 0;
#X connect 22 0 55 0;
#X connect 23 0 21 0;
#X connect 24 0 23 0;
#X connect 24 1 12 0;
#X connect 24 2 25 0;
#X connect 25 0 22 1;
#X connect 26 0 12 0;
#X connect 26 1 27 0;
#X connect 27 0 22 1;
#X connect 28 0 22 0;
#X connect 28 1 33 0;
#X connect 30 0 35 0;
#X connect 33 0 12 0;
#X connect 35 0 42 0;
#X connect 36 0 38 0;
#X connect 37 0 36 0;
#X connect 38 0 39 0;
#X connect 39 0 40 0;
#X connect 40 0 43 0;
#X connect 40 0 44 0;
#X connect 41 0 23 1;
#X connect 41 0 31 0;
#X connect 42 0 45 0;
#X connect 43 0 42 0;
#X connect 43 1 42 1;
#X connect 45 0 41 0;
#X connect 47 0 48 0;
#X connect 48 0 47 0;
#X connect 48 1 47 1;
#X connect 50 0 1 0;
#X connect 52 0 55 0;
#X connect 53 0 52 0;
#X connect 53 1 54 0;
#X connect 54 0 55 0;
#X connect 55 0 24 0;
#X coords 0 -1 1 1 175 75 2 100 100;
