#N canvas 4 22 1920 966 10;
#X obj 144 162 vsl 20 128 0 127 0 0 \$0-tm-slider3-s \$0-tm-slider3-r 1 3 -9 0 10 #ffffff #000000 #000000 0 1;
#X obj 104 293 hradio 20 1 0 8 \$0-tm-step-gui-s \$0-tm-step-gui-r empty 0 -8 0 10 #ffffff #de4c91 #000000 0;
#N canvas 30 22 537 477 sliders-gui 0;
#X obj 38 66 / 127;
#X obj 38 88 * 119;
#X obj 38 109 + 1;
#X obj 38 131 i;
#X floatatom 38 152 5 0 0 0 - - - 0;
#X obj 38 44 r \$0-tm-slider1-s;
#X obj 38 172 makefilename %d;
#X msg 38 195 label \$1;
#X obj 38 217 s \$0-tm-slider1-r;
#X obj 159 67 / 127;
#X obj 159 89 * 119;
#X obj 159 110 + 1;
#X obj 159 132 i;
#X floatatom 159 153 5 0 0 0 - - - 0;
#X obj 159 173 makefilename %d;
#X msg 159 196 label \$1;
#X obj 159 45 r \$0-tm-slider2-s;
#X obj 159 218 s \$0-tm-slider2-r;
#X obj 271 67 / 127;
#X obj 271 89 * 119;
#X obj 271 110 + 1;
#X obj 271 132 i;
#X floatatom 271 153 5 0 0 0 - - - 0;
#X obj 271 173 makefilename %d;
#X msg 271 196 label \$1;
#X obj 271 45 r \$0-tm-slider3-s;
#X obj 271 218 s \$0-tm-slider3-r;
#X obj 385 66 / 127;
#X obj 385 88 * 119;
#X obj 385 109 + 1;
#X obj 385 131 i;
#X floatatom 385 152 5 0 0 0 - - - 0;
#X obj 385 172 makefilename %d;
#X msg 385 195 label \$1;
#X obj 385 44 r \$0-tm-slider4-s;
#X obj 385 217 s \$0-tm-slider4-r;
#X obj 36 269 / 127;
#X obj 36 291 * 119;
#X obj 36 312 + 1;
#X obj 36 334 i;
#X floatatom 36 355 5 0 0 0 - - - 0;
#X obj 36 375 makefilename %d;
#X msg 36 398 label \$1;
#X obj 157 270 / 127;
#X obj 157 292 * 119;
#X obj 157 313 + 1;
#X obj 157 335 i;
#X floatatom 157 356 5 0 0 0 - - - 0;
#X obj 157 376 makefilename %d;
#X msg 157 399 label \$1;
#X obj 269 270 / 127;
#X obj 269 292 * 119;
#X obj 269 313 + 1;
#X obj 269 335 i;
#X floatatom 269 356 5 0 0 0 - - - 0;
#X obj 269 376 makefilename %d;
#X msg 269 399 label \$1;
#X obj 383 269 / 127;
#X obj 383 291 * 119;
#X obj 383 312 + 1;
#X obj 383 334 i;
#X floatatom 383 355 5 0 0 0 - - - 0;
#X obj 383 375 makefilename %d;
#X msg 383 398 label \$1;
#X obj 36 247 r \$0-tm-slider5-s;
#X obj 36 420 s \$0-tm-slider5-r;
#X obj 157 248 r \$0-tm-slider6-s;
#X obj 157 421 s \$0-tm-slider6-r;
#X obj 269 248 r \$0-tm-slider7-s;
#X obj 269 421 s \$0-tm-slider7-r;
#X obj 383 247 r \$0-tm-slider8-s;
#X obj 383 420 s \$0-tm-slider8-r;
#X connect 0 0 1 0;
#X connect 1 0 2 0;
#X connect 2 0 3 0;
#X connect 3 0 4 0;
#X connect 4 0 6 0;
#X connect 5 0 0 0;
#X connect 6 0 7 0;
#X connect 7 0 8 0;
#X connect 9 0 10 0;
#X connect 10 0 11 0;
#X connect 11 0 12 0;
#X connect 12 0 13 0;
#X connect 13 0 14 0;
#X connect 14 0 15 0;
#X connect 15 0 17 0;
#X connect 16 0 9 0;
#X connect 18 0 19 0;
#X connect 19 0 20 0;
#X connect 20 0 21 0;
#X connect 21 0 22 0;
#X connect 22 0 23 0;
#X connect 23 0 24 0;
#X connect 24 0 26 0;
#X connect 25 0 18 0;
#X connect 27 0 28 0;
#X connect 28 0 29 0;
#X connect 29 0 30 0;
#X connect 30 0 31 0;
#X connect 31 0 32 0;
#X connect 32 0 33 0;
#X connect 33 0 35 0;
#X connect 34 0 27 0;
#X connect 36 0 37 0;
#X connect 37 0 38 0;
#X connect 38 0 39 0;
#X connect 39 0 40 0;
#X connect 40 0 41 0;
#X connect 41 0 42 0;
#X connect 42 0 65 0;
#X connect 43 0 44 0;
#X connect 44 0 45 0;
#X connect 45 0 46 0;
#X connect 46 0 47 0;
#X connect 47 0 48 0;
#X connect 48 0 49 0;
#X connect 49 0 67 0;
#X connect 50 0 51 0;
#X connect 51 0 52 0;
#X connect 52 0 53 0;
#X connect 53 0 54 0;
#X connect 54 0 55 0;
#X connect 55 0 56 0;
#X connect 56 0 69 0;
#X connect 57 0 58 0;
#X connect 58 0 59 0;
#X connect 59 0 60 0;
#X connect 60 0 61 0;
#X connect 61 0 62 0;
#X connect 62 0 63 0;
#X connect 63 0 71 0;
#X connect 64 0 36 0;
#X connect 66 0 43 0;
#X connect 68 0 50 0;
#X connect 70 0 57 0;
#X restore 1278 17 pd sliders-gui;
#X obj 104 162 vsl 20 128 0 127 0 0 \$0-tm-slider1-s \$0-tm-slider1-r 1 3 -9 0 10 #ffffff #000000 #000000 0 1;
#X obj 124 162 vsl 20 128 0 127 0 0 \$0-tm-slider2-s \$0-tm-slider2-r 1 3 -9 0 10 #ffffff #000000 #000000 0 1;
#X obj 204 162 vsl 20 128 0 127 0 0 \$0-tm-slider6-s \$0-tm-slider6-r 1 3 -9 0 10 #ffffff #000000 #000000 0 1;
#X obj 164 162 vsl 20 128 0 127 0 0 \$0-tm-slider4-s \$0-tm-slider4-r 1 3 -9 0 10 #ffffff #000000 #000000 0 1;
#X obj 184 162 vsl 20 128 0 127 0 0 \$0-tm-slider5-s \$0-tm-slider5-r 1 3 -9 0 10 #ffffff #000000 #000000 0 1;
#X obj 244 162 vsl 20 128 0 127 0 0 \$0-tm-slider8-s \$0-tm-slider8-r 1 3 -9 0 10 #ffffff #000000 #000000 0 1;
#X obj 224 162 vsl 20 128 0 127 0 0 \$0-tm-slider7-s \$0-tm-slider7-r 1 3 -9 0 10 #ffffff #000000 #000000 0 1;
#X obj 527 0 tgl 15 0 empty empty empty 17 7 0 10 #fcfcfc #000000 #000000 0 1;
#X obj 291 305 bng 30 250 50 0 empty empty empty 5 40 0 10 #000000 #dc4c90 #000000;
#X obj 527 92 f;
#X obj 623 92 + 1;
#X floatatom 527 165 5 0 0 0 - - - 0;
#X obj 674 102 s \$0-tm-reset;
#X obj 702 168 r \$0-tm-select;
#X msg 778 197 0;
#X obj 645 412 s \$0-tm-step-gui-r;
#X obj 822 15 sel 1;
#X msg 827 67 0;
#X obj 714 689 s \$0-tm-step-gui-r;
#X obj 525 112 t f f;
#X floatatom 244 332 3 0 0 0 - \$0-tm-counter8-gui-r \$0-tm-counter8-gui-s 0;
#N canvas 159 10 608 422 sliders-to-counter 0;
#X obj 56 73 r \$0-tm-slider1-s;
#X obj 56 95 / 127;
#X obj 56 117 * 119;
#X obj 56 141 i;
#X floatatom 56 163 5 0 0 0 - - - 0;
#X obj 56 182 s \$0-tm-time1;
#X obj 179 96 / 127;
#X obj 179 118 * 119;
#X obj 179 142 i;
#X floatatom 179 164 5 0 0 0 - - - 0;
#X obj 179 74 r \$0-tm-slider2-s;
#X obj 179 183 s \$0-tm-time2;
#X obj 300 97 / 127;
#X obj 300 119 * 119;
#X obj 300 143 i;
#X floatatom 300 165 5 0 0 0 - - - 0;
#X obj 300 75 r \$0-tm-slider3-s;
#X obj 300 184 s \$0-tm-time3;
#X obj 419 97 / 127;
#X obj 419 119 * 119;
#X obj 419 143 i;
#X floatatom 419 165 5 0 0 0 - - - 0;
#X obj 419 75 r \$0-tm-slider4-s;
#X obj 419 184 s \$0-tm-time4;
#X obj 55 258 / 127;
#X obj 55 280 * 119;
#X obj 55 303 i;
#X floatatom 55 325 5 0 0 0 - - - 0;
#X obj 178 259 / 127;
#X obj 178 281 * 119;
#X obj 178 304 i;
#X floatatom 178 326 5 0 0 0 - - - 0;
#X obj 299 260 / 127;
#X obj 299 282 * 119;
#X obj 299 305 i;
#X floatatom 299 327 5 0 0 0 - - - 0;
#X obj 418 260 / 127;
#X obj 418 282 * 119;
#X obj 418 305 i;
#X floatatom 418 327 5 0 0 0 - - - 0;
#X obj 55 236 r \$0-tm-slider5-s;
#X obj 55 344 s \$0-tm-time5;
#X obj 178 237 r \$0-tm-slider6-s;
#X obj 178 345 s \$0-tm-time6;
#X obj 299 238 r \$0-tm-slider7-s;
#X obj 299 346 s \$0-tm-time7;
#X obj 418 238 r \$0-tm-slider8-s;
#X obj 418 346 s \$0-tm-time8;
#X connect 0 0 1 0;
#X connect 1 0 2 0;
#X connect 2 0 3 0;
#X connect 3 0 4 0;
#X connect 4 0 5 0;
#X connect 6 0 7 0;
#X connect 7 0 8 0;
#X connect 8 0 9 0;
#X connect 9 0 11 0;
#X connect 10 0 6 0;
#X connect 12 0 13 0;
#X connect 13 0 14 0;
#X connect 14 0 15 0;
#X connect 15 0 17 0;
#X connect 16 0 12 0;
#X connect 18 0 19 0;
#X connect 19 0 20 0;
#X connect 20 0 21 0;
#X connect 21 0 23 0;
#X connect 22 0 18 0;
#X connect 24 0 25 0;
#X connect 25 0 26 0;
#X connect 26 0 27 0;
#X connect 27 0 41 0;
#X connect 28 0 29 0;
#X connect 29 0 30 0;
#X connect 30 0 31 0;
#X connect 31 0 43 0;
#X connect 32 0 33 0;
#X connect 33 0 34 0;
#X connect 34 0 35 0;
#X connect 35 0 45 0;
#X connect 36 0 37 0;
#X connect 37 0 38 0;
#X connect 38 0 39 0;
#X connect 39 0 47 0;
#X connect 40 0 24 0;
#X connect 42 0 28 0;
#X connect 44 0 32 0;
#X connect 46 0 36 0;
#X restore 1278 39 pd sliders-to-counter;
#X obj 556 148 s \$0-tm-counter;
#X obj 629 449 s \$0-tm-counter2;
#N canvas 0 22 820 641 counter-gui-boxes 0;
#X obj 74 45 r \$0-tm-counter;
#X obj 176 52 r \$0-tm-counter2;
#X obj 43 240 s \$0-tm-counter1-gui-r;
#X floatatom 259 94 5 0 0 0 - - - 0;
#X obj 76 112 list prepend 0;
#X obj 76 133 route 0 1 2 3 4 5 6 7;
#X obj 53 260 s \$0-tm-counter2-gui-r;
#X obj 63 280 s \$0-tm-counter3-gui-r;
#X obj 73 300 s \$0-tm-counter4-gui-r;
#X obj 83 320 s \$0-tm-counter5-gui-r;
#X obj 93 340 s \$0-tm-counter6-gui-r;
#X obj 103 360 s \$0-tm-counter7-gui-r;
#X obj 113 380 s \$0-tm-counter8-gui-r;
#X obj 281 141 change;
#X obj 281 162 - 1;
#X obj 351 166 mod 8;
#X msg 281 204 \$1 0;
#X msg 348 212 \$1 1;
#X obj 343 307 bng 16 250 50 0 empty empty empty 0 -8 0 10 #fcfcfc #000000 #000000;
#X obj 373 307 bng 16 250 50 0 empty empty empty 0 -8 0 10 #fcfcfc #000000 #000000;
#X obj 396 307 bng 16 250 50 0 empty empty empty 0 -8 0 10 #fcfcfc #000000 #000000;
#X obj 426 307 bng 16 250 50 0 empty empty empty 0 -8 0 10 #fcfcfc #000000 #000000;
#X obj 446 307 bng 16 250 50 0 empty empty empty 0 -8 0 10 #fcfcfc #000000 #000000;
#X obj 472 310 bng 16 250 50 0 empty empty empty 0 -8 0 10 #fcfcfc #000000 #000000;
#X obj 492 310 bng 16 250 50 0 empty empty empty 0 -8 0 10 #fcfcfc #000000 #000000;
#X obj 522 310 bng 16 250 50 0 empty empty empty 0 -8 0 10 #fcfcfc #000000 #000000;
#X obj 340 564 s \$0-tm-b1-r;
#X obj 354 538 s \$0-tm-b2-r;
#X obj 368 511 s \$0-tm-b3-r;
#X obj 392 487 s \$0-tm-b4-r;
#X obj 420 464 s \$0-tm-b5-r;
#X obj 449 439 s \$0-tm-b6-r;
#X obj 460 414 s \$0-tm-b7-r;
#X obj 475 389 s \$0-tm-b8-r;
#X obj 75 79 + 2;
#X obj 350 285 route 0 1 2 3 4 5 6 7, f 34;
#X connect 0 0 34 0;
#X connect 1 0 3 0;
#X connect 1 0 4 1;
#X connect 1 0 13 0;
#X connect 4 0 5 0;
#X connect 5 0 2 0;
#X connect 5 1 6 0;
#X connect 5 2 7 0;
#X connect 5 3 8 0;
#X connect 5 4 9 0;
#X connect 5 5 10 0;
#X connect 5 6 11 0;
#X connect 5 7 12 0;
#X connect 13 0 14 0;
#X connect 13 0 17 0;
#X connect 14 0 15 0;
#X connect 15 0 16 0;
#X connect 15 0 35 0;
#X connect 16 0 5 0;
#X connect 17 0 5 0;
#X connect 34 0 4 0;
#X connect 35 0 18 0;
#X connect 35 0 26 0;
#X connect 35 1 19 0;
#X connect 35 1 27 0;
#X connect 35 2 20 0;
#X connect 35 2 28 0;
#X connect 35 3 21 0;
#X connect 35 3 29 0;
#X connect 35 4 22 0;
#X connect 35 4 30 0;
#X connect 35 5 23 0;
#X connect 35 5 31 0;
#X connect 35 6 24 0;
#X connect 35 6 32 0;
#X connect 35 7 25 0;
#X connect 35 7 33 0;
#X restore 1278 61 pd counter-gui-boxes;
#X floatatom 104 332 3 0 0 0 - \$0-tm-counter1-gui-r \$0-tm-counter1-gui-s 0;
#X floatatom 124 332 3 0 0 0 - \$0-tm-counter2-gui-r \$0-tm-counter2-gui-s 0;
#X floatatom 144 332 3 0 0 0 - \$0-tm-counter3-gui-r \$0-tm-counter3-gui-s 0;
#X floatatom 164 332 3 0 0 0 - \$0-tm-counter4-gui-r \$0-tm-counter4-gui-s 0;
#X floatatom 184 332 3 0 0 0 - \$0-tm-counter5-gui-r \$0-tm-counter5-gui-s 0;
#X floatatom 204 332 3 0 0 0 - \$0-tm-counter6-gui-r \$0-tm-counter6-gui-s 0;
#X floatatom 224 332 3 0 0 0 - \$0-tm-counter7-gui-r \$0-tm-counter7-gui-s 0;
#X obj 104 139 cnv 5 5 5 empty empty TIME-MANAGER 0 0 0 12 #fcfcfc #404040 0;
#X obj 192 139 cnv 5 5 5 empty \$0-instance-num 1 0 0 0 12 #fcfcfc #404040 0;
#X obj 128 356 cnv 5 5 5 empty empty 2 0 0 0 8 #fcfcfc #dc4c90 0;
#X obj 984 892 outlet~ OMNI;
#X obj 16 899 outlet~ S1;
#X obj 85 899 outlet~ S2;
#X obj 153 899 outlet~ S3;
#X obj 222 899 outlet~ S4;
#X obj 299 899 outlet~ S5;
#X obj 378 898 outlet~ S6;
#X obj 463 899 outlet~ S7;
#X obj 545 899 outlet~ S8;
#X obj 104 314 bng 20 250 50 0 \$0-tm-b1-s \$0-tm-b1-r empty 17 7 0 10 #000000 #de4c91 #000000;
#X obj 124 314 bng 20 250 50 0 \$0-tm-b2-s \$0-tm-b2-r empty 17 7 0 10 #000000 #de4c91 #000000;
#X obj 144 314 bng 20 250 50 0 \$0-tm-b3-s \$0-tm-b3-r empty 17 7 0 10 #000000 #de4c91 #000000;
#X obj 164 314 bng 20 250 50 0 \$0-tm-b4-s \$0-tm-b4-r empty 17 7 0 10 #000000 #de4c91 #000000;
#X obj 184 314 bng 20 250 50 0 \$0-tm-b5-s \$0-tm-b5-r empty 17 7 0 10 #000000 #de4c91 #000000;
#X obj 204 314 bng 20 250 50 0 \$0-tm-b6-s \$0-tm-b6-r empty 17 7 0 10 #000000 #de4c91 #000000;
#X obj 224 314 bng 20 250 50 0 \$0-tm-b7-s \$0-tm-b7-r empty 17 7 0 10 #000000 #de4c91 #000000;
#X obj 244 314 bng 20 250 50 0 \$0-tm-b8-s \$0-tm-b8-r empty 17 7 0 10 #000000 #de4c91 #000000;
#X obj 15 724 r \$0-tm-b1-s;
#X obj 85 775 r \$0-tm-b2-s;
#X obj 153 754 r \$0-tm-b3-s;
#X obj 222 790 r \$0-tm-b4-s;
#X obj 299 751 r \$0-tm-b5-s;
#X obj 378 823 r \$0-tm-b6-s;
#X obj 463 822 r \$0-tm-b7-s;
#X obj 545 822 r \$0-tm-b8-s;
#X obj 999 672 r \$0-tm-counter2;
#X obj 999 694 t b;
#X obj 272 110 cnv 5 5 5 empty empty START/STOP 0 0 0 8 #fcfcfc #dc4c90 0;
#X obj 103 356 cnv 5 5 5 empty empty 1 0 0 0 8 #fcfcfc #dc4c90 0;
#X obj 156 356 cnv 5 5 5 empty empty 3 0 0 0 8 #fcfcfc #dc4c90 0;
#X obj 267 261 tgl 30 0 \$0-tm-loop-s \$0-tm-loop-r LOOP 0 -9 0 10 #ffffff #000000 #000000 0 1;
#X obj 210 356 cnv 5 5 5 empty empty 5 0 0 0 8 #fcfcfc #dc4c90 0;
#X obj 183 356 cnv 5 5 5 empty empty 4 0 0 0 8 #fcfcfc #dc4c90 0;
#X obj 290 356 cnv 5 5 5 empty empty 8 0 0 0 8 #fcfcfc #dc4c90 0;
#X obj 238 356 cnv 5 5 5 empty empty 6 0 0 0 8 #fcfcfc #dc4c90 0;
#X obj 264 356 cnv 5 5 5 empty empty 7 0 0 0 8 #fcfcfc #dc4c90 0;
#X obj 307 356 cnv 5 5 5 empty empty ALL 0 0 0 8 #fcfcfc #dc4c90 0;
#X obj 527 -31 r \$0-tm-on/off-s;
#X obj 778 139 loadbang;
#N canvas 0 22 744 413 sync 0;
#X obj 282 9 inlet;
#X msg 282 31 bang;
#X obj 284 173 spigot;
#X msg 282 53 1;
#X obj 317 98 t b b;
#X obj 317 120 delay 1;
#X msg 317 149 0;
#X msg 284 195 1 0 \, 0 1 1;
#X obj 284 217 vline~;
#X obj 284 239 outlet~;
#X obj 463 274 s \$0-tm-b1-r;
#X msg 532 225 color #de4c91 #de4c91 #000000;
#X msg 522 185 color #000000 #de4c91 #000000;
#X obj 317 54 r \$0-tm-sync!;
#X connect 0 0 1 0;
#X connect 1 0 3 0;
#X connect 1 0 11 0;
#X connect 2 0 7 0;
#X connect 3 0 2 1;
#X connect 4 0 5 0;
#X connect 4 1 2 0;
#X connect 5 0 6 0;
#X connect 5 0 12 0;
#X connect 6 0 2 1;
#X connect 7 0 8 0;
#X connect 8 0 9 0;
#X connect 11 0 10 0;
#X connect 12 0 10 0;
#X connect 13 0 4 0;
#X restore 15 832 pd sync;
#X obj 23 -10 inlet~;
#X obj 267 210 bng 30 250 50 1 \$0-RESET!-s \$0-RESET!-r RESET 0 -9 0 10 #ffffff #de4c91 #000000;
#X obj 708 36 r \$0-RESET!-s;
#X msg 708 58 0;
#X obj 604 261 r \$0-RESET!-s;
#X obj 708 36 r \$0-RESET!-s;
#X msg 708 58 0;
#X obj 105 109 cnv 5 5 5 empty empty SYNC 0 0 0 8 #fcfcfc #dc4c90 0;
#X obj 977 3 inlet~;
#X obj 977 25 threshold~ 0.9 0 0.9 0;
#X obj 977 47 t b;
#X obj 105 109 cnv 5 5 5 empty empty SYNC 0 0 0 8 #fcfcfc #dc4c90 0;
#X obj 977 69 s \$0-tm-on/off-r;
#N canvas 855 82 926 752 state-saving-multiple-instances 0;
#X obj 461 15 loadbang;
#X obj 461 48 t b b;
#X msg 793 259 rewind;
#X msg 750 259 bang;
#X obj 109 691 reloaded/textfile \$0;
#X obj 750 220 t b b;
#X obj 110 357 f;
#X obj 123 580 f;
#X obj 48 403 t b b b;
#X msg 186 580 clear;
#X obj 527 204 outlet;
#X text 523 224 INSTANCE NUMBER;
#X obj 488 139 f \$1;
#X obj 488 175 t f f f;
#X obj 48 378 bng 15 250 50 0 empty \$0-save-s empty 17 7 0 10 #fcfcfc #000000 #000000;
#X obj 48 274 r SAVE-S;
#X obj 116 51 r \$0-tm-slider1-s;
#X obj 124 74 r \$0-tm-slider2-s;
#X obj 147 95 r \$0-tm-slider3-s;
#X obj 170 116 r \$0-tm-slider4-s;
#X obj 212 135 r \$0-tm-slider5-s;
#X obj 219 163 r \$0-tm-slider6-s;
#X obj 232 187 r \$0-tm-slider7-s;
#X obj 243 214 r \$0-tm-slider8-s;
#X obj 256 242 r \$0-tm-on/off-s;
#X obj 358 706 s \$0-tm-slider1-r;
#X obj 385 683 s \$0-tm-slider2-r;
#X obj 642 482 s \$0-tm-on/off-r;
#X obj 412 657 s \$0-tm-slider3-r;
#X obj 439 627 s \$0-tm-slider4-r;
#X obj 460 599 s \$0-tm-slider5-r;
#X obj 509 570 s \$0-tm-slider6-r;
#X obj 553 542 s \$0-tm-slider7-r;
#X obj 601 512 s \$0-tm-slider8-r;
#X msg 122 651 write statesave/\$1-time-manager-ss.txt;
#X msg 535 251 read statesave/\$1-time-manager-ss.txt;
#X msg 110 438 set \$1 \$2 \$3 \$4 \$5 \$6 \$7 \$8 \$9 \$10;
#X obj 110 400 pack f f f f f f f f f f;
#X obj 301 310 r \$0-tm-loop-s;
#X obj 541 318 unpack f f f f f f f f f f;
#X obj 778 405 s \$0-tm-loop-r;
#X obj 536 276 reloaded/textfile \$0 init;
#X connect 0 0 1 0;
#X connect 1 0 5 0;
#X connect 1 1 12 0;
#X connect 2 0 41 0;
#X connect 3 0 41 0;
#X connect 5 0 3 0;
#X connect 5 1 2 0;
#X connect 6 0 37 0;
#X connect 7 0 34 0;
#X connect 8 0 7 0;
#X connect 8 1 6 0;
#X connect 8 2 9 0;
#X connect 9 0 4 0;
#X connect 12 0 13 0;
#X connect 13 0 7 1;
#X connect 13 1 35 0;
#X connect 13 2 10 0;
#X connect 14 0 8 0;
#X connect 15 0 14 0;
#X connect 16 0 6 1;
#X connect 17 0 37 1;
#X connect 18 0 37 2;
#X connect 19 0 37 3;
#X connect 20 0 37 4;
#X connect 21 0 37 5;
#X connect 22 0 37 6;
#X connect 23 0 37 7;
#X connect 24 0 37 8;
#X connect 34 0 4 0;
#X connect 35 0 41 0;
#X connect 36 0 4 0;
#X connect 37 0 36 0;
#X connect 38 0 37 9;
#X connect 39 0 25 0;
#X connect 39 1 26 0;
#X connect 39 2 28 0;
#X connect 39 3 29 0;
#X connect 39 4 30 0;
#X connect 39 5 31 0;
#X connect 39 6 32 0;
#X connect 39 7 33 0;
#X connect 39 8 27 0;
#X connect 39 9 40 0;
#X connect 41 0 39 0;
#X restore 1276 111 pd state-saving-multiple-instances;
#X obj 1276 183 s \$0-instance-num;
#X obj 1276 135 makefilename %d;
#X msg 1276 160 label \$1;
#N canvas 297 27 595 563 parameter-nudging-system 0;
#X obj 23 70 clip 0 127;
#X obj 23 22 r \$0-tm-slider1-s;
#X obj 23 102 s \$0-tm-slider1-r;
#X obj 164 70 clip 0 127;
#X obj 328 70 clip 0 127;
#X obj 489 69 clip 0 127;
#X obj 489 21 r \$0-tm-slider4-s;
#X obj 489 101 s \$0-tm-slider4-r;
#X obj 164 22 r \$0-tm-slider2-s;
#X obj 164 102 s \$0-tm-slider2-r;
#X obj 328 22 r \$0-tm-slider3-s;
#X obj 328 102 s \$0-tm-slider3-r;
#X obj 24 188 clip 0 127;
#X obj 165 188 clip 0 127;
#X obj 329 188 clip 0 127;
#X obj 490 187 clip 0 127;
#X obj 24 140 r \$0-tm-slider5-s;
#X obj 24 220 s \$0-tm-slider5-r;
#X obj 165 140 r \$0-tm-slider6-s;
#X obj 165 220 s \$0-tm-slider6-r;
#X obj 329 140 r \$0-tm-slider7-s;
#X obj 329 220 s \$0-tm-slider7-r;
#X obj 490 139 r \$0-tm-slider8-s;
#X obj 490 219 s \$0-tm-slider8-r;
#X obj 22 45 reloaded/nudge-parameters;
#X obj 163 45 reloaded/nudge-parameters;
#X obj 327 45 reloaded/nudge-parameters;
#X obj 488 44 reloaded/nudge-parameters;
#X obj 489 162 reloaded/nudge-parameters;
#X obj 328 163 reloaded/nudge-parameters;
#X obj 164 163 reloaded/nudge-parameters;
#X obj 23 163 reloaded/nudge-parameters;
#X connect 0 0 2 0;
#X connect 1 0 24 0;
#X connect 3 0 9 0;
#X connect 4 0 11 0;
#X connect 5 0 7 0;
#X connect 6 0 27 0;
#X connect 8 0 25 0;
#X connect 10 0 26 0;
#X connect 12 0 17 0;
#X connect 13 0 19 0;
#X connect 14 0 21 0;
#X connect 15 0 23 0;
#X connect 16 0 31 0;
#X connect 18 0 30 0;
#X connect 20 0 29 0;
#X connect 22 0 28 0;
#X connect 24 0 0 0;
#X connect 25 0 3 0;
#X connect 26 0 4 0;
#X connect 27 0 5 0;
#X connect 28 0 15 0;
#X connect 29 0 14 0;
#X connect 30 0 13 0;
#X connect 31 0 12 0;
#X restore 1275 87 pd parameter-nudging-system;
#N canvas 0 22 744 413 sync 0;
#X obj 282 9 inlet;
#X msg 282 31 bang;
#X obj 284 173 spigot;
#X msg 282 53 1;
#X obj 317 98 t b b;
#X obj 317 120 delay 1;
#X msg 317 149 0;
#X msg 284 195 1 0 \, 0 1 1;
#X obj 284 217 vline~;
#X obj 284 239 outlet~;
#X obj 317 54 r \$0-tm-sync!;
#X connect 0 0 1 0;
#X connect 1 0 3 0;
#X connect 2 0 7 0;
#X connect 3 0 2 1;
#X connect 4 0 5 0;
#X connect 4 1 2 0;
#X connect 5 0 6 0;
#X connect 6 0 2 1;
#X connect 7 0 8 0;
#X connect 8 0 9 0;
#X connect 10 0 4 0;
#X restore 996 789 pd sync;
#X obj 105 115 bng 15 50 50 0 empty empty empty 17 7 0 10 #000000 #dc4c90 #000000;
#X obj 128 6 threshold~ 0.9 0 0.9 0;
#X obj 267 160 tgl 30 1 \$0-tm-on/off-s \$0-tm-on/off-r START/STOP -5 -9 0 10 #ffffff #000000 #000000 0 1;
#X obj 1281 272 reloaded time-manager \$0 \$1;
#X obj 1321 232 savestate;
#N canvas 1176 231 494 573 \$0-gui_listeners 0;
#X obj 10 0 reloaded/tgl_dispatch time-manager \$0 \$1 0 1 tm-on/off-s tm-on/off-r START/STOP #FFFFFF #000000 #000000;
#X obj 10 60 reloaded/bng_dispatch time-manager \$0 \$1 250 50 RESET!-s RESET!-r RESET #FFFFFF #DE4C91 #000000;
#X obj 10 120 reloaded/tgl_dispatch time-manager \$0 \$1 0 1 tm-loop-s tm-loop-r LOOP #FFFFFF #000000 #000000;
#X restore 1277 344 pd \$0-gui_listeners;
#X obj 1277 309 namecanvas \$0-this;
#N canvas 0 22 744 413 sync 0;
#X obj 282 9 inlet;
#X msg 282 31 bang;
#X obj 284 173 spigot;
#X msg 282 53 1;
#X obj 317 98 t b b;
#X obj 317 120 delay 1;
#X msg 317 149 0;
#X msg 284 195 1 0 \, 0 1 1;
#X obj 284 217 vline~;
#X obj 284 239 outlet~;
#X msg 532 225 color #de4c91 #de4c91 #000000;
#X msg 522 185 color #000000 #de4c91 #000000;
#X obj 463 274 s \$0-tm-b2-r;
#X obj 317 54 r \$0-tm-sync!;
#X connect 0 0 1 0;
#X connect 1 0 3 0;
#X connect 1 0 10 0;
#X connect 2 0 7 0;
#X connect 3 0 2 1;
#X connect 4 0 5 0;
#X connect 4 1 2 0;
#X connect 5 0 6 0;
#X connect 5 0 11 0;
#X connect 6 0 2 1;
#X connect 7 0 8 0;
#X connect 8 0 9 0;
#X connect 10 0 12 0;
#X connect 11 0 12 0;
#X connect 13 0 4 0;
#X restore 85 832 pd sync;
#N canvas 0 22 744 413 sync 0;
#X obj 282 9 inlet;
#X msg 282 31 bang;
#X obj 284 173 spigot;
#X msg 282 53 1;
#X obj 317 98 t b b;
#X obj 317 120 delay 1;
#X msg 317 149 0;
#X msg 284 195 1 0 \, 0 1 1;
#X obj 284 217 vline~;
#X obj 284 239 outlet~;
#X msg 532 225 color #de4c91 #de4c91 #000000;
#X msg 522 185 color #000000 #de4c91 #000000;
#X obj 463 274 s \$0-tm-b3-r;
#X obj 317 54 r \$0-tm-sync!;
#X connect 0 0 1 0;
#X connect 1 0 3 0;
#X connect 1 0 10 0;
#X connect 2 0 7 0;
#X connect 3 0 2 1;
#X connect 4 0 5 0;
#X connect 4 1 2 0;
#X connect 5 0 6 0;
#X connect 5 0 11 0;
#X connect 6 0 2 1;
#X connect 7 0 8 0;
#X connect 8 0 9 0;
#X connect 10 0 12 0;
#X connect 11 0 12 0;
#X connect 13 0 4 0;
#X restore 155 832 pd sync;
#N canvas 0 22 744 413 sync 0;
#X obj 282 9 inlet;
#X msg 282 31 bang;
#X obj 284 173 spigot;
#X msg 282 53 1;
#X obj 317 98 t b b;
#X obj 317 120 delay 1;
#X msg 317 149 0;
#X msg 284 195 1 0 \, 0 1 1;
#X obj 284 217 vline~;
#X obj 284 239 outlet~;
#X msg 532 225 color #de4c91 #de4c91 #000000;
#X msg 522 185 color #000000 #de4c91 #000000;
#X obj 463 274 s \$0-tm-b4-r;
#X obj 317 54 r \$0-tm-sync!;
#X connect 0 0 1 0;
#X connect 1 0 3 0;
#X connect 1 0 10 0;
#X connect 2 0 7 0;
#X connect 3 0 2 1;
#X connect 4 0 5 0;
#X connect 4 1 2 0;
#X connect 5 0 6 0;
#X connect 5 0 11 0;
#X connect 6 0 2 1;
#X connect 7 0 8 0;
#X connect 8 0 9 0;
#X connect 10 0 12 0;
#X connect 11 0 12 0;
#X connect 13 0 4 0;
#X restore 225 832 pd sync;
#N canvas 0 22 744 413 sync 0;
#X obj 282 9 inlet;
#X msg 282 31 bang;
#X obj 284 173 spigot;
#X msg 282 53 1;
#X obj 317 98 t b b;
#X obj 317 120 delay 1;
#X msg 317 149 0;
#X msg 284 195 1 0 \, 0 1 1;
#X obj 284 217 vline~;
#X obj 284 239 outlet~;
#X msg 532 225 color #de4c91 #de4c91 #000000;
#X msg 522 185 color #000000 #de4c91 #000000;
#X obj 463 274 s \$0-tm-b5-r;
#X obj 317 54 r \$0-tm-sync!;
#X connect 0 0 1 0;
#X connect 1 0 3 0;
#X connect 1 0 10 0;
#X connect 2 0 7 0;
#X connect 3 0 2 1;
#X connect 4 0 5 0;
#X connect 4 1 2 0;
#X connect 5 0 6 0;
#X connect 5 0 11 0;
#X connect 6 0 2 1;
#X connect 7 0 8 0;
#X connect 8 0 9 0;
#X connect 10 0 12 0;
#X connect 11 0 12 0;
#X connect 13 0 4 0;
#X restore 305 852 pd sync;
#N canvas 0 22 744 413 sync 0;
#X obj 282 9 inlet;
#X msg 282 31 bang;
#X obj 284 173 spigot;
#X msg 282 53 1;
#X obj 317 98 t b b;
#X obj 317 120 delay 1;
#X msg 317 149 0;
#X msg 284 195 1 0 \, 0 1 1;
#X obj 284 217 vline~;
#X obj 284 239 outlet~;
#X msg 532 225 color #de4c91 #de4c91 #000000;
#X msg 522 185 color #000000 #de4c91 #000000;
#X obj 463 274 s \$0-tm-b6-r;
#X obj 317 54 r \$0-tm-sync!;
#X connect 0 0 1 0;
#X connect 1 0 3 0;
#X connect 1 0 10 0;
#X connect 2 0 7 0;
#X connect 3 0 2 1;
#X connect 4 0 5 0;
#X connect 4 1 2 0;
#X connect 5 0 6 0;
#X connect 5 0 11 0;
#X connect 6 0 2 1;
#X connect 7 0 8 0;
#X connect 8 0 9 0;
#X connect 10 0 12 0;
#X connect 11 0 12 0;
#X connect 13 0 4 0;
#X restore 375 852 pd sync;
#N canvas 0 22 744 413 sync 0;
#X obj 282 9 inlet;
#X msg 282 31 bang;
#X obj 284 173 spigot;
#X msg 282 53 1;
#X obj 317 98 t b b;
#X obj 317 120 delay 1;
#X msg 317 149 0;
#X msg 284 195 1 0 \, 0 1 1;
#X obj 284 217 vline~;
#X obj 284 239 outlet~;
#X msg 532 225 color #de4c91 #de4c91 #000000;
#X msg 522 185 color #000000 #de4c91 #000000;
#X obj 463 274 s \$0-tm-b7-r;
#X obj 317 54 r \$0-tm-sync!;
#X connect 0 0 1 0;
#X connect 1 0 3 0;
#X connect 1 0 10 0;
#X connect 2 0 7 0;
#X connect 3 0 2 1;
#X connect 4 0 5 0;
#X connect 4 1 2 0;
#X connect 5 0 6 0;
#X connect 5 0 11 0;
#X connect 6 0 2 1;
#X connect 7 0 8 0;
#X connect 8 0 9 0;
#X connect 10 0 12 0;
#X connect 11 0 12 0;
#X connect 13 0 4 0;
#X restore 465 852 pd sync;
#N canvas 0 22 744 413 sync 0;
#X obj 282 9 inlet;
#X msg 282 31 bang;
#X obj 284 173 spigot;
#X msg 282 53 1;
#X obj 317 98 t b b;
#X obj 317 120 delay 1;
#X msg 317 149 0;
#X msg 284 195 1 0 \, 0 1 1;
#X obj 284 217 vline~;
#X obj 284 239 outlet~;
#X msg 532 225 color #de4c91 #de4c91 #000000;
#X msg 522 185 color #000000 #de4c91 #000000;
#X obj 463 274 s \$0-tm-b8-r;
#X obj 317 54 r \$0-tm-sync!;
#X connect 0 0 1 0;
#X connect 1 0 3 0;
#X connect 1 0 10 0;
#X connect 2 0 7 0;
#X connect 3 0 2 1;
#X connect 4 0 5 0;
#X connect 4 1 2 0;
#X connect 5 0 6 0;
#X connect 5 0 11 0;
#X connect 6 0 2 1;
#X connect 7 0 8 0;
#X connect 8 0 9 0;
#X connect 10 0 12 0;
#X connect 11 0 12 0;
#X connect 13 0 4 0;
#X restore 535 852 pd sync;
#X obj 527 185 moses;
#N canvas 160 160 450 252 update_savestate_for_GUIS_without_listeners 0;
#X obj 87 213 t b;
#X obj 87 242 delay 100;
#X text 257 189 sent to [bng] in [pd state-saving-multiple-instances];
#X obj 190 8 r \$0-tm-time1;
#X obj 193 34 r \$0-tm-time2;
#X obj 189 60 r \$0-tm-time3;
#X obj 191 86 r \$0-tm-time4;
#X obj 191 104 r \$0-tm-time5;
#X obj 183 123 r \$0-tm-time6;
#X obj 183 148 r \$0-tm-time7;
#X obj 184 170 r \$0-tm-time8;
#X obj 87 271 s \$0-save-s;
#X connect 0 0 1 0;
#X connect 1 0 11 0;
#X connect 3 0 0 0;
#X connect 4 0 0 0;
#X connect 5 0 0 0;
#X connect 6 0 0 0;
#X connect 7 0 0 0;
#X connect 8 0 0 0;
#X connect 9 0 0 0;
#X connect 10 0 0 0;
#X restore 1274 371 pd update_savestate_for_GUIS_without_listeners;
#X obj 154 46 s \$0-tm-sync!;
#X obj 322 31 bng 16 250 50 0 empty empty empty 0 -8 0 10 #fcfcfc #000000 #000000;
#X msg 682 200 0;
#X obj 583 337 f;
#X obj 642 537 r \$0-tm-loop-s;
#X obj 592 590 f;
#X obj 597 616 select 0 1;
#X obj 655 721 s \$0-tm-on/off-r;
#X msg 634 685 0;
#X msg 705 656 0;
#X obj 527 18 t f f;
#X obj 15 745 bng 16 250 50 0 empty empty empty 0 -8 0 10 #fcfcfc #000000 #000000;
#X obj 85 796 bng 16 250 50 0 empty empty empty 0 -8 0 10 #fcfcfc #000000 #000000;
#X obj 545 843 bng 16 250 50 0 empty empty empty 0 -8 0 10 #fcfcfc #000000 #000000;
#X obj 153 775 bng 16 250 50 0 empty empty empty 0 -8 0 10 #fcfcfc #000000 #000000;
#X obj 222 811 bng 16 250 50 0 empty empty empty 0 -8 0 10 #fcfcfc #000000 #000000;
#X obj 299 772 bng 16 250 50 0 empty empty empty 0 -8 0 10 #fcfcfc #000000 #000000;
#X obj 378 844 bng 16 250 50 0 empty empty empty 0 -8 0 10 #fcfcfc #000000 #000000;
#X obj 463 843 bng 16 250 50 0 empty empty empty 0 -8 0 10 #fcfcfc #000000 #000000;
#X obj 580 553 select 0;
#X obj 668 384 + 1;
#X obj 600 647 t b b;
#X obj 583 524 change;
#X obj 668 346 mod 8;
#X obj 737 297 + 1;
#X msg 604 286 0;
#N canvas 192 192 450 276 set_time 0;
#X obj 150 43 inlet;
#X obj 125 478 f;
#X obj 115 428 bng 15 250 50 0 empty empty empty 17 7 0 10 #fcfcfc #000000 #000000;
#X obj 140 368 f;
#X floatatom 140 391 5 0 0 0 - - - 0;
#X obj 140 323 bng 15 250 50 0 empty empty empty 17 7 0 10 #fcfcfc #000000 #000000;
#X obj 125 523 s \$0-tm-select;
#X obj 140 413 s \$0-tm-select;
#X floatatom 125 500 5 0 0 0 - - - 0;
#X obj 156 259 f;
#X floatatom 156 281 5 0 0 0 - - - 0;
#X obj 156 219 bng 15 250 50 0 empty empty empty 17 7 0 10 #fcfcfc #000000 #000000;
#X obj 156 303 s \$0-tm-select;
#X obj 172 153 f;
#X floatatom 172 175 5 0 0 0 - - - 0;
#X obj 172 113 bng 15 250 50 0 empty empty empty 17 7 0 10 #fcfcfc #000000 #000000;
#X obj 172 197 s \$0-tm-select;
#X obj 370 498 f;
#X obj 370 454 bng 15 250 50 0 empty empty empty 17 7 0 10 #fcfcfc #000000 #000000;
#X obj 385 388 f;
#X floatatom 385 411 5 0 0 0 - - - 0;
#X obj 385 343 bng 15 250 50 0 empty empty empty 17 7 0 10 #fcfcfc #000000 #000000;
#X obj 370 543 s \$0-tm-select;
#X obj 385 433 s \$0-tm-select;
#X floatatom 370 520 5 0 0 0 - - - 0;
#X obj 401 279 f;
#X floatatom 401 301 5 0 0 0 - - - 0;
#X obj 401 239 bng 15 250 50 0 empty empty empty 17 7 0 10 #fcfcfc #000000 #000000;
#X obj 401 323 s \$0-tm-select;
#X obj 417 173 f;
#X floatatom 417 195 5 0 0 0 - - - 0;
#X obj 417 133 bng 15 250 50 0 empty empty empty 17 7 0 10 #fcfcfc #000000 #000000;
#X obj 417 217 s \$0-tm-select;
#X obj 125 88 sel 0 1 2 3;
#X obj 370 107 sel 4 5 6 7;
#X obj 140 453 r \$0-tm-time1;
#X obj 155 344 r \$0-tm-time2;
#X obj 171 238 r \$0-tm-time3;
#X obj 187 132 r \$0-tm-time4;
#X obj 385 473 r \$0-tm-time5;
#X obj 400 364 r \$0-tm-time6;
#X obj 415 258 r \$0-tm-time7;
#X obj 432 152 r \$0-tm-time8;
#X obj 255 489 spigot;
#X obj 251 388 r \$0-tm-on/off-s;
#X obj 251 410 sel 0 1;
#X obj 282 439 delay 1000;
#X msg 282 461 1;
#X msg 251 432 0;
#X floatatom 227 153 5 0 0 0 - - - 0;
#X floatatom 211 259 5 0 0 0 - - - 0;
#X floatatom 195 365 5 0 0 0 - - - 0;
#X floatatom 180 474 5 0 0 0 - - - 0;
#X floatatom 457 172 5 0 0 0 - - - 0;
#X connect 0 0 33 0;
#X connect 1 0 8 0;
#X connect 2 0 1 0;
#X connect 2 0 43 0;
#X connect 3 0 4 0;
#X connect 4 0 7 0;
#X connect 5 0 3 0;
#X connect 8 0 6 0;
#X connect 9 0 10 0;
#X connect 10 0 12 0;
#X connect 11 0 9 0;
#X connect 13 0 14 0;
#X connect 14 0 16 0;
#X connect 15 0 13 0;
#X connect 17 0 24 0;
#X connect 18 0 17 0;
#X connect 19 0 20 0;
#X connect 20 0 23 0;
#X connect 21 0 19 0;
#X connect 24 0 22 0;
#X connect 25 0 26 0;
#X connect 26 0 28 0;
#X connect 27 0 25 0;
#X connect 29 0 30 0;
#X connect 30 0 32 0;
#X connect 31 0 29 0;
#X connect 33 0 2 0;
#X connect 33 1 5 0;
#X connect 33 2 11 0;
#X connect 33 3 15 0;
#X connect 33 4 34 0;
#X connect 34 0 18 0;
#X connect 34 1 21 0;
#X connect 34 2 27 0;
#X connect 34 3 31 0;
#X connect 35 0 1 1;
#X connect 35 0 52 0;
#X connect 36 0 3 1;
#X connect 36 0 51 0;
#X connect 37 0 9 1;
#X connect 37 0 50 0;
#X connect 38 0 13 1;
#X connect 38 0 49 0;
#X connect 39 0 17 1;
#X connect 40 0 19 1;
#X connect 41 0 25 1;
#X connect 42 0 29 1;
#X connect 42 0 53 0;
#X connect 44 0 45 0;
#X connect 45 0 48 0;
#X connect 45 1 46 0;
#X connect 46 0 47 0;
#X connect 47 0 43 1;
#X connect 48 0 43 1;
#X restore 610 488 pd set_time;
#X obj 583 368 t f f f f f;
#X obj 513 74 metro 1000;
#X obj 550 229 t b b;
#X connect 10 0 123 0;
#X connect 12 0 13 0;
#X connect 12 0 22 0;
#X connect 13 0 12 1;
#X connect 14 0 111 0;
#X connect 16 0 115 0;
#X connect 16 0 111 1;
#X connect 19 0 20 0;
#X connect 20 0 15 0;
#X connect 22 0 14 0;
#X connect 22 1 25 0;
#X connect 55 0 77 0;
#X connect 55 0 124 0;
#X connect 56 0 104 0;
#X connect 56 0 125 0;
#X connect 57 0 105 0;
#X connect 57 0 127 0;
#X connect 58 0 106 0;
#X connect 58 0 128 0;
#X connect 59 0 107 0;
#X connect 59 0 129 0;
#X connect 60 0 108 0;
#X connect 60 0 130 0;
#X connect 61 0 109 0;
#X connect 61 0 131 0;
#X connect 62 0 110 0;
#X connect 62 0 126 0;
#X connect 63 0 64 0;
#X connect 64 0 96 0;
#X connect 75 0 10 0;
#X connect 76 0 17 0;
#X connect 77 0 39 0;
#X connect 78 0 98 0;
#X connect 80 0 81 0;
#X connect 81 0 15 0;
#X connect 82 0 138 0;
#X connect 83 0 84 0;
#X connect 86 0 87 0;
#X connect 87 0 88 0;
#X connect 88 0 90 0;
#X connect 91 0 93 0;
#X connect 93 0 94 0;
#X connect 94 0 92 0;
#X connect 96 0 38 0;
#X connect 98 0 97 0;
#X connect 98 0 113 0;
#X connect 100 0 101 0;
#X connect 101 0 100 0;
#X connect 101 1 100 1;
#X connect 104 0 40 0;
#X connect 105 0 41 0;
#X connect 106 0 42 0;
#X connect 107 0 43 0;
#X connect 108 0 44 0;
#X connect 109 0 45 0;
#X connect 110 0 46 0;
#X connect 111 1 142 0;
#X connect 114 0 113 0;
#X connect 115 0 12 1;
#X connect 116 0 140 0;
#X connect 117 0 118 1;
#X connect 118 0 119 0;
#X connect 119 0 134 0;
#X connect 119 1 122 0;
#X connect 121 0 120 0;
#X connect 122 0 21 0;
#X connect 122 0 137 0;
#X connect 123 0 141 0;
#X connect 123 1 19 0;
#X connect 132 0 118 0;
#X connect 133 0 136 0;
#X connect 134 0 121 0;
#X connect 134 1 122 0;
#X connect 135 0 132 0;
#X connect 136 0 116 1;
#X connect 137 0 116 1;
#X connect 138 0 116 1;
#X connect 140 0 135 0;
#X connect 140 1 139 0;
#X connect 140 2 26 0;
#X connect 140 3 18 0;
#X connect 140 4 133 0;
#X connect 141 0 12 0;
#X connect 142 0 11 0;
#X connect 142 1 116 0;
#X coords 0 -1 1 1 225 265 2 100 100;
