#N canvas 134 22 1138 752 10;
#X obj 144 162 vsl 20 128 0 127 0 1 \$0-tm-slider3-s \$0-tm-slider3-r
5 3 -9 0 10 -262144 -1 -1 500 1;
#X obj 104 293 hradio 20 1 0 8 \$0-tm-step-gui-s \$0-tm-step-gui-r
empty 0 -8 0 10 -262144 -226533 -1 1;
#N canvas 30 22 537 477 sliders-gui 0;
#X obj 38 66 / 127;
#X obj 38 88 * 119;
#X obj 38 109 + 1;
#X obj 38 131 i;
#X floatatom 38 152 5 0 0 0 - - -, f 5;
#X obj 38 44 r \$0-tm-slider1-s;
#X obj 38 172 makefilename %d;
#X msg 38 195 label \$1;
#X obj 38 217 s \$0-tm-slider1-r;
#X obj 159 67 / 127;
#X obj 159 89 * 119;
#X obj 159 110 + 1;
#X obj 159 132 i;
#X floatatom 159 153 5 0 0 0 - - -, f 5;
#X obj 159 173 makefilename %d;
#X msg 159 196 label \$1;
#X obj 159 45 r \$0-tm-slider2-s;
#X obj 159 218 s \$0-tm-slider2-r;
#X obj 271 67 / 127;
#X obj 271 89 * 119;
#X obj 271 110 + 1;
#X obj 271 132 i;
#X floatatom 271 153 5 0 0 0 - - -, f 5;
#X obj 271 173 makefilename %d;
#X msg 271 196 label \$1;
#X obj 271 45 r \$0-tm-slider3-s;
#X obj 271 218 s \$0-tm-slider3-r;
#X obj 385 66 / 127;
#X obj 385 88 * 119;
#X obj 385 109 + 1;
#X obj 385 131 i;
#X floatatom 385 152 5 0 0 0 - - -, f 5;
#X obj 385 172 makefilename %d;
#X msg 385 195 label \$1;
#X obj 385 44 r \$0-tm-slider4-s;
#X obj 385 217 s \$0-tm-slider4-r;
#X obj 36 269 / 127;
#X obj 36 291 * 119;
#X obj 36 312 + 1;
#X obj 36 334 i;
#X floatatom 36 355 5 0 0 0 - - -, f 5;
#X obj 36 375 makefilename %d;
#X msg 36 398 label \$1;
#X obj 157 270 / 127;
#X obj 157 292 * 119;
#X obj 157 313 + 1;
#X obj 157 335 i;
#X floatatom 157 356 5 0 0 0 - - -, f 5;
#X obj 157 376 makefilename %d;
#X msg 157 399 label \$1;
#X obj 269 270 / 127;
#X obj 269 292 * 119;
#X obj 269 313 + 1;
#X obj 269 335 i;
#X floatatom 269 356 5 0 0 0 - - -, f 5;
#X obj 269 376 makefilename %d;
#X msg 269 399 label \$1;
#X obj 383 269 / 127;
#X obj 383 291 * 119;
#X obj 383 312 + 1;
#X obj 383 334 i;
#X floatatom 383 355 5 0 0 0 - - -, f 5;
#X obj 383 375 makefilename %d;
#X msg 383 398 label \$1;
#X obj 36 247 r \$0-tm-slider5-s;
#X obj 36 420 s \$0-tm-slider5-r;
#X obj 157 248 r \$0-tm-slider6-s;
#X obj 157 421 s \$0-tm-slider6-r;
#X obj 269 248 r \$0-tm-slider7-s;
#X obj 269 421 s \$0-tm-slider7-r;
#X obj 383 247 r \$0-tm-slider8-s;
#X obj 383 420 s \$0-tm-slider8-r;
#X connect 0 0 1 0;
#X connect 1 0 2 0;
#X connect 2 0 3 0;
#X connect 3 0 4 0;
#X connect 4 0 6 0;
#X connect 5 0 0 0;
#X connect 6 0 7 0;
#X connect 7 0 8 0;
#X connect 9 0 10 0;
#X connect 10 0 11 0;
#X connect 11 0 12 0;
#X connect 12 0 13 0;
#X connect 13 0 14 0;
#X connect 14 0 15 0;
#X connect 15 0 17 0;
#X connect 16 0 9 0;
#X connect 18 0 19 0;
#X connect 19 0 20 0;
#X connect 20 0 21 0;
#X connect 21 0 22 0;
#X connect 22 0 23 0;
#X connect 23 0 24 0;
#X connect 24 0 26 0;
#X connect 25 0 18 0;
#X connect 27 0 28 0;
#X connect 28 0 29 0;
#X connect 29 0 30 0;
#X connect 30 0 31 0;
#X connect 31 0 32 0;
#X connect 32 0 33 0;
#X connect 33 0 35 0;
#X connect 34 0 27 0;
#X connect 36 0 37 0;
#X connect 37 0 38 0;
#X connect 38 0 39 0;
#X connect 39 0 40 0;
#X connect 40 0 41 0;
#X connect 41 0 42 0;
#X connect 42 0 65 0;
#X connect 43 0 44 0;
#X connect 44 0 45 0;
#X connect 45 0 46 0;
#X connect 46 0 47 0;
#X connect 47 0 48 0;
#X connect 48 0 49 0;
#X connect 49 0 67 0;
#X connect 50 0 51 0;
#X connect 51 0 52 0;
#X connect 52 0 53 0;
#X connect 53 0 54 0;
#X connect 54 0 55 0;
#X connect 55 0 56 0;
#X connect 56 0 69 0;
#X connect 57 0 58 0;
#X connect 58 0 59 0;
#X connect 59 0 60 0;
#X connect 60 0 61 0;
#X connect 61 0 62 0;
#X connect 62 0 63 0;
#X connect 63 0 71 0;
#X connect 64 0 36 0;
#X connect 66 0 43 0;
#X connect 68 0 50 0;
#X connect 70 0 57 0;
#X restore 345 101 pd sliders-gui;
#X obj 104 162 vsl 20 128 0 127 0 1 \$0-tm-slider1-s \$0-tm-slider1-r
7 3 -9 0 10 -262144 -1 -1 700 1;
#X obj 124 162 vsl 20 128 0 127 0 1 \$0-tm-slider2-s \$0-tm-slider2-r
5 3 -9 0 10 -262144 -1 -1 500 1;
#X obj 204 162 vsl 20 128 0 127 0 1 \$0-tm-slider6-s \$0-tm-slider6-r
2 3 -9 0 10 -262144 -1 -1 200 1;
#X obj 164 162 vsl 20 128 0 127 0 1 \$0-tm-slider4-s \$0-tm-slider4-r
3 3 -9 0 10 -262144 -1 -1 300 1;
#X obj 184 162 vsl 20 128 0 127 0 1 \$0-tm-slider5-s \$0-tm-slider5-r
6 3 -9 0 10 -262144 -1 -1 600 1;
#X obj 244 162 vsl 20 128 0 127 0 1 \$0-tm-slider8-s \$0-tm-slider8-r
5 3 -9 0 10 -262144 -1 -1 500 1;
#X obj 224 162 vsl 20 128 0 127 0 1 \$0-tm-slider7-s \$0-tm-slider7-r
7 3 -9 0 10 -262144 -1 -1 700 1;
#X obj 527 0 tgl 15 0 empty empty empty 17 7 0 10 -262144 -1 -1 0 1
;
#X obj 291 305 bng 30 250 50 0 empty empty empty 5 40 0 10 -1 -226533
-1;
#X obj 527 122 f;
#X obj 555 122 + 1;
#X floatatom 527 165 5 0 0 0 - - -, f 5;
#X obj 527 185 sel;
#X obj 763 249 f;
#X obj 792 249 + 1;
#X floatatom 763 271 5 0 0 0 - - -, f 5;
#X floatatom 763 312 5 0 0 0 - - -, f 5;
#X obj 527 18 t f b b;
#X msg 566 53 0;
#X obj 527 207 bng 15 250 50 0 empty empty empty 17 7 0 10 -262144
-1 -1;
#X msg 554 259 0;
#X obj 554 298 s \$0-tm-reset;
#X obj 606 105 r \$0-tm-reset;
#X obj 566 75 s \$0-tm-reset;
#X obj 535 738 f;
#X obj 525 688 bng 15 250 50 0 empty empty empty 17 7 0 10 -262144
-1 -1;
#X obj 527 232 t b b;
#X obj 550 628 f;
#X floatatom 550 651 5 0 0 0 - - -, f 5;
#X obj 550 583 bng 15 250 50 0 empty empty empty 17 7 0 10 -262144
-1 -1;
#X obj 535 783 s \$0-tm-select;
#X obj 550 673 s \$0-tm-select;
#X floatatom 535 760 5 0 0 0 - - -, f 5;
#X obj 702 168 r \$0-tm-select;
#X msg 778 197 0;
#X obj 566 519 f;
#X floatatom 566 541 5 0 0 0 - - -, f 5;
#X obj 566 479 bng 15 250 50 0 empty empty empty 17 7 0 10 -262144
-1 -1;
#X obj 566 563 s \$0-tm-select;
#X obj 582 413 f;
#X floatatom 582 435 5 0 0 0 - - -, f 5;
#X obj 582 373 bng 15 250 50 0 empty empty empty 17 7 0 10 -262144
-1 -1;
#X obj 582 457 s \$0-tm-select;
#X obj 780 758 f;
#X obj 780 714 bng 15 250 50 0 empty empty empty 17 7 0 10 -262144
-1 -1;
#X obj 795 648 f;
#X floatatom 795 671 5 0 0 0 - - -, f 5;
#X obj 795 603 bng 15 250 50 0 empty empty empty 17 7 0 10 -262144
-1 -1;
#X obj 780 803 s \$0-tm-select;
#X obj 795 693 s \$0-tm-select;
#X floatatom 780 780 5 0 0 0 - - -, f 5;
#X obj 811 539 f;
#X floatatom 811 561 5 0 0 0 - - -, f 5;
#X obj 811 499 bng 15 250 50 0 empty empty empty 17 7 0 10 -262144
-1 -1;
#X obj 811 583 s \$0-tm-select;
#X obj 827 433 f;
#X floatatom 827 455 5 0 0 0 - - -, f 5;
#X obj 827 393 bng 15 250 50 0 empty empty empty 17 7 0 10 -262144
-1 -1;
#X obj 827 477 s \$0-tm-select;
#X obj 887 368 s \$0-tm-step-gui-r;
#X obj 822 15 sel 1;
#X msg 822 64 0;
#X obj 822 96 s \$0-tm-step-gui-r;
#X obj 535 348 sel 0 1 2 3;
#X obj 780 367 sel 4 5 6 7;
#X obj 763 290 % 8;
#X obj 550 713 r \$0-tm-time1;
#X obj 565 604 r \$0-tm-time2;
#X obj 581 498 r \$0-tm-time3;
#X obj 597 392 r \$0-tm-time4;
#X obj 795 733 r \$0-tm-time5;
#X obj 810 624 r \$0-tm-time6;
#X obj 825 518 r \$0-tm-time7;
#X obj 842 412 r \$0-tm-time8;
#X obj 887 348 + 0;
#X obj 527 144 t f f;
#X floatatom 244 332 3 0 0 0 - #0-tm-counter8-gui-r #0-tm-counter8-gui-s
, f 3;
#N canvas 0 22 608 422 sliders-to-counter 0;
#X obj 56 73 r \$0-tm-slider1-s;
#X obj 56 95 / 127;
#X obj 56 117 * 119;
#X obj 56 141 i;
#X floatatom 56 163 5 0 0 0 - - -, f 5;
#X obj 56 182 s \$0-tm-time1;
#X obj 179 96 / 127;
#X obj 179 118 * 119;
#X obj 179 142 i;
#X floatatom 179 164 5 0 0 0 - - -, f 5;
#X obj 179 74 r \$0-tm-slider2-s;
#X obj 179 183 s \$0-tm-time2;
#X obj 300 97 / 127;
#X obj 300 119 * 119;
#X obj 300 143 i;
#X floatatom 300 165 5 0 0 0 - - -, f 5;
#X obj 300 75 r \$0-tm-slider3-s;
#X obj 300 184 s \$0-tm-time3;
#X obj 419 97 / 127;
#X obj 419 119 * 119;
#X obj 419 143 i;
#X floatatom 419 165 5 0 0 0 - - -, f 5;
#X obj 419 75 r \$0-tm-slider4-s;
#X obj 419 184 s \$0-tm-time4;
#X obj 55 258 / 127;
#X obj 55 280 * 119;
#X obj 55 303 i;
#X floatatom 55 325 5 0 0 0 - - -, f 5;
#X obj 178 259 / 127;
#X obj 178 281 * 119;
#X obj 178 304 i;
#X floatatom 178 326 5 0 0 0 - - -, f 5;
#X obj 299 260 / 127;
#X obj 299 282 * 119;
#X obj 299 305 i;
#X floatatom 299 327 5 0 0 0 - - -, f 5;
#X obj 418 260 / 127;
#X obj 418 282 * 119;
#X obj 418 305 i;
#X floatatom 418 327 5 0 0 0 - - -, f 5;
#X obj 55 236 r \$0-tm-slider5-s;
#X obj 55 344 s \$0-tm-time5;
#X obj 178 237 r \$0-tm-slider6-s;
#X obj 178 345 s \$0-tm-time6;
#X obj 299 238 r \$0-tm-slider7-s;
#X obj 299 346 s \$0-tm-time7;
#X obj 418 238 r \$0-tm-slider8-s;
#X obj 418 346 s \$0-tm-time8;
#X connect 0 0 1 0;
#X connect 1 0 2 0;
#X connect 2 0 3 0;
#X connect 3 0 4 0;
#X connect 4 0 5 0;
#X connect 6 0 7 0;
#X connect 7 0 8 0;
#X connect 8 0 9 0;
#X connect 9 0 11 0;
#X connect 10 0 6 0;
#X connect 12 0 13 0;
#X connect 13 0 14 0;
#X connect 14 0 15 0;
#X connect 15 0 17 0;
#X connect 16 0 12 0;
#X connect 18 0 19 0;
#X connect 19 0 20 0;
#X connect 20 0 21 0;
#X connect 21 0 23 0;
#X connect 22 0 18 0;
#X connect 24 0 25 0;
#X connect 25 0 26 0;
#X connect 26 0 27 0;
#X connect 27 0 41 0;
#X connect 28 0 29 0;
#X connect 29 0 30 0;
#X connect 30 0 31 0;
#X connect 31 0 43 0;
#X connect 32 0 33 0;
#X connect 33 0 34 0;
#X connect 34 0 35 0;
#X connect 35 0 45 0;
#X connect 36 0 37 0;
#X connect 37 0 38 0;
#X connect 38 0 39 0;
#X connect 39 0 47 0;
#X connect 40 0 24 0;
#X connect 42 0 28 0;
#X connect 44 0 32 0;
#X connect 46 0 36 0;
#X restore 345 123 pd sliders-to-counter;
#X obj 578 161 s \$0-tm-counter;
#X obj 763 331 t f f f f;
#X obj 886 323 s \$0-tm-counter2;
#N canvas 0 22 968 380 counter-gui-boxes 0;
#X obj 12 161 s \$0-tm-counter1-gui-r;
#X obj 12 69 r \$0-tm-counter;
#X floatatom 12 91 5 0 0 0 - - -, f 5;
#X obj 12 112 spigot;
#X obj 112 30 r \$0-tm-counter2;
#X floatatom 112 76 5 0 0 0 - - -, f 5;
#X obj 112 54 == 0;
#X obj 160 144 moses 0;
#X obj 112 95 t f f;
#X obj 242 68 r \$0-tm-counter;
#X floatatom 242 90 5 0 0 0 - - -, f 5;
#X obj 242 111 spigot;
#X obj 342 29 r \$0-tm-counter2;
#X floatatom 342 75 5 0 0 0 - - -, f 5;
#X obj 390 143 moses 0;
#X obj 342 94 t f f;
#X obj 242 160 s \$0-tm-counter2-gui-r;
#X obj 342 53 == 1;
#X obj 467 67 r \$0-tm-counter;
#X floatatom 467 89 5 0 0 0 - - -, f 5;
#X obj 467 110 spigot;
#X obj 567 28 r \$0-tm-counter2;
#X floatatom 567 74 5 0 0 0 - - -, f 5;
#X obj 615 142 moses 0;
#X obj 567 93 t f f;
#X obj 467 159 s \$0-tm-counter3-gui-r;
#X obj 567 52 == 2;
#X obj 721 71 r \$0-tm-counter;
#X floatatom 721 93 5 0 0 0 - - -, f 5;
#X obj 721 114 spigot;
#X obj 821 32 r \$0-tm-counter2;
#X floatatom 821 78 5 0 0 0 - - -, f 5;
#X obj 869 146 moses 0;
#X obj 821 97 t f f;
#X obj 821 56 == 3;
#X obj 721 163 s \$0-tm-counter4-gui-r;
#X obj 12 230 r \$0-tm-counter;
#X floatatom 12 252 5 0 0 0 - - -, f 5;
#X obj 12 273 spigot;
#X obj 112 191 r \$0-tm-counter2;
#X floatatom 112 237 5 0 0 0 - - -, f 5;
#X obj 160 305 moses 0;
#X obj 112 256 t f f;
#X obj 242 229 r \$0-tm-counter;
#X floatatom 242 251 5 0 0 0 - - -, f 5;
#X obj 242 272 spigot;
#X obj 342 190 r \$0-tm-counter2;
#X floatatom 342 236 5 0 0 0 - - -, f 5;
#X obj 390 304 moses 0;
#X obj 342 255 t f f;
#X obj 467 228 r \$0-tm-counter;
#X floatatom 467 250 5 0 0 0 - - -, f 5;
#X obj 467 271 spigot;
#X obj 567 189 r \$0-tm-counter2;
#X floatatom 567 235 5 0 0 0 - - -, f 5;
#X obj 615 303 moses 0;
#X obj 567 254 t f f;
#X obj 721 232 r \$0-tm-counter;
#X floatatom 721 254 5 0 0 0 - - -, f 5;
#X obj 721 275 spigot;
#X obj 821 193 r \$0-tm-counter2;
#X floatatom 821 239 5 0 0 0 - - -, f 5;
#X obj 869 307 moses 0;
#X obj 821 258 t f f;
#X obj 112 215 == 4;
#X obj 12 322 s \$0-tm-counter5-gui-r;
#X obj 342 214 == 5;
#X obj 242 321 s \$0-tm-counter6-gui-r;
#X obj 567 213 == 6;
#X obj 467 320 s \$0-tm-counter7-gui-r;
#X obj 821 217 == 7;
#X obj 721 324 s \$0-tm-counter8-gui-r;
#X obj 12 134 + 1;
#X obj 242 133 + 1;
#X obj 467 132 + 1;
#X obj 721 136 + 1;
#X obj 12 295 + 1;
#X obj 242 294 + 1;
#X obj 467 293 + 1;
#X obj 720 297 + 2;
#X connect 1 0 2 0;
#X connect 2 0 3 0;
#X connect 3 0 72 0;
#X connect 4 0 6 0;
#X connect 5 0 8 0;
#X connect 6 0 5 0;
#X connect 7 1 0 0;
#X connect 8 0 3 1;
#X connect 8 1 7 0;
#X connect 9 0 10 0;
#X connect 10 0 11 0;
#X connect 11 0 73 0;
#X connect 12 0 17 0;
#X connect 13 0 15 0;
#X connect 14 1 16 0;
#X connect 15 0 11 1;
#X connect 15 1 14 0;
#X connect 17 0 13 0;
#X connect 18 0 19 0;
#X connect 19 0 20 0;
#X connect 20 0 74 0;
#X connect 21 0 26 0;
#X connect 22 0 24 0;
#X connect 23 1 25 0;
#X connect 24 0 20 1;
#X connect 24 1 23 0;
#X connect 26 0 22 0;
#X connect 27 0 28 0;
#X connect 28 0 29 0;
#X connect 29 0 75 0;
#X connect 30 0 34 0;
#X connect 31 0 33 0;
#X connect 32 1 35 0;
#X connect 33 0 29 1;
#X connect 33 1 32 0;
#X connect 34 0 31 0;
#X connect 36 0 37 0;
#X connect 37 0 38 0;
#X connect 38 0 76 0;
#X connect 39 0 64 0;
#X connect 40 0 42 0;
#X connect 41 1 65 0;
#X connect 42 0 38 1;
#X connect 42 1 41 0;
#X connect 43 0 44 0;
#X connect 44 0 45 0;
#X connect 45 0 77 0;
#X connect 46 0 66 0;
#X connect 47 0 49 0;
#X connect 48 1 67 0;
#X connect 49 0 45 1;
#X connect 49 1 48 0;
#X connect 50 0 51 0;
#X connect 51 0 52 0;
#X connect 52 0 78 0;
#X connect 53 0 68 0;
#X connect 54 0 56 0;
#X connect 55 1 69 0;
#X connect 56 0 52 1;
#X connect 56 1 55 0;
#X connect 57 0 58 0;
#X connect 58 0 59 0;
#X connect 59 0 79 0;
#X connect 60 0 70 0;
#X connect 61 0 63 0;
#X connect 62 1 71 0;
#X connect 63 0 59 1;
#X connect 63 1 62 0;
#X connect 64 0 40 0;
#X connect 66 0 47 0;
#X connect 68 0 54 0;
#X connect 70 0 61 0;
#X connect 72 0 0 0;
#X connect 73 0 16 0;
#X connect 74 0 25 0;
#X connect 75 0 35 0;
#X connect 76 0 65 0;
#X connect 77 0 67 0;
#X connect 78 0 69 0;
#X connect 79 0 71 0;
#X restore 345 145 pd counter-gui-boxes;
#X floatatom 104 332 3 0 0 0 - #0-tm-counter1-gui-r #0-tm-counter1-gui-s
, f 3;
#X floatatom 124 332 3 0 0 0 - #0-tm-counter2-gui-r #0-tm-counter2-gui-s
, f 3;
#X floatatom 144 332 3 0 0 0 - #0-tm-counter3-gui-r #0-tm-counter3-gui-s
, f 3;
#X floatatom 164 332 3 0 0 0 - #0-tm-counter4-gui-r #0-tm-counter4-gui-s
, f 3;
#X floatatom 184 332 3 0 0 0 - #0-tm-counter5-gui-r #0-tm-counter5-gui-s
, f 3;
#X floatatom 204 332 3 0 0 0 - #0-tm-counter6-gui-r #0-tm-counter6-gui-s
, f 3;
#X floatatom 224 332 3 0 0 0 - #0-tm-counter7-gui-r #0-tm-counter7-gui-s
, f 3;
#X obj 104 139 cnv 5 5 5 empty empty TIME-MANAGER 0 0 0 12 -262144
-66577 0;
#X obj 192 139 cnv 5 5 5 empty \$0-instance-num 2 0 0 0 12 -262144
-66577 0;
#X obj 128 356 cnv 5 5 5 empty empty 2 0 0 0 8 -262144 -226533 0;
#X obj 984 892 outlet~ OMNI;
#X obj 16 899 outlet~ S1;
#X obj 85 899 outlet~ S2;
#X obj 153 899 outlet~ S3;
#X obj 222 899 outlet~ S4;
#X obj 299 899 outlet~ S5;
#X obj 378 898 outlet~ S6;
#X obj 463 899 outlet~ S7;
#X obj 545 899 outlet~ S8;
#X obj 104 314 bng 20 250 50 0 \$0-tm-b1-s \$0-tm-b1-r empty 17 7 0
10 -1 -226533 -1;
#X obj 420 598 s \$0-tm-b1-r;
#X obj 124 314 bng 20 250 50 0 \$0-tm-b2-s \$0-tm-b2-r empty 17 7 0
10 -1 -226533 -1;
#X obj 144 314 bng 20 250 50 0 \$0-tm-b3-s \$0-tm-b3-r empty 17 7 0
10 -1 -226533 -1;
#X obj 164 314 bng 20 250 50 0 \$0-tm-b4-s \$0-tm-b4-r empty 17 7 0
10 -1 -226533 -1;
#X obj 184 314 bng 20 250 50 0 \$0-tm-b5-s \$0-tm-b5-r empty 17 7 0
10 -1 -226533 -1;
#X obj 204 314 bng 20 250 50 0 \$0-tm-b6-s \$0-tm-b6-r empty 17 7 0
10 -1 -226533 -1;
#X obj 224 314 bng 20 250 50 0 \$0-tm-b7-s \$0-tm-b7-r empty 17 7 0
10 -1 -226533 -1;
#X obj 244 314 bng 20 250 50 0 \$0-tm-b8-s \$0-tm-b8-r empty 17 7 0
10 -1 -226533 -1;
#X obj 421 494 s \$0-tm-b2-r;
#X obj 426 388 s \$0-tm-b3-r;
#X obj 895 729 s \$0-tm-b4-r;
#X obj 922 618 s \$0-tm-b5-r;
#X obj 928 514 s \$0-tm-b6-r;
#X obj 936 408 s \$0-tm-b7-r;
#X obj 664 782 s \$0-tm-b8-r;
#X obj 15 724 r \$0-tm-b1-s;
#X obj 85 775 r \$0-tm-b2-s;
#X obj 153 754 r \$0-tm-b3-s;
#X obj 222 820 r \$0-tm-b4-s;
#X obj 299 751 r \$0-tm-b5-s;
#X obj 378 823 r \$0-tm-b6-s;
#X obj 463 822 r \$0-tm-b7-s;
#X obj 545 822 r \$0-tm-b8-s;
#X obj 999 672 r \$0-tm-counter2;
#X obj 999 694 t b;
#X obj 272 110 cnv 5 5 5 empty empty START/STOP 0 0 0 8 -262144 -226533
0;
#X obj 103 356 cnv 5 5 5 empty empty 1 0 0 0 8 -262144 -226533 0;
#X obj 156 356 cnv 5 5 5 empty empty 3 0 0 0 8 -262144 -226533 0;
#X obj 527 100 metro 1000;
#X obj 267 261 tgl 30 1 \$0-tm-loop-s \$0-tm-loop-r LOOP 0 -9 0 10
-262144 -1 -1 0 1;
#X obj 210 356 cnv 5 5 5 empty empty 5 0 0 0 8 -262144 -226533 0;
#X obj 183 356 cnv 5 5 5 empty empty 4 0 0 0 8 -262144 -226533 0;
#X obj 290 356 cnv 5 5 5 empty empty 8 0 0 0 8 -262144 -226533 0;
#X obj 238 356 cnv 5 5 5 empty empty 6 0 0 0 8 -262144 -226533 0;
#X obj 264 356 cnv 5 5 5 empty empty 7 0 0 0 8 -262144 -226533 0;
#X obj 307 356 cnv 5 5 5 empty empty ALL 0 0 0 8 -262144 -226533 0
;
#X obj 527 -31 r \$0-tm-on/off-s;
#X obj 778 139 loadbang;
#N canvas 0 22 744 413 sync 0;
#X obj 282 9 inlet;
#X obj 317 76 threshold~ 0.9 0 0.9 0;
#X msg 282 31 bang;
#X obj 284 173 spigot;
#X msg 282 53 1;
#X obj 317 98 t b b;
#X obj 317 120 delay 1;
#X msg 317 149 0;
#X msg 284 195 1 0 \, 0 1 1;
#X obj 284 217 vline~;
#X obj 284 239 outlet~;
#X obj 317 54 r~ \$0-tm-sync!;
#X connect 0 0 2 0;
#X connect 1 0 5 0;
#X connect 2 0 4 0;
#X connect 3 0 8 0;
#X connect 4 0 3 1;
#X connect 5 0 6 0;
#X connect 5 1 3 0;
#X connect 6 0 7 0;
#X connect 7 0 3 1;
#X connect 8 0 9 0;
#X connect 9 0 10 0;
#X connect 11 0 1 0;
#X restore 15 832 pd sync;
#X obj 23 -10 inlet~;
#X obj 23 68 s~ \$0-tm-sync!;
#N canvas 0 22 450 300 sync 0;
#X obj 106 45 inlet;
#X obj 317 76 threshold~ 0.9 0 0.9 0;
#X msg 106 67 bang;
#X obj 284 173 spigot;
#X msg 106 89 1;
#X obj 317 98 t b b;
#X obj 317 120 delay 1;
#X msg 317 149 0;
#X msg 284 195 1 0 \, 0 1 1;
#X obj 284 217 vline~;
#X obj 284 239 outlet~;
#X obj 317 54 r~ \$0-tm-sync!;
#X connect 0 0 2 0;
#X connect 1 0 5 0;
#X connect 2 0 4 0;
#X connect 3 0 8 0;
#X connect 4 0 3 1;
#X connect 5 0 6 0;
#X connect 5 1 3 0;
#X connect 6 0 7 0;
#X connect 7 0 3 1;
#X connect 8 0 9 0;
#X connect 9 0 10 0;
#X connect 11 0 1 0;
#X restore 85 809 pd sync;
#N canvas 0 22 450 300 sync 0;
#X obj 106 45 inlet;
#X obj 317 76 threshold~ 0.9 0 0.9 0;
#X msg 106 67 bang;
#X obj 284 173 spigot;
#X msg 106 89 1;
#X obj 317 98 t b b;
#X obj 317 120 delay 1;
#X msg 317 149 0;
#X msg 284 195 1 0 \, 0 1 1;
#X obj 284 217 vline~;
#X obj 284 239 outlet~;
#X obj 317 54 r~ \$0-tm-sync!;
#X connect 0 0 2 0;
#X connect 1 0 5 0;
#X connect 2 0 4 0;
#X connect 3 0 8 0;
#X connect 4 0 3 1;
#X connect 5 0 6 0;
#X connect 5 1 3 0;
#X connect 6 0 7 0;
#X connect 7 0 3 1;
#X connect 8 0 9 0;
#X connect 9 0 10 0;
#X connect 11 0 1 0;
#X restore 153 810 pd sync;
#N canvas 0 22 450 300 sync 0;
#X obj 106 45 inlet;
#X obj 317 76 threshold~ 0.9 0 0.9 0;
#X msg 106 67 bang;
#X obj 284 173 spigot;
#X msg 106 89 1;
#X obj 317 98 t b b;
#X obj 317 120 delay 1;
#X msg 317 149 0;
#X msg 284 195 1 0 \, 0 1 1;
#X obj 284 217 vline~;
#X obj 284 239 outlet~;
#X obj 317 54 r~ \$0-tm-sync!;
#X connect 0 0 2 0;
#X connect 1 0 5 0;
#X connect 2 0 4 0;
#X connect 3 0 8 0;
#X connect 4 0 3 1;
#X connect 5 0 6 0;
#X connect 5 1 3 0;
#X connect 6 0 7 0;
#X connect 7 0 3 1;
#X connect 8 0 9 0;
#X connect 9 0 10 0;
#X connect 11 0 1 0;
#X restore 222 848 pd sync;
#N canvas 0 22 450 300 sync 0;
#X obj 106 45 inlet;
#X obj 317 76 threshold~ 0.9 0 0.9 0;
#X msg 106 67 bang;
#X obj 284 173 spigot;
#X msg 106 89 1;
#X obj 317 98 t b b;
#X obj 317 120 delay 1;
#X msg 317 149 0;
#X msg 284 195 1 0 \, 0 1 1;
#X obj 284 217 vline~;
#X obj 284 239 outlet~;
#X obj 317 54 r~ \$0-tm-sync!;
#X connect 0 0 2 0;
#X connect 1 0 5 0;
#X connect 2 0 4 0;
#X connect 3 0 8 0;
#X connect 4 0 3 1;
#X connect 5 0 6 0;
#X connect 5 1 3 0;
#X connect 6 0 7 0;
#X connect 7 0 3 1;
#X connect 8 0 9 0;
#X connect 9 0 10 0;
#X connect 11 0 1 0;
#X restore 299 781 pd sync;
#N canvas 0 22 450 300 sync 0;
#X obj 106 45 inlet;
#X obj 317 76 threshold~ 0.9 0 0.9 0;
#X msg 106 67 bang;
#X obj 284 173 spigot;
#X msg 106 89 1;
#X obj 317 98 t b b;
#X obj 317 120 delay 1;
#X msg 317 149 0;
#X msg 284 195 1 0 \, 0 1 1;
#X obj 284 217 vline~;
#X obj 284 239 outlet~;
#X obj 317 54 r~ \$0-tm-sync!;
#X connect 0 0 2 0;
#X connect 1 0 5 0;
#X connect 2 0 4 0;
#X connect 3 0 8 0;
#X connect 4 0 3 1;
#X connect 5 0 6 0;
#X connect 5 1 3 0;
#X connect 6 0 7 0;
#X connect 7 0 3 1;
#X connect 8 0 9 0;
#X connect 9 0 10 0;
#X connect 11 0 1 0;
#X restore 378 852 pd sync;
#N canvas 0 22 450 300 sync 0;
#X obj 106 45 inlet;
#X obj 317 76 threshold~ 0.9 0 0.9 0;
#X msg 106 67 bang;
#X obj 284 173 spigot;
#X msg 106 89 1;
#X obj 317 98 t b b;
#X obj 317 120 delay 1;
#X msg 317 149 0;
#X msg 284 195 1 0 \, 0 1 1;
#X obj 284 217 vline~;
#X obj 284 239 outlet~;
#X obj 317 54 r~ \$0-tm-sync!;
#X connect 0 0 2 0;
#X connect 1 0 5 0;
#X connect 2 0 4 0;
#X connect 3 0 8 0;
#X connect 4 0 3 1;
#X connect 5 0 6 0;
#X connect 5 1 3 0;
#X connect 6 0 7 0;
#X connect 7 0 3 1;
#X connect 8 0 9 0;
#X connect 9 0 10 0;
#X connect 11 0 1 0;
#X restore 463 846 pd sync;
#N canvas 0 22 450 300 sync 0;
#X obj 106 45 inlet;
#X obj 317 76 threshold~ 0.9 0 0.9 0;
#X msg 106 67 bang;
#X obj 284 173 spigot;
#X msg 106 89 1;
#X obj 317 98 t b b;
#X obj 317 120 delay 1;
#X msg 317 149 0;
#X msg 284 195 1 0 \, 0 1 1;
#X obj 284 217 vline~;
#X obj 284 239 outlet~;
#X obj 317 54 r~ \$0-tm-sync!;
#X connect 0 0 2 0;
#X connect 1 0 5 0;
#X connect 2 0 4 0;
#X connect 3 0 8 0;
#X connect 4 0 3 1;
#X connect 5 0 6 0;
#X connect 5 1 3 0;
#X connect 6 0 7 0;
#X connect 7 0 3 1;
#X connect 8 0 9 0;
#X connect 9 0 10 0;
#X connect 11 0 1 0;
#X restore 545 848 pd sync;
#X obj 267 210 bng 30 250 50 1 \$0-RESET!-s \$0-RESET!-r RESET 0 -9
0 10 -262144 -226533 -1;
#X obj 708 36 r \$0-RESET!-s;
#X msg 708 58 0;
#X obj 836 168 r \$0-RESET!-s;
#X msg 836 190 0;
#X obj 875 32 loadbang;
#X obj 227 381 r \$0-tm-b8-s;
#X msg 228 485 0;
#X obj 708 36 r \$0-RESET!-s;
#X msg 708 58 0;
#X obj 228 507 s \$0-tm-on/off-r;
#X obj 228 451 t b b;
#X obj 337 468 delay 5;
#X obj 337 490 s \$0-RESET!-r;
#X obj 105 109 cnv 5 5 5 empty empty SYNC 0 0 0 8 -262144 -226533 0
;
#X obj 977 3 inlet~;
#X obj 977 25 threshold~ 0.9 0 0.9 0;
#X obj 977 47 t b;
#X obj 105 109 cnv 5 5 5 empty empty SYNC 0 0 0 8 -262144 -226533 0
;
#X obj 977 69 s \$0-tm-on/off-r;
#N canvas 267 22 926 752 state-saving-multiple-instances 0;
#X obj 461 15 loadbang;
#X obj 536 276 textfile;
#X obj 461 48 t b b;
#X msg 793 259 rewind;
#X msg 750 259 bang;
#X obj 109 691 textfile;
#X obj 750 220 t b b;
#X obj 110 357 f;
#X obj 123 580 f;
#X obj 48 403 t b b b;
#X msg 186 580 clear;
#X obj 527 204 outlet;
#X text 523 224 INSTANCE NUMBER;
#X obj 488 139 f \$1;
#X obj 488 175 t f f f;
#X obj 48 378 bng 15 250 50 0 empty empty empty 17 7 0 10 -262144 -1
-1;
#X obj 48 274 r SAVE-S;
#X obj 116 51 r \$0-tm-slider1-s;
#X obj 124 74 r \$0-tm-slider2-s;
#X obj 147 95 r \$0-tm-slider3-s;
#X obj 170 116 r \$0-tm-slider4-s;
#X obj 212 135 r \$0-tm-slider5-s;
#X obj 219 163 r \$0-tm-slider6-s;
#X obj 232 187 r \$0-tm-slider7-s;
#X obj 243 214 r \$0-tm-slider8-s;
#X obj 256 242 r \$0-tm-on/off-s;
#X obj 358 706 s \$0-tm-slider1-r;
#X obj 385 683 s \$0-tm-slider2-r;
#X obj 642 482 s \$0-tm-on/off-r;
#X obj 412 657 s \$0-tm-slider3-r;
#X obj 439 627 s \$0-tm-slider4-r;
#X obj 460 599 s \$0-tm-slider5-r;
#X obj 509 570 s \$0-tm-slider6-r;
#X obj 553 542 s \$0-tm-slider7-r;
#X obj 601 512 s \$0-tm-slider8-r;
#X msg 122 651 write statesave/\$1-time-manager-ss.txt;
#X msg 535 251 read statesave/\$1-time-manager-ss.txt;
#X msg 110 438 set \$1 \$2 \$3 \$4 \$5 \$6 \$7 \$8 \$9 \$10;
#X obj 110 400 pack f f f f f f f f f f;
#X obj 301 310 r \$0-tm-loop-s;
#X obj 541 318 unpack f f f f f f f f f f;
#X obj 778 405 s \$0-tm-loop-r;
#X connect 0 0 2 0;
#X connect 1 0 40 0;
#X connect 2 0 6 0;
#X connect 2 1 13 0;
#X connect 3 0 1 0;
#X connect 4 0 1 0;
#X connect 6 0 4 0;
#X connect 6 1 3 0;
#X connect 7 0 38 0;
#X connect 8 0 35 0;
#X connect 9 0 8 0;
#X connect 9 1 7 0;
#X connect 9 2 10 0;
#X connect 10 0 5 0;
#X connect 13 0 14 0;
#X connect 14 0 8 1;
#X connect 14 1 36 0;
#X connect 14 2 11 0;
#X connect 15 0 9 0;
#X connect 16 0 15 0;
#X connect 17 0 7 1;
#X connect 18 0 38 1;
#X connect 19 0 38 2;
#X connect 20 0 38 3;
#X connect 21 0 38 4;
#X connect 22 0 38 5;
#X connect 23 0 38 6;
#X connect 24 0 38 7;
#X connect 25 0 38 8;
#X connect 35 0 5 0;
#X connect 36 0 1 0;
#X connect 37 0 5 0;
#X connect 38 0 37 0;
#X connect 39 0 38 9;
#X connect 40 0 26 0;
#X connect 40 1 27 0;
#X connect 40 2 29 0;
#X connect 40 3 30 0;
#X connect 40 4 31 0;
#X connect 40 5 32 0;
#X connect 40 6 33 0;
#X connect 40 7 34 0;
#X connect 40 8 28 0;
#X connect 40 9 41 0;
#X restore 99 551 pd state-saving-multiple-instances;
#X obj 99 623 s \$0-instance-num;
#X obj 99 575 makefilename %d;
#X msg 99 600 label \$1;
#N canvas 297 27 595 563 parameter-nudging-system 0;
#X obj 23 70 clip 0 127;
#X obj 23 22 r \$0-tm-slider1-s;
#X obj 23 102 s \$0-tm-slider1-r;
#N canvas 0 22 484 497 nudge-parameters 0;
#X obj 124 234 random;
#X obj 232 335 f;
#X obj 232 368 +;
#X obj 257 166 random 2;
#X obj 124 275 t f f;
#X obj 124 351 t b f;
#X obj 124 297 *;
#X obj 257 188 sel 0 1;
#X msg 257 280 -1;
#X msg 335 280 1;
#X obj 124 149 t b b b;
#X obj 124 74 r NUDGE!;
#X obj 157 193 r NUDGE-RANGE;
#X obj 247 308 inlet;
#X obj 232 397 outlet;
#X obj 124 96 spigot;
#X obj 185 79 r parameters2-s;
#X connect 0 0 4 0;
#X connect 1 0 2 0;
#X connect 2 0 14 0;
#X connect 3 0 7 0;
#X connect 4 0 6 0;
#X connect 5 0 2 0;
#X connect 5 1 2 1;
#X connect 6 0 5 0;
#X connect 7 0 8 0;
#X connect 7 1 9 0;
#X connect 8 0 6 1;
#X connect 9 0 6 1;
#X connect 10 0 0 0;
#X connect 10 1 1 0;
#X connect 10 2 3 0;
#X connect 11 0 15 0;
#X connect 12 0 0 1;
#X connect 13 0 1 1;
#X connect 15 0 10 0;
#X connect 16 0 15 1;
#X restore 22 45 pd nudge-parameters;
#X obj 164 70 clip 0 127;
#N canvas 0 22 484 497 nudge-parameters 0;
#X obj 124 234 random;
#X obj 232 335 f;
#X obj 232 368 +;
#X obj 257 166 random 2;
#X obj 124 275 t f f;
#X obj 124 351 t b f;
#X obj 124 297 *;
#X obj 257 188 sel 0 1;
#X msg 257 280 -1;
#X msg 335 280 1;
#X obj 124 149 t b b b;
#X obj 124 74 r NUDGE!;
#X obj 157 193 r NUDGE-RANGE;
#X obj 247 308 inlet;
#X obj 232 397 outlet;
#X obj 124 96 spigot;
#X obj 185 79 r parameters2-s;
#X connect 0 0 4 0;
#X connect 1 0 2 0;
#X connect 2 0 14 0;
#X connect 3 0 7 0;
#X connect 4 0 6 0;
#X connect 5 0 2 0;
#X connect 5 1 2 1;
#X connect 6 0 5 0;
#X connect 7 0 8 0;
#X connect 7 1 9 0;
#X connect 8 0 6 1;
#X connect 9 0 6 1;
#X connect 10 0 0 0;
#X connect 10 1 1 0;
#X connect 10 2 3 0;
#X connect 11 0 15 0;
#X connect 12 0 0 1;
#X connect 13 0 1 1;
#X connect 15 0 10 0;
#X connect 16 0 15 1;
#X restore 163 45 pd nudge-parameters;
#X obj 295 71 clip 0 127;
#N canvas 0 22 484 497 nudge-parameters 0;
#X obj 124 234 random;
#X obj 232 335 f;
#X obj 232 368 +;
#X obj 257 166 random 2;
#X obj 124 275 t f f;
#X obj 124 351 t b f;
#X obj 124 297 *;
#X obj 257 188 sel 0 1;
#X msg 257 280 -1;
#X msg 335 280 1;
#X obj 124 149 t b b b;
#X obj 124 74 r NUDGE!;
#X obj 157 193 r NUDGE-RANGE;
#X obj 247 308 inlet;
#X obj 232 397 outlet;
#X obj 124 96 spigot;
#X obj 185 79 r parameters2-s;
#X connect 0 0 4 0;
#X connect 1 0 2 0;
#X connect 2 0 14 0;
#X connect 3 0 7 0;
#X connect 4 0 6 0;
#X connect 5 0 2 0;
#X connect 5 1 2 1;
#X connect 6 0 5 0;
#X connect 7 0 8 0;
#X connect 7 1 9 0;
#X connect 8 0 6 1;
#X connect 9 0 6 1;
#X connect 10 0 0 0;
#X connect 10 1 1 0;
#X connect 10 2 3 0;
#X connect 11 0 15 0;
#X connect 12 0 0 1;
#X connect 13 0 1 1;
#X connect 15 0 10 0;
#X connect 16 0 15 1;
#X restore 294 46 pd nudge-parameters;
#X obj 435 70 clip 0 127;
#N canvas 0 22 484 497 nudge-parameters 0;
#X obj 124 234 random;
#X obj 232 335 f;
#X obj 232 368 +;
#X obj 257 166 random 2;
#X obj 124 275 t f f;
#X obj 124 351 t b f;
#X obj 124 297 *;
#X obj 257 188 sel 0 1;
#X msg 257 280 -1;
#X msg 335 280 1;
#X obj 124 149 t b b b;
#X obj 124 74 r NUDGE!;
#X obj 157 193 r NUDGE-RANGE;
#X obj 247 308 inlet;
#X obj 232 397 outlet;
#X obj 124 96 spigot;
#X obj 185 79 r parameters2-s;
#X connect 0 0 4 0;
#X connect 1 0 2 0;
#X connect 2 0 14 0;
#X connect 3 0 7 0;
#X connect 4 0 6 0;
#X connect 5 0 2 0;
#X connect 5 1 2 1;
#X connect 6 0 5 0;
#X connect 7 0 8 0;
#X connect 7 1 9 0;
#X connect 8 0 6 1;
#X connect 9 0 6 1;
#X connect 10 0 0 0;
#X connect 10 1 1 0;
#X connect 10 2 3 0;
#X connect 11 0 15 0;
#X connect 12 0 0 1;
#X connect 13 0 1 1;
#X connect 15 0 10 0;
#X connect 16 0 15 1;
#X restore 434 45 pd nudge-parameters;
#X obj 435 22 r \$0-tm-slider4-s;
#X obj 435 102 s \$0-tm-slider4-r;
#X obj 164 22 r \$0-tm-slider2-s;
#X obj 164 102 s \$0-tm-slider2-r;
#X obj 295 23 r \$0-tm-slider3-s;
#X obj 295 103 s \$0-tm-slider3-r;
#X obj 24 188 clip 0 127;
#N canvas 0 22 484 497 nudge-parameters 0;
#X obj 124 234 random;
#X obj 232 335 f;
#X obj 232 368 +;
#X obj 257 166 random 2;
#X obj 124 275 t f f;
#X obj 124 351 t b f;
#X obj 124 297 *;
#X obj 257 188 sel 0 1;
#X msg 257 280 -1;
#X msg 335 280 1;
#X obj 124 149 t b b b;
#X obj 124 74 r NUDGE!;
#X obj 157 193 r NUDGE-RANGE;
#X obj 247 308 inlet;
#X obj 232 397 outlet;
#X obj 124 96 spigot;
#X obj 185 79 r parameters2-s;
#X connect 0 0 4 0;
#X connect 1 0 2 0;
#X connect 2 0 14 0;
#X connect 3 0 7 0;
#X connect 4 0 6 0;
#X connect 5 0 2 0;
#X connect 5 1 2 1;
#X connect 6 0 5 0;
#X connect 7 0 8 0;
#X connect 7 1 9 0;
#X connect 8 0 6 1;
#X connect 9 0 6 1;
#X connect 10 0 0 0;
#X connect 10 1 1 0;
#X connect 10 2 3 0;
#X connect 11 0 15 0;
#X connect 12 0 0 1;
#X connect 13 0 1 1;
#X connect 15 0 10 0;
#X connect 16 0 15 1;
#X restore 23 163 pd nudge-parameters;
#X obj 165 188 clip 0 127;
#N canvas 0 22 484 497 nudge-parameters 0;
#X obj 124 234 random;
#X obj 232 335 f;
#X obj 232 368 +;
#X obj 257 166 random 2;
#X obj 124 275 t f f;
#X obj 124 351 t b f;
#X obj 124 297 *;
#X obj 257 188 sel 0 1;
#X msg 257 280 -1;
#X msg 335 280 1;
#X obj 124 149 t b b b;
#X obj 124 74 r NUDGE!;
#X obj 157 193 r NUDGE-RANGE;
#X obj 247 308 inlet;
#X obj 232 397 outlet;
#X obj 124 96 spigot;
#X obj 185 79 r parameters2-s;
#X connect 0 0 4 0;
#X connect 1 0 2 0;
#X connect 2 0 14 0;
#X connect 3 0 7 0;
#X connect 4 0 6 0;
#X connect 5 0 2 0;
#X connect 5 1 2 1;
#X connect 6 0 5 0;
#X connect 7 0 8 0;
#X connect 7 1 9 0;
#X connect 8 0 6 1;
#X connect 9 0 6 1;
#X connect 10 0 0 0;
#X connect 10 1 1 0;
#X connect 10 2 3 0;
#X connect 11 0 15 0;
#X connect 12 0 0 1;
#X connect 13 0 1 1;
#X connect 15 0 10 0;
#X connect 16 0 15 1;
#X restore 164 163 pd nudge-parameters;
#X obj 296 189 clip 0 127;
#N canvas 0 22 484 497 nudge-parameters 0;
#X obj 124 234 random;
#X obj 232 335 f;
#X obj 232 368 +;
#X obj 257 166 random 2;
#X obj 124 275 t f f;
#X obj 124 351 t b f;
#X obj 124 297 *;
#X obj 257 188 sel 0 1;
#X msg 257 280 -1;
#X msg 335 280 1;
#X obj 124 149 t b b b;
#X obj 124 74 r NUDGE!;
#X obj 157 193 r NUDGE-RANGE;
#X obj 247 308 inlet;
#X obj 232 397 outlet;
#X obj 124 96 spigot;
#X obj 185 79 r parameters2-s;
#X connect 0 0 4 0;
#X connect 1 0 2 0;
#X connect 2 0 14 0;
#X connect 3 0 7 0;
#X connect 4 0 6 0;
#X connect 5 0 2 0;
#X connect 5 1 2 1;
#X connect 6 0 5 0;
#X connect 7 0 8 0;
#X connect 7 1 9 0;
#X connect 8 0 6 1;
#X connect 9 0 6 1;
#X connect 10 0 0 0;
#X connect 10 1 1 0;
#X connect 10 2 3 0;
#X connect 11 0 15 0;
#X connect 12 0 0 1;
#X connect 13 0 1 1;
#X connect 15 0 10 0;
#X connect 16 0 15 1;
#X restore 295 164 pd nudge-parameters;
#X obj 436 188 clip 0 127;
#N canvas 0 22 484 497 nudge-parameters 0;
#X obj 124 234 random;
#X obj 232 335 f;
#X obj 232 368 +;
#X obj 257 166 random 2;
#X obj 124 275 t f f;
#X obj 124 351 t b f;
#X obj 124 297 *;
#X obj 257 188 sel 0 1;
#X msg 257 280 -1;
#X msg 335 280 1;
#X obj 124 149 t b b b;
#X obj 124 74 r NUDGE!;
#X obj 157 193 r NUDGE-RANGE;
#X obj 247 308 inlet;
#X obj 232 397 outlet;
#X obj 124 96 spigot;
#X obj 185 79 r parameters2-s;
#X connect 0 0 4 0;
#X connect 1 0 2 0;
#X connect 2 0 14 0;
#X connect 3 0 7 0;
#X connect 4 0 6 0;
#X connect 5 0 2 0;
#X connect 5 1 2 1;
#X connect 6 0 5 0;
#X connect 7 0 8 0;
#X connect 7 1 9 0;
#X connect 8 0 6 1;
#X connect 9 0 6 1;
#X connect 10 0 0 0;
#X connect 10 1 1 0;
#X connect 10 2 3 0;
#X connect 11 0 15 0;
#X connect 12 0 0 1;
#X connect 13 0 1 1;
#X connect 15 0 10 0;
#X connect 16 0 15 1;
#X restore 435 163 pd nudge-parameters;
#X obj 24 140 r \$0-tm-slider5-s;
#X obj 24 220 s \$0-tm-slider5-r;
#X obj 165 140 r \$0-tm-slider6-s;
#X obj 165 220 s \$0-tm-slider6-r;
#X obj 296 141 r \$0-tm-slider7-s;
#X obj 296 221 s \$0-tm-slider7-r;
#X obj 436 140 r \$0-tm-slider8-s;
#X obj 436 220 s \$0-tm-slider8-r;
#X connect 0 0 2 0;
#X connect 1 0 3 0;
#X connect 3 0 0 0;
#X connect 4 0 13 0;
#X connect 5 0 4 0;
#X connect 6 0 15 0;
#X connect 7 0 6 0;
#X connect 8 0 11 0;
#X connect 9 0 8 0;
#X connect 10 0 9 0;
#X connect 12 0 5 0;
#X connect 14 0 7 0;
#X connect 16 0 25 0;
#X connect 17 0 16 0;
#X connect 18 0 27 0;
#X connect 19 0 18 0;
#X connect 20 0 29 0;
#X connect 21 0 20 0;
#X connect 22 0 31 0;
#X connect 23 0 22 0;
#X connect 24 0 17 0;
#X connect 26 0 19 0;
#X connect 28 0 21 0;
#X connect 30 0 23 0;
#X restore 98 527 pd parameter-nudging-system;
#X floatatom 702 190 5 0 0 0 - - -, f 5;
#X obj 104 376 r \$0-tm-on/off-s;
#X obj 227 403 spigot;
#X obj 337 363 loadbang;
#X msg 337 385 0;
#X obj -7 285 r \$0-tm-slider1-s;
#X floatatom -7 307 5 0 0 0 - - -, f 5;
#X obj -7 326 i;
#X floatatom -7 348 5 0 0 0 - - -, f 5;
#X obj -7 389 * 1000;
#X obj -7 367 + 6;
#X floatatom -7 411 5 0 0 0 - - -, f 5;
#X obj 37 414 t b f;
#X obj 41 485 f;
#X obj 37 436 del 1;
#X floatatom 41 507 5 0 0 0 - - -, f 5;
#X obj 115 406 sel 0;
#X msg 114 432 0;
#X obj 997 723 spigot;
#X obj 1100 702 r \$0-tm-on/off-s;
#X obj 1100 724 sel 1 0;
#X obj 1100 746 delay 5000;
#X msg 1100 768 1;
#X obj 1033 573 loadbang;
#X msg 1033 595 0;
#X msg 1134 663 0;
#X obj 985 136 r \$0-tm-on/off-s;
#X obj 985 191 spigot;
#X obj 995 257 sel 1;
#X msg 995 279 bang;
#N canvas 0 22 744 413 sync 0;
#X obj 282 9 inlet;
#X obj 317 76 threshold~ 0.9 0 0.9 0;
#X msg 282 31 bang;
#X obj 284 173 spigot;
#X msg 282 53 1;
#X obj 317 98 t b b;
#X obj 317 120 delay 1;
#X msg 317 149 0;
#X msg 284 195 1 0 \, 0 1 1;
#X obj 284 217 vline~;
#X obj 284 239 outlet~;
#X obj 317 54 r~ \$0-tm-sync!;
#X connect 0 0 2 0;
#X connect 1 0 5 0;
#X connect 2 0 4 0;
#X connect 3 0 8 0;
#X connect 4 0 3 1;
#X connect 5 0 6 0;
#X connect 5 1 3 0;
#X connect 6 0 7 0;
#X connect 7 0 3 1;
#X connect 8 0 9 0;
#X connect 9 0 10 0;
#X connect 11 0 1 0;
#X restore 996 789 pd sync;
#X obj 105 115 bng 15 50 50 0 empty empty empty 17 7 0 10 -1 -226533
-1;
#X obj 128 6 threshold~ 0.9 0 0.9 0;
#X obj 1084 155 r \$0-RESET!-s;
#X msg 1084 177 1;
#X obj 985 213 t f b;
#X obj 1076 240 delay 500;
#X msg 1076 262 0;
#X obj 267 160 tgl 30 1 \$0-tm-on/off-s \$0-tm-on/off-r START/STOP
-5 -9 0 10 -262144 -1 -1 0 1;
#X msg 305 619 1;
#X obj 305 597 delay 10;
#X obj 305 641 spigot;
#X obj 339 569 r \$0-tm-loop-s;
#X obj 665 749 spigot;
#X obj 661 648 r \$0-tm-on/off-s;
#X obj 661 670 sel 0 1;
#X obj 692 699 delay 1000;
#X msg 692 721 1;
#X msg 661 692 0;
#X connect 10 0 20 0;
#X connect 10 0 63 0;
#X connect 12 0 13 0;
#X connect 12 0 78 0;
#X connect 13 0 12 1;
#X connect 14 0 15 0;
#X connect 15 0 22 0;
#X connect 16 0 17 0;
#X connect 16 0 18 0;
#X connect 17 0 16 1;
#X connect 18 0 68 0;
#X connect 19 0 82 0;
#X connect 20 0 133 0;
#X connect 21 0 26 0;
#X connect 22 0 29 0;
#X connect 22 0 11 0;
#X connect 23 0 24 0;
#X connect 25 0 12 1;
#X connect 27 0 35 0;
#X connect 28 0 27 0;
#X connect 28 0 221 0;
#X connect 29 0 16 0;
#X connect 29 1 23 0;
#X connect 30 0 31 0;
#X connect 31 0 34 0;
#X connect 32 0 30 0;
#X connect 32 0 105 0;
#X connect 35 0 33 0;
#X connect 36 0 15 1;
#X connect 36 0 178 0;
#X connect 37 0 16 1;
#X connect 38 0 39 0;
#X connect 39 0 41 0;
#X connect 40 0 38 0;
#X connect 40 0 113 0;
#X connect 42 0 43 0;
#X connect 43 0 45 0;
#X connect 44 0 42 0;
#X connect 44 0 114 0;
#X connect 46 0 53 0;
#X connect 47 0 46 0;
#X connect 47 0 115 0;
#X connect 48 0 49 0;
#X connect 49 0 52 0;
#X connect 50 0 48 0;
#X connect 50 0 116 0;
#X connect 53 0 51 0;
#X connect 54 0 55 0;
#X connect 55 0 57 0;
#X connect 56 0 54 0;
#X connect 56 0 117 0;
#X connect 58 0 59 0;
#X connect 59 0 61 0;
#X connect 60 0 58 0;
#X connect 60 0 118 0;
#X connect 63 0 64 0;
#X connect 66 0 28 0;
#X connect 66 1 32 0;
#X connect 66 2 40 0;
#X connect 66 3 44 0;
#X connect 67 0 47 0;
#X connect 67 1 50 0;
#X connect 67 2 56 0;
#X connect 67 3 60 0;
#X connect 68 0 19 0;
#X connect 69 0 27 1;
#X connect 70 0 30 1;
#X connect 71 0 38 1;
#X connect 72 0 42 1;
#X connect 73 0 46 1;
#X connect 74 0 48 1;
#X connect 75 0 54 1;
#X connect 76 0 58 1;
#X connect 77 0 62 0;
#X connect 78 0 14 0;
#X connect 78 1 81 0;
#X connect 82 0 66 0;
#X connect 82 1 67 0;
#X connect 82 2 77 0;
#X connect 82 3 83 0;
#X connect 120 0 143 0;
#X connect 121 0 146 0;
#X connect 122 0 147 0;
#X connect 123 0 148 0;
#X connect 124 0 149 0;
#X connect 125 0 150 0;
#X connect 126 0 151 0;
#X connect 127 0 152 0;
#X connect 128 0 129 0;
#X connect 129 0 196 0;
#X connect 133 0 12 0;
#X connect 141 0 10 0;
#X connect 142 0 37 0;
#X connect 143 0 96 0;
#X connect 144 0 145 0;
#X connect 144 0 210 0;
#X connect 146 0 97 0;
#X connect 147 0 98 0;
#X connect 148 0 99 0;
#X connect 149 0 100 0;
#X connect 150 0 101 0;
#X connect 151 0 102 0;
#X connect 152 0 103 0;
#X connect 154 0 155 0;
#X connect 155 0 26 0;
#X connect 156 0 157 0;
#X connect 157 0 16 1;
#X connect 159 0 180 0;
#X connect 160 0 163 0;
#X connect 161 0 162 0;
#X connect 164 0 160 0;
#X connect 164 1 165 0;
#X connect 164 1 218 0;
#X connect 165 0 166 0;
#X connect 168 0 169 0;
#X connect 169 0 170 0;
#X connect 170 0 172 0;
#X connect 173 0 175 0;
#X connect 175 0 176 0;
#X connect 176 0 174 0;
#X connect 179 0 190 0;
#X connect 179 0 194 0;
#X connect 180 0 164 0;
#X connect 181 0 182 0;
#X connect 182 0 180 1;
#X connect 183 0 184 0;
#X connect 184 0 185 0;
#X connect 185 0 186 0;
#X connect 186 0 188 0;
#X connect 187 0 189 0;
#X connect 188 0 187 0;
#X connect 189 0 192 1;
#X connect 190 0 192 0;
#X connect 190 1 191 1;
#X connect 191 0 193 0;
#X connect 192 0 191 0;
#X connect 193 0 180 1;
#X connect 194 0 195 0;
#X connect 195 0 180 1;
#X connect 196 0 208 0;
#X connect 197 0 198 0;
#X connect 198 0 199 0;
#X connect 198 1 203 0;
#X connect 199 0 200 0;
#X connect 200 0 196 1;
#X connect 201 0 202 0;
#X connect 202 0 196 1;
#X connect 203 0 196 1;
#X connect 204 0 205 0;
#X connect 205 0 213 0;
#X connect 206 0 207 0;
#X connect 207 0 16 0;
#X connect 208 0 95 0;
#X connect 210 0 209 0;
#X connect 211 0 212 0;
#X connect 212 0 205 1;
#X connect 213 0 206 0;
#X connect 213 1 214 0;
#X connect 214 0 215 0;
#X connect 215 0 205 1;
#X connect 217 0 219 0;
#X connect 218 0 217 0;
#X connect 219 0 163 0;
#X connect 220 0 219 1;
#X connect 221 0 119 0;
#X connect 222 0 223 0;
#X connect 223 0 226 0;
#X connect 223 1 224 0;
#X connect 224 0 225 0;
#X connect 225 0 221 1;
#X connect 226 0 221 1;
#X coords 0 -1 1 1 225 265 2 100 100;
