#N canvas 0 22 1207 741 10;
#X obj 134 136 tgl 15 1 \$0-tmatrix-t1-s \$0-tmatrix-t1-r 1 -12 7 0
10 -262144 -1 -1 0 1;
#X obj 149 136 tgl 15 1 \$0-tmatrix-t2-s \$0-tmatrix-t2-r empty 17
7 0 10 -262144 -1 -1 0 1;
#X obj 164 136 tgl 15 1 \$0-tmatrix-t3-s \$0-tmatrix-t3-r empty 17
7 0 10 -262144 -1 -1 0 1;
#X obj 179 136 tgl 15 1 \$0-tmatrix-t4-s \$0-tmatrix-t4-r empty 17
7 0 10 -262144 -1 -1 0 1;
#X obj 134 151 tgl 15 1 \$0-tmatrix-t5-s \$0-tmatrix-t5-r 2 -12 7 0
10 -262144 -1 -1 0 1;
#X obj 149 151 tgl 15 1 \$0-tmatrix-t6-s \$0-tmatrix-t6-r empty 17
7 0 10 -262144 -1 -1 0 1;
#X obj 164 151 tgl 15 1 \$0-tmatrix-t7-s \$0-tmatrix-t7-r empty 17
7 0 10 -262144 -1 -1 0 1;
#X obj 179 151 tgl 15 1 \$0-tmatrix-t8-s \$0-tmatrix-t8-r empty 17
7 0 10 -262144 -1 -1 0 1;
#X obj 134 166 tgl 15 1 \$0-tmatrix-t9-s \$0-tmatrix-t9-r 3 -12 7 0
10 -262144 -1 -1 0 1;
#X obj 149 166 tgl 15 1 \$0-tmatrix-t10-s \$0-tmatrix-t10-r empty 17
7 0 10 -262144 -1 -1 0 1;
#X obj 164 166 tgl 15 1 \$0-tmatrix-t11-s \$0-tmatrix-t11-r empty 17
7 0 10 -262144 -1 -1 0 1;
#X obj 179 166 tgl 15 1 \$0-tmatrix-t12-s \$0-tmatrix-t12-r empty 17
7 0 10 -262144 -1 -1 0 1;
#X obj 134 181 tgl 15 1 \$0-tmatrix-t13-s \$0-tmatrix-t13-r A 4 25
0 10 -262144 -1 -1 0 1;
#X obj 149 181 tgl 15 1 \$0-tmatrix-t14-s \$0-tmatrix-t14-r B 4 25
0 10 -262144 -1 -1 0 1;
#X obj 164 181 tgl 15 1 \$0-tmatrix-t15-s \$0-tmatrix-t15-r C 4 25
0 10 -262144 -1 -1 0 1;
#X obj 179 181 tgl 15 1 \$0-tmatrix-t16-s \$0-tmatrix-t16-r D 4 25
0 10 -262144 -1 -1 0 1;
#X obj 102 259 inlet~;
#X obj 122 189 cnv 5 5 5 empty empty 4 0 0 0 10 -262144 -66577 0;
#X obj 216 109 cnv 5 5 5 empty empty 4 0 0 0 8 -262144 -66577 0;
#X obj 108 126 cnv 5 5 5 empty empty TOGGLE-MATRIX 0 0 0 12 -262144
-66577 0;
#X obj 207 126 cnv 5 5 5 empty \$0-instance-num 1 0 0 0 12 -262144
-66577 0;
#X obj 140 109 cnv 5 5 5 empty empty 2 0 0 0 8 -262144 -66577 0;
#X obj 179 109 cnv 5 5 5 empty empty 3 0 0 0 8 -262144 -66577 0;
#X obj 105 109 cnv 5 5 5 empty empty 1 0 0 0 8 -262144 -66577 0;
#X obj 216 218 cnv 5 5 5 empty empty D 0 0 0 8 -262144 -66577 0;
#X obj 140 218 cnv 5 5 5 empty empty B 0 0 0 8 -262144 -66577 0;
#X obj 179 218 cnv 5 5 5 empty empty C 0 0 0 8 -262144 -66577 0;
#X obj 104 218 cnv 5 5 5 empty empty A 0 0 0 8 -262144 -66577 0;
#X obj 280 660 outlet~;
#X obj 406 662 outlet~;
#X obj 506 662 outlet~;
#X obj 612 657 outlet~;
#X obj 102 356 *~;
#X obj 132 295 r \$0-tmatrix-t1-s;
#X obj 132 317 pack 0 10;
#X obj 132 339 line~;
#X obj 185 459 *~;
#X obj 200 406 pack 0 10;
#X obj 200 428 line~;
#X obj 200 384 r \$0-tmatrix-t2-s;
#X obj 332 459 *~;
#X obj 347 342 pack 0 10;
#X obj 347 364 line~;
#X obj 408 458 *~;
#X obj 423 389 pack 0 10;
#X obj 423 411 line~;
#X obj 347 320 r \$0-tmatrix-t3-s;
#X obj 423 367 r \$0-tmatrix-t4-s;
#X obj 102 482 throw~ \$0-A;
#X obj 280 592 catch~ \$0-A;
#X obj 185 482 throw~ \$0-B;
#X obj 406 614 catch~ \$0-B;
#X obj 612 612 catch~ \$0-D;
#X obj 506 613 catch~ \$0-C;
#X obj 349 71 inlet~;
#X obj 349 168 *~;
#X obj 379 129 pack 0 10;
#X obj 379 151 line~;
#X obj 432 271 *~;
#X obj 447 218 pack 0 10;
#X obj 447 240 line~;
#X obj 579 271 *~;
#X obj 594 154 pack 0 10;
#X obj 594 176 line~;
#X obj 655 270 *~;
#X obj 670 201 pack 0 10;
#X obj 670 223 line~;
#X obj 349 294 throw~ \$0-A;
#X obj 432 294 throw~ \$0-B;
#X obj 332 481 throw~ \$0-C;
#X obj 408 478 throw~ \$0-D;
#X obj 579 293 throw~ \$0-C;
#X obj 655 293 throw~ \$0-D;
#X obj 379 107 r \$0-tmatrix-t5-s;
#X obj 447 196 r \$0-tmatrix-t6-s;
#X obj 594 132 r \$0-tmatrix-t7-s;
#X obj 670 179 r \$0-tmatrix-t8-s;
#X obj 580 319 inlet~;
#X obj 580 416 *~;
#X obj 610 377 pack 0 10;
#X obj 610 399 line~;
#X obj 663 519 *~;
#X obj 678 466 pack 0 10;
#X obj 678 488 line~;
#X obj 810 519 *~;
#X obj 825 402 pack 0 10;
#X obj 825 424 line~;
#X obj 886 518 *~;
#X obj 901 449 pack 0 10;
#X obj 901 471 line~;
#X obj 580 542 throw~ \$0-A;
#X obj 663 542 throw~ \$0-B;
#X obj 810 541 throw~ \$0-C;
#X obj 886 541 throw~ \$0-D;
#X text 150 261 INPUT 1;
#X text 399 71 INPUT 2;
#X text 623 320 INPUT 3;
#X obj 610 355 r \$0-tmatrix-t9-s;
#X obj 678 444 r \$0-tmatrix-t10-s;
#X obj 825 380 r \$0-tmatrix-t11-s;
#X obj 901 427 r \$0-tmatrix-t12-s;
#X obj 786 81 inlet~;
#X obj 786 178 *~;
#X obj 816 139 pack 0 10;
#X obj 816 161 line~;
#X obj 869 281 *~;
#X obj 884 228 pack 0 10;
#X obj 884 250 line~;
#X obj 1016 281 *~;
#X obj 1031 164 pack 0 10;
#X obj 1031 186 line~;
#X obj 1092 280 *~;
#X obj 1107 211 pack 0 10;
#X obj 1107 233 line~;
#X obj 786 304 throw~ \$0-A;
#X obj 869 304 throw~ \$0-B;
#X obj 1016 303 throw~ \$0-C;
#X obj 1092 303 throw~ \$0-D;
#X text 833 84 INPUT 4;
#X obj 816 117 r \$0-tmatrix-t13-s;
#X obj 884 206 r \$0-tmatrix-t14-s;
#X obj 1031 142 r \$0-tmatrix-t15-s;
#X obj 1107 189 r \$0-tmatrix-t16-s;
#N canvas 315 35 895 724 state-saving-multiple-instances 0;
#X obj 205 1 loadbang;
#X obj 488 156 textfile;
#X msg 758 139 rewind;
#X msg 715 139 bang;
#X obj 110 663 textfile;
#X obj 715 100 t b b;
#X obj 111 329 f;
#X obj 124 552 f;
#X obj 52 373 t b b b;
#X msg 187 552 clear;
#X obj 272 189 outlet;
#X text 314 193 INSTANCE NUMBER;
#X obj 233 125 f \$1;
#X obj 233 161 t f f f;
#X obj 206 34 t b b;
#X obj 52 350 bng 15 250 50 0 empty empty empty 17 7 0 10 -262144 -1
-1;
#X obj 52 206 r SAVE-S;
#X msg 111 410 set \$1 \$2 \$3 \$4 \$5 \$6 \$7 \$8 \$9 \$10 \$11 \$12
\$13 \$14 \$15 \$16;
#X obj 111 372 pack f f f f f f f f f f f f f f f f;
#X obj 489 179 unpack f f f f f f f f f f f f f f f f;
#X obj 4 15 r \$0-tmatrix-t1-s;
#X obj 483 549 s \$0-tmatrix-t1-r;
#X obj 12 38 r \$0-tmatrix-t2-s;
#X obj 504 525 s \$0-tmatrix-t2-r;
#X obj 26 59 r \$0-tmatrix-t3-s;
#X obj 525 501 s \$0-tmatrix-t3-r;
#X obj 44 84 r \$0-tmatrix-t4-s;
#X obj 546 477 s \$0-tmatrix-t4-r;
#X obj 64 109 r \$0-tmatrix-t5-s;
#X obj 567 451 s \$0-tmatrix-t5-r;
#X obj 82 130 r \$0-tmatrix-t6-s;
#X obj 588 427 s \$0-tmatrix-t6-r;
#X obj 112 155 r \$0-tmatrix-t7-s;
#X obj 598 392 s \$0-tmatrix-t7-r;
#X obj 132 180 r \$0-tmatrix-t8-s;
#X obj 619 366 s \$0-tmatrix-t8-r;
#X obj 150 201 r \$0-tmatrix-t9-s;
#X obj 640 342 s \$0-tmatrix-t9-r, f 35;
#X obj 180 222 r \$0-tmatrix-t10-s;
#X obj 659 315 s \$0-tmatrix-t10-r;
#X obj 210 247 r \$0-tmatrix-t11-s;
#X obj 668 295 s \$0-tmatrix-t11-r;
#X obj 230 272 r \$0-tmatrix-t12-s;
#X obj 682 273 s \$0-tmatrix-t12-r;
#X obj 248 293 r \$0-tmatrix-t13-s;
#X obj 703 249 s \$0-tmatrix-t13-r, f 35;
#X obj 343 258 r \$0-tmatrix-t14-s;
#X obj 716 222 s \$0-tmatrix-t14-r;
#X obj 363 283 r \$0-tmatrix-t15-s;
#X obj 730 200 s \$0-tmatrix-t15-r;
#X obj 381 304 r \$0-tmatrix-t16-s;
#X obj 751 176 s \$0-tmatrix-t16-r, f 35;
#X msg 123 623 write statesave/\$1-toggle-matrix-ss.txt;
#X msg 488 131 read statesave/\$1-toggle-matrix-ss.txt;
#X connect 0 0 14 0;
#X connect 1 0 19 0;
#X connect 2 0 1 0;
#X connect 3 0 1 0;
#X connect 5 0 3 0;
#X connect 5 1 2 0;
#X connect 6 0 18 0;
#X connect 7 0 52 0;
#X connect 8 0 7 0;
#X connect 8 1 6 0;
#X connect 8 2 9 0;
#X connect 9 0 4 0;
#X connect 12 0 13 0;
#X connect 13 0 7 1;
#X connect 13 1 53 0;
#X connect 13 2 10 0;
#X connect 14 0 5 0;
#X connect 14 1 12 0;
#X connect 15 0 8 0;
#X connect 16 0 15 0;
#X connect 17 0 4 0;
#X connect 18 0 17 0;
#X connect 19 0 21 0;
#X connect 19 1 23 0;
#X connect 19 2 25 0;
#X connect 19 3 27 0;
#X connect 19 4 29 0;
#X connect 19 5 31 0;
#X connect 19 6 33 0;
#X connect 19 7 35 0;
#X connect 19 8 37 0;
#X connect 19 9 39 0;
#X connect 19 10 41 0;
#X connect 19 11 43 0;
#X connect 19 12 45 0;
#X connect 19 13 47 0;
#X connect 19 14 49 0;
#X connect 19 15 51 0;
#X connect 20 0 6 1;
#X connect 22 0 18 1;
#X connect 24 0 18 2;
#X connect 26 0 18 3;
#X connect 28 0 18 4;
#X connect 30 0 18 5;
#X connect 32 0 18 6;
#X connect 34 0 18 7;
#X connect 36 0 18 8;
#X connect 38 0 18 9;
#X connect 40 0 18 10;
#X connect 42 0 18 11;
#X connect 44 0 18 12;
#X connect 46 0 18 13;
#X connect 48 0 18 14;
#X connect 50 0 18 15;
#X connect 52 0 4 0;
#X connect 53 0 1 0;
#X restore 20 563 pd state-saving-multiple-instances;
#X obj 20 635 s \$0-instance-num;
#X obj 20 587 makefilename %d;
#X msg 20 612 label \$1;
#N canvas 81 22 1117 745 state-saving-via-preset-manager-module 0;
#X obj 733 231 textfile;
#X msg 1011 214 rewind;
#X msg 968 214 bang;
#X obj 106 568 textfile;
#X obj 968 175 t b b;
#X obj 107 234 f;
#X obj 120 457 f;
#X obj 53 352 t b b b;
#X msg 236 499 clear;
#X obj 107 56 delay 5;
#X obj 53 407 delay 10;
#X msg 53 192 bang;
#X obj 53 26 r STORE-S!;
#X obj 733 132 f;
#X obj 706 89 t b b;
#X obj 721 53 t b f;
#X obj 778 150 f \$1;
#X obj 733 177 pack f f;
#X obj 778 100 loadbang;
#X obj 120 487 pack f f;
#X obj 165 440 loadbang;
#X obj 165 462 f \$1;
#X obj 721 30 r preset-manager-scan;
#X obj 135 418 r preset-manager-store-slot;
#X msg 80 670 stop;
#X obj 80 603 r STOP-MORPH!;
#X msg 106 368 set \$1 \$2 \$3 \$4 \$5 \$6 \$7 \$8 \$9 \$10 \$11 \$12
\$13 \$14 \$15 \$16;
#X obj 733 253 unpack f f f f f f f f f f f f f f f f;
#X obj 170 12 r \$0-tmatrix-t1-s;
#X obj 178 35 r \$0-tmatrix-t2-s;
#X obj 192 56 r \$0-tmatrix-t3-s;
#X obj 210 81 r \$0-tmatrix-t4-s;
#X obj 230 106 r \$0-tmatrix-t5-s;
#X obj 248 127 r \$0-tmatrix-t6-s;
#X obj 336 40 r \$0-tmatrix-t7-s;
#X obj 356 65 r \$0-tmatrix-t8-s;
#X obj 374 86 r \$0-tmatrix-t9-s;
#X obj 404 107 r \$0-tmatrix-t10-s;
#X obj 434 132 r \$0-tmatrix-t11-s;
#X obj 454 157 r \$0-tmatrix-t12-s;
#X obj 472 178 r \$0-tmatrix-t13-s;
#X obj 509 255 r \$0-tmatrix-t14-s;
#X obj 529 280 r \$0-tmatrix-t15-s;
#X obj 547 301 r \$0-tmatrix-t16-s;
#X obj 107 341 pack f f f f f f f f f f f f f f f f;
#X obj 419 661 s \$0-tmatrix-t1-r;
#X obj 996 352 s \$0-tmatrix-t16-r;
#X obj 997 407 s \$0-tmatrix-t15-r;
#X obj 982 430 s \$0-tmatrix-t14-r;
#X obj 936 452 s \$0-tmatrix-t13-r;
#X obj 889 482 s \$0-tmatrix-t12-r;
#X obj 842 504 s \$0-tmatrix-t11-r;
#X obj 828 527 s \$0-tmatrix-t10-r;
#X obj 781 549 s \$0-tmatrix-t9-r;
#X obj 682 497 s \$0-tmatrix-t8-r;
#X obj 635 519 s \$0-tmatrix-t7-r;
#X obj 620 542 s \$0-tmatrix-t6-r;
#X obj 574 564 s \$0-tmatrix-t5-r;
#X obj 527 594 s \$0-tmatrix-t4-r;
#X obj 480 616 s \$0-tmatrix-t3-r;
#X obj 466 639 s \$0-tmatrix-t2-r;
#X msg 733 206 read statesave/\$1-\$2-toggle-matrix-ss.txt;
#X msg 119 528 write statesave/\$1-\$2-toggle-matrix-ss.txt;
#X connect 0 0 27 0;
#X connect 1 0 0 0;
#X connect 2 0 0 0;
#X connect 4 0 2 0;
#X connect 4 1 1 0;
#X connect 5 0 44 0;
#X connect 6 0 19 0;
#X connect 7 0 10 0;
#X connect 7 1 9 0;
#X connect 7 2 8 0;
#X connect 8 0 3 0;
#X connect 9 0 5 0;
#X connect 10 0 6 0;
#X connect 11 0 7 0;
#X connect 12 0 11 0;
#X connect 13 0 17 0;
#X connect 14 0 4 0;
#X connect 14 1 13 0;
#X connect 15 0 14 0;
#X connect 15 1 13 1;
#X connect 16 0 17 1;
#X connect 17 0 61 0;
#X connect 18 0 16 0;
#X connect 19 0 62 0;
#X connect 20 0 21 0;
#X connect 21 0 19 1;
#X connect 22 0 15 0;
#X connect 23 0 6 1;
#X connect 25 0 24 0;
#X connect 26 0 3 0;
#X connect 27 0 45 0;
#X connect 27 1 60 0;
#X connect 27 2 59 0;
#X connect 27 3 58 0;
#X connect 27 4 57 0;
#X connect 27 5 56 0;
#X connect 27 6 55 0;
#X connect 27 7 54 0;
#X connect 27 8 53 0;
#X connect 27 9 52 0;
#X connect 27 10 51 0;
#X connect 27 11 50 0;
#X connect 27 12 49 0;
#X connect 27 13 48 0;
#X connect 27 14 47 0;
#X connect 27 15 46 0;
#X connect 28 0 5 1;
#X connect 29 0 44 1;
#X connect 30 0 44 2;
#X connect 31 0 44 3;
#X connect 32 0 44 4;
#X connect 33 0 44 5;
#X connect 34 0 44 6;
#X connect 35 0 44 7;
#X connect 36 0 44 8;
#X connect 37 0 44 9;
#X connect 38 0 44 10;
#X connect 39 0 44 11;
#X connect 40 0 44 12;
#X connect 41 0 44 13;
#X connect 42 0 44 14;
#X connect 43 0 44 15;
#X connect 44 0 26 0;
#X connect 61 0 0 0;
#X connect 62 0 3 0;
#X restore 20 659 pd state-saving-via-preset-manager-module;
#N canvas 297 27 755 502 parameter-nudging-system 0;
#X obj 32 44 r NUDGE!;
#X obj 32 66 random 2;
#X obj 170 43 r NUDGE!;
#X obj 170 65 random 2;
#X obj 311 41 r NUDGE!;
#X obj 311 63 random 2;
#X obj 454 41 r NUDGE!;
#X obj 454 63 random 2;
#X obj 30 151 r NUDGE!;
#X obj 30 173 random 2;
#X obj 168 150 r NUDGE!;
#X obj 168 172 random 2;
#X obj 309 148 r NUDGE!;
#X obj 309 170 random 2;
#X obj 452 148 r NUDGE!;
#X obj 452 170 random 2;
#X obj 32 88 s \$0-tmatrix-t1-r;
#X obj 170 87 s \$0-tmatrix-t2-r;
#X obj 311 85 s \$0-tmatrix-t3-r;
#X obj 454 85 s \$0-tmatrix-t4-r;
#X obj 30 195 s \$0-tmatrix-t5-r;
#X obj 168 193 s \$0-tmatrix-t6-r;
#X obj 309 192 s \$0-tmatrix-t7-r;
#X obj 452 192 s \$0-tmatrix-t8-r;
#X obj 34 257 r NUDGE!;
#X obj 34 279 random 2;
#X obj 172 256 r NUDGE!;
#X obj 172 278 random 2;
#X obj 313 254 r NUDGE!;
#X obj 313 276 random 2;
#X obj 456 254 r NUDGE!;
#X obj 456 276 random 2;
#X obj 32 364 r NUDGE!;
#X obj 32 386 random 2;
#X obj 170 363 r NUDGE!;
#X obj 170 385 random 2;
#X obj 311 361 r NUDGE!;
#X obj 311 383 random 2;
#X obj 454 361 r NUDGE!;
#X obj 454 383 random 2;
#X obj 34 301 s \$0-tmatrix-t9-r;
#X obj 172 300 s \$0-tmatrix-t10-r;
#X obj 313 298 s \$0-tmatrix-t11-r;
#X obj 456 298 s \$0-tmatrix-t12-r;
#X obj 32 408 s \$0-tmatrix-t13-r;
#X obj 170 406 s \$0-tmatrix-t14-r;
#X obj 311 405 s \$0-tmatrix-t15-r;
#X obj 454 403 s \$0-tmatrix-t16-r;
#X connect 0 0 1 0;
#X connect 1 0 16 0;
#X connect 2 0 3 0;
#X connect 3 0 17 0;
#X connect 4 0 5 0;
#X connect 5 0 18 0;
#X connect 6 0 7 0;
#X connect 7 0 19 0;
#X connect 8 0 9 0;
#X connect 9 0 20 0;
#X connect 10 0 11 0;
#X connect 11 0 21 0;
#X connect 12 0 13 0;
#X connect 13 0 22 0;
#X connect 14 0 15 0;
#X connect 15 0 23 0;
#X connect 24 0 25 0;
#X connect 25 0 40 0;
#X connect 26 0 27 0;
#X connect 27 0 41 0;
#X connect 28 0 29 0;
#X connect 29 0 42 0;
#X connect 30 0 31 0;
#X connect 31 0 43 0;
#X connect 32 0 33 0;
#X connect 33 0 44 0;
#X connect 34 0 35 0;
#X connect 35 0 45 0;
#X connect 36 0 37 0;
#X connect 37 0 46 0;
#X connect 38 0 39 0;
#X connect 39 0 47 0;
#X restore 19 686 pd parameter-nudging-system;
#X connect 16 0 32 0;
#X connect 16 0 36 0;
#X connect 16 0 40 0;
#X connect 16 0 43 0;
#X connect 32 0 48 0;
#X connect 33 0 34 0;
#X connect 34 0 35 0;
#X connect 35 0 32 1;
#X connect 36 0 50 0;
#X connect 37 0 38 0;
#X connect 38 0 36 1;
#X connect 39 0 37 0;
#X connect 40 0 69 0;
#X connect 41 0 42 0;
#X connect 42 0 40 1;
#X connect 43 0 70 0;
#X connect 44 0 45 0;
#X connect 45 0 43 1;
#X connect 46 0 41 0;
#X connect 47 0 44 0;
#X connect 49 0 28 0;
#X connect 51 0 29 0;
#X connect 52 0 31 0;
#X connect 53 0 30 0;
#X connect 54 0 55 0;
#X connect 54 0 58 0;
#X connect 54 0 61 0;
#X connect 54 0 64 0;
#X connect 55 0 67 0;
#X connect 56 0 57 0;
#X connect 57 0 55 1;
#X connect 58 0 68 0;
#X connect 59 0 60 0;
#X connect 60 0 58 1;
#X connect 61 0 71 0;
#X connect 62 0 63 0;
#X connect 63 0 61 1;
#X connect 64 0 72 0;
#X connect 65 0 66 0;
#X connect 66 0 64 1;
#X connect 73 0 56 0;
#X connect 74 0 59 0;
#X connect 75 0 62 0;
#X connect 76 0 65 0;
#X connect 77 0 78 0;
#X connect 77 0 81 0;
#X connect 77 0 84 0;
#X connect 77 0 87 0;
#X connect 78 0 90 0;
#X connect 79 0 80 0;
#X connect 80 0 78 1;
#X connect 81 0 91 0;
#X connect 82 0 83 0;
#X connect 83 0 81 1;
#X connect 84 0 92 0;
#X connect 85 0 86 0;
#X connect 86 0 84 1;
#X connect 87 0 93 0;
#X connect 88 0 89 0;
#X connect 89 0 87 1;
#X connect 97 0 79 0;
#X connect 98 0 82 0;
#X connect 99 0 85 0;
#X connect 100 0 88 0;
#X connect 101 0 102 0;
#X connect 101 0 105 0;
#X connect 101 0 108 0;
#X connect 101 0 111 0;
#X connect 102 0 114 0;
#X connect 103 0 104 0;
#X connect 104 0 102 1;
#X connect 105 0 115 0;
#X connect 106 0 107 0;
#X connect 107 0 105 1;
#X connect 108 0 116 0;
#X connect 109 0 110 0;
#X connect 110 0 108 1;
#X connect 111 0 117 0;
#X connect 112 0 113 0;
#X connect 113 0 111 1;
#X connect 119 0 103 0;
#X connect 120 0 106 0;
#X connect 121 0 109 0;
#X connect 122 0 112 0;
#X connect 123 0 125 0;
#X connect 125 0 126 0;
#X connect 126 0 124 0;
#X coords 0 -1 1 1 125 125 2 100 100;
