#N canvas 529 64 911 729 10;
#X obj 105 158 hsl 128 15 0 127 0 0 \$0-rate-cv-att-s \$0-rate-cv-att-r
CV 133 7 0 10 -137270 -1 -1 0 1;
#X obj 105 173 hsl 128 15 0 127 0 0 \$0-frequency-s \$0-frequency-r
FREQ 133 7 0 10 -262144 -1 -1 0 1;
#X obj 252 108 cnv 5 5 5 empty empty RATE 0 0 0 8 -262144 -120682 0
;
#X obj 103 108 cnv 5 5 5 empty empty IN 0 0 0 8 -262144 -66577 0;
#X obj 102 136 cnv 5 5 5 empty empty TREMOLO 0 0 0 12 -262144 -66577
0;
#X obj 157 136 cnv 5 5 5 empty \$0-instance-num 2 0 0 0 12 -262144
-66577 0;
#X obj 105 143 hsl 128 15 0 127 0 0 \$0-rate-s \$0-rate-r RATE 133
7 0 10 -262144 -1 -1 0 1;
#N canvas 100 23 593 735 state-saving-multiple-instances 0;
#X obj 164 26 loadbang;
#X obj 210 479 textfile;
#X msg 491 462 rewind;
#X msg 448 462 bang;
#X obj 88 707 textfile;
#X obj 448 421 t b b;
#X obj 88 355 f;
#X obj 101 578 f;
#X obj 27 402 t b b b;
#X msg 163 573 clear;
#X obj 230 235 outlet;
#X text 272 237 INSTANCE NUMBER;
#X obj 191 200 t f f f;
#X obj 191 164 f \$1;
#X obj 164 59 t b b;
#X obj 27 378 bng 15 250 50 0 empty empty empty 17 7 0 10 -262144 -1
-1;
#X obj 27 234 r SAVE-S;
#X msg 101 682 write statesave/\$1-tremolo-ss.txt;
#X msg 210 454 read statesave/\$1-tremolo-ss.txt;
#X obj 103 308 r \$0-rate-s;
#X obj 210 581 s \$0-rate-r;
#X obj 116 337 r \$0-rate-cv-att-s;
#X obj 237 558 s \$0-rate-cv-att-r;
#X obj 145 365 r \$0-depth-s;
#X obj 264 536 s \$0-depth-r;
#X msg 88 436 set \$1 \$2 \$3 \$4;
#X obj 88 398 pack f f f f;
#X obj 241 382 r \$0-frequency-s;
#X obj 210 501 unpack f f f f;
#X obj 344 517 s \$0-frequency-r;
#X connect 0 0 14 0;
#X connect 1 0 28 0;
#X connect 2 0 1 0;
#X connect 3 0 1 0;
#X connect 5 0 3 0;
#X connect 5 1 2 0;
#X connect 6 0 26 0;
#X connect 7 0 17 0;
#X connect 8 0 7 0;
#X connect 8 1 6 0;
#X connect 8 2 9 0;
#X connect 9 0 4 0;
#X connect 12 0 7 1;
#X connect 12 1 18 0;
#X connect 12 2 10 0;
#X connect 13 0 12 0;
#X connect 14 0 5 0;
#X connect 14 1 13 0;
#X connect 15 0 8 0;
#X connect 16 0 15 0;
#X connect 17 0 4 0;
#X connect 18 0 1 0;
#X connect 19 0 6 1;
#X connect 21 0 26 1;
#X connect 23 0 26 2;
#X connect 25 0 4 0;
#X connect 26 0 25 0;
#X connect 27 0 26 3;
#X connect 28 0 20 0;
#X connect 28 1 22 0;
#X connect 28 2 24 0;
#X connect 28 3 29 0;
#X restore 13 616 pd state-saving-multiple-instances;
#X obj 13 693 s \$0-instance-num;
#X obj 13 645 makefilename %d;
#X msg 13 670 label \$1;
#N canvas 81 23 1117 745 state-saving-via-preset-manager-module 0;
#X obj 477 349 textfile;
#X msg 797 332 rewind;
#X msg 754 332 bang;
#X obj 243 690 textfile;
#X obj 754 293 t b b;
#X obj 244 356 f;
#X obj 257 579 f;
#X obj 190 474 t b b b;
#X msg 373 621 clear;
#X obj 244 180 delay 5;
#X obj 190 529 delay 10;
#X msg 190 314 bang;
#X obj 190 155 r STORE-S!;
#X obj 477 250 f;
#X obj 450 207 t b b;
#X obj 465 171 t b f;
#X obj 522 268 f \$1;
#X obj 477 295 pack f f;
#X obj 522 218 loadbang;
#X obj 257 609 pack f f;
#X obj 302 562 loadbang;
#X obj 302 584 f \$1;
#X obj 465 148 r preset-manager-scan;
#X obj 272 540 r preset-manager-store-slot;
#N canvas 0 22 1069 747 morph-parameters 0;
#X obj 176 94 inlet;
#X obj 176 236 pack f f;
#X obj 176 261 line;
#X obj 209 117 r preset-manager-morph-s;
#X msg 72 244 stop;
#X obj 72 214 r STOP-MORPH!;
#X obj 209 206 spigot;
#X obj 398 137 t f f;
#X obj 455 154 == 0;
#X obj 221 176 f;
#X floatatom 455 222 5 0 0 0 - - -, f 5;
#X obj 398 159 t b f;
#X floatatom 425 192 5 0 0 0 - - -, f 5;
#X obj 209 139 t f f;
#X obj 398 102 r parameters-s;
#X obj 176 288 outlet;
#X connect 0 0 1 0;
#X connect 1 0 2 0;
#X connect 2 0 15 0;
#X connect 3 0 13 0;
#X connect 4 0 2 0;
#X connect 5 0 4 0;
#X connect 6 0 1 1;
#X connect 7 0 11 0;
#X connect 7 1 8 0;
#X connect 8 0 10 0;
#X connect 9 0 6 0;
#X connect 10 0 1 1;
#X connect 11 0 9 0;
#X connect 11 1 12 0;
#X connect 12 0 6 1;
#X connect 13 0 6 0;
#X connect 13 1 9 1;
#X connect 14 0 7 0;
#X restore 477 688 pd morph-parameters;
#N canvas 0 22 1069 747 morph-parameters 0;
#X obj 176 94 inlet;
#X obj 176 236 pack f f;
#X obj 176 261 line;
#X obj 209 117 r preset-manager-morph-s;
#X msg 72 244 stop;
#X obj 72 214 r STOP-MORPH!;
#X obj 209 206 spigot;
#X obj 398 137 t f f;
#X obj 455 154 == 0;
#X obj 221 176 f;
#X floatatom 455 222 5 0 0 0 - - -, f 5;
#X obj 398 159 t b f;
#X floatatom 425 192 5 0 0 0 - - -, f 5;
#X obj 209 139 t f f;
#X obj 398 102 r parameters-s;
#X obj 176 288 outlet;
#X connect 0 0 1 0;
#X connect 1 0 2 0;
#X connect 2 0 15 0;
#X connect 3 0 13 0;
#X connect 4 0 2 0;
#X connect 5 0 4 0;
#X connect 6 0 1 1;
#X connect 7 0 11 0;
#X connect 7 1 8 0;
#X connect 8 0 10 0;
#X connect 9 0 6 0;
#X connect 10 0 1 1;
#X connect 11 0 9 0;
#X connect 11 1 12 0;
#X connect 12 0 6 1;
#X connect 13 0 6 0;
#X connect 13 1 9 1;
#X connect 14 0 7 0;
#X restore 546 478 pd morph-parameters;
#X msg 256 650 write statesave/\$1-\$2-tremolo-ss.txt;
#X msg 477 324 read statesave/\$1-\$2-tremolo-ss.txt;
#X obj 259 308 r \$0-rate-s;
#X obj 477 713 s \$0-rate-r;
#X obj 272 356 r \$0-rate-cv-att-s;
#X obj 511 615 s \$0-rate-cv-att-r;
#N canvas 0 22 1069 747 morph-attenuators 0;
#X obj 176 94 inlet;
#X obj 176 236 pack f f;
#X obj 176 261 line;
#X obj 209 117 r preset-manager-morph-s;
#X msg 72 244 stop;
#X obj 72 214 r STOP-MORPH!;
#X obj 209 206 spigot;
#X obj 398 137 t f f;
#X obj 455 154 == 0;
#X obj 221 176 f;
#X floatatom 455 222 5 0 0 0 - - -, f 5;
#X obj 398 159 t b f;
#X floatatom 425 192 5 0 0 0 - - -, f 5;
#X obj 209 139 t f f;
#X obj 398 102 r attenuators-s;
#X obj 176 288 outlet;
#X connect 0 0 1 0;
#X connect 1 0 2 0;
#X connect 2 0 15 0;
#X connect 3 0 13 0;
#X connect 4 0 2 0;
#X connect 5 0 4 0;
#X connect 6 0 1 1;
#X connect 7 0 11 0;
#X connect 7 1 8 0;
#X connect 8 0 10 0;
#X connect 9 0 6 0;
#X connect 10 0 1 1;
#X connect 11 0 9 0;
#X connect 11 1 12 0;
#X connect 12 0 6 1;
#X connect 13 0 6 0;
#X connect 13 1 9 1;
#X connect 14 0 7 0;
#X restore 511 592 pd morph-attenuators;
#X obj 301 379 r \$0-depth-s;
#X obj 546 502 s \$0-depth-r;
#X msg 243 490 set \$1 \$2 \$3 \$4;
#X obj 244 423 pack f f f f;
#X obj 360 409 r \$0-frequency-s;
#N canvas 0 22 1069 747 morph-parameters 0;
#X obj 176 94 inlet;
#X obj 176 236 pack f f;
#X obj 176 261 line;
#X obj 209 117 r preset-manager-morph-s;
#X msg 72 244 stop;
#X obj 72 214 r STOP-MORPH!;
#X obj 209 206 spigot;
#X obj 398 137 t f f;
#X obj 455 154 == 0;
#X obj 221 176 f;
#X floatatom 455 222 5 0 0 0 - - -, f 5;
#X obj 398 159 t b f;
#X floatatom 425 192 5 0 0 0 - - -, f 5;
#X obj 209 139 t f f;
#X obj 398 102 r parameters-s;
#X obj 176 288 outlet;
#X connect 0 0 1 0;
#X connect 1 0 2 0;
#X connect 2 0 15 0;
#X connect 3 0 13 0;
#X connect 4 0 2 0;
#X connect 5 0 4 0;
#X connect 6 0 1 1;
#X connect 7 0 11 0;
#X connect 7 1 8 0;
#X connect 8 0 10 0;
#X connect 9 0 6 0;
#X connect 10 0 1 1;
#X connect 11 0 9 0;
#X connect 11 1 12 0;
#X connect 12 0 6 1;
#X connect 13 0 6 0;
#X connect 13 1 9 1;
#X connect 14 0 7 0;
#X restore 613 430 pd morph-parameters;
#X obj 477 371 unpack f f f f;
#X obj 613 454 s \$0-frequency-r;
#X connect 0 0 39 0;
#X connect 1 0 0 0;
#X connect 2 0 0 0;
#X connect 4 0 2 0;
#X connect 4 1 1 0;
#X connect 5 0 36 0;
#X connect 6 0 19 0;
#X connect 7 0 10 0;
#X connect 7 1 9 0;
#X connect 7 2 8 0;
#X connect 8 0 3 0;
#X connect 9 0 5 0;
#X connect 10 0 6 0;
#X connect 11 0 7 0;
#X connect 12 0 11 0;
#X connect 13 0 17 0;
#X connect 14 0 4 0;
#X connect 14 1 13 0;
#X connect 15 0 14 0;
#X connect 15 1 13 1;
#X connect 16 0 17 1;
#X connect 17 0 27 0;
#X connect 18 0 16 0;
#X connect 19 0 26 0;
#X connect 20 0 21 0;
#X connect 21 0 19 1;
#X connect 22 0 15 0;
#X connect 23 0 6 1;
#X connect 24 0 29 0;
#X connect 25 0 34 0;
#X connect 26 0 3 0;
#X connect 27 0 0 0;
#X connect 28 0 5 1;
#X connect 30 0 36 1;
#X connect 32 0 31 0;
#X connect 33 0 36 2;
#X connect 35 0 3 0;
#X connect 36 0 35 0;
#X connect 37 0 36 2;
#X connect 38 0 40 0;
#X connect 39 0 24 0;
#X connect 39 1 32 0;
#X connect 39 2 25 0;
#X connect 39 3 38 0;
#X restore 13 590 pd state-saving-via-preset-manager-module;
#N canvas 297 27 518 295 parameter-nudging-system 0;
#X obj 23 67 clip 0 127;
#X obj 171 67 clip 0 127;
#N canvas 0 23 484 497 nudge-parameters 0;
#X obj 124 234 random;
#X obj 232 335 f;
#X obj 232 368 +;
#X obj 257 166 random 2;
#X obj 124 275 t f f;
#X obj 124 351 t b f;
#X obj 124 297 *;
#X obj 257 188 sel 0 1;
#X msg 257 280 -1;
#X msg 335 280 1;
#X obj 124 149 t b b b;
#X obj 124 74 r NUDGE!;
#X obj 157 193 r NUDGE-RANGE;
#X obj 247 308 inlet;
#X obj 232 397 outlet;
#X obj 124 96 spigot;
#X obj 185 79 r parameters2-s;
#X connect 0 0 4 0;
#X connect 1 0 2 0;
#X connect 2 0 14 0;
#X connect 3 0 7 0;
#X connect 4 0 6 0;
#X connect 5 0 2 0;
#X connect 5 1 2 1;
#X connect 6 0 5 0;
#X connect 7 0 8 0;
#X connect 7 1 9 0;
#X connect 8 0 6 1;
#X connect 9 0 6 1;
#X connect 10 0 0 0;
#X connect 10 1 1 0;
#X connect 10 2 3 0;
#X connect 11 0 15 0;
#X connect 12 0 0 1;
#X connect 13 0 1 1;
#X connect 15 0 10 0;
#X connect 16 0 15 1;
#X restore 23 44 pd nudge-parameters;
#X obj 23 22 r \$0-rate-s;
#X obj 23 95 s \$0-rate-r;
#X obj 171 22 r \$0-rate-cv-att-s;
#X obj 171 95 s \$0-rate-cv-att-r;
#N canvas 0 23 484 497 nudge-attenuators 0;
#X obj 124 234 random;
#X obj 232 335 f;
#X obj 232 368 +;
#X obj 257 166 random 2;
#X obj 124 275 t f f;
#X obj 124 351 t b f;
#X obj 124 297 *;
#X obj 257 188 sel 0 1;
#X msg 257 280 -1;
#X msg 335 280 1;
#X obj 124 149 t b b b;
#X obj 124 71 r NUDGE!;
#X obj 157 193 r NUDGE-RANGE;
#X obj 247 308 inlet;
#X obj 232 397 outlet;
#X obj 124 93 spigot;
#X obj 201 76 r attenuators2-s;
#X connect 0 0 4 0;
#X connect 1 0 2 0;
#X connect 2 0 14 0;
#X connect 3 0 7 0;
#X connect 4 0 6 0;
#X connect 5 0 2 0;
#X connect 5 1 2 1;
#X connect 6 0 5 0;
#X connect 7 0 8 0;
#X connect 7 1 9 0;
#X connect 8 0 6 1;
#X connect 9 0 6 1;
#X connect 10 0 0 0;
#X connect 10 1 1 0;
#X connect 10 2 3 0;
#X connect 11 0 15 0;
#X connect 12 0 0 1;
#X connect 13 0 1 1;
#X connect 15 0 10 0;
#X connect 16 0 15 1;
#X restore 171 44 pd nudge-attenuators;
#X obj 314 67 clip 0 127;
#N canvas 0 23 484 497 nudge-parameters 0;
#X obj 124 234 random;
#X obj 232 335 f;
#X obj 232 368 +;
#X obj 257 166 random 2;
#X obj 124 275 t f f;
#X obj 124 351 t b f;
#X obj 124 297 *;
#X obj 257 188 sel 0 1;
#X msg 257 280 -1;
#X msg 335 280 1;
#X obj 124 149 t b b b;
#X obj 124 74 r NUDGE!;
#X obj 157 193 r NUDGE-RANGE;
#X obj 247 308 inlet;
#X obj 232 397 outlet;
#X obj 124 96 spigot;
#X obj 185 79 r parameters2-s;
#X connect 0 0 4 0;
#X connect 1 0 2 0;
#X connect 2 0 14 0;
#X connect 3 0 7 0;
#X connect 4 0 6 0;
#X connect 5 0 2 0;
#X connect 5 1 2 1;
#X connect 6 0 5 0;
#X connect 7 0 8 0;
#X connect 7 1 9 0;
#X connect 8 0 6 1;
#X connect 9 0 6 1;
#X connect 10 0 0 0;
#X connect 10 1 1 0;
#X connect 10 2 3 0;
#X connect 11 0 15 0;
#X connect 12 0 0 1;
#X connect 13 0 1 1;
#X connect 15 0 10 0;
#X connect 16 0 15 1;
#X restore 314 44 pd nudge-parameters;
#X obj 314 22 r \$0-depth-s;
#X obj 314 95 s \$0-depth-r;
#X obj 36 204 clip 0 127;
#N canvas 0 23 484 497 nudge-parameters 0;
#X obj 124 234 random;
#X obj 232 335 f;
#X obj 232 368 +;
#X obj 257 166 random 2;
#X obj 124 275 t f f;
#X obj 124 351 t b f;
#X obj 124 297 *;
#X obj 257 188 sel 0 1;
#X msg 257 280 -1;
#X msg 335 280 1;
#X obj 124 149 t b b b;
#X obj 124 74 r NUDGE!;
#X obj 157 193 r NUDGE-RANGE;
#X obj 247 308 inlet;
#X obj 232 397 outlet;
#X obj 124 96 spigot;
#X obj 185 79 r parameters2-s;
#X connect 0 0 4 0;
#X connect 1 0 2 0;
#X connect 2 0 14 0;
#X connect 3 0 7 0;
#X connect 4 0 6 0;
#X connect 5 0 2 0;
#X connect 5 1 2 1;
#X connect 6 0 5 0;
#X connect 7 0 8 0;
#X connect 7 1 9 0;
#X connect 8 0 6 1;
#X connect 9 0 6 1;
#X connect 10 0 0 0;
#X connect 10 1 1 0;
#X connect 10 2 3 0;
#X connect 11 0 15 0;
#X connect 12 0 0 1;
#X connect 13 0 1 1;
#X connect 15 0 10 0;
#X connect 16 0 15 1;
#X restore 36 181 pd nudge-parameters;
#X obj 36 159 r \$0-frequency-s;
#X obj 36 232 s \$0-frequency-r;
#X connect 0 0 4 0;
#X connect 1 0 6 0;
#X connect 2 0 0 0;
#X connect 3 0 2 0;
#X connect 5 0 7 0;
#X connect 7 0 1 0;
#X connect 8 0 11 0;
#X connect 9 0 8 0;
#X connect 10 0 9 0;
#X connect 12 0 15 0;
#X connect 13 0 12 0;
#X connect 14 0 13 0;
#X restore 13 566 pd parameter-nudging-system;
#N canvas 264 23 749 752 external-messages 1;
#X floatatom 186 706 5 0 0 0 - - -, f 5;
#X obj 185 328 spigot;
#X obj 218 288 tgl 15 0 empty empty empty 17 7 0 10 -262144 -1 -1 0
1;
#X obj 254 272 ==;
#X obj 269 248 f \$1;
#X obj 269 224 loadbang;
#X msg 185 202 \$1 \$2;
#X msg 185 156 symbol \$1;
#X obj 185 180 pack s f;
#X obj 186 685 f;
#X obj 186 633 t b f;
#X obj 186 656 spigot;
#X obj 185 62 unpack s f f;
#X symbolatom 185 94 10 0 0 0 - - -, f 10;
#X obj 218 308 t f f;
#X obj 245 332 s \$0-msg-spigot;
#X obj 234 640 r \$0-msg-spigot;
#X floatatom 223 594 5 0 0 0 - - -, f 5;
#X obj 223 573 f;
#X obj 223 521 t b f;
#X obj 223 544 spigot;
#X obj 271 528 r \$0-msg-spigot;
#X floatatom 387 639 5 0 0 0 - - -, f 5;
#X obj 387 618 f;
#X obj 387 566 t b f;
#X obj 387 589 spigot;
#X obj 435 573 r \$0-msg-spigot;
#X obj 185 14 r tremolo;
#X obj 186 726 s \$0-rate-r;
#X obj 223 614 s \$0-rate-cv-att-r;
#X obj 387 659 s \$0-depth-r;
#X floatatom 588 642 5 0 0 0 - - -, f 5;
#X obj 588 621 f;
#X obj 588 569 t b f;
#X obj 588 592 spigot;
#X obj 636 576 r \$0-msg-spigot;
#X obj 185 380 route RATE CV DEPTH FREQ TIMING SLOPE;
#X obj 588 662 s \$0-frequency-r;
#X connect 0 0 28 0;
#X connect 1 0 36 0;
#X connect 2 0 14 0;
#X connect 3 0 2 0;
#X connect 4 0 3 1;
#X connect 5 0 4 0;
#X connect 6 0 1 0;
#X connect 7 0 8 0;
#X connect 8 0 6 0;
#X connect 9 0 0 0;
#X connect 10 0 11 0;
#X connect 10 1 9 1;
#X connect 11 0 9 0;
#X connect 12 0 13 0;
#X connect 12 1 8 1;
#X connect 12 2 3 0;
#X connect 13 0 7 0;
#X connect 14 0 1 1;
#X connect 14 1 15 0;
#X connect 16 0 11 1;
#X connect 17 0 29 0;
#X connect 18 0 17 0;
#X connect 19 0 20 0;
#X connect 19 1 18 1;
#X connect 20 0 18 0;
#X connect 21 0 20 1;
#X connect 22 0 30 0;
#X connect 23 0 22 0;
#X connect 24 0 25 0;
#X connect 24 1 23 1;
#X connect 25 0 23 0;
#X connect 26 0 25 1;
#X connect 27 0 12 0;
#X connect 31 0 37 0;
#X connect 32 0 31 0;
#X connect 33 0 34 0;
#X connect 33 1 32 1;
#X connect 34 0 32 0;
#X connect 35 0 34 1;
#X connect 36 0 10 0;
#X connect 36 1 19 0;
#X connect 36 2 24 0;
#X connect 36 3 33 0;
#X connect 36 4 33 0;
#X connect 36 5 33 0;
#X restore 15 540 pd external-messages;
#X obj 105 188 hsl 128 15 0 127 0 0 \$0-depth-s \$0-depth-r DEPTH 133
7 0 10 -262144 -1 -1 0 1;
#X obj 190 128 hradio 15 1 0 3 \$0-radio-gui-s \$0-radio-gui-r HARMONIC
0 -8 0 10 -262144 -1 -1 0;
#X obj 21 238 r \$0-radio-gui-s;
#X obj 21 376 s \$0-radio-gui-r;
#X obj 21 259 sel 0 1 2;
#X msg 38 315 label TUBE;
#X msg 21 338 label HARMONIC;
#X msg 55 290 label PHOTOCELL;
#N canvas 0 23 937 729 HARMONIC-TREMOLO 0;
#X obj 347 145 inlet~;
#X obj 354 665 outlet~;
#X obj 351 384 lop~;
#X obj 518 380 hip~;
#X obj 353 504 *~;
#X obj 589 279 phasor~;
#X obj 590 302 +~;
#X obj 590 323 cos~;
#X obj 785 335 / 127;
#X obj 785 356 pack 0 10;
#X obj 785 377 line~;
#X obj 589 113 / 127;
#X obj 589 156 pack 0 10;
#X obj 589 177 line~;
#X obj 589 257 +~;
#X obj 521 538 *~;
#X obj 590 430 *~;
#X obj 737 416 +~ 0.5;
#X obj 737 438 wrap~;
#X obj 737 459 +~;
#X obj 737 480 cos~;
#X obj 770 577 *~;
#X obj 590 450 *~ 1;
#X obj 770 598 *~ 1;
#X obj 170 419 pack 0 10;
#X obj 170 440 line~;
#X obj 368 467 +~;
#X obj 547 507 +~;
#X obj 590 383 *~ 0.5;
#X obj 590 404 +~ 0.5;
#X obj 737 501 *~ 0.5;
#X obj 737 522 +~ 0.5;
#X obj 170 355 / 127;
#X msg 170 376 1 \$1;
#X obj 170 397 -;
#X obj 155 469 *~;
#X obj 589 134 * 12;
#X obj 372 313 t f f;
#X obj 785 309 r \$0-depth-s;
#X obj 170 334 r \$0-depth-s;
#X obj 589 92 r \$0-rate-s;
#X obj 668 93 inlet~;
#X obj 668 120 *~ 12;
#X obj 668 141 clip~ -12 12;
#X obj 700 162 r \$0-rate-cv-att-s;
#X obj 668 241 *~;
#X obj 700 183 / 127;
#X obj 700 204 pack 0 10;
#X obj 700 225 line~;
#X obj 427 56 mtof;
#X floatatom 427 77 5 0 0 0 - - -, f 5;
#X obj 362 418 lop~;
#X obj 518 428 hip~;
#X obj 285 434 s~ \$0-Q1;
#X obj 270 329 r~ \$0-Q1;
#X obj 512 298 r~ \$0-Q2;
#X obj 435 445 s~ \$0-Q2;
#X obj 457 250 snapshot~;
#X floatatom 455 276 5 0 0 0 - - -, f 5;
#X obj 427 97 pack 0 1;
#X obj 427 118 line~;
#X obj 427 139 lop~ 10;
#X obj 427 160 +~;
#X obj 511 138 bang~;
#X obj 270 350 *~ 0.5;
#X obj 512 319 *~ 0.5;
#X obj 427 32 r \$0-frequency-s;
#X connect 0 0 2 0;
#X connect 0 0 3 0;
#X connect 0 0 35 0;
#X connect 2 0 51 0;
#X connect 3 0 52 0;
#X connect 4 0 1 0;
#X connect 5 0 6 0;
#X connect 5 0 17 0;
#X connect 6 0 7 0;
#X connect 7 0 28 0;
#X connect 8 0 9 0;
#X connect 9 0 10 0;
#X connect 10 0 16 1;
#X connect 10 0 21 1;
#X connect 11 0 36 0;
#X connect 12 0 13 0;
#X connect 13 0 14 0;
#X connect 14 0 5 0;
#X connect 15 0 1 0;
#X connect 16 0 22 0;
#X connect 17 0 18 0;
#X connect 18 0 19 0;
#X connect 19 0 20 0;
#X connect 20 0 30 0;
#X connect 21 0 23 0;
#X connect 22 0 26 1;
#X connect 23 0 27 1;
#X connect 24 0 25 0;
#X connect 25 0 35 1;
#X connect 26 0 4 1;
#X connect 27 0 15 1;
#X connect 28 0 29 0;
#X connect 29 0 16 0;
#X connect 30 0 31 0;
#X connect 31 0 21 0;
#X connect 32 0 33 0;
#X connect 33 0 34 0;
#X connect 34 0 24 0;
#X connect 35 0 1 0;
#X connect 36 0 12 0;
#X connect 37 0 2 1;
#X connect 37 0 51 1;
#X connect 37 1 52 1;
#X connect 37 1 3 1;
#X connect 38 0 8 0;
#X connect 39 0 32 0;
#X connect 40 0 11 0;
#X connect 41 0 42 0;
#X connect 42 0 43 0;
#X connect 43 0 45 0;
#X connect 44 0 46 0;
#X connect 45 0 14 1;
#X connect 46 0 47 0;
#X connect 47 0 48 0;
#X connect 48 0 45 1;
#X connect 49 0 50 0;
#X connect 50 0 59 0;
#X connect 51 0 53 0;
#X connect 51 0 4 0;
#X connect 52 0 56 0;
#X connect 54 0 64 0;
#X connect 55 0 65 0;
#X connect 57 0 58 0;
#X connect 58 0 37 0;
#X connect 59 0 60 0;
#X connect 60 0 61 0;
#X connect 61 0 62 0;
#X connect 62 0 57 0;
#X connect 63 0 57 0;
#X connect 64 0 2 0;
#X connect 65 0 3 0;
#X connect 66 0 49 0;
#X restore 379 258 pd HARMONIC-TREMOLO;
#X obj 350 36 inlet~ AUDIO-IN;
#X obj 490 34 inlet~ CV-RATE-IN;
#X obj 379 235 *~;
#X obj 394 132 r \$0-radio-gui-s;
#X obj 394 153 == 0;
#X floatatom 394 174 5 0 0 0 - - -, f 5;
#X obj 394 194 pack 0 10;
#X obj 394 215 line~;
#X obj 350 57 s~ \$0-AUDIO-IN;
#X obj 490 55 s~ \$0-CV-RATE-IN;
#X obj 379 112 r~ \$0-AUDIO-IN;
#X obj 490 236 r~ \$0-CV-RATE-IN;
#X obj 645 651 outlet~;
#N canvas 284 47 1156 784 TUBE-TREMOLO 0;
#X obj 164 481 *~;
#X obj 638 441 *~;
#X obj 527 202 osc~;
#X obj 528 4 / 127;
#X obj 528 47 pack 0 10;
#X obj 528 68 line~;
#X obj 528 25 * 12;
#X obj 526 585 *~;
#X obj 651 618 *~;
#X obj 655 245 / 127;
#X obj 655 266 t f f;
#X obj 655 287 pack 0 10;
#X obj 655 308 line~;
#X msg 717 351 1 \$1;
#X obj 717 372 -;
#X obj 717 393 pack 0 10;
#X obj 717 414 line~;
#X obj 537 682 clip~ -1 1;
#X obj 527 266 *~;
#X obj 598 208 / 127;
#X obj 598 229 pack 0 10;
#X obj 598 250 line~;
#X obj 365 -5 inlet~;
#X obj 528 -21 r \$0-rate-s;
#X obj 598 187 r \$0-depth-s;
#X obj 225 375 clip~ -1 0;
#X obj 633 379 clip~ 0 1;
#X obj 537 703 outlet~;
#X obj 655 222 r \$0-frequency-s;
#X obj 619 -18 inlet~;
#X obj 619 9 *~ 12;
#X obj 619 30 clip~ -12 12;
#X obj 651 51 r \$0-rate-cv-att-s;
#X obj 612 150 *~;
#X obj 651 72 / 127;
#X obj 651 93 pack 0 10;
#X obj 645 124 line~;
#X obj 528 152 +~;
#X connect 0 0 8 0;
#X connect 1 0 8 0;
#X connect 2 0 18 0;
#X connect 3 0 6 0;
#X connect 4 0 5 0;
#X connect 5 0 37 0;
#X connect 6 0 4 0;
#X connect 7 0 17 0;
#X connect 8 0 17 0;
#X connect 9 0 10 0;
#X connect 10 0 11 0;
#X connect 10 1 13 0;
#X connect 11 0 12 0;
#X connect 12 0 8 1;
#X connect 13 0 14 0;
#X connect 14 0 15 0;
#X connect 15 0 16 0;
#X connect 16 0 7 1;
#X connect 17 0 27 0;
#X connect 18 0 0 1;
#X connect 18 0 1 1;
#X connect 19 0 20 0;
#X connect 20 0 21 0;
#X connect 21 0 18 1;
#X connect 22 0 7 0;
#X connect 22 0 25 0;
#X connect 22 0 26 0;
#X connect 23 0 3 0;
#X connect 24 0 19 0;
#X connect 25 0 0 0;
#X connect 26 0 1 0;
#X connect 28 0 9 0;
#X connect 29 0 30 0;
#X connect 30 0 31 0;
#X connect 31 0 33 0;
#X connect 32 0 34 0;
#X connect 33 0 37 1;
#X connect 34 0 35 0;
#X connect 35 0 36 0;
#X connect 36 0 33 1;
#X connect 37 0 2 0;
#X restore 644 277 pd TUBE-TREMOLO;
#X obj 644 228 *~;
#X obj 659 125 r \$0-radio-gui-s;
#X floatatom 659 167 5 0 0 0 - - -, f 5;
#X obj 659 187 pack 0 10;
#X obj 659 208 line~;
#X obj 644 105 r~ \$0-AUDIO-IN;
#X obj 731 233 r~ \$0-CV-RATE-IN;
#X obj 659 146 == 1;
#X obj 986 416 r \$0-radio-gui-s;
#X obj 986 439 sel 0 1 2;
#X obj 987 658 s \$0-rate-r;
#X msg 987 637 label RATE;
#X msg 1004 596 label FREQ;
#X obj 1004 617 s \$0-frequency-r;
#X obj 1021 575 s \$0-depth-r;
#X msg 1021 554 label DEPTH;
#X obj 1116 656 s \$0-rate-r;
#X msg 1116 635 label RATE;
#X obj 1133 615 s \$0-frequency-r;
#X obj 1150 573 s \$0-depth-r;
#X msg 1150 552 label DEPTH;
#X msg 1133 594 label TIMING;
#X obj 1229 657 s \$0-rate-r;
#X msg 1229 636 label RATE;
#X obj 1246 616 s \$0-frequency-r;
#X obj 1263 574 s \$0-depth-r;
#X msg 1263 553 label DEPTH;
#X msg 1246 595 label SLOPE;
#N canvas 0 23 1027 681 PHOTOCELL-TREMOLO 0;
#X obj 336 28 inlet~;
#X obj 442 639 outlet~;
#X obj 469 53 / 127;
#X obj 469 96 pack 0 10;
#X obj 469 117 line~;
#X obj 469 74 * 12;
#X obj 525 487 *~;
#X obj 642 430 / 127;
#X obj 642 451 pack 0 10;
#X obj 642 472 line~;
#X obj 469 28 r \$0-rate-s;
#X obj 642 409 r \$0-depth-s;
#X obj 560 31 inlet~;
#X obj 560 58 *~ 12;
#X obj 560 79 clip~ -12 12;
#X obj 592 100 r \$0-rate-cv-att-s;
#X obj 553 199 *~;
#X obj 592 121 / 127;
#X obj 592 142 pack 0 10;
#X obj 586 173 line~;
#X obj 469 144 +~;
#X obj 511 521 *~;
#X obj 606 236 hsl 128 15 0 127 0 0 empty empty empty -2 -8 0 10 -262144
-1 -1 0 1;
#X obj 603 212 r \$0-frequency-s;
#X obj 145 308 pack 0 10;
#X obj 145 329 line~;
#X obj 145 244 / 127;
#X msg 145 265 1 \$1;
#X obj 145 286 -;
#X obj 130 358 *~;
#X obj 145 223 r \$0-depth-s;
#X obj 511 562 *~;
#X obj 750 480 pack 0 10;
#X obj 750 501 line~;
#X obj 750 459 / 127;
#X obj 750 438 r \$0-depth-s;
#X obj 468 190 phasor~;
#X obj 510 402 lop~ 100;
#X obj 468 272 expr~ $v1 < $v2;
#X obj 603 256 / 127;
#X obj 603 277 * 0.8;
#X obj 603 298 + 0.1;
#X obj 603 319 pack 0 10;
#X obj 603 340 line~;
#X connect 0 0 21 0;
#X connect 0 0 29 0;
#X connect 2 0 5 0;
#X connect 3 0 4 0;
#X connect 4 0 20 0;
#X connect 5 0 3 0;
#X connect 6 0 21 1;
#X connect 7 0 8 0;
#X connect 8 0 9 0;
#X connect 9 0 6 1;
#X connect 10 0 2 0;
#X connect 11 0 7 0;
#X connect 12 0 13 0;
#X connect 13 0 14 0;
#X connect 14 0 16 0;
#X connect 15 0 17 0;
#X connect 16 0 20 1;
#X connect 17 0 18 0;
#X connect 18 0 19 0;
#X connect 19 0 16 1;
#X connect 20 0 36 0;
#X connect 21 0 31 0;
#X connect 22 0 39 0;
#X connect 23 0 22 0;
#X connect 24 0 25 0;
#X connect 25 0 29 1;
#X connect 26 0 27 0;
#X connect 27 0 28 0;
#X connect 28 0 24 0;
#X connect 29 0 1 0;
#X connect 30 0 26 0;
#X connect 31 0 1 0;
#X connect 32 0 33 0;
#X connect 33 0 31 1;
#X connect 34 0 32 0;
#X connect 35 0 34 0;
#X connect 36 0 38 0;
#X connect 37 0 6 0;
#X connect 38 0 37 0;
#X connect 39 0 40 0;
#X connect 40 0 41 0;
#X connect 41 0 42 0;
#X connect 42 0 43 0;
#X connect 43 0 38 1;
#X restore 848 281 pd PHOTOCELL-TREMOLO;
#X obj 848 258 *~;
#X obj 863 155 r \$0-radio-gui-s;
#X floatatom 863 197 5 0 0 0 - - -, f 5;
#X obj 863 217 pack 0 10;
#X obj 863 238 line~;
#X obj 848 132 r~ \$0-AUDIO-IN;
#X obj 965 254 r~ \$0-CV-RATE-IN;
#X obj 863 176 == 2;
#X connect 7 0 9 0;
#X connect 9 0 10 0;
#X connect 10 0 8 0;
#X connect 16 0 18 0;
#X connect 18 0 20 0;
#X connect 18 1 19 0;
#X connect 18 2 21 0;
#X connect 19 0 17 0;
#X connect 20 0 17 0;
#X connect 21 0 17 0;
#X connect 22 0 35 0;
#X connect 23 0 31 0;
#X connect 24 0 32 0;
#X connect 25 0 22 0;
#X connect 26 0 27 0;
#X connect 27 0 28 0;
#X connect 28 0 29 0;
#X connect 29 0 30 0;
#X connect 30 0 25 1;
#X connect 33 0 25 0;
#X connect 34 0 22 1;
#X connect 36 0 35 0;
#X connect 37 0 36 0;
#X connect 38 0 44 0;
#X connect 39 0 40 0;
#X connect 40 0 41 0;
#X connect 41 0 37 1;
#X connect 42 0 37 0;
#X connect 43 0 36 1;
#X connect 44 0 39 0;
#X connect 45 0 46 0;
#X connect 46 0 48 0;
#X connect 46 0 49 0;
#X connect 46 0 52 0;
#X connect 46 1 54 0;
#X connect 46 1 58 0;
#X connect 46 1 57 0;
#X connect 46 2 60 0;
#X connect 46 2 64 0;
#X connect 46 2 63 0;
#X connect 48 0 47 0;
#X connect 49 0 50 0;
#X connect 52 0 51 0;
#X connect 54 0 53 0;
#X connect 57 0 56 0;
#X connect 58 0 55 0;
#X connect 60 0 59 0;
#X connect 63 0 62 0;
#X connect 64 0 61 0;
#X connect 65 0 35 0;
#X connect 66 0 65 0;
#X connect 67 0 73 0;
#X connect 68 0 69 0;
#X connect 69 0 70 0;
#X connect 70 0 66 1;
#X connect 71 0 66 0;
#X connect 72 0 65 1;
#X connect 73 0 68 0;
#X coords 0 -1 1 1 175 115 2 100 100;
