#N canvas 110 23 1096 732 10;
#X obj 109 202 hsl 128 15 0 127 0 1 \$0-triad-attack-s \$0-triad-attack-r
ATTACK 135 7 0 10 -262144 -1 -1 0 1;
#X obj 330 19 r \$0-triad-root-s;
#X obj 330 327 tabosc4~ \$0-saw;
#X obj 504 327 tabosc4~ \$0-saw;
#X obj 505 344 *~ 0.33;
#N canvas 0 22 1204 721 scales-tables 0;
#X obj 11 17 loadbang;
#X obj 10 156 loadbang;
#X obj 15 269 loadbang;
#X obj 17 383 loadbang;
#X obj 18 503 loadbang;
#X obj 427 3 loadbang;
#X obj 429 98 loadbang;
#X obj 430 197 loadbang;
#X obj 431 294 loadbang;
#X obj 430 421 loadbang;
#X obj 20 598 loadbang;
#X obj 433 534 loadbang;
#X obj 822 12 loadbang;
#X obj 823 149 loadbang;
#X obj 818 293 loadbang;
#X obj 11 131 table \$0-ionian;
#X obj 8 248 table \$0-aeolian;
#X obj 16 361 table \$0-dorian;
#X obj 17 479 table \$0-phrygian;
#X obj 18 692 table \$0-lyd-minor;
#X obj 459 24 table \$0-chromatic;
#X obj 462 119 table \$0-ancient;
#X obj 464 218 table \$0-tetra;
#X obj 466 315 table \$0-indian;
#X obj 468 441 table \$0-siga;
#X obj 433 653 table \$0-harm-major;
#X obj 864 35 table \$0-pelog;
#X obj 823 267 table \$0-slendro;
#X obj 817 395 table \$0-whole;
#X msg 11 81 \; \$1-ionian 0 0 2 4 5 7 9 11 12 14 16 17 19 21 23 24
26 28 29 31 33 35 36 38 40 41 43 45 47 48;
#X msg 10 201 \; \$1-aeolian 0 0 2 3 5 7 8 10 12 14 15 17 19 20 22
24 26 27 29 31 32 34 36 38 39 41 43 44 46 48;
#X msg 16 312 \; \$1-dorian 0 0 2 3 5 7 9 10 12 14 15 17 19 21 22 24
26 27 29 31 33 34 36 38 39 41 43 45 46 48;
#X msg 17 432 \; \$1-phrygian 0 0 1 3 5 7 8 10 12 13 15 17 19 20 22
24 25 27 29 31 32 34 36 37 39 41 43 44 46 48;
#X msg 18 549 \; \$1-lydian 0 0 2 4 6 7 9 11 12 14 16 18 19 21 23 24
26 28 30 31 33 35 36 38 40 42 43 45 47 48;
#X msg 19 643 \; \$1-lyd-minor 0 0 2 3 6 7 9 11 12 14 15 18 19 21 23
24 26 27 30 31 33 35 36 38 39 42 43 45 47 48;
#X msg 427 50 \; \$1-chromatic 0 0 1 2 3 4 5 6 7 8 9 10 11 12 13 14
15 16 17 18 19 20 21 22 23 24 25 26 27 28;
#X msg 428 151 \; \$1-ancient 0 0 0.5 1 5 7 7.5 8 12 12.5 13 17 19
19.5 20 24 24.5 25 29 31 31.5 32 36 36.5 37 41 43 43.5 44 48;
#X msg 430 248 \; \$1-tetra 0 0 1 1.75 2 3 3.75 4 5 12 13 13.75 14
15 15.75 16 17 24 25 25.75 26 27 27.75 28 29 36 37 37.75 38 39;
#X msg 431 350 \; \$1-indian 0 0 0.9 1.14 1.8 2.04 2.94 3.18 3.84 4.08
4.9 5.22 5.88 6.12 7.02 7.92 8.16 8.82 9.06 9.96 10.2 10.86 11.1 12
12.9 13.14 13.8 14.04 14.94 15.18;
#X msg 430 468 \; \$1-siga 0 0 1.5 3.5 5.5 7 8.5 10.5 12 13.5 15.5
17.5 19 20.5 22.5 24 25.5 27.5 29.5 31 32.5 34.5 36 37.5 39.5 41.5
43 44.5 46.5 48.5;
#X msg 433 601 \; \$1-harm-major 0 0 2 4 5 7 8 11 12 14 16 17 19 20
23 24 26 28 29 31 32 35 36 38 40 41 43 44 47 48;
#X msg 822 73 \; \$1-pelog 0 0 1.5 2.5 3.5 7 8 10.5 12 13.5 14.5 15.5
19 20 22.5 24 25.5 26.5 27.5 31 32 34.5 36 37.5 38.5 39.5 42.5 43.5
45 46.5;
#X msg 823 218 \; \$1-slendro 0 0 2.5 5 7 9.5 12 14.5 17 19 21.5 24
26.5 29 31 33.5 36 38.5 41 43 45.5 47 49.5 52 54 56.5 59 61.5 64 66.5
;
#X msg 818 346 \; \$1-whole 0 0 2 4 6 8 10 12 14 16 18 20 22 24 26
28 30 32 34 36 38 40 42 44 46 48 50 52 54 56;
#X obj 11 39 f \$0;
#X obj 10 178 f \$0;
#X obj 15 291 f \$0;
#X obj 17 405 f \$0;
#X obj 18 525 f \$0;
#X obj 20 620 f \$0;
#X obj 427 25 f \$0;
#X obj 429 120 f \$0;
#X obj 430 219 f \$0;
#X obj 431 316 f \$0;
#X obj 430 443 f \$0;
#X obj 433 556 f \$0;
#X obj 822 34 f \$0;
#X obj 823 171 f \$0;
#X obj 818 315 f \$0;
#X obj 49 524 table \$0-lydian;
#X connect 0 0 44 0;
#X connect 1 0 45 0;
#X connect 2 0 46 0;
#X connect 3 0 47 0;
#X connect 4 0 48 0;
#X connect 5 0 50 0;
#X connect 6 0 51 0;
#X connect 7 0 52 0;
#X connect 8 0 53 0;
#X connect 9 0 54 0;
#X connect 10 0 49 0;
#X connect 11 0 55 0;
#X connect 12 0 56 0;
#X connect 13 0 57 0;
#X connect 14 0 58 0;
#X connect 44 0 29 0;
#X connect 45 0 30 0;
#X connect 46 0 31 0;
#X connect 47 0 32 0;
#X connect 48 0 33 0;
#X connect 49 0 34 0;
#X connect 50 0 35 0;
#X connect 51 0 36 0;
#X connect 52 0 37 0;
#X connect 53 0 38 0;
#X connect 54 0 39 0;
#X connect 55 0 40 0;
#X connect 56 0 41 0;
#X connect 57 0 42 0;
#X connect 58 0 43 0;
#X restore 101 43 pd scales-tables;
#N canvas 0 22 846 654 wavetables 0;
#X obj 29 22 loadbang;
#X obj 29 44 f \$0;
#X obj 29 75 t f f;
#X text 87 26 SAW WAVE;
#X msg 28 179 \; \$1-saw normalize 1;
#X obj 26 219 table \$0-saw;
#X obj 25 254 loadbang;
#X text 70 277 SQUAREWAVE;
#X obj 26 370 t f f;
#X obj 25 276 f \$0;
#X msg 26 457 \; \$1-square normalize 1;
#X obj 24 497 table \$0-square;
#X msg 94 386 \; \$1-square sinesum 515 1 0 0.33 0 0.2 0 0.142857 0
0.111111 0 0.090909 0 0.076923 0 0.066666 0 0.058823 0 0.0526315 0
0.047619 0 0.04347 0 0.04 0;
#X msg 56 102 \; \$1-saw sinesum 515 1 0.5 0.33 0.25 0.2 0.16 0.14
0.125 0.111111 0.1 0.090909;
#X connect 0 0 1 0;
#X connect 1 0 2 0;
#X connect 2 0 4 0;
#X connect 2 1 13 0;
#X connect 6 0 9 0;
#X connect 8 0 10 0;
#X connect 8 1 12 0;
#X connect 9 0 8 0;
#X restore 101 66 pd wavetables;
#X symbolatom 106 237 15 0 0 0 - - -, f 15;
#N canvas 120 22 1142 609 choose-scale 0;
#X obj 396 470 outlet;
#X obj 439 53 / 127;
#X obj 439 119 i;
#X obj 439 74 * 13;
#X obj 439 178 sel 0 1 2 3 4 5 6 7 8 9 10 11 12 13;
#X obj 439 31 inlet;
#X msg -1 273 set ionian;
#X msg 92 274 set dorian;
#X msg 177 276 set phrygian;
#X msg 277 277 set lydian;
#X msg 364 278 set aeolian;
#X msg 442 307 set whole;
#X msg 537 311 set chromatic;
#X msg 650 316 set harm-major;
#X msg 677 365 set lyd-minor;
#X msg 764 409 set ancient;
#X msg 902 423 set pelog;
#X msg 940 380 set tetra;
#X msg 968 309 set indian;
#X msg 1035 260 set slendro;
#X connect 1 0 3 0;
#X connect 2 0 4 0;
#X connect 3 0 2 0;
#X connect 4 0 6 0;
#X connect 4 1 7 0;
#X connect 4 2 8 0;
#X connect 4 3 9 0;
#X connect 4 4 10 0;
#X connect 4 5 11 0;
#X connect 4 6 12 0;
#X connect 4 7 13 0;
#X connect 4 8 14 0;
#X connect 4 9 15 0;
#X connect 4 10 17 0;
#X connect 4 11 18 0;
#X connect 4 12 16 0;
#X connect 4 13 19 0;
#X connect 5 0 1 0;
#X connect 6 0 0 0;
#X connect 7 0 0 0;
#X connect 8 0 0 0;
#X connect 9 0 0 0;
#X connect 10 0 0 0;
#X connect 11 0 0 0;
#X connect 12 0 0 0;
#X connect 13 0 0 0;
#X connect 14 0 0 0;
#X connect 15 0 0 0;
#X connect 16 0 0 0;
#X connect 17 0 0 0;
#X connect 18 0 0 0;
#X connect 19 0 0 0;
#X restore 257 488 pd choose-scale;
#X obj 109 250 hsl 128 15 0 127 0 1 \$0-triad-scale-s \$0-triad-scale-r
SCALE 133 7 0 10 -262144 -1 -1 0 1;
#X obj 257 440 t f f;
#N canvas 120 22 1142 609 choose-scale 0;
#X obj 438 475 outlet;
#X obj 81 37 / 127;
#X obj 81 103 i;
#X obj 81 58 * 13;
#X obj 81 15 inlet;
#X msg 80 566 set \$1-ionian;
#X obj 24 150 loadbang;
#X msg 90 464 set \$1-dorian;
#X msg 110 340 set \$1-phrygian;
#X msg 125 238 set \$1-lydian;
#X msg 220 239 set \$1-aeolian;
#X msg 317 239 set \$1-whole;
#X msg 404 236 set \$1-chromatic;
#X msg 512 234 set \$1-harm-major;
#X msg 559 311 set \$1-lyd-minor;
#X msg 588 363 set \$1-ancient;
#X msg 827 283 set \$1-pelog;
#X msg 642 445 set \$1-tetra;
#X msg 817 455 set \$1-indian;
#X msg 989 300 set \$1-slendro;
#X obj 24 171 f \$0;
#X obj 81 125 sel 0 1 2 3 4 5 6 7 8 9 10 11 12 13;
#X obj 80 536 f;
#X obj 90 435 f;
#X obj 110 318 f;
#X obj 125 210 f;
#X obj 24 193 t f f f f;
#X obj 216 45 loadbang;
#X obj 216 66 f \$0;
#X obj 216 88 t f f f f;
#X obj 220 215 f;
#X obj 317 213 f;
#X obj 404 214 f;
#X obj 512 210 f;
#X obj 559 285 f;
#X obj 589 339 f;
#X obj 661 404 f;
#X obj 807 412 f;
#X obj 552 51 loadbang;
#X obj 552 72 f \$0;
#X obj 830 246 f;
#X obj 1000 257 f;
#X obj 552 94 t f f f f f f;
#X connect 1 0 3 0;
#X connect 2 0 21 0;
#X connect 3 0 2 0;
#X connect 4 0 1 0;
#X connect 5 0 0 0;
#X connect 6 0 20 0;
#X connect 7 0 0 0;
#X connect 8 0 0 0;
#X connect 9 0 0 0;
#X connect 10 0 0 0;
#X connect 11 0 0 0;
#X connect 12 0 0 0;
#X connect 13 0 0 0;
#X connect 14 0 0 0;
#X connect 15 0 0 0;
#X connect 16 0 0 0;
#X connect 17 0 0 0;
#X connect 18 0 0 0;
#X connect 19 0 0 0;
#X connect 20 0 26 0;
#X connect 21 0 22 0;
#X connect 21 1 23 0;
#X connect 21 2 24 0;
#X connect 21 3 25 0;
#X connect 21 4 30 0;
#X connect 21 5 31 0;
#X connect 21 6 32 0;
#X connect 21 7 33 0;
#X connect 21 8 34 0;
#X connect 21 9 35 0;
#X connect 21 10 36 0;
#X connect 21 11 37 0;
#X connect 21 12 40 0;
#X connect 21 13 41 0;
#X connect 22 0 5 0;
#X connect 23 0 7 0;
#X connect 24 0 8 0;
#X connect 25 0 9 0;
#X connect 26 0 22 1;
#X connect 26 1 23 1;
#X connect 26 2 24 1;
#X connect 26 3 25 1;
#X connect 27 0 28 0;
#X connect 28 0 29 0;
#X connect 29 0 30 1;
#X connect 29 1 31 1;
#X connect 29 2 32 1;
#X connect 29 3 33 1;
#X connect 30 0 10 0;
#X connect 31 0 11 0;
#X connect 32 0 12 0;
#X connect 33 0 13 0;
#X connect 34 0 14 0;
#X connect 35 0 15 0;
#X connect 36 0 17 0;
#X connect 37 0 18 0;
#X connect 38 0 39 0;
#X connect 39 0 42 0;
#X connect 40 0 16 0;
#X connect 41 0 19 0;
#X connect 42 0 34 1;
#X connect 42 1 35 1;
#X connect 42 2 36 1;
#X connect 42 3 37 1;
#X connect 42 4 40 1;
#X connect 42 5 41 1;
#X restore 284 512 pd choose-scale;
#X obj 330 293 mtof~;
#X obj 411 44 inlet~ ROOT CV;
#X obj 330 41 * 0.00787402;
#X obj 109 132 hsl 128 15 0 127 0 1 \$0-triad-root-s \$0-triad-root-r
ROOT 135 7 0 10 -262144 -1 -1 9400 1;
#X obj 504 297 mtof~;
#X obj 505 47 * 0.00787402;
#X obj 585 74 inlet~ INTERVAL1;
#X obj 284 534 s \$0-triad-scale-s;
#X obj 563 186 r \$0-triad-scale-s;
#X obj 702 327 tabosc4~ \$0-saw;
#X obj 702 288 mtof~;
#X obj 702 41 * 0.00787402;
#X obj 778 62 inlet~ INTERVAL2;
#X obj 109 147 hsl 128 15 0 127 0 1 \$0-triad-interval1-s \$0-triad-interval1-r
INT1 135 7 0 10 -262144 -1 -1 12700 1;
#X obj 702 11 r \$0-triad-interval2-s;
#X obj 505 531 *~;
#X obj 48 308 inlet~;
#X obj 48 333 threshold~ 0.9 0 0.9 0;
#X msg 48 355 bang;
#X obj 48 377 f;
#X obj 76 378 + 1;
#X obj 48 421 sel 0 1 2 3;
#X obj 48 591 t b;
#X obj 48 614 s \$0-triad-eg1!;
#X obj 63 545 t b;
#X obj 63 568 s \$0-triad-eg2!;
#X obj 79 494 t b;
#X obj 95 448 t b;
#X obj 79 517 s \$0-triad-eg3!;
#X obj 95 471 s \$0-triad-eg4!;
#X obj 109 162 hsl 128 15 0 127 0 1 \$0-triad-interval2-s \$0-triad-interval2-r
INT2 135 7 0 10 -262144 -1 -1 6600 1;
#X obj 109 265 hsl 128 15 0 127 0 1 \$0-triad-xpose-s \$0-triad-xpose-r
XPOSE 135 7 0 10 -150893 -1 -1 0 1;
#X floatatom 149 416 5 0 0 0 - - -, f 5;
#N canvas 321 22 774 648 eg2 0;
#X obj 316 420 vline~;
#X obj 507 111 r \$0-triad-release-s;
#X obj 355 61 r \$0-triad-attack-s;
#X obj 355 107 * 0.00787402;
#X obj 355 151 + 1;
#X obj 355 84 - 1.27;
#X obj 355 129 * 2020;
#X obj 316 228 f;
#X obj 507 133 - 1.27;
#X obj 507 155 * 0.00787402;
#X obj 507 199 + 1;
#X obj 316 524 outlet~;
#X obj 316 36 r \$0-triad-eg2!;
#X obj 507 177 * 4020;
#X obj 316 374 pack f f;
#X msg 316 398 1 \$1 \, 0 \$2 \$1;
#X obj 355 173 clip 1 2000;
#X obj 507 221 clip 1 4000;
#X connect 0 0 11 0;
#X connect 1 0 8 0;
#X connect 2 0 5 0;
#X connect 3 0 6 0;
#X connect 4 0 16 0;
#X connect 5 0 3 0;
#X connect 6 0 4 0;
#X connect 7 0 14 0;
#X connect 8 0 9 0;
#X connect 9 0 13 0;
#X connect 10 0 17 0;
#X connect 12 0 7 0;
#X connect 13 0 10 0;
#X connect 14 0 15 0;
#X connect 15 0 0 0;
#X connect 16 0 7 1;
#X connect 17 0 14 1;
#X restore 792 544 pd eg2;
#X obj 48 399 % 2;
#X obj 777 466 *~ 0.33;
#X obj 776 386 +~;
#X obj 897 386 +~;
#X obj 912 256 r \$0-triad-dtune-s;
#X obj 912 278 * 0.00787402;
#X obj 912 322 pack 0 50;
#X obj 912 344 line~;
#X obj 659 386 -~;
#X obj 777 569 *~;
#X obj 505 587 *~ 0.5;
#X obj 912 300 * 2;
#X obj 659 411 tabosc4~ \$0-square;
#X obj 776 411 tabosc4~ \$0-square;
#X obj 330 196 tabread;
#X obj 330 248 sig~;
#X obj 504 203 tabread;
#X obj 504 255 sig~;
#X obj 394 179 r \$0-triad-scale-s;
#X obj 766 176 r \$0-triad-scale-s;
#X obj 700 193 tabread;
#X obj 699 244 sig~;
#X obj 338 367 r \$0-triad-eg1!;
#X obj 275 396 r \$0-triad-eg2!;
#X obj 247 44 tgl 15 0 empty empty empty 17 7 0 10 -262144 -1 -1 1
1;
#X obj 247 21 loadbang;
#X obj 109 177 hsl 128 15 0 127 0 0 \$0-triad-dtune-s \$0-triad-dtune-r
DTUNE 135 7 0 10 -262144 -1 -1 0 1;
#N canvas 321 22 774 648 eg1 0;
#X obj 316 420 vline~;
#X obj 507 111 r \$0-triad-release-s;
#X obj 355 61 r \$0-triad-attack-s;
#X obj 355 107 * 0.00787402;
#X obj 355 151 + 1;
#X obj 355 84 - 1.27;
#X obj 355 129 * 2020;
#X obj 316 228 f;
#X obj 507 133 - 1.27;
#X obj 507 155 * 0.00787402;
#X obj 507 199 + 1;
#X obj 316 524 outlet~;
#X obj 507 177 * 4020;
#X obj 316 374 pack f f;
#X msg 316 398 1 \$1 \, 0 \$2 \$1;
#X obj 316 36 r \$0-triad-eg1!;
#X obj 507 221 clip 1 4000;
#X obj 355 173 clip 1 2000;
#X connect 0 0 11 0;
#X connect 1 0 8 0;
#X connect 2 0 5 0;
#X connect 3 0 6 0;
#X connect 4 0 17 0;
#X connect 5 0 3 0;
#X connect 6 0 4 0;
#X connect 7 0 13 0;
#X connect 8 0 9 0;
#X connect 9 0 12 0;
#X connect 10 0 16 0;
#X connect 12 0 10 0;
#X connect 13 0 14 0;
#X connect 14 0 0 0;
#X connect 15 0 7 0;
#X connect 16 0 13 1;
#X connect 17 0 7 1;
#X restore 520 504 pd eg1;
#X obj 103 108 cnv 5 5 5 empty empty TRIG 0 0 0 8 -262144 -226533 0
;
#X obj 125 123 cnv 5 5 5 empty empty TRIAD 0 0 0 12 -262144 -66577
0;
#X obj 245 123 cnv 5 5 5 empty \$0-instance-num 1 0 0 0 12 -262144
-66577 0;
#X obj 277 306 cnv 5 5 5 empty empty EG 0 0 0 8 -262144 -66577 0;
#X obj 185 108 cnv 5 5 5 empty empty INT1 0 0 0 8 -262144 -66577 0
;
#X obj 264 108 cnv 5 5 5 empty empty XPOSE 0 0 0 8 -262144 -66577 0
;
#X obj 109 217 hsl 128 15 1.27 127 1 1 \$0-triad-release-s \$0-triad-release-r
RELEASE 135 7 0 10 -262144 -1 -1 10100 1;
#X obj 291 557 r \$0-triad-xpose-s;
#X floatatom 106 280 5 0 0 0 - - -, f 5;
#X obj 291 579 / 127;
#X obj 106 113 bng 15 50 50 0 empty empty empty 17 7 0 10 -262144 -226533
-1;
#X obj 166 123 cnv 5 5 5 empty empty OSCILLATOR 0 0 0 12 -262144 -66577
0;
#X obj 291 603 * 24;
#X obj 291 625 - 12;
#X obj 291 651 i;
#X obj 247 64 metro 10;
#X obj 330 63 +;
#X obj 330 117 clip 0 1;
#X obj 330 138 * 28;
#X obj 411 66 snapshot~;
#X obj 411 88 t b f;
#X obj 504 88 +;
#X obj 504 131 * 28;
#X obj 584 101 snapshot~;
#X obj 584 123 t b f;
#X obj 779 93 snapshot~;
#X obj 779 115 t b f;
#X obj 702 86 +;
#X obj 702 121 clip 0 1;
#X obj 702 146 * 28;
#X obj 505 20 r \$0-triad-interval1-s;
#X obj 504 110 clip 0 1;
#N canvas 315 35 895 724 state-saving-multiple-instances 0;
#X obj 205 1 loadbang;
#X obj 317 424 textfile;
#X msg 587 407 rewind;
#X msg 544 407 bang;
#X obj 110 663 textfile;
#X obj 544 368 t b b;
#X obj 111 329 f;
#X obj 124 552 f;
#X obj 52 373 t b b b;
#X msg 187 552 clear;
#X obj 272 134 outlet;
#X text 314 138 INSTANCE NUMBER;
#X obj 233 70 f \$1;
#X obj 233 106 t f f f;
#X obj 206 34 t b b;
#X obj 52 350 bng 15 250 50 0 empty empty empty 17 7 0 10 -262144 -1
-1;
#X obj 52 206 r SAVE-S;
#X msg 317 399 read statesave/\$1-triad-ss.txt;
#X msg 123 623 write statesave/\$1-triad-ss.txt;
#X obj 98 140 r \$0-triad-root-s;
#X obj 317 696 s \$0-triad-root-r;
#X obj 106 163 r \$0-triad-interval1-s;
#X obj 338 672 s \$0-triad-interval1-r;
#X obj 120 184 r \$0-triad-interval2-s;
#X obj 359 648 s \$0-triad-interval2-r;
#X obj 138 209 r \$0-triad-dtune-s;
#X obj 380 624 s \$0-triad-dtune-r;
#X obj 158 234 r \$0-triad-attack-s;
#X obj 401 598 s \$0-triad-attack-r;
#X obj 176 255 r \$0-triad-release-s;
#X obj 422 574 s \$0-triad-release-r;
#X obj 206 280 r \$0-triad-scale-s;
#X obj 432 539 s \$0-triad-scale-r;
#X obj 226 305 r \$0-triad-xpose-s;
#X obj 453 513 s \$0-triad-xpose-r;
#X msg 111 410 set \$1 \$2 \$3 \$4 \$5 \$6 \$7 \$8 \$9;
#X obj 318 447 unpack f f f f f f f f f;
#X obj 111 372 pack f f f f f f f f f;
#X obj 252 326 r \$0-triad-selctor-s;
#X obj 462 485 s \$0-triad-selctor-r;
#X obj 271 14 r \$0-reload!;
#X connect 0 0 14 0;
#X connect 1 0 36 0;
#X connect 2 0 1 0;
#X connect 3 0 1 0;
#X connect 5 0 3 0;
#X connect 5 1 2 0;
#X connect 6 0 37 0;
#X connect 7 0 18 0;
#X connect 8 0 7 0;
#X connect 8 1 6 0;
#X connect 8 2 9 0;
#X connect 9 0 4 0;
#X connect 12 0 13 0;
#X connect 13 0 7 1;
#X connect 13 1 17 0;
#X connect 13 2 10 0;
#X connect 14 0 5 0;
#X connect 14 1 12 0;
#X connect 15 0 8 0;
#X connect 16 0 15 0;
#X connect 17 0 1 0;
#X connect 18 0 4 0;
#X connect 19 0 6 1;
#X connect 21 0 37 1;
#X connect 23 0 37 2;
#X connect 25 0 37 3;
#X connect 27 0 37 4;
#X connect 29 0 37 5;
#X connect 31 0 37 6;
#X connect 33 0 37 7;
#X connect 35 0 4 0;
#X connect 36 0 20 0;
#X connect 36 1 22 0;
#X connect 36 2 24 0;
#X connect 36 3 26 0;
#X connect 36 4 28 0;
#X connect 36 5 30 0;
#X connect 36 6 32 0;
#X connect 36 7 34 0;
#X connect 36 8 39 0;
#X connect 37 0 35 0;
#X connect 38 0 37 8;
#X connect 40 0 14 0;
#X restore 902 28 pd state-saving-multiple-instances;
#X obj 902 99 s \$0-instance-num;
#X obj 902 51 makefilename %d;
#X msg 902 76 label \$1;
#N canvas 78 22 1117 745 state-saving-via-preset-manager-module 0;
#X obj 340 227 textfile;
#X msg 618 210 rewind;
#X msg 575 210 bang;
#X obj 106 568 textfile;
#X obj 575 171 t b b;
#X obj 107 234 f;
#X obj 120 457 f;
#X obj 53 352 t b b b;
#X msg 236 499 clear;
#X obj 107 56 delay 5;
#X obj 53 407 delay 10;
#X msg 53 192 bang;
#X obj 53 26 r STORE-S!;
#X obj 340 128 f;
#X obj 313 85 t b b;
#X obj 328 49 t b f;
#X obj 385 146 f \$1;
#X obj 340 173 pack f f;
#X obj 385 96 loadbang;
#X obj 120 487 pack f f;
#X obj 165 440 loadbang;
#X obj 165 462 f \$1;
#X obj 328 26 r preset-manager-scan;
#X obj 135 418 r preset-manager-store-slot;
#X obj 107 341 pack f f f f f f f f f;
#X msg 106 368 set \$1 \$2 \$3 \$4 \$5 \$6 \$7 \$8 \$9;
#X obj 340 249 unpack f f f f f f f f f;
#X obj 123 78 r \$0-triad-root-s;
#X obj 340 714 s \$0-triad-root-r;
#X obj 136 107 r \$0-triad-interval1-s;
#X obj 354 667 s \$0-triad-interval1-r;
#X obj 146 146 r \$0-triad-interval2-s;
#X obj 375 614 s \$0-triad-interval2-r;
#X obj 169 173 r \$0-triad-dtune-s;
#X obj 395 568 s \$0-triad-dtune-r;
#X obj 183 196 r \$0-triad-attack-s;
#X obj 561 697 s \$0-triad-attack-r;
#X obj 193 218 r \$0-triad-release-r;
#X obj 616 596 s \$0-triad-release-r;
#X obj 619 461 s \$0-triad-scale-r;
#X obj 803 476 s \$0-triad-xpose-r;
#X obj 201 245 r \$0-triad-scale-s;
#X obj 216 268 r \$0-triad-xpose-s;
#X obj 224 295 r \$0-triad-selctor-s;
#X obj 819 374 s \$0-triad-selctor-r;
#X msg 340 202 read statesave/\$1-\$2-triad-ss.txt;
#X msg 119 528 write statesave/\$1-\$2-triad-ss.txt;
#N canvas 0 22 1069 747 morph-frequencies 0;
#X obj 176 94 inlet;
#X obj 176 236 pack f f;
#X obj 176 261 line;
#X obj 209 117 r preset-manager-morph-s;
#X msg 72 244 stop;
#X obj 72 214 r STOP-MORPH!;
#X obj 398 102 r frequencies-s;
#X obj 209 206 spigot;
#X obj 398 137 t f f;
#X obj 455 154 == 0;
#X obj 221 176 f;
#X floatatom 455 222 5 0 0 0 - - -, f 5;
#X obj 398 159 t b f;
#X floatatom 425 192 5 0 0 0 - - -, f 5;
#X obj 209 139 t f f;
#X obj 176 283 outlet;
#X connect 0 0 1 0;
#X connect 1 0 2 0;
#X connect 2 0 15 0;
#X connect 3 0 14 0;
#X connect 4 0 2 0;
#X connect 5 0 4 0;
#X connect 6 0 8 0;
#X connect 7 0 1 1;
#X connect 8 0 12 0;
#X connect 8 1 9 0;
#X connect 9 0 11 0;
#X connect 10 0 7 0;
#X connect 11 0 1 1;
#X connect 12 0 10 0;
#X connect 12 1 13 0;
#X connect 13 0 7 1;
#X connect 14 0 7 0;
#X connect 14 1 10 1;
#X restore 340 689 pd morph-frequencies;
#N canvas 0 22 1069 747 morph-parameters 0;
#X obj 176 94 inlet;
#X obj 176 236 pack f f;
#X obj 176 261 line;
#X obj 209 117 r preset-manager-morph-s;
#X msg 72 244 stop;
#X obj 72 214 r STOP-MORPH!;
#X obj 209 206 spigot;
#X obj 398 137 t f f;
#X obj 455 154 == 0;
#X obj 221 176 f;
#X floatatom 455 222 5 0 0 0 - - -, f 5;
#X obj 398 159 t b f;
#X floatatom 425 192 5 0 0 0 - - -, f 5;
#X obj 209 139 t f f;
#X obj 398 102 r parameters-s;
#X obj 176 288 outlet;
#X connect 0 0 1 0;
#X connect 1 0 2 0;
#X connect 2 0 15 0;
#X connect 3 0 13 0;
#X connect 4 0 2 0;
#X connect 5 0 4 0;
#X connect 6 0 1 1;
#X connect 7 0 11 0;
#X connect 7 1 8 0;
#X connect 8 0 10 0;
#X connect 9 0 6 0;
#X connect 10 0 1 1;
#X connect 11 0 9 0;
#X connect 11 1 12 0;
#X connect 12 0 6 1;
#X connect 13 0 6 0;
#X connect 13 1 9 1;
#X connect 14 0 7 0;
#X restore 395 542 pd morph-parameters;
#N canvas 0 22 1069 747 morph-frequencies 0;
#X obj 176 94 inlet;
#X obj 176 236 pack f f;
#X obj 176 261 line;
#X obj 209 117 r preset-manager-morph-s;
#X msg 72 244 stop;
#X obj 72 214 r STOP-MORPH!;
#X obj 398 102 r frequencies-s;
#X obj 209 206 spigot;
#X obj 398 137 t f f;
#X obj 455 154 == 0;
#X obj 221 176 f;
#X floatatom 455 222 5 0 0 0 - - -, f 5;
#X obj 398 159 t b f;
#X floatatom 425 192 5 0 0 0 - - -, f 5;
#X obj 209 139 t f f;
#X obj 176 283 outlet;
#X connect 0 0 1 0;
#X connect 1 0 2 0;
#X connect 2 0 15 0;
#X connect 3 0 14 0;
#X connect 4 0 2 0;
#X connect 5 0 4 0;
#X connect 6 0 8 0;
#X connect 7 0 1 1;
#X connect 8 0 12 0;
#X connect 8 1 9 0;
#X connect 9 0 11 0;
#X connect 10 0 7 0;
#X connect 11 0 1 1;
#X connect 12 0 10 0;
#X connect 12 1 13 0;
#X connect 13 0 7 1;
#X connect 14 0 7 0;
#X connect 14 1 10 1;
#X restore 354 643 pd morph-frequencies;
#N canvas 0 22 1069 747 morph-frequencies 0;
#X obj 176 94 inlet;
#X obj 176 236 pack f f;
#X obj 176 261 line;
#X obj 209 117 r preset-manager-morph-s;
#X msg 72 244 stop;
#X obj 72 214 r STOP-MORPH!;
#X obj 398 102 r frequencies-s;
#X obj 209 206 spigot;
#X obj 398 137 t f f;
#X obj 455 154 == 0;
#X obj 221 176 f;
#X floatatom 455 222 5 0 0 0 - - -, f 5;
#X obj 398 159 t b f;
#X floatatom 425 192 5 0 0 0 - - -, f 5;
#X obj 209 139 t f f;
#X obj 176 283 outlet;
#X connect 0 0 1 0;
#X connect 1 0 2 0;
#X connect 2 0 15 0;
#X connect 3 0 14 0;
#X connect 4 0 2 0;
#X connect 5 0 4 0;
#X connect 6 0 8 0;
#X connect 7 0 1 1;
#X connect 8 0 12 0;
#X connect 8 1 9 0;
#X connect 9 0 11 0;
#X connect 10 0 7 0;
#X connect 11 0 1 1;
#X connect 12 0 10 0;
#X connect 12 1 13 0;
#X connect 13 0 7 1;
#X connect 14 0 7 0;
#X connect 14 1 10 1;
#X restore 375 591 pd morph-frequencies;
#N canvas 0 22 1069 747 morph-parameters 0;
#X obj 176 94 inlet;
#X obj 176 236 pack f f;
#X obj 176 261 line;
#X obj 209 117 r preset-manager-morph-s;
#X msg 72 244 stop;
#X obj 72 214 r STOP-MORPH!;
#X obj 209 206 spigot;
#X obj 398 137 t f f;
#X obj 455 154 == 0;
#X obj 221 176 f;
#X floatatom 455 222 5 0 0 0 - - -, f 5;
#X obj 398 159 t b f;
#X floatatom 425 192 5 0 0 0 - - -, f 5;
#X obj 209 139 t f f;
#X obj 398 102 r parameters-s;
#X obj 176 288 outlet;
#X connect 0 0 1 0;
#X connect 1 0 2 0;
#X connect 2 0 15 0;
#X connect 3 0 13 0;
#X connect 4 0 2 0;
#X connect 5 0 4 0;
#X connect 6 0 1 1;
#X connect 7 0 11 0;
#X connect 7 1 8 0;
#X connect 8 0 10 0;
#X connect 9 0 6 0;
#X connect 10 0 1 1;
#X connect 11 0 9 0;
#X connect 11 1 12 0;
#X connect 12 0 6 1;
#X connect 13 0 6 0;
#X connect 13 1 9 1;
#X connect 14 0 7 0;
#X restore 560 673 pd morph-parameters;
#N canvas 0 22 1069 747 morph-parameters 0;
#X obj 176 94 inlet;
#X obj 176 236 pack f f;
#X obj 176 261 line;
#X obj 209 117 r preset-manager-morph-s;
#X msg 72 244 stop;
#X obj 72 214 r STOP-MORPH!;
#X obj 209 206 spigot;
#X obj 398 137 t f f;
#X obj 455 154 == 0;
#X obj 221 176 f;
#X floatatom 455 222 5 0 0 0 - - -, f 5;
#X obj 398 159 t b f;
#X floatatom 425 192 5 0 0 0 - - -, f 5;
#X obj 209 139 t f f;
#X obj 398 102 r parameters-s;
#X obj 176 288 outlet;
#X connect 0 0 1 0;
#X connect 1 0 2 0;
#X connect 2 0 15 0;
#X connect 3 0 13 0;
#X connect 4 0 2 0;
#X connect 5 0 4 0;
#X connect 6 0 1 1;
#X connect 7 0 11 0;
#X connect 7 1 8 0;
#X connect 8 0 10 0;
#X connect 9 0 6 0;
#X connect 10 0 1 1;
#X connect 11 0 9 0;
#X connect 11 1 12 0;
#X connect 12 0 6 1;
#X connect 13 0 6 0;
#X connect 13 1 9 1;
#X connect 14 0 7 0;
#X restore 615 573 pd morph-parameters;
#N canvas 0 22 1069 747 morph-parameters 0;
#X obj 176 94 inlet;
#X obj 176 236 pack f f;
#X obj 176 261 line;
#X obj 209 117 r preset-manager-morph-s;
#X msg 72 244 stop;
#X obj 72 214 r STOP-MORPH!;
#X obj 209 206 spigot;
#X obj 398 137 t f f;
#X obj 455 154 == 0;
#X obj 221 176 f;
#X floatatom 455 222 5 0 0 0 - - -, f 5;
#X obj 398 159 t b f;
#X floatatom 425 192 5 0 0 0 - - -, f 5;
#X obj 209 139 t f f;
#X obj 398 102 r parameters-s;
#X obj 176 288 outlet;
#X connect 0 0 1 0;
#X connect 1 0 2 0;
#X connect 2 0 15 0;
#X connect 3 0 13 0;
#X connect 4 0 2 0;
#X connect 5 0 4 0;
#X connect 6 0 1 1;
#X connect 7 0 11 0;
#X connect 7 1 8 0;
#X connect 8 0 10 0;
#X connect 9 0 6 0;
#X connect 10 0 1 1;
#X connect 11 0 9 0;
#X connect 11 1 12 0;
#X connect 12 0 6 1;
#X connect 13 0 6 0;
#X connect 13 1 9 1;
#X connect 14 0 7 0;
#X restore 619 436 pd morph-parameters;
#N canvas 0 22 1069 747 morph-parameters 0;
#X obj 176 94 inlet;
#X obj 176 236 pack f f;
#X obj 176 261 line;
#X obj 209 117 r preset-manager-morph-s;
#X msg 72 244 stop;
#X obj 72 214 r STOP-MORPH!;
#X obj 209 206 spigot;
#X obj 398 137 t f f;
#X obj 455 154 == 0;
#X obj 221 176 f;
#X floatatom 455 222 5 0 0 0 - - -, f 5;
#X obj 398 159 t b f;
#X floatatom 425 192 5 0 0 0 - - -, f 5;
#X obj 209 139 t f f;
#X obj 398 102 r parameters-s;
#X obj 176 288 outlet;
#X connect 0 0 1 0;
#X connect 1 0 2 0;
#X connect 2 0 15 0;
#X connect 3 0 13 0;
#X connect 4 0 2 0;
#X connect 5 0 4 0;
#X connect 6 0 1 1;
#X connect 7 0 11 0;
#X connect 7 1 8 0;
#X connect 8 0 10 0;
#X connect 9 0 6 0;
#X connect 10 0 1 1;
#X connect 11 0 9 0;
#X connect 11 1 12 0;
#X connect 12 0 6 1;
#X connect 13 0 6 0;
#X connect 13 1 9 1;
#X connect 14 0 7 0;
#X restore 819 349 pd morph-parameters;
#N canvas 0 22 1069 747 morph-parameters 0;
#X obj 176 94 inlet;
#X obj 176 236 pack f f;
#X obj 176 261 line;
#X obj 209 117 r preset-manager-morph-s;
#X msg 72 244 stop;
#X obj 72 214 r STOP-MORPH!;
#X obj 209 206 spigot;
#X obj 398 137 t f f;
#X obj 455 154 == 0;
#X obj 221 176 f;
#X floatatom 455 222 5 0 0 0 - - -, f 5;
#X obj 398 159 t b f;
#X floatatom 425 192 5 0 0 0 - - -, f 5;
#X obj 209 139 t f f;
#X obj 398 102 r parameters-s;
#X obj 176 288 outlet;
#X connect 0 0 1 0;
#X connect 1 0 2 0;
#X connect 2 0 15 0;
#X connect 3 0 13 0;
#X connect 4 0 2 0;
#X connect 5 0 4 0;
#X connect 6 0 1 1;
#X connect 7 0 11 0;
#X connect 7 1 8 0;
#X connect 8 0 10 0;
#X connect 9 0 6 0;
#X connect 10 0 1 1;
#X connect 11 0 9 0;
#X connect 11 1 12 0;
#X connect 12 0 6 1;
#X connect 13 0 6 0;
#X connect 13 1 9 1;
#X connect 14 0 7 0;
#X restore 802 448 pd morph-parameters;
#X connect 0 0 26 0;
#X connect 1 0 0 0;
#X connect 2 0 0 0;
#X connect 4 0 2 0;
#X connect 4 1 1 0;
#X connect 5 0 24 0;
#X connect 6 0 19 0;
#X connect 7 0 10 0;
#X connect 7 1 9 0;
#X connect 7 2 8 0;
#X connect 8 0 3 0;
#X connect 9 0 5 0;
#X connect 10 0 6 0;
#X connect 11 0 7 0;
#X connect 12 0 11 0;
#X connect 13 0 17 0;
#X connect 14 0 4 0;
#X connect 14 1 13 0;
#X connect 15 0 14 0;
#X connect 15 1 13 1;
#X connect 16 0 17 1;
#X connect 17 0 45 0;
#X connect 18 0 16 0;
#X connect 19 0 46 0;
#X connect 20 0 21 0;
#X connect 21 0 19 1;
#X connect 22 0 15 0;
#X connect 23 0 6 1;
#X connect 24 0 25 0;
#X connect 25 0 3 0;
#X connect 26 0 47 0;
#X connect 26 1 49 0;
#X connect 26 2 50 0;
#X connect 26 3 48 0;
#X connect 26 4 51 0;
#X connect 26 5 52 0;
#X connect 26 6 53 0;
#X connect 26 7 54 0;
#X connect 26 8 55 0;
#X connect 27 0 5 1;
#X connect 29 0 24 1;
#X connect 31 0 24 2;
#X connect 33 0 24 3;
#X connect 35 0 24 4;
#X connect 37 0 24 5;
#X connect 41 0 24 6;
#X connect 42 0 24 7;
#X connect 43 0 24 8;
#X connect 45 0 0 0;
#X connect 46 0 3 0;
#X connect 47 0 28 0;
#X connect 48 0 34 0;
#X connect 49 0 30 0;
#X connect 50 0 32 0;
#X connect 51 0 36 0;
#X connect 52 0 38 0;
#X connect 53 0 39 0;
#X connect 54 0 44 0;
#X connect 55 0 40 0;
#X restore 902 123 pd state-saving-via-preset-manager-module;
#X obj 140 108 cnv 5 5 5 empty empty ROOT 0 0 0 8 -262144 -66577 0
;
#X obj 175 306 cnv 5 5 5 empty empty CONSTANT 0 0 0 8 -262144 -66577
0;
#X obj 666 607 *~ 0.5;
#X obj 505 668 outlet~ OUT1 TRIGGERED VOICE;
#X obj 666 629 outlet~ OUT2 CONSTANT-VOICE;
#X obj 794 690 outlet~ ENVELOPE OUT;
#X obj 103 306 cnv 5 5 5 empty empty TRIGGERED 0 0 0 8 -262144 -66577
0;
#X floatatom 750 159 5 0 0 0 - - -, f 5;
#X obj 897 411 tabosc4~ \$0-square;
#X obj 330 270 +~;
#X obj 504 277 +~;
#X obj 699 266 +~;
#X obj 291 673 t f f;
#X obj 352 633 sig~;
#X obj 1066 269 inlet~ XPOSE;
#X obj 1066 291 abs~;
#X obj 1065 313 *~ 24;
#X obj 1066 335 -~ 12;
#X obj 352 655 +~;
#X obj 330 219 + 48;
#X obj 504 226 + 48;
#X obj 700 216 + 48;
#X obj 231 108 cnv 5 5 5 empty empty INT2 0 0 0 8 -262144 -66577 0
;
#X obj 194 280 hradio 15 1 1 3 \$0-triad-selctor-s \$0-triad-selctor-r
SPLIT 48 8 0 10 -262144 -1 -1 2;
#X obj 1044 468 r \$0-triad-selctor-s;
#X obj 1044 490 sel 0 1 2;
#X msg 1044 633 label SAW;
#X obj 1044 655 s \$0-triad-selctor-r;
#X obj 1061 609 s \$0-triad-selctor-r;
#X msg 1061 587 label SQUARE;
#X obj 1078 564 s \$0-triad-selctor-r;
#X msg 1078 542 label SPLIT;
#X obj 884 508 f \$0;
#X msg 884 530 set \$1-saw;
#X obj 932 451 f \$0;
#X msg 932 473 set \$1-square;
#X obj 886 616 f \$0;
#X msg 886 638 set \$1-saw;
#X obj 934 559 f \$0;
#X msg 934 581 set \$1-square;
#N canvas 297 27 907 677 parameter-nudging-system 0;
#X obj 21 178 clip 0 127;
#X obj 23 67 clip 0 127;
#X obj 171 67 clip 0 127;
#X obj 323 67 clip 0 127;
#X obj 484 66 clip 0 127;
#X obj 170 178 clip 0 127;
#X obj 322 178 clip 0 127;
#X obj 483 177 clip 0 127;
#X obj 23 22 r \$0-triad-root-s;
#X obj 23 99 s \$0-triad-root-r;
#X obj 171 22 r \$0-triad-interval1-s;
#X obj 171 99 s \$0-triad-interval1-r;
#X obj 323 22 r \$0-triad-interval2-s;
#X obj 323 99 s \$0-triad-interval2-r;
#X obj 484 21 r \$0-triad-dtune-s;
#X obj 484 98 s \$0-triad-dtune-r;
#X obj 21 133 r \$0-triad-attack-s;
#X obj 21 209 s \$0-triad-attack-r;
#X obj 170 133 r \$0-triad-release-s;
#X obj 170 210 s \$0-triad-release-r;
#X obj 322 133 r \$0-triad-scale-s;
#X obj 322 210 s \$0-triad-scale-r;
#X obj 483 132 r \$0-triad-xpose-s;
#X obj 483 209 s \$0-triad-xpose-r;
#N canvas 0 22 484 497 nudge-freq 0;
#X obj 124 234 random;
#X obj 232 335 f;
#X obj 232 368 +;
#X obj 257 166 random 2;
#X obj 124 275 t f f;
#X obj 124 351 t b f;
#X obj 124 297 *;
#X obj 257 188 sel 0 1;
#X msg 257 280 -1;
#X msg 335 280 1;
#X obj 124 149 t b b b;
#X obj 124 51 r NUDGE!;
#X obj 157 193 r NUDGE-RANGE;
#X obj 247 308 inlet;
#X obj 232 397 outlet;
#X obj 124 73 spigot;
#X obj 185 56 r frequencies2-s;
#X connect 0 0 4 0;
#X connect 1 0 2 0;
#X connect 2 0 14 0;
#X connect 3 0 7 0;
#X connect 4 0 6 0;
#X connect 5 0 2 0;
#X connect 5 1 2 1;
#X connect 6 0 5 0;
#X connect 7 0 8 0;
#X connect 7 1 9 0;
#X connect 8 0 6 1;
#X connect 9 0 6 1;
#X connect 10 0 0 0;
#X connect 10 1 1 0;
#X connect 10 2 3 0;
#X connect 11 0 15 0;
#X connect 12 0 0 1;
#X connect 13 0 1 1;
#X connect 15 0 10 0;
#X connect 16 0 15 1;
#X restore 323 45 pd nudge-freq;
#N canvas 0 22 484 497 nudge-parameters 0;
#X obj 124 234 random;
#X obj 232 335 f;
#X obj 232 368 +;
#X obj 257 166 random 2;
#X obj 124 275 t f f;
#X obj 124 351 t b f;
#X obj 124 297 *;
#X obj 257 188 sel 0 1;
#X msg 257 280 -1;
#X msg 335 280 1;
#X obj 124 149 t b b b;
#X obj 124 74 r NUDGE!;
#X obj 157 193 r NUDGE-RANGE;
#X obj 247 308 inlet;
#X obj 232 397 outlet;
#X obj 124 96 spigot;
#X obj 185 79 r parameters2-s;
#X connect 0 0 4 0;
#X connect 1 0 2 0;
#X connect 2 0 14 0;
#X connect 3 0 7 0;
#X connect 4 0 6 0;
#X connect 5 0 2 0;
#X connect 5 1 2 1;
#X connect 6 0 5 0;
#X connect 7 0 8 0;
#X connect 7 1 9 0;
#X connect 8 0 6 1;
#X connect 9 0 6 1;
#X connect 10 0 0 0;
#X connect 10 1 1 0;
#X connect 10 2 3 0;
#X connect 11 0 15 0;
#X connect 12 0 0 1;
#X connect 13 0 1 1;
#X connect 15 0 10 0;
#X connect 16 0 15 1;
#X restore 483 43 pd nudge-parameters;
#N canvas 0 22 484 497 nudge-attenuators 0;
#X obj 124 234 random;
#X obj 232 335 f;
#X obj 232 368 +;
#X obj 257 166 random 2;
#X obj 124 275 t f f;
#X obj 124 351 t b f;
#X obj 124 297 *;
#X obj 257 188 sel 0 1;
#X msg 257 280 -1;
#X msg 335 280 1;
#X obj 124 149 t b b b;
#X obj 124 71 r NUDGE!;
#X obj 157 193 r NUDGE-RANGE;
#X obj 247 308 inlet;
#X obj 232 397 outlet;
#X obj 124 93 spigot;
#X obj 201 76 r attenuators2-s;
#X connect 0 0 4 0;
#X connect 1 0 2 0;
#X connect 2 0 14 0;
#X connect 3 0 7 0;
#X connect 4 0 6 0;
#X connect 5 0 2 0;
#X connect 5 1 2 1;
#X connect 6 0 5 0;
#X connect 7 0 8 0;
#X connect 7 1 9 0;
#X connect 8 0 6 1;
#X connect 9 0 6 1;
#X connect 10 0 0 0;
#X connect 10 1 1 0;
#X connect 10 2 3 0;
#X connect 11 0 15 0;
#X connect 12 0 0 1;
#X connect 13 0 1 1;
#X connect 15 0 10 0;
#X connect 16 0 15 1;
#X restore 483 154 pd nudge-attenuators;
#N canvas 0 22 484 497 nudge-freq 0;
#X obj 124 234 random;
#X obj 232 335 f;
#X obj 232 368 +;
#X obj 257 166 random 2;
#X obj 124 275 t f f;
#X obj 124 351 t b f;
#X obj 124 297 *;
#X obj 257 188 sel 0 1;
#X msg 257 280 -1;
#X msg 335 280 1;
#X obj 124 149 t b b b;
#X obj 124 51 r NUDGE!;
#X obj 157 193 r NUDGE-RANGE;
#X obj 247 308 inlet;
#X obj 232 397 outlet;
#X obj 124 73 spigot;
#X obj 185 56 r frequencies2-s;
#X connect 0 0 4 0;
#X connect 1 0 2 0;
#X connect 2 0 14 0;
#X connect 3 0 7 0;
#X connect 4 0 6 0;
#X connect 5 0 2 0;
#X connect 5 1 2 1;
#X connect 6 0 5 0;
#X connect 7 0 8 0;
#X connect 7 1 9 0;
#X connect 8 0 6 1;
#X connect 9 0 6 1;
#X connect 10 0 0 0;
#X connect 10 1 1 0;
#X connect 10 2 3 0;
#X connect 11 0 15 0;
#X connect 12 0 0 1;
#X connect 13 0 1 1;
#X connect 15 0 10 0;
#X connect 16 0 15 1;
#X restore 23 45 pd nudge-freq;
#N canvas 0 22 484 497 nudge-freq 0;
#X obj 124 234 random;
#X obj 232 335 f;
#X obj 232 368 +;
#X obj 257 166 random 2;
#X obj 124 275 t f f;
#X obj 124 351 t b f;
#X obj 124 297 *;
#X obj 257 188 sel 0 1;
#X msg 257 280 -1;
#X msg 335 280 1;
#X obj 124 149 t b b b;
#X obj 124 51 r NUDGE!;
#X obj 157 193 r NUDGE-RANGE;
#X obj 247 308 inlet;
#X obj 232 397 outlet;
#X obj 124 73 spigot;
#X obj 185 56 r frequencies2-s;
#X connect 0 0 4 0;
#X connect 1 0 2 0;
#X connect 2 0 14 0;
#X connect 3 0 7 0;
#X connect 4 0 6 0;
#X connect 5 0 2 0;
#X connect 5 1 2 1;
#X connect 6 0 5 0;
#X connect 7 0 8 0;
#X connect 7 1 9 0;
#X connect 8 0 6 1;
#X connect 9 0 6 1;
#X connect 10 0 0 0;
#X connect 10 1 1 0;
#X connect 10 2 3 0;
#X connect 11 0 15 0;
#X connect 12 0 0 1;
#X connect 13 0 1 1;
#X connect 15 0 10 0;
#X connect 16 0 15 1;
#X restore 171 45 pd nudge-freq;
#N canvas 0 22 484 497 nudge-parameters 0;
#X obj 124 234 random;
#X obj 232 335 f;
#X obj 232 368 +;
#X obj 257 166 random 2;
#X obj 124 275 t f f;
#X obj 124 351 t b f;
#X obj 124 297 *;
#X obj 257 188 sel 0 1;
#X msg 257 280 -1;
#X msg 335 280 1;
#X obj 124 149 t b b b;
#X obj 124 74 r NUDGE!;
#X obj 157 193 r NUDGE-RANGE;
#X obj 247 308 inlet;
#X obj 232 397 outlet;
#X obj 124 96 spigot;
#X obj 185 79 r parameters2-s;
#X connect 0 0 4 0;
#X connect 1 0 2 0;
#X connect 2 0 14 0;
#X connect 3 0 7 0;
#X connect 4 0 6 0;
#X connect 5 0 2 0;
#X connect 5 1 2 1;
#X connect 6 0 5 0;
#X connect 7 0 8 0;
#X connect 7 1 9 0;
#X connect 8 0 6 1;
#X connect 9 0 6 1;
#X connect 10 0 0 0;
#X connect 10 1 1 0;
#X connect 10 2 3 0;
#X connect 11 0 15 0;
#X connect 12 0 0 1;
#X connect 13 0 1 1;
#X connect 15 0 10 0;
#X connect 16 0 15 1;
#X restore 21 158 pd nudge-parameters;
#N canvas 0 22 484 497 nudge-parameters 0;
#X obj 124 234 random;
#X obj 232 335 f;
#X obj 232 368 +;
#X obj 257 166 random 2;
#X obj 124 275 t f f;
#X obj 124 351 t b f;
#X obj 124 297 *;
#X obj 257 188 sel 0 1;
#X msg 257 280 -1;
#X msg 335 280 1;
#X obj 124 149 t b b b;
#X obj 124 74 r NUDGE!;
#X obj 157 193 r NUDGE-RANGE;
#X obj 247 308 inlet;
#X obj 232 397 outlet;
#X obj 124 96 spigot;
#X obj 185 79 r parameters2-s;
#X connect 0 0 4 0;
#X connect 1 0 2 0;
#X connect 2 0 14 0;
#X connect 3 0 7 0;
#X connect 4 0 6 0;
#X connect 5 0 2 0;
#X connect 5 1 2 1;
#X connect 6 0 5 0;
#X connect 7 0 8 0;
#X connect 7 1 9 0;
#X connect 8 0 6 1;
#X connect 9 0 6 1;
#X connect 10 0 0 0;
#X connect 10 1 1 0;
#X connect 10 2 3 0;
#X connect 11 0 15 0;
#X connect 12 0 0 1;
#X connect 13 0 1 1;
#X connect 15 0 10 0;
#X connect 16 0 15 1;
#X restore 322 154 pd nudge-parameters;
#N canvas 0 22 484 497 nudge-parameters 0;
#X obj 124 234 random;
#X obj 232 335 f;
#X obj 232 368 +;
#X obj 257 166 random 2;
#X obj 124 275 t f f;
#X obj 124 351 t b f;
#X obj 124 297 *;
#X obj 257 188 sel 0 1;
#X msg 257 280 -1;
#X msg 335 280 1;
#X obj 124 149 t b b b;
#X obj 124 74 r NUDGE!;
#X obj 157 193 r NUDGE-RANGE;
#X obj 247 308 inlet;
#X obj 232 397 outlet;
#X obj 124 96 spigot;
#X obj 185 79 r parameters2-s;
#X connect 0 0 4 0;
#X connect 1 0 2 0;
#X connect 2 0 14 0;
#X connect 3 0 7 0;
#X connect 4 0 6 0;
#X connect 5 0 2 0;
#X connect 5 1 2 1;
#X connect 6 0 5 0;
#X connect 7 0 8 0;
#X connect 7 1 9 0;
#X connect 8 0 6 1;
#X connect 9 0 6 1;
#X connect 10 0 0 0;
#X connect 10 1 1 0;
#X connect 10 2 3 0;
#X connect 11 0 15 0;
#X connect 12 0 0 1;
#X connect 13 0 1 1;
#X connect 15 0 10 0;
#X connect 16 0 15 1;
#X restore 170 155 pd nudge-parameters;
#X connect 0 0 17 0;
#X connect 1 0 9 0;
#X connect 2 0 11 0;
#X connect 3 0 13 0;
#X connect 4 0 15 0;
#X connect 5 0 19 0;
#X connect 6 0 21 0;
#X connect 7 0 23 0;
#X connect 8 0 27 0;
#X connect 10 0 28 0;
#X connect 12 0 24 0;
#X connect 14 0 25 0;
#X connect 16 0 29 0;
#X connect 18 0 31 0;
#X connect 20 0 30 0;
#X connect 22 0 26 0;
#X connect 24 0 3 0;
#X connect 25 0 4 0;
#X connect 26 0 7 0;
#X connect 27 0 1 0;
#X connect 28 0 2 0;
#X connect 29 0 0 0;
#X connect 30 0 6 0;
#X connect 31 0 5 0;
#X restore 900 149 pd parameter-nudging-system;
#N canvas 418 23 1197 804 external-messages 0;
#X floatatom 38 523 5 0 0 0 - - -, f 5;
#X obj 185 328 spigot;
#X obj 218 288 tgl 15 0 empty empty empty 17 7 0 10 -262144 -1 -1 0
1;
#X obj 254 272 ==;
#X obj 269 248 f \$1;
#X obj 269 224 loadbang;
#X msg 185 202 \$1 \$2;
#X msg 185 156 symbol \$1;
#X obj 185 180 pack s f;
#X obj 38 502 f;
#X obj 38 450 t b f;
#X obj 38 473 spigot;
#X obj 185 62 unpack s f f;
#X symbolatom 185 94 10 0 0 0 - - -, f 10;
#X obj 218 308 t f f;
#X obj 245 332 s \$0-msg-spigot;
#X obj 86 457 r \$0-msg-spigot;
#X floatatom 80 652 5 0 0 0 - - -, f 5;
#X obj 80 631 f;
#X obj 80 579 t b f;
#X obj 80 602 spigot;
#X obj 128 586 r \$0-msg-spigot;
#X floatatom 206 529 5 0 0 0 - - -, f 5;
#X obj 206 508 f;
#X obj 206 456 t b f;
#X obj 206 479 spigot;
#X obj 254 463 r \$0-msg-spigot;
#X floatatom 270 656 5 0 0 0 - - -, f 5;
#X obj 270 635 f;
#X obj 270 583 t b f;
#X obj 270 606 spigot;
#X obj 318 590 r \$0-msg-spigot;
#X floatatom 365 529 5 0 0 0 - - -, f 5;
#X obj 365 508 f;
#X obj 365 456 t b f;
#X obj 365 479 spigot;
#X obj 413 463 r \$0-msg-spigot;
#X obj 185 14 r triad;
#X obj 185 356 route ROOT INT1 INT2 DTUNE ATTACK RELEASE SCALE XPOSE
;
#X obj 38 543 s \$0-triad-root-r;
#X obj 80 672 s \$0-triad-interval1-r;
#X obj 206 549 s \$0-triad-interval2-r;
#X obj 270 676 s \$0-triad-dtune-r;
#X obj 365 549 s \$0-triad-attack-r;
#X floatatom 443 649 5 0 0 0 - - -, f 5;
#X obj 443 628 f;
#X obj 443 576 t b f;
#X obj 443 599 spigot;
#X obj 491 583 r \$0-msg-spigot;
#X obj 443 669 s \$0-triad-release-r;
#X floatatom 521 517 5 0 0 0 - - -, f 5;
#X obj 521 496 f;
#X obj 521 444 t b f;
#X obj 521 467 spigot;
#X obj 569 451 r \$0-msg-spigot;
#X obj 521 537 s \$0-triad-scale-r;
#X floatatom 706 511 5 0 0 0 - - -, f 5;
#X obj 706 490 f;
#X obj 706 438 t b f;
#X obj 706 461 spigot;
#X obj 754 445 r \$0-msg-spigot;
#X obj 706 531 s \$0-triad-xpose-r;
#X connect 0 0 39 0;
#X connect 1 0 38 0;
#X connect 2 0 14 0;
#X connect 3 0 2 0;
#X connect 4 0 3 1;
#X connect 5 0 4 0;
#X connect 6 0 1 0;
#X connect 7 0 8 0;
#X connect 8 0 6 0;
#X connect 9 0 0 0;
#X connect 10 0 11 0;
#X connect 10 1 9 1;
#X connect 11 0 9 0;
#X connect 12 0 13 0;
#X connect 12 1 8 1;
#X connect 12 2 3 0;
#X connect 13 0 7 0;
#X connect 14 0 1 1;
#X connect 14 1 15 0;
#X connect 16 0 11 1;
#X connect 17 0 40 0;
#X connect 18 0 17 0;
#X connect 19 0 20 0;
#X connect 19 1 18 1;
#X connect 20 0 18 0;
#X connect 21 0 20 1;
#X connect 22 0 41 0;
#X connect 23 0 22 0;
#X connect 24 0 25 0;
#X connect 24 1 23 1;
#X connect 25 0 23 0;
#X connect 26 0 25 1;
#X connect 27 0 42 0;
#X connect 28 0 27 0;
#X connect 29 0 30 0;
#X connect 29 1 28 1;
#X connect 30 0 28 0;
#X connect 31 0 30 1;
#X connect 32 0 43 0;
#X connect 33 0 32 0;
#X connect 34 0 35 0;
#X connect 34 1 33 1;
#X connect 35 0 33 0;
#X connect 36 0 35 1;
#X connect 37 0 12 0;
#X connect 38 0 10 0;
#X connect 38 1 19 0;
#X connect 38 2 24 0;
#X connect 38 3 29 0;
#X connect 38 4 34 0;
#X connect 38 5 46 0;
#X connect 38 6 52 0;
#X connect 38 7 58 0;
#X connect 44 0 49 0;
#X connect 45 0 44 0;
#X connect 46 0 47 0;
#X connect 46 1 45 1;
#X connect 47 0 45 0;
#X connect 48 0 47 1;
#X connect 50 0 55 0;
#X connect 51 0 50 0;
#X connect 52 0 53 0;
#X connect 52 1 51 1;
#X connect 53 0 51 0;
#X connect 54 0 53 1;
#X connect 56 0 61 0;
#X connect 57 0 56 0;
#X connect 58 0 59 0;
#X connect 58 1 57 1;
#X connect 59 0 57 0;
#X connect 60 0 59 1;
#X restore 80 19 pd external-messages;
#X connect 1 0 14 0;
#X connect 2 0 4 0;
#X connect 3 0 4 0;
#X connect 4 0 27 0;
#X connect 4 0 113 0;
#X connect 8 0 7 0;
#X connect 9 0 10 0;
#X connect 10 0 8 0;
#X connect 10 1 11 0;
#X connect 11 0 19 0;
#X connect 12 0 2 0;
#X connect 12 0 54 0;
#X connect 13 0 93 0;
#X connect 14 0 90 0;
#X connect 16 0 3 0;
#X connect 16 0 48 0;
#X connect 17 0 95 0;
#X connect 18 0 97 0;
#X connect 20 0 62 0;
#X connect 21 0 4 0;
#X connect 22 0 21 0;
#X connect 22 0 49 0;
#X connect 23 0 101 0;
#X connect 24 0 99 0;
#X connect 26 0 23 0;
#X connect 27 0 56 0;
#X connect 28 0 29 0;
#X connect 29 0 30 0;
#X connect 30 0 31 0;
#X connect 30 0 84 0;
#X connect 31 0 32 0;
#X connect 31 0 46 0;
#X connect 32 0 31 1;
#X connect 33 0 34 0;
#X connect 33 1 36 0;
#X connect 33 2 38 0;
#X connect 33 3 39 0;
#X connect 34 0 35 0;
#X connect 36 0 37 0;
#X connect 38 0 40 0;
#X connect 39 0 41 0;
#X connect 45 0 55 1;
#X connect 45 0 116 0;
#X connect 46 0 33 0;
#X connect 46 0 44 0;
#X connect 47 0 55 0;
#X connect 47 0 113 0;
#X connect 48 0 59 0;
#X connect 49 0 119 0;
#X connect 50 0 51 0;
#X connect 51 0 57 0;
#X connect 52 0 53 0;
#X connect 53 0 49 1;
#X connect 53 0 54 1;
#X connect 54 0 58 0;
#X connect 55 0 56 0;
#X connect 56 0 114 0;
#X connect 57 0 52 0;
#X connect 58 0 47 0;
#X connect 59 0 47 0;
#X connect 60 0 130 0;
#X connect 61 0 120 0;
#X connect 62 0 131 0;
#X connect 63 0 121 0;
#X connect 64 0 60 0;
#X connect 65 0 66 0;
#X connect 66 0 132 0;
#X connect 67 0 122 0;
#X connect 70 0 89 0;
#X connect 71 0 70 0;
#X connect 73 0 27 1;
#X connect 73 0 116 0;
#X connect 81 0 83 0;
#X connect 83 0 86 0;
#X connect 86 0 87 0;
#X connect 87 0 88 0;
#X connect 88 0 123 0;
#X connect 89 0 93 0;
#X connect 89 0 97 0;
#X connect 89 0 99 0;
#X connect 90 0 91 0;
#X connect 91 0 92 0;
#X connect 92 0 60 0;
#X connect 93 0 94 0;
#X connect 94 0 90 0;
#X connect 94 1 90 1;
#X connect 95 0 105 0;
#X connect 96 0 62 0;
#X connect 97 0 98 0;
#X connect 98 0 95 0;
#X connect 98 1 95 1;
#X connect 99 0 100 0;
#X connect 100 0 101 0;
#X connect 100 1 101 1;
#X connect 101 0 102 0;
#X connect 102 0 103 0;
#X connect 103 0 66 0;
#X connect 103 0 118 0;
#X connect 104 0 17 0;
#X connect 105 0 96 0;
#X connect 106 0 108 0;
#X connect 108 0 109 0;
#X connect 109 0 107 0;
#X connect 113 0 115 0;
#X connect 119 0 47 0;
#X connect 120 0 12 0;
#X connect 121 0 16 0;
#X connect 122 0 22 0;
#X connect 123 0 82 0;
#X connect 123 1 124 0;
#X connect 124 0 129 0;
#X connect 125 0 126 0;
#X connect 126 0 127 0;
#X connect 127 0 128 0;
#X connect 128 0 129 1;
#X connect 129 0 120 1;
#X connect 129 0 121 1;
#X connect 129 0 122 1;
#X connect 130 0 61 0;
#X connect 131 0 63 0;
#X connect 132 0 67 0;
#X connect 135 0 136 0;
#X connect 136 0 137 0;
#X connect 136 0 143 0;
#X connect 136 1 140 0;
#X connect 136 1 145 0;
#X connect 136 2 142 0;
#X connect 136 2 149 0;
#X connect 136 2 147 0;
#X connect 137 0 138 0;
#X connect 140 0 139 0;
#X connect 142 0 141 0;
#X connect 143 0 144 0;
#X connect 144 0 2 0;
#X connect 144 0 3 0;
#X connect 144 0 21 0;
#X connect 144 0 58 0;
#X connect 144 0 59 0;
#X connect 144 0 119 0;
#X connect 145 0 146 0;
#X connect 146 0 119 0;
#X connect 146 0 59 0;
#X connect 146 0 58 0;
#X connect 146 0 21 0;
#X connect 146 0 3 0;
#X connect 146 0 2 0;
#X connect 147 0 148 0;
#X connect 148 0 2 0;
#X connect 148 0 3 0;
#X connect 148 0 21 0;
#X connect 149 0 150 0;
#X connect 150 0 58 0;
#X connect 150 0 59 0;
#X connect 150 0 119 0;
#X coords 0 -1 1 1 190 215 2 100 100;
