#N canvas 0 22 675 315 10;
#X obj 24 218 cnv 15 400 30 empty empty OUTPUTS: 20 12 0 14 -158136
-262144 0;
#X obj 24 101 cnv 15 400 30 empty empty CONTROLS: 20 12 0 14 -158136
-262144 0;
#X obj 24 160 cnv 15 400 30 empty empty INPUTS: 20 12 0 14 -158136
-262144 0;
#X obj 20 17 cnv 15 400 30 empty empty TRIGGER-DELAY: 20 12 0 14 -150893
-262144 0;
#X obj 437 15 trigger-delay;
#X text 24 50 The "trigger-delay" module is a simple trigger delay.
Trigger/gate signal at the input goes to the output after a delay time
in milliseconds set by the DELAY slider.;
#X text 25 136 DELAY - controls delay time in ms;
#X text 23 191 IN - trigger/gate input;
#X text 24 257 OUT - delayed trigger/gate output;
