#N canvas 0 23 1280 752 10;
#X obj 106 308 mtof~;
#X obj 106 286 +~;
#X obj 185 269 *~ 127;
#X obj 106 202 t f f;
#X obj 106 244 sig~;
#X obj 106 266 lop~ 5;
#X obj 883 126 inlet~;
#X obj 883 287 *~;
#X obj 898 240 pack 0 50;
#X obj 898 262 line~;
#X text 880 107 FM IN;
#X obj 898 218 / 127;
#X obj 883 309 *~ 2000;
#X obj 106 330 +~;
#X obj 109 131 hsl 128 15 0 127 0 1 \$0-trisaw-pitch-s \$0-trisaw-pitch-r
PITCH 135 7 0 10 -262144 -1 -1 4600 1;
#X floatatom 207 117 5 0 0 0 - - -, f 5;
#X obj 106 506 *~;
#X obj 280 417 *~;
#X obj 295 303 / 127;
#X obj 295 325 t f f;
#X obj 295 347 pack 0 50;
#X obj 295 369 line~;
#X obj 295 391 +~;
#X msg 322 398 1 \$1;
#X obj 322 420 -;
#X obj 322 442 pack 0 50;
#X obj 322 464 line~;
#X obj 324 489 +~;
#X obj 473 472 *~ -1;
#X obj 473 374 *~ 1;
#X obj 473 233 abs~;
#X obj 473 205 inlet~ XAFDE;
#X obj 106 689 wrap~;
#X obj 356 560 t f f;
#X obj 356 583 pack 0 50;
#X obj 356 605 line~;
#X msg 440 577 1 \$1;
#X obj 440 599 -;
#X obj 440 621 pack 0 50;
#X obj 440 643 line~;
#X obj 440 665 +~;
#X obj 106 666 *~;
#X obj 356 538 / 127;
#X obj 640 626 *~;
#X obj 106 733 *~;
#X obj 356 627 +~;
#X obj 356 649 +~ 1;
#X obj 640 650 *~ 1;
#X obj 641 566 abs~;
#X obj 641 588 *~ -1;
#X obj 106 711 -~ 0.5;
#X obj 640 703 clip~ -1 1;
#X obj 208 109 cnv 5 5 5 empty empty HARM. 0 0 0 8 -262144 -66577 0
;
#X obj 262 109 cnv 5 5 5 empty empty FM 0 0 0 8 -262144 -120682 0;
#X obj 105 123 cnv 5 5 5 empty empty TRIGONS 0 0 0 12 -262144 -66577
0;
#X obj 160 123 cnv 5 5 5 empty \$0-instance-num 1 0 0 0 12 -262144
-66577 0;
#X obj 109 146 hsl 128 15 0 127 0 1 \$0-trisaw-xfade-s \$0-trisaw-xfade-r
WAVE 135 7 0 10 -262144 -1 -1 6600 1;
#X obj 295 282 r \$0-trisaw-xfade-s;
#X obj 109 161 hsl 128 15 0 127 0 1 \$0-trisaw-harmonics-s \$0-trisaw-harmonics-r
HARM. 135 7 0 10 -262144 -1 -1 0 1;
#X obj 356 513 r \$0-trisaw-harmonics-s;
#X obj 640 725 outlet~;
#X obj 641 542 inlet~ HARMONICS;
#X obj 105 109 cnv 5 5 5 empty empty PITCH 0 0 0 8 -262144 -66577 0
;
#X obj 155 109 cnv 5 5 5 empty empty WAVE 0 0 0 8 -262144 -66577 0
;
#X obj 109 175 hsl 128 15 0 127 0 1 \$0-trisaw-fm-att-s \$0-trisaw-fm-att-r
FM 133 7 0 10 -158136 -1 -1 0 1;
#X obj 898 181 r \$0-trisaw-fm-att-s;
#X obj 744 503 loadbang;
#X obj 744 525 f \$0;
#X obj 744 556 t f f;
#X text 745 485 SAW WAVE;
#X msg 743 660 \; \$1-saw normalize 1;
#X obj 741 699 table \$0-saw;
#X obj 280 259 tabosc4~ \$0-saw;
#X obj 809 369 loadbang;
#X text 781 349 TRIANGLE WAVE;
#X msg 809 505 \; \$1-triangle normalize 1;
#X obj 809 391 f \$0;
#X obj 809 422 t f f;
#X obj 807 545 table \$0-triangle;
#X obj 106 352 tabosc4~ \$0-triangle;
#X obj 106 224 clip 0 90;
#X obj 185 247 inlet~ PITCH-CV;
#N canvas 267 22 593 735 state-saving-multiple-instances 0;
#X obj 205 28 loadbang;
#X obj 251 481 textfile;
#X obj 205 61 t b b;
#X obj 251 503 unpack f f f f;
#X msg 508 464 rewind;
#X msg 465 464 bang;
#X obj 109 691 textfile;
#X obj 465 425 t b b;
#X obj 110 400 pack f f f f;
#X obj 110 357 f;
#X obj 123 580 f;
#X obj 48 403 t b b b;
#X msg 186 580 clear;
#X msg 110 438 set \$1 \$2 \$3 \$4;
#X obj 271 217 outlet;
#X text 267 237 INSTANCE NUMBER;
#X obj 232 152 f \$1;
#X obj 232 188 t f f f;
#X obj 48 378 bng 15 250 50 0 empty empty empty 17 7 0 10 -262144 -1
-1;
#X obj 48 274 r SAVE-S;
#X obj 125 309 r \$0-trisaw-pitch-s;
#X obj 251 617 s \$0-trisaw-pitch-r;
#X msg 122 651 write statesave/\$1-trigons-ss.txt;
#X msg 251 456 read statesave/\$1-trigons-ss.txt;
#X obj 133 332 r \$0-trisaw-xfade-s;
#X obj 278 594 s \$0-trisaw-xfade-r;
#X obj 156 353 r \$0-trisaw-harmonics-s;
#X obj 305 568 s \$0-trisaw-harmonics-r;
#X obj 179 374 r \$0-trisaw-fm-att-s;
#X obj 332 538 s \$0-trisaw-fm-att-r;
#X obj 292 24 r \$0-reload!;
#X connect 0 0 2 0;
#X connect 1 0 3 0;
#X connect 2 0 7 0;
#X connect 2 1 16 0;
#X connect 3 0 21 0;
#X connect 3 1 25 0;
#X connect 3 2 27 0;
#X connect 3 3 29 0;
#X connect 4 0 1 0;
#X connect 5 0 1 0;
#X connect 7 0 5 0;
#X connect 7 1 4 0;
#X connect 8 0 13 0;
#X connect 9 0 8 0;
#X connect 10 0 22 0;
#X connect 11 0 10 0;
#X connect 11 1 9 0;
#X connect 11 2 12 0;
#X connect 12 0 6 0;
#X connect 13 0 6 0;
#X connect 16 0 17 0;
#X connect 17 0 10 1;
#X connect 17 1 23 0;
#X connect 17 2 14 0;
#X connect 18 0 11 0;
#X connect 19 0 18 0;
#X connect 20 0 9 1;
#X connect 22 0 6 0;
#X connect 23 0 1 0;
#X connect 24 0 8 1;
#X connect 26 0 8 2;
#X connect 28 0 8 3;
#X connect 30 0 2 0;
#X restore 317 76 pd state-saving-multiple-instances;
#X obj 317 150 s \$0-instance-num;
#X obj 317 102 makefilename %d;
#X msg 317 127 label \$1;
#N canvas 81 22 1117 745 state-saving-via-preset-manager-module 0;
#X obj 477 349 textfile;
#X msg 755 332 rewind;
#X msg 712 332 bang;
#X obj 243 690 textfile;
#X obj 712 293 t b b;
#X obj 244 356 f;
#X obj 257 579 f;
#X obj 190 474 t b b b;
#X msg 373 621 clear;
#X obj 244 180 delay 5;
#X obj 190 529 delay 10;
#X msg 190 314 bang;
#X obj 190 155 r STORE-S!;
#X obj 477 250 f;
#X obj 450 207 t b b;
#X obj 465 171 t b f;
#X obj 522 268 f \$1;
#X obj 477 295 pack f f;
#X obj 522 218 loadbang;
#X obj 257 609 pack f f;
#X obj 302 562 loadbang;
#X obj 302 584 f \$1;
#X obj 465 107 r preset-manager-scan;
#X obj 272 540 r preset-manager-store-slot;
#X msg 243 490 set \$1 \$2 \$3 \$4;
#X obj 244 423 pack f f f f;
#X obj 477 371 unpack f f f f;
#X obj 465 129 i;
#X msg 256 650 write statesave/\$1-\$2-trigons-ss.txt;
#X msg 477 324 read statesave/\$1-\$2-trigons-ss.txt;
#X obj 259 308 r \$0-trisaw-pitch-s;
#X obj 477 713 s \$0-trisaw-pitch-r;
#X obj 267 330 r \$0-trisaw-xfade-s;
#X obj 504 615 s \$0-trisaw-xfade-r;
#X obj 290 352 r \$0-trisaw-harmonics-s;
#X obj 531 518 s \$0-trisaw-harmonics-r;
#X obj 313 374 r \$0-trisaw-fm-att-s;
#X obj 549 460 s \$0-trisaw-fm-att-r;
#N canvas 0 22 1069 747 morph-frequencies 0;
#X obj 176 94 inlet;
#X obj 176 236 pack f f;
#X obj 176 261 line;
#X obj 209 117 r preset-manager-morph-s;
#X msg 72 244 stop;
#X obj 72 214 r STOP-MORPH!;
#X obj 398 102 r frequencies-s;
#X obj 209 206 spigot;
#X obj 398 137 t f f;
#X obj 455 154 == 0;
#X obj 221 176 f;
#X floatatom 455 222 5 0 0 0 - - -, f 5;
#X obj 398 159 t b f;
#X floatatom 425 192 5 0 0 0 - - -, f 5;
#X obj 209 139 t f f;
#X obj 176 283 outlet;
#X connect 0 0 1 0;
#X connect 1 0 2 0;
#X connect 2 0 15 0;
#X connect 3 0 14 0;
#X connect 4 0 2 0;
#X connect 5 0 4 0;
#X connect 6 0 8 0;
#X connect 7 0 1 1;
#X connect 8 0 12 0;
#X connect 8 1 9 0;
#X connect 9 0 11 0;
#X connect 10 0 7 0;
#X connect 11 0 1 1;
#X connect 12 0 10 0;
#X connect 12 1 13 0;
#X connect 13 0 7 1;
#X connect 14 0 7 0;
#X connect 14 1 10 1;
#X restore 478 685 pd morph-frequencies;
#N canvas 0 22 1069 747 morph-parameters 0;
#X obj 176 94 inlet;
#X obj 176 236 pack f f;
#X obj 176 261 line;
#X obj 209 117 r preset-manager-morph-s;
#X msg 72 244 stop;
#X obj 72 214 r STOP-MORPH!;
#X obj 209 206 spigot;
#X obj 398 137 t f f;
#X obj 455 154 == 0;
#X obj 221 176 f;
#X floatatom 455 222 5 0 0 0 - - -, f 5;
#X obj 398 159 t b f;
#X floatatom 425 192 5 0 0 0 - - -, f 5;
#X obj 209 139 t f f;
#X obj 398 102 r parameters-s;
#X obj 176 288 outlet;
#X connect 0 0 1 0;
#X connect 1 0 2 0;
#X connect 2 0 15 0;
#X connect 3 0 13 0;
#X connect 4 0 2 0;
#X connect 5 0 4 0;
#X connect 6 0 1 1;
#X connect 7 0 11 0;
#X connect 7 1 8 0;
#X connect 8 0 10 0;
#X connect 9 0 6 0;
#X connect 10 0 1 1;
#X connect 11 0 9 0;
#X connect 11 1 12 0;
#X connect 12 0 6 1;
#X connect 13 0 6 0;
#X connect 13 1 9 1;
#X connect 14 0 7 0;
#X restore 504 593 pd morph-parameters;
#N canvas 0 22 1069 747 morph-attenuators 0;
#X obj 176 94 inlet;
#X obj 176 236 pack f f;
#X obj 176 261 line;
#X obj 209 117 r preset-manager-morph-s;
#X msg 72 244 stop;
#X obj 72 214 r STOP-MORPH!;
#X obj 209 206 spigot;
#X obj 398 137 t f f;
#X obj 455 154 == 0;
#X obj 221 176 f;
#X floatatom 455 222 5 0 0 0 - - -, f 5;
#X obj 398 159 t b f;
#X floatatom 425 192 5 0 0 0 - - -, f 5;
#X obj 209 139 t f f;
#X obj 398 102 r attenuators-s;
#X obj 176 288 outlet;
#X connect 0 0 1 0;
#X connect 1 0 2 0;
#X connect 2 0 15 0;
#X connect 3 0 13 0;
#X connect 4 0 2 0;
#X connect 5 0 4 0;
#X connect 6 0 1 1;
#X connect 7 0 11 0;
#X connect 7 1 8 0;
#X connect 8 0 10 0;
#X connect 9 0 6 0;
#X connect 10 0 1 1;
#X connect 11 0 9 0;
#X connect 11 1 12 0;
#X connect 12 0 6 1;
#X connect 13 0 6 0;
#X connect 13 1 9 1;
#X connect 14 0 7 0;
#X restore 548 433 pd morph-attenuators;
#N canvas 0 22 1069 747 morph-parameters 0;
#X obj 176 94 inlet;
#X obj 176 236 pack f f;
#X obj 176 261 line;
#X obj 209 117 r preset-manager-morph-s;
#X msg 72 244 stop;
#X obj 72 214 r STOP-MORPH!;
#X obj 209 206 spigot;
#X obj 398 137 t f f;
#X obj 455 154 == 0;
#X obj 221 176 f;
#X floatatom 455 222 5 0 0 0 - - -, f 5;
#X obj 398 159 t b f;
#X floatatom 425 192 5 0 0 0 - - -, f 5;
#X obj 209 139 t f f;
#X obj 398 102 r parameters-s;
#X obj 176 288 outlet;
#X connect 0 0 1 0;
#X connect 1 0 2 0;
#X connect 2 0 15 0;
#X connect 3 0 13 0;
#X connect 4 0 2 0;
#X connect 5 0 4 0;
#X connect 6 0 1 1;
#X connect 7 0 11 0;
#X connect 7 1 8 0;
#X connect 8 0 10 0;
#X connect 9 0 6 0;
#X connect 10 0 1 1;
#X connect 11 0 9 0;
#X connect 11 1 12 0;
#X connect 12 0 6 1;
#X connect 13 0 6 0;
#X connect 13 1 9 1;
#X connect 14 0 7 0;
#X restore 534 490 pd morph-parameters;
#X connect 0 0 26 0;
#X connect 1 0 0 0;
#X connect 2 0 0 0;
#X connect 4 0 2 0;
#X connect 4 1 1 0;
#X connect 5 0 25 0;
#X connect 6 0 19 0;
#X connect 7 0 10 0;
#X connect 7 1 9 0;
#X connect 7 2 8 0;
#X connect 8 0 3 0;
#X connect 9 0 5 0;
#X connect 10 0 6 0;
#X connect 11 0 7 0;
#X connect 12 0 11 0;
#X connect 13 0 17 0;
#X connect 14 0 4 0;
#X connect 14 1 13 0;
#X connect 15 0 14 0;
#X connect 15 1 13 1;
#X connect 16 0 17 1;
#X connect 17 0 29 0;
#X connect 18 0 16 0;
#X connect 19 0 28 0;
#X connect 20 0 21 0;
#X connect 21 0 19 1;
#X connect 22 0 27 0;
#X connect 23 0 6 1;
#X connect 24 0 3 0;
#X connect 25 0 24 0;
#X connect 26 0 38 0;
#X connect 26 1 39 0;
#X connect 26 2 41 0;
#X connect 26 3 40 0;
#X connect 27 0 15 0;
#X connect 28 0 3 0;
#X connect 29 0 0 0;
#X connect 30 0 5 1;
#X connect 32 0 25 1;
#X connect 34 0 25 2;
#X connect 36 0 25 3;
#X connect 38 0 31 0;
#X connect 39 0 33 0;
#X connect 40 0 37 0;
#X connect 41 0 35 0;
#X restore 317 55 pd state-saving-via-preset-manager-module;
#X msg 836 449 \; \$1-triangle sinesum 512 1 0 -0.111111 0 0.04 0 -0.0204082
0 0.0123457 0 -0.00826446;
#X msg 771 583 \; \$1-saw sinesum 512 1 0.5 0.33 0.25 0.2 0.16 0.14
0.125 0.111111 0.1 0.090909 0.083333 0.076923 0.0714285 0.066666 0.0625
0.058823 0.055555 0.052631 0.05 0.047619 0.045454 0.043478 0.041666
;
#N canvas 297 27 918 449 parameter-nudging-system 0;
#X obj 21 178 clip 0 127;
#X obj 23 67 clip 0 127;
#X obj 171 67 clip 0 127;
#X obj 323 67 clip 0 127;
#X obj 23 22 r \$0-trisaw-pitch-s;
#X obj 23 99 s \$0-trisaw-pitch-r;
#X obj 171 22 r \$0-trisaw-xfade-s;
#X obj 171 99 s \$0-trisaw-xfade-r;
#X obj 323 22 r \$0-trisaw-harmonics-s;
#X obj 323 99 s \$0-trisaw-harmonics-r;
#X obj 21 133 r \$0-trisaw-fm-att-s;
#X obj 21 209 s \$0-trisaw-fm-att-r;
#N canvas 0 22 484 497 nudge-freq 0;
#X obj 124 234 random;
#X obj 232 335 f;
#X obj 232 368 +;
#X obj 257 166 random 2;
#X obj 124 275 t f f;
#X obj 124 351 t b f;
#X obj 124 297 *;
#X obj 257 188 sel 0 1;
#X msg 257 280 -1;
#X msg 335 280 1;
#X obj 124 149 t b b b;
#X obj 124 51 r NUDGE!;
#X obj 157 193 r NUDGE-RANGE;
#X obj 247 308 inlet;
#X obj 232 397 outlet;
#X obj 124 73 spigot;
#X obj 185 56 r frequencies2-s;
#X connect 0 0 4 0;
#X connect 1 0 2 0;
#X connect 2 0 14 0;
#X connect 3 0 7 0;
#X connect 4 0 6 0;
#X connect 5 0 2 0;
#X connect 5 1 2 1;
#X connect 6 0 5 0;
#X connect 7 0 8 0;
#X connect 7 1 9 0;
#X connect 8 0 6 1;
#X connect 9 0 6 1;
#X connect 10 0 0 0;
#X connect 10 1 1 0;
#X connect 10 2 3 0;
#X connect 11 0 15 0;
#X connect 12 0 0 1;
#X connect 13 0 1 1;
#X connect 15 0 10 0;
#X connect 16 0 15 1;
#X restore 23 45 pd nudge-freq;
#N canvas 0 22 484 497 nudge-parameters 0;
#X obj 124 234 random;
#X obj 232 335 f;
#X obj 232 368 +;
#X obj 257 166 random 2;
#X obj 124 275 t f f;
#X obj 124 351 t b f;
#X obj 124 297 *;
#X obj 257 188 sel 0 1;
#X msg 257 280 -1;
#X msg 335 280 1;
#X obj 124 149 t b b b;
#X obj 124 74 r NUDGE!;
#X obj 157 193 r NUDGE-RANGE;
#X obj 247 308 inlet;
#X obj 232 397 outlet;
#X obj 124 96 spigot;
#X obj 185 79 r parameters2-s;
#X connect 0 0 4 0;
#X connect 1 0 2 0;
#X connect 2 0 14 0;
#X connect 3 0 7 0;
#X connect 4 0 6 0;
#X connect 5 0 2 0;
#X connect 5 1 2 1;
#X connect 6 0 5 0;
#X connect 7 0 8 0;
#X connect 7 1 9 0;
#X connect 8 0 6 1;
#X connect 9 0 6 1;
#X connect 10 0 0 0;
#X connect 10 1 1 0;
#X connect 10 2 3 0;
#X connect 11 0 15 0;
#X connect 12 0 0 1;
#X connect 13 0 1 1;
#X connect 15 0 10 0;
#X connect 16 0 15 1;
#X restore 171 44 pd nudge-parameters;
#N canvas 0 22 484 497 nudge-attenuators 0;
#X obj 124 234 random;
#X obj 232 335 f;
#X obj 232 368 +;
#X obj 257 166 random 2;
#X obj 124 275 t f f;
#X obj 124 351 t b f;
#X obj 124 297 *;
#X obj 257 188 sel 0 1;
#X msg 257 280 -1;
#X msg 335 280 1;
#X obj 124 149 t b b b;
#X obj 124 71 r NUDGE!;
#X obj 157 193 r NUDGE-RANGE;
#X obj 247 308 inlet;
#X obj 232 397 outlet;
#X obj 124 93 spigot;
#X obj 201 76 r attenuators2-s;
#X connect 0 0 4 0;
#X connect 1 0 2 0;
#X connect 2 0 14 0;
#X connect 3 0 7 0;
#X connect 4 0 6 0;
#X connect 5 0 2 0;
#X connect 5 1 2 1;
#X connect 6 0 5 0;
#X connect 7 0 8 0;
#X connect 7 1 9 0;
#X connect 8 0 6 1;
#X connect 9 0 6 1;
#X connect 10 0 0 0;
#X connect 10 1 1 0;
#X connect 10 2 3 0;
#X connect 11 0 15 0;
#X connect 12 0 0 1;
#X connect 13 0 1 1;
#X connect 15 0 10 0;
#X connect 16 0 15 1;
#X restore 21 155 pd nudge-attenuators;
#N canvas 0 22 484 497 nudge-parameters 0;
#X obj 124 234 random;
#X obj 232 335 f;
#X obj 232 368 +;
#X obj 257 166 random 2;
#X obj 124 275 t f f;
#X obj 124 351 t b f;
#X obj 124 297 *;
#X obj 257 188 sel 0 1;
#X msg 257 280 -1;
#X msg 335 280 1;
#X obj 124 149 t b b b;
#X obj 124 74 r NUDGE!;
#X obj 157 193 r NUDGE-RANGE;
#X obj 247 308 inlet;
#X obj 232 397 outlet;
#X obj 124 96 spigot;
#X obj 185 79 r parameters2-s;
#X connect 0 0 4 0;
#X connect 1 0 2 0;
#X connect 2 0 14 0;
#X connect 3 0 7 0;
#X connect 4 0 6 0;
#X connect 5 0 2 0;
#X connect 5 1 2 1;
#X connect 6 0 5 0;
#X connect 7 0 8 0;
#X connect 7 1 9 0;
#X connect 8 0 6 1;
#X connect 9 0 6 1;
#X connect 10 0 0 0;
#X connect 10 1 1 0;
#X connect 10 2 3 0;
#X connect 11 0 15 0;
#X connect 12 0 0 1;
#X connect 13 0 1 1;
#X connect 15 0 10 0;
#X connect 16 0 15 1;
#X restore 323 45 pd nudge-parameters;
#X connect 0 0 11 0;
#X connect 1 0 5 0;
#X connect 2 0 7 0;
#X connect 3 0 9 0;
#X connect 4 0 12 0;
#X connect 6 0 13 0;
#X connect 8 0 15 0;
#X connect 10 0 14 0;
#X connect 12 0 1 0;
#X connect 13 0 2 0;
#X connect 14 0 0 0;
#X connect 15 0 3 0;
#X restore 318 29 pd parameter-nudging-system;
#X obj 544 413 r \$0-trisaw-harmonics-s;
#X obj 544 435 / 127;
#X obj 544 457 + 1;
#X obj 544 479 pack 0 50;
#X obj 544 501 line~;
#X obj 544 523 +~;
#X obj 544 545 clip~ 0 2;
#X obj 640 672 *~;
#N canvas 632 73 749 752 external-messages 0;
#X floatatom 186 706 5 0 0 0 - - -, f 5;
#X obj 185 328 spigot;
#X obj 218 288 tgl 15 0 empty empty empty 17 7 0 10 -262144 -1 -1 0
1;
#X obj 254 272 ==;
#X obj 269 248 f \$1;
#X obj 269 224 loadbang;
#X msg 185 202 \$1 \$2;
#X msg 185 156 symbol \$1;
#X obj 185 180 pack s f;
#X obj 186 685 f;
#X obj 186 633 t b f;
#X obj 186 656 spigot;
#X obj 185 62 unpack s f f;
#X symbolatom 185 94 10 0 0 0 - - -, f 10;
#X obj 218 308 t f f;
#X obj 245 332 s \$0-msg-spigot;
#X obj 234 640 r \$0-msg-spigot;
#X floatatom 223 594 5 0 0 0 - - -, f 5;
#X obj 223 573 f;
#X obj 223 521 t b f;
#X obj 223 544 spigot;
#X obj 271 528 r \$0-msg-spigot;
#X floatatom 387 639 5 0 0 0 - - -, f 5;
#X obj 387 618 f;
#X obj 387 566 t b f;
#X obj 387 589 spigot;
#X obj 435 573 r \$0-msg-spigot;
#X floatatom 424 527 5 0 0 0 - - -, f 5;
#X obj 424 506 f;
#X obj 424 454 t b f;
#X obj 424 477 spigot;
#X obj 472 461 r \$0-msg-spigot;
#X obj 185 14 r trigons;
#X obj 185 380 route PITCH WAVE HARM. FM;
#X obj 186 726 s \$0-trisaw-pitch-r;
#X obj 223 614 s \$0-trisaw-xfade-r;
#X obj 387 659 s \$0-trisaw-harmonics-r;
#X obj 424 547 s \$0-trisaw-fm-att-r;
#X connect 0 0 34 0;
#X connect 1 0 33 0;
#X connect 2 0 14 0;
#X connect 3 0 2 0;
#X connect 4 0 3 1;
#X connect 5 0 4 0;
#X connect 6 0 1 0;
#X connect 7 0 8 0;
#X connect 8 0 6 0;
#X connect 9 0 0 0;
#X connect 10 0 11 0;
#X connect 10 1 9 1;
#X connect 11 0 9 0;
#X connect 12 0 13 0;
#X connect 12 1 8 1;
#X connect 12 2 3 0;
#X connect 13 0 7 0;
#X connect 14 0 1 1;
#X connect 14 1 15 0;
#X connect 16 0 11 1;
#X connect 17 0 35 0;
#X connect 18 0 17 0;
#X connect 19 0 20 0;
#X connect 19 1 18 1;
#X connect 20 0 18 0;
#X connect 21 0 20 1;
#X connect 22 0 36 0;
#X connect 23 0 22 0;
#X connect 24 0 25 0;
#X connect 24 1 23 1;
#X connect 25 0 23 0;
#X connect 26 0 25 1;
#X connect 27 0 37 0;
#X connect 28 0 27 0;
#X connect 29 0 30 0;
#X connect 29 1 28 1;
#X connect 30 0 28 0;
#X connect 31 0 30 1;
#X connect 32 0 12 0;
#X connect 33 0 10 0;
#X connect 33 1 19 0;
#X connect 33 2 24 0;
#X connect 33 3 29 0;
#X restore 317 6 pd external-messages;
#X connect 0 0 13 0;
#X connect 1 0 0 0;
#X connect 2 0 1 1;
#X connect 3 0 80 0;
#X connect 3 1 15 0;
#X connect 4 0 5 0;
#X connect 5 0 1 0;
#X connect 6 0 7 0;
#X connect 7 0 12 0;
#X connect 8 0 9 0;
#X connect 9 0 7 1;
#X connect 11 0 8 0;
#X connect 12 0 13 1;
#X connect 13 0 72 0;
#X connect 13 0 79 0;
#X connect 14 0 3 0;
#X connect 16 0 41 0;
#X connect 16 0 43 0;
#X connect 17 0 41 0;
#X connect 17 0 43 0;
#X connect 18 0 19 0;
#X connect 19 0 20 0;
#X connect 19 1 23 0;
#X connect 20 0 21 0;
#X connect 21 0 22 0;
#X connect 22 0 17 1;
#X connect 23 0 24 0;
#X connect 24 0 25 0;
#X connect 25 0 26 0;
#X connect 26 0 27 0;
#X connect 27 0 16 1;
#X connect 28 0 27 1;
#X connect 29 0 22 1;
#X connect 29 0 28 0;
#X connect 30 0 29 0;
#X connect 31 0 30 0;
#X connect 32 0 50 0;
#X connect 33 0 34 0;
#X connect 33 1 36 0;
#X connect 34 0 35 0;
#X connect 35 0 45 0;
#X connect 36 0 37 0;
#X connect 37 0 38 0;
#X connect 38 0 39 0;
#X connect 39 0 40 0;
#X connect 40 0 43 1;
#X connect 41 0 32 0;
#X connect 42 0 33 0;
#X connect 43 0 47 0;
#X connect 44 0 47 0;
#X connect 45 0 46 0;
#X connect 45 0 44 1;
#X connect 46 0 41 1;
#X connect 47 0 97 0;
#X connect 48 0 49 0;
#X connect 48 0 45 1;
#X connect 49 0 40 1;
#X connect 50 0 44 0;
#X connect 51 0 60 0;
#X connect 57 0 18 0;
#X connect 59 0 42 0;
#X connect 61 0 48 0;
#X connect 61 0 95 1;
#X connect 65 0 11 0;
#X connect 66 0 67 0;
#X connect 67 0 68 0;
#X connect 68 0 70 0;
#X connect 68 1 88 0;
#X connect 72 0 17 0;
#X connect 73 0 76 0;
#X connect 76 0 77 0;
#X connect 77 0 75 0;
#X connect 77 1 87 0;
#X connect 79 0 16 0;
#X connect 80 0 4 0;
#X connect 81 0 2 0;
#X connect 82 0 84 0;
#X connect 84 0 85 0;
#X connect 85 0 83 0;
#X connect 90 0 91 0;
#X connect 91 0 92 0;
#X connect 92 0 93 0;
#X connect 93 0 94 0;
#X connect 94 0 95 0;
#X connect 95 0 96 0;
#X connect 96 0 97 1;
#X connect 97 0 51 0;
#X coords 0 -1 1 1 175 100 2 100 100;
