#N canvas 0 22 1280 663 10;
#X obj 103 127 cnv 5 5 5 empty empty TRIGGER 0 0 0 12 -262144 -66577
0;
#X obj 185 127 cnv 5 5 5 empty \$0-instance-num 1 0 0 0 12 -262144
-66577 0;
#X obj 158 127 cnv 5 5 5 empty empty SEQ 0 0 0 12 -262144 -66577 0
;
#X obj 103 154 tgl 15 1 \$0-trigger-seq-s1-s \$0-trigger-seq-s1-r GATE-ON/OFF
0 25 0 10 -191407 -1 -1 1 1;
#X obj 118 154 tgl 15 1 \$0-trigger-seq-s2-s \$0-trigger-seq-s2-r empty
17 7 0 10 -262144 -1 -1 0 1;
#X obj 133 154 tgl 15 1 \$0-trigger-seq-s3-s \$0-trigger-seq-s3-r empty
17 7 0 10 -262144 -1 -1 0 1;
#X obj 148 154 tgl 15 1 \$0-trigger-seq-s4-s \$0-trigger-seq-s4-r empty
17 7 0 10 -262144 -1 -1 0 1;
#X obj 163 154 tgl 15 1 \$0-trigger-seq-s5-s \$0-trigger-seq-s5-r empty
4 25 0 10 -191407 -1 -1 0 1;
#X obj 178 154 tgl 15 1 \$0-trigger-seq-s6-s \$0-trigger-seq-s6-r empty
17 7 0 10 -262144 -1 -1 0 1;
#X obj 193 154 tgl 15 1 \$0-trigger-seq-s7-s \$0-trigger-seq-s7-r empty
17 7 0 10 -262144 -1 -1 0 1;
#X obj 208 154 tgl 15 1 \$0-trigger-seq-s8-s \$0-trigger-seq-s8-r empty
17 7 0 10 -262144 -1 -1 0 1;
#X obj 223 154 tgl 15 1 \$0-trigger-seq-s9-s \$0-trigger-seq-s9-r empty
4 25 0 10 -191407 -1 -1 0 1;
#X obj 238 154 tgl 15 1 \$0-trigger-seq-s10-s \$0-trigger-seq-s10-r
empty 17 7 0 10 -262144 -1 -1 0 1;
#X obj 253 154 tgl 15 1 \$0-trigger-seq-s11-s \$0-trigger-seq-s11-r
empty 17 7 0 10 -262144 -1 -1 0 1;
#X obj 268 154 tgl 15 1 \$0-trigger-seq-s12-s \$0-trigger-seq-s12-r
empty 17 7 0 10 -262144 -1 -1 0 1;
#X obj 283 154 tgl 15 1 \$0-trigger-seq-s13-s \$0-trigger-seq-s13-r
empty 4 25 0 10 -191407 -1 -1 1 1;
#X obj 298 154 tgl 15 1 \$0-trigger-seq-s14-s \$0-trigger-seq-s14-r
empty 17 7 0 10 -262144 -1 -1 0 1;
#X obj 313 154 tgl 15 1 \$0-trigger-seq-s15-s \$0-trigger-seq-s15-r
empty 17 7 0 10 -262144 -1 -1 0 1;
#X obj 328 154 tgl 15 1 \$0-trigger-seq-s16-s \$0-trigger-seq-s16-r
empty 17 7 0 10 -262144 -1 -1 0 1;
#X obj 103 139 hradio 15 1 0 16 \$0-trigger-seq-gui-s \$0-trigger-seq-gui-r
empty 0 -8 0 10 -262144 -226533 -1 5;
#X obj 448 93 inlet~;
#X obj 448 137 f;
#X obj 479 138 + 1;
#X obj 448 159 % 16;
#X floatatom 448 181 5 0 0 0 - - -, f 5;
#X obj 448 200 t f f;
#X obj 475 228 s \$0-trigger-seq-gui-r;
#X obj 448 251 sel 0 1 2 3 4 5 6 7 8 9 10 11 12 13 14 15;
#X obj 237 495 t b b;
#X obj 459 639 outlet~;
#X obj 459 609 vline~;
#X obj 327 461 r \$0-trigger-seq-s2-s;
#X obj 230 571 spigot;
#X obj 263 543 r \$0-trigger-seq-s1-s;
#X msg 459 588 1 0 \, 0 1 1;
#X obj 294 488 spigot;
#X obj 346 436 spigot;
#X obj 379 406 r \$0-trigger-seq-s3-s;
#X obj 419 381 spigot;
#X obj 452 351 r \$0-trigger-seq-s4-s;
#X obj 467 550 spigot;
#X obj 500 520 r \$0-trigger-seq-s5-s;
#X obj 518 485 spigot;
#X obj 551 455 r \$0-trigger-seq-s6-s;
#X obj 567 423 spigot;
#X obj 600 393 r \$0-trigger-seq-s7-s;
#X obj 597 368 spigot;
#X obj 630 338 r \$0-trigger-seq-s8-s;
#X obj 618 552 spigot;
#X obj 651 522 r \$0-trigger-seq-s9-s;
#X obj 665 497 spigot;
#X obj 698 467 r \$0-trigger-seq-s10-s;
#X obj 712 436 spigot;
#X obj 745 407 r \$0-trigger-seq-s11-s;
#X obj 746 380 spigot;
#X obj 779 351 r \$0-trigger-seq-s12-s;
#X obj 701 313 spigot;
#X obj 734 284 r \$0-trigger-seq-s13-s;
#X obj 759 571 spigot;
#X obj 792 542 r \$0-trigger-seq-s14-s;
#X obj 797 517 spigot;
#X obj 830 488 r \$0-trigger-seq-s15-s;
#X obj 860 463 spigot;
#X obj 893 434 r \$0-trigger-seq-s16-s;
#X obj 584 142 f;
#X obj 584 61 r \$0-trigger-seq-sos!;
#X obj 998 573 hradio 15 1 1 16 \$0-trigger-seq-num-of-steps-s \$0-trigger-seq-num-of-steps-r
NUMBER-OF-STEPS 0 -8 0 10 -262144 -1 -1 15;
#X obj 599 95 r \$0-trigger-seq-num-of-steps-s;
#X obj 599 117 + 1;
#X obj 103 186 bng 15 100 50 0 empty empty empty 17 7 0 10 -262144
-226533 -1;
#X obj 93 604 t b;
#X obj 282 185 hradio 15 1 1 4 \$0-trigger-seq-load-s \$0-trigger-seq-load-r
LOAD 0 -8 0 10 -262144 -1 -1 0;
#X obj 208 186 hradio 15 1 0 4 \$0-trigger-seq-store-s \$0-trigger-seq-store-r
STORE 0 -8 0 10 -262144 -1 -1 0;
#N canvas 395 91 1008 752 store/load 0;
#X obj 290 212 pack f f;
#X obj 305 133 loadbang;
#X obj 305 155 f \$1;
#X obj 290 184 f;
#X obj 292 453 textfile;
#X msg 475 436 rewind;
#X obj 165 78 loadbang;
#X obj 19 174 delay 10;
#X text 59 52 WRITE;
#X obj 19 54 inlet;
#X obj 19 208 f;
#X obj 19 247 pack f f;
#X obj 165 126 t f f;
#X obj 165 104 f \$1;
#X msg -193 97 bang;
#X obj 22 597 textfile;
#X msg 97 236 clear;
#X obj 19 118 t b f b b;
#X obj 308 21 inlet;
#X text 353 19 LOAD;
#X msg 399 415 bang;
#X obj 412 375 t b b;
#X obj 308 43 t b f;
#X obj 290 90 t b b;
#X obj -412 344 f;
#N canvas 0 22 1084 659 unpack-values 0;
#X obj 182 32 inlet;
#X obj 181 578 s \$0-trigger-seq-s1-r;
#X obj 194 557 s \$0-trigger-seq-s2-r;
#X obj 211 531 s \$0-trigger-seq-s3-r;
#X obj 224 510 s \$0-trigger-seq-s4-r;
#X obj 238 485 s \$0-trigger-seq-s5-r;
#X obj 251 464 s \$0-trigger-seq-s6-r;
#X obj 268 438 s \$0-trigger-seq-s7-r;
#X obj 281 417 s \$0-trigger-seq-s8-r;
#X obj 298 394 s \$0-trigger-seq-s9-r;
#X obj 311 373 s \$0-trigger-seq-s10-r;
#X obj 328 347 s \$0-trigger-seq-s11-r;
#X obj 341 326 s \$0-trigger-seq-s12-r;
#X obj 355 301 s \$0-trigger-seq-s13-r;
#X obj 368 280 s \$0-trigger-seq-s14-r;
#X obj 385 254 s \$0-trigger-seq-s15-r;
#X obj 398 233 s \$0-trigger-seq-s16-r;
#X obj 416 199 s \$0-trigger-seq-num-of-steps-r;
#X obj 182 59 unpack f f f f f f f f f f f f f f f f f f;
#X obj 469 118 s \$0-trigger-seq-load-r;
#X connect 0 0 18 0;
#X connect 18 0 1 0;
#X connect 18 1 2 0;
#X connect 18 2 3 0;
#X connect 18 3 4 0;
#X connect 18 4 5 0;
#X connect 18 5 6 0;
#X connect 18 6 7 0;
#X connect 18 7 8 0;
#X connect 18 8 9 0;
#X connect 18 9 10 0;
#X connect 18 10 11 0;
#X connect 18 11 12 0;
#X connect 18 12 13 0;
#X connect 18 13 14 0;
#X connect 18 14 15 0;
#X connect 18 15 16 0;
#X connect 18 16 17 0;
#X restore 292 479 pd unpack-values;
#X obj -400 14 r \$0-trigger-seq-s1-s;
#X obj -387 44 r \$0-trigger-seq-s2-s;
#X obj -371 64 r \$0-trigger-seq-s3-s;
#X obj -355 84 r \$0-trigger-seq-s4-s;
#X obj -337 103 r \$0-trigger-seq-s5-s;
#X obj -321 123 r \$0-trigger-seq-s6-s;
#X obj -305 143 r \$0-trigger-seq-s7-s;
#X obj -284 166 r \$0-trigger-seq-s8-s;
#X obj -264 195 r \$0-trigger-seq-s9-s;
#X obj -248 215 r \$0-trigger-seq-s10-s;
#X obj -232 235 r \$0-trigger-seq-s11-s;
#X obj -216 255 r \$0-trigger-seq-s12-s;
#X obj -198 274 r \$0-trigger-seq-s13-s;
#X obj -182 294 r \$0-trigger-seq-s14-s;
#X obj -166 314 r \$0-trigger-seq-s15-s;
#X obj -150 334 r \$0-trigger-seq-s16-s;
#X obj -132 357 r \$0-trigger-seq-num-of-steps-s;
#X msg 19 329 write statesave/\$1-trigger-seq-\$2-ss.txt;
#X msg 291 297 read statesave/\$1-trigger-seq-\$2-ss.txt;
#X obj -377 481 pack f f f f f f f f f f f f f f f f f f;
#X msg -378 522 set \$1 \$2 \$3 \$4 \$5 \$6 \$7 \$8 \$9 \$10 \$11 \$12
\$13 \$14 \$15 \$16 \$17 \$18;
#X obj -91 400 r \$0-trigger-seq-load-s;
#X obj 308 67 delay 100;
#X connect 0 0 44 0;
#X connect 1 0 2 0;
#X connect 2 0 3 1;
#X connect 3 0 0 0;
#X connect 4 0 25 0;
#X connect 5 0 4 0;
#X connect 6 0 13 0;
#X connect 7 0 10 0;
#X connect 9 0 17 0;
#X connect 10 0 11 0;
#X connect 11 0 43 0;
#X connect 12 0 10 1;
#X connect 13 0 12 0;
#X connect 14 0 24 0;
#X connect 16 0 15 0;
#X connect 17 0 7 0;
#X connect 17 1 11 1;
#X connect 17 2 14 0;
#X connect 17 3 16 0;
#X connect 18 0 22 0;
#X connect 20 0 4 0;
#X connect 21 0 20 0;
#X connect 21 1 5 0;
#X connect 22 0 48 0;
#X connect 22 1 0 1;
#X connect 23 0 21 0;
#X connect 23 1 3 0;
#X connect 24 0 45 0;
#X connect 26 0 24 1;
#X connect 27 0 45 1;
#X connect 28 0 45 2;
#X connect 29 0 45 3;
#X connect 30 0 45 4;
#X connect 31 0 45 5;
#X connect 32 0 45 6;
#X connect 33 0 45 7;
#X connect 34 0 45 8;
#X connect 35 0 45 9;
#X connect 36 0 45 10;
#X connect 37 0 45 11;
#X connect 38 0 45 12;
#X connect 39 0 45 13;
#X connect 40 0 45 14;
#X connect 41 0 45 15;
#X connect 42 0 45 16;
#X connect 43 0 15 0;
#X connect 44 0 4 0;
#X connect 45 0 46 0;
#X connect 46 0 15 0;
#X connect 47 0 45 17;
#X connect 48 0 23 0;
#X restore 102 77 pd store/load;
#X obj 102 25 r \$0-trigger-seq-store-s;
#X obj 177 49 r \$0-trigger-seq-load-s;
#X obj 103 111 cnv 5 5 5 empty empty CLOCK-IN 0 0 0 8 -262144 -226533
0;
#X obj 203 108 cnv 5 5 5 empty empty LOAD(1-4) 0 0 0 8 -262144 -226533
0;
#X obj 323 108 cnv 5 5 5 empty empty RESET 0 0 0 8 -262144 -226533
0;
#X obj 910 65 inlet~;
#X obj 1120 69 inlet~;
#X obj 1120 91 threshold~ 0.99 0 1 0;
#X obj 1122 113 t b b;
#X msg 1120 141 0;
#X obj 323 113 bng 15 100 50 0 empty empty empty 17 7 0 10 -262144
-226533 -1;
#X obj 911 159 t b b;
#X text 903 45 LOAD(1-4) seq. scan;
#X text 1115 38 RESET INPUT;
#X obj 216 114 bng 15 100 50 0 empty empty empty 17 7 0 10 -262144
-226533 -1;
#X obj 910 201 f;
#X obj 944 201 + 1;
#X obj 910 230 mod 4;
#X obj 910 276 s \$0-trigger-seq-load-r;
#X obj 154 405 s \$0-instance-num;
#X obj 154 357 makefilename %d;
#X msg 154 382 label \$1;
#X obj 154 313 f \$1;
#X obj 154 273 loadbang;
#X obj 840 439 t b b;
#X obj 1157 110 loadbang;
#X floatatom 957 247 5 0 0 0 - - -, f 5;
#X obj 910 100 threshold~ 1 0 1 0;
#X obj 1079 342 r \$0-trigger-seq-load-s;
#X obj 1064 374 f;
#X obj 1064 312 r SAVE-S;
#X obj 1064 396 s \$0-trigger-seq-store-r;
#N canvas 297 144 447 447 avoid-load-textfile-clicks 0;
#X obj 159 135 loadbang;
#X obj 159 157 t b b;
#X msg 159 179 127 100;
#X obj 159 226 line;
#X obj 236 174 delay 110;
#X msg 236 198 0 100;
#X obj 162 250 hsl 128 15 0 127 0 0 empty empty empty -2 -8 0 10 -262144
-1 -1 0 1;
#X obj 159 270 / 127;
#X obj 159 292 * 4;
#X obj 159 314 i;
#X obj 159 336 s \$0-trigger-seq-load-r;
#X connect 0 0 1 0;
#X connect 1 0 2 0;
#X connect 1 1 4 0;
#X connect 2 0 3 0;
#X connect 3 0 6 0;
#X connect 4 0 5 0;
#X connect 5 0 3 0;
#X connect 6 0 7 0;
#X connect 7 0 8 0;
#X connect 8 0 9 0;
#X connect 9 0 10 0;
#X restore 329 46 pd avoid-load-textfile-clicks;
#X obj 597 171 loadbang;
#X msg 597 193 0;
#X obj 448 115 threshold~ 0.9 0 0.9 0;
#X obj 1046 529 s \$0-trigger-seq-sos!;
#X connect 20 0 109 0;
#X connect 21 0 22 0;
#X connect 21 0 23 0;
#X connect 22 0 21 1;
#X connect 23 0 24 0;
#X connect 24 0 25 0;
#X connect 25 0 27 0;
#X connect 25 1 26 0;
#X connect 27 0 28 0;
#X connect 27 1 35 0;
#X connect 27 2 36 0;
#X connect 27 3 38 0;
#X connect 27 4 40 0;
#X connect 27 5 42 0;
#X connect 27 6 44 0;
#X connect 27 7 46 0;
#X connect 27 8 48 0;
#X connect 27 9 50 0;
#X connect 27 10 52 0;
#X connect 27 11 54 0;
#X connect 27 12 56 0;
#X connect 27 13 58 0;
#X connect 27 14 60 0;
#X connect 27 15 98 0;
#X connect 28 0 32 0;
#X connect 30 0 29 0;
#X connect 31 0 35 1;
#X connect 32 0 34 0;
#X connect 33 0 32 1;
#X connect 34 0 30 0;
#X connect 34 0 70 0;
#X connect 35 0 34 0;
#X connect 36 0 34 0;
#X connect 37 0 36 1;
#X connect 38 0 34 0;
#X connect 39 0 38 1;
#X connect 40 0 34 0;
#X connect 41 0 40 1;
#X connect 42 0 34 0;
#X connect 43 0 42 1;
#X connect 44 0 34 0;
#X connect 45 0 44 1;
#X connect 46 0 34 0;
#X connect 47 0 46 1;
#X connect 48 0 34 0;
#X connect 49 0 48 1;
#X connect 50 0 34 0;
#X connect 51 0 50 1;
#X connect 52 0 34 0;
#X connect 53 0 52 1;
#X connect 54 0 34 0;
#X connect 55 0 54 1;
#X connect 56 0 34 0;
#X connect 57 0 56 1;
#X connect 58 0 34 0;
#X connect 59 0 58 1;
#X connect 60 0 34 0;
#X connect 61 0 60 1;
#X connect 62 0 34 0;
#X connect 63 0 62 1;
#X connect 64 0 23 1;
#X connect 65 0 64 0;
#X connect 67 0 68 0;
#X connect 68 0 64 1;
#X connect 70 0 69 0;
#X connect 74 0 73 0;
#X connect 75 0 73 1;
#X connect 79 0 101 0;
#X connect 80 0 81 0;
#X connect 81 0 82 0;
#X connect 82 0 83 0;
#X connect 82 1 84 0;
#X connect 83 0 21 1;
#X connect 85 0 89 0;
#X connect 85 1 88 0;
#X connect 89 0 90 0;
#X connect 89 0 91 0;
#X connect 90 0 89 1;
#X connect 91 0 92 0;
#X connect 91 0 100 0;
#X connect 94 0 95 0;
#X connect 95 0 93 0;
#X connect 96 0 94 0;
#X connect 97 0 96 0;
#X connect 98 0 62 0;
#X connect 99 0 83 0;
#X connect 101 0 85 0;
#X connect 102 0 103 1;
#X connect 103 0 105 0;
#X connect 104 0 103 0;
#X connect 107 0 108 0;
#X connect 108 0 21 1;
#X connect 109 0 21 0;
#X coords 0 -1 1 1 250 110 2 100 100;
