#N canvas 0 23 807 607 10;
#X msg 388 203 bang;
#X obj 388 225 t b b;
#X msg 387 409 1 0 \, 0 1 1;
#X obj 387 438 vline~;
#X obj 415 270 t b b;
#X obj 442 313 t b b;
#X obj 415 248 delay 10;
#X obj 442 291 delay 10;
#X obj 469 344 delay 10;
#X obj 387 460 outlet~;
#X obj 388 98 inlet~;
#X obj 388 120 threshold~ 0.9 0 0.9 0;
#X obj 107 134 hsl 128 15 0 127 0 1 \$0-trigger-train-delay-s \$0-trigger-train-delay-r
DELAY 135 7 0 10 -262144 -1 -1 0 1;
#X obj 573 62 r \$0-trigger-train-delay-s;
#X obj 573 84 * 0.00787402;
#X obj 573 106 * 190;
#X obj 573 128 + 10;
#X obj 573 208 i;
#X obj 573 231 t f f f f;
#X floatatom 104 149 5 0 0 0 - - -, f 5;
#X obj 105 116 bng 15 50 50 0 empty empty empty 17 7 0 10 -262144 -226533
-1;
#X obj 388 142 t b b;
#X obj 125 124 cnv 5 5 5 empty empty TRIGGER-TRAIN 0 0 0 12 -262144
-66577 0;
#X obj 220 124 cnv 5 5 5 empty \$0-instance-num 1 0 0 0 12 -262144
-66577 0;
#X obj 105 167 bng 15 50 50 0 empty empty empty 17 7 0 10 -262144 -226533
-1;
#X obj 573 150 +;
#X obj 725 91 inlet~;
#X obj 726 113 snapshot~;
#X obj 726 135 * 190;
#X obj 726 157 + 10;
#X obj 726 201 t b f;
#X obj 650 105 loadbang;
#X obj 650 145 metro 20;
#X obj 573 172 clip 10 200;
#N canvas 21 22 593 735 state-saving-multiple-instances 0;
#X obj 215 28 loadbang;
#X obj 261 480 textfile;
#X msg 556 463 rewind;
#X msg 513 463 bang;
#X obj 119 690 textfile;
#X obj 513 424 t b b;
#X obj 120 356 f;
#X obj 133 579 f;
#X obj 66 422 t b b b;
#X msg 196 579 clear;
#X obj 281 216 outlet;
#X text 277 236 INSTANCE NUMBER;
#X obj 242 92 f \$1;
#X obj 242 128 t f f f;
#X obj 215 61 t b b;
#X obj 66 331 bng 15 250 50 0 empty empty empty 17 7 0 10 -262144 -1
-1;
#X obj 66 235 r SAVE-S;
#X msg 120 438 set \$1;
#X obj 120 399 pack f;
#X obj 261 502 unpack f;
#X obj 135 307 r \$0-trigger-train-delay-s;
#X obj 261 604 s \$0-trigger-train-delay-r;
#X msg 262 455 read statesave/\$1-trigger-train-ss.txt;
#X msg 132 648 write statesave/\$1-trigger-train-ss.txt;
#X connect 0 0 14 0;
#X connect 1 0 19 0;
#X connect 2 0 1 0;
#X connect 3 0 1 0;
#X connect 5 0 3 0;
#X connect 5 1 2 0;
#X connect 6 0 18 0;
#X connect 7 0 23 0;
#X connect 8 0 7 0;
#X connect 8 1 6 0;
#X connect 8 2 9 0;
#X connect 9 0 4 0;
#X connect 12 0 13 0;
#X connect 13 0 7 1;
#X connect 13 1 22 0;
#X connect 13 2 10 0;
#X connect 14 0 5 0;
#X connect 14 1 12 0;
#X connect 15 0 8 0;
#X connect 16 0 15 0;
#X connect 17 0 4 0;
#X connect 18 0 17 0;
#X connect 19 0 21 0;
#X connect 20 0 6 1;
#X connect 22 0 1 0;
#X connect 23 0 4 0;
#X restore 62 314 pd state-saving-multiple-instances;
#X obj 62 388 s \$0-instance-num;
#X obj 62 340 makefilename %d;
#X msg 62 365 label \$1;
#N canvas 81 22 1117 745 state-saving-via-preset-manager-module 0;
#X obj 477 349 textfile;
#X msg 755 332 rewind;
#X msg 712 332 bang;
#X obj 243 690 textfile;
#X obj 712 293 t b b;
#X obj 244 356 f;
#X obj 257 579 f;
#X obj 190 422 t b b b;
#X msg 320 579 clear;
#X obj 244 264 delay 5;
#X obj 190 484 delay 10;
#X msg 190 314 bang;
#X obj 190 147 r STORE-S!;
#X obj 477 250 f;
#X obj 450 207 t b b;
#X obj 465 171 t b f;
#X obj 522 268 f \$1;
#X obj 477 295 pack f f;
#X obj 522 218 loadbang;
#X obj 257 609 pack f f;
#X obj 302 467 loadbang;
#X obj 302 489 f \$1;
#X obj 465 148 r preset-manager-scan;
#X obj 279 148 r preset-manager-store-slot;
#X msg 244 438 set \$1;
#X obj 476 615 s \$0-trigger-train-delay-r;
#X msg 256 650 write statesave/\$1-\$2-trigger-train-ss.txt;
#X msg 477 324 read statesave/\$1-\$2-trigger-train-ss.txt;
#X obj 259 308 r \$0-trigger-train-delay-s;
#N canvas 0 22 1069 747 morph-parameters 0;
#X obj 176 94 inlet;
#X obj 176 236 pack f f;
#X obj 176 261 line;
#X obj 209 117 r preset-manager-morph-s;
#X msg 72 244 stop;
#X obj 72 214 r STOP-MORPH!;
#X obj 209 206 spigot;
#X obj 398 137 t f f;
#X obj 455 154 == 0;
#X obj 221 176 f;
#X floatatom 455 222 5 0 0 0 - - -, f 5;
#X obj 398 159 t b f;
#X floatatom 425 192 5 0 0 0 - - -, f 5;
#X obj 209 139 t f f;
#X obj 398 102 r parameters-s;
#X obj 176 288 outlet;
#X connect 0 0 1 0;
#X connect 1 0 2 0;
#X connect 2 0 15 0;
#X connect 3 0 13 0;
#X connect 4 0 2 0;
#X connect 5 0 4 0;
#X connect 6 0 1 1;
#X connect 7 0 11 0;
#X connect 7 1 8 0;
#X connect 8 0 10 0;
#X connect 9 0 6 0;
#X connect 10 0 1 1;
#X connect 11 0 9 0;
#X connect 11 1 12 0;
#X connect 12 0 6 1;
#X connect 13 0 6 0;
#X connect 13 1 9 1;
#X connect 14 0 7 0;
#X restore 475 590 pd morph-parameters;
#X connect 0 0 29 0;
#X connect 1 0 0 0;
#X connect 2 0 0 0;
#X connect 4 0 2 0;
#X connect 4 1 1 0;
#X connect 5 0 24 0;
#X connect 6 0 19 0;
#X connect 7 0 10 0;
#X connect 7 1 9 0;
#X connect 7 2 8 0;
#X connect 8 0 3 0;
#X connect 9 0 5 0;
#X connect 10 0 6 0;
#X connect 11 0 7 0;
#X connect 12 0 11 0;
#X connect 13 0 17 0;
#X connect 14 0 4 0;
#X connect 14 1 13 0;
#X connect 15 0 14 0;
#X connect 15 1 13 1;
#X connect 16 0 17 1;
#X connect 17 0 27 0;
#X connect 18 0 16 0;
#X connect 19 0 26 0;
#X connect 20 0 21 0;
#X connect 21 0 19 1;
#X connect 22 0 15 0;
#X connect 23 0 6 1;
#X connect 24 0 3 0;
#X connect 26 0 3 0;
#X connect 27 0 0 0;
#X connect 28 0 5 1;
#X connect 29 0 25 0;
#X restore 62 292 pd state-saving-via-preset-manager-module;
#N canvas 297 27 748 331 parameter-nudging-system 0;
#X obj 23 67 clip 0 127;
#X obj 23 22 r \$0-trigger-train-delay-s;
#X obj 23 95 s \$0-trigger-train-delay-r;
#N canvas 0 22 484 497 nudge-parameters 0;
#X obj 124 234 random;
#X obj 232 335 f;
#X obj 232 368 +;
#X obj 257 166 random 2;
#X obj 124 275 t f f;
#X obj 124 351 t b f;
#X obj 124 297 *;
#X obj 257 188 sel 0 1;
#X msg 257 280 -1;
#X msg 335 280 1;
#X obj 124 149 t b b b;
#X obj 124 74 r NUDGE!;
#X obj 157 193 r NUDGE-RANGE;
#X obj 247 308 inlet;
#X obj 232 397 outlet;
#X obj 124 96 spigot;
#X obj 185 79 r parameters2-s;
#X connect 0 0 4 0;
#X connect 1 0 2 0;
#X connect 2 0 14 0;
#X connect 3 0 7 0;
#X connect 4 0 6 0;
#X connect 5 0 2 0;
#X connect 5 1 2 1;
#X connect 6 0 5 0;
#X connect 7 0 8 0;
#X connect 7 1 9 0;
#X connect 8 0 6 1;
#X connect 9 0 6 1;
#X connect 10 0 0 0;
#X connect 10 1 1 0;
#X connect 10 2 3 0;
#X connect 11 0 15 0;
#X connect 12 0 0 1;
#X connect 13 0 1 1;
#X connect 15 0 10 0;
#X connect 16 0 15 1;
#X restore 23 46 pd nudge-parameters;
#X connect 0 0 2 0;
#X connect 1 0 3 0;
#X connect 3 0 0 0;
#X restore 62 267 pd parameter-nudging-system;
#X obj 650 127 tgl 15 0 empty empty empty 17 7 0 10 -262144 -1 -1 1
1;
#X obj 262 109 cnv 5 5 5 empty empty CV 0 0 0 8 -262144 -1 0;
#X obj 105 109 cnv 5 5 5 empty empty IN 0 0 0 8 -262144 -1 0;
#N canvas 632 73 749 752 external-messages 0;
#X floatatom 186 706 5 0 0 0 - - -, f 5;
#X obj 185 328 spigot;
#X obj 218 288 tgl 15 0 empty empty empty 17 7 0 10 -262144 -1 -1 0
1;
#X obj 254 272 ==;
#X obj 269 248 f \$1;
#X obj 269 224 loadbang;
#X msg 185 202 \$1 \$2;
#X msg 185 156 symbol \$1;
#X obj 185 180 pack s f;
#X obj 186 685 f;
#X obj 186 633 t b f;
#X obj 186 656 spigot;
#X obj 185 62 unpack s f f;
#X symbolatom 185 94 10 0 0 0 - - -, f 10;
#X obj 218 308 t f f;
#X obj 245 332 s \$0-msg-spigot;
#X obj 234 640 r \$0-msg-spigot;
#X obj 185 14 r trigger-train;
#X obj 185 380 route DELAY;
#X obj 186 726 s \$0-trigger-train-delay-r;
#X connect 0 0 19 0;
#X connect 1 0 18 0;
#X connect 2 0 14 0;
#X connect 3 0 2 0;
#X connect 4 0 3 1;
#X connect 5 0 4 0;
#X connect 6 0 1 0;
#X connect 7 0 8 0;
#X connect 8 0 6 0;
#X connect 9 0 0 0;
#X connect 10 0 11 0;
#X connect 10 1 9 1;
#X connect 11 0 9 0;
#X connect 12 0 13 0;
#X connect 12 1 8 1;
#X connect 12 2 3 0;
#X connect 13 0 7 0;
#X connect 14 0 1 1;
#X connect 14 1 15 0;
#X connect 16 0 11 1;
#X connect 17 0 12 0;
#X connect 18 0 10 0;
#X restore 67 241 pd external-messages;
#X connect 0 0 1 0;
#X connect 0 0 24 0;
#X connect 1 0 2 0;
#X connect 1 1 6 0;
#X connect 2 0 3 0;
#X connect 3 0 9 0;
#X connect 4 0 2 0;
#X connect 4 0 24 0;
#X connect 4 1 7 0;
#X connect 5 0 2 0;
#X connect 5 0 24 0;
#X connect 5 1 8 0;
#X connect 6 0 4 0;
#X connect 7 0 5 0;
#X connect 8 0 2 0;
#X connect 8 0 24 0;
#X connect 10 0 11 0;
#X connect 11 0 21 0;
#X connect 13 0 14 0;
#X connect 14 0 15 0;
#X connect 15 0 16 0;
#X connect 16 0 25 0;
#X connect 17 0 18 0;
#X connect 18 0 6 1;
#X connect 18 1 7 1;
#X connect 18 2 8 1;
#X connect 18 3 19 0;
#X connect 21 0 0 0;
#X connect 21 1 20 0;
#X connect 25 0 33 0;
#X connect 26 0 27 0;
#X connect 27 0 28 0;
#X connect 28 0 29 0;
#X connect 29 0 30 0;
#X connect 30 0 25 0;
#X connect 30 1 25 1;
#X connect 31 0 40 0;
#X connect 32 0 27 0;
#X connect 33 0 17 0;
#X connect 34 0 36 0;
#X connect 36 0 37 0;
#X connect 37 0 35 0;
#X connect 40 0 32 0;
#X coords 0 -1 1 1 175 85 2 100 100;
