#N canvas 80 215 824 549 10;
#X obj 321 43 inlet~;
#X obj 321 122 f;
#X obj 349 122 + 1;
#X obj 321 145 %;
#X obj 321 207 sel 0;
#X msg 321 257 1 0 \, 0 1 1;
#X obj 321 279 vline~;
#X obj 321 301 outlet~;
#X obj 132 132 hsl 128 15 0 127 0 1 \$0-vc-counter-count-s \$0-vc-counter-count-r COUNT 133 7 0 10 #fcfcfc #000000 #000000 0 1;
#X obj 129 360 i;
#X obj 129 435 t f f;
#X floatatom 230 118 5 0 0 0 - - - 0;
#X obj 129 313 * 63;
#X obj 129 335 + 1;
#X obj 106 116 bng 15 50 50 0 empty empty empty 17 7 0 10 #fcfcfc #dc4c90 #000000;
#X floatatom 129 147 5 0 0 0 - - - 0;
#X obj 321 167 t f f;
#X obj 321 229 t b b;
#X obj 105 156 bng 15 50 50 0 empty empty empty 17 7 0 10 #fcfcfc #dc4c90 #000000;
#X obj 363 184 + 1;
#X obj 127 126 cnv 5 5 5 empty empty VC-COUNTER 0 0 0 12 #fcfcfc #404040 0;
#X obj 287 109 cnv 5 5 5 empty empty CV 0 0 0 8 #fcfcfc #000000 0;
#X obj 105 109 cnv 5 5 5 empty empty IN 0 0 0 8 #fcfcfc #dc4c90 0;
#X obj 129 231 +;
#X obj 485 82 inlet~;
#X obj 485 104 snapshot~;
#X obj 485 126 t b f;
#X obj 129 383 min 64;
#X obj 129 405 max 0;
#X obj 321 87 t b b b;
#N canvas 21 22 593 735 state-saving-multiple-instances 0;
#X obj 215 28 loadbang;
#X msg 518 463 rewind;
#X msg 475 463 bang;
#X obj 119 690 reloaded/textfile \$0;
#X obj 475 424 t b b;
#X obj 120 356 f;
#X obj 133 579 f;
#X obj 66 422 t b b b;
#X msg 196 579 clear;
#X obj 281 216 outlet;
#X text 277 236 INSTANCE NUMBER;
#X obj 242 92 f \$1;
#X obj 242 128 t f f f;
#X obj 215 61 t b b;
#X obj 66 331 bng 15 250 50 0 empty \$0-save-s empty 17 7 0 10 #fcfcfc #000000 #000000;
#X obj 66 235 r SAVE-S;
#X msg 120 438 set \$1;
#X obj 120 399 pack f;
#X obj 261 502 unpack f;
#X msg 132 648 write statesave/\$1-vc-counter-ss.txt;
#X msg 262 455 read statesave/\$1-vc-counter-ss.txt;
#X obj 135 308 r \$0-vc-counter-count-s;
#X obj 261 604 s \$0-vc-counter-count-r;
#X obj 261 480 reloaded/textfile \$0 init;
#X connect 0 0 13 0;
#X connect 1 0 23 0;
#X connect 2 0 23 0;
#X connect 4 0 2 0;
#X connect 4 1 1 0;
#X connect 5 0 17 0;
#X connect 6 0 19 0;
#X connect 7 0 6 0;
#X connect 7 1 5 0;
#X connect 7 2 8 0;
#X connect 8 0 3 0;
#X connect 11 0 12 0;
#X connect 12 0 6 1;
#X connect 12 1 20 0;
#X connect 12 2 9 0;
#X connect 13 0 4 0;
#X connect 13 1 11 0;
#X connect 14 0 7 0;
#X connect 15 0 14 0;
#X connect 16 0 3 0;
#X connect 17 0 16 0;
#X connect 18 0 22 0;
#X connect 19 0 3 0;
#X connect 20 0 23 0;
#X connect 21 0 5 1;
#X connect 23 0 18 0;
#X restore 462 381 pd state-saving-multiple-instances;
#X obj 462 452 s \$0-instance-num;
#X obj 462 404 makefilename %d;
#X obj 203 126 cnv 5 5 5 empty \$0-instance-num 0 0 0 0 12 #fcfcfc #404040 0;
#X msg 462 429 label \$1;
#N canvas 81 22 1117 745 state-saving-via-preset-manager-module 0;
#X obj 477 349 reloaded/textfile \$0;
#X msg 755 332 rewind;
#X msg 712 332 bang;
#X obj 243 690 reloaded/textfile \$0;
#X obj 712 293 t b b;
#X obj 244 356 f;
#X obj 257 579 f;
#X obj 190 422 t b b b;
#X msg 320 579 clear;
#X obj 244 264 delay 5;
#X obj 190 484 delay 10;
#X msg 190 314 bang;
#X obj 190 147 r STORE-S!;
#X obj 477 250 f;
#X obj 450 207 t b b;
#X obj 465 171 t b f;
#X obj 522 268 f \$1;
#X obj 477 295 pack f f;
#X obj 522 218 loadbang;
#X obj 257 609 pack f f;
#X obj 302 467 loadbang;
#X obj 302 489 f \$1;
#X obj 465 148 r preset-manager-scan;
#X obj 279 148 r preset-manager-store-slot;
#X msg 244 438 set \$1;
#X msg 256 650 write statesave/\$1-\$2-vc-counter-ss.txt;
#X msg 477 324 read statesave/\$1-\$2-vc-counter-ss.txt;
#X obj 259 308 r \$0-vc-counter-count-s;
#X obj 476 615 s \$0-vc-counter-count-r;
#N canvas 0 22 1069 747 morph-parameters 0;
#X obj 176 94 inlet;
#X obj 176 236 pack f f;
#X obj 176 261 line;
#X obj 209 117 r preset-manager-morph-s;
#X msg 72 244 stop;
#X obj 72 214 r STOP-MORPH!;
#X obj 209 206 spigot;
#X obj 398 137 t f f;
#X obj 455 154 == 0;
#X obj 221 176 f;
#X floatatom 455 222 5 0 0 0 - - - 0;
#X obj 398 159 t b f;
#X floatatom 425 192 5 0 0 0 - - - 0;
#X obj 209 139 t f f;
#X obj 398 102 r parameters-s;
#X obj 176 288 outlet;
#X connect 0 0 1 0;
#X connect 1 0 2 0;
#X connect 2 0 15 0;
#X connect 3 0 13 0;
#X connect 4 0 2 0;
#X connect 5 0 4 0;
#X connect 6 0 1 1;
#X connect 7 0 11 0;
#X connect 7 1 8 0;
#X connect 8 0 10 0;
#X connect 9 0 6 0;
#X connect 10 0 1 1;
#X connect 11 0 9 0;
#X connect 11 1 12 0;
#X connect 12 0 6 1;
#X connect 13 0 6 0;
#X connect 13 1 9 1;
#X connect 14 0 7 0;
#X restore 475 591 pd morph-parameters;
#X connect 0 0 29 0;
#X connect 1 0 0 0;
#X connect 2 0 0 0;
#X connect 4 0 2 0;
#X connect 4 1 1 0;
#X connect 5 0 24 0;
#X connect 6 0 19 0;
#X connect 7 0 10 0;
#X connect 7 1 9 0;
#X connect 7 2 8 0;
#X connect 8 0 3 0;
#X connect 9 0 5 0;
#X connect 10 0 6 0;
#X connect 11 0 7 0;
#X connect 12 0 11 0;
#X connect 13 0 17 0;
#X connect 14 0 4 0;
#X connect 14 1 13 0;
#X connect 15 0 14 0;
#X connect 15 1 13 1;
#X connect 16 0 17 1;
#X connect 17 0 26 0;
#X connect 18 0 16 0;
#X connect 19 0 25 0;
#X connect 20 0 21 0;
#X connect 21 0 19 1;
#X connect 22 0 15 0;
#X connect 23 0 6 1;
#X connect 24 0 3 0;
#X connect 25 0 3 0;
#X connect 26 0 0 0;
#X connect 27 0 5 1;
#X connect 29 0 28 0;
#X restore 461 358 pd state-saving-via-preset-manager-module;
#X obj 549 99 env~;
#X obj 549 121 change;
#X obj 549 143 t b;
#X obj 129 209 * 0.00787402;
#N canvas 297 27 748 331 parameter-nudging-system 0;
#X obj 23 67 clip 0 127;
#X obj 23 22 r \$0-vc-counter-count-s;
#X obj 23 95 s \$0-vc-counter-count-r;
#X obj 22 45 reloaded/nudge-parameters;
#X connect 0 0 2 0;
#X connect 1 0 3 0;
#X connect 3 0 0 0;
#X restore 461 333 pd parameter-nudging-system;
#X obj 321 65 threshold~ 0.9 0 0.9 0;
#N canvas 632 73 749 752 external-messages 0;
#X floatatom 186 706 5 0 0 0 - - - 0;
#X obj 185 328 spigot;
#X obj 218 288 tgl 15 0 empty empty empty 17 7 0 10 #fcfcfc #000000 #000000 0 1;
#X obj 254 272 ==;
#X obj 269 248 f \$1;
#X obj 269 224 loadbang;
#X msg 185 202 \$1 \$2;
#X msg 185 156 symbol \$1;
#X obj 185 180 pack s f;
#X obj 186 685 f;
#X obj 186 633 t b f;
#X obj 186 656 spigot;
#X obj 185 62 unpack s f f;
#X symbolatom 185 94 10 0 0 0 - - - 0;
#X obj 218 308 t f f;
#X obj 245 332 s \$0-msg-spigot;
#X obj 234 640 r \$0-msg-spigot;
#X obj 185 14 r vc-counter;
#X obj 185 380 route COUNT;
#X obj 186 726 s \$0-vc-counter-count-r;
#X connect 0 0 19 0;
#X connect 1 0 18 0;
#X connect 2 0 14 0;
#X connect 3 0 2 0;
#X connect 4 0 3 1;
#X connect 5 0 4 0;
#X connect 6 0 1 0;
#X connect 7 0 8 0;
#X connect 8 0 6 0;
#X connect 9 0 0 0;
#X connect 10 0 11 0;
#X connect 10 1 9 1;
#X connect 11 0 9 0;
#X connect 12 0 13 0;
#X connect 12 1 8 1;
#X connect 12 2 3 0;
#X connect 13 0 7 0;
#X connect 14 0 1 1;
#X connect 14 1 15 0;
#X connect 16 0 11 1;
#X connect 17 0 12 0;
#X connect 18 0 10 0;
#X restore 465 300 pd external-messages;
#X obj 10 50 reloaded vc-counter \$0 \$1;
#X obj 50 10 savestate;
#N canvas 0 50 450 300 \$0-gui_listeners 0;
#X obj 10 0 reloaded/hsl_dispatch vc-counter \$0 \$1 0 127 vc-counter-count-s vc-counter-count-r COUNT #FFFFFF #000000 #000000;
#X restore 10 80 pd \$0-gui_listeners;
#X obj 76 184 r \$0-vc-counter-count-s;
#X obj 135 77 namecanvas \$0-this;
#X connect 0 0 41 0;
#X connect 1 0 2 0;
#X connect 1 0 3 0;
#X connect 2 0 1 1;
#X connect 3 0 16 0;
#X connect 4 0 17 0;
#X connect 5 0 6 0;
#X connect 6 0 7 0;
#X connect 9 0 27 0;
#X connect 10 0 3 1;
#X connect 10 1 11 0;
#X connect 12 0 13 0;
#X connect 13 0 9 0;
#X connect 16 0 4 0;
#X connect 16 1 19 0;
#X connect 17 0 5 0;
#X connect 17 1 18 0;
#X connect 19 0 15 0;
#X connect 23 0 12 0;
#X connect 24 0 25 0;
#X connect 24 0 36 0;
#X connect 25 0 26 0;
#X connect 26 0 23 0;
#X connect 26 1 23 1;
#X connect 27 0 28 0;
#X connect 28 0 10 0;
#X connect 29 0 1 0;
#X connect 29 1 14 0;
#X connect 29 2 25 0;
#X connect 30 0 32 0;
#X connect 32 0 34 0;
#X connect 34 0 31 0;
#X connect 36 0 37 0;
#X connect 37 0 38 0;
#X connect 38 0 25 0;
#X connect 39 0 23 0;
#X connect 41 0 29 0;
#X connect 43 0 44 0;
#X connect 44 0 43 0;
#X connect 44 1 43 1;
#X connect 46 0 39 0;
#X coords 0 -1 1 1 200 75 2 100 100;
