#N canvas 0 23 1251 740 10;
#X obj 104 251 t f f;
#X obj 104 322 line~;
#X obj 104 374 mtof~;
#X floatatom 206 117 5 0 0 0 - - -, f 5;
#X obj 104 349 +~;
#X obj 351 369 *~;
#X obj 366 315 pack 0 50;
#X obj 366 337 line~;
#X obj 108 190 hsl 128 15 0 127 0 1 \$0-wtable-fm-att-s \$0-wtable-fm-att-r
FM 133 7 0 10 -158136 -1 -1 0 1;
#X obj 108 131 hsl 128 15 0 127 0 1 \$0-wtable-pitch-s \$0-wtable-pitch-r
PITCH 133 7 0 10 -262144 -1 -1 2600 1;
#X obj 103 108 cnv 5 5 5 empty empty PITCH 0 0 0 8 -262144 -66577 0
;
#X obj 263 108 cnv 5 5 5 empty empty FM 0 0 0 8 -262144 -120682 0;
#X obj 351 391 *~ 2000;
#X obj 104 408 +~;
#X obj 104 297 pack 0 50;
#X obj 106 124 cnv 5 5 5 empty empty WTABLE 0 0 0 12 -262144 -66577
0;
#X obj 154 124 cnv 5 5 5 empty \$0-instance-num 6 0 0 0 12 -262144
-66577 0;
#X obj 104 273 clip 0 90;
#X obj 261 331 *~ 127;
#N canvas 472 28 323 246 tables 0;
#N canvas 0 22 745 659 ramps 0;
#X obj 25 18 loadbang;
#X obj 25 40 f \$0;
#X obj 25 67 t f f;
#X obj 24 223 loadbang;
#X text 75 223 TRIANGLE WAVE;
#X obj 24 245 f \$0;
#X obj 24 269 t f f;
#X text 83 21 FALLING RAMP;
#X obj 32 418 loadbang;
#X obj 32 440 f \$0;
#X obj 32 467 t f f;
#X text 92 424 ??? RAMP RAMP;
#X msg 32 561 \; \$1-wtable-ramp3 normalize 1;
#X msg 59 488 \; \$1-wtable-ramp3 sinesum 515 1 -1 0.5 -0.5 0.33 -0.33
0.25 -0.25 0.2 -0.2 1 -1 0.5 -0.5 0.33 -0.33 0.25 -0.25 0.2 -0.2;
#X obj 31 596 table \$0-wtable-ramp3;
#X obj 22 385 table \$0-wtable-ramp2;
#X msg 24 345 \; \$1-wtable-ramp2 normalize 1;
#X msg 51 296 \; \$1-wtable-ramp2 sinesum 515 1 0 -0.111111 0 0.04
0 -0.0204082 0 0.0123457 0 -0.00826446;
#X msg 25 161 \; \$1-wtable-ramp1 normalize 1;
#X msg 52 88 \; \$1-wtable-ramp1 sinesum 515 1 0.5 0.33 0.25 0.2 0.16
0.14 0.125 0.111111 0.1 0.090909 0.083333 0.076923 0.0714285 0.066666
0.0625 0.058823 0.055555 0.052631 0.05 0.047619 0.045454 0.043478 0.041666
;
#X obj 24 196 table \$0-wtable-ramp1;
#X connect 0 0 1 0;
#X connect 1 0 2 0;
#X connect 2 0 18 0;
#X connect 2 1 19 0;
#X connect 3 0 5 0;
#X connect 5 0 6 0;
#X connect 6 0 16 0;
#X connect 6 1 17 0;
#X connect 8 0 9 0;
#X connect 9 0 10 0;
#X connect 10 0 12 0;
#X connect 10 1 13 0;
#X restore 24 46 pd ramps;
#N canvas 635 114 463 602 sinusoid 0;
#X obj 28 26 loadbang;
#X obj 28 48 f \$0;
#X obj 28 72 t f f;
#X text 79 26 PURE SINE WAVE;
#X obj 22 214 loadbang;
#X obj 22 236 f \$0;
#X obj 22 260 t f f;
#X text 73 214 SINE2;
#X obj 18 406 loadbang;
#X obj 18 428 f \$0;
#X obj 18 452 t f f;
#X text 69 406 SINE3;
#X msg 28 148 \; \$1-wtable-sine normalize 1;
#X obj 26 188 table \$0-wtable-sine;
#X msg 22 336 \; \$1-wtable-sine2 normalize 1;
#X obj 20 376 table \$0-wtable-sine2;
#X msg 18 528 \; \$1-wtable-sine3 normalize 1;
#X obj 16 568 table \$0-wtable-sine3;
#X msg 55 99 \; \$1-wtable-sine sinesum 515 1;
#X msg 49 287 \; \$1-wtable-sine2 sinesum 515 1 0 1 0 1 0;
#X msg 45 479 \; \$1-wtable-sine3 sinesum 515 1 0 1 0 1 0 1 0 1 0 1
0;
#X connect 0 0 1 0;
#X connect 1 0 2 0;
#X connect 2 0 12 0;
#X connect 2 1 18 0;
#X connect 4 0 5 0;
#X connect 5 0 6 0;
#X connect 6 0 14 0;
#X connect 6 1 19 0;
#X connect 8 0 9 0;
#X connect 9 0 10 0;
#X connect 10 0 16 0;
#X connect 10 1 20 0;
#X restore 24 23 pd sinusoid;
#N canvas 0 22 794 615 squares 0;
#X obj 25 19 loadbang;
#X obj 25 72 t f f;
#X obj 25 41 f \$0;
#X obj 27 230 loadbang;
#X obj 28 284 t f f;
#X obj 27 252 f \$0;
#X obj 411 28 loadbang;
#X obj 412 82 t f f;
#X obj 411 50 f \$0;
#X msg 52 98 \; \$1-wtable-square1 sinesum 515 1 0 0.33 0 0.2 0 0.142857
0 0.111111 0 0.090909 0 0.076923 0 0.066666 0 0.058823 0 0.0526315
0 0.047619 0 0.04347 0 0.04 0;
#X msg 25 159 \; \$1-wtable-square1 normalize 1;
#X obj 23 199 table \$0-wtable-square1;
#X msg 55 310 \; \$1-wtable-square2 sinesum 515 1 0 0 0 0.2 0 0 0 0.111111
0 0 0 0.076923 0 0 0 0.058823 0 0 0 0.047619 0 0 0 0.04;
#X msg 28 371 \; \$1-wtable-square2 normalize 1;
#X obj 26 411 table \$0-wtable-square2;
#X msg 439 108 \; \$1-wtable-square3 sinesum 515 1 0 0 0 0 0 0 0 0.111111
0 0 0 0 0 0 0 0.058823 0 0 0 0 0 0 0 0.04;
#X msg 412 169 \; \$1-wtable-square3 normalize 1;
#X obj 410 209 table \$0-wtable-square3;
#X connect 0 0 2 0;
#X connect 1 0 10 0;
#X connect 1 1 9 0;
#X connect 2 0 1 0;
#X connect 3 0 5 0;
#X connect 4 0 13 0;
#X connect 4 1 12 0;
#X connect 5 0 4 0;
#X connect 6 0 8 0;
#X connect 7 0 16 0;
#X connect 7 1 15 0;
#X connect 8 0 7 0;
#X restore 25 67 pd squares;
#N canvas 0 22 687 641 z1 0;
#X obj 28 26 loadbang;
#X obj 28 48 f \$0;
#X obj 28 72 t f f;
#X text 79 26 PURE SINE WAVE;
#X obj 22 214 loadbang;
#X obj 22 236 f \$0;
#X obj 22 260 t f f;
#X text 73 214 SINE2;
#X obj 18 406 loadbang;
#X obj 18 428 f \$0;
#X obj 18 452 t f f;
#X text 69 406 SINE3;
#X msg 28 148 \; \$1-wtable-z1a normalize 1;
#X obj 26 188 table \$0-wtable-z1a;
#X msg 22 336 \; \$1-wtable-z1b normalize 1;
#X obj 20 376 table \$0-wtable-z1b;
#X msg 18 528 \; \$1-wtable-z1c normalize 1;
#X obj 16 568 table \$0-wtable-z1c;
#X msg 55 99 \; \$1-wtable-z1a sinesum 515 0.1 0.2 0.3 0.4 0.5 0.7
0.8 0.9 1 0.9 0.8 0.7 0.6 0.5 0.4 0.3 0.2 0.1;
#X msg 102 277 \; \$1-wtable-z1b sinesum 515 1 0.1 1 0.2 1 0.3 1 0.4
1 0.5 1 0.7 1 0.8 1 0.9 1 1 0.9 1 0.8 1 0.7 1 0.6 1 0.5 1 0.4 1 0.3
1 0.2 1 0.1;
#X msg 45 479 \; \$1-wtable-z1c sinesum 515 0.1 0.1 0.1 1 0.1 0.1 0.1
1 0.1 0.1 0.1 1 0.1 0.1 0.1 1;
#X connect 0 0 1 0;
#X connect 1 0 2 0;
#X connect 2 0 12 0;
#X connect 2 1 18 0;
#X connect 4 0 5 0;
#X connect 5 0 6 0;
#X connect 6 0 14 0;
#X connect 6 1 19 0;
#X connect 8 0 9 0;
#X connect 9 0 10 0;
#X connect 10 0 16 0;
#X connect 10 1 20 0;
#X restore 26 88 pd z1;
#N canvas 0 22 687 641 z2 0;
#X obj 28 26 loadbang;
#X obj 28 48 f \$0;
#X obj 28 72 t f f;
#X text 79 26 PURE SINE WAVE;
#X obj 22 214 loadbang;
#X obj 22 236 f \$0;
#X obj 22 260 t f f;
#X text 73 214 SINE2;
#X obj 18 406 loadbang;
#X obj 18 428 f \$0;
#X obj 18 452 t f f;
#X text 69 406 SINE3;
#X msg 28 148 \; \$1-wtable-z2a normalize 1;
#X obj 26 188 table \$0-wtable-z2a;
#X msg 22 336 \; \$1-wtable-z2b normalize 1;
#X obj 20 376 table \$0-wtable-z2b;
#X msg 18 528 \; \$1-wtable-z2c normalize 1;
#X obj 16 568 table \$0-wtable-z2c;
#X msg 55 99 \; \$1-wtable-z2a sinesum 515 1 0.1 0.2 0.3 0.4 0.5 0.7
0.8 0.9 1 0.9 0.8 0.7 0.6 0.5 0.4 0.3 0.2 0.1 1;
#X msg 102 277 \; \$1-wtable-z2b sinesum 515 0 0 0 0 1 0.1 1 0.2 1
0.3 1 0.4 1 0.5 1 0.7 1 0.8 1 0.9 1 1 0.9 1 0.8 1 0.7 1 0.6 1 0.5 1
0.4 1 0.3 1 0.2 1 0.1;
#X msg 45 479 \; \$1-wtable-z2c sinesum 515 0.9 0.9 0.9 1 0.1 -0.5
0.1 0 0.1 1 0.1 0 0.1 -0.5 0.1 0;
#X connect 0 0 1 0;
#X connect 1 0 2 0;
#X connect 2 0 12 0;
#X connect 2 1 18 0;
#X connect 4 0 5 0;
#X connect 5 0 6 0;
#X connect 6 0 14 0;
#X connect 6 1 19 0;
#X connect 8 0 9 0;
#X connect 9 0 10 0;
#X connect 10 0 16 0;
#X connect 10 1 20 0;
#X restore 26 113 pd z2;
#N canvas 0 22 687 641 z3 0;
#X obj 28 26 loadbang;
#X obj 28 48 f \$0;
#X obj 28 72 t f f;
#X text 79 26 PURE SINE WAVE;
#X obj 22 214 loadbang;
#X obj 22 236 f \$0;
#X obj 22 260 t f f;
#X text 73 214 SINE2;
#X obj 18 406 loadbang;
#X obj 18 428 f \$0;
#X obj 18 452 t f f;
#X text 69 406 SINE3;
#X msg 28 148 \; \$1-wtable-z3a normalize 1;
#X obj 26 188 table \$0-wtable-z3a;
#X msg 22 336 \; \$1-wtable-z3b normalize 1;
#X obj 20 376 table \$0-wtable-z3b;
#X msg 18 528 \; \$1-wtable-z3c normalize 1;
#X obj 16 568 table \$0-wtable-z3c;
#X msg 123 88 \; \$1-wtable-z3a sinesum 515 -1 0 -0.33 0 -0.2 0 -0.142857
0 -0.111111 0 0.090909 0 -0.076923 0 -0.066666 0 -0.058823 0 1;
#X msg 102 277 \; \$1-wtable-z3b sinesum 515 1 0 0 0 0.2 0 0 0 0.111111
0 0 0 0.076923 0 0 0 1 1 1 1;
#X msg 45 479 \; \$1-wtable-z3c sinesum 515 0 0 0 0 1 0 0 0 0 0.111111
0 0 0 0 0 0 0 0.058823 0 0 0.04 0 1 0 1;
#X connect 0 0 1 0;
#X connect 1 0 2 0;
#X connect 2 0 12 0;
#X connect 2 1 18 0;
#X connect 4 0 5 0;
#X connect 5 0 6 0;
#X connect 6 0 14 0;
#X connect 6 1 19 0;
#X connect 8 0 9 0;
#X connect 9 0 10 0;
#X connect 10 0 16 0;
#X connect 10 1 20 0;
#X restore 26 140 pd z3;
#X restore 331 76 pd tables;
#X obj 108 146 hsl 128 15 0 127 0 1 \$0-wtable-x-s \$0-wtable-x-r X
135 7 0 10 -262144 -1 -1 5500 1;
#X obj 108 161 hsl 128 15 0 127 0 1 \$0-wtable-y-s \$0-wtable-y-r Y
135 7 0 10 -262144 -1 -1 0 1;
#X obj 1145 352 inlet~ FM IN;
#X obj 608 123 inlet~ X;
#X obj 690 123 inlet~ Y;
#N canvas 64 24 612 639 ramps 0;
#X obj 109 152 sig~;
#X obj 109 174 +~;
#X obj 109 196 clip~ 0 1;
#X obj 94 451 *~;
#X obj 199 422 *~;
#X obj 305 530 *~;
#X obj 109 302 lop~ 10;
#X obj 215 301 lop~ 10;
#X obj 322 305 lop~ 10;
#X obj 94 548 outlet~;
#X obj 108 102 r \$0-wtable-x-s;
#X obj 109 130 * 0.00787402;
#X obj 94 75 r~ \$0-wtable-freq-s;
#X obj 298 157 r~ \$0-wtable-X-cv;
#X obj 199 367 r~ \$0-wtable-freq-s;
#X obj 305 480 r~ \$0-wtable-freq-s;
#X obj 94 344 tabosc4~ \$0-wtable-ramp1;
#X obj 199 390 tabosc4~ \$0-wtable-ramp2;
#X obj 305 505 tabosc4~ \$0-wtable-ramp3;
#X obj 109 245 expr~ if ($v1 < 0.5 \, (1-$v1*2) \, 0 ) \; if ($v1 <
0.5 \, $v1*2 \, (1-$v1+0.5)*2-1 ) \; if ($v1 > 0.5 \, ($v1*2-1) \,
0 );
#X connect 0 0 1 0;
#X connect 1 0 2 0;
#X connect 2 0 19 0;
#X connect 3 0 9 0;
#X connect 4 0 9 0;
#X connect 5 0 9 0;
#X connect 6 0 3 1;
#X connect 7 0 4 1;
#X connect 8 0 5 1;
#X connect 10 0 11 0;
#X connect 11 0 0 0;
#X connect 12 0 16 0;
#X connect 13 0 1 1;
#X connect 14 0 17 0;
#X connect 15 0 18 0;
#X connect 16 0 3 0;
#X connect 17 0 4 0;
#X connect 18 0 5 0;
#X connect 19 0 6 0;
#X connect 19 1 7 0;
#X connect 19 2 8 0;
#X restore 182 471 pd ramps;
#X obj 103 520 *~;
#X obj 182 520 *~;
#X obj 510 227 r \$0-wtable-y-s;
#X obj 238 520 *~;
#N canvas 64 24 612 639 pulses 0;
#X obj 109 152 sig~;
#X obj 109 174 +~;
#X obj 109 196 clip~ 0 1;
#X obj 94 451 *~;
#X obj 199 422 *~;
#X obj 305 530 *~;
#X obj 109 302 lop~ 10;
#X obj 215 301 lop~ 10;
#X obj 322 305 lop~ 10;
#X obj 94 548 outlet~;
#X obj 108 102 r \$0-wtable-x-s;
#X obj 109 130 * 0.00787402;
#X obj 94 75 r~ \$0-wtable-freq-s;
#X obj 298 157 r~ \$0-wtable-X-cv;
#X obj 199 367 r~ \$0-wtable-freq-s;
#X obj 305 480 r~ \$0-wtable-freq-s;
#X obj 94 344 tabosc4~ \$0-wtable-square1;
#X obj 199 390 tabosc4~ \$0-wtable-square2;
#X obj 305 504 tabosc4~ \$0-wtable-square3;
#X obj 109 245 expr~ if ($v1 < 0.5 \, (1-$v1*2) \, 0 ) \; if ($v1 <
0.5 \, $v1*2 \, (1-$v1+0.5)*2-1 ) \; if ($v1 > 0.5 \, ($v1*2-1) \,
0 );
#X connect 0 0 1 0;
#X connect 1 0 2 0;
#X connect 2 0 19 0;
#X connect 3 0 9 0;
#X connect 4 0 9 0;
#X connect 5 0 9 0;
#X connect 6 0 3 1;
#X connect 7 0 4 1;
#X connect 8 0 5 1;
#X connect 10 0 11 0;
#X connect 11 0 0 0;
#X connect 12 0 16 0;
#X connect 13 0 1 1;
#X connect 14 0 17 0;
#X connect 15 0 18 0;
#X connect 16 0 3 0;
#X connect 17 0 4 0;
#X connect 18 0 5 0;
#X connect 19 0 6 0;
#X connect 19 1 7 0;
#X connect 19 2 8 0;
#X restore 238 471 pd pulses;
#X obj 108 175 hsl 128 15 0 127 0 1 \$0-wtable-z-s \$0-wtable-z-r Z
135 7 0 10 -262144 -1 -1 1500 1;
#X obj 811 520 *~;
#X obj 890 520 *~;
#X obj 953 520 *~;
#X obj 104 434 s~ \$0-wtable-freq-s;
#X obj 103 624 *~;
#X obj 811 624 *~;
#X obj 353 452 r \$0-wtable-z-s;
#X obj 353 474 * 0.00787402;
#X obj 353 563 pack 0 50;
#X obj 353 585 line~;
#X obj 353 495 t f f;
#X obj 438 564 pack 0 50;
#X obj 438 586 line~;
#X obj 438 607 +~;
#X obj 353 607 +~;
#N canvas 64 24 612 639 z1a-c 0;
#X obj 109 152 sig~;
#X obj 109 174 +~;
#X obj 109 196 clip~ 0 1;
#X obj 94 451 *~;
#X obj 199 422 *~;
#X obj 305 530 *~;
#X obj 109 245 expr~ if ($v1 < 0.5 \, (1-$v1*2) \, 0 ) \; if ($v1 <
0.5 \, $v1*2 \, (1-$v1*$v1) ) \; if ($v1 > 0.5 \, (1-$v1*2) \, 0 )
;
#X obj 109 302 lop~ 10;
#X obj 215 301 lop~ 10;
#X obj 322 305 lop~ 10;
#X obj 94 548 outlet~;
#X obj 108 102 r \$0-wtable-x-s;
#X obj 109 130 * 0.00787402;
#X obj 94 75 r~ \$0-wtable-freq-s;
#X obj 298 157 r~ \$0-wtable-X-cv;
#X obj 199 367 r~ \$0-wtable-freq-s;
#X obj 305 480 r~ \$0-wtable-freq-s;
#X obj 94 344 tabosc4~ \$0-wtable-z1a;
#X obj 199 390 tabosc4~ \$0-wtable-z1b;
#X obj 305 504 tabosc4~ \$0-wtable-z1c;
#X connect 0 0 1 0;
#X connect 1 0 2 0;
#X connect 2 0 6 0;
#X connect 3 0 10 0;
#X connect 4 0 10 0;
#X connect 5 0 10 0;
#X connect 6 0 7 0;
#X connect 6 1 8 0;
#X connect 6 2 9 0;
#X connect 7 0 3 1;
#X connect 8 0 4 1;
#X connect 9 0 5 1;
#X connect 11 0 12 0;
#X connect 12 0 0 0;
#X connect 13 0 17 0;
#X connect 14 0 1 1;
#X connect 15 0 18 0;
#X connect 16 0 19 0;
#X connect 17 0 3 0;
#X connect 18 0 4 0;
#X connect 19 0 5 0;
#X restore 811 475 pd z1a-c;
#N canvas 64 24 612 639 z2a-c 0;
#X obj 109 152 sig~;
#X obj 109 174 +~;
#X obj 109 196 clip~ 0 1;
#X obj 94 451 *~;
#X obj 199 422 *~;
#X obj 305 530 *~;
#X obj 109 245 expr~ if ($v1 < 0.5 \, (1-$v1*2) \, 0 ) \; if ($v1 <
0.5 \, $v1*2 \, (1-$v1*$v1) ) \; if ($v1 > 0.5 \, (1-$v1*2) \, 0 )
;
#X obj 109 302 lop~ 10;
#X obj 215 301 lop~ 10;
#X obj 322 305 lop~ 10;
#X obj 94 548 outlet~;
#X obj 108 102 r \$0-wtable-x-s;
#X obj 109 130 * 0.00787402;
#X obj 94 75 r~ \$0-wtable-freq-s;
#X obj 298 157 r~ \$0-wtable-X-cv;
#X obj 199 367 r~ \$0-wtable-freq-s;
#X obj 305 480 r~ \$0-wtable-freq-s;
#X obj 94 344 tabosc4~ \$0-wtable-z2a;
#X obj 199 390 tabosc4~ \$0-wtable-z2b;
#X obj 305 504 tabosc4~ \$0-wtable-z2c;
#X connect 0 0 1 0;
#X connect 1 0 2 0;
#X connect 2 0 6 0;
#X connect 3 0 10 0;
#X connect 4 0 10 0;
#X connect 5 0 10 0;
#X connect 6 0 7 0;
#X connect 6 1 8 0;
#X connect 6 2 9 0;
#X connect 7 0 3 1;
#X connect 8 0 4 1;
#X connect 9 0 5 1;
#X connect 11 0 12 0;
#X connect 12 0 0 0;
#X connect 13 0 17 0;
#X connect 14 0 1 1;
#X connect 15 0 18 0;
#X connect 16 0 19 0;
#X connect 17 0 3 0;
#X connect 18 0 4 0;
#X connect 19 0 5 0;
#X restore 890 475 pd z2a-c;
#N canvas 64 24 612 639 z2a-c 0;
#X obj 109 152 sig~;
#X obj 109 174 +~;
#X obj 109 196 clip~ 0 1;
#X obj 94 451 *~;
#X obj 199 422 *~;
#X obj 305 530 *~;
#X obj 109 245 expr~ if ($v1 < 0.5 \, (1-$v1*2) \, 0 ) \; if ($v1 <
0.5 \, $v1*2 \, (1-$v1*$v1) ) \; if ($v1 > 0.5 \, (1-$v1*2) \, 0 )
;
#X obj 109 302 lop~ 10;
#X obj 215 301 lop~ 10;
#X obj 322 305 lop~ 10;
#X obj 94 548 outlet~;
#X obj 109 102 r \$0-wtable-x-s;
#X obj 109 130 * 0.00787402;
#X obj 94 75 r~ \$0-wtable-freq-s;
#X obj 298 157 r~ \$0-wtable-X-cv;
#X obj 199 367 r~ \$0-wtable-freq-s;
#X obj 305 480 r~ \$0-wtable-freq-s;
#X obj 94 344 tabosc4~ \$0-wtable-z3a;
#X obj 199 390 tabosc4~ \$0-wtable-z3b;
#X obj 305 504 tabosc4~ \$0-wtable-z3c;
#X connect 0 0 1 0;
#X connect 1 0 2 0;
#X connect 2 0 6 0;
#X connect 3 0 10 0;
#X connect 4 0 10 0;
#X connect 5 0 10 0;
#X connect 6 0 7 0;
#X connect 6 1 8 0;
#X connect 6 2 9 0;
#X connect 7 0 3 1;
#X connect 8 0 4 1;
#X connect 9 0 5 1;
#X connect 11 0 12 0;
#X connect 12 0 0 0;
#X connect 13 0 17 0;
#X connect 14 0 1 1;
#X connect 15 0 18 0;
#X connect 16 0 19 0;
#X connect 17 0 3 0;
#X connect 18 0 4 0;
#X connect 19 0 5 0;
#X restore 953 475 pd z2a-c;
#X obj 779 123 inlet~ Z;
#X obj 779 144 clip~ 0 1;
#X obj 773 567 abs~;
#X obj 773 589 *~ -1;
#X obj 144 108 cnv 5 5 5 empty empty X 0 0 0 8 -262144 -66577 0;
#X obj 185 108 cnv 5 5 5 empty empty Y 0 0 0 8 -262144 -66577 0;
#X obj 261 229 inlet~ PITCH CV;
#X obj 366 279 * 0.00787402;
#X obj 608 260 s~ \$0-wtable-X-cv;
#N canvas 64 24 612 639 sinusoids 0;
#X obj 109 152 sig~;
#X obj 109 174 +~;
#X obj 109 196 clip~ 0 1;
#X obj 94 451 *~;
#X obj 199 422 *~;
#X obj 305 530 *~;
#X obj 109 302 lop~ 10;
#X obj 215 301 lop~ 10;
#X obj 322 305 lop~ 10;
#X obj 94 548 outlet~;
#X obj 94 344 tabosc4~ \$0-wtable-sine;
#X obj 199 390 tabosc4~ \$0-wtable-sine2;
#X obj 305 505 tabosc4~ \$0-wtable-sine3;
#X obj 108 102 r \$0-wtable-x-s;
#X obj 109 130 * 0.00787402;
#X obj 94 75 r~ \$0-wtable-freq-s;
#X obj 298 157 r~ \$0-wtable-X-cv;
#X obj 199 367 r~ \$0-wtable-freq-s;
#X obj 305 480 r~ \$0-wtable-freq-s;
#X obj 109 245 expr~ if ($v1 < 0.5 \, (1-$v1*2) \, 0 ) \; if ($v1 <
0.5 \, $v1*2 \, (1-$v1+0.5)*2-1 ) \; if ($v1 > 0.5 \, ($v1*2-1) \,
0 );
#X connect 0 0 1 0;
#X connect 1 0 2 0;
#X connect 2 0 19 0;
#X connect 3 0 9 0;
#X connect 4 0 9 0;
#X connect 5 0 9 0;
#X connect 6 0 3 1;
#X connect 7 0 4 1;
#X connect 8 0 5 1;
#X connect 10 0 3 0;
#X connect 11 0 4 0;
#X connect 12 0 5 0;
#X connect 13 0 14 0;
#X connect 14 0 0 0;
#X connect 15 0 10 0;
#X connect 16 0 1 1;
#X connect 17 0 11 0;
#X connect 18 0 12 0;
#X connect 19 0 6 0;
#X connect 19 1 7 0;
#X connect 19 2 8 0;
#X restore 103 471 pd sinusoids;
#X text 224 434 GOES INTO TABLE SUBPATCHES BELOW:;
#X obj 503 643 *~ 1;
#X obj 503 698 outlet~;
#X msg 353 517 1 \$1;
#X obj 353 539 -;
#N canvas 315 35 593 735 state-saving-multiple-instances 0;
#X obj 137 29 loadbang;
#X obj 184 452 textfile;
#X msg 466 435 rewind;
#X msg 423 435 bang;
#X obj 42 691 textfile;
#X obj 423 396 t b b;
#X obj 43 357 f;
#X obj 56 580 f;
#X obj -16 401 t b b b;
#X msg 119 580 clear;
#X obj 204 217 outlet;
#X text 246 218 INSTANCE NUMBER;
#X obj 165 153 f \$1;
#X obj 165 189 t f f f;
#X obj 138 62 t b b;
#X obj -16 378 bng 15 250 50 0 empty empty empty 17 7 0 10 -262144
-1 -1;
#X obj -16 234 r SAVE-S;
#X obj 43 400 pack f f f f f;
#X obj 184 474 unpack f f f f f;
#X msg 43 438 set \$1 \$2 \$3 \$4 \$5;
#X msg 184 427 read statesave/\$1-wtable-ss.txt;
#X msg 55 651 write statesave/\$1-wtable-ss.txt;
#X obj 58 244 r \$0-wtable-pitch-s;
#X obj 184 627 s \$0-wtable-pitch-r;
#X obj 63 278 r \$0-wtable-x-s;
#X obj 205 603 s \$0-wtable-x-r;
#X obj 83 298 r \$0-wtable-y-s;
#X obj 230 579 s \$0-wtable-y-r;
#X obj 103 324 r \$0-wtable-z-s;
#X obj 253 555 s \$0-wtable-z-r;
#X obj 125 348 r \$0-wtable-fm-att-s;
#X obj 277 529 s \$0-wtable-fm-att-r;
#X obj 222 45 r \$0-reload!;
#X connect 0 0 14 0;
#X connect 1 0 18 0;
#X connect 2 0 1 0;
#X connect 3 0 1 0;
#X connect 5 0 3 0;
#X connect 5 1 2 0;
#X connect 6 0 17 0;
#X connect 7 0 21 0;
#X connect 8 0 7 0;
#X connect 8 1 6 0;
#X connect 8 2 9 0;
#X connect 9 0 4 0;
#X connect 12 0 13 0;
#X connect 13 0 7 1;
#X connect 13 1 20 0;
#X connect 13 2 10 0;
#X connect 14 0 5 0;
#X connect 14 1 12 0;
#X connect 15 0 8 0;
#X connect 16 0 15 0;
#X connect 17 0 19 0;
#X connect 18 0 23 0;
#X connect 18 1 25 0;
#X connect 18 2 27 0;
#X connect 18 3 29 0;
#X connect 18 4 31 0;
#X connect 19 0 4 0;
#X connect 20 0 1 0;
#X connect 21 0 4 0;
#X connect 22 0 6 1;
#X connect 24 0 17 1;
#X connect 26 0 17 2;
#X connect 28 0 17 3;
#X connect 30 0 17 4;
#X connect 32 0 14 0;
#X restore 331 120 pd state-saving-multiple-instances;
#X obj 331 190 s \$0-instance-num;
#X obj 331 142 makefilename %d;
#X msg 331 167 label \$1;
#N canvas 81 22 1117 745 state-saving-via-preset-manager-module 0;
#X obj 340 227 textfile;
#X msg 719 210 rewind;
#X msg 676 210 bang;
#X obj 106 568 textfile;
#X obj 676 171 t b b;
#X obj 107 234 f;
#X obj 120 457 f;
#X obj 53 352 t b b b;
#X msg 236 499 clear;
#X obj 107 56 delay 5;
#X obj 53 407 delay 10;
#X msg 53 192 bang;
#X obj 53 26 r STORE-S!;
#X obj 340 128 f;
#X obj 313 85 t b b;
#X obj 328 49 t b f;
#X obj 385 146 f \$1;
#X obj 340 173 pack f f;
#X obj 385 96 loadbang;
#X obj 120 487 pack f f;
#X obj 165 440 loadbang;
#X obj 165 462 f \$1;
#X obj 328 26 r preset-manager-scan;
#X obj 135 418 r preset-manager-store-slot;
#X msg 106 368 set \$1 \$2 \$3 \$4 \$5;
#X obj 107 301 pack f f f f f;
#X obj 340 249 unpack f f f f f;
#X msg 119 528 write statesave/\$1-\$2-wtable-ss.txt;
#X msg 340 202 read statesave/\$1-\$2-wtable-ss.txt;
#X obj 118 78 r \$0-wtable-pitch-s;
#X obj 127 107 r \$0-wtable-x-s;
#X obj 147 146 r \$0-wtable-y-s;
#X obj 168 173 r \$0-wtable-z-s;
#X obj 188 196 r \$0-wtable-fm-att-s;
#N canvas 0 22 1069 747 morph 0;
#X obj 176 94 inlet;
#X obj 176 236 pack f f;
#X obj 176 261 line;
#X obj 209 117 r preset-manager-morph-s;
#X msg 72 244 stop;
#X obj 72 214 r STOP-MORPH!;
#X obj 209 206 spigot;
#X obj 398 137 t f f;
#X obj 455 154 == 0;
#X obj 221 176 f;
#X floatatom 455 222 5 0 0 0 - - -, f 5;
#X obj 398 159 t b f;
#X floatatom 425 192 5 0 0 0 - - -, f 5;
#X obj 209 139 t f f;
#X obj 176 283 outlet;
#X obj 398 102 inlet;
#X connect 0 0 1 0;
#X connect 1 0 2 0;
#X connect 2 0 14 0;
#X connect 3 0 13 0;
#X connect 4 0 2 0;
#X connect 5 0 4 0;
#X connect 6 0 1 1;
#X connect 7 0 11 0;
#X connect 7 1 8 0;
#X connect 8 0 10 0;
#X connect 9 0 6 0;
#X connect 10 0 1 1;
#X connect 11 0 9 0;
#X connect 11 1 12 0;
#X connect 12 0 6 1;
#X connect 13 0 6 0;
#X connect 13 1 9 1;
#X connect 15 0 7 0;
#X restore 341 502 pd morph;
#X obj 386 479 r frequencies-s;
#X obj 341 528 s \$0-wtable-pitch-r;
#N canvas 0 22 1069 747 morph 0;
#X obj 176 94 inlet;
#X obj 176 236 pack f f;
#X obj 176 261 line;
#X obj 209 117 r preset-manager-morph-s;
#X msg 72 244 stop;
#X obj 72 214 r STOP-MORPH!;
#X obj 209 206 spigot;
#X obj 398 137 t f f;
#X obj 455 154 == 0;
#X obj 221 176 f;
#X floatatom 455 222 5 0 0 0 - - -, f 5;
#X obj 398 159 t b f;
#X floatatom 425 192 5 0 0 0 - - -, f 5;
#X obj 209 139 t f f;
#X obj 176 283 outlet;
#X obj 398 102 inlet;
#X connect 0 0 1 0;
#X connect 1 0 2 0;
#X connect 2 0 14 0;
#X connect 3 0 13 0;
#X connect 4 0 2 0;
#X connect 5 0 4 0;
#X connect 6 0 1 1;
#X connect 7 0 11 0;
#X connect 7 1 8 0;
#X connect 8 0 10 0;
#X connect 9 0 6 0;
#X connect 10 0 1 1;
#X connect 11 0 9 0;
#X connect 11 1 12 0;
#X connect 12 0 6 1;
#X connect 13 0 6 0;
#X connect 13 1 9 1;
#X connect 15 0 7 0;
#X restore 488 476 pd morph;
#X obj 533 453 r parameters-s;
#X obj 488 502 s \$0-wtable-x-r;
#N canvas 0 22 1069 747 morph 0;
#X obj 176 94 inlet;
#X obj 176 236 pack f f;
#X obj 176 261 line;
#X obj 209 117 r preset-manager-morph-s;
#X msg 72 244 stop;
#X obj 72 214 r STOP-MORPH!;
#X obj 209 206 spigot;
#X obj 398 137 t f f;
#X obj 455 154 == 0;
#X obj 221 176 f;
#X floatatom 455 222 5 0 0 0 - - -, f 5;
#X obj 398 159 t b f;
#X floatatom 425 192 5 0 0 0 - - -, f 5;
#X obj 209 139 t f f;
#X obj 176 283 outlet;
#X obj 398 102 inlet;
#X connect 0 0 1 0;
#X connect 1 0 2 0;
#X connect 2 0 14 0;
#X connect 3 0 13 0;
#X connect 4 0 2 0;
#X connect 5 0 4 0;
#X connect 6 0 1 1;
#X connect 7 0 11 0;
#X connect 7 1 8 0;
#X connect 8 0 10 0;
#X connect 9 0 6 0;
#X connect 10 0 1 1;
#X connect 11 0 9 0;
#X connect 11 1 12 0;
#X connect 12 0 6 1;
#X connect 13 0 6 0;
#X connect 13 1 9 1;
#X connect 15 0 7 0;
#X restore 613 515 pd morph;
#X obj 658 492 r parameters-s;
#X obj 613 541 s \$0-wtable-y-r;
#N canvas 0 22 1069 747 morph 0;
#X obj 176 94 inlet;
#X obj 176 236 pack f f;
#X obj 176 261 line;
#X obj 209 117 r preset-manager-morph-s;
#X msg 72 244 stop;
#X obj 72 214 r STOP-MORPH!;
#X obj 209 206 spigot;
#X obj 398 137 t f f;
#X obj 455 154 == 0;
#X obj 221 176 f;
#X floatatom 455 222 5 0 0 0 - - -, f 5;
#X obj 398 159 t b f;
#X floatatom 425 192 5 0 0 0 - - -, f 5;
#X obj 209 139 t f f;
#X obj 176 283 outlet;
#X obj 398 102 inlet;
#X connect 0 0 1 0;
#X connect 1 0 2 0;
#X connect 2 0 14 0;
#X connect 3 0 13 0;
#X connect 4 0 2 0;
#X connect 5 0 4 0;
#X connect 6 0 1 1;
#X connect 7 0 11 0;
#X connect 7 1 8 0;
#X connect 8 0 10 0;
#X connect 9 0 6 0;
#X connect 10 0 1 1;
#X connect 11 0 9 0;
#X connect 11 1 12 0;
#X connect 12 0 6 1;
#X connect 13 0 6 0;
#X connect 13 1 9 1;
#X connect 15 0 7 0;
#X restore 633 417 pd morph;
#X obj 678 394 r parameters-s;
#X obj 633 443 s \$0-wtable-z-r;
#N canvas 0 22 1069 747 morph 0;
#X obj 176 94 inlet;
#X obj 176 236 pack f f;
#X obj 176 261 line;
#X obj 209 117 r preset-manager-morph-s;
#X msg 72 244 stop;
#X obj 72 214 r STOP-MORPH!;
#X obj 209 206 spigot;
#X obj 398 137 t f f;
#X obj 455 154 == 0;
#X obj 221 176 f;
#X floatatom 455 222 5 0 0 0 - - -, f 5;
#X obj 398 159 t b f;
#X floatatom 425 192 5 0 0 0 - - -, f 5;
#X obj 209 139 t f f;
#X obj 176 283 outlet;
#X obj 398 102 inlet;
#X connect 0 0 1 0;
#X connect 1 0 2 0;
#X connect 2 0 14 0;
#X connect 3 0 13 0;
#X connect 4 0 2 0;
#X connect 5 0 4 0;
#X connect 6 0 1 1;
#X connect 7 0 11 0;
#X connect 7 1 8 0;
#X connect 8 0 10 0;
#X connect 9 0 6 0;
#X connect 10 0 1 1;
#X connect 11 0 9 0;
#X connect 11 1 12 0;
#X connect 12 0 6 1;
#X connect 13 0 6 0;
#X connect 13 1 9 1;
#X connect 15 0 7 0;
#X restore 776 355 pd morph;
#X obj 776 381 s \$0-wtable-fm-att-r;
#X obj 821 332 r attenuators-s;
#X connect 0 0 26 0;
#X connect 1 0 0 0;
#X connect 2 0 0 0;
#X connect 4 0 2 0;
#X connect 4 1 1 0;
#X connect 5 0 25 0;
#X connect 6 0 19 0;
#X connect 7 0 10 0;
#X connect 7 1 9 0;
#X connect 7 2 8 0;
#X connect 8 0 3 0;
#X connect 9 0 5 0;
#X connect 10 0 6 0;
#X connect 11 0 7 0;
#X connect 12 0 11 0;
#X connect 13 0 17 0;
#X connect 14 0 4 0;
#X connect 14 1 13 0;
#X connect 15 0 14 0;
#X connect 15 1 13 1;
#X connect 16 0 17 1;
#X connect 17 0 28 0;
#X connect 18 0 16 0;
#X connect 19 0 27 0;
#X connect 20 0 21 0;
#X connect 21 0 19 1;
#X connect 22 0 15 0;
#X connect 23 0 6 1;
#X connect 24 0 3 0;
#X connect 25 0 24 0;
#X connect 26 0 34 0;
#X connect 26 1 37 0;
#X connect 26 2 40 0;
#X connect 26 3 43 0;
#X connect 26 4 46 0;
#X connect 27 0 3 0;
#X connect 28 0 0 0;
#X connect 29 0 5 1;
#X connect 30 0 25 1;
#X connect 31 0 25 2;
#X connect 32 0 25 3;
#X connect 33 0 25 4;
#X connect 34 0 36 0;
#X connect 35 0 34 1;
#X connect 37 0 39 0;
#X connect 38 0 37 1;
#X connect 40 0 42 0;
#X connect 41 0 40 1;
#X connect 43 0 45 0;
#X connect 44 0 43 1;
#X connect 46 0 47 0;
#X connect 48 0 46 1;
#X restore 331 98 pd state-saving-via-preset-manager-module;
#X obj 104 229 r \$0-wtable-pitch-s;
#X obj 366 251 r \$0-wtable-fm-att-s;
#X obj 228 108 cnv 5 5 5 empty empty Z 0 0 0 8 -262144 -66577 0;
#X obj 510 296 sig~;
#X obj 510 333 +~;
#X obj 510 377 clip~ 0 1;
#X obj 510 503 lop~ 10;
#X obj 628 503 lop~ 10;
#X obj 747 503 lop~ 10;
#X obj 510 261 * 0.00787402;
#X obj 510 404 expr~ if ($v1 < 0.5 \, (1-$v1*2) \, 0 ) \; if ($v1 <
0.5 \, $v1*2 \, (1-$v1+0.5)*2-1 ) \; if ($v1 > 0.5 \, ($v1*2-1) \,
0 );
#X obj 510 452 clip~ 0 1;
#X obj 628 459 clip~ 0 1;
#X obj 747 458 clip~ 0 1;
#N canvas 297 27 518 295 parameter-nudging-system 0;
#N canvas 0 22 484 497 param-nudge 0;
#X obj 124 234 random;
#X obj 232 335 f;
#X obj 232 368 +;
#X obj 257 166 random 2;
#X obj 124 275 t f f;
#X obj 124 351 t b f;
#X obj 124 297 *;
#X obj 257 188 sel 0 1;
#X msg 257 280 -1;
#X msg 335 280 1;
#X obj 124 149 t b b b;
#X obj 123 63 r NUDGE!;
#X obj 157 193 r NUDGE-RANGE;
#X obj 247 308 inlet;
#X obj 232 397 outlet;
#X floatatom 316 396 5 0 0 0 - - -, f 5;
#X obj 123 107 spigot;
#X obj 172 90 r frequencies2-s;
#X connect 0 0 4 0;
#X connect 1 0 2 0;
#X connect 2 0 14 0;
#X connect 2 0 15 0;
#X connect 3 0 7 0;
#X connect 4 0 6 0;
#X connect 5 0 2 0;
#X connect 5 1 2 1;
#X connect 6 0 5 0;
#X connect 7 0 8 0;
#X connect 7 1 9 0;
#X connect 8 0 6 1;
#X connect 9 0 6 1;
#X connect 10 0 0 0;
#X connect 10 1 1 0;
#X connect 10 2 3 0;
#X connect 11 0 16 0;
#X connect 12 0 0 1;
#X connect 13 0 1 1;
#X connect 16 0 10 0;
#X connect 17 0 16 1;
#X restore 23 45 pd param-nudge;
#N canvas 0 22 484 497 param-nudge 0;
#X obj 124 234 random;
#X obj 232 335 f;
#X obj 232 368 +;
#X obj 257 166 random 2;
#X obj 124 275 t f f;
#X obj 124 351 t b f;
#X obj 124 297 *;
#X obj 257 188 sel 0 1;
#X msg 257 280 -1;
#X msg 335 280 1;
#X obj 124 149 t b b b;
#X obj 124 67 r NUDGE!;
#X obj 157 193 r NUDGE-RANGE;
#X obj 247 308 inlet;
#X obj 232 397 outlet;
#X obj 124 115 spigot;
#X obj 157 89 r parameters2-s;
#X connect 0 0 4 0;
#X connect 1 0 2 0;
#X connect 2 0 14 0;
#X connect 3 0 7 0;
#X connect 4 0 6 0;
#X connect 5 0 2 0;
#X connect 5 1 2 1;
#X connect 6 0 5 0;
#X connect 7 0 8 0;
#X connect 7 1 9 0;
#X connect 8 0 6 1;
#X connect 9 0 6 1;
#X connect 10 0 0 0;
#X connect 10 1 1 0;
#X connect 10 2 3 0;
#X connect 11 0 15 0;
#X connect 12 0 0 1;
#X connect 13 0 1 1;
#X connect 15 0 10 0;
#X connect 16 0 15 1;
#X restore 171 45 pd param-nudge;
#N canvas 0 22 484 497 param-nudge 0;
#X obj 124 234 random;
#X obj 232 335 f;
#X obj 232 368 +;
#X obj 257 166 random 2;
#X obj 124 275 t f f;
#X obj 124 351 t b f;
#X obj 124 297 *;
#X obj 257 188 sel 0 1;
#X msg 257 280 -1;
#X msg 335 280 1;
#X obj 124 149 t b b b;
#X obj 124 64 r NUDGE!;
#X obj 157 193 r NUDGE-RANGE;
#X obj 247 308 inlet;
#X obj 232 397 outlet;
#X obj 124 123 spigot;
#X obj 157 96 r parameters2-s;
#X connect 0 0 4 0;
#X connect 1 0 2 0;
#X connect 2 0 14 0;
#X connect 3 0 7 0;
#X connect 4 0 6 0;
#X connect 5 0 2 0;
#X connect 5 1 2 1;
#X connect 6 0 5 0;
#X connect 7 0 8 0;
#X connect 7 1 9 0;
#X connect 8 0 6 1;
#X connect 9 0 6 1;
#X connect 10 0 0 0;
#X connect 10 1 1 0;
#X connect 10 2 3 0;
#X connect 11 0 15 0;
#X connect 12 0 0 1;
#X connect 13 0 1 1;
#X connect 15 0 10 0;
#X connect 16 0 15 1;
#X restore 281 45 pd param-nudge;
#N canvas 0 22 484 497 param-nudge 0;
#X obj 124 234 random;
#X obj 232 335 f;
#X obj 232 368 +;
#X obj 257 166 random 2;
#X obj 124 275 t f f;
#X obj 124 351 t b f;
#X obj 124 297 *;
#X obj 257 188 sel 0 1;
#X msg 257 280 -1;
#X msg 335 280 1;
#X obj 124 149 t b b b;
#X obj 124 57 r NUDGE!;
#X obj 157 193 r NUDGE-RANGE;
#X obj 247 308 inlet;
#X obj 232 397 outlet;
#X obj 124 105 spigot;
#X obj 157 82 r parameters2-s;
#X connect 0 0 4 0;
#X connect 1 0 2 0;
#X connect 2 0 14 0;
#X connect 3 0 7 0;
#X connect 4 0 6 0;
#X connect 5 0 2 0;
#X connect 5 1 2 1;
#X connect 6 0 5 0;
#X connect 7 0 8 0;
#X connect 7 1 9 0;
#X connect 8 0 6 1;
#X connect 9 0 6 1;
#X connect 10 0 0 0;
#X connect 10 1 1 0;
#X connect 10 2 3 0;
#X connect 11 0 15 0;
#X connect 12 0 0 1;
#X connect 13 0 1 1;
#X connect 15 0 10 0;
#X connect 16 0 15 1;
#X restore 21 149 pd param-nudge;
#N canvas 0 22 484 497 param-nudge 0;
#X obj 124 234 random;
#X obj 232 335 f;
#X obj 232 368 +;
#X obj 257 166 random 2;
#X obj 124 275 t f f;
#X obj 124 351 t b f;
#X obj 124 297 *;
#X obj 257 188 sel 0 1;
#X msg 257 280 -1;
#X msg 335 280 1;
#X obj 124 149 t b b b;
#X obj 124 75 r NUDGE!;
#X obj 157 193 r NUDGE-RANGE;
#X obj 247 308 inlet;
#X obj 232 397 outlet;
#X obj 124 97 spigot;
#X obj 191 80 r attenuators2-s;
#X connect 0 0 4 0;
#X connect 1 0 2 0;
#X connect 2 0 14 0;
#X connect 3 0 7 0;
#X connect 4 0 6 0;
#X connect 5 0 2 0;
#X connect 5 1 2 1;
#X connect 6 0 5 0;
#X connect 7 0 8 0;
#X connect 7 1 9 0;
#X connect 8 0 6 1;
#X connect 9 0 6 1;
#X connect 10 0 0 0;
#X connect 10 1 1 0;
#X connect 10 2 3 0;
#X connect 11 0 15 0;
#X connect 12 0 0 1;
#X connect 13 0 1 1;
#X connect 15 0 10 0;
#X connect 16 0 15 1;
#X restore 170 149 pd param-nudge;
#X obj 23 22 r \$0-wtable-pitch-s;
#X obj 23 95 s \$0-wtable-pitch-r;
#X obj 171 22 r \$0-wtable-x-s;
#X obj 171 95 s \$0-wtable-x-r;
#X obj 281 22 r \$0-wtable-y-s;
#X obj 281 95 s \$0-wtable-y-r;
#X obj 21 126 r \$0-wtable-z-s;
#X obj 21 198 s \$0-wtable-z-r;
#X obj 170 126 r \$0-wtable-fm-att-s;
#X obj 170 197 s \$0-wtable-fm-att-r;
#X obj 21 171 clip 0 127;
#X obj 170 171 clip 0 127;
#X obj 23 67 clip 0 127;
#X obj 171 67 clip 0 127;
#X obj 281 69 clip 0 127;
#X connect 0 0 17 0;
#X connect 1 0 18 0;
#X connect 2 0 19 0;
#X connect 3 0 15 0;
#X connect 4 0 16 0;
#X connect 5 0 0 0;
#X connect 7 0 1 0;
#X connect 9 0 2 0;
#X connect 11 0 3 0;
#X connect 13 0 4 0;
#X connect 15 0 12 0;
#X connect 16 0 14 0;
#X connect 17 0 6 0;
#X connect 18 0 8 0;
#X connect 19 0 10 0;
#X restore 332 55 pd parameter-nudging-system;
#N canvas 632 73 749 752 external-messages 0;
#X floatatom 186 706 5 0 0 0 - - -, f 5;
#X obj 185 328 spigot;
#X obj 218 288 tgl 15 0 empty empty empty 17 7 0 10 -262144 -1 -1 0
1;
#X obj 254 272 ==;
#X obj 269 248 f \$1;
#X obj 269 224 loadbang;
#X msg 185 202 \$1 \$2;
#X msg 185 156 symbol \$1;
#X obj 185 180 pack s f;
#X obj 186 685 f;
#X obj 186 633 t b f;
#X obj 186 656 spigot;
#X obj 185 62 unpack s f f;
#X symbolatom 185 94 10 0 0 0 - - -, f 10;
#X obj 218 308 t f f;
#X obj 245 332 s \$0-msg-spigot;
#X obj 234 640 r \$0-msg-spigot;
#X floatatom 223 594 5 0 0 0 - - -, f 5;
#X obj 223 573 f;
#X obj 223 521 t b f;
#X obj 223 544 spigot;
#X obj 271 528 r \$0-msg-spigot;
#X floatatom 387 639 5 0 0 0 - - -, f 5;
#X obj 387 618 f;
#X obj 387 566 t b f;
#X obj 387 589 spigot;
#X obj 435 573 r \$0-msg-spigot;
#X floatatom 424 527 5 0 0 0 - - -, f 5;
#X obj 424 506 f;
#X obj 424 454 t b f;
#X obj 424 477 spigot;
#X obj 472 461 r \$0-msg-spigot;
#X obj 185 380 route PITCH X Y Z FM;
#X floatatom 608 537 5 0 0 0 - - -, f 5;
#X obj 608 516 f;
#X obj 608 464 t b f;
#X obj 608 487 spigot;
#X obj 656 471 r \$0-msg-spigot;
#X obj 186 726 s \$0-wtable-pitch-r;
#X obj 223 614 s \$0-wtable-x-r;
#X obj 387 659 s \$0-wtable-y-r;
#X obj 424 547 s \$0-wtable-z-r;
#X obj 608 557 s \$0-wtable-fm-att-r;
#X obj 185 14 r wtable;
#X connect 0 0 38 0;
#X connect 1 0 32 0;
#X connect 2 0 14 0;
#X connect 3 0 2 0;
#X connect 4 0 3 1;
#X connect 5 0 4 0;
#X connect 6 0 1 0;
#X connect 7 0 8 0;
#X connect 8 0 6 0;
#X connect 9 0 0 0;
#X connect 10 0 11 0;
#X connect 10 1 9 1;
#X connect 11 0 9 0;
#X connect 12 0 13 0;
#X connect 12 1 8 1;
#X connect 12 2 3 0;
#X connect 13 0 7 0;
#X connect 14 0 1 1;
#X connect 14 1 15 0;
#X connect 16 0 11 1;
#X connect 17 0 39 0;
#X connect 18 0 17 0;
#X connect 19 0 20 0;
#X connect 19 1 18 1;
#X connect 20 0 18 0;
#X connect 21 0 20 1;
#X connect 22 0 40 0;
#X connect 23 0 22 0;
#X connect 24 0 25 0;
#X connect 24 1 23 1;
#X connect 25 0 23 0;
#X connect 26 0 25 1;
#X connect 27 0 41 0;
#X connect 28 0 27 0;
#X connect 29 0 30 0;
#X connect 29 1 28 1;
#X connect 30 0 28 0;
#X connect 31 0 30 1;
#X connect 32 0 10 0;
#X connect 32 1 19 0;
#X connect 32 2 24 0;
#X connect 32 3 29 0;
#X connect 32 4 35 0;
#X connect 33 0 42 0;
#X connect 34 0 33 0;
#X connect 35 0 36 0;
#X connect 35 1 34 1;
#X connect 36 0 34 0;
#X connect 37 0 36 1;
#X connect 43 0 12 0;
#X restore 332 33 pd external-messages;
#X connect 0 0 17 0;
#X connect 0 1 3 0;
#X connect 1 0 4 0;
#X connect 2 0 13 0;
#X connect 4 0 2 0;
#X connect 5 0 12 0;
#X connect 6 0 7 0;
#X connect 7 0 5 1;
#X connect 12 0 13 1;
#X connect 13 0 35 0;
#X connect 14 0 1 0;
#X connect 17 0 14 0;
#X connect 18 0 4 1;
#X connect 22 0 5 0;
#X connect 23 0 58 0;
#X connect 24 0 74 1;
#X connect 25 0 27 0;
#X connect 26 0 36 0;
#X connect 27 0 36 0;
#X connect 28 0 79 0;
#X connect 29 0 36 0;
#X connect 30 0 29 0;
#X connect 32 0 37 0;
#X connect 33 0 37 0;
#X connect 34 0 37 0;
#X connect 36 0 61 0;
#X connect 37 0 61 0;
#X connect 38 0 39 0;
#X connect 39 0 42 0;
#X connect 40 0 41 0;
#X connect 41 0 46 0;
#X connect 42 0 63 0;
#X connect 42 1 43 0;
#X connect 43 0 44 0;
#X connect 44 0 45 0;
#X connect 45 0 37 1;
#X connect 46 0 36 1;
#X connect 47 0 32 0;
#X connect 48 0 33 0;
#X connect 49 0 34 0;
#X connect 50 0 51 0;
#X connect 51 0 52 0;
#X connect 51 0 45 1;
#X connect 52 0 53 0;
#X connect 53 0 46 1;
#X connect 56 0 18 0;
#X connect 57 0 6 0;
#X connect 59 0 26 0;
#X connect 61 0 62 0;
#X connect 63 0 64 0;
#X connect 64 0 40 0;
#X connect 65 0 67 0;
#X connect 67 0 68 0;
#X connect 68 0 66 0;
#X connect 70 0 0 0;
#X connect 71 0 57 0;
#X connect 73 0 74 0;
#X connect 74 0 75 0;
#X connect 75 0 80 0;
#X connect 76 0 32 1;
#X connect 76 0 26 1;
#X connect 77 0 27 1;
#X connect 77 0 33 1;
#X connect 78 0 29 1;
#X connect 78 0 34 1;
#X connect 79 0 73 0;
#X connect 80 0 81 0;
#X connect 80 1 82 0;
#X connect 80 2 83 0;
#X connect 81 0 76 0;
#X connect 82 0 77 0;
#X connect 83 0 78 0;
#X coords 0 -1 1 1 175 112 2 100 100;
