#N canvas 45 196 1040 498 10;
#X obj 448 341 *~;
#X obj 616 338 *~;
#X obj 411 341 *~;
#X obj 577 338 *~;
#X floatatom 862 262 5 0 1 0 drywet - -;
#X obj 595 366 +~;
#X obj 425 369 +~;
#X obj 514 279 - 1;
#X obj 514 300 * -1;
#X obj 425 399 outlet~;
#X obj 595 399 outlet~;
#X obj 862 236 * 0.01;
#X obj 862 213 * 0.787402;
#X obj 109 131 hsl 128 15 0 127 0 1 \$0-freeverb-size-s \$0-freeverb-size-r
SIZE 135 7 0 10 -262144 -1 -1 7000 1;
#X obj 109 146 hsl 128 15 0 127 0 1 \$0-freeverb-damp-s \$0-freeverb-damp-r
DAMP 135 7 0 10 -163394 -1 -1 6600 1;
#X obj 106 124 cnv 5 5 5 empty empty FREEVERB 0 0 0 12 -262144 -66577
0;
#X obj 175 124 cnv 5 5 5 empty \$0-instance-num 2 0 0 0 12 -262144
-66577 0;
#X obj 177 109 cnv 5 5 5 empty empty IN-R 0 0 0 8 -262144 -66577 0
;
#X obj 105 109 cnv 5 5 5 empty empty IN-L 0 0 0 8 -262144 -66577 0
;
#X obj 106 185 cnv 5 5 5 empty empty LEFT 0 0 0 8 -262144 -1 0;
#X obj 243 185 cnv 5 5 5 empty empty RIGHT 0 0 0 8 -262144 -1 0;
#X obj 432 40 inlet~;
#X obj 482 39 inlet~;
#X obj 535 40 r \$0-freeverb-size-s;
#X obj 535 64 / 127;
#X obj 675 61 / 127;
#X obj 675 85 * 2.4;
#X obj 675 37 r \$0-freeverb-damp-s;
#N canvas 724 22 593 735 state-saving-multiple-instances 0;
#X obj 205 28 loadbang;
#X obj 251 481 textfile;
#X obj 205 61 t b b;
#X msg 508 464 rewind;
#X msg 465 464 bang;
#X obj 113 685 textfile;
#X obj 465 425 t b b;
#X obj 110 357 f;
#X obj 123 580 f;
#X obj 48 403 t b b b;
#X msg 186 580 clear;
#X obj 271 217 outlet;
#X text 267 237 INSTANCE NUMBER;
#X obj 232 152 f \$1;
#X obj 232 188 t f f f;
#X obj 48 378 bng 15 250 50 0 empty empty empty 17 7 0 10 -262144 -1
-1;
#X obj 48 274 r SAVE-S;
#X obj 292 24 r \$0-reload!;
#X obj 161 306 r \$0-freeverb-size-s;
#X obj 161 328 r \$0-freeverb-damp-s;
#X obj 344 550 s \$0-freeverb-damp-r;
#X obj 339 584 s \$0-freeverb-size-r;
#X msg 127 666 write statesave/\$1-freeverb-ss.txt;
#X msg 251 456 read statesave/\$1-freeverb-ss.txt;
#X obj 355 523 s \$0-freeverb-mix-r;
#X obj 167 350 r \$0-freeverb-mix-s;
#X obj 110 400 pack f f f;
#X msg 110 438 set \$1 \$2 \$3;
#X obj 251 503 unpack f f f;
#X connect 0 0 2 0;
#X connect 1 0 28 0;
#X connect 2 0 6 0;
#X connect 2 1 13 0;
#X connect 3 0 1 0;
#X connect 4 0 1 0;
#X connect 6 0 4 0;
#X connect 6 1 3 0;
#X connect 7 0 26 0;
#X connect 8 0 22 0;
#X connect 9 0 8 0;
#X connect 9 1 7 0;
#X connect 9 2 10 0;
#X connect 10 0 5 0;
#X connect 13 0 14 0;
#X connect 14 0 8 1;
#X connect 14 1 23 0;
#X connect 14 2 11 0;
#X connect 15 0 9 0;
#X connect 16 0 15 0;
#X connect 17 0 2 0;
#X connect 18 0 7 1;
#X connect 19 0 26 1;
#X connect 22 0 5 0;
#X connect 23 0 1 0;
#X connect 25 0 26 2;
#X connect 26 0 27 0;
#X connect 27 0 5 0;
#X connect 28 0 21 0;
#X connect 28 1 20 0;
#X connect 28 2 24 0;
#X restore 101 252 pd state-saving-multiple-instances;
#X obj 101 326 s \$0-instance-num;
#X obj 101 278 makefilename %d;
#X msg 101 303 label \$1;
#N canvas 896 150 749 752 external-messages 0;
#X floatatom 71 626 5 0 0 0 - - -;
#X obj 185 328 spigot;
#X obj 218 288 tgl 15 0 empty empty empty 17 7 0 10 -262144 -1 -1 0
1;
#X obj 254 272 ==;
#X obj 269 248 f \$1;
#X obj 269 224 loadbang;
#X msg 185 202 \$1 \$2;
#X msg 185 156 symbol \$1;
#X obj 185 180 pack s f;
#X obj 71 605 f;
#X obj 71 553 t b f;
#X obj 71 576 spigot;
#X obj 185 62 unpack s f f;
#X symbolatom 185 94 10 0 0 0 - - -;
#X obj 218 308 t f f;
#X obj 245 332 s \$0-msg-spigot;
#X obj 120 538 r \$0-msg-spigot;
#X floatatom 223 594 5 0 0 0 - - -;
#X obj 223 573 f;
#X obj 223 521 t b f;
#X obj 223 544 spigot;
#X obj 271 528 r \$0-msg-spigot;
#X obj 185 14 r freeverb;
#X obj 68 657 s \$0-freeverb-size-r;
#X obj 222 631 s \$0-freeverb-damp-r;
#X obj 185 380 route SIZE DAMP MIX;
#X floatatom 400 595 5 0 0 0 - - -;
#X obj 400 574 f;
#X obj 400 522 t b f;
#X obj 400 545 spigot;
#X obj 448 529 r \$0-msg-spigot;
#X obj 399 632 s \$0-freeverb-mix-r;
#X connect 0 0 23 0;
#X connect 1 0 25 0;
#X connect 2 0 14 0;
#X connect 3 0 2 0;
#X connect 4 0 3 1;
#X connect 5 0 4 0;
#X connect 6 0 1 0;
#X connect 7 0 8 0;
#X connect 8 0 6 0;
#X connect 9 0 0 0;
#X connect 10 0 11 0;
#X connect 10 1 9 1;
#X connect 11 0 9 0;
#X connect 12 0 13 0;
#X connect 12 1 8 1;
#X connect 12 2 3 0;
#X connect 13 0 7 0;
#X connect 14 0 1 1;
#X connect 14 1 15 0;
#X connect 16 0 11 1;
#X connect 17 0 24 0;
#X connect 18 0 17 0;
#X connect 19 0 20 0;
#X connect 19 1 18 1;
#X connect 20 0 18 0;
#X connect 21 0 20 1;
#X connect 22 0 12 0;
#X connect 25 0 10 0;
#X connect 25 1 19 0;
#X connect 25 2 28 0;
#X connect 26 0 31 0;
#X connect 27 0 26 0;
#X connect 28 0 29 0;
#X connect 28 1 27 1;
#X connect 29 0 27 0;
#X connect 30 0 29 1;
#X restore 101 205 pd external-messages;
#N canvas 81 22 726 724 state-saving-via-preset-manager-module 0;
#X obj 349 281 textfile;
#X msg 627 264 rewind;
#X msg 584 264 bang;
#X obj 115 622 textfile;
#X obj 584 225 t b b;
#X obj 116 288 f;
#X obj 129 511 f;
#X obj 62 406 t b b b;
#X msg 245 553 clear;
#X obj 116 112 delay 5;
#X obj 62 461 delay 10;
#X msg 62 246 bang;
#X obj 62 87 r STORE-S!;
#X obj 349 182 f;
#X obj 322 139 t b b;
#X obj 337 103 t b f;
#X obj 394 200 f \$1;
#X obj 349 227 pack f f;
#X obj 394 150 loadbang;
#X obj 129 541 pack f f;
#X obj 174 494 loadbang;
#X obj 174 516 f \$1;
#X obj 337 39 r preset-manager-scan;
#X obj 144 472 r preset-manager-store-slot;
#X obj 337 61 i;
#N canvas 0 22 1069 747 morph-frequencies 0;
#X obj 176 94 inlet;
#X obj 176 236 pack f f;
#X obj 176 261 line;
#X obj 209 117 r preset-manager-morph-s;
#X msg 72 244 stop;
#X obj 72 214 r STOP-MORPH!;
#X obj 398 102 r frequencies-s;
#X obj 209 206 spigot;
#X obj 398 137 t f f;
#X obj 455 154 == 0;
#X obj 221 176 f;
#X floatatom 455 222 5 0 0 0 - - -;
#X obj 398 159 t b f;
#X floatatom 425 192 5 0 0 0 - - -;
#X obj 209 139 t f f;
#X obj 176 283 outlet;
#X connect 0 0 1 0;
#X connect 1 0 2 0;
#X connect 2 0 15 0;
#X connect 3 0 14 0;
#X connect 4 0 2 0;
#X connect 5 0 4 0;
#X connect 6 0 8 0;
#X connect 7 0 1 1;
#X connect 8 0 12 0;
#X connect 8 1 9 0;
#X connect 9 0 11 0;
#X connect 10 0 7 0;
#X connect 11 0 1 1;
#X connect 12 0 10 0;
#X connect 12 1 13 0;
#X connect 13 0 7 1;
#X connect 14 0 7 0;
#X connect 14 1 10 1;
#X restore 350 405 pd morph-frequencies;
#N canvas 0 22 1069 747 morph-parameters 0;
#X obj 176 94 inlet;
#X obj 176 236 pack f f;
#X obj 176 261 line;
#X obj 209 117 r preset-manager-morph-s;
#X msg 72 244 stop;
#X obj 72 214 r STOP-MORPH!;
#X obj 209 206 spigot;
#X obj 398 137 t f f;
#X obj 455 154 == 0;
#X obj 221 176 f;
#X floatatom 455 222 5 0 0 0 - - -;
#X obj 398 159 t b f;
#X floatatom 425 192 5 0 0 0 - - -;
#X obj 209 139 t f f;
#X obj 398 102 r parameters-s;
#X obj 176 288 outlet;
#X connect 0 0 1 0;
#X connect 1 0 2 0;
#X connect 2 0 15 0;
#X connect 3 0 13 0;
#X connect 4 0 2 0;
#X connect 5 0 4 0;
#X connect 6 0 1 1;
#X connect 7 0 11 0;
#X connect 7 1 8 0;
#X connect 8 0 10 0;
#X connect 9 0 6 0;
#X connect 10 0 1 1;
#X connect 11 0 9 0;
#X connect 11 1 12 0;
#X connect 12 0 6 1;
#X connect 13 0 6 0;
#X connect 13 1 9 1;
#X connect 14 0 7 0;
#X restore 407 334 pd morph-parameters;
#X msg 349 256 read statesave/\$1-\$2-freeverb-ss.txt;
#X msg 128 582 write statesave/\$1-\$2-freeverb-ss.txt;
#X obj 157 254 r \$0-freeverb-size-s;
#X obj 155 284 r \$0-freeverb-damp-s;
#X obj 407 358 s \$0-freeverb-damp-r;
#X obj 350 430 s \$0-freeverb-size-r;
#X obj 543 375 s \$0-freeverb-mix-r;
#X obj 179 320 r \$0-freeverb-mix-s;
#X obj 349 303 unpack f f f;
#N canvas 0 22 1069 747 morph-parameters 0;
#X obj 176 94 inlet;
#X obj 176 236 pack f f;
#X obj 176 261 line;
#X obj 209 117 r preset-manager-morph-s;
#X msg 72 244 stop;
#X obj 72 214 r STOP-MORPH!;
#X obj 209 206 spigot;
#X obj 398 137 t f f;
#X obj 455 154 == 0;
#X obj 221 176 f;
#X floatatom 455 222 5 0 0 0 - - -;
#X obj 398 159 t b f;
#X floatatom 425 192 5 0 0 0 - - -;
#X obj 209 139 t f f;
#X obj 398 102 r parameters-s;
#X obj 176 288 outlet;
#X connect 0 0 1 0;
#X connect 1 0 2 0;
#X connect 2 0 15 0;
#X connect 3 0 13 0;
#X connect 4 0 2 0;
#X connect 5 0 4 0;
#X connect 6 0 1 1;
#X connect 7 0 11 0;
#X connect 7 1 8 0;
#X connect 8 0 10 0;
#X connect 9 0 6 0;
#X connect 10 0 1 1;
#X connect 11 0 9 0;
#X connect 11 1 12 0;
#X connect 12 0 6 1;
#X connect 13 0 6 0;
#X connect 13 1 9 1;
#X connect 14 0 7 0;
#X restore 543 346 pd morph-parameters;
#X obj 116 355 pack f f f;
#X msg 115 422 set \$1 \$2 \$3;
#X connect 0 0 35 0;
#X connect 1 0 0 0;
#X connect 2 0 0 0;
#X connect 4 0 2 0;
#X connect 4 1 1 0;
#X connect 5 0 37 0;
#X connect 6 0 19 0;
#X connect 7 0 10 0;
#X connect 7 1 9 0;
#X connect 7 2 8 0;
#X connect 8 0 3 0;
#X connect 9 0 5 0;
#X connect 10 0 6 0;
#X connect 11 0 7 0;
#X connect 12 0 11 0;
#X connect 13 0 17 0;
#X connect 14 0 4 0;
#X connect 14 1 13 0;
#X connect 15 0 14 0;
#X connect 15 1 13 1;
#X connect 16 0 17 1;
#X connect 17 0 27 0;
#X connect 18 0 16 0;
#X connect 19 0 28 0;
#X connect 20 0 21 0;
#X connect 21 0 19 1;
#X connect 22 0 24 0;
#X connect 23 0 6 1;
#X connect 24 0 15 0;
#X connect 25 0 32 0;
#X connect 26 0 31 0;
#X connect 27 0 0 0;
#X connect 28 0 3 0;
#X connect 29 0 5 1;
#X connect 30 0 37 1;
#X connect 34 0 37 2;
#X connect 35 0 25 0;
#X connect 35 1 26 0;
#X connect 35 2 36 0;
#X connect 36 0 33 0;
#X connect 37 0 38 0;
#X connect 38 0 3 0;
#X restore 101 228 pd state-saving-via-preset-manager-module;
#X obj 862 191 r \$0-freeverb-mix-s;
#X obj 109 161 hsl 128 15 0 127 0 0 \$0-freeverb-mix-s \$0-freeverb-mix-r
MIX 135 7 0 10 -262144 -1 -1 5400 1;
#N canvas 433 541 406 200 vfreeverb 0;
#N canvas 429 411 766 293 combfilters-left1 0;
#X obj 72 227 +~;
#X obj 87 205 *~ 0.3;
#X obj 87 183 lop~ 1000;
#X obj 242 227 +~;
#X obj 257 205 *~ 0.3;
#X obj 257 183 lop~ 1000;
#X obj 427 205 *~ 0.3;
#X obj 427 183 lop~ 1000;
#X obj 412 227 +~;
#X obj 597 205 *~ 0.3;
#X obj 597 183 lop~ 1000;
#X obj 582 227 +~;
#X obj 87 139 delread~ \$0-comb1left;
#X obj 257 139 delread~ \$0-comb2left;
#X obj 427 139 delread~ \$0-comb3left;
#X obj 597 139 delread~ \$0-comb4left;
#X obj 72 249 delwrite~ \$0-comb1left 100;
#X obj 242 249 delwrite~ \$0-comb2left 100;
#X obj 412 249 delwrite~ \$0-comb3left 100;
#X obj 582 249 delwrite~ \$0-comb4left 100;
#X obj 138 161 r \$0-frequency;
#X obj 308 161 r \$0-frequency;
#X obj 478 161 r \$0-frequency;
#X obj 648 161 r \$0-frequency;
#X obj 12 210 inlet~;
#X obj 665 200 outlet~;
#X obj 12 188 clip 0 0.99;
#X obj 12 166 r \$0-room;
#X obj 114 78 samplerate~;
#X obj 87 95 /;
#X obj 87 56 t f b;
#X obj 87 117 * 1000;
#X obj 87 12 loadbang;
#X msg 87 34 1116;
#X obj 284 78 samplerate~;
#X obj 257 95 /;
#X obj 257 56 t f b;
#X obj 257 117 * 1000;
#X obj 257 12 loadbang;
#X msg 257 34 1188;
#X obj 454 78 samplerate~;
#X obj 427 95 /;
#X obj 427 56 t f b;
#X obj 427 117 * 1000;
#X obj 427 12 loadbang;
#X obj 624 78 samplerate~;
#X obj 597 95 /;
#X obj 597 56 t f b;
#X obj 597 117 * 1000;
#X obj 597 12 loadbang;
#X msg 427 34 1277;
#X msg 597 34 1356;
#X connect 0 0 16 0;
#X connect 1 0 0 1;
#X connect 2 0 1 0;
#X connect 2 0 25 0;
#X connect 3 0 17 0;
#X connect 4 0 3 1;
#X connect 5 0 4 0;
#X connect 5 0 25 0;
#X connect 6 0 8 1;
#X connect 7 0 6 0;
#X connect 7 0 25 0;
#X connect 8 0 18 0;
#X connect 9 0 11 1;
#X connect 10 0 9 0;
#X connect 10 0 25 0;
#X connect 11 0 19 0;
#X connect 12 0 2 0;
#X connect 13 0 5 0;
#X connect 14 0 7 0;
#X connect 15 0 10 0;
#X connect 20 0 2 1;
#X connect 21 0 5 1;
#X connect 22 0 7 1;
#X connect 23 0 10 1;
#X connect 24 0 0 0;
#X connect 24 0 3 0;
#X connect 24 0 8 0;
#X connect 24 0 11 0;
#X connect 26 0 1 1;
#X connect 26 0 4 1;
#X connect 26 0 6 1;
#X connect 26 0 9 1;
#X connect 27 0 26 0;
#X connect 28 0 29 1;
#X connect 29 0 31 0;
#X connect 30 0 29 0;
#X connect 30 1 28 0;
#X connect 31 0 12 0;
#X connect 32 0 33 0;
#X connect 33 0 30 0;
#X connect 34 0 35 1;
#X connect 35 0 37 0;
#X connect 36 0 35 0;
#X connect 36 1 34 0;
#X connect 37 0 13 0;
#X connect 38 0 39 0;
#X connect 39 0 36 0;
#X connect 40 0 41 1;
#X connect 41 0 43 0;
#X connect 42 0 41 0;
#X connect 42 1 40 0;
#X connect 43 0 14 0;
#X connect 44 0 50 0;
#X connect 45 0 46 1;
#X connect 46 0 48 0;
#X connect 47 0 46 0;
#X connect 47 1 45 0;
#X connect 48 0 15 0;
#X connect 49 0 51 0;
#X connect 50 0 42 0;
#X connect 51 0 47 0;
#X restore 12 73 pd combfilters-left1;
#N canvas 562 74 448 547 diffusor-left 0;
#X obj 27 156 *~ 0.5;
#X obj 12 178 +~;
#X obj 42 178 -~;
#X obj 12 112 inlet~;
#X obj 57 244 *~ 0.5;
#X obj 42 266 +~;
#X obj 72 266 -~;
#X obj 87 332 *~ 0.5;
#X obj 72 354 +~;
#X obj 102 354 -~;
#X obj 117 420 *~ 0.5;
#X obj 102 445 +~;
#X obj 132 445 -~;
#X obj 132 511 outlet~;
#X obj 132 489 hip~ 5;
#X obj 27 134 delread~ \$0-allpass1left;
#X obj 12 200 delwrite~ \$0-allpass1left 40;
#X obj 57 222 delread~ \$0-allpass2left;
#X obj 42 288 delwrite~ \$0-allpass2left 40;
#X obj 87 310 delread~ \$0-allpass3left;
#X obj 72 376 delwrite~ \$0-allpass3left 40;
#X obj 117 398 delread~ \$0-allpass4left;
#X obj 102 467 delwrite~ \$0-allpass4left 40;
#X obj 212 78 samplerate~;
#X obj 185 95 /;
#X obj 185 56 t f b;
#X obj 185 117 * 1000;
#X obj 185 12 loadbang;
#X msg 185 34 225;
#X obj 262 166 samplerate~;
#X obj 235 183 /;
#X obj 235 144 t f b;
#X obj 235 205 * 1000;
#X obj 235 100 loadbang;
#X msg 235 122 556;
#X obj 312 254 samplerate~;
#X obj 285 271 /;
#X obj 285 232 t f b;
#X obj 285 293 * 1000;
#X obj 285 188 loadbang;
#X msg 285 210 441;
#X obj 362 342 samplerate~;
#X obj 335 359 /;
#X obj 335 320 t f b;
#X obj 335 381 * 1000;
#X obj 335 276 loadbang;
#X msg 335 298 341;
#X connect 0 0 1 1;
#X connect 1 0 16 0;
#X connect 2 0 5 0;
#X connect 2 0 6 1;
#X connect 3 0 1 0;
#X connect 3 0 2 1;
#X connect 4 0 5 1;
#X connect 5 0 18 0;
#X connect 6 0 8 0;
#X connect 6 0 9 1;
#X connect 7 0 8 1;
#X connect 8 0 20 0;
#X connect 9 0 11 0;
#X connect 9 0 12 1;
#X connect 10 0 11 1;
#X connect 11 0 22 0;
#X connect 12 0 14 0;
#X connect 14 0 13 0;
#X connect 15 0 0 0;
#X connect 15 0 2 0;
#X connect 17 0 4 0;
#X connect 17 0 6 0;
#X connect 19 0 7 0;
#X connect 19 0 9 0;
#X connect 21 0 10 0;
#X connect 21 0 12 0;
#X connect 23 0 24 1;
#X connect 24 0 26 0;
#X connect 25 0 24 0;
#X connect 25 1 23 0;
#X connect 26 0 15 0;
#X connect 27 0 28 0;
#X connect 28 0 25 0;
#X connect 29 0 30 1;
#X connect 30 0 32 0;
#X connect 31 0 30 0;
#X connect 31 1 29 0;
#X connect 32 0 17 0;
#X connect 33 0 34 0;
#X connect 34 0 31 0;
#X connect 35 0 36 1;
#X connect 36 0 38 0;
#X connect 37 0 36 0;
#X connect 37 1 35 0;
#X connect 38 0 19 0;
#X connect 39 0 40 0;
#X connect 40 0 37 0;
#X connect 41 0 42 1;
#X connect 42 0 44 0;
#X connect 43 0 42 0;
#X connect 43 1 41 0;
#X connect 44 0 21 0;
#X connect 45 0 46 0;
#X connect 46 0 43 0;
#X restore 12 139 pd diffusor-left;
#X obj 162 56 *~ 0.015;
#X obj 162 12 inlet~;
#X obj 212 12 inlet~;
#X obj 12 161 outlet~;
#X obj 162 161 outlet~;
#X obj 262 12 inlet;
#X obj 312 12 inlet;
#N canvas 0 22 207 207 room 0;
#X obj 32 35 inlet;
#X obj 32 63 * 0.28;
#X obj 32 94 + 0.7;
#X obj 32 160 outlet;
#X text 80 65 scaleroom;
#X text 76 94 offsetroom;
#X obj 47 126 s \$0-room;
#X connect 0 0 1 0;
#X connect 1 0 2 0;
#X connect 2 0 3 0;
#X connect 2 0 6 0;
#X restore 262 34 pd room;
#N canvas 684 169 154 298 frequency 0;
#X obj 39 166 samplerate~;
#X obj 12 12 inlet;
#X obj 12 144 t f b;
#X obj 12 183 *;
#X obj 22 227 s \$0-frequency;
#X obj 12 249 outlet;
#X obj 12 56 * 0.4;
#X obj 12 100 -;
#X obj 12 122 abs;
#X obj 12 205 * 0.5;
#X obj 12 34 clip 0 2.4;
#X msg 12 78 1 \$1;
#X text 62 249 for [lop~];
#X text 52 56 scaledamp;
#X connect 0 0 3 1;
#X connect 1 0 10 0;
#X connect 2 0 3 0;
#X connect 2 1 0 0;
#X connect 3 0 9 0;
#X connect 6 0 11 0;
#X connect 7 0 8 0;
#X connect 8 0 2 0;
#X connect 9 0 5 0;
#X connect 9 0 4 0;
#X connect 10 0 6 0;
#X connect 11 0 7 0;
#X restore 312 34 pd frequency;
#N canvas 429 411 766 293 combfilters-right1 0;
#X obj 72 227 +~;
#X obj 87 205 *~ 0.3;
#X obj 87 183 lop~ 1000;
#X obj 242 227 +~;
#X obj 257 205 *~ 0.3;
#X obj 257 183 lop~ 1000;
#X obj 427 205 *~ 0.3;
#X obj 427 183 lop~ 1000;
#X obj 412 227 +~;
#X obj 597 205 *~ 0.3;
#X obj 597 183 lop~ 1000;
#X obj 582 227 +~;
#X obj 138 161 r \$0-frequency;
#X obj 308 161 r \$0-frequency;
#X obj 478 161 r \$0-frequency;
#X obj 648 161 r \$0-frequency;
#X obj 12 210 inlet~;
#X obj 665 200 outlet~;
#X obj 12 188 clip 0 0.99;
#X obj 12 166 r \$0-room;
#X obj 114 78 samplerate~;
#X obj 87 95 /;
#X obj 87 56 t f b;
#X obj 87 117 * 1000;
#X obj 87 12 loadbang;
#X obj 284 78 samplerate~;
#X obj 257 95 /;
#X obj 257 56 t f b;
#X obj 257 117 * 1000;
#X obj 257 12 loadbang;
#X obj 454 78 samplerate~;
#X obj 427 95 /;
#X obj 427 56 t f b;
#X obj 427 117 * 1000;
#X obj 427 12 loadbang;
#X obj 624 78 samplerate~;
#X obj 597 95 /;
#X obj 597 56 t f b;
#X obj 597 117 * 1000;
#X obj 597 12 loadbang;
#X obj 72 249 delwrite~ \$0-comb1right 100;
#X obj 242 249 delwrite~ \$0-comb2right 100;
#X obj 412 249 delwrite~ \$0-comb3right 100;
#X obj 582 249 delwrite~ \$0-comb4right 100;
#X obj 87 139 delread~ \$0-comb1right;
#X obj 257 139 delread~ \$0-comb2right;
#X obj 427 139 delread~ \$0-comb3right;
#X obj 597 139 delread~ \$0-comb4right;
#X msg 87 34 1139;
#X msg 257 34 1211;
#X msg 427 34 1300;
#X msg 597 34 1379;
#X connect 0 0 40 0;
#X connect 1 0 0 1;
#X connect 2 0 1 0;
#X connect 2 0 17 0;
#X connect 3 0 41 0;
#X connect 4 0 3 1;
#X connect 5 0 4 0;
#X connect 5 0 17 0;
#X connect 6 0 8 1;
#X connect 7 0 6 0;
#X connect 7 0 17 0;
#X connect 8 0 42 0;
#X connect 9 0 11 1;
#X connect 10 0 9 0;
#X connect 10 0 17 0;
#X connect 11 0 43 0;
#X connect 12 0 2 1;
#X connect 13 0 5 1;
#X connect 14 0 7 1;
#X connect 15 0 10 1;
#X connect 16 0 0 0;
#X connect 16 0 3 0;
#X connect 16 0 8 0;
#X connect 16 0 11 0;
#X connect 18 0 1 1;
#X connect 18 0 4 1;
#X connect 18 0 6 1;
#X connect 18 0 9 1;
#X connect 19 0 18 0;
#X connect 20 0 21 1;
#X connect 21 0 23 0;
#X connect 22 0 21 0;
#X connect 22 1 20 0;
#X connect 23 0 44 0;
#X connect 24 0 48 0;
#X connect 25 0 26 1;
#X connect 26 0 28 0;
#X connect 27 0 26 0;
#X connect 27 1 25 0;
#X connect 28 0 45 0;
#X connect 29 0 49 0;
#X connect 30 0 31 1;
#X connect 31 0 33 0;
#X connect 32 0 31 0;
#X connect 32 1 30 0;
#X connect 33 0 46 0;
#X connect 34 0 50 0;
#X connect 35 0 36 1;
#X connect 36 0 38 0;
#X connect 37 0 36 0;
#X connect 37 1 35 0;
#X connect 38 0 47 0;
#X connect 39 0 51 0;
#X connect 44 0 2 0;
#X connect 45 0 5 0;
#X connect 46 0 7 0;
#X connect 47 0 10 0;
#X connect 48 0 22 0;
#X connect 49 0 27 0;
#X connect 50 0 32 0;
#X connect 51 0 37 0;
#X restore 162 73 pd combfilters-right1;
#N canvas 429 411 766 293 combfilters-left2 0;
#X obj 72 227 +~;
#X obj 87 205 *~ 0.3;
#X obj 87 183 lop~ 1000;
#X obj 242 227 +~;
#X obj 257 205 *~ 0.3;
#X obj 257 183 lop~ 1000;
#X obj 427 205 *~ 0.3;
#X obj 427 183 lop~ 1000;
#X obj 412 227 +~;
#X obj 597 205 *~ 0.3;
#X obj 597 183 lop~ 1000;
#X obj 582 227 +~;
#X obj 138 161 r \$0-frequency;
#X obj 308 161 r \$0-frequency;
#X obj 478 161 r \$0-frequency;
#X obj 648 161 r \$0-frequency;
#X obj 12 210 inlet~;
#X obj 665 200 outlet~;
#X obj 12 188 clip 0 0.99;
#X obj 12 166 r \$0-room;
#X obj 114 78 samplerate~;
#X obj 87 95 /;
#X obj 87 56 t f b;
#X obj 87 117 * 1000;
#X obj 87 12 loadbang;
#X obj 284 78 samplerate~;
#X obj 257 95 /;
#X obj 257 56 t f b;
#X obj 257 117 * 1000;
#X obj 257 12 loadbang;
#X obj 454 78 samplerate~;
#X obj 427 95 /;
#X obj 427 56 t f b;
#X obj 427 117 * 1000;
#X obj 427 12 loadbang;
#X obj 624 78 samplerate~;
#X obj 597 95 /;
#X obj 597 56 t f b;
#X obj 597 117 * 1000;
#X obj 597 12 loadbang;
#X msg 87 34 1422;
#X msg 257 34 1491;
#X msg 427 34 1557;
#X msg 597 34 1617;
#X obj 87 139 delread~ \$0-comb5left;
#X obj 72 249 delwrite~ \$0-comb5left 100;
#X obj 242 249 delwrite~ \$0-comb6left 100;
#X obj 257 139 delread~ \$0-comb6left;
#X obj 427 139 delread~ \$0-comb7left;
#X obj 412 249 delwrite~ \$0-comb7left 100;
#X obj 582 249 delwrite~ \$0-comb8left 100;
#X obj 597 139 delread~ \$0-comb8left;
#X connect 0 0 45 0;
#X connect 1 0 0 1;
#X connect 2 0 1 0;
#X connect 2 0 17 0;
#X connect 3 0 46 0;
#X connect 4 0 3 1;
#X connect 5 0 4 0;
#X connect 5 0 17 0;
#X connect 6 0 8 1;
#X connect 7 0 6 0;
#X connect 7 0 17 0;
#X connect 8 0 49 0;
#X connect 9 0 11 1;
#X connect 10 0 9 0;
#X connect 10 0 17 0;
#X connect 11 0 50 0;
#X connect 12 0 2 1;
#X connect 13 0 5 1;
#X connect 14 0 7 1;
#X connect 15 0 10 1;
#X connect 16 0 0 0;
#X connect 16 0 3 0;
#X connect 16 0 8 0;
#X connect 16 0 11 0;
#X connect 18 0 1 1;
#X connect 18 0 4 1;
#X connect 18 0 6 1;
#X connect 18 0 9 1;
#X connect 19 0 18 0;
#X connect 20 0 21 1;
#X connect 21 0 23 0;
#X connect 22 0 21 0;
#X connect 22 1 20 0;
#X connect 23 0 44 0;
#X connect 24 0 40 0;
#X connect 25 0 26 1;
#X connect 26 0 28 0;
#X connect 27 0 26 0;
#X connect 27 1 25 0;
#X connect 28 0 47 0;
#X connect 29 0 41 0;
#X connect 30 0 31 1;
#X connect 31 0 33 0;
#X connect 32 0 31 0;
#X connect 32 1 30 0;
#X connect 33 0 48 0;
#X connect 34 0 42 0;
#X connect 35 0 36 1;
#X connect 36 0 38 0;
#X connect 37 0 36 0;
#X connect 37 1 35 0;
#X connect 38 0 51 0;
#X connect 39 0 43 0;
#X connect 40 0 22 0;
#X connect 41 0 27 0;
#X connect 42 0 32 0;
#X connect 43 0 37 0;
#X connect 44 0 2 0;
#X connect 47 0 5 0;
#X connect 48 0 7 0;
#X connect 51 0 10 0;
#X restore 27 95 pd combfilters-left2;
#X obj 12 117 +~;
#N canvas 429 411 766 293 combfilters-right2 0;
#X obj 72 227 +~;
#X obj 87 205 *~ 0.3;
#X obj 87 183 lop~ 1000;
#X obj 242 227 +~;
#X obj 257 205 *~ 0.3;
#X obj 257 183 lop~ 1000;
#X obj 427 205 *~ 0.3;
#X obj 427 183 lop~ 1000;
#X obj 412 227 +~;
#X obj 597 205 *~ 0.3;
#X obj 597 183 lop~ 1000;
#X obj 582 227 +~;
#X obj 138 161 r \$0-frequency;
#X obj 308 161 r \$0-frequency;
#X obj 478 161 r \$0-frequency;
#X obj 648 161 r \$0-frequency;
#X obj 12 210 inlet~;
#X obj 665 200 outlet~;
#X obj 12 188 clip 0 0.99;
#X obj 12 166 r \$0-room;
#X obj 114 78 samplerate~;
#X obj 87 95 /;
#X obj 87 56 t f b;
#X obj 87 117 * 1000;
#X obj 87 12 loadbang;
#X obj 284 78 samplerate~;
#X obj 257 95 /;
#X obj 257 56 t f b;
#X obj 257 117 * 1000;
#X obj 257 12 loadbang;
#X obj 454 78 samplerate~;
#X obj 427 95 /;
#X obj 427 56 t f b;
#X obj 427 117 * 1000;
#X obj 427 12 loadbang;
#X obj 624 78 samplerate~;
#X obj 597 95 /;
#X obj 597 56 t f b;
#X obj 597 117 * 1000;
#X obj 597 12 loadbang;
#X msg 87 34 1445;
#X msg 257 34 1514;
#X msg 427 34 1580;
#X msg 597 34 1640;
#X obj 87 139 delread~ \$0-comb5right;
#X obj 72 249 delwrite~ \$0-comb5right 100;
#X obj 242 249 delwrite~ \$0-comb6right 100;
#X obj 257 139 delread~ \$0-comb6right;
#X obj 427 139 delread~ \$0-comb7right;
#X obj 412 249 delwrite~ \$0-comb7right 100;
#X obj 582 249 delwrite~ \$0-comb8right 100;
#X obj 597 139 delread~ \$0-comb8right;
#X connect 0 0 45 0;
#X connect 1 0 0 1;
#X connect 2 0 1 0;
#X connect 2 0 17 0;
#X connect 3 0 46 0;
#X connect 4 0 3 1;
#X connect 5 0 4 0;
#X connect 5 0 17 0;
#X connect 6 0 8 1;
#X connect 7 0 6 0;
#X connect 7 0 17 0;
#X connect 8 0 49 0;
#X connect 9 0 11 1;
#X connect 10 0 9 0;
#X connect 10 0 17 0;
#X connect 11 0 50 0;
#X connect 12 0 2 1;
#X connect 13 0 5 1;
#X connect 14 0 7 1;
#X connect 15 0 10 1;
#X connect 16 0 0 0;
#X connect 16 0 3 0;
#X connect 16 0 8 0;
#X connect 16 0 11 0;
#X connect 18 0 1 1;
#X connect 18 0 4 1;
#X connect 18 0 6 1;
#X connect 18 0 9 1;
#X connect 19 0 18 0;
#X connect 20 0 21 1;
#X connect 21 0 23 0;
#X connect 22 0 21 0;
#X connect 22 1 20 0;
#X connect 23 0 44 0;
#X connect 24 0 40 0;
#X connect 25 0 26 1;
#X connect 26 0 28 0;
#X connect 27 0 26 0;
#X connect 27 1 25 0;
#X connect 28 0 47 0;
#X connect 29 0 41 0;
#X connect 30 0 31 1;
#X connect 31 0 33 0;
#X connect 32 0 31 0;
#X connect 32 1 30 0;
#X connect 33 0 48 0;
#X connect 34 0 42 0;
#X connect 35 0 36 1;
#X connect 36 0 38 0;
#X connect 37 0 36 0;
#X connect 37 1 35 0;
#X connect 38 0 51 0;
#X connect 39 0 43 0;
#X connect 40 0 22 0;
#X connect 41 0 27 0;
#X connect 42 0 32 0;
#X connect 43 0 37 0;
#X connect 44 0 2 0;
#X connect 47 0 5 0;
#X connect 48 0 7 0;
#X connect 51 0 10 0;
#X restore 177 95 pd combfilters-right2;
#X obj 162 117 +~;
#N canvas 562 74 448 547 diffusor-right 0;
#X obj 27 156 *~ 0.5;
#X obj 12 178 +~;
#X obj 42 178 -~;
#X obj 12 112 inlet~;
#X obj 57 244 *~ 0.5;
#X obj 42 266 +~;
#X obj 72 266 -~;
#X obj 87 332 *~ 0.5;
#X obj 72 354 +~;
#X obj 102 354 -~;
#X obj 117 420 *~ 0.5;
#X obj 102 445 +~;
#X obj 132 445 -~;
#X obj 132 511 outlet~;
#X obj 132 489 hip~ 5;
#X obj 212 78 samplerate~;
#X obj 185 95 /;
#X obj 185 56 t f b;
#X obj 185 117 * 1000;
#X obj 185 12 loadbang;
#X obj 262 166 samplerate~;
#X obj 235 183 /;
#X obj 235 144 t f b;
#X obj 235 205 * 1000;
#X obj 235 100 loadbang;
#X obj 312 254 samplerate~;
#X obj 285 271 /;
#X obj 285 232 t f b;
#X obj 285 293 * 1000;
#X obj 285 188 loadbang;
#X obj 362 342 samplerate~;
#X obj 335 359 /;
#X obj 335 320 t f b;
#X obj 335 381 * 1000;
#X obj 335 276 loadbang;
#X msg 185 34 248;
#X msg 235 122 579;
#X msg 285 210 464;
#X msg 335 298 364;
#X obj 27 134 delread~ \$0-allpass1right;
#X obj 57 222 delread~ \$0-allpass2right;
#X obj 87 310 delread~ \$0-allpass3right;
#X obj 117 398 delread~ \$0-allpass4right;
#X obj 102 467 delwrite~ \$0-allpass4right 40;
#X obj 72 376 delwrite~ \$0-allpass3right 40;
#X obj 42 288 delwrite~ \$0-allpass2right 40;
#X obj 12 200 delwrite~ \$0-allpass1right 40;
#X connect 0 0 1 1;
#X connect 1 0 46 0;
#X connect 2 0 5 0;
#X connect 2 0 6 1;
#X connect 3 0 1 0;
#X connect 3 0 2 1;
#X connect 4 0 5 1;
#X connect 5 0 45 0;
#X connect 6 0 8 0;
#X connect 6 0 9 1;
#X connect 7 0 8 1;
#X connect 8 0 44 0;
#X connect 9 0 11 0;
#X connect 9 0 12 1;
#X connect 10 0 11 1;
#X connect 11 0 43 0;
#X connect 12 0 14 0;
#X connect 14 0 13 0;
#X connect 15 0 16 1;
#X connect 16 0 18 0;
#X connect 17 0 16 0;
#X connect 17 1 15 0;
#X connect 18 0 39 0;
#X connect 19 0 35 0;
#X connect 20 0 21 1;
#X connect 21 0 23 0;
#X connect 22 0 21 0;
#X connect 22 1 20 0;
#X connect 23 0 40 0;
#X connect 24 0 36 0;
#X connect 25 0 26 1;
#X connect 26 0 28 0;
#X connect 27 0 26 0;
#X connect 27 1 25 0;
#X connect 28 0 41 0;
#X connect 29 0 37 0;
#X connect 30 0 31 1;
#X connect 31 0 33 0;
#X connect 32 0 31 0;
#X connect 32 1 30 0;
#X connect 33 0 42 0;
#X connect 34 0 38 0;
#X connect 35 0 17 0;
#X connect 36 0 22 0;
#X connect 37 0 27 0;
#X connect 38 0 32 0;
#X connect 39 0 0 0;
#X connect 39 0 2 0;
#X connect 40 0 4 0;
#X connect 40 0 6 0;
#X connect 41 0 7 0;
#X connect 41 0 9 0;
#X connect 42 0 10 0;
#X connect 42 0 12 0;
#X restore 162 139 pd diffusor-right;
#X obj 162 34 +~;
#X connect 0 0 13 0;
#X connect 1 0 5 0;
#X connect 2 0 0 0;
#X connect 2 0 11 0;
#X connect 2 0 12 0;
#X connect 2 0 14 0;
#X connect 3 0 17 0;
#X connect 4 0 17 1;
#X connect 7 0 9 0;
#X connect 8 0 10 0;
#X connect 11 0 15 0;
#X connect 12 0 13 1;
#X connect 13 0 1 0;
#X connect 14 0 15 1;
#X connect 15 0 16 0;
#X connect 16 0 6 0;
#X connect 17 0 2 0;
#X restore 482 195 pd vfreeverb;
#X floatatom 207 116 5 0 0 0 - #0-freeverb-gui-r #0-freeverb-gui-s
;
#X obj 551 118 s \$0-freeverb-gui-r;
#X obj 552 92 * 100;
#X obj 248 109 cnv 5 5 5 empty empty DAMP 0 0 0 8 -262144 -129921 0
;
#X obj 675 129 line;
#X obj 718 60 inlet~;
#X obj 768 61 loadbang;
#X obj 768 83 t b b;
#X obj 788 107 f \$1;
#X obj 788 126 sel 0;
#X obj 764 191 t b f;
#X obj 764 169 snapshot~;
#X obj 769 147 metro 10;
#X obj 694 221 +;
#X msg 675 107 \$1 50;
#X obj 718 81 *~ 2.4;
#X obj 694 245 clip 0 2.4;
#X text 99 352 Freeverb implemented with Pd vanilla objects Katja Vetter
May 2012, f 44;
#X text 98 378 Abstraction simplified by Mike Moreno, f 44;
#X text 98 394 Automatonismized by Hakan Tunc (DEAL 78), f 44;
#X connect 0 0 6 1;
#X connect 1 0 5 1;
#X connect 2 0 6 0;
#X connect 3 0 5 0;
#X connect 4 0 0 0;
#X connect 4 0 1 0;
#X connect 4 0 7 0;
#X connect 5 0 10 0;
#X connect 6 0 9 0;
#X connect 7 0 8 0;
#X connect 8 0 2 0;
#X connect 8 0 3 0;
#X connect 11 0 4 0;
#X connect 12 0 11 0;
#X connect 21 0 36 0;
#X connect 21 0 2 1;
#X connect 22 0 36 1;
#X connect 22 0 3 1;
#X connect 23 0 24 0;
#X connect 24 0 36 2;
#X connect 24 0 39 0;
#X connect 25 0 26 0;
#X connect 26 0 51 0;
#X connect 27 0 25 0;
#X connect 28 0 30 0;
#X connect 30 0 31 0;
#X connect 31 0 29 0;
#X connect 34 0 12 0;
#X connect 36 0 0 1;
#X connect 36 1 1 1;
#X connect 39 0 38 0;
#X connect 41 0 50 0;
#X connect 42 0 52 0;
#X connect 43 0 44 0;
#X connect 44 0 49 0;
#X connect 44 1 45 0;
#X connect 45 0 46 0;
#X connect 46 0 49 1;
#X connect 47 0 50 0;
#X connect 47 1 50 1;
#X connect 48 0 47 0;
#X connect 49 0 48 0;
#X connect 50 0 53 0;
#X connect 51 0 41 0;
#X connect 52 0 48 0;
#X connect 53 0 36 3;
#X coords 0 -1 1 1 173 93 2 100 100;
