#N canvas 525 443 896 546 12;
#X obj 107 11 inlet;
#X obj 410 443 outlet;
#X text 636 36 -1 error;
#X text 638 60 0 ctl;
#X text 636 86 1 note;
#X text 792 36 2 keyboard (azerty);
#X text 791 66 3 macro;
#X obj 126 448 outlet;
#X obj 184 78 t l l;
#X obj 289 156 t l l;
#X msg 61 178 0;
#X msg 159 160 1 (ctl:\$2.\$1);
#X msg 266 256 1 (note:\$2.\$1);
#X obj 399 265 t l l;
#X msg 402 362 1 (macro:\$2.\$1);
#X obj 108 36 route -1 0 1 3, f 46;
#X obj 174 371 t l l;
#N canvas 0 50 450 300 getinfo 0;
#X obj 171 123 inlet;
#X obj 75 220 list append;
#X obj 57 133 pdcontrol;
#X msg 57 108 args 1;
#X msg 65 157 \$1-\$3:\$8(\$6);
#X obj 66 66 t b s;
#X obj 89 266 s;
#X obj 76 188 spigot;
#X obj 169 160 list split 1;
#X obj 62 3 r MIDI_MAP_SETTINGS;
#X obj 64 35 route getinfo;
#X connect 0 0 8 0;
#X connect 1 0 6 0;
#X connect 2 0 4 0;
#X connect 3 0 2 0;
#X connect 4 0 7 0;
#X connect 5 0 3 0;
#X connect 5 1 6 1;
#X connect 7 0 1 0;
#X connect 8 0 7 1;
#X connect 8 1 1 1;
#X connect 9 0 10 0;
#X connect 10 0 5 0;
#X restore 220 399 pd getinfo;
#X obj 173 211 r MIDI_MAP_SETTINGS;
#X obj 175 243 route clear;
#X obj 182 276 t b b;
#X msg 182 301 0;
#X msg 222 300 clear;
#X msg 221 107 obj 10 10 ctlin \$1 \$2 \, obj 10 50 s \$3-receive_from_listener
\, connect 0 0 1 0;
#X msg 323 183 obj 10 10 notein \$2 \, obj 10 50 pack f f \, obj 10
90 route \$1 \, obj 10 130 s \$3-receive_from_listener \, connect 0
0 1 0 \, connect 0 1 1 1 \, connect 1 0 2 0 \, connect 2 0 3 0;
#X msg 430 297 obj 10 10 r MACRO-\$2 \, obj 10 90 route \$1 \, obj
10 130 s \$3-receive_from_listener \, connect 0 0 1 0 \, connect 0
1 1 1 \, connect 1 0 2 0;
#N canvas 0 50 450 300 clear_midimap 1;
#X obj 89 236 outlet;
#X restore 693 410 pd clear_midimap;
#X connect 0 0 15 0;
#X connect 8 0 11 0;
#X connect 8 1 23 0;
#X connect 9 0 12 0;
#X connect 9 1 24 0;
#X connect 10 0 16 0;
#X connect 11 0 16 0;
#X connect 12 0 16 0;
#X connect 13 0 14 0;
#X connect 13 1 25 0;
#X connect 14 0 16 0;
#X connect 15 0 10 0;
#X connect 15 1 8 0;
#X connect 15 2 9 0;
#X connect 15 3 13 0;
#X connect 15 4 10 0;
#X connect 16 0 7 0;
#X connect 16 1 17 0;
#X connect 18 0 19 0;
#X connect 19 0 20 0;
#X connect 20 0 21 0;
#X connect 20 1 22 0;
#X connect 21 0 16 0;
#X connect 22 0 1 0;
#X connect 23 0 1 0;
#X connect 24 0 1 0;
#X connect 25 0 1 0;
