#N canvas 1 58 958 1018 12;
#X obj 199 156 list prepend dispatch \$6;
#X text 94 45 demande;
#X obj 503 114 r \$0-midi_map_status;
#X obj 464 203 route -1;
#X obj 429 144 list append;
#X obj 198 81 t b b;
#X obj 514 243 list append 0;
#X obj 524 275 list append 127;
#X obj 524 300 list append lin;
#X obj 524 325 list prepend mapping \$6;
#N canvas 1 58 958 1018 midi_mapping 0;
#X obj 579 77 spigot;
#X obj 650 49 r MIDI_LEARN;
#X obj 646 128 v MIDI_CHANNEL;
#X obj 617 154 v MIDI_MAP_NUM;
#X obj 564 183 v MIDI_MAP_TYPE;
#X obj 578 227 pack f f f;
#X text 732 187 -1 error;
#X text 820 185 0 ctl;
#X text 879 185 1 note;
#X text 956 185 2 keyboard (azerty);
#X text 1116 186 3 macro;
#X obj 474 143 s MIDI_LEARN_OK;
#X msg 523 181 0;
#X msg 792 598 clear;
#X obj 703 705 s pd-\$0-midi_listener;
#N canvas 255 580 1375 300 \$0-midi_listener 0;
#X obj 10 10 r MACRO-1;
#X obj 10 90 route 1;
#X obj 10 130 s 1243-receive_from_listener;
#X connect 0 0 1 0;
#X connect 1 0 2 0;
#X restore 1182 62 pd \$0-midi_listener;
#X obj 1184 325 / 127;
#X obj 1172 714 -;
#X obj 1175 629 t f f;
#X msg 1147 768 set \$1;
#X obj 1179 740 + \$4;
#X msg 525 207 1;
#X obj 1165 667 * \$5;
#X obj 1206 668 * \$4;
#X obj 1183 182 spigot 1;
#X obj 1351 112 r MIDI_LEARN;
#X obj 1353 139 == 0;
#X obj 1183 95 r \$0-receive_from_listener;
#X text 633 628 TODO : comment créer plusieurs listeners ?;
#X obj 1016 54 f \$0;
#X floatatom 1016 79 5 0 0 0 - - -;
#X obj 1019 30 bng 15 250 50 0 empty empty empty 17 7 0 10 -262144
-1 -1;
#X obj 393 717 list append;
#X obj 396 678 symbol \$8;
#X obj 406 648 spigot;
#X obj 453 614 list split 1;
#X obj 340 592 r MIDI_LEARN;
#X obj 340 617 select 0 1;
#X msg 311 742 label \$1;
#X obj 311 717 symbol \$8;
#X msg 393 742 label \$1\$2;
#N canvas 0 50 450 300 MIDI_LEARN_mode_colors 0;
#X obj 77 56 select 0 1;
#X obj 78 25 r MIDI_LEARN;
#X obj 28 202 list append color \$9 \$10 \$11;
#X obj 28 227 list trim;
#X msg 86 168 color #FFCCAA -1 -1;
#X obj 302 72 r \$0-is_mapped;
#X obj 102 101 f;
#X obj 94 135 select 0 1;
#X msg 259 166 color #DDAA88 -1 -1;
#X obj 31 255 s \$2-\$7;
#X connect 0 0 2 0;
#X connect 0 1 6 0;
#X connect 1 0 0 0;
#X connect 2 0 3 0;
#X connect 3 0 9 0;
#X connect 4 0 9 0;
#X connect 5 0 6 1;
#X connect 6 0 7 0;
#X connect 7 0 4 0;
#X connect 7 1 8 0;
#X connect 8 0 9 0;
#X restore 232 38 pd MIDI_LEARN_mode_colors;
#X obj 497 654 s \$0-is_mapped;
#N canvas 1 58 958 1018 MAP_FROM_mode_colors 0;
#X obj 509 102 select 0 1;
#X obj 473 170 list append color \$9 \$10 \$11;
#X obj 473 195 list trim;
#X msg 531 136 color #AAFFAA -1 -1;
#X obj 554 49 r \$0-is_mapped;
#X obj 516 73 spigot;
#X obj 403 89 spigot;
#X obj 519 24 r MIDI_MAP_FROM;
#X obj 401 120 s \$0-map_from;
#X obj 168 240 r \$0-map_from;
#X obj 97 246 spigot;
#X obj 19 99 select 0 1;
#X obj 32 47 r MIDI_MAP_FROM;
#X obj 178 91 r \$0-is_mapped;
#X obj 9 367 s \$2-\$7;
#X obj 400 48 r \$2-\$6;
#X obj 476 223 s \$2-\$7;
#X obj 97 282 f \$4;
#X msg 96 312 set \$1;
#X msg 21 269 set \$1;
#X obj 21 245 f;
#X obj 46 163 v \$2-\$6;
#X obj 42 123 t b b;
#X connect 0 0 1 0;
#X connect 0 1 3 0;
#X connect 1 0 2 0;
#X connect 2 0 16 0;
#X connect 3 0 16 0;
#X connect 4 0 5 1;
#X connect 5 0 0 0;
#X connect 5 0 6 1;
#X connect 6 0 8 0;
#X connect 6 0 20 1;
#X connect 7 0 5 0;
#X connect 9 0 17 1;
#X connect 10 0 17 0;
#X connect 11 0 20 0;
#X connect 11 1 22 0;
#X connect 12 0 11 0;
#X connect 13 0 10 1;
#X connect 15 0 6 0;
#X connect 17 0 18 0;
#X connect 18 0 14 0;
#X connect 19 0 14 0;
#X connect 20 0 19 0;
#X connect 21 0 20 1;
#X connect 22 0 21 0;
#X connect 22 1 10 0;
#X restore 231 78 pd MAP_FROM_mode_colors;
#N canvas 1 58 958 1018 MAP_TO_mode_colors 0;
#X obj 544 133 select 0 1;
#X obj 511 199 list append color \$9 \$10 \$11;
#X obj 511 224 list trim;
#X msg 569 165 color #AAFFFF -1 -1;
#X obj 702 74 r \$0-is_mapped;
#X obj 552 103 spigot;
#X obj 408 156 spigot;
#X obj 406 187 s \$0-map_to;
#X obj 561 72 r MIDI_MAP_TO;
#X obj 110 156 spigot;
#X obj 38 58 select 0 1;
#X obj 163 63 r \$0-is_mapped;
#X obj 38 33 r MIDI_MAP_TO;
#X obj 234 132 r \$0-map_to;
#X obj 23 299 s \$2-\$7;
#X obj 514 252 s \$2-\$7;
#X obj 405 115 r \$2-\$6;
#X obj 87 93 t b b;
#X msg 24 206 set \$1;
#X obj 24 182 f;
#X obj 41 137 v \$2-\$6;
#X obj 105 190 f \$5;
#X msg 101 227 set \$1;
#X connect 0 0 1 0;
#X connect 0 1 3 0;
#X connect 1 0 2 0;
#X connect 2 0 15 0;
#X connect 3 0 15 0;
#X connect 4 0 5 1;
#X connect 5 0 0 0;
#X connect 5 0 6 1;
#X connect 6 0 7 0;
#X connect 6 0 19 1;
#X connect 8 0 5 0;
#X connect 9 0 21 0;
#X connect 10 0 19 0;
#X connect 10 1 17 0;
#X connect 11 0 9 1;
#X connect 12 0 10 0;
#X connect 13 0 21 1;
#X connect 16 0 6 0;
#X connect 17 0 20 0;
#X connect 17 1 9 0;
#X connect 18 0 14 0;
#X connect 19 0 18 0;
#X connect 20 0 19 1;
#X connect 21 0 22 0;
#X connect 22 0 14 0;
#X restore 232 118 pd MAP_TO_mode_colors;
#X obj 1274 635 r \$0-map_from;
#X obj 1191 579 r \$0-map_to;
#X obj 1345 170 r MIDI_MAP_FROM;
#X obj 1341 238 r MIDI_MAP_TO;
#X obj 1185 219 spigot 1;
#X obj 1345 195 == 0;
#X obj 1184 283 spigot 1;
#X obj 1341 263 == 0;
#X obj 175 214 list split 3;
#X obj 198 258 unpack f f s;
#X obj 106 301 s \$0-map_from;
#X obj 215 302 s \$0-map_to;
#X obj 321 304 s \$0-map_scale;
#X msg 1176 374 lin \$1;
#X obj 1014 319 r \$0-map_scale;
#X msg 1014 344 set \$1 \, adddollar 1;
#X msg 328 266 symbol lin;
#X obj 1177 411 route lin;
#X obj 175 189 r \$2-mapping_\$6;
#X obj 310 774 s \$2-\$7;
#X obj 1147 818 s \$2-\$7;
#X obj 1236 819 s \$2-\$6;
#X obj 527 26 r \$2-\$6;
#X obj 548 496 list append;
#X obj 544 439 t b l;
#X obj 546 468 delay 10;
#X obj 556 367 list append \$0;
#X obj 589 315 s \$0-midi_map_status;
#X obj 558 276 t l l;
#X obj 579 102 t b b b b;
#X obj 555 400 t l b;
#X obj 513 770 tgl 15 0 empty empty empty 17 7 0 10 -262144 -1 -1 0
1;
#X obj 547 522 create_event_listener;
#X connect 0 0 74 0;
#X connect 1 0 0 1;
#X connect 2 0 5 2;
#X connect 3 0 5 1;
#X connect 4 0 5 0;
#X connect 5 0 73 0;
#X connect 12 0 5 0;
#X connect 13 0 14 0;
#X connect 16 0 58 0;
#X connect 17 0 20 0;
#X connect 18 0 22 0;
#X connect 18 1 23 0;
#X connect 19 0 65 0;
#X connect 20 0 19 0;
#X connect 20 0 66 0;
#X connect 21 0 5 0;
#X connect 22 0 17 0;
#X connect 23 0 17 1;
#X connect 24 0 49 0;
#X connect 25 0 26 0;
#X connect 26 0 24 1;
#X connect 27 0 24 0;
#X connect 29 0 30 0;
#X connect 31 0 29 0;
#X connect 32 0 40 0;
#X connect 33 0 32 0;
#X connect 34 0 33 0;
#X connect 35 0 34 1;
#X connect 35 0 42 0;
#X connect 35 0 76 0;
#X connect 35 1 32 1;
#X connect 36 0 37 0;
#X connect 37 0 39 0;
#X connect 37 1 34 0;
#X connect 38 0 64 0;
#X connect 39 0 38 0;
#X connect 40 0 64 0;
#X connect 45 0 23 1;
#X connect 45 0 20 1;
#X connect 46 0 22 1;
#X connect 47 0 50 0;
#X connect 48 0 52 0;
#X connect 49 0 51 0;
#X connect 50 0 49 1;
#X connect 51 0 16 0;
#X connect 52 0 51 1;
#X connect 53 0 73 0;
#X connect 53 1 54 0;
#X connect 54 0 55 0;
#X connect 54 1 56 0;
#X connect 54 2 57 0;
#X connect 58 0 62 0;
#X connect 59 0 60 0;
#X connect 60 0 58 0;
#X connect 61 0 57 0;
#X connect 62 0 18 0;
#X connect 63 0 53 0;
#X connect 67 0 0 0;
#X connect 68 0 77 0;
#X connect 69 0 70 0;
#X connect 69 1 68 1;
#X connect 70 0 68 0;
#X connect 71 0 75 0;
#X connect 73 0 71 0;
#X connect 73 1 72 0;
#X connect 74 0 11 0;
#X connect 74 1 4 0;
#X connect 74 2 3 0;
#X connect 74 3 2 0;
#X connect 75 0 69 0;
#X connect 75 1 13 0;
#X connect 77 0 35 0;
#X connect 77 1 14 0;
#X restore 517 35 pd midi_mapping;
#X msg 47 388 set \$1;
#X obj 600 204 r \$0-map_from;
#X obj 631 244 r \$0-map_to;
#X obj 644 267 r \$0-map_scale;
#X obj 197 54 r \$2-save_state;
#X obj 46 350 r \$2-dispatch_\$6;
#X obj 47 413 s \$2-\$7;
#X obj 146 414 s \$2-\$6;
#X obj 524 354 s \$2-dump_state;
#X obj 199 209 s \$2-dump_state;
#X obj 199 106 v \$2-\$6;
#X obj 329 113 spigot;
#X obj 367 84 r \$0-is_mapped;
#X connect 0 0 20 0;
#X connect 2 0 4 1;
#X connect 3 1 6 0;
#X connect 4 0 3 0;
#X connect 5 0 21 0;
#X connect 5 1 22 0;
#X connect 6 0 7 0;
#X connect 7 0 8 0;
#X connect 8 0 9 0;
#X connect 9 0 19 0;
#X connect 11 0 17 0;
#X connect 12 0 6 1;
#X connect 13 0 7 1;
#X connect 14 0 8 1;
#X connect 15 0 5 0;
#X connect 16 0 11 0;
#X connect 16 0 18 0;
#X connect 21 0 0 0;
#X connect 22 0 4 0;
#X connect 23 0 22 1;
