#N canvas 399 58 1218 1026 16;
#X declare -path state_saving_module;
#X obj 107 27 inlet;
#X obj 372 29 inlet;
#X obj 75 897 outlet;
#X text 130 50 saved data;
#X text 103 849 send current_data;
#X obj 320 298 bng 15 250 50 0 empty empty empty 17 7 0 10 -262144
-1 -1;
#X obj 23 306 list trim;
#X obj 372 76 t b;
#X text 909 566 bwl-osc 4 bwl-osc-pitch-s PITCH 0 127;
#X obj 21 332 route mapping dispatch preset;
#X obj 28 520 list split 1;
#X obj 22 589 list append;
#X obj 57 692 s;
#X msg 93 648 symbol \$2-mapping_\$1;
#X obj 22 551 t b s;
#X obj 473 517 text define \$0-savestate_data;
#X obj 20 72 text insert \$0-savestate_data;
#X obj 26 270 text sequence \$0-savestate_data;
#X text 427 28 savebang;
#X obj 23 124 loadbang;
#X obj 23 203 delay 10;
#X msg 23 232 line 0 \, bang;
#X obj 386 604 list split 1;
#X obj 380 673 list append;
#X obj 415 776 s;
#X obj 380 635 t b s;
#X msg 451 732 symbol \$2-dispatch_\$1;
#X obj 828 81 declare -path state_saving_module;
#N canvas 0 50 450 300 check-module-ID 0;
#X obj 105 44 inlet;
#X obj 106 234 outlet;
#X obj 212 137 f \$3;
#X obj 212 190 moses;
#X obj 107 87 t b b b;
#X obj 284 135 v \$1-ID;
#X obj 270 233 v \$1-ID;
#X connect 0 0 4 0;
#X connect 2 0 3 0;
#X connect 3 1 6 0;
#X connect 4 0 1 0;
#X connect 4 1 2 0;
#X connect 4 2 5 0;
#X connect 5 0 3 1;
#X restore 23 160 pd check-module-ID;
#X obj 61 818 r \$2-dump_state;
#X obj 451 703 pack s \$2;
#X obj 372 126 s \$2-save_state;
#X obj 93 619 pack s \$2;
#X connect 0 0 16 0;
#X connect 1 0 7 0;
#X connect 6 0 9 0;
#X connect 7 0 31 0;
#X connect 9 0 10 0;
#X connect 9 1 22 0;
#X connect 10 0 14 0;
#X connect 10 1 11 1;
#X connect 11 0 12 0;
#X connect 13 0 12 1;
#X connect 14 0 11 0;
#X connect 14 1 32 0;
#X connect 17 0 6 0;
#X connect 19 0 28 0;
#X connect 20 0 21 0;
#X connect 21 0 17 0;
#X connect 22 0 25 0;
#X connect 22 1 23 1;
#X connect 23 0 24 0;
#X connect 25 0 23 0;
#X connect 25 1 30 0;
#X connect 26 0 24 1;
#X connect 28 0 20 0;
#X connect 29 0 2 0;
#X connect 30 0 26 0;
#X connect 32 0 13 0;
