#N canvas 399 58 1218 1026 16;
#X declare -path state_saving_module;
#X obj 107 27 inlet;
#X obj 372 29 inlet;
#X obj 75 897 outlet;
#X text 130 50 saved data;
#X text 103 849 send current_data;
#X obj 320 298 bng 15 250 50 0 empty empty empty 17 7 0 10 -262144
-1 -1;
#X obj 23 306 list trim;
#X text 909 566 bwl-osc 4 bwl-osc-pitch-s PITCH 0 127;
#X obj 21 332 route mapping dispatch preset;
#X obj 28 520 list split 1;
#X obj 22 589 list append;
#X obj 57 692 s;
#X msg 93 648 symbol \$2-mapping_\$1;
#X obj 22 551 t b s;
#X text 427 28 savebang;
#X obj 37 102 loadbang;
#X obj 23 203 delay 10;
#X msg 23 232 line 0 \, bang;
#X obj 386 604 list split 1;
#X obj 380 673 list append;
#X obj 415 776 s;
#X obj 380 635 t b s;
#X msg 451 732 symbol \$2-dispatch_\$1;
#X obj 828 81 declare -path state_saving_module;
#N canvas 0 50 450 300 check-module-ID 0;
#X obj 105 44 inlet;
#X obj 96 139 f \$3;
#X obj 96 192 moses;
#X obj 168 137 v \$1-ID;
#X obj 154 235 v \$1-ID;
#X obj 107 87 t b b;
#X connect 0 0 5 0;
#X connect 1 0 2 0;
#X connect 2 1 4 0;
#X connect 3 0 2 1;
#X connect 5 0 1 0;
#X connect 5 1 3 0;
#X restore 101 168 pd check-module-ID;
#X obj 61 818 r \$2-dump_state;
#X obj 451 703 pack s \$2;
#X obj 372 126 s \$2-save_state;
#X obj 93 619 pack s \$2;
#X msg 636 335 loadbang;
#X obj 635 177 r \$1-\$3-loadbang;
#X text 909 217 forward loadbang;
#X obj 635 260 spigot 1;
#X msg 760 270 0;
#X obj 760 234 loadbang;
#X obj 636 376 iemguts/sendcanvas 1;
#X msg 727 690 line 0 \, bang;
#X obj 372 76 t b b;
#X obj 726 756 list trim;
#X text 864 391 dispatch clock-clk-rate-s 88 \; mapping clock-clk-rate-s
0 71 1 0 127 lin \; dispatch clock-on/off-s 0 \; mapping clock-on/off-s
0 20 10 0 1 lin \; preset statesave/1-clock-ss.txt 22 0 \; preset statesave/1-1-clock-ss.txt
12 1 \; preset statesave/2-1-clock-ss.txt 14 6 \;;
#X obj 726 785 route preset;
#X obj 726 814 list prepend preset;
#X text 881 683 backup preset data if they exist;
#X obj 36 130 t b b;
#X text 30 480 load midi_mappings;
#X text 388 560 load parameters;
#X obj 524 474 text define \$2-savestate_data;
#X obj 20 72 text insert \$2-savestate_data;
#X obj 26 270 text sequence \$2-savestate_data;
#X obj 726 727 text sequence \$2-savestate_data;
#X connect 0 0 47 0;
#X connect 1 0 37 0;
#X connect 6 0 8 0;
#X connect 8 0 9 0;
#X connect 8 1 18 0;
#X connect 9 0 13 0;
#X connect 9 1 10 1;
#X connect 10 0 11 0;
#X connect 12 0 11 1;
#X connect 13 0 10 0;
#X connect 13 1 28 0;
#X connect 15 0 43 0;
#X connect 16 0 17 0;
#X connect 17 0 48 0;
#X connect 18 0 21 0;
#X connect 18 1 19 1;
#X connect 19 0 20 0;
#X connect 21 0 19 0;
#X connect 21 1 26 0;
#X connect 22 0 20 1;
#X connect 25 0 2 0;
#X connect 26 0 22 0;
#X connect 28 0 12 0;
#X connect 29 0 35 0;
#X connect 30 0 32 0;
#X connect 32 0 29 0;
#X connect 33 0 32 1;
#X connect 34 0 33 0;
#X connect 36 0 49 0;
#X connect 37 0 27 0;
#X connect 37 1 36 0;
#X connect 38 0 40 0;
#X connect 40 0 41 0;
#X connect 41 0 2 0;
#X connect 43 0 16 0;
#X connect 43 1 24 0;
#X connect 48 0 6 0;
#X connect 49 0 38 0;
