#N canvas 542 186 1342 871 12;
#X obj 157 776 textfile;
#X obj 155 101 inlet;
#X obj 157 801 outlet;
#X obj 221 805 outlet;
#X obj 156 453 route read write;
#X obj 441 243 pdcontrol;
#X msg 449 208 dir 2;
#X obj 156 478 list append;
#X obj 176 548 list append;
#X obj 443 162 loadbang;
#X msg 157 513 read \$2/patch_editor_abs/\$1;
#X msg 176 573 write \$2/patch_editor_abs/\$1;
#X connect 0 0 2 0;
#X connect 0 1 3 0;
#X connect 1 0 4 0;
#X connect 4 0 7 0;
#X connect 4 1 8 0;
#X connect 4 2 0 0;
#X connect 5 0 7 1;
#X connect 5 0 8 1;
#X connect 6 0 5 0;
#X connect 7 0 10 0;
#X connect 8 0 11 0;
#X connect 9 0 6 0;
#X connect 10 0 0 0;
#X connect 11 0 0 0;
