#N canvas 542 186 1342 871 12;
#X declare -path ../;
#X obj 157 776 textfile;
#X obj 155 18 inlet;
#X obj 157 801 outlet;
#X obj 221 805 outlet;
#X obj 155 53 t a b;
#X obj 155 100 list prepend 0;
#X obj 250 75 v AUTOMATONISM.STORAGE_MODE;
#X obj 155 129 route 0 1;
#X text 765 168 clear \; write \; set \; read \; bang \; rewind, f
8;
#X obj 383 473 list append;
#X obj 285 331 t b;
#X obj 446 255 list;
#X obj 492 349 text search AUTOMATONISM.LOCAL_PRESETS 0;
#X obj 491 387 t b f f;
#X obj 509 502 select -1;
#X msg 491 548 1e+07;
#X obj 383 549 list prepend;
#X obj 491 263 list;
#X obj 492 317 t l l, f 15;
#X text 451 68 variable globale définie dans preset-manager;
#X obj 838 444 text search AUTOMATONISM.LOCAL_PRESETS 0;
#X obj 837 482 t b f f;
#X obj 855 597 select -1;
#X obj 837 358 list;
#X obj 838 412 t l l, f 15;
#X obj 383 624 text set AUTOMATONISM.LOCAL_PRESETS;
#X obj 915 645 text get AUTOMATONISM.LOCAL_PRESETS;
#X obj 792 770 list append;
#X obj 352 185 route clear set write bang read rewind;
#X obj 805 630 t b;
#X obj 890 708 list split 1;
#X obj 939 174 declare -path ../;
#X obj 156 453 route read write;
#X obj 156 478 list;
#X msg 156 503 read ../\$1;
#X obj 176 548 list;
#X msg 176 573 write ../\$1;
#X connect 0 0 2 0;
#X connect 0 1 3 0;
#X connect 1 0 4 0;
#X connect 4 0 5 0;
#X connect 4 1 6 0;
#X connect 5 0 7 0;
#X connect 6 0 5 1;
#X connect 7 0 32 0;
#X connect 7 1 28 0;
#X connect 9 0 16 0;
#X connect 10 0 9 1;
#X connect 11 0 9 1;
#X connect 12 0 13 0;
#X connect 13 0 9 0;
#X connect 13 1 14 0;
#X connect 14 0 15 0;
#X connect 14 1 25 1;
#X connect 15 0 25 1;
#X connect 16 0 25 0;
#X connect 17 0 18 0;
#X connect 18 0 12 0;
#X connect 18 1 16 1;
#X connect 20 0 21 0;
#X connect 21 1 22 0;
#X connect 22 0 27 1;
#X connect 22 1 26 0;
#X connect 23 0 24 0;
#X connect 24 0 20 0;
#X connect 26 0 30 0;
#X connect 27 0 2 0;
#X connect 28 0 10 0;
#X connect 28 1 11 0;
#X connect 28 2 17 0;
#X connect 28 3 29 0;
#X connect 28 4 23 0;
#X connect 29 0 27 0;
#X connect 30 1 27 1;
#X connect 32 0 33 0;
#X connect 32 1 35 0;
#X connect 32 2 0 0;
#X connect 33 0 34 0;
#X connect 34 0 0 0;
#X connect 35 0 36 0;
#X connect 36 0 0 0;
