#N canvas 827 239 527 327 12;
#X obj -1 -1 cnv 21 242 12 empty \$0-line1 empty 0 10 0 12 #e0e0e0 #404040 0;
#X obj -1 9 cnv 21 242 12 empty \$0-line2 empty 0 10 0 12 #e0e0e0 #404040 0;
#X obj 407 39 inlet;
#X obj 416 98 list fromsymbol;
#X obj 483 510 list tosymbol;
#X obj 463 540 list tosymbol;
#X obj 460 632 s \$0-line1;
#X obj 458 662 s \$0-line2;
#X msg 463 569 label \$1;
#X msg 499 599 label \$1;
#X msg 779 179 label empty;
#X obj 416 127 list split 40;
#X obj 453 158 list split 40;
#X obj 412 67 t s b;
#X connect 2 0 13 0 empty;
#X connect 3 0 11 0 empty;
#X connect 4 0 9 0 empty;
#X connect 5 0 8 0 empty;
#X connect 8 0 6 0 empty;
#X connect 9 0 7 0 empty;
#X connect 10 0 7 0 empty;
#X connect 10 0 6 0 empty;
#X connect 11 0 5 0 empty;
#X connect 11 1 12 0 empty;
#X connect 12 0 4 0 empty;
#X connect 13 0 3 0 empty;
#X connect 13 1 10 0 empty;
#X coords 0 0 1 1 245 23 1 0 0;
