#N canvas 0 0 1882 705 12;
#X obj 235 183 file glob;
#X obj 310 49 pdcontrol;
#X msg 309 25 dir;
#X obj 235 208 list split 1;
#X obj 275 249 == 0;
#X obj 227 282 spigot;
#X obj 48 344 text define \$0-fileList;
#X msg 77 301 clear;
#X obj 93 97 t b b;
#X obj 88 56 bng 20 250 50 0 empty empty empty 0 -10 0 12 #fcfcfc #000000 #000000;
#X obj 290 324 text insert \$0-fileList;
#X listbox 787 213 37 0 0 0 - - - 0;
#X obj 322 583 iemlib/splitfilename /;
#X obj 619 399 iemlib/splitfilename .;
#X listbox 724 425 20 0 0 0 - - - 0;
#X obj 781 633 text define -k \$0-parsedFile;
#A set #N canvas 0 22 634 371 10 \; #X obj 23 298 cnv 15 400 30 empty empty OUTPUTS: 20 12 0 14 -158136 -262144 0 \; #X obj 20 103 cnv 15 400 30 empty empty CONTROLS: 20 12 0 14 -158136 -262144 0 \; #X obj 20 166 cnv 15 400 30 empty empty INPUTS: 20 12 0 14 -158136 -262144 0 \; #X obj 20 17 cnv 15 400 30 empty empty XFADE: 20 12 0 14 -150893 -262144 0 \; #X text 26 332 OUT - output \; #X obj 431 19 xfade \; #X text 24 61 The "xfade module is a simple crossfader. Two signal input can be crossfaded with a slider manually or with cv. \; #X text 24 138 XFADE - crossfades between signal-in-1 and signal-in-2 \; #X text 24 202 IN-1 - signal in 1 \; #X text 26 231 IN-2 - signal in 2 \; #X text 26 263 XFADE - input for cv-control of the XFADE parameter \;;
#X msg 1120 64 list text 0;
#X obj 1121 98 text search \$0-parsedFile 1 > 3;
#X obj 1121 162 text get \$0-parsedFile;
#X obj 1138 192 list split 4;
#X text 1057 44 recherche dans le fichier d'aide du texte de présentation du module;
#X obj 368 475 text define -k \$0-template;
#A set #N canvas 1070 192 743 559 12 \; #X msg 79 479 \$2 \; #X obj 99 231 inlet \$2 \; #X obj 0 0 hradio 20 1 0 5 \$3-click empty empty 0 -10 0 12 #fcfcfc #000000 #000000 0 \; #X obj 1 1 cnv 18 98 18 \$3-get_pos \$3-pos-rcv 2op-fm 5 12 0 12 #e0e0e0 #404040 0 \; #X obj 91 428 onMouseOver \$1 \$3 \; #X obj 174 398 savestate \; #X connect 0 0 4 0 \; #X connect 4 0 0 0 \; #X connect 4 1 5 0 \; #X connect 5 0 4 1 \; #X connect 5 1 4 2 \; #X coords 0 -1 1 1 100 20 1 0 0 \;;
#X obj 1300 380 text sequence \$0-template;
#X listbox 310 74 72 0 0 0 - - - 0;
#X msg 233 139 symbol \$1/../../patch_editor_abs/*-help.pd;
#X text 27 50 1;
#X obj 172 522 text sequence \$0-fileList;
#X msg 165 455 line 0;
#X obj 247 553 t l l;
#X obj 514 619 iemlib/splitfilename -;
#X listbox 514 644 20 0 0 0 - - - 0;
#X text 70 459 2;
#X obj 1514 491 text insert \$0-target;
#X obj 1120 424 text define \$0-target;
#X msg 1153 399 clear;
#X obj 1138 234 bng 20 250 50 0 empty empty empty 0 -10 0 12 #fcfcfc #000000 #000000;
#X text 976 84 2.2;
#X text 1078 242 2.3;
#X msg 1418 341 1e+09;
#X obj 1413 303 loadbang;
#X obj 985 330 list append;
#X obj 985 355 list append;
#X msg 985 380 write \$1/../\$2.pd;
#X msg 202 490 step;
#X msg 368 272 1e+09;
#X obj 363 234 loadbang;
#X obj 1121 130 select -1;
#X msg 1323 137 empty;
#X floatatom 1058 115 5 0 0 0 - - - 0;
#X listbox 1394 273 66 0 0 0 - - - 0;
#X obj 1280 512 print text-sequence;
#X obj 1267 596 unpack s s;
#X symbolatom 1227 642 10 0 0 0 - - - 0;
#X symbolatom 1357 642 48 0 0 0 - - - 0;
#X msg 793 545 read automatonism/patch_editor_abs/\$1.pd;
#X obj 566 509 t l l;
#X obj 602 295 delay 100;
#X obj 602 325 delay 100;
#X msg 531 367 0;
#X msg 529 232 1;
#X obj 527 260 tgl 20 0 empty empty empty 0 -10 0 12 #fcfcfc #000000 #000000 0 1;
#X obj 574 253 metro 300;
#X msg 360 427 read template.txt;
#X text 494 238 3;
#X msg 1589 123 file:///home/jyg/Desktop/Documents/Pd/externals/automatonism/palette/template.txt;
#X msg 1455 123 set \$1;
#X msg 1523 344 set \$1;
#X msg 1523 369 The\ "xfade\ module\ is\ a\ simple\ crossfader.;
#N canvas 239 242 584 606 split_first_dot 0;
#X obj 122 36 inlet;
#X obj 122 61 list fromsymbol;
#X obj 66 125 list length;
#X obj 133 211 list split 1;
#X obj 146 172 list append;
#X obj 66 150 until;
#X obj 356 153 list fromsymbol;
#X msg 352 112 symbol .;
#X obj 78 286 select 46;
#X msg 83 336 46;
#X obj 106 376 list prepend;
#X obj 101 402 t l l;
#X obj 63 457 list append;
#X obj 68 311 t b b b;
#X obj 63 482 list tosymbol;
#X obj 58 522 outlet;
#X obj 207 233 list split 1;
#X obj 336 45 iemlib/mergefilename space;
#X msg 333 17 list . l;
#X listbox 340 73 20 0 0 0 - - - 0;
#X listbox 356 178 20 0 0 0 - - - 0;
#X obj 205 269 == 32;
#X obj 171 299 spigot;
#X obj 122 86 t l l b;
#X connect 0 0 1 0;
#X connect 1 0 23 0;
#X connect 2 0 5 0;
#X connect 3 0 8 0;
#X connect 3 1 4 1;
#X connect 3 1 16 0;
#X connect 4 0 3 0;
#X connect 5 0 4 0;
#X connect 6 0 20 0;
#X connect 7 0 6 0;
#X connect 8 0 13 0;
#X connect 8 1 10 0;
#X connect 9 0 10 0;
#X connect 10 0 11 0;
#X connect 11 0 12 1;
#X connect 11 1 10 1;
#X connect 12 0 14 0;
#X connect 13 0 12 0;
#X connect 13 1 9 0;
#X connect 13 2 22 0;
#X connect 14 0 15 0;
#X connect 16 0 21 0;
#X connect 17 0 19 0;
#X connect 18 0 17 0;
#X connect 19 0 6 0;
#X connect 21 0 22 1;
#X connect 22 0 5 1;
#X connect 23 0 2 0;
#X connect 23 1 4 1;
#X connect 23 2 10 1;
#X restore 1400 205 pd split_first_dot;
#X obj 1430 76 iemlib/mergefilename space;
#X msg 1455 148 The\ "xfade\ module\ is\ a\ simple\ crossfader.\ Two\ signal\ input\ can\ be\ crossfaded\ with\ a\ slider\ manually\ or\ with\ cv.;
#X msg 1177 294 line 0;
#X obj 1301 241 list prepend;
#X obj 1301 322 list append;
#X obj 1159 250 t b b b b;
#X obj 1313 295 bng 20 250 50 0 empty empty empty 0 -10 0 12 #fcfcfc #000000 #000000;
#X obj 1300 351 list append \\\$0;
#X text 528 448 dans le template : \$1 pour nom module;
#X text 622 468 \$2 pour description;
#X text 637 489 \$3 pour dollarzero;
#X connect 0 0 3 0;
#X connect 1 0 23 0;
#X connect 1 0 40 1;
#X connect 2 0 1 0;
#X connect 3 0 5 0;
#X connect 3 1 4 0;
#X connect 4 0 5 1;
#X connect 5 0 10 0;
#X connect 7 0 6 0;
#X connect 8 0 2 0;
#X connect 8 1 7 0;
#X connect 9 0 8 0;
#X connect 12 1 13 0;
#X connect 13 0 14 0;
#X connect 13 0 55 0;
#X connect 16 0 17 0;
#X connect 17 0 46 0;
#X connect 17 0 48 0;
#X connect 18 0 19 0;
#X connect 19 1 11 0;
#X connect 19 1 69 0;
#X connect 22 0 32 0;
#X connect 22 0 50 0;
#X connect 23 0 24 0;
#X connect 24 0 0 0;
#X connect 26 0 28 0;
#X connect 26 1 58 0;
#X connect 27 0 26 0;
#X connect 28 1 12 0;
#X connect 29 0 30 0;
#X connect 29 0 41 1;
#X connect 29 0 72 1;
#X connect 34 0 33 0;
#X connect 35 0 74 0;
#X connect 38 0 32 1;
#X connect 39 0 38 0;
#X connect 40 0 41 0;
#X connect 41 0 42 0;
#X connect 42 0 33 0;
#X connect 43 0 26 0;
#X connect 44 0 10 1;
#X connect 45 0 44 0;
#X connect 46 0 47 0;
#X connect 46 1 18 0;
#X connect 47 0 72 0;
#X connect 51 0 52 0;
#X connect 51 1 53 0;
#X connect 54 0 15 0;
#X connect 55 0 29 0;
#X connect 55 1 54 0;
#X connect 56 0 57 0;
#X connect 56 0 16 0;
#X connect 57 0 35 0;
#X connect 58 0 60 0;
#X connect 59 0 60 0;
#X connect 60 0 61 0;
#X connect 61 0 56 0;
#X connect 61 0 43 0;
#X connect 62 0 21 0;
#X connect 65 0 70 0;
#X connect 66 0 67 0;
#X connect 68 0 66 0;
#X connect 68 0 72 0;
#X connect 69 0 65 0;
#X connect 69 0 68 0;
#X connect 71 0 22 0;
#X connect 72 0 49 0;
#X connect 72 0 51 0;
#X connect 72 0 73 1;
#X connect 73 0 76 0;
#X connect 74 0 40 0;
#X connect 74 1 73 0;
#X connect 74 2 71 0;
#X connect 74 3 34 0;
#X connect 75 0 73 0;
#X connect 76 0 22 0;
