#N canvas 0 22 651 406 10;
#X obj 24 289 cnv 15 400 30 empty empty OUTPUTS: 20 12 0 14 -158136
-262144 0;
#X obj 21 113 cnv 15 400 30 empty empty CONTROLS: 20 12 0 14 -158136
-262144 0;
#X obj 21 178 cnv 15 400 30 empty empty INPUTS: 20 12 0 14 -158136
-262144 0;
#X obj 20 17 cnv 15 400 30 empty empty CLOCK-MULTIPLY: 20 12 0 14 -150893
-262144 0;
#X text 27 323 OUT - output;
#X obj 429 17 clock-multiply;
#X text 25 151 MULTIPLY - controls the amount of multiplication;
#X text 25 214 IN - clock/trigger/gate signal in;
#X text 25 256 CV - input for cv-control of the MULTIPLY parameter
;
#X text 21 53 The "CLOCK-MULTIPLY" module is a clock multiplyer. It
takes a steady clock/trigger signal at the input multiplies it at the
output. Set the number of multiplication with the MULTIPLY slider.
;
