#N canvas 0 22 668 391 10;
#X obj 23 306 cnv 15 400 30 empty empty OUTPUTS: 20 12 0 14 -158136
-262144 0;
#X obj 20 111 cnv 15 400 30 empty empty CONTROLS: 20 12 0 14 -158136
-262144 0;
#X obj 20 213 cnv 15 400 30 empty empty INPUTS: 20 12 0 14 -158136
-262144 0;
#X obj 20 17 cnv 15 400 30 empty empty FORMANT-FILTER: 20 12 0 14 -150893
-262144 0;
#X text 26 340 OUT - output;
#X text 24 249 IN - signal input;
#X obj 430 16 formant;
#X text 25 180 Q - control over Q (resonance);
#X text 24 272 VOWELS - input for cv-control over the FORMANTS.;
#X text 24 149 VOWELS - scan through different vowels.;
#X text 20 59 The "FORMANT" module consists of multiple bandpass filters
set to frequencies that mimics human vowel sounds. FORMANT works best
with signals high in harmonic content.;
