#N canvas 0 22 863 572 10;
#X obj 346 219 sig~;
#X obj 346 101 t f f;
#X obj 182 115 cnv 5 5 5 empty empty AUX 0 0 0 12 -262144 -66577 0
;
#X obj 116 115 cnv 5 5 5 empty empty ORGANELLE 0 0 0 12 -262144 -66577
0;
#X obj 347 433 outlet~;
#X obj 346 53 r aux;
#X obj 104 192 cnv 5 5 5 empty empty OUT 0 0 0 8 -262144 -1 0;
#X obj 408 198 sel 1;
#X obj 408 221 t b;
#X obj 408 243 f;
#X obj 440 243 + 1;
#X obj 408 265 % 2;
#X msg 475 399 \; led 1;
#X obj 408 324 t f b;
#X obj 408 287 t f f;
#X obj 475 334 sel 0 1;
#X obj 116 136 tgl 15 1 \$0-organelle-aux-toggle-s \$0-organelle-aux-toggle-r
MOMENTARY/TOGGLE 0 -7 0 10 -262144 -1 -1 0 1;
#X symbolatom 138 137 10 0 0 0 - - -, f 10;
#X msg 157 52 set toggle;
#X obj 138 22 sel 0 1;
#X msg 138 80 set momentary;
#X obj 346 143 spigot;
#X obj 408 143 spigot;
#X obj 138 1 r \$0-organelle-aux-toggle-s;
#X obj 414 47 r \$0-organelle-aux-toggle-s;
#X obj 414 69 t f f;
#X obj 408 363 sig~;
#X msg 283 279 \; led 1;
#X msg 302 242 \; led 5;
#X obj 283 214 sel 0 1;
#X obj 346 165 t f f;
#X msg 494 362 \; led 3;
#X obj 468 204 loadbang;
#X obj 414 91 == 0;
#X obj 472 469 outlet~ VELOCITY;
#X obj 104 170 cnv 15 15 15 empty \$0-aux-gui-r empty 20 12 0 14 -33289
-1 0;
#X obj 666 182 + 12;
#X msg 666 204 color \$1;
#X obj 666 226 s \$0-aux-gui-r;
#X connect 0 0 4 0;
#X connect 1 0 21 0;
#X connect 1 1 22 0;
#X connect 5 0 1 0;
#X connect 7 0 8 0;
#X connect 8 0 9 0;
#X connect 9 0 10 0;
#X connect 9 0 11 0;
#X connect 10 0 9 1;
#X connect 11 0 14 0;
#X connect 13 0 26 0;
#X connect 14 0 13 0;
#X connect 14 1 15 0;
#X connect 15 0 12 0;
#X connect 15 1 31 0;
#X connect 18 0 17 0;
#X connect 19 0 20 0;
#X connect 19 1 18 0;
#X connect 20 0 17 0;
#X connect 21 0 30 0;
#X connect 22 0 7 0;
#X connect 22 0 36 0;
#X connect 23 0 19 0;
#X connect 24 0 25 0;
#X connect 25 0 33 0;
#X connect 25 1 22 1;
#X connect 26 0 4 0;
#X connect 29 0 27 0;
#X connect 29 1 28 0;
#X connect 30 0 0 0;
#X connect 30 0 36 0;
#X connect 30 1 29 0;
#X connect 32 0 8 0;
#X connect 33 0 21 1;
#X connect 36 0 37 0;
#X connect 37 0 38 0;
#X coords 0 -1 1 1 125 100 2 100 100;
