#N canvas 0 22 713 396 10;
#X obj 23 327 cnv 15 400 30 empty empty OUTPUTS: 20 12 0 14 -158136
-262144 0;
#X obj 20 99 cnv 15 400 30 empty empty CONTROLS: 20 12 0 14 -158136
-262144 0;
#X obj 20 205 cnv 15 400 30 empty empty INPUTS: 20 12 0 14 -158136
-262144 0;
#X obj 20 17 cnv 15 400 30 empty empty OVERDRIVE: 20 12 0 14 -150893
-262144 0;
#X text 24 241 IN - signal in;
#X obj 442 16 overdrive;
#X text 24 61 The "overdrive" module is distortion/overdrive/fuzz effect.
;
#X text 24 137 DRIVE - controls the distortion/overdrive/fuzz amount
;
#X text 24 173 TONE - controls the EQ of the fuzz;
#X text 24 271 DRIVE - input for cv-control of the DRIVE parameter
;
#X text 24 302 TONE - input for cv-control of the TONE parameter;
#X text 26 361 OUT - output;
