#N canvas 0 22 694 419 10;
#X obj 23 307 cnv 15 400 30 empty empty OUTPUTS: 20 12 0 14 -158136
-262144 0;
#X obj 20 90 cnv 15 400 30 empty empty CONTROLS: 20 12 0 14 -158136
-262144 0;
#X obj 20 219 cnv 15 400 30 empty empty INPUTS: 20 12 0 14 -158136
-262144 0;
#X obj 20 17 cnv 15 400 30 empty empty WAVEFOLD 20 12 0 14 -150893
-262144 0;
#X text 26 341 OUT - output;
#X text 24 255 IN - signal input;
#X obj 430 18 wavefold;
#X text 24 128 FOLD - controls amount of wavefolding to the signal
;
#X text 24 159 CV - attenuator for incoming CV at the FOLD cv-input
;
#X text 24 278 FOLD - input for cv-control over the FOLD parameter.
;
#X text 25 186 STAGES - three selectable stages to control amount of
wavefolding;
#X text 20 59 The "WAVEFOLD" module is a wavefolder with three selectable
stages (fold amount) and cv-control over FOLD.;
